M48
; DRILL file {KiCad (6.0.11)} date Sat Mar 11 13:58:43 2023
; FORMAT={-:-/ absolute / metric / decimal}
; #@! TF.CreationDate,2023-03-11T13:58:43+01:00
; #@! TF.GenerationSoftware,Kicad,Pcbnew,(6.0.11)
; #@! TF.FileFunction,Plated,1,2,PTH
FMAT,2
METRIC
; #@! TA.AperFunction,Plated,PTH,ViaDrill
T1C0.400
; #@! TA.AperFunction,Plated,PTH,ComponentDrill
T2C1.520
%
G90
G05
T1
X56.25Y-52.25
X58.5Y-55.0
X58.5Y-59.5
X61.0Y-57.25
X62.0Y-53.5
X66.85Y-45.65
X69.25Y-61.6
X69.25Y-64.0
X72.8Y-66.6
X73.6Y-66.6
X74.25Y-76.0
X74.5Y-64.0
X76.5Y-66.0
X79.0Y-60.5
X79.25Y-65.75
X80.5Y-61.0
X80.75Y-55.25
X84.999Y-59.9
X85.0Y-64.0
X85.0Y-65.0
X85.0Y-66.0
X86.5Y-61.0
X88.0Y-73.75
X88.25Y-63.15
X88.25Y-67.4
X89.6Y-60.0
X91.5Y-64.0
X91.5Y-65.0
X91.5Y-66.0
X91.5Y-67.0
X92.738Y-59.637
X93.75Y-77.25
X96.75Y-68.25
X98.577Y-72.623
X99.15Y-66.0
X100.65Y-71.32
X101.48Y-73.91
X102.3Y-66.65
X103.162Y-72.787
X103.25Y-56.25
X103.25Y-78.75
X103.5Y-47.5
X104.05Y-65.55
X106.4Y-45.625
X106.85Y-71.9
X106.95Y-69.8
X107.04Y-74.34
X107.11Y-62.61
X107.7Y-70.8
X107.712Y-68.787
X108.0Y-60.5
X108.075Y-67.85
X108.75Y-56.5
X108.8Y-72.85
X109.0Y-50.75
X110.2Y-65.19
X110.49Y-46.62
X110.812Y-68.787
X110.97Y-56.5
X111.0Y-78.75
X112.25Y-51.0
X112.25Y-71.95
X112.5Y-69.8
X112.85Y-68.1
X113.6Y-70.75
X113.78Y-74.16
X114.137Y-57.637
X114.15Y-46.59
X114.847Y-60.273
X114.89Y-63.08
X115.15Y-64.99
X116.05Y-56.35
X116.25Y-60.75
X116.25Y-66.2
X118.28Y-70.67
X118.55Y-67.05
X120.1Y-74.2
X120.5Y-59.85
X120.537Y-67.287
X121.52Y-78.78
X122.54Y-64.83
X123.68Y-73.093
X124.3Y-63.5
X124.36Y-59.79
X125.0Y-67.85
X125.4Y-70.15
X126.3Y-70.9
X126.36Y-64.71
X128.43Y-70.43
X128.45Y-76.45
X128.48Y-78.78
X130.19Y-64.74
X130.5Y-71.8
X132.6Y-55.25
X133.8Y-78.65
X134.32Y-71.77
X135.0Y-68.1
X137.22Y-71.77
X140.12Y-71.77
X141.75Y-63.0
X142.55Y-55.1
X143.5Y-58.25
X143.5Y-59.5
X143.5Y-60.75
X143.82Y-69.89
X144.65Y-62.2
X145.9Y-55.5
X147.0Y-51.75
X147.76Y-74.26
X151.13Y-71.57
X152.55Y-55.1
T2
X62.15Y-65.41
X62.15Y-70.49
X148.0Y-65.41
X148.0Y-70.49
T0
M30
