G04 #@! TF.GenerationSoftware,KiCad,Pcbnew,(6.0.11)*
G04 #@! TF.CreationDate,2023-03-11T13:58:41+01:00*
G04 #@! TF.ProjectId,HeaterPSU_Digital,48656174-6572-4505-9355-5f4469676974,rev?*
G04 #@! TF.SameCoordinates,Original*
G04 #@! TF.FileFunction,Legend,Top*
G04 #@! TF.FilePolarity,Positive*
%FSLAX46Y46*%
G04 Gerber Fmt 4.6, Leading zero omitted, Abs format (unit mm)*
G04 Created by KiCad (PCBNEW (6.0.11)) date 2023-03-11 13:58:41*
%MOMM*%
%LPD*%
G01*
G04 APERTURE LIST*
G04 Aperture macros list*
%AMRoundRect*
0 Rectangle with rounded corners*
0 $1 Rounding radius*
0 $2 $3 $4 $5 $6 $7 $8 $9 X,Y pos of 4 corners*
0 Add a 4 corners polygon primitive as box body*
4,1,4,$2,$3,$4,$5,$6,$7,$8,$9,$2,$3,0*
0 Add four circle primitives for the rounded corners*
1,1,$1+$1,$2,$3*
1,1,$1+$1,$4,$5*
1,1,$1+$1,$6,$7*
1,1,$1+$1,$8,$9*
0 Add four rect primitives between the rounded corners*
20,1,$1+$1,$2,$3,$4,$5,0*
20,1,$1+$1,$4,$5,$6,$7,0*
20,1,$1+$1,$6,$7,$8,$9,0*
20,1,$1+$1,$8,$9,$2,$3,0*%
G04 Aperture macros list end*
%ADD10C,0.300000*%
%ADD11C,0.150000*%
%ADD12C,0.100000*%
%ADD13C,0.120000*%
%ADD14RoundRect,0.237500X-0.287500X-0.237500X0.287500X-0.237500X0.287500X0.237500X-0.287500X0.237500X0*%
%ADD15RoundRect,0.250000X-1.075000X0.400000X-1.075000X-0.400000X1.075000X-0.400000X1.075000X0.400000X0*%
%ADD16R,0.650000X1.560000*%
%ADD17RoundRect,0.237500X0.300000X0.237500X-0.300000X0.237500X-0.300000X-0.237500X0.300000X-0.237500X0*%
%ADD18RoundRect,0.237500X-0.237500X0.300000X-0.237500X-0.300000X0.237500X-0.300000X0.237500X0.300000X0*%
%ADD19RoundRect,0.237500X-0.300000X-0.237500X0.300000X-0.237500X0.300000X0.237500X-0.300000X0.237500X0*%
%ADD20R,0.400000X1.560000*%
%ADD21RoundRect,0.150000X-0.825000X-0.150000X0.825000X-0.150000X0.825000X0.150000X-0.825000X0.150000X0*%
%ADD22R,1.200000X0.900000*%
%ADD23C,3.200000*%
%ADD24R,2.100000X0.750000*%
%ADD25RoundRect,0.237500X-0.237500X0.250000X-0.237500X-0.250000X0.237500X-0.250000X0.237500X0.250000X0*%
%ADD26RoundRect,0.237500X0.250000X0.237500X-0.250000X0.237500X-0.250000X-0.237500X0.250000X-0.237500X0*%
%ADD27RoundRect,0.250000X1.075000X-0.400000X1.075000X0.400000X-1.075000X0.400000X-1.075000X-0.400000X0*%
%ADD28RoundRect,0.070000X0.650000X0.300000X-0.650000X0.300000X-0.650000X-0.300000X0.650000X-0.300000X0*%
%ADD29RoundRect,0.150000X-0.512500X-0.150000X0.512500X-0.150000X0.512500X0.150000X-0.512500X0.150000X0*%
%ADD30R,3.000000X3.000000*%
%ADD31C,3.000000*%
G04 APERTURE END LIST*
D10*
X101900000Y-69685714D02*
X101971428Y-69757142D01*
X101900000Y-69828571D01*
X101828571Y-69757142D01*
X101900000Y-69685714D01*
X101900000Y-69828571D01*
X107650000Y-69735714D02*
X107721428Y-69807142D01*
X107650000Y-69878571D01*
X107578571Y-69807142D01*
X107650000Y-69735714D01*
X107650000Y-69878571D01*
X124150000Y-60985714D02*
X124221428Y-61057142D01*
X124150000Y-61128571D01*
X124078571Y-61057142D01*
X124150000Y-60985714D01*
X124150000Y-61128571D01*
X103250000Y-60285714D02*
X103321428Y-60357142D01*
X103250000Y-60428571D01*
X103178571Y-60357142D01*
X103250000Y-60285714D01*
X103250000Y-60428571D01*
D11*
X61600000Y-46352380D02*
X61600000Y-45352380D01*
X61980952Y-45352380D01*
X62076190Y-45400000D01*
X62123809Y-45447619D01*
X62171428Y-45542857D01*
X62171428Y-45685714D01*
X62123809Y-45780952D01*
X62076190Y-45828571D01*
X61980952Y-45876190D01*
X61600000Y-45876190D01*
X62742857Y-46352380D02*
X62647619Y-46304761D01*
X62600000Y-46257142D01*
X62552380Y-46161904D01*
X62552380Y-45876190D01*
X62600000Y-45780952D01*
X62647619Y-45733333D01*
X62742857Y-45685714D01*
X62885714Y-45685714D01*
X62980952Y-45733333D01*
X63028571Y-45780952D01*
X63076190Y-45876190D01*
X63076190Y-46161904D01*
X63028571Y-46257142D01*
X62980952Y-46304761D01*
X62885714Y-46352380D01*
X62742857Y-46352380D01*
X63647619Y-46352380D02*
X63552380Y-46304761D01*
X63504761Y-46209523D01*
X63504761Y-45352380D01*
X64028571Y-46257142D02*
X64076190Y-46304761D01*
X64028571Y-46352380D01*
X63980952Y-46304761D01*
X64028571Y-46257142D01*
X64028571Y-46352380D01*
X64885714Y-46304761D02*
X64790476Y-46352380D01*
X64600000Y-46352380D01*
X64504761Y-46304761D01*
X64457142Y-46209523D01*
X64457142Y-45828571D01*
X64504761Y-45733333D01*
X64600000Y-45685714D01*
X64790476Y-45685714D01*
X64885714Y-45733333D01*
X64933333Y-45828571D01*
X64933333Y-45923809D01*
X64457142Y-46019047D01*
X65361904Y-46352380D02*
X65361904Y-45685714D01*
X65361904Y-45876190D02*
X65409523Y-45780952D01*
X65457142Y-45733333D01*
X65552380Y-45685714D01*
X65647619Y-45685714D01*
X65980952Y-46352380D02*
X65980952Y-45685714D01*
X65980952Y-45876190D02*
X66028571Y-45780952D01*
X66076190Y-45733333D01*
X66171428Y-45685714D01*
X66266666Y-45685714D01*
X66600000Y-46257142D02*
X66647619Y-46304761D01*
X66600000Y-46352380D01*
X66552380Y-46304761D01*
X66600000Y-46257142D01*
X66600000Y-46352380D01*
D10*
X121700000Y-72935714D02*
X121771428Y-73007142D01*
X121700000Y-73078571D01*
X121628571Y-73007142D01*
X121700000Y-72935714D01*
X121700000Y-73078571D01*
D11*
X69516666Y-46352380D02*
X69516666Y-45352380D01*
X69897619Y-45352380D01*
X69992857Y-45400000D01*
X70040476Y-45447619D01*
X70088095Y-45542857D01*
X70088095Y-45685714D01*
X70040476Y-45780952D01*
X69992857Y-45828571D01*
X69897619Y-45876190D01*
X69516666Y-45876190D01*
X70421428Y-45352380D02*
X70659523Y-46352380D01*
X70850000Y-45638095D01*
X71040476Y-46352380D01*
X71278571Y-45352380D01*
X72230952Y-46352380D02*
X71897619Y-45876190D01*
X71659523Y-46352380D02*
X71659523Y-45352380D01*
X72040476Y-45352380D01*
X72135714Y-45400000D01*
X72183333Y-45447619D01*
X72230952Y-45542857D01*
X72230952Y-45685714D01*
X72183333Y-45780952D01*
X72135714Y-45828571D01*
X72040476Y-45876190D01*
X71659523Y-45876190D01*
D12*
X70259523Y-48911904D02*
X70259523Y-48111904D01*
X70450000Y-48111904D01*
X70564285Y-48150000D01*
X70640476Y-48226190D01*
X70678571Y-48302380D01*
X70716666Y-48454761D01*
X70716666Y-48569047D01*
X70678571Y-48721428D01*
X70640476Y-48797619D01*
X70564285Y-48873809D01*
X70450000Y-48911904D01*
X70259523Y-48911904D01*
X71021428Y-48188095D02*
X71059523Y-48150000D01*
X71135714Y-48111904D01*
X71326190Y-48111904D01*
X71402380Y-48150000D01*
X71440476Y-48188095D01*
X71478571Y-48264285D01*
X71478571Y-48340476D01*
X71440476Y-48454761D01*
X70983333Y-48911904D01*
X71478571Y-48911904D01*
X64116666Y-54861904D02*
X63850000Y-54480952D01*
X63659523Y-54861904D02*
X63659523Y-54061904D01*
X63964285Y-54061904D01*
X64040476Y-54100000D01*
X64078571Y-54138095D01*
X64116666Y-54214285D01*
X64116666Y-54328571D01*
X64078571Y-54404761D01*
X64040476Y-54442857D01*
X63964285Y-54480952D01*
X63659523Y-54480952D01*
X64878571Y-54861904D02*
X64421428Y-54861904D01*
X64650000Y-54861904D02*
X64650000Y-54061904D01*
X64573809Y-54176190D01*
X64497619Y-54252380D01*
X64421428Y-54290476D01*
X131061904Y-71009523D02*
X131709523Y-71009523D01*
X131785714Y-70971428D01*
X131823809Y-70933333D01*
X131861904Y-70857142D01*
X131861904Y-70704761D01*
X131823809Y-70628571D01*
X131785714Y-70590476D01*
X131709523Y-70552380D01*
X131061904Y-70552380D01*
X131061904Y-69790476D02*
X131061904Y-70171428D01*
X131442857Y-70209523D01*
X131404761Y-70171428D01*
X131366666Y-70095238D01*
X131366666Y-69904761D01*
X131404761Y-69828571D01*
X131442857Y-69790476D01*
X131519047Y-69752380D01*
X131709523Y-69752380D01*
X131785714Y-69790476D01*
X131823809Y-69828571D01*
X131861904Y-69904761D01*
X131861904Y-70095238D01*
X131823809Y-70171428D01*
X131785714Y-70209523D01*
X128085714Y-65635714D02*
X128047619Y-65673809D01*
X127933333Y-65711904D01*
X127857142Y-65711904D01*
X127742857Y-65673809D01*
X127666666Y-65597619D01*
X127628571Y-65521428D01*
X127590476Y-65369047D01*
X127590476Y-65254761D01*
X127628571Y-65102380D01*
X127666666Y-65026190D01*
X127742857Y-64950000D01*
X127857142Y-64911904D01*
X127933333Y-64911904D01*
X128047619Y-64950000D01*
X128085714Y-64988095D01*
X128390476Y-64988095D02*
X128428571Y-64950000D01*
X128504761Y-64911904D01*
X128695238Y-64911904D01*
X128771428Y-64950000D01*
X128809523Y-64988095D01*
X128847619Y-65064285D01*
X128847619Y-65140476D01*
X128809523Y-65254761D01*
X128352380Y-65711904D01*
X128847619Y-65711904D01*
X129342857Y-64911904D02*
X129419047Y-64911904D01*
X129495238Y-64950000D01*
X129533333Y-64988095D01*
X129571428Y-65064285D01*
X129609523Y-65216666D01*
X129609523Y-65407142D01*
X129571428Y-65559523D01*
X129533333Y-65635714D01*
X129495238Y-65673809D01*
X129419047Y-65711904D01*
X129342857Y-65711904D01*
X129266666Y-65673809D01*
X129228571Y-65635714D01*
X129190476Y-65559523D01*
X129152380Y-65407142D01*
X129152380Y-65216666D01*
X129190476Y-65064285D01*
X129228571Y-64988095D01*
X129266666Y-64950000D01*
X129342857Y-64911904D01*
X104116666Y-75335714D02*
X104078571Y-75373809D01*
X103964285Y-75411904D01*
X103888095Y-75411904D01*
X103773809Y-75373809D01*
X103697619Y-75297619D01*
X103659523Y-75221428D01*
X103621428Y-75069047D01*
X103621428Y-74954761D01*
X103659523Y-74802380D01*
X103697619Y-74726190D01*
X103773809Y-74650000D01*
X103888095Y-74611904D01*
X103964285Y-74611904D01*
X104078571Y-74650000D01*
X104116666Y-74688095D01*
X104573809Y-74954761D02*
X104497619Y-74916666D01*
X104459523Y-74878571D01*
X104421428Y-74802380D01*
X104421428Y-74764285D01*
X104459523Y-74688095D01*
X104497619Y-74650000D01*
X104573809Y-74611904D01*
X104726190Y-74611904D01*
X104802380Y-74650000D01*
X104840476Y-74688095D01*
X104878571Y-74764285D01*
X104878571Y-74802380D01*
X104840476Y-74878571D01*
X104802380Y-74916666D01*
X104726190Y-74954761D01*
X104573809Y-74954761D01*
X104497619Y-74992857D01*
X104459523Y-75030952D01*
X104421428Y-75107142D01*
X104421428Y-75259523D01*
X104459523Y-75335714D01*
X104497619Y-75373809D01*
X104573809Y-75411904D01*
X104726190Y-75411904D01*
X104802380Y-75373809D01*
X104840476Y-75335714D01*
X104878571Y-75259523D01*
X104878571Y-75107142D01*
X104840476Y-75030952D01*
X104802380Y-74992857D01*
X104726190Y-74954761D01*
X101235714Y-64333333D02*
X101273809Y-64371428D01*
X101311904Y-64485714D01*
X101311904Y-64561904D01*
X101273809Y-64676190D01*
X101197619Y-64752380D01*
X101121428Y-64790476D01*
X100969047Y-64828571D01*
X100854761Y-64828571D01*
X100702380Y-64790476D01*
X100626190Y-64752380D01*
X100550000Y-64676190D01*
X100511904Y-64561904D01*
X100511904Y-64485714D01*
X100550000Y-64371428D01*
X100588095Y-64333333D01*
X101311904Y-63952380D02*
X101311904Y-63800000D01*
X101273809Y-63723809D01*
X101235714Y-63685714D01*
X101121428Y-63609523D01*
X100969047Y-63571428D01*
X100664285Y-63571428D01*
X100588095Y-63609523D01*
X100550000Y-63647619D01*
X100511904Y-63723809D01*
X100511904Y-63876190D01*
X100550000Y-63952380D01*
X100588095Y-63990476D01*
X100664285Y-64028571D01*
X100854761Y-64028571D01*
X100930952Y-63990476D01*
X100969047Y-63952380D01*
X101007142Y-63876190D01*
X101007142Y-63723809D01*
X100969047Y-63647619D01*
X100930952Y-63609523D01*
X100854761Y-63571428D01*
X122135714Y-75635714D02*
X122097619Y-75673809D01*
X121983333Y-75711904D01*
X121907142Y-75711904D01*
X121792857Y-75673809D01*
X121716666Y-75597619D01*
X121678571Y-75521428D01*
X121640476Y-75369047D01*
X121640476Y-75254761D01*
X121678571Y-75102380D01*
X121716666Y-75026190D01*
X121792857Y-74950000D01*
X121907142Y-74911904D01*
X121983333Y-74911904D01*
X122097619Y-74950000D01*
X122135714Y-74988095D01*
X122440476Y-74988095D02*
X122478571Y-74950000D01*
X122554761Y-74911904D01*
X122745238Y-74911904D01*
X122821428Y-74950000D01*
X122859523Y-74988095D01*
X122897619Y-75064285D01*
X122897619Y-75140476D01*
X122859523Y-75254761D01*
X122402380Y-75711904D01*
X122897619Y-75711904D01*
X123621428Y-74911904D02*
X123240476Y-74911904D01*
X123202380Y-75292857D01*
X123240476Y-75254761D01*
X123316666Y-75216666D01*
X123507142Y-75216666D01*
X123583333Y-75254761D01*
X123621428Y-75292857D01*
X123659523Y-75369047D01*
X123659523Y-75559523D01*
X123621428Y-75635714D01*
X123583333Y-75673809D01*
X123507142Y-75711904D01*
X123316666Y-75711904D01*
X123240476Y-75673809D01*
X123202380Y-75635714D01*
X101235714Y-61014285D02*
X101273809Y-61052380D01*
X101311904Y-61166666D01*
X101311904Y-61242857D01*
X101273809Y-61357142D01*
X101197619Y-61433333D01*
X101121428Y-61471428D01*
X100969047Y-61509523D01*
X100854761Y-61509523D01*
X100702380Y-61471428D01*
X100626190Y-61433333D01*
X100550000Y-61357142D01*
X100511904Y-61242857D01*
X100511904Y-61166666D01*
X100550000Y-61052380D01*
X100588095Y-61014285D01*
X101311904Y-60252380D02*
X101311904Y-60709523D01*
X101311904Y-60480952D02*
X100511904Y-60480952D01*
X100626190Y-60557142D01*
X100702380Y-60633333D01*
X100740476Y-60709523D01*
X100511904Y-59757142D02*
X100511904Y-59680952D01*
X100550000Y-59604761D01*
X100588095Y-59566666D01*
X100664285Y-59528571D01*
X100816666Y-59490476D01*
X101007142Y-59490476D01*
X101159523Y-59528571D01*
X101235714Y-59566666D01*
X101273809Y-59604761D01*
X101311904Y-59680952D01*
X101311904Y-59757142D01*
X101273809Y-59833333D01*
X101235714Y-59871428D01*
X101159523Y-59909523D01*
X101007142Y-59947619D01*
X100816666Y-59947619D01*
X100664285Y-59909523D01*
X100588095Y-59871428D01*
X100550000Y-59833333D01*
X100511904Y-59757142D01*
X119711904Y-71009523D02*
X120359523Y-71009523D01*
X120435714Y-70971428D01*
X120473809Y-70933333D01*
X120511904Y-70857142D01*
X120511904Y-70704761D01*
X120473809Y-70628571D01*
X120435714Y-70590476D01*
X120359523Y-70552380D01*
X119711904Y-70552380D01*
X119711904Y-70247619D02*
X119711904Y-69714285D01*
X120511904Y-70057142D01*
X106670476Y-65141904D02*
X106670476Y-65789523D01*
X106708571Y-65865714D01*
X106746666Y-65903809D01*
X106822857Y-65941904D01*
X106975238Y-65941904D01*
X107051428Y-65903809D01*
X107089523Y-65865714D01*
X107127619Y-65789523D01*
X107127619Y-65141904D01*
X107470476Y-65218095D02*
X107508571Y-65180000D01*
X107584761Y-65141904D01*
X107775238Y-65141904D01*
X107851428Y-65180000D01*
X107889523Y-65218095D01*
X107927619Y-65294285D01*
X107927619Y-65370476D01*
X107889523Y-65484761D01*
X107432380Y-65941904D01*
X107927619Y-65941904D01*
X66759523Y-55011904D02*
X66759523Y-54211904D01*
X66950000Y-54211904D01*
X67064285Y-54250000D01*
X67140476Y-54326190D01*
X67178571Y-54402380D01*
X67216666Y-54554761D01*
X67216666Y-54669047D01*
X67178571Y-54821428D01*
X67140476Y-54897619D01*
X67064285Y-54973809D01*
X66950000Y-55011904D01*
X66759523Y-55011904D01*
X67902380Y-54478571D02*
X67902380Y-55011904D01*
X67711904Y-54173809D02*
X67521428Y-54745238D01*
X68016666Y-54745238D01*
X120283333Y-64711904D02*
X120283333Y-65283333D01*
X120245238Y-65397619D01*
X120169047Y-65473809D01*
X120054761Y-65511904D01*
X119978571Y-65511904D01*
X120588095Y-64711904D02*
X121083333Y-64711904D01*
X120816666Y-65016666D01*
X120930952Y-65016666D01*
X121007142Y-65054761D01*
X121045238Y-65092857D01*
X121083333Y-65169047D01*
X121083333Y-65359523D01*
X121045238Y-65435714D01*
X121007142Y-65473809D01*
X120930952Y-65511904D01*
X120702380Y-65511904D01*
X120626190Y-65473809D01*
X120588095Y-65435714D01*
X106815714Y-57615714D02*
X106777619Y-57653809D01*
X106663333Y-57691904D01*
X106587142Y-57691904D01*
X106472857Y-57653809D01*
X106396666Y-57577619D01*
X106358571Y-57501428D01*
X106320476Y-57349047D01*
X106320476Y-57234761D01*
X106358571Y-57082380D01*
X106396666Y-57006190D01*
X106472857Y-56930000D01*
X106587142Y-56891904D01*
X106663333Y-56891904D01*
X106777619Y-56930000D01*
X106815714Y-56968095D01*
X107577619Y-57691904D02*
X107120476Y-57691904D01*
X107349047Y-57691904D02*
X107349047Y-56891904D01*
X107272857Y-57006190D01*
X107196666Y-57082380D01*
X107120476Y-57120476D01*
X107958571Y-57691904D02*
X108110952Y-57691904D01*
X108187142Y-57653809D01*
X108225238Y-57615714D01*
X108301428Y-57501428D01*
X108339523Y-57349047D01*
X108339523Y-57044285D01*
X108301428Y-56968095D01*
X108263333Y-56930000D01*
X108187142Y-56891904D01*
X108034761Y-56891904D01*
X107958571Y-56930000D01*
X107920476Y-56968095D01*
X107882380Y-57044285D01*
X107882380Y-57234761D01*
X107920476Y-57310952D01*
X107958571Y-57349047D01*
X108034761Y-57387142D01*
X108187142Y-57387142D01*
X108263333Y-57349047D01*
X108301428Y-57310952D01*
X108339523Y-57234761D01*
X113961904Y-64826785D02*
X113580952Y-65093452D01*
X113961904Y-65283928D02*
X113161904Y-65283928D01*
X113161904Y-64979166D01*
X113200000Y-64902976D01*
X113238095Y-64864880D01*
X113314285Y-64826785D01*
X113428571Y-64826785D01*
X113504761Y-64864880D01*
X113542857Y-64902976D01*
X113580952Y-64979166D01*
X113580952Y-65283928D01*
X113961904Y-64064880D02*
X113961904Y-64522023D01*
X113961904Y-64293452D02*
X113161904Y-64293452D01*
X113276190Y-64369642D01*
X113352380Y-64445833D01*
X113390476Y-64522023D01*
X113504761Y-63607738D02*
X113466666Y-63683928D01*
X113428571Y-63722023D01*
X113352380Y-63760119D01*
X113314285Y-63760119D01*
X113238095Y-63722023D01*
X113200000Y-63683928D01*
X113161904Y-63607738D01*
X113161904Y-63455357D01*
X113200000Y-63379166D01*
X113238095Y-63341071D01*
X113314285Y-63302976D01*
X113352380Y-63302976D01*
X113428571Y-63341071D01*
X113466666Y-63379166D01*
X113504761Y-63455357D01*
X113504761Y-63607738D01*
X113542857Y-63683928D01*
X113580952Y-63722023D01*
X113657142Y-63760119D01*
X113809523Y-63760119D01*
X113885714Y-63722023D01*
X113923809Y-63683928D01*
X113961904Y-63607738D01*
X113961904Y-63455357D01*
X113923809Y-63379166D01*
X113885714Y-63341071D01*
X113809523Y-63302976D01*
X113657142Y-63302976D01*
X113580952Y-63341071D01*
X113542857Y-63379166D01*
X113504761Y-63455357D01*
X128085714Y-75585714D02*
X128047619Y-75623809D01*
X127933333Y-75661904D01*
X127857142Y-75661904D01*
X127742857Y-75623809D01*
X127666666Y-75547619D01*
X127628571Y-75471428D01*
X127590476Y-75319047D01*
X127590476Y-75204761D01*
X127628571Y-75052380D01*
X127666666Y-74976190D01*
X127742857Y-74900000D01*
X127857142Y-74861904D01*
X127933333Y-74861904D01*
X128047619Y-74900000D01*
X128085714Y-74938095D01*
X128390476Y-74938095D02*
X128428571Y-74900000D01*
X128504761Y-74861904D01*
X128695238Y-74861904D01*
X128771428Y-74900000D01*
X128809523Y-74938095D01*
X128847619Y-75014285D01*
X128847619Y-75090476D01*
X128809523Y-75204761D01*
X128352380Y-75661904D01*
X128847619Y-75661904D01*
X129533333Y-74861904D02*
X129380952Y-74861904D01*
X129304761Y-74900000D01*
X129266666Y-74938095D01*
X129190476Y-75052380D01*
X129152380Y-75204761D01*
X129152380Y-75509523D01*
X129190476Y-75585714D01*
X129228571Y-75623809D01*
X129304761Y-75661904D01*
X129457142Y-75661904D01*
X129533333Y-75623809D01*
X129571428Y-75585714D01*
X129609523Y-75509523D01*
X129609523Y-75319047D01*
X129571428Y-75242857D01*
X129533333Y-75204761D01*
X129457142Y-75166666D01*
X129304761Y-75166666D01*
X129228571Y-75204761D01*
X129190476Y-75242857D01*
X129152380Y-75319047D01*
X128885714Y-60986904D02*
X128619047Y-60605952D01*
X128428571Y-60986904D02*
X128428571Y-60186904D01*
X128733333Y-60186904D01*
X128809523Y-60225000D01*
X128847619Y-60263095D01*
X128885714Y-60339285D01*
X128885714Y-60453571D01*
X128847619Y-60529761D01*
X128809523Y-60567857D01*
X128733333Y-60605952D01*
X128428571Y-60605952D01*
X129190476Y-60263095D02*
X129228571Y-60225000D01*
X129304761Y-60186904D01*
X129495238Y-60186904D01*
X129571428Y-60225000D01*
X129609523Y-60263095D01*
X129647619Y-60339285D01*
X129647619Y-60415476D01*
X129609523Y-60529761D01*
X129152380Y-60986904D01*
X129647619Y-60986904D01*
X130142857Y-60186904D02*
X130219047Y-60186904D01*
X130295238Y-60225000D01*
X130333333Y-60263095D01*
X130371428Y-60339285D01*
X130409523Y-60491666D01*
X130409523Y-60682142D01*
X130371428Y-60834523D01*
X130333333Y-60910714D01*
X130295238Y-60948809D01*
X130219047Y-60986904D01*
X130142857Y-60986904D01*
X130066666Y-60948809D01*
X130028571Y-60910714D01*
X129990476Y-60834523D01*
X129952380Y-60682142D01*
X129952380Y-60491666D01*
X129990476Y-60339285D01*
X130028571Y-60263095D01*
X130066666Y-60225000D01*
X130142857Y-60186904D01*
X70491666Y-55111904D02*
X70225000Y-54730952D01*
X70034523Y-55111904D02*
X70034523Y-54311904D01*
X70339285Y-54311904D01*
X70415476Y-54350000D01*
X70453571Y-54388095D01*
X70491666Y-54464285D01*
X70491666Y-54578571D01*
X70453571Y-54654761D01*
X70415476Y-54692857D01*
X70339285Y-54730952D01*
X70034523Y-54730952D01*
X71215476Y-54311904D02*
X70834523Y-54311904D01*
X70796428Y-54692857D01*
X70834523Y-54654761D01*
X70910714Y-54616666D01*
X71101190Y-54616666D01*
X71177380Y-54654761D01*
X71215476Y-54692857D01*
X71253571Y-54769047D01*
X71253571Y-54959523D01*
X71215476Y-55035714D01*
X71177380Y-55073809D01*
X71101190Y-55111904D01*
X70910714Y-55111904D01*
X70834523Y-55073809D01*
X70796428Y-55035714D01*
X96352380Y-72511904D02*
X96619047Y-73311904D01*
X96885714Y-72511904D01*
X97609523Y-73311904D02*
X97342857Y-72930952D01*
X97152380Y-73311904D02*
X97152380Y-72511904D01*
X97457142Y-72511904D01*
X97533333Y-72550000D01*
X97571428Y-72588095D01*
X97609523Y-72664285D01*
X97609523Y-72778571D01*
X97571428Y-72854761D01*
X97533333Y-72892857D01*
X97457142Y-72930952D01*
X97152380Y-72930952D01*
X98371428Y-73311904D02*
X97914285Y-73311904D01*
X98142857Y-73311904D02*
X98142857Y-72511904D01*
X98066666Y-72626190D01*
X97990476Y-72702380D01*
X97914285Y-72740476D01*
X103785714Y-66985714D02*
X103747619Y-67023809D01*
X103633333Y-67061904D01*
X103557142Y-67061904D01*
X103442857Y-67023809D01*
X103366666Y-66947619D01*
X103328571Y-66871428D01*
X103290476Y-66719047D01*
X103290476Y-66604761D01*
X103328571Y-66452380D01*
X103366666Y-66376190D01*
X103442857Y-66300000D01*
X103557142Y-66261904D01*
X103633333Y-66261904D01*
X103747619Y-66300000D01*
X103785714Y-66338095D01*
X104547619Y-67061904D02*
X104090476Y-67061904D01*
X104319047Y-67061904D02*
X104319047Y-66261904D01*
X104242857Y-66376190D01*
X104166666Y-66452380D01*
X104090476Y-66490476D01*
X105309523Y-67061904D02*
X104852380Y-67061904D01*
X105080952Y-67061904D02*
X105080952Y-66261904D01*
X105004761Y-66376190D01*
X104928571Y-66452380D01*
X104852380Y-66490476D01*
X109435714Y-75435714D02*
X109397619Y-75473809D01*
X109283333Y-75511904D01*
X109207142Y-75511904D01*
X109092857Y-75473809D01*
X109016666Y-75397619D01*
X108978571Y-75321428D01*
X108940476Y-75169047D01*
X108940476Y-75054761D01*
X108978571Y-74902380D01*
X109016666Y-74826190D01*
X109092857Y-74750000D01*
X109207142Y-74711904D01*
X109283333Y-74711904D01*
X109397619Y-74750000D01*
X109435714Y-74788095D01*
X109740476Y-74788095D02*
X109778571Y-74750000D01*
X109854761Y-74711904D01*
X110045238Y-74711904D01*
X110121428Y-74750000D01*
X110159523Y-74788095D01*
X110197619Y-74864285D01*
X110197619Y-74940476D01*
X110159523Y-75054761D01*
X109702380Y-75511904D01*
X110197619Y-75511904D01*
X110502380Y-74788095D02*
X110540476Y-74750000D01*
X110616666Y-74711904D01*
X110807142Y-74711904D01*
X110883333Y-74750000D01*
X110921428Y-74788095D01*
X110959523Y-74864285D01*
X110959523Y-74940476D01*
X110921428Y-75054761D01*
X110464285Y-75511904D01*
X110959523Y-75511904D01*
X113785714Y-61064285D02*
X113823809Y-61102380D01*
X113861904Y-61216666D01*
X113861904Y-61292857D01*
X113823809Y-61407142D01*
X113747619Y-61483333D01*
X113671428Y-61521428D01*
X113519047Y-61559523D01*
X113404761Y-61559523D01*
X113252380Y-61521428D01*
X113176190Y-61483333D01*
X113100000Y-61407142D01*
X113061904Y-61292857D01*
X113061904Y-61216666D01*
X113100000Y-61102380D01*
X113138095Y-61064285D01*
X113138095Y-60759523D02*
X113100000Y-60721428D01*
X113061904Y-60645238D01*
X113061904Y-60454761D01*
X113100000Y-60378571D01*
X113138095Y-60340476D01*
X113214285Y-60302380D01*
X113290476Y-60302380D01*
X113404761Y-60340476D01*
X113861904Y-60797619D01*
X113861904Y-60302380D01*
X113061904Y-60035714D02*
X113061904Y-59540476D01*
X113366666Y-59807142D01*
X113366666Y-59692857D01*
X113404761Y-59616666D01*
X113442857Y-59578571D01*
X113519047Y-59540476D01*
X113709523Y-59540476D01*
X113785714Y-59578571D01*
X113823809Y-59616666D01*
X113861904Y-59692857D01*
X113861904Y-59921428D01*
X113823809Y-59997619D01*
X113785714Y-60035714D01*
X63609523Y-48911904D02*
X63609523Y-48111904D01*
X63800000Y-48111904D01*
X63914285Y-48150000D01*
X63990476Y-48226190D01*
X64028571Y-48302380D01*
X64066666Y-48454761D01*
X64066666Y-48569047D01*
X64028571Y-48721428D01*
X63990476Y-48797619D01*
X63914285Y-48873809D01*
X63800000Y-48911904D01*
X63609523Y-48911904D01*
X64333333Y-48111904D02*
X64828571Y-48111904D01*
X64561904Y-48416666D01*
X64676190Y-48416666D01*
X64752380Y-48454761D01*
X64790476Y-48492857D01*
X64828571Y-48569047D01*
X64828571Y-48759523D01*
X64790476Y-48835714D01*
X64752380Y-48873809D01*
X64676190Y-48911904D01*
X64447619Y-48911904D01*
X64371428Y-48873809D01*
X64333333Y-48835714D01*
X109390476Y-72461904D02*
X109390476Y-73109523D01*
X109428571Y-73185714D01*
X109466666Y-73223809D01*
X109542857Y-73261904D01*
X109695238Y-73261904D01*
X109771428Y-73223809D01*
X109809523Y-73185714D01*
X109847619Y-73109523D01*
X109847619Y-72461904D01*
X110571428Y-72461904D02*
X110419047Y-72461904D01*
X110342857Y-72500000D01*
X110304761Y-72538095D01*
X110228571Y-72652380D01*
X110190476Y-72804761D01*
X110190476Y-73109523D01*
X110228571Y-73185714D01*
X110266666Y-73223809D01*
X110342857Y-73261904D01*
X110495238Y-73261904D01*
X110571428Y-73223809D01*
X110609523Y-73185714D01*
X110647619Y-73109523D01*
X110647619Y-72919047D01*
X110609523Y-72842857D01*
X110571428Y-72804761D01*
X110495238Y-72766666D01*
X110342857Y-72766666D01*
X110266666Y-72804761D01*
X110228571Y-72842857D01*
X110190476Y-72919047D01*
X100185714Y-66911904D02*
X99919047Y-66530952D01*
X99728571Y-66911904D02*
X99728571Y-66111904D01*
X100033333Y-66111904D01*
X100109523Y-66150000D01*
X100147619Y-66188095D01*
X100185714Y-66264285D01*
X100185714Y-66378571D01*
X100147619Y-66454761D01*
X100109523Y-66492857D01*
X100033333Y-66530952D01*
X99728571Y-66530952D01*
X100947619Y-66911904D02*
X100490476Y-66911904D01*
X100719047Y-66911904D02*
X100719047Y-66111904D01*
X100642857Y-66226190D01*
X100566666Y-66302380D01*
X100490476Y-66340476D01*
X101709523Y-66911904D02*
X101252380Y-66911904D01*
X101480952Y-66911904D02*
X101480952Y-66111904D01*
X101404761Y-66226190D01*
X101328571Y-66302380D01*
X101252380Y-66340476D01*
X128860714Y-62636904D02*
X128594047Y-62255952D01*
X128403571Y-62636904D02*
X128403571Y-61836904D01*
X128708333Y-61836904D01*
X128784523Y-61875000D01*
X128822619Y-61913095D01*
X128860714Y-61989285D01*
X128860714Y-62103571D01*
X128822619Y-62179761D01*
X128784523Y-62217857D01*
X128708333Y-62255952D01*
X128403571Y-62255952D01*
X129622619Y-62636904D02*
X129165476Y-62636904D01*
X129394047Y-62636904D02*
X129394047Y-61836904D01*
X129317857Y-61951190D01*
X129241666Y-62027380D01*
X129165476Y-62065476D01*
X130003571Y-62636904D02*
X130155952Y-62636904D01*
X130232142Y-62598809D01*
X130270238Y-62560714D01*
X130346428Y-62446428D01*
X130384523Y-62294047D01*
X130384523Y-61989285D01*
X130346428Y-61913095D01*
X130308333Y-61875000D01*
X130232142Y-61836904D01*
X130079761Y-61836904D01*
X130003571Y-61875000D01*
X129965476Y-61913095D01*
X129927380Y-61989285D01*
X129927380Y-62179761D01*
X129965476Y-62255952D01*
X130003571Y-62294047D01*
X130079761Y-62332142D01*
X130232142Y-62332142D01*
X130308333Y-62294047D01*
X130346428Y-62255952D01*
X130384523Y-62179761D01*
X109435714Y-66985714D02*
X109397619Y-67023809D01*
X109283333Y-67061904D01*
X109207142Y-67061904D01*
X109092857Y-67023809D01*
X109016666Y-66947619D01*
X108978571Y-66871428D01*
X108940476Y-66719047D01*
X108940476Y-66604761D01*
X108978571Y-66452380D01*
X109016666Y-66376190D01*
X109092857Y-66300000D01*
X109207142Y-66261904D01*
X109283333Y-66261904D01*
X109397619Y-66300000D01*
X109435714Y-66338095D01*
X109740476Y-66338095D02*
X109778571Y-66300000D01*
X109854761Y-66261904D01*
X110045238Y-66261904D01*
X110121428Y-66300000D01*
X110159523Y-66338095D01*
X110197619Y-66414285D01*
X110197619Y-66490476D01*
X110159523Y-66604761D01*
X109702380Y-67061904D01*
X110197619Y-67061904D01*
X110883333Y-66528571D02*
X110883333Y-67061904D01*
X110692857Y-66223809D02*
X110502380Y-66795238D01*
X110997619Y-66795238D01*
X96985714Y-75385714D02*
X96947619Y-75423809D01*
X96833333Y-75461904D01*
X96757142Y-75461904D01*
X96642857Y-75423809D01*
X96566666Y-75347619D01*
X96528571Y-75271428D01*
X96490476Y-75119047D01*
X96490476Y-75004761D01*
X96528571Y-74852380D01*
X96566666Y-74776190D01*
X96642857Y-74700000D01*
X96757142Y-74661904D01*
X96833333Y-74661904D01*
X96947619Y-74700000D01*
X96985714Y-74738095D01*
X97290476Y-74738095D02*
X97328571Y-74700000D01*
X97404761Y-74661904D01*
X97595238Y-74661904D01*
X97671428Y-74700000D01*
X97709523Y-74738095D01*
X97747619Y-74814285D01*
X97747619Y-74890476D01*
X97709523Y-75004761D01*
X97252380Y-75461904D01*
X97747619Y-75461904D01*
X98509523Y-75461904D02*
X98052380Y-75461904D01*
X98280952Y-75461904D02*
X98280952Y-74661904D01*
X98204761Y-74776190D01*
X98128571Y-74852380D01*
X98052380Y-74890476D01*
X103690476Y-72411904D02*
X103690476Y-73059523D01*
X103728571Y-73135714D01*
X103766666Y-73173809D01*
X103842857Y-73211904D01*
X103995238Y-73211904D01*
X104071428Y-73173809D01*
X104109523Y-73135714D01*
X104147619Y-73059523D01*
X104147619Y-72411904D01*
X104452380Y-72411904D02*
X104947619Y-72411904D01*
X104680952Y-72716666D01*
X104795238Y-72716666D01*
X104871428Y-72754761D01*
X104909523Y-72792857D01*
X104947619Y-72869047D01*
X104947619Y-73059523D01*
X104909523Y-73135714D01*
X104871428Y-73173809D01*
X104795238Y-73211904D01*
X104566666Y-73211904D01*
X104490476Y-73173809D01*
X104452380Y-73135714D01*
D13*
X69215000Y-46515000D02*
X69215000Y-47985000D01*
X69215000Y-47985000D02*
X71675000Y-47985000D01*
X71675000Y-46515000D02*
X69215000Y-46515000D01*
X65605000Y-51026263D02*
X65605000Y-52473737D01*
X62895000Y-51026263D02*
X62895000Y-52473737D01*
X130210000Y-71300000D02*
X130210000Y-68850000D01*
X126990000Y-69500000D02*
X126990000Y-71300000D01*
X128746267Y-66090000D02*
X128453733Y-66090000D01*
X128746267Y-67110000D02*
X128453733Y-67110000D01*
X104446267Y-73490000D02*
X104153733Y-73490000D01*
X104446267Y-74510000D02*
X104153733Y-74510000D01*
X102510000Y-64103733D02*
X102510000Y-64396267D01*
X101490000Y-64103733D02*
X101490000Y-64396267D01*
X122503733Y-73590000D02*
X122796267Y-73590000D01*
X122503733Y-74610000D02*
X122796267Y-74610000D01*
X101490000Y-60353733D02*
X101490000Y-60646267D01*
X102510000Y-60353733D02*
X102510000Y-60646267D01*
X121040000Y-69500000D02*
X121040000Y-72450000D01*
X124260000Y-71300000D02*
X124260000Y-69500000D01*
X107280000Y-59720000D02*
X109230000Y-59720000D01*
X107280000Y-64840000D02*
X109230000Y-64840000D01*
X107280000Y-64840000D02*
X105330000Y-64840000D01*
X107280000Y-59720000D02*
X103830000Y-59720000D01*
X68395000Y-54000000D02*
X68395000Y-50100000D01*
X66395000Y-54000000D02*
X68395000Y-54000000D01*
X66395000Y-54000000D02*
X66395000Y-50100000D01*
X119170000Y-60335000D02*
X121830000Y-60335000D01*
X119170000Y-60335000D02*
X119170000Y-60395000D01*
X121830000Y-60395000D02*
X123290000Y-60395000D01*
X119170000Y-64205000D02*
X119170000Y-64265000D01*
X121830000Y-64205000D02*
X121830000Y-64265000D01*
X119170000Y-64265000D02*
X121830000Y-64265000D01*
X121830000Y-60335000D02*
X121830000Y-60395000D01*
X107133733Y-58940000D02*
X107426267Y-58940000D01*
X107133733Y-57920000D02*
X107426267Y-57920000D01*
X112922500Y-64045276D02*
X112922500Y-64554724D01*
X111877500Y-64045276D02*
X111877500Y-64554724D01*
X128746267Y-74610000D02*
X128453733Y-74610000D01*
X128746267Y-73590000D02*
X128453733Y-73590000D01*
X126879724Y-61147500D02*
X126370276Y-61147500D01*
X126879724Y-60102500D02*
X126370276Y-60102500D01*
X69270000Y-52473737D02*
X69270000Y-51026263D01*
X71980000Y-52473737D02*
X71980000Y-51026263D01*
D12*
X96675000Y-69050000D02*
X97125000Y-69050000D01*
X96675000Y-72350000D02*
X96675000Y-72050000D01*
X97675000Y-72350000D02*
X97950000Y-72350000D01*
X98325000Y-72075000D02*
X98325000Y-72025000D01*
X97050000Y-72350000D02*
X96675000Y-72350000D01*
X96675000Y-69350000D02*
X96675000Y-69050000D01*
X98325000Y-72025000D02*
X99100000Y-72025000D01*
X98325000Y-69050000D02*
X98325000Y-69400000D01*
X96675000Y-69275000D02*
X96675000Y-69400000D01*
X97850000Y-69050000D02*
X98325000Y-69050000D01*
X97950000Y-72350000D02*
X98325000Y-72075000D01*
D13*
X104446267Y-67340000D02*
X104153733Y-67340000D01*
X104446267Y-68360000D02*
X104153733Y-68360000D01*
X110096267Y-74510000D02*
X109803733Y-74510000D01*
X110096267Y-73490000D02*
X109803733Y-73490000D01*
X112910000Y-60403733D02*
X112910000Y-60696267D01*
X111890000Y-60403733D02*
X111890000Y-60696267D01*
X62590000Y-46515000D02*
X62590000Y-47985000D01*
X65050000Y-46515000D02*
X62590000Y-46515000D01*
X62590000Y-47985000D02*
X65050000Y-47985000D01*
X109950000Y-72310000D02*
X110750000Y-72310000D01*
X109950000Y-72310000D02*
X109150000Y-72310000D01*
X109950000Y-69190000D02*
X110750000Y-69190000D01*
X109950000Y-69190000D02*
X108150000Y-69190000D01*
X101222500Y-68445276D02*
X101222500Y-68954724D01*
X100177500Y-68445276D02*
X100177500Y-68954724D01*
X126879724Y-61777500D02*
X126370276Y-61777500D01*
X126879724Y-62822500D02*
X126370276Y-62822500D01*
X110096267Y-67340000D02*
X109803733Y-67340000D01*
X110096267Y-68360000D02*
X109803733Y-68360000D01*
X97353733Y-73490000D02*
X97646267Y-73490000D01*
X97353733Y-74510000D02*
X97646267Y-74510000D01*
X104300000Y-72260000D02*
X103500000Y-72260000D01*
X104300000Y-69140000D02*
X105100000Y-69140000D01*
X104300000Y-72260000D02*
X105100000Y-72260000D01*
X104300000Y-69140000D02*
X102500000Y-69140000D01*
%LPC*%
D14*
X70000000Y-47250000D03*
X71750000Y-47250000D03*
D15*
X64250000Y-50200000D03*
X64250000Y-53300000D03*
D16*
X129550000Y-69050000D03*
X128600000Y-69050000D03*
X127650000Y-69050000D03*
X127650000Y-71750000D03*
X129550000Y-71750000D03*
D17*
X129462500Y-66600000D03*
X127737500Y-66600000D03*
X105162500Y-74000000D03*
X103437500Y-74000000D03*
D18*
X102000000Y-63387500D03*
X102000000Y-65112500D03*
D19*
X121787500Y-74100000D03*
X123512500Y-74100000D03*
D18*
X102000000Y-59637500D03*
X102000000Y-61362500D03*
D20*
X121670000Y-71750000D03*
X122320000Y-71750000D03*
X122980000Y-71750000D03*
X123630000Y-71750000D03*
X123630000Y-69050000D03*
X122980000Y-69050000D03*
X122320000Y-69050000D03*
X121670000Y-69050000D03*
D21*
X104805000Y-60375000D03*
X104805000Y-61645000D03*
X104805000Y-62915000D03*
X104805000Y-64185000D03*
X109755000Y-64185000D03*
X109755000Y-62915000D03*
X109755000Y-61645000D03*
X109755000Y-60375000D03*
D22*
X67395000Y-53400000D03*
X67395000Y-50100000D03*
D23*
X151500000Y-48500000D03*
X151500000Y-76500000D03*
D24*
X122300000Y-61030000D03*
X118700000Y-61030000D03*
X122300000Y-62300000D03*
X118700000Y-62300000D03*
X122300000Y-63570000D03*
X118700000Y-63570000D03*
D19*
X106417500Y-58430000D03*
X108142500Y-58430000D03*
D25*
X112400000Y-63387500D03*
X112400000Y-65212500D03*
D17*
X129462500Y-74100000D03*
X127737500Y-74100000D03*
D26*
X127537500Y-60625000D03*
X125712500Y-60625000D03*
D27*
X70625000Y-53300000D03*
X70625000Y-50200000D03*
D28*
X98550000Y-71650000D03*
X98550000Y-69750000D03*
X96450000Y-70700000D03*
D17*
X105162500Y-67850000D03*
X103437500Y-67850000D03*
X110812500Y-74000000D03*
X109087500Y-74000000D03*
D18*
X112400000Y-59687500D03*
X112400000Y-61412500D03*
D14*
X63375000Y-47250000D03*
X65125000Y-47250000D03*
D29*
X108812500Y-69800000D03*
X108812500Y-70750000D03*
X108812500Y-71700000D03*
X111087500Y-71700000D03*
X111087500Y-70750000D03*
X111087500Y-69800000D03*
D25*
X100700000Y-67787500D03*
X100700000Y-69612500D03*
D26*
X127537500Y-62300000D03*
X125712500Y-62300000D03*
D17*
X110812500Y-67850000D03*
X109087500Y-67850000D03*
D19*
X96637500Y-74000000D03*
X98362500Y-74000000D03*
D23*
X58500000Y-76500000D03*
X58500000Y-48500000D03*
D29*
X103162500Y-69750000D03*
X103162500Y-70700000D03*
X103162500Y-71650000D03*
X105437500Y-71650000D03*
X105437500Y-70700000D03*
X105437500Y-69750000D03*
D30*
X148000000Y-65410000D03*
D31*
X148000000Y-70490000D03*
D30*
X62150000Y-70490000D03*
D31*
X62150000Y-65410000D03*
M02*
