G04 #@! TF.GenerationSoftware,KiCad,Pcbnew,(6.0.11)*
G04 #@! TF.CreationDate,2023-03-11T13:58:41+01:00*
G04 #@! TF.ProjectId,HeaterPSU_Digital,48656174-6572-4505-9355-5f4469676974,rev?*
G04 #@! TF.SameCoordinates,Original*
G04 #@! TF.FileFunction,Soldermask,Bot*
G04 #@! TF.FilePolarity,Negative*
%FSLAX46Y46*%
G04 Gerber Fmt 4.6, Leading zero omitted, Abs format (unit mm)*
G04 Created by KiCad (PCBNEW (6.0.11)) date 2023-03-11 13:58:41*
%MOMM*%
%LPD*%
G01*
G04 APERTURE LIST*
G04 Aperture macros list*
%AMRoundRect*
0 Rectangle with rounded corners*
0 $1 Rounding radius*
0 $2 $3 $4 $5 $6 $7 $8 $9 X,Y pos of 4 corners*
0 Add a 4 corners polygon primitive as box body*
4,1,4,$2,$3,$4,$5,$6,$7,$8,$9,$2,$3,0*
0 Add four circle primitives for the rounded corners*
1,1,$1+$1,$2,$3*
1,1,$1+$1,$4,$5*
1,1,$1+$1,$6,$7*
1,1,$1+$1,$8,$9*
0 Add four rect primitives between the rounded corners*
20,1,$1+$1,$2,$3,$4,$5,0*
20,1,$1+$1,$4,$5,$6,$7,0*
20,1,$1+$1,$6,$7,$8,$9,0*
20,1,$1+$1,$8,$9,$2,$3,0*%
G04 Aperture macros list end*
%ADD10C,3.200000*%
%ADD11R,2.000000X1.650000*%
%ADD12RoundRect,0.237500X-0.237500X0.250000X-0.237500X-0.250000X0.237500X-0.250000X0.237500X0.250000X0*%
%ADD13RoundRect,0.237500X-0.237500X0.300000X-0.237500X-0.300000X0.237500X-0.300000X0.237500X0.300000X0*%
%ADD14R,1.200000X0.600000*%
%ADD15R,4.000000X4.400000*%
%ADD16RoundRect,0.250000X1.500000X1.000000X-1.500000X1.000000X-1.500000X-1.000000X1.500000X-1.000000X0*%
%ADD17RoundRect,0.237500X0.250000X0.237500X-0.250000X0.237500X-0.250000X-0.237500X0.250000X-0.237500X0*%
%ADD18RoundRect,0.250000X0.350000X0.450000X-0.350000X0.450000X-0.350000X-0.450000X0.350000X-0.450000X0*%
%ADD19R,1.100000X4.600000*%
%ADD20R,10.800000X9.400000*%
%ADD21RoundRect,0.237500X-0.250000X-0.237500X0.250000X-0.237500X0.250000X0.237500X-0.250000X0.237500X0*%
%ADD22RoundRect,0.250000X0.475000X-0.337500X0.475000X0.337500X-0.475000X0.337500X-0.475000X-0.337500X0*%
%ADD23RoundRect,0.250000X-0.475000X0.337500X-0.475000X-0.337500X0.475000X-0.337500X0.475000X0.337500X0*%
%ADD24R,0.650000X1.560000*%
%ADD25RoundRect,0.237500X0.237500X-0.300000X0.237500X0.300000X-0.237500X0.300000X-0.237500X-0.300000X0*%
%ADD26R,4.600000X1.100000*%
%ADD27R,9.400000X10.800000*%
%ADD28R,0.900000X1.200000*%
%ADD29R,3.000000X3.000000*%
%ADD30C,3.000000*%
%ADD31RoundRect,0.237500X0.237500X-0.250000X0.237500X0.250000X-0.237500X0.250000X-0.237500X-0.250000X0*%
%ADD32R,5.400000X2.900000*%
%ADD33RoundRect,0.250000X-0.337500X-0.475000X0.337500X-0.475000X0.337500X0.475000X-0.337500X0.475000X0*%
%ADD34R,1.200000X1.200000*%
%ADD35R,1.500000X1.600000*%
%ADD36R,1.200000X2.200000*%
%ADD37R,5.800000X6.400000*%
%ADD38RoundRect,0.237500X-0.300000X-0.237500X0.300000X-0.237500X0.300000X0.237500X-0.300000X0.237500X0*%
%ADD39RoundRect,0.249999X-0.450001X-1.425001X0.450001X-1.425001X0.450001X1.425001X-0.450001X1.425001X0*%
%ADD40RoundRect,0.237500X0.287500X0.237500X-0.287500X0.237500X-0.287500X-0.237500X0.287500X-0.237500X0*%
%ADD41RoundRect,0.237500X-0.287500X-0.237500X0.287500X-0.237500X0.287500X0.237500X-0.287500X0.237500X0*%
G04 APERTURE END LIST*
D10*
X151500000Y-48500000D03*
X151500000Y-76500000D03*
X58500000Y-76500000D03*
X58500000Y-48500000D03*
D11*
X114120000Y-52415000D03*
X114120000Y-54765000D03*
D12*
X131550000Y-71787500D03*
X131550000Y-73612500D03*
X125350000Y-71787500D03*
X125350000Y-73612500D03*
D13*
X103600000Y-52727500D03*
X103600000Y-54452500D03*
D14*
X144679000Y-58265000D03*
X144679000Y-60805000D03*
X144679000Y-59535000D03*
X144679000Y-56995000D03*
D15*
X148200000Y-58900000D03*
D14*
X150521000Y-58265000D03*
X150521000Y-59535000D03*
X150521000Y-56995000D03*
X150521000Y-60805000D03*
D11*
X110500000Y-54765000D03*
X110500000Y-52415000D03*
D16*
X94757500Y-65250000D03*
X88257500Y-65250000D03*
D17*
X144412500Y-54000000D03*
X142587500Y-54000000D03*
D18*
X82500000Y-65750000D03*
X80500000Y-65750000D03*
D19*
X77625000Y-59586472D03*
X75925000Y-59586472D03*
X74225000Y-59586472D03*
D20*
X74225000Y-50436472D03*
D19*
X72525000Y-59586472D03*
X70825000Y-59586472D03*
D13*
X110510000Y-47717500D03*
X110510000Y-49442500D03*
D21*
X82087500Y-62100000D03*
X83912500Y-62100000D03*
D22*
X140120000Y-74857500D03*
X140120000Y-72782500D03*
D13*
X114120000Y-47737500D03*
X114120000Y-49462500D03*
D23*
X98350000Y-62062500D03*
X98350000Y-64137500D03*
D24*
X105850000Y-52240000D03*
X106800000Y-52240000D03*
X107750000Y-52240000D03*
X107750000Y-54940000D03*
X106800000Y-54940000D03*
X105850000Y-54940000D03*
D25*
X114850000Y-59362500D03*
X114850000Y-57637500D03*
D26*
X71025000Y-76140000D03*
D27*
X80175000Y-73600000D03*
D26*
X71025000Y-71060000D03*
D28*
X74850000Y-65750000D03*
X78150000Y-65750000D03*
D29*
X148000000Y-65410000D03*
D30*
X148000000Y-70490000D03*
D31*
X107466666Y-59402500D03*
X107466666Y-57577500D03*
D21*
X82087500Y-59800000D03*
X83912500Y-59800000D03*
D22*
X137245000Y-74857500D03*
X137245000Y-72782500D03*
D17*
X134112500Y-65850000D03*
X132287500Y-65850000D03*
D32*
X94624264Y-47401472D03*
X94624264Y-57301472D03*
D33*
X70762500Y-63800000D03*
X72837500Y-63800000D03*
D34*
X130300000Y-66000000D03*
D35*
X127050000Y-67000000D03*
D34*
X130300000Y-68000000D03*
D36*
X86280000Y-55241472D03*
D37*
X84000000Y-48941472D03*
D36*
X81720000Y-55241472D03*
D38*
X105937500Y-49800000D03*
X107662500Y-49800000D03*
D17*
X118762500Y-54650000D03*
X116937500Y-54650000D03*
D39*
X125530000Y-76310000D03*
X131630000Y-76310000D03*
D12*
X112320000Y-57577500D03*
X112320000Y-59402500D03*
X105040000Y-57577500D03*
X105040000Y-59402500D03*
D17*
X134112500Y-68100000D03*
X132287500Y-68100000D03*
D40*
X148475000Y-54000000D03*
X146725000Y-54000000D03*
D13*
X109893332Y-57627500D03*
X109893332Y-59352500D03*
D38*
X105937500Y-47450000D03*
X107662500Y-47450000D03*
D41*
X82125000Y-57450000D03*
X83875000Y-57450000D03*
D29*
X62150000Y-70490000D03*
D30*
X62150000Y-65410000D03*
D21*
X150737500Y-54000000D03*
X152562500Y-54000000D03*
D40*
X118702500Y-52350000D03*
X116952500Y-52350000D03*
D16*
X65000000Y-57250000D03*
X58500000Y-57250000D03*
D22*
X134370000Y-74857500D03*
X134370000Y-72782500D03*
M02*
