G04 #@! TF.GenerationSoftware,KiCad,Pcbnew,(6.0.11)*
G04 #@! TF.CreationDate,2023-03-11T13:58:41+01:00*
G04 #@! TF.ProjectId,HeaterPSU_Digital,48656174-6572-4505-9355-5f4469676974,rev?*
G04 #@! TF.SameCoordinates,Original*
G04 #@! TF.FileFunction,Soldermask,Top*
G04 #@! TF.FilePolarity,Negative*
%FSLAX46Y46*%
G04 Gerber Fmt 4.6, Leading zero omitted, Abs format (unit mm)*
G04 Created by KiCad (PCBNEW (6.0.11)) date 2023-03-11 13:58:41*
%MOMM*%
%LPD*%
G01*
G04 APERTURE LIST*
G04 Aperture macros list*
%AMRoundRect*
0 Rectangle with rounded corners*
0 $1 Rounding radius*
0 $2 $3 $4 $5 $6 $7 $8 $9 X,Y pos of 4 corners*
0 Add a 4 corners polygon primitive as box body*
4,1,4,$2,$3,$4,$5,$6,$7,$8,$9,$2,$3,0*
0 Add four circle primitives for the rounded corners*
1,1,$1+$1,$2,$3*
1,1,$1+$1,$4,$5*
1,1,$1+$1,$6,$7*
1,1,$1+$1,$8,$9*
0 Add four rect primitives between the rounded corners*
20,1,$1+$1,$2,$3,$4,$5,0*
20,1,$1+$1,$4,$5,$6,$7,0*
20,1,$1+$1,$6,$7,$8,$9,0*
20,1,$1+$1,$8,$9,$2,$3,0*%
G04 Aperture macros list end*
%ADD10RoundRect,0.237500X-0.287500X-0.237500X0.287500X-0.237500X0.287500X0.237500X-0.287500X0.237500X0*%
%ADD11RoundRect,0.250000X-1.075000X0.400000X-1.075000X-0.400000X1.075000X-0.400000X1.075000X0.400000X0*%
%ADD12R,0.650000X1.560000*%
%ADD13RoundRect,0.237500X0.300000X0.237500X-0.300000X0.237500X-0.300000X-0.237500X0.300000X-0.237500X0*%
%ADD14RoundRect,0.237500X-0.237500X0.300000X-0.237500X-0.300000X0.237500X-0.300000X0.237500X0.300000X0*%
%ADD15RoundRect,0.237500X-0.300000X-0.237500X0.300000X-0.237500X0.300000X0.237500X-0.300000X0.237500X0*%
%ADD16R,0.400000X1.560000*%
%ADD17RoundRect,0.150000X-0.825000X-0.150000X0.825000X-0.150000X0.825000X0.150000X-0.825000X0.150000X0*%
%ADD18R,1.200000X0.900000*%
%ADD19C,3.200000*%
%ADD20R,2.100000X0.750000*%
%ADD21RoundRect,0.237500X-0.237500X0.250000X-0.237500X-0.250000X0.237500X-0.250000X0.237500X0.250000X0*%
%ADD22RoundRect,0.237500X0.250000X0.237500X-0.250000X0.237500X-0.250000X-0.237500X0.250000X-0.237500X0*%
%ADD23RoundRect,0.250000X1.075000X-0.400000X1.075000X0.400000X-1.075000X0.400000X-1.075000X-0.400000X0*%
%ADD24RoundRect,0.070000X0.650000X0.300000X-0.650000X0.300000X-0.650000X-0.300000X0.650000X-0.300000X0*%
%ADD25RoundRect,0.150000X-0.512500X-0.150000X0.512500X-0.150000X0.512500X0.150000X-0.512500X0.150000X0*%
%ADD26R,3.000000X3.000000*%
%ADD27C,3.000000*%
G04 APERTURE END LIST*
D10*
X70000000Y-47250000D03*
X71750000Y-47250000D03*
D11*
X64250000Y-50200000D03*
X64250000Y-53300000D03*
D12*
X129550000Y-69050000D03*
X128600000Y-69050000D03*
X127650000Y-69050000D03*
X127650000Y-71750000D03*
X129550000Y-71750000D03*
D13*
X129462500Y-66600000D03*
X127737500Y-66600000D03*
X105162500Y-74000000D03*
X103437500Y-74000000D03*
D14*
X102000000Y-63387500D03*
X102000000Y-65112500D03*
D15*
X121787500Y-74100000D03*
X123512500Y-74100000D03*
D14*
X102000000Y-59637500D03*
X102000000Y-61362500D03*
D16*
X121670000Y-71750000D03*
X122320000Y-71750000D03*
X122980000Y-71750000D03*
X123630000Y-71750000D03*
X123630000Y-69050000D03*
X122980000Y-69050000D03*
X122320000Y-69050000D03*
X121670000Y-69050000D03*
D17*
X104805000Y-60375000D03*
X104805000Y-61645000D03*
X104805000Y-62915000D03*
X104805000Y-64185000D03*
X109755000Y-64185000D03*
X109755000Y-62915000D03*
X109755000Y-61645000D03*
X109755000Y-60375000D03*
D18*
X67395000Y-53400000D03*
X67395000Y-50100000D03*
D19*
X151500000Y-48500000D03*
X151500000Y-76500000D03*
D20*
X122300000Y-61030000D03*
X118700000Y-61030000D03*
X122300000Y-62300000D03*
X118700000Y-62300000D03*
X122300000Y-63570000D03*
X118700000Y-63570000D03*
D15*
X106417500Y-58430000D03*
X108142500Y-58430000D03*
D21*
X112400000Y-63387500D03*
X112400000Y-65212500D03*
D13*
X129462500Y-74100000D03*
X127737500Y-74100000D03*
D22*
X127537500Y-60625000D03*
X125712500Y-60625000D03*
D23*
X70625000Y-53300000D03*
X70625000Y-50200000D03*
D24*
X98550000Y-71650000D03*
X98550000Y-69750000D03*
X96450000Y-70700000D03*
D13*
X105162500Y-67850000D03*
X103437500Y-67850000D03*
X110812500Y-74000000D03*
X109087500Y-74000000D03*
D14*
X112400000Y-59687500D03*
X112400000Y-61412500D03*
D10*
X63375000Y-47250000D03*
X65125000Y-47250000D03*
D25*
X108812500Y-69800000D03*
X108812500Y-70750000D03*
X108812500Y-71700000D03*
X111087500Y-71700000D03*
X111087500Y-70750000D03*
X111087500Y-69800000D03*
D21*
X100700000Y-67787500D03*
X100700000Y-69612500D03*
D22*
X127537500Y-62300000D03*
X125712500Y-62300000D03*
D13*
X110812500Y-67850000D03*
X109087500Y-67850000D03*
D15*
X96637500Y-74000000D03*
X98362500Y-74000000D03*
D19*
X58500000Y-76500000D03*
X58500000Y-48500000D03*
D25*
X103162500Y-69750000D03*
X103162500Y-70700000D03*
X103162500Y-71650000D03*
X105437500Y-71650000D03*
X105437500Y-70700000D03*
X105437500Y-69750000D03*
D26*
X148000000Y-65410000D03*
D27*
X148000000Y-70490000D03*
D26*
X62150000Y-70490000D03*
D27*
X62150000Y-65410000D03*
M02*
