G04 #@! TF.GenerationSoftware,KiCad,Pcbnew,(6.0.9)*
G04 #@! TF.CreationDate,2022-11-14T17:10:28+01:00*
G04 #@! TF.ProjectId,HeaterPSU,48656174-6572-4505-9355-2e6b69636164,rev?*
G04 #@! TF.SameCoordinates,Original*
G04 #@! TF.FileFunction,Copper,L2,Bot*
G04 #@! TF.FilePolarity,Positive*
%FSLAX46Y46*%
G04 Gerber Fmt 4.6, Leading zero omitted, Abs format (unit mm)*
G04 Created by KiCad (PCBNEW (6.0.9)) date 2022-11-14 17:10:28*
%MOMM*%
%LPD*%
G01*
G04 APERTURE LIST*
G04 Aperture macros list*
%AMRoundRect*
0 Rectangle with rounded corners*
0 $1 Rounding radius*
0 $2 $3 $4 $5 $6 $7 $8 $9 X,Y pos of 4 corners*
0 Add a 4 corners polygon primitive as box body*
4,1,4,$2,$3,$4,$5,$6,$7,$8,$9,$2,$3,0*
0 Add four circle primitives for the rounded corners*
1,1,$1+$1,$2,$3*
1,1,$1+$1,$4,$5*
1,1,$1+$1,$6,$7*
1,1,$1+$1,$8,$9*
0 Add four rect primitives between the rounded corners*
20,1,$1+$1,$2,$3,$4,$5,0*
20,1,$1+$1,$4,$5,$6,$7,0*
20,1,$1+$1,$6,$7,$8,$9,0*
20,1,$1+$1,$8,$9,$2,$3,0*%
G04 Aperture macros list end*
G04 #@! TA.AperFunction,SMDPad,CuDef*
%ADD10RoundRect,0.250000X-0.400000X-1.075000X0.400000X-1.075000X0.400000X1.075000X-0.400000X1.075000X0*%
G04 #@! TD*
G04 #@! TA.AperFunction,ComponentPad*
%ADD11C,2.200000*%
G04 #@! TD*
G04 #@! TA.AperFunction,WasherPad*
%ADD12C,4.000000*%
G04 #@! TD*
G04 #@! TA.AperFunction,ComponentPad*
%ADD13C,1.800000*%
G04 #@! TD*
G04 #@! TA.AperFunction,ComponentPad*
%ADD14R,1.700000X1.700000*%
G04 #@! TD*
G04 #@! TA.AperFunction,ComponentPad*
%ADD15O,1.700000X1.700000*%
G04 #@! TD*
G04 #@! TA.AperFunction,ComponentPad*
%ADD16C,3.000000*%
G04 #@! TD*
G04 #@! TA.AperFunction,ComponentPad*
%ADD17C,1.400000*%
G04 #@! TD*
G04 #@! TA.AperFunction,ComponentPad*
%ADD18R,2.500000X2.500000*%
G04 #@! TD*
G04 #@! TA.AperFunction,ComponentPad*
%ADD19O,2.500000X2.500000*%
G04 #@! TD*
G04 #@! TA.AperFunction,ComponentPad*
%ADD20R,1.550000X1.550000*%
G04 #@! TD*
G04 #@! TA.AperFunction,ComponentPad*
%ADD21C,1.550000*%
G04 #@! TD*
G04 #@! TA.AperFunction,SMDPad,CuDef*
%ADD22RoundRect,0.250000X-0.350000X-0.450000X0.350000X-0.450000X0.350000X0.450000X-0.350000X0.450000X0*%
G04 #@! TD*
G04 #@! TA.AperFunction,SMDPad,CuDef*
%ADD23R,2.000000X3.800000*%
G04 #@! TD*
G04 #@! TA.AperFunction,SMDPad,CuDef*
%ADD24RoundRect,0.250000X-0.325000X-0.450000X0.325000X-0.450000X0.325000X0.450000X-0.325000X0.450000X0*%
G04 #@! TD*
G04 #@! TA.AperFunction,SMDPad,CuDef*
%ADD25RoundRect,0.250000X0.400000X1.075000X-0.400000X1.075000X-0.400000X-1.075000X0.400000X-1.075000X0*%
G04 #@! TD*
G04 #@! TA.AperFunction,SMDPad,CuDef*
%ADD26RoundRect,0.250000X-0.337500X-0.475000X0.337500X-0.475000X0.337500X0.475000X-0.337500X0.475000X0*%
G04 #@! TD*
G04 #@! TA.AperFunction,SMDPad,CuDef*
%ADD27RoundRect,0.250000X0.475000X-0.337500X0.475000X0.337500X-0.475000X0.337500X-0.475000X-0.337500X0*%
G04 #@! TD*
G04 #@! TA.AperFunction,ComponentPad*
%ADD28R,3.000000X3.000000*%
G04 #@! TD*
G04 #@! TA.AperFunction,ComponentPad*
%ADD29O,2.200000X1.700000*%
G04 #@! TD*
G04 #@! TA.AperFunction,ComponentPad*
%ADD30R,2.200000X1.700000*%
G04 #@! TD*
G04 #@! TA.AperFunction,SMDPad,CuDef*
%ADD31R,1.560000X0.650000*%
G04 #@! TD*
G04 #@! TA.AperFunction,SMDPad,CuDef*
%ADD32R,1.200000X0.900000*%
G04 #@! TD*
G04 #@! TA.AperFunction,SMDPad,CuDef*
%ADD33RoundRect,0.249999X-0.450001X-1.425001X0.450001X-1.425001X0.450001X1.425001X-0.450001X1.425001X0*%
G04 #@! TD*
G04 #@! TA.AperFunction,SMDPad,CuDef*
%ADD34RoundRect,0.250000X0.350000X0.450000X-0.350000X0.450000X-0.350000X-0.450000X0.350000X-0.450000X0*%
G04 #@! TD*
G04 #@! TA.AperFunction,ViaPad*
%ADD35C,0.800000*%
G04 #@! TD*
G04 #@! TA.AperFunction,Conductor*
%ADD36C,1.000000*%
G04 #@! TD*
G04 #@! TA.AperFunction,Conductor*
%ADD37C,0.250000*%
G04 #@! TD*
G04 #@! TA.AperFunction,Conductor*
%ADD38C,0.500000*%
G04 #@! TD*
G04 APERTURE END LIST*
D10*
X96450000Y-76100000D03*
X99550000Y-76100000D03*
D11*
X131300000Y-77000000D03*
X138800000Y-75000000D03*
D12*
X130650000Y-62450000D03*
X139450000Y-62450000D03*
D13*
X137550000Y-69450000D03*
X135050000Y-69450000D03*
X132550000Y-69450000D03*
D14*
X92000000Y-71000000D03*
D15*
X94540000Y-71000000D03*
X92000000Y-68460000D03*
X94540000Y-68460000D03*
X92000000Y-65920000D03*
X94540000Y-65920000D03*
X92000000Y-63380000D03*
X94540000Y-63380000D03*
D16*
X111025000Y-70600000D03*
X111025000Y-54600000D03*
D17*
X119075000Y-67600000D03*
X119075000Y-65100000D03*
X119075000Y-62600000D03*
X119075000Y-60100000D03*
X119075000Y-57600000D03*
X100775000Y-57600000D03*
X100775000Y-60100000D03*
X100775000Y-62600000D03*
X100775000Y-65100000D03*
X100775000Y-67600000D03*
D18*
X131487719Y-46850000D03*
D19*
X131487719Y-54450000D03*
X144187719Y-46850000D03*
X146727719Y-54450000D03*
D20*
X109397239Y-51450000D03*
D21*
X104397239Y-48950000D03*
X109397239Y-46450000D03*
D22*
X82200000Y-72526000D03*
X84200000Y-72526000D03*
D23*
X70300000Y-75400000D03*
X78800000Y-75400000D03*
D22*
X82200000Y-64600000D03*
X84200000Y-64600000D03*
D24*
X79175000Y-47550000D03*
X81225000Y-47550000D03*
D25*
X76050000Y-51150000D03*
X72950000Y-51150000D03*
D26*
X82125000Y-67252000D03*
X84200000Y-67252000D03*
D22*
X103800000Y-65000000D03*
X105800000Y-65000000D03*
D27*
X82200000Y-77437500D03*
X82200000Y-75362500D03*
X84400000Y-77437500D03*
X84400000Y-75362500D03*
D28*
X147950000Y-58991500D03*
D16*
X147950000Y-64071500D03*
X147950000Y-69151500D03*
D29*
X60200000Y-55420000D03*
D30*
X60200000Y-52880000D03*
D31*
X78750000Y-68112500D03*
X78750000Y-67162500D03*
X78750000Y-66212500D03*
X76050000Y-66212500D03*
X76050000Y-67162500D03*
X76050000Y-68112500D03*
D25*
X81350000Y-51150000D03*
X78250000Y-51150000D03*
D26*
X76125000Y-63562500D03*
X78200000Y-63562500D03*
D20*
X117597239Y-51450000D03*
D21*
X112597239Y-48950000D03*
X117597239Y-46450000D03*
D22*
X103800000Y-60000000D03*
X105800000Y-60000000D03*
D20*
X125797239Y-51450000D03*
D21*
X120797239Y-48950000D03*
X125797239Y-46450000D03*
D27*
X70000000Y-68200000D03*
X70000000Y-66125000D03*
D30*
X60200000Y-58530000D03*
D29*
X60200000Y-61070000D03*
D24*
X73475000Y-47550000D03*
X75525000Y-47550000D03*
D20*
X101197239Y-51450000D03*
D21*
X96197239Y-48950000D03*
X101197239Y-46450000D03*
D22*
X103800000Y-62600000D03*
X105800000Y-62600000D03*
X103800000Y-57400000D03*
X105800000Y-57400000D03*
D27*
X72400000Y-68200000D03*
X72400000Y-66125000D03*
D32*
X69950000Y-47550000D03*
X69950000Y-50850000D03*
D33*
X87750000Y-76100000D03*
X93850000Y-76100000D03*
D34*
X84200000Y-69904000D03*
X82200000Y-69904000D03*
D28*
X62500000Y-70540000D03*
D16*
X62500000Y-65460000D03*
D35*
X101300000Y-76300000D03*
X137100000Y-66400000D03*
X102950000Y-67150000D03*
X151600000Y-67600000D03*
X86450000Y-62600000D03*
X65500000Y-70600000D03*
X75600000Y-69000000D03*
X77450000Y-47550000D03*
X114700000Y-64100000D03*
X77900000Y-57400000D03*
X76400000Y-69000000D03*
X91100000Y-76300000D03*
X149950000Y-53250000D03*
X132950000Y-49750000D03*
X147250000Y-74050000D03*
X83600000Y-46400000D03*
X140550000Y-47250000D03*
X114300000Y-54750000D03*
X134350000Y-58400000D03*
X78000000Y-55100000D03*
X121750000Y-62150000D03*
X62650000Y-54150000D03*
X83250000Y-54250000D03*
X80600000Y-73600000D03*
X62500000Y-57650000D03*
X86150000Y-78900000D03*
X89000000Y-59000000D03*
X57400000Y-48200000D03*
X142350000Y-69150000D03*
X110200000Y-57700000D03*
X100700000Y-70400000D03*
X93600000Y-56900000D03*
X72000000Y-54350000D03*
X80000000Y-60000000D03*
X87000000Y-69000000D03*
X102200000Y-61450000D03*
X83300000Y-59150000D03*
X127700000Y-70600000D03*
X68200000Y-51500000D03*
X83350000Y-56750000D03*
X65100000Y-62900000D03*
X101900000Y-48950000D03*
X129000000Y-74050000D03*
X116550000Y-49350000D03*
X121150000Y-66700000D03*
X117200000Y-69850000D03*
X126650000Y-56300000D03*
X141700000Y-78400000D03*
X115100000Y-59250000D03*
X135100000Y-77950000D03*
X88900000Y-72300000D03*
X89800000Y-69300000D03*
X128900000Y-66000000D03*
X58450000Y-77200000D03*
X67000000Y-59200000D03*
X75475000Y-62225000D03*
X70000000Y-65000000D03*
X74200000Y-66100000D03*
X73200000Y-65000000D03*
X90650000Y-75050000D03*
X80000000Y-67200000D03*
D36*
X130175000Y-78125000D02*
X131300000Y-77000000D01*
X98475000Y-78125000D02*
X130175000Y-78125000D01*
X96450000Y-76100000D02*
X98475000Y-78125000D01*
X96450000Y-76100000D02*
X93850000Y-76100000D01*
D37*
X76125000Y-63562500D02*
X77155000Y-64592500D01*
X77155000Y-66845000D02*
X76837500Y-67162500D01*
X76837500Y-67162500D02*
X76050000Y-67162500D01*
X77155000Y-64592500D02*
X77155000Y-66845000D01*
X77605000Y-67997500D02*
X77605000Y-64157500D01*
X77720000Y-68112500D02*
X77605000Y-67997500D01*
X77605000Y-64157500D02*
X78200000Y-63562500D01*
X78750000Y-68112500D02*
X77720000Y-68112500D01*
D38*
X76600000Y-69000000D02*
X80600000Y-73000000D01*
D36*
X64840000Y-68200000D02*
X62500000Y-70540000D01*
X70000000Y-68200000D02*
X64840000Y-68200000D01*
X72400000Y-68200000D02*
X70000000Y-68200000D01*
D38*
X80600000Y-73000000D02*
X80600000Y-73600000D01*
X130612719Y-47725000D02*
X131487719Y-46850000D01*
X73200000Y-64500000D02*
X75475000Y-62225000D01*
X80250000Y-57450000D02*
X80250000Y-49535051D01*
X80250000Y-49535051D02*
X82060051Y-47725000D01*
X76350000Y-61350000D02*
X80250000Y-57450000D01*
X82060051Y-47725000D02*
X130612719Y-47725000D01*
X73200000Y-65000000D02*
X73200000Y-64500000D01*
X75475000Y-62225000D02*
X76350000Y-61350000D01*
D37*
X84200000Y-72495000D02*
X84200000Y-67240000D01*
X100270000Y-67095000D02*
X100775000Y-67600000D01*
X82200000Y-66200000D02*
X82187500Y-66212500D01*
X90618299Y-66200000D02*
X91513299Y-67095000D01*
X91513299Y-67095000D02*
X100270000Y-67095000D01*
X82200000Y-64600000D02*
X82200000Y-66200000D01*
X82200000Y-66200000D02*
X82200000Y-69904000D01*
X82200000Y-66200000D02*
X90618299Y-66200000D01*
X82187500Y-66212500D02*
X78750000Y-66212500D01*
X82200000Y-72526000D02*
X82200000Y-72800000D01*
D36*
X143300000Y-61950000D02*
X143300000Y-66272792D01*
D37*
X82200000Y-72800000D02*
X83000000Y-73600000D01*
X91750000Y-73600000D02*
X93175000Y-72175000D01*
X93175000Y-72175000D02*
X93175000Y-69635000D01*
X93850000Y-75700000D02*
X93850000Y-76100000D01*
X93175000Y-69635000D02*
X92000000Y-68460000D01*
D36*
X144187719Y-61062281D02*
X144187719Y-46850000D01*
X132572792Y-77000000D02*
X131300000Y-77000000D01*
D37*
X83000000Y-73600000D02*
X91750000Y-73600000D01*
D36*
X143300000Y-66272792D02*
X132572792Y-77000000D01*
D37*
X91750000Y-73600000D02*
X93850000Y-75700000D01*
D36*
X143300000Y-61950000D02*
X144187719Y-61062281D01*
X87012500Y-75362500D02*
X87750000Y-76100000D01*
D37*
X87750000Y-76100000D02*
X89600000Y-76100000D01*
D36*
X84362500Y-75400000D02*
X84400000Y-75362500D01*
X84400000Y-75362500D02*
X87012500Y-75362500D01*
D37*
X89600000Y-76100000D02*
X90650000Y-75050000D01*
D36*
X78800000Y-75400000D02*
X84362500Y-75400000D01*
D37*
X78250000Y-48475000D02*
X79175000Y-47550000D01*
X78250000Y-51150000D02*
X78250000Y-48475000D01*
X105800000Y-57400000D02*
X101197239Y-52797239D01*
X101197239Y-52797239D02*
X101197239Y-51450000D01*
X109200000Y-56600000D02*
X109200000Y-51647239D01*
X105800000Y-60000000D02*
X109200000Y-56600000D01*
X109200000Y-51647239D02*
X109397239Y-51450000D01*
X107563604Y-62600000D02*
X117597239Y-52566365D01*
X117597239Y-52566365D02*
X117597239Y-51450000D01*
X105800000Y-62600000D02*
X107563604Y-62600000D01*
X122750000Y-56350000D02*
X125797239Y-53302761D01*
X105800000Y-65000000D02*
X114450000Y-56350000D01*
X114450000Y-56350000D02*
X122750000Y-56350000D01*
X125797239Y-53302761D02*
X125797239Y-51450000D01*
X79962500Y-67162500D02*
X80000000Y-67200000D01*
X78750000Y-67162500D02*
X79962500Y-67162500D01*
X73475000Y-48575000D02*
X76050000Y-51150000D01*
X69950000Y-50850000D02*
X73250000Y-47550000D01*
X73250000Y-47550000D02*
X73475000Y-47550000D01*
X73475000Y-47550000D02*
X73475000Y-48575000D01*
X103800000Y-57400000D02*
X103600000Y-57600000D01*
X103600000Y-57600000D02*
X100775000Y-57600000D01*
X62500000Y-65460000D02*
X62500000Y-61350000D01*
X62500000Y-61350000D02*
X72950000Y-50900000D01*
X103800000Y-60000000D02*
X103700000Y-60100000D01*
X103700000Y-60100000D02*
X100775000Y-60100000D01*
X103800000Y-62600000D02*
X100775000Y-62600000D01*
X103700000Y-65100000D02*
X100775000Y-65100000D01*
X103800000Y-65000000D02*
X103700000Y-65100000D01*
D36*
X147950000Y-55672281D02*
X146727719Y-54450000D01*
X145750000Y-61191500D02*
X147950000Y-58991500D01*
X145750000Y-67850000D02*
X145750000Y-61191500D01*
X147950000Y-58991500D02*
X147950000Y-55672281D01*
X138800000Y-74800000D02*
X145750000Y-67850000D01*
G04 #@! TA.AperFunction,Conductor*
G36*
X63029584Y-45274502D02*
G01*
X63076077Y-45328158D01*
X63086181Y-45398432D01*
X63056687Y-45463012D01*
X63030087Y-45486173D01*
X62880775Y-45583137D01*
X62587489Y-45820635D01*
X62320635Y-46087489D01*
X62083137Y-46380775D01*
X62081335Y-46383550D01*
X61879395Y-46694510D01*
X61879393Y-46694513D01*
X61877597Y-46697279D01*
X61876102Y-46700213D01*
X61876098Y-46700220D01*
X61797270Y-46854930D01*
X61706266Y-47033535D01*
X61571022Y-47385857D01*
X61473347Y-47750387D01*
X61458709Y-47842806D01*
X61415306Y-48116843D01*
X61414310Y-48123129D01*
X61394559Y-48500000D01*
X61414310Y-48876871D01*
X61473347Y-49249613D01*
X61571022Y-49614143D01*
X61572207Y-49617231D01*
X61572208Y-49617233D01*
X61614763Y-49728091D01*
X61706266Y-49966465D01*
X61707764Y-49969405D01*
X61833674Y-50216516D01*
X61877597Y-50302720D01*
X62083137Y-50619225D01*
X62320635Y-50912511D01*
X62587489Y-51179365D01*
X62880775Y-51416863D01*
X62883550Y-51418665D01*
X63092717Y-51554499D01*
X63197280Y-51622403D01*
X63200214Y-51623898D01*
X63200221Y-51623902D01*
X63497749Y-51775500D01*
X63533535Y-51793734D01*
X63885857Y-51928978D01*
X64250387Y-52026653D01*
X64448353Y-52058008D01*
X64619881Y-52085176D01*
X64619889Y-52085177D01*
X64623129Y-52085690D01*
X64905720Y-52100500D01*
X65094280Y-52100500D01*
X65376871Y-52085690D01*
X65380111Y-52085177D01*
X65380119Y-52085176D01*
X65551647Y-52058008D01*
X65749613Y-52026653D01*
X66114143Y-51928978D01*
X66466465Y-51793734D01*
X66502251Y-51775500D01*
X66799779Y-51623902D01*
X66799786Y-51623898D01*
X66802720Y-51622403D01*
X66907284Y-51554499D01*
X67116450Y-51418665D01*
X67119225Y-51416863D01*
X67412511Y-51179365D01*
X67679365Y-50912511D01*
X67916863Y-50619225D01*
X68045916Y-50420501D01*
X68075508Y-50374933D01*
X69095500Y-50374933D01*
X69095501Y-51325066D01*
X69110266Y-51399301D01*
X69117161Y-51409620D01*
X69117162Y-51409622D01*
X69157516Y-51470015D01*
X69166516Y-51483484D01*
X69250699Y-51539734D01*
X69324933Y-51554500D01*
X69949898Y-51554500D01*
X70575066Y-51554499D01*
X70610818Y-51547388D01*
X70637126Y-51542156D01*
X70637128Y-51542155D01*
X70649301Y-51539734D01*
X70659621Y-51532839D01*
X70659622Y-51532838D01*
X70723168Y-51490377D01*
X70733484Y-51483484D01*
X70789734Y-51399301D01*
X70804500Y-51325067D01*
X70804499Y-50584385D01*
X70824501Y-50516264D01*
X70841404Y-50495290D01*
X72836517Y-48500177D01*
X72898829Y-48466151D01*
X72969841Y-48471290D01*
X73008224Y-48485679D01*
X73013730Y-48487743D01*
X73070494Y-48530385D01*
X73094902Y-48596160D01*
X73095072Y-48596146D01*
X73095122Y-48596752D01*
X73095194Y-48596946D01*
X73095235Y-48598115D01*
X73095500Y-48601322D01*
X73095500Y-48606524D01*
X73096354Y-48611653D01*
X73096354Y-48611656D01*
X73098669Y-48625565D01*
X73099506Y-48631443D01*
X73105530Y-48682341D01*
X73109493Y-48690593D01*
X73110996Y-48699626D01*
X73115943Y-48708795D01*
X73115944Y-48708797D01*
X73135334Y-48744732D01*
X73138031Y-48750025D01*
X73156785Y-48789082D01*
X73156788Y-48789086D01*
X73160219Y-48796232D01*
X73163814Y-48800508D01*
X73165737Y-48802431D01*
X73167509Y-48804363D01*
X73167552Y-48804442D01*
X73167428Y-48804555D01*
X73167904Y-48805095D01*
X73170990Y-48810814D01*
X73178635Y-48817881D01*
X73210586Y-48847416D01*
X73214152Y-48850846D01*
X75108595Y-50745289D01*
X75142621Y-50807601D01*
X75145500Y-50834384D01*
X75145500Y-52272756D01*
X75152202Y-52334448D01*
X75202929Y-52469764D01*
X75208309Y-52476943D01*
X75208311Y-52476946D01*
X75271656Y-52561467D01*
X75289596Y-52585404D01*
X75296776Y-52590785D01*
X75398054Y-52666689D01*
X75398057Y-52666691D01*
X75405236Y-52672071D01*
X75465317Y-52694594D01*
X75533157Y-52720026D01*
X75533159Y-52720026D01*
X75540552Y-52722798D01*
X75548402Y-52723651D01*
X75548403Y-52723651D01*
X75598847Y-52729131D01*
X75602244Y-52729500D01*
X76497756Y-52729500D01*
X76501153Y-52729131D01*
X76551597Y-52723651D01*
X76551598Y-52723651D01*
X76559448Y-52722798D01*
X76566841Y-52720026D01*
X76566843Y-52720026D01*
X76634683Y-52694594D01*
X76694764Y-52672071D01*
X76701943Y-52666691D01*
X76701946Y-52666689D01*
X76803224Y-52590785D01*
X76810404Y-52585404D01*
X76828344Y-52561467D01*
X76891689Y-52476946D01*
X76891691Y-52476943D01*
X76897071Y-52469764D01*
X76947798Y-52334448D01*
X76954500Y-52272756D01*
X77345500Y-52272756D01*
X77352202Y-52334448D01*
X77402929Y-52469764D01*
X77408309Y-52476943D01*
X77408311Y-52476946D01*
X77471656Y-52561467D01*
X77489596Y-52585404D01*
X77496776Y-52590785D01*
X77598054Y-52666689D01*
X77598057Y-52666691D01*
X77605236Y-52672071D01*
X77665317Y-52694594D01*
X77733157Y-52720026D01*
X77733159Y-52720026D01*
X77740552Y-52722798D01*
X77748402Y-52723651D01*
X77748403Y-52723651D01*
X77798847Y-52729131D01*
X77802244Y-52729500D01*
X78697756Y-52729500D01*
X78701153Y-52729131D01*
X78751597Y-52723651D01*
X78751598Y-52723651D01*
X78759448Y-52722798D01*
X78766841Y-52720026D01*
X78766843Y-52720026D01*
X78834683Y-52694594D01*
X78894764Y-52672071D01*
X78901943Y-52666691D01*
X78901946Y-52666689D01*
X79003224Y-52590785D01*
X79010404Y-52585404D01*
X79028344Y-52561467D01*
X79091689Y-52476946D01*
X79091691Y-52476943D01*
X79097071Y-52469764D01*
X79147798Y-52334448D01*
X79154500Y-52272756D01*
X79154500Y-50027244D01*
X79147798Y-49965552D01*
X79097071Y-49830236D01*
X79091691Y-49823057D01*
X79091689Y-49823054D01*
X79015785Y-49721776D01*
X79010404Y-49714596D01*
X78986393Y-49696601D01*
X78901946Y-49633311D01*
X78901943Y-49633309D01*
X78894764Y-49627929D01*
X78805046Y-49594296D01*
X78766843Y-49579974D01*
X78766841Y-49579974D01*
X78759448Y-49577202D01*
X78751598Y-49576349D01*
X78751597Y-49576349D01*
X78747158Y-49575867D01*
X78741893Y-49575295D01*
X78676331Y-49548054D01*
X78635904Y-49489691D01*
X78629500Y-49450032D01*
X78629500Y-48684384D01*
X78649502Y-48616263D01*
X78666405Y-48595289D01*
X78720289Y-48541405D01*
X78782601Y-48507379D01*
X78809384Y-48504500D01*
X79547756Y-48504500D01*
X79551153Y-48504131D01*
X79601597Y-48498651D01*
X79601598Y-48498651D01*
X79609448Y-48497798D01*
X79616841Y-48495026D01*
X79616843Y-48495026D01*
X79693867Y-48466151D01*
X79744764Y-48447071D01*
X79751943Y-48441691D01*
X79751946Y-48441689D01*
X79853224Y-48365785D01*
X79860404Y-48360404D01*
X79881063Y-48332839D01*
X79941689Y-48251946D01*
X79941691Y-48251943D01*
X79947071Y-48244764D01*
X79997798Y-48109448D01*
X80001983Y-48070930D01*
X80004131Y-48051153D01*
X80004131Y-48051152D01*
X80004500Y-48047756D01*
X80004500Y-47052244D01*
X79997798Y-46990552D01*
X79947071Y-46855236D01*
X79941691Y-46848057D01*
X79941689Y-46848054D01*
X79865785Y-46746776D01*
X79860404Y-46739596D01*
X79803942Y-46697280D01*
X79751946Y-46658311D01*
X79751943Y-46658309D01*
X79744764Y-46652929D01*
X79640698Y-46613917D01*
X79616843Y-46604974D01*
X79616841Y-46604974D01*
X79609448Y-46602202D01*
X79601598Y-46601349D01*
X79601597Y-46601349D01*
X79551153Y-46595869D01*
X79551152Y-46595869D01*
X79547756Y-46595500D01*
X78802244Y-46595500D01*
X78798848Y-46595869D01*
X78798847Y-46595869D01*
X78748403Y-46601349D01*
X78748402Y-46601349D01*
X78740552Y-46602202D01*
X78733159Y-46604974D01*
X78733157Y-46604974D01*
X78709302Y-46613917D01*
X78605236Y-46652929D01*
X78598057Y-46658309D01*
X78598054Y-46658311D01*
X78546058Y-46697280D01*
X78489596Y-46739596D01*
X78484215Y-46746776D01*
X78408311Y-46848054D01*
X78408309Y-46848057D01*
X78402929Y-46855236D01*
X78352202Y-46990552D01*
X78345500Y-47052244D01*
X78345500Y-47790616D01*
X78325498Y-47858737D01*
X78308595Y-47879711D01*
X78019784Y-48168522D01*
X78001036Y-48183664D01*
X77999811Y-48184779D01*
X77991060Y-48190429D01*
X77984613Y-48198607D01*
X77984611Y-48198609D01*
X77970271Y-48216800D01*
X77966325Y-48221241D01*
X77966398Y-48221303D01*
X77963039Y-48225267D01*
X77959362Y-48228944D01*
X77948108Y-48244692D01*
X77944602Y-48249362D01*
X77912844Y-48289647D01*
X77909812Y-48298281D01*
X77904486Y-48305734D01*
X77901501Y-48315715D01*
X77889799Y-48354844D01*
X77887964Y-48360492D01*
X77870982Y-48408851D01*
X77870500Y-48414416D01*
X77870500Y-48417124D01*
X77870386Y-48419758D01*
X77870357Y-48419856D01*
X77870193Y-48419849D01*
X77870149Y-48420553D01*
X77868287Y-48426778D01*
X77868873Y-48441689D01*
X77870403Y-48480635D01*
X77870500Y-48485582D01*
X77870500Y-49450032D01*
X77850498Y-49518153D01*
X77796842Y-49564646D01*
X77758108Y-49575295D01*
X77752842Y-49575867D01*
X77748403Y-49576349D01*
X77748402Y-49576349D01*
X77740552Y-49577202D01*
X77733159Y-49579974D01*
X77733157Y-49579974D01*
X77694954Y-49594296D01*
X77605236Y-49627929D01*
X77598057Y-49633309D01*
X77598054Y-49633311D01*
X77513607Y-49696601D01*
X77489596Y-49714596D01*
X77484215Y-49721776D01*
X77408311Y-49823054D01*
X77408309Y-49823057D01*
X77402929Y-49830236D01*
X77352202Y-49965552D01*
X77345500Y-50027244D01*
X77345500Y-52272756D01*
X76954500Y-52272756D01*
X76954500Y-50027244D01*
X76947798Y-49965552D01*
X76897071Y-49830236D01*
X76891691Y-49823057D01*
X76891689Y-49823054D01*
X76815785Y-49721776D01*
X76810404Y-49714596D01*
X76786393Y-49696601D01*
X76701946Y-49633311D01*
X76701943Y-49633309D01*
X76694764Y-49627929D01*
X76605046Y-49594296D01*
X76566843Y-49579974D01*
X76566841Y-49579974D01*
X76559448Y-49577202D01*
X76551598Y-49576349D01*
X76551597Y-49576349D01*
X76501153Y-49570869D01*
X76501152Y-49570869D01*
X76497756Y-49570500D01*
X75602244Y-49570500D01*
X75598848Y-49570869D01*
X75598847Y-49570869D01*
X75548403Y-49576349D01*
X75548402Y-49576349D01*
X75540552Y-49577202D01*
X75533159Y-49579974D01*
X75533157Y-49579974D01*
X75494954Y-49594296D01*
X75405236Y-49627929D01*
X75398057Y-49633309D01*
X75398054Y-49633311D01*
X75352247Y-49667642D01*
X75297953Y-49708333D01*
X75231449Y-49733180D01*
X75162066Y-49718127D01*
X75133295Y-49696601D01*
X74055500Y-48618806D01*
X74021474Y-48556494D01*
X74026539Y-48485679D01*
X74069030Y-48428885D01*
X74153224Y-48365785D01*
X74160404Y-48360404D01*
X74181063Y-48332839D01*
X74241689Y-48251946D01*
X74241691Y-48251943D01*
X74247071Y-48244764D01*
X74297798Y-48109448D01*
X74301983Y-48070930D01*
X74304131Y-48051153D01*
X74304131Y-48051152D01*
X74304500Y-48047756D01*
X74304500Y-47052244D01*
X74297798Y-46990552D01*
X74247071Y-46855236D01*
X74241691Y-46848057D01*
X74241689Y-46848054D01*
X74165785Y-46746776D01*
X74160404Y-46739596D01*
X74103942Y-46697280D01*
X74051946Y-46658311D01*
X74051943Y-46658309D01*
X74044764Y-46652929D01*
X73940698Y-46613917D01*
X73916843Y-46604974D01*
X73916841Y-46604974D01*
X73909448Y-46602202D01*
X73901598Y-46601349D01*
X73901597Y-46601349D01*
X73851153Y-46595869D01*
X73851152Y-46595869D01*
X73847756Y-46595500D01*
X73102244Y-46595500D01*
X73098848Y-46595869D01*
X73098847Y-46595869D01*
X73048403Y-46601349D01*
X73048402Y-46601349D01*
X73040552Y-46602202D01*
X73033159Y-46604974D01*
X73033157Y-46604974D01*
X73009302Y-46613917D01*
X72905236Y-46652929D01*
X72898057Y-46658309D01*
X72898054Y-46658311D01*
X72846058Y-46697280D01*
X72789596Y-46739596D01*
X72784215Y-46746776D01*
X72708311Y-46848054D01*
X72708309Y-46848057D01*
X72702929Y-46855236D01*
X72652202Y-46990552D01*
X72645500Y-47052244D01*
X72645500Y-47565616D01*
X72625498Y-47633737D01*
X72608595Y-47654711D01*
X70154711Y-50108595D01*
X70092399Y-50142621D01*
X70065616Y-50145500D01*
X69408990Y-50145501D01*
X69324934Y-50145501D01*
X69289182Y-50152612D01*
X69262874Y-50157844D01*
X69262872Y-50157845D01*
X69250699Y-50160266D01*
X69240379Y-50167161D01*
X69240378Y-50167162D01*
X69179985Y-50207516D01*
X69166516Y-50216516D01*
X69110266Y-50300699D01*
X69095500Y-50374933D01*
X68075508Y-50374933D01*
X68120605Y-50305490D01*
X68120607Y-50305487D01*
X68122403Y-50302721D01*
X68123903Y-50299779D01*
X68292236Y-49969405D01*
X68293734Y-49966465D01*
X68385237Y-49728091D01*
X68427792Y-49617233D01*
X68427793Y-49617231D01*
X68428978Y-49614143D01*
X68526653Y-49249613D01*
X68585690Y-48876871D01*
X68605441Y-48500000D01*
X68585690Y-48123129D01*
X68584695Y-48116843D01*
X68541291Y-47842806D01*
X68526653Y-47750387D01*
X68428978Y-47385857D01*
X68293734Y-47033535D01*
X68200218Y-46850000D01*
X68123902Y-46700221D01*
X68123898Y-46700214D01*
X68122403Y-46697280D01*
X67916863Y-46380775D01*
X67679365Y-46087489D01*
X67412511Y-45820635D01*
X67119225Y-45583137D01*
X66969913Y-45486173D01*
X66923676Y-45432296D01*
X66913906Y-45361975D01*
X66943706Y-45297535D01*
X67003614Y-45259436D01*
X67038537Y-45254500D01*
X129926761Y-45254500D01*
X129994882Y-45274502D01*
X130041375Y-45328158D01*
X130051479Y-45398432D01*
X130031526Y-45450502D01*
X129997985Y-45500699D01*
X129983219Y-45574933D01*
X129983220Y-46388458D01*
X129983220Y-47094500D01*
X129963218Y-47162621D01*
X129909562Y-47209114D01*
X129857220Y-47220500D01*
X82180500Y-47220500D01*
X82112379Y-47200498D01*
X82065886Y-47146842D01*
X82054500Y-47094500D01*
X82054500Y-47052244D01*
X82047798Y-46990552D01*
X81997071Y-46855236D01*
X81991691Y-46848057D01*
X81991689Y-46848054D01*
X81915785Y-46746776D01*
X81910404Y-46739596D01*
X81853942Y-46697280D01*
X81801946Y-46658311D01*
X81801943Y-46658309D01*
X81794764Y-46652929D01*
X81690698Y-46613917D01*
X81666843Y-46604974D01*
X81666841Y-46604974D01*
X81659448Y-46602202D01*
X81651598Y-46601349D01*
X81651597Y-46601349D01*
X81601153Y-46595869D01*
X81601152Y-46595869D01*
X81597756Y-46595500D01*
X80852244Y-46595500D01*
X80848848Y-46595869D01*
X80848847Y-46595869D01*
X80798403Y-46601349D01*
X80798402Y-46601349D01*
X80790552Y-46602202D01*
X80783159Y-46604974D01*
X80783157Y-46604974D01*
X80759302Y-46613917D01*
X80655236Y-46652929D01*
X80648057Y-46658309D01*
X80648054Y-46658311D01*
X80596058Y-46697280D01*
X80539596Y-46739596D01*
X80534215Y-46746776D01*
X80458311Y-46848054D01*
X80458309Y-46848057D01*
X80452929Y-46855236D01*
X80402202Y-46990552D01*
X80395500Y-47052244D01*
X80395500Y-48047756D01*
X80395869Y-48051152D01*
X80395869Y-48051153D01*
X80398018Y-48070930D01*
X80402202Y-48109448D01*
X80452929Y-48244764D01*
X80458309Y-48251943D01*
X80458311Y-48251946D01*
X80518937Y-48332839D01*
X80539193Y-48359866D01*
X80539596Y-48360404D01*
X80539518Y-48360462D01*
X80571217Y-48418512D01*
X80566152Y-48489327D01*
X80537195Y-48534385D01*
X79943201Y-49128379D01*
X79933766Y-49135917D01*
X79934089Y-49136296D01*
X79927253Y-49142114D01*
X79919661Y-49146904D01*
X79913719Y-49153632D01*
X79884329Y-49186910D01*
X79878983Y-49192597D01*
X79867649Y-49203931D01*
X79864964Y-49207514D01*
X79864962Y-49207516D01*
X79861447Y-49212206D01*
X79855062Y-49220049D01*
X79823999Y-49255221D01*
X79820186Y-49263343D01*
X79818346Y-49266144D01*
X79809937Y-49280139D01*
X79808315Y-49283102D01*
X79802930Y-49290287D01*
X79799777Y-49298697D01*
X79799776Y-49298699D01*
X79786454Y-49334233D01*
X79782530Y-49343546D01*
X79762583Y-49386033D01*
X79761201Y-49394907D01*
X79760215Y-49398134D01*
X79756075Y-49413917D01*
X79755354Y-49417195D01*
X79752202Y-49425603D01*
X79751537Y-49434554D01*
X79748724Y-49472408D01*
X79747570Y-49482455D01*
X79745500Y-49495748D01*
X79745500Y-49511113D01*
X79745154Y-49520450D01*
X79741493Y-49569718D01*
X79743366Y-49578493D01*
X79743959Y-49587189D01*
X79745500Y-49601789D01*
X79745500Y-57188839D01*
X79725498Y-57256960D01*
X79708595Y-57277934D01*
X75447044Y-61539485D01*
X75387363Y-61572909D01*
X75366982Y-61577802D01*
X75252563Y-61605271D01*
X75252560Y-61605272D01*
X75245184Y-61607043D01*
X75104414Y-61679700D01*
X75098695Y-61684689D01*
X75093148Y-61689528D01*
X74985039Y-61783838D01*
X74893950Y-61913444D01*
X74882045Y-61943979D01*
X74839379Y-62053412D01*
X74836406Y-62061037D01*
X74835415Y-62068568D01*
X74835414Y-62068570D01*
X74828482Y-62121226D01*
X74799759Y-62186153D01*
X74792655Y-62193874D01*
X73023434Y-63963095D01*
X72961122Y-63997121D01*
X72934339Y-64000000D01*
X68000000Y-64000000D01*
X68000000Y-74127628D01*
X67979998Y-74195749D01*
X67926342Y-74242242D01*
X67856068Y-74252346D01*
X67791488Y-74222852D01*
X67776080Y-74206922D01*
X67681450Y-74090064D01*
X67679365Y-74087489D01*
X67412511Y-73820635D01*
X67119225Y-73583137D01*
X66802720Y-73377597D01*
X66799786Y-73376102D01*
X66799779Y-73376098D01*
X66469405Y-73207764D01*
X66466465Y-73206266D01*
X66252041Y-73123956D01*
X66117233Y-73072208D01*
X66117231Y-73072207D01*
X66114143Y-73071022D01*
X65749613Y-72973347D01*
X65551647Y-72941992D01*
X65380119Y-72914824D01*
X65380111Y-72914823D01*
X65376871Y-72914310D01*
X65094280Y-72899500D01*
X64905720Y-72899500D01*
X64623129Y-72914310D01*
X64619889Y-72914823D01*
X64619881Y-72914824D01*
X64448353Y-72941992D01*
X64250387Y-72973347D01*
X63885857Y-73071022D01*
X63882769Y-73072207D01*
X63882767Y-73072208D01*
X63747959Y-73123956D01*
X63533535Y-73206266D01*
X63530595Y-73207764D01*
X63200221Y-73376098D01*
X63200214Y-73376102D01*
X63197280Y-73377597D01*
X62880775Y-73583137D01*
X62587489Y-73820635D01*
X62320635Y-74087489D01*
X62083137Y-74380775D01*
X62081335Y-74383550D01*
X61898822Y-74664596D01*
X61877597Y-74697279D01*
X61876102Y-74700213D01*
X61876098Y-74700220D01*
X61734948Y-74977244D01*
X61706266Y-75033535D01*
X61571022Y-75385857D01*
X61473347Y-75750387D01*
X61452678Y-75880887D01*
X61415281Y-76117000D01*
X61414310Y-76123129D01*
X61394559Y-76500000D01*
X61414310Y-76876871D01*
X61473347Y-77249613D01*
X61571022Y-77614143D01*
X61572207Y-77617231D01*
X61572208Y-77617233D01*
X61602186Y-77695328D01*
X61706266Y-77966465D01*
X61707764Y-77969405D01*
X61857441Y-78263161D01*
X61877597Y-78302720D01*
X61879393Y-78305486D01*
X61879395Y-78305489D01*
X61912903Y-78357087D01*
X62083137Y-78619225D01*
X62320635Y-78912511D01*
X62587489Y-79179365D01*
X62880775Y-79416863D01*
X62883550Y-79418665D01*
X63030087Y-79513827D01*
X63076324Y-79567704D01*
X63086094Y-79638025D01*
X63056294Y-79702465D01*
X62996386Y-79740564D01*
X62961463Y-79745500D01*
X55380500Y-79745500D01*
X55312379Y-79725498D01*
X55265886Y-79671842D01*
X55254500Y-79619500D01*
X55254500Y-65413944D01*
X60741183Y-65413944D01*
X60741407Y-65418611D01*
X60741407Y-65418616D01*
X60745292Y-65499502D01*
X60753694Y-65674419D01*
X60804569Y-65930185D01*
X60892690Y-66175621D01*
X60894906Y-66179745D01*
X60998283Y-66372139D01*
X61016120Y-66405336D01*
X61018915Y-66409079D01*
X61018917Y-66409082D01*
X61169357Y-66610545D01*
X61169362Y-66610551D01*
X61172149Y-66614283D01*
X61175458Y-66617563D01*
X61175463Y-66617569D01*
X61340122Y-66780797D01*
X61357348Y-66797873D01*
X61361110Y-66800631D01*
X61361113Y-66800634D01*
X61563882Y-66949311D01*
X61567649Y-66952073D01*
X61571780Y-66954247D01*
X61571781Y-66954247D01*
X61794298Y-67071319D01*
X61794304Y-67071321D01*
X61798433Y-67073494D01*
X62044629Y-67159469D01*
X62049222Y-67160341D01*
X62296239Y-67207239D01*
X62296242Y-67207239D01*
X62300828Y-67208110D01*
X62424725Y-67212978D01*
X62556735Y-67218165D01*
X62556740Y-67218165D01*
X62561403Y-67218348D01*
X62654885Y-67208110D01*
X62815976Y-67190468D01*
X62815981Y-67190467D01*
X62820629Y-67189958D01*
X63072811Y-67123564D01*
X63210385Y-67064458D01*
X63308107Y-67022474D01*
X63308110Y-67022472D01*
X63312410Y-67020625D01*
X63316390Y-67018162D01*
X63316394Y-67018160D01*
X63530188Y-66885860D01*
X63530192Y-66885857D01*
X63534161Y-66883401D01*
X63733194Y-66714907D01*
X63905135Y-66518845D01*
X64003009Y-66366684D01*
X64019967Y-66340319D01*
X64046208Y-66299523D01*
X64153314Y-66061757D01*
X64224099Y-65810772D01*
X64235919Y-65717859D01*
X64256611Y-65555212D01*
X64256611Y-65555206D01*
X64257009Y-65552081D01*
X64257639Y-65528046D01*
X64259337Y-65463160D01*
X64259420Y-65460000D01*
X64248893Y-65318343D01*
X64240440Y-65204593D01*
X64240439Y-65204589D01*
X64240094Y-65199941D01*
X64182542Y-64945595D01*
X64176294Y-64929527D01*
X64106360Y-64749694D01*
X64088027Y-64702550D01*
X64083453Y-64694546D01*
X64005888Y-64558838D01*
X63958625Y-64476145D01*
X63797180Y-64271353D01*
X63607239Y-64092674D01*
X63437606Y-63974995D01*
X63396815Y-63946697D01*
X63396812Y-63946695D01*
X63392973Y-63944032D01*
X63388783Y-63941966D01*
X63388780Y-63941964D01*
X63163278Y-63830759D01*
X63163275Y-63830758D01*
X63159090Y-63828694D01*
X63148791Y-63825397D01*
X63102842Y-63810689D01*
X62967086Y-63767233D01*
X62908307Y-63727417D01*
X62880385Y-63662141D01*
X62879500Y-63647232D01*
X62879500Y-61559384D01*
X62899502Y-61491263D01*
X62916405Y-61470289D01*
X71920484Y-52466210D01*
X71982796Y-52432184D01*
X72053611Y-52437249D01*
X72110405Y-52479740D01*
X72171656Y-52561467D01*
X72189596Y-52585404D01*
X72196776Y-52590785D01*
X72298054Y-52666689D01*
X72298057Y-52666691D01*
X72305236Y-52672071D01*
X72365317Y-52694594D01*
X72433157Y-52720026D01*
X72433159Y-52720026D01*
X72440552Y-52722798D01*
X72448402Y-52723651D01*
X72448403Y-52723651D01*
X72498847Y-52729131D01*
X72502244Y-52729500D01*
X73397756Y-52729500D01*
X73401153Y-52729131D01*
X73451597Y-52723651D01*
X73451598Y-52723651D01*
X73459448Y-52722798D01*
X73466841Y-52720026D01*
X73466843Y-52720026D01*
X73534683Y-52694594D01*
X73594764Y-52672071D01*
X73601943Y-52666691D01*
X73601946Y-52666689D01*
X73703224Y-52590785D01*
X73710404Y-52585404D01*
X73728344Y-52561467D01*
X73791689Y-52476946D01*
X73791691Y-52476943D01*
X73797071Y-52469764D01*
X73847798Y-52334448D01*
X73854500Y-52272756D01*
X73854500Y-50027244D01*
X73847798Y-49965552D01*
X73797071Y-49830236D01*
X73791691Y-49823057D01*
X73791689Y-49823054D01*
X73715785Y-49721776D01*
X73710404Y-49714596D01*
X73686393Y-49696601D01*
X73601946Y-49633311D01*
X73601943Y-49633309D01*
X73594764Y-49627929D01*
X73505046Y-49594296D01*
X73466843Y-49579974D01*
X73466841Y-49579974D01*
X73459448Y-49577202D01*
X73451598Y-49576349D01*
X73451597Y-49576349D01*
X73401153Y-49570869D01*
X73401152Y-49570869D01*
X73397756Y-49570500D01*
X72502244Y-49570500D01*
X72498848Y-49570869D01*
X72498847Y-49570869D01*
X72448403Y-49576349D01*
X72448402Y-49576349D01*
X72440552Y-49577202D01*
X72433159Y-49579974D01*
X72433157Y-49579974D01*
X72394954Y-49594296D01*
X72305236Y-49627929D01*
X72298057Y-49633309D01*
X72298054Y-49633311D01*
X72213607Y-49696601D01*
X72189596Y-49714596D01*
X72184215Y-49721776D01*
X72108311Y-49823054D01*
X72108309Y-49823057D01*
X72102929Y-49830236D01*
X72052202Y-49965552D01*
X72045500Y-50027244D01*
X72045500Y-51215616D01*
X72025498Y-51283737D01*
X72008595Y-51304711D01*
X62269784Y-61043522D01*
X62251036Y-61058664D01*
X62249811Y-61059779D01*
X62241060Y-61065429D01*
X62234613Y-61073607D01*
X62234611Y-61073609D01*
X62220271Y-61091800D01*
X62216325Y-61096241D01*
X62216398Y-61096303D01*
X62213039Y-61100267D01*
X62209362Y-61103944D01*
X62198108Y-61119692D01*
X62194602Y-61124362D01*
X62162844Y-61164647D01*
X62159812Y-61173281D01*
X62154486Y-61180734D01*
X62151501Y-61190715D01*
X62139799Y-61229844D01*
X62137964Y-61235492D01*
X62120982Y-61283851D01*
X62120500Y-61289416D01*
X62120500Y-61292124D01*
X62120386Y-61294758D01*
X62120357Y-61294856D01*
X62120193Y-61294849D01*
X62120149Y-61295553D01*
X62118287Y-61301778D01*
X62120403Y-61355635D01*
X62120500Y-61360582D01*
X62120500Y-63648503D01*
X62100498Y-63716624D01*
X62046842Y-63763117D01*
X62029763Y-63769467D01*
X61883838Y-63812000D01*
X61647016Y-63921177D01*
X61643111Y-63923737D01*
X61643106Y-63923740D01*
X61432846Y-64061592D01*
X61432841Y-64061596D01*
X61428933Y-64064158D01*
X61392231Y-64096916D01*
X61255723Y-64218754D01*
X61234379Y-64237804D01*
X61067629Y-64438300D01*
X60932345Y-64661240D01*
X60930538Y-64665548D01*
X60930538Y-64665549D01*
X60834440Y-64894718D01*
X60831500Y-64901728D01*
X60830349Y-64906260D01*
X60830348Y-64906263D01*
X60823114Y-64934748D01*
X60767310Y-65154480D01*
X60741183Y-65413944D01*
X55254500Y-65413944D01*
X55254500Y-61015800D01*
X58841801Y-61015800D01*
X58851545Y-61226333D01*
X58900924Y-61431226D01*
X58903406Y-61436684D01*
X58903407Y-61436688D01*
X58951511Y-61542485D01*
X58988157Y-61623084D01*
X59056021Y-61718754D01*
X59106273Y-61789596D01*
X59110096Y-61794986D01*
X59217762Y-61898054D01*
X59234044Y-61913640D01*
X59262340Y-61940728D01*
X59267375Y-61943979D01*
X59434360Y-62051800D01*
X59434363Y-62051801D01*
X59439397Y-62055052D01*
X59444960Y-62057294D01*
X59460423Y-62063526D01*
X59634878Y-62133834D01*
X59743760Y-62155097D01*
X59837283Y-62173361D01*
X59837286Y-62173361D01*
X59841729Y-62174229D01*
X59847270Y-62174500D01*
X60502659Y-62174500D01*
X60659806Y-62159507D01*
X60674839Y-62155097D01*
X60856278Y-62101868D01*
X60862042Y-62100177D01*
X60945304Y-62057294D01*
X61044079Y-62006422D01*
X61044082Y-62006420D01*
X61049410Y-62003676D01*
X61101418Y-61962823D01*
X61210432Y-61877192D01*
X61210436Y-61877188D01*
X61215149Y-61873486D01*
X61220592Y-61867214D01*
X61349350Y-61718835D01*
X61349354Y-61718830D01*
X61353281Y-61714304D01*
X61458819Y-61531874D01*
X61527957Y-61332778D01*
X61530260Y-61316899D01*
X61557338Y-61130140D01*
X61557338Y-61130137D01*
X61558199Y-61124200D01*
X61548455Y-60913667D01*
X61544456Y-60897071D01*
X61500482Y-60714607D01*
X61500481Y-60714605D01*
X61499076Y-60708774D01*
X61495972Y-60701946D01*
X61439902Y-60578628D01*
X61411843Y-60516916D01*
X61317743Y-60384259D01*
X61293370Y-60349900D01*
X61293369Y-60349899D01*
X61289904Y-60345014D01*
X61137660Y-60199272D01*
X61035918Y-60133578D01*
X60965640Y-60088200D01*
X60965637Y-60088199D01*
X60960603Y-60084948D01*
X60765122Y-60006166D01*
X60630739Y-59979923D01*
X60562717Y-59966639D01*
X60562714Y-59966639D01*
X60558271Y-59965771D01*
X60552730Y-59965500D01*
X59897341Y-59965500D01*
X59740194Y-59980493D01*
X59537958Y-60039823D01*
X59532619Y-60042573D01*
X59355921Y-60133578D01*
X59355918Y-60133580D01*
X59350590Y-60136324D01*
X59345875Y-60140028D01*
X59189568Y-60262808D01*
X59189564Y-60262812D01*
X59184851Y-60266514D01*
X59180920Y-60271044D01*
X59180919Y-60271045D01*
X59050650Y-60421165D01*
X59050646Y-60421170D01*
X59046719Y-60425696D01*
X58941181Y-60608126D01*
X58872043Y-60807222D01*
X58871183Y-60813155D01*
X58871182Y-60813158D01*
X58842662Y-61009860D01*
X58841801Y-61015800D01*
X55254500Y-61015800D01*
X55254500Y-57654933D01*
X58845500Y-57654933D01*
X58845501Y-59405066D01*
X58850251Y-59428948D01*
X58854121Y-59448403D01*
X58860266Y-59479301D01*
X58916516Y-59563484D01*
X59000699Y-59619734D01*
X59074933Y-59634500D01*
X60199818Y-59634500D01*
X61325066Y-59634499D01*
X61363850Y-59626785D01*
X61387126Y-59622156D01*
X61387128Y-59622155D01*
X61399301Y-59619734D01*
X61409621Y-59612839D01*
X61409622Y-59612838D01*
X61473168Y-59570377D01*
X61483484Y-59563484D01*
X61539734Y-59479301D01*
X61554500Y-59405067D01*
X61554499Y-57654934D01*
X61543378Y-57599018D01*
X61542156Y-57592874D01*
X61542155Y-57592872D01*
X61539734Y-57580699D01*
X61525535Y-57559448D01*
X61490377Y-57506832D01*
X61483484Y-57496516D01*
X61399301Y-57440266D01*
X61325067Y-57425500D01*
X60200182Y-57425500D01*
X59074934Y-57425501D01*
X59039182Y-57432612D01*
X59012874Y-57437844D01*
X59012872Y-57437845D01*
X59000699Y-57440266D01*
X58990379Y-57447161D01*
X58990378Y-57447162D01*
X58961538Y-57466433D01*
X58916516Y-57496516D01*
X58860266Y-57580699D01*
X58845500Y-57654933D01*
X55254500Y-57654933D01*
X55254500Y-55365800D01*
X58841801Y-55365800D01*
X58851545Y-55576333D01*
X58856764Y-55597988D01*
X58896288Y-55761988D01*
X58900924Y-55781226D01*
X58903406Y-55786684D01*
X58903407Y-55786688D01*
X58944109Y-55876206D01*
X58988157Y-55973084D01*
X59110096Y-56144986D01*
X59262340Y-56290728D01*
X59267375Y-56293979D01*
X59434360Y-56401800D01*
X59434363Y-56401801D01*
X59439397Y-56405052D01*
X59634878Y-56483834D01*
X59757688Y-56507817D01*
X59837283Y-56523361D01*
X59837286Y-56523361D01*
X59841729Y-56524229D01*
X59847270Y-56524500D01*
X60502659Y-56524500D01*
X60659806Y-56509507D01*
X60682229Y-56502929D01*
X60856278Y-56451868D01*
X60862042Y-56450177D01*
X60945304Y-56407294D01*
X61044079Y-56356422D01*
X61044082Y-56356420D01*
X61049410Y-56353676D01*
X61100328Y-56313679D01*
X61210432Y-56227192D01*
X61210436Y-56227188D01*
X61215149Y-56223486D01*
X61219081Y-56218955D01*
X61349350Y-56068835D01*
X61349354Y-56068830D01*
X61353281Y-56064304D01*
X61458819Y-55881874D01*
X61527957Y-55682778D01*
X61529301Y-55673514D01*
X61557338Y-55480140D01*
X61557338Y-55480137D01*
X61558199Y-55474200D01*
X61548455Y-55263667D01*
X61534564Y-55206025D01*
X61500482Y-55064607D01*
X61500481Y-55064605D01*
X61499076Y-55058774D01*
X61411843Y-54866916D01*
X61289904Y-54695014D01*
X61137660Y-54549272D01*
X60991550Y-54454930D01*
X60965640Y-54438200D01*
X60965637Y-54438199D01*
X60960603Y-54434948D01*
X60765122Y-54356166D01*
X60630739Y-54329923D01*
X60562717Y-54316639D01*
X60562714Y-54316639D01*
X60558271Y-54315771D01*
X60552730Y-54315500D01*
X59897341Y-54315500D01*
X59740194Y-54330493D01*
X59537958Y-54389823D01*
X59532619Y-54392573D01*
X59355921Y-54483578D01*
X59355918Y-54483580D01*
X59350590Y-54486324D01*
X59345875Y-54490028D01*
X59189568Y-54612808D01*
X59189564Y-54612812D01*
X59184851Y-54616514D01*
X59180920Y-54621044D01*
X59180919Y-54621045D01*
X59050650Y-54771165D01*
X59050646Y-54771170D01*
X59046719Y-54775696D01*
X58941181Y-54958126D01*
X58872043Y-55157222D01*
X58871183Y-55163155D01*
X58871182Y-55163158D01*
X58844864Y-55344673D01*
X58841801Y-55365800D01*
X55254500Y-55365800D01*
X55254500Y-52004933D01*
X58845500Y-52004933D01*
X58845501Y-53755066D01*
X58860266Y-53829301D01*
X58867161Y-53839620D01*
X58867162Y-53839622D01*
X58872031Y-53846909D01*
X58916516Y-53913484D01*
X59000699Y-53969734D01*
X59074933Y-53984500D01*
X60199818Y-53984500D01*
X61325066Y-53984499D01*
X61360818Y-53977388D01*
X61387126Y-53972156D01*
X61387128Y-53972155D01*
X61399301Y-53969734D01*
X61409621Y-53962839D01*
X61409622Y-53962838D01*
X61473168Y-53920377D01*
X61483484Y-53913484D01*
X61539734Y-53829301D01*
X61554500Y-53755067D01*
X61554499Y-52004934D01*
X61539734Y-51930699D01*
X61483484Y-51846516D01*
X61399301Y-51790266D01*
X61325067Y-51775500D01*
X60200182Y-51775500D01*
X59074934Y-51775501D01*
X59039182Y-51782612D01*
X59012874Y-51787844D01*
X59012872Y-51787845D01*
X59000699Y-51790266D01*
X58990379Y-51797161D01*
X58990378Y-51797162D01*
X58929985Y-51837516D01*
X58916516Y-51846516D01*
X58860266Y-51930699D01*
X58845500Y-52004933D01*
X55254500Y-52004933D01*
X55254500Y-45380500D01*
X55274502Y-45312379D01*
X55328158Y-45265886D01*
X55380500Y-45254500D01*
X62961463Y-45254500D01*
X63029584Y-45274502D01*
G37*
G04 #@! TD.AperFunction*
G04 #@! TA.AperFunction,Conductor*
G36*
X68000000Y-79745500D02*
G01*
X67038537Y-79745500D01*
X66970416Y-79725498D01*
X66923923Y-79671842D01*
X66913819Y-79601568D01*
X66943313Y-79536988D01*
X66969913Y-79513827D01*
X67116450Y-79418665D01*
X67119225Y-79416863D01*
X67412511Y-79179365D01*
X67679365Y-78912511D01*
X67916863Y-78619225D01*
X67922009Y-78611301D01*
X68000000Y-78491206D01*
X68000000Y-79745500D01*
G37*
G04 #@! TD.AperFunction*
G04 #@! TA.AperFunction,Conductor*
G36*
X149529584Y-45274502D02*
G01*
X149576077Y-45328158D01*
X149586181Y-45398432D01*
X149556687Y-45463012D01*
X149530087Y-45486173D01*
X149380775Y-45583137D01*
X149087489Y-45820635D01*
X148820635Y-46087489D01*
X148583137Y-46380775D01*
X148581335Y-46383550D01*
X148379395Y-46694510D01*
X148379393Y-46694513D01*
X148377597Y-46697279D01*
X148376102Y-46700213D01*
X148376098Y-46700220D01*
X148297270Y-46854930D01*
X148206266Y-47033535D01*
X148071022Y-47385857D01*
X147973347Y-47750387D01*
X147958709Y-47842806D01*
X147915306Y-48116843D01*
X147914310Y-48123129D01*
X147894559Y-48500000D01*
X147914310Y-48876871D01*
X147973347Y-49249613D01*
X148071022Y-49614143D01*
X148072207Y-49617231D01*
X148072208Y-49617233D01*
X148114763Y-49728091D01*
X148206266Y-49966465D01*
X148207764Y-49969405D01*
X148333674Y-50216516D01*
X148377597Y-50302720D01*
X148583137Y-50619225D01*
X148820635Y-50912511D01*
X149087489Y-51179365D01*
X149380775Y-51416863D01*
X149383550Y-51418665D01*
X149592717Y-51554499D01*
X149697280Y-51622403D01*
X149700214Y-51623898D01*
X149700221Y-51623902D01*
X149997749Y-51775500D01*
X150033535Y-51793734D01*
X150385857Y-51928978D01*
X150750387Y-52026653D01*
X150948353Y-52058008D01*
X151119881Y-52085176D01*
X151119889Y-52085177D01*
X151123129Y-52085690D01*
X151405720Y-52100500D01*
X151594280Y-52100500D01*
X151876871Y-52085690D01*
X151880111Y-52085177D01*
X151880119Y-52085176D01*
X152051647Y-52058008D01*
X152249613Y-52026653D01*
X152614143Y-51928978D01*
X152966465Y-51793734D01*
X153002251Y-51775500D01*
X153299779Y-51623902D01*
X153299786Y-51623898D01*
X153302720Y-51622403D01*
X153407284Y-51554499D01*
X153616450Y-51418665D01*
X153619225Y-51416863D01*
X153912511Y-51179365D01*
X154179365Y-50912511D01*
X154416863Y-50619225D01*
X154513828Y-50469912D01*
X154567704Y-50423676D01*
X154638025Y-50413906D01*
X154702465Y-50443706D01*
X154740564Y-50503614D01*
X154745500Y-50538537D01*
X154745500Y-74461463D01*
X154725498Y-74529584D01*
X154671842Y-74576077D01*
X154601568Y-74586181D01*
X154536988Y-74556687D01*
X154513827Y-74530087D01*
X154454440Y-74438639D01*
X154416863Y-74380775D01*
X154179365Y-74087489D01*
X153912511Y-73820635D01*
X153619225Y-73583137D01*
X153302720Y-73377597D01*
X153299786Y-73376102D01*
X153299779Y-73376098D01*
X152969405Y-73207764D01*
X152966465Y-73206266D01*
X152752041Y-73123956D01*
X152617233Y-73072208D01*
X152617231Y-73072207D01*
X152614143Y-73071022D01*
X152249613Y-72973347D01*
X152051647Y-72941992D01*
X151880119Y-72914824D01*
X151880111Y-72914823D01*
X151876871Y-72914310D01*
X151594280Y-72899500D01*
X151405720Y-72899500D01*
X151123129Y-72914310D01*
X151119889Y-72914823D01*
X151119881Y-72914824D01*
X150948353Y-72941992D01*
X150750387Y-72973347D01*
X150385857Y-73071022D01*
X150382769Y-73072207D01*
X150382767Y-73072208D01*
X150247959Y-73123956D01*
X150033535Y-73206266D01*
X150030595Y-73207764D01*
X149700221Y-73376098D01*
X149700214Y-73376102D01*
X149697280Y-73377597D01*
X149380775Y-73583137D01*
X149087489Y-73820635D01*
X148820635Y-74087489D01*
X148583137Y-74380775D01*
X148581335Y-74383550D01*
X148398822Y-74664596D01*
X148377597Y-74697279D01*
X148376102Y-74700213D01*
X148376098Y-74700220D01*
X148234948Y-74977244D01*
X148206266Y-75033535D01*
X148071022Y-75385857D01*
X147973347Y-75750387D01*
X147952678Y-75880887D01*
X147915281Y-76117000D01*
X147914310Y-76123129D01*
X147894559Y-76500000D01*
X147914310Y-76876871D01*
X147973347Y-77249613D01*
X148071022Y-77614143D01*
X148072207Y-77617231D01*
X148072208Y-77617233D01*
X148102186Y-77695328D01*
X148206266Y-77966465D01*
X148207764Y-77969405D01*
X148357441Y-78263161D01*
X148377597Y-78302720D01*
X148379393Y-78305486D01*
X148379395Y-78305489D01*
X148412903Y-78357087D01*
X148583137Y-78619225D01*
X148820635Y-78912511D01*
X149087489Y-79179365D01*
X149380775Y-79416863D01*
X149383550Y-79418665D01*
X149530087Y-79513827D01*
X149576324Y-79567704D01*
X149586094Y-79638025D01*
X149556294Y-79702465D01*
X149496386Y-79740564D01*
X149461463Y-79745500D01*
X83200000Y-79745500D01*
X83200000Y-76154500D01*
X83677212Y-76154500D01*
X83721441Y-76162518D01*
X83808157Y-76195026D01*
X83808159Y-76195026D01*
X83815552Y-76197798D01*
X83823402Y-76198651D01*
X83823403Y-76198651D01*
X83873847Y-76204131D01*
X83877244Y-76204500D01*
X84922756Y-76204500D01*
X84926153Y-76204131D01*
X84976597Y-76198651D01*
X84976598Y-76198651D01*
X84984448Y-76197798D01*
X84991841Y-76195026D01*
X84991843Y-76195026D01*
X85111357Y-76150223D01*
X85111359Y-76150222D01*
X85119764Y-76147071D01*
X85126946Y-76141688D01*
X85134823Y-76137376D01*
X85135556Y-76138716D01*
X85192802Y-76117326D01*
X85201864Y-76117000D01*
X86647785Y-76117000D01*
X86715906Y-76137002D01*
X86736880Y-76153905D01*
X86758596Y-76175621D01*
X86792622Y-76237933D01*
X86795501Y-76264716D01*
X86795501Y-77572756D01*
X86795870Y-77576150D01*
X86795870Y-77576156D01*
X86801200Y-77625221D01*
X86802202Y-77634449D01*
X86852929Y-77769765D01*
X86858309Y-77776944D01*
X86858311Y-77776947D01*
X86933059Y-77876682D01*
X86939596Y-77885404D01*
X86946777Y-77890786D01*
X87048053Y-77966689D01*
X87048056Y-77966691D01*
X87055235Y-77972071D01*
X87144953Y-78005704D01*
X87183156Y-78020026D01*
X87183158Y-78020026D01*
X87190551Y-78022798D01*
X87198401Y-78023651D01*
X87198402Y-78023651D01*
X87248837Y-78029130D01*
X87252243Y-78029500D01*
X87749927Y-78029500D01*
X88247756Y-78029499D01*
X88251150Y-78029130D01*
X88251156Y-78029130D01*
X88301591Y-78023652D01*
X88301595Y-78023651D01*
X88309449Y-78022798D01*
X88444765Y-77972071D01*
X88451944Y-77966691D01*
X88451947Y-77966689D01*
X88553223Y-77890786D01*
X88560404Y-77885404D01*
X88566941Y-77876682D01*
X88641689Y-77776947D01*
X88641691Y-77776944D01*
X88647071Y-77769765D01*
X88697798Y-77634449D01*
X88698801Y-77625221D01*
X88704131Y-77576154D01*
X88704131Y-77576153D01*
X88704500Y-77572757D01*
X88704500Y-76605500D01*
X88724502Y-76537379D01*
X88778158Y-76490886D01*
X88830500Y-76479500D01*
X89546080Y-76479500D01*
X89570028Y-76482049D01*
X89571693Y-76482128D01*
X89581876Y-76484320D01*
X89592217Y-76483096D01*
X89615223Y-76480373D01*
X89621154Y-76480023D01*
X89621146Y-76479928D01*
X89626324Y-76479500D01*
X89631524Y-76479500D01*
X89636653Y-76478646D01*
X89636656Y-76478646D01*
X89650565Y-76476331D01*
X89656443Y-76475494D01*
X89697001Y-76470694D01*
X89697002Y-76470694D01*
X89707341Y-76469470D01*
X89715593Y-76465507D01*
X89724626Y-76464004D01*
X89733795Y-76459057D01*
X89733797Y-76459056D01*
X89769732Y-76439666D01*
X89775025Y-76436969D01*
X89814082Y-76418215D01*
X89814086Y-76418212D01*
X89821232Y-76414781D01*
X89825508Y-76411186D01*
X89827431Y-76409263D01*
X89829363Y-76407491D01*
X89829442Y-76407448D01*
X89829555Y-76407572D01*
X89830095Y-76407096D01*
X89835814Y-76404010D01*
X89872417Y-76364413D01*
X89875846Y-76360848D01*
X90496178Y-75740516D01*
X90558490Y-75706490D01*
X90587252Y-75703627D01*
X90711318Y-75705576D01*
X90711321Y-75705576D01*
X90718916Y-75705695D01*
X90873332Y-75670329D01*
X90943742Y-75634917D01*
X91008072Y-75602563D01*
X91008075Y-75602561D01*
X91014855Y-75599151D01*
X91020626Y-75594222D01*
X91020629Y-75594220D01*
X91129536Y-75501204D01*
X91129536Y-75501203D01*
X91135314Y-75496269D01*
X91227755Y-75367624D01*
X91286842Y-75220641D01*
X91309162Y-75063807D01*
X91309307Y-75050000D01*
X91290276Y-74892733D01*
X91234280Y-74744546D01*
X91151324Y-74623844D01*
X91148855Y-74620251D01*
X91148854Y-74620249D01*
X91144553Y-74613992D01*
X91026275Y-74508611D01*
X91018889Y-74504700D01*
X90892988Y-74438039D01*
X90892989Y-74438039D01*
X90886274Y-74434484D01*
X90732633Y-74395892D01*
X90725034Y-74395852D01*
X90725033Y-74395852D01*
X90659181Y-74395507D01*
X90574221Y-74395062D01*
X90566841Y-74396834D01*
X90566839Y-74396834D01*
X90427563Y-74430271D01*
X90427560Y-74430272D01*
X90420184Y-74432043D01*
X90279414Y-74504700D01*
X90160039Y-74608838D01*
X90068950Y-74738444D01*
X90011406Y-74886037D01*
X90010414Y-74893570D01*
X90010414Y-74893571D01*
X89991988Y-75033535D01*
X89990729Y-75043096D01*
X89993544Y-75068591D01*
X89996963Y-75099566D01*
X89984557Y-75169470D01*
X89960819Y-75202487D01*
X89479711Y-75683595D01*
X89417399Y-75717621D01*
X89390616Y-75720500D01*
X88830499Y-75720500D01*
X88762378Y-75700498D01*
X88715885Y-75646842D01*
X88704499Y-75594500D01*
X88704499Y-74627244D01*
X88703748Y-74620326D01*
X88698652Y-74573409D01*
X88698651Y-74573405D01*
X88697798Y-74565551D01*
X88647071Y-74430235D01*
X88641691Y-74423056D01*
X88641689Y-74423053D01*
X88565786Y-74321777D01*
X88560404Y-74314596D01*
X88553223Y-74309214D01*
X88451947Y-74233311D01*
X88451944Y-74233309D01*
X88444765Y-74227929D01*
X88432903Y-74223482D01*
X88429972Y-74221281D01*
X88428486Y-74220467D01*
X88428603Y-74220253D01*
X88376138Y-74180842D01*
X88351437Y-74114281D01*
X88366643Y-74044932D01*
X88416928Y-73994813D01*
X88477131Y-73979500D01*
X91540616Y-73979500D01*
X91608737Y-73999502D01*
X91629711Y-74016405D01*
X92858595Y-75245290D01*
X92892621Y-75307602D01*
X92895500Y-75334385D01*
X92895501Y-76459056D01*
X92895501Y-77572756D01*
X92895870Y-77576150D01*
X92895870Y-77576156D01*
X92901200Y-77625221D01*
X92902202Y-77634449D01*
X92952929Y-77769765D01*
X92958309Y-77776944D01*
X92958311Y-77776947D01*
X93033059Y-77876682D01*
X93039596Y-77885404D01*
X93046777Y-77890786D01*
X93148053Y-77966689D01*
X93148056Y-77966691D01*
X93155235Y-77972071D01*
X93244953Y-78005704D01*
X93283156Y-78020026D01*
X93283158Y-78020026D01*
X93290551Y-78022798D01*
X93298401Y-78023651D01*
X93298402Y-78023651D01*
X93348837Y-78029130D01*
X93352243Y-78029500D01*
X93849927Y-78029500D01*
X94347756Y-78029499D01*
X94351150Y-78029130D01*
X94351156Y-78029130D01*
X94401591Y-78023652D01*
X94401595Y-78023651D01*
X94409449Y-78022798D01*
X94544765Y-77972071D01*
X94551944Y-77966691D01*
X94551947Y-77966689D01*
X94653223Y-77890786D01*
X94660404Y-77885404D01*
X94666941Y-77876682D01*
X94741689Y-77776947D01*
X94741691Y-77776944D01*
X94747071Y-77769765D01*
X94797798Y-77634449D01*
X94798801Y-77625221D01*
X94804131Y-77576154D01*
X94804131Y-77576153D01*
X94804500Y-77572757D01*
X94804500Y-76980500D01*
X94824502Y-76912379D01*
X94878158Y-76865886D01*
X94930500Y-76854500D01*
X95419500Y-76854500D01*
X95487621Y-76874502D01*
X95534114Y-76928158D01*
X95545500Y-76980500D01*
X95545500Y-77222756D01*
X95552202Y-77284448D01*
X95602929Y-77419764D01*
X95608309Y-77426943D01*
X95608311Y-77426946D01*
X95650684Y-77483484D01*
X95689596Y-77535404D01*
X95696776Y-77540785D01*
X95798054Y-77616689D01*
X95798057Y-77616691D01*
X95805236Y-77622071D01*
X95894954Y-77655704D01*
X95933157Y-77670026D01*
X95933159Y-77670026D01*
X95940552Y-77672798D01*
X95948402Y-77673651D01*
X95948403Y-77673651D01*
X95998019Y-77679041D01*
X96002244Y-77679500D01*
X96897756Y-77679500D01*
X96901142Y-77679132D01*
X96902825Y-77679041D01*
X96971928Y-77695328D01*
X96998737Y-77715761D01*
X97894277Y-78611301D01*
X97906662Y-78625712D01*
X97919437Y-78643071D01*
X97925020Y-78647814D01*
X97959479Y-78677089D01*
X97966995Y-78684019D01*
X97972638Y-78689662D01*
X97994822Y-78707214D01*
X97998196Y-78709981D01*
X98053520Y-78756982D01*
X98060039Y-78760311D01*
X98065013Y-78763628D01*
X98070089Y-78766763D01*
X98075832Y-78771307D01*
X98082464Y-78774406D01*
X98082463Y-78774406D01*
X98141618Y-78802053D01*
X98145570Y-78803985D01*
X98210212Y-78836993D01*
X98217320Y-78838732D01*
X98222918Y-78840814D01*
X98228591Y-78842701D01*
X98235221Y-78845800D01*
X98306307Y-78860586D01*
X98310591Y-78861556D01*
X98381108Y-78878811D01*
X98386710Y-78879159D01*
X98386713Y-78879159D01*
X98392214Y-78879500D01*
X98392212Y-78879534D01*
X98396269Y-78879777D01*
X98400304Y-78880137D01*
X98407472Y-78881628D01*
X98414789Y-78881430D01*
X98484414Y-78879546D01*
X98487822Y-78879500D01*
X130108235Y-78879500D01*
X130127185Y-78880933D01*
X130141255Y-78883074D01*
X130141259Y-78883074D01*
X130148489Y-78884174D01*
X130155780Y-78883581D01*
X130155783Y-78883581D01*
X130200848Y-78879915D01*
X130211063Y-78879500D01*
X130219053Y-78879500D01*
X130226302Y-78878655D01*
X130247113Y-78876229D01*
X130251487Y-78875796D01*
X130316549Y-78870504D01*
X130316552Y-78870503D01*
X130323847Y-78869910D01*
X130330809Y-78867655D01*
X130336677Y-78866482D01*
X130342484Y-78865110D01*
X130349754Y-78864262D01*
X130418060Y-78839468D01*
X130422163Y-78838060D01*
X130491222Y-78815688D01*
X130497479Y-78811891D01*
X130502926Y-78809398D01*
X130508254Y-78806730D01*
X130515134Y-78804232D01*
X130575849Y-78764426D01*
X130579559Y-78762085D01*
X130636838Y-78727327D01*
X130636840Y-78727325D01*
X130641633Y-78724417D01*
X130649974Y-78717051D01*
X130649996Y-78717076D01*
X130653041Y-78714376D01*
X130656146Y-78711780D01*
X130662268Y-78707766D01*
X130715217Y-78651872D01*
X130717594Y-78649431D01*
X130990133Y-78376892D01*
X131052445Y-78342866D01*
X131104349Y-78342517D01*
X131134002Y-78348550D01*
X131134008Y-78348551D01*
X131139072Y-78349581D01*
X131264393Y-78354176D01*
X131356491Y-78357554D01*
X131356495Y-78357554D01*
X131361655Y-78357743D01*
X131366775Y-78357087D01*
X131366777Y-78357087D01*
X131437642Y-78348009D01*
X131582582Y-78329441D01*
X131587531Y-78327956D01*
X131587537Y-78327955D01*
X131790969Y-78266922D01*
X131790968Y-78266922D01*
X131795919Y-78265437D01*
X131995939Y-78167448D01*
X132000144Y-78164448D01*
X132000150Y-78164445D01*
X132173065Y-78041106D01*
X132173067Y-78041104D01*
X132177269Y-78038107D01*
X132335039Y-77880887D01*
X132338053Y-77876693D01*
X132338062Y-77876682D01*
X132388152Y-77806974D01*
X132444146Y-77763326D01*
X132490474Y-77754500D01*
X132506027Y-77754500D01*
X132524977Y-77755933D01*
X132539047Y-77758074D01*
X132539051Y-77758074D01*
X132546281Y-77759174D01*
X132553572Y-77758581D01*
X132553575Y-77758581D01*
X132598640Y-77754915D01*
X132608855Y-77754500D01*
X132616845Y-77754500D01*
X132624094Y-77753655D01*
X132644905Y-77751229D01*
X132649279Y-77750796D01*
X132714341Y-77745504D01*
X132714344Y-77745503D01*
X132721639Y-77744910D01*
X132728601Y-77742655D01*
X132734469Y-77741482D01*
X132740276Y-77740110D01*
X132747546Y-77739262D01*
X132815852Y-77714468D01*
X132819955Y-77713060D01*
X132889014Y-77690688D01*
X132895271Y-77686891D01*
X132900718Y-77684398D01*
X132906046Y-77681730D01*
X132912926Y-77679232D01*
X132973641Y-77639426D01*
X132977351Y-77637085D01*
X133034630Y-77602327D01*
X133034632Y-77602325D01*
X133039425Y-77599417D01*
X133047766Y-77592051D01*
X133047788Y-77592076D01*
X133050833Y-77589376D01*
X133053938Y-77586780D01*
X133060060Y-77582766D01*
X133113008Y-77526873D01*
X133115385Y-77524432D01*
X143786300Y-66853516D01*
X143800713Y-66841129D01*
X143812172Y-66832696D01*
X143818071Y-66828355D01*
X143852089Y-66788313D01*
X143859019Y-66780797D01*
X143864662Y-66775154D01*
X143882194Y-66752994D01*
X143884970Y-66749608D01*
X143914048Y-66715382D01*
X143931982Y-66694272D01*
X143935311Y-66687752D01*
X143938631Y-66682774D01*
X143941764Y-66677700D01*
X143946307Y-66671959D01*
X143949407Y-66665327D01*
X143949409Y-66665323D01*
X143977049Y-66606183D01*
X143978981Y-66602230D01*
X144008664Y-66544100D01*
X144008665Y-66544098D01*
X144011993Y-66537580D01*
X144013732Y-66530471D01*
X144015826Y-66524841D01*
X144017703Y-66519199D01*
X144020801Y-66512571D01*
X144028696Y-66474616D01*
X144035588Y-66441478D01*
X144036559Y-66437189D01*
X144047314Y-66393234D01*
X144053811Y-66366684D01*
X144054500Y-66355578D01*
X144054534Y-66355580D01*
X144054777Y-66351521D01*
X144055137Y-66347487D01*
X144056628Y-66340319D01*
X144054546Y-66263377D01*
X144054500Y-66259969D01*
X144054500Y-62314716D01*
X144074502Y-62246595D01*
X144091404Y-62225621D01*
X144674022Y-61643002D01*
X144688436Y-61630615D01*
X144693263Y-61627063D01*
X144705790Y-61617844D01*
X144739808Y-61577802D01*
X144746738Y-61570286D01*
X144752381Y-61564643D01*
X144769933Y-61542459D01*
X144772710Y-61539073D01*
X144773485Y-61538161D01*
X144832839Y-61499203D01*
X144903832Y-61498520D01*
X144963925Y-61536326D01*
X144994039Y-61600620D01*
X144995500Y-61619752D01*
X144995500Y-67485286D01*
X144975498Y-67553407D01*
X144958595Y-67574381D01*
X138924136Y-73608840D01*
X138861824Y-73642866D01*
X138833502Y-73645736D01*
X138710361Y-73644232D01*
X138710359Y-73644232D01*
X138705191Y-73644169D01*
X138485022Y-73677859D01*
X138273311Y-73747057D01*
X138268723Y-73749445D01*
X138268719Y-73749447D01*
X138095345Y-73839700D01*
X138075745Y-73849903D01*
X138071612Y-73853006D01*
X138071609Y-73853008D01*
X137901765Y-73980531D01*
X137897630Y-73983636D01*
X137743748Y-74144664D01*
X137618233Y-74328663D01*
X137616060Y-74333345D01*
X137616058Y-74333348D01*
X137529650Y-74519500D01*
X137524455Y-74530691D01*
X137464932Y-74745322D01*
X137441264Y-74966793D01*
X137441561Y-74971946D01*
X137441561Y-74971949D01*
X137447007Y-75066394D01*
X137454085Y-75189156D01*
X137455222Y-75194202D01*
X137455223Y-75194208D01*
X137475052Y-75282195D01*
X137503052Y-75406439D01*
X137504994Y-75411221D01*
X137504995Y-75411225D01*
X137579415Y-75594500D01*
X137586849Y-75612807D01*
X137703226Y-75802717D01*
X137849058Y-75971070D01*
X138020428Y-76113344D01*
X138212734Y-76225718D01*
X138420811Y-76305175D01*
X138425879Y-76306206D01*
X138425882Y-76306207D01*
X138532778Y-76327955D01*
X138639072Y-76349581D01*
X138644247Y-76349771D01*
X138644249Y-76349771D01*
X138856491Y-76357554D01*
X138856495Y-76357554D01*
X138861655Y-76357743D01*
X138866775Y-76357087D01*
X138866777Y-76357087D01*
X138937642Y-76348009D01*
X139082582Y-76329441D01*
X139087531Y-76327956D01*
X139087537Y-76327955D01*
X139290969Y-76266922D01*
X139290968Y-76266922D01*
X139295919Y-76265437D01*
X139495939Y-76167448D01*
X139500144Y-76164448D01*
X139500150Y-76164445D01*
X139673065Y-76041106D01*
X139673067Y-76041104D01*
X139677269Y-76038107D01*
X139835039Y-75880887D01*
X139965012Y-75700010D01*
X139971109Y-75687675D01*
X140061404Y-75504976D01*
X140061405Y-75504974D01*
X140063698Y-75500334D01*
X140116817Y-75325498D01*
X140126945Y-75292164D01*
X140126945Y-75292163D01*
X140128447Y-75287220D01*
X140137212Y-75220641D01*
X140157082Y-75069716D01*
X140157082Y-75069710D01*
X140157519Y-75066394D01*
X140159142Y-75000000D01*
X140140892Y-74778017D01*
X140121351Y-74700220D01*
X140107727Y-74645979D01*
X140110532Y-74575038D01*
X140140836Y-74526189D01*
X146236300Y-68430724D01*
X146250713Y-68418337D01*
X146262172Y-68409904D01*
X146268071Y-68405563D01*
X146302089Y-68365521D01*
X146309019Y-68358005D01*
X146314662Y-68352362D01*
X146332214Y-68330178D01*
X146334981Y-68326804D01*
X146377243Y-68277058D01*
X146381982Y-68271480D01*
X146385311Y-68264961D01*
X146388628Y-68259987D01*
X146391763Y-68254911D01*
X146396307Y-68249168D01*
X146427053Y-68183382D01*
X146428985Y-68179430D01*
X146458665Y-68121305D01*
X146461993Y-68114788D01*
X146463732Y-68107680D01*
X146465814Y-68102082D01*
X146467701Y-68096409D01*
X146470800Y-68089779D01*
X146485585Y-68018697D01*
X146486556Y-68014406D01*
X146491190Y-67995471D01*
X146503811Y-67943892D01*
X146504500Y-67932786D01*
X146504534Y-67932788D01*
X146504777Y-67928729D01*
X146505137Y-67924695D01*
X146506628Y-67917527D01*
X146504546Y-67840585D01*
X146504500Y-67837177D01*
X146504500Y-61556215D01*
X146524502Y-61488094D01*
X146541405Y-61467120D01*
X147225620Y-60782905D01*
X147287932Y-60748879D01*
X147314715Y-60746000D01*
X149240505Y-60745999D01*
X149475066Y-60745999D01*
X149510818Y-60738888D01*
X149537126Y-60733656D01*
X149537128Y-60733655D01*
X149549301Y-60731234D01*
X149559621Y-60724339D01*
X149559622Y-60724338D01*
X149623168Y-60681877D01*
X149633484Y-60674984D01*
X149689734Y-60590801D01*
X149704500Y-60516567D01*
X149704499Y-57466434D01*
X149696598Y-57426709D01*
X149692156Y-57404374D01*
X149692155Y-57404372D01*
X149689734Y-57392199D01*
X149633484Y-57308016D01*
X149549301Y-57251766D01*
X149475067Y-57237000D01*
X148830500Y-57237000D01*
X148762379Y-57216998D01*
X148715886Y-57163342D01*
X148704500Y-57111000D01*
X148704500Y-55739047D01*
X148705933Y-55720097D01*
X148708074Y-55706027D01*
X148708074Y-55706021D01*
X148709174Y-55698792D01*
X148707872Y-55682778D01*
X148704915Y-55646433D01*
X148704500Y-55636218D01*
X148704500Y-55628228D01*
X148701226Y-55600146D01*
X148700795Y-55595790D01*
X148699686Y-55582158D01*
X148694910Y-55523433D01*
X148692653Y-55516467D01*
X148691481Y-55510599D01*
X148690110Y-55504798D01*
X148689262Y-55497527D01*
X148664477Y-55429246D01*
X148663051Y-55425091D01*
X148642945Y-55363025D01*
X148642944Y-55363022D01*
X148640688Y-55356059D01*
X148636889Y-55349799D01*
X148634390Y-55344340D01*
X148631729Y-55339025D01*
X148629232Y-55332147D01*
X148625224Y-55326033D01*
X148625220Y-55326026D01*
X148589408Y-55271405D01*
X148587061Y-55267685D01*
X148552324Y-55210441D01*
X148549416Y-55205648D01*
X148542050Y-55197307D01*
X148542075Y-55197285D01*
X148539385Y-55194251D01*
X148536781Y-55191136D01*
X148532766Y-55185013D01*
X148476854Y-55132047D01*
X148474413Y-55129670D01*
X148231894Y-54887151D01*
X148197868Y-54824839D01*
X148198471Y-54768641D01*
X148217134Y-54690905D01*
X148217135Y-54690897D01*
X148218291Y-54686083D01*
X148236871Y-54450000D01*
X148218291Y-54213917D01*
X148163008Y-53983646D01*
X148158248Y-53972155D01*
X148074278Y-53769433D01*
X148074276Y-53769429D01*
X148072383Y-53764859D01*
X147948649Y-53562943D01*
X147794851Y-53382868D01*
X147614776Y-53229070D01*
X147412860Y-53105336D01*
X147408290Y-53103443D01*
X147408286Y-53103441D01*
X147198646Y-53016605D01*
X147198644Y-53016604D01*
X147194073Y-53014711D01*
X147114220Y-52995540D01*
X146968615Y-52960583D01*
X146968609Y-52960582D01*
X146963802Y-52959428D01*
X146727719Y-52940848D01*
X146491636Y-52959428D01*
X146486829Y-52960582D01*
X146486823Y-52960583D01*
X146341218Y-52995540D01*
X146261365Y-53014711D01*
X146256794Y-53016604D01*
X146256792Y-53016605D01*
X146047152Y-53103441D01*
X146047148Y-53103443D01*
X146042578Y-53105336D01*
X145840662Y-53229070D01*
X145660587Y-53382868D01*
X145506789Y-53562943D01*
X145383055Y-53764859D01*
X145381162Y-53769429D01*
X145381160Y-53769433D01*
X145297190Y-53972155D01*
X145292430Y-53983646D01*
X145237147Y-54213917D01*
X145218567Y-54450000D01*
X145237147Y-54686083D01*
X145238301Y-54690890D01*
X145238302Y-54690896D01*
X145240464Y-54699900D01*
X145292430Y-54916354D01*
X145294323Y-54920925D01*
X145294324Y-54920927D01*
X145380789Y-55129670D01*
X145383055Y-55135141D01*
X145506789Y-55337057D01*
X145660587Y-55517132D01*
X145840662Y-55670930D01*
X146042578Y-55794664D01*
X146047148Y-55796557D01*
X146047152Y-55796559D01*
X146256792Y-55883395D01*
X146256794Y-55883396D01*
X146261365Y-55885289D01*
X146309487Y-55896842D01*
X146486823Y-55939417D01*
X146486829Y-55939418D01*
X146491636Y-55940572D01*
X146727719Y-55959152D01*
X146963802Y-55940572D01*
X146968609Y-55939418D01*
X146968615Y-55939417D01*
X147040086Y-55922258D01*
X147110994Y-55925805D01*
X147168728Y-55967125D01*
X147194958Y-56033099D01*
X147195500Y-56044777D01*
X147195500Y-57111001D01*
X147175498Y-57179122D01*
X147121842Y-57225615D01*
X147069500Y-57237001D01*
X146424934Y-57237001D01*
X146389182Y-57244112D01*
X146362874Y-57249344D01*
X146362872Y-57249345D01*
X146350699Y-57251766D01*
X146340379Y-57258661D01*
X146340378Y-57258662D01*
X146311536Y-57277934D01*
X146266516Y-57308016D01*
X146210266Y-57392199D01*
X146195500Y-57466433D01*
X146195501Y-58558908D01*
X146195501Y-59626785D01*
X146175499Y-59694906D01*
X146158596Y-59715880D01*
X145263700Y-60610776D01*
X145249287Y-60623163D01*
X145231929Y-60635937D01*
X145222100Y-60647507D01*
X145197911Y-60675979D01*
X145190981Y-60683495D01*
X145185338Y-60689138D01*
X145167806Y-60711298D01*
X145165022Y-60714693D01*
X145164236Y-60715618D01*
X145104884Y-60754577D01*
X145033890Y-60755262D01*
X144973796Y-60717458D01*
X144943681Y-60653165D01*
X144942219Y-60634029D01*
X144942219Y-48222725D01*
X144962221Y-48154604D01*
X145002384Y-48115292D01*
X145070559Y-48073514D01*
X145074776Y-48070930D01*
X145254851Y-47917132D01*
X145408649Y-47737057D01*
X145532383Y-47535141D01*
X145623008Y-47316354D01*
X145648754Y-47209114D01*
X145677136Y-47090896D01*
X145677137Y-47090890D01*
X145678291Y-47086083D01*
X145696871Y-46850000D01*
X145678291Y-46613917D01*
X145675479Y-46602202D01*
X145624163Y-46388458D01*
X145623008Y-46383646D01*
X145532383Y-46164859D01*
X145408649Y-45962943D01*
X145254851Y-45782868D01*
X145074776Y-45629070D01*
X144872860Y-45505336D01*
X144868284Y-45503441D01*
X144868279Y-45503438D01*
X144852515Y-45496908D01*
X144797234Y-45452360D01*
X144774814Y-45384996D01*
X144792373Y-45316205D01*
X144844335Y-45267827D01*
X144900734Y-45254500D01*
X149461463Y-45254500D01*
X149529584Y-45274502D01*
G37*
G04 #@! TD.AperFunction*
G04 #@! TA.AperFunction,Conductor*
G36*
X143542825Y-45274502D02*
G01*
X143589318Y-45328158D01*
X143599422Y-45398432D01*
X143569928Y-45463012D01*
X143522923Y-45496908D01*
X143507159Y-45503438D01*
X143507154Y-45503441D01*
X143502578Y-45505336D01*
X143300662Y-45629070D01*
X143120587Y-45782868D01*
X142966789Y-45962943D01*
X142843055Y-46164859D01*
X142752430Y-46383646D01*
X142751275Y-46388458D01*
X142699960Y-46602202D01*
X142697147Y-46613917D01*
X142678567Y-46850000D01*
X142697147Y-47086083D01*
X142698301Y-47090890D01*
X142698302Y-47090896D01*
X142726684Y-47209114D01*
X142752430Y-47316354D01*
X142843055Y-47535141D01*
X142966789Y-47737057D01*
X143120587Y-47917132D01*
X143300662Y-48070930D01*
X143304879Y-48073514D01*
X143373054Y-48115292D01*
X143420685Y-48167940D01*
X143433219Y-48222725D01*
X143433219Y-60697567D01*
X143413217Y-60765688D01*
X143396314Y-60786662D01*
X142813700Y-61369276D01*
X142799287Y-61381663D01*
X142781929Y-61394437D01*
X142777186Y-61400020D01*
X142747911Y-61434479D01*
X142740981Y-61441995D01*
X142735338Y-61447638D01*
X142717806Y-61469798D01*
X142715039Y-61473173D01*
X142668018Y-61528520D01*
X142664689Y-61535040D01*
X142661369Y-61540018D01*
X142658236Y-61545091D01*
X142653693Y-61550833D01*
X142648574Y-61561785D01*
X142622947Y-61616617D01*
X142621016Y-61620567D01*
X142615885Y-61630615D01*
X142588007Y-61685212D01*
X142586267Y-61692322D01*
X142584177Y-61697942D01*
X142582297Y-61703593D01*
X142579199Y-61710222D01*
X142577709Y-61717386D01*
X142577708Y-61717389D01*
X142564415Y-61781303D01*
X142563449Y-61785573D01*
X142546189Y-61856108D01*
X142545500Y-61867214D01*
X142545466Y-61867212D01*
X142545223Y-61871271D01*
X142544863Y-61875305D01*
X142543372Y-61882473D01*
X142543570Y-61889790D01*
X142545454Y-61959415D01*
X142545500Y-61962823D01*
X142545500Y-65908077D01*
X142525498Y-65976198D01*
X142508595Y-65997172D01*
X138923453Y-69582314D01*
X138861141Y-69616340D01*
X138790326Y-69611275D01*
X138733490Y-69568728D01*
X138708679Y-69502208D01*
X138708401Y-69489922D01*
X138709349Y-69453705D01*
X138709446Y-69450000D01*
X138690031Y-69238708D01*
X138688330Y-69232674D01*
X138634004Y-69040051D01*
X138634003Y-69040049D01*
X138632436Y-69034492D01*
X138622635Y-69014616D01*
X138541145Y-68849372D01*
X138538590Y-68844191D01*
X138411636Y-68674179D01*
X138387524Y-68651890D01*
X138260066Y-68534069D01*
X138260063Y-68534067D01*
X138255826Y-68530150D01*
X138076377Y-68416926D01*
X137879300Y-68338300D01*
X137873643Y-68337175D01*
X137873637Y-68337173D01*
X137676863Y-68298033D01*
X137676859Y-68298033D01*
X137671195Y-68296906D01*
X137665420Y-68296830D01*
X137665416Y-68296830D01*
X137558804Y-68295434D01*
X137459031Y-68294128D01*
X137453334Y-68295107D01*
X137453333Y-68295107D01*
X137259079Y-68328486D01*
X137249913Y-68330061D01*
X137050846Y-68403501D01*
X137045885Y-68406453D01*
X137045884Y-68406453D01*
X136873463Y-68509032D01*
X136873460Y-68509034D01*
X136868495Y-68511988D01*
X136864155Y-68515794D01*
X136864151Y-68515797D01*
X136723526Y-68639123D01*
X136708968Y-68651890D01*
X136577607Y-68818520D01*
X136478812Y-69006299D01*
X136451978Y-69092718D01*
X136418029Y-69202054D01*
X136415891Y-69208938D01*
X136390951Y-69419649D01*
X136404829Y-69631377D01*
X136457058Y-69837031D01*
X136545890Y-70029723D01*
X136668350Y-70203000D01*
X136702693Y-70236455D01*
X136767039Y-70299138D01*
X136820337Y-70351059D01*
X136825133Y-70354264D01*
X136825136Y-70354266D01*
X136896210Y-70401756D01*
X136996760Y-70468941D01*
X137002063Y-70471219D01*
X137002066Y-70471221D01*
X137070969Y-70500824D01*
X137191711Y-70552699D01*
X137217861Y-70558616D01*
X137393025Y-70598252D01*
X137393030Y-70598253D01*
X137398662Y-70599527D01*
X137404433Y-70599754D01*
X137404435Y-70599754D01*
X137599215Y-70607407D01*
X137666498Y-70630068D01*
X137710848Y-70685508D01*
X137718185Y-70756124D01*
X137683363Y-70822405D01*
X135031969Y-73473798D01*
X132450319Y-76055448D01*
X132388007Y-76089474D01*
X132317192Y-76084409D01*
X132268032Y-76051153D01*
X132226933Y-76005986D01*
X132222882Y-76002787D01*
X132222878Y-76002783D01*
X132056196Y-75871147D01*
X132052138Y-75867942D01*
X131933984Y-75802717D01*
X131861675Y-75762800D01*
X131861672Y-75762799D01*
X131857144Y-75760299D01*
X131698752Y-75704210D01*
X131652059Y-75687675D01*
X131652056Y-75687674D01*
X131647187Y-75685950D01*
X131642098Y-75685043D01*
X131642096Y-75685043D01*
X131432996Y-75647796D01*
X131432990Y-75647795D01*
X131427907Y-75646890D01*
X131354094Y-75645988D01*
X131210361Y-75644232D01*
X131210359Y-75644232D01*
X131205191Y-75644169D01*
X130985022Y-75677859D01*
X130773311Y-75747057D01*
X130768723Y-75749445D01*
X130768719Y-75749447D01*
X130658891Y-75806620D01*
X130575745Y-75849903D01*
X130571612Y-75853006D01*
X130571609Y-75853008D01*
X130414366Y-75971070D01*
X130397630Y-75983636D01*
X130349059Y-76034463D01*
X130250713Y-76137376D01*
X130243748Y-76144664D01*
X130118233Y-76328663D01*
X130116060Y-76333345D01*
X130116058Y-76333348D01*
X130040234Y-76496699D01*
X130024455Y-76530691D01*
X129964932Y-76745322D01*
X129941264Y-76966793D01*
X129954085Y-77189156D01*
X129955221Y-77194197D01*
X129955327Y-77194669D01*
X129955314Y-77194865D01*
X129955941Y-77199324D01*
X129955021Y-77199453D01*
X129950794Y-77265521D01*
X129921506Y-77311470D01*
X129899381Y-77333595D01*
X129837069Y-77367621D01*
X129810286Y-77370500D01*
X98839714Y-77370500D01*
X98771593Y-77350498D01*
X98750619Y-77333595D01*
X97391405Y-75974381D01*
X97357379Y-75912069D01*
X97354500Y-75885286D01*
X97354500Y-74977244D01*
X97347798Y-74915552D01*
X97336734Y-74886037D01*
X97300221Y-74788640D01*
X97297071Y-74780236D01*
X97291691Y-74773057D01*
X97291689Y-74773054D01*
X97215785Y-74671776D01*
X97210404Y-74664596D01*
X97160565Y-74627244D01*
X97101946Y-74583311D01*
X97101943Y-74583309D01*
X97094764Y-74577929D01*
X97005046Y-74544296D01*
X96966843Y-74529974D01*
X96966841Y-74529974D01*
X96959448Y-74527202D01*
X96951598Y-74526349D01*
X96951597Y-74526349D01*
X96901153Y-74520869D01*
X96901152Y-74520869D01*
X96897756Y-74520500D01*
X96002244Y-74520500D01*
X95998848Y-74520869D01*
X95998847Y-74520869D01*
X95948403Y-74526349D01*
X95948402Y-74526349D01*
X95940552Y-74527202D01*
X95933159Y-74529974D01*
X95933157Y-74529974D01*
X95894954Y-74544296D01*
X95805236Y-74577929D01*
X95798057Y-74583309D01*
X95798054Y-74583311D01*
X95739435Y-74627244D01*
X95689596Y-74664596D01*
X95684215Y-74671776D01*
X95608311Y-74773054D01*
X95608309Y-74773057D01*
X95602929Y-74780236D01*
X95599779Y-74788640D01*
X95563267Y-74886037D01*
X95552202Y-74915552D01*
X95545500Y-74977244D01*
X95545500Y-75219500D01*
X95525498Y-75287621D01*
X95471842Y-75334114D01*
X95419500Y-75345500D01*
X94930499Y-75345500D01*
X94862378Y-75325498D01*
X94815885Y-75271842D01*
X94804499Y-75219500D01*
X94804499Y-74627244D01*
X94803748Y-74620326D01*
X94798652Y-74573409D01*
X94798651Y-74573405D01*
X94797798Y-74565551D01*
X94747071Y-74430235D01*
X94741691Y-74423056D01*
X94741689Y-74423053D01*
X94665786Y-74321777D01*
X94660404Y-74314596D01*
X94653223Y-74309214D01*
X94551947Y-74233311D01*
X94551944Y-74233309D01*
X94544765Y-74227929D01*
X94419159Y-74180842D01*
X94416844Y-74179974D01*
X94416842Y-74179974D01*
X94409449Y-74177202D01*
X94401599Y-74176349D01*
X94401598Y-74176349D01*
X94351154Y-74170869D01*
X94351153Y-74170869D01*
X94347757Y-74170500D01*
X93850073Y-74170500D01*
X93352244Y-74170501D01*
X93348850Y-74170870D01*
X93348844Y-74170870D01*
X93298409Y-74176348D01*
X93298405Y-74176349D01*
X93290551Y-74177202D01*
X93155235Y-74227929D01*
X93148056Y-74233309D01*
X93148053Y-74233311D01*
X93105115Y-74265492D01*
X93038609Y-74290340D01*
X92969226Y-74275287D01*
X92940455Y-74253761D01*
X92375789Y-73689095D01*
X92341763Y-73626783D01*
X92346828Y-73555968D01*
X92375789Y-73510905D01*
X93405216Y-72481478D01*
X93423964Y-72466336D01*
X93425189Y-72465221D01*
X93433940Y-72459571D01*
X93440387Y-72451393D01*
X93440389Y-72451391D01*
X93454729Y-72433200D01*
X93458678Y-72428756D01*
X93458604Y-72428694D01*
X93461957Y-72424737D01*
X93465638Y-72421056D01*
X93476865Y-72405346D01*
X93480421Y-72400609D01*
X93505708Y-72368532D01*
X93512156Y-72360353D01*
X93515189Y-72351716D01*
X93520513Y-72344266D01*
X93535202Y-72295151D01*
X93537034Y-72289514D01*
X93551390Y-72248633D01*
X93551390Y-72248632D01*
X93554018Y-72241149D01*
X93554500Y-72235584D01*
X93554500Y-72232876D01*
X93554614Y-72230242D01*
X93554643Y-72230144D01*
X93554807Y-72230151D01*
X93554851Y-72229447D01*
X93556713Y-72223222D01*
X93554597Y-72169365D01*
X93554500Y-72164418D01*
X93554500Y-71880673D01*
X93574502Y-71812552D01*
X93628158Y-71766059D01*
X93698432Y-71755955D01*
X93763012Y-71785449D01*
X93768411Y-71790409D01*
X93841938Y-71862035D01*
X94010720Y-71974812D01*
X94016023Y-71977090D01*
X94016026Y-71977092D01*
X94143040Y-72031661D01*
X94197228Y-72054942D01*
X94270244Y-72071464D01*
X94389579Y-72098467D01*
X94389584Y-72098468D01*
X94395216Y-72099742D01*
X94400987Y-72099969D01*
X94400989Y-72099969D01*
X94460756Y-72102317D01*
X94598053Y-72107712D01*
X94705913Y-72092073D01*
X94793231Y-72079413D01*
X94793236Y-72079412D01*
X94798945Y-72078584D01*
X94804409Y-72076729D01*
X94804414Y-72076728D01*
X94985693Y-72015192D01*
X94985698Y-72015190D01*
X94991165Y-72013334D01*
X95168276Y-71914147D01*
X95230934Y-71862035D01*
X95319913Y-71788031D01*
X95324345Y-71784345D01*
X95454147Y-71628276D01*
X95542964Y-71469682D01*
X95550510Y-71456208D01*
X95550511Y-71456206D01*
X95553334Y-71451165D01*
X95555190Y-71445698D01*
X95555192Y-71445693D01*
X95616728Y-71264414D01*
X95616729Y-71264409D01*
X95618584Y-71258945D01*
X95619412Y-71253236D01*
X95619413Y-71253231D01*
X95636991Y-71131996D01*
X95647712Y-71058053D01*
X95649232Y-71000000D01*
X95635614Y-70851798D01*
X95631187Y-70803613D01*
X95631186Y-70803610D01*
X95630658Y-70797859D01*
X95629090Y-70792299D01*
X95577125Y-70608046D01*
X95577124Y-70608044D01*
X95575557Y-70602487D01*
X95563191Y-70577410D01*
X95551619Y-70553944D01*
X109266183Y-70553944D01*
X109266407Y-70558611D01*
X109266407Y-70558616D01*
X109268923Y-70610991D01*
X109278694Y-70814419D01*
X109329569Y-71070185D01*
X109417690Y-71315621D01*
X109419906Y-71319745D01*
X109536235Y-71536244D01*
X109541120Y-71545336D01*
X109543915Y-71549079D01*
X109543917Y-71549082D01*
X109694357Y-71750545D01*
X109694362Y-71750551D01*
X109697149Y-71754283D01*
X109700458Y-71757563D01*
X109700463Y-71757569D01*
X109858414Y-71914147D01*
X109882348Y-71937873D01*
X109886110Y-71940631D01*
X109886113Y-71940634D01*
X110042009Y-72054942D01*
X110092649Y-72092073D01*
X110096780Y-72094247D01*
X110096781Y-72094247D01*
X110319298Y-72211319D01*
X110319304Y-72211321D01*
X110323433Y-72213494D01*
X110569629Y-72299469D01*
X110574222Y-72300341D01*
X110821239Y-72347239D01*
X110821242Y-72347239D01*
X110825828Y-72348110D01*
X110949725Y-72352978D01*
X111081735Y-72358165D01*
X111081740Y-72358165D01*
X111086403Y-72358348D01*
X111166500Y-72349576D01*
X111340976Y-72330468D01*
X111340981Y-72330467D01*
X111345629Y-72329958D01*
X111488619Y-72292312D01*
X111593291Y-72264754D01*
X111597811Y-72263564D01*
X111796603Y-72178157D01*
X111833107Y-72162474D01*
X111833110Y-72162472D01*
X111837410Y-72160625D01*
X111841390Y-72158162D01*
X111841394Y-72158160D01*
X112055188Y-72025860D01*
X112055192Y-72025857D01*
X112059161Y-72023401D01*
X112258194Y-71854907D01*
X112430135Y-71658845D01*
X112446941Y-71632718D01*
X112560476Y-71456208D01*
X112571208Y-71439523D01*
X112678314Y-71201757D01*
X112749099Y-70950772D01*
X112765862Y-70819007D01*
X112781611Y-70695212D01*
X112781611Y-70695206D01*
X112782009Y-70692081D01*
X112784420Y-70600000D01*
X112780905Y-70552699D01*
X112765440Y-70344593D01*
X112765439Y-70344589D01*
X112765094Y-70339941D01*
X112707542Y-70085595D01*
X112613027Y-69842550D01*
X112483625Y-69616145D01*
X112322180Y-69411353D01*
X112132239Y-69232674D01*
X111943564Y-69101785D01*
X111921815Y-69086697D01*
X111921812Y-69086695D01*
X111917973Y-69084032D01*
X111913783Y-69081966D01*
X111913780Y-69081964D01*
X111688278Y-68970759D01*
X111688275Y-68970758D01*
X111684090Y-68968694D01*
X111435728Y-68889193D01*
X111431121Y-68888443D01*
X111431118Y-68888442D01*
X111182955Y-68848026D01*
X111182956Y-68848026D01*
X111178344Y-68847275D01*
X111051875Y-68845620D01*
X110922267Y-68843923D01*
X110922264Y-68843923D01*
X110917590Y-68843862D01*
X110659196Y-68879028D01*
X110654710Y-68880336D01*
X110654708Y-68880336D01*
X110624321Y-68889193D01*
X110408838Y-68952000D01*
X110404586Y-68953960D01*
X110404584Y-68953961D01*
X110375713Y-68967271D01*
X110172016Y-69061177D01*
X110168111Y-69063737D01*
X110168106Y-69063740D01*
X109957846Y-69201592D01*
X109957841Y-69201596D01*
X109953933Y-69204158D01*
X109856656Y-69290981D01*
X109776432Y-69362584D01*
X109759379Y-69377804D01*
X109592629Y-69578300D01*
X109457345Y-69801240D01*
X109455538Y-69805548D01*
X109455538Y-69805549D01*
X109359557Y-70034439D01*
X109356500Y-70041728D01*
X109355349Y-70046260D01*
X109355348Y-70046263D01*
X109336910Y-70118865D01*
X109292310Y-70294480D01*
X109266183Y-70553944D01*
X95551619Y-70553944D01*
X95488331Y-70425609D01*
X95485776Y-70420428D01*
X95364320Y-70257779D01*
X95215258Y-70119987D01*
X95210375Y-70116906D01*
X95210371Y-70116903D01*
X95048464Y-70014748D01*
X95043581Y-70011667D01*
X94855039Y-69936446D01*
X94849379Y-69935320D01*
X94849375Y-69935319D01*
X94661613Y-69897971D01*
X94661610Y-69897971D01*
X94655946Y-69896844D01*
X94650171Y-69896768D01*
X94650167Y-69896768D01*
X94548793Y-69895441D01*
X94452971Y-69894187D01*
X94447274Y-69895166D01*
X94447273Y-69895166D01*
X94373492Y-69907844D01*
X94252910Y-69928564D01*
X94062463Y-69998824D01*
X93888010Y-70102612D01*
X93862558Y-70124933D01*
X93763578Y-70211736D01*
X93699173Y-70241613D01*
X93628841Y-70231927D01*
X93574909Y-70185754D01*
X93554500Y-70117004D01*
X93554500Y-69688920D01*
X93557049Y-69664972D01*
X93557128Y-69663307D01*
X93559320Y-69653124D01*
X93555373Y-69619777D01*
X93555023Y-69613846D01*
X93554928Y-69613854D01*
X93554500Y-69608676D01*
X93554500Y-69603476D01*
X93553646Y-69598344D01*
X93551331Y-69584435D01*
X93550494Y-69578557D01*
X93545694Y-69537999D01*
X93545694Y-69537998D01*
X93544470Y-69527659D01*
X93540507Y-69519407D01*
X93539004Y-69510374D01*
X93517495Y-69470510D01*
X93514666Y-69465268D01*
X93511969Y-69459975D01*
X93493215Y-69420918D01*
X93493212Y-69420914D01*
X93489781Y-69413768D01*
X93486186Y-69409492D01*
X93484263Y-69407569D01*
X93482491Y-69405637D01*
X93482448Y-69405558D01*
X93482572Y-69405445D01*
X93482096Y-69404905D01*
X93479010Y-69399186D01*
X93439413Y-69362583D01*
X93435848Y-69359154D01*
X93062281Y-68985587D01*
X93028255Y-68923275D01*
X93032063Y-68855991D01*
X93040795Y-68830269D01*
X93078584Y-68718945D01*
X93079412Y-68713236D01*
X93079413Y-68713231D01*
X93103802Y-68545020D01*
X93107712Y-68518053D01*
X93109232Y-68460000D01*
X93096993Y-68326804D01*
X93091187Y-68263613D01*
X93091186Y-68263610D01*
X93090658Y-68257859D01*
X93086337Y-68242537D01*
X93037125Y-68068046D01*
X93037124Y-68068044D01*
X93035557Y-68062487D01*
X93024978Y-68041033D01*
X92948331Y-67885609D01*
X92945776Y-67880428D01*
X92824320Y-67717779D01*
X92797538Y-67693022D01*
X92761095Y-67632097D01*
X92763376Y-67561137D01*
X92803658Y-67502674D01*
X92869153Y-67475271D01*
X92883069Y-67474500D01*
X93653709Y-67474500D01*
X93721830Y-67494502D01*
X93768323Y-67548158D01*
X93778427Y-67618432D01*
X93748933Y-67683012D01*
X93743614Y-67688362D01*
X93743712Y-67688455D01*
X93739733Y-67692648D01*
X93735392Y-67696455D01*
X93609720Y-67855869D01*
X93607031Y-67860980D01*
X93607029Y-67860983D01*
X93561694Y-67947151D01*
X93515203Y-68035515D01*
X93455007Y-68229378D01*
X93431148Y-68430964D01*
X93444424Y-68633522D01*
X93445845Y-68639118D01*
X93445846Y-68639123D01*
X93467508Y-68724414D01*
X93494392Y-68830269D01*
X93496809Y-68835512D01*
X93533105Y-68914244D01*
X93579377Y-69014616D01*
X93582710Y-69019332D01*
X93640982Y-69101785D01*
X93696533Y-69180389D01*
X93700675Y-69184424D01*
X93750691Y-69233147D01*
X93841938Y-69322035D01*
X94010720Y-69434812D01*
X94016023Y-69437090D01*
X94016026Y-69437092D01*
X94167589Y-69502208D01*
X94197228Y-69514942D01*
X94256196Y-69528285D01*
X94389579Y-69558467D01*
X94389584Y-69558468D01*
X94395216Y-69559742D01*
X94400987Y-69559969D01*
X94400989Y-69559969D01*
X94460756Y-69562317D01*
X94598053Y-69567712D01*
X94698499Y-69553148D01*
X94793231Y-69539413D01*
X94793236Y-69539412D01*
X94798945Y-69538584D01*
X94804409Y-69536729D01*
X94804414Y-69536728D01*
X94985693Y-69475192D01*
X94985698Y-69475190D01*
X94991165Y-69473334D01*
X95168276Y-69374147D01*
X95184179Y-69360921D01*
X95319913Y-69248031D01*
X95324345Y-69244345D01*
X95377537Y-69180389D01*
X95450453Y-69092718D01*
X95450455Y-69092715D01*
X95454147Y-69088276D01*
X95530465Y-68952000D01*
X95550510Y-68916208D01*
X95550511Y-68916206D01*
X95553334Y-68911165D01*
X95555190Y-68905698D01*
X95555192Y-68905693D01*
X95616728Y-68724414D01*
X95616729Y-68724409D01*
X95618584Y-68718945D01*
X95619412Y-68713236D01*
X95619413Y-68713231D01*
X95643802Y-68545020D01*
X95647712Y-68518053D01*
X95649232Y-68460000D01*
X95636993Y-68326804D01*
X95631187Y-68263613D01*
X95631186Y-68263610D01*
X95630658Y-68257859D01*
X95626337Y-68242537D01*
X95577125Y-68068046D01*
X95577124Y-68068044D01*
X95575557Y-68062487D01*
X95564978Y-68041033D01*
X95488331Y-67885609D01*
X95485776Y-67880428D01*
X95364320Y-67717779D01*
X95337538Y-67693022D01*
X95301095Y-67632097D01*
X95303376Y-67561137D01*
X95343658Y-67502674D01*
X95409153Y-67475271D01*
X95423069Y-67474500D01*
X99690698Y-67474500D01*
X99758819Y-67494502D01*
X99805312Y-67548158D01*
X99816256Y-67589956D01*
X99829625Y-67749151D01*
X99831639Y-67773139D01*
X99833338Y-67779064D01*
X99878995Y-67938287D01*
X99883235Y-67953075D01*
X99886050Y-67958552D01*
X99886051Y-67958555D01*
X99961231Y-68104841D01*
X99968797Y-68119562D01*
X99972620Y-68124386D01*
X99972623Y-68124390D01*
X100052206Y-68224798D01*
X100085068Y-68266259D01*
X100089762Y-68270254D01*
X100169716Y-68338300D01*
X100227618Y-68387579D01*
X100232996Y-68390585D01*
X100232998Y-68390586D01*
X100261389Y-68406453D01*
X100391018Y-68478900D01*
X100569043Y-68536744D01*
X100754914Y-68558908D01*
X100761049Y-68558436D01*
X100761051Y-68558436D01*
X100935408Y-68545020D01*
X100935413Y-68545019D01*
X100941549Y-68544547D01*
X100947479Y-68542891D01*
X100947481Y-68542891D01*
X101060364Y-68511373D01*
X101121841Y-68494209D01*
X101152148Y-68478900D01*
X101235629Y-68436730D01*
X101288921Y-68409810D01*
X101305538Y-68396828D01*
X101431571Y-68298360D01*
X101431572Y-68298360D01*
X101436427Y-68294566D01*
X101534114Y-68181394D01*
X101554709Y-68157535D01*
X101554710Y-68157533D01*
X101558738Y-68152867D01*
X101651198Y-67990108D01*
X101710283Y-67812491D01*
X101733744Y-67626780D01*
X101734118Y-67600000D01*
X101732805Y-67586609D01*
X118115975Y-67586609D01*
X118116491Y-67592752D01*
X118129625Y-67749151D01*
X118131639Y-67773139D01*
X118133338Y-67779064D01*
X118178995Y-67938287D01*
X118183235Y-67953075D01*
X118186050Y-67958552D01*
X118186051Y-67958555D01*
X118261231Y-68104841D01*
X118268797Y-68119562D01*
X118272620Y-68124386D01*
X118272623Y-68124390D01*
X118352206Y-68224798D01*
X118385068Y-68266259D01*
X118389762Y-68270254D01*
X118469716Y-68338300D01*
X118527618Y-68387579D01*
X118532996Y-68390585D01*
X118532998Y-68390586D01*
X118561389Y-68406453D01*
X118691018Y-68478900D01*
X118869043Y-68536744D01*
X119054914Y-68558908D01*
X119061049Y-68558436D01*
X119061051Y-68558436D01*
X119235408Y-68545020D01*
X119235413Y-68545019D01*
X119241549Y-68544547D01*
X119247479Y-68542891D01*
X119247481Y-68542891D01*
X119360364Y-68511373D01*
X119421841Y-68494209D01*
X119452148Y-68478900D01*
X119535629Y-68436730D01*
X119588921Y-68409810D01*
X119605538Y-68396828D01*
X119731571Y-68298360D01*
X119731572Y-68298360D01*
X119736427Y-68294566D01*
X119834114Y-68181394D01*
X119854709Y-68157535D01*
X119854710Y-68157533D01*
X119858738Y-68152867D01*
X119951198Y-67990108D01*
X120010283Y-67812491D01*
X120033744Y-67626780D01*
X120034118Y-67600000D01*
X120015852Y-67413706D01*
X119961749Y-67234509D01*
X119953059Y-67218165D01*
X119876764Y-67074674D01*
X119876762Y-67074671D01*
X119873870Y-67069232D01*
X119869980Y-67064462D01*
X119869977Y-67064458D01*
X119759457Y-66928948D01*
X119759454Y-66928945D01*
X119755562Y-66924173D01*
X119737912Y-66909571D01*
X119662004Y-66846775D01*
X119611332Y-66804855D01*
X119446673Y-66715824D01*
X119338722Y-66682408D01*
X119273744Y-66662294D01*
X119273741Y-66662293D01*
X119267857Y-66660472D01*
X119261732Y-66659828D01*
X119261731Y-66659828D01*
X119087824Y-66641549D01*
X119087823Y-66641549D01*
X119081696Y-66640905D01*
X119005143Y-66647872D01*
X118901418Y-66657312D01*
X118901415Y-66657313D01*
X118895279Y-66657871D01*
X118889373Y-66659609D01*
X118889369Y-66659610D01*
X118767432Y-66695498D01*
X118715708Y-66710721D01*
X118549822Y-66797444D01*
X118545022Y-66801304D01*
X118545021Y-66801304D01*
X118535718Y-66808784D01*
X118403940Y-66914736D01*
X118283619Y-67058130D01*
X118280655Y-67063522D01*
X118280652Y-67063526D01*
X118274325Y-67075035D01*
X118193441Y-67222163D01*
X118191580Y-67228030D01*
X118191579Y-67228032D01*
X118157742Y-67334700D01*
X118136841Y-67400588D01*
X118115975Y-67586609D01*
X101732805Y-67586609D01*
X101715852Y-67413706D01*
X101661749Y-67234509D01*
X101653059Y-67218165D01*
X101576764Y-67074674D01*
X101576762Y-67074671D01*
X101573870Y-67069232D01*
X101569980Y-67064462D01*
X101569977Y-67064458D01*
X101459457Y-66928948D01*
X101459454Y-66928945D01*
X101455562Y-66924173D01*
X101437912Y-66909571D01*
X101362004Y-66846775D01*
X101311332Y-66804855D01*
X101146673Y-66715824D01*
X101038722Y-66682408D01*
X100973744Y-66662294D01*
X100973741Y-66662293D01*
X100967857Y-66660472D01*
X100961732Y-66659828D01*
X100961731Y-66659828D01*
X100787824Y-66641549D01*
X100787823Y-66641549D01*
X100781696Y-66640905D01*
X100705143Y-66647872D01*
X100601418Y-66657312D01*
X100601415Y-66657313D01*
X100595279Y-66657871D01*
X100589373Y-66659609D01*
X100589369Y-66659610D01*
X100421618Y-66708981D01*
X100421612Y-66708983D01*
X100415708Y-66710721D01*
X100413600Y-66711823D01*
X100341903Y-66718003D01*
X100336149Y-66715982D01*
X100330584Y-66715500D01*
X100327874Y-66715500D01*
X100325242Y-66715386D01*
X100325144Y-66715357D01*
X100325151Y-66715193D01*
X100324447Y-66715149D01*
X100318222Y-66713287D01*
X100264365Y-66715403D01*
X100259418Y-66715500D01*
X95575473Y-66715500D01*
X95507352Y-66695498D01*
X95460859Y-66641842D01*
X95450755Y-66571568D01*
X95465539Y-66527934D01*
X95467382Y-66524644D01*
X95527316Y-66417624D01*
X95550510Y-66376208D01*
X95550511Y-66376206D01*
X95553334Y-66371165D01*
X95555190Y-66365698D01*
X95555192Y-66365693D01*
X95616728Y-66184414D01*
X95616729Y-66184409D01*
X95618584Y-66178945D01*
X95619412Y-66173236D01*
X95619413Y-66173231D01*
X95644940Y-65997172D01*
X95647712Y-65978053D01*
X95649232Y-65920000D01*
X95635105Y-65766259D01*
X95631187Y-65723613D01*
X95631186Y-65723610D01*
X95630658Y-65717859D01*
X95626170Y-65701946D01*
X95577125Y-65528046D01*
X95577124Y-65528044D01*
X95575557Y-65522487D01*
X95565037Y-65501153D01*
X95488331Y-65345609D01*
X95485776Y-65340428D01*
X95468748Y-65317624D01*
X95380869Y-65199941D01*
X95364320Y-65177779D01*
X95265693Y-65086609D01*
X99815975Y-65086609D01*
X99831639Y-65273139D01*
X99833338Y-65279064D01*
X99875786Y-65427096D01*
X99883235Y-65453075D01*
X99886050Y-65458552D01*
X99886051Y-65458555D01*
X99941703Y-65566843D01*
X99968797Y-65619562D01*
X99972620Y-65624386D01*
X99972623Y-65624390D01*
X100051267Y-65723613D01*
X100085068Y-65766259D01*
X100089762Y-65770254D01*
X100198555Y-65862844D01*
X100227618Y-65887579D01*
X100232996Y-65890585D01*
X100232998Y-65890586D01*
X100279017Y-65916305D01*
X100391018Y-65978900D01*
X100569043Y-66036744D01*
X100754914Y-66058908D01*
X100761049Y-66058436D01*
X100761051Y-66058436D01*
X100935408Y-66045020D01*
X100935413Y-66045019D01*
X100941549Y-66044547D01*
X100947479Y-66042891D01*
X100947481Y-66042891D01*
X101060364Y-66011373D01*
X101121841Y-65994209D01*
X101152148Y-65978900D01*
X101240944Y-65934045D01*
X101288921Y-65909810D01*
X101301195Y-65900221D01*
X101431571Y-65798360D01*
X101431572Y-65798360D01*
X101436427Y-65794566D01*
X101558738Y-65652867D01*
X101600562Y-65579244D01*
X101621002Y-65543263D01*
X101672041Y-65493912D01*
X101730558Y-65479500D01*
X102834903Y-65479500D01*
X102903024Y-65499502D01*
X102949517Y-65553158D01*
X102952885Y-65561271D01*
X103002929Y-65694764D01*
X103008309Y-65701943D01*
X103008311Y-65701946D01*
X103056511Y-65766259D01*
X103089596Y-65810404D01*
X103102910Y-65820382D01*
X103198054Y-65891689D01*
X103198057Y-65891691D01*
X103205236Y-65897071D01*
X103293569Y-65930185D01*
X103333157Y-65945026D01*
X103333159Y-65945026D01*
X103340552Y-65947798D01*
X103348402Y-65948651D01*
X103348403Y-65948651D01*
X103398847Y-65954131D01*
X103402244Y-65954500D01*
X104197756Y-65954500D01*
X104201153Y-65954131D01*
X104251597Y-65948651D01*
X104251598Y-65948651D01*
X104259448Y-65947798D01*
X104266841Y-65945026D01*
X104266843Y-65945026D01*
X104306431Y-65930185D01*
X104394764Y-65897071D01*
X104401943Y-65891691D01*
X104401946Y-65891689D01*
X104497090Y-65820382D01*
X104510404Y-65810404D01*
X104543489Y-65766259D01*
X104591689Y-65701946D01*
X104591691Y-65701943D01*
X104597071Y-65694764D01*
X104647798Y-65559448D01*
X104654500Y-65497756D01*
X104945500Y-65497756D01*
X104952202Y-65559448D01*
X105002929Y-65694764D01*
X105008309Y-65701943D01*
X105008311Y-65701946D01*
X105056511Y-65766259D01*
X105089596Y-65810404D01*
X105102910Y-65820382D01*
X105198054Y-65891689D01*
X105198057Y-65891691D01*
X105205236Y-65897071D01*
X105293569Y-65930185D01*
X105333157Y-65945026D01*
X105333159Y-65945026D01*
X105340552Y-65947798D01*
X105348402Y-65948651D01*
X105348403Y-65948651D01*
X105398847Y-65954131D01*
X105402244Y-65954500D01*
X106197756Y-65954500D01*
X106201153Y-65954131D01*
X106251597Y-65948651D01*
X106251598Y-65948651D01*
X106259448Y-65947798D01*
X106266841Y-65945026D01*
X106266843Y-65945026D01*
X106306431Y-65930185D01*
X106394764Y-65897071D01*
X106401943Y-65891691D01*
X106401946Y-65891689D01*
X106497090Y-65820382D01*
X106510404Y-65810404D01*
X106543489Y-65766259D01*
X106591689Y-65701946D01*
X106591691Y-65701943D01*
X106597071Y-65694764D01*
X106647798Y-65559448D01*
X106654500Y-65497756D01*
X106654500Y-65086609D01*
X118115975Y-65086609D01*
X118131639Y-65273139D01*
X118133338Y-65279064D01*
X118175786Y-65427096D01*
X118183235Y-65453075D01*
X118186050Y-65458552D01*
X118186051Y-65458555D01*
X118241703Y-65566843D01*
X118268797Y-65619562D01*
X118272620Y-65624386D01*
X118272623Y-65624390D01*
X118351267Y-65723613D01*
X118385068Y-65766259D01*
X118389762Y-65770254D01*
X118498555Y-65862844D01*
X118527618Y-65887579D01*
X118532996Y-65890585D01*
X118532998Y-65890586D01*
X118579017Y-65916305D01*
X118691018Y-65978900D01*
X118869043Y-66036744D01*
X119054914Y-66058908D01*
X119061049Y-66058436D01*
X119061051Y-66058436D01*
X119235408Y-66045020D01*
X119235413Y-66045019D01*
X119241549Y-66044547D01*
X119247479Y-66042891D01*
X119247481Y-66042891D01*
X119360364Y-66011373D01*
X119421841Y-65994209D01*
X119452148Y-65978900D01*
X119540944Y-65934045D01*
X119588921Y-65909810D01*
X119601195Y-65900221D01*
X119731571Y-65798360D01*
X119731572Y-65798360D01*
X119736427Y-65794566D01*
X119858738Y-65652867D01*
X119861784Y-65647506D01*
X119914214Y-65555212D01*
X119951198Y-65490108D01*
X120010283Y-65312491D01*
X120033744Y-65126780D01*
X120034118Y-65100000D01*
X120015852Y-64913706D01*
X119961749Y-64734509D01*
X119943665Y-64700498D01*
X119876764Y-64574674D01*
X119876762Y-64574671D01*
X119873870Y-64569232D01*
X119869980Y-64564462D01*
X119869977Y-64564458D01*
X119759457Y-64428948D01*
X119759454Y-64428945D01*
X119755562Y-64424173D01*
X119736581Y-64408470D01*
X119616081Y-64308784D01*
X119611332Y-64304855D01*
X119446673Y-64215824D01*
X119334823Y-64181201D01*
X119273744Y-64162294D01*
X119273741Y-64162293D01*
X119267857Y-64160472D01*
X119261732Y-64159828D01*
X119261731Y-64159828D01*
X119087824Y-64141549D01*
X119087823Y-64141549D01*
X119081696Y-64140905D01*
X119005143Y-64147872D01*
X118901418Y-64157312D01*
X118901415Y-64157313D01*
X118895279Y-64157871D01*
X118889373Y-64159609D01*
X118889369Y-64159610D01*
X118787485Y-64189596D01*
X118715708Y-64210721D01*
X118549822Y-64297444D01*
X118545022Y-64301304D01*
X118545021Y-64301304D01*
X118540131Y-64305236D01*
X118403940Y-64414736D01*
X118283619Y-64558130D01*
X118280655Y-64563522D01*
X118280652Y-64563526D01*
X118224565Y-64665549D01*
X118193441Y-64722163D01*
X118191580Y-64728030D01*
X118191579Y-64728032D01*
X118153344Y-64848564D01*
X118136841Y-64900588D01*
X118115975Y-65086609D01*
X106654500Y-65086609D01*
X106654500Y-64734384D01*
X106674502Y-64666263D01*
X106691405Y-64645289D01*
X108750085Y-62586609D01*
X118115975Y-62586609D01*
X118116491Y-62592752D01*
X118127773Y-62727096D01*
X118131639Y-62773139D01*
X118133338Y-62779064D01*
X118154006Y-62851140D01*
X118183235Y-62953075D01*
X118186050Y-62958552D01*
X118186051Y-62958555D01*
X118259329Y-63101139D01*
X118268797Y-63119562D01*
X118272620Y-63124386D01*
X118272623Y-63124390D01*
X118378539Y-63258021D01*
X118385068Y-63266259D01*
X118389762Y-63270254D01*
X118518713Y-63380000D01*
X118527618Y-63387579D01*
X118532996Y-63390585D01*
X118532998Y-63390586D01*
X118609318Y-63433239D01*
X118691018Y-63478900D01*
X118869043Y-63536744D01*
X119054914Y-63558908D01*
X119061049Y-63558436D01*
X119061051Y-63558436D01*
X119235408Y-63545020D01*
X119235413Y-63545019D01*
X119241549Y-63544547D01*
X119247479Y-63542891D01*
X119247481Y-63542891D01*
X119415913Y-63495864D01*
X119415912Y-63495864D01*
X119421841Y-63494209D01*
X119452148Y-63478900D01*
X119557520Y-63425672D01*
X119588921Y-63409810D01*
X119617376Y-63387579D01*
X119731571Y-63298360D01*
X119731572Y-63298360D01*
X119736427Y-63294566D01*
X119846674Y-63166843D01*
X119854709Y-63157535D01*
X119854710Y-63157533D01*
X119858738Y-63152867D01*
X119861784Y-63147506D01*
X119890045Y-63097756D01*
X119951198Y-62990108D01*
X120010283Y-62812491D01*
X120033744Y-62626780D01*
X120034118Y-62600000D01*
X120019411Y-62450000D01*
X128390663Y-62450000D01*
X128390933Y-62454119D01*
X128402714Y-62633855D01*
X128409992Y-62744903D01*
X128410796Y-62748943D01*
X128410796Y-62748946D01*
X128458391Y-62988220D01*
X128467648Y-63034759D01*
X128468973Y-63038663D01*
X128468974Y-63038666D01*
X128558346Y-63301946D01*
X128562645Y-63314611D01*
X128596660Y-63383586D01*
X128682887Y-63558436D01*
X128693357Y-63579668D01*
X128857547Y-63825397D01*
X129052407Y-64047593D01*
X129274603Y-64242453D01*
X129520331Y-64406643D01*
X129524030Y-64408467D01*
X129524035Y-64408470D01*
X129592622Y-64442293D01*
X129785389Y-64537355D01*
X129789294Y-64538680D01*
X129789295Y-64538681D01*
X130061334Y-64631026D01*
X130061337Y-64631027D01*
X130065241Y-64632352D01*
X130069280Y-64633155D01*
X130069286Y-64633157D01*
X130351054Y-64689204D01*
X130351057Y-64689204D01*
X130355097Y-64690008D01*
X130359208Y-64690277D01*
X130359212Y-64690278D01*
X130645881Y-64709067D01*
X130650000Y-64709337D01*
X130654119Y-64709067D01*
X130940788Y-64690278D01*
X130940792Y-64690277D01*
X130944903Y-64690008D01*
X130948943Y-64689204D01*
X130948946Y-64689204D01*
X131230714Y-64633157D01*
X131230720Y-64633155D01*
X131234759Y-64632352D01*
X131238663Y-64631027D01*
X131238666Y-64631026D01*
X131510705Y-64538681D01*
X131510706Y-64538680D01*
X131514611Y-64537355D01*
X131707378Y-64442293D01*
X131775965Y-64408470D01*
X131775970Y-64408467D01*
X131779669Y-64406643D01*
X132025397Y-64242453D01*
X132247593Y-64047593D01*
X132442453Y-63825397D01*
X132606643Y-63579668D01*
X132617114Y-63558436D01*
X132703340Y-63383586D01*
X132737355Y-63314611D01*
X132741654Y-63301946D01*
X132831026Y-63038666D01*
X132831027Y-63038663D01*
X132832352Y-63034759D01*
X132841610Y-62988220D01*
X132889204Y-62748946D01*
X132889204Y-62748943D01*
X132890008Y-62744903D01*
X132897287Y-62633855D01*
X132909067Y-62454119D01*
X132909337Y-62450000D01*
X137190663Y-62450000D01*
X137190933Y-62454119D01*
X137202714Y-62633855D01*
X137209992Y-62744903D01*
X137210796Y-62748943D01*
X137210796Y-62748946D01*
X137258391Y-62988220D01*
X137267648Y-63034759D01*
X137268973Y-63038663D01*
X137268974Y-63038666D01*
X137358346Y-63301946D01*
X137362645Y-63314611D01*
X137396660Y-63383586D01*
X137482887Y-63558436D01*
X137493357Y-63579668D01*
X137657547Y-63825397D01*
X137852407Y-64047593D01*
X138074603Y-64242453D01*
X138320331Y-64406643D01*
X138324030Y-64408467D01*
X138324035Y-64408470D01*
X138392622Y-64442293D01*
X138585389Y-64537355D01*
X138589294Y-64538680D01*
X138589295Y-64538681D01*
X138861334Y-64631026D01*
X138861337Y-64631027D01*
X138865241Y-64632352D01*
X138869280Y-64633155D01*
X138869286Y-64633157D01*
X139151054Y-64689204D01*
X139151057Y-64689204D01*
X139155097Y-64690008D01*
X139159208Y-64690277D01*
X139159212Y-64690278D01*
X139445881Y-64709067D01*
X139450000Y-64709337D01*
X139454119Y-64709067D01*
X139740788Y-64690278D01*
X139740792Y-64690277D01*
X139744903Y-64690008D01*
X139748943Y-64689204D01*
X139748946Y-64689204D01*
X140030714Y-64633157D01*
X140030720Y-64633155D01*
X140034759Y-64632352D01*
X140038663Y-64631027D01*
X140038666Y-64631026D01*
X140310705Y-64538681D01*
X140310706Y-64538680D01*
X140314611Y-64537355D01*
X140507378Y-64442293D01*
X140575965Y-64408470D01*
X140575970Y-64408467D01*
X140579669Y-64406643D01*
X140825397Y-64242453D01*
X141047593Y-64047593D01*
X141242453Y-63825397D01*
X141406643Y-63579668D01*
X141417114Y-63558436D01*
X141503340Y-63383586D01*
X141537355Y-63314611D01*
X141541654Y-63301946D01*
X141631026Y-63038666D01*
X141631027Y-63038663D01*
X141632352Y-63034759D01*
X141641610Y-62988220D01*
X141689204Y-62748946D01*
X141689204Y-62748943D01*
X141690008Y-62744903D01*
X141697287Y-62633855D01*
X141709067Y-62454119D01*
X141709337Y-62450000D01*
X141700724Y-62318586D01*
X141690278Y-62159212D01*
X141690277Y-62159208D01*
X141690008Y-62155097D01*
X141679493Y-62102234D01*
X141633157Y-61869286D01*
X141633155Y-61869280D01*
X141632352Y-61865241D01*
X141627402Y-61850657D01*
X141538681Y-61589295D01*
X141538680Y-61589294D01*
X141537355Y-61585389D01*
X141461330Y-61431226D01*
X141408470Y-61324036D01*
X141408467Y-61324031D01*
X141406643Y-61320332D01*
X141242453Y-61074603D01*
X141047593Y-60852407D01*
X140825397Y-60657547D01*
X140579669Y-60493357D01*
X140575970Y-60491533D01*
X140575965Y-60491530D01*
X140433278Y-60421165D01*
X140314611Y-60362645D01*
X140310705Y-60361319D01*
X140038666Y-60268974D01*
X140038663Y-60268973D01*
X140034759Y-60267648D01*
X140030720Y-60266845D01*
X140030714Y-60266843D01*
X139748946Y-60210796D01*
X139748943Y-60210796D01*
X139744903Y-60209992D01*
X139740792Y-60209723D01*
X139740788Y-60209722D01*
X139454119Y-60190933D01*
X139450000Y-60190663D01*
X139445881Y-60190933D01*
X139159212Y-60209722D01*
X139159208Y-60209723D01*
X139155097Y-60209992D01*
X139151057Y-60210796D01*
X139151054Y-60210796D01*
X138869286Y-60266843D01*
X138869280Y-60266845D01*
X138865241Y-60267648D01*
X138861337Y-60268973D01*
X138861334Y-60268974D01*
X138589295Y-60361319D01*
X138585389Y-60362645D01*
X138460143Y-60424410D01*
X138324036Y-60491530D01*
X138324031Y-60491533D01*
X138320332Y-60493357D01*
X138074603Y-60657547D01*
X137852407Y-60852407D01*
X137657547Y-61074603D01*
X137493357Y-61320332D01*
X137491533Y-61324031D01*
X137491530Y-61324036D01*
X137438670Y-61431226D01*
X137362645Y-61585389D01*
X137361320Y-61589294D01*
X137361319Y-61589295D01*
X137272599Y-61850657D01*
X137267648Y-61865241D01*
X137266845Y-61869280D01*
X137266843Y-61869286D01*
X137220507Y-62102234D01*
X137209992Y-62155097D01*
X137209723Y-62159208D01*
X137209722Y-62159212D01*
X137199276Y-62318586D01*
X137190663Y-62450000D01*
X132909337Y-62450000D01*
X132900724Y-62318586D01*
X132890278Y-62159212D01*
X132890277Y-62159208D01*
X132890008Y-62155097D01*
X132879493Y-62102234D01*
X132833157Y-61869286D01*
X132833155Y-61869280D01*
X132832352Y-61865241D01*
X132827402Y-61850657D01*
X132738681Y-61589295D01*
X132738680Y-61589294D01*
X132737355Y-61585389D01*
X132661330Y-61431226D01*
X132608470Y-61324036D01*
X132608467Y-61324031D01*
X132606643Y-61320332D01*
X132442453Y-61074603D01*
X132247593Y-60852407D01*
X132025397Y-60657547D01*
X131779669Y-60493357D01*
X131775970Y-60491533D01*
X131775965Y-60491530D01*
X131633278Y-60421165D01*
X131514611Y-60362645D01*
X131510705Y-60361319D01*
X131238666Y-60268974D01*
X131238663Y-60268973D01*
X131234759Y-60267648D01*
X131230720Y-60266845D01*
X131230714Y-60266843D01*
X130948946Y-60210796D01*
X130948943Y-60210796D01*
X130944903Y-60209992D01*
X130940792Y-60209723D01*
X130940788Y-60209722D01*
X130654119Y-60190933D01*
X130650000Y-60190663D01*
X130645881Y-60190933D01*
X130359212Y-60209722D01*
X130359208Y-60209723D01*
X130355097Y-60209992D01*
X130351057Y-60210796D01*
X130351054Y-60210796D01*
X130069286Y-60266843D01*
X130069280Y-60266845D01*
X130065241Y-60267648D01*
X130061337Y-60268973D01*
X130061334Y-60268974D01*
X129789295Y-60361319D01*
X129785389Y-60362645D01*
X129660143Y-60424410D01*
X129524036Y-60491530D01*
X129524031Y-60491533D01*
X129520332Y-60493357D01*
X129274603Y-60657547D01*
X129052407Y-60852407D01*
X128857547Y-61074603D01*
X128693357Y-61320332D01*
X128691533Y-61324031D01*
X128691530Y-61324036D01*
X128638670Y-61431226D01*
X128562645Y-61585389D01*
X128561320Y-61589294D01*
X128561319Y-61589295D01*
X128472599Y-61850657D01*
X128467648Y-61865241D01*
X128466845Y-61869280D01*
X128466843Y-61869286D01*
X128420507Y-62102234D01*
X128409992Y-62155097D01*
X128409723Y-62159208D01*
X128409722Y-62159212D01*
X128399276Y-62318586D01*
X128390663Y-62450000D01*
X120019411Y-62450000D01*
X120015852Y-62413706D01*
X119961749Y-62234509D01*
X119929236Y-62173361D01*
X119876764Y-62074674D01*
X119876762Y-62074671D01*
X119873870Y-62069232D01*
X119869980Y-62064462D01*
X119869977Y-62064458D01*
X119759457Y-61928948D01*
X119759454Y-61928945D01*
X119755562Y-61924173D01*
X119611332Y-61804855D01*
X119446673Y-61715824D01*
X119329974Y-61679700D01*
X119273744Y-61662294D01*
X119273741Y-61662293D01*
X119267857Y-61660472D01*
X119261732Y-61659828D01*
X119261731Y-61659828D01*
X119087824Y-61641549D01*
X119087823Y-61641549D01*
X119081696Y-61640905D01*
X119005143Y-61647872D01*
X118901418Y-61657312D01*
X118901415Y-61657313D01*
X118895279Y-61657871D01*
X118889373Y-61659609D01*
X118889369Y-61659610D01*
X118804158Y-61684689D01*
X118715708Y-61710721D01*
X118549822Y-61797444D01*
X118545022Y-61801304D01*
X118545021Y-61801304D01*
X118535718Y-61808784D01*
X118403940Y-61914736D01*
X118283619Y-62058130D01*
X118280655Y-62063522D01*
X118280652Y-62063526D01*
X118227886Y-62159507D01*
X118193441Y-62222163D01*
X118191580Y-62228030D01*
X118191579Y-62228032D01*
X118140797Y-62388116D01*
X118136841Y-62400588D01*
X118115975Y-62586609D01*
X108750085Y-62586609D01*
X111250085Y-60086609D01*
X118115975Y-60086609D01*
X118116491Y-60092752D01*
X118131083Y-60266514D01*
X118131639Y-60273139D01*
X118133338Y-60279064D01*
X118157828Y-60364469D01*
X118183235Y-60453075D01*
X118186050Y-60458552D01*
X118186051Y-60458555D01*
X118265982Y-60614085D01*
X118268797Y-60619562D01*
X118272620Y-60624386D01*
X118272623Y-60624390D01*
X118351842Y-60724338D01*
X118385068Y-60766259D01*
X118389762Y-60770254D01*
X118443261Y-60815785D01*
X118527618Y-60887579D01*
X118532996Y-60890585D01*
X118532998Y-60890586D01*
X118563871Y-60907840D01*
X118691018Y-60978900D01*
X118869043Y-61036744D01*
X119054914Y-61058908D01*
X119061049Y-61058436D01*
X119061051Y-61058436D01*
X119235408Y-61045020D01*
X119235413Y-61045019D01*
X119241549Y-61044547D01*
X119247479Y-61042891D01*
X119247481Y-61042891D01*
X119415913Y-60995864D01*
X119415912Y-60995864D01*
X119421841Y-60994209D01*
X119452148Y-60978900D01*
X119569429Y-60919656D01*
X119588921Y-60909810D01*
X119601195Y-60900221D01*
X119731571Y-60798360D01*
X119731572Y-60798360D01*
X119736427Y-60794566D01*
X119852347Y-60660271D01*
X119854709Y-60657535D01*
X119854710Y-60657533D01*
X119858738Y-60652867D01*
X119861784Y-60647506D01*
X119911807Y-60559448D01*
X119951198Y-60490108D01*
X120010283Y-60312491D01*
X120033744Y-60126780D01*
X120034118Y-60100000D01*
X120015852Y-59913706D01*
X119961749Y-59734509D01*
X119923526Y-59662621D01*
X119876764Y-59574674D01*
X119876762Y-59574671D01*
X119873870Y-59569232D01*
X119869980Y-59564462D01*
X119869977Y-59564458D01*
X119759457Y-59428948D01*
X119759454Y-59428945D01*
X119755562Y-59424173D01*
X119739805Y-59411137D01*
X119616081Y-59308784D01*
X119611332Y-59304855D01*
X119446673Y-59215824D01*
X119344559Y-59184215D01*
X119273744Y-59162294D01*
X119273741Y-59162293D01*
X119267857Y-59160472D01*
X119261732Y-59159828D01*
X119261731Y-59159828D01*
X119087824Y-59141549D01*
X119087823Y-59141549D01*
X119081696Y-59140905D01*
X119005143Y-59147872D01*
X118901418Y-59157312D01*
X118901415Y-59157313D01*
X118895279Y-59157871D01*
X118889373Y-59159609D01*
X118889369Y-59159610D01*
X118787485Y-59189596D01*
X118715708Y-59210721D01*
X118549822Y-59297444D01*
X118545022Y-59301304D01*
X118545021Y-59301304D01*
X118540131Y-59305236D01*
X118403940Y-59414736D01*
X118283619Y-59558130D01*
X118280655Y-59563522D01*
X118280652Y-59563526D01*
X118224172Y-59666263D01*
X118193441Y-59722163D01*
X118191580Y-59728030D01*
X118191579Y-59728032D01*
X118187653Y-59740409D01*
X118136841Y-59900588D01*
X118115975Y-60086609D01*
X111250085Y-60086609D01*
X114570289Y-56766405D01*
X114632601Y-56732379D01*
X114659384Y-56729500D01*
X118289164Y-56729500D01*
X118357285Y-56749502D01*
X118403778Y-56803158D01*
X118413882Y-56873432D01*
X118385687Y-56936490D01*
X118283619Y-57058130D01*
X118280655Y-57063522D01*
X118280652Y-57063526D01*
X118225778Y-57163342D01*
X118193441Y-57222163D01*
X118191580Y-57228030D01*
X118191579Y-57228032D01*
X118142337Y-57383262D01*
X118136841Y-57400588D01*
X118115975Y-57586609D01*
X118116491Y-57592752D01*
X118130956Y-57765000D01*
X118131639Y-57773139D01*
X118133338Y-57779064D01*
X118168347Y-57901153D01*
X118183235Y-57953075D01*
X118186050Y-57958552D01*
X118186051Y-57958555D01*
X118265982Y-58114085D01*
X118268797Y-58119562D01*
X118272620Y-58124386D01*
X118272623Y-58124390D01*
X118378539Y-58258021D01*
X118385068Y-58266259D01*
X118389762Y-58270254D01*
X118480876Y-58347798D01*
X118527618Y-58387579D01*
X118532996Y-58390585D01*
X118532998Y-58390586D01*
X118567396Y-58409810D01*
X118691018Y-58478900D01*
X118869043Y-58536744D01*
X119054914Y-58558908D01*
X119061049Y-58558436D01*
X119061051Y-58558436D01*
X119235408Y-58545020D01*
X119235413Y-58545019D01*
X119241549Y-58544547D01*
X119247479Y-58542891D01*
X119247481Y-58542891D01*
X119415913Y-58495864D01*
X119415912Y-58495864D01*
X119421841Y-58494209D01*
X119452148Y-58478900D01*
X119500774Y-58454337D01*
X119588921Y-58409810D01*
X119617376Y-58387579D01*
X119731571Y-58298360D01*
X119731572Y-58298360D01*
X119736427Y-58294566D01*
X119858738Y-58152867D01*
X119861784Y-58147506D01*
X119910772Y-58061270D01*
X119951198Y-57990108D01*
X120010283Y-57812491D01*
X120033744Y-57626780D01*
X120034118Y-57600000D01*
X120015852Y-57413706D01*
X119961749Y-57234509D01*
X119937466Y-57188839D01*
X119876764Y-57074674D01*
X119876762Y-57074671D01*
X119873870Y-57069232D01*
X119869980Y-57064462D01*
X119869977Y-57064458D01*
X119764503Y-56935136D01*
X119736949Y-56869705D01*
X119749144Y-56799763D01*
X119797216Y-56747518D01*
X119862146Y-56729500D01*
X122696080Y-56729500D01*
X122720028Y-56732049D01*
X122721693Y-56732128D01*
X122731876Y-56734320D01*
X122742217Y-56733096D01*
X122765223Y-56730373D01*
X122771154Y-56730023D01*
X122771146Y-56729928D01*
X122776324Y-56729500D01*
X122781524Y-56729500D01*
X122786653Y-56728646D01*
X122786656Y-56728646D01*
X122800565Y-56726331D01*
X122806443Y-56725494D01*
X122847001Y-56720694D01*
X122847002Y-56720694D01*
X122857341Y-56719470D01*
X122865593Y-56715507D01*
X122874626Y-56714004D01*
X122883795Y-56709057D01*
X122883797Y-56709056D01*
X122919732Y-56689666D01*
X122925025Y-56686969D01*
X122964082Y-56668215D01*
X122964086Y-56668212D01*
X122971232Y-56664781D01*
X122975508Y-56661186D01*
X122977431Y-56659263D01*
X122979363Y-56657491D01*
X122979442Y-56657448D01*
X122979555Y-56657572D01*
X122980095Y-56657096D01*
X122985814Y-56654010D01*
X123022417Y-56614413D01*
X123025846Y-56610848D01*
X125186694Y-54450000D01*
X129978567Y-54450000D01*
X129997147Y-54686083D01*
X129998301Y-54690890D01*
X129998302Y-54690896D01*
X130000464Y-54699900D01*
X130052430Y-54916354D01*
X130054323Y-54920925D01*
X130054324Y-54920927D01*
X130140789Y-55129670D01*
X130143055Y-55135141D01*
X130266789Y-55337057D01*
X130420587Y-55517132D01*
X130600662Y-55670930D01*
X130802578Y-55794664D01*
X130807148Y-55796557D01*
X130807152Y-55796559D01*
X131016792Y-55883395D01*
X131016794Y-55883396D01*
X131021365Y-55885289D01*
X131069487Y-55896842D01*
X131246823Y-55939417D01*
X131246829Y-55939418D01*
X131251636Y-55940572D01*
X131487719Y-55959152D01*
X131723802Y-55940572D01*
X131728609Y-55939418D01*
X131728615Y-55939417D01*
X131905951Y-55896842D01*
X131954073Y-55885289D01*
X131958644Y-55883396D01*
X131958646Y-55883395D01*
X132168286Y-55796559D01*
X132168290Y-55796557D01*
X132172860Y-55794664D01*
X132374776Y-55670930D01*
X132554851Y-55517132D01*
X132708649Y-55337057D01*
X132832383Y-55135141D01*
X132834650Y-55129670D01*
X132921114Y-54920927D01*
X132921115Y-54920925D01*
X132923008Y-54916354D01*
X132974974Y-54699900D01*
X132977136Y-54690896D01*
X132977137Y-54690890D01*
X132978291Y-54686083D01*
X132996871Y-54450000D01*
X132978291Y-54213917D01*
X132923008Y-53983646D01*
X132918248Y-53972155D01*
X132834278Y-53769433D01*
X132834276Y-53769429D01*
X132832383Y-53764859D01*
X132708649Y-53562943D01*
X132554851Y-53382868D01*
X132374776Y-53229070D01*
X132172860Y-53105336D01*
X132168290Y-53103443D01*
X132168286Y-53103441D01*
X131958646Y-53016605D01*
X131958644Y-53016604D01*
X131954073Y-53014711D01*
X131874220Y-52995540D01*
X131728615Y-52960583D01*
X131728609Y-52960582D01*
X131723802Y-52959428D01*
X131487719Y-52940848D01*
X131251636Y-52959428D01*
X131246829Y-52960582D01*
X131246823Y-52960583D01*
X131101218Y-52995540D01*
X131021365Y-53014711D01*
X131016794Y-53016604D01*
X131016792Y-53016605D01*
X130807152Y-53103441D01*
X130807148Y-53103443D01*
X130802578Y-53105336D01*
X130600662Y-53229070D01*
X130420587Y-53382868D01*
X130266789Y-53562943D01*
X130143055Y-53764859D01*
X130141162Y-53769429D01*
X130141160Y-53769433D01*
X130057190Y-53972155D01*
X130052430Y-53983646D01*
X129997147Y-54213917D01*
X129978567Y-54450000D01*
X125186694Y-54450000D01*
X126027455Y-53609239D01*
X126046203Y-53594097D01*
X126047428Y-53592982D01*
X126056179Y-53587332D01*
X126062626Y-53579154D01*
X126062628Y-53579152D01*
X126076968Y-53560961D01*
X126080914Y-53556520D01*
X126080841Y-53556458D01*
X126084200Y-53552494D01*
X126087877Y-53548817D01*
X126099131Y-53533069D01*
X126102637Y-53528399D01*
X126134395Y-53488114D01*
X126137427Y-53479480D01*
X126142753Y-53472027D01*
X126157442Y-53422911D01*
X126159275Y-53417269D01*
X126173629Y-53376394D01*
X126173629Y-53376393D01*
X126176257Y-53368910D01*
X126176739Y-53363345D01*
X126176739Y-53360637D01*
X126176853Y-53358003D01*
X126176882Y-53357905D01*
X126177046Y-53357912D01*
X126177090Y-53357208D01*
X126178952Y-53350983D01*
X126176836Y-53297126D01*
X126176739Y-53292179D01*
X126176739Y-52605499D01*
X126196741Y-52537378D01*
X126250397Y-52490885D01*
X126302739Y-52479499D01*
X126597305Y-52479499D01*
X126633057Y-52472388D01*
X126659365Y-52467156D01*
X126659367Y-52467155D01*
X126671540Y-52464734D01*
X126681860Y-52457839D01*
X126681861Y-52457838D01*
X126745407Y-52415377D01*
X126755723Y-52408484D01*
X126811973Y-52324301D01*
X126826739Y-52250067D01*
X126826738Y-50649934D01*
X126811973Y-50575699D01*
X126755723Y-50491516D01*
X126671540Y-50435266D01*
X126597306Y-50420500D01*
X125797369Y-50420500D01*
X124997173Y-50420501D01*
X124961421Y-50427612D01*
X124935113Y-50432844D01*
X124935111Y-50432845D01*
X124922938Y-50435266D01*
X124912618Y-50442161D01*
X124912617Y-50442162D01*
X124871086Y-50469913D01*
X124838755Y-50491516D01*
X124782505Y-50575699D01*
X124767739Y-50649933D01*
X124767740Y-52250066D01*
X124782505Y-52324301D01*
X124838755Y-52408484D01*
X124922938Y-52464734D01*
X124997172Y-52479500D01*
X125291739Y-52479500D01*
X125359860Y-52499502D01*
X125406353Y-52553158D01*
X125417739Y-52605500D01*
X125417739Y-53093377D01*
X125397737Y-53161498D01*
X125380834Y-53182472D01*
X122629711Y-55933595D01*
X122567399Y-55967621D01*
X122540616Y-55970500D01*
X115033988Y-55970500D01*
X114965867Y-55950498D01*
X114919374Y-55896842D01*
X114909270Y-55826568D01*
X114938764Y-55761988D01*
X114944893Y-55755405D01*
X117827455Y-52872843D01*
X117846203Y-52857701D01*
X117847428Y-52856586D01*
X117856179Y-52850936D01*
X117862626Y-52842758D01*
X117862628Y-52842756D01*
X117876968Y-52824565D01*
X117880914Y-52820124D01*
X117880841Y-52820062D01*
X117884200Y-52816098D01*
X117887877Y-52812421D01*
X117899131Y-52796673D01*
X117902637Y-52792003D01*
X117934395Y-52751718D01*
X117937427Y-52743084D01*
X117942753Y-52735631D01*
X117957442Y-52686515D01*
X117959275Y-52680873D01*
X117973629Y-52639998D01*
X117973629Y-52639997D01*
X117976257Y-52632514D01*
X117976739Y-52626949D01*
X117976739Y-52624241D01*
X117976853Y-52621607D01*
X117976882Y-52621509D01*
X117977046Y-52621516D01*
X117977090Y-52620812D01*
X117978952Y-52614587D01*
X117978543Y-52604182D01*
X117979849Y-52593846D01*
X117982868Y-52594227D01*
X117996097Y-52541600D01*
X118047882Y-52493033D01*
X118104692Y-52479499D01*
X118397305Y-52479499D01*
X118433057Y-52472388D01*
X118459365Y-52467156D01*
X118459367Y-52467155D01*
X118471540Y-52464734D01*
X118481860Y-52457839D01*
X118481861Y-52457838D01*
X118545407Y-52415377D01*
X118555723Y-52408484D01*
X118611973Y-52324301D01*
X118626739Y-52250067D01*
X118626738Y-50649934D01*
X118611973Y-50575699D01*
X118555723Y-50491516D01*
X118471540Y-50435266D01*
X118397306Y-50420500D01*
X117597369Y-50420500D01*
X116797173Y-50420501D01*
X116761421Y-50427612D01*
X116735113Y-50432844D01*
X116735111Y-50432845D01*
X116722938Y-50435266D01*
X116712618Y-50442161D01*
X116712617Y-50442162D01*
X116671086Y-50469913D01*
X116638755Y-50491516D01*
X116582505Y-50575699D01*
X116567739Y-50649933D01*
X116567740Y-52250066D01*
X116582505Y-52324301D01*
X116638755Y-52408484D01*
X116722938Y-52464734D01*
X116797172Y-52479500D01*
X116843220Y-52479500D01*
X116911341Y-52499502D01*
X116957834Y-52553158D01*
X116967938Y-52623432D01*
X116938444Y-52688012D01*
X116932315Y-52694595D01*
X107443315Y-62183595D01*
X107381003Y-62217621D01*
X107354220Y-62220500D01*
X106780081Y-62220500D01*
X106711960Y-62200498D01*
X106665467Y-62146842D01*
X106654500Y-62102274D01*
X106654500Y-62102244D01*
X106647798Y-62040552D01*
X106597071Y-61905236D01*
X106591691Y-61898057D01*
X106591689Y-61898054D01*
X106515785Y-61796776D01*
X106510404Y-61789596D01*
X106489977Y-61774287D01*
X106401946Y-61708311D01*
X106401943Y-61708309D01*
X106394764Y-61702929D01*
X106279209Y-61659610D01*
X106266843Y-61654974D01*
X106266841Y-61654974D01*
X106259448Y-61652202D01*
X106251598Y-61651349D01*
X106251597Y-61651349D01*
X106201153Y-61645869D01*
X106201152Y-61645869D01*
X106197756Y-61645500D01*
X105402244Y-61645500D01*
X105398848Y-61645869D01*
X105398847Y-61645869D01*
X105348403Y-61651349D01*
X105348402Y-61651349D01*
X105340552Y-61652202D01*
X105333159Y-61654974D01*
X105333157Y-61654974D01*
X105320791Y-61659610D01*
X105205236Y-61702929D01*
X105198057Y-61708309D01*
X105198054Y-61708311D01*
X105110023Y-61774287D01*
X105089596Y-61789596D01*
X105084215Y-61796776D01*
X105008311Y-61898054D01*
X105008309Y-61898057D01*
X105002929Y-61905236D01*
X104952202Y-62040552D01*
X104945500Y-62102244D01*
X104945500Y-63097756D01*
X104952202Y-63159448D01*
X104954974Y-63166841D01*
X104954974Y-63166843D01*
X104959104Y-63177859D01*
X105002929Y-63294764D01*
X105008309Y-63301943D01*
X105008311Y-63301946D01*
X105069497Y-63383586D01*
X105089596Y-63410404D01*
X105096776Y-63415785D01*
X105198054Y-63491689D01*
X105198057Y-63491691D01*
X105205236Y-63497071D01*
X105284638Y-63526837D01*
X105333157Y-63545026D01*
X105333159Y-63545026D01*
X105340552Y-63547798D01*
X105348402Y-63548651D01*
X105348403Y-63548651D01*
X105393241Y-63553522D01*
X105402244Y-63554500D01*
X106197756Y-63554500D01*
X106206759Y-63553522D01*
X106251597Y-63548651D01*
X106251598Y-63548651D01*
X106259448Y-63547798D01*
X106266841Y-63545026D01*
X106266843Y-63545026D01*
X106315362Y-63526837D01*
X106394764Y-63497071D01*
X106401943Y-63491691D01*
X106401946Y-63491689D01*
X106462177Y-63446548D01*
X106527003Y-63422328D01*
X106536786Y-63377357D01*
X106546548Y-63362177D01*
X106591689Y-63301946D01*
X106591691Y-63301943D01*
X106597071Y-63294764D01*
X106640896Y-63177859D01*
X106645026Y-63166843D01*
X106645026Y-63166841D01*
X106647798Y-63159448D01*
X106654500Y-63097756D01*
X106654588Y-63097766D01*
X106677927Y-63031739D01*
X106734022Y-62988220D01*
X106780081Y-62979500D01*
X106979616Y-62979500D01*
X107047737Y-62999502D01*
X107094230Y-63053158D01*
X107104334Y-63123432D01*
X107074840Y-63188012D01*
X107068711Y-63194595D01*
X106736469Y-63526837D01*
X106674157Y-63560863D01*
X106662047Y-63559997D01*
X106638652Y-63622827D01*
X106626837Y-63636469D01*
X106254711Y-64008595D01*
X106192399Y-64042621D01*
X106165616Y-64045500D01*
X105402244Y-64045500D01*
X105398848Y-64045869D01*
X105398847Y-64045869D01*
X105348403Y-64051349D01*
X105348402Y-64051349D01*
X105340552Y-64052202D01*
X105333159Y-64054974D01*
X105333157Y-64054974D01*
X105315504Y-64061592D01*
X105205236Y-64102929D01*
X105198057Y-64108309D01*
X105198054Y-64108311D01*
X105129202Y-64159913D01*
X105089596Y-64189596D01*
X105084215Y-64196776D01*
X105008311Y-64298054D01*
X105008309Y-64298057D01*
X105002929Y-64305236D01*
X104974136Y-64382043D01*
X104963327Y-64410877D01*
X104952202Y-64440552D01*
X104951349Y-64448402D01*
X104951349Y-64448403D01*
X104947920Y-64479969D01*
X104945500Y-64502244D01*
X104945500Y-65497756D01*
X104654500Y-65497756D01*
X104654500Y-64502244D01*
X104652080Y-64479969D01*
X104648651Y-64448403D01*
X104648651Y-64448402D01*
X104647798Y-64440552D01*
X104636674Y-64410877D01*
X104625864Y-64382043D01*
X104597071Y-64305236D01*
X104591691Y-64298057D01*
X104591689Y-64298054D01*
X104515785Y-64196776D01*
X104510404Y-64189596D01*
X104470798Y-64159913D01*
X104401946Y-64108311D01*
X104401943Y-64108309D01*
X104394764Y-64102929D01*
X104284496Y-64061592D01*
X104266843Y-64054974D01*
X104266841Y-64054974D01*
X104259448Y-64052202D01*
X104251598Y-64051349D01*
X104251597Y-64051349D01*
X104201153Y-64045869D01*
X104201152Y-64045869D01*
X104197756Y-64045500D01*
X103402244Y-64045500D01*
X103398848Y-64045869D01*
X103398847Y-64045869D01*
X103348403Y-64051349D01*
X103348402Y-64051349D01*
X103340552Y-64052202D01*
X103333159Y-64054974D01*
X103333157Y-64054974D01*
X103315504Y-64061592D01*
X103205236Y-64102929D01*
X103198057Y-64108309D01*
X103198054Y-64108311D01*
X103129202Y-64159913D01*
X103089596Y-64189596D01*
X103084215Y-64196776D01*
X103008311Y-64298054D01*
X103008309Y-64298057D01*
X103002929Y-64305236D01*
X102974136Y-64382043D01*
X102963327Y-64410877D01*
X102952202Y-64440552D01*
X102951349Y-64448402D01*
X102951349Y-64448403D01*
X102947920Y-64479969D01*
X102945500Y-64502244D01*
X102945500Y-64594500D01*
X102925498Y-64662621D01*
X102871842Y-64709114D01*
X102819500Y-64720500D01*
X101730009Y-64720500D01*
X101661888Y-64700498D01*
X101618757Y-64653653D01*
X101576763Y-64574673D01*
X101573870Y-64569232D01*
X101569975Y-64564456D01*
X101459457Y-64428948D01*
X101459454Y-64428945D01*
X101455562Y-64424173D01*
X101436581Y-64408470D01*
X101316081Y-64308784D01*
X101311332Y-64304855D01*
X101146673Y-64215824D01*
X101034823Y-64181201D01*
X100973744Y-64162294D01*
X100973741Y-64162293D01*
X100967857Y-64160472D01*
X100961732Y-64159828D01*
X100961731Y-64159828D01*
X100787824Y-64141549D01*
X100787823Y-64141549D01*
X100781696Y-64140905D01*
X100705143Y-64147872D01*
X100601418Y-64157312D01*
X100601415Y-64157313D01*
X100595279Y-64157871D01*
X100589373Y-64159609D01*
X100589369Y-64159610D01*
X100487485Y-64189596D01*
X100415708Y-64210721D01*
X100249822Y-64297444D01*
X100245022Y-64301304D01*
X100245021Y-64301304D01*
X100240131Y-64305236D01*
X100103940Y-64414736D01*
X99983619Y-64558130D01*
X99980655Y-64563522D01*
X99980652Y-64563526D01*
X99924565Y-64665549D01*
X99893441Y-64722163D01*
X99891580Y-64728030D01*
X99891579Y-64728032D01*
X99853344Y-64848564D01*
X99836841Y-64900588D01*
X99815975Y-65086609D01*
X95265693Y-65086609D01*
X95215258Y-65039987D01*
X95210375Y-65036906D01*
X95210371Y-65036903D01*
X95048464Y-64934748D01*
X95043581Y-64931667D01*
X94855039Y-64856446D01*
X94849379Y-64855320D01*
X94849375Y-64855319D01*
X94661613Y-64817971D01*
X94661610Y-64817971D01*
X94655946Y-64816844D01*
X94650171Y-64816768D01*
X94650167Y-64816768D01*
X94548793Y-64815441D01*
X94452971Y-64814187D01*
X94447274Y-64815166D01*
X94447273Y-64815166D01*
X94325812Y-64836037D01*
X94252910Y-64848564D01*
X94062463Y-64918824D01*
X93888010Y-65022612D01*
X93883670Y-65026418D01*
X93883666Y-65026421D01*
X93773249Y-65123255D01*
X93735392Y-65156455D01*
X93609720Y-65315869D01*
X93607031Y-65320980D01*
X93607029Y-65320983D01*
X93596798Y-65340429D01*
X93515203Y-65495515D01*
X93476447Y-65620329D01*
X93464895Y-65657535D01*
X93455007Y-65689378D01*
X93431148Y-65890964D01*
X93444424Y-66093522D01*
X93445845Y-66099118D01*
X93445846Y-66099123D01*
X93466119Y-66178945D01*
X93494392Y-66290269D01*
X93496809Y-66295512D01*
X93549165Y-66409082D01*
X93579377Y-66474616D01*
X93582713Y-66479337D01*
X93582714Y-66479338D01*
X93609175Y-66516781D01*
X93632156Y-66583955D01*
X93615171Y-66652890D01*
X93563613Y-66701699D01*
X93506278Y-66715500D01*
X93035473Y-66715500D01*
X92967352Y-66695498D01*
X92920859Y-66641842D01*
X92910755Y-66571568D01*
X92925539Y-66527934D01*
X92927382Y-66524644D01*
X92987316Y-66417624D01*
X93010510Y-66376208D01*
X93010511Y-66376206D01*
X93013334Y-66371165D01*
X93015190Y-66365698D01*
X93015192Y-66365693D01*
X93076728Y-66184414D01*
X93076729Y-66184409D01*
X93078584Y-66178945D01*
X93079412Y-66173236D01*
X93079413Y-66173231D01*
X93104940Y-65997172D01*
X93107712Y-65978053D01*
X93109232Y-65920000D01*
X93095105Y-65766259D01*
X93091187Y-65723613D01*
X93091186Y-65723610D01*
X93090658Y-65717859D01*
X93086170Y-65701946D01*
X93037125Y-65528046D01*
X93037124Y-65528044D01*
X93035557Y-65522487D01*
X93025037Y-65501153D01*
X92948331Y-65345609D01*
X92945776Y-65340428D01*
X92928748Y-65317624D01*
X92840869Y-65199941D01*
X92824320Y-65177779D01*
X92675258Y-65039987D01*
X92670375Y-65036906D01*
X92670371Y-65036903D01*
X92508464Y-64934748D01*
X92503581Y-64931667D01*
X92315039Y-64856446D01*
X92309379Y-64855320D01*
X92309375Y-64855319D01*
X92121613Y-64817971D01*
X92121610Y-64817971D01*
X92115946Y-64816844D01*
X92110171Y-64816768D01*
X92110167Y-64816768D01*
X92008793Y-64815441D01*
X91912971Y-64814187D01*
X91907274Y-64815166D01*
X91907273Y-64815166D01*
X91785812Y-64836037D01*
X91712910Y-64848564D01*
X91522463Y-64918824D01*
X91348010Y-65022612D01*
X91343670Y-65026418D01*
X91343666Y-65026421D01*
X91233249Y-65123255D01*
X91195392Y-65156455D01*
X91069720Y-65315869D01*
X91067031Y-65320980D01*
X91067029Y-65320983D01*
X91056798Y-65340429D01*
X90975203Y-65495515D01*
X90936447Y-65620329D01*
X90924895Y-65657535D01*
X90915007Y-65689378D01*
X90913275Y-65704016D01*
X90909395Y-65736795D01*
X90881525Y-65802093D01*
X90822777Y-65841957D01*
X90748172Y-65842705D01*
X90738434Y-65839793D01*
X90732807Y-65837964D01*
X90691932Y-65823610D01*
X90691931Y-65823610D01*
X90684448Y-65820982D01*
X90678883Y-65820500D01*
X90676175Y-65820500D01*
X90673541Y-65820386D01*
X90673443Y-65820357D01*
X90673450Y-65820193D01*
X90672746Y-65820149D01*
X90666521Y-65818287D01*
X90612664Y-65820403D01*
X90607717Y-65820500D01*
X83326000Y-65820500D01*
X83257879Y-65800498D01*
X83211386Y-65746842D01*
X83200000Y-65694500D01*
X83200000Y-64000000D01*
X83119924Y-64000000D01*
X83051803Y-63979998D01*
X83005310Y-63926342D01*
X83001948Y-63918244D01*
X82997071Y-63905236D01*
X82991691Y-63898057D01*
X82991689Y-63898054D01*
X82915785Y-63796776D01*
X82910404Y-63789596D01*
X82889977Y-63774287D01*
X82801946Y-63708311D01*
X82801943Y-63708309D01*
X82794764Y-63702929D01*
X82685961Y-63662141D01*
X82666843Y-63654974D01*
X82666841Y-63654974D01*
X82659448Y-63652202D01*
X82651598Y-63651349D01*
X82651597Y-63651349D01*
X82601153Y-63645869D01*
X82601152Y-63645869D01*
X82597756Y-63645500D01*
X81802244Y-63645500D01*
X81798848Y-63645869D01*
X81798847Y-63645869D01*
X81748403Y-63651349D01*
X81748402Y-63651349D01*
X81740552Y-63652202D01*
X81733159Y-63654974D01*
X81733157Y-63654974D01*
X81714039Y-63662141D01*
X81605236Y-63702929D01*
X81598057Y-63708309D01*
X81598054Y-63708311D01*
X81510023Y-63774287D01*
X81489596Y-63789596D01*
X81484215Y-63796776D01*
X81408311Y-63898054D01*
X81408309Y-63898057D01*
X81402929Y-63905236D01*
X81398057Y-63918232D01*
X81355416Y-63974995D01*
X81288854Y-63999694D01*
X81280076Y-64000000D01*
X79168000Y-64000000D01*
X79099879Y-63979998D01*
X79053386Y-63926342D01*
X79042000Y-63874000D01*
X79042000Y-63350964D01*
X93431148Y-63350964D01*
X93444424Y-63553522D01*
X93445845Y-63559118D01*
X93445846Y-63559123D01*
X93468546Y-63648503D01*
X93494392Y-63750269D01*
X93496809Y-63755512D01*
X93534010Y-63836208D01*
X93579377Y-63934616D01*
X93582710Y-63939332D01*
X93691081Y-64092674D01*
X93696533Y-64100389D01*
X93841938Y-64242035D01*
X94010720Y-64354812D01*
X94016023Y-64357090D01*
X94016026Y-64357092D01*
X94191921Y-64432662D01*
X94197228Y-64434942D01*
X94256717Y-64448403D01*
X94389579Y-64478467D01*
X94389584Y-64478468D01*
X94395216Y-64479742D01*
X94400987Y-64479969D01*
X94400989Y-64479969D01*
X94460756Y-64482317D01*
X94598053Y-64487712D01*
X94703161Y-64472472D01*
X94793231Y-64459413D01*
X94793236Y-64459412D01*
X94798945Y-64458584D01*
X94804409Y-64456729D01*
X94804414Y-64456728D01*
X94985693Y-64395192D01*
X94985698Y-64395190D01*
X94991165Y-64393334D01*
X95168276Y-64294147D01*
X95191273Y-64275021D01*
X95319913Y-64168031D01*
X95324345Y-64164345D01*
X95375133Y-64103279D01*
X95450453Y-64012718D01*
X95450455Y-64012715D01*
X95454147Y-64008276D01*
X95553334Y-63831165D01*
X95555190Y-63825698D01*
X95555192Y-63825693D01*
X95616728Y-63644414D01*
X95616729Y-63644409D01*
X95618584Y-63638945D01*
X95619412Y-63633236D01*
X95619413Y-63633231D01*
X95647179Y-63441727D01*
X95647712Y-63438053D01*
X95649232Y-63380000D01*
X95630658Y-63177859D01*
X95624926Y-63157535D01*
X95577125Y-62988046D01*
X95577124Y-62988044D01*
X95575557Y-62982487D01*
X95569724Y-62970657D01*
X95488331Y-62805609D01*
X95485776Y-62800428D01*
X95364320Y-62637779D01*
X95308965Y-62586609D01*
X99815975Y-62586609D01*
X99816491Y-62592752D01*
X99827773Y-62727096D01*
X99831639Y-62773139D01*
X99833338Y-62779064D01*
X99854006Y-62851140D01*
X99883235Y-62953075D01*
X99886050Y-62958552D01*
X99886051Y-62958555D01*
X99959329Y-63101139D01*
X99968797Y-63119562D01*
X99972620Y-63124386D01*
X99972623Y-63124390D01*
X100078539Y-63258021D01*
X100085068Y-63266259D01*
X100089762Y-63270254D01*
X100218713Y-63380000D01*
X100227618Y-63387579D01*
X100232996Y-63390585D01*
X100232998Y-63390586D01*
X100309318Y-63433239D01*
X100391018Y-63478900D01*
X100569043Y-63536744D01*
X100754914Y-63558908D01*
X100761049Y-63558436D01*
X100761051Y-63558436D01*
X100935408Y-63545020D01*
X100935413Y-63545019D01*
X100941549Y-63544547D01*
X100947479Y-63542891D01*
X100947481Y-63542891D01*
X101115913Y-63495864D01*
X101115912Y-63495864D01*
X101121841Y-63494209D01*
X101152148Y-63478900D01*
X101257520Y-63425672D01*
X101288921Y-63409810D01*
X101317376Y-63387579D01*
X101431571Y-63298360D01*
X101431572Y-63298360D01*
X101436427Y-63294566D01*
X101546674Y-63166843D01*
X101554709Y-63157535D01*
X101554710Y-63157533D01*
X101558738Y-63152867D01*
X101621002Y-63043263D01*
X101672041Y-62993912D01*
X101730558Y-62979500D01*
X102819919Y-62979500D01*
X102888040Y-62999502D01*
X102934533Y-63053158D01*
X102945500Y-63097726D01*
X102945500Y-63097756D01*
X102952202Y-63159448D01*
X102954974Y-63166841D01*
X102954974Y-63166843D01*
X102959104Y-63177859D01*
X103002929Y-63294764D01*
X103008309Y-63301943D01*
X103008311Y-63301946D01*
X103069497Y-63383586D01*
X103089596Y-63410404D01*
X103096776Y-63415785D01*
X103198054Y-63491689D01*
X103198057Y-63491691D01*
X103205236Y-63497071D01*
X103284638Y-63526837D01*
X103333157Y-63545026D01*
X103333159Y-63545026D01*
X103340552Y-63547798D01*
X103348402Y-63548651D01*
X103348403Y-63548651D01*
X103393241Y-63553522D01*
X103402244Y-63554500D01*
X104197756Y-63554500D01*
X104206759Y-63553522D01*
X104251597Y-63548651D01*
X104251598Y-63548651D01*
X104259448Y-63547798D01*
X104266841Y-63545026D01*
X104266843Y-63545026D01*
X104315362Y-63526837D01*
X104394764Y-63497071D01*
X104401943Y-63491691D01*
X104401946Y-63491689D01*
X104503224Y-63415785D01*
X104510404Y-63410404D01*
X104530503Y-63383586D01*
X104591689Y-63301946D01*
X104591691Y-63301943D01*
X104597071Y-63294764D01*
X104640896Y-63177859D01*
X104645026Y-63166843D01*
X104645026Y-63166841D01*
X104647798Y-63159448D01*
X104654500Y-63097756D01*
X104654500Y-62102244D01*
X104647798Y-62040552D01*
X104597071Y-61905236D01*
X104591691Y-61898057D01*
X104591689Y-61898054D01*
X104515785Y-61796776D01*
X104510404Y-61789596D01*
X104489977Y-61774287D01*
X104401946Y-61708311D01*
X104401943Y-61708309D01*
X104394764Y-61702929D01*
X104279209Y-61659610D01*
X104266843Y-61654974D01*
X104266841Y-61654974D01*
X104259448Y-61652202D01*
X104251598Y-61651349D01*
X104251597Y-61651349D01*
X104201153Y-61645869D01*
X104201152Y-61645869D01*
X104197756Y-61645500D01*
X103402244Y-61645500D01*
X103398848Y-61645869D01*
X103398847Y-61645869D01*
X103348403Y-61651349D01*
X103348402Y-61651349D01*
X103340552Y-61652202D01*
X103333159Y-61654974D01*
X103333157Y-61654974D01*
X103320791Y-61659610D01*
X103205236Y-61702929D01*
X103198057Y-61708309D01*
X103198054Y-61708311D01*
X103110023Y-61774287D01*
X103089596Y-61789596D01*
X103084215Y-61796776D01*
X103008311Y-61898054D01*
X103008309Y-61898057D01*
X103002929Y-61905236D01*
X102952202Y-62040552D01*
X102945500Y-62102244D01*
X102945412Y-62102234D01*
X102922073Y-62168261D01*
X102865978Y-62211780D01*
X102819919Y-62220500D01*
X101730009Y-62220500D01*
X101661888Y-62200498D01*
X101618757Y-62153653D01*
X101576763Y-62074673D01*
X101573870Y-62069232D01*
X101569975Y-62064456D01*
X101459457Y-61928948D01*
X101459454Y-61928945D01*
X101455562Y-61924173D01*
X101311332Y-61804855D01*
X101146673Y-61715824D01*
X101029974Y-61679700D01*
X100973744Y-61662294D01*
X100973741Y-61662293D01*
X100967857Y-61660472D01*
X100961732Y-61659828D01*
X100961731Y-61659828D01*
X100787824Y-61641549D01*
X100787823Y-61641549D01*
X100781696Y-61640905D01*
X100705143Y-61647872D01*
X100601418Y-61657312D01*
X100601415Y-61657313D01*
X100595279Y-61657871D01*
X100589373Y-61659609D01*
X100589369Y-61659610D01*
X100504158Y-61684689D01*
X100415708Y-61710721D01*
X100249822Y-61797444D01*
X100245022Y-61801304D01*
X100245021Y-61801304D01*
X100235718Y-61808784D01*
X100103940Y-61914736D01*
X99983619Y-62058130D01*
X99980655Y-62063522D01*
X99980652Y-62063526D01*
X99927886Y-62159507D01*
X99893441Y-62222163D01*
X99891580Y-62228030D01*
X99891579Y-62228032D01*
X99840797Y-62388116D01*
X99836841Y-62400588D01*
X99815975Y-62586609D01*
X95308965Y-62586609D01*
X95215258Y-62499987D01*
X95210375Y-62496906D01*
X95210371Y-62496903D01*
X95048464Y-62394748D01*
X95043581Y-62391667D01*
X94855039Y-62316446D01*
X94849379Y-62315320D01*
X94849375Y-62315319D01*
X94661613Y-62277971D01*
X94661610Y-62277971D01*
X94655946Y-62276844D01*
X94650171Y-62276768D01*
X94650167Y-62276768D01*
X94548793Y-62275441D01*
X94452971Y-62274187D01*
X94447274Y-62275166D01*
X94447273Y-62275166D01*
X94384049Y-62286030D01*
X94252910Y-62308564D01*
X94062463Y-62378824D01*
X93888010Y-62482612D01*
X93883670Y-62486418D01*
X93883666Y-62486421D01*
X93739733Y-62612648D01*
X93735392Y-62616455D01*
X93609720Y-62775869D01*
X93607031Y-62780980D01*
X93607029Y-62780983D01*
X93594073Y-62805609D01*
X93515203Y-62955515D01*
X93455007Y-63149378D01*
X93431148Y-63350964D01*
X79042000Y-63350964D01*
X79042000Y-63039744D01*
X79035298Y-62978052D01*
X79026850Y-62955515D01*
X78987721Y-62851140D01*
X78984571Y-62842736D01*
X78979191Y-62835557D01*
X78979189Y-62835554D01*
X78911250Y-62744903D01*
X78897904Y-62727096D01*
X78877477Y-62711787D01*
X78789446Y-62645811D01*
X78789443Y-62645809D01*
X78782264Y-62640429D01*
X78683768Y-62603505D01*
X78654343Y-62592474D01*
X78654341Y-62592474D01*
X78646948Y-62589702D01*
X78639098Y-62588849D01*
X78639097Y-62588849D01*
X78588653Y-62583369D01*
X78588652Y-62583369D01*
X78585256Y-62583000D01*
X77814744Y-62583000D01*
X77811348Y-62583369D01*
X77811347Y-62583369D01*
X77760903Y-62588849D01*
X77760902Y-62588849D01*
X77753052Y-62589702D01*
X77745659Y-62592474D01*
X77745657Y-62592474D01*
X77716232Y-62603505D01*
X77617736Y-62640429D01*
X77610557Y-62645809D01*
X77610554Y-62645811D01*
X77522523Y-62711787D01*
X77502096Y-62727096D01*
X77488750Y-62744903D01*
X77420811Y-62835554D01*
X77420809Y-62835557D01*
X77415429Y-62842736D01*
X77412279Y-62851140D01*
X77373151Y-62955515D01*
X77364702Y-62978052D01*
X77358000Y-63039744D01*
X77358000Y-63814091D01*
X77337998Y-63882212D01*
X77330951Y-63892095D01*
X77325272Y-63899299D01*
X77321325Y-63903741D01*
X77321398Y-63903803D01*
X77318039Y-63907767D01*
X77314362Y-63911444D01*
X77303108Y-63927192D01*
X77299591Y-63931875D01*
X77290008Y-63944032D01*
X77283719Y-63952009D01*
X77225837Y-63993120D01*
X77184772Y-64000000D01*
X77151384Y-64000000D01*
X77083263Y-63979998D01*
X77062289Y-63963095D01*
X77003905Y-63904711D01*
X76969879Y-63842399D01*
X76967000Y-63815616D01*
X76967000Y-63039744D01*
X76960298Y-62978052D01*
X76951850Y-62955515D01*
X76912721Y-62851140D01*
X76909571Y-62842736D01*
X76904191Y-62835557D01*
X76904189Y-62835554D01*
X76836250Y-62744903D01*
X76822904Y-62727096D01*
X76802477Y-62711787D01*
X76714446Y-62645811D01*
X76714443Y-62645809D01*
X76707264Y-62640429D01*
X76608768Y-62603505D01*
X76579343Y-62592474D01*
X76579341Y-62592474D01*
X76571948Y-62589702D01*
X76564098Y-62588849D01*
X76564097Y-62588849D01*
X76513653Y-62583369D01*
X76513652Y-62583369D01*
X76510256Y-62583000D01*
X76222975Y-62583000D01*
X76154854Y-62562998D01*
X76108361Y-62509342D01*
X76098257Y-62439068D01*
X76106068Y-62410005D01*
X76111842Y-62395641D01*
X76121518Y-62327647D01*
X76150918Y-62263025D01*
X76157166Y-62256305D01*
X78326862Y-60086609D01*
X99815975Y-60086609D01*
X99816491Y-60092752D01*
X99831083Y-60266514D01*
X99831639Y-60273139D01*
X99833338Y-60279064D01*
X99857828Y-60364469D01*
X99883235Y-60453075D01*
X99886050Y-60458552D01*
X99886051Y-60458555D01*
X99965982Y-60614085D01*
X99968797Y-60619562D01*
X99972620Y-60624386D01*
X99972623Y-60624390D01*
X100051842Y-60724338D01*
X100085068Y-60766259D01*
X100089762Y-60770254D01*
X100143261Y-60815785D01*
X100227618Y-60887579D01*
X100232996Y-60890585D01*
X100232998Y-60890586D01*
X100263871Y-60907840D01*
X100391018Y-60978900D01*
X100569043Y-61036744D01*
X100754914Y-61058908D01*
X100761049Y-61058436D01*
X100761051Y-61058436D01*
X100935408Y-61045020D01*
X100935413Y-61045019D01*
X100941549Y-61044547D01*
X100947479Y-61042891D01*
X100947481Y-61042891D01*
X101115913Y-60995864D01*
X101115912Y-60995864D01*
X101121841Y-60994209D01*
X101152148Y-60978900D01*
X101269429Y-60919656D01*
X101288921Y-60909810D01*
X101301195Y-60900221D01*
X101431571Y-60798360D01*
X101431572Y-60798360D01*
X101436427Y-60794566D01*
X101552347Y-60660271D01*
X101554709Y-60657535D01*
X101554710Y-60657533D01*
X101558738Y-60652867D01*
X101600912Y-60578628D01*
X101621002Y-60543263D01*
X101672041Y-60493912D01*
X101730558Y-60479500D01*
X102834903Y-60479500D01*
X102903024Y-60499502D01*
X102949517Y-60553158D01*
X102952885Y-60561271D01*
X102967824Y-60601120D01*
X103002929Y-60694764D01*
X103008309Y-60701943D01*
X103008311Y-60701946D01*
X103068987Y-60782905D01*
X103089596Y-60810404D01*
X103096776Y-60815785D01*
X103198054Y-60891689D01*
X103198057Y-60891691D01*
X103205236Y-60897071D01*
X103294954Y-60930704D01*
X103333157Y-60945026D01*
X103333159Y-60945026D01*
X103340552Y-60947798D01*
X103348402Y-60948651D01*
X103348403Y-60948651D01*
X103376672Y-60951722D01*
X103402244Y-60954500D01*
X104197756Y-60954500D01*
X104223328Y-60951722D01*
X104251597Y-60948651D01*
X104251598Y-60948651D01*
X104259448Y-60947798D01*
X104266841Y-60945026D01*
X104266843Y-60945026D01*
X104305046Y-60930704D01*
X104394764Y-60897071D01*
X104401943Y-60891691D01*
X104401946Y-60891689D01*
X104503224Y-60815785D01*
X104510404Y-60810404D01*
X104531013Y-60782905D01*
X104591689Y-60701946D01*
X104591691Y-60701943D01*
X104597071Y-60694764D01*
X104632176Y-60601120D01*
X104645026Y-60566843D01*
X104645026Y-60566841D01*
X104647798Y-60559448D01*
X104654500Y-60497756D01*
X104945500Y-60497756D01*
X104952202Y-60559448D01*
X104954974Y-60566841D01*
X104954974Y-60566843D01*
X104967824Y-60601120D01*
X105002929Y-60694764D01*
X105008309Y-60701943D01*
X105008311Y-60701946D01*
X105068987Y-60782905D01*
X105089596Y-60810404D01*
X105096776Y-60815785D01*
X105198054Y-60891689D01*
X105198057Y-60891691D01*
X105205236Y-60897071D01*
X105294954Y-60930704D01*
X105333157Y-60945026D01*
X105333159Y-60945026D01*
X105340552Y-60947798D01*
X105348402Y-60948651D01*
X105348403Y-60948651D01*
X105376672Y-60951722D01*
X105402244Y-60954500D01*
X106197756Y-60954500D01*
X106223328Y-60951722D01*
X106251597Y-60948651D01*
X106251598Y-60948651D01*
X106259448Y-60947798D01*
X106266841Y-60945026D01*
X106266843Y-60945026D01*
X106305046Y-60930704D01*
X106394764Y-60897071D01*
X106401943Y-60891691D01*
X106401946Y-60891689D01*
X106503224Y-60815785D01*
X106510404Y-60810404D01*
X106531013Y-60782905D01*
X106591689Y-60701946D01*
X106591691Y-60701943D01*
X106597071Y-60694764D01*
X106632176Y-60601120D01*
X106645026Y-60566843D01*
X106645026Y-60566841D01*
X106647798Y-60559448D01*
X106654500Y-60497756D01*
X106654500Y-59734384D01*
X106674502Y-59666263D01*
X106691405Y-59645289D01*
X109430216Y-56906478D01*
X109448964Y-56891336D01*
X109450189Y-56890221D01*
X109458940Y-56884571D01*
X109465387Y-56876393D01*
X109465389Y-56876391D01*
X109479729Y-56858200D01*
X109483675Y-56853759D01*
X109483602Y-56853697D01*
X109486961Y-56849733D01*
X109490638Y-56846056D01*
X109501892Y-56830308D01*
X109505398Y-56825638D01*
X109537156Y-56785353D01*
X109540188Y-56776719D01*
X109545514Y-56769266D01*
X109560203Y-56720150D01*
X109562036Y-56714508D01*
X109576390Y-56673633D01*
X109576390Y-56673632D01*
X109579018Y-56666149D01*
X109579500Y-56660584D01*
X109579500Y-56657871D01*
X109579614Y-56655242D01*
X109579643Y-56655144D01*
X109579807Y-56655151D01*
X109579851Y-56654447D01*
X109581713Y-56648222D01*
X109579597Y-56594365D01*
X109579500Y-56589418D01*
X109579500Y-55939980D01*
X109599502Y-55871859D01*
X109653158Y-55825366D01*
X109723432Y-55815262D01*
X109788012Y-55844756D01*
X109794206Y-55850497D01*
X109879031Y-55934585D01*
X109882348Y-55937873D01*
X109886110Y-55940631D01*
X109886113Y-55940634D01*
X110088882Y-56089311D01*
X110092649Y-56092073D01*
X110096780Y-56094247D01*
X110096781Y-56094247D01*
X110319298Y-56211319D01*
X110319304Y-56211321D01*
X110323433Y-56213494D01*
X110569629Y-56299469D01*
X110574222Y-56300341D01*
X110821239Y-56347239D01*
X110821242Y-56347239D01*
X110825828Y-56348110D01*
X110949725Y-56352978D01*
X111081735Y-56358165D01*
X111081740Y-56358165D01*
X111086403Y-56358348D01*
X111179885Y-56348110D01*
X111340976Y-56330468D01*
X111340981Y-56330467D01*
X111345629Y-56329958D01*
X111597811Y-56263564D01*
X111719416Y-56211319D01*
X111833107Y-56162474D01*
X111833110Y-56162472D01*
X111837410Y-56160625D01*
X111841390Y-56158162D01*
X111841394Y-56158160D01*
X112055188Y-56025860D01*
X112055192Y-56025857D01*
X112059161Y-56023401D01*
X112258194Y-55854907D01*
X112430135Y-55658845D01*
X112441401Y-55641331D01*
X112568680Y-55443453D01*
X112571208Y-55439523D01*
X112678314Y-55201757D01*
X112749099Y-54950772D01*
X112772269Y-54768641D01*
X112781611Y-54695212D01*
X112781611Y-54695206D01*
X112782009Y-54692081D01*
X112782296Y-54681149D01*
X112783869Y-54621045D01*
X112784420Y-54600000D01*
X112772396Y-54438200D01*
X112765440Y-54344593D01*
X112765439Y-54344589D01*
X112765094Y-54339941D01*
X112707542Y-54085595D01*
X112669768Y-53988458D01*
X112614722Y-53846909D01*
X112613027Y-53842550D01*
X112483625Y-53616145D01*
X112322180Y-53411353D01*
X112132239Y-53232674D01*
X111917973Y-53084032D01*
X111913783Y-53081966D01*
X111913780Y-53081964D01*
X111688278Y-52970759D01*
X111688275Y-52970758D01*
X111684090Y-52968694D01*
X111678708Y-52966971D01*
X111566446Y-52931036D01*
X111435728Y-52889193D01*
X111431121Y-52888443D01*
X111431118Y-52888442D01*
X111200823Y-52850936D01*
X111178344Y-52847275D01*
X111051875Y-52845620D01*
X110922267Y-52843923D01*
X110922264Y-52843923D01*
X110917590Y-52843862D01*
X110659196Y-52879028D01*
X110654710Y-52880336D01*
X110654708Y-52880336D01*
X110624321Y-52889193D01*
X110408838Y-52952000D01*
X110404586Y-52953960D01*
X110404584Y-52953961D01*
X110375713Y-52967271D01*
X110172016Y-53061177D01*
X110168111Y-53063737D01*
X110168106Y-53063740D01*
X109957846Y-53201592D01*
X109957841Y-53201596D01*
X109953933Y-53204158D01*
X109894723Y-53257005D01*
X109789401Y-53351008D01*
X109725260Y-53381446D01*
X109654845Y-53372374D01*
X109600513Y-53326674D01*
X109579500Y-53257005D01*
X109579500Y-52605499D01*
X109599502Y-52537378D01*
X109653158Y-52490885D01*
X109705500Y-52479499D01*
X110197305Y-52479499D01*
X110233057Y-52472388D01*
X110259365Y-52467156D01*
X110259367Y-52467155D01*
X110271540Y-52464734D01*
X110281860Y-52457839D01*
X110281861Y-52457838D01*
X110345407Y-52415377D01*
X110355723Y-52408484D01*
X110411973Y-52324301D01*
X110426739Y-52250067D01*
X110426738Y-50649934D01*
X110411973Y-50575699D01*
X110355723Y-50491516D01*
X110271540Y-50435266D01*
X110197306Y-50420500D01*
X109397369Y-50420500D01*
X108597173Y-50420501D01*
X108561421Y-50427612D01*
X108535113Y-50432844D01*
X108535111Y-50432845D01*
X108522938Y-50435266D01*
X108512618Y-50442161D01*
X108512617Y-50442162D01*
X108471086Y-50469913D01*
X108438755Y-50491516D01*
X108382505Y-50575699D01*
X108367739Y-50649933D01*
X108367740Y-52250066D01*
X108382505Y-52324301D01*
X108438755Y-52408484D01*
X108522938Y-52464734D01*
X108597172Y-52479500D01*
X108694500Y-52479500D01*
X108762621Y-52499502D01*
X108809114Y-52553158D01*
X108820500Y-52605500D01*
X108820500Y-56390616D01*
X108800498Y-56458737D01*
X108783595Y-56479711D01*
X106254711Y-59008595D01*
X106192399Y-59042621D01*
X106165616Y-59045500D01*
X105402244Y-59045500D01*
X105398848Y-59045869D01*
X105398847Y-59045869D01*
X105348403Y-59051349D01*
X105348402Y-59051349D01*
X105340552Y-59052202D01*
X105333159Y-59054974D01*
X105333157Y-59054974D01*
X105294954Y-59069296D01*
X105205236Y-59102929D01*
X105198057Y-59108309D01*
X105198054Y-59108311D01*
X105128456Y-59160472D01*
X105089596Y-59189596D01*
X105084215Y-59196776D01*
X105008311Y-59298054D01*
X105008309Y-59298057D01*
X105002929Y-59305236D01*
X104999779Y-59313640D01*
X104963327Y-59410877D01*
X104952202Y-59440552D01*
X104945500Y-59502244D01*
X104945500Y-60497756D01*
X104654500Y-60497756D01*
X104654500Y-59502244D01*
X104647798Y-59440552D01*
X104636674Y-59410877D01*
X104600221Y-59313640D01*
X104597071Y-59305236D01*
X104591691Y-59298057D01*
X104591689Y-59298054D01*
X104515785Y-59196776D01*
X104510404Y-59189596D01*
X104471544Y-59160472D01*
X104401946Y-59108311D01*
X104401943Y-59108309D01*
X104394764Y-59102929D01*
X104305046Y-59069296D01*
X104266843Y-59054974D01*
X104266841Y-59054974D01*
X104259448Y-59052202D01*
X104251598Y-59051349D01*
X104251597Y-59051349D01*
X104201153Y-59045869D01*
X104201152Y-59045869D01*
X104197756Y-59045500D01*
X103402244Y-59045500D01*
X103398848Y-59045869D01*
X103398847Y-59045869D01*
X103348403Y-59051349D01*
X103348402Y-59051349D01*
X103340552Y-59052202D01*
X103333159Y-59054974D01*
X103333157Y-59054974D01*
X103294954Y-59069296D01*
X103205236Y-59102929D01*
X103198057Y-59108309D01*
X103198054Y-59108311D01*
X103128456Y-59160472D01*
X103089596Y-59189596D01*
X103084215Y-59196776D01*
X103008311Y-59298054D01*
X103008309Y-59298057D01*
X103002929Y-59305236D01*
X102999779Y-59313640D01*
X102963327Y-59410877D01*
X102952202Y-59440552D01*
X102945500Y-59502244D01*
X102945500Y-59594500D01*
X102925498Y-59662621D01*
X102871842Y-59709114D01*
X102819500Y-59720500D01*
X101730009Y-59720500D01*
X101661888Y-59700498D01*
X101618757Y-59653653D01*
X101607931Y-59633291D01*
X101573870Y-59569232D01*
X101569975Y-59564456D01*
X101459457Y-59428948D01*
X101459454Y-59428945D01*
X101455562Y-59424173D01*
X101439805Y-59411137D01*
X101316081Y-59308784D01*
X101311332Y-59304855D01*
X101146673Y-59215824D01*
X101044559Y-59184215D01*
X100973744Y-59162294D01*
X100973741Y-59162293D01*
X100967857Y-59160472D01*
X100961732Y-59159828D01*
X100961731Y-59159828D01*
X100787824Y-59141549D01*
X100787823Y-59141549D01*
X100781696Y-59140905D01*
X100705143Y-59147872D01*
X100601418Y-59157312D01*
X100601415Y-59157313D01*
X100595279Y-59157871D01*
X100589373Y-59159609D01*
X100589369Y-59159610D01*
X100487485Y-59189596D01*
X100415708Y-59210721D01*
X100249822Y-59297444D01*
X100245022Y-59301304D01*
X100245021Y-59301304D01*
X100240131Y-59305236D01*
X100103940Y-59414736D01*
X99983619Y-59558130D01*
X99980655Y-59563522D01*
X99980652Y-59563526D01*
X99924172Y-59666263D01*
X99893441Y-59722163D01*
X99891580Y-59728030D01*
X99891579Y-59728032D01*
X99887653Y-59740409D01*
X99836841Y-59900588D01*
X99815975Y-60086609D01*
X78326862Y-60086609D01*
X80556794Y-57856677D01*
X80566234Y-57849135D01*
X80565911Y-57848755D01*
X80572747Y-57842937D01*
X80580339Y-57838147D01*
X80615672Y-57798140D01*
X80621017Y-57792454D01*
X80632351Y-57781120D01*
X80635038Y-57777535D01*
X80638553Y-57772845D01*
X80644940Y-57765000D01*
X80670060Y-57736557D01*
X80676001Y-57729830D01*
X80679814Y-57721708D01*
X80681654Y-57718907D01*
X80690063Y-57704912D01*
X80691685Y-57701949D01*
X80697070Y-57694764D01*
X80700224Y-57686352D01*
X80713546Y-57650818D01*
X80717471Y-57641502D01*
X80733601Y-57607145D01*
X80737417Y-57599018D01*
X80738799Y-57590144D01*
X80739785Y-57586917D01*
X80739866Y-57586609D01*
X99815975Y-57586609D01*
X99816491Y-57592752D01*
X99830956Y-57765000D01*
X99831639Y-57773139D01*
X99833338Y-57779064D01*
X99868347Y-57901153D01*
X99883235Y-57953075D01*
X99886050Y-57958552D01*
X99886051Y-57958555D01*
X99965982Y-58114085D01*
X99968797Y-58119562D01*
X99972620Y-58124386D01*
X99972623Y-58124390D01*
X100078539Y-58258021D01*
X100085068Y-58266259D01*
X100089762Y-58270254D01*
X100180876Y-58347798D01*
X100227618Y-58387579D01*
X100232996Y-58390585D01*
X100232998Y-58390586D01*
X100267396Y-58409810D01*
X100391018Y-58478900D01*
X100569043Y-58536744D01*
X100754914Y-58558908D01*
X100761049Y-58558436D01*
X100761051Y-58558436D01*
X100935408Y-58545020D01*
X100935413Y-58545019D01*
X100941549Y-58544547D01*
X100947479Y-58542891D01*
X100947481Y-58542891D01*
X101115913Y-58495864D01*
X101115912Y-58495864D01*
X101121841Y-58494209D01*
X101152148Y-58478900D01*
X101200774Y-58454337D01*
X101288921Y-58409810D01*
X101317376Y-58387579D01*
X101431571Y-58298360D01*
X101431572Y-58298360D01*
X101436427Y-58294566D01*
X101558738Y-58152867D01*
X101621002Y-58043263D01*
X101672041Y-57993912D01*
X101730558Y-57979500D01*
X102872391Y-57979500D01*
X102940512Y-57999502D01*
X102987005Y-58053158D01*
X102990371Y-58061265D01*
X103002929Y-58094764D01*
X103008309Y-58101943D01*
X103008311Y-58101946D01*
X103049973Y-58157535D01*
X103089596Y-58210404D01*
X103096776Y-58215785D01*
X103198054Y-58291689D01*
X103198057Y-58291691D01*
X103205236Y-58297071D01*
X103294954Y-58330704D01*
X103333157Y-58345026D01*
X103333159Y-58345026D01*
X103340552Y-58347798D01*
X103348402Y-58348651D01*
X103348403Y-58348651D01*
X103398847Y-58354131D01*
X103402244Y-58354500D01*
X104197756Y-58354500D01*
X104201153Y-58354131D01*
X104251597Y-58348651D01*
X104251598Y-58348651D01*
X104259448Y-58347798D01*
X104266841Y-58345026D01*
X104266843Y-58345026D01*
X104305046Y-58330704D01*
X104394764Y-58297071D01*
X104401943Y-58291691D01*
X104401946Y-58291689D01*
X104503224Y-58215785D01*
X104510404Y-58210404D01*
X104550027Y-58157535D01*
X104591689Y-58101946D01*
X104591691Y-58101943D01*
X104597071Y-58094764D01*
X104636304Y-57990108D01*
X104645026Y-57966843D01*
X104645026Y-57966841D01*
X104647798Y-57959448D01*
X104654500Y-57897756D01*
X104654500Y-57095384D01*
X104674502Y-57027263D01*
X104728158Y-56980770D01*
X104798432Y-56970666D01*
X104863012Y-57000160D01*
X104869595Y-57006289D01*
X104908595Y-57045289D01*
X104942621Y-57107601D01*
X104945500Y-57134384D01*
X104945500Y-57897756D01*
X104952202Y-57959448D01*
X104954974Y-57966841D01*
X104954974Y-57966843D01*
X104963696Y-57990108D01*
X105002929Y-58094764D01*
X105008309Y-58101943D01*
X105008311Y-58101946D01*
X105049973Y-58157535D01*
X105089596Y-58210404D01*
X105096776Y-58215785D01*
X105198054Y-58291689D01*
X105198057Y-58291691D01*
X105205236Y-58297071D01*
X105294954Y-58330704D01*
X105333157Y-58345026D01*
X105333159Y-58345026D01*
X105340552Y-58347798D01*
X105348402Y-58348651D01*
X105348403Y-58348651D01*
X105398847Y-58354131D01*
X105402244Y-58354500D01*
X106197756Y-58354500D01*
X106201153Y-58354131D01*
X106251597Y-58348651D01*
X106251598Y-58348651D01*
X106259448Y-58347798D01*
X106266841Y-58345026D01*
X106266843Y-58345026D01*
X106305046Y-58330704D01*
X106394764Y-58297071D01*
X106401943Y-58291691D01*
X106401946Y-58291689D01*
X106503224Y-58215785D01*
X106510404Y-58210404D01*
X106550027Y-58157535D01*
X106591689Y-58101946D01*
X106591691Y-58101943D01*
X106597071Y-58094764D01*
X106636304Y-57990108D01*
X106645026Y-57966843D01*
X106645026Y-57966841D01*
X106647798Y-57959448D01*
X106654500Y-57897756D01*
X106654500Y-56902244D01*
X106649226Y-56853697D01*
X106648651Y-56848403D01*
X106648651Y-56848402D01*
X106647798Y-56840552D01*
X106643068Y-56827933D01*
X106621074Y-56769266D01*
X106597071Y-56705236D01*
X106591691Y-56698057D01*
X106591689Y-56698054D01*
X106515785Y-56596776D01*
X106510404Y-56589596D01*
X106489977Y-56574287D01*
X106401946Y-56508311D01*
X106401943Y-56508309D01*
X106394764Y-56502929D01*
X106305046Y-56469296D01*
X106266843Y-56454974D01*
X106266841Y-56454974D01*
X106259448Y-56452202D01*
X106251598Y-56451349D01*
X106251597Y-56451349D01*
X106201153Y-56445869D01*
X106201152Y-56445869D01*
X106197756Y-56445500D01*
X105434384Y-56445500D01*
X105366263Y-56425498D01*
X105345289Y-56408595D01*
X101631288Y-52694594D01*
X101597262Y-52632282D01*
X101602327Y-52561467D01*
X101644874Y-52504631D01*
X101711394Y-52479820D01*
X101720383Y-52479499D01*
X101997305Y-52479499D01*
X102033057Y-52472388D01*
X102059365Y-52467156D01*
X102059367Y-52467155D01*
X102071540Y-52464734D01*
X102081860Y-52457839D01*
X102081861Y-52457838D01*
X102145407Y-52415377D01*
X102155723Y-52408484D01*
X102211973Y-52324301D01*
X102226739Y-52250067D01*
X102226738Y-50649934D01*
X102211973Y-50575699D01*
X102155723Y-50491516D01*
X102071540Y-50435266D01*
X101997306Y-50420500D01*
X101197369Y-50420500D01*
X100397173Y-50420501D01*
X100361421Y-50427612D01*
X100335113Y-50432844D01*
X100335111Y-50432845D01*
X100322938Y-50435266D01*
X100312618Y-50442161D01*
X100312617Y-50442162D01*
X100271086Y-50469913D01*
X100238755Y-50491516D01*
X100182505Y-50575699D01*
X100167739Y-50649933D01*
X100167740Y-52250066D01*
X100182505Y-52324301D01*
X100238755Y-52408484D01*
X100322938Y-52464734D01*
X100397172Y-52479500D01*
X100691739Y-52479500D01*
X100759860Y-52499502D01*
X100806353Y-52553158D01*
X100817739Y-52605500D01*
X100817739Y-52743319D01*
X100815190Y-52767267D01*
X100815111Y-52768932D01*
X100812919Y-52779115D01*
X100814143Y-52789456D01*
X100816866Y-52812462D01*
X100817216Y-52818393D01*
X100817311Y-52818385D01*
X100817739Y-52823563D01*
X100817739Y-52828763D01*
X100818593Y-52833892D01*
X100818593Y-52833895D01*
X100820908Y-52847804D01*
X100821745Y-52853682D01*
X100826117Y-52890618D01*
X100827769Y-52904580D01*
X100831732Y-52912832D01*
X100833235Y-52921865D01*
X100838182Y-52931034D01*
X100838183Y-52931036D01*
X100857573Y-52966971D01*
X100860270Y-52972264D01*
X100879024Y-53011321D01*
X100879027Y-53011325D01*
X100882458Y-53018471D01*
X100886053Y-53022747D01*
X100887976Y-53024670D01*
X100889748Y-53026602D01*
X100889791Y-53026681D01*
X100889667Y-53026794D01*
X100890143Y-53027334D01*
X100893229Y-53033053D01*
X100900874Y-53040120D01*
X100932825Y-53069655D01*
X100936391Y-53073085D01*
X104093711Y-56230405D01*
X104127737Y-56292717D01*
X104122672Y-56363532D01*
X104080125Y-56420368D01*
X104013605Y-56445179D01*
X104004616Y-56445500D01*
X103402244Y-56445500D01*
X103398848Y-56445869D01*
X103398847Y-56445869D01*
X103348403Y-56451349D01*
X103348402Y-56451349D01*
X103340552Y-56452202D01*
X103333159Y-56454974D01*
X103333157Y-56454974D01*
X103294954Y-56469296D01*
X103205236Y-56502929D01*
X103198057Y-56508309D01*
X103198054Y-56508311D01*
X103110023Y-56574287D01*
X103089596Y-56589596D01*
X103084215Y-56596776D01*
X103008311Y-56698054D01*
X103008309Y-56698057D01*
X103002929Y-56705236D01*
X102978926Y-56769266D01*
X102956933Y-56827933D01*
X102952202Y-56840552D01*
X102951349Y-56848402D01*
X102951349Y-56848403D01*
X102950774Y-56853697D01*
X102945500Y-56902244D01*
X102945500Y-57094500D01*
X102925498Y-57162621D01*
X102871842Y-57209114D01*
X102819500Y-57220500D01*
X101730009Y-57220500D01*
X101661888Y-57200498D01*
X101618757Y-57153653D01*
X101576763Y-57074673D01*
X101573870Y-57069232D01*
X101569975Y-57064456D01*
X101459457Y-56928948D01*
X101459454Y-56928945D01*
X101455562Y-56924173D01*
X101422709Y-56896994D01*
X101375815Y-56858200D01*
X101311332Y-56804855D01*
X101146673Y-56715824D01*
X101010374Y-56673633D01*
X100973744Y-56662294D01*
X100973741Y-56662293D01*
X100967857Y-56660472D01*
X100961732Y-56659828D01*
X100961731Y-56659828D01*
X100787824Y-56641549D01*
X100787823Y-56641549D01*
X100781696Y-56640905D01*
X100705143Y-56647872D01*
X100601418Y-56657312D01*
X100601415Y-56657313D01*
X100595279Y-56657871D01*
X100589373Y-56659609D01*
X100589369Y-56659610D01*
X100458747Y-56698054D01*
X100415708Y-56710721D01*
X100249822Y-56797444D01*
X100245022Y-56801304D01*
X100245021Y-56801304D01*
X100235718Y-56808784D01*
X100103940Y-56914736D01*
X99983619Y-57058130D01*
X99980655Y-57063522D01*
X99980652Y-57063526D01*
X99925778Y-57163342D01*
X99893441Y-57222163D01*
X99891580Y-57228030D01*
X99891579Y-57228032D01*
X99842337Y-57383262D01*
X99836841Y-57400588D01*
X99815975Y-57586609D01*
X80739866Y-57586609D01*
X80743925Y-57571134D01*
X80744646Y-57567856D01*
X80747798Y-57559448D01*
X80751276Y-57512643D01*
X80752430Y-57502596D01*
X80753751Y-57494114D01*
X80753751Y-57494111D01*
X80754500Y-57489303D01*
X80754500Y-57473938D01*
X80754846Y-57464601D01*
X80757751Y-57425501D01*
X80758507Y-57415333D01*
X80756634Y-57406558D01*
X80756041Y-57397862D01*
X80754500Y-57383262D01*
X80754500Y-49796212D01*
X80774502Y-49728091D01*
X80791405Y-49707117D01*
X82232116Y-48266405D01*
X82294428Y-48232380D01*
X82321211Y-48229500D01*
X129951484Y-48229500D01*
X130019605Y-48249502D01*
X130040579Y-48266405D01*
X130047342Y-48273168D01*
X130054235Y-48283484D01*
X130138418Y-48339734D01*
X130212652Y-48354500D01*
X131487512Y-48354500D01*
X132762785Y-48354499D01*
X132798537Y-48347388D01*
X132824845Y-48342156D01*
X132824847Y-48342155D01*
X132837020Y-48339734D01*
X132847340Y-48332839D01*
X132847341Y-48332838D01*
X132910887Y-48290377D01*
X132921203Y-48283484D01*
X132977453Y-48199301D01*
X132992219Y-48125067D01*
X132992218Y-45574934D01*
X132977453Y-45500699D01*
X132943912Y-45450502D01*
X132922697Y-45382750D01*
X132941480Y-45314283D01*
X132994297Y-45266839D01*
X133048677Y-45254500D01*
X143474704Y-45254500D01*
X143542825Y-45274502D01*
G37*
G04 #@! TD.AperFunction*
G04 #@! TA.AperFunction,Conductor*
G36*
X90477036Y-66599502D02*
G01*
X90498010Y-66616405D01*
X91206821Y-67325216D01*
X91221963Y-67343964D01*
X91223078Y-67345189D01*
X91228728Y-67353940D01*
X91236906Y-67360387D01*
X91236908Y-67360389D01*
X91255099Y-67374729D01*
X91259543Y-67378678D01*
X91259605Y-67378604D01*
X91263562Y-67381957D01*
X91267243Y-67385638D01*
X91282953Y-67396865D01*
X91287693Y-67400424D01*
X91297877Y-67408453D01*
X91338989Y-67466335D01*
X91342280Y-67537256D01*
X91302946Y-67602132D01*
X91284360Y-67618432D01*
X91195392Y-67696455D01*
X91069720Y-67855869D01*
X91067031Y-67860980D01*
X91067029Y-67860983D01*
X91021694Y-67947151D01*
X90975203Y-68035515D01*
X90915007Y-68229378D01*
X90891148Y-68430964D01*
X90904424Y-68633522D01*
X90905845Y-68639118D01*
X90905846Y-68639123D01*
X90927508Y-68724414D01*
X90954392Y-68830269D01*
X90956809Y-68835512D01*
X90993105Y-68914244D01*
X91039377Y-69014616D01*
X91042710Y-69019332D01*
X91100982Y-69101785D01*
X91156533Y-69180389D01*
X91160675Y-69184424D01*
X91210691Y-69233147D01*
X91301938Y-69322035D01*
X91470720Y-69434812D01*
X91476023Y-69437090D01*
X91476026Y-69437092D01*
X91627589Y-69502208D01*
X91657228Y-69514942D01*
X91716196Y-69528285D01*
X91849579Y-69558467D01*
X91849584Y-69558468D01*
X91855216Y-69559742D01*
X91860987Y-69559969D01*
X91860989Y-69559969D01*
X91920756Y-69562317D01*
X92058053Y-69567712D01*
X92158499Y-69553148D01*
X92253231Y-69539413D01*
X92253236Y-69539412D01*
X92258945Y-69538584D01*
X92307008Y-69522269D01*
X92395991Y-69492063D01*
X92466926Y-69489107D01*
X92525587Y-69522281D01*
X92683711Y-69680405D01*
X92717737Y-69742717D01*
X92712672Y-69813532D01*
X92670125Y-69870368D01*
X92603605Y-69895179D01*
X92594616Y-69895500D01*
X91174864Y-69895501D01*
X91124934Y-69895501D01*
X91089182Y-69902612D01*
X91062874Y-69907844D01*
X91062872Y-69907845D01*
X91050699Y-69910266D01*
X91040379Y-69917161D01*
X91040378Y-69917162D01*
X90979985Y-69957516D01*
X90966516Y-69966516D01*
X90910266Y-70050699D01*
X90895500Y-70124933D01*
X90895501Y-71875066D01*
X90910266Y-71949301D01*
X90917161Y-71959621D01*
X90917162Y-71959622D01*
X90957516Y-72020015D01*
X90966516Y-72033484D01*
X91050699Y-72089734D01*
X91124933Y-72104500D01*
X91156506Y-72104500D01*
X92404618Y-72104499D01*
X92472738Y-72124501D01*
X92519231Y-72178157D01*
X92529335Y-72248431D01*
X92499842Y-72313011D01*
X92493712Y-72319594D01*
X91629711Y-73183595D01*
X91567399Y-73217621D01*
X91540616Y-73220500D01*
X85173556Y-73220500D01*
X85105435Y-73200498D01*
X85058942Y-73146842D01*
X85048293Y-73080892D01*
X85054131Y-73027153D01*
X85054131Y-73027152D01*
X85054500Y-73023756D01*
X85054500Y-72028244D01*
X85047798Y-71966552D01*
X84997071Y-71831236D01*
X84991691Y-71824057D01*
X84991689Y-71824054D01*
X84915785Y-71722776D01*
X84910404Y-71715596D01*
X84889977Y-71700287D01*
X84801946Y-71634311D01*
X84801943Y-71634309D01*
X84794764Y-71628929D01*
X84718648Y-71600395D01*
X84661271Y-71578885D01*
X84604506Y-71536244D01*
X84579806Y-71469682D01*
X84579500Y-71460903D01*
X84579500Y-70969097D01*
X84599502Y-70900976D01*
X84653158Y-70854483D01*
X84661271Y-70851115D01*
X84718648Y-70829605D01*
X84794764Y-70801071D01*
X84801943Y-70795691D01*
X84801946Y-70795689D01*
X84903224Y-70719785D01*
X84910404Y-70714404D01*
X84973610Y-70630068D01*
X84991689Y-70605946D01*
X84991691Y-70605943D01*
X84997071Y-70598764D01*
X85047798Y-70463448D01*
X85054500Y-70401756D01*
X85054500Y-69406244D01*
X85047798Y-69344552D01*
X84997071Y-69209236D01*
X84991691Y-69202057D01*
X84991689Y-69202054D01*
X84915785Y-69100776D01*
X84910404Y-69093596D01*
X84838959Y-69040051D01*
X84801946Y-69012311D01*
X84801943Y-69012309D01*
X84794764Y-69006929D01*
X84718648Y-68978395D01*
X84661271Y-68956885D01*
X84604506Y-68914244D01*
X84579806Y-68847682D01*
X84579500Y-68838903D01*
X84579500Y-68337411D01*
X84599502Y-68269290D01*
X84653158Y-68222797D01*
X84661271Y-68219429D01*
X84711186Y-68200716D01*
X84782264Y-68174071D01*
X84789443Y-68168691D01*
X84789446Y-68168689D01*
X84890724Y-68092785D01*
X84897904Y-68087404D01*
X84920460Y-68057307D01*
X84979189Y-67978946D01*
X84979191Y-67978943D01*
X84984571Y-67971764D01*
X85026100Y-67860983D01*
X85032526Y-67843843D01*
X85032526Y-67843841D01*
X85035298Y-67836448D01*
X85038566Y-67806371D01*
X85041631Y-67778153D01*
X85041631Y-67778152D01*
X85042000Y-67774756D01*
X85042000Y-66729244D01*
X85041632Y-66725853D01*
X85041631Y-66725842D01*
X85040899Y-66719106D01*
X85053428Y-66649224D01*
X85101749Y-66597209D01*
X85166162Y-66579500D01*
X90408915Y-66579500D01*
X90477036Y-66599502D01*
G37*
G04 #@! TD.AperFunction*
G04 #@! TA.AperFunction,Conductor*
G36*
X81842121Y-64620002D02*
G01*
X81888614Y-64673658D01*
X81900000Y-64726000D01*
X81900000Y-69974000D01*
X81879998Y-70042121D01*
X81826342Y-70088614D01*
X81774000Y-70100000D01*
X80726000Y-70100000D01*
X80657879Y-70079998D01*
X80611386Y-70026342D01*
X80600000Y-69974000D01*
X80600000Y-67486666D01*
X80609093Y-67439670D01*
X80634006Y-67377698D01*
X80634008Y-67377691D01*
X80636842Y-67370641D01*
X80659162Y-67213807D01*
X80659307Y-67200000D01*
X80640276Y-67042733D01*
X80608134Y-66957673D01*
X80600000Y-66913135D01*
X80600000Y-66400000D01*
X78426000Y-66400000D01*
X78357879Y-66379998D01*
X78311386Y-66326342D01*
X78300000Y-66274000D01*
X78300000Y-64726000D01*
X78320002Y-64657879D01*
X78373658Y-64611386D01*
X78426000Y-64600000D01*
X81774000Y-64600000D01*
X81842121Y-64620002D01*
G37*
G04 #@! TD.AperFunction*
G04 #@! TA.AperFunction,Conductor*
G36*
X75742121Y-66920002D02*
G01*
X75788614Y-66973658D01*
X75800000Y-67026000D01*
X75800000Y-67374000D01*
X75779998Y-67442121D01*
X75726342Y-67488614D01*
X75674000Y-67500000D01*
X74800000Y-67500000D01*
X74800000Y-74674000D01*
X74779998Y-74742121D01*
X74726342Y-74788614D01*
X74674000Y-74800000D01*
X69526000Y-74800000D01*
X69457879Y-74779998D01*
X69411386Y-74726342D01*
X69400000Y-74674000D01*
X69400000Y-70526000D01*
X69420002Y-70457879D01*
X69473658Y-70411386D01*
X69526000Y-70400000D01*
X73600000Y-70400000D01*
X73600000Y-67026000D01*
X73620002Y-66957879D01*
X73673658Y-66911386D01*
X73726000Y-66900000D01*
X75674000Y-66900000D01*
X75742121Y-66920002D01*
G37*
G04 #@! TD.AperFunction*
G04 #@! TA.AperFunction,Conductor*
G36*
X76342121Y-64620002D02*
G01*
X76388614Y-64673658D01*
X76400000Y-64726000D01*
X76400000Y-66374000D01*
X76379998Y-66442121D01*
X76326342Y-66488614D01*
X76274000Y-66500000D01*
X69726000Y-66500000D01*
X69657879Y-66479998D01*
X69611386Y-66426342D01*
X69600000Y-66374000D01*
X69600000Y-64726000D01*
X69620002Y-64657879D01*
X69673658Y-64611386D01*
X69726000Y-64600000D01*
X76274000Y-64600000D01*
X76342121Y-64620002D01*
G37*
G04 #@! TD.AperFunction*
G04 #@! TA.AperFunction,Conductor*
G36*
X76942121Y-67820002D02*
G01*
X76988614Y-67873658D01*
X77000000Y-67926000D01*
X77000000Y-68800000D01*
X80074000Y-68800000D01*
X80142121Y-68820002D01*
X80188614Y-68873658D01*
X80200000Y-68926000D01*
X80200000Y-72874000D01*
X80179998Y-72942121D01*
X80126342Y-72988614D01*
X80074000Y-73000000D01*
X75326000Y-73000000D01*
X75257879Y-72979998D01*
X75211386Y-72926342D01*
X75200000Y-72874000D01*
X75200000Y-67926000D01*
X75220002Y-67857879D01*
X75273658Y-67811386D01*
X75326000Y-67800000D01*
X76874000Y-67800000D01*
X76942121Y-67820002D01*
G37*
G04 #@! TD.AperFunction*
G04 #@! TA.AperFunction,Conductor*
G36*
X68987622Y-76020002D02*
G01*
X69034115Y-76073658D01*
X69045501Y-76125999D01*
X69045501Y-77325066D01*
X69060266Y-77399301D01*
X69116516Y-77483484D01*
X69200699Y-77539734D01*
X69274933Y-77554500D01*
X70299834Y-77554500D01*
X71325066Y-77554499D01*
X71360818Y-77547388D01*
X71387126Y-77542156D01*
X71387128Y-77542155D01*
X71399301Y-77539734D01*
X71409621Y-77532839D01*
X71409622Y-77532838D01*
X71473168Y-77490377D01*
X71483484Y-77483484D01*
X71539734Y-77399301D01*
X71554500Y-77325067D01*
X71554500Y-76126000D01*
X71574502Y-76057879D01*
X71628158Y-76011386D01*
X71680500Y-76000000D01*
X77419501Y-76000000D01*
X77487622Y-76020002D01*
X77534115Y-76073658D01*
X77545501Y-76125999D01*
X77545501Y-77325066D01*
X77560266Y-77399301D01*
X77616516Y-77483484D01*
X77700699Y-77539734D01*
X77774933Y-77554500D01*
X78799834Y-77554500D01*
X79825066Y-77554499D01*
X79860818Y-77547388D01*
X79887126Y-77542156D01*
X79887128Y-77542155D01*
X79899301Y-77539734D01*
X79909621Y-77532839D01*
X79909622Y-77532838D01*
X79973168Y-77490377D01*
X79983484Y-77483484D01*
X80039734Y-77399301D01*
X80054500Y-77325067D01*
X80054500Y-76280500D01*
X80074502Y-76212379D01*
X80128158Y-76165886D01*
X80180500Y-76154500D01*
X81477212Y-76154500D01*
X81521441Y-76162518D01*
X81608157Y-76195026D01*
X81608159Y-76195026D01*
X81615552Y-76197798D01*
X81623402Y-76198651D01*
X81623403Y-76198651D01*
X81673847Y-76204131D01*
X81677244Y-76204500D01*
X82722756Y-76204500D01*
X82726153Y-76204131D01*
X82776597Y-76198651D01*
X82776598Y-76198651D01*
X82784448Y-76197798D01*
X82791841Y-76195026D01*
X82791843Y-76195026D01*
X82878559Y-76162518D01*
X82922788Y-76154500D01*
X83677212Y-76154500D01*
X83721441Y-76162518D01*
X83808157Y-76195026D01*
X83808159Y-76195026D01*
X83815552Y-76197798D01*
X83823402Y-76198651D01*
X83823403Y-76198651D01*
X83873847Y-76204131D01*
X83877244Y-76204500D01*
X84000000Y-76204500D01*
X84000000Y-79745500D01*
X68000000Y-79745500D01*
X68000000Y-76000000D01*
X68919501Y-76000000D01*
X68987622Y-76020002D01*
G37*
G04 #@! TD.AperFunction*
M02*
