M48
; DRILL file {KiCad (6.0.9)} date Mon Dec  5 09:31:57 2022
; FORMAT={-:-/ absolute / metric / decimal}
; #@! TF.CreationDate,2022-12-05T09:31:57+01:00
; #@! TF.GenerationSoftware,Kicad,Pcbnew,(6.0.9)
; #@! TF.FileFunction,Plated,1,2,PTH
FMAT,2
METRIC
; #@! TA.AperFunction,Plated,PTH,ViaDrill
T1C0.400
; #@! TA.AperFunction,Plated,PTH,ComponentDrill
T2C0.900
; #@! TA.AperFunction,Plated,PTH,ComponentDrill
T3C1.000
; #@! TA.AperFunction,Plated,PTH,ComponentDrill
T4C1.520
; #@! TA.AperFunction,Plated,PTH,ComponentDrill
T5C2.000
%
G90
G05
T1
X56.3Y-52.8
X62.5Y-57.65
X66.0Y-62.0
X66.0Y-69.0
X66.0Y-70.0
X66.0Y-71.0
X66.0Y-72.0
X66.0Y-75.0
X66.0Y-76.0
X66.0Y-77.0
X66.0Y-78.0
X67.605Y-47.68
X80.6Y-78.7
X81.5Y-48.0
X81.6Y-78.7
X82.6Y-78.7
X88.6Y-65.6
X93.0Y-56.75
X94.03Y-61.49
X96.2Y-73.2
X100.3Y-71.3
X101.9Y-48.95
X102.5Y-79.0
X105.2Y-55.4
X107.0Y-66.5
X108.2Y-71.8
X109.1Y-71.8
X110.2Y-57.7
X111.0Y-79.0
X112.0Y-66.5
X113.2Y-58.65
X116.55Y-49.35
X117.2Y-69.85
X118.0Y-79.0
X118.475Y-48.825
X119.825Y-74.2
X120.6Y-53.7
X121.3Y-58.9
X122.8Y-49.7
X124.45Y-47.925
X126.3Y-78.2
X129.1Y-78.2
X130.7Y-55.1
X131.45Y-53.025
X131.8Y-78.2
X134.35Y-58.4
X135.9Y-46.8
X137.1Y-66.4
X147.25Y-74.05
T2
X100.775Y-57.6
X100.775Y-60.1
X100.775Y-62.6
X100.775Y-65.1
X100.775Y-67.6
X119.075Y-57.6
X119.075Y-60.1
X119.075Y-62.6
X119.075Y-65.1
X119.075Y-67.6
T3
X87.594Y-48.9
X92.594Y-46.4
X92.594Y-51.4
X95.794Y-48.9
X98.0Y-56.175
X98.0Y-58.715
X98.0Y-61.255
X98.0Y-63.795
X98.0Y-66.335
X98.0Y-68.875
X100.794Y-46.4
X100.794Y-51.4
X103.994Y-48.9
X108.994Y-46.4
X108.994Y-51.4
X112.194Y-48.9
X117.194Y-46.4
X117.194Y-51.4
X132.55Y-69.95
X135.05Y-69.95
X137.55Y-69.95
T4
X62.5Y-65.46
X62.5Y-70.54
X147.85Y-65.46
X147.85Y-70.54
T5
X111.025Y-54.6
X111.025Y-70.6
T0
M30
