G04 #@! TF.GenerationSoftware,KiCad,Pcbnew,(6.0.10)*
G04 #@! TF.CreationDate,2022-12-26T18:22:21+01:00*
G04 #@! TF.ProjectId,HeaterPSU,48656174-6572-4505-9355-2e6b69636164,rev?*
G04 #@! TF.SameCoordinates,Original*
G04 #@! TF.FileFunction,Soldermask,Bot*
G04 #@! TF.FilePolarity,Negative*
%FSLAX46Y46*%
G04 Gerber Fmt 4.6, Leading zero omitted, Abs format (unit mm)*
G04 Created by KiCad (PCBNEW (6.0.10)) date 2022-12-26 18:22:21*
%MOMM*%
%LPD*%
G01*
G04 APERTURE LIST*
G04 Aperture macros list*
%AMRoundRect*
0 Rectangle with rounded corners*
0 $1 Rounding radius*
0 $2 $3 $4 $5 $6 $7 $8 $9 X,Y pos of 4 corners*
0 Add a 4 corners polygon primitive as box body*
4,1,4,$2,$3,$4,$5,$6,$7,$8,$9,$2,$3,0*
0 Add four circle primitives for the rounded corners*
1,1,$1+$1,$2,$3*
1,1,$1+$1,$4,$5*
1,1,$1+$1,$6,$7*
1,1,$1+$1,$8,$9*
0 Add four rect primitives between the rounded corners*
20,1,$1+$1,$2,$3,$4,$5,0*
20,1,$1+$1,$4,$5,$6,$7,0*
20,1,$1+$1,$6,$7,$8,$9,0*
20,1,$1+$1,$8,$9,$2,$3,0*%
G04 Aperture macros list end*
%ADD10RoundRect,0.237500X0.237500X-0.250000X0.237500X0.250000X-0.237500X0.250000X-0.237500X-0.250000X0*%
%ADD11R,1.200000X1.200000*%
%ADD12R,1.600000X1.500000*%
%ADD13RoundRect,0.237500X0.250000X0.237500X-0.250000X0.237500X-0.250000X-0.237500X0.250000X-0.237500X0*%
%ADD14RoundRect,0.237500X-0.237500X0.300000X-0.237500X-0.300000X0.237500X-0.300000X0.237500X0.300000X0*%
%ADD15C,3.200000*%
%ADD16C,4.000000*%
%ADD17C,1.800000*%
%ADD18R,1.700000X1.700000*%
%ADD19O,1.700000X1.700000*%
%ADD20RoundRect,0.250000X0.450000X-0.350000X0.450000X0.350000X-0.450000X0.350000X-0.450000X-0.350000X0*%
%ADD21RoundRect,0.250000X-0.450000X0.350000X-0.450000X-0.350000X0.450000X-0.350000X0.450000X0.350000X0*%
%ADD22C,1.400000*%
%ADD23C,3.000000*%
%ADD24RoundRect,0.250000X0.475000X-0.337500X0.475000X0.337500X-0.475000X0.337500X-0.475000X-0.337500X0*%
%ADD25RoundRect,0.250000X-0.350000X-0.450000X0.350000X-0.450000X0.350000X0.450000X-0.350000X0.450000X0*%
%ADD26R,1.100000X4.600000*%
%ADD27R,10.800000X9.400000*%
%ADD28RoundRect,0.250000X-1.000000X1.500000X-1.000000X-1.500000X1.000000X-1.500000X1.000000X1.500000X0*%
%ADD29RoundRect,0.250000X0.337500X0.475000X-0.337500X0.475000X-0.337500X-0.475000X0.337500X-0.475000X0*%
%ADD30R,1.560000X0.650000*%
%ADD31RoundRect,0.250000X0.350000X0.450000X-0.350000X0.450000X-0.350000X-0.450000X0.350000X-0.450000X0*%
%ADD32R,3.000000X3.000000*%
%ADD33R,5.400000X2.900000*%
%ADD34R,1.200000X0.600000*%
%ADD35R,4.000000X4.400000*%
%ADD36R,1.200000X0.900000*%
%ADD37RoundRect,0.249999X-0.450001X-1.425001X0.450001X-1.425001X0.450001X1.425001X-0.450001X1.425001X0*%
%ADD38R,2.200000X1.200000*%
%ADD39R,6.400000X5.800000*%
G04 APERTURE END LIST*
D10*
X132950000Y-70712500D03*
X132950000Y-68887500D03*
D11*
X106950000Y-67475000D03*
D12*
X105950000Y-64225000D03*
D11*
X104950000Y-67475000D03*
X115875000Y-67425000D03*
D12*
X114875000Y-64175000D03*
D11*
X113875000Y-67425000D03*
X115875000Y-58725000D03*
D12*
X114875000Y-55475000D03*
D11*
X113875000Y-58725000D03*
X106975000Y-58625000D03*
D12*
X105975000Y-55375000D03*
D11*
X104975000Y-58625000D03*
D13*
X151912500Y-54750000D03*
X150087500Y-54750000D03*
X147087500Y-50375000D03*
X145262500Y-50375000D03*
D14*
X142275000Y-52937500D03*
X142275000Y-54662500D03*
D15*
X151500000Y-48500000D03*
X58500000Y-76500000D03*
D16*
X137300000Y-49500000D03*
X137300000Y-58300000D03*
D17*
X130300000Y-56400000D03*
X130300000Y-53900000D03*
X130300000Y-51400000D03*
D16*
X137300000Y-66800000D03*
X137300000Y-75600000D03*
D17*
X130300000Y-73700000D03*
X130300000Y-71200000D03*
X130300000Y-68700000D03*
D18*
X123425000Y-53725000D03*
D19*
X123425000Y-56265000D03*
X123425000Y-58805000D03*
X123425000Y-61345000D03*
X123425000Y-63885000D03*
X123425000Y-66425000D03*
X123425000Y-68965000D03*
X123425000Y-71505000D03*
D20*
X109950000Y-66075000D03*
X109950000Y-64075000D03*
D21*
X126600000Y-52600000D03*
X126600000Y-54600000D03*
D15*
X58500000Y-48500000D03*
X151500000Y-76500000D03*
D20*
X126625000Y-58575000D03*
X126625000Y-56575000D03*
X98298000Y-61960000D03*
X98298000Y-59960000D03*
D22*
X100775000Y-67600000D03*
X100775000Y-65100000D03*
X100775000Y-62600000D03*
X100775000Y-60100000D03*
X100775000Y-57600000D03*
X119075000Y-57600000D03*
X119075000Y-60100000D03*
X119075000Y-62600000D03*
X119075000Y-65100000D03*
X119075000Y-67600000D03*
D23*
X111025000Y-54600000D03*
X111025000Y-70600000D03*
D24*
X98298000Y-66315500D03*
X98298000Y-64240500D03*
D25*
X113875000Y-60900000D03*
X115875000Y-60900000D03*
X104950000Y-69875000D03*
X106950000Y-69875000D03*
X104975000Y-60900000D03*
X106975000Y-60900000D03*
X113875000Y-69875000D03*
X115875000Y-69875000D03*
D26*
X74060000Y-65625000D03*
D27*
X76600000Y-74775000D03*
D26*
X79140000Y-65625000D03*
D28*
X91950000Y-63192500D03*
X91950000Y-69692500D03*
D26*
X80000000Y-59325000D03*
X78300000Y-59325000D03*
D27*
X76600000Y-50175000D03*
D26*
X76600000Y-59325000D03*
X74900000Y-59325000D03*
X73200000Y-59325000D03*
D29*
X86087500Y-61000000D03*
X84012500Y-61000000D03*
D30*
X144850000Y-54750000D03*
X144850000Y-53800000D03*
X144850000Y-52850000D03*
X147550000Y-52850000D03*
X147550000Y-53800000D03*
X147550000Y-54750000D03*
D31*
X86050000Y-69600000D03*
X84050000Y-69600000D03*
D32*
X62150000Y-70500000D03*
D23*
X62150000Y-65420000D03*
D33*
X90000000Y-48050000D03*
X90000000Y-57950000D03*
D24*
X69000000Y-60850000D03*
X69000000Y-58775000D03*
D21*
X97275000Y-73550000D03*
X97275000Y-75550000D03*
X86430000Y-73630000D03*
X86430000Y-75630000D03*
D34*
X144579000Y-59635000D03*
X144579000Y-60905000D03*
X144579000Y-58365000D03*
X144579000Y-57095000D03*
X150421000Y-59635000D03*
D35*
X148100000Y-59000000D03*
D34*
X150421000Y-57095000D03*
X150421000Y-58365000D03*
X150421000Y-60905000D03*
D28*
X62800000Y-54042500D03*
X62800000Y-60542500D03*
D36*
X85050000Y-63800000D03*
X85050000Y-67100000D03*
D37*
X88775000Y-74525000D03*
X94875000Y-74525000D03*
D38*
X107500000Y-46890000D03*
D39*
X101200000Y-49170000D03*
D38*
X107500000Y-51450000D03*
D32*
X148000000Y-65410000D03*
D23*
X148000000Y-70490000D03*
M02*
