G04 #@! TF.GenerationSoftware,KiCad,Pcbnew,(6.0.9)*
G04 #@! TF.CreationDate,2022-12-05T09:31:55+01:00*
G04 #@! TF.ProjectId,HeaterPSU,48656174-6572-4505-9355-2e6b69636164,rev?*
G04 #@! TF.SameCoordinates,Original*
G04 #@! TF.FileFunction,Soldermask,Top*
G04 #@! TF.FilePolarity,Negative*
%FSLAX46Y46*%
G04 Gerber Fmt 4.6, Leading zero omitted, Abs format (unit mm)*
G04 Created by KiCad (PCBNEW (6.0.9)) date 2022-12-05 09:31:55*
%MOMM*%
%LPD*%
G01*
G04 APERTURE LIST*
G04 Aperture macros list*
%AMRoundRect*
0 Rectangle with rounded corners*
0 $1 Rounding radius*
0 $2 $3 $4 $5 $6 $7 $8 $9 X,Y pos of 4 corners*
0 Add a 4 corners polygon primitive as box body*
4,1,4,$2,$3,$4,$5,$6,$7,$8,$9,$2,$3,0*
0 Add four circle primitives for the rounded corners*
1,1,$1+$1,$2,$3*
1,1,$1+$1,$4,$5*
1,1,$1+$1,$6,$7*
1,1,$1+$1,$8,$9*
0 Add four rect primitives between the rounded corners*
20,1,$1+$1,$2,$3,$4,$5,0*
20,1,$1+$1,$4,$5,$6,$7,0*
20,1,$1+$1,$6,$7,$8,$9,0*
20,1,$1+$1,$8,$9,$2,$3,0*%
G04 Aperture macros list end*
%ADD10C,3.200000*%
%ADD11RoundRect,0.250000X0.350000X0.450000X-0.350000X0.450000X-0.350000X-0.450000X0.350000X-0.450000X0*%
%ADD12C,4.000000*%
%ADD13C,1.800000*%
%ADD14R,1.700000X1.700000*%
%ADD15O,1.700000X1.700000*%
%ADD16RoundRect,0.150000X-0.587500X-0.150000X0.587500X-0.150000X0.587500X0.150000X-0.587500X0.150000X0*%
%ADD17C,1.400000*%
%ADD18C,3.000000*%
%ADD19R,1.550000X1.550000*%
%ADD20C,1.550000*%
%ADD21R,3.000000X3.000000*%
G04 APERTURE END LIST*
D10*
X151500000Y-48500000D03*
D11*
X119675000Y-50825000D03*
X121675000Y-50825000D03*
D10*
X58500000Y-76500000D03*
D12*
X130650000Y-62950000D03*
X139450000Y-62950000D03*
D13*
X137550000Y-69950000D03*
X135050000Y-69950000D03*
X132550000Y-69950000D03*
D14*
X98000000Y-56175000D03*
D15*
X98000000Y-58715000D03*
X98000000Y-61255000D03*
X98000000Y-63795000D03*
X98000000Y-66335000D03*
X98000000Y-68875000D03*
D10*
X58500000Y-48500000D03*
D16*
X121625000Y-47900000D03*
X119750000Y-48850000D03*
X119750000Y-46950000D03*
D10*
X151500000Y-76500000D03*
D11*
X130375000Y-50800000D03*
X128375000Y-50800000D03*
D16*
X125975000Y-47900000D03*
X124100000Y-48850000D03*
X124100000Y-46950000D03*
D11*
X123975000Y-50850000D03*
X125975000Y-50850000D03*
D17*
X100775000Y-67600000D03*
X100775000Y-65100000D03*
X100775000Y-62600000D03*
X100775000Y-60100000D03*
X100775000Y-57600000D03*
X119075000Y-57600000D03*
X119075000Y-60100000D03*
X119075000Y-62600000D03*
X119075000Y-65100000D03*
X119075000Y-67600000D03*
D18*
X111025000Y-54600000D03*
X111025000Y-70600000D03*
D16*
X128450000Y-46950000D03*
X128450000Y-48850000D03*
X130325000Y-47900000D03*
D19*
X100794058Y-51400000D03*
D20*
X95794058Y-48900000D03*
X100794058Y-46400000D03*
D21*
X147850000Y-65460000D03*
D18*
X147850000Y-70540000D03*
D19*
X108994058Y-51400000D03*
D20*
X103994058Y-48900000D03*
X108994058Y-46400000D03*
D19*
X117194058Y-51400000D03*
D20*
X112194058Y-48900000D03*
X117194058Y-46400000D03*
D19*
X92594058Y-51400000D03*
D20*
X87594058Y-48900000D03*
X92594058Y-46400000D03*
D21*
X62500000Y-70540000D03*
D18*
X62500000Y-65460000D03*
M02*
