M48
; DRILL file {KiCad (6.0.9)} date Mon Nov 14 17:10:30 2022
; FORMAT={-:-/ absolute / metric / decimal}
; #@! TF.CreationDate,2022-11-14T17:10:30+01:00
; #@! TF.GenerationSoftware,Kicad,Pcbnew,(6.0.9)
; #@! TF.FileFunction,Plated,1,2,PTH
FMAT,2
METRIC
; #@! TA.AperFunction,Plated,PTH,ViaDrill
T1C0.400
; #@! TA.AperFunction,Plated,PTH,ComponentDrill
T2C0.900
; #@! TA.AperFunction,Plated,PTH,ComponentDrill
T3C1.000
; #@! TA.AperFunction,Plated,PTH,ComponentDrill
T4C1.200
; #@! TA.AperFunction,Plated,PTH,ComponentDrill
T5C1.520
; #@! TA.AperFunction,Plated,PTH,ComponentDrill
T6C2.000
%
G90
G05
T1
X57.4Y-48.2
X58.45Y-77.2
X62.5Y-57.65
X62.65Y-54.15
X65.1Y-62.9
X65.5Y-70.6
X67.0Y-59.2
X68.2Y-51.5
X70.0Y-65.0
X72.0Y-54.35
X73.2Y-65.0
X74.2Y-66.1
X75.475Y-62.225
X75.6Y-69.0
X76.4Y-69.0
X77.45Y-47.55
X77.9Y-57.4
X78.0Y-55.1
X80.0Y-60.0
X80.0Y-67.2
X80.6Y-73.6
X83.25Y-54.25
X83.3Y-59.15
X83.35Y-56.75
X83.6Y-46.4
X86.15Y-78.9
X86.45Y-62.6
X87.0Y-69.0
X88.9Y-72.3
X89.0Y-59.0
X89.8Y-69.3
X90.65Y-75.05
X91.1Y-76.3
X93.6Y-56.9
X100.7Y-70.4
X101.3Y-76.3
X101.9Y-48.95
X102.2Y-61.45
X102.95Y-67.15
X110.2Y-57.7
X114.3Y-54.75
X114.7Y-64.1
X115.1Y-59.25
X116.55Y-49.35
X117.2Y-69.85
X121.15Y-66.7
X121.75Y-62.15
X126.65Y-56.3
X127.7Y-70.6
X128.9Y-66.0
X129.0Y-74.05
X132.95Y-49.75
X134.35Y-58.4
X135.1Y-77.95
X137.1Y-66.4
X140.55Y-47.25
X141.7Y-78.4
X142.35Y-69.15
X147.25Y-74.05
X149.95Y-53.25
X151.6Y-67.6
T2
X100.775Y-57.6
X100.775Y-60.1
X100.775Y-62.6
X100.775Y-65.1
X100.775Y-67.6
X119.075Y-57.6
X119.075Y-60.1
X119.075Y-62.6
X119.075Y-65.1
X119.075Y-67.6
T3
X60.2Y-52.88
X60.2Y-55.42
X60.2Y-58.53
X60.2Y-61.07
X92.0Y-63.38
X92.0Y-65.92
X92.0Y-68.46
X92.0Y-71.0
X94.54Y-63.38
X94.54Y-65.92
X94.54Y-68.46
X94.54Y-71.0
X96.197Y-48.95
X101.197Y-46.45
X101.197Y-51.45
X104.397Y-48.95
X109.397Y-46.45
X109.397Y-51.45
X112.597Y-48.95
X117.597Y-46.45
X117.597Y-51.45
X120.797Y-48.95
X125.797Y-46.45
X125.797Y-51.45
X132.55Y-69.45
X135.05Y-69.45
X137.55Y-69.45
T4
X131.3Y-77.0
X131.488Y-46.85
X131.488Y-54.45
X138.8Y-75.0
X144.188Y-46.85
X146.728Y-54.45
T5
X62.5Y-65.46
X62.5Y-70.54
X147.95Y-58.991
X147.95Y-64.072
X147.95Y-69.151
T6
X111.025Y-54.6
X111.025Y-70.6
T0
M30
