G04 #@! TF.GenerationSoftware,KiCad,Pcbnew,(6.0.8)*
G04 #@! TF.CreationDate,2022-10-30T12:57:40+01:00*
G04 #@! TF.ProjectId,HeaterPSU,48656174-6572-4505-9355-2e6b69636164,rev?*
G04 #@! TF.SameCoordinates,Original*
G04 #@! TF.FileFunction,Soldermask,Bot*
G04 #@! TF.FilePolarity,Negative*
%FSLAX46Y46*%
G04 Gerber Fmt 4.6, Leading zero omitted, Abs format (unit mm)*
G04 Created by KiCad (PCBNEW (6.0.8)) date 2022-10-30 12:57:40*
%MOMM*%
%LPD*%
G01*
G04 APERTURE LIST*
G04 Aperture macros list*
%AMRoundRect*
0 Rectangle with rounded corners*
0 $1 Rounding radius*
0 $2 $3 $4 $5 $6 $7 $8 $9 X,Y pos of 4 corners*
0 Add a 4 corners polygon primitive as box body*
4,1,4,$2,$3,$4,$5,$6,$7,$8,$9,$2,$3,0*
0 Add four circle primitives for the rounded corners*
1,1,$1+$1,$2,$3*
1,1,$1+$1,$4,$5*
1,1,$1+$1,$6,$7*
1,1,$1+$1,$8,$9*
0 Add four rect primitives between the rounded corners*
20,1,$1+$1,$2,$3,$4,$5,0*
20,1,$1+$1,$4,$5,$6,$7,0*
20,1,$1+$1,$6,$7,$8,$9,0*
20,1,$1+$1,$8,$9,$2,$3,0*%
G04 Aperture macros list end*
%ADD10C,3.200000*%
%ADD11C,4.000000*%
%ADD12C,1.800000*%
%ADD13R,1.700000X1.700000*%
%ADD14O,1.700000X1.700000*%
%ADD15C,3.000000*%
%ADD16C,1.400000*%
%ADD17R,2.500000X2.500000*%
%ADD18O,2.500000X2.500000*%
%ADD19R,1.550000X1.550000*%
%ADD20C,1.550000*%
%ADD21RoundRect,0.250000X-0.350000X-0.450000X0.350000X-0.450000X0.350000X0.450000X-0.350000X0.450000X0*%
%ADD22R,2.000000X3.800000*%
%ADD23RoundRect,0.250000X-0.325000X-0.450000X0.325000X-0.450000X0.325000X0.450000X-0.325000X0.450000X0*%
%ADD24RoundRect,0.250000X0.400000X1.075000X-0.400000X1.075000X-0.400000X-1.075000X0.400000X-1.075000X0*%
%ADD25RoundRect,0.250000X-0.337500X-0.475000X0.337500X-0.475000X0.337500X0.475000X-0.337500X0.475000X0*%
%ADD26RoundRect,0.250000X0.475000X-0.337500X0.475000X0.337500X-0.475000X0.337500X-0.475000X-0.337500X0*%
%ADD27R,3.000000X3.000000*%
%ADD28R,2.200000X1.700000*%
%ADD29O,2.200000X1.700000*%
%ADD30R,1.560000X0.650000*%
%ADD31R,1.200000X0.900000*%
%ADD32RoundRect,0.249999X-0.450001X-1.425001X0.450001X-1.425001X0.450001X1.425001X-0.450001X1.425001X0*%
%ADD33RoundRect,0.250000X0.350000X0.450000X-0.350000X0.450000X-0.350000X-0.450000X0.350000X-0.450000X0*%
G04 APERTURE END LIST*
D10*
X151500000Y-48500000D03*
X65000000Y-76500000D03*
D11*
X130650000Y-62450000D03*
X139450000Y-62450000D03*
D12*
X137550000Y-69450000D03*
X135050000Y-69450000D03*
X132550000Y-69450000D03*
D13*
X92000000Y-71000000D03*
D14*
X94540000Y-71000000D03*
X92000000Y-68460000D03*
X94540000Y-68460000D03*
X92000000Y-65920000D03*
X94540000Y-65920000D03*
X92000000Y-63380000D03*
X94540000Y-63380000D03*
D10*
X65000000Y-48500000D03*
X151500000Y-76500000D03*
D15*
X111025000Y-70600000D03*
X111025000Y-54600000D03*
D16*
X119075000Y-67600000D03*
X119075000Y-65100000D03*
X119075000Y-62600000D03*
X119075000Y-60100000D03*
X119075000Y-57600000D03*
X100775000Y-57600000D03*
X100775000Y-60100000D03*
X100775000Y-62600000D03*
X100775000Y-65100000D03*
X100775000Y-67600000D03*
D17*
X131487719Y-46850000D03*
D18*
X131487719Y-54450000D03*
X144187719Y-46850000D03*
X146727719Y-54450000D03*
D19*
X109397239Y-51450000D03*
D20*
X104397239Y-48950000D03*
X109397239Y-46450000D03*
D21*
X82200000Y-72526000D03*
X84200000Y-72526000D03*
D22*
X70300000Y-75400000D03*
X78800000Y-75400000D03*
D21*
X82200000Y-64600000D03*
X84200000Y-64600000D03*
D23*
X79175000Y-47550000D03*
X81225000Y-47550000D03*
D24*
X76050000Y-51150000D03*
X72950000Y-51150000D03*
D25*
X82125000Y-67252000D03*
X84200000Y-67252000D03*
D21*
X103800000Y-65000000D03*
X105800000Y-65000000D03*
D26*
X82200000Y-77437500D03*
X82200000Y-75362500D03*
X84400000Y-77437500D03*
X84400000Y-75362500D03*
D27*
X147950000Y-58991500D03*
D15*
X147950000Y-64071500D03*
X147950000Y-69151500D03*
D28*
X60200000Y-52880000D03*
D29*
X60200000Y-55420000D03*
D30*
X76050000Y-68112500D03*
X76050000Y-67162500D03*
X76050000Y-66212500D03*
X78750000Y-66212500D03*
X78750000Y-67162500D03*
X78750000Y-68112500D03*
D24*
X81350000Y-51150000D03*
X78250000Y-51150000D03*
D25*
X76125000Y-63562500D03*
X78200000Y-63562500D03*
D19*
X117597239Y-51450000D03*
D20*
X112597239Y-48950000D03*
X117597239Y-46450000D03*
D21*
X103800000Y-60000000D03*
X105800000Y-60000000D03*
D19*
X125797239Y-51450000D03*
D20*
X120797239Y-48950000D03*
X125797239Y-46450000D03*
D26*
X70000000Y-68200000D03*
X70000000Y-66125000D03*
D28*
X60200000Y-58530000D03*
D29*
X60200000Y-61070000D03*
D12*
X131300000Y-77000000D03*
X138800000Y-74800000D03*
D23*
X73475000Y-47550000D03*
X75525000Y-47550000D03*
D19*
X101197239Y-51450000D03*
D20*
X96197239Y-48950000D03*
X101197239Y-46450000D03*
D21*
X103800000Y-62600000D03*
X105800000Y-62600000D03*
X103800000Y-57400000D03*
X105800000Y-57400000D03*
D26*
X72400000Y-68200000D03*
X72400000Y-66125000D03*
D31*
X69950000Y-47550000D03*
X69950000Y-50850000D03*
D32*
X87750000Y-76100000D03*
X93850000Y-76100000D03*
D33*
X84200000Y-69904000D03*
X82200000Y-69904000D03*
D27*
X62500000Y-70540000D03*
D15*
X62500000Y-65460000D03*
M02*
