G04 #@! TF.GenerationSoftware,KiCad,Pcbnew,(6.0.9)*
G04 #@! TF.CreationDate,2022-12-04T16:35:20+01:00*
G04 #@! TF.ProjectId,HeaterPSU,48656174-6572-4505-9355-2e6b69636164,rev?*
G04 #@! TF.SameCoordinates,Original*
G04 #@! TF.FileFunction,Legend,Bot*
G04 #@! TF.FilePolarity,Positive*
%FSLAX46Y46*%
G04 Gerber Fmt 4.6, Leading zero omitted, Abs format (unit mm)*
G04 Created by KiCad (PCBNEW (6.0.9)) date 2022-12-04 16:35:20*
%MOMM*%
%LPD*%
G01*
G04 APERTURE LIST*
G04 Aperture macros list*
%AMRoundRect*
0 Rectangle with rounded corners*
0 $1 Rounding radius*
0 $2 $3 $4 $5 $6 $7 $8 $9 X,Y pos of 4 corners*
0 Add a 4 corners polygon primitive as box body*
4,1,4,$2,$3,$4,$5,$6,$7,$8,$9,$2,$3,0*
0 Add four circle primitives for the rounded corners*
1,1,$1+$1,$2,$3*
1,1,$1+$1,$4,$5*
1,1,$1+$1,$6,$7*
1,1,$1+$1,$8,$9*
0 Add four rect primitives between the rounded corners*
20,1,$1+$1,$2,$3,$4,$5,0*
20,1,$1+$1,$4,$5,$6,$7,0*
20,1,$1+$1,$6,$7,$8,$9,0*
20,1,$1+$1,$8,$9,$2,$3,0*%
G04 Aperture macros list end*
%ADD10C,0.150000*%
%ADD11C,0.300000*%
%ADD12C,0.100000*%
%ADD13C,0.120000*%
%ADD14RoundRect,0.250000X-0.337500X-0.475000X0.337500X-0.475000X0.337500X0.475000X-0.337500X0.475000X0*%
%ADD15RoundRect,0.250000X0.475000X-0.337500X0.475000X0.337500X-0.475000X0.337500X-0.475000X-0.337500X0*%
%ADD16RoundRect,0.250000X0.337500X0.475000X-0.337500X0.475000X-0.337500X-0.475000X0.337500X-0.475000X0*%
%ADD17C,3.200000*%
%ADD18C,4.000000*%
%ADD19C,1.800000*%
%ADD20RoundRect,0.250000X0.450000X-0.350000X0.450000X0.350000X-0.450000X0.350000X-0.450000X-0.350000X0*%
%ADD21R,1.700000X1.700000*%
%ADD22O,1.700000X1.700000*%
%ADD23R,4.600000X1.100000*%
%ADD24R,9.400000X10.800000*%
%ADD25RoundRect,0.250000X-1.075000X0.400000X-1.075000X-0.400000X1.075000X-0.400000X1.075000X0.400000X0*%
%ADD26C,1.400000*%
%ADD27C,3.000000*%
%ADD28RoundRect,0.249999X1.425001X-0.450001X1.425001X0.450001X-1.425001X0.450001X-1.425001X-0.450001X0*%
%ADD29R,1.550000X1.550000*%
%ADD30C,1.550000*%
%ADD31RoundRect,0.250000X-0.350000X-0.450000X0.350000X-0.450000X0.350000X0.450000X-0.350000X0.450000X0*%
%ADD32R,3.500000X4.000000*%
%ADD33RoundRect,0.250000X-0.325000X-0.450000X0.325000X-0.450000X0.325000X0.450000X-0.325000X0.450000X0*%
%ADD34RoundRect,0.250000X0.400000X1.075000X-0.400000X1.075000X-0.400000X-1.075000X0.400000X-1.075000X0*%
%ADD35RoundRect,0.250000X-0.450000X0.350000X-0.450000X-0.350000X0.450000X-0.350000X0.450000X0.350000X0*%
%ADD36R,3.000000X3.000000*%
%ADD37R,1.560000X0.650000*%
%ADD38R,1.200000X0.900000*%
%ADD39R,0.900000X1.200000*%
%ADD40RoundRect,0.250000X0.350000X0.450000X-0.350000X0.450000X-0.350000X-0.450000X0.350000X-0.450000X0*%
G04 APERTURE END LIST*
D10*
X57147619Y-71240476D02*
X57147619Y-71145238D01*
X57100000Y-71050000D01*
X57052380Y-71002380D01*
X56957142Y-70954761D01*
X56766666Y-70907142D01*
X56528571Y-70907142D01*
X56338095Y-70954761D01*
X56242857Y-71002380D01*
X56195238Y-71050000D01*
X56147619Y-71145238D01*
X56147619Y-71240476D01*
X56195238Y-71335714D01*
X56242857Y-71383333D01*
X56338095Y-71430952D01*
X56528571Y-71478571D01*
X56766666Y-71478571D01*
X56957142Y-71430952D01*
X57052380Y-71383333D01*
X57100000Y-71335714D01*
X57147619Y-71240476D01*
X56528571Y-68192857D02*
X56528571Y-67430952D01*
X56147619Y-67811904D02*
X56909523Y-67811904D01*
X56147619Y-66430952D02*
X56147619Y-67002380D01*
X56147619Y-66716666D02*
X57147619Y-66716666D01*
X57004761Y-66811904D01*
X56909523Y-66907142D01*
X56861904Y-67002380D01*
X56147619Y-65954761D02*
X56147619Y-65764285D01*
X56195238Y-65669047D01*
X56242857Y-65621428D01*
X56385714Y-65526190D01*
X56576190Y-65478571D01*
X56957142Y-65478571D01*
X57052380Y-65526190D01*
X57100000Y-65573809D01*
X57147619Y-65669047D01*
X57147619Y-65859523D01*
X57100000Y-65954761D01*
X57052380Y-66002380D01*
X56957142Y-66050000D01*
X56719047Y-66050000D01*
X56623809Y-66002380D01*
X56576190Y-65954761D01*
X56528571Y-65859523D01*
X56528571Y-65669047D01*
X56576190Y-65573809D01*
X56623809Y-65526190D01*
X56719047Y-65478571D01*
X57147619Y-65192857D02*
X56147619Y-64859523D01*
X57147619Y-64526190D01*
D11*
X109750000Y-72485714D02*
X109678571Y-72557142D01*
X109750000Y-72628571D01*
X109821428Y-72557142D01*
X109750000Y-72485714D01*
X109750000Y-72628571D01*
D10*
X77000000Y-46352380D02*
X77000000Y-45352380D01*
X76619047Y-45352380D01*
X76523809Y-45400000D01*
X76476190Y-45447619D01*
X76428571Y-45542857D01*
X76428571Y-45685714D01*
X76476190Y-45780952D01*
X76523809Y-45828571D01*
X76619047Y-45876190D01*
X77000000Y-45876190D01*
X75857142Y-46352380D02*
X75952380Y-46304761D01*
X76000000Y-46257142D01*
X76047619Y-46161904D01*
X76047619Y-45876190D01*
X76000000Y-45780952D01*
X75952380Y-45733333D01*
X75857142Y-45685714D01*
X75714285Y-45685714D01*
X75619047Y-45733333D01*
X75571428Y-45780952D01*
X75523809Y-45876190D01*
X75523809Y-46161904D01*
X75571428Y-46257142D01*
X75619047Y-46304761D01*
X75714285Y-46352380D01*
X75857142Y-46352380D01*
X74952380Y-46352380D02*
X75047619Y-46304761D01*
X75095238Y-46209523D01*
X75095238Y-45352380D01*
X74571428Y-46257142D02*
X74523809Y-46304761D01*
X74571428Y-46352380D01*
X74619047Y-46304761D01*
X74571428Y-46257142D01*
X74571428Y-46352380D01*
X73714285Y-46304761D02*
X73809523Y-46352380D01*
X74000000Y-46352380D01*
X74095238Y-46304761D01*
X74142857Y-46209523D01*
X74142857Y-45828571D01*
X74095238Y-45733333D01*
X74000000Y-45685714D01*
X73809523Y-45685714D01*
X73714285Y-45733333D01*
X73666666Y-45828571D01*
X73666666Y-45923809D01*
X74142857Y-46019047D01*
X73238095Y-46352380D02*
X73238095Y-45685714D01*
X73238095Y-45876190D02*
X73190476Y-45780952D01*
X73142857Y-45733333D01*
X73047619Y-45685714D01*
X72952380Y-45685714D01*
X72619047Y-46352380D02*
X72619047Y-45685714D01*
X72619047Y-45876190D02*
X72571428Y-45780952D01*
X72523809Y-45733333D01*
X72428571Y-45685714D01*
X72333333Y-45685714D01*
X72000000Y-46257142D02*
X71952380Y-46304761D01*
X72000000Y-46352380D01*
X72047619Y-46304761D01*
X72000000Y-46257142D01*
X72000000Y-46352380D01*
X151561904Y-72802380D02*
X151561904Y-71802380D01*
X151561904Y-72278571D02*
X150990476Y-72278571D01*
X150990476Y-72802380D02*
X150990476Y-71802380D01*
X150133333Y-72754761D02*
X150228571Y-72802380D01*
X150419047Y-72802380D01*
X150514285Y-72754761D01*
X150561904Y-72659523D01*
X150561904Y-72278571D01*
X150514285Y-72183333D01*
X150419047Y-72135714D01*
X150228571Y-72135714D01*
X150133333Y-72183333D01*
X150085714Y-72278571D01*
X150085714Y-72373809D01*
X150561904Y-72469047D01*
X149228571Y-72802380D02*
X149228571Y-72278571D01*
X149276190Y-72183333D01*
X149371428Y-72135714D01*
X149561904Y-72135714D01*
X149657142Y-72183333D01*
X149228571Y-72754761D02*
X149323809Y-72802380D01*
X149561904Y-72802380D01*
X149657142Y-72754761D01*
X149704761Y-72659523D01*
X149704761Y-72564285D01*
X149657142Y-72469047D01*
X149561904Y-72421428D01*
X149323809Y-72421428D01*
X149228571Y-72373809D01*
X148895238Y-72135714D02*
X148514285Y-72135714D01*
X148752380Y-71802380D02*
X148752380Y-72659523D01*
X148704761Y-72754761D01*
X148609523Y-72802380D01*
X148514285Y-72802380D01*
X147800000Y-72754761D02*
X147895238Y-72802380D01*
X148085714Y-72802380D01*
X148180952Y-72754761D01*
X148228571Y-72659523D01*
X148228571Y-72278571D01*
X148180952Y-72183333D01*
X148085714Y-72135714D01*
X147895238Y-72135714D01*
X147800000Y-72183333D01*
X147752380Y-72278571D01*
X147752380Y-72373809D01*
X148228571Y-72469047D01*
X147323809Y-72802380D02*
X147323809Y-72135714D01*
X147323809Y-72326190D02*
X147276190Y-72230952D01*
X147228571Y-72183333D01*
X147133333Y-72135714D01*
X147038095Y-72135714D01*
X145800000Y-72802380D02*
X145895238Y-72754761D01*
X145942857Y-72707142D01*
X145990476Y-72611904D01*
X145990476Y-72326190D01*
X145942857Y-72230952D01*
X145895238Y-72183333D01*
X145800000Y-72135714D01*
X145657142Y-72135714D01*
X145561904Y-72183333D01*
X145514285Y-72230952D01*
X145466666Y-72326190D01*
X145466666Y-72611904D01*
X145514285Y-72707142D01*
X145561904Y-72754761D01*
X145657142Y-72802380D01*
X145800000Y-72802380D01*
X144609523Y-72135714D02*
X144609523Y-72802380D01*
X145038095Y-72135714D02*
X145038095Y-72659523D01*
X144990476Y-72754761D01*
X144895238Y-72802380D01*
X144752380Y-72802380D01*
X144657142Y-72754761D01*
X144609523Y-72707142D01*
X144276190Y-72135714D02*
X143895238Y-72135714D01*
X144133333Y-71802380D02*
X144133333Y-72659523D01*
X144085714Y-72754761D01*
X143990476Y-72802380D01*
X143895238Y-72802380D01*
X64238095Y-62452380D02*
X64238095Y-61452380D01*
X63857142Y-61452380D01*
X63761904Y-61500000D01*
X63714285Y-61547619D01*
X63666666Y-61642857D01*
X63666666Y-61785714D01*
X63714285Y-61880952D01*
X63761904Y-61928571D01*
X63857142Y-61976190D01*
X64238095Y-61976190D01*
X63285714Y-62404761D02*
X63142857Y-62452380D01*
X62904761Y-62452380D01*
X62809523Y-62404761D01*
X62761904Y-62357142D01*
X62714285Y-62261904D01*
X62714285Y-62166666D01*
X62761904Y-62071428D01*
X62809523Y-62023809D01*
X62904761Y-61976190D01*
X63095238Y-61928571D01*
X63190476Y-61880952D01*
X63238095Y-61833333D01*
X63285714Y-61738095D01*
X63285714Y-61642857D01*
X63238095Y-61547619D01*
X63190476Y-61500000D01*
X63095238Y-61452380D01*
X62857142Y-61452380D01*
X62714285Y-61500000D01*
X62285714Y-61452380D02*
X62285714Y-62261904D01*
X62238095Y-62357142D01*
X62190476Y-62404761D01*
X62095238Y-62452380D01*
X61904761Y-62452380D01*
X61809523Y-62404761D01*
X61761904Y-62357142D01*
X61714285Y-62261904D01*
X61714285Y-61452380D01*
X61285714Y-61547619D02*
X61238095Y-61500000D01*
X61142857Y-61452380D01*
X60904761Y-61452380D01*
X60809523Y-61500000D01*
X60761904Y-61547619D01*
X60714285Y-61642857D01*
X60714285Y-61738095D01*
X60761904Y-61880952D01*
X61333333Y-62452380D01*
X60714285Y-62452380D01*
X82176190Y-46352380D02*
X82176190Y-45352380D01*
X81795238Y-45352380D01*
X81700000Y-45400000D01*
X81652380Y-45447619D01*
X81604761Y-45542857D01*
X81604761Y-45685714D01*
X81652380Y-45780952D01*
X81700000Y-45828571D01*
X81795238Y-45876190D01*
X82176190Y-45876190D01*
X81033333Y-46352380D02*
X81128571Y-46304761D01*
X81176190Y-46257142D01*
X81223809Y-46161904D01*
X81223809Y-45876190D01*
X81176190Y-45780952D01*
X81128571Y-45733333D01*
X81033333Y-45685714D01*
X80890476Y-45685714D01*
X80795238Y-45733333D01*
X80747619Y-45780952D01*
X80700000Y-45876190D01*
X80700000Y-46161904D01*
X80747619Y-46257142D01*
X80795238Y-46304761D01*
X80890476Y-46352380D01*
X81033333Y-46352380D01*
X80366666Y-45685714D02*
X80176190Y-46352380D01*
X79985714Y-45876190D01*
X79795238Y-46352380D01*
X79604761Y-45685714D01*
X78842857Y-46304761D02*
X78938095Y-46352380D01*
X79128571Y-46352380D01*
X79223809Y-46304761D01*
X79271428Y-46209523D01*
X79271428Y-45828571D01*
X79223809Y-45733333D01*
X79128571Y-45685714D01*
X78938095Y-45685714D01*
X78842857Y-45733333D01*
X78795238Y-45828571D01*
X78795238Y-45923809D01*
X79271428Y-46019047D01*
X78366666Y-46352380D02*
X78366666Y-45685714D01*
X78366666Y-45876190D02*
X78319047Y-45780952D01*
X78271428Y-45733333D01*
X78176190Y-45685714D01*
X78080952Y-45685714D01*
D12*
X124395238Y-55515714D02*
X124433333Y-55553809D01*
X124547619Y-55591904D01*
X124623809Y-55591904D01*
X124738095Y-55553809D01*
X124814285Y-55477619D01*
X124852380Y-55401428D01*
X124890476Y-55249047D01*
X124890476Y-55134761D01*
X124852380Y-54982380D01*
X124814285Y-54906190D01*
X124738095Y-54830000D01*
X124623809Y-54791904D01*
X124547619Y-54791904D01*
X124433333Y-54830000D01*
X124395238Y-54868095D01*
X124090476Y-54868095D02*
X124052380Y-54830000D01*
X123976190Y-54791904D01*
X123785714Y-54791904D01*
X123709523Y-54830000D01*
X123671428Y-54868095D01*
X123633333Y-54944285D01*
X123633333Y-55020476D01*
X123671428Y-55134761D01*
X124128571Y-55591904D01*
X123633333Y-55591904D01*
X123138095Y-54791904D02*
X123061904Y-54791904D01*
X122985714Y-54830000D01*
X122947619Y-54868095D01*
X122909523Y-54944285D01*
X122871428Y-55096666D01*
X122871428Y-55287142D01*
X122909523Y-55439523D01*
X122947619Y-55515714D01*
X122985714Y-55553809D01*
X123061904Y-55591904D01*
X123138095Y-55591904D01*
X123214285Y-55553809D01*
X123252380Y-55515714D01*
X123290476Y-55439523D01*
X123328571Y-55287142D01*
X123328571Y-55096666D01*
X123290476Y-54944285D01*
X123252380Y-54868095D01*
X123214285Y-54830000D01*
X123138095Y-54791904D01*
X122185714Y-55058571D02*
X122185714Y-55591904D01*
X122376190Y-54753809D02*
X122566666Y-55325238D01*
X122071428Y-55325238D01*
X124395238Y-58435714D02*
X124433333Y-58473809D01*
X124547619Y-58511904D01*
X124623809Y-58511904D01*
X124738095Y-58473809D01*
X124814285Y-58397619D01*
X124852380Y-58321428D01*
X124890476Y-58169047D01*
X124890476Y-58054761D01*
X124852380Y-57902380D01*
X124814285Y-57826190D01*
X124738095Y-57750000D01*
X124623809Y-57711904D01*
X124547619Y-57711904D01*
X124433333Y-57750000D01*
X124395238Y-57788095D01*
X124090476Y-57788095D02*
X124052380Y-57750000D01*
X123976190Y-57711904D01*
X123785714Y-57711904D01*
X123709523Y-57750000D01*
X123671428Y-57788095D01*
X123633333Y-57864285D01*
X123633333Y-57940476D01*
X123671428Y-58054761D01*
X124128571Y-58511904D01*
X123633333Y-58511904D01*
X123138095Y-57711904D02*
X123061904Y-57711904D01*
X122985714Y-57750000D01*
X122947619Y-57788095D01*
X122909523Y-57864285D01*
X122871428Y-58016666D01*
X122871428Y-58207142D01*
X122909523Y-58359523D01*
X122947619Y-58435714D01*
X122985714Y-58473809D01*
X123061904Y-58511904D01*
X123138095Y-58511904D01*
X123214285Y-58473809D01*
X123252380Y-58435714D01*
X123290476Y-58359523D01*
X123328571Y-58207142D01*
X123328571Y-58016666D01*
X123290476Y-57864285D01*
X123252380Y-57788095D01*
X123214285Y-57750000D01*
X123138095Y-57711904D01*
X122604761Y-57711904D02*
X122109523Y-57711904D01*
X122376190Y-58016666D01*
X122261904Y-58016666D01*
X122185714Y-58054761D01*
X122147619Y-58092857D01*
X122109523Y-58169047D01*
X122109523Y-58359523D01*
X122147619Y-58435714D01*
X122185714Y-58473809D01*
X122261904Y-58511904D01*
X122490476Y-58511904D01*
X122566666Y-58473809D01*
X122604761Y-58435714D01*
X133485714Y-74404761D02*
X133523809Y-74366666D01*
X133561904Y-74252380D01*
X133561904Y-74176190D01*
X133523809Y-74061904D01*
X133447619Y-73985714D01*
X133371428Y-73947619D01*
X133219047Y-73909523D01*
X133104761Y-73909523D01*
X132952380Y-73947619D01*
X132876190Y-73985714D01*
X132800000Y-74061904D01*
X132761904Y-74176190D01*
X132761904Y-74252380D01*
X132800000Y-74366666D01*
X132838095Y-74404761D01*
X132838095Y-74709523D02*
X132800000Y-74747619D01*
X132761904Y-74823809D01*
X132761904Y-75014285D01*
X132800000Y-75090476D01*
X132838095Y-75128571D01*
X132914285Y-75166666D01*
X132990476Y-75166666D01*
X133104761Y-75128571D01*
X133561904Y-74671428D01*
X133561904Y-75166666D01*
X132761904Y-75661904D02*
X132761904Y-75738095D01*
X132800000Y-75814285D01*
X132838095Y-75852380D01*
X132914285Y-75890476D01*
X133066666Y-75928571D01*
X133257142Y-75928571D01*
X133409523Y-75890476D01*
X133485714Y-75852380D01*
X133523809Y-75814285D01*
X133561904Y-75738095D01*
X133561904Y-75661904D01*
X133523809Y-75585714D01*
X133485714Y-75547619D01*
X133409523Y-75509523D01*
X133257142Y-75471428D01*
X133066666Y-75471428D01*
X132914285Y-75509523D01*
X132838095Y-75547619D01*
X132800000Y-75585714D01*
X132761904Y-75661904D01*
X132761904Y-76614285D02*
X132761904Y-76461904D01*
X132800000Y-76385714D01*
X132838095Y-76347619D01*
X132952380Y-76271428D01*
X133104761Y-76233333D01*
X133409523Y-76233333D01*
X133485714Y-76271428D01*
X133523809Y-76309523D01*
X133561904Y-76385714D01*
X133561904Y-76538095D01*
X133523809Y-76614285D01*
X133485714Y-76652380D01*
X133409523Y-76690476D01*
X133219047Y-76690476D01*
X133142857Y-76652380D01*
X133104761Y-76614285D01*
X133066666Y-76538095D01*
X133066666Y-76385714D01*
X133104761Y-76309523D01*
X133142857Y-76271428D01*
X133219047Y-76233333D01*
X129095238Y-58435714D02*
X129133333Y-58473809D01*
X129247619Y-58511904D01*
X129323809Y-58511904D01*
X129438095Y-58473809D01*
X129514285Y-58397619D01*
X129552380Y-58321428D01*
X129590476Y-58169047D01*
X129590476Y-58054761D01*
X129552380Y-57902380D01*
X129514285Y-57826190D01*
X129438095Y-57750000D01*
X129323809Y-57711904D01*
X129247619Y-57711904D01*
X129133333Y-57750000D01*
X129095238Y-57788095D01*
X128790476Y-57788095D02*
X128752380Y-57750000D01*
X128676190Y-57711904D01*
X128485714Y-57711904D01*
X128409523Y-57750000D01*
X128371428Y-57788095D01*
X128333333Y-57864285D01*
X128333333Y-57940476D01*
X128371428Y-58054761D01*
X128828571Y-58511904D01*
X128333333Y-58511904D01*
X127838095Y-57711904D02*
X127761904Y-57711904D01*
X127685714Y-57750000D01*
X127647619Y-57788095D01*
X127609523Y-57864285D01*
X127571428Y-58016666D01*
X127571428Y-58207142D01*
X127609523Y-58359523D01*
X127647619Y-58435714D01*
X127685714Y-58473809D01*
X127761904Y-58511904D01*
X127838095Y-58511904D01*
X127914285Y-58473809D01*
X127952380Y-58435714D01*
X127990476Y-58359523D01*
X128028571Y-58207142D01*
X128028571Y-58016666D01*
X127990476Y-57864285D01*
X127952380Y-57788095D01*
X127914285Y-57750000D01*
X127838095Y-57711904D01*
X127266666Y-57788095D02*
X127228571Y-57750000D01*
X127152380Y-57711904D01*
X126961904Y-57711904D01*
X126885714Y-57750000D01*
X126847619Y-57788095D01*
X126809523Y-57864285D01*
X126809523Y-57940476D01*
X126847619Y-58054761D01*
X127304761Y-58511904D01*
X126809523Y-58511904D01*
X129045238Y-55385714D02*
X129083333Y-55423809D01*
X129197619Y-55461904D01*
X129273809Y-55461904D01*
X129388095Y-55423809D01*
X129464285Y-55347619D01*
X129502380Y-55271428D01*
X129540476Y-55119047D01*
X129540476Y-55004761D01*
X129502380Y-54852380D01*
X129464285Y-54776190D01*
X129388095Y-54700000D01*
X129273809Y-54661904D01*
X129197619Y-54661904D01*
X129083333Y-54700000D01*
X129045238Y-54738095D01*
X128740476Y-54738095D02*
X128702380Y-54700000D01*
X128626190Y-54661904D01*
X128435714Y-54661904D01*
X128359523Y-54700000D01*
X128321428Y-54738095D01*
X128283333Y-54814285D01*
X128283333Y-54890476D01*
X128321428Y-55004761D01*
X128778571Y-55461904D01*
X128283333Y-55461904D01*
X127788095Y-54661904D02*
X127711904Y-54661904D01*
X127635714Y-54700000D01*
X127597619Y-54738095D01*
X127559523Y-54814285D01*
X127521428Y-54966666D01*
X127521428Y-55157142D01*
X127559523Y-55309523D01*
X127597619Y-55385714D01*
X127635714Y-55423809D01*
X127711904Y-55461904D01*
X127788095Y-55461904D01*
X127864285Y-55423809D01*
X127902380Y-55385714D01*
X127940476Y-55309523D01*
X127978571Y-55157142D01*
X127978571Y-54966666D01*
X127940476Y-54814285D01*
X127902380Y-54738095D01*
X127864285Y-54700000D01*
X127788095Y-54661904D01*
X126759523Y-55461904D02*
X127216666Y-55461904D01*
X126988095Y-55461904D02*
X126988095Y-54661904D01*
X127064285Y-54776190D01*
X127140476Y-54852380D01*
X127216666Y-54890476D01*
X93386904Y-66904761D02*
X93005952Y-66638095D01*
X93386904Y-66447619D02*
X92586904Y-66447619D01*
X92586904Y-66752380D01*
X92625000Y-66828571D01*
X92663095Y-66866666D01*
X92739285Y-66904761D01*
X92853571Y-66904761D01*
X92929761Y-66866666D01*
X92967857Y-66828571D01*
X93005952Y-66752380D01*
X93005952Y-66447619D01*
X92663095Y-67209523D02*
X92625000Y-67247619D01*
X92586904Y-67323809D01*
X92586904Y-67514285D01*
X92625000Y-67590476D01*
X92663095Y-67628571D01*
X92739285Y-67666666D01*
X92815476Y-67666666D01*
X92929761Y-67628571D01*
X93386904Y-67171428D01*
X93386904Y-67666666D01*
X93386904Y-68428571D02*
X93386904Y-67971428D01*
X93386904Y-68200000D02*
X92586904Y-68200000D01*
X92701190Y-68123809D01*
X92777380Y-68047619D01*
X92815476Y-67971428D01*
X93386904Y-69190476D02*
X93386904Y-68733333D01*
X93386904Y-68961904D02*
X92586904Y-68961904D01*
X92701190Y-68885714D01*
X92777380Y-68809523D01*
X92815476Y-68733333D01*
X140738095Y-58038095D02*
X140814285Y-58000000D01*
X140890476Y-57923809D01*
X141004761Y-57809523D01*
X141080952Y-57771428D01*
X141157142Y-57771428D01*
X141119047Y-57961904D02*
X141195238Y-57923809D01*
X141271428Y-57847619D01*
X141309523Y-57695238D01*
X141309523Y-57428571D01*
X141271428Y-57276190D01*
X141195238Y-57200000D01*
X141119047Y-57161904D01*
X140966666Y-57161904D01*
X140890476Y-57200000D01*
X140814285Y-57276190D01*
X140776190Y-57428571D01*
X140776190Y-57695238D01*
X140814285Y-57847619D01*
X140890476Y-57923809D01*
X140966666Y-57961904D01*
X141119047Y-57961904D01*
X140471428Y-57238095D02*
X140433333Y-57200000D01*
X140357142Y-57161904D01*
X140166666Y-57161904D01*
X140090476Y-57200000D01*
X140052380Y-57238095D01*
X140014285Y-57314285D01*
X140014285Y-57390476D01*
X140052380Y-57504761D01*
X140509523Y-57961904D01*
X140014285Y-57961904D01*
X139519047Y-57161904D02*
X139442857Y-57161904D01*
X139366666Y-57200000D01*
X139328571Y-57238095D01*
X139290476Y-57314285D01*
X139252380Y-57466666D01*
X139252380Y-57657142D01*
X139290476Y-57809523D01*
X139328571Y-57885714D01*
X139366666Y-57923809D01*
X139442857Y-57961904D01*
X139519047Y-57961904D01*
X139595238Y-57923809D01*
X139633333Y-57885714D01*
X139671428Y-57809523D01*
X139709523Y-57657142D01*
X139709523Y-57466666D01*
X139671428Y-57314285D01*
X139633333Y-57238095D01*
X139595238Y-57200000D01*
X139519047Y-57161904D01*
X138528571Y-57161904D02*
X138909523Y-57161904D01*
X138947619Y-57542857D01*
X138909523Y-57504761D01*
X138833333Y-57466666D01*
X138642857Y-57466666D01*
X138566666Y-57504761D01*
X138528571Y-57542857D01*
X138490476Y-57619047D01*
X138490476Y-57809523D01*
X138528571Y-57885714D01*
X138566666Y-57923809D01*
X138642857Y-57961904D01*
X138833333Y-57961904D01*
X138909523Y-57923809D01*
X138947619Y-57885714D01*
X127885714Y-74504761D02*
X127923809Y-74466666D01*
X127961904Y-74352380D01*
X127961904Y-74276190D01*
X127923809Y-74161904D01*
X127847619Y-74085714D01*
X127771428Y-74047619D01*
X127619047Y-74009523D01*
X127504761Y-74009523D01*
X127352380Y-74047619D01*
X127276190Y-74085714D01*
X127200000Y-74161904D01*
X127161904Y-74276190D01*
X127161904Y-74352380D01*
X127200000Y-74466666D01*
X127238095Y-74504761D01*
X127238095Y-74809523D02*
X127200000Y-74847619D01*
X127161904Y-74923809D01*
X127161904Y-75114285D01*
X127200000Y-75190476D01*
X127238095Y-75228571D01*
X127314285Y-75266666D01*
X127390476Y-75266666D01*
X127504761Y-75228571D01*
X127961904Y-74771428D01*
X127961904Y-75266666D01*
X127161904Y-75761904D02*
X127161904Y-75838095D01*
X127200000Y-75914285D01*
X127238095Y-75952380D01*
X127314285Y-75990476D01*
X127466666Y-76028571D01*
X127657142Y-76028571D01*
X127809523Y-75990476D01*
X127885714Y-75952380D01*
X127923809Y-75914285D01*
X127961904Y-75838095D01*
X127961904Y-75761904D01*
X127923809Y-75685714D01*
X127885714Y-75647619D01*
X127809523Y-75609523D01*
X127657142Y-75571428D01*
X127466666Y-75571428D01*
X127314285Y-75609523D01*
X127238095Y-75647619D01*
X127200000Y-75685714D01*
X127161904Y-75761904D01*
X127504761Y-76485714D02*
X127466666Y-76409523D01*
X127428571Y-76371428D01*
X127352380Y-76333333D01*
X127314285Y-76333333D01*
X127238095Y-76371428D01*
X127200000Y-76409523D01*
X127161904Y-76485714D01*
X127161904Y-76638095D01*
X127200000Y-76714285D01*
X127238095Y-76752380D01*
X127314285Y-76790476D01*
X127352380Y-76790476D01*
X127428571Y-76752380D01*
X127466666Y-76714285D01*
X127504761Y-76638095D01*
X127504761Y-76485714D01*
X127542857Y-76409523D01*
X127580952Y-76371428D01*
X127657142Y-76333333D01*
X127809523Y-76333333D01*
X127885714Y-76371428D01*
X127923809Y-76409523D01*
X127961904Y-76485714D01*
X127961904Y-76638095D01*
X127923809Y-76714285D01*
X127885714Y-76752380D01*
X127809523Y-76790476D01*
X127657142Y-76790476D01*
X127580952Y-76752380D01*
X127542857Y-76714285D01*
X127504761Y-76638095D01*
X130635714Y-74454761D02*
X130673809Y-74416666D01*
X130711904Y-74302380D01*
X130711904Y-74226190D01*
X130673809Y-74111904D01*
X130597619Y-74035714D01*
X130521428Y-73997619D01*
X130369047Y-73959523D01*
X130254761Y-73959523D01*
X130102380Y-73997619D01*
X130026190Y-74035714D01*
X129950000Y-74111904D01*
X129911904Y-74226190D01*
X129911904Y-74302380D01*
X129950000Y-74416666D01*
X129988095Y-74454761D01*
X129988095Y-74759523D02*
X129950000Y-74797619D01*
X129911904Y-74873809D01*
X129911904Y-75064285D01*
X129950000Y-75140476D01*
X129988095Y-75178571D01*
X130064285Y-75216666D01*
X130140476Y-75216666D01*
X130254761Y-75178571D01*
X130711904Y-74721428D01*
X130711904Y-75216666D01*
X129911904Y-75711904D02*
X129911904Y-75788095D01*
X129950000Y-75864285D01*
X129988095Y-75902380D01*
X130064285Y-75940476D01*
X130216666Y-75978571D01*
X130407142Y-75978571D01*
X130559523Y-75940476D01*
X130635714Y-75902380D01*
X130673809Y-75864285D01*
X130711904Y-75788095D01*
X130711904Y-75711904D01*
X130673809Y-75635714D01*
X130635714Y-75597619D01*
X130559523Y-75559523D01*
X130407142Y-75521428D01*
X130216666Y-75521428D01*
X130064285Y-75559523D01*
X129988095Y-75597619D01*
X129950000Y-75635714D01*
X129911904Y-75711904D01*
X129911904Y-76245238D02*
X129911904Y-76778571D01*
X130711904Y-76435714D01*
X138161904Y-75004761D02*
X137780952Y-74738095D01*
X138161904Y-74547619D02*
X137361904Y-74547619D01*
X137361904Y-74852380D01*
X137400000Y-74928571D01*
X137438095Y-74966666D01*
X137514285Y-75004761D01*
X137628571Y-75004761D01*
X137704761Y-74966666D01*
X137742857Y-74928571D01*
X137780952Y-74852380D01*
X137780952Y-74547619D01*
X137438095Y-75309523D02*
X137400000Y-75347619D01*
X137361904Y-75423809D01*
X137361904Y-75614285D01*
X137400000Y-75690476D01*
X137438095Y-75728571D01*
X137514285Y-75766666D01*
X137590476Y-75766666D01*
X137704761Y-75728571D01*
X138161904Y-75271428D01*
X138161904Y-75766666D01*
X137361904Y-76261904D02*
X137361904Y-76338095D01*
X137400000Y-76414285D01*
X137438095Y-76452380D01*
X137514285Y-76490476D01*
X137666666Y-76528571D01*
X137857142Y-76528571D01*
X138009523Y-76490476D01*
X138085714Y-76452380D01*
X138123809Y-76414285D01*
X138161904Y-76338095D01*
X138161904Y-76261904D01*
X138123809Y-76185714D01*
X138085714Y-76147619D01*
X138009523Y-76109523D01*
X137857142Y-76071428D01*
X137666666Y-76071428D01*
X137514285Y-76109523D01*
X137438095Y-76147619D01*
X137400000Y-76185714D01*
X137361904Y-76261904D01*
X137704761Y-76985714D02*
X137666666Y-76909523D01*
X137628571Y-76871428D01*
X137552380Y-76833333D01*
X137514285Y-76833333D01*
X137438095Y-76871428D01*
X137400000Y-76909523D01*
X137361904Y-76985714D01*
X137361904Y-77138095D01*
X137400000Y-77214285D01*
X137438095Y-77252380D01*
X137514285Y-77290476D01*
X137552380Y-77290476D01*
X137628571Y-77252380D01*
X137666666Y-77214285D01*
X137704761Y-77138095D01*
X137704761Y-76985714D01*
X137742857Y-76909523D01*
X137780952Y-76871428D01*
X137857142Y-76833333D01*
X138009523Y-76833333D01*
X138085714Y-76871428D01*
X138123809Y-76909523D01*
X138161904Y-76985714D01*
X138161904Y-77138095D01*
X138123809Y-77214285D01*
X138085714Y-77252380D01*
X138009523Y-77290476D01*
X137857142Y-77290476D01*
X137780952Y-77252380D01*
X137742857Y-77214285D01*
X137704761Y-77138095D01*
X123686904Y-63479761D02*
X123305952Y-63213095D01*
X123686904Y-63022619D02*
X122886904Y-63022619D01*
X122886904Y-63327380D01*
X122925000Y-63403571D01*
X122963095Y-63441666D01*
X123039285Y-63479761D01*
X123153571Y-63479761D01*
X123229761Y-63441666D01*
X123267857Y-63403571D01*
X123305952Y-63327380D01*
X123305952Y-63022619D01*
X122963095Y-63784523D02*
X122925000Y-63822619D01*
X122886904Y-63898809D01*
X122886904Y-64089285D01*
X122925000Y-64165476D01*
X122963095Y-64203571D01*
X123039285Y-64241666D01*
X123115476Y-64241666D01*
X123229761Y-64203571D01*
X123686904Y-63746428D01*
X123686904Y-64241666D01*
X122886904Y-64736904D02*
X122886904Y-64813095D01*
X122925000Y-64889285D01*
X122963095Y-64927380D01*
X123039285Y-64965476D01*
X123191666Y-65003571D01*
X123382142Y-65003571D01*
X123534523Y-64965476D01*
X123610714Y-64927380D01*
X123648809Y-64889285D01*
X123686904Y-64813095D01*
X123686904Y-64736904D01*
X123648809Y-64660714D01*
X123610714Y-64622619D01*
X123534523Y-64584523D01*
X123382142Y-64546428D01*
X123191666Y-64546428D01*
X123039285Y-64584523D01*
X122963095Y-64622619D01*
X122925000Y-64660714D01*
X122886904Y-64736904D01*
X122886904Y-65270238D02*
X122886904Y-65803571D01*
X123686904Y-65460714D01*
X78138095Y-65838095D02*
X78214285Y-65800000D01*
X78290476Y-65723809D01*
X78404761Y-65609523D01*
X78480952Y-65571428D01*
X78557142Y-65571428D01*
X78519047Y-65761904D02*
X78595238Y-65723809D01*
X78671428Y-65647619D01*
X78709523Y-65495238D01*
X78709523Y-65228571D01*
X78671428Y-65076190D01*
X78595238Y-65000000D01*
X78519047Y-64961904D01*
X78366666Y-64961904D01*
X78290476Y-65000000D01*
X78214285Y-65076190D01*
X78176190Y-65228571D01*
X78176190Y-65495238D01*
X78214285Y-65647619D01*
X78290476Y-65723809D01*
X78366666Y-65761904D01*
X78519047Y-65761904D01*
X77871428Y-65038095D02*
X77833333Y-65000000D01*
X77757142Y-64961904D01*
X77566666Y-64961904D01*
X77490476Y-65000000D01*
X77452380Y-65038095D01*
X77414285Y-65114285D01*
X77414285Y-65190476D01*
X77452380Y-65304761D01*
X77909523Y-65761904D01*
X77414285Y-65761904D01*
X76919047Y-64961904D02*
X76842857Y-64961904D01*
X76766666Y-65000000D01*
X76728571Y-65038095D01*
X76690476Y-65114285D01*
X76652380Y-65266666D01*
X76652380Y-65457142D01*
X76690476Y-65609523D01*
X76728571Y-65685714D01*
X76766666Y-65723809D01*
X76842857Y-65761904D01*
X76919047Y-65761904D01*
X76995238Y-65723809D01*
X77033333Y-65685714D01*
X77071428Y-65609523D01*
X77109523Y-65457142D01*
X77109523Y-65266666D01*
X77071428Y-65114285D01*
X77033333Y-65038095D01*
X76995238Y-65000000D01*
X76919047Y-64961904D01*
X75890476Y-65761904D02*
X76347619Y-65761904D01*
X76119047Y-65761904D02*
X76119047Y-64961904D01*
X76195238Y-65076190D01*
X76271428Y-65152380D01*
X76347619Y-65190476D01*
X99901580Y-53511904D02*
X100168246Y-53130952D01*
X100358723Y-53511904D02*
X100358723Y-52711904D01*
X100053961Y-52711904D01*
X99977770Y-52750000D01*
X99939675Y-52788095D01*
X99901580Y-52864285D01*
X99901580Y-52978571D01*
X99939675Y-53054761D01*
X99977770Y-53092857D01*
X100053961Y-53130952D01*
X100358723Y-53130952D01*
X99673008Y-52711904D02*
X99406342Y-53511904D01*
X99139675Y-52711904D01*
X98911104Y-52788095D02*
X98873008Y-52750000D01*
X98796818Y-52711904D01*
X98606342Y-52711904D01*
X98530151Y-52750000D01*
X98492056Y-52788095D01*
X98453961Y-52864285D01*
X98453961Y-52940476D01*
X98492056Y-53054761D01*
X98949199Y-53511904D01*
X98453961Y-53511904D01*
X97958723Y-52711904D02*
X97882532Y-52711904D01*
X97806342Y-52750000D01*
X97768246Y-52788095D01*
X97730151Y-52864285D01*
X97692056Y-53016666D01*
X97692056Y-53207142D01*
X97730151Y-53359523D01*
X97768246Y-53435714D01*
X97806342Y-53473809D01*
X97882532Y-53511904D01*
X97958723Y-53511904D01*
X98034913Y-53473809D01*
X98073008Y-53435714D01*
X98111104Y-53359523D01*
X98149199Y-53207142D01*
X98149199Y-53016666D01*
X98111104Y-52864285D01*
X98073008Y-52788095D01*
X98034913Y-52750000D01*
X97958723Y-52711904D01*
X97425389Y-52711904D02*
X96930151Y-52711904D01*
X97196818Y-53016666D01*
X97082532Y-53016666D01*
X97006342Y-53054761D01*
X96968246Y-53092857D01*
X96930151Y-53169047D01*
X96930151Y-53359523D01*
X96968246Y-53435714D01*
X97006342Y-53473809D01*
X97082532Y-53511904D01*
X97311104Y-53511904D01*
X97387294Y-53473809D01*
X97425389Y-53435714D01*
X113245238Y-57811904D02*
X113511904Y-57430952D01*
X113702380Y-57811904D02*
X113702380Y-57011904D01*
X113397619Y-57011904D01*
X113321428Y-57050000D01*
X113283333Y-57088095D01*
X113245238Y-57164285D01*
X113245238Y-57278571D01*
X113283333Y-57354761D01*
X113321428Y-57392857D01*
X113397619Y-57430952D01*
X113702380Y-57430952D01*
X112940476Y-57088095D02*
X112902380Y-57050000D01*
X112826190Y-57011904D01*
X112635714Y-57011904D01*
X112559523Y-57050000D01*
X112521428Y-57088095D01*
X112483333Y-57164285D01*
X112483333Y-57240476D01*
X112521428Y-57354761D01*
X112978571Y-57811904D01*
X112483333Y-57811904D01*
X111988095Y-57011904D02*
X111911904Y-57011904D01*
X111835714Y-57050000D01*
X111797619Y-57088095D01*
X111759523Y-57164285D01*
X111721428Y-57316666D01*
X111721428Y-57507142D01*
X111759523Y-57659523D01*
X111797619Y-57735714D01*
X111835714Y-57773809D01*
X111911904Y-57811904D01*
X111988095Y-57811904D01*
X112064285Y-57773809D01*
X112102380Y-57735714D01*
X112140476Y-57659523D01*
X112178571Y-57507142D01*
X112178571Y-57316666D01*
X112140476Y-57164285D01*
X112102380Y-57088095D01*
X112064285Y-57050000D01*
X111988095Y-57011904D01*
X111340476Y-57811904D02*
X111188095Y-57811904D01*
X111111904Y-57773809D01*
X111073809Y-57735714D01*
X110997619Y-57621428D01*
X110959523Y-57469047D01*
X110959523Y-57164285D01*
X110997619Y-57088095D01*
X111035714Y-57050000D01*
X111111904Y-57011904D01*
X111264285Y-57011904D01*
X111340476Y-57050000D01*
X111378571Y-57088095D01*
X111416666Y-57164285D01*
X111416666Y-57354761D01*
X111378571Y-57430952D01*
X111340476Y-57469047D01*
X111264285Y-57507142D01*
X111111904Y-57507142D01*
X111035714Y-57469047D01*
X110997619Y-57430952D01*
X110959523Y-57354761D01*
X112161904Y-73254761D02*
X112161904Y-72873809D01*
X111361904Y-72873809D01*
X111438095Y-73483333D02*
X111400000Y-73521428D01*
X111361904Y-73597619D01*
X111361904Y-73788095D01*
X111400000Y-73864285D01*
X111438095Y-73902380D01*
X111514285Y-73940476D01*
X111590476Y-73940476D01*
X111704761Y-73902380D01*
X112161904Y-73445238D01*
X112161904Y-73940476D01*
X111361904Y-74435714D02*
X111361904Y-74511904D01*
X111400000Y-74588095D01*
X111438095Y-74626190D01*
X111514285Y-74664285D01*
X111666666Y-74702380D01*
X111857142Y-74702380D01*
X112009523Y-74664285D01*
X112085714Y-74626190D01*
X112123809Y-74588095D01*
X112161904Y-74511904D01*
X112161904Y-74435714D01*
X112123809Y-74359523D01*
X112085714Y-74321428D01*
X112009523Y-74283333D01*
X111857142Y-74245238D01*
X111666666Y-74245238D01*
X111514285Y-74283333D01*
X111438095Y-74321428D01*
X111400000Y-74359523D01*
X111361904Y-74435714D01*
X112161904Y-75464285D02*
X112161904Y-75007142D01*
X112161904Y-75235714D02*
X111361904Y-75235714D01*
X111476190Y-75159523D01*
X111552380Y-75083333D01*
X111590476Y-75007142D01*
X113245238Y-65465404D02*
X113511904Y-65084452D01*
X113702380Y-65465404D02*
X113702380Y-64665404D01*
X113397619Y-64665404D01*
X113321428Y-64703500D01*
X113283333Y-64741595D01*
X113245238Y-64817785D01*
X113245238Y-64932071D01*
X113283333Y-65008261D01*
X113321428Y-65046357D01*
X113397619Y-65084452D01*
X113702380Y-65084452D01*
X112940476Y-64741595D02*
X112902380Y-64703500D01*
X112826190Y-64665404D01*
X112635714Y-64665404D01*
X112559523Y-64703500D01*
X112521428Y-64741595D01*
X112483333Y-64817785D01*
X112483333Y-64893976D01*
X112521428Y-65008261D01*
X112978571Y-65465404D01*
X112483333Y-65465404D01*
X111721428Y-65465404D02*
X112178571Y-65465404D01*
X111950000Y-65465404D02*
X111950000Y-64665404D01*
X112026190Y-64779690D01*
X112102380Y-64855880D01*
X112178571Y-64893976D01*
X111416666Y-64741595D02*
X111378571Y-64703500D01*
X111302380Y-64665404D01*
X111111904Y-64665404D01*
X111035714Y-64703500D01*
X110997619Y-64741595D01*
X110959523Y-64817785D01*
X110959523Y-64893976D01*
X110997619Y-65008261D01*
X111454761Y-65465404D01*
X110959523Y-65465404D01*
X81552380Y-49511904D02*
X81552380Y-48711904D01*
X81361904Y-48711904D01*
X81247619Y-48750000D01*
X81171428Y-48826190D01*
X81133333Y-48902380D01*
X81095238Y-49054761D01*
X81095238Y-49169047D01*
X81133333Y-49321428D01*
X81171428Y-49397619D01*
X81247619Y-49473809D01*
X81361904Y-49511904D01*
X81552380Y-49511904D01*
X80790476Y-48788095D02*
X80752380Y-48750000D01*
X80676190Y-48711904D01*
X80485714Y-48711904D01*
X80409523Y-48750000D01*
X80371428Y-48788095D01*
X80333333Y-48864285D01*
X80333333Y-48940476D01*
X80371428Y-49054761D01*
X80828571Y-49511904D01*
X80333333Y-49511904D01*
X79838095Y-48711904D02*
X79761904Y-48711904D01*
X79685714Y-48750000D01*
X79647619Y-48788095D01*
X79609523Y-48864285D01*
X79571428Y-49016666D01*
X79571428Y-49207142D01*
X79609523Y-49359523D01*
X79647619Y-49435714D01*
X79685714Y-49473809D01*
X79761904Y-49511904D01*
X79838095Y-49511904D01*
X79914285Y-49473809D01*
X79952380Y-49435714D01*
X79990476Y-49359523D01*
X80028571Y-49207142D01*
X80028571Y-49016666D01*
X79990476Y-48864285D01*
X79952380Y-48788095D01*
X79914285Y-48750000D01*
X79838095Y-48711904D01*
X79266666Y-48788095D02*
X79228571Y-48750000D01*
X79152380Y-48711904D01*
X78961904Y-48711904D01*
X78885714Y-48750000D01*
X78847619Y-48788095D01*
X78809523Y-48864285D01*
X78809523Y-48940476D01*
X78847619Y-49054761D01*
X79304761Y-49511904D01*
X78809523Y-49511904D01*
X75395238Y-53511904D02*
X75661904Y-53130952D01*
X75852380Y-53511904D02*
X75852380Y-52711904D01*
X75547619Y-52711904D01*
X75471428Y-52750000D01*
X75433333Y-52788095D01*
X75395238Y-52864285D01*
X75395238Y-52978571D01*
X75433333Y-53054761D01*
X75471428Y-53092857D01*
X75547619Y-53130952D01*
X75852380Y-53130952D01*
X75090476Y-52788095D02*
X75052380Y-52750000D01*
X74976190Y-52711904D01*
X74785714Y-52711904D01*
X74709523Y-52750000D01*
X74671428Y-52788095D01*
X74633333Y-52864285D01*
X74633333Y-52940476D01*
X74671428Y-53054761D01*
X75128571Y-53511904D01*
X74633333Y-53511904D01*
X74138095Y-52711904D02*
X74061904Y-52711904D01*
X73985714Y-52750000D01*
X73947619Y-52788095D01*
X73909523Y-52864285D01*
X73871428Y-53016666D01*
X73871428Y-53207142D01*
X73909523Y-53359523D01*
X73947619Y-53435714D01*
X73985714Y-53473809D01*
X74061904Y-53511904D01*
X74138095Y-53511904D01*
X74214285Y-53473809D01*
X74252380Y-53435714D01*
X74290476Y-53359523D01*
X74328571Y-53207142D01*
X74328571Y-53016666D01*
X74290476Y-52864285D01*
X74252380Y-52788095D01*
X74214285Y-52750000D01*
X74138095Y-52711904D01*
X73109523Y-53511904D02*
X73566666Y-53511904D01*
X73338095Y-53511904D02*
X73338095Y-52711904D01*
X73414285Y-52826190D01*
X73490476Y-52902380D01*
X73566666Y-52940476D01*
X87361904Y-66854761D02*
X86980952Y-66588095D01*
X87361904Y-66397619D02*
X86561904Y-66397619D01*
X86561904Y-66702380D01*
X86600000Y-66778571D01*
X86638095Y-66816666D01*
X86714285Y-66854761D01*
X86828571Y-66854761D01*
X86904761Y-66816666D01*
X86942857Y-66778571D01*
X86980952Y-66702380D01*
X86980952Y-66397619D01*
X86638095Y-67159523D02*
X86600000Y-67197619D01*
X86561904Y-67273809D01*
X86561904Y-67464285D01*
X86600000Y-67540476D01*
X86638095Y-67578571D01*
X86714285Y-67616666D01*
X86790476Y-67616666D01*
X86904761Y-67578571D01*
X87361904Y-67121428D01*
X87361904Y-67616666D01*
X86561904Y-68111904D02*
X86561904Y-68188095D01*
X86600000Y-68264285D01*
X86638095Y-68302380D01*
X86714285Y-68340476D01*
X86866666Y-68378571D01*
X87057142Y-68378571D01*
X87209523Y-68340476D01*
X87285714Y-68302380D01*
X87323809Y-68264285D01*
X87361904Y-68188095D01*
X87361904Y-68111904D01*
X87323809Y-68035714D01*
X87285714Y-67997619D01*
X87209523Y-67959523D01*
X87057142Y-67921428D01*
X86866666Y-67921428D01*
X86714285Y-67959523D01*
X86638095Y-67997619D01*
X86600000Y-68035714D01*
X86561904Y-68111904D01*
X86638095Y-68683333D02*
X86600000Y-68721428D01*
X86561904Y-68797619D01*
X86561904Y-68988095D01*
X86600000Y-69064285D01*
X86638095Y-69102380D01*
X86714285Y-69140476D01*
X86790476Y-69140476D01*
X86904761Y-69102380D01*
X87361904Y-68645238D01*
X87361904Y-69140476D01*
X113245238Y-62884714D02*
X113283333Y-62922809D01*
X113397619Y-62960904D01*
X113473809Y-62960904D01*
X113588095Y-62922809D01*
X113664285Y-62846619D01*
X113702380Y-62770428D01*
X113740476Y-62618047D01*
X113740476Y-62503761D01*
X113702380Y-62351380D01*
X113664285Y-62275190D01*
X113588095Y-62199000D01*
X113473809Y-62160904D01*
X113397619Y-62160904D01*
X113283333Y-62199000D01*
X113245238Y-62237095D01*
X112940476Y-62237095D02*
X112902380Y-62199000D01*
X112826190Y-62160904D01*
X112635714Y-62160904D01*
X112559523Y-62199000D01*
X112521428Y-62237095D01*
X112483333Y-62313285D01*
X112483333Y-62389476D01*
X112521428Y-62503761D01*
X112978571Y-62960904D01*
X112483333Y-62960904D01*
X111721428Y-62960904D02*
X112178571Y-62960904D01*
X111950000Y-62960904D02*
X111950000Y-62160904D01*
X112026190Y-62275190D01*
X112102380Y-62351380D01*
X112178571Y-62389476D01*
X110959523Y-62960904D02*
X111416666Y-62960904D01*
X111188095Y-62960904D02*
X111188095Y-62160904D01*
X111264285Y-62275190D01*
X111340476Y-62351380D01*
X111416666Y-62389476D01*
X109195238Y-65361904D02*
X109461904Y-64980952D01*
X109652380Y-65361904D02*
X109652380Y-64561904D01*
X109347619Y-64561904D01*
X109271428Y-64600000D01*
X109233333Y-64638095D01*
X109195238Y-64714285D01*
X109195238Y-64828571D01*
X109233333Y-64904761D01*
X109271428Y-64942857D01*
X109347619Y-64980952D01*
X109652380Y-64980952D01*
X108890476Y-64638095D02*
X108852380Y-64600000D01*
X108776190Y-64561904D01*
X108585714Y-64561904D01*
X108509523Y-64600000D01*
X108471428Y-64638095D01*
X108433333Y-64714285D01*
X108433333Y-64790476D01*
X108471428Y-64904761D01*
X108928571Y-65361904D01*
X108433333Y-65361904D01*
X107671428Y-65361904D02*
X108128571Y-65361904D01*
X107900000Y-65361904D02*
X107900000Y-64561904D01*
X107976190Y-64676190D01*
X108052380Y-64752380D01*
X108128571Y-64790476D01*
X107404761Y-64561904D02*
X106871428Y-64561904D01*
X107214285Y-65361904D01*
X152328571Y-60011904D02*
X152328571Y-60583333D01*
X152366666Y-60697619D01*
X152442857Y-60773809D01*
X152557142Y-60811904D01*
X152633333Y-60811904D01*
X151985714Y-60088095D02*
X151947619Y-60050000D01*
X151871428Y-60011904D01*
X151680952Y-60011904D01*
X151604761Y-60050000D01*
X151566666Y-60088095D01*
X151528571Y-60164285D01*
X151528571Y-60240476D01*
X151566666Y-60354761D01*
X152023809Y-60811904D01*
X151528571Y-60811904D01*
X151033333Y-60011904D02*
X150957142Y-60011904D01*
X150880952Y-60050000D01*
X150842857Y-60088095D01*
X150804761Y-60164285D01*
X150766666Y-60316666D01*
X150766666Y-60507142D01*
X150804761Y-60659523D01*
X150842857Y-60735714D01*
X150880952Y-60773809D01*
X150957142Y-60811904D01*
X151033333Y-60811904D01*
X151109523Y-60773809D01*
X151147619Y-60735714D01*
X151185714Y-60659523D01*
X151223809Y-60507142D01*
X151223809Y-60316666D01*
X151185714Y-60164285D01*
X151147619Y-60088095D01*
X151109523Y-60050000D01*
X151033333Y-60011904D01*
X150461904Y-60088095D02*
X150423809Y-60050000D01*
X150347619Y-60011904D01*
X150157142Y-60011904D01*
X150080952Y-60050000D01*
X150042857Y-60088095D01*
X150004761Y-60164285D01*
X150004761Y-60240476D01*
X150042857Y-60354761D01*
X150500000Y-60811904D01*
X150004761Y-60811904D01*
X108471428Y-70761904D02*
X108471428Y-71409523D01*
X108433333Y-71485714D01*
X108395238Y-71523809D01*
X108319047Y-71561904D01*
X108166666Y-71561904D01*
X108090476Y-71523809D01*
X108052380Y-71485714D01*
X108014285Y-71409523D01*
X108014285Y-70761904D01*
X107671428Y-70838095D02*
X107633333Y-70800000D01*
X107557142Y-70761904D01*
X107366666Y-70761904D01*
X107290476Y-70800000D01*
X107252380Y-70838095D01*
X107214285Y-70914285D01*
X107214285Y-70990476D01*
X107252380Y-71104761D01*
X107709523Y-71561904D01*
X107214285Y-71561904D01*
X106719047Y-70761904D02*
X106642857Y-70761904D01*
X106566666Y-70800000D01*
X106528571Y-70838095D01*
X106490476Y-70914285D01*
X106452380Y-71066666D01*
X106452380Y-71257142D01*
X106490476Y-71409523D01*
X106528571Y-71485714D01*
X106566666Y-71523809D01*
X106642857Y-71561904D01*
X106719047Y-71561904D01*
X106795238Y-71523809D01*
X106833333Y-71485714D01*
X106871428Y-71409523D01*
X106909523Y-71257142D01*
X106909523Y-71066666D01*
X106871428Y-70914285D01*
X106833333Y-70838095D01*
X106795238Y-70800000D01*
X106719047Y-70761904D01*
X105690476Y-71561904D02*
X106147619Y-71561904D01*
X105919047Y-71561904D02*
X105919047Y-70761904D01*
X105995238Y-70876190D01*
X106071428Y-70952380D01*
X106147619Y-70990476D01*
X80695238Y-53611904D02*
X80961904Y-53230952D01*
X81152380Y-53611904D02*
X81152380Y-52811904D01*
X80847619Y-52811904D01*
X80771428Y-52850000D01*
X80733333Y-52888095D01*
X80695238Y-52964285D01*
X80695238Y-53078571D01*
X80733333Y-53154761D01*
X80771428Y-53192857D01*
X80847619Y-53230952D01*
X81152380Y-53230952D01*
X80390476Y-52888095D02*
X80352380Y-52850000D01*
X80276190Y-52811904D01*
X80085714Y-52811904D01*
X80009523Y-52850000D01*
X79971428Y-52888095D01*
X79933333Y-52964285D01*
X79933333Y-53040476D01*
X79971428Y-53154761D01*
X80428571Y-53611904D01*
X79933333Y-53611904D01*
X79438095Y-52811904D02*
X79361904Y-52811904D01*
X79285714Y-52850000D01*
X79247619Y-52888095D01*
X79209523Y-52964285D01*
X79171428Y-53116666D01*
X79171428Y-53307142D01*
X79209523Y-53459523D01*
X79247619Y-53535714D01*
X79285714Y-53573809D01*
X79361904Y-53611904D01*
X79438095Y-53611904D01*
X79514285Y-53573809D01*
X79552380Y-53535714D01*
X79590476Y-53459523D01*
X79628571Y-53307142D01*
X79628571Y-53116666D01*
X79590476Y-52964285D01*
X79552380Y-52888095D01*
X79514285Y-52850000D01*
X79438095Y-52811904D01*
X78904761Y-52811904D02*
X78409523Y-52811904D01*
X78676190Y-53116666D01*
X78561904Y-53116666D01*
X78485714Y-53154761D01*
X78447619Y-53192857D01*
X78409523Y-53269047D01*
X78409523Y-53459523D01*
X78447619Y-53535714D01*
X78485714Y-53573809D01*
X78561904Y-53611904D01*
X78790476Y-53611904D01*
X78866666Y-53573809D01*
X78904761Y-53535714D01*
X108045238Y-68935714D02*
X108083333Y-68973809D01*
X108197619Y-69011904D01*
X108273809Y-69011904D01*
X108388095Y-68973809D01*
X108464285Y-68897619D01*
X108502380Y-68821428D01*
X108540476Y-68669047D01*
X108540476Y-68554761D01*
X108502380Y-68402380D01*
X108464285Y-68326190D01*
X108388095Y-68250000D01*
X108273809Y-68211904D01*
X108197619Y-68211904D01*
X108083333Y-68250000D01*
X108045238Y-68288095D01*
X107740476Y-68288095D02*
X107702380Y-68250000D01*
X107626190Y-68211904D01*
X107435714Y-68211904D01*
X107359523Y-68250000D01*
X107321428Y-68288095D01*
X107283333Y-68364285D01*
X107283333Y-68440476D01*
X107321428Y-68554761D01*
X107778571Y-69011904D01*
X107283333Y-69011904D01*
X106788095Y-68211904D02*
X106711904Y-68211904D01*
X106635714Y-68250000D01*
X106597619Y-68288095D01*
X106559523Y-68364285D01*
X106521428Y-68516666D01*
X106521428Y-68707142D01*
X106559523Y-68859523D01*
X106597619Y-68935714D01*
X106635714Y-68973809D01*
X106711904Y-69011904D01*
X106788095Y-69011904D01*
X106864285Y-68973809D01*
X106902380Y-68935714D01*
X106940476Y-68859523D01*
X106978571Y-68707142D01*
X106978571Y-68516666D01*
X106940476Y-68364285D01*
X106902380Y-68288095D01*
X106864285Y-68250000D01*
X106788095Y-68211904D01*
X105797619Y-68211904D02*
X106178571Y-68211904D01*
X106216666Y-68592857D01*
X106178571Y-68554761D01*
X106102380Y-68516666D01*
X105911904Y-68516666D01*
X105835714Y-68554761D01*
X105797619Y-68592857D01*
X105759523Y-68669047D01*
X105759523Y-68859523D01*
X105797619Y-68935714D01*
X105835714Y-68973809D01*
X105911904Y-69011904D01*
X106102380Y-69011904D01*
X106178571Y-68973809D01*
X106216666Y-68935714D01*
X113045238Y-68011904D02*
X113311904Y-67630952D01*
X113502380Y-68011904D02*
X113502380Y-67211904D01*
X113197619Y-67211904D01*
X113121428Y-67250000D01*
X113083333Y-67288095D01*
X113045238Y-67364285D01*
X113045238Y-67478571D01*
X113083333Y-67554761D01*
X113121428Y-67592857D01*
X113197619Y-67630952D01*
X113502380Y-67630952D01*
X112740476Y-67288095D02*
X112702380Y-67250000D01*
X112626190Y-67211904D01*
X112435714Y-67211904D01*
X112359523Y-67250000D01*
X112321428Y-67288095D01*
X112283333Y-67364285D01*
X112283333Y-67440476D01*
X112321428Y-67554761D01*
X112778571Y-68011904D01*
X112283333Y-68011904D01*
X111521428Y-68011904D02*
X111978571Y-68011904D01*
X111750000Y-68011904D02*
X111750000Y-67211904D01*
X111826190Y-67326190D01*
X111902380Y-67402380D01*
X111978571Y-67440476D01*
X111254761Y-67211904D02*
X110759523Y-67211904D01*
X111026190Y-67516666D01*
X110911904Y-67516666D01*
X110835714Y-67554761D01*
X110797619Y-67592857D01*
X110759523Y-67669047D01*
X110759523Y-67859523D01*
X110797619Y-67935714D01*
X110835714Y-67973809D01*
X110911904Y-68011904D01*
X111140476Y-68011904D01*
X111216666Y-67973809D01*
X111254761Y-67935714D01*
X108068246Y-53511904D02*
X108334912Y-53130952D01*
X108525389Y-53511904D02*
X108525389Y-52711904D01*
X108220627Y-52711904D01*
X108144436Y-52750000D01*
X108106341Y-52788095D01*
X108068246Y-52864285D01*
X108068246Y-52978571D01*
X108106341Y-53054761D01*
X108144436Y-53092857D01*
X108220627Y-53130952D01*
X108525389Y-53130952D01*
X107839674Y-52711904D02*
X107573008Y-53511904D01*
X107306341Y-52711904D01*
X107077770Y-52788095D02*
X107039674Y-52750000D01*
X106963484Y-52711904D01*
X106773008Y-52711904D01*
X106696817Y-52750000D01*
X106658722Y-52788095D01*
X106620627Y-52864285D01*
X106620627Y-52940476D01*
X106658722Y-53054761D01*
X107115865Y-53511904D01*
X106620627Y-53511904D01*
X106125389Y-52711904D02*
X106049198Y-52711904D01*
X105973008Y-52750000D01*
X105934912Y-52788095D01*
X105896817Y-52864285D01*
X105858722Y-53016666D01*
X105858722Y-53207142D01*
X105896817Y-53359523D01*
X105934912Y-53435714D01*
X105973008Y-53473809D01*
X106049198Y-53511904D01*
X106125389Y-53511904D01*
X106201579Y-53473809D01*
X106239674Y-53435714D01*
X106277770Y-53359523D01*
X106315865Y-53207142D01*
X106315865Y-53016666D01*
X106277770Y-52864285D01*
X106239674Y-52788095D01*
X106201579Y-52750000D01*
X106125389Y-52711904D01*
X105173008Y-52978571D02*
X105173008Y-53511904D01*
X105363484Y-52673809D02*
X105553960Y-53245238D01*
X105058722Y-53245238D01*
X109195238Y-60295237D02*
X109461904Y-59914285D01*
X109652380Y-60295237D02*
X109652380Y-59495237D01*
X109347619Y-59495237D01*
X109271428Y-59533333D01*
X109233333Y-59571428D01*
X109195238Y-59647618D01*
X109195238Y-59761904D01*
X109233333Y-59838094D01*
X109271428Y-59876190D01*
X109347619Y-59914285D01*
X109652380Y-59914285D01*
X108890476Y-59571428D02*
X108852380Y-59533333D01*
X108776190Y-59495237D01*
X108585714Y-59495237D01*
X108509523Y-59533333D01*
X108471428Y-59571428D01*
X108433333Y-59647618D01*
X108433333Y-59723809D01*
X108471428Y-59838094D01*
X108928571Y-60295237D01*
X108433333Y-60295237D01*
X107671428Y-60295237D02*
X108128571Y-60295237D01*
X107900000Y-60295237D02*
X107900000Y-59495237D01*
X107976190Y-59609523D01*
X108052380Y-59685713D01*
X108128571Y-59723809D01*
X106947619Y-59495237D02*
X107328571Y-59495237D01*
X107366666Y-59876190D01*
X107328571Y-59838094D01*
X107252380Y-59799999D01*
X107061904Y-59799999D01*
X106985714Y-59838094D01*
X106947619Y-59876190D01*
X106909523Y-59952380D01*
X106909523Y-60142856D01*
X106947619Y-60219047D01*
X106985714Y-60257142D01*
X107061904Y-60295237D01*
X107252380Y-60295237D01*
X107328571Y-60257142D01*
X107366666Y-60219047D01*
X116234914Y-53511904D02*
X116501580Y-53130952D01*
X116692057Y-53511904D02*
X116692057Y-52711904D01*
X116387295Y-52711904D01*
X116311104Y-52750000D01*
X116273009Y-52788095D01*
X116234914Y-52864285D01*
X116234914Y-52978571D01*
X116273009Y-53054761D01*
X116311104Y-53092857D01*
X116387295Y-53130952D01*
X116692057Y-53130952D01*
X116006342Y-52711904D02*
X115739676Y-53511904D01*
X115473009Y-52711904D01*
X115244438Y-52788095D02*
X115206342Y-52750000D01*
X115130152Y-52711904D01*
X114939676Y-52711904D01*
X114863485Y-52750000D01*
X114825390Y-52788095D01*
X114787295Y-52864285D01*
X114787295Y-52940476D01*
X114825390Y-53054761D01*
X115282533Y-53511904D01*
X114787295Y-53511904D01*
X114292057Y-52711904D02*
X114215866Y-52711904D01*
X114139676Y-52750000D01*
X114101580Y-52788095D01*
X114063485Y-52864285D01*
X114025390Y-53016666D01*
X114025390Y-53207142D01*
X114063485Y-53359523D01*
X114101580Y-53435714D01*
X114139676Y-53473809D01*
X114215866Y-53511904D01*
X114292057Y-53511904D01*
X114368247Y-53473809D01*
X114406342Y-53435714D01*
X114444438Y-53359523D01*
X114482533Y-53207142D01*
X114482533Y-53016666D01*
X114444438Y-52864285D01*
X114406342Y-52788095D01*
X114368247Y-52750000D01*
X114292057Y-52711904D01*
X113301580Y-52711904D02*
X113682533Y-52711904D01*
X113720628Y-53092857D01*
X113682533Y-53054761D01*
X113606342Y-53016666D01*
X113415866Y-53016666D01*
X113339676Y-53054761D01*
X113301580Y-53092857D01*
X113263485Y-53169047D01*
X113263485Y-53359523D01*
X113301580Y-53435714D01*
X113339676Y-53473809D01*
X113415866Y-53511904D01*
X113606342Y-53511904D01*
X113682533Y-53473809D01*
X113720628Y-53435714D01*
X104685714Y-76504761D02*
X104723809Y-76466666D01*
X104761904Y-76352380D01*
X104761904Y-76276190D01*
X104723809Y-76161904D01*
X104647619Y-76085714D01*
X104571428Y-76047619D01*
X104419047Y-76009523D01*
X104304761Y-76009523D01*
X104152380Y-76047619D01*
X104076190Y-76085714D01*
X104000000Y-76161904D01*
X103961904Y-76276190D01*
X103961904Y-76352380D01*
X104000000Y-76466666D01*
X104038095Y-76504761D01*
X104038095Y-76809523D02*
X104000000Y-76847619D01*
X103961904Y-76923809D01*
X103961904Y-77114285D01*
X104000000Y-77190476D01*
X104038095Y-77228571D01*
X104114285Y-77266666D01*
X104190476Y-77266666D01*
X104304761Y-77228571D01*
X104761904Y-76771428D01*
X104761904Y-77266666D01*
X103961904Y-77761904D02*
X103961904Y-77838095D01*
X104000000Y-77914285D01*
X104038095Y-77952380D01*
X104114285Y-77990476D01*
X104266666Y-78028571D01*
X104457142Y-78028571D01*
X104609523Y-77990476D01*
X104685714Y-77952380D01*
X104723809Y-77914285D01*
X104761904Y-77838095D01*
X104761904Y-77761904D01*
X104723809Y-77685714D01*
X104685714Y-77647619D01*
X104609523Y-77609523D01*
X104457142Y-77571428D01*
X104266666Y-77571428D01*
X104114285Y-77609523D01*
X104038095Y-77647619D01*
X104000000Y-77685714D01*
X103961904Y-77761904D01*
X104761904Y-78409523D02*
X104761904Y-78561904D01*
X104723809Y-78638095D01*
X104685714Y-78676190D01*
X104571428Y-78752380D01*
X104419047Y-78790476D01*
X104114285Y-78790476D01*
X104038095Y-78752380D01*
X104000000Y-78714285D01*
X103961904Y-78638095D01*
X103961904Y-78485714D01*
X104000000Y-78409523D01*
X104038095Y-78371428D01*
X104114285Y-78333333D01*
X104304761Y-78333333D01*
X104380952Y-78371428D01*
X104419047Y-78409523D01*
X104457142Y-78485714D01*
X104457142Y-78638095D01*
X104419047Y-78714285D01*
X104380952Y-78752380D01*
X104304761Y-78790476D01*
X75852380Y-49511904D02*
X75852380Y-48711904D01*
X75661904Y-48711904D01*
X75547619Y-48750000D01*
X75471428Y-48826190D01*
X75433333Y-48902380D01*
X75395238Y-49054761D01*
X75395238Y-49169047D01*
X75433333Y-49321428D01*
X75471428Y-49397619D01*
X75547619Y-49473809D01*
X75661904Y-49511904D01*
X75852380Y-49511904D01*
X75090476Y-48788095D02*
X75052380Y-48750000D01*
X74976190Y-48711904D01*
X74785714Y-48711904D01*
X74709523Y-48750000D01*
X74671428Y-48788095D01*
X74633333Y-48864285D01*
X74633333Y-48940476D01*
X74671428Y-49054761D01*
X75128571Y-49511904D01*
X74633333Y-49511904D01*
X74138095Y-48711904D02*
X74061904Y-48711904D01*
X73985714Y-48750000D01*
X73947619Y-48788095D01*
X73909523Y-48864285D01*
X73871428Y-49016666D01*
X73871428Y-49207142D01*
X73909523Y-49359523D01*
X73947619Y-49435714D01*
X73985714Y-49473809D01*
X74061904Y-49511904D01*
X74138095Y-49511904D01*
X74214285Y-49473809D01*
X74252380Y-49435714D01*
X74290476Y-49359523D01*
X74328571Y-49207142D01*
X74328571Y-49016666D01*
X74290476Y-48864285D01*
X74252380Y-48788095D01*
X74214285Y-48750000D01*
X74138095Y-48711904D01*
X73604761Y-48711904D02*
X73109523Y-48711904D01*
X73376190Y-49016666D01*
X73261904Y-49016666D01*
X73185714Y-49054761D01*
X73147619Y-49092857D01*
X73109523Y-49169047D01*
X73109523Y-49359523D01*
X73147619Y-49435714D01*
X73185714Y-49473809D01*
X73261904Y-49511904D01*
X73490476Y-49511904D01*
X73566666Y-49473809D01*
X73604761Y-49435714D01*
X91734914Y-53511904D02*
X92001580Y-53130952D01*
X92192057Y-53511904D02*
X92192057Y-52711904D01*
X91887295Y-52711904D01*
X91811104Y-52750000D01*
X91773009Y-52788095D01*
X91734914Y-52864285D01*
X91734914Y-52978571D01*
X91773009Y-53054761D01*
X91811104Y-53092857D01*
X91887295Y-53130952D01*
X92192057Y-53130952D01*
X91506342Y-52711904D02*
X91239676Y-53511904D01*
X90973009Y-52711904D01*
X90744438Y-52788095D02*
X90706342Y-52750000D01*
X90630152Y-52711904D01*
X90439676Y-52711904D01*
X90363485Y-52750000D01*
X90325390Y-52788095D01*
X90287295Y-52864285D01*
X90287295Y-52940476D01*
X90325390Y-53054761D01*
X90782533Y-53511904D01*
X90287295Y-53511904D01*
X89792057Y-52711904D02*
X89715866Y-52711904D01*
X89639676Y-52750000D01*
X89601580Y-52788095D01*
X89563485Y-52864285D01*
X89525390Y-53016666D01*
X89525390Y-53207142D01*
X89563485Y-53359523D01*
X89601580Y-53435714D01*
X89639676Y-53473809D01*
X89715866Y-53511904D01*
X89792057Y-53511904D01*
X89868247Y-53473809D01*
X89906342Y-53435714D01*
X89944438Y-53359523D01*
X89982533Y-53207142D01*
X89982533Y-53016666D01*
X89944438Y-52864285D01*
X89906342Y-52788095D01*
X89868247Y-52750000D01*
X89792057Y-52711904D01*
X89220628Y-52788095D02*
X89182533Y-52750000D01*
X89106342Y-52711904D01*
X88915866Y-52711904D01*
X88839676Y-52750000D01*
X88801580Y-52788095D01*
X88763485Y-52864285D01*
X88763485Y-52940476D01*
X88801580Y-53054761D01*
X89258723Y-53511904D01*
X88763485Y-53511904D01*
X109195238Y-62828570D02*
X109461904Y-62447618D01*
X109652380Y-62828570D02*
X109652380Y-62028570D01*
X109347619Y-62028570D01*
X109271428Y-62066666D01*
X109233333Y-62104761D01*
X109195238Y-62180951D01*
X109195238Y-62295237D01*
X109233333Y-62371427D01*
X109271428Y-62409523D01*
X109347619Y-62447618D01*
X109652380Y-62447618D01*
X108890476Y-62104761D02*
X108852380Y-62066666D01*
X108776190Y-62028570D01*
X108585714Y-62028570D01*
X108509523Y-62066666D01*
X108471428Y-62104761D01*
X108433333Y-62180951D01*
X108433333Y-62257142D01*
X108471428Y-62371427D01*
X108928571Y-62828570D01*
X108433333Y-62828570D01*
X107671428Y-62828570D02*
X108128571Y-62828570D01*
X107900000Y-62828570D02*
X107900000Y-62028570D01*
X107976190Y-62142856D01*
X108052380Y-62219046D01*
X108128571Y-62257142D01*
X106985714Y-62028570D02*
X107138095Y-62028570D01*
X107214285Y-62066666D01*
X107252380Y-62104761D01*
X107328571Y-62219046D01*
X107366666Y-62371427D01*
X107366666Y-62676189D01*
X107328571Y-62752380D01*
X107290476Y-62790475D01*
X107214285Y-62828570D01*
X107061904Y-62828570D01*
X106985714Y-62790475D01*
X106947619Y-62752380D01*
X106909523Y-62676189D01*
X106909523Y-62485713D01*
X106947619Y-62409523D01*
X106985714Y-62371427D01*
X107061904Y-62333332D01*
X107214285Y-62333332D01*
X107290476Y-62371427D01*
X107328571Y-62409523D01*
X107366666Y-62485713D01*
X87261904Y-71547619D02*
X86461904Y-71547619D01*
X86461904Y-71738095D01*
X86500000Y-71852380D01*
X86576190Y-71928571D01*
X86652380Y-71966666D01*
X86804761Y-72004761D01*
X86919047Y-72004761D01*
X87071428Y-71966666D01*
X87147619Y-71928571D01*
X87223809Y-71852380D01*
X87261904Y-71738095D01*
X87261904Y-71547619D01*
X86538095Y-72309523D02*
X86500000Y-72347619D01*
X86461904Y-72423809D01*
X86461904Y-72614285D01*
X86500000Y-72690476D01*
X86538095Y-72728571D01*
X86614285Y-72766666D01*
X86690476Y-72766666D01*
X86804761Y-72728571D01*
X87261904Y-72271428D01*
X87261904Y-72766666D01*
X86461904Y-73261904D02*
X86461904Y-73338095D01*
X86500000Y-73414285D01*
X86538095Y-73452380D01*
X86614285Y-73490476D01*
X86766666Y-73528571D01*
X86957142Y-73528571D01*
X87109523Y-73490476D01*
X87185714Y-73452380D01*
X87223809Y-73414285D01*
X87261904Y-73338095D01*
X87261904Y-73261904D01*
X87223809Y-73185714D01*
X87185714Y-73147619D01*
X87109523Y-73109523D01*
X86957142Y-73071428D01*
X86766666Y-73071428D01*
X86614285Y-73109523D01*
X86538095Y-73147619D01*
X86500000Y-73185714D01*
X86461904Y-73261904D01*
X87261904Y-74290476D02*
X87261904Y-73833333D01*
X87261904Y-74061904D02*
X86461904Y-74061904D01*
X86576190Y-73985714D01*
X86652380Y-73909523D01*
X86690476Y-73833333D01*
X109195238Y-57761904D02*
X109461904Y-57380952D01*
X109652380Y-57761904D02*
X109652380Y-56961904D01*
X109347619Y-56961904D01*
X109271428Y-57000000D01*
X109233333Y-57038095D01*
X109195238Y-57114285D01*
X109195238Y-57228571D01*
X109233333Y-57304761D01*
X109271428Y-57342857D01*
X109347619Y-57380952D01*
X109652380Y-57380952D01*
X108890476Y-57038095D02*
X108852380Y-57000000D01*
X108776190Y-56961904D01*
X108585714Y-56961904D01*
X108509523Y-57000000D01*
X108471428Y-57038095D01*
X108433333Y-57114285D01*
X108433333Y-57190476D01*
X108471428Y-57304761D01*
X108928571Y-57761904D01*
X108433333Y-57761904D01*
X107671428Y-57761904D02*
X108128571Y-57761904D01*
X107900000Y-57761904D02*
X107900000Y-56961904D01*
X107976190Y-57076190D01*
X108052380Y-57152380D01*
X108128571Y-57190476D01*
X106985714Y-57228571D02*
X106985714Y-57761904D01*
X107176190Y-56923809D02*
X107366666Y-57495238D01*
X106871428Y-57495238D01*
X110085714Y-76454761D02*
X110123809Y-76416666D01*
X110161904Y-76302380D01*
X110161904Y-76226190D01*
X110123809Y-76111904D01*
X110047619Y-76035714D01*
X109971428Y-75997619D01*
X109819047Y-75959523D01*
X109704761Y-75959523D01*
X109552380Y-75997619D01*
X109476190Y-76035714D01*
X109400000Y-76111904D01*
X109361904Y-76226190D01*
X109361904Y-76302380D01*
X109400000Y-76416666D01*
X109438095Y-76454761D01*
X109438095Y-76759523D02*
X109400000Y-76797619D01*
X109361904Y-76873809D01*
X109361904Y-77064285D01*
X109400000Y-77140476D01*
X109438095Y-77178571D01*
X109514285Y-77216666D01*
X109590476Y-77216666D01*
X109704761Y-77178571D01*
X110161904Y-76721428D01*
X110161904Y-77216666D01*
X110161904Y-77978571D02*
X110161904Y-77521428D01*
X110161904Y-77750000D02*
X109361904Y-77750000D01*
X109476190Y-77673809D01*
X109552380Y-77597619D01*
X109590476Y-77521428D01*
X109361904Y-78473809D02*
X109361904Y-78550000D01*
X109400000Y-78626190D01*
X109438095Y-78664285D01*
X109514285Y-78702380D01*
X109666666Y-78740476D01*
X109857142Y-78740476D01*
X110009523Y-78702380D01*
X110085714Y-78664285D01*
X110123809Y-78626190D01*
X110161904Y-78550000D01*
X110161904Y-78473809D01*
X110123809Y-78397619D01*
X110085714Y-78359523D01*
X110009523Y-78321428D01*
X109857142Y-78283333D01*
X109666666Y-78283333D01*
X109514285Y-78321428D01*
X109438095Y-78359523D01*
X109400000Y-78397619D01*
X109361904Y-78473809D01*
X75852380Y-56861904D02*
X75852380Y-56061904D01*
X75661904Y-56061904D01*
X75547619Y-56100000D01*
X75471428Y-56176190D01*
X75433333Y-56252380D01*
X75395238Y-56404761D01*
X75395238Y-56519047D01*
X75433333Y-56671428D01*
X75471428Y-56747619D01*
X75547619Y-56823809D01*
X75661904Y-56861904D01*
X75852380Y-56861904D01*
X75090476Y-56138095D02*
X75052380Y-56100000D01*
X74976190Y-56061904D01*
X74785714Y-56061904D01*
X74709523Y-56100000D01*
X74671428Y-56138095D01*
X74633333Y-56214285D01*
X74633333Y-56290476D01*
X74671428Y-56404761D01*
X75128571Y-56861904D01*
X74633333Y-56861904D01*
X74138095Y-56061904D02*
X74061904Y-56061904D01*
X73985714Y-56100000D01*
X73947619Y-56138095D01*
X73909523Y-56214285D01*
X73871428Y-56366666D01*
X73871428Y-56557142D01*
X73909523Y-56709523D01*
X73947619Y-56785714D01*
X73985714Y-56823809D01*
X74061904Y-56861904D01*
X74138095Y-56861904D01*
X74214285Y-56823809D01*
X74252380Y-56785714D01*
X74290476Y-56709523D01*
X74328571Y-56557142D01*
X74328571Y-56366666D01*
X74290476Y-56214285D01*
X74252380Y-56138095D01*
X74214285Y-56100000D01*
X74138095Y-56061904D01*
X73185714Y-56328571D02*
X73185714Y-56861904D01*
X73376190Y-56023809D02*
X73566666Y-56595238D01*
X73071428Y-56595238D01*
X113245238Y-60360404D02*
X113511904Y-59979452D01*
X113702380Y-60360404D02*
X113702380Y-59560404D01*
X113397619Y-59560404D01*
X113321428Y-59598500D01*
X113283333Y-59636595D01*
X113245238Y-59712785D01*
X113245238Y-59827071D01*
X113283333Y-59903261D01*
X113321428Y-59941357D01*
X113397619Y-59979452D01*
X113702380Y-59979452D01*
X112940476Y-59636595D02*
X112902380Y-59598500D01*
X112826190Y-59560404D01*
X112635714Y-59560404D01*
X112559523Y-59598500D01*
X112521428Y-59636595D01*
X112483333Y-59712785D01*
X112483333Y-59788976D01*
X112521428Y-59903261D01*
X112978571Y-60360404D01*
X112483333Y-60360404D01*
X111721428Y-60360404D02*
X112178571Y-60360404D01*
X111950000Y-60360404D02*
X111950000Y-59560404D01*
X112026190Y-59674690D01*
X112102380Y-59750880D01*
X112178571Y-59788976D01*
X111226190Y-59560404D02*
X111150000Y-59560404D01*
X111073809Y-59598500D01*
X111035714Y-59636595D01*
X110997619Y-59712785D01*
X110959523Y-59865166D01*
X110959523Y-60055642D01*
X110997619Y-60208023D01*
X111035714Y-60284214D01*
X111073809Y-60322309D01*
X111150000Y-60360404D01*
X111226190Y-60360404D01*
X111302380Y-60322309D01*
X111340476Y-60284214D01*
X111378571Y-60208023D01*
X111416666Y-60055642D01*
X111416666Y-59865166D01*
X111378571Y-59712785D01*
X111340476Y-59636595D01*
X111302380Y-59598500D01*
X111226190Y-59560404D01*
X59928571Y-73361904D02*
X59928571Y-73933333D01*
X59966666Y-74047619D01*
X60042857Y-74123809D01*
X60157142Y-74161904D01*
X60233333Y-74161904D01*
X59585714Y-73438095D02*
X59547619Y-73400000D01*
X59471428Y-73361904D01*
X59280952Y-73361904D01*
X59204761Y-73400000D01*
X59166666Y-73438095D01*
X59128571Y-73514285D01*
X59128571Y-73590476D01*
X59166666Y-73704761D01*
X59623809Y-74161904D01*
X59128571Y-74161904D01*
X58633333Y-73361904D02*
X58557142Y-73361904D01*
X58480952Y-73400000D01*
X58442857Y-73438095D01*
X58404761Y-73514285D01*
X58366666Y-73666666D01*
X58366666Y-73857142D01*
X58404761Y-74009523D01*
X58442857Y-74085714D01*
X58480952Y-74123809D01*
X58557142Y-74161904D01*
X58633333Y-74161904D01*
X58709523Y-74123809D01*
X58747619Y-74085714D01*
X58785714Y-74009523D01*
X58823809Y-73857142D01*
X58823809Y-73666666D01*
X58785714Y-73514285D01*
X58747619Y-73438095D01*
X58709523Y-73400000D01*
X58633333Y-73361904D01*
X57604761Y-74161904D02*
X58061904Y-74161904D01*
X57833333Y-74161904D02*
X57833333Y-73361904D01*
X57909523Y-73476190D01*
X57985714Y-73552380D01*
X58061904Y-73590476D01*
D13*
X123238748Y-54285000D02*
X123761252Y-54285000D01*
X123238748Y-52815000D02*
X123761252Y-52815000D01*
X123238748Y-57485000D02*
X123761252Y-57485000D01*
X123238748Y-56015000D02*
X123761252Y-56015000D01*
X132535000Y-75611252D02*
X132535000Y-75088748D01*
X131065000Y-75611252D02*
X131065000Y-75088748D01*
X128411252Y-56015000D02*
X127888748Y-56015000D01*
X128411252Y-57485000D02*
X127888748Y-57485000D01*
X128411252Y-52815000D02*
X127888748Y-52815000D01*
X128411252Y-54285000D02*
X127888748Y-54285000D01*
X95360000Y-68102064D02*
X95360000Y-67647936D01*
X93890000Y-68102064D02*
X93890000Y-67647936D01*
X137025000Y-56550000D02*
X137025000Y-54740000D01*
X137025000Y-54740000D02*
X131900000Y-54740000D01*
X137025000Y-47960000D02*
X135925000Y-47960000D01*
X138525000Y-46150000D02*
X137025000Y-46150000D01*
X137025000Y-46150000D02*
X137025000Y-47960000D01*
X138525000Y-56550000D02*
X137025000Y-56550000D01*
X127035000Y-75611252D02*
X127035000Y-75088748D01*
X125565000Y-75611252D02*
X125565000Y-75088748D01*
X129785000Y-75611252D02*
X129785000Y-75088748D01*
X128315000Y-75611252D02*
X128315000Y-75088748D01*
X136955000Y-75176263D02*
X136955000Y-76623737D01*
X134245000Y-75176263D02*
X134245000Y-76623737D01*
X124040000Y-66527064D02*
X124040000Y-62172936D01*
X127460000Y-66527064D02*
X127460000Y-62172936D01*
X80250000Y-75090000D02*
X81350000Y-75090000D01*
X78750000Y-66500000D02*
X80250000Y-66500000D01*
X80250000Y-68310000D02*
X85375000Y-68310000D01*
X78750000Y-76900000D02*
X80250000Y-76900000D01*
X80250000Y-66500000D02*
X80250000Y-68310000D01*
X80250000Y-76900000D02*
X80250000Y-75090000D01*
X102004058Y-52110000D02*
X102004058Y-52210000D01*
X102204058Y-47110000D02*
X102204058Y-45690000D01*
X102004058Y-50690000D02*
X102004058Y-47110000D01*
X102204058Y-45690000D02*
X102004058Y-45690000D01*
X102204058Y-52110000D02*
X102004058Y-52110000D01*
X102004058Y-47110000D02*
X102204058Y-47110000D01*
X102004058Y-50690000D02*
X102204058Y-50690000D01*
X102004058Y-52210000D02*
X101754058Y-52210000D01*
X102004058Y-45590000D02*
X101314058Y-45590000D01*
X96294058Y-52210000D02*
X99834058Y-52210000D01*
X100274058Y-45590000D02*
X96294058Y-45590000D01*
X102004058Y-45690000D02*
X102004058Y-45590000D01*
X94984058Y-49410000D02*
X94984058Y-50900000D01*
X94984058Y-46900000D02*
X94984058Y-48390000D01*
X102204058Y-52110000D02*
X102204058Y-50690000D01*
X94984058Y-50900000D02*
G75*
G03*
X96294058Y-52210000I1310000J0D01*
G01*
X96294058Y-45590000D02*
G75*
G03*
X94984058Y-46900000I0J-1310000D01*
G01*
X115522936Y-58185000D02*
X115977064Y-58185000D01*
X115522936Y-56715000D02*
X115977064Y-56715000D01*
X123650000Y-79400000D02*
X123650000Y-76600000D01*
X113250000Y-71800000D02*
X113250000Y-69000000D01*
X113250000Y-76600000D02*
X113250000Y-79400000D01*
X123650000Y-69000000D02*
X123650000Y-71800000D01*
X113250000Y-69000000D02*
X123650000Y-69000000D01*
X113250000Y-79400000D02*
X123650000Y-79400000D01*
X115522936Y-64342500D02*
X115977064Y-64342500D01*
X115522936Y-65812500D02*
X115977064Y-65812500D01*
X78340000Y-48510000D02*
X78340000Y-46590000D01*
X78340000Y-46590000D02*
X81200000Y-46590000D01*
X81200000Y-48510000D02*
X78340000Y-48510000D01*
X75223737Y-49795000D02*
X73776263Y-49795000D01*
X75223737Y-52505000D02*
X73776263Y-52505000D01*
X87765000Y-67622936D02*
X87765000Y-68077064D01*
X89235000Y-67622936D02*
X89235000Y-68077064D01*
X115488748Y-63260000D02*
X116011252Y-63260000D01*
X115488748Y-61790000D02*
X116011252Y-61790000D01*
X104572936Y-64265000D02*
X105027064Y-64265000D01*
X104572936Y-65735000D02*
X105027064Y-65735000D01*
X142850000Y-61370000D02*
X152850000Y-61370000D01*
X152850000Y-71530000D02*
X142850000Y-71530000D01*
X152850000Y-61370000D02*
X152850000Y-71530000D01*
X142850000Y-71530000D02*
X142850000Y-61370000D01*
X151850000Y-71530000D02*
X151850000Y-61370000D01*
X108000000Y-75110000D02*
X106200000Y-75110000D01*
X106200000Y-71890000D02*
X109150000Y-71890000D01*
X80523737Y-52505000D02*
X79076263Y-52505000D01*
X80523737Y-49795000D02*
X79076263Y-49795000D01*
X107411252Y-69165000D02*
X106888748Y-69165000D01*
X107411252Y-70635000D02*
X106888748Y-70635000D01*
X115522936Y-66865000D02*
X115977064Y-66865000D01*
X115522936Y-68335000D02*
X115977064Y-68335000D01*
X110204058Y-52210000D02*
X109954058Y-52210000D01*
X110404058Y-52110000D02*
X110404058Y-50690000D01*
X110204058Y-47110000D02*
X110404058Y-47110000D01*
X110404058Y-45690000D02*
X110204058Y-45690000D01*
X110404058Y-47110000D02*
X110404058Y-45690000D01*
X110204058Y-50690000D02*
X110404058Y-50690000D01*
X104494058Y-52210000D02*
X108034058Y-52210000D01*
X110404058Y-52110000D02*
X110204058Y-52110000D01*
X110204058Y-52110000D02*
X110204058Y-52210000D01*
X110204058Y-45690000D02*
X110204058Y-45590000D01*
X103184058Y-49410000D02*
X103184058Y-50900000D01*
X110204058Y-45590000D02*
X109514058Y-45590000D01*
X108474058Y-45590000D02*
X104494058Y-45590000D01*
X110204058Y-50690000D02*
X110204058Y-47110000D01*
X103184058Y-46900000D02*
X103184058Y-48390000D01*
X103184058Y-50900000D02*
G75*
G03*
X104494058Y-52210000I1310000J0D01*
G01*
X104494058Y-45590000D02*
G75*
G03*
X103184058Y-46900000I0J-1310000D01*
G01*
X104572936Y-59265000D02*
X105027064Y-59265000D01*
X104572936Y-60735000D02*
X105027064Y-60735000D01*
X112694058Y-52210000D02*
X116234058Y-52210000D01*
X118404058Y-45590000D02*
X117714058Y-45590000D01*
X118404058Y-52110000D02*
X118404058Y-52210000D01*
X118604058Y-52110000D02*
X118404058Y-52110000D01*
X116674058Y-45590000D02*
X112694058Y-45590000D01*
X118604058Y-52110000D02*
X118604058Y-50690000D01*
X118604058Y-47110000D02*
X118604058Y-45690000D01*
X118404058Y-50690000D02*
X118404058Y-47110000D01*
X118404058Y-52210000D02*
X118154058Y-52210000D01*
X118604058Y-45690000D02*
X118404058Y-45690000D01*
X118404058Y-45690000D02*
X118404058Y-45590000D01*
X118404058Y-47110000D02*
X118604058Y-47110000D01*
X111384058Y-49410000D02*
X111384058Y-50900000D01*
X111384058Y-46900000D02*
X111384058Y-48390000D01*
X118404058Y-50690000D02*
X118604058Y-50690000D01*
X112694058Y-45590000D02*
G75*
G03*
X111384058Y-46900000I0J-1310000D01*
G01*
X111384058Y-50900000D02*
G75*
G03*
X112694058Y-52210000I1310000J0D01*
G01*
X104965000Y-77561252D02*
X104965000Y-77038748D01*
X106435000Y-77561252D02*
X106435000Y-77038748D01*
X72640000Y-48510000D02*
X72640000Y-46590000D01*
X75500000Y-48510000D02*
X72640000Y-48510000D01*
X72640000Y-46590000D02*
X75500000Y-46590000D01*
X93804058Y-45590000D02*
X93114058Y-45590000D01*
X88094058Y-52210000D02*
X91634058Y-52210000D01*
X92074058Y-45590000D02*
X88094058Y-45590000D01*
X93804058Y-47110000D02*
X94004058Y-47110000D01*
X94004058Y-47110000D02*
X94004058Y-45690000D01*
X94004058Y-45690000D02*
X93804058Y-45690000D01*
X86784058Y-49410000D02*
X86784058Y-50900000D01*
X93804058Y-50690000D02*
X93804058Y-47110000D01*
X93804058Y-52210000D02*
X93554058Y-52210000D01*
X94004058Y-52110000D02*
X93804058Y-52110000D01*
X93804058Y-50690000D02*
X94004058Y-50690000D01*
X93804058Y-52110000D02*
X93804058Y-52210000D01*
X93804058Y-45690000D02*
X93804058Y-45590000D01*
X86784058Y-46900000D02*
X86784058Y-48390000D01*
X94004058Y-52110000D02*
X94004058Y-50690000D01*
X86784058Y-50900000D02*
G75*
G03*
X88094058Y-52210000I1310000J0D01*
G01*
X88094058Y-45590000D02*
G75*
G03*
X86784058Y-46900000I0J-1310000D01*
G01*
X104572936Y-63335000D02*
X105027064Y-63335000D01*
X104572936Y-61865000D02*
X105027064Y-61865000D01*
X87500000Y-75050000D02*
X87500000Y-71150000D01*
X89500000Y-75050000D02*
X89500000Y-71150000D01*
X89500000Y-75050000D02*
X87500000Y-75050000D01*
X104572936Y-56665000D02*
X105027064Y-56665000D01*
X104572936Y-58135000D02*
X105027064Y-58135000D01*
X109185000Y-77561252D02*
X109185000Y-77038748D01*
X107715000Y-77561252D02*
X107715000Y-77038748D01*
X76750000Y-53800000D02*
X76750000Y-55800000D01*
X76750000Y-53800000D02*
X72850000Y-53800000D01*
X76750000Y-55800000D02*
X72850000Y-55800000D01*
X115977064Y-60707500D02*
X115522936Y-60707500D01*
X115977064Y-59237500D02*
X115522936Y-59237500D01*
X67500000Y-62920000D02*
X67500000Y-73080000D01*
X67500000Y-73080000D02*
X57500000Y-73080000D01*
X57500000Y-73080000D02*
X57500000Y-62920000D01*
X57500000Y-62920000D02*
X67500000Y-62920000D01*
X58500000Y-62920000D02*
X58500000Y-73080000D01*
%LPC*%
D14*
X122462500Y-53550000D03*
X124537500Y-53550000D03*
X122462500Y-56750000D03*
X124537500Y-56750000D03*
D15*
X131800000Y-76387500D03*
X131800000Y-74312500D03*
D16*
X129187500Y-56750000D03*
X127112500Y-56750000D03*
X129187500Y-53550000D03*
X127112500Y-53550000D03*
D17*
X151500000Y-48500000D03*
X58500000Y-76500000D03*
D18*
X130650000Y-62950000D03*
X139450000Y-62950000D03*
D19*
X137550000Y-69950000D03*
X135050000Y-69950000D03*
X132550000Y-69950000D03*
D20*
X94625000Y-68875000D03*
X94625000Y-66875000D03*
D21*
X98000000Y-56175000D03*
D22*
X98000000Y-58715000D03*
X98000000Y-61255000D03*
X98000000Y-63795000D03*
X98000000Y-66335000D03*
X98000000Y-68875000D03*
D17*
X58500000Y-48500000D03*
X151500000Y-76500000D03*
D23*
X134200000Y-48810000D03*
D24*
X143350000Y-51350000D03*
D23*
X134200000Y-53890000D03*
D15*
X126300000Y-76387500D03*
X126300000Y-74312500D03*
X129050000Y-76387500D03*
X129050000Y-74312500D03*
D25*
X135600000Y-77450000D03*
X135600000Y-74350000D03*
D26*
X100775000Y-67600000D03*
X100775000Y-65100000D03*
X100775000Y-62600000D03*
X100775000Y-60100000D03*
X100775000Y-57600000D03*
X119075000Y-57600000D03*
X119075000Y-60100000D03*
X119075000Y-62600000D03*
X119075000Y-65100000D03*
X119075000Y-67600000D03*
D27*
X111025000Y-54600000D03*
X111025000Y-70600000D03*
D28*
X125750000Y-67400000D03*
X125750000Y-61300000D03*
D23*
X83075000Y-69160000D03*
D24*
X73925000Y-71700000D03*
D23*
X83075000Y-74240000D03*
D29*
X100794058Y-51400000D03*
D30*
X95794058Y-48900000D03*
X100794058Y-46400000D03*
D31*
X114750000Y-57450000D03*
X116750000Y-57450000D03*
D32*
X114450000Y-74200000D03*
X122450000Y-74200000D03*
D31*
X114750000Y-65077500D03*
X116750000Y-65077500D03*
D33*
X79175000Y-47550000D03*
X81225000Y-47550000D03*
D34*
X76050000Y-51150000D03*
X72950000Y-51150000D03*
D35*
X88500000Y-68850000D03*
X88500000Y-66850000D03*
D14*
X114712500Y-62525000D03*
X116787500Y-62525000D03*
D31*
X103800000Y-65000000D03*
X105800000Y-65000000D03*
D36*
X147850000Y-63910000D03*
D27*
X147850000Y-68990000D03*
D37*
X108450000Y-72550000D03*
X108450000Y-73500000D03*
X108450000Y-74450000D03*
X105750000Y-74450000D03*
X105750000Y-73500000D03*
X105750000Y-72550000D03*
D34*
X81350000Y-51150000D03*
X78250000Y-51150000D03*
D16*
X108187500Y-69900000D03*
X106112500Y-69900000D03*
D31*
X114750000Y-67600000D03*
X116750000Y-67600000D03*
D29*
X108994058Y-51400000D03*
D30*
X103994058Y-48900000D03*
X108994058Y-46400000D03*
D31*
X103800000Y-60000000D03*
X105800000Y-60000000D03*
D29*
X117194058Y-51400000D03*
D30*
X112194058Y-48900000D03*
X117194058Y-46400000D03*
D15*
X105700000Y-78337500D03*
X105700000Y-76262500D03*
D33*
X73475000Y-47550000D03*
X75525000Y-47550000D03*
D29*
X92594058Y-51400000D03*
D30*
X87594058Y-48900000D03*
X92594058Y-46400000D03*
D31*
X103800000Y-62600000D03*
X105800000Y-62600000D03*
D38*
X88500000Y-74450000D03*
X88500000Y-71150000D03*
D31*
X103800000Y-57400000D03*
X105800000Y-57400000D03*
D15*
X108450000Y-78337500D03*
X108450000Y-76262500D03*
D39*
X76150000Y-54800000D03*
X72850000Y-54800000D03*
D40*
X116750000Y-59972500D03*
X114750000Y-59972500D03*
D36*
X62500000Y-70540000D03*
D27*
X62500000Y-65460000D03*
M02*
