G04 #@! TF.GenerationSoftware,KiCad,Pcbnew,(6.0.9)*
G04 #@! TF.CreationDate,2022-12-05T09:31:55+01:00*
G04 #@! TF.ProjectId,HeaterPSU,48656174-6572-4505-9355-2e6b69636164,rev?*
G04 #@! TF.SameCoordinates,Original*
G04 #@! TF.FileFunction,Copper,L1,Top*
G04 #@! TF.FilePolarity,Positive*
%FSLAX46Y46*%
G04 Gerber Fmt 4.6, Leading zero omitted, Abs format (unit mm)*
G04 Created by KiCad (PCBNEW (6.0.9)) date 2022-12-05 09:31:55*
%MOMM*%
%LPD*%
G01*
G04 APERTURE LIST*
G04 Aperture macros list*
%AMRoundRect*
0 Rectangle with rounded corners*
0 $1 Rounding radius*
0 $2 $3 $4 $5 $6 $7 $8 $9 X,Y pos of 4 corners*
0 Add a 4 corners polygon primitive as box body*
4,1,4,$2,$3,$4,$5,$6,$7,$8,$9,$2,$3,0*
0 Add four circle primitives for the rounded corners*
1,1,$1+$1,$2,$3*
1,1,$1+$1,$4,$5*
1,1,$1+$1,$6,$7*
1,1,$1+$1,$8,$9*
0 Add four rect primitives between the rounded corners*
20,1,$1+$1,$2,$3,$4,$5,0*
20,1,$1+$1,$4,$5,$6,$7,0*
20,1,$1+$1,$6,$7,$8,$9,0*
20,1,$1+$1,$8,$9,$2,$3,0*%
G04 Aperture macros list end*
G04 #@! TA.AperFunction,SMDPad,CuDef*
%ADD10RoundRect,0.250000X0.350000X0.450000X-0.350000X0.450000X-0.350000X-0.450000X0.350000X-0.450000X0*%
G04 #@! TD*
G04 #@! TA.AperFunction,WasherPad*
%ADD11C,4.000000*%
G04 #@! TD*
G04 #@! TA.AperFunction,ComponentPad*
%ADD12C,1.800000*%
G04 #@! TD*
G04 #@! TA.AperFunction,ComponentPad*
%ADD13R,1.700000X1.700000*%
G04 #@! TD*
G04 #@! TA.AperFunction,ComponentPad*
%ADD14O,1.700000X1.700000*%
G04 #@! TD*
G04 #@! TA.AperFunction,SMDPad,CuDef*
%ADD15RoundRect,0.150000X-0.587500X-0.150000X0.587500X-0.150000X0.587500X0.150000X-0.587500X0.150000X0*%
G04 #@! TD*
G04 #@! TA.AperFunction,ComponentPad*
%ADD16C,1.400000*%
G04 #@! TD*
G04 #@! TA.AperFunction,ComponentPad*
%ADD17C,3.000000*%
G04 #@! TD*
G04 #@! TA.AperFunction,ComponentPad*
%ADD18R,1.550000X1.550000*%
G04 #@! TD*
G04 #@! TA.AperFunction,ComponentPad*
%ADD19C,1.550000*%
G04 #@! TD*
G04 #@! TA.AperFunction,ComponentPad*
%ADD20R,3.000000X3.000000*%
G04 #@! TD*
G04 #@! TA.AperFunction,ViaPad*
%ADD21C,0.800000*%
G04 #@! TD*
G04 #@! TA.AperFunction,Conductor*
%ADD22C,0.250000*%
G04 #@! TD*
G04 APERTURE END LIST*
D10*
X119675000Y-50825000D03*
X121675000Y-50825000D03*
D11*
X130650000Y-62950000D03*
X139450000Y-62950000D03*
D12*
X137550000Y-69950000D03*
X135050000Y-69950000D03*
X132550000Y-69950000D03*
D13*
X98000000Y-56175000D03*
D14*
X98000000Y-58715000D03*
X98000000Y-61255000D03*
X98000000Y-63795000D03*
X98000000Y-66335000D03*
X98000000Y-68875000D03*
D15*
X121625000Y-47900000D03*
X119750000Y-48850000D03*
X119750000Y-46950000D03*
D10*
X130375000Y-50800000D03*
X128375000Y-50800000D03*
D15*
X125975000Y-47900000D03*
X124100000Y-48850000D03*
X124100000Y-46950000D03*
D10*
X123975000Y-50850000D03*
X125975000Y-50850000D03*
D16*
X100775000Y-67600000D03*
X100775000Y-65100000D03*
X100775000Y-62600000D03*
X100775000Y-60100000D03*
X100775000Y-57600000D03*
X119075000Y-57600000D03*
X119075000Y-60100000D03*
X119075000Y-62600000D03*
X119075000Y-65100000D03*
X119075000Y-67600000D03*
D17*
X111025000Y-54600000D03*
X111025000Y-70600000D03*
D15*
X128450000Y-46950000D03*
X128450000Y-48850000D03*
X130325000Y-47900000D03*
D18*
X100794058Y-51400000D03*
D19*
X95794058Y-48900000D03*
X100794058Y-46400000D03*
D20*
X147850000Y-65460000D03*
D17*
X147850000Y-70540000D03*
D18*
X108994058Y-51400000D03*
D19*
X103994058Y-48900000D03*
X108994058Y-46400000D03*
D18*
X117194058Y-51400000D03*
D19*
X112194058Y-48900000D03*
X117194058Y-46400000D03*
D18*
X92594058Y-51400000D03*
D19*
X87594058Y-48900000D03*
X92594058Y-46400000D03*
D20*
X62500000Y-70540000D03*
D17*
X62500000Y-65460000D03*
D21*
X81500000Y-48000000D03*
X124450000Y-47925000D03*
X131450000Y-53025000D03*
X122800000Y-49700000D03*
X137100000Y-66400000D03*
X120600000Y-53700000D03*
X100300000Y-71300000D03*
X94030000Y-61490000D03*
X82600000Y-78700000D03*
X66000000Y-75000000D03*
X80600000Y-78700000D03*
X130700000Y-55100000D03*
X67605000Y-47680000D03*
X66000000Y-78000000D03*
X109100000Y-71800000D03*
X147250000Y-74050000D03*
X66000000Y-77000000D03*
X81600000Y-78700000D03*
X126300000Y-78200000D03*
X134350000Y-58400000D03*
X105200000Y-55400000D03*
X102500000Y-79000000D03*
X108200000Y-71800000D03*
X62500000Y-57650000D03*
X56300000Y-52800000D03*
X110200000Y-57700000D03*
X88600000Y-65600000D03*
X96200000Y-73200000D03*
X66000000Y-69000000D03*
X112000000Y-66500000D03*
X93000000Y-56750000D03*
X121300000Y-58900000D03*
X118475000Y-48825000D03*
X107000000Y-66500000D03*
X66000000Y-62000000D03*
X111000000Y-79000000D03*
X101900000Y-48950000D03*
X66000000Y-76000000D03*
X66000000Y-70000000D03*
X66000000Y-72000000D03*
X116550000Y-49350000D03*
X131800000Y-78200000D03*
X129100000Y-78200000D03*
X117200000Y-69850000D03*
X118000000Y-79000000D03*
X135900000Y-46800000D03*
X66000000Y-71000000D03*
X113200000Y-58650000D03*
X119825000Y-74200000D03*
D22*
X84200000Y-45300000D02*
X81500000Y-48000000D01*
X128209251Y-45300000D02*
X84200000Y-45300000D01*
X130325000Y-47415749D02*
X128209251Y-45300000D01*
X130325000Y-47900000D02*
X130325000Y-47415749D01*
X130325000Y-50750000D02*
X130375000Y-50800000D01*
X130325000Y-47900000D02*
X130325000Y-50750000D01*
X124100000Y-46950000D02*
X122575000Y-46950000D01*
X122575000Y-46950000D02*
X121625000Y-47900000D01*
X128450000Y-46950000D02*
X124100000Y-46950000D01*
X124475000Y-47900000D02*
X124450000Y-47925000D01*
X125975000Y-47900000D02*
X124475000Y-47900000D01*
X124100000Y-48850000D02*
X128450000Y-48850000D01*
X123975000Y-48975000D02*
X124100000Y-48850000D01*
X123975000Y-50850000D02*
X123975000Y-48975000D01*
X128150000Y-53025000D02*
X125975000Y-50850000D01*
X131450000Y-53025000D02*
X128150000Y-53025000D01*
X129512500Y-48496751D02*
X128450000Y-47434251D01*
X128450000Y-47434251D02*
X128450000Y-46950000D01*
X129512500Y-49662500D02*
X129512500Y-48496751D01*
X128375000Y-50800000D02*
X129512500Y-49662500D01*
X118500000Y-48850000D02*
X118475000Y-48825000D01*
X119750000Y-48850000D02*
X118500000Y-48850000D01*
X113200000Y-58650000D02*
X113135000Y-58715000D01*
X113135000Y-58715000D02*
X98000000Y-58715000D01*
X99175000Y-62430000D02*
X98000000Y-61255000D01*
X99900000Y-72900000D02*
X99175000Y-72175000D01*
X119825000Y-74200000D02*
X105350000Y-74200000D01*
X99175000Y-72175000D02*
X99175000Y-62430000D01*
X105350000Y-74200000D02*
X104050000Y-72900000D01*
X104050000Y-72900000D02*
X99900000Y-72900000D01*
X98000000Y-56175000D02*
X101550000Y-52625000D01*
X101550000Y-52625000D02*
X118169058Y-52625000D01*
X119675000Y-51119058D02*
X119675000Y-50825000D01*
X118169058Y-52625000D02*
X119675000Y-51119058D01*
X119750000Y-46950000D02*
X119750000Y-47440749D01*
X121675000Y-49365749D02*
X121675000Y-50825000D01*
X119750000Y-47440749D02*
X121675000Y-49365749D01*
G04 #@! TA.AperFunction,Conductor*
G36*
X83361683Y-45320502D02*
G01*
X83408176Y-45374158D01*
X83418280Y-45444432D01*
X83388786Y-45509012D01*
X83382657Y-45515595D01*
X81635460Y-47262792D01*
X81573148Y-47296818D01*
X81545705Y-47299695D01*
X81490253Y-47299405D01*
X81418895Y-47299031D01*
X81411508Y-47300805D01*
X81411504Y-47300805D01*
X81268162Y-47335220D01*
X81254032Y-47338612D01*
X81247288Y-47342093D01*
X81247285Y-47342094D01*
X81123391Y-47406041D01*
X81103369Y-47416375D01*
X81097647Y-47421367D01*
X81097645Y-47421368D01*
X81044061Y-47468112D01*
X80975604Y-47527831D01*
X80971237Y-47534045D01*
X80884553Y-47657384D01*
X80878113Y-47666547D01*
X80816524Y-47824513D01*
X80815532Y-47832046D01*
X80815532Y-47832047D01*
X80797609Y-47968192D01*
X80794394Y-47992611D01*
X80812999Y-48161135D01*
X80836139Y-48224368D01*
X80864900Y-48302959D01*
X80871266Y-48320356D01*
X80875502Y-48326659D01*
X80875502Y-48326660D01*
X80888574Y-48346113D01*
X80965830Y-48461083D01*
X80971442Y-48466190D01*
X80971445Y-48466193D01*
X81085612Y-48570077D01*
X81085616Y-48570080D01*
X81091233Y-48575191D01*
X81097906Y-48578814D01*
X81097910Y-48578817D01*
X81233558Y-48652467D01*
X81233560Y-48652468D01*
X81240235Y-48656092D01*
X81247584Y-48658020D01*
X81396883Y-48697188D01*
X81396885Y-48697188D01*
X81404233Y-48699116D01*
X81490609Y-48700473D01*
X81566161Y-48701660D01*
X81566164Y-48701660D01*
X81573760Y-48701779D01*
X81581165Y-48700083D01*
X81581166Y-48700083D01*
X81660828Y-48681838D01*
X81739029Y-48663928D01*
X81890498Y-48587747D01*
X81999121Y-48494974D01*
X82013651Y-48482564D01*
X82013652Y-48482563D01*
X82019423Y-48477634D01*
X82118361Y-48339947D01*
X82126237Y-48320356D01*
X82178766Y-48189687D01*
X82178767Y-48189685D01*
X82181601Y-48182634D01*
X82201616Y-48042001D01*
X82204909Y-48018862D01*
X82204909Y-48018859D01*
X82205490Y-48014778D01*
X82205645Y-48000000D01*
X82204751Y-47992611D01*
X82201796Y-47968192D01*
X82213469Y-47898162D01*
X82237788Y-47863960D01*
X82270811Y-47830937D01*
X86890584Y-47830937D01*
X86897653Y-47844385D01*
X87581246Y-48527978D01*
X87595190Y-48535592D01*
X87597023Y-48535461D01*
X87603638Y-48531210D01*
X88291185Y-47843663D01*
X88297615Y-47831888D01*
X88296879Y-47830937D01*
X95090584Y-47830937D01*
X95097653Y-47844385D01*
X95781246Y-48527978D01*
X95795190Y-48535592D01*
X95797023Y-48535461D01*
X95803638Y-48531210D01*
X96491185Y-47843663D01*
X96497615Y-47831888D01*
X96496879Y-47830937D01*
X103290584Y-47830937D01*
X103297653Y-47844385D01*
X103981246Y-48527978D01*
X103995190Y-48535592D01*
X103997023Y-48535461D01*
X104003638Y-48531210D01*
X104691185Y-47843663D01*
X104697615Y-47831888D01*
X104696879Y-47830937D01*
X111490584Y-47830937D01*
X111497653Y-47844385D01*
X112181246Y-48527978D01*
X112195190Y-48535592D01*
X112197023Y-48535461D01*
X112203638Y-48531210D01*
X112891185Y-47843663D01*
X112897615Y-47831888D01*
X112888319Y-47819873D01*
X112842517Y-47787802D01*
X112833022Y-47782319D01*
X112639528Y-47692092D01*
X112629236Y-47688346D01*
X112423015Y-47633089D01*
X112412220Y-47631186D01*
X112199533Y-47612578D01*
X112188583Y-47612578D01*
X111975896Y-47631186D01*
X111965101Y-47633089D01*
X111758880Y-47688346D01*
X111748588Y-47692092D01*
X111555095Y-47782319D01*
X111545599Y-47787802D01*
X111498959Y-47820460D01*
X111490584Y-47830937D01*
X104696879Y-47830937D01*
X104688319Y-47819873D01*
X104642517Y-47787802D01*
X104633022Y-47782319D01*
X104439528Y-47692092D01*
X104429236Y-47688346D01*
X104223015Y-47633089D01*
X104212220Y-47631186D01*
X103999533Y-47612578D01*
X103988583Y-47612578D01*
X103775896Y-47631186D01*
X103765101Y-47633089D01*
X103558880Y-47688346D01*
X103548588Y-47692092D01*
X103355095Y-47782319D01*
X103345599Y-47787802D01*
X103298959Y-47820460D01*
X103290584Y-47830937D01*
X96496879Y-47830937D01*
X96488319Y-47819873D01*
X96442517Y-47787802D01*
X96433022Y-47782319D01*
X96239528Y-47692092D01*
X96229236Y-47688346D01*
X96023015Y-47633089D01*
X96012220Y-47631186D01*
X95799533Y-47612578D01*
X95788583Y-47612578D01*
X95575896Y-47631186D01*
X95565101Y-47633089D01*
X95358880Y-47688346D01*
X95348588Y-47692092D01*
X95155095Y-47782319D01*
X95145599Y-47787802D01*
X95098959Y-47820460D01*
X95090584Y-47830937D01*
X88296879Y-47830937D01*
X88288319Y-47819873D01*
X88242517Y-47787802D01*
X88233022Y-47782319D01*
X88039528Y-47692092D01*
X88029236Y-47688346D01*
X87823015Y-47633089D01*
X87812220Y-47631186D01*
X87599533Y-47612578D01*
X87588583Y-47612578D01*
X87375896Y-47631186D01*
X87365101Y-47633089D01*
X87158880Y-47688346D01*
X87148588Y-47692092D01*
X86955095Y-47782319D01*
X86945599Y-47787802D01*
X86898959Y-47820460D01*
X86890584Y-47830937D01*
X82270811Y-47830937D01*
X82633636Y-47468112D01*
X91890501Y-47468112D01*
X91899797Y-47480127D01*
X91945599Y-47512198D01*
X91955094Y-47517681D01*
X92148588Y-47607908D01*
X92158880Y-47611654D01*
X92365101Y-47666911D01*
X92375896Y-47668814D01*
X92588583Y-47687422D01*
X92599533Y-47687422D01*
X92812220Y-47668814D01*
X92823015Y-47666911D01*
X93029236Y-47611654D01*
X93039528Y-47607908D01*
X93233022Y-47517681D01*
X93242517Y-47512198D01*
X93289157Y-47479540D01*
X93297532Y-47469063D01*
X93297032Y-47468112D01*
X100090501Y-47468112D01*
X100099797Y-47480127D01*
X100145599Y-47512198D01*
X100155094Y-47517681D01*
X100348588Y-47607908D01*
X100358880Y-47611654D01*
X100565101Y-47666911D01*
X100575896Y-47668814D01*
X100788583Y-47687422D01*
X100799533Y-47687422D01*
X101012220Y-47668814D01*
X101023015Y-47666911D01*
X101229236Y-47611654D01*
X101239528Y-47607908D01*
X101433022Y-47517681D01*
X101442517Y-47512198D01*
X101489157Y-47479540D01*
X101497532Y-47469063D01*
X101497032Y-47468112D01*
X108290501Y-47468112D01*
X108299797Y-47480127D01*
X108345599Y-47512198D01*
X108355094Y-47517681D01*
X108548588Y-47607908D01*
X108558880Y-47611654D01*
X108765101Y-47666911D01*
X108775896Y-47668814D01*
X108988583Y-47687422D01*
X108999533Y-47687422D01*
X109212220Y-47668814D01*
X109223015Y-47666911D01*
X109429236Y-47611654D01*
X109439528Y-47607908D01*
X109633022Y-47517681D01*
X109642517Y-47512198D01*
X109689157Y-47479540D01*
X109697532Y-47469063D01*
X109697032Y-47468112D01*
X116490501Y-47468112D01*
X116499797Y-47480127D01*
X116545599Y-47512198D01*
X116555094Y-47517681D01*
X116748588Y-47607908D01*
X116758880Y-47611654D01*
X116965101Y-47666911D01*
X116975896Y-47668814D01*
X117188583Y-47687422D01*
X117199533Y-47687422D01*
X117412220Y-47668814D01*
X117423015Y-47666911D01*
X117629236Y-47611654D01*
X117639528Y-47607908D01*
X117833022Y-47517681D01*
X117842517Y-47512198D01*
X117889157Y-47479540D01*
X117897532Y-47469063D01*
X117890464Y-47455616D01*
X117206870Y-46772022D01*
X117192926Y-46764408D01*
X117191093Y-46764539D01*
X117184478Y-46768790D01*
X116496931Y-47456337D01*
X116490501Y-47468112D01*
X109697032Y-47468112D01*
X109690464Y-47455616D01*
X109006870Y-46772022D01*
X108992926Y-46764408D01*
X108991093Y-46764539D01*
X108984478Y-46768790D01*
X108296931Y-47456337D01*
X108290501Y-47468112D01*
X101497032Y-47468112D01*
X101490464Y-47455616D01*
X100806870Y-46772022D01*
X100792926Y-46764408D01*
X100791093Y-46764539D01*
X100784478Y-46768790D01*
X100096931Y-47456337D01*
X100090501Y-47468112D01*
X93297032Y-47468112D01*
X93290464Y-47455616D01*
X92606870Y-46772022D01*
X92592926Y-46764408D01*
X92591093Y-46764539D01*
X92584478Y-46768790D01*
X91896931Y-47456337D01*
X91890501Y-47468112D01*
X82633636Y-47468112D01*
X84339343Y-45762405D01*
X84401655Y-45728379D01*
X84428438Y-45725500D01*
X91295168Y-45725500D01*
X91363289Y-45745502D01*
X91409782Y-45799158D01*
X91419886Y-45869432D01*
X91409363Y-45904750D01*
X91386150Y-45954530D01*
X91382404Y-45964822D01*
X91327147Y-46171043D01*
X91325244Y-46181838D01*
X91306636Y-46394525D01*
X91306636Y-46405475D01*
X91325244Y-46618162D01*
X91327147Y-46628957D01*
X91382404Y-46835178D01*
X91386150Y-46845470D01*
X91476377Y-47038963D01*
X91481860Y-47048459D01*
X91514518Y-47095099D01*
X91524995Y-47103474D01*
X91538443Y-47096405D01*
X92504963Y-46129885D01*
X92567275Y-46095859D01*
X92638090Y-46100924D01*
X92683153Y-46129885D01*
X93650395Y-47097127D01*
X93662170Y-47103557D01*
X93674185Y-47094261D01*
X93706256Y-47048459D01*
X93711739Y-47038963D01*
X93801966Y-46845470D01*
X93805712Y-46835178D01*
X93860969Y-46628957D01*
X93862872Y-46618162D01*
X93881480Y-46405475D01*
X93881480Y-46394525D01*
X93862872Y-46181838D01*
X93860969Y-46171043D01*
X93805712Y-45964822D01*
X93801966Y-45954530D01*
X93778753Y-45904750D01*
X93768092Y-45834558D01*
X93797072Y-45769746D01*
X93856492Y-45730889D01*
X93892948Y-45725500D01*
X99495168Y-45725500D01*
X99563289Y-45745502D01*
X99609782Y-45799158D01*
X99619886Y-45869432D01*
X99609363Y-45904750D01*
X99586150Y-45954530D01*
X99582404Y-45964822D01*
X99527147Y-46171043D01*
X99525244Y-46181838D01*
X99506636Y-46394525D01*
X99506636Y-46405475D01*
X99525244Y-46618162D01*
X99527147Y-46628957D01*
X99582404Y-46835178D01*
X99586150Y-46845470D01*
X99676377Y-47038963D01*
X99681860Y-47048459D01*
X99714518Y-47095099D01*
X99724995Y-47103474D01*
X99738443Y-47096405D01*
X100704963Y-46129885D01*
X100767275Y-46095859D01*
X100838090Y-46100924D01*
X100883153Y-46129885D01*
X101850395Y-47097127D01*
X101862170Y-47103557D01*
X101874185Y-47094261D01*
X101906256Y-47048459D01*
X101911739Y-47038963D01*
X102001966Y-46845470D01*
X102005712Y-46835178D01*
X102060969Y-46628957D01*
X102062872Y-46618162D01*
X102081480Y-46405475D01*
X102081480Y-46394525D01*
X102062872Y-46181838D01*
X102060969Y-46171043D01*
X102005712Y-45964822D01*
X102001966Y-45954530D01*
X101978753Y-45904750D01*
X101968092Y-45834558D01*
X101997072Y-45769746D01*
X102056492Y-45730889D01*
X102092948Y-45725500D01*
X107695168Y-45725500D01*
X107763289Y-45745502D01*
X107809782Y-45799158D01*
X107819886Y-45869432D01*
X107809363Y-45904750D01*
X107786150Y-45954530D01*
X107782404Y-45964822D01*
X107727147Y-46171043D01*
X107725244Y-46181838D01*
X107706636Y-46394525D01*
X107706636Y-46405475D01*
X107725244Y-46618162D01*
X107727147Y-46628957D01*
X107782404Y-46835178D01*
X107786150Y-46845470D01*
X107876377Y-47038963D01*
X107881860Y-47048459D01*
X107914518Y-47095099D01*
X107924995Y-47103474D01*
X107938443Y-47096405D01*
X108904963Y-46129885D01*
X108967275Y-46095859D01*
X109038090Y-46100924D01*
X109083153Y-46129885D01*
X110050395Y-47097127D01*
X110062170Y-47103557D01*
X110074185Y-47094261D01*
X110106256Y-47048459D01*
X110111739Y-47038963D01*
X110201966Y-46845470D01*
X110205712Y-46835178D01*
X110260969Y-46628957D01*
X110262872Y-46618162D01*
X110281480Y-46405475D01*
X110281480Y-46394525D01*
X110262872Y-46181838D01*
X110260969Y-46171043D01*
X110205712Y-45964822D01*
X110201966Y-45954530D01*
X110178753Y-45904750D01*
X110168092Y-45834558D01*
X110197072Y-45769746D01*
X110256492Y-45730889D01*
X110292948Y-45725500D01*
X115895168Y-45725500D01*
X115963289Y-45745502D01*
X116009782Y-45799158D01*
X116019886Y-45869432D01*
X116009363Y-45904750D01*
X115986150Y-45954530D01*
X115982404Y-45964822D01*
X115927147Y-46171043D01*
X115925244Y-46181838D01*
X115906636Y-46394525D01*
X115906636Y-46405475D01*
X115925244Y-46618162D01*
X115927147Y-46628957D01*
X115982404Y-46835178D01*
X115986150Y-46845470D01*
X116076377Y-47038963D01*
X116081860Y-47048459D01*
X116114518Y-47095099D01*
X116124995Y-47103474D01*
X116138443Y-47096405D01*
X117104963Y-46129885D01*
X117167275Y-46095859D01*
X117238090Y-46100924D01*
X117283153Y-46129885D01*
X118250395Y-47097127D01*
X118262170Y-47103557D01*
X118274185Y-47094261D01*
X118306256Y-47048459D01*
X118311739Y-47038963D01*
X118401966Y-46845470D01*
X118405712Y-46835178D01*
X118460969Y-46628957D01*
X118462872Y-46618162D01*
X118481480Y-46405475D01*
X118481480Y-46394525D01*
X118462872Y-46181838D01*
X118460969Y-46171043D01*
X118405712Y-45964822D01*
X118401966Y-45954530D01*
X118378753Y-45904750D01*
X118368092Y-45834558D01*
X118397072Y-45769746D01*
X118456492Y-45730889D01*
X118492948Y-45725500D01*
X127980813Y-45725500D01*
X128048934Y-45745502D01*
X128069908Y-45762405D01*
X128441908Y-46134405D01*
X128475934Y-46196717D01*
X128470869Y-46267532D01*
X128428322Y-46324368D01*
X128361802Y-46349179D01*
X128352813Y-46349500D01*
X127808666Y-46349500D01*
X127790748Y-46351194D01*
X127784778Y-46351758D01*
X127784777Y-46351758D01*
X127777131Y-46352481D01*
X127649316Y-46397366D01*
X127641746Y-46402958D01*
X127641743Y-46402959D01*
X127638337Y-46405475D01*
X127540350Y-46477850D01*
X127534758Y-46485421D01*
X127532584Y-46487595D01*
X127470272Y-46521621D01*
X127443489Y-46524500D01*
X125106511Y-46524500D01*
X125038390Y-46504498D01*
X125017416Y-46487595D01*
X125015242Y-46485421D01*
X125009650Y-46477850D01*
X124911663Y-46405475D01*
X124908257Y-46402959D01*
X124908254Y-46402958D01*
X124900684Y-46397366D01*
X124772869Y-46352481D01*
X124765223Y-46351758D01*
X124765222Y-46351758D01*
X124759252Y-46351194D01*
X124741334Y-46349500D01*
X123458666Y-46349500D01*
X123440748Y-46351194D01*
X123434778Y-46351758D01*
X123434777Y-46351758D01*
X123427131Y-46352481D01*
X123299316Y-46397366D01*
X123291746Y-46402958D01*
X123291743Y-46402959D01*
X123288337Y-46405475D01*
X123190350Y-46477850D01*
X123184758Y-46485421D01*
X123182584Y-46487595D01*
X123120272Y-46521621D01*
X123093489Y-46524500D01*
X122507607Y-46524500D01*
X122484790Y-46531914D01*
X122465571Y-46536528D01*
X122441874Y-46540281D01*
X122433037Y-46544784D01*
X122433036Y-46544784D01*
X122420498Y-46551172D01*
X122402237Y-46558736D01*
X122388853Y-46563085D01*
X122388850Y-46563087D01*
X122379419Y-46566151D01*
X122371396Y-46571980D01*
X122360009Y-46580253D01*
X122343163Y-46590577D01*
X122321780Y-46601472D01*
X121660657Y-47262595D01*
X121598345Y-47296621D01*
X121571562Y-47299500D01*
X120983666Y-47299500D01*
X120970135Y-47300779D01*
X120959776Y-47301758D01*
X120959773Y-47301759D01*
X120952131Y-47302481D01*
X120944887Y-47305025D01*
X120938779Y-47306365D01*
X120867954Y-47301426D01*
X120811043Y-47258980D01*
X120786114Y-47192504D01*
X120786336Y-47171432D01*
X120787722Y-47156777D01*
X120787722Y-47156773D01*
X120788000Y-47153834D01*
X120788000Y-46746166D01*
X120785019Y-46714631D01*
X120740134Y-46586816D01*
X120734542Y-46579246D01*
X120734541Y-46579243D01*
X120665242Y-46485421D01*
X120659650Y-46477850D01*
X120561663Y-46405475D01*
X120558257Y-46402959D01*
X120558254Y-46402958D01*
X120550684Y-46397366D01*
X120422869Y-46352481D01*
X120415223Y-46351758D01*
X120415222Y-46351758D01*
X120409252Y-46351194D01*
X120391334Y-46349500D01*
X119108666Y-46349500D01*
X119090748Y-46351194D01*
X119084778Y-46351758D01*
X119084777Y-46351758D01*
X119077131Y-46352481D01*
X118949316Y-46397366D01*
X118941746Y-46402958D01*
X118941743Y-46402959D01*
X118938337Y-46405475D01*
X118840350Y-46477850D01*
X118834758Y-46485421D01*
X118765459Y-46579243D01*
X118765458Y-46579246D01*
X118759866Y-46586816D01*
X118714981Y-46714631D01*
X118712000Y-46746166D01*
X118712000Y-47153834D01*
X118714981Y-47185369D01*
X118759866Y-47313184D01*
X118765458Y-47320754D01*
X118765459Y-47320757D01*
X118808020Y-47378379D01*
X118840350Y-47422150D01*
X118847921Y-47427742D01*
X118941743Y-47497041D01*
X118941746Y-47497042D01*
X118949316Y-47502634D01*
X119077131Y-47547519D01*
X119084777Y-47548242D01*
X119084778Y-47548242D01*
X119090748Y-47548806D01*
X119108666Y-47550500D01*
X119246946Y-47550500D01*
X119315067Y-47570502D01*
X119359213Y-47619297D01*
X119363087Y-47626899D01*
X119366151Y-47636330D01*
X119371980Y-47644353D01*
X119380253Y-47655740D01*
X119390577Y-47672586D01*
X119401472Y-47693969D01*
X119534409Y-47826906D01*
X119568435Y-47889218D01*
X119563370Y-47960033D01*
X119520823Y-48016869D01*
X119454303Y-48041680D01*
X119445314Y-48042001D01*
X119098517Y-48042001D01*
X119093580Y-48042195D01*
X119065164Y-48044430D01*
X119052569Y-48046730D01*
X118906710Y-48089107D01*
X118892279Y-48095352D01*
X118762822Y-48171911D01*
X118750396Y-48181551D01*
X118644051Y-48287896D01*
X118634411Y-48300322D01*
X118557852Y-48429779D01*
X118551607Y-48444210D01*
X118512561Y-48578605D01*
X118512601Y-48592706D01*
X118519870Y-48596000D01*
X119878000Y-48596000D01*
X119946121Y-48616002D01*
X119992614Y-48669658D01*
X120004000Y-48722000D01*
X120004000Y-48978000D01*
X119983998Y-49046121D01*
X119930342Y-49092614D01*
X119878000Y-49104000D01*
X118525622Y-49104000D01*
X118512091Y-49107973D01*
X118510956Y-49115871D01*
X118551607Y-49255790D01*
X118557852Y-49270221D01*
X118634411Y-49399678D01*
X118644051Y-49412104D01*
X118750396Y-49518449D01*
X118762822Y-49528089D01*
X118892279Y-49604648D01*
X118906712Y-49610894D01*
X119045114Y-49651104D01*
X119104950Y-49689317D01*
X119134627Y-49753814D01*
X119124723Y-49824116D01*
X119078384Y-49877904D01*
X119067644Y-49883435D01*
X119067686Y-49883509D01*
X119060204Y-49887725D01*
X119052217Y-49890887D01*
X118932078Y-49982078D01*
X118840887Y-50102217D01*
X118837725Y-50110204D01*
X118792152Y-50225309D01*
X118785364Y-50242453D01*
X118774500Y-50332228D01*
X118774500Y-51317772D01*
X118777933Y-51346138D01*
X118766261Y-51416165D01*
X118741941Y-51450369D01*
X118484653Y-51707657D01*
X118422341Y-51741683D01*
X118351526Y-51736618D01*
X118294690Y-51694071D01*
X118269879Y-51627551D01*
X118269558Y-51618562D01*
X118269558Y-50580354D01*
X118266440Y-50554154D01*
X118220997Y-50451847D01*
X118141771Y-50372759D01*
X118131134Y-50368056D01*
X118131132Y-50368055D01*
X118050093Y-50332228D01*
X118039385Y-50327494D01*
X118013704Y-50324500D01*
X116374412Y-50324500D01*
X116370708Y-50324941D01*
X116370705Y-50324941D01*
X116363312Y-50325821D01*
X116348212Y-50327618D01*
X116245905Y-50373061D01*
X116166817Y-50452287D01*
X116121552Y-50554673D01*
X116118558Y-50580354D01*
X116118558Y-52073500D01*
X116098556Y-52141621D01*
X116044900Y-52188114D01*
X115992558Y-52199500D01*
X110195558Y-52199500D01*
X110127437Y-52179498D01*
X110080944Y-52125842D01*
X110069558Y-52073500D01*
X110069558Y-50580354D01*
X110066440Y-50554154D01*
X110020997Y-50451847D01*
X109941771Y-50372759D01*
X109931134Y-50368056D01*
X109931132Y-50368055D01*
X109850093Y-50332228D01*
X109839385Y-50327494D01*
X109813704Y-50324500D01*
X108174412Y-50324500D01*
X108170708Y-50324941D01*
X108170705Y-50324941D01*
X108163312Y-50325821D01*
X108148212Y-50327618D01*
X108045905Y-50373061D01*
X107966817Y-50452287D01*
X107921552Y-50554673D01*
X107918558Y-50580354D01*
X107918558Y-52073500D01*
X107898556Y-52141621D01*
X107844900Y-52188114D01*
X107792558Y-52199500D01*
X101995558Y-52199500D01*
X101927437Y-52179498D01*
X101880944Y-52125842D01*
X101869558Y-52073500D01*
X101869558Y-50580354D01*
X101866440Y-50554154D01*
X101820997Y-50451847D01*
X101741771Y-50372759D01*
X101731134Y-50368056D01*
X101731132Y-50368055D01*
X101650093Y-50332228D01*
X101639385Y-50327494D01*
X101613704Y-50324500D01*
X99974412Y-50324500D01*
X99970708Y-50324941D01*
X99970705Y-50324941D01*
X99963312Y-50325821D01*
X99948212Y-50327618D01*
X99845905Y-50373061D01*
X99766817Y-50452287D01*
X99721552Y-50554673D01*
X99718558Y-50580354D01*
X99718558Y-52219646D01*
X99721676Y-52245846D01*
X99767119Y-52348153D01*
X99775352Y-52356372D01*
X99775353Y-52356373D01*
X99786093Y-52367094D01*
X99846345Y-52427241D01*
X99856982Y-52431944D01*
X99856984Y-52431945D01*
X99899208Y-52450612D01*
X99948731Y-52472506D01*
X99974412Y-52475500D01*
X100793563Y-52475500D01*
X100861684Y-52495502D01*
X100908177Y-52549158D01*
X100918281Y-52619432D01*
X100888787Y-52684012D01*
X100882659Y-52690594D01*
X99550476Y-54022776D01*
X98585657Y-54987595D01*
X98523345Y-55021621D01*
X98496562Y-55024500D01*
X97105354Y-55024500D01*
X97101650Y-55024941D01*
X97101647Y-55024941D01*
X97094254Y-55025821D01*
X97079154Y-55027618D01*
X96976847Y-55073061D01*
X96897759Y-55152287D01*
X96852494Y-55254673D01*
X96849500Y-55280354D01*
X96849500Y-57069646D01*
X96852618Y-57095846D01*
X96898061Y-57198153D01*
X96906294Y-57206372D01*
X96906295Y-57206373D01*
X96922744Y-57222793D01*
X96977287Y-57277241D01*
X96987924Y-57281944D01*
X96987926Y-57281945D01*
X97047462Y-57308265D01*
X97079673Y-57322506D01*
X97105354Y-57325500D01*
X97814988Y-57325500D01*
X97883109Y-57345502D01*
X97929602Y-57399158D01*
X97939706Y-57469432D01*
X97910212Y-57534012D01*
X97850486Y-57572396D01*
X97836326Y-57575680D01*
X97706650Y-57597962D01*
X97706649Y-57597962D01*
X97700953Y-57598941D01*
X97502575Y-57672127D01*
X97497614Y-57675079D01*
X97497613Y-57675079D01*
X97480089Y-57685505D01*
X97320856Y-57780238D01*
X97161881Y-57919655D01*
X97030976Y-58085708D01*
X97028287Y-58090819D01*
X97028285Y-58090822D01*
X97014792Y-58116469D01*
X96932523Y-58272836D01*
X96869820Y-58474773D01*
X96844967Y-58684754D01*
X96858796Y-58895749D01*
X96860217Y-58901345D01*
X96860218Y-58901350D01*
X96909319Y-59094683D01*
X96910845Y-59100690D01*
X96913262Y-59105933D01*
X96944266Y-59173186D01*
X96999369Y-59292714D01*
X97121405Y-59465391D01*
X97272865Y-59612937D01*
X97277661Y-59616142D01*
X97277664Y-59616144D01*
X97401007Y-59698559D01*
X97448677Y-59730411D01*
X97453985Y-59732692D01*
X97453986Y-59732692D01*
X97637650Y-59811600D01*
X97637653Y-59811601D01*
X97642953Y-59813878D01*
X97648582Y-59815152D01*
X97648583Y-59815152D01*
X97843550Y-59859269D01*
X97843553Y-59859269D01*
X97849186Y-59860544D01*
X97854958Y-59860771D01*
X97860687Y-59861525D01*
X97860327Y-59864257D01*
X97916604Y-59883216D01*
X97960950Y-59938659D01*
X97968282Y-60009276D01*
X97936271Y-60072647D01*
X97875081Y-60108651D01*
X97865704Y-60110632D01*
X97706650Y-60137962D01*
X97706649Y-60137962D01*
X97700953Y-60138941D01*
X97502575Y-60212127D01*
X97497614Y-60215079D01*
X97497613Y-60215079D01*
X97385998Y-60281483D01*
X97320856Y-60320238D01*
X97161881Y-60459655D01*
X97030976Y-60625708D01*
X97028287Y-60630819D01*
X97028285Y-60630822D01*
X97010256Y-60665090D01*
X96932523Y-60812836D01*
X96869820Y-61014773D01*
X96844967Y-61224754D01*
X96858796Y-61435749D01*
X96860217Y-61441345D01*
X96860218Y-61441350D01*
X96904832Y-61617015D01*
X96910845Y-61640690D01*
X96999369Y-61832714D01*
X97121405Y-62005391D01*
X97272865Y-62152937D01*
X97277661Y-62156142D01*
X97277664Y-62156144D01*
X97365762Y-62215009D01*
X97448677Y-62270411D01*
X97453985Y-62272692D01*
X97453986Y-62272692D01*
X97637650Y-62351600D01*
X97637653Y-62351601D01*
X97642953Y-62353878D01*
X97648582Y-62355152D01*
X97648583Y-62355152D01*
X97843550Y-62399269D01*
X97843553Y-62399269D01*
X97849186Y-62400544D01*
X97854958Y-62400771D01*
X97860687Y-62401525D01*
X97860327Y-62404257D01*
X97916604Y-62423216D01*
X97960950Y-62478659D01*
X97968282Y-62549276D01*
X97936271Y-62612647D01*
X97875081Y-62648651D01*
X97865704Y-62650632D01*
X97706650Y-62677962D01*
X97706649Y-62677962D01*
X97700953Y-62678941D01*
X97502575Y-62752127D01*
X97497614Y-62755079D01*
X97497613Y-62755079D01*
X97446460Y-62785512D01*
X97320856Y-62860238D01*
X97161881Y-62999655D01*
X97030976Y-63165708D01*
X97028287Y-63170819D01*
X97028285Y-63170822D01*
X97023714Y-63179511D01*
X96932523Y-63352836D01*
X96902714Y-63448837D01*
X96872330Y-63546691D01*
X96869820Y-63554773D01*
X96844967Y-63764754D01*
X96858796Y-63975749D01*
X96860217Y-63981345D01*
X96860218Y-63981350D01*
X96891042Y-64102718D01*
X96910845Y-64180690D01*
X96999369Y-64372714D01*
X97121405Y-64545391D01*
X97125539Y-64549418D01*
X97258184Y-64678635D01*
X97272865Y-64692937D01*
X97277661Y-64696142D01*
X97277664Y-64696144D01*
X97397637Y-64776307D01*
X97448677Y-64810411D01*
X97453985Y-64812692D01*
X97453986Y-64812692D01*
X97637650Y-64891600D01*
X97637653Y-64891601D01*
X97642953Y-64893878D01*
X97648582Y-64895152D01*
X97648583Y-64895152D01*
X97843550Y-64939269D01*
X97843553Y-64939269D01*
X97849186Y-64940544D01*
X97854958Y-64940771D01*
X97860687Y-64941525D01*
X97860327Y-64944257D01*
X97916604Y-64963216D01*
X97960950Y-65018659D01*
X97968282Y-65089276D01*
X97936271Y-65152647D01*
X97875081Y-65188651D01*
X97865704Y-65190632D01*
X97706650Y-65217962D01*
X97706649Y-65217962D01*
X97700953Y-65218941D01*
X97502575Y-65292127D01*
X97497614Y-65295079D01*
X97497613Y-65295079D01*
X97446460Y-65325512D01*
X97320856Y-65400238D01*
X97161881Y-65539655D01*
X97030976Y-65705708D01*
X96932523Y-65892836D01*
X96869820Y-66094773D01*
X96844967Y-66304754D01*
X96858796Y-66515749D01*
X96860217Y-66521345D01*
X96860218Y-66521350D01*
X96898787Y-66673213D01*
X96910845Y-66720690D01*
X96913262Y-66725933D01*
X96961082Y-66829663D01*
X96999369Y-66912714D01*
X97121405Y-67085391D01*
X97125539Y-67089418D01*
X97242858Y-67203705D01*
X97272865Y-67232937D01*
X97277661Y-67236142D01*
X97277664Y-67236144D01*
X97362811Y-67293037D01*
X97448677Y-67350411D01*
X97453980Y-67352690D01*
X97453985Y-67352692D01*
X97488818Y-67367657D01*
X97506768Y-67375369D01*
X97561460Y-67420636D01*
X97582998Y-67488287D01*
X97564541Y-67556842D01*
X97511951Y-67604537D01*
X97496175Y-67610901D01*
X97476868Y-67617212D01*
X97467359Y-67621209D01*
X97278463Y-67719542D01*
X97269738Y-67725036D01*
X97099433Y-67852905D01*
X97091726Y-67859748D01*
X96944590Y-68013717D01*
X96938104Y-68021727D01*
X96818098Y-68197649D01*
X96813000Y-68206623D01*
X96723338Y-68399783D01*
X96719775Y-68409470D01*
X96664389Y-68609183D01*
X96665912Y-68617607D01*
X96678292Y-68621000D01*
X98128000Y-68621000D01*
X98196121Y-68641002D01*
X98242614Y-68694658D01*
X98254000Y-68747000D01*
X98254000Y-70193517D01*
X98258064Y-70207359D01*
X98271478Y-70209393D01*
X98278184Y-70208534D01*
X98288262Y-70206392D01*
X98492255Y-70145191D01*
X98501847Y-70141431D01*
X98568068Y-70108990D01*
X98638042Y-70096983D01*
X98703399Y-70124713D01*
X98743389Y-70183376D01*
X98749500Y-70222141D01*
X98749500Y-72242393D01*
X98756914Y-72265210D01*
X98761528Y-72284429D01*
X98765281Y-72308126D01*
X98769784Y-72316963D01*
X98769784Y-72316964D01*
X98776172Y-72329502D01*
X98783736Y-72347763D01*
X98788085Y-72361147D01*
X98788087Y-72361150D01*
X98791151Y-72370581D01*
X98796980Y-72378604D01*
X98805253Y-72389991D01*
X98815577Y-72406837D01*
X98826472Y-72428220D01*
X99646780Y-73248528D01*
X99668163Y-73259423D01*
X99685009Y-73269747D01*
X99704419Y-73283849D01*
X99713850Y-73286913D01*
X99713853Y-73286915D01*
X99727237Y-73291264D01*
X99745498Y-73298828D01*
X99758036Y-73305216D01*
X99766874Y-73309719D01*
X99790571Y-73313472D01*
X99809790Y-73318086D01*
X99832607Y-73325500D01*
X103821562Y-73325500D01*
X103889683Y-73345502D01*
X103910657Y-73362405D01*
X105096780Y-74548528D01*
X105118156Y-74559419D01*
X105135012Y-74569749D01*
X105154419Y-74583850D01*
X105177237Y-74591264D01*
X105195498Y-74598827D01*
X105216874Y-74609719D01*
X105226665Y-74611270D01*
X105226672Y-74611272D01*
X105240569Y-74613473D01*
X105259788Y-74618087D01*
X105273173Y-74622436D01*
X105273180Y-74622437D01*
X105282607Y-74625500D01*
X119203634Y-74625500D01*
X119271755Y-74645502D01*
X119290331Y-74661631D01*
X119290830Y-74661083D01*
X119410612Y-74770077D01*
X119410616Y-74770080D01*
X119416233Y-74775191D01*
X119422906Y-74778814D01*
X119422910Y-74778817D01*
X119558558Y-74852467D01*
X119558560Y-74852468D01*
X119565235Y-74856092D01*
X119572584Y-74858020D01*
X119721883Y-74897188D01*
X119721885Y-74897188D01*
X119729233Y-74899116D01*
X119815609Y-74900473D01*
X119891161Y-74901660D01*
X119891164Y-74901660D01*
X119898760Y-74901779D01*
X119906165Y-74900083D01*
X119906166Y-74900083D01*
X119966586Y-74886245D01*
X120064029Y-74863928D01*
X120215498Y-74787747D01*
X120344423Y-74677634D01*
X120443361Y-74539947D01*
X120506601Y-74382634D01*
X120530490Y-74214778D01*
X120530645Y-74200000D01*
X120510276Y-74031680D01*
X120450345Y-73873077D01*
X120415913Y-73822979D01*
X120358614Y-73739608D01*
X120358613Y-73739607D01*
X120354312Y-73733349D01*
X120348119Y-73727831D01*
X120233392Y-73625612D01*
X120233388Y-73625610D01*
X120227721Y-73620560D01*
X120077881Y-73541224D01*
X119913441Y-73499919D01*
X119905843Y-73499879D01*
X119905841Y-73499879D01*
X119828668Y-73499475D01*
X119743895Y-73499031D01*
X119736508Y-73500805D01*
X119736504Y-73500805D01*
X119593162Y-73535220D01*
X119579032Y-73538612D01*
X119572288Y-73542093D01*
X119572285Y-73542094D01*
X119435117Y-73612892D01*
X119428369Y-73616375D01*
X119300604Y-73727831D01*
X119296918Y-73733076D01*
X119236905Y-73770049D01*
X119203713Y-73774500D01*
X105578438Y-73774500D01*
X105510317Y-73754498D01*
X105489343Y-73737595D01*
X104303220Y-72551472D01*
X104281837Y-72540577D01*
X104264991Y-72530253D01*
X104253604Y-72521980D01*
X104245581Y-72516151D01*
X104236150Y-72513087D01*
X104236147Y-72513085D01*
X104222763Y-72508736D01*
X104204502Y-72501172D01*
X104191964Y-72494784D01*
X104191963Y-72494784D01*
X104183126Y-72490281D01*
X104159429Y-72486528D01*
X104140210Y-72481914D01*
X104117393Y-72474500D01*
X100128438Y-72474500D01*
X100060317Y-72454498D01*
X100039343Y-72437595D01*
X99637405Y-72035657D01*
X99603379Y-71973345D01*
X99600500Y-71946562D01*
X99600500Y-70552736D01*
X109220070Y-70552736D01*
X109220294Y-70557403D01*
X109220294Y-70557408D01*
X109224133Y-70637326D01*
X109232909Y-70820041D01*
X109285118Y-71082512D01*
X109286698Y-71086912D01*
X109286698Y-71086913D01*
X109290189Y-71096635D01*
X109375549Y-71334383D01*
X109377765Y-71338507D01*
X109445982Y-71465465D01*
X109502215Y-71570121D01*
X109505010Y-71573864D01*
X109505012Y-71573867D01*
X109647435Y-71764594D01*
X109662335Y-71784547D01*
X109665642Y-71787825D01*
X109665647Y-71787831D01*
X109849074Y-71969663D01*
X109852390Y-71972950D01*
X109856156Y-71975712D01*
X109856158Y-71975713D01*
X109967977Y-72057702D01*
X110068205Y-72131192D01*
X110072340Y-72133368D01*
X110072344Y-72133370D01*
X110201918Y-72201542D01*
X110305039Y-72255797D01*
X110309458Y-72257340D01*
X110553273Y-72342484D01*
X110553279Y-72342486D01*
X110557690Y-72344026D01*
X110562283Y-72344898D01*
X110799791Y-72389991D01*
X110820606Y-72393943D01*
X110947616Y-72398933D01*
X111083345Y-72404266D01*
X111083350Y-72404266D01*
X111088013Y-72404449D01*
X111183943Y-72393943D01*
X111349382Y-72375825D01*
X111349387Y-72375824D01*
X111354035Y-72375315D01*
X111458685Y-72347763D01*
X111608309Y-72308370D01*
X111612829Y-72307180D01*
X111763626Y-72242393D01*
X111854407Y-72203391D01*
X111854410Y-72203389D01*
X111858710Y-72201542D01*
X111862690Y-72199079D01*
X111862694Y-72199077D01*
X111974880Y-72129654D01*
X146625618Y-72129654D01*
X146632673Y-72139627D01*
X146663679Y-72165551D01*
X146670598Y-72170579D01*
X146895272Y-72311515D01*
X146902807Y-72315556D01*
X147144520Y-72424694D01*
X147152551Y-72427680D01*
X147406832Y-72503002D01*
X147415184Y-72504869D01*
X147677340Y-72544984D01*
X147685874Y-72545700D01*
X147951045Y-72549867D01*
X147959596Y-72549418D01*
X148222883Y-72517557D01*
X148231284Y-72515955D01*
X148487824Y-72448653D01*
X148495926Y-72445926D01*
X148740949Y-72344434D01*
X148748617Y-72340628D01*
X148977598Y-72206822D01*
X148984679Y-72202009D01*
X149064655Y-72139301D01*
X149073125Y-72127442D01*
X149066608Y-72115818D01*
X147862812Y-70912022D01*
X147848868Y-70904408D01*
X147847035Y-70904539D01*
X147840420Y-70908790D01*
X146632910Y-72116300D01*
X146625618Y-72129654D01*
X111974880Y-72129654D01*
X112082302Y-72063179D01*
X112082306Y-72063176D01*
X112086275Y-72060720D01*
X112159475Y-71998752D01*
X112286960Y-71890828D01*
X112286961Y-71890827D01*
X112290526Y-71887809D01*
X112407438Y-71754497D01*
X112463894Y-71690122D01*
X112463898Y-71690117D01*
X112466976Y-71686607D01*
X112469506Y-71682674D01*
X112609219Y-71465465D01*
X112609222Y-71465460D01*
X112611747Y-71461534D01*
X112721661Y-71217534D01*
X112751592Y-71111406D01*
X131753423Y-71111406D01*
X131758704Y-71118461D01*
X131935080Y-71221527D01*
X131944363Y-71225974D01*
X132151003Y-71304883D01*
X132160901Y-71307759D01*
X132377653Y-71351857D01*
X132387883Y-71353076D01*
X132608914Y-71361182D01*
X132619223Y-71360714D01*
X132838623Y-71332608D01*
X132848688Y-71330468D01*
X133060557Y-71266905D01*
X133070152Y-71263144D01*
X133268778Y-71165838D01*
X133277636Y-71160559D01*
X133335097Y-71119572D01*
X133341509Y-71111406D01*
X134253423Y-71111406D01*
X134258704Y-71118461D01*
X134435080Y-71221527D01*
X134444363Y-71225974D01*
X134651003Y-71304883D01*
X134660901Y-71307759D01*
X134877653Y-71351857D01*
X134887883Y-71353076D01*
X135108914Y-71361182D01*
X135119223Y-71360714D01*
X135338623Y-71332608D01*
X135348688Y-71330468D01*
X135560557Y-71266905D01*
X135570152Y-71263144D01*
X135768778Y-71165838D01*
X135777636Y-71160559D01*
X135835097Y-71119572D01*
X135843497Y-71108874D01*
X135836510Y-71095721D01*
X135062811Y-70322021D01*
X135048868Y-70314408D01*
X135047034Y-70314539D01*
X135040420Y-70318790D01*
X134260180Y-71099031D01*
X134253423Y-71111406D01*
X133341509Y-71111406D01*
X133343497Y-71108874D01*
X133336510Y-71095721D01*
X132562811Y-70322021D01*
X132548868Y-70314408D01*
X132547034Y-70314539D01*
X132540420Y-70318790D01*
X131760180Y-71099031D01*
X131753423Y-71111406D01*
X112751592Y-71111406D01*
X112752306Y-71108874D01*
X112793032Y-70964473D01*
X112793033Y-70964470D01*
X112794302Y-70959969D01*
X112812103Y-70820041D01*
X112827677Y-70697625D01*
X112827677Y-70697621D01*
X112828075Y-70694495D01*
X112830549Y-70600000D01*
X112830315Y-70596850D01*
X112811064Y-70337788D01*
X112811063Y-70337784D01*
X112810717Y-70333123D01*
X112800161Y-70286470D01*
X112760000Y-70108990D01*
X112751655Y-70072109D01*
X112721556Y-69994709D01*
X112692752Y-69920638D01*
X131137893Y-69920638D01*
X131150627Y-70141468D01*
X131152061Y-70151670D01*
X131200685Y-70367439D01*
X131203773Y-70377292D01*
X131286986Y-70582220D01*
X131291634Y-70591421D01*
X131380097Y-70735781D01*
X131390553Y-70745242D01*
X131399331Y-70741458D01*
X132177979Y-69962811D01*
X132184356Y-69951132D01*
X132914408Y-69951132D01*
X132914539Y-69952966D01*
X132918790Y-69959580D01*
X133696307Y-70737096D01*
X133708313Y-70743652D01*
X133722874Y-70732528D01*
X133789149Y-70707069D01*
X133858667Y-70721482D01*
X133883898Y-70739220D01*
X133890553Y-70745241D01*
X133899331Y-70741458D01*
X134677979Y-69962811D01*
X134684356Y-69951132D01*
X135414408Y-69951132D01*
X135414539Y-69952966D01*
X135418790Y-69959580D01*
X136196307Y-70737096D01*
X136208313Y-70743652D01*
X136220052Y-70734684D01*
X136258010Y-70681859D01*
X136263318Y-70673025D01*
X136304356Y-70589989D01*
X136352470Y-70537781D01*
X136421171Y-70519874D01*
X136488648Y-70541952D01*
X136520211Y-70573095D01*
X136539226Y-70600000D01*
X136633222Y-70733002D01*
X136791264Y-70886961D01*
X136796060Y-70890166D01*
X136796063Y-70890168D01*
X136907269Y-70964473D01*
X136974717Y-71009540D01*
X136980020Y-71011818D01*
X136980023Y-71011820D01*
X137084536Y-71056722D01*
X137177436Y-71096635D01*
X137257088Y-71114658D01*
X137386995Y-71144054D01*
X137387001Y-71144055D01*
X137392632Y-71145329D01*
X137398403Y-71145556D01*
X137398405Y-71145556D01*
X137466211Y-71148220D01*
X137613098Y-71153991D01*
X137722275Y-71138161D01*
X137825738Y-71123160D01*
X137825743Y-71123159D01*
X137831452Y-71122331D01*
X137836916Y-71120476D01*
X137836921Y-71120475D01*
X138034907Y-71053268D01*
X138034912Y-71053266D01*
X138040379Y-71051410D01*
X138232884Y-70943602D01*
X138280010Y-70904408D01*
X138398086Y-70806204D01*
X138402518Y-70802518D01*
X138460334Y-70733002D01*
X138539908Y-70637326D01*
X138539910Y-70637323D01*
X138543602Y-70632884D01*
X138605026Y-70523204D01*
X145837665Y-70523204D01*
X145852932Y-70787969D01*
X145854005Y-70796470D01*
X145905065Y-71056722D01*
X145907276Y-71064974D01*
X145993184Y-71315894D01*
X145996499Y-71323779D01*
X146115664Y-71560713D01*
X146120020Y-71568079D01*
X146249347Y-71756250D01*
X146259601Y-71764594D01*
X146273342Y-71757448D01*
X147477978Y-70552812D01*
X147484356Y-70541132D01*
X148214408Y-70541132D01*
X148214539Y-70542965D01*
X148218790Y-70549580D01*
X149425730Y-71756520D01*
X149437939Y-71763187D01*
X149449439Y-71754497D01*
X149546831Y-71621913D01*
X149551418Y-71614685D01*
X149677962Y-71381621D01*
X149681530Y-71373827D01*
X149775271Y-71125750D01*
X149777748Y-71117544D01*
X149836954Y-70859038D01*
X149838294Y-70850577D01*
X149862031Y-70584616D01*
X149862277Y-70579677D01*
X149862666Y-70542485D01*
X149862523Y-70537519D01*
X149844362Y-70271123D01*
X149843201Y-70262649D01*
X149789419Y-70002944D01*
X149787120Y-69994709D01*
X149698588Y-69744705D01*
X149695191Y-69736854D01*
X149573550Y-69501178D01*
X149569122Y-69493866D01*
X149450031Y-69324417D01*
X149439509Y-69316037D01*
X149426121Y-69323089D01*
X148222022Y-70527188D01*
X148214408Y-70541132D01*
X147484356Y-70541132D01*
X147485592Y-70538868D01*
X147485461Y-70537035D01*
X147481210Y-70530420D01*
X146273814Y-69323024D01*
X146261804Y-69316466D01*
X146250064Y-69325434D01*
X146141935Y-69475911D01*
X146137418Y-69483196D01*
X146013325Y-69717567D01*
X146009839Y-69725395D01*
X145918700Y-69974446D01*
X145916311Y-69982670D01*
X145859812Y-70241795D01*
X145858563Y-70250250D01*
X145837754Y-70514653D01*
X145837665Y-70523204D01*
X138605026Y-70523204D01*
X138651410Y-70440379D01*
X138653266Y-70434912D01*
X138653268Y-70434907D01*
X138720475Y-70236921D01*
X138720476Y-70236916D01*
X138722331Y-70231452D01*
X138723159Y-70225743D01*
X138723160Y-70225738D01*
X138746066Y-70067755D01*
X138753991Y-70013098D01*
X138755643Y-69950000D01*
X138735454Y-69730289D01*
X138722315Y-69683699D01*
X138677134Y-69523500D01*
X138675565Y-69517936D01*
X138577980Y-69320053D01*
X138561860Y-69298465D01*
X138449420Y-69147891D01*
X138449420Y-69147890D01*
X138445967Y-69143267D01*
X138283949Y-68993499D01*
X138218969Y-68952500D01*
X146626584Y-68952500D01*
X146632980Y-68963770D01*
X147837188Y-70167978D01*
X147851132Y-70175592D01*
X147852965Y-70175461D01*
X147859580Y-70171210D01*
X149066604Y-68964186D01*
X149073795Y-68951017D01*
X149066473Y-68940780D01*
X149019233Y-68902115D01*
X149012261Y-68897160D01*
X148786122Y-68758582D01*
X148778552Y-68754624D01*
X148535704Y-68648022D01*
X148527644Y-68645120D01*
X148272592Y-68572467D01*
X148264214Y-68570685D01*
X148001656Y-68533318D01*
X147993111Y-68532691D01*
X147727908Y-68531302D01*
X147719374Y-68531839D01*
X147456433Y-68566456D01*
X147448035Y-68568149D01*
X147192238Y-68638127D01*
X147184143Y-68640946D01*
X146940199Y-68744997D01*
X146932577Y-68748881D01*
X146705013Y-68885075D01*
X146697981Y-68889962D01*
X146635053Y-68940377D01*
X146626584Y-68952500D01*
X138218969Y-68952500D01*
X138097350Y-68875764D01*
X137892421Y-68794006D01*
X137886761Y-68792880D01*
X137886757Y-68792879D01*
X137681691Y-68752089D01*
X137681688Y-68752089D01*
X137676024Y-68750962D01*
X137670249Y-68750886D01*
X137670245Y-68750886D01*
X137559504Y-68749437D01*
X137455406Y-68748074D01*
X137449709Y-68749053D01*
X137449708Y-68749053D01*
X137243654Y-68784459D01*
X137243653Y-68784459D01*
X137237957Y-68785438D01*
X137030957Y-68861804D01*
X137025996Y-68864756D01*
X137025995Y-68864756D01*
X136898211Y-68940780D01*
X136841341Y-68974614D01*
X136675457Y-69120090D01*
X136538863Y-69293360D01*
X136530343Y-69309554D01*
X136480924Y-69360526D01*
X136411792Y-69376689D01*
X136344896Y-69352910D01*
X136303287Y-69301131D01*
X136297194Y-69287120D01*
X136292315Y-69278020D01*
X136219224Y-69165038D01*
X136208538Y-69155835D01*
X136198973Y-69160238D01*
X135422021Y-69937189D01*
X135414408Y-69951132D01*
X134684356Y-69951132D01*
X134685592Y-69948868D01*
X134685461Y-69947034D01*
X134681210Y-69940420D01*
X133903862Y-69163073D01*
X133892331Y-69156776D01*
X133878153Y-69167884D01*
X133812194Y-69194151D01*
X133742505Y-69180588D01*
X133718219Y-69164172D01*
X133708538Y-69155835D01*
X133698973Y-69160238D01*
X132922021Y-69937189D01*
X132914408Y-69951132D01*
X132184356Y-69951132D01*
X132185592Y-69948868D01*
X132185461Y-69947034D01*
X132181210Y-69940420D01*
X131403862Y-69163073D01*
X131392330Y-69156776D01*
X131380048Y-69166399D01*
X131324467Y-69247877D01*
X131319379Y-69256833D01*
X131226252Y-69457459D01*
X131222689Y-69467146D01*
X131163581Y-69680280D01*
X131161650Y-69690400D01*
X131138145Y-69910349D01*
X131137893Y-69920638D01*
X112692752Y-69920638D01*
X112656355Y-69827044D01*
X112656354Y-69827042D01*
X112654662Y-69822691D01*
X112521868Y-69590350D01*
X112356190Y-69380189D01*
X112161269Y-69196825D01*
X111941385Y-69044286D01*
X111937194Y-69042219D01*
X111705559Y-68927989D01*
X111705556Y-68927988D01*
X111701371Y-68925924D01*
X111690344Y-68922394D01*
X111554297Y-68878845D01*
X111446497Y-68844338D01*
X111301134Y-68820665D01*
X111186976Y-68802073D01*
X111186975Y-68802073D01*
X111182364Y-68801322D01*
X111048569Y-68799571D01*
X110919451Y-68797880D01*
X110919448Y-68797880D01*
X110914774Y-68797819D01*
X110649605Y-68833907D01*
X110645118Y-68835215D01*
X110645117Y-68835215D01*
X110613817Y-68844338D01*
X110392683Y-68908792D01*
X110388430Y-68910752D01*
X110388429Y-68910753D01*
X110336512Y-68934687D01*
X110149652Y-69020831D01*
X110145743Y-69023394D01*
X109929764Y-69164996D01*
X109929759Y-69165000D01*
X109925851Y-69167562D01*
X109835866Y-69247877D01*
X109751598Y-69323089D01*
X109726197Y-69345760D01*
X109555075Y-69551512D01*
X109552652Y-69555505D01*
X109442607Y-69736854D01*
X109416244Y-69780298D01*
X109414437Y-69784606D01*
X109414437Y-69784607D01*
X109318623Y-70013098D01*
X109312755Y-70027091D01*
X109311604Y-70031623D01*
X109311603Y-70031626D01*
X109250441Y-70272452D01*
X109246881Y-70286470D01*
X109220070Y-70552736D01*
X99600500Y-70552736D01*
X99600500Y-68790711D01*
X131755508Y-68790711D01*
X131762251Y-68803040D01*
X132537189Y-69577979D01*
X132551132Y-69585592D01*
X132552966Y-69585461D01*
X132559580Y-69581210D01*
X133338994Y-68801795D01*
X133345046Y-68790711D01*
X134255508Y-68790711D01*
X134262251Y-68803040D01*
X135037189Y-69577979D01*
X135051132Y-69585592D01*
X135052966Y-69585461D01*
X135059580Y-69581210D01*
X135838994Y-68801795D01*
X135846011Y-68788944D01*
X135838237Y-68778274D01*
X135835902Y-68776430D01*
X135827320Y-68770729D01*
X135633678Y-68663833D01*
X135624272Y-68659606D01*
X135415772Y-68585772D01*
X135405809Y-68583140D01*
X135188047Y-68544350D01*
X135177796Y-68543381D01*
X134956616Y-68540679D01*
X134946332Y-68541399D01*
X134727693Y-68574855D01*
X134717666Y-68577244D01*
X134507426Y-68645961D01*
X134497916Y-68649958D01*
X134301725Y-68752089D01*
X134293007Y-68757578D01*
X134263961Y-68779386D01*
X134255508Y-68790711D01*
X133345046Y-68790711D01*
X133346011Y-68788944D01*
X133338237Y-68778274D01*
X133335902Y-68776430D01*
X133327320Y-68770729D01*
X133133678Y-68663833D01*
X133124272Y-68659606D01*
X132915772Y-68585772D01*
X132905809Y-68583140D01*
X132688047Y-68544350D01*
X132677796Y-68543381D01*
X132456616Y-68540679D01*
X132446332Y-68541399D01*
X132227693Y-68574855D01*
X132217666Y-68577244D01*
X132007426Y-68645961D01*
X131997916Y-68649958D01*
X131801725Y-68752089D01*
X131793007Y-68757578D01*
X131763961Y-68779386D01*
X131755508Y-68790711D01*
X99600500Y-68790711D01*
X99600500Y-68023412D01*
X99620502Y-67955291D01*
X99674158Y-67908798D01*
X99744432Y-67898694D01*
X99809012Y-67928188D01*
X99839140Y-67970666D01*
X99840258Y-67970091D01*
X99927123Y-68139113D01*
X99927126Y-68139117D01*
X99929944Y-68144601D01*
X100051818Y-68298369D01*
X100056511Y-68302363D01*
X100056512Y-68302364D01*
X100182362Y-68409470D01*
X100201238Y-68425535D01*
X100206616Y-68428541D01*
X100206618Y-68428542D01*
X100242932Y-68448837D01*
X100372513Y-68521257D01*
X100559118Y-68581889D01*
X100753946Y-68605121D01*
X100760081Y-68604649D01*
X100760083Y-68604649D01*
X100943434Y-68590541D01*
X100943438Y-68590540D01*
X100949576Y-68590068D01*
X101138556Y-68537303D01*
X101313689Y-68448837D01*
X101343515Y-68425535D01*
X101463453Y-68331829D01*
X101468303Y-68328040D01*
X101498084Y-68293539D01*
X101592485Y-68184173D01*
X101592485Y-68184172D01*
X101596509Y-68179511D01*
X101693425Y-68008909D01*
X101755358Y-67822732D01*
X101779949Y-67628071D01*
X101780341Y-67600000D01*
X101778965Y-67585963D01*
X118069757Y-67585963D01*
X118086175Y-67781483D01*
X118140258Y-67970091D01*
X118143076Y-67975574D01*
X118227123Y-68139113D01*
X118227126Y-68139117D01*
X118229944Y-68144601D01*
X118351818Y-68298369D01*
X118356511Y-68302363D01*
X118356512Y-68302364D01*
X118482362Y-68409470D01*
X118501238Y-68425535D01*
X118506616Y-68428541D01*
X118506618Y-68428542D01*
X118542932Y-68448837D01*
X118672513Y-68521257D01*
X118859118Y-68581889D01*
X119053946Y-68605121D01*
X119060081Y-68604649D01*
X119060083Y-68604649D01*
X119243434Y-68590541D01*
X119243438Y-68590540D01*
X119249576Y-68590068D01*
X119438556Y-68537303D01*
X119613689Y-68448837D01*
X119643515Y-68425535D01*
X119763453Y-68331829D01*
X119768303Y-68328040D01*
X119798084Y-68293539D01*
X119892485Y-68184173D01*
X119892485Y-68184172D01*
X119896509Y-68179511D01*
X119993425Y-68008909D01*
X120055358Y-67822732D01*
X120079949Y-67628071D01*
X120080341Y-67600000D01*
X120061194Y-67404728D01*
X120059413Y-67398829D01*
X120059412Y-67398824D01*
X120006265Y-67222793D01*
X120004484Y-67216894D01*
X119912370Y-67043653D01*
X119880557Y-67004646D01*
X146049500Y-67004646D01*
X146052618Y-67030846D01*
X146056456Y-67039486D01*
X146056456Y-67039487D01*
X146076846Y-67085391D01*
X146098061Y-67133153D01*
X146177287Y-67212241D01*
X146187924Y-67216944D01*
X146187926Y-67216945D01*
X146247462Y-67243265D01*
X146279673Y-67257506D01*
X146305354Y-67260500D01*
X149394646Y-67260500D01*
X149398350Y-67260059D01*
X149398353Y-67260059D01*
X149405746Y-67259179D01*
X149420846Y-67257382D01*
X149430550Y-67253072D01*
X149512518Y-67216663D01*
X149523153Y-67211939D01*
X149602241Y-67132713D01*
X149609038Y-67117340D01*
X149639205Y-67049104D01*
X149647506Y-67030327D01*
X149650500Y-67004646D01*
X149650500Y-63915354D01*
X149647382Y-63889154D01*
X149601939Y-63786847D01*
X149583853Y-63768792D01*
X149530945Y-63715977D01*
X149522713Y-63707759D01*
X149512076Y-63703056D01*
X149512074Y-63703055D01*
X149452538Y-63676735D01*
X149420327Y-63662494D01*
X149394646Y-63659500D01*
X146305354Y-63659500D01*
X146301650Y-63659941D01*
X146301647Y-63659941D01*
X146294254Y-63660821D01*
X146279154Y-63662618D01*
X146270514Y-63666456D01*
X146270513Y-63666456D01*
X146188117Y-63703055D01*
X146176847Y-63708061D01*
X146097759Y-63787287D01*
X146052494Y-63889673D01*
X146049500Y-63915354D01*
X146049500Y-67004646D01*
X119880557Y-67004646D01*
X119788361Y-66891602D01*
X119637180Y-66766535D01*
X119464585Y-66673213D01*
X119359898Y-66640807D01*
X119283039Y-66617015D01*
X119283036Y-66617014D01*
X119277152Y-66615193D01*
X119271027Y-66614549D01*
X119271026Y-66614549D01*
X119088147Y-66595327D01*
X119088146Y-66595327D01*
X119082019Y-66594683D01*
X118959383Y-66605844D01*
X118892759Y-66611907D01*
X118892758Y-66611907D01*
X118886618Y-66612466D01*
X118880704Y-66614207D01*
X118880702Y-66614207D01*
X118790324Y-66640807D01*
X118698393Y-66667864D01*
X118692928Y-66670721D01*
X118529972Y-66755912D01*
X118529968Y-66755915D01*
X118524512Y-66758767D01*
X118519712Y-66762627D01*
X118519711Y-66762627D01*
X118485326Y-66790273D01*
X118371600Y-66881711D01*
X118245480Y-67032016D01*
X118242516Y-67037408D01*
X118242513Y-67037412D01*
X118164356Y-67179580D01*
X118150956Y-67203954D01*
X118149095Y-67209821D01*
X118149094Y-67209823D01*
X118137809Y-67245397D01*
X118091628Y-67390978D01*
X118069757Y-67585963D01*
X101778965Y-67585963D01*
X101761194Y-67404728D01*
X101759413Y-67398829D01*
X101759412Y-67398824D01*
X101706265Y-67222793D01*
X101704484Y-67216894D01*
X101612370Y-67043653D01*
X101488361Y-66891602D01*
X101337180Y-66766535D01*
X101164585Y-66673213D01*
X101059898Y-66640807D01*
X100983039Y-66617015D01*
X100983036Y-66617014D01*
X100977152Y-66615193D01*
X100971027Y-66614549D01*
X100971026Y-66614549D01*
X100788147Y-66595327D01*
X100788146Y-66595327D01*
X100782019Y-66594683D01*
X100659383Y-66605844D01*
X100592759Y-66611907D01*
X100592758Y-66611907D01*
X100586618Y-66612466D01*
X100580704Y-66614207D01*
X100580702Y-66614207D01*
X100490324Y-66640807D01*
X100398393Y-66667864D01*
X100392928Y-66670721D01*
X100229972Y-66755912D01*
X100229968Y-66755915D01*
X100224512Y-66758767D01*
X100219712Y-66762627D01*
X100219711Y-66762627D01*
X100185326Y-66790273D01*
X100071600Y-66881711D01*
X99945480Y-67032016D01*
X99942516Y-67037408D01*
X99942513Y-67037412D01*
X99864356Y-67179580D01*
X99850956Y-67203954D01*
X99846925Y-67216663D01*
X99846602Y-67217680D01*
X99806937Y-67276564D01*
X99741735Y-67304656D01*
X99671696Y-67293037D01*
X99619056Y-67245397D01*
X99600500Y-67179580D01*
X99600500Y-65523412D01*
X99620502Y-65455291D01*
X99674158Y-65408798D01*
X99744432Y-65398694D01*
X99809012Y-65428188D01*
X99839140Y-65470666D01*
X99840258Y-65470091D01*
X99927123Y-65639113D01*
X99927126Y-65639117D01*
X99929944Y-65644601D01*
X100051818Y-65798369D01*
X100056511Y-65802363D01*
X100056512Y-65802364D01*
X100162817Y-65892836D01*
X100201238Y-65925535D01*
X100206616Y-65928541D01*
X100206618Y-65928542D01*
X100242932Y-65948837D01*
X100372513Y-66021257D01*
X100559118Y-66081889D01*
X100753946Y-66105121D01*
X100760081Y-66104649D01*
X100760083Y-66104649D01*
X100943434Y-66090541D01*
X100943438Y-66090540D01*
X100949576Y-66090068D01*
X101138556Y-66037303D01*
X101313689Y-65948837D01*
X101343515Y-65925535D01*
X101463453Y-65831829D01*
X101468303Y-65828040D01*
X101498084Y-65793539D01*
X101592485Y-65684173D01*
X101592485Y-65684172D01*
X101596509Y-65679511D01*
X101693425Y-65508909D01*
X101755358Y-65322732D01*
X101779949Y-65128071D01*
X101780341Y-65100000D01*
X101778965Y-65085963D01*
X118069757Y-65085963D01*
X118086175Y-65281483D01*
X118140258Y-65470091D01*
X118143076Y-65475574D01*
X118227123Y-65639113D01*
X118227126Y-65639117D01*
X118229944Y-65644601D01*
X118351818Y-65798369D01*
X118356511Y-65802363D01*
X118356512Y-65802364D01*
X118462817Y-65892836D01*
X118501238Y-65925535D01*
X118506616Y-65928541D01*
X118506618Y-65928542D01*
X118542932Y-65948837D01*
X118672513Y-66021257D01*
X118859118Y-66081889D01*
X119053946Y-66105121D01*
X119060081Y-66104649D01*
X119060083Y-66104649D01*
X119243434Y-66090541D01*
X119243438Y-66090540D01*
X119249576Y-66090068D01*
X119438556Y-66037303D01*
X119613689Y-65948837D01*
X119643515Y-65925535D01*
X119763453Y-65831829D01*
X119768303Y-65828040D01*
X119798084Y-65793539D01*
X119892485Y-65684173D01*
X119892485Y-65684172D01*
X119896509Y-65679511D01*
X119993425Y-65508909D01*
X120055358Y-65322732D01*
X120079949Y-65128071D01*
X120080341Y-65100000D01*
X120061194Y-64904728D01*
X120059413Y-64898829D01*
X120059412Y-64898824D01*
X120006265Y-64722793D01*
X120004484Y-64716894D01*
X119912370Y-64543653D01*
X119788361Y-64391602D01*
X119637180Y-64266535D01*
X119464585Y-64173213D01*
X119370868Y-64144203D01*
X119283039Y-64117015D01*
X119283036Y-64117014D01*
X119277152Y-64115193D01*
X119271027Y-64114549D01*
X119271026Y-64114549D01*
X119088147Y-64095327D01*
X119088146Y-64095327D01*
X119082019Y-64094683D01*
X118993730Y-64102718D01*
X118892759Y-64111907D01*
X118892758Y-64111907D01*
X118886618Y-64112466D01*
X118880704Y-64114207D01*
X118880702Y-64114207D01*
X118751734Y-64152165D01*
X118698393Y-64167864D01*
X118692928Y-64170721D01*
X118529972Y-64255912D01*
X118529968Y-64255915D01*
X118524512Y-64258767D01*
X118519712Y-64262627D01*
X118519711Y-64262627D01*
X118485326Y-64290273D01*
X118371600Y-64381711D01*
X118245480Y-64532016D01*
X118242516Y-64537408D01*
X118242513Y-64537412D01*
X118217507Y-64582898D01*
X118150956Y-64703954D01*
X118091628Y-64890978D01*
X118069757Y-65085963D01*
X101778965Y-65085963D01*
X101761194Y-64904728D01*
X101759413Y-64898829D01*
X101759412Y-64898824D01*
X101706265Y-64722793D01*
X101704484Y-64716894D01*
X101612370Y-64543653D01*
X101488361Y-64391602D01*
X101337180Y-64266535D01*
X101164585Y-64173213D01*
X101070868Y-64144203D01*
X100983039Y-64117015D01*
X100983036Y-64117014D01*
X100977152Y-64115193D01*
X100971027Y-64114549D01*
X100971026Y-64114549D01*
X100788147Y-64095327D01*
X100788146Y-64095327D01*
X100782019Y-64094683D01*
X100693730Y-64102718D01*
X100592759Y-64111907D01*
X100592758Y-64111907D01*
X100586618Y-64112466D01*
X100580704Y-64114207D01*
X100580702Y-64114207D01*
X100451734Y-64152165D01*
X100398393Y-64167864D01*
X100392928Y-64170721D01*
X100229972Y-64255912D01*
X100229968Y-64255915D01*
X100224512Y-64258767D01*
X100219712Y-64262627D01*
X100219711Y-64262627D01*
X100185326Y-64290273D01*
X100071600Y-64381711D01*
X99945480Y-64532016D01*
X99942516Y-64537408D01*
X99942513Y-64537412D01*
X99917507Y-64582898D01*
X99850956Y-64703954D01*
X99848578Y-64711452D01*
X99846602Y-64717680D01*
X99806937Y-64776564D01*
X99741735Y-64804656D01*
X99671696Y-64793037D01*
X99619056Y-64745397D01*
X99600500Y-64679580D01*
X99600500Y-63023412D01*
X99620502Y-62955291D01*
X99674158Y-62908798D01*
X99744432Y-62898694D01*
X99809012Y-62928188D01*
X99839140Y-62970666D01*
X99840258Y-62970091D01*
X99927123Y-63139113D01*
X99927126Y-63139117D01*
X99929944Y-63144601D01*
X100051818Y-63298369D01*
X100201238Y-63425535D01*
X100206616Y-63428541D01*
X100206618Y-63428542D01*
X100242932Y-63448837D01*
X100372513Y-63521257D01*
X100559118Y-63581889D01*
X100753946Y-63605121D01*
X100760081Y-63604649D01*
X100760083Y-63604649D01*
X100943434Y-63590541D01*
X100943438Y-63590540D01*
X100949576Y-63590068D01*
X101138556Y-63537303D01*
X101313689Y-63448837D01*
X101343515Y-63425535D01*
X101390996Y-63388438D01*
X101468303Y-63328040D01*
X101498084Y-63293539D01*
X101592485Y-63184173D01*
X101592485Y-63184172D01*
X101596509Y-63179511D01*
X101693425Y-63008909D01*
X101755358Y-62822732D01*
X101779949Y-62628071D01*
X101780341Y-62600000D01*
X101778965Y-62585963D01*
X118069757Y-62585963D01*
X118086175Y-62781483D01*
X118140258Y-62970091D01*
X118143076Y-62975574D01*
X118227123Y-63139113D01*
X118227126Y-63139117D01*
X118229944Y-63144601D01*
X118351818Y-63298369D01*
X118501238Y-63425535D01*
X118506616Y-63428541D01*
X118506618Y-63428542D01*
X118542932Y-63448837D01*
X118672513Y-63521257D01*
X118859118Y-63581889D01*
X119053946Y-63605121D01*
X119060081Y-63604649D01*
X119060083Y-63604649D01*
X119243434Y-63590541D01*
X119243438Y-63590540D01*
X119249576Y-63590068D01*
X119438556Y-63537303D01*
X119613689Y-63448837D01*
X119643515Y-63425535D01*
X119690996Y-63388438D01*
X119768303Y-63328040D01*
X119798084Y-63293539D01*
X119892485Y-63184173D01*
X119892485Y-63184172D01*
X119896509Y-63179511D01*
X119993425Y-63008909D01*
X120013021Y-62950000D01*
X128344564Y-62950000D01*
X128344834Y-62954119D01*
X128359607Y-63179511D01*
X128364287Y-63250920D01*
X128365089Y-63254953D01*
X128365090Y-63254959D01*
X128421582Y-63538960D01*
X128423120Y-63546691D01*
X128424447Y-63550600D01*
X128424448Y-63550604D01*
X128461558Y-63659925D01*
X128520055Y-63832252D01*
X128559208Y-63911647D01*
X128649472Y-64094683D01*
X128653434Y-64102718D01*
X128661111Y-64114207D01*
X128760935Y-64263604D01*
X128820975Y-64353461D01*
X128823689Y-64356555D01*
X128823693Y-64356561D01*
X128977564Y-64532016D01*
X129019811Y-64580189D01*
X129022900Y-64582898D01*
X129243439Y-64776307D01*
X129243445Y-64776311D01*
X129246539Y-64779025D01*
X129249965Y-64781314D01*
X129249970Y-64781318D01*
X129415058Y-64891626D01*
X129497282Y-64946566D01*
X129500981Y-64948390D01*
X129500986Y-64948393D01*
X129532036Y-64963705D01*
X129767748Y-65079945D01*
X129771653Y-65081271D01*
X129771654Y-65081271D01*
X130049396Y-65175552D01*
X130049400Y-65175553D01*
X130053309Y-65176880D01*
X130057353Y-65177684D01*
X130057359Y-65177686D01*
X130345041Y-65234910D01*
X130345047Y-65234911D01*
X130349080Y-65235713D01*
X130353185Y-65235982D01*
X130353192Y-65235983D01*
X130645881Y-65255166D01*
X130650000Y-65255436D01*
X130654119Y-65255166D01*
X130946808Y-65235983D01*
X130946815Y-65235982D01*
X130950920Y-65235713D01*
X130954953Y-65234911D01*
X130954959Y-65234910D01*
X131242641Y-65177686D01*
X131242647Y-65177684D01*
X131246691Y-65176880D01*
X131250600Y-65175553D01*
X131250604Y-65175552D01*
X131528346Y-65081271D01*
X131528347Y-65081271D01*
X131532252Y-65079945D01*
X131767964Y-64963705D01*
X131799014Y-64948393D01*
X131799019Y-64948390D01*
X131802718Y-64946566D01*
X131884942Y-64891626D01*
X132050030Y-64781318D01*
X132050035Y-64781314D01*
X132053461Y-64779025D01*
X132056555Y-64776311D01*
X132056561Y-64776307D01*
X132277100Y-64582898D01*
X132280189Y-64580189D01*
X132322436Y-64532016D01*
X132476307Y-64356561D01*
X132476311Y-64356555D01*
X132479025Y-64353461D01*
X132539066Y-64263604D01*
X132638889Y-64114207D01*
X132646566Y-64102718D01*
X132650529Y-64094683D01*
X132740792Y-63911647D01*
X132779945Y-63832252D01*
X132838442Y-63659925D01*
X132875552Y-63550604D01*
X132875553Y-63550600D01*
X132876880Y-63546691D01*
X132878418Y-63538960D01*
X132934910Y-63254959D01*
X132934911Y-63254953D01*
X132935713Y-63250920D01*
X132940394Y-63179511D01*
X132955166Y-62954119D01*
X132955436Y-62950000D01*
X137144564Y-62950000D01*
X137144834Y-62954119D01*
X137159607Y-63179511D01*
X137164287Y-63250920D01*
X137165089Y-63254953D01*
X137165090Y-63254959D01*
X137221582Y-63538960D01*
X137223120Y-63546691D01*
X137224447Y-63550600D01*
X137224448Y-63550604D01*
X137261558Y-63659925D01*
X137320055Y-63832252D01*
X137359208Y-63911647D01*
X137449472Y-64094683D01*
X137453434Y-64102718D01*
X137461111Y-64114207D01*
X137560935Y-64263604D01*
X137620975Y-64353461D01*
X137623689Y-64356555D01*
X137623693Y-64356561D01*
X137777564Y-64532016D01*
X137819811Y-64580189D01*
X137822900Y-64582898D01*
X138043439Y-64776307D01*
X138043445Y-64776311D01*
X138046539Y-64779025D01*
X138049965Y-64781314D01*
X138049970Y-64781318D01*
X138215058Y-64891626D01*
X138297282Y-64946566D01*
X138300981Y-64948390D01*
X138300986Y-64948393D01*
X138332036Y-64963705D01*
X138567748Y-65079945D01*
X138571653Y-65081271D01*
X138571654Y-65081271D01*
X138849396Y-65175552D01*
X138849400Y-65175553D01*
X138853309Y-65176880D01*
X138857353Y-65177684D01*
X138857359Y-65177686D01*
X139145041Y-65234910D01*
X139145047Y-65234911D01*
X139149080Y-65235713D01*
X139153185Y-65235982D01*
X139153192Y-65235983D01*
X139445881Y-65255166D01*
X139450000Y-65255436D01*
X139454119Y-65255166D01*
X139746808Y-65235983D01*
X139746815Y-65235982D01*
X139750920Y-65235713D01*
X139754953Y-65234911D01*
X139754959Y-65234910D01*
X140042641Y-65177686D01*
X140042647Y-65177684D01*
X140046691Y-65176880D01*
X140050600Y-65175553D01*
X140050604Y-65175552D01*
X140328346Y-65081271D01*
X140328347Y-65081271D01*
X140332252Y-65079945D01*
X140567964Y-64963705D01*
X140599014Y-64948393D01*
X140599019Y-64948390D01*
X140602718Y-64946566D01*
X140684942Y-64891626D01*
X140850030Y-64781318D01*
X140850035Y-64781314D01*
X140853461Y-64779025D01*
X140856555Y-64776311D01*
X140856561Y-64776307D01*
X141077100Y-64582898D01*
X141080189Y-64580189D01*
X141122436Y-64532016D01*
X141276307Y-64356561D01*
X141276311Y-64356555D01*
X141279025Y-64353461D01*
X141339066Y-64263604D01*
X141438889Y-64114207D01*
X141446566Y-64102718D01*
X141450529Y-64094683D01*
X141540792Y-63911647D01*
X141579945Y-63832252D01*
X141638442Y-63659925D01*
X141675552Y-63550604D01*
X141675553Y-63550600D01*
X141676880Y-63546691D01*
X141678418Y-63538960D01*
X141734910Y-63254959D01*
X141734911Y-63254953D01*
X141735713Y-63250920D01*
X141740394Y-63179511D01*
X141755166Y-62954119D01*
X141755436Y-62950000D01*
X141743204Y-62763366D01*
X141735983Y-62653192D01*
X141735982Y-62653185D01*
X141735713Y-62649080D01*
X141728712Y-62613881D01*
X141677686Y-62357359D01*
X141677684Y-62357353D01*
X141676880Y-62353309D01*
X141671298Y-62336863D01*
X141581271Y-62071654D01*
X141581271Y-62071653D01*
X141579945Y-62067748D01*
X141495434Y-61896376D01*
X141448393Y-61800986D01*
X141448390Y-61800981D01*
X141446566Y-61797282D01*
X141363666Y-61673213D01*
X141281318Y-61549970D01*
X141281314Y-61549965D01*
X141279025Y-61546539D01*
X141276311Y-61543445D01*
X141276307Y-61543439D01*
X141082898Y-61322900D01*
X141080189Y-61319811D01*
X140971798Y-61224754D01*
X140856561Y-61123693D01*
X140856555Y-61123689D01*
X140853461Y-61120975D01*
X140850035Y-61118686D01*
X140850030Y-61118682D01*
X140606151Y-60955728D01*
X140602718Y-60953434D01*
X140599019Y-60951610D01*
X140599014Y-60951607D01*
X140356127Y-60831829D01*
X140332252Y-60820055D01*
X140310986Y-60812836D01*
X140050604Y-60724448D01*
X140050600Y-60724447D01*
X140046691Y-60723120D01*
X140042647Y-60722316D01*
X140042641Y-60722314D01*
X139754959Y-60665090D01*
X139754953Y-60665089D01*
X139750920Y-60664287D01*
X139746815Y-60664018D01*
X139746808Y-60664017D01*
X139454119Y-60644834D01*
X139450000Y-60644564D01*
X139445881Y-60644834D01*
X139153192Y-60664017D01*
X139153185Y-60664018D01*
X139149080Y-60664287D01*
X139145047Y-60665089D01*
X139145041Y-60665090D01*
X138857359Y-60722314D01*
X138857353Y-60722316D01*
X138853309Y-60723120D01*
X138849400Y-60724447D01*
X138849396Y-60724448D01*
X138589014Y-60812836D01*
X138567748Y-60820055D01*
X138543873Y-60831829D01*
X138300986Y-60951607D01*
X138300981Y-60951610D01*
X138297282Y-60953434D01*
X138293849Y-60955728D01*
X138049970Y-61118682D01*
X138049965Y-61118686D01*
X138046539Y-61120975D01*
X138043445Y-61123689D01*
X138043439Y-61123693D01*
X137928202Y-61224754D01*
X137819811Y-61319811D01*
X137817102Y-61322900D01*
X137623693Y-61543439D01*
X137623689Y-61543445D01*
X137620975Y-61546539D01*
X137618686Y-61549965D01*
X137618682Y-61549970D01*
X137536334Y-61673213D01*
X137453434Y-61797282D01*
X137451610Y-61800981D01*
X137451607Y-61800986D01*
X137404566Y-61896376D01*
X137320055Y-62067748D01*
X137318729Y-62071653D01*
X137318729Y-62071654D01*
X137228703Y-62336863D01*
X137223120Y-62353309D01*
X137222316Y-62357353D01*
X137222314Y-62357359D01*
X137171289Y-62613881D01*
X137164287Y-62649080D01*
X137164018Y-62653185D01*
X137164017Y-62653192D01*
X137156796Y-62763366D01*
X137144564Y-62950000D01*
X132955436Y-62950000D01*
X132943204Y-62763366D01*
X132935983Y-62653192D01*
X132935982Y-62653185D01*
X132935713Y-62649080D01*
X132928712Y-62613881D01*
X132877686Y-62357359D01*
X132877684Y-62357353D01*
X132876880Y-62353309D01*
X132871298Y-62336863D01*
X132781271Y-62071654D01*
X132781271Y-62071653D01*
X132779945Y-62067748D01*
X132695434Y-61896376D01*
X132648393Y-61800986D01*
X132648390Y-61800981D01*
X132646566Y-61797282D01*
X132563666Y-61673213D01*
X132481318Y-61549970D01*
X132481314Y-61549965D01*
X132479025Y-61546539D01*
X132476311Y-61543445D01*
X132476307Y-61543439D01*
X132282898Y-61322900D01*
X132280189Y-61319811D01*
X132171798Y-61224754D01*
X132056561Y-61123693D01*
X132056555Y-61123689D01*
X132053461Y-61120975D01*
X132050035Y-61118686D01*
X132050030Y-61118682D01*
X131806151Y-60955728D01*
X131802718Y-60953434D01*
X131799019Y-60951610D01*
X131799014Y-60951607D01*
X131556127Y-60831829D01*
X131532252Y-60820055D01*
X131510986Y-60812836D01*
X131250604Y-60724448D01*
X131250600Y-60724447D01*
X131246691Y-60723120D01*
X131242647Y-60722316D01*
X131242641Y-60722314D01*
X130954959Y-60665090D01*
X130954953Y-60665089D01*
X130950920Y-60664287D01*
X130946815Y-60664018D01*
X130946808Y-60664017D01*
X130654119Y-60644834D01*
X130650000Y-60644564D01*
X130645881Y-60644834D01*
X130353192Y-60664017D01*
X130353185Y-60664018D01*
X130349080Y-60664287D01*
X130345047Y-60665089D01*
X130345041Y-60665090D01*
X130057359Y-60722314D01*
X130057353Y-60722316D01*
X130053309Y-60723120D01*
X130049400Y-60724447D01*
X130049396Y-60724448D01*
X129789014Y-60812836D01*
X129767748Y-60820055D01*
X129743873Y-60831829D01*
X129500986Y-60951607D01*
X129500981Y-60951610D01*
X129497282Y-60953434D01*
X129493849Y-60955728D01*
X129249970Y-61118682D01*
X129249965Y-61118686D01*
X129246539Y-61120975D01*
X129243445Y-61123689D01*
X129243439Y-61123693D01*
X129128202Y-61224754D01*
X129019811Y-61319811D01*
X129017102Y-61322900D01*
X128823693Y-61543439D01*
X128823689Y-61543445D01*
X128820975Y-61546539D01*
X128818686Y-61549965D01*
X128818682Y-61549970D01*
X128736334Y-61673213D01*
X128653434Y-61797282D01*
X128651610Y-61800981D01*
X128651607Y-61800986D01*
X128604566Y-61896376D01*
X128520055Y-62067748D01*
X128518729Y-62071653D01*
X128518729Y-62071654D01*
X128428703Y-62336863D01*
X128423120Y-62353309D01*
X128422316Y-62357353D01*
X128422314Y-62357359D01*
X128371289Y-62613881D01*
X128364287Y-62649080D01*
X128364018Y-62653185D01*
X128364017Y-62653192D01*
X128356796Y-62763366D01*
X128344564Y-62950000D01*
X120013021Y-62950000D01*
X120055358Y-62822732D01*
X120079949Y-62628071D01*
X120080341Y-62600000D01*
X120061194Y-62404728D01*
X120059413Y-62398829D01*
X120059412Y-62398824D01*
X120006265Y-62222793D01*
X120004484Y-62216894D01*
X119912370Y-62043653D01*
X119788361Y-61891602D01*
X119637180Y-61766535D01*
X119464585Y-61673213D01*
X119353069Y-61638693D01*
X119283039Y-61617015D01*
X119283036Y-61617014D01*
X119277152Y-61615193D01*
X119271027Y-61614549D01*
X119271026Y-61614549D01*
X119088147Y-61595327D01*
X119088146Y-61595327D01*
X119082019Y-61594683D01*
X118959383Y-61605844D01*
X118892759Y-61611907D01*
X118892758Y-61611907D01*
X118886618Y-61612466D01*
X118880704Y-61614207D01*
X118880702Y-61614207D01*
X118797507Y-61638693D01*
X118698393Y-61667864D01*
X118692928Y-61670721D01*
X118529972Y-61755912D01*
X118529968Y-61755915D01*
X118524512Y-61758767D01*
X118519712Y-61762627D01*
X118519711Y-61762627D01*
X118485326Y-61790273D01*
X118371600Y-61881711D01*
X118245480Y-62032016D01*
X118242516Y-62037408D01*
X118242513Y-62037412D01*
X118181217Y-62148910D01*
X118150956Y-62203954D01*
X118091628Y-62390978D01*
X118069757Y-62585963D01*
X101778965Y-62585963D01*
X101761194Y-62404728D01*
X101759413Y-62398829D01*
X101759412Y-62398824D01*
X101706265Y-62222793D01*
X101704484Y-62216894D01*
X101612370Y-62043653D01*
X101488361Y-61891602D01*
X101337180Y-61766535D01*
X101164585Y-61673213D01*
X101053069Y-61638693D01*
X100983039Y-61617015D01*
X100983036Y-61617014D01*
X100977152Y-61615193D01*
X100971027Y-61614549D01*
X100971026Y-61614549D01*
X100788147Y-61595327D01*
X100788146Y-61595327D01*
X100782019Y-61594683D01*
X100659383Y-61605844D01*
X100592759Y-61611907D01*
X100592758Y-61611907D01*
X100586618Y-61612466D01*
X100580704Y-61614207D01*
X100580702Y-61614207D01*
X100497507Y-61638693D01*
X100398393Y-61667864D01*
X100392928Y-61670721D01*
X100229972Y-61755912D01*
X100229968Y-61755915D01*
X100224512Y-61758767D01*
X100219712Y-61762627D01*
X100219711Y-61762627D01*
X100185326Y-61790273D01*
X100071600Y-61881711D01*
X99945480Y-62032016D01*
X99942516Y-62037408D01*
X99942513Y-62037412D01*
X99881217Y-62148910D01*
X99850956Y-62203954D01*
X99849094Y-62209823D01*
X99849093Y-62209826D01*
X99822377Y-62294046D01*
X99782714Y-62352930D01*
X99717512Y-62381023D01*
X99647472Y-62369406D01*
X99594832Y-62321766D01*
X99585431Y-62301371D01*
X99584719Y-62296874D01*
X99573828Y-62275498D01*
X99566264Y-62257237D01*
X99561915Y-62243853D01*
X99561913Y-62243850D01*
X99558849Y-62234419D01*
X99544747Y-62215009D01*
X99534423Y-62198163D01*
X99523528Y-62176780D01*
X99115037Y-61768289D01*
X99081011Y-61705977D01*
X99084819Y-61638693D01*
X99099540Y-61595327D01*
X99123504Y-61524730D01*
X99153846Y-61315470D01*
X99155429Y-61255000D01*
X99136081Y-61044440D01*
X99078686Y-60840931D01*
X99074198Y-60831829D01*
X98987719Y-60656469D01*
X98985165Y-60651290D01*
X98858651Y-60481867D01*
X98703381Y-60338337D01*
X98524554Y-60225505D01*
X98328160Y-60147152D01*
X98322503Y-60146027D01*
X98322497Y-60146025D01*
X98125234Y-60106788D01*
X98062324Y-60073881D01*
X98027192Y-60012186D01*
X98030992Y-59941291D01*
X98072517Y-59883705D01*
X98131734Y-59858513D01*
X98264015Y-59839333D01*
X98264019Y-59839332D01*
X98269730Y-59838504D01*
X98348987Y-59811600D01*
X98464483Y-59772395D01*
X98464488Y-59772393D01*
X98469955Y-59770537D01*
X98474998Y-59767713D01*
X98649395Y-59670046D01*
X98649399Y-59670043D01*
X98654442Y-59667219D01*
X98817012Y-59532012D01*
X98952219Y-59369442D01*
X99044348Y-59204934D01*
X99095085Y-59155272D01*
X99154282Y-59140500D01*
X100013809Y-59140500D01*
X100081930Y-59160502D01*
X100128423Y-59214158D01*
X100138527Y-59284432D01*
X100109033Y-59349012D01*
X100092761Y-59364696D01*
X100076406Y-59377846D01*
X100076401Y-59377851D01*
X100071600Y-59381711D01*
X99945480Y-59532016D01*
X99942516Y-59537408D01*
X99942513Y-59537412D01*
X99903207Y-59608910D01*
X99850956Y-59703954D01*
X99849095Y-59709821D01*
X99849094Y-59709823D01*
X99842563Y-59730411D01*
X99791628Y-59890978D01*
X99769757Y-60085963D01*
X99786175Y-60281483D01*
X99840258Y-60470091D01*
X99857200Y-60503056D01*
X99927123Y-60639113D01*
X99927126Y-60639117D01*
X99929944Y-60644601D01*
X100051818Y-60798369D01*
X100201238Y-60925535D01*
X100206616Y-60928541D01*
X100206618Y-60928542D01*
X100255262Y-60955728D01*
X100372513Y-61021257D01*
X100559118Y-61081889D01*
X100753946Y-61105121D01*
X100760081Y-61104649D01*
X100760083Y-61104649D01*
X100943434Y-61090541D01*
X100943438Y-61090540D01*
X100949576Y-61090068D01*
X101138556Y-61037303D01*
X101313689Y-60948837D01*
X101343515Y-60925535D01*
X101463453Y-60831829D01*
X101468303Y-60828040D01*
X101475196Y-60820055D01*
X101592485Y-60684173D01*
X101592485Y-60684172D01*
X101596509Y-60679511D01*
X101605158Y-60664287D01*
X101690378Y-60514272D01*
X101693425Y-60508909D01*
X101755358Y-60322732D01*
X101779949Y-60128071D01*
X101780341Y-60100000D01*
X101778965Y-60085963D01*
X118069757Y-60085963D01*
X118086175Y-60281483D01*
X118140258Y-60470091D01*
X118157200Y-60503056D01*
X118227123Y-60639113D01*
X118227126Y-60639117D01*
X118229944Y-60644601D01*
X118351818Y-60798369D01*
X118501238Y-60925535D01*
X118506616Y-60928541D01*
X118506618Y-60928542D01*
X118555262Y-60955728D01*
X118672513Y-61021257D01*
X118859118Y-61081889D01*
X119053946Y-61105121D01*
X119060081Y-61104649D01*
X119060083Y-61104649D01*
X119243434Y-61090541D01*
X119243438Y-61090540D01*
X119249576Y-61090068D01*
X119438556Y-61037303D01*
X119613689Y-60948837D01*
X119643515Y-60925535D01*
X119763453Y-60831829D01*
X119768303Y-60828040D01*
X119775196Y-60820055D01*
X119892485Y-60684173D01*
X119892485Y-60684172D01*
X119896509Y-60679511D01*
X119905158Y-60664287D01*
X119990378Y-60514272D01*
X119993425Y-60508909D01*
X120055358Y-60322732D01*
X120079949Y-60128071D01*
X120080341Y-60100000D01*
X120061194Y-59904728D01*
X120059413Y-59898829D01*
X120059412Y-59898824D01*
X120006265Y-59722793D01*
X120004484Y-59716894D01*
X119912370Y-59543653D01*
X119788361Y-59391602D01*
X119637180Y-59266535D01*
X119464585Y-59173213D01*
X119317343Y-59127634D01*
X119283039Y-59117015D01*
X119283036Y-59117014D01*
X119277152Y-59115193D01*
X119271027Y-59114549D01*
X119271026Y-59114549D01*
X119088147Y-59095327D01*
X119088146Y-59095327D01*
X119082019Y-59094683D01*
X118959383Y-59105844D01*
X118892759Y-59111907D01*
X118892758Y-59111907D01*
X118886618Y-59112466D01*
X118880704Y-59114207D01*
X118880702Y-59114207D01*
X118818331Y-59132564D01*
X118698393Y-59167864D01*
X118692928Y-59170721D01*
X118529972Y-59255912D01*
X118529968Y-59255915D01*
X118524512Y-59258767D01*
X118519712Y-59262627D01*
X118519711Y-59262627D01*
X118492591Y-59284432D01*
X118371600Y-59381711D01*
X118245480Y-59532016D01*
X118242516Y-59537408D01*
X118242513Y-59537412D01*
X118203207Y-59608910D01*
X118150956Y-59703954D01*
X118149095Y-59709821D01*
X118149094Y-59709823D01*
X118142563Y-59730411D01*
X118091628Y-59890978D01*
X118069757Y-60085963D01*
X101778965Y-60085963D01*
X101761194Y-59904728D01*
X101759413Y-59898829D01*
X101759412Y-59898824D01*
X101706265Y-59722793D01*
X101704484Y-59716894D01*
X101612370Y-59543653D01*
X101488361Y-59391602D01*
X101454494Y-59363585D01*
X101414756Y-59304751D01*
X101413133Y-59233773D01*
X101450142Y-59173186D01*
X101514032Y-59142225D01*
X101534809Y-59140500D01*
X112649413Y-59140500D01*
X112717534Y-59160502D01*
X112734212Y-59173306D01*
X112791233Y-59225191D01*
X112797906Y-59228814D01*
X112797910Y-59228817D01*
X112933558Y-59302467D01*
X112933560Y-59302468D01*
X112940235Y-59306092D01*
X112947584Y-59308020D01*
X113096883Y-59347188D01*
X113096885Y-59347188D01*
X113104233Y-59349116D01*
X113190609Y-59350473D01*
X113266161Y-59351660D01*
X113266164Y-59351660D01*
X113273760Y-59351779D01*
X113281165Y-59350083D01*
X113281166Y-59350083D01*
X113341586Y-59336245D01*
X113439029Y-59313928D01*
X113590498Y-59237747D01*
X113719423Y-59127634D01*
X113818361Y-58989947D01*
X113881601Y-58832634D01*
X113888877Y-58781511D01*
X113904909Y-58668862D01*
X113904909Y-58668859D01*
X113905490Y-58664778D01*
X113905645Y-58650000D01*
X113885276Y-58481680D01*
X113825345Y-58323077D01*
X113729312Y-58183349D01*
X113723119Y-58177831D01*
X113608392Y-58075612D01*
X113608388Y-58075610D01*
X113602721Y-58070560D01*
X113452881Y-57991224D01*
X113288441Y-57949919D01*
X113280843Y-57949879D01*
X113280841Y-57949879D01*
X113203668Y-57949475D01*
X113118895Y-57949031D01*
X113111508Y-57950805D01*
X113111504Y-57950805D01*
X112968162Y-57985220D01*
X112954032Y-57988612D01*
X112947288Y-57992093D01*
X112947285Y-57992094D01*
X112810117Y-58062892D01*
X112803369Y-58066375D01*
X112797647Y-58071367D01*
X112797645Y-58071368D01*
X112745945Y-58116469D01*
X112675604Y-58177831D01*
X112634757Y-58235951D01*
X112579222Y-58280182D01*
X112531670Y-58289500D01*
X101750516Y-58289500D01*
X101682395Y-58269498D01*
X101635902Y-58215842D01*
X101625798Y-58145568D01*
X101640960Y-58101263D01*
X101646892Y-58090822D01*
X101662758Y-58062892D01*
X101690379Y-58014272D01*
X101690381Y-58014267D01*
X101693425Y-58008909D01*
X101755358Y-57822732D01*
X101779949Y-57628071D01*
X101780341Y-57600000D01*
X101778965Y-57585963D01*
X118069757Y-57585963D01*
X118086175Y-57781483D01*
X118140258Y-57970091D01*
X118143076Y-57975574D01*
X118227123Y-58139113D01*
X118227126Y-58139117D01*
X118229944Y-58144601D01*
X118351818Y-58298369D01*
X118501238Y-58425535D01*
X118506616Y-58428541D01*
X118506618Y-58428542D01*
X118542932Y-58448837D01*
X118672513Y-58521257D01*
X118859118Y-58581889D01*
X119053946Y-58605121D01*
X119060081Y-58604649D01*
X119060083Y-58604649D01*
X119243434Y-58590541D01*
X119243438Y-58590540D01*
X119249576Y-58590068D01*
X119438556Y-58537303D01*
X119613689Y-58448837D01*
X119643515Y-58425535D01*
X119763453Y-58331829D01*
X119768303Y-58328040D01*
X119798084Y-58293539D01*
X119892485Y-58184173D01*
X119892485Y-58184172D01*
X119896509Y-58179511D01*
X119915792Y-58145568D01*
X119958402Y-58070560D01*
X119993425Y-58008909D01*
X120055358Y-57822732D01*
X120079949Y-57628071D01*
X120080341Y-57600000D01*
X120061194Y-57404728D01*
X120059413Y-57398829D01*
X120059412Y-57398824D01*
X120006265Y-57222793D01*
X120004484Y-57216894D01*
X119912370Y-57043653D01*
X119788361Y-56891602D01*
X119637180Y-56766535D01*
X119464585Y-56673213D01*
X119370868Y-56644203D01*
X119283039Y-56617015D01*
X119283036Y-56617014D01*
X119277152Y-56615193D01*
X119271027Y-56614549D01*
X119271026Y-56614549D01*
X119088147Y-56595327D01*
X119088146Y-56595327D01*
X119082019Y-56594683D01*
X118959383Y-56605844D01*
X118892759Y-56611907D01*
X118892758Y-56611907D01*
X118886618Y-56612466D01*
X118880704Y-56614207D01*
X118880702Y-56614207D01*
X118751734Y-56652165D01*
X118698393Y-56667864D01*
X118692928Y-56670721D01*
X118529972Y-56755912D01*
X118529968Y-56755915D01*
X118524512Y-56758767D01*
X118519712Y-56762627D01*
X118519711Y-56762627D01*
X118485326Y-56790273D01*
X118371600Y-56881711D01*
X118245480Y-57032016D01*
X118242516Y-57037408D01*
X118242513Y-57037412D01*
X118163813Y-57180567D01*
X118150956Y-57203954D01*
X118091628Y-57390978D01*
X118069757Y-57585963D01*
X101778965Y-57585963D01*
X101761194Y-57404728D01*
X101759413Y-57398829D01*
X101759412Y-57398824D01*
X101706265Y-57222793D01*
X101704484Y-57216894D01*
X101612370Y-57043653D01*
X101488361Y-56891602D01*
X101337180Y-56766535D01*
X101164585Y-56673213D01*
X101070868Y-56644203D01*
X100983039Y-56617015D01*
X100983036Y-56617014D01*
X100977152Y-56615193D01*
X100971027Y-56614549D01*
X100971026Y-56614549D01*
X100788147Y-56595327D01*
X100788146Y-56595327D01*
X100782019Y-56594683D01*
X100659383Y-56605844D01*
X100592759Y-56611907D01*
X100592758Y-56611907D01*
X100586618Y-56612466D01*
X100580704Y-56614207D01*
X100580702Y-56614207D01*
X100451734Y-56652165D01*
X100398393Y-56667864D01*
X100392928Y-56670721D01*
X100229972Y-56755912D01*
X100229968Y-56755915D01*
X100224512Y-56758767D01*
X100219712Y-56762627D01*
X100219711Y-56762627D01*
X100185326Y-56790273D01*
X100071600Y-56881711D01*
X99945480Y-57032016D01*
X99942516Y-57037408D01*
X99942513Y-57037412D01*
X99863813Y-57180567D01*
X99850956Y-57203954D01*
X99791628Y-57390978D01*
X99769757Y-57585963D01*
X99786175Y-57781483D01*
X99840258Y-57970091D01*
X99910058Y-58105908D01*
X99923405Y-58175637D01*
X99896935Y-58241514D01*
X99839050Y-58282622D01*
X99797991Y-58289500D01*
X99151401Y-58289500D01*
X99083280Y-58269498D01*
X99038395Y-58219229D01*
X98987719Y-58116469D01*
X98985165Y-58111290D01*
X98864634Y-57949879D01*
X98862104Y-57946491D01*
X98862103Y-57946490D01*
X98858651Y-57941867D01*
X98736102Y-57828584D01*
X98707622Y-57802257D01*
X98707620Y-57802255D01*
X98703381Y-57798337D01*
X98670014Y-57777284D01*
X98529434Y-57688584D01*
X98529433Y-57688584D01*
X98524554Y-57685505D01*
X98328160Y-57607152D01*
X98322503Y-57606027D01*
X98322497Y-57606025D01*
X98166916Y-57575079D01*
X98104006Y-57542172D01*
X98068874Y-57480477D01*
X98072674Y-57409582D01*
X98114199Y-57351996D01*
X98180266Y-57326002D01*
X98191497Y-57325500D01*
X98894646Y-57325500D01*
X98898350Y-57325059D01*
X98898353Y-57325059D01*
X98905746Y-57324179D01*
X98920846Y-57322382D01*
X99023153Y-57276939D01*
X99102241Y-57197713D01*
X99147506Y-57095327D01*
X99150500Y-57069646D01*
X99150500Y-55678438D01*
X99170502Y-55610317D01*
X99187405Y-55589343D01*
X101689342Y-53087405D01*
X101751654Y-53053380D01*
X101778437Y-53050500D01*
X109726614Y-53050500D01*
X109794735Y-53070502D01*
X109841228Y-53124158D01*
X109851332Y-53194432D01*
X109821838Y-53259012D01*
X109810515Y-53270503D01*
X109726197Y-53345760D01*
X109555075Y-53551512D01*
X109416244Y-53780298D01*
X109312755Y-54027091D01*
X109311604Y-54031623D01*
X109311603Y-54031626D01*
X109248033Y-54281933D01*
X109246881Y-54286470D01*
X109220070Y-54552736D01*
X109232909Y-54820041D01*
X109285118Y-55082512D01*
X109375549Y-55334383D01*
X109377765Y-55338507D01*
X109445982Y-55465465D01*
X109502215Y-55570121D01*
X109505010Y-55573864D01*
X109505012Y-55573867D01*
X109589199Y-55686607D01*
X109662335Y-55784547D01*
X109665642Y-55787825D01*
X109665647Y-55787831D01*
X109849074Y-55969663D01*
X109852390Y-55972950D01*
X110068205Y-56131192D01*
X110072340Y-56133368D01*
X110072344Y-56133370D01*
X110201918Y-56201542D01*
X110305039Y-56255797D01*
X110309458Y-56257340D01*
X110553273Y-56342484D01*
X110553279Y-56342486D01*
X110557690Y-56344026D01*
X110820606Y-56393943D01*
X110947616Y-56398933D01*
X111083345Y-56404266D01*
X111083350Y-56404266D01*
X111088013Y-56404449D01*
X111183943Y-56393943D01*
X111349382Y-56375825D01*
X111349387Y-56375824D01*
X111354035Y-56375315D01*
X111469567Y-56344898D01*
X111608309Y-56308370D01*
X111612829Y-56307180D01*
X111737501Y-56253617D01*
X111854407Y-56203391D01*
X111854410Y-56203389D01*
X111858710Y-56201542D01*
X111862690Y-56199079D01*
X111862694Y-56199077D01*
X112082302Y-56063179D01*
X112082306Y-56063176D01*
X112086275Y-56060720D01*
X112100010Y-56049092D01*
X112286960Y-55890828D01*
X112286961Y-55890827D01*
X112290526Y-55887809D01*
X112384365Y-55780807D01*
X112463894Y-55690122D01*
X112463898Y-55690117D01*
X112466976Y-55686607D01*
X112469506Y-55682674D01*
X112609219Y-55465465D01*
X112609222Y-55465460D01*
X112611747Y-55461534D01*
X112721661Y-55217534D01*
X112759741Y-55082512D01*
X112793032Y-54964473D01*
X112793033Y-54964470D01*
X112794302Y-54959969D01*
X112812103Y-54820041D01*
X112827677Y-54697625D01*
X112827677Y-54697621D01*
X112828075Y-54694495D01*
X112830549Y-54600000D01*
X112810717Y-54333123D01*
X112800161Y-54286470D01*
X112752686Y-54076666D01*
X112751655Y-54072109D01*
X112654662Y-53822691D01*
X112521868Y-53590350D01*
X112356190Y-53380189D01*
X112237222Y-53268274D01*
X112201310Y-53207031D01*
X112204210Y-53136093D01*
X112245001Y-53077985D01*
X112310732Y-53051154D01*
X112323555Y-53050500D01*
X118236451Y-53050500D01*
X118259268Y-53043086D01*
X118278487Y-53038472D01*
X118302184Y-53034719D01*
X118311022Y-53030216D01*
X118323560Y-53023828D01*
X118341821Y-53016264D01*
X118355205Y-53011915D01*
X118355208Y-53011913D01*
X118364639Y-53008849D01*
X118384049Y-52994747D01*
X118400895Y-52984423D01*
X118422278Y-52973528D01*
X119533401Y-51862405D01*
X119595713Y-51828379D01*
X119622496Y-51825500D01*
X120067772Y-51825500D01*
X120157547Y-51814636D01*
X120165075Y-51811656D01*
X120165077Y-51811655D01*
X120277544Y-51767126D01*
X120297783Y-51759113D01*
X120417922Y-51667922D01*
X120509113Y-51547783D01*
X120557849Y-51424690D01*
X120601522Y-51368718D01*
X120668525Y-51345241D01*
X120737584Y-51361717D01*
X120786773Y-51412912D01*
X120792150Y-51424687D01*
X120840887Y-51547783D01*
X120932078Y-51667922D01*
X121052217Y-51759113D01*
X121072456Y-51767126D01*
X121184923Y-51811655D01*
X121184925Y-51811656D01*
X121192453Y-51814636D01*
X121282228Y-51825500D01*
X122067772Y-51825500D01*
X122157547Y-51814636D01*
X122165075Y-51811656D01*
X122165077Y-51811655D01*
X122277544Y-51767126D01*
X122297783Y-51759113D01*
X122417922Y-51667922D01*
X122509113Y-51547783D01*
X122554738Y-51432547D01*
X122561655Y-51415077D01*
X122561656Y-51415075D01*
X122564636Y-51407547D01*
X122575500Y-51317772D01*
X122575500Y-50332228D01*
X122564636Y-50242453D01*
X122557849Y-50225309D01*
X122512275Y-50110204D01*
X122509113Y-50102217D01*
X122417922Y-49982078D01*
X122297783Y-49890887D01*
X122180117Y-49844300D01*
X122124143Y-49800626D01*
X122100500Y-49727148D01*
X122100500Y-49298356D01*
X122093086Y-49275539D01*
X122088472Y-49256319D01*
X122086270Y-49242417D01*
X122084719Y-49232623D01*
X122073828Y-49211247D01*
X122066264Y-49192986D01*
X122061914Y-49179600D01*
X122061913Y-49179599D01*
X122058849Y-49170168D01*
X122044749Y-49150761D01*
X122034421Y-49133908D01*
X122023528Y-49112529D01*
X121928220Y-49017221D01*
X121928218Y-49017220D01*
X121626593Y-48715595D01*
X121592567Y-48653283D01*
X121597632Y-48582468D01*
X121640179Y-48525632D01*
X121706699Y-48500821D01*
X121715688Y-48500500D01*
X122266334Y-48500500D01*
X122284252Y-48498806D01*
X122290222Y-48498242D01*
X122290223Y-48498242D01*
X122297869Y-48497519D01*
X122425684Y-48452634D01*
X122433254Y-48447042D01*
X122433257Y-48447041D01*
X122527079Y-48377742D01*
X122534650Y-48372150D01*
X122585756Y-48302959D01*
X122609541Y-48270757D01*
X122609542Y-48270754D01*
X122615134Y-48263184D01*
X122660019Y-48135369D01*
X122663000Y-48103834D01*
X122663000Y-47696166D01*
X122660019Y-47664631D01*
X122653477Y-47646000D01*
X122634849Y-47592956D01*
X122631150Y-47522056D01*
X122664636Y-47462112D01*
X122714343Y-47412405D01*
X122776655Y-47378379D01*
X122803438Y-47375500D01*
X123093489Y-47375500D01*
X123161610Y-47395502D01*
X123182584Y-47412405D01*
X123184758Y-47414579D01*
X123190350Y-47422150D01*
X123197921Y-47427742D01*
X123291743Y-47497041D01*
X123291746Y-47497042D01*
X123299316Y-47502634D01*
X123427131Y-47547519D01*
X123434777Y-47548242D01*
X123434778Y-47548242D01*
X123440748Y-47548806D01*
X123458666Y-47550500D01*
X124611698Y-47550500D01*
X124679819Y-47570502D01*
X124717191Y-47613632D01*
X124717517Y-47613421D01*
X124719013Y-47615735D01*
X124726312Y-47624158D01*
X124727260Y-47628487D01*
X124735980Y-47641971D01*
X124744870Y-47646000D01*
X127199378Y-47646000D01*
X127212909Y-47642027D01*
X127214044Y-47634130D01*
X127185724Y-47536654D01*
X127185926Y-47465658D01*
X127224480Y-47406041D01*
X127289144Y-47376732D01*
X127306721Y-47375500D01*
X127443489Y-47375500D01*
X127511610Y-47395502D01*
X127532584Y-47412405D01*
X127534758Y-47414579D01*
X127540350Y-47422150D01*
X127547921Y-47427742D01*
X127641743Y-47497041D01*
X127641746Y-47497042D01*
X127649316Y-47502634D01*
X127777131Y-47547519D01*
X127784777Y-47548242D01*
X127784778Y-47548242D01*
X127790748Y-47548806D01*
X127808666Y-47550500D01*
X127950257Y-47550500D01*
X128018378Y-47570502D01*
X128062524Y-47619297D01*
X128063087Y-47620401D01*
X128066151Y-47629832D01*
X128071980Y-47637855D01*
X128080253Y-47649242D01*
X128090577Y-47666088D01*
X128101472Y-47687471D01*
X128448406Y-48034405D01*
X128482432Y-48096717D01*
X128477367Y-48167532D01*
X128434820Y-48224368D01*
X128368300Y-48249179D01*
X128359311Y-48249500D01*
X127808666Y-48249500D01*
X127790748Y-48251194D01*
X127784778Y-48251758D01*
X127784777Y-48251758D01*
X127777131Y-48252481D01*
X127649316Y-48297366D01*
X127641746Y-48302958D01*
X127641743Y-48302959D01*
X127618190Y-48320356D01*
X127540350Y-48377850D01*
X127534758Y-48385421D01*
X127532584Y-48387595D01*
X127470272Y-48421621D01*
X127443489Y-48424500D01*
X127306721Y-48424500D01*
X127238600Y-48404498D01*
X127192107Y-48350842D01*
X127182003Y-48280568D01*
X127185724Y-48263346D01*
X127212439Y-48171395D01*
X127212399Y-48157294D01*
X127205130Y-48154000D01*
X124750622Y-48154000D01*
X124735383Y-48158475D01*
X124727569Y-48167493D01*
X124709979Y-48206011D01*
X124650254Y-48244395D01*
X124614753Y-48249500D01*
X123458666Y-48249500D01*
X123440748Y-48251194D01*
X123434778Y-48251758D01*
X123434777Y-48251758D01*
X123427131Y-48252481D01*
X123299316Y-48297366D01*
X123291746Y-48302958D01*
X123291743Y-48302959D01*
X123268190Y-48320356D01*
X123190350Y-48377850D01*
X123184758Y-48385421D01*
X123115459Y-48479243D01*
X123115458Y-48479246D01*
X123109866Y-48486816D01*
X123064981Y-48614631D01*
X123062000Y-48646166D01*
X123062000Y-49053834D01*
X123064981Y-49085369D01*
X123109866Y-49213184D01*
X123115458Y-49220754D01*
X123115459Y-49220757D01*
X123158020Y-49278379D01*
X123190350Y-49322150D01*
X123197921Y-49327742D01*
X123291743Y-49397041D01*
X123291746Y-49397042D01*
X123299316Y-49402634D01*
X123427131Y-49447519D01*
X123434781Y-49448242D01*
X123434785Y-49448243D01*
X123435362Y-49448298D01*
X123435763Y-49448458D01*
X123442276Y-49449887D01*
X123442040Y-49450964D01*
X123501298Y-49474624D01*
X123542532Y-49532419D01*
X123549500Y-49573738D01*
X123549500Y-49752148D01*
X123529498Y-49820269D01*
X123469883Y-49869300D01*
X123352217Y-49915887D01*
X123232078Y-50007078D01*
X123140887Y-50127217D01*
X123125171Y-50166911D01*
X123092152Y-50250309D01*
X123085364Y-50267453D01*
X123074500Y-50357228D01*
X123074500Y-51342772D01*
X123085364Y-51432547D01*
X123088344Y-51440075D01*
X123088345Y-51440077D01*
X123092420Y-51450369D01*
X123140887Y-51572783D01*
X123232078Y-51692922D01*
X123352217Y-51784113D01*
X123393606Y-51800500D01*
X123484923Y-51836655D01*
X123484925Y-51836656D01*
X123492453Y-51839636D01*
X123582228Y-51850500D01*
X124367772Y-51850500D01*
X124457547Y-51839636D01*
X124465075Y-51836656D01*
X124465077Y-51836655D01*
X124556394Y-51800500D01*
X124597783Y-51784113D01*
X124717922Y-51692922D01*
X124809113Y-51572783D01*
X124857849Y-51449690D01*
X124901522Y-51393718D01*
X124968525Y-51370241D01*
X125037584Y-51386717D01*
X125086773Y-51437912D01*
X125092150Y-51449687D01*
X125140887Y-51572783D01*
X125232078Y-51692922D01*
X125352217Y-51784113D01*
X125393606Y-51800500D01*
X125484923Y-51836655D01*
X125484925Y-51836656D01*
X125492453Y-51839636D01*
X125582228Y-51850500D01*
X126321562Y-51850500D01*
X126389683Y-51870502D01*
X126410657Y-51887405D01*
X127896780Y-53373528D01*
X127918163Y-53384423D01*
X127935009Y-53394747D01*
X127954419Y-53408849D01*
X127963850Y-53411913D01*
X127963853Y-53411915D01*
X127977237Y-53416264D01*
X127995498Y-53423828D01*
X128008036Y-53430216D01*
X128016874Y-53434719D01*
X128040571Y-53438472D01*
X128059790Y-53443086D01*
X128082607Y-53450500D01*
X130828634Y-53450500D01*
X130896755Y-53470502D01*
X130915331Y-53486631D01*
X130915830Y-53486083D01*
X131035612Y-53595077D01*
X131035616Y-53595080D01*
X131041233Y-53600191D01*
X131047906Y-53603814D01*
X131047910Y-53603817D01*
X131183558Y-53677467D01*
X131183560Y-53677468D01*
X131190235Y-53681092D01*
X131197584Y-53683020D01*
X131346883Y-53722188D01*
X131346885Y-53722188D01*
X131354233Y-53724116D01*
X131440609Y-53725473D01*
X131516161Y-53726660D01*
X131516164Y-53726660D01*
X131523760Y-53726779D01*
X131531165Y-53725083D01*
X131531166Y-53725083D01*
X131591586Y-53711245D01*
X131689029Y-53688928D01*
X131840498Y-53612747D01*
X131969423Y-53502634D01*
X132068361Y-53364947D01*
X132071194Y-53357900D01*
X132128766Y-53214687D01*
X132128767Y-53214685D01*
X132131601Y-53207634D01*
X132148712Y-53087405D01*
X132154909Y-53043862D01*
X132154909Y-53043859D01*
X132155490Y-53039778D01*
X132155562Y-53032932D01*
X132155602Y-53029135D01*
X132155602Y-53029129D01*
X132155645Y-53025000D01*
X132135276Y-52856680D01*
X132075345Y-52698077D01*
X132065678Y-52684012D01*
X131983614Y-52564608D01*
X131983613Y-52564607D01*
X131979312Y-52558349D01*
X131973119Y-52552831D01*
X131858392Y-52450612D01*
X131858388Y-52450610D01*
X131852721Y-52445560D01*
X131818123Y-52427241D01*
X131785080Y-52409746D01*
X131702881Y-52366224D01*
X131538441Y-52324919D01*
X131530843Y-52324879D01*
X131530841Y-52324879D01*
X131453668Y-52324475D01*
X131368895Y-52324031D01*
X131361508Y-52325805D01*
X131361504Y-52325805D01*
X131234184Y-52356373D01*
X131204032Y-52363612D01*
X131197288Y-52367093D01*
X131197285Y-52367094D01*
X131071639Y-52431945D01*
X131053369Y-52441375D01*
X131047647Y-52446367D01*
X131047645Y-52446368D01*
X130931332Y-52547834D01*
X130925604Y-52552831D01*
X130921918Y-52558076D01*
X130861905Y-52595049D01*
X130828713Y-52599500D01*
X128378438Y-52599500D01*
X128310317Y-52579498D01*
X128289343Y-52562595D01*
X127700121Y-51973373D01*
X127666095Y-51911061D01*
X127671160Y-51840246D01*
X127713707Y-51783410D01*
X127780227Y-51758599D01*
X127835598Y-51767126D01*
X127865390Y-51778921D01*
X127884924Y-51786655D01*
X127892453Y-51789636D01*
X127982228Y-51800500D01*
X128767772Y-51800500D01*
X128857547Y-51789636D01*
X128865075Y-51786656D01*
X128865077Y-51786655D01*
X128978663Y-51741683D01*
X128997783Y-51734113D01*
X129117922Y-51642922D01*
X129209113Y-51522783D01*
X129257849Y-51399690D01*
X129301522Y-51343718D01*
X129368525Y-51320241D01*
X129437584Y-51336717D01*
X129486773Y-51387912D01*
X129492150Y-51399687D01*
X129540887Y-51522783D01*
X129632078Y-51642922D01*
X129752217Y-51734113D01*
X129771337Y-51741683D01*
X129884923Y-51786655D01*
X129884925Y-51786656D01*
X129892453Y-51789636D01*
X129982228Y-51800500D01*
X130767772Y-51800500D01*
X130857547Y-51789636D01*
X130865075Y-51786656D01*
X130865077Y-51786655D01*
X130978663Y-51741683D01*
X130997783Y-51734113D01*
X131117922Y-51642922D01*
X131209113Y-51522783D01*
X131241858Y-51440077D01*
X131261655Y-51390077D01*
X131261656Y-51390074D01*
X131264636Y-51382547D01*
X131275500Y-51292772D01*
X131275500Y-50307228D01*
X131264636Y-50217453D01*
X131209113Y-50077217D01*
X131117922Y-49957078D01*
X130997783Y-49865887D01*
X130892281Y-49824116D01*
X130865069Y-49813342D01*
X130865068Y-49813342D01*
X130857547Y-49810364D01*
X130849514Y-49809392D01*
X130845486Y-49808369D01*
X130784385Y-49772215D01*
X130752529Y-49708767D01*
X130750500Y-49686246D01*
X130750500Y-48626500D01*
X130770502Y-48558379D01*
X130824158Y-48511886D01*
X130876500Y-48500500D01*
X130966334Y-48500500D01*
X130984252Y-48498806D01*
X130990222Y-48498242D01*
X130990223Y-48498242D01*
X130997869Y-48497519D01*
X131125684Y-48452634D01*
X131133254Y-48447042D01*
X131133257Y-48447041D01*
X131227079Y-48377742D01*
X131234650Y-48372150D01*
X131285756Y-48302959D01*
X131309541Y-48270757D01*
X131309542Y-48270754D01*
X131315134Y-48263184D01*
X131360019Y-48135369D01*
X131363000Y-48103834D01*
X131363000Y-47696166D01*
X131360019Y-47664631D01*
X131315134Y-47536816D01*
X131309542Y-47529246D01*
X131309541Y-47529243D01*
X131240242Y-47435421D01*
X131234650Y-47427850D01*
X131182118Y-47389049D01*
X131133257Y-47352959D01*
X131133254Y-47352958D01*
X131125684Y-47347366D01*
X130997869Y-47302481D01*
X130990223Y-47301758D01*
X130990222Y-47301758D01*
X130984252Y-47301194D01*
X130966334Y-47299500D01*
X130824743Y-47299500D01*
X130756622Y-47279498D01*
X130712476Y-47230703D01*
X130711913Y-47229599D01*
X130708849Y-47220168D01*
X130694747Y-47200758D01*
X130684423Y-47183912D01*
X130673528Y-47162529D01*
X129026594Y-45515595D01*
X128992568Y-45453283D01*
X128997633Y-45382468D01*
X129040180Y-45325632D01*
X129106700Y-45300821D01*
X129115689Y-45300500D01*
X149390629Y-45300500D01*
X149458750Y-45320502D01*
X149505243Y-45374158D01*
X149515347Y-45444432D01*
X149485853Y-45509012D01*
X149459253Y-45532173D01*
X149380775Y-45583137D01*
X149087489Y-45820635D01*
X148820635Y-46087489D01*
X148583137Y-46380775D01*
X148532499Y-46458750D01*
X148379395Y-46694510D01*
X148379393Y-46694513D01*
X148377597Y-46697279D01*
X148376102Y-46700213D01*
X148376098Y-46700220D01*
X148207764Y-47030595D01*
X148206266Y-47033535D01*
X148159442Y-47155515D01*
X148073893Y-47378379D01*
X148071022Y-47385857D01*
X147973347Y-47750387D01*
X147958459Y-47844385D01*
X147919699Y-48089107D01*
X147914310Y-48123129D01*
X147894559Y-48500000D01*
X147914310Y-48876871D01*
X147914823Y-48880111D01*
X147914824Y-48880119D01*
X147930327Y-48978000D01*
X147973347Y-49249613D01*
X148071022Y-49614143D01*
X148206266Y-49966465D01*
X148207764Y-49969405D01*
X148370241Y-50288283D01*
X148377597Y-50302720D01*
X148379393Y-50305486D01*
X148379395Y-50305489D01*
X148428624Y-50381295D01*
X148583137Y-50619225D01*
X148820635Y-50912511D01*
X149087489Y-51179365D01*
X149380775Y-51416863D01*
X149383550Y-51418665D01*
X149670014Y-51604696D01*
X149697280Y-51622403D01*
X149700214Y-51623898D01*
X149700221Y-51623902D01*
X150025492Y-51789636D01*
X150033535Y-51793734D01*
X150180227Y-51850044D01*
X150369638Y-51922752D01*
X150385857Y-51928978D01*
X150750387Y-52026653D01*
X150948353Y-52058008D01*
X151119881Y-52085176D01*
X151119889Y-52085177D01*
X151123129Y-52085690D01*
X151405720Y-52100500D01*
X151594280Y-52100500D01*
X151876871Y-52085690D01*
X151880111Y-52085177D01*
X151880119Y-52085176D01*
X152051647Y-52058008D01*
X152249613Y-52026653D01*
X152614143Y-51928978D01*
X152630363Y-51922752D01*
X152819773Y-51850044D01*
X152966465Y-51793734D01*
X152974508Y-51789636D01*
X153299779Y-51623902D01*
X153299786Y-51623898D01*
X153302720Y-51622403D01*
X153329987Y-51604696D01*
X153616450Y-51418665D01*
X153619225Y-51416863D01*
X153912511Y-51179365D01*
X154179365Y-50912511D01*
X154416863Y-50619225D01*
X154467827Y-50540747D01*
X154521704Y-50494510D01*
X154592025Y-50484740D01*
X154656465Y-50514540D01*
X154694564Y-50574448D01*
X154699500Y-50609371D01*
X154699500Y-74390629D01*
X154679498Y-74458750D01*
X154625842Y-74505243D01*
X154555568Y-74515347D01*
X154490988Y-74485853D01*
X154467827Y-74459253D01*
X154418665Y-74383550D01*
X154416863Y-74380775D01*
X154179365Y-74087489D01*
X153912511Y-73820635D01*
X153619225Y-73583137D01*
X153302720Y-73377597D01*
X153299786Y-73376102D01*
X153299779Y-73376098D01*
X152969405Y-73207764D01*
X152966465Y-73206266D01*
X152614143Y-73071022D01*
X152249613Y-72973347D01*
X152051647Y-72941992D01*
X151880119Y-72914824D01*
X151880111Y-72914823D01*
X151876871Y-72914310D01*
X151594280Y-72899500D01*
X151405720Y-72899500D01*
X151123129Y-72914310D01*
X151119889Y-72914823D01*
X151119881Y-72914824D01*
X150948353Y-72941992D01*
X150750387Y-72973347D01*
X150385857Y-73071022D01*
X150033535Y-73206266D01*
X150030595Y-73207764D01*
X149700221Y-73376098D01*
X149700214Y-73376102D01*
X149697280Y-73377597D01*
X149380775Y-73583137D01*
X149087489Y-73820635D01*
X148820635Y-74087489D01*
X148583137Y-74380775D01*
X148532499Y-74458750D01*
X148379395Y-74694510D01*
X148379393Y-74694513D01*
X148377597Y-74697279D01*
X148376102Y-74700213D01*
X148376098Y-74700220D01*
X148273399Y-74901779D01*
X148206266Y-75033535D01*
X148071022Y-75385857D01*
X147973347Y-75750387D01*
X147914310Y-76123129D01*
X147894559Y-76500000D01*
X147914310Y-76876871D01*
X147973347Y-77249613D01*
X148071022Y-77614143D01*
X148206266Y-77966465D01*
X148377597Y-78302720D01*
X148583137Y-78619225D01*
X148820635Y-78912511D01*
X149087489Y-79179365D01*
X149380775Y-79416863D01*
X149383550Y-79418665D01*
X149459253Y-79467827D01*
X149505490Y-79521704D01*
X149515260Y-79592025D01*
X149485460Y-79656465D01*
X149425552Y-79694564D01*
X149390629Y-79699500D01*
X60609371Y-79699500D01*
X60541250Y-79679498D01*
X60494757Y-79625842D01*
X60484653Y-79555568D01*
X60514147Y-79490988D01*
X60540747Y-79467827D01*
X60616450Y-79418665D01*
X60619225Y-79416863D01*
X60912511Y-79179365D01*
X61179365Y-78912511D01*
X61416863Y-78619225D01*
X61620606Y-78305489D01*
X61620607Y-78305487D01*
X61622403Y-78302721D01*
X61623903Y-78299779D01*
X61792236Y-77969405D01*
X61793734Y-77966465D01*
X61928978Y-77614143D01*
X62026653Y-77249613D01*
X62085690Y-76876871D01*
X62105441Y-76500000D01*
X62085690Y-76123129D01*
X62026653Y-75750387D01*
X61928978Y-75385857D01*
X61793734Y-75033535D01*
X61724262Y-74897188D01*
X61623902Y-74700221D01*
X61623898Y-74700214D01*
X61622403Y-74697280D01*
X61612847Y-74682564D01*
X61418665Y-74383550D01*
X61416863Y-74380775D01*
X61179365Y-74087489D01*
X60912511Y-73820635D01*
X60619225Y-73583137D01*
X60302720Y-73377597D01*
X60299786Y-73376102D01*
X60299779Y-73376098D01*
X59969405Y-73207764D01*
X59966465Y-73206266D01*
X59614143Y-73071022D01*
X59249613Y-72973347D01*
X59051647Y-72941992D01*
X58880119Y-72914824D01*
X58880111Y-72914823D01*
X58876871Y-72914310D01*
X58594280Y-72899500D01*
X58405720Y-72899500D01*
X58123129Y-72914310D01*
X58119889Y-72914823D01*
X58119881Y-72914824D01*
X57948353Y-72941992D01*
X57750387Y-72973347D01*
X57385857Y-73071022D01*
X57033535Y-73206266D01*
X57030595Y-73207764D01*
X56700221Y-73376098D01*
X56700214Y-73376102D01*
X56697280Y-73377597D01*
X56380775Y-73583137D01*
X56087489Y-73820635D01*
X55820635Y-74087489D01*
X55583137Y-74380775D01*
X55532500Y-74458750D01*
X55532173Y-74459253D01*
X55478296Y-74505490D01*
X55407975Y-74515260D01*
X55343535Y-74485460D01*
X55305436Y-74425552D01*
X55300500Y-74390629D01*
X55300500Y-72084669D01*
X60492001Y-72084669D01*
X60492371Y-72091490D01*
X60497895Y-72142352D01*
X60501521Y-72157604D01*
X60546676Y-72278054D01*
X60555214Y-72293649D01*
X60631715Y-72395724D01*
X60644276Y-72408285D01*
X60746351Y-72484786D01*
X60761946Y-72493324D01*
X60882394Y-72538478D01*
X60897649Y-72542105D01*
X60948514Y-72547631D01*
X60955328Y-72548000D01*
X62227885Y-72548000D01*
X62243124Y-72543525D01*
X62244329Y-72542135D01*
X62246000Y-72534452D01*
X62246000Y-72529884D01*
X62754000Y-72529884D01*
X62758475Y-72545123D01*
X62759865Y-72546328D01*
X62767548Y-72547999D01*
X64044669Y-72547999D01*
X64051490Y-72547629D01*
X64102352Y-72542105D01*
X64117604Y-72538479D01*
X64238054Y-72493324D01*
X64253649Y-72484786D01*
X64355724Y-72408285D01*
X64368285Y-72395724D01*
X64444786Y-72293649D01*
X64453324Y-72278054D01*
X64498478Y-72157606D01*
X64502105Y-72142351D01*
X64507631Y-72091486D01*
X64508000Y-72084672D01*
X64508000Y-70812115D01*
X64503525Y-70796876D01*
X64502135Y-70795671D01*
X64494452Y-70794000D01*
X62772115Y-70794000D01*
X62756876Y-70798475D01*
X62755671Y-70799865D01*
X62754000Y-70807548D01*
X62754000Y-72529884D01*
X62246000Y-72529884D01*
X62246000Y-70812115D01*
X62241525Y-70796876D01*
X62240135Y-70795671D01*
X62232452Y-70794000D01*
X60510116Y-70794000D01*
X60494877Y-70798475D01*
X60493672Y-70799865D01*
X60492001Y-70807548D01*
X60492001Y-72084669D01*
X55300500Y-72084669D01*
X55300500Y-70267885D01*
X60492000Y-70267885D01*
X60496475Y-70283124D01*
X60497865Y-70284329D01*
X60505548Y-70286000D01*
X62227885Y-70286000D01*
X62243124Y-70281525D01*
X62244329Y-70280135D01*
X62246000Y-70272452D01*
X62246000Y-70267885D01*
X62754000Y-70267885D01*
X62758475Y-70283124D01*
X62759865Y-70284329D01*
X62767548Y-70286000D01*
X64489884Y-70286000D01*
X64505123Y-70281525D01*
X64506328Y-70280135D01*
X64507999Y-70272452D01*
X64507999Y-69142966D01*
X96668257Y-69142966D01*
X96698565Y-69277446D01*
X96701645Y-69287275D01*
X96781770Y-69484603D01*
X96786413Y-69493794D01*
X96897694Y-69675388D01*
X96903777Y-69683699D01*
X97043213Y-69844667D01*
X97050580Y-69851883D01*
X97214434Y-69987916D01*
X97222881Y-69993831D01*
X97406756Y-70101279D01*
X97416042Y-70105729D01*
X97615001Y-70181703D01*
X97624899Y-70184579D01*
X97728250Y-70205606D01*
X97742299Y-70204410D01*
X97746000Y-70194065D01*
X97746000Y-69147115D01*
X97741525Y-69131876D01*
X97740135Y-69130671D01*
X97732452Y-69129000D01*
X96683225Y-69129000D01*
X96669694Y-69132973D01*
X96668257Y-69142966D01*
X64507999Y-69142966D01*
X64507999Y-68995331D01*
X64507629Y-68988510D01*
X64502105Y-68937648D01*
X64498479Y-68922396D01*
X64453324Y-68801946D01*
X64444786Y-68786351D01*
X64368285Y-68684276D01*
X64355724Y-68671715D01*
X64253649Y-68595214D01*
X64238054Y-68586676D01*
X64117606Y-68541522D01*
X64102351Y-68537895D01*
X64051486Y-68532369D01*
X64044672Y-68532000D01*
X62772115Y-68532000D01*
X62756876Y-68536475D01*
X62755671Y-68537865D01*
X62754000Y-68545548D01*
X62754000Y-70267885D01*
X62246000Y-70267885D01*
X62246000Y-68550116D01*
X62241525Y-68534877D01*
X62240135Y-68533672D01*
X62232452Y-68532001D01*
X60955331Y-68532001D01*
X60948510Y-68532371D01*
X60897648Y-68537895D01*
X60882396Y-68541521D01*
X60761946Y-68586676D01*
X60746351Y-68595214D01*
X60644276Y-68671715D01*
X60631715Y-68684276D01*
X60555214Y-68786351D01*
X60546676Y-68801946D01*
X60501522Y-68922394D01*
X60497895Y-68937649D01*
X60492369Y-68988514D01*
X60492000Y-68995328D01*
X60492000Y-70267885D01*
X55300500Y-70267885D01*
X55300500Y-65412736D01*
X60695070Y-65412736D01*
X60695294Y-65417403D01*
X60695294Y-65417408D01*
X60697492Y-65463160D01*
X60707909Y-65680041D01*
X60708821Y-65684626D01*
X60714032Y-65710822D01*
X60760118Y-65942512D01*
X60850549Y-66194383D01*
X60852765Y-66198507D01*
X60920982Y-66325465D01*
X60977215Y-66430121D01*
X60980010Y-66433864D01*
X60980012Y-66433867D01*
X61112961Y-66611907D01*
X61137335Y-66644547D01*
X61140642Y-66647825D01*
X61140647Y-66647831D01*
X61264357Y-66770465D01*
X61327390Y-66832950D01*
X61331156Y-66835712D01*
X61331158Y-66835713D01*
X61402028Y-66887677D01*
X61543205Y-66991192D01*
X61547340Y-66993368D01*
X61547344Y-66993370D01*
X61676918Y-67061542D01*
X61780039Y-67115797D01*
X61829739Y-67133153D01*
X62028273Y-67202484D01*
X62028279Y-67202486D01*
X62032690Y-67204026D01*
X62037283Y-67204898D01*
X62250594Y-67245397D01*
X62295606Y-67253943D01*
X62422616Y-67258933D01*
X62558345Y-67264266D01*
X62558350Y-67264266D01*
X62563013Y-67264449D01*
X62658943Y-67253943D01*
X62824382Y-67235825D01*
X62824387Y-67235824D01*
X62829035Y-67235315D01*
X62838068Y-67232937D01*
X63083309Y-67168370D01*
X63087829Y-67167180D01*
X63212501Y-67113617D01*
X63329407Y-67063391D01*
X63329410Y-67063389D01*
X63333710Y-67061542D01*
X63337690Y-67059079D01*
X63337694Y-67059077D01*
X63557302Y-66923179D01*
X63557306Y-66923176D01*
X63561275Y-66920720D01*
X63611913Y-66877852D01*
X63761960Y-66750828D01*
X63761961Y-66750827D01*
X63765526Y-66747809D01*
X63880230Y-66617015D01*
X63938894Y-66550122D01*
X63938898Y-66550117D01*
X63941976Y-66546607D01*
X63958222Y-66521350D01*
X64084219Y-66325465D01*
X64084222Y-66325460D01*
X64086747Y-66321534D01*
X64196661Y-66077534D01*
X64232175Y-65951612D01*
X64268032Y-65824473D01*
X64268033Y-65824470D01*
X64269302Y-65819969D01*
X64287171Y-65679511D01*
X64302677Y-65557625D01*
X64302677Y-65557621D01*
X64303075Y-65554495D01*
X64304269Y-65508909D01*
X64305466Y-65463160D01*
X64305549Y-65460000D01*
X64300993Y-65398694D01*
X64286064Y-65197788D01*
X64286063Y-65197784D01*
X64285717Y-65193123D01*
X64283457Y-65183133D01*
X64246239Y-65018659D01*
X64226655Y-64932109D01*
X64193836Y-64847715D01*
X64131355Y-64687044D01*
X64131354Y-64687042D01*
X64129662Y-64682691D01*
X64121358Y-64668161D01*
X64080268Y-64596270D01*
X63996868Y-64450350D01*
X63831190Y-64240189D01*
X63636269Y-64056825D01*
X63416385Y-63904286D01*
X63412194Y-63902219D01*
X63180559Y-63787989D01*
X63180556Y-63787988D01*
X63176371Y-63785924D01*
X63154913Y-63779055D01*
X63048934Y-63745131D01*
X62921497Y-63704338D01*
X62688889Y-63666456D01*
X62661976Y-63662073D01*
X62661975Y-63662073D01*
X62657364Y-63661322D01*
X62518184Y-63659500D01*
X62394451Y-63657880D01*
X62394448Y-63657880D01*
X62389774Y-63657819D01*
X62124605Y-63693907D01*
X62120118Y-63695215D01*
X62120117Y-63695215D01*
X62088817Y-63704338D01*
X61867683Y-63768792D01*
X61863430Y-63770752D01*
X61863429Y-63770753D01*
X61811512Y-63794687D01*
X61624652Y-63880831D01*
X61611166Y-63889673D01*
X61404764Y-64024996D01*
X61404759Y-64025000D01*
X61400851Y-64027562D01*
X61325648Y-64094683D01*
X61229286Y-64180690D01*
X61201197Y-64205760D01*
X61030075Y-64411512D01*
X61027652Y-64415505D01*
X60929594Y-64577100D01*
X60891244Y-64640298D01*
X60889437Y-64644606D01*
X60889437Y-64644607D01*
X60804267Y-64847715D01*
X60787755Y-64887091D01*
X60786604Y-64891623D01*
X60786603Y-64891626D01*
X60768297Y-64963705D01*
X60721881Y-65146470D01*
X60695070Y-65412736D01*
X55300500Y-65412736D01*
X55300500Y-52219646D01*
X91518558Y-52219646D01*
X91521676Y-52245846D01*
X91567119Y-52348153D01*
X91575352Y-52356372D01*
X91575353Y-52356373D01*
X91586093Y-52367094D01*
X91646345Y-52427241D01*
X91656982Y-52431944D01*
X91656984Y-52431945D01*
X91699208Y-52450612D01*
X91748731Y-52472506D01*
X91774412Y-52475500D01*
X93413704Y-52475500D01*
X93417408Y-52475059D01*
X93417411Y-52475059D01*
X93424804Y-52474179D01*
X93439904Y-52472382D01*
X93488916Y-52450612D01*
X93531576Y-52431663D01*
X93542211Y-52426939D01*
X93621299Y-52347713D01*
X93631377Y-52324919D01*
X93662733Y-52253992D01*
X93666564Y-52245327D01*
X93669558Y-52219646D01*
X93669558Y-50580354D01*
X93666440Y-50554154D01*
X93620997Y-50451847D01*
X93541771Y-50372759D01*
X93531134Y-50368056D01*
X93531132Y-50368055D01*
X93450093Y-50332228D01*
X93439385Y-50327494D01*
X93413704Y-50324500D01*
X91774412Y-50324500D01*
X91770708Y-50324941D01*
X91770705Y-50324941D01*
X91763312Y-50325821D01*
X91748212Y-50327618D01*
X91645905Y-50373061D01*
X91566817Y-50452287D01*
X91521552Y-50554673D01*
X91518558Y-50580354D01*
X91518558Y-52219646D01*
X55300500Y-52219646D01*
X55300500Y-50609371D01*
X55320502Y-50541250D01*
X55374158Y-50494757D01*
X55444432Y-50484653D01*
X55509012Y-50514147D01*
X55532173Y-50540747D01*
X55583137Y-50619225D01*
X55820635Y-50912511D01*
X56087489Y-51179365D01*
X56380775Y-51416863D01*
X56383550Y-51418665D01*
X56670014Y-51604696D01*
X56697280Y-51622403D01*
X56700214Y-51623898D01*
X56700221Y-51623902D01*
X57025492Y-51789636D01*
X57033535Y-51793734D01*
X57180227Y-51850044D01*
X57369638Y-51922752D01*
X57385857Y-51928978D01*
X57750387Y-52026653D01*
X57948353Y-52058008D01*
X58119881Y-52085176D01*
X58119889Y-52085177D01*
X58123129Y-52085690D01*
X58405720Y-52100500D01*
X58594280Y-52100500D01*
X58876871Y-52085690D01*
X58880111Y-52085177D01*
X58880119Y-52085176D01*
X59051647Y-52058008D01*
X59249613Y-52026653D01*
X59614143Y-51928978D01*
X59630363Y-51922752D01*
X59819773Y-51850044D01*
X59966465Y-51793734D01*
X59974508Y-51789636D01*
X60299779Y-51623902D01*
X60299786Y-51623898D01*
X60302720Y-51622403D01*
X60329987Y-51604696D01*
X60616450Y-51418665D01*
X60619225Y-51416863D01*
X60912511Y-51179365D01*
X61179365Y-50912511D01*
X61416863Y-50619225D01*
X61525274Y-50452287D01*
X61620605Y-50305490D01*
X61620607Y-50305487D01*
X61622403Y-50302721D01*
X61623903Y-50299779D01*
X61792236Y-49969405D01*
X61792895Y-49968112D01*
X86890501Y-49968112D01*
X86899797Y-49980127D01*
X86945599Y-50012198D01*
X86955094Y-50017681D01*
X87148588Y-50107908D01*
X87158880Y-50111654D01*
X87365101Y-50166911D01*
X87375896Y-50168814D01*
X87588583Y-50187422D01*
X87599533Y-50187422D01*
X87812220Y-50168814D01*
X87823015Y-50166911D01*
X88029236Y-50111654D01*
X88039528Y-50107908D01*
X88233022Y-50017681D01*
X88242517Y-50012198D01*
X88289157Y-49979540D01*
X88297532Y-49969063D01*
X88297032Y-49968112D01*
X95090501Y-49968112D01*
X95099797Y-49980127D01*
X95145599Y-50012198D01*
X95155094Y-50017681D01*
X95348588Y-50107908D01*
X95358880Y-50111654D01*
X95565101Y-50166911D01*
X95575896Y-50168814D01*
X95788583Y-50187422D01*
X95799533Y-50187422D01*
X96012220Y-50168814D01*
X96023015Y-50166911D01*
X96229236Y-50111654D01*
X96239528Y-50107908D01*
X96433022Y-50017681D01*
X96442517Y-50012198D01*
X96489157Y-49979540D01*
X96497532Y-49969063D01*
X96497032Y-49968112D01*
X103290501Y-49968112D01*
X103299797Y-49980127D01*
X103345599Y-50012198D01*
X103355094Y-50017681D01*
X103548588Y-50107908D01*
X103558880Y-50111654D01*
X103765101Y-50166911D01*
X103775896Y-50168814D01*
X103988583Y-50187422D01*
X103999533Y-50187422D01*
X104212220Y-50168814D01*
X104223015Y-50166911D01*
X104429236Y-50111654D01*
X104439528Y-50107908D01*
X104633022Y-50017681D01*
X104642517Y-50012198D01*
X104689157Y-49979540D01*
X104697532Y-49969063D01*
X104697032Y-49968112D01*
X111490501Y-49968112D01*
X111499797Y-49980127D01*
X111545599Y-50012198D01*
X111555094Y-50017681D01*
X111748588Y-50107908D01*
X111758880Y-50111654D01*
X111965101Y-50166911D01*
X111975896Y-50168814D01*
X112188583Y-50187422D01*
X112199533Y-50187422D01*
X112412220Y-50168814D01*
X112423015Y-50166911D01*
X112629236Y-50111654D01*
X112639528Y-50107908D01*
X112833022Y-50017681D01*
X112842517Y-50012198D01*
X112889157Y-49979540D01*
X112897532Y-49969063D01*
X112890464Y-49955616D01*
X112206870Y-49272022D01*
X112192926Y-49264408D01*
X112191093Y-49264539D01*
X112184478Y-49268790D01*
X111496931Y-49956337D01*
X111490501Y-49968112D01*
X104697032Y-49968112D01*
X104690464Y-49955616D01*
X104006870Y-49272022D01*
X103992926Y-49264408D01*
X103991093Y-49264539D01*
X103984478Y-49268790D01*
X103296931Y-49956337D01*
X103290501Y-49968112D01*
X96497032Y-49968112D01*
X96490464Y-49955616D01*
X95806870Y-49272022D01*
X95792926Y-49264408D01*
X95791093Y-49264539D01*
X95784478Y-49268790D01*
X95096931Y-49956337D01*
X95090501Y-49968112D01*
X88297032Y-49968112D01*
X88290464Y-49955616D01*
X87606870Y-49272022D01*
X87592926Y-49264408D01*
X87591093Y-49264539D01*
X87584478Y-49268790D01*
X86896931Y-49956337D01*
X86890501Y-49968112D01*
X61792895Y-49968112D01*
X61793734Y-49966465D01*
X61928978Y-49614143D01*
X62026653Y-49249613D01*
X62069673Y-48978000D01*
X62081160Y-48905475D01*
X86306636Y-48905475D01*
X86325244Y-49118162D01*
X86327147Y-49128957D01*
X86382404Y-49335178D01*
X86386150Y-49345470D01*
X86476377Y-49538963D01*
X86481860Y-49548459D01*
X86514518Y-49595099D01*
X86524995Y-49603474D01*
X86538443Y-49596405D01*
X87222036Y-48912812D01*
X87228414Y-48901132D01*
X87958466Y-48901132D01*
X87958597Y-48902965D01*
X87962848Y-48909580D01*
X88650395Y-49597127D01*
X88662170Y-49603557D01*
X88674185Y-49594261D01*
X88706256Y-49548459D01*
X88711739Y-49538963D01*
X88801966Y-49345470D01*
X88805712Y-49335178D01*
X88860969Y-49128957D01*
X88862872Y-49118162D01*
X88881480Y-48905475D01*
X94506636Y-48905475D01*
X94525244Y-49118162D01*
X94527147Y-49128957D01*
X94582404Y-49335178D01*
X94586150Y-49345470D01*
X94676377Y-49538963D01*
X94681860Y-49548459D01*
X94714518Y-49595099D01*
X94724995Y-49603474D01*
X94738443Y-49596405D01*
X95422036Y-48912812D01*
X95428414Y-48901132D01*
X96158466Y-48901132D01*
X96158597Y-48902965D01*
X96162848Y-48909580D01*
X96850395Y-49597127D01*
X96862170Y-49603557D01*
X96874185Y-49594261D01*
X96906256Y-49548459D01*
X96911739Y-49538963D01*
X97001966Y-49345470D01*
X97005712Y-49335178D01*
X97060969Y-49128957D01*
X97062872Y-49118162D01*
X97081480Y-48905475D01*
X102706636Y-48905475D01*
X102725244Y-49118162D01*
X102727147Y-49128957D01*
X102782404Y-49335178D01*
X102786150Y-49345470D01*
X102876377Y-49538963D01*
X102881860Y-49548459D01*
X102914518Y-49595099D01*
X102924995Y-49603474D01*
X102938443Y-49596405D01*
X103622036Y-48912812D01*
X103628414Y-48901132D01*
X104358466Y-48901132D01*
X104358597Y-48902965D01*
X104362848Y-48909580D01*
X105050395Y-49597127D01*
X105062170Y-49603557D01*
X105074185Y-49594261D01*
X105106256Y-49548459D01*
X105111739Y-49538963D01*
X105201966Y-49345470D01*
X105205712Y-49335178D01*
X105260969Y-49128957D01*
X105262872Y-49118162D01*
X105281480Y-48905475D01*
X110906636Y-48905475D01*
X110925244Y-49118162D01*
X110927147Y-49128957D01*
X110982404Y-49335178D01*
X110986150Y-49345470D01*
X111076377Y-49538963D01*
X111081860Y-49548459D01*
X111114518Y-49595099D01*
X111124995Y-49603474D01*
X111138443Y-49596405D01*
X111822036Y-48912812D01*
X111828414Y-48901132D01*
X112558466Y-48901132D01*
X112558597Y-48902965D01*
X112562848Y-48909580D01*
X113250395Y-49597127D01*
X113262170Y-49603557D01*
X113274185Y-49594261D01*
X113306256Y-49548459D01*
X113311739Y-49538963D01*
X113401966Y-49345470D01*
X113405712Y-49335178D01*
X113460969Y-49128957D01*
X113462872Y-49118162D01*
X113481480Y-48905475D01*
X113481480Y-48894525D01*
X113462872Y-48681838D01*
X113460969Y-48671043D01*
X113405712Y-48464822D01*
X113401966Y-48454530D01*
X113311739Y-48261037D01*
X113306256Y-48251541D01*
X113273598Y-48204901D01*
X113263121Y-48196526D01*
X113249673Y-48203595D01*
X112566080Y-48887188D01*
X112558466Y-48901132D01*
X111828414Y-48901132D01*
X111829650Y-48898868D01*
X111829519Y-48897035D01*
X111825268Y-48890420D01*
X111137721Y-48202873D01*
X111125946Y-48196443D01*
X111113931Y-48205739D01*
X111081860Y-48251541D01*
X111076377Y-48261037D01*
X110986150Y-48454530D01*
X110982404Y-48464822D01*
X110927147Y-48671043D01*
X110925244Y-48681838D01*
X110906636Y-48894525D01*
X110906636Y-48905475D01*
X105281480Y-48905475D01*
X105281480Y-48894525D01*
X105262872Y-48681838D01*
X105260969Y-48671043D01*
X105205712Y-48464822D01*
X105201966Y-48454530D01*
X105111739Y-48261037D01*
X105106256Y-48251541D01*
X105073598Y-48204901D01*
X105063121Y-48196526D01*
X105049673Y-48203595D01*
X104366080Y-48887188D01*
X104358466Y-48901132D01*
X103628414Y-48901132D01*
X103629650Y-48898868D01*
X103629519Y-48897035D01*
X103625268Y-48890420D01*
X102937721Y-48202873D01*
X102925946Y-48196443D01*
X102913931Y-48205739D01*
X102881860Y-48251541D01*
X102876377Y-48261037D01*
X102786150Y-48454530D01*
X102782404Y-48464822D01*
X102727147Y-48671043D01*
X102725244Y-48681838D01*
X102706636Y-48894525D01*
X102706636Y-48905475D01*
X97081480Y-48905475D01*
X97081480Y-48894525D01*
X97062872Y-48681838D01*
X97060969Y-48671043D01*
X97005712Y-48464822D01*
X97001966Y-48454530D01*
X96911739Y-48261037D01*
X96906256Y-48251541D01*
X96873598Y-48204901D01*
X96863121Y-48196526D01*
X96849673Y-48203595D01*
X96166080Y-48887188D01*
X96158466Y-48901132D01*
X95428414Y-48901132D01*
X95429650Y-48898868D01*
X95429519Y-48897035D01*
X95425268Y-48890420D01*
X94737721Y-48202873D01*
X94725946Y-48196443D01*
X94713931Y-48205739D01*
X94681860Y-48251541D01*
X94676377Y-48261037D01*
X94586150Y-48454530D01*
X94582404Y-48464822D01*
X94527147Y-48671043D01*
X94525244Y-48681838D01*
X94506636Y-48894525D01*
X94506636Y-48905475D01*
X88881480Y-48905475D01*
X88881480Y-48894525D01*
X88862872Y-48681838D01*
X88860969Y-48671043D01*
X88805712Y-48464822D01*
X88801966Y-48454530D01*
X88711739Y-48261037D01*
X88706256Y-48251541D01*
X88673598Y-48204901D01*
X88663121Y-48196526D01*
X88649673Y-48203595D01*
X87966080Y-48887188D01*
X87958466Y-48901132D01*
X87228414Y-48901132D01*
X87229650Y-48898868D01*
X87229519Y-48897035D01*
X87225268Y-48890420D01*
X86537721Y-48202873D01*
X86525946Y-48196443D01*
X86513931Y-48205739D01*
X86481860Y-48251541D01*
X86476377Y-48261037D01*
X86386150Y-48454530D01*
X86382404Y-48464822D01*
X86327147Y-48671043D01*
X86325244Y-48681838D01*
X86306636Y-48894525D01*
X86306636Y-48905475D01*
X62081160Y-48905475D01*
X62085176Y-48880119D01*
X62085177Y-48880111D01*
X62085690Y-48876871D01*
X62105441Y-48500000D01*
X62085690Y-48123129D01*
X62080302Y-48089107D01*
X62041541Y-47844385D01*
X62026653Y-47750387D01*
X61928978Y-47385857D01*
X61926108Y-47378379D01*
X61840558Y-47155515D01*
X61793734Y-47033535D01*
X61660486Y-46772022D01*
X61623902Y-46700221D01*
X61623898Y-46700214D01*
X61622403Y-46697280D01*
X61557263Y-46596972D01*
X61418665Y-46383550D01*
X61416863Y-46380775D01*
X61179365Y-46087489D01*
X60912511Y-45820635D01*
X60619225Y-45583137D01*
X60540747Y-45532173D01*
X60494510Y-45478296D01*
X60484740Y-45407975D01*
X60514540Y-45343535D01*
X60574448Y-45305436D01*
X60609371Y-45300500D01*
X83293562Y-45300500D01*
X83361683Y-45320502D01*
G37*
G04 #@! TD.AperFunction*
M02*
