G04 #@! TF.GenerationSoftware,KiCad,Pcbnew,(6.0.10)*
G04 #@! TF.CreationDate,2023-01-23T18:42:10+01:00*
G04 #@! TF.ProjectId,HeaterPSU,48656174-6572-4505-9355-2e6b69636164,rev?*
G04 #@! TF.SameCoordinates,Original*
G04 #@! TF.FileFunction,Legend,Bot*
G04 #@! TF.FilePolarity,Positive*
%FSLAX46Y46*%
G04 Gerber Fmt 4.6, Leading zero omitted, Abs format (unit mm)*
G04 Created by KiCad (PCBNEW (6.0.10)) date 2023-01-23 18:42:10*
%MOMM*%
%LPD*%
G01*
G04 APERTURE LIST*
G04 Aperture macros list*
%AMRoundRect*
0 Rectangle with rounded corners*
0 $1 Rounding radius*
0 $2 $3 $4 $5 $6 $7 $8 $9 X,Y pos of 4 corners*
0 Add a 4 corners polygon primitive as box body*
4,1,4,$2,$3,$4,$5,$6,$7,$8,$9,$2,$3,0*
0 Add four circle primitives for the rounded corners*
1,1,$1+$1,$2,$3*
1,1,$1+$1,$4,$5*
1,1,$1+$1,$6,$7*
1,1,$1+$1,$8,$9*
0 Add four rect primitives between the rounded corners*
20,1,$1+$1,$2,$3,$4,$5,0*
20,1,$1+$1,$4,$5,$6,$7,0*
20,1,$1+$1,$6,$7,$8,$9,0*
20,1,$1+$1,$8,$9,$2,$3,0*%
G04 Aperture macros list end*
%ADD10C,0.150000*%
%ADD11C,0.300000*%
%ADD12C,0.100000*%
%ADD13C,0.120000*%
%ADD14RoundRect,0.250000X0.475000X-0.337500X0.475000X0.337500X-0.475000X0.337500X-0.475000X-0.337500X0*%
%ADD15RoundRect,0.250000X-0.475000X0.337500X-0.475000X-0.337500X0.475000X-0.337500X0.475000X0.337500X0*%
%ADD16C,3.200000*%
%ADD17C,4.000000*%
%ADD18C,1.800000*%
%ADD19R,1.700000X1.700000*%
%ADD20O,1.700000X1.700000*%
%ADD21C,1.400000*%
%ADD22C,3.000000*%
%ADD23R,1.100000X4.600000*%
%ADD24R,10.800000X9.400000*%
%ADD25RoundRect,0.250000X-1.000000X1.500000X-1.000000X-1.500000X1.000000X-1.500000X1.000000X1.500000X0*%
%ADD26R,1.200000X1.200000*%
%ADD27R,1.600000X1.500000*%
%ADD28RoundRect,0.237500X-0.237500X0.300000X-0.237500X-0.300000X0.237500X-0.300000X0.237500X0.300000X0*%
%ADD29RoundRect,0.250000X0.450000X-0.350000X0.450000X0.350000X-0.450000X0.350000X-0.450000X-0.350000X0*%
%ADD30RoundRect,0.250000X-0.450000X0.350000X-0.450000X-0.350000X0.450000X-0.350000X0.450000X0.350000X0*%
%ADD31RoundRect,0.237500X0.250000X0.237500X-0.250000X0.237500X-0.250000X-0.237500X0.250000X-0.237500X0*%
%ADD32RoundRect,0.250000X0.337500X0.475000X-0.337500X0.475000X-0.337500X-0.475000X0.337500X-0.475000X0*%
%ADD33R,1.560000X0.650000*%
%ADD34RoundRect,0.237500X0.237500X-0.250000X0.237500X0.250000X-0.237500X0.250000X-0.237500X-0.250000X0*%
%ADD35RoundRect,0.250000X0.350000X0.450000X-0.350000X0.450000X-0.350000X-0.450000X0.350000X-0.450000X0*%
%ADD36R,3.000000X3.000000*%
%ADD37R,5.400000X2.900000*%
%ADD38RoundRect,0.250000X-0.350000X-0.450000X0.350000X-0.450000X0.350000X0.450000X-0.350000X0.450000X0*%
%ADD39R,1.200000X0.600000*%
%ADD40R,4.000000X4.400000*%
%ADD41R,1.200000X0.900000*%
%ADD42RoundRect,0.249999X-0.450001X-1.425001X0.450001X-1.425001X0.450001X1.425001X-0.450001X1.425001X0*%
%ADD43R,2.200000X1.200000*%
%ADD44R,6.400000X5.800000*%
G04 APERTURE END LIST*
D10*
X56078571Y-71730952D02*
X56078571Y-70969047D01*
X55697619Y-71350000D02*
X56459523Y-71350000D01*
X55697619Y-69969047D02*
X55697619Y-70540476D01*
X55697619Y-70254761D02*
X56697619Y-70254761D01*
X56554761Y-70350000D01*
X56459523Y-70445238D01*
X56411904Y-70540476D01*
X55697619Y-69492857D02*
X55697619Y-69302380D01*
X55745238Y-69207142D01*
X55792857Y-69159523D01*
X55935714Y-69064285D01*
X56126190Y-69016666D01*
X56507142Y-69016666D01*
X56602380Y-69064285D01*
X56650000Y-69111904D01*
X56697619Y-69207142D01*
X56697619Y-69397619D01*
X56650000Y-69492857D01*
X56602380Y-69540476D01*
X56507142Y-69588095D01*
X56269047Y-69588095D01*
X56173809Y-69540476D01*
X56126190Y-69492857D01*
X56078571Y-69397619D01*
X56078571Y-69207142D01*
X56126190Y-69111904D01*
X56173809Y-69064285D01*
X56269047Y-69016666D01*
X56697619Y-68730952D02*
X55697619Y-68397619D01*
X56697619Y-68064285D01*
X56697619Y-65254761D02*
X56697619Y-65159523D01*
X56650000Y-65064285D01*
X56602380Y-65016666D01*
X56507142Y-64969047D01*
X56316666Y-64921428D01*
X56078571Y-64921428D01*
X55888095Y-64969047D01*
X55792857Y-65016666D01*
X55745238Y-65064285D01*
X55697619Y-65159523D01*
X55697619Y-65254761D01*
X55745238Y-65350000D01*
X55792857Y-65397619D01*
X55888095Y-65445238D01*
X56078571Y-65492857D01*
X56316666Y-65492857D01*
X56507142Y-65445238D01*
X56602380Y-65397619D01*
X56650000Y-65350000D01*
X56697619Y-65254761D01*
X154602380Y-64428571D02*
X153602380Y-64428571D01*
X154078571Y-64428571D02*
X154078571Y-65000000D01*
X154602380Y-65000000D02*
X153602380Y-65000000D01*
X154221428Y-65476190D02*
X154221428Y-66238095D01*
X154602380Y-69761904D02*
X153602380Y-69761904D01*
X154078571Y-69761904D02*
X154078571Y-70333333D01*
X154602380Y-70333333D02*
X153602380Y-70333333D01*
X154221428Y-70809523D02*
X154221428Y-71571428D01*
X154602380Y-71190476D02*
X153840476Y-71190476D01*
X114795238Y-78561904D02*
X114795238Y-79133333D01*
X114833333Y-79247619D01*
X114909523Y-79323809D01*
X115023809Y-79361904D01*
X115100000Y-79361904D01*
X114033333Y-79361904D02*
X114414285Y-79361904D01*
X114414285Y-78561904D01*
X113309523Y-79285714D02*
X113347619Y-79323809D01*
X113461904Y-79361904D01*
X113538095Y-79361904D01*
X113652380Y-79323809D01*
X113728571Y-79247619D01*
X113766666Y-79171428D01*
X113804761Y-79019047D01*
X113804761Y-78904761D01*
X113766666Y-78752380D01*
X113728571Y-78676190D01*
X113652380Y-78600000D01*
X113538095Y-78561904D01*
X113461904Y-78561904D01*
X113347619Y-78600000D01*
X113309523Y-78638095D01*
X112738095Y-78561904D02*
X112738095Y-79133333D01*
X112776190Y-79247619D01*
X112852380Y-79323809D01*
X112966666Y-79361904D01*
X113042857Y-79361904D01*
X111976190Y-79361904D02*
X112357142Y-79361904D01*
X112357142Y-78561904D01*
X111252380Y-79285714D02*
X111290476Y-79323809D01*
X111404761Y-79361904D01*
X111480952Y-79361904D01*
X111595238Y-79323809D01*
X111671428Y-79247619D01*
X111709523Y-79171428D01*
X111747619Y-79019047D01*
X111747619Y-78904761D01*
X111709523Y-78752380D01*
X111671428Y-78676190D01*
X111595238Y-78600000D01*
X111480952Y-78561904D01*
X111404761Y-78561904D01*
X111290476Y-78600000D01*
X111252380Y-78638095D01*
X110680952Y-78561904D02*
X110680952Y-79133333D01*
X110719047Y-79247619D01*
X110795238Y-79323809D01*
X110909523Y-79361904D01*
X110985714Y-79361904D01*
X109919047Y-79361904D02*
X110300000Y-79361904D01*
X110300000Y-78561904D01*
X109195238Y-79285714D02*
X109233333Y-79323809D01*
X109347619Y-79361904D01*
X109423809Y-79361904D01*
X109538095Y-79323809D01*
X109614285Y-79247619D01*
X109652380Y-79171428D01*
X109690476Y-79019047D01*
X109690476Y-78904761D01*
X109652380Y-78752380D01*
X109614285Y-78676190D01*
X109538095Y-78600000D01*
X109423809Y-78561904D01*
X109347619Y-78561904D01*
X109233333Y-78600000D01*
X109195238Y-78638095D01*
X108623809Y-78561904D02*
X108623809Y-79133333D01*
X108661904Y-79247619D01*
X108738095Y-79323809D01*
X108852380Y-79361904D01*
X108928571Y-79361904D01*
X107861904Y-79361904D02*
X108242857Y-79361904D01*
X108242857Y-78561904D01*
X107138095Y-79285714D02*
X107176190Y-79323809D01*
X107290476Y-79361904D01*
X107366666Y-79361904D01*
X107480952Y-79323809D01*
X107557142Y-79247619D01*
X107595238Y-79171428D01*
X107633333Y-79019047D01*
X107633333Y-78904761D01*
X107595238Y-78752380D01*
X107557142Y-78676190D01*
X107480952Y-78600000D01*
X107366666Y-78561904D01*
X107290476Y-78561904D01*
X107176190Y-78600000D01*
X107138095Y-78638095D01*
D11*
X143800000Y-54685714D02*
X143728571Y-54757142D01*
X143800000Y-54828571D01*
X143871428Y-54757142D01*
X143800000Y-54685714D01*
X143800000Y-54828571D01*
D10*
X148290476Y-75247380D02*
X148290476Y-74247380D01*
X148290476Y-74723571D02*
X147719047Y-74723571D01*
X147719047Y-75247380D02*
X147719047Y-74247380D01*
X146861904Y-75199761D02*
X146957142Y-75247380D01*
X147147619Y-75247380D01*
X147242857Y-75199761D01*
X147290476Y-75104523D01*
X147290476Y-74723571D01*
X147242857Y-74628333D01*
X147147619Y-74580714D01*
X146957142Y-74580714D01*
X146861904Y-74628333D01*
X146814285Y-74723571D01*
X146814285Y-74818809D01*
X147290476Y-74914047D01*
X145957142Y-75247380D02*
X145957142Y-74723571D01*
X146004761Y-74628333D01*
X146100000Y-74580714D01*
X146290476Y-74580714D01*
X146385714Y-74628333D01*
X145957142Y-75199761D02*
X146052380Y-75247380D01*
X146290476Y-75247380D01*
X146385714Y-75199761D01*
X146433333Y-75104523D01*
X146433333Y-75009285D01*
X146385714Y-74914047D01*
X146290476Y-74866428D01*
X146052380Y-74866428D01*
X145957142Y-74818809D01*
X145623809Y-74580714D02*
X145242857Y-74580714D01*
X145480952Y-74247380D02*
X145480952Y-75104523D01*
X145433333Y-75199761D01*
X145338095Y-75247380D01*
X145242857Y-75247380D01*
X144528571Y-75199761D02*
X144623809Y-75247380D01*
X144814285Y-75247380D01*
X144909523Y-75199761D01*
X144957142Y-75104523D01*
X144957142Y-74723571D01*
X144909523Y-74628333D01*
X144814285Y-74580714D01*
X144623809Y-74580714D01*
X144528571Y-74628333D01*
X144480952Y-74723571D01*
X144480952Y-74818809D01*
X144957142Y-74914047D01*
X144052380Y-75247380D02*
X144052380Y-74580714D01*
X144052380Y-74771190D02*
X144004761Y-74675952D01*
X143957142Y-74628333D01*
X143861904Y-74580714D01*
X143766666Y-74580714D01*
X146909523Y-76857380D02*
X147004761Y-76809761D01*
X147052380Y-76762142D01*
X147100000Y-76666904D01*
X147100000Y-76381190D01*
X147052380Y-76285952D01*
X147004761Y-76238333D01*
X146909523Y-76190714D01*
X146766666Y-76190714D01*
X146671428Y-76238333D01*
X146623809Y-76285952D01*
X146576190Y-76381190D01*
X146576190Y-76666904D01*
X146623809Y-76762142D01*
X146671428Y-76809761D01*
X146766666Y-76857380D01*
X146909523Y-76857380D01*
X145719047Y-76190714D02*
X145719047Y-76857380D01*
X146147619Y-76190714D02*
X146147619Y-76714523D01*
X146100000Y-76809761D01*
X146004761Y-76857380D01*
X145861904Y-76857380D01*
X145766666Y-76809761D01*
X145719047Y-76762142D01*
X145385714Y-76190714D02*
X145004761Y-76190714D01*
X145242857Y-75857380D02*
X145242857Y-76714523D01*
X145195238Y-76809761D01*
X145100000Y-76857380D01*
X145004761Y-76857380D01*
X67572619Y-69983333D02*
X68572619Y-69983333D01*
X68572619Y-69745238D01*
X68525000Y-69602380D01*
X68429761Y-69507142D01*
X68334523Y-69459523D01*
X68144047Y-69411904D01*
X68001190Y-69411904D01*
X67810714Y-69459523D01*
X67715476Y-69507142D01*
X67620238Y-69602380D01*
X67572619Y-69745238D01*
X67572619Y-69983333D01*
X67667857Y-68411904D02*
X67620238Y-68459523D01*
X67572619Y-68602380D01*
X67572619Y-68697619D01*
X67620238Y-68840476D01*
X67715476Y-68935714D01*
X67810714Y-68983333D01*
X68001190Y-69030952D01*
X68144047Y-69030952D01*
X68334523Y-68983333D01*
X68429761Y-68935714D01*
X68525000Y-68840476D01*
X68572619Y-68697619D01*
X68572619Y-68602380D01*
X68525000Y-68459523D01*
X68477380Y-68411904D01*
X67572619Y-67221428D02*
X68572619Y-67221428D01*
X68239285Y-66745238D02*
X67572619Y-66745238D01*
X68144047Y-66745238D02*
X68191666Y-66697619D01*
X68239285Y-66602380D01*
X68239285Y-66459523D01*
X68191666Y-66364285D01*
X68096428Y-66316666D01*
X67572619Y-66316666D01*
X126885714Y-48375714D02*
X126885714Y-49375714D01*
X126409523Y-48899523D02*
X126361904Y-48994761D01*
X126266666Y-49042380D01*
X126885714Y-48899523D02*
X126838095Y-48994761D01*
X126742857Y-49042380D01*
X126552380Y-49042380D01*
X126457142Y-48994761D01*
X126409523Y-48899523D01*
X126409523Y-48375714D01*
X125980952Y-48042380D02*
X125409523Y-48042380D01*
X125695238Y-49042380D02*
X125695238Y-48042380D01*
X125076190Y-49042380D02*
X125076190Y-48375714D01*
X125076190Y-48566190D02*
X125028571Y-48470952D01*
X124980952Y-48423333D01*
X124885714Y-48375714D01*
X124790476Y-48375714D01*
X124028571Y-49042380D02*
X124028571Y-48518571D01*
X124076190Y-48423333D01*
X124171428Y-48375714D01*
X124361904Y-48375714D01*
X124457142Y-48423333D01*
X124028571Y-48994761D02*
X124123809Y-49042380D01*
X124361904Y-49042380D01*
X124457142Y-48994761D01*
X124504761Y-48899523D01*
X124504761Y-48804285D01*
X124457142Y-48709047D01*
X124361904Y-48661428D01*
X124123809Y-48661428D01*
X124028571Y-48613809D01*
X123123809Y-48994761D02*
X123219047Y-49042380D01*
X123409523Y-49042380D01*
X123504761Y-48994761D01*
X123552380Y-48947142D01*
X123600000Y-48851904D01*
X123600000Y-48566190D01*
X123552380Y-48470952D01*
X123504761Y-48423333D01*
X123409523Y-48375714D01*
X123219047Y-48375714D01*
X123123809Y-48423333D01*
X122314285Y-48994761D02*
X122409523Y-49042380D01*
X122600000Y-49042380D01*
X122695238Y-48994761D01*
X122742857Y-48899523D01*
X122742857Y-48518571D01*
X122695238Y-48423333D01*
X122600000Y-48375714D01*
X122409523Y-48375714D01*
X122314285Y-48423333D01*
X122266666Y-48518571D01*
X122266666Y-48613809D01*
X122742857Y-48709047D01*
X121838095Y-49042380D02*
X121838095Y-48375714D01*
X121838095Y-48566190D02*
X121790476Y-48470952D01*
X121742857Y-48423333D01*
X121647619Y-48375714D01*
X121552380Y-48375714D01*
X120457142Y-49042380D02*
X120457142Y-48042380D01*
X120457142Y-48518571D02*
X119885714Y-48518571D01*
X119885714Y-49042380D02*
X119885714Y-48042380D01*
X119028571Y-48994761D02*
X119123809Y-49042380D01*
X119314285Y-49042380D01*
X119409523Y-48994761D01*
X119457142Y-48899523D01*
X119457142Y-48518571D01*
X119409523Y-48423333D01*
X119314285Y-48375714D01*
X119123809Y-48375714D01*
X119028571Y-48423333D01*
X118980952Y-48518571D01*
X118980952Y-48613809D01*
X119457142Y-48709047D01*
X118123809Y-49042380D02*
X118123809Y-48518571D01*
X118171428Y-48423333D01*
X118266666Y-48375714D01*
X118457142Y-48375714D01*
X118552380Y-48423333D01*
X118123809Y-48994761D02*
X118219047Y-49042380D01*
X118457142Y-49042380D01*
X118552380Y-48994761D01*
X118600000Y-48899523D01*
X118600000Y-48804285D01*
X118552380Y-48709047D01*
X118457142Y-48661428D01*
X118219047Y-48661428D01*
X118123809Y-48613809D01*
X117790476Y-48375714D02*
X117409523Y-48375714D01*
X117647619Y-48042380D02*
X117647619Y-48899523D01*
X117600000Y-48994761D01*
X117504761Y-49042380D01*
X117409523Y-49042380D01*
X116695238Y-48994761D02*
X116790476Y-49042380D01*
X116980952Y-49042380D01*
X117076190Y-48994761D01*
X117123809Y-48899523D01*
X117123809Y-48518571D01*
X117076190Y-48423333D01*
X116980952Y-48375714D01*
X116790476Y-48375714D01*
X116695238Y-48423333D01*
X116647619Y-48518571D01*
X116647619Y-48613809D01*
X117123809Y-48709047D01*
X116219047Y-49042380D02*
X116219047Y-48375714D01*
X116219047Y-48566190D02*
X116171428Y-48470952D01*
X116123809Y-48423333D01*
X116028571Y-48375714D01*
X115933333Y-48375714D01*
X114838095Y-49042380D02*
X114838095Y-48042380D01*
X114457142Y-48042380D01*
X114361904Y-48090000D01*
X114314285Y-48137619D01*
X114266666Y-48232857D01*
X114266666Y-48375714D01*
X114314285Y-48470952D01*
X114361904Y-48518571D01*
X114457142Y-48566190D01*
X114838095Y-48566190D01*
X113885714Y-48994761D02*
X113742857Y-49042380D01*
X113504761Y-49042380D01*
X113409523Y-48994761D01*
X113361904Y-48947142D01*
X113314285Y-48851904D01*
X113314285Y-48756666D01*
X113361904Y-48661428D01*
X113409523Y-48613809D01*
X113504761Y-48566190D01*
X113695238Y-48518571D01*
X113790476Y-48470952D01*
X113838095Y-48423333D01*
X113885714Y-48328095D01*
X113885714Y-48232857D01*
X113838095Y-48137619D01*
X113790476Y-48090000D01*
X113695238Y-48042380D01*
X113457142Y-48042380D01*
X113314285Y-48090000D01*
X112885714Y-48042380D02*
X112885714Y-48851904D01*
X112838095Y-48947142D01*
X112790476Y-48994761D01*
X112695238Y-49042380D01*
X112504761Y-49042380D01*
X112409523Y-48994761D01*
X112361904Y-48947142D01*
X112314285Y-48851904D01*
X112314285Y-48042380D01*
X124433333Y-49747619D02*
X124385714Y-49700000D01*
X124290476Y-49652380D01*
X124052380Y-49652380D01*
X123957142Y-49700000D01*
X123909523Y-49747619D01*
X123861904Y-49842857D01*
X123861904Y-49938095D01*
X123909523Y-50080952D01*
X124480952Y-50652380D01*
X123861904Y-50652380D01*
X123480952Y-49747619D02*
X123433333Y-49700000D01*
X123338095Y-49652380D01*
X123100000Y-49652380D01*
X123004761Y-49700000D01*
X122957142Y-49747619D01*
X122909523Y-49842857D01*
X122909523Y-49938095D01*
X122957142Y-50080952D01*
X123528571Y-50652380D01*
X122909523Y-50652380D01*
X122719047Y-50747619D02*
X121957142Y-50747619D01*
X121290476Y-49985714D02*
X121290476Y-50652380D01*
X121528571Y-49604761D02*
X121766666Y-50319047D01*
X121147619Y-50319047D01*
X120861904Y-49652380D02*
X120242857Y-49652380D01*
X120576190Y-50033333D01*
X120433333Y-50033333D01*
X120338095Y-50080952D01*
X120290476Y-50128571D01*
X120242857Y-50223809D01*
X120242857Y-50461904D01*
X120290476Y-50557142D01*
X120338095Y-50604761D01*
X120433333Y-50652380D01*
X120719047Y-50652380D01*
X120814285Y-50604761D01*
X120861904Y-50557142D01*
X120052380Y-50747619D02*
X119290476Y-50747619D01*
X118861904Y-49652380D02*
X118766666Y-49652380D01*
X118671428Y-49700000D01*
X118623809Y-49747619D01*
X118576190Y-49842857D01*
X118528571Y-50033333D01*
X118528571Y-50271428D01*
X118576190Y-50461904D01*
X118623809Y-50557142D01*
X118671428Y-50604761D01*
X118766666Y-50652380D01*
X118861904Y-50652380D01*
X118957142Y-50604761D01*
X119004761Y-50557142D01*
X119052380Y-50461904D01*
X119100000Y-50271428D01*
X119100000Y-50033333D01*
X119052380Y-49842857D01*
X119004761Y-49747619D01*
X118957142Y-49700000D01*
X118861904Y-49652380D01*
X117576190Y-50652380D02*
X118147619Y-50652380D01*
X117861904Y-50652380D02*
X117861904Y-49652380D01*
X117957142Y-49795238D01*
X118052380Y-49890476D01*
X118147619Y-49938095D01*
X116623809Y-50652380D02*
X117195238Y-50652380D01*
X116909523Y-50652380D02*
X116909523Y-49652380D01*
X117004761Y-49795238D01*
X117100000Y-49890476D01*
X117195238Y-49938095D01*
X116147619Y-50652380D02*
X115957142Y-50652380D01*
X115861904Y-50604761D01*
X115814285Y-50557142D01*
X115719047Y-50414285D01*
X115671428Y-50223809D01*
X115671428Y-49842857D01*
X115719047Y-49747619D01*
X115766666Y-49700000D01*
X115861904Y-49652380D01*
X116052380Y-49652380D01*
X116147619Y-49700000D01*
X116195238Y-49747619D01*
X116242857Y-49842857D01*
X116242857Y-50080952D01*
X116195238Y-50176190D01*
X116147619Y-50223809D01*
X116052380Y-50271428D01*
X115861904Y-50271428D01*
X115766666Y-50223809D01*
X115719047Y-50176190D01*
X115671428Y-50080952D01*
X115242857Y-50128571D02*
X114909523Y-50128571D01*
X114766666Y-50652380D02*
X115242857Y-50652380D01*
X115242857Y-49652380D01*
X114766666Y-49652380D01*
X125052380Y-51738571D02*
X124909523Y-51786190D01*
X124861904Y-51833809D01*
X124814285Y-51929047D01*
X124814285Y-52071904D01*
X124861904Y-52167142D01*
X124909523Y-52214761D01*
X125004761Y-52262380D01*
X125385714Y-52262380D01*
X125385714Y-51262380D01*
X125052380Y-51262380D01*
X124957142Y-51310000D01*
X124909523Y-51357619D01*
X124861904Y-51452857D01*
X124861904Y-51548095D01*
X124909523Y-51643333D01*
X124957142Y-51690952D01*
X125052380Y-51738571D01*
X125385714Y-51738571D01*
X124385714Y-51595714D02*
X124385714Y-52452857D01*
X124433333Y-52548095D01*
X124528571Y-52595714D01*
X124576190Y-52595714D01*
X124385714Y-51262380D02*
X124433333Y-51310000D01*
X124385714Y-51357619D01*
X124338095Y-51310000D01*
X124385714Y-51262380D01*
X124385714Y-51357619D01*
X123385714Y-51595714D02*
X124004761Y-52262380D01*
X123766666Y-52262380D02*
X123861904Y-52214761D01*
X123909523Y-52167142D01*
X123957142Y-52071904D01*
X123957142Y-51786190D01*
X123909523Y-51690952D01*
X123861904Y-51643333D01*
X123766666Y-51595714D01*
X123623809Y-51595714D01*
X123528571Y-51643333D01*
X123480952Y-51690952D01*
X123433333Y-51786190D01*
X123433333Y-52071904D01*
X123480952Y-52167142D01*
X123528571Y-52214761D01*
X123623809Y-52262380D01*
X123766666Y-52262380D01*
X123004761Y-52262380D02*
X123004761Y-51595714D01*
X123004761Y-51786190D02*
X122957142Y-51690952D01*
X122909523Y-51643333D01*
X122814285Y-51595714D01*
X122719047Y-51595714D01*
X122385714Y-51595714D02*
X122385714Y-52262380D01*
X122385714Y-51690952D02*
X122338095Y-51643333D01*
X122242857Y-51595714D01*
X122100000Y-51595714D01*
X122004761Y-51643333D01*
X121957142Y-51738571D01*
X121957142Y-52262380D01*
X121100000Y-52214761D02*
X121195238Y-52262380D01*
X121385714Y-52262380D01*
X121480952Y-52214761D01*
X121528571Y-52119523D01*
X121528571Y-51738571D01*
X121480952Y-51643333D01*
X121385714Y-51595714D01*
X121195238Y-51595714D01*
X121100000Y-51643333D01*
X121052380Y-51738571D01*
X121052380Y-51833809D01*
X121528571Y-51929047D01*
X120623809Y-52262380D02*
X120623809Y-51595714D01*
X120623809Y-51786190D02*
X120576190Y-51690952D01*
X120528571Y-51643333D01*
X120433333Y-51595714D01*
X120338095Y-51595714D01*
X119290476Y-52214761D02*
X119147619Y-52262380D01*
X118909523Y-52262380D01*
X118814285Y-52214761D01*
X118766666Y-52167142D01*
X118719047Y-52071904D01*
X118719047Y-51976666D01*
X118766666Y-51881428D01*
X118814285Y-51833809D01*
X118909523Y-51786190D01*
X119100000Y-51738571D01*
X119195238Y-51690952D01*
X119242857Y-51643333D01*
X119290476Y-51548095D01*
X119290476Y-51452857D01*
X119242857Y-51357619D01*
X119195238Y-51310000D01*
X119100000Y-51262380D01*
X118861904Y-51262380D01*
X118719047Y-51310000D01*
X117861904Y-52262380D02*
X117861904Y-51738571D01*
X117909523Y-51643333D01*
X118004761Y-51595714D01*
X118195238Y-51595714D01*
X118290476Y-51643333D01*
X117861904Y-52214761D02*
X117957142Y-52262380D01*
X118195238Y-52262380D01*
X118290476Y-52214761D01*
X118338095Y-52119523D01*
X118338095Y-52024285D01*
X118290476Y-51929047D01*
X118195238Y-51881428D01*
X117957142Y-51881428D01*
X117861904Y-51833809D01*
X117385714Y-51595714D02*
X117385714Y-52262380D01*
X117385714Y-51690952D02*
X117338095Y-51643333D01*
X117242857Y-51595714D01*
X117100000Y-51595714D01*
X117004761Y-51643333D01*
X116957142Y-51738571D01*
X116957142Y-52262380D01*
X116052380Y-52262380D02*
X116052380Y-51262380D01*
X116052380Y-52214761D02*
X116147619Y-52262380D01*
X116338095Y-52262380D01*
X116433333Y-52214761D01*
X116480952Y-52167142D01*
X116528571Y-52071904D01*
X116528571Y-51786190D01*
X116480952Y-51690952D01*
X116433333Y-51643333D01*
X116338095Y-51595714D01*
X116147619Y-51595714D01*
X116052380Y-51643333D01*
X115433333Y-52262380D02*
X115528571Y-52214761D01*
X115576190Y-52167142D01*
X115623809Y-52071904D01*
X115623809Y-51786190D01*
X115576190Y-51690952D01*
X115528571Y-51643333D01*
X115433333Y-51595714D01*
X115290476Y-51595714D01*
X115195238Y-51643333D01*
X115147619Y-51690952D01*
X115100000Y-51786190D01*
X115100000Y-52071904D01*
X115147619Y-52167142D01*
X115195238Y-52214761D01*
X115290476Y-52262380D01*
X115433333Y-52262380D01*
X114671428Y-52262380D02*
X114671428Y-51595714D01*
X114671428Y-51690952D02*
X114623809Y-51643333D01*
X114528571Y-51595714D01*
X114385714Y-51595714D01*
X114290476Y-51643333D01*
X114242857Y-51738571D01*
X114242857Y-52262380D01*
X114242857Y-51738571D02*
X114195238Y-51643333D01*
X114100000Y-51595714D01*
X113957142Y-51595714D01*
X113861904Y-51643333D01*
X113814285Y-51738571D01*
X113814285Y-52262380D01*
D12*
X126585714Y-72404761D02*
X126623809Y-72366666D01*
X126661904Y-72252380D01*
X126661904Y-72176190D01*
X126623809Y-72061904D01*
X126547619Y-71985714D01*
X126471428Y-71947619D01*
X126319047Y-71909523D01*
X126204761Y-71909523D01*
X126052380Y-71947619D01*
X125976190Y-71985714D01*
X125900000Y-72061904D01*
X125861904Y-72176190D01*
X125861904Y-72252380D01*
X125900000Y-72366666D01*
X125938095Y-72404761D01*
X125938095Y-72709523D02*
X125900000Y-72747619D01*
X125861904Y-72823809D01*
X125861904Y-73014285D01*
X125900000Y-73090476D01*
X125938095Y-73128571D01*
X126014285Y-73166666D01*
X126090476Y-73166666D01*
X126204761Y-73128571D01*
X126661904Y-72671428D01*
X126661904Y-73166666D01*
X125861904Y-73661904D02*
X125861904Y-73738095D01*
X125900000Y-73814285D01*
X125938095Y-73852380D01*
X126014285Y-73890476D01*
X126166666Y-73928571D01*
X126357142Y-73928571D01*
X126509523Y-73890476D01*
X126585714Y-73852380D01*
X126623809Y-73814285D01*
X126661904Y-73738095D01*
X126661904Y-73661904D01*
X126623809Y-73585714D01*
X126585714Y-73547619D01*
X126509523Y-73509523D01*
X126357142Y-73471428D01*
X126166666Y-73471428D01*
X126014285Y-73509523D01*
X125938095Y-73547619D01*
X125900000Y-73585714D01*
X125861904Y-73661904D01*
X125861904Y-74614285D02*
X125861904Y-74461904D01*
X125900000Y-74385714D01*
X125938095Y-74347619D01*
X126052380Y-74271428D01*
X126204761Y-74233333D01*
X126509523Y-74233333D01*
X126585714Y-74271428D01*
X126623809Y-74309523D01*
X126661904Y-74385714D01*
X126661904Y-74538095D01*
X126623809Y-74614285D01*
X126585714Y-74652380D01*
X126509523Y-74690476D01*
X126319047Y-74690476D01*
X126242857Y-74652380D01*
X126204761Y-74614285D01*
X126166666Y-74538095D01*
X126166666Y-74385714D01*
X126204761Y-74309523D01*
X126242857Y-74271428D01*
X126319047Y-74233333D01*
X142385714Y-72067261D02*
X142423809Y-72029166D01*
X142461904Y-71914880D01*
X142461904Y-71838690D01*
X142423809Y-71724404D01*
X142347619Y-71648214D01*
X142271428Y-71610119D01*
X142119047Y-71572023D01*
X142004761Y-71572023D01*
X141852380Y-71610119D01*
X141776190Y-71648214D01*
X141700000Y-71724404D01*
X141661904Y-71838690D01*
X141661904Y-71914880D01*
X141700000Y-72029166D01*
X141738095Y-72067261D01*
X141738095Y-72372023D02*
X141700000Y-72410119D01*
X141661904Y-72486309D01*
X141661904Y-72676785D01*
X141700000Y-72752976D01*
X141738095Y-72791071D01*
X141814285Y-72829166D01*
X141890476Y-72829166D01*
X142004761Y-72791071D01*
X142461904Y-72333928D01*
X142461904Y-72829166D01*
X141661904Y-73324404D02*
X141661904Y-73400595D01*
X141700000Y-73476785D01*
X141738095Y-73514880D01*
X141814285Y-73552976D01*
X141966666Y-73591071D01*
X142157142Y-73591071D01*
X142309523Y-73552976D01*
X142385714Y-73514880D01*
X142423809Y-73476785D01*
X142461904Y-73400595D01*
X142461904Y-73324404D01*
X142423809Y-73248214D01*
X142385714Y-73210119D01*
X142309523Y-73172023D01*
X142157142Y-73133928D01*
X141966666Y-73133928D01*
X141814285Y-73172023D01*
X141738095Y-73210119D01*
X141700000Y-73248214D01*
X141661904Y-73324404D01*
X142461904Y-73972023D02*
X142461904Y-74124404D01*
X142423809Y-74200595D01*
X142385714Y-74238690D01*
X142271428Y-74314880D01*
X142119047Y-74352976D01*
X141814285Y-74352976D01*
X141738095Y-74314880D01*
X141700000Y-74276785D01*
X141661904Y-74200595D01*
X141661904Y-74048214D01*
X141700000Y-73972023D01*
X141738095Y-73933928D01*
X141814285Y-73895833D01*
X142004761Y-73895833D01*
X142080952Y-73933928D01*
X142119047Y-73972023D01*
X142157142Y-74048214D01*
X142157142Y-74200595D01*
X142119047Y-74276785D01*
X142080952Y-74314880D01*
X142004761Y-74352976D01*
X142385714Y-67004761D02*
X142423809Y-66966666D01*
X142461904Y-66852380D01*
X142461904Y-66776190D01*
X142423809Y-66661904D01*
X142347619Y-66585714D01*
X142271428Y-66547619D01*
X142119047Y-66509523D01*
X142004761Y-66509523D01*
X141852380Y-66547619D01*
X141776190Y-66585714D01*
X141700000Y-66661904D01*
X141661904Y-66776190D01*
X141661904Y-66852380D01*
X141700000Y-66966666D01*
X141738095Y-67004761D01*
X141738095Y-67309523D02*
X141700000Y-67347619D01*
X141661904Y-67423809D01*
X141661904Y-67614285D01*
X141700000Y-67690476D01*
X141738095Y-67728571D01*
X141814285Y-67766666D01*
X141890476Y-67766666D01*
X142004761Y-67728571D01*
X142461904Y-67271428D01*
X142461904Y-67766666D01*
X141661904Y-68261904D02*
X141661904Y-68338095D01*
X141700000Y-68414285D01*
X141738095Y-68452380D01*
X141814285Y-68490476D01*
X141966666Y-68528571D01*
X142157142Y-68528571D01*
X142309523Y-68490476D01*
X142385714Y-68452380D01*
X142423809Y-68414285D01*
X142461904Y-68338095D01*
X142461904Y-68261904D01*
X142423809Y-68185714D01*
X142385714Y-68147619D01*
X142309523Y-68109523D01*
X142157142Y-68071428D01*
X141966666Y-68071428D01*
X141814285Y-68109523D01*
X141738095Y-68147619D01*
X141700000Y-68185714D01*
X141661904Y-68261904D01*
X142004761Y-68985714D02*
X141966666Y-68909523D01*
X141928571Y-68871428D01*
X141852380Y-68833333D01*
X141814285Y-68833333D01*
X141738095Y-68871428D01*
X141700000Y-68909523D01*
X141661904Y-68985714D01*
X141661904Y-69138095D01*
X141700000Y-69214285D01*
X141738095Y-69252380D01*
X141814285Y-69290476D01*
X141852380Y-69290476D01*
X141928571Y-69252380D01*
X141966666Y-69214285D01*
X142004761Y-69138095D01*
X142004761Y-68985714D01*
X142042857Y-68909523D01*
X142080952Y-68871428D01*
X142157142Y-68833333D01*
X142309523Y-68833333D01*
X142385714Y-68871428D01*
X142423809Y-68909523D01*
X142461904Y-68985714D01*
X142461904Y-69138095D01*
X142423809Y-69214285D01*
X142385714Y-69252380D01*
X142309523Y-69290476D01*
X142157142Y-69290476D01*
X142080952Y-69252380D01*
X142042857Y-69214285D01*
X142004761Y-69138095D01*
X77488095Y-64213095D02*
X77564285Y-64175000D01*
X77640476Y-64098809D01*
X77754761Y-63984523D01*
X77830952Y-63946428D01*
X77907142Y-63946428D01*
X77869047Y-64136904D02*
X77945238Y-64098809D01*
X78021428Y-64022619D01*
X78059523Y-63870238D01*
X78059523Y-63603571D01*
X78021428Y-63451190D01*
X77945238Y-63375000D01*
X77869047Y-63336904D01*
X77716666Y-63336904D01*
X77640476Y-63375000D01*
X77564285Y-63451190D01*
X77526190Y-63603571D01*
X77526190Y-63870238D01*
X77564285Y-64022619D01*
X77640476Y-64098809D01*
X77716666Y-64136904D01*
X77869047Y-64136904D01*
X77221428Y-63413095D02*
X77183333Y-63375000D01*
X77107142Y-63336904D01*
X76916666Y-63336904D01*
X76840476Y-63375000D01*
X76802380Y-63413095D01*
X76764285Y-63489285D01*
X76764285Y-63565476D01*
X76802380Y-63679761D01*
X77259523Y-64136904D01*
X76764285Y-64136904D01*
X76269047Y-63336904D02*
X76192857Y-63336904D01*
X76116666Y-63375000D01*
X76078571Y-63413095D01*
X76040476Y-63489285D01*
X76002380Y-63641666D01*
X76002380Y-63832142D01*
X76040476Y-63984523D01*
X76078571Y-64060714D01*
X76116666Y-64098809D01*
X76192857Y-64136904D01*
X76269047Y-64136904D01*
X76345238Y-64098809D01*
X76383333Y-64060714D01*
X76421428Y-63984523D01*
X76459523Y-63832142D01*
X76459523Y-63641666D01*
X76421428Y-63489285D01*
X76383333Y-63413095D01*
X76345238Y-63375000D01*
X76269047Y-63336904D01*
X75697619Y-63413095D02*
X75659523Y-63375000D01*
X75583333Y-63336904D01*
X75392857Y-63336904D01*
X75316666Y-63375000D01*
X75278571Y-63413095D01*
X75240476Y-63489285D01*
X75240476Y-63565476D01*
X75278571Y-63679761D01*
X75735714Y-64136904D01*
X75240476Y-64136904D01*
X89745238Y-71635714D02*
X89783333Y-71673809D01*
X89897619Y-71711904D01*
X89973809Y-71711904D01*
X90088095Y-71673809D01*
X90164285Y-71597619D01*
X90202380Y-71521428D01*
X90240476Y-71369047D01*
X90240476Y-71254761D01*
X90202380Y-71102380D01*
X90164285Y-71026190D01*
X90088095Y-70950000D01*
X89973809Y-70911904D01*
X89897619Y-70911904D01*
X89783333Y-70950000D01*
X89745238Y-70988095D01*
X89440476Y-70988095D02*
X89402380Y-70950000D01*
X89326190Y-70911904D01*
X89135714Y-70911904D01*
X89059523Y-70950000D01*
X89021428Y-70988095D01*
X88983333Y-71064285D01*
X88983333Y-71140476D01*
X89021428Y-71254761D01*
X89478571Y-71711904D01*
X88983333Y-71711904D01*
X88488095Y-70911904D02*
X88411904Y-70911904D01*
X88335714Y-70950000D01*
X88297619Y-70988095D01*
X88259523Y-71064285D01*
X88221428Y-71216666D01*
X88221428Y-71407142D01*
X88259523Y-71559523D01*
X88297619Y-71635714D01*
X88335714Y-71673809D01*
X88411904Y-71711904D01*
X88488095Y-71711904D01*
X88564285Y-71673809D01*
X88602380Y-71635714D01*
X88640476Y-71559523D01*
X88678571Y-71407142D01*
X88678571Y-71216666D01*
X88640476Y-71064285D01*
X88602380Y-70988095D01*
X88564285Y-70950000D01*
X88488095Y-70911904D01*
X87497619Y-70911904D02*
X87878571Y-70911904D01*
X87916666Y-71292857D01*
X87878571Y-71254761D01*
X87802380Y-71216666D01*
X87611904Y-71216666D01*
X87535714Y-71254761D01*
X87497619Y-71292857D01*
X87459523Y-71369047D01*
X87459523Y-71559523D01*
X87497619Y-71635714D01*
X87535714Y-71673809D01*
X87611904Y-71711904D01*
X87802380Y-71711904D01*
X87878571Y-71673809D01*
X87916666Y-71635714D01*
X108811904Y-64436904D02*
X108430952Y-64170238D01*
X108811904Y-63979761D02*
X108011904Y-63979761D01*
X108011904Y-64284523D01*
X108050000Y-64360714D01*
X108088095Y-64398809D01*
X108164285Y-64436904D01*
X108278571Y-64436904D01*
X108354761Y-64398809D01*
X108392857Y-64360714D01*
X108430952Y-64284523D01*
X108430952Y-63979761D01*
X108011904Y-64665476D02*
X108811904Y-64932142D01*
X108011904Y-65198809D01*
X108088095Y-65427380D02*
X108050000Y-65465476D01*
X108011904Y-65541666D01*
X108011904Y-65732142D01*
X108050000Y-65808333D01*
X108088095Y-65846428D01*
X108164285Y-65884523D01*
X108240476Y-65884523D01*
X108354761Y-65846428D01*
X108811904Y-65389285D01*
X108811904Y-65884523D01*
X108011904Y-66379761D02*
X108011904Y-66455952D01*
X108050000Y-66532142D01*
X108088095Y-66570238D01*
X108164285Y-66608333D01*
X108316666Y-66646428D01*
X108507142Y-66646428D01*
X108659523Y-66608333D01*
X108735714Y-66570238D01*
X108773809Y-66532142D01*
X108811904Y-66455952D01*
X108811904Y-66379761D01*
X108773809Y-66303571D01*
X108735714Y-66265476D01*
X108659523Y-66227380D01*
X108507142Y-66189285D01*
X108316666Y-66189285D01*
X108164285Y-66227380D01*
X108088095Y-66265476D01*
X108050000Y-66303571D01*
X108011904Y-66379761D01*
X108011904Y-67370238D02*
X108011904Y-66989285D01*
X108392857Y-66951190D01*
X108354761Y-66989285D01*
X108316666Y-67065476D01*
X108316666Y-67255952D01*
X108354761Y-67332142D01*
X108392857Y-67370238D01*
X108469047Y-67408333D01*
X108659523Y-67408333D01*
X108735714Y-67370238D01*
X108773809Y-67332142D01*
X108811904Y-67255952D01*
X108811904Y-67065476D01*
X108773809Y-66989285D01*
X108735714Y-66951190D01*
X141285714Y-52904761D02*
X141323809Y-52866666D01*
X141361904Y-52752380D01*
X141361904Y-52676190D01*
X141323809Y-52561904D01*
X141247619Y-52485714D01*
X141171428Y-52447619D01*
X141019047Y-52409523D01*
X140904761Y-52409523D01*
X140752380Y-52447619D01*
X140676190Y-52485714D01*
X140600000Y-52561904D01*
X140561904Y-52676190D01*
X140561904Y-52752380D01*
X140600000Y-52866666D01*
X140638095Y-52904761D01*
X140638095Y-53209523D02*
X140600000Y-53247619D01*
X140561904Y-53323809D01*
X140561904Y-53514285D01*
X140600000Y-53590476D01*
X140638095Y-53628571D01*
X140714285Y-53666666D01*
X140790476Y-53666666D01*
X140904761Y-53628571D01*
X141361904Y-53171428D01*
X141361904Y-53666666D01*
X141361904Y-54428571D02*
X141361904Y-53971428D01*
X141361904Y-54200000D02*
X140561904Y-54200000D01*
X140676190Y-54123809D01*
X140752380Y-54047619D01*
X140790476Y-53971428D01*
X140561904Y-54923809D02*
X140561904Y-55000000D01*
X140600000Y-55076190D01*
X140638095Y-55114285D01*
X140714285Y-55152380D01*
X140866666Y-55190476D01*
X141057142Y-55190476D01*
X141209523Y-55152380D01*
X141285714Y-55114285D01*
X141323809Y-55076190D01*
X141361904Y-55000000D01*
X141361904Y-54923809D01*
X141323809Y-54847619D01*
X141285714Y-54809523D01*
X141209523Y-54771428D01*
X141057142Y-54733333D01*
X140866666Y-54733333D01*
X140714285Y-54771428D01*
X140638095Y-54809523D01*
X140600000Y-54847619D01*
X140561904Y-54923809D01*
X111786904Y-64179761D02*
X111405952Y-63913095D01*
X111786904Y-63722619D02*
X110986904Y-63722619D01*
X110986904Y-64027380D01*
X111025000Y-64103571D01*
X111063095Y-64141666D01*
X111139285Y-64179761D01*
X111253571Y-64179761D01*
X111329761Y-64141666D01*
X111367857Y-64103571D01*
X111405952Y-64027380D01*
X111405952Y-63722619D01*
X111063095Y-64484523D02*
X111025000Y-64522619D01*
X110986904Y-64598809D01*
X110986904Y-64789285D01*
X111025000Y-64865476D01*
X111063095Y-64903571D01*
X111139285Y-64941666D01*
X111215476Y-64941666D01*
X111329761Y-64903571D01*
X111786904Y-64446428D01*
X111786904Y-64941666D01*
X111786904Y-65703571D02*
X111786904Y-65246428D01*
X111786904Y-65475000D02*
X110986904Y-65475000D01*
X111101190Y-65398809D01*
X111177380Y-65322619D01*
X111215476Y-65246428D01*
X111063095Y-66008333D02*
X111025000Y-66046428D01*
X110986904Y-66122619D01*
X110986904Y-66313095D01*
X111025000Y-66389285D01*
X111063095Y-66427380D01*
X111139285Y-66465476D01*
X111215476Y-66465476D01*
X111329761Y-66427380D01*
X111786904Y-65970238D01*
X111786904Y-66465476D01*
X78021428Y-62186904D02*
X78021428Y-62834523D01*
X77983333Y-62910714D01*
X77945238Y-62948809D01*
X77869047Y-62986904D01*
X77716666Y-62986904D01*
X77640476Y-62948809D01*
X77602380Y-62910714D01*
X77564285Y-62834523D01*
X77564285Y-62186904D01*
X77221428Y-62263095D02*
X77183333Y-62225000D01*
X77107142Y-62186904D01*
X76916666Y-62186904D01*
X76840476Y-62225000D01*
X76802380Y-62263095D01*
X76764285Y-62339285D01*
X76764285Y-62415476D01*
X76802380Y-62529761D01*
X77259523Y-62986904D01*
X76764285Y-62986904D01*
X76269047Y-62186904D02*
X76192857Y-62186904D01*
X76116666Y-62225000D01*
X76078571Y-62263095D01*
X76040476Y-62339285D01*
X76002380Y-62491666D01*
X76002380Y-62682142D01*
X76040476Y-62834523D01*
X76078571Y-62910714D01*
X76116666Y-62948809D01*
X76192857Y-62986904D01*
X76269047Y-62986904D01*
X76345238Y-62948809D01*
X76383333Y-62910714D01*
X76421428Y-62834523D01*
X76459523Y-62682142D01*
X76459523Y-62491666D01*
X76421428Y-62339285D01*
X76383333Y-62263095D01*
X76345238Y-62225000D01*
X76269047Y-62186904D01*
X75240476Y-62986904D02*
X75697619Y-62986904D01*
X75469047Y-62986904D02*
X75469047Y-62186904D01*
X75545238Y-62301190D01*
X75621428Y-62377380D01*
X75697619Y-62415476D01*
X128407904Y-52704761D02*
X128026952Y-52438095D01*
X128407904Y-52247619D02*
X127607904Y-52247619D01*
X127607904Y-52552380D01*
X127646000Y-52628571D01*
X127684095Y-52666666D01*
X127760285Y-52704761D01*
X127874571Y-52704761D01*
X127950761Y-52666666D01*
X127988857Y-52628571D01*
X128026952Y-52552380D01*
X128026952Y-52247619D01*
X127684095Y-53009523D02*
X127646000Y-53047619D01*
X127607904Y-53123809D01*
X127607904Y-53314285D01*
X127646000Y-53390476D01*
X127684095Y-53428571D01*
X127760285Y-53466666D01*
X127836476Y-53466666D01*
X127950761Y-53428571D01*
X128407904Y-52971428D01*
X128407904Y-53466666D01*
X128407904Y-54228571D02*
X128407904Y-53771428D01*
X128407904Y-54000000D02*
X127607904Y-54000000D01*
X127722190Y-53923809D01*
X127798380Y-53847619D01*
X127836476Y-53771428D01*
X127607904Y-54723809D02*
X127607904Y-54800000D01*
X127646000Y-54876190D01*
X127684095Y-54914285D01*
X127760285Y-54952380D01*
X127912666Y-54990476D01*
X128103142Y-54990476D01*
X128255523Y-54952380D01*
X128331714Y-54914285D01*
X128369809Y-54876190D01*
X128407904Y-54800000D01*
X128407904Y-54723809D01*
X128369809Y-54647619D01*
X128331714Y-54609523D01*
X128255523Y-54571428D01*
X128103142Y-54533333D01*
X127912666Y-54533333D01*
X127760285Y-54571428D01*
X127684095Y-54609523D01*
X127646000Y-54647619D01*
X127607904Y-54723809D01*
X151895238Y-53961904D02*
X152161904Y-53580952D01*
X152352380Y-53961904D02*
X152352380Y-53161904D01*
X152047619Y-53161904D01*
X151971428Y-53200000D01*
X151933333Y-53238095D01*
X151895238Y-53314285D01*
X151895238Y-53428571D01*
X151933333Y-53504761D01*
X151971428Y-53542857D01*
X152047619Y-53580952D01*
X152352380Y-53580952D01*
X151590476Y-53238095D02*
X151552380Y-53200000D01*
X151476190Y-53161904D01*
X151285714Y-53161904D01*
X151209523Y-53200000D01*
X151171428Y-53238095D01*
X151133333Y-53314285D01*
X151133333Y-53390476D01*
X151171428Y-53504761D01*
X151628571Y-53961904D01*
X151133333Y-53961904D01*
X150371428Y-53961904D02*
X150828571Y-53961904D01*
X150600000Y-53961904D02*
X150600000Y-53161904D01*
X150676190Y-53276190D01*
X150752380Y-53352380D01*
X150828571Y-53390476D01*
X150104761Y-53161904D02*
X149609523Y-53161904D01*
X149876190Y-53466666D01*
X149761904Y-53466666D01*
X149685714Y-53504761D01*
X149647619Y-53542857D01*
X149609523Y-53619047D01*
X149609523Y-53809523D01*
X149647619Y-53885714D01*
X149685714Y-53923809D01*
X149761904Y-53961904D01*
X149990476Y-53961904D01*
X150066666Y-53923809D01*
X150104761Y-53885714D01*
X85895238Y-62785714D02*
X85933333Y-62823809D01*
X86047619Y-62861904D01*
X86123809Y-62861904D01*
X86238095Y-62823809D01*
X86314285Y-62747619D01*
X86352380Y-62671428D01*
X86390476Y-62519047D01*
X86390476Y-62404761D01*
X86352380Y-62252380D01*
X86314285Y-62176190D01*
X86238095Y-62100000D01*
X86123809Y-62061904D01*
X86047619Y-62061904D01*
X85933333Y-62100000D01*
X85895238Y-62138095D01*
X85590476Y-62138095D02*
X85552380Y-62100000D01*
X85476190Y-62061904D01*
X85285714Y-62061904D01*
X85209523Y-62100000D01*
X85171428Y-62138095D01*
X85133333Y-62214285D01*
X85133333Y-62290476D01*
X85171428Y-62404761D01*
X85628571Y-62861904D01*
X85133333Y-62861904D01*
X84638095Y-62061904D02*
X84561904Y-62061904D01*
X84485714Y-62100000D01*
X84447619Y-62138095D01*
X84409523Y-62214285D01*
X84371428Y-62366666D01*
X84371428Y-62557142D01*
X84409523Y-62709523D01*
X84447619Y-62785714D01*
X84485714Y-62823809D01*
X84561904Y-62861904D01*
X84638095Y-62861904D01*
X84714285Y-62823809D01*
X84752380Y-62785714D01*
X84790476Y-62709523D01*
X84828571Y-62557142D01*
X84828571Y-62366666D01*
X84790476Y-62214285D01*
X84752380Y-62138095D01*
X84714285Y-62100000D01*
X84638095Y-62061904D01*
X83685714Y-62328571D02*
X83685714Y-62861904D01*
X83876190Y-62023809D02*
X84066666Y-62595238D01*
X83571428Y-62595238D01*
X147571428Y-51211904D02*
X147571428Y-51859523D01*
X147533333Y-51935714D01*
X147495238Y-51973809D01*
X147419047Y-52011904D01*
X147266666Y-52011904D01*
X147190476Y-51973809D01*
X147152380Y-51935714D01*
X147114285Y-51859523D01*
X147114285Y-51211904D01*
X146771428Y-51288095D02*
X146733333Y-51250000D01*
X146657142Y-51211904D01*
X146466666Y-51211904D01*
X146390476Y-51250000D01*
X146352380Y-51288095D01*
X146314285Y-51364285D01*
X146314285Y-51440476D01*
X146352380Y-51554761D01*
X146809523Y-52011904D01*
X146314285Y-52011904D01*
X145819047Y-51211904D02*
X145742857Y-51211904D01*
X145666666Y-51250000D01*
X145628571Y-51288095D01*
X145590476Y-51364285D01*
X145552380Y-51516666D01*
X145552380Y-51707142D01*
X145590476Y-51859523D01*
X145628571Y-51935714D01*
X145666666Y-51973809D01*
X145742857Y-52011904D01*
X145819047Y-52011904D01*
X145895238Y-51973809D01*
X145933333Y-51935714D01*
X145971428Y-51859523D01*
X146009523Y-51707142D01*
X146009523Y-51516666D01*
X145971428Y-51364285D01*
X145933333Y-51288095D01*
X145895238Y-51250000D01*
X145819047Y-51211904D01*
X145247619Y-51288095D02*
X145209523Y-51250000D01*
X145133333Y-51211904D01*
X144942857Y-51211904D01*
X144866666Y-51250000D01*
X144828571Y-51288095D01*
X144790476Y-51364285D01*
X144790476Y-51440476D01*
X144828571Y-51554761D01*
X145285714Y-52011904D01*
X144790476Y-52011904D01*
X134661904Y-69104761D02*
X134280952Y-68838095D01*
X134661904Y-68647619D02*
X133861904Y-68647619D01*
X133861904Y-68952380D01*
X133900000Y-69028571D01*
X133938095Y-69066666D01*
X134014285Y-69104761D01*
X134128571Y-69104761D01*
X134204761Y-69066666D01*
X134242857Y-69028571D01*
X134280952Y-68952380D01*
X134280952Y-68647619D01*
X133938095Y-69409523D02*
X133900000Y-69447619D01*
X133861904Y-69523809D01*
X133861904Y-69714285D01*
X133900000Y-69790476D01*
X133938095Y-69828571D01*
X134014285Y-69866666D01*
X134090476Y-69866666D01*
X134204761Y-69828571D01*
X134661904Y-69371428D01*
X134661904Y-69866666D01*
X134661904Y-70628571D02*
X134661904Y-70171428D01*
X134661904Y-70400000D02*
X133861904Y-70400000D01*
X133976190Y-70323809D01*
X134052380Y-70247619D01*
X134090476Y-70171428D01*
X133861904Y-70895238D02*
X133861904Y-71428571D01*
X134661904Y-71085714D01*
X128377904Y-56479761D02*
X127996952Y-56213095D01*
X128377904Y-56022619D02*
X127577904Y-56022619D01*
X127577904Y-56327380D01*
X127616000Y-56403571D01*
X127654095Y-56441666D01*
X127730285Y-56479761D01*
X127844571Y-56479761D01*
X127920761Y-56441666D01*
X127958857Y-56403571D01*
X127996952Y-56327380D01*
X127996952Y-56022619D01*
X127654095Y-56784523D02*
X127616000Y-56822619D01*
X127577904Y-56898809D01*
X127577904Y-57089285D01*
X127616000Y-57165476D01*
X127654095Y-57203571D01*
X127730285Y-57241666D01*
X127806476Y-57241666D01*
X127920761Y-57203571D01*
X128377904Y-56746428D01*
X128377904Y-57241666D01*
X127577904Y-57736904D02*
X127577904Y-57813095D01*
X127616000Y-57889285D01*
X127654095Y-57927380D01*
X127730285Y-57965476D01*
X127882666Y-58003571D01*
X128073142Y-58003571D01*
X128225523Y-57965476D01*
X128301714Y-57927380D01*
X128339809Y-57889285D01*
X128377904Y-57813095D01*
X128377904Y-57736904D01*
X128339809Y-57660714D01*
X128301714Y-57622619D01*
X128225523Y-57584523D01*
X128073142Y-57546428D01*
X127882666Y-57546428D01*
X127730285Y-57584523D01*
X127654095Y-57622619D01*
X127616000Y-57660714D01*
X127577904Y-57736904D01*
X127577904Y-58727380D02*
X127577904Y-58346428D01*
X127958857Y-58308333D01*
X127920761Y-58346428D01*
X127882666Y-58422619D01*
X127882666Y-58613095D01*
X127920761Y-58689285D01*
X127958857Y-58727380D01*
X128035047Y-58765476D01*
X128225523Y-58765476D01*
X128301714Y-58727380D01*
X128339809Y-58689285D01*
X128377904Y-58613095D01*
X128377904Y-58422619D01*
X128339809Y-58346428D01*
X128301714Y-58308333D01*
X147070238Y-49586904D02*
X147336904Y-49205952D01*
X147527380Y-49586904D02*
X147527380Y-48786904D01*
X147222619Y-48786904D01*
X147146428Y-48825000D01*
X147108333Y-48863095D01*
X147070238Y-48939285D01*
X147070238Y-49053571D01*
X147108333Y-49129761D01*
X147146428Y-49167857D01*
X147222619Y-49205952D01*
X147527380Y-49205952D01*
X146765476Y-48863095D02*
X146727380Y-48825000D01*
X146651190Y-48786904D01*
X146460714Y-48786904D01*
X146384523Y-48825000D01*
X146346428Y-48863095D01*
X146308333Y-48939285D01*
X146308333Y-49015476D01*
X146346428Y-49129761D01*
X146803571Y-49586904D01*
X146308333Y-49586904D01*
X145546428Y-49586904D02*
X146003571Y-49586904D01*
X145775000Y-49586904D02*
X145775000Y-48786904D01*
X145851190Y-48901190D01*
X145927380Y-48977380D01*
X146003571Y-49015476D01*
X144822619Y-48786904D02*
X145203571Y-48786904D01*
X145241666Y-49167857D01*
X145203571Y-49129761D01*
X145127380Y-49091666D01*
X144936904Y-49091666D01*
X144860714Y-49129761D01*
X144822619Y-49167857D01*
X144784523Y-49244047D01*
X144784523Y-49434523D01*
X144822619Y-49510714D01*
X144860714Y-49548809D01*
X144936904Y-49586904D01*
X145127380Y-49586904D01*
X145203571Y-49548809D01*
X145241666Y-49510714D01*
X85945238Y-71461904D02*
X86211904Y-71080952D01*
X86402380Y-71461904D02*
X86402380Y-70661904D01*
X86097619Y-70661904D01*
X86021428Y-70700000D01*
X85983333Y-70738095D01*
X85945238Y-70814285D01*
X85945238Y-70928571D01*
X85983333Y-71004761D01*
X86021428Y-71042857D01*
X86097619Y-71080952D01*
X86402380Y-71080952D01*
X85640476Y-70738095D02*
X85602380Y-70700000D01*
X85526190Y-70661904D01*
X85335714Y-70661904D01*
X85259523Y-70700000D01*
X85221428Y-70738095D01*
X85183333Y-70814285D01*
X85183333Y-70890476D01*
X85221428Y-71004761D01*
X85678571Y-71461904D01*
X85183333Y-71461904D01*
X84421428Y-71461904D02*
X84878571Y-71461904D01*
X84650000Y-71461904D02*
X84650000Y-70661904D01*
X84726190Y-70776190D01*
X84802380Y-70852380D01*
X84878571Y-70890476D01*
X84040476Y-71461904D02*
X83888095Y-71461904D01*
X83811904Y-71423809D01*
X83773809Y-71385714D01*
X83697619Y-71271428D01*
X83659523Y-71119047D01*
X83659523Y-70814285D01*
X83697619Y-70738095D01*
X83735714Y-70700000D01*
X83811904Y-70661904D01*
X83964285Y-70661904D01*
X84040476Y-70700000D01*
X84078571Y-70738095D01*
X84116666Y-70814285D01*
X84116666Y-71004761D01*
X84078571Y-71080952D01*
X84040476Y-71119047D01*
X83964285Y-71157142D01*
X83811904Y-71157142D01*
X83735714Y-71119047D01*
X83697619Y-71080952D01*
X83659523Y-71004761D01*
X66653571Y-73386904D02*
X66653571Y-73958333D01*
X66691666Y-74072619D01*
X66767857Y-74148809D01*
X66882142Y-74186904D01*
X66958333Y-74186904D01*
X66310714Y-73463095D02*
X66272619Y-73425000D01*
X66196428Y-73386904D01*
X66005952Y-73386904D01*
X65929761Y-73425000D01*
X65891666Y-73463095D01*
X65853571Y-73539285D01*
X65853571Y-73615476D01*
X65891666Y-73729761D01*
X66348809Y-74186904D01*
X65853571Y-74186904D01*
X65358333Y-73386904D02*
X65282142Y-73386904D01*
X65205952Y-73425000D01*
X65167857Y-73463095D01*
X65129761Y-73539285D01*
X65091666Y-73691666D01*
X65091666Y-73882142D01*
X65129761Y-74034523D01*
X65167857Y-74110714D01*
X65205952Y-74148809D01*
X65282142Y-74186904D01*
X65358333Y-74186904D01*
X65434523Y-74148809D01*
X65472619Y-74110714D01*
X65510714Y-74034523D01*
X65548809Y-73882142D01*
X65548809Y-73691666D01*
X65510714Y-73539285D01*
X65472619Y-73463095D01*
X65434523Y-73425000D01*
X65358333Y-73386904D01*
X64825000Y-73386904D02*
X64329761Y-73386904D01*
X64596428Y-73691666D01*
X64482142Y-73691666D01*
X64405952Y-73729761D01*
X64367857Y-73767857D01*
X64329761Y-73844047D01*
X64329761Y-74034523D01*
X64367857Y-74110714D01*
X64405952Y-74148809D01*
X64482142Y-74186904D01*
X64710714Y-74186904D01*
X64786904Y-74148809D01*
X64825000Y-74110714D01*
X97254904Y-60084761D02*
X96873952Y-59818095D01*
X97254904Y-59627619D02*
X96454904Y-59627619D01*
X96454904Y-59932380D01*
X96493000Y-60008571D01*
X96531095Y-60046666D01*
X96607285Y-60084761D01*
X96721571Y-60084761D01*
X96797761Y-60046666D01*
X96835857Y-60008571D01*
X96873952Y-59932380D01*
X96873952Y-59627619D01*
X96531095Y-60389523D02*
X96493000Y-60427619D01*
X96454904Y-60503809D01*
X96454904Y-60694285D01*
X96493000Y-60770476D01*
X96531095Y-60808571D01*
X96607285Y-60846666D01*
X96683476Y-60846666D01*
X96797761Y-60808571D01*
X97254904Y-60351428D01*
X97254904Y-60846666D01*
X97254904Y-61608571D02*
X97254904Y-61151428D01*
X97254904Y-61380000D02*
X96454904Y-61380000D01*
X96569190Y-61303809D01*
X96645380Y-61227619D01*
X96683476Y-61151428D01*
X97254904Y-62370476D02*
X97254904Y-61913333D01*
X97254904Y-62141904D02*
X96454904Y-62141904D01*
X96569190Y-62065714D01*
X96645380Y-61989523D01*
X96683476Y-61913333D01*
X90745238Y-60811904D02*
X91126190Y-60811904D01*
X91126190Y-60011904D01*
X90516666Y-60088095D02*
X90478571Y-60050000D01*
X90402380Y-60011904D01*
X90211904Y-60011904D01*
X90135714Y-60050000D01*
X90097619Y-60088095D01*
X90059523Y-60164285D01*
X90059523Y-60240476D01*
X90097619Y-60354761D01*
X90554761Y-60811904D01*
X90059523Y-60811904D01*
X89564285Y-60011904D02*
X89488095Y-60011904D01*
X89411904Y-60050000D01*
X89373809Y-60088095D01*
X89335714Y-60164285D01*
X89297619Y-60316666D01*
X89297619Y-60507142D01*
X89335714Y-60659523D01*
X89373809Y-60735714D01*
X89411904Y-60773809D01*
X89488095Y-60811904D01*
X89564285Y-60811904D01*
X89640476Y-60773809D01*
X89678571Y-60735714D01*
X89716666Y-60659523D01*
X89754761Y-60507142D01*
X89754761Y-60316666D01*
X89716666Y-60164285D01*
X89678571Y-60088095D01*
X89640476Y-60050000D01*
X89564285Y-60011904D01*
X88535714Y-60811904D02*
X88992857Y-60811904D01*
X88764285Y-60811904D02*
X88764285Y-60011904D01*
X88840476Y-60126190D01*
X88916666Y-60202380D01*
X88992857Y-60240476D01*
X117811904Y-64386904D02*
X117430952Y-64120238D01*
X117811904Y-63929761D02*
X117011904Y-63929761D01*
X117011904Y-64234523D01*
X117050000Y-64310714D01*
X117088095Y-64348809D01*
X117164285Y-64386904D01*
X117278571Y-64386904D01*
X117354761Y-64348809D01*
X117392857Y-64310714D01*
X117430952Y-64234523D01*
X117430952Y-63929761D01*
X117011904Y-64615476D02*
X117811904Y-64882142D01*
X117011904Y-65148809D01*
X117088095Y-65377380D02*
X117050000Y-65415476D01*
X117011904Y-65491666D01*
X117011904Y-65682142D01*
X117050000Y-65758333D01*
X117088095Y-65796428D01*
X117164285Y-65834523D01*
X117240476Y-65834523D01*
X117354761Y-65796428D01*
X117811904Y-65339285D01*
X117811904Y-65834523D01*
X117011904Y-66329761D02*
X117011904Y-66405952D01*
X117050000Y-66482142D01*
X117088095Y-66520238D01*
X117164285Y-66558333D01*
X117316666Y-66596428D01*
X117507142Y-66596428D01*
X117659523Y-66558333D01*
X117735714Y-66520238D01*
X117773809Y-66482142D01*
X117811904Y-66405952D01*
X117811904Y-66329761D01*
X117773809Y-66253571D01*
X117735714Y-66215476D01*
X117659523Y-66177380D01*
X117507142Y-66139285D01*
X117316666Y-66139285D01*
X117164285Y-66177380D01*
X117088095Y-66215476D01*
X117050000Y-66253571D01*
X117011904Y-66329761D01*
X117278571Y-67282142D02*
X117811904Y-67282142D01*
X116973809Y-67091666D02*
X117545238Y-66901190D01*
X117545238Y-67396428D01*
X70785714Y-58917261D02*
X70823809Y-58879166D01*
X70861904Y-58764880D01*
X70861904Y-58688690D01*
X70823809Y-58574404D01*
X70747619Y-58498214D01*
X70671428Y-58460119D01*
X70519047Y-58422023D01*
X70404761Y-58422023D01*
X70252380Y-58460119D01*
X70176190Y-58498214D01*
X70100000Y-58574404D01*
X70061904Y-58688690D01*
X70061904Y-58764880D01*
X70100000Y-58879166D01*
X70138095Y-58917261D01*
X70138095Y-59222023D02*
X70100000Y-59260119D01*
X70061904Y-59336309D01*
X70061904Y-59526785D01*
X70100000Y-59602976D01*
X70138095Y-59641071D01*
X70214285Y-59679166D01*
X70290476Y-59679166D01*
X70404761Y-59641071D01*
X70861904Y-59183928D01*
X70861904Y-59679166D01*
X70061904Y-60174404D02*
X70061904Y-60250595D01*
X70100000Y-60326785D01*
X70138095Y-60364880D01*
X70214285Y-60402976D01*
X70366666Y-60441071D01*
X70557142Y-60441071D01*
X70709523Y-60402976D01*
X70785714Y-60364880D01*
X70823809Y-60326785D01*
X70861904Y-60250595D01*
X70861904Y-60174404D01*
X70823809Y-60098214D01*
X70785714Y-60060119D01*
X70709523Y-60022023D01*
X70557142Y-59983928D01*
X70366666Y-59983928D01*
X70214285Y-60022023D01*
X70138095Y-60060119D01*
X70100000Y-60098214D01*
X70061904Y-60174404D01*
X70061904Y-60707738D02*
X70061904Y-61202976D01*
X70366666Y-60936309D01*
X70366666Y-61050595D01*
X70404761Y-61126785D01*
X70442857Y-61164880D01*
X70519047Y-61202976D01*
X70709523Y-61202976D01*
X70785714Y-61164880D01*
X70823809Y-61126785D01*
X70861904Y-61050595D01*
X70861904Y-60822023D01*
X70823809Y-60745833D01*
X70785714Y-60707738D01*
X97313714Y-64357761D02*
X97351809Y-64319666D01*
X97389904Y-64205380D01*
X97389904Y-64129190D01*
X97351809Y-64014904D01*
X97275619Y-63938714D01*
X97199428Y-63900619D01*
X97047047Y-63862523D01*
X96932761Y-63862523D01*
X96780380Y-63900619D01*
X96704190Y-63938714D01*
X96628000Y-64014904D01*
X96589904Y-64129190D01*
X96589904Y-64205380D01*
X96628000Y-64319666D01*
X96666095Y-64357761D01*
X96666095Y-64662523D02*
X96628000Y-64700619D01*
X96589904Y-64776809D01*
X96589904Y-64967285D01*
X96628000Y-65043476D01*
X96666095Y-65081571D01*
X96742285Y-65119666D01*
X96818476Y-65119666D01*
X96932761Y-65081571D01*
X97389904Y-64624428D01*
X97389904Y-65119666D01*
X97389904Y-65881571D02*
X97389904Y-65424428D01*
X97389904Y-65653000D02*
X96589904Y-65653000D01*
X96704190Y-65576809D01*
X96780380Y-65500619D01*
X96818476Y-65424428D01*
X97389904Y-66643476D02*
X97389904Y-66186333D01*
X97389904Y-66414904D02*
X96589904Y-66414904D01*
X96704190Y-66338714D01*
X96780380Y-66262523D01*
X96818476Y-66186333D01*
X115770238Y-62586904D02*
X116036904Y-62205952D01*
X116227380Y-62586904D02*
X116227380Y-61786904D01*
X115922619Y-61786904D01*
X115846428Y-61825000D01*
X115808333Y-61863095D01*
X115770238Y-61939285D01*
X115770238Y-62053571D01*
X115808333Y-62129761D01*
X115846428Y-62167857D01*
X115922619Y-62205952D01*
X116227380Y-62205952D01*
X115465476Y-61863095D02*
X115427380Y-61825000D01*
X115351190Y-61786904D01*
X115160714Y-61786904D01*
X115084523Y-61825000D01*
X115046428Y-61863095D01*
X115008333Y-61939285D01*
X115008333Y-62015476D01*
X115046428Y-62129761D01*
X115503571Y-62586904D01*
X115008333Y-62586904D01*
X114513095Y-61786904D02*
X114436904Y-61786904D01*
X114360714Y-61825000D01*
X114322619Y-61863095D01*
X114284523Y-61939285D01*
X114246428Y-62091666D01*
X114246428Y-62282142D01*
X114284523Y-62434523D01*
X114322619Y-62510714D01*
X114360714Y-62548809D01*
X114436904Y-62586904D01*
X114513095Y-62586904D01*
X114589285Y-62548809D01*
X114627380Y-62510714D01*
X114665476Y-62434523D01*
X114703571Y-62282142D01*
X114703571Y-62091666D01*
X114665476Y-61939285D01*
X114627380Y-61863095D01*
X114589285Y-61825000D01*
X114513095Y-61786904D01*
X113979761Y-61786904D02*
X113446428Y-61786904D01*
X113789285Y-62586904D01*
X99136904Y-73579761D02*
X98755952Y-73313095D01*
X99136904Y-73122619D02*
X98336904Y-73122619D01*
X98336904Y-73427380D01*
X98375000Y-73503571D01*
X98413095Y-73541666D01*
X98489285Y-73579761D01*
X98603571Y-73579761D01*
X98679761Y-73541666D01*
X98717857Y-73503571D01*
X98755952Y-73427380D01*
X98755952Y-73122619D01*
X98413095Y-73884523D02*
X98375000Y-73922619D01*
X98336904Y-73998809D01*
X98336904Y-74189285D01*
X98375000Y-74265476D01*
X98413095Y-74303571D01*
X98489285Y-74341666D01*
X98565476Y-74341666D01*
X98679761Y-74303571D01*
X99136904Y-73846428D01*
X99136904Y-74341666D01*
X98336904Y-74836904D02*
X98336904Y-74913095D01*
X98375000Y-74989285D01*
X98413095Y-75027380D01*
X98489285Y-75065476D01*
X98641666Y-75103571D01*
X98832142Y-75103571D01*
X98984523Y-75065476D01*
X99060714Y-75027380D01*
X99098809Y-74989285D01*
X99136904Y-74913095D01*
X99136904Y-74836904D01*
X99098809Y-74760714D01*
X99060714Y-74722619D01*
X98984523Y-74684523D01*
X98832142Y-74646428D01*
X98641666Y-74646428D01*
X98489285Y-74684523D01*
X98413095Y-74722619D01*
X98375000Y-74760714D01*
X98336904Y-74836904D01*
X98336904Y-75370238D02*
X98336904Y-75865476D01*
X98641666Y-75598809D01*
X98641666Y-75713095D01*
X98679761Y-75789285D01*
X98717857Y-75827380D01*
X98794047Y-75865476D01*
X98984523Y-75865476D01*
X99060714Y-75827380D01*
X99098809Y-75789285D01*
X99136904Y-75713095D01*
X99136904Y-75484523D01*
X99098809Y-75408333D01*
X99060714Y-75370238D01*
X106845238Y-71636904D02*
X107111904Y-71255952D01*
X107302380Y-71636904D02*
X107302380Y-70836904D01*
X106997619Y-70836904D01*
X106921428Y-70875000D01*
X106883333Y-70913095D01*
X106845238Y-70989285D01*
X106845238Y-71103571D01*
X106883333Y-71179761D01*
X106921428Y-71217857D01*
X106997619Y-71255952D01*
X107302380Y-71255952D01*
X106540476Y-70913095D02*
X106502380Y-70875000D01*
X106426190Y-70836904D01*
X106235714Y-70836904D01*
X106159523Y-70875000D01*
X106121428Y-70913095D01*
X106083333Y-70989285D01*
X106083333Y-71065476D01*
X106121428Y-71179761D01*
X106578571Y-71636904D01*
X106083333Y-71636904D01*
X105588095Y-70836904D02*
X105511904Y-70836904D01*
X105435714Y-70875000D01*
X105397619Y-70913095D01*
X105359523Y-70989285D01*
X105321428Y-71141666D01*
X105321428Y-71332142D01*
X105359523Y-71484523D01*
X105397619Y-71560714D01*
X105435714Y-71598809D01*
X105511904Y-71636904D01*
X105588095Y-71636904D01*
X105664285Y-71598809D01*
X105702380Y-71560714D01*
X105740476Y-71484523D01*
X105778571Y-71332142D01*
X105778571Y-71141666D01*
X105740476Y-70989285D01*
X105702380Y-70913095D01*
X105664285Y-70875000D01*
X105588095Y-70836904D01*
X104940476Y-71636904D02*
X104788095Y-71636904D01*
X104711904Y-71598809D01*
X104673809Y-71560714D01*
X104597619Y-71446428D01*
X104559523Y-71294047D01*
X104559523Y-70989285D01*
X104597619Y-70913095D01*
X104635714Y-70875000D01*
X104711904Y-70836904D01*
X104864285Y-70836904D01*
X104940476Y-70875000D01*
X104978571Y-70913095D01*
X105016666Y-70989285D01*
X105016666Y-71179761D01*
X104978571Y-71255952D01*
X104940476Y-71294047D01*
X104864285Y-71332142D01*
X104711904Y-71332142D01*
X104635714Y-71294047D01*
X104597619Y-71255952D01*
X104559523Y-71179761D01*
X117736904Y-55686904D02*
X117355952Y-55420238D01*
X117736904Y-55229761D02*
X116936904Y-55229761D01*
X116936904Y-55534523D01*
X116975000Y-55610714D01*
X117013095Y-55648809D01*
X117089285Y-55686904D01*
X117203571Y-55686904D01*
X117279761Y-55648809D01*
X117317857Y-55610714D01*
X117355952Y-55534523D01*
X117355952Y-55229761D01*
X116936904Y-55915476D02*
X117736904Y-56182142D01*
X116936904Y-56448809D01*
X117013095Y-56677380D02*
X116975000Y-56715476D01*
X116936904Y-56791666D01*
X116936904Y-56982142D01*
X116975000Y-57058333D01*
X117013095Y-57096428D01*
X117089285Y-57134523D01*
X117165476Y-57134523D01*
X117279761Y-57096428D01*
X117736904Y-56639285D01*
X117736904Y-57134523D01*
X116936904Y-57629761D02*
X116936904Y-57705952D01*
X116975000Y-57782142D01*
X117013095Y-57820238D01*
X117089285Y-57858333D01*
X117241666Y-57896428D01*
X117432142Y-57896428D01*
X117584523Y-57858333D01*
X117660714Y-57820238D01*
X117698809Y-57782142D01*
X117736904Y-57705952D01*
X117736904Y-57629761D01*
X117698809Y-57553571D01*
X117660714Y-57515476D01*
X117584523Y-57477380D01*
X117432142Y-57439285D01*
X117241666Y-57439285D01*
X117089285Y-57477380D01*
X117013095Y-57515476D01*
X116975000Y-57553571D01*
X116936904Y-57629761D01*
X116936904Y-58163095D02*
X116936904Y-58658333D01*
X117241666Y-58391666D01*
X117241666Y-58505952D01*
X117279761Y-58582142D01*
X117317857Y-58620238D01*
X117394047Y-58658333D01*
X117584523Y-58658333D01*
X117660714Y-58620238D01*
X117698809Y-58582142D01*
X117736904Y-58505952D01*
X117736904Y-58277380D01*
X117698809Y-58201190D01*
X117660714Y-58163095D01*
X106870238Y-62636904D02*
X107136904Y-62255952D01*
X107327380Y-62636904D02*
X107327380Y-61836904D01*
X107022619Y-61836904D01*
X106946428Y-61875000D01*
X106908333Y-61913095D01*
X106870238Y-61989285D01*
X106870238Y-62103571D01*
X106908333Y-62179761D01*
X106946428Y-62217857D01*
X107022619Y-62255952D01*
X107327380Y-62255952D01*
X106565476Y-61913095D02*
X106527380Y-61875000D01*
X106451190Y-61836904D01*
X106260714Y-61836904D01*
X106184523Y-61875000D01*
X106146428Y-61913095D01*
X106108333Y-61989285D01*
X106108333Y-62065476D01*
X106146428Y-62179761D01*
X106603571Y-62636904D01*
X106108333Y-62636904D01*
X105613095Y-61836904D02*
X105536904Y-61836904D01*
X105460714Y-61875000D01*
X105422619Y-61913095D01*
X105384523Y-61989285D01*
X105346428Y-62141666D01*
X105346428Y-62332142D01*
X105384523Y-62484523D01*
X105422619Y-62560714D01*
X105460714Y-62598809D01*
X105536904Y-62636904D01*
X105613095Y-62636904D01*
X105689285Y-62598809D01*
X105727380Y-62560714D01*
X105765476Y-62484523D01*
X105803571Y-62332142D01*
X105803571Y-62141666D01*
X105765476Y-61989285D01*
X105727380Y-61913095D01*
X105689285Y-61875000D01*
X105613095Y-61836904D01*
X104660714Y-61836904D02*
X104813095Y-61836904D01*
X104889285Y-61875000D01*
X104927380Y-61913095D01*
X105003571Y-62027380D01*
X105041666Y-62179761D01*
X105041666Y-62484523D01*
X105003571Y-62560714D01*
X104965476Y-62598809D01*
X104889285Y-62636904D01*
X104736904Y-62636904D01*
X104660714Y-62598809D01*
X104622619Y-62560714D01*
X104584523Y-62484523D01*
X104584523Y-62294047D01*
X104622619Y-62217857D01*
X104660714Y-62179761D01*
X104736904Y-62141666D01*
X104889285Y-62141666D01*
X104965476Y-62179761D01*
X105003571Y-62217857D01*
X105041666Y-62294047D01*
X85441904Y-73834761D02*
X85060952Y-73568095D01*
X85441904Y-73377619D02*
X84641904Y-73377619D01*
X84641904Y-73682380D01*
X84680000Y-73758571D01*
X84718095Y-73796666D01*
X84794285Y-73834761D01*
X84908571Y-73834761D01*
X84984761Y-73796666D01*
X85022857Y-73758571D01*
X85060952Y-73682380D01*
X85060952Y-73377619D01*
X84718095Y-74139523D02*
X84680000Y-74177619D01*
X84641904Y-74253809D01*
X84641904Y-74444285D01*
X84680000Y-74520476D01*
X84718095Y-74558571D01*
X84794285Y-74596666D01*
X84870476Y-74596666D01*
X84984761Y-74558571D01*
X85441904Y-74101428D01*
X85441904Y-74596666D01*
X84641904Y-75091904D02*
X84641904Y-75168095D01*
X84680000Y-75244285D01*
X84718095Y-75282380D01*
X84794285Y-75320476D01*
X84946666Y-75358571D01*
X85137142Y-75358571D01*
X85289523Y-75320476D01*
X85365714Y-75282380D01*
X85403809Y-75244285D01*
X85441904Y-75168095D01*
X85441904Y-75091904D01*
X85403809Y-75015714D01*
X85365714Y-74977619D01*
X85289523Y-74939523D01*
X85137142Y-74901428D01*
X84946666Y-74901428D01*
X84794285Y-74939523D01*
X84718095Y-74977619D01*
X84680000Y-75015714D01*
X84641904Y-75091904D01*
X84718095Y-75663333D02*
X84680000Y-75701428D01*
X84641904Y-75777619D01*
X84641904Y-75968095D01*
X84680000Y-76044285D01*
X84718095Y-76082380D01*
X84794285Y-76120476D01*
X84870476Y-76120476D01*
X84984761Y-76082380D01*
X85441904Y-75625238D01*
X85441904Y-76120476D01*
X152188095Y-58161904D02*
X152150000Y-58085714D01*
X152073809Y-58009523D01*
X151959523Y-57895238D01*
X151921428Y-57819047D01*
X151921428Y-57742857D01*
X152111904Y-57780952D02*
X152073809Y-57704761D01*
X151997619Y-57628571D01*
X151845238Y-57590476D01*
X151578571Y-57590476D01*
X151426190Y-57628571D01*
X151350000Y-57704761D01*
X151311904Y-57780952D01*
X151311904Y-57933333D01*
X151350000Y-58009523D01*
X151426190Y-58085714D01*
X151578571Y-58123809D01*
X151845238Y-58123809D01*
X151997619Y-58085714D01*
X152073809Y-58009523D01*
X152111904Y-57933333D01*
X152111904Y-57780952D01*
X151388095Y-58428571D02*
X151350000Y-58466666D01*
X151311904Y-58542857D01*
X151311904Y-58733333D01*
X151350000Y-58809523D01*
X151388095Y-58847619D01*
X151464285Y-58885714D01*
X151540476Y-58885714D01*
X151654761Y-58847619D01*
X152111904Y-58390476D01*
X152111904Y-58885714D01*
X151311904Y-59380952D02*
X151311904Y-59457142D01*
X151350000Y-59533333D01*
X151388095Y-59571428D01*
X151464285Y-59609523D01*
X151616666Y-59647619D01*
X151807142Y-59647619D01*
X151959523Y-59609523D01*
X152035714Y-59571428D01*
X152073809Y-59533333D01*
X152111904Y-59457142D01*
X152111904Y-59380952D01*
X152073809Y-59304761D01*
X152035714Y-59266666D01*
X151959523Y-59228571D01*
X151807142Y-59190476D01*
X151616666Y-59190476D01*
X151464285Y-59228571D01*
X151388095Y-59266666D01*
X151350000Y-59304761D01*
X151311904Y-59380952D01*
X152111904Y-60409523D02*
X152111904Y-59952380D01*
X152111904Y-60180952D02*
X151311904Y-60180952D01*
X151426190Y-60104761D01*
X151502380Y-60028571D01*
X151540476Y-59952380D01*
X57885714Y-56397261D02*
X57923809Y-56359166D01*
X57961904Y-56244880D01*
X57961904Y-56168690D01*
X57923809Y-56054404D01*
X57847619Y-55978214D01*
X57771428Y-55940119D01*
X57619047Y-55902023D01*
X57504761Y-55902023D01*
X57352380Y-55940119D01*
X57276190Y-55978214D01*
X57200000Y-56054404D01*
X57161904Y-56168690D01*
X57161904Y-56244880D01*
X57200000Y-56359166D01*
X57238095Y-56397261D01*
X57238095Y-56702023D02*
X57200000Y-56740119D01*
X57161904Y-56816309D01*
X57161904Y-57006785D01*
X57200000Y-57082976D01*
X57238095Y-57121071D01*
X57314285Y-57159166D01*
X57390476Y-57159166D01*
X57504761Y-57121071D01*
X57961904Y-56663928D01*
X57961904Y-57159166D01*
X57161904Y-57654404D02*
X57161904Y-57730595D01*
X57200000Y-57806785D01*
X57238095Y-57844880D01*
X57314285Y-57882976D01*
X57466666Y-57921071D01*
X57657142Y-57921071D01*
X57809523Y-57882976D01*
X57885714Y-57844880D01*
X57923809Y-57806785D01*
X57961904Y-57730595D01*
X57961904Y-57654404D01*
X57923809Y-57578214D01*
X57885714Y-57540119D01*
X57809523Y-57502023D01*
X57657142Y-57463928D01*
X57466666Y-57463928D01*
X57314285Y-57502023D01*
X57238095Y-57540119D01*
X57200000Y-57578214D01*
X57161904Y-57654404D01*
X57238095Y-58225833D02*
X57200000Y-58263928D01*
X57161904Y-58340119D01*
X57161904Y-58530595D01*
X57200000Y-58606785D01*
X57238095Y-58644880D01*
X57314285Y-58682976D01*
X57390476Y-58682976D01*
X57504761Y-58644880D01*
X57961904Y-58187738D01*
X57961904Y-58682976D01*
X83511904Y-63947619D02*
X82711904Y-63947619D01*
X82711904Y-64138095D01*
X82750000Y-64252380D01*
X82826190Y-64328571D01*
X82902380Y-64366666D01*
X83054761Y-64404761D01*
X83169047Y-64404761D01*
X83321428Y-64366666D01*
X83397619Y-64328571D01*
X83473809Y-64252380D01*
X83511904Y-64138095D01*
X83511904Y-63947619D01*
X82788095Y-64709523D02*
X82750000Y-64747619D01*
X82711904Y-64823809D01*
X82711904Y-65014285D01*
X82750000Y-65090476D01*
X82788095Y-65128571D01*
X82864285Y-65166666D01*
X82940476Y-65166666D01*
X83054761Y-65128571D01*
X83511904Y-64671428D01*
X83511904Y-65166666D01*
X82711904Y-65661904D02*
X82711904Y-65738095D01*
X82750000Y-65814285D01*
X82788095Y-65852380D01*
X82864285Y-65890476D01*
X83016666Y-65928571D01*
X83207142Y-65928571D01*
X83359523Y-65890476D01*
X83435714Y-65852380D01*
X83473809Y-65814285D01*
X83511904Y-65738095D01*
X83511904Y-65661904D01*
X83473809Y-65585714D01*
X83435714Y-65547619D01*
X83359523Y-65509523D01*
X83207142Y-65471428D01*
X83016666Y-65471428D01*
X82864285Y-65509523D01*
X82788095Y-65547619D01*
X82750000Y-65585714D01*
X82711904Y-65661904D01*
X82711904Y-66652380D02*
X82711904Y-66271428D01*
X83092857Y-66233333D01*
X83054761Y-66271428D01*
X83016666Y-66347619D01*
X83016666Y-66538095D01*
X83054761Y-66614285D01*
X83092857Y-66652380D01*
X83169047Y-66690476D01*
X83359523Y-66690476D01*
X83435714Y-66652380D01*
X83473809Y-66614285D01*
X83511904Y-66538095D01*
X83511904Y-66347619D01*
X83473809Y-66271428D01*
X83435714Y-66233333D01*
X92715238Y-72651904D02*
X92981904Y-72270952D01*
X93172380Y-72651904D02*
X93172380Y-71851904D01*
X92867619Y-71851904D01*
X92791428Y-71890000D01*
X92753333Y-71928095D01*
X92715238Y-72004285D01*
X92715238Y-72118571D01*
X92753333Y-72194761D01*
X92791428Y-72232857D01*
X92867619Y-72270952D01*
X93172380Y-72270952D01*
X92410476Y-71928095D02*
X92372380Y-71890000D01*
X92296190Y-71851904D01*
X92105714Y-71851904D01*
X92029523Y-71890000D01*
X91991428Y-71928095D01*
X91953333Y-72004285D01*
X91953333Y-72080476D01*
X91991428Y-72194761D01*
X92448571Y-72651904D01*
X91953333Y-72651904D01*
X91458095Y-71851904D02*
X91381904Y-71851904D01*
X91305714Y-71890000D01*
X91267619Y-71928095D01*
X91229523Y-72004285D01*
X91191428Y-72156666D01*
X91191428Y-72347142D01*
X91229523Y-72499523D01*
X91267619Y-72575714D01*
X91305714Y-72613809D01*
X91381904Y-72651904D01*
X91458095Y-72651904D01*
X91534285Y-72613809D01*
X91572380Y-72575714D01*
X91610476Y-72499523D01*
X91648571Y-72347142D01*
X91648571Y-72156666D01*
X91610476Y-72004285D01*
X91572380Y-71928095D01*
X91534285Y-71890000D01*
X91458095Y-71851904D01*
X90505714Y-72118571D02*
X90505714Y-72651904D01*
X90696190Y-71813809D02*
X90886666Y-72385238D01*
X90391428Y-72385238D01*
X97611904Y-47897619D02*
X96811904Y-47897619D01*
X96811904Y-48088095D01*
X96850000Y-48202380D01*
X96926190Y-48278571D01*
X97002380Y-48316666D01*
X97154761Y-48354761D01*
X97269047Y-48354761D01*
X97421428Y-48316666D01*
X97497619Y-48278571D01*
X97573809Y-48202380D01*
X97611904Y-48088095D01*
X97611904Y-47897619D01*
X96888095Y-48659523D02*
X96850000Y-48697619D01*
X96811904Y-48773809D01*
X96811904Y-48964285D01*
X96850000Y-49040476D01*
X96888095Y-49078571D01*
X96964285Y-49116666D01*
X97040476Y-49116666D01*
X97154761Y-49078571D01*
X97611904Y-48621428D01*
X97611904Y-49116666D01*
X96811904Y-49611904D02*
X96811904Y-49688095D01*
X96850000Y-49764285D01*
X96888095Y-49802380D01*
X96964285Y-49840476D01*
X97116666Y-49878571D01*
X97307142Y-49878571D01*
X97459523Y-49840476D01*
X97535714Y-49802380D01*
X97573809Y-49764285D01*
X97611904Y-49688095D01*
X97611904Y-49611904D01*
X97573809Y-49535714D01*
X97535714Y-49497619D01*
X97459523Y-49459523D01*
X97307142Y-49421428D01*
X97116666Y-49421428D01*
X96964285Y-49459523D01*
X96888095Y-49497619D01*
X96850000Y-49535714D01*
X96811904Y-49611904D01*
X96888095Y-50183333D02*
X96850000Y-50221428D01*
X96811904Y-50297619D01*
X96811904Y-50488095D01*
X96850000Y-50564285D01*
X96888095Y-50602380D01*
X96964285Y-50640476D01*
X97040476Y-50640476D01*
X97154761Y-50602380D01*
X97611904Y-50145238D01*
X97611904Y-50640476D01*
X115770238Y-71886904D02*
X116036904Y-71505952D01*
X116227380Y-71886904D02*
X116227380Y-71086904D01*
X115922619Y-71086904D01*
X115846428Y-71125000D01*
X115808333Y-71163095D01*
X115770238Y-71239285D01*
X115770238Y-71353571D01*
X115808333Y-71429761D01*
X115846428Y-71467857D01*
X115922619Y-71505952D01*
X116227380Y-71505952D01*
X115465476Y-71163095D02*
X115427380Y-71125000D01*
X115351190Y-71086904D01*
X115160714Y-71086904D01*
X115084523Y-71125000D01*
X115046428Y-71163095D01*
X115008333Y-71239285D01*
X115008333Y-71315476D01*
X115046428Y-71429761D01*
X115503571Y-71886904D01*
X115008333Y-71886904D01*
X114513095Y-71086904D02*
X114436904Y-71086904D01*
X114360714Y-71125000D01*
X114322619Y-71163095D01*
X114284523Y-71239285D01*
X114246428Y-71391666D01*
X114246428Y-71582142D01*
X114284523Y-71734523D01*
X114322619Y-71810714D01*
X114360714Y-71848809D01*
X114436904Y-71886904D01*
X114513095Y-71886904D01*
X114589285Y-71848809D01*
X114627380Y-71810714D01*
X114665476Y-71734523D01*
X114703571Y-71582142D01*
X114703571Y-71391666D01*
X114665476Y-71239285D01*
X114627380Y-71163095D01*
X114589285Y-71125000D01*
X114513095Y-71086904D01*
X113789285Y-71429761D02*
X113865476Y-71391666D01*
X113903571Y-71353571D01*
X113941666Y-71277380D01*
X113941666Y-71239285D01*
X113903571Y-71163095D01*
X113865476Y-71125000D01*
X113789285Y-71086904D01*
X113636904Y-71086904D01*
X113560714Y-71125000D01*
X113522619Y-71163095D01*
X113484523Y-71239285D01*
X113484523Y-71277380D01*
X113522619Y-71353571D01*
X113560714Y-71391666D01*
X113636904Y-71429761D01*
X113789285Y-71429761D01*
X113865476Y-71467857D01*
X113903571Y-71505952D01*
X113941666Y-71582142D01*
X113941666Y-71734523D01*
X113903571Y-71810714D01*
X113865476Y-71848809D01*
X113789285Y-71886904D01*
X113636904Y-71886904D01*
X113560714Y-71848809D01*
X113522619Y-71810714D01*
X113484523Y-71734523D01*
X113484523Y-71582142D01*
X113522619Y-71505952D01*
X113560714Y-71467857D01*
X113636904Y-71429761D01*
X108836904Y-55586904D02*
X108455952Y-55320238D01*
X108836904Y-55129761D02*
X108036904Y-55129761D01*
X108036904Y-55434523D01*
X108075000Y-55510714D01*
X108113095Y-55548809D01*
X108189285Y-55586904D01*
X108303571Y-55586904D01*
X108379761Y-55548809D01*
X108417857Y-55510714D01*
X108455952Y-55434523D01*
X108455952Y-55129761D01*
X108036904Y-55815476D02*
X108836904Y-56082142D01*
X108036904Y-56348809D01*
X108113095Y-56577380D02*
X108075000Y-56615476D01*
X108036904Y-56691666D01*
X108036904Y-56882142D01*
X108075000Y-56958333D01*
X108113095Y-56996428D01*
X108189285Y-57034523D01*
X108265476Y-57034523D01*
X108379761Y-56996428D01*
X108836904Y-56539285D01*
X108836904Y-57034523D01*
X108036904Y-57529761D02*
X108036904Y-57605952D01*
X108075000Y-57682142D01*
X108113095Y-57720238D01*
X108189285Y-57758333D01*
X108341666Y-57796428D01*
X108532142Y-57796428D01*
X108684523Y-57758333D01*
X108760714Y-57720238D01*
X108798809Y-57682142D01*
X108836904Y-57605952D01*
X108836904Y-57529761D01*
X108798809Y-57453571D01*
X108760714Y-57415476D01*
X108684523Y-57377380D01*
X108532142Y-57339285D01*
X108341666Y-57339285D01*
X108189285Y-57377380D01*
X108113095Y-57415476D01*
X108075000Y-57453571D01*
X108036904Y-57529761D01*
X108113095Y-58101190D02*
X108075000Y-58139285D01*
X108036904Y-58215476D01*
X108036904Y-58405952D01*
X108075000Y-58482142D01*
X108113095Y-58520238D01*
X108189285Y-58558333D01*
X108265476Y-58558333D01*
X108379761Y-58520238D01*
X108836904Y-58063095D01*
X108836904Y-58558333D01*
X147128571Y-73261904D02*
X147128571Y-73833333D01*
X147166666Y-73947619D01*
X147242857Y-74023809D01*
X147357142Y-74061904D01*
X147433333Y-74061904D01*
X146785714Y-73338095D02*
X146747619Y-73300000D01*
X146671428Y-73261904D01*
X146480952Y-73261904D01*
X146404761Y-73300000D01*
X146366666Y-73338095D01*
X146328571Y-73414285D01*
X146328571Y-73490476D01*
X146366666Y-73604761D01*
X146823809Y-74061904D01*
X146328571Y-74061904D01*
X145833333Y-73261904D02*
X145757142Y-73261904D01*
X145680952Y-73300000D01*
X145642857Y-73338095D01*
X145604761Y-73414285D01*
X145566666Y-73566666D01*
X145566666Y-73757142D01*
X145604761Y-73909523D01*
X145642857Y-73985714D01*
X145680952Y-74023809D01*
X145757142Y-74061904D01*
X145833333Y-74061904D01*
X145909523Y-74023809D01*
X145947619Y-73985714D01*
X145985714Y-73909523D01*
X146023809Y-73757142D01*
X146023809Y-73566666D01*
X145985714Y-73414285D01*
X145947619Y-73338095D01*
X145909523Y-73300000D01*
X145833333Y-73261904D01*
X144804761Y-74061904D02*
X145261904Y-74061904D01*
X145033333Y-74061904D02*
X145033333Y-73261904D01*
X145109523Y-73376190D01*
X145185714Y-73452380D01*
X145261904Y-73490476D01*
D13*
X128535000Y-73561252D02*
X128535000Y-73038748D01*
X127065000Y-73561252D02*
X127065000Y-73038748D01*
X141535000Y-72738748D02*
X141535000Y-73261252D01*
X140065000Y-72738748D02*
X140065000Y-73261252D01*
X141535000Y-68161252D02*
X141535000Y-67638748D01*
X140065000Y-68161252D02*
X140065000Y-67638748D01*
X79990000Y-68450000D02*
X79990000Y-67350000D01*
X73210000Y-68450000D02*
X73210000Y-63325000D01*
X71400000Y-69950000D02*
X71400000Y-68450000D01*
X81800000Y-69950000D02*
X81800000Y-68450000D01*
X81800000Y-68450000D02*
X79990000Y-68450000D01*
X71400000Y-68450000D02*
X73210000Y-68450000D01*
X87690000Y-70702500D02*
X90440000Y-70702500D01*
X95145563Y-62182500D02*
X96210000Y-63246937D01*
X96210000Y-63246937D02*
X96210000Y-70702500D01*
X95145563Y-62182500D02*
X93460000Y-62182500D01*
X88754437Y-62182500D02*
X87690000Y-63246937D01*
X96210000Y-70702500D02*
X93460000Y-70702500D01*
X87690000Y-63246937D02*
X87690000Y-70702500D01*
X88754437Y-62182500D02*
X90440000Y-62182500D01*
X88940000Y-61442500D02*
X89940000Y-61442500D01*
X89440000Y-60942500D02*
X89440000Y-61942500D01*
X104350000Y-63775000D02*
X104950000Y-63775000D01*
X107750000Y-67575000D02*
X107750000Y-68275000D01*
X107550000Y-63775000D02*
X106950000Y-63775000D01*
X107750000Y-68275000D02*
X107050000Y-68275000D01*
X106150000Y-67775000D02*
X105750000Y-67775000D01*
X107550000Y-66675000D02*
X107550000Y-63775000D01*
X104350000Y-66675000D02*
X104350000Y-63775000D01*
X142785000Y-53653733D02*
X142785000Y-53946267D01*
X141765000Y-53653733D02*
X141765000Y-53946267D01*
X109215000Y-65302064D02*
X109215000Y-64847936D01*
X110685000Y-65302064D02*
X110685000Y-64847936D01*
X81800000Y-55000000D02*
X81800000Y-56500000D01*
X71400000Y-56500000D02*
X72350000Y-56500000D01*
X81800000Y-56500000D02*
X80850000Y-56500000D01*
X71400000Y-55000000D02*
X71400000Y-56500000D01*
X72350000Y-56500000D02*
X72350000Y-57600000D01*
X80850000Y-56500000D02*
X80850000Y-61625000D01*
X125865000Y-53372936D02*
X125865000Y-53827064D01*
X127335000Y-53372936D02*
X127335000Y-53827064D01*
X151254724Y-55272500D02*
X150745276Y-55272500D01*
X151254724Y-54227500D02*
X150745276Y-54227500D01*
X85311252Y-60265000D02*
X84788748Y-60265000D01*
X85311252Y-61735000D02*
X84788748Y-61735000D01*
X145300000Y-52190000D02*
X147100000Y-52190000D01*
X147100000Y-55410000D02*
X144150000Y-55410000D01*
X133522500Y-70254724D02*
X133522500Y-69745276D01*
X132477500Y-70254724D02*
X132477500Y-69745276D01*
X127360000Y-57802064D02*
X127360000Y-57347936D01*
X125890000Y-57802064D02*
X125890000Y-57347936D01*
X146429724Y-49852500D02*
X145920276Y-49852500D01*
X146429724Y-50897500D02*
X145920276Y-50897500D01*
X85277064Y-68865000D02*
X84822936Y-68865000D01*
X85277064Y-70335000D02*
X84822936Y-70335000D01*
X67150000Y-73040000D02*
X57150000Y-73040000D01*
X58150000Y-62880000D02*
X58150000Y-73040000D01*
X57150000Y-73040000D02*
X57150000Y-62880000D01*
X57150000Y-62880000D02*
X67150000Y-62880000D01*
X67150000Y-62880000D02*
X67150000Y-73040000D01*
X99033000Y-61187064D02*
X99033000Y-60732936D01*
X97563000Y-61187064D02*
X97563000Y-60732936D01*
X83700000Y-59300000D02*
X86700000Y-59300000D01*
X86700000Y-46700000D02*
X83700000Y-46700000D01*
X83700000Y-46700000D02*
X83700000Y-59300000D01*
X93300000Y-59300000D02*
X96300000Y-59300000D01*
X96300000Y-59300000D02*
X96300000Y-46700000D01*
X96300000Y-46700000D02*
X93300000Y-46700000D01*
G36*
X119255479Y-45189234D02*
G01*
X119356353Y-45190785D01*
X119433190Y-45195339D01*
X119496664Y-45204216D01*
X119557449Y-45218742D01*
X119626219Y-45240238D01*
X119821699Y-45320744D01*
X119999574Y-45429504D01*
X120163350Y-45570264D01*
X120246356Y-45659751D01*
X120378818Y-45842594D01*
X120477526Y-46039136D01*
X120541838Y-46245849D01*
X120571112Y-46459206D01*
X120564706Y-46675676D01*
X120521979Y-46891734D01*
X120442288Y-47103849D01*
X120434017Y-47121138D01*
X120332235Y-47299564D01*
X120212309Y-47456345D01*
X120080369Y-47583361D01*
X120053076Y-47604298D01*
X119955511Y-47668646D01*
X119841976Y-47732008D01*
X119723995Y-47788701D01*
X119613090Y-47833041D01*
X119520785Y-47859347D01*
X119478308Y-47867614D01*
X119417077Y-47879555D01*
X119377012Y-47887399D01*
X119360191Y-47890355D01*
X119247929Y-47897959D01*
X119114785Y-47891258D01*
X118972575Y-47871786D01*
X118833114Y-47841074D01*
X118708218Y-47800656D01*
X118595523Y-47748310D01*
X118432143Y-47645756D01*
X118278687Y-47519476D01*
X118144624Y-47377574D01*
X118039427Y-47228159D01*
X118034542Y-47219700D01*
X117938908Y-47015320D01*
X117879193Y-46801240D01*
X117855508Y-46581310D01*
X117867965Y-46359378D01*
X117916675Y-46139293D01*
X118001749Y-45924906D01*
X118002574Y-45923228D01*
X118053483Y-45826402D01*
X118104153Y-45747759D01*
X118164711Y-45673341D01*
X118245284Y-45589187D01*
X118313491Y-45524287D01*
X118464164Y-45404499D01*
X118623264Y-45312141D01*
X118801917Y-45240238D01*
X118826716Y-45232111D01*
X118891594Y-45213119D01*
X118952093Y-45200650D01*
X119018889Y-45193382D01*
X119102656Y-45189991D01*
X119214068Y-45189155D01*
X119255479Y-45189234D01*
G37*
G36*
X110319276Y-45529209D02*
G01*
X110553754Y-45552831D01*
X110759831Y-45596232D01*
X110935596Y-45658938D01*
X111080114Y-45740527D01*
X111192450Y-45840577D01*
X111271669Y-45958667D01*
X111294791Y-46009239D01*
X111314123Y-46068982D01*
X111323213Y-46134520D01*
X111325359Y-46222038D01*
X111321851Y-46304051D01*
X111301145Y-46410759D01*
X111258247Y-46500267D01*
X111189035Y-46583503D01*
X111158262Y-46612586D01*
X111107905Y-46651724D01*
X111051554Y-46683193D01*
X110984588Y-46707972D01*
X110902388Y-46727039D01*
X110800334Y-46741374D01*
X110673808Y-46751955D01*
X110518190Y-46759761D01*
X110328861Y-46765771D01*
X110233577Y-46768374D01*
X110089570Y-46773130D01*
X109977324Y-46778580D01*
X109892615Y-46785434D01*
X109831214Y-46794401D01*
X109788895Y-46806191D01*
X109761432Y-46821512D01*
X109744597Y-46841076D01*
X109734164Y-46865590D01*
X109725977Y-46920319D01*
X109746594Y-46979588D01*
X109802322Y-47024692D01*
X109892751Y-47055333D01*
X110017473Y-47071217D01*
X110062512Y-47072960D01*
X110196412Y-47067589D01*
X110321851Y-47047794D01*
X110431500Y-47015545D01*
X110518029Y-46972814D01*
X110574111Y-46921569D01*
X110576989Y-46917581D01*
X110588855Y-46905160D01*
X110606622Y-46896223D01*
X110635695Y-46890311D01*
X110681479Y-46886968D01*
X110749379Y-46885734D01*
X110844801Y-46886153D01*
X110973151Y-46887766D01*
X111344861Y-46892981D01*
X111338622Y-46950491D01*
X111324720Y-47013802D01*
X111284734Y-47110636D01*
X111227439Y-47206127D01*
X111160414Y-47286005D01*
X111104596Y-47333958D01*
X110974427Y-47416236D01*
X110817787Y-47485341D01*
X110641769Y-47538397D01*
X110453465Y-47572531D01*
X110439089Y-47574198D01*
X110329706Y-47582195D01*
X110198904Y-47585602D01*
X110056628Y-47584732D01*
X109912821Y-47579898D01*
X109777428Y-47571414D01*
X109660390Y-47559593D01*
X109571653Y-47544748D01*
X109489065Y-47523256D01*
X109322382Y-47459853D01*
X109185591Y-47377299D01*
X109079988Y-47277003D01*
X109006872Y-47160376D01*
X108967540Y-47028827D01*
X108963290Y-46883767D01*
X108976946Y-46793765D01*
X109023963Y-46658679D01*
X109100520Y-46547903D01*
X109206257Y-46461895D01*
X109340814Y-46401117D01*
X109360258Y-46395073D01*
X109404050Y-46383570D01*
X109452790Y-46374477D01*
X109512043Y-46367328D01*
X109587373Y-46361658D01*
X109684346Y-46357000D01*
X109808526Y-46352890D01*
X109965479Y-46348862D01*
X110047495Y-46346858D01*
X110184785Y-46342995D01*
X110290804Y-46338986D01*
X110370260Y-46334441D01*
X110427861Y-46328967D01*
X110468315Y-46322175D01*
X110496329Y-46313672D01*
X110516611Y-46303068D01*
X110543324Y-46280156D01*
X110568483Y-46227279D01*
X110560086Y-46170095D01*
X110518056Y-46118060D01*
X110489066Y-46098069D01*
X110401593Y-46061808D01*
X110289026Y-46044435D01*
X110146748Y-46045042D01*
X110075377Y-46051071D01*
X109944471Y-46075811D01*
X109844912Y-46117224D01*
X109774103Y-46176223D01*
X109727487Y-46231623D01*
X108972489Y-46231623D01*
X108985032Y-46153185D01*
X109015847Y-46041266D01*
X109084231Y-45918505D01*
X109184458Y-45810272D01*
X109314111Y-45717697D01*
X109470777Y-45641909D01*
X109652041Y-45584037D01*
X109855489Y-45545210D01*
X110078705Y-45526558D01*
X110319276Y-45529209D01*
G37*
G36*
X112977682Y-45535929D02*
G01*
X113065547Y-45540152D01*
X113139233Y-45547800D01*
X113207976Y-45559652D01*
X113281012Y-45576491D01*
X113380109Y-45604514D01*
X113579368Y-45683776D01*
X113751280Y-45785970D01*
X113894306Y-45909620D01*
X114006908Y-46053253D01*
X114087546Y-46215393D01*
X114134682Y-46394566D01*
X114146290Y-46521402D01*
X114135504Y-46704942D01*
X114093896Y-46879138D01*
X114071705Y-46937123D01*
X113983820Y-47096991D01*
X113864592Y-47236729D01*
X113715651Y-47355189D01*
X113538632Y-47451229D01*
X113335165Y-47523701D01*
X113106883Y-47571463D01*
X113012047Y-47582216D01*
X112835479Y-47589640D01*
X112649869Y-47584108D01*
X112466768Y-47566504D01*
X112297728Y-47537710D01*
X112154300Y-47498611D01*
X112016943Y-47443133D01*
X111844884Y-47346567D01*
X111700162Y-47230719D01*
X111585238Y-47098075D01*
X111502576Y-46951120D01*
X111454636Y-46792340D01*
X111436359Y-46691698D01*
X112212436Y-46691698D01*
X112235215Y-46746691D01*
X112241762Y-46760927D01*
X112295984Y-46836040D01*
X112377117Y-46906485D01*
X112475880Y-46963886D01*
X112521520Y-46982809D01*
X112568272Y-46995786D01*
X112624328Y-47003441D01*
X112699359Y-47007078D01*
X112803035Y-47008000D01*
X112868776Y-47007826D01*
X112949543Y-47006089D01*
X113007943Y-47001111D01*
X113053827Y-46991239D01*
X113097046Y-46974819D01*
X113147453Y-46950197D01*
X113213464Y-46910445D01*
X113301536Y-46826305D01*
X113357680Y-46721225D01*
X113382889Y-46593704D01*
X113382810Y-46515662D01*
X113355316Y-46391335D01*
X113294686Y-46284401D01*
X113202819Y-46197760D01*
X113081617Y-46134310D01*
X113054516Y-46125339D01*
X112946987Y-46104704D01*
X112821833Y-46097450D01*
X112692580Y-46103182D01*
X112572753Y-46121503D01*
X112475880Y-46152019D01*
X112456087Y-46161412D01*
X112360164Y-46221230D01*
X112283396Y-46293028D01*
X112235215Y-46368328D01*
X112212436Y-46423321D01*
X111433535Y-46423321D01*
X111444621Y-46351434D01*
X111455850Y-46293047D01*
X111512159Y-46132261D01*
X111602395Y-45986717D01*
X111725074Y-45857792D01*
X111878707Y-45746862D01*
X112061808Y-45655303D01*
X112272891Y-45584492D01*
X112344042Y-45566499D01*
X112411014Y-45552853D01*
X112479036Y-45543732D01*
X112557426Y-45538219D01*
X112655507Y-45535397D01*
X112782597Y-45534350D01*
X112866403Y-45534348D01*
X112977682Y-45535929D01*
G37*
G36*
X122357917Y-47573510D02*
G01*
X122357917Y-46940906D01*
X122298737Y-46940906D01*
X122298234Y-46940907D01*
X122275581Y-46944426D01*
X122248256Y-46956746D01*
X122212516Y-46980916D01*
X122164618Y-47019984D01*
X122100819Y-47076999D01*
X122017377Y-47155009D01*
X121910548Y-47257062D01*
X121581540Y-47573219D01*
X121125274Y-47573364D01*
X120669007Y-47573510D01*
X121019840Y-47274699D01*
X121088182Y-47216194D01*
X121178849Y-47137569D01*
X121256016Y-47069450D01*
X121315727Y-47015385D01*
X121354023Y-46978919D01*
X121366948Y-46963599D01*
X121349737Y-46953784D01*
X121304767Y-46938377D01*
X121242344Y-46921231D01*
X121184585Y-46905695D01*
X121067173Y-46863021D01*
X120971465Y-46808123D01*
X120885821Y-46734920D01*
X120876582Y-46725552D01*
X120805626Y-46638861D01*
X120757346Y-46544492D01*
X120727980Y-46432800D01*
X120714172Y-46298131D01*
X121476106Y-46298131D01*
X121488617Y-46389025D01*
X121528279Y-46457158D01*
X121595250Y-46498566D01*
X121619874Y-46503684D01*
X121682690Y-46509959D01*
X121772444Y-46514854D01*
X121882479Y-46518035D01*
X122006137Y-46519170D01*
X122357917Y-46519170D01*
X122357917Y-46078264D01*
X122002660Y-46078264D01*
X121984860Y-46078276D01*
X121831991Y-46079897D01*
X121712864Y-46085469D01*
X121623363Y-46096710D01*
X121559370Y-46115339D01*
X121516765Y-46143076D01*
X121491431Y-46181641D01*
X121479251Y-46232753D01*
X121476106Y-46298131D01*
X120714172Y-46298131D01*
X120713763Y-46294141D01*
X120714631Y-46166660D01*
X120741751Y-46009112D01*
X120799662Y-45874092D01*
X120889041Y-45760546D01*
X121010568Y-45667421D01*
X121164921Y-45593660D01*
X121178742Y-45588550D01*
X121205167Y-45579801D01*
X121233883Y-45572529D01*
X121268493Y-45566567D01*
X121312603Y-45561746D01*
X121369818Y-45557900D01*
X121443742Y-45554859D01*
X121537981Y-45552455D01*
X121656140Y-45550521D01*
X121801823Y-45548889D01*
X121978635Y-45547389D01*
X122190182Y-45545855D01*
X123105540Y-45539459D01*
X123105540Y-47573510D01*
X122357917Y-47573510D01*
G37*
G36*
X115054219Y-47573510D02*
G01*
X114306597Y-47573510D01*
X114306597Y-45541510D01*
X115054219Y-45541510D01*
X115054219Y-47573510D01*
G37*
G36*
X125444257Y-46097434D02*
G01*
X124734974Y-46097434D01*
X124734974Y-47573510D01*
X123987351Y-47573510D01*
X123987351Y-46097434D01*
X123278068Y-46097434D01*
X123278068Y-45541510D01*
X125444257Y-45541510D01*
X125444257Y-46097434D01*
G37*
G36*
X127629616Y-47573510D02*
G01*
X125578446Y-47573510D01*
X125578446Y-47017585D01*
X126881993Y-47017585D01*
X126881993Y-46806717D01*
X125578446Y-46806717D01*
X125578446Y-46327472D01*
X126881993Y-46327472D01*
X126881993Y-46097434D01*
X125578446Y-46097434D01*
X125578446Y-45541510D01*
X127629616Y-45541510D01*
X127629616Y-47573510D01*
G37*
G36*
X116070219Y-46068680D02*
G01*
X116070431Y-46195177D01*
X116071442Y-46331650D01*
X116073428Y-46435708D01*
X116076541Y-46510726D01*
X116080936Y-46560076D01*
X116086765Y-46587132D01*
X116094182Y-46595268D01*
X116102733Y-46588223D01*
X116131445Y-46553441D01*
X116176858Y-46492917D01*
X116236295Y-46410387D01*
X116307080Y-46309585D01*
X116386537Y-46194244D01*
X116471990Y-46068098D01*
X116825835Y-45541510D01*
X117699653Y-45541510D01*
X117699653Y-47573510D01*
X116952031Y-47573510D01*
X116952031Y-47065510D01*
X116951512Y-46932882D01*
X116950013Y-46811043D01*
X116947678Y-46707600D01*
X116944655Y-46627540D01*
X116941089Y-46575848D01*
X116937127Y-46557510D01*
X116930620Y-46563428D01*
X116903836Y-46596073D01*
X116859310Y-46654028D01*
X116799779Y-46733621D01*
X116727979Y-46831179D01*
X116646648Y-46943031D01*
X116558523Y-47065504D01*
X116194823Y-47573499D01*
X115768295Y-47573504D01*
X115341766Y-47573510D01*
X115341766Y-45541510D01*
X116070219Y-45541510D01*
X116070219Y-46068680D01*
G37*
G36*
X129489087Y-47573510D02*
G01*
X129489087Y-46940906D01*
X129429907Y-46940906D01*
X129429404Y-46940907D01*
X129406751Y-46944426D01*
X129379426Y-46956746D01*
X129343686Y-46980916D01*
X129295788Y-47019984D01*
X129231989Y-47076999D01*
X129148547Y-47155009D01*
X129041718Y-47257062D01*
X128712710Y-47573219D01*
X128256443Y-47573364D01*
X127800177Y-47573510D01*
X128151009Y-47274699D01*
X128219352Y-47216194D01*
X128310019Y-47137569D01*
X128387186Y-47069450D01*
X128446897Y-47015385D01*
X128485193Y-46978919D01*
X128498118Y-46963599D01*
X128480907Y-46953784D01*
X128435937Y-46938377D01*
X128373514Y-46921231D01*
X128315755Y-46905695D01*
X128198343Y-46863021D01*
X128102635Y-46808123D01*
X128016990Y-46734920D01*
X128007752Y-46725552D01*
X127936795Y-46638861D01*
X127888516Y-46544492D01*
X127859150Y-46432800D01*
X127845342Y-46298131D01*
X128607276Y-46298131D01*
X128619786Y-46389025D01*
X128659448Y-46457158D01*
X128726420Y-46498566D01*
X128751044Y-46503684D01*
X128813860Y-46509959D01*
X128903614Y-46514854D01*
X129013649Y-46518035D01*
X129137306Y-46519170D01*
X129489087Y-46519170D01*
X129489087Y-46078264D01*
X129133830Y-46078264D01*
X129116030Y-46078276D01*
X128963160Y-46079897D01*
X128844034Y-46085469D01*
X128754533Y-46096710D01*
X128690539Y-46115339D01*
X128647935Y-46143076D01*
X128622601Y-46181641D01*
X128610421Y-46232753D01*
X128607276Y-46298131D01*
X127845342Y-46298131D01*
X127844933Y-46294141D01*
X127845801Y-46166660D01*
X127872921Y-46009112D01*
X127930832Y-45874092D01*
X128020211Y-45760546D01*
X128141738Y-45667421D01*
X128296091Y-45593660D01*
X128309912Y-45588550D01*
X128336337Y-45579801D01*
X128365052Y-45572529D01*
X128399663Y-45566567D01*
X128443773Y-45561746D01*
X128500988Y-45557900D01*
X128574912Y-45554859D01*
X128669151Y-45552455D01*
X128787310Y-45550521D01*
X128932993Y-45548889D01*
X129109805Y-45547389D01*
X129321351Y-45545855D01*
X130236710Y-45539459D01*
X130236710Y-47573510D01*
X129489087Y-47573510D01*
G37*
X113275000Y-63725000D02*
X113875000Y-63725000D01*
X116675000Y-68225000D02*
X115975000Y-68225000D01*
X116475000Y-66625000D02*
X116475000Y-63725000D01*
X115075000Y-67725000D02*
X114675000Y-67725000D01*
X116475000Y-63725000D02*
X115875000Y-63725000D01*
X113275000Y-66625000D02*
X113275000Y-63725000D01*
X116675000Y-67525000D02*
X116675000Y-68225000D01*
X69735000Y-60073752D02*
X69735000Y-59551248D01*
X68265000Y-60073752D02*
X68265000Y-59551248D01*
X99033000Y-65539252D02*
X99033000Y-65016748D01*
X97563000Y-65539252D02*
X97563000Y-65016748D01*
X114647936Y-60165000D02*
X115102064Y-60165000D01*
X114647936Y-61635000D02*
X115102064Y-61635000D01*
X98010000Y-74322936D02*
X98010000Y-74777064D01*
X96540000Y-74322936D02*
X96540000Y-74777064D01*
X105722936Y-70610000D02*
X106177064Y-70610000D01*
X105722936Y-69140000D02*
X106177064Y-69140000D01*
X116475000Y-55025000D02*
X115875000Y-55025000D01*
X115075000Y-59025000D02*
X114675000Y-59025000D01*
X116675000Y-58825000D02*
X116675000Y-59525000D01*
X116675000Y-59525000D02*
X115975000Y-59525000D01*
X113275000Y-55025000D02*
X113875000Y-55025000D01*
X116475000Y-57925000D02*
X116475000Y-55025000D01*
X113275000Y-57925000D02*
X113275000Y-55025000D01*
X105747936Y-61635000D02*
X106202064Y-61635000D01*
X105747936Y-60165000D02*
X106202064Y-60165000D01*
X87165000Y-74402936D02*
X87165000Y-74857064D01*
X85695000Y-74402936D02*
X85695000Y-74857064D01*
X144426600Y-56533660D02*
X144426600Y-56218700D01*
X150573400Y-56218700D02*
X150573400Y-56533660D01*
X150573400Y-61466340D02*
X150573400Y-61781300D01*
X150573400Y-61781300D02*
X144426600Y-61781300D01*
X144426600Y-61781300D02*
X144426600Y-61466340D01*
X144426600Y-56218700D02*
X150573400Y-56218700D01*
X59604437Y-53032500D02*
X61290000Y-53032500D01*
X60290000Y-51792500D02*
X60290000Y-52792500D01*
X59604437Y-53032500D02*
X58540000Y-54096937D01*
X65995563Y-53032500D02*
X67060000Y-54096937D01*
X59790000Y-52292500D02*
X60790000Y-52292500D01*
X65995563Y-53032500D02*
X64310000Y-53032500D01*
X67060000Y-54096937D02*
X67060000Y-61552500D01*
X58540000Y-61552500D02*
X61290000Y-61552500D01*
X67060000Y-61552500D02*
X64310000Y-61552500D01*
X58540000Y-54096937D02*
X58540000Y-61552500D01*
X84050000Y-63200000D02*
X84050000Y-67100000D01*
X84050000Y-63200000D02*
X86050000Y-63200000D01*
X86050000Y-63200000D02*
X86050000Y-67100000D01*
X89647936Y-76235000D02*
X94002064Y-76235000D01*
X89647936Y-72815000D02*
X94002064Y-72815000D01*
X105770000Y-45720000D02*
X105770000Y-45990000D01*
X105770000Y-45990000D02*
X108600000Y-45990000D01*
X105770000Y-52620000D02*
X105770000Y-52350000D01*
X104270000Y-52620000D02*
X105770000Y-52620000D01*
X105770000Y-52350000D02*
X106870000Y-52350000D01*
X104270000Y-45720000D02*
X105770000Y-45720000D01*
X114647936Y-70610000D02*
X115102064Y-70610000D01*
X114647936Y-69140000D02*
X115102064Y-69140000D01*
X107575000Y-54925000D02*
X106975000Y-54925000D01*
X107575000Y-57825000D02*
X107575000Y-54925000D01*
X104375000Y-57825000D02*
X104375000Y-54925000D01*
X106175000Y-58925000D02*
X105775000Y-58925000D01*
X107775000Y-58725000D02*
X107775000Y-59425000D01*
X104375000Y-54925000D02*
X104975000Y-54925000D01*
X107775000Y-59425000D02*
X107075000Y-59425000D01*
X152000000Y-73030000D02*
X152000000Y-62870000D01*
X153000000Y-73030000D02*
X143000000Y-73030000D01*
X143000000Y-62870000D02*
X153000000Y-62870000D01*
X153000000Y-62870000D02*
X153000000Y-73030000D01*
X143000000Y-73030000D02*
X143000000Y-62870000D01*
%LPC*%
D14*
X127800000Y-74337500D03*
X127800000Y-72262500D03*
D15*
X140800000Y-74037500D03*
X140800000Y-71962500D03*
D14*
X140800000Y-68937500D03*
X140800000Y-66862500D03*
D16*
X151500000Y-48500000D03*
X58500000Y-76500000D03*
D17*
X137300000Y-49500000D03*
X137300000Y-58300000D03*
D18*
X130300000Y-56400000D03*
X130300000Y-53900000D03*
X130300000Y-51400000D03*
X130300000Y-68700000D03*
X130300000Y-71200000D03*
X130300000Y-73700000D03*
D17*
X137300000Y-75600000D03*
X137300000Y-66800000D03*
D19*
X123425000Y-53725000D03*
D20*
X123425000Y-56265000D03*
X123425000Y-58805000D03*
X123425000Y-61345000D03*
X123425000Y-63885000D03*
X123425000Y-66425000D03*
X123425000Y-68965000D03*
X123425000Y-71505000D03*
D16*
X58500000Y-48500000D03*
X151500000Y-76500000D03*
D21*
X100775000Y-67600000D03*
X100775000Y-65100000D03*
X100775000Y-62600000D03*
X100775000Y-60100000D03*
X100775000Y-57600000D03*
X119075000Y-57600000D03*
X119075000Y-60100000D03*
X119075000Y-62600000D03*
X119075000Y-65100000D03*
X119075000Y-67600000D03*
D22*
X111025000Y-54600000D03*
X111025000Y-70600000D03*
D23*
X74060000Y-65625000D03*
D24*
X76600000Y-74775000D03*
D23*
X79140000Y-65625000D03*
D25*
X91950000Y-63192500D03*
X91950000Y-69692500D03*
D26*
X106950000Y-67475000D03*
D27*
X105950000Y-64225000D03*
D26*
X104950000Y-67475000D03*
D28*
X142275000Y-52937500D03*
X142275000Y-54662500D03*
D29*
X109950000Y-66075000D03*
X109950000Y-64075000D03*
D23*
X80000000Y-59325000D03*
X78300000Y-59325000D03*
D24*
X76600000Y-50175000D03*
D23*
X76600000Y-59325000D03*
X74900000Y-59325000D03*
X73200000Y-59325000D03*
D30*
X126600000Y-52600000D03*
X126600000Y-54600000D03*
D31*
X151912500Y-54750000D03*
X150087500Y-54750000D03*
D32*
X86087500Y-61000000D03*
X84012500Y-61000000D03*
D33*
X144850000Y-54750000D03*
X144850000Y-53800000D03*
X144850000Y-52850000D03*
X147550000Y-52850000D03*
X147550000Y-53800000D03*
X147550000Y-54750000D03*
D34*
X133000000Y-70912500D03*
X133000000Y-69087500D03*
D29*
X126625000Y-58575000D03*
X126625000Y-56575000D03*
D31*
X147087500Y-50375000D03*
X145262500Y-50375000D03*
D35*
X86050000Y-69600000D03*
X84050000Y-69600000D03*
D36*
X62150000Y-70500000D03*
D22*
X62150000Y-65420000D03*
D29*
X98298000Y-61960000D03*
X98298000Y-59960000D03*
D37*
X90000000Y-48050000D03*
X90000000Y-57950000D03*
D26*
X115875000Y-67425000D03*
D27*
X114875000Y-64175000D03*
D26*
X113875000Y-67425000D03*
D14*
X69000000Y-60850000D03*
X69000000Y-58775000D03*
X98298000Y-66315500D03*
X98298000Y-64240500D03*
D38*
X113875000Y-60900000D03*
X115875000Y-60900000D03*
D30*
X97275000Y-73550000D03*
X97275000Y-75550000D03*
D38*
X104950000Y-69875000D03*
X106950000Y-69875000D03*
D26*
X115875000Y-58725000D03*
D27*
X114875000Y-55475000D03*
D26*
X113875000Y-58725000D03*
D38*
X104975000Y-60900000D03*
X106975000Y-60900000D03*
D30*
X86430000Y-73630000D03*
X86430000Y-75630000D03*
D39*
X144579000Y-59635000D03*
X144579000Y-60905000D03*
X144579000Y-58365000D03*
X144579000Y-57095000D03*
X150421000Y-58365000D03*
D40*
X148100000Y-59000000D03*
D39*
X150421000Y-60905000D03*
X150421000Y-57095000D03*
X150421000Y-59635000D03*
D25*
X62800000Y-54042500D03*
X62800000Y-60542500D03*
D41*
X85050000Y-63800000D03*
X85050000Y-67100000D03*
D42*
X88775000Y-74525000D03*
X94875000Y-74525000D03*
D43*
X107500000Y-46890000D03*
D44*
X101200000Y-49170000D03*
D43*
X107500000Y-51450000D03*
D38*
X113875000Y-69875000D03*
X115875000Y-69875000D03*
D26*
X106975000Y-58625000D03*
D27*
X105975000Y-55375000D03*
D26*
X104975000Y-58625000D03*
D22*
X148000000Y-70490000D03*
D36*
X148000000Y-65410000D03*
M02*
