G04 #@! TF.GenerationSoftware,KiCad,Pcbnew,(6.0.9)*
G04 #@! TF.CreationDate,2022-11-14T17:40:54+01:00*
G04 #@! TF.ProjectId,HeaterPSU,48656174-6572-4505-9355-2e6b69636164,rev?*
G04 #@! TF.SameCoordinates,Original*
G04 #@! TF.FileFunction,Legend,Top*
G04 #@! TF.FilePolarity,Positive*
%FSLAX46Y46*%
G04 Gerber Fmt 4.6, Leading zero omitted, Abs format (unit mm)*
G04 Created by KiCad (PCBNEW (6.0.9)) date 2022-11-14 17:40:54*
%MOMM*%
%LPD*%
G01*
G04 APERTURE LIST*
G04 Aperture macros list*
%AMRoundRect*
0 Rectangle with rounded corners*
0 $1 Rounding radius*
0 $2 $3 $4 $5 $6 $7 $8 $9 X,Y pos of 4 corners*
0 Add a 4 corners polygon primitive as box body*
4,1,4,$2,$3,$4,$5,$6,$7,$8,$9,$2,$3,0*
0 Add four circle primitives for the rounded corners*
1,1,$1+$1,$2,$3*
1,1,$1+$1,$4,$5*
1,1,$1+$1,$6,$7*
1,1,$1+$1,$8,$9*
0 Add four rect primitives between the rounded corners*
20,1,$1+$1,$2,$3,$4,$5,0*
20,1,$1+$1,$4,$5,$6,$7,0*
20,1,$1+$1,$6,$7,$8,$9,0*
20,1,$1+$1,$8,$9,$2,$3,0*%
G04 Aperture macros list end*
%ADD10C,0.100000*%
%ADD11C,0.300000*%
%ADD12C,0.150000*%
%ADD13C,0.120000*%
%ADD14C,0.200000*%
%ADD15C,2.200000*%
%ADD16C,3.200000*%
%ADD17RoundRect,0.250000X-0.350000X-0.450000X0.350000X-0.450000X0.350000X0.450000X-0.350000X0.450000X0*%
%ADD18R,1.100000X4.600000*%
%ADD19R,10.800000X9.400000*%
%ADD20C,1.800000*%
%ADD21C,4.000000*%
%ADD22R,1.800000X2.500000*%
%ADD23R,1.700000X1.700000*%
%ADD24O,1.700000X1.700000*%
%ADD25RoundRect,0.250000X0.337500X0.475000X-0.337500X0.475000X-0.337500X-0.475000X0.337500X-0.475000X0*%
%ADD26RoundRect,0.137500X-0.662500X-0.137500X0.662500X-0.137500X0.662500X0.137500X-0.662500X0.137500X0*%
%ADD27RoundRect,0.250000X0.400000X1.075000X-0.400000X1.075000X-0.400000X-1.075000X0.400000X-1.075000X0*%
%ADD28RoundRect,0.250000X-0.450000X0.350000X-0.450000X-0.350000X0.450000X-0.350000X0.450000X0.350000X0*%
%ADD29C,3.000000*%
%ADD30C,1.400000*%
%ADD31RoundRect,0.250000X0.350000X0.450000X-0.350000X0.450000X-0.350000X-0.450000X0.350000X-0.450000X0*%
%ADD32R,1.200000X0.900000*%
%ADD33RoundRect,0.250000X0.450000X-0.350000X0.450000X0.350000X-0.450000X0.350000X-0.450000X-0.350000X0*%
%ADD34RoundRect,0.070000X0.300000X-0.650000X0.300000X0.650000X-0.300000X0.650000X-0.300000X-0.650000X0*%
%ADD35R,2.500000X2.500000*%
%ADD36O,2.500000X2.500000*%
%ADD37R,1.550000X1.550000*%
%ADD38C,1.550000*%
%ADD39R,3.000000X3.000000*%
%ADD40O,2.200000X1.700000*%
%ADD41R,2.200000X1.700000*%
G04 APERTURE END LIST*
D10*
X96888095Y-68711904D02*
X96621428Y-68330952D01*
X96430952Y-68711904D02*
X96430952Y-67911904D01*
X96735714Y-67911904D01*
X96811904Y-67950000D01*
X96850000Y-67988095D01*
X96888095Y-68064285D01*
X96888095Y-68178571D01*
X96850000Y-68254761D01*
X96811904Y-68292857D01*
X96735714Y-68330952D01*
X96430952Y-68330952D01*
X97611904Y-68711904D02*
X97230952Y-68711904D01*
X97230952Y-67911904D01*
X98030952Y-68330952D02*
X98030952Y-68711904D01*
X97764285Y-67911904D02*
X98030952Y-68330952D01*
X98297619Y-67911904D01*
X88378571Y-65742857D02*
X88111905Y-65742857D01*
X88111905Y-66161904D02*
X88111905Y-65361904D01*
X88492857Y-65361904D01*
X88797619Y-66161904D02*
X88797619Y-65361904D01*
X88797619Y-65742857D02*
X89254762Y-65742857D01*
X89254762Y-66161904D02*
X89254762Y-65361904D01*
X89521429Y-65361904D02*
X89788095Y-66161904D01*
X90054762Y-65361904D01*
D11*
X74100000Y-52435714D02*
X74171428Y-52507142D01*
X74100000Y-52578571D01*
X74028571Y-52507142D01*
X74100000Y-52435714D01*
X74100000Y-52578571D01*
D10*
X96707142Y-63292857D02*
X96440476Y-63292857D01*
X96440476Y-63711904D02*
X96440476Y-62911904D01*
X96821428Y-62911904D01*
X97126190Y-63711904D02*
X97126190Y-62911904D01*
X97126190Y-63292857D02*
X97583333Y-63292857D01*
X97583333Y-63711904D02*
X97583333Y-62911904D01*
X97926190Y-63483333D02*
X98307142Y-63483333D01*
X97850000Y-63711904D02*
X98116666Y-62911904D01*
X98383333Y-63711904D01*
D12*
X93742857Y-74002380D02*
X93742857Y-73002380D01*
X94076190Y-73716666D01*
X94409523Y-73002380D01*
X94409523Y-74002380D01*
X95457142Y-73907142D02*
X95409523Y-73954761D01*
X95266666Y-74002380D01*
X95171428Y-74002380D01*
X95028571Y-73954761D01*
X94933333Y-73859523D01*
X94885714Y-73764285D01*
X94838095Y-73573809D01*
X94838095Y-73430952D01*
X94885714Y-73240476D01*
X94933333Y-73145238D01*
X95028571Y-73050000D01*
X95171428Y-73002380D01*
X95266666Y-73002380D01*
X95409523Y-73050000D01*
X95457142Y-73097619D01*
X95885714Y-73002380D02*
X95885714Y-73811904D01*
X95933333Y-73907142D01*
X95980952Y-73954761D01*
X96076190Y-74002380D01*
X96266666Y-74002380D01*
X96361904Y-73954761D01*
X96409523Y-73907142D01*
X96457142Y-73811904D01*
X96457142Y-73002380D01*
D10*
X96459523Y-71361904D02*
X96459523Y-70561904D01*
X96459523Y-70942857D02*
X96916666Y-70942857D01*
X96916666Y-71361904D02*
X96916666Y-70561904D01*
X97259523Y-71323809D02*
X97373809Y-71361904D01*
X97564285Y-71361904D01*
X97640476Y-71323809D01*
X97678571Y-71285714D01*
X97716666Y-71209523D01*
X97716666Y-71133333D01*
X97678571Y-71057142D01*
X97640476Y-71019047D01*
X97564285Y-70980952D01*
X97411904Y-70942857D01*
X97335714Y-70904761D01*
X97297619Y-70866666D01*
X97259523Y-70790476D01*
X97259523Y-70714285D01*
X97297619Y-70638095D01*
X97335714Y-70600000D01*
X97411904Y-70561904D01*
X97602380Y-70561904D01*
X97716666Y-70600000D01*
X98478571Y-71361904D02*
X98021428Y-71361904D01*
X98250000Y-71361904D02*
X98250000Y-70561904D01*
X98173809Y-70676190D01*
X98097619Y-70752380D01*
X98021428Y-70790476D01*
X87959523Y-68711904D02*
X87959523Y-67911904D01*
X87959523Y-68292857D02*
X88416666Y-68292857D01*
X88416666Y-68711904D02*
X88416666Y-67911904D01*
X88759523Y-68673809D02*
X88873809Y-68711904D01*
X89064285Y-68711904D01*
X89140476Y-68673809D01*
X89178571Y-68635714D01*
X89216666Y-68559523D01*
X89216666Y-68483333D01*
X89178571Y-68407142D01*
X89140476Y-68369047D01*
X89064285Y-68330952D01*
X88911904Y-68292857D01*
X88835714Y-68254761D01*
X88797619Y-68216666D01*
X88759523Y-68140476D01*
X88759523Y-68064285D01*
X88797619Y-67988095D01*
X88835714Y-67950000D01*
X88911904Y-67911904D01*
X89102380Y-67911904D01*
X89216666Y-67950000D01*
X89521428Y-67988095D02*
X89559523Y-67950000D01*
X89635714Y-67911904D01*
X89826190Y-67911904D01*
X89902380Y-67950000D01*
X89940476Y-67988095D01*
X89978571Y-68064285D01*
X89978571Y-68140476D01*
X89940476Y-68254761D01*
X89483333Y-68711904D01*
X89978571Y-68711904D01*
X87121429Y-71207142D02*
X87730953Y-71207142D01*
X87426191Y-71511904D02*
X87426191Y-70902380D01*
X88530953Y-71511904D02*
X88073810Y-71511904D01*
X88302381Y-71511904D02*
X88302381Y-70711904D01*
X88226191Y-70826190D01*
X88150000Y-70902380D01*
X88073810Y-70940476D01*
X88911905Y-71511904D02*
X89064286Y-71511904D01*
X89140476Y-71473809D01*
X89178572Y-71435714D01*
X89254762Y-71321428D01*
X89292857Y-71169047D01*
X89292857Y-70864285D01*
X89254762Y-70788095D01*
X89216667Y-70750000D01*
X89140476Y-70711904D01*
X88988095Y-70711904D01*
X88911905Y-70750000D01*
X88873810Y-70788095D01*
X88835714Y-70864285D01*
X88835714Y-71054761D01*
X88873810Y-71130952D01*
X88911905Y-71169047D01*
X88988095Y-71207142D01*
X89140476Y-71207142D01*
X89216667Y-71169047D01*
X89254762Y-71130952D01*
X89292857Y-71054761D01*
X89521429Y-70711904D02*
X89788095Y-71511904D01*
X90054762Y-70711904D01*
X89026190Y-62861904D02*
X89102381Y-62861904D01*
X89178571Y-62900000D01*
X89216666Y-62938095D01*
X89254762Y-63014285D01*
X89292857Y-63166666D01*
X89292857Y-63357142D01*
X89254762Y-63509523D01*
X89216666Y-63585714D01*
X89178571Y-63623809D01*
X89102381Y-63661904D01*
X89026190Y-63661904D01*
X88950000Y-63623809D01*
X88911904Y-63585714D01*
X88873809Y-63509523D01*
X88835714Y-63357142D01*
X88835714Y-63166666D01*
X88873809Y-63014285D01*
X88911904Y-62938095D01*
X88950000Y-62900000D01*
X89026190Y-62861904D01*
X89521428Y-62861904D02*
X89788095Y-63661904D01*
X90054762Y-62861904D01*
X96464286Y-66211904D02*
X96464286Y-65411904D01*
X96464286Y-65792857D02*
X96921429Y-65792857D01*
X96921429Y-66211904D02*
X96921429Y-65411904D01*
X97302381Y-65792857D02*
X97569048Y-65792857D01*
X97683333Y-66211904D02*
X97302381Y-66211904D01*
X97302381Y-65411904D01*
X97683333Y-65411904D01*
X98026190Y-66211904D02*
X98026190Y-65411904D01*
X98483333Y-66211904D01*
X98483333Y-65411904D01*
D11*
X74100000Y-57235714D02*
X74171428Y-57307142D01*
X74100000Y-57378571D01*
X74028571Y-57307142D01*
X74100000Y-57235714D01*
X74100000Y-57378571D01*
D10*
X123904761Y-65861904D02*
X123638095Y-65480952D01*
X123447619Y-65861904D02*
X123447619Y-65061904D01*
X123752380Y-65061904D01*
X123828571Y-65100000D01*
X123866666Y-65138095D01*
X123904761Y-65214285D01*
X123904761Y-65328571D01*
X123866666Y-65404761D01*
X123828571Y-65442857D01*
X123752380Y-65480952D01*
X123447619Y-65480952D01*
X124209523Y-65138095D02*
X124247619Y-65100000D01*
X124323809Y-65061904D01*
X124514285Y-65061904D01*
X124590476Y-65100000D01*
X124628571Y-65138095D01*
X124666666Y-65214285D01*
X124666666Y-65290476D01*
X124628571Y-65404761D01*
X124171428Y-65861904D01*
X124666666Y-65861904D01*
X125161904Y-65061904D02*
X125238095Y-65061904D01*
X125314285Y-65100000D01*
X125352380Y-65138095D01*
X125390476Y-65214285D01*
X125428571Y-65366666D01*
X125428571Y-65557142D01*
X125390476Y-65709523D01*
X125352380Y-65785714D01*
X125314285Y-65823809D01*
X125238095Y-65861904D01*
X125161904Y-65861904D01*
X125085714Y-65823809D01*
X125047619Y-65785714D01*
X125009523Y-65709523D01*
X124971428Y-65557142D01*
X124971428Y-65366666D01*
X125009523Y-65214285D01*
X125047619Y-65138095D01*
X125085714Y-65100000D01*
X125161904Y-65061904D01*
X125733333Y-65138095D02*
X125771428Y-65100000D01*
X125847619Y-65061904D01*
X126038095Y-65061904D01*
X126114285Y-65100000D01*
X126152380Y-65138095D01*
X126190476Y-65214285D01*
X126190476Y-65290476D01*
X126152380Y-65404761D01*
X125695238Y-65861904D01*
X126190476Y-65861904D01*
D12*
X68447619Y-73447619D02*
X68400000Y-73542857D01*
X68304761Y-73638095D01*
X68161904Y-73780952D01*
X68114285Y-73876190D01*
X68114285Y-73971428D01*
X68352380Y-73923809D02*
X68304761Y-74019047D01*
X68209523Y-74114285D01*
X68019047Y-74161904D01*
X67685714Y-74161904D01*
X67495238Y-74114285D01*
X67400000Y-74019047D01*
X67352380Y-73923809D01*
X67352380Y-73733333D01*
X67400000Y-73638095D01*
X67495238Y-73542857D01*
X67685714Y-73495238D01*
X68019047Y-73495238D01*
X68209523Y-73542857D01*
X68304761Y-73638095D01*
X68352380Y-73733333D01*
X68352380Y-73923809D01*
X67447619Y-73114285D02*
X67400000Y-73066666D01*
X67352380Y-72971428D01*
X67352380Y-72733333D01*
X67400000Y-72638095D01*
X67447619Y-72590476D01*
X67542857Y-72542857D01*
X67638095Y-72542857D01*
X67780952Y-72590476D01*
X68352380Y-73161904D01*
X68352380Y-72542857D01*
X67352380Y-71923809D02*
X67352380Y-71828571D01*
X67400000Y-71733333D01*
X67447619Y-71685714D01*
X67542857Y-71638095D01*
X67733333Y-71590476D01*
X67971428Y-71590476D01*
X68161904Y-71638095D01*
X68257142Y-71685714D01*
X68304761Y-71733333D01*
X68352380Y-71828571D01*
X68352380Y-71923809D01*
X68304761Y-72019047D01*
X68257142Y-72066666D01*
X68161904Y-72114285D01*
X67971428Y-72161904D01*
X67733333Y-72161904D01*
X67542857Y-72114285D01*
X67447619Y-72066666D01*
X67400000Y-72019047D01*
X67352380Y-71923809D01*
X68352380Y-70638095D02*
X68352380Y-71209523D01*
X68352380Y-70923809D02*
X67352380Y-70923809D01*
X67495238Y-71019047D01*
X67590476Y-71114285D01*
X67638095Y-71209523D01*
X133402380Y-56452380D02*
X133069047Y-55976190D01*
X132830952Y-56452380D02*
X132830952Y-55452380D01*
X133211904Y-55452380D01*
X133307142Y-55500000D01*
X133354761Y-55547619D01*
X133402380Y-55642857D01*
X133402380Y-55785714D01*
X133354761Y-55880952D01*
X133307142Y-55928571D01*
X133211904Y-55976190D01*
X132830952Y-55976190D01*
X133688095Y-55452380D02*
X134021428Y-56452380D01*
X134354761Y-55452380D01*
X134640476Y-55547619D02*
X134688095Y-55500000D01*
X134783333Y-55452380D01*
X135021428Y-55452380D01*
X135116666Y-55500000D01*
X135164285Y-55547619D01*
X135211904Y-55642857D01*
X135211904Y-55738095D01*
X135164285Y-55880952D01*
X134592857Y-56452380D01*
X135211904Y-56452380D01*
X135830952Y-55452380D02*
X135926190Y-55452380D01*
X136021428Y-55500000D01*
X136069047Y-55547619D01*
X136116666Y-55642857D01*
X136164285Y-55833333D01*
X136164285Y-56071428D01*
X136116666Y-56261904D01*
X136069047Y-56357142D01*
X136021428Y-56404761D01*
X135926190Y-56452380D01*
X135830952Y-56452380D01*
X135735714Y-56404761D01*
X135688095Y-56357142D01*
X135640476Y-56261904D01*
X135592857Y-56071428D01*
X135592857Y-55833333D01*
X135640476Y-55642857D01*
X135688095Y-55547619D01*
X135735714Y-55500000D01*
X135830952Y-55452380D01*
X137116666Y-56452380D02*
X136545238Y-56452380D01*
X136830952Y-56452380D02*
X136830952Y-55452380D01*
X136735714Y-55595238D01*
X136640476Y-55690476D01*
X136545238Y-55738095D01*
X138344880Y-51897976D02*
X137344880Y-51897976D01*
X137344880Y-51659880D01*
X137392500Y-51517023D01*
X137487738Y-51421785D01*
X137582976Y-51374166D01*
X137773452Y-51326547D01*
X137916309Y-51326547D01*
X138106785Y-51374166D01*
X138202023Y-51421785D01*
X138297261Y-51517023D01*
X138344880Y-51659880D01*
X138344880Y-51897976D01*
X137440119Y-50945595D02*
X137392500Y-50897976D01*
X137344880Y-50802738D01*
X137344880Y-50564642D01*
X137392500Y-50469404D01*
X137440119Y-50421785D01*
X137535357Y-50374166D01*
X137630595Y-50374166D01*
X137773452Y-50421785D01*
X138344880Y-50993214D01*
X138344880Y-50374166D01*
X137344880Y-49755119D02*
X137344880Y-49659880D01*
X137392500Y-49564642D01*
X137440119Y-49517023D01*
X137535357Y-49469404D01*
X137725833Y-49421785D01*
X137963928Y-49421785D01*
X138154404Y-49469404D01*
X138249642Y-49517023D01*
X138297261Y-49564642D01*
X138344880Y-49659880D01*
X138344880Y-49755119D01*
X138297261Y-49850357D01*
X138249642Y-49897976D01*
X138154404Y-49945595D01*
X137963928Y-49993214D01*
X137725833Y-49993214D01*
X137535357Y-49945595D01*
X137440119Y-49897976D01*
X137392500Y-49850357D01*
X137344880Y-49755119D01*
X137344880Y-48517023D02*
X137344880Y-48993214D01*
X137821071Y-49040833D01*
X137773452Y-48993214D01*
X137725833Y-48897976D01*
X137725833Y-48659880D01*
X137773452Y-48564642D01*
X137821071Y-48517023D01*
X137916309Y-48469404D01*
X138154404Y-48469404D01*
X138249642Y-48517023D01*
X138297261Y-48564642D01*
X138344880Y-48659880D01*
X138344880Y-48897976D01*
X138297261Y-48993214D01*
X138249642Y-49040833D01*
X90214285Y-73002380D02*
X90214285Y-73716666D01*
X90166666Y-73859523D01*
X90071428Y-73954761D01*
X89928571Y-74002380D01*
X89833333Y-74002380D01*
X90642857Y-73097619D02*
X90690476Y-73050000D01*
X90785714Y-73002380D01*
X91023809Y-73002380D01*
X91119047Y-73050000D01*
X91166666Y-73097619D01*
X91214285Y-73192857D01*
X91214285Y-73288095D01*
X91166666Y-73430952D01*
X90595238Y-74002380D01*
X91214285Y-74002380D01*
X91833333Y-73002380D02*
X91928571Y-73002380D01*
X92023809Y-73050000D01*
X92071428Y-73097619D01*
X92119047Y-73192857D01*
X92166666Y-73383333D01*
X92166666Y-73621428D01*
X92119047Y-73811904D01*
X92071428Y-73907142D01*
X92023809Y-73954761D01*
X91928571Y-74002380D01*
X91833333Y-74002380D01*
X91738095Y-73954761D01*
X91690476Y-73907142D01*
X91642857Y-73811904D01*
X91595238Y-73621428D01*
X91595238Y-73383333D01*
X91642857Y-73192857D01*
X91690476Y-73097619D01*
X91738095Y-73050000D01*
X91833333Y-73002380D01*
X93023809Y-73335714D02*
X93023809Y-74002380D01*
X92785714Y-72954761D02*
X92547619Y-73669047D01*
X93166666Y-73669047D01*
D10*
X88404761Y-58285714D02*
X88366666Y-58323809D01*
X88252380Y-58361904D01*
X88176190Y-58361904D01*
X88061904Y-58323809D01*
X87985714Y-58247619D01*
X87947619Y-58171428D01*
X87909523Y-58019047D01*
X87909523Y-57904761D01*
X87947619Y-57752380D01*
X87985714Y-57676190D01*
X88061904Y-57600000D01*
X88176190Y-57561904D01*
X88252380Y-57561904D01*
X88366666Y-57600000D01*
X88404761Y-57638095D01*
X88709523Y-57638095D02*
X88747619Y-57600000D01*
X88823809Y-57561904D01*
X89014285Y-57561904D01*
X89090476Y-57600000D01*
X89128571Y-57638095D01*
X89166666Y-57714285D01*
X89166666Y-57790476D01*
X89128571Y-57904761D01*
X88671428Y-58361904D01*
X89166666Y-58361904D01*
X89661904Y-57561904D02*
X89738095Y-57561904D01*
X89814285Y-57600000D01*
X89852380Y-57638095D01*
X89890476Y-57714285D01*
X89928571Y-57866666D01*
X89928571Y-58057142D01*
X89890476Y-58209523D01*
X89852380Y-58285714D01*
X89814285Y-58323809D01*
X89738095Y-58361904D01*
X89661904Y-58361904D01*
X89585714Y-58323809D01*
X89547619Y-58285714D01*
X89509523Y-58209523D01*
X89471428Y-58057142D01*
X89471428Y-57866666D01*
X89509523Y-57714285D01*
X89547619Y-57638095D01*
X89585714Y-57600000D01*
X89661904Y-57561904D01*
X90385714Y-57904761D02*
X90309523Y-57866666D01*
X90271428Y-57828571D01*
X90233333Y-57752380D01*
X90233333Y-57714285D01*
X90271428Y-57638095D01*
X90309523Y-57600000D01*
X90385714Y-57561904D01*
X90538095Y-57561904D01*
X90614285Y-57600000D01*
X90652380Y-57638095D01*
X90690476Y-57714285D01*
X90690476Y-57752380D01*
X90652380Y-57828571D01*
X90614285Y-57866666D01*
X90538095Y-57904761D01*
X90385714Y-57904761D01*
X90309523Y-57942857D01*
X90271428Y-57980952D01*
X90233333Y-58057142D01*
X90233333Y-58209523D01*
X90271428Y-58285714D01*
X90309523Y-58323809D01*
X90385714Y-58361904D01*
X90538095Y-58361904D01*
X90614285Y-58323809D01*
X90652380Y-58285714D01*
X90690476Y-58209523D01*
X90690476Y-58057142D01*
X90652380Y-57980952D01*
X90614285Y-57942857D01*
X90538095Y-57904761D01*
X73395654Y-55671428D02*
X74043273Y-55671428D01*
X74119464Y-55633333D01*
X74157559Y-55595238D01*
X74195654Y-55519047D01*
X74195654Y-55366666D01*
X74157559Y-55290476D01*
X74119464Y-55252380D01*
X74043273Y-55214285D01*
X73395654Y-55214285D01*
X73471845Y-54871428D02*
X73433750Y-54833333D01*
X73395654Y-54757142D01*
X73395654Y-54566666D01*
X73433750Y-54490476D01*
X73471845Y-54452380D01*
X73548035Y-54414285D01*
X73624226Y-54414285D01*
X73738511Y-54452380D01*
X74195654Y-54909523D01*
X74195654Y-54414285D01*
X73395654Y-53919047D02*
X73395654Y-53842857D01*
X73433750Y-53766666D01*
X73471845Y-53728571D01*
X73548035Y-53690476D01*
X73700416Y-53652380D01*
X73890892Y-53652380D01*
X74043273Y-53690476D01*
X74119464Y-53728571D01*
X74157559Y-53766666D01*
X74195654Y-53842857D01*
X74195654Y-53919047D01*
X74157559Y-53995238D01*
X74119464Y-54033333D01*
X74043273Y-54071428D01*
X73890892Y-54109523D01*
X73700416Y-54109523D01*
X73548035Y-54071428D01*
X73471845Y-54033333D01*
X73433750Y-53995238D01*
X73395654Y-53919047D01*
X73471845Y-53347619D02*
X73433750Y-53309523D01*
X73395654Y-53233333D01*
X73395654Y-53042857D01*
X73433750Y-52966666D01*
X73471845Y-52928571D01*
X73548035Y-52890476D01*
X73624226Y-52890476D01*
X73738511Y-52928571D01*
X74195654Y-53385714D01*
X74195654Y-52890476D01*
X88404761Y-53385714D02*
X88366666Y-53423809D01*
X88252380Y-53461904D01*
X88176190Y-53461904D01*
X88061904Y-53423809D01*
X87985714Y-53347619D01*
X87947619Y-53271428D01*
X87909523Y-53119047D01*
X87909523Y-53004761D01*
X87947619Y-52852380D01*
X87985714Y-52776190D01*
X88061904Y-52700000D01*
X88176190Y-52661904D01*
X88252380Y-52661904D01*
X88366666Y-52700000D01*
X88404761Y-52738095D01*
X88709523Y-52738095D02*
X88747619Y-52700000D01*
X88823809Y-52661904D01*
X89014285Y-52661904D01*
X89090476Y-52700000D01*
X89128571Y-52738095D01*
X89166666Y-52814285D01*
X89166666Y-52890476D01*
X89128571Y-53004761D01*
X88671428Y-53461904D01*
X89166666Y-53461904D01*
X89661904Y-52661904D02*
X89738095Y-52661904D01*
X89814285Y-52700000D01*
X89852380Y-52738095D01*
X89890476Y-52814285D01*
X89928571Y-52966666D01*
X89928571Y-53157142D01*
X89890476Y-53309523D01*
X89852380Y-53385714D01*
X89814285Y-53423809D01*
X89738095Y-53461904D01*
X89661904Y-53461904D01*
X89585714Y-53423809D01*
X89547619Y-53385714D01*
X89509523Y-53309523D01*
X89471428Y-53157142D01*
X89471428Y-52966666D01*
X89509523Y-52814285D01*
X89547619Y-52738095D01*
X89585714Y-52700000D01*
X89661904Y-52661904D01*
X90195238Y-52661904D02*
X90728571Y-52661904D01*
X90385714Y-53461904D01*
X64461904Y-59595238D02*
X64080952Y-59861904D01*
X64461904Y-60052380D02*
X63661904Y-60052380D01*
X63661904Y-59747619D01*
X63700000Y-59671428D01*
X63738095Y-59633333D01*
X63814285Y-59595238D01*
X63928571Y-59595238D01*
X64004761Y-59633333D01*
X64042857Y-59671428D01*
X64080952Y-59747619D01*
X64080952Y-60052380D01*
X63738095Y-59290476D02*
X63700000Y-59252380D01*
X63661904Y-59176190D01*
X63661904Y-58985714D01*
X63700000Y-58909523D01*
X63738095Y-58871428D01*
X63814285Y-58833333D01*
X63890476Y-58833333D01*
X64004761Y-58871428D01*
X64461904Y-59328571D01*
X64461904Y-58833333D01*
X64461904Y-58071428D02*
X64461904Y-58528571D01*
X64461904Y-58300000D02*
X63661904Y-58300000D01*
X63776190Y-58376190D01*
X63852380Y-58452380D01*
X63890476Y-58528571D01*
X63661904Y-57804761D02*
X63661904Y-57271428D01*
X64461904Y-57614285D01*
X86561904Y-66295238D02*
X86180952Y-66561904D01*
X86561904Y-66752380D02*
X85761904Y-66752380D01*
X85761904Y-66447619D01*
X85800000Y-66371428D01*
X85838095Y-66333333D01*
X85914285Y-66295238D01*
X86028571Y-66295238D01*
X86104761Y-66333333D01*
X86142857Y-66371428D01*
X86180952Y-66447619D01*
X86180952Y-66752380D01*
X85838095Y-65990476D02*
X85800000Y-65952380D01*
X85761904Y-65876190D01*
X85761904Y-65685714D01*
X85800000Y-65609523D01*
X85838095Y-65571428D01*
X85914285Y-65533333D01*
X85990476Y-65533333D01*
X86104761Y-65571428D01*
X86561904Y-66028571D01*
X86561904Y-65533333D01*
X85761904Y-65038095D02*
X85761904Y-64961904D01*
X85800000Y-64885714D01*
X85838095Y-64847619D01*
X85914285Y-64809523D01*
X86066666Y-64771428D01*
X86257142Y-64771428D01*
X86409523Y-64809523D01*
X86485714Y-64847619D01*
X86523809Y-64885714D01*
X86561904Y-64961904D01*
X86561904Y-65038095D01*
X86523809Y-65114285D01*
X86485714Y-65152380D01*
X86409523Y-65190476D01*
X86257142Y-65228571D01*
X86066666Y-65228571D01*
X85914285Y-65190476D01*
X85838095Y-65152380D01*
X85800000Y-65114285D01*
X85761904Y-65038095D01*
X85761904Y-64504761D02*
X85761904Y-64009523D01*
X86066666Y-64276190D01*
X86066666Y-64161904D01*
X86104761Y-64085714D01*
X86142857Y-64047619D01*
X86219047Y-64009523D01*
X86409523Y-64009523D01*
X86485714Y-64047619D01*
X86523809Y-64085714D01*
X86561904Y-64161904D01*
X86561904Y-64390476D01*
X86523809Y-64466666D01*
X86485714Y-64504761D01*
X64461904Y-55895238D02*
X64080952Y-56161904D01*
X64461904Y-56352380D02*
X63661904Y-56352380D01*
X63661904Y-56047619D01*
X63700000Y-55971428D01*
X63738095Y-55933333D01*
X63814285Y-55895238D01*
X63928571Y-55895238D01*
X64004761Y-55933333D01*
X64042857Y-55971428D01*
X64080952Y-56047619D01*
X64080952Y-56352380D01*
X63738095Y-55590476D02*
X63700000Y-55552380D01*
X63661904Y-55476190D01*
X63661904Y-55285714D01*
X63700000Y-55209523D01*
X63738095Y-55171428D01*
X63814285Y-55133333D01*
X63890476Y-55133333D01*
X64004761Y-55171428D01*
X64461904Y-55628571D01*
X64461904Y-55133333D01*
X64461904Y-54371428D02*
X64461904Y-54828571D01*
X64461904Y-54600000D02*
X63661904Y-54600000D01*
X63776190Y-54676190D01*
X63852380Y-54752380D01*
X63890476Y-54828571D01*
X63661904Y-53685714D02*
X63661904Y-53838095D01*
X63700000Y-53914285D01*
X63738095Y-53952380D01*
X63852380Y-54028571D01*
X64004761Y-54066666D01*
X64309523Y-54066666D01*
X64385714Y-54028571D01*
X64423809Y-53990476D01*
X64461904Y-53914285D01*
X64461904Y-53761904D01*
X64423809Y-53685714D01*
X64385714Y-53647619D01*
X64309523Y-53609523D01*
X64119047Y-53609523D01*
X64042857Y-53647619D01*
X64004761Y-53685714D01*
X63966666Y-53761904D01*
X63966666Y-53914285D01*
X64004761Y-53990476D01*
X64042857Y-54028571D01*
X64119047Y-54066666D01*
D12*
X108814285Y-73554761D02*
X108957142Y-73602380D01*
X109195238Y-73602380D01*
X109290476Y-73554761D01*
X109338095Y-73507142D01*
X109385714Y-73411904D01*
X109385714Y-73316666D01*
X109338095Y-73221428D01*
X109290476Y-73173809D01*
X109195238Y-73126190D01*
X109004761Y-73078571D01*
X108909523Y-73030952D01*
X108861904Y-72983333D01*
X108814285Y-72888095D01*
X108814285Y-72792857D01*
X108861904Y-72697619D01*
X108909523Y-72650000D01*
X109004761Y-72602380D01*
X109242857Y-72602380D01*
X109385714Y-72650000D01*
X109719047Y-72602380D02*
X109957142Y-73602380D01*
X110147619Y-72888095D01*
X110338095Y-73602380D01*
X110576190Y-72602380D01*
X110909523Y-72697619D02*
X110957142Y-72650000D01*
X111052380Y-72602380D01*
X111290476Y-72602380D01*
X111385714Y-72650000D01*
X111433333Y-72697619D01*
X111480952Y-72792857D01*
X111480952Y-72888095D01*
X111433333Y-73030952D01*
X110861904Y-73602380D01*
X111480952Y-73602380D01*
X112100000Y-72602380D02*
X112195238Y-72602380D01*
X112290476Y-72650000D01*
X112338095Y-72697619D01*
X112385714Y-72792857D01*
X112433333Y-72983333D01*
X112433333Y-73221428D01*
X112385714Y-73411904D01*
X112338095Y-73507142D01*
X112290476Y-73554761D01*
X112195238Y-73602380D01*
X112100000Y-73602380D01*
X112004761Y-73554761D01*
X111957142Y-73507142D01*
X111909523Y-73411904D01*
X111861904Y-73221428D01*
X111861904Y-72983333D01*
X111909523Y-72792857D01*
X111957142Y-72697619D01*
X112004761Y-72650000D01*
X112100000Y-72602380D01*
X113385714Y-73602380D02*
X112814285Y-73602380D01*
X113100000Y-73602380D02*
X113100000Y-72602380D01*
X113004761Y-72745238D01*
X112909523Y-72840476D01*
X112814285Y-72888095D01*
D10*
X88404761Y-60761904D02*
X88138095Y-60380952D01*
X87947619Y-60761904D02*
X87947619Y-59961904D01*
X88252380Y-59961904D01*
X88328571Y-60000000D01*
X88366666Y-60038095D01*
X88404761Y-60114285D01*
X88404761Y-60228571D01*
X88366666Y-60304761D01*
X88328571Y-60342857D01*
X88252380Y-60380952D01*
X87947619Y-60380952D01*
X88709523Y-60038095D02*
X88747619Y-60000000D01*
X88823809Y-59961904D01*
X89014285Y-59961904D01*
X89090476Y-60000000D01*
X89128571Y-60038095D01*
X89166666Y-60114285D01*
X89166666Y-60190476D01*
X89128571Y-60304761D01*
X88671428Y-60761904D01*
X89166666Y-60761904D01*
X89471428Y-60038095D02*
X89509523Y-60000000D01*
X89585714Y-59961904D01*
X89776190Y-59961904D01*
X89852380Y-60000000D01*
X89890476Y-60038095D01*
X89928571Y-60114285D01*
X89928571Y-60190476D01*
X89890476Y-60304761D01*
X89433333Y-60761904D01*
X89928571Y-60761904D01*
X90423809Y-59961904D02*
X90500000Y-59961904D01*
X90576190Y-60000000D01*
X90614285Y-60038095D01*
X90652380Y-60114285D01*
X90690476Y-60266666D01*
X90690476Y-60457142D01*
X90652380Y-60609523D01*
X90614285Y-60685714D01*
X90576190Y-60723809D01*
X90500000Y-60761904D01*
X90423809Y-60761904D01*
X90347619Y-60723809D01*
X90309523Y-60685714D01*
X90271428Y-60609523D01*
X90233333Y-60457142D01*
X90233333Y-60266666D01*
X90271428Y-60114285D01*
X90309523Y-60038095D01*
X90347619Y-60000000D01*
X90423809Y-59961904D01*
X73395654Y-60471428D02*
X74043273Y-60471428D01*
X74119464Y-60433333D01*
X74157559Y-60395238D01*
X74195654Y-60319047D01*
X74195654Y-60166666D01*
X74157559Y-60090476D01*
X74119464Y-60052380D01*
X74043273Y-60014285D01*
X73395654Y-60014285D01*
X73471845Y-59671428D02*
X73433750Y-59633333D01*
X73395654Y-59557142D01*
X73395654Y-59366666D01*
X73433750Y-59290476D01*
X73471845Y-59252380D01*
X73548035Y-59214285D01*
X73624226Y-59214285D01*
X73738511Y-59252380D01*
X74195654Y-59709523D01*
X74195654Y-59214285D01*
X73395654Y-58719047D02*
X73395654Y-58642857D01*
X73433750Y-58566666D01*
X73471845Y-58528571D01*
X73548035Y-58490476D01*
X73700416Y-58452380D01*
X73890892Y-58452380D01*
X74043273Y-58490476D01*
X74119464Y-58528571D01*
X74157559Y-58566666D01*
X74195654Y-58642857D01*
X74195654Y-58719047D01*
X74157559Y-58795238D01*
X74119464Y-58833333D01*
X74043273Y-58871428D01*
X73890892Y-58909523D01*
X73700416Y-58909523D01*
X73548035Y-58871428D01*
X73471845Y-58833333D01*
X73433750Y-58795238D01*
X73395654Y-58719047D01*
X73395654Y-58185714D02*
X73395654Y-57690476D01*
X73700416Y-57957142D01*
X73700416Y-57842857D01*
X73738511Y-57766666D01*
X73776607Y-57728571D01*
X73852797Y-57690476D01*
X74043273Y-57690476D01*
X74119464Y-57728571D01*
X74157559Y-57766666D01*
X74195654Y-57842857D01*
X74195654Y-58071428D01*
X74157559Y-58147619D01*
X74119464Y-58185714D01*
X123904761Y-69061904D02*
X123638095Y-68680952D01*
X123447619Y-69061904D02*
X123447619Y-68261904D01*
X123752380Y-68261904D01*
X123828571Y-68300000D01*
X123866666Y-68338095D01*
X123904761Y-68414285D01*
X123904761Y-68528571D01*
X123866666Y-68604761D01*
X123828571Y-68642857D01*
X123752380Y-68680952D01*
X123447619Y-68680952D01*
X124209523Y-68338095D02*
X124247619Y-68300000D01*
X124323809Y-68261904D01*
X124514285Y-68261904D01*
X124590476Y-68300000D01*
X124628571Y-68338095D01*
X124666666Y-68414285D01*
X124666666Y-68490476D01*
X124628571Y-68604761D01*
X124171428Y-69061904D01*
X124666666Y-69061904D01*
X125428571Y-69061904D02*
X124971428Y-69061904D01*
X125200000Y-69061904D02*
X125200000Y-68261904D01*
X125123809Y-68376190D01*
X125047619Y-68452380D01*
X124971428Y-68490476D01*
X126190476Y-69061904D02*
X125733333Y-69061904D01*
X125961904Y-69061904D02*
X125961904Y-68261904D01*
X125885714Y-68376190D01*
X125809523Y-68452380D01*
X125733333Y-68490476D01*
X70861904Y-59995238D02*
X70480952Y-60261904D01*
X70861904Y-60452380D02*
X70061904Y-60452380D01*
X70061904Y-60147619D01*
X70100000Y-60071428D01*
X70138095Y-60033333D01*
X70214285Y-59995238D01*
X70328571Y-59995238D01*
X70404761Y-60033333D01*
X70442857Y-60071428D01*
X70480952Y-60147619D01*
X70480952Y-60452380D01*
X70138095Y-59690476D02*
X70100000Y-59652380D01*
X70061904Y-59576190D01*
X70061904Y-59385714D01*
X70100000Y-59309523D01*
X70138095Y-59271428D01*
X70214285Y-59233333D01*
X70290476Y-59233333D01*
X70404761Y-59271428D01*
X70861904Y-59728571D01*
X70861904Y-59233333D01*
X70861904Y-58471428D02*
X70861904Y-58928571D01*
X70861904Y-58700000D02*
X70061904Y-58700000D01*
X70176190Y-58776190D01*
X70252380Y-58852380D01*
X70290476Y-58928571D01*
X70861904Y-58090476D02*
X70861904Y-57938095D01*
X70823809Y-57861904D01*
X70785714Y-57823809D01*
X70671428Y-57747619D01*
X70519047Y-57709523D01*
X70214285Y-57709523D01*
X70138095Y-57747619D01*
X70100000Y-57785714D01*
X70061904Y-57861904D01*
X70061904Y-58014285D01*
X70100000Y-58090476D01*
X70138095Y-58128571D01*
X70214285Y-58166666D01*
X70404761Y-58166666D01*
X70480952Y-58128571D01*
X70519047Y-58090476D01*
X70557142Y-58014285D01*
X70557142Y-57861904D01*
X70519047Y-57785714D01*
X70480952Y-57747619D01*
X70404761Y-57709523D01*
X70661904Y-55602380D02*
X69861904Y-55602380D01*
X69861904Y-55411904D01*
X69900000Y-55297619D01*
X69976190Y-55221428D01*
X70052380Y-55183333D01*
X70204761Y-55145238D01*
X70319047Y-55145238D01*
X70471428Y-55183333D01*
X70547619Y-55221428D01*
X70623809Y-55297619D01*
X70661904Y-55411904D01*
X70661904Y-55602380D01*
X69938095Y-54840476D02*
X69900000Y-54802380D01*
X69861904Y-54726190D01*
X69861904Y-54535714D01*
X69900000Y-54459523D01*
X69938095Y-54421428D01*
X70014285Y-54383333D01*
X70090476Y-54383333D01*
X70204761Y-54421428D01*
X70661904Y-54878571D01*
X70661904Y-54383333D01*
X69861904Y-53888095D02*
X69861904Y-53811904D01*
X69900000Y-53735714D01*
X69938095Y-53697619D01*
X70014285Y-53659523D01*
X70166666Y-53621428D01*
X70357142Y-53621428D01*
X70509523Y-53659523D01*
X70585714Y-53697619D01*
X70623809Y-53735714D01*
X70661904Y-53811904D01*
X70661904Y-53888095D01*
X70623809Y-53964285D01*
X70585714Y-54002380D01*
X70509523Y-54040476D01*
X70357142Y-54078571D01*
X70166666Y-54078571D01*
X70014285Y-54040476D01*
X69938095Y-54002380D01*
X69900000Y-53964285D01*
X69861904Y-53888095D01*
X69861904Y-52935714D02*
X69861904Y-53088095D01*
X69900000Y-53164285D01*
X69938095Y-53202380D01*
X70052380Y-53278571D01*
X70204761Y-53316666D01*
X70509523Y-53316666D01*
X70585714Y-53278571D01*
X70623809Y-53240476D01*
X70661904Y-53164285D01*
X70661904Y-53011904D01*
X70623809Y-52935714D01*
X70585714Y-52897619D01*
X70509523Y-52859523D01*
X70319047Y-52859523D01*
X70242857Y-52897619D01*
X70204761Y-52935714D01*
X70166666Y-53011904D01*
X70166666Y-53164285D01*
X70204761Y-53240476D01*
X70242857Y-53278571D01*
X70319047Y-53316666D01*
X80961904Y-66752380D02*
X80161904Y-66752380D01*
X80161904Y-66561904D01*
X80200000Y-66447619D01*
X80276190Y-66371428D01*
X80352380Y-66333333D01*
X80504761Y-66295238D01*
X80619047Y-66295238D01*
X80771428Y-66333333D01*
X80847619Y-66371428D01*
X80923809Y-66447619D01*
X80961904Y-66561904D01*
X80961904Y-66752380D01*
X80238095Y-65990476D02*
X80200000Y-65952380D01*
X80161904Y-65876190D01*
X80161904Y-65685714D01*
X80200000Y-65609523D01*
X80238095Y-65571428D01*
X80314285Y-65533333D01*
X80390476Y-65533333D01*
X80504761Y-65571428D01*
X80961904Y-66028571D01*
X80961904Y-65533333D01*
X80161904Y-65038095D02*
X80161904Y-64961904D01*
X80200000Y-64885714D01*
X80238095Y-64847619D01*
X80314285Y-64809523D01*
X80466666Y-64771428D01*
X80657142Y-64771428D01*
X80809523Y-64809523D01*
X80885714Y-64847619D01*
X80923809Y-64885714D01*
X80961904Y-64961904D01*
X80961904Y-65038095D01*
X80923809Y-65114285D01*
X80885714Y-65152380D01*
X80809523Y-65190476D01*
X80657142Y-65228571D01*
X80466666Y-65228571D01*
X80314285Y-65190476D01*
X80238095Y-65152380D01*
X80200000Y-65114285D01*
X80161904Y-65038095D01*
X80961904Y-64009523D02*
X80961904Y-64466666D01*
X80961904Y-64238095D02*
X80161904Y-64238095D01*
X80276190Y-64314285D01*
X80352380Y-64390476D01*
X80390476Y-64466666D01*
X86561904Y-71295238D02*
X86180952Y-71561904D01*
X86561904Y-71752380D02*
X85761904Y-71752380D01*
X85761904Y-71447619D01*
X85800000Y-71371428D01*
X85838095Y-71333333D01*
X85914285Y-71295238D01*
X86028571Y-71295238D01*
X86104761Y-71333333D01*
X86142857Y-71371428D01*
X86180952Y-71447619D01*
X86180952Y-71752380D01*
X85838095Y-70990476D02*
X85800000Y-70952380D01*
X85761904Y-70876190D01*
X85761904Y-70685714D01*
X85800000Y-70609523D01*
X85838095Y-70571428D01*
X85914285Y-70533333D01*
X85990476Y-70533333D01*
X86104761Y-70571428D01*
X86561904Y-71028571D01*
X86561904Y-70533333D01*
X85761904Y-70038095D02*
X85761904Y-69961904D01*
X85800000Y-69885714D01*
X85838095Y-69847619D01*
X85914285Y-69809523D01*
X86066666Y-69771428D01*
X86257142Y-69771428D01*
X86409523Y-69809523D01*
X86485714Y-69847619D01*
X86523809Y-69885714D01*
X86561904Y-69961904D01*
X86561904Y-70038095D01*
X86523809Y-70114285D01*
X86485714Y-70152380D01*
X86409523Y-70190476D01*
X86257142Y-70228571D01*
X86066666Y-70228571D01*
X85914285Y-70190476D01*
X85838095Y-70152380D01*
X85800000Y-70114285D01*
X85761904Y-70038095D01*
X86561904Y-69390476D02*
X86561904Y-69238095D01*
X86523809Y-69161904D01*
X86485714Y-69123809D01*
X86371428Y-69047619D01*
X86219047Y-69009523D01*
X85914285Y-69009523D01*
X85838095Y-69047619D01*
X85800000Y-69085714D01*
X85761904Y-69161904D01*
X85761904Y-69314285D01*
X85800000Y-69390476D01*
X85838095Y-69428571D01*
X85914285Y-69466666D01*
X86104761Y-69466666D01*
X86180952Y-69428571D01*
X86219047Y-69390476D01*
X86257142Y-69314285D01*
X86257142Y-69161904D01*
X86219047Y-69085714D01*
X86180952Y-69047619D01*
X86104761Y-69009523D01*
X88404761Y-55961904D02*
X88138095Y-55580952D01*
X87947619Y-55961904D02*
X87947619Y-55161904D01*
X88252380Y-55161904D01*
X88328571Y-55200000D01*
X88366666Y-55238095D01*
X88404761Y-55314285D01*
X88404761Y-55428571D01*
X88366666Y-55504761D01*
X88328571Y-55542857D01*
X88252380Y-55580952D01*
X87947619Y-55580952D01*
X88709523Y-55238095D02*
X88747619Y-55200000D01*
X88823809Y-55161904D01*
X89014285Y-55161904D01*
X89090476Y-55200000D01*
X89128571Y-55238095D01*
X89166666Y-55314285D01*
X89166666Y-55390476D01*
X89128571Y-55504761D01*
X88671428Y-55961904D01*
X89166666Y-55961904D01*
X89928571Y-55961904D02*
X89471428Y-55961904D01*
X89700000Y-55961904D02*
X89700000Y-55161904D01*
X89623809Y-55276190D01*
X89547619Y-55352380D01*
X89471428Y-55390476D01*
X90385714Y-55504761D02*
X90309523Y-55466666D01*
X90271428Y-55428571D01*
X90233333Y-55352380D01*
X90233333Y-55314285D01*
X90271428Y-55238095D01*
X90309523Y-55200000D01*
X90385714Y-55161904D01*
X90538095Y-55161904D01*
X90614285Y-55200000D01*
X90652380Y-55238095D01*
X90690476Y-55314285D01*
X90690476Y-55352380D01*
X90652380Y-55428571D01*
X90614285Y-55466666D01*
X90538095Y-55504761D01*
X90385714Y-55504761D01*
X90309523Y-55542857D01*
X90271428Y-55580952D01*
X90233333Y-55657142D01*
X90233333Y-55809523D01*
X90271428Y-55885714D01*
X90309523Y-55923809D01*
X90385714Y-55961904D01*
X90538095Y-55961904D01*
X90614285Y-55923809D01*
X90652380Y-55885714D01*
X90690476Y-55809523D01*
X90690476Y-55657142D01*
X90652380Y-55580952D01*
X90614285Y-55542857D01*
X90538095Y-55504761D01*
X123961904Y-62538095D02*
X123885714Y-62500000D01*
X123809523Y-62423809D01*
X123695238Y-62309523D01*
X123619047Y-62271428D01*
X123542857Y-62271428D01*
X123580952Y-62461904D02*
X123504761Y-62423809D01*
X123428571Y-62347619D01*
X123390476Y-62195238D01*
X123390476Y-61928571D01*
X123428571Y-61776190D01*
X123504761Y-61700000D01*
X123580952Y-61661904D01*
X123733333Y-61661904D01*
X123809523Y-61700000D01*
X123885714Y-61776190D01*
X123923809Y-61928571D01*
X123923809Y-62195238D01*
X123885714Y-62347619D01*
X123809523Y-62423809D01*
X123733333Y-62461904D01*
X123580952Y-62461904D01*
X124228571Y-61738095D02*
X124266666Y-61700000D01*
X124342857Y-61661904D01*
X124533333Y-61661904D01*
X124609523Y-61700000D01*
X124647619Y-61738095D01*
X124685714Y-61814285D01*
X124685714Y-61890476D01*
X124647619Y-62004761D01*
X124190476Y-62461904D01*
X124685714Y-62461904D01*
X125180952Y-61661904D02*
X125257142Y-61661904D01*
X125333333Y-61700000D01*
X125371428Y-61738095D01*
X125409523Y-61814285D01*
X125447619Y-61966666D01*
X125447619Y-62157142D01*
X125409523Y-62309523D01*
X125371428Y-62385714D01*
X125333333Y-62423809D01*
X125257142Y-62461904D01*
X125180952Y-62461904D01*
X125104761Y-62423809D01*
X125066666Y-62385714D01*
X125028571Y-62309523D01*
X124990476Y-62157142D01*
X124990476Y-61966666D01*
X125028571Y-61814285D01*
X125066666Y-61738095D01*
X125104761Y-61700000D01*
X125180952Y-61661904D01*
X125752380Y-61738095D02*
X125790476Y-61700000D01*
X125866666Y-61661904D01*
X126057142Y-61661904D01*
X126133333Y-61700000D01*
X126171428Y-61738095D01*
X126209523Y-61814285D01*
X126209523Y-61890476D01*
X126171428Y-62004761D01*
X125714285Y-62461904D01*
X126209523Y-62461904D01*
D13*
X124572936Y-63165000D02*
X125027064Y-63165000D01*
X124572936Y-64635000D02*
X125027064Y-64635000D01*
X70810000Y-68250000D02*
X70810000Y-67150000D01*
X79400000Y-69750000D02*
X79400000Y-68250000D01*
X77590000Y-68250000D02*
X77590000Y-63125000D01*
X69000000Y-69750000D02*
X69000000Y-68250000D01*
X79400000Y-68250000D02*
X77590000Y-68250000D01*
X69000000Y-68250000D02*
X70810000Y-68250000D01*
X130080000Y-69070000D02*
X130080000Y-65205000D01*
X130080000Y-60695000D02*
X130080000Y-56830000D01*
X140020000Y-69070000D02*
X140020000Y-65205000D01*
X135921000Y-69070000D02*
X136680000Y-69070000D01*
X133421000Y-69070000D02*
X134180000Y-69070000D01*
X130080000Y-56830000D02*
X140020000Y-56830000D01*
X140020000Y-60695000D02*
X140020000Y-56830000D01*
X130080000Y-69070000D02*
X131679000Y-69070000D01*
X138420000Y-69070000D02*
X140020000Y-69070000D01*
X133742500Y-46807500D02*
X133742500Y-52207500D01*
X137042500Y-46807500D02*
X133742500Y-46807500D01*
X137042500Y-46807500D02*
X137042500Y-52207500D01*
X93270000Y-72330000D02*
X93270000Y-69730000D01*
X95870000Y-72330000D02*
X93270000Y-72330000D01*
X95870000Y-62050000D02*
X90670000Y-62050000D01*
X93270000Y-69730000D02*
X90670000Y-69730000D01*
X92000000Y-72330000D02*
X90670000Y-72330000D01*
X90670000Y-72330000D02*
X90670000Y-71000000D01*
X90670000Y-69730000D02*
X90670000Y-62050000D01*
X95870000Y-72330000D02*
X95870000Y-62050000D01*
X86095002Y-57231666D02*
X85572498Y-57231666D01*
X86095002Y-58701666D02*
X85572498Y-58701666D01*
X78733750Y-56310000D02*
X76458750Y-56310000D01*
X78733750Y-52390000D02*
X81008750Y-52390000D01*
X78733750Y-52390000D02*
X74683750Y-52390000D01*
X78733750Y-56310000D02*
X81008750Y-56310000D01*
X86095002Y-52365000D02*
X85572498Y-52365000D01*
X86095002Y-53835000D02*
X85572498Y-53835000D01*
X67723737Y-60055000D02*
X66276263Y-60055000D01*
X67723737Y-57345000D02*
X66276263Y-57345000D01*
X83965000Y-65272936D02*
X83965000Y-65727064D01*
X85435000Y-65272936D02*
X85435000Y-65727064D01*
X67723737Y-56355000D02*
X66276263Y-56355000D01*
X67723737Y-53645000D02*
X66276263Y-53645000D01*
D14*
X99675000Y-67700000D02*
G75*
G03*
X99675000Y-67500000I0J100000D01*
G01*
X99675000Y-67500000D02*
G75*
G03*
X99675000Y-67700000I0J-100000D01*
G01*
D10*
X101925000Y-54500000D02*
X101925000Y-70700000D01*
X120425000Y-70600000D02*
X120425000Y-70600000D01*
X120425000Y-70600000D02*
X120425000Y-70700000D01*
X120425000Y-54500000D02*
X120425000Y-70600000D01*
X101925000Y-70700000D02*
X108925000Y-70700000D01*
X112925000Y-54500000D02*
X120425000Y-54500000D01*
X108925000Y-54500000D02*
X101925000Y-54500000D01*
D14*
X99675000Y-67500000D02*
X99675000Y-67500000D01*
X99675000Y-67700000D02*
X99675000Y-67700000D01*
D10*
X120425000Y-70700000D02*
X112925000Y-70700000D01*
D13*
X86060814Y-59665000D02*
X85606686Y-59665000D01*
X86060814Y-61135000D02*
X85606686Y-61135000D01*
X78733750Y-61060000D02*
X76458750Y-61060000D01*
X78733750Y-57140000D02*
X74683750Y-57140000D01*
X78733750Y-57140000D02*
X81008750Y-57140000D01*
X78733750Y-61060000D02*
X81008750Y-61060000D01*
X124572936Y-67835000D02*
X125027064Y-67835000D01*
X124572936Y-66365000D02*
X125027064Y-66365000D01*
X72735000Y-58872936D02*
X72735000Y-59327064D01*
X71265000Y-58872936D02*
X71265000Y-59327064D01*
X73000000Y-52000000D02*
X73000000Y-55900000D01*
X73000000Y-52000000D02*
X71000000Y-52000000D01*
X71000000Y-52000000D02*
X71000000Y-55900000D01*
X83200000Y-63250000D02*
X81200000Y-63250000D01*
X83200000Y-63250000D02*
X83200000Y-67150000D01*
X81200000Y-63250000D02*
X81200000Y-67150000D01*
X85435000Y-70627064D02*
X85435000Y-70172936D01*
X83965000Y-70627064D02*
X83965000Y-70172936D01*
X86060814Y-54798333D02*
X85606686Y-54798333D01*
X86060814Y-56268333D02*
X85606686Y-56268333D01*
D10*
X126450000Y-60050000D02*
X126450000Y-60525000D01*
X126450000Y-60525000D02*
X126100000Y-60525000D01*
X123150000Y-59250000D02*
X123150000Y-58875000D01*
X123475000Y-60525000D02*
X123475000Y-61300000D01*
X123150000Y-59875000D02*
X123150000Y-60150000D01*
X123425000Y-60525000D02*
X123475000Y-60525000D01*
X126450000Y-58875000D02*
X126450000Y-59325000D01*
X123150000Y-58875000D02*
X123450000Y-58875000D01*
X126225000Y-58875000D02*
X126100000Y-58875000D01*
X123150000Y-60150000D02*
X123425000Y-60525000D01*
X126150000Y-58875000D02*
X126450000Y-58875000D01*
%LPC*%
D15*
X131300000Y-77000000D03*
X138800000Y-75000000D03*
D16*
X151500000Y-48500000D03*
X65000000Y-76500000D03*
D17*
X123800000Y-63900000D03*
X125800000Y-63900000D03*
D18*
X76740000Y-65425000D03*
D19*
X74200000Y-74575000D03*
D18*
X71660000Y-65425000D03*
D20*
X132550000Y-69950000D03*
X135050000Y-69950000D03*
X137550000Y-69950000D03*
D21*
X139450000Y-62950000D03*
X130650000Y-62950000D03*
D22*
X135392500Y-48207500D03*
X135392500Y-52207500D03*
D23*
X92000000Y-71000000D03*
D24*
X94540000Y-71000000D03*
X92000000Y-68460000D03*
X94540000Y-68460000D03*
X92000000Y-65920000D03*
X94540000Y-65920000D03*
X92000000Y-63380000D03*
X94540000Y-63380000D03*
D25*
X86871250Y-57966666D03*
X84796250Y-57966666D03*
D26*
X75483750Y-53080000D03*
X75483750Y-55620000D03*
X81983750Y-55620000D03*
X81983750Y-53080000D03*
D25*
X86871250Y-53100000D03*
X84796250Y-53100000D03*
D16*
X65000000Y-48500000D03*
X151500000Y-76500000D03*
D27*
X68550000Y-58700000D03*
X65450000Y-58700000D03*
D28*
X84700000Y-64500000D03*
X84700000Y-66500000D03*
D27*
X68550000Y-55000000D03*
X65450000Y-55000000D03*
D29*
X111025000Y-70600000D03*
X111025000Y-54600000D03*
D30*
X119075000Y-67600000D03*
X119075000Y-65100000D03*
X119075000Y-62600000D03*
X119075000Y-60100000D03*
X119075000Y-57600000D03*
X100775000Y-57600000D03*
X100775000Y-60100000D03*
X100775000Y-62600000D03*
X100775000Y-65100000D03*
X100775000Y-67600000D03*
D31*
X86833750Y-60400000D03*
X84833750Y-60400000D03*
D26*
X75483750Y-57830000D03*
X75483750Y-60370000D03*
X81983750Y-60370000D03*
X81983750Y-57830000D03*
D17*
X123800000Y-67100000D03*
X125800000Y-67100000D03*
D28*
X72000000Y-58100000D03*
X72000000Y-60100000D03*
D32*
X72000000Y-52600000D03*
X72000000Y-55900000D03*
X82200000Y-67150000D03*
X82200000Y-63850000D03*
D33*
X84700000Y-71400000D03*
X84700000Y-69400000D03*
D31*
X86833750Y-55533333D03*
X84833750Y-55533333D03*
D34*
X123850000Y-60750000D03*
X125750000Y-60750000D03*
X124800000Y-58650000D03*
D35*
X131487719Y-46850000D03*
D36*
X131487719Y-54450000D03*
X144187719Y-46850000D03*
X146727719Y-54450000D03*
D37*
X109397239Y-51450000D03*
D38*
X104397239Y-48950000D03*
X109397239Y-46450000D03*
D39*
X147950000Y-58991500D03*
D29*
X147950000Y-64071500D03*
X147950000Y-69151500D03*
D40*
X60200000Y-55420000D03*
D41*
X60200000Y-52880000D03*
D37*
X117597239Y-51450000D03*
D38*
X112597239Y-48950000D03*
X117597239Y-46450000D03*
D37*
X125797239Y-51450000D03*
D38*
X120797239Y-48950000D03*
X125797239Y-46450000D03*
D41*
X60200000Y-58530000D03*
D40*
X60200000Y-61070000D03*
D37*
X101197239Y-51450000D03*
D38*
X96197239Y-48950000D03*
X101197239Y-46450000D03*
D39*
X62500000Y-70540000D03*
D29*
X62500000Y-65460000D03*
M02*
