G04 #@! TF.GenerationSoftware,KiCad,Pcbnew,(6.0.9)*
G04 #@! TF.CreationDate,2022-11-14T17:10:28+01:00*
G04 #@! TF.ProjectId,HeaterPSU,48656174-6572-4505-9355-2e6b69636164,rev?*
G04 #@! TF.SameCoordinates,Original*
G04 #@! TF.FileFunction,Copper,L1,Top*
G04 #@! TF.FilePolarity,Positive*
%FSLAX46Y46*%
G04 Gerber Fmt 4.6, Leading zero omitted, Abs format (unit mm)*
G04 Created by KiCad (PCBNEW (6.0.9)) date 2022-11-14 17:10:28*
%MOMM*%
%LPD*%
G01*
G04 APERTURE LIST*
G04 Aperture macros list*
%AMRoundRect*
0 Rectangle with rounded corners*
0 $1 Rounding radius*
0 $2 $3 $4 $5 $6 $7 $8 $9 X,Y pos of 4 corners*
0 Add a 4 corners polygon primitive as box body*
4,1,4,$2,$3,$4,$5,$6,$7,$8,$9,$2,$3,0*
0 Add four circle primitives for the rounded corners*
1,1,$1+$1,$2,$3*
1,1,$1+$1,$4,$5*
1,1,$1+$1,$6,$7*
1,1,$1+$1,$8,$9*
0 Add four rect primitives between the rounded corners*
20,1,$1+$1,$2,$3,$4,$5,0*
20,1,$1+$1,$4,$5,$6,$7,0*
20,1,$1+$1,$6,$7,$8,$9,0*
20,1,$1+$1,$8,$9,$2,$3,0*%
G04 Aperture macros list end*
G04 #@! TA.AperFunction,ComponentPad*
%ADD10C,2.200000*%
G04 #@! TD*
G04 #@! TA.AperFunction,SMDPad,CuDef*
%ADD11RoundRect,0.250000X-0.350000X-0.450000X0.350000X-0.450000X0.350000X0.450000X-0.350000X0.450000X0*%
G04 #@! TD*
G04 #@! TA.AperFunction,SMDPad,CuDef*
%ADD12R,1.100000X4.600000*%
G04 #@! TD*
G04 #@! TA.AperFunction,SMDPad,CuDef*
%ADD13R,10.800000X9.400000*%
G04 #@! TD*
G04 #@! TA.AperFunction,WasherPad*
%ADD14C,4.000000*%
G04 #@! TD*
G04 #@! TA.AperFunction,ComponentPad*
%ADD15C,1.800000*%
G04 #@! TD*
G04 #@! TA.AperFunction,SMDPad,CuDef*
%ADD16R,1.800000X2.500000*%
G04 #@! TD*
G04 #@! TA.AperFunction,ComponentPad*
%ADD17R,1.700000X1.700000*%
G04 #@! TD*
G04 #@! TA.AperFunction,ComponentPad*
%ADD18O,1.700000X1.700000*%
G04 #@! TD*
G04 #@! TA.AperFunction,SMDPad,CuDef*
%ADD19RoundRect,0.250000X0.337500X0.475000X-0.337500X0.475000X-0.337500X-0.475000X0.337500X-0.475000X0*%
G04 #@! TD*
G04 #@! TA.AperFunction,SMDPad,CuDef*
%ADD20RoundRect,0.137500X-0.662500X-0.137500X0.662500X-0.137500X0.662500X0.137500X-0.662500X0.137500X0*%
G04 #@! TD*
G04 #@! TA.AperFunction,SMDPad,CuDef*
%ADD21RoundRect,0.250000X0.400000X1.075000X-0.400000X1.075000X-0.400000X-1.075000X0.400000X-1.075000X0*%
G04 #@! TD*
G04 #@! TA.AperFunction,SMDPad,CuDef*
%ADD22RoundRect,0.250000X-0.450000X0.350000X-0.450000X-0.350000X0.450000X-0.350000X0.450000X0.350000X0*%
G04 #@! TD*
G04 #@! TA.AperFunction,ComponentPad*
%ADD23C,3.000000*%
G04 #@! TD*
G04 #@! TA.AperFunction,ComponentPad*
%ADD24C,1.400000*%
G04 #@! TD*
G04 #@! TA.AperFunction,SMDPad,CuDef*
%ADD25RoundRect,0.250000X0.350000X0.450000X-0.350000X0.450000X-0.350000X-0.450000X0.350000X-0.450000X0*%
G04 #@! TD*
G04 #@! TA.AperFunction,SMDPad,CuDef*
%ADD26R,1.200000X0.900000*%
G04 #@! TD*
G04 #@! TA.AperFunction,SMDPad,CuDef*
%ADD27RoundRect,0.250000X0.450000X-0.350000X0.450000X0.350000X-0.450000X0.350000X-0.450000X-0.350000X0*%
G04 #@! TD*
G04 #@! TA.AperFunction,SMDPad,CuDef*
%ADD28R,0.600000X1.300000*%
G04 #@! TD*
G04 #@! TA.AperFunction,ComponentPad*
%ADD29R,2.500000X2.500000*%
G04 #@! TD*
G04 #@! TA.AperFunction,ComponentPad*
%ADD30O,2.500000X2.500000*%
G04 #@! TD*
G04 #@! TA.AperFunction,ComponentPad*
%ADD31R,1.550000X1.550000*%
G04 #@! TD*
G04 #@! TA.AperFunction,ComponentPad*
%ADD32C,1.550000*%
G04 #@! TD*
G04 #@! TA.AperFunction,ComponentPad*
%ADD33R,3.000000X3.000000*%
G04 #@! TD*
G04 #@! TA.AperFunction,ComponentPad*
%ADD34O,2.200000X1.700000*%
G04 #@! TD*
G04 #@! TA.AperFunction,ComponentPad*
%ADD35R,2.200000X1.700000*%
G04 #@! TD*
G04 #@! TA.AperFunction,ViaPad*
%ADD36C,0.800000*%
G04 #@! TD*
G04 #@! TA.AperFunction,Conductor*
%ADD37C,0.250000*%
G04 #@! TD*
G04 #@! TA.AperFunction,Conductor*
%ADD38C,0.400000*%
G04 #@! TD*
G04 #@! TA.AperFunction,Conductor*
%ADD39C,0.500000*%
G04 #@! TD*
G04 #@! TA.AperFunction,Conductor*
%ADD40C,1.500000*%
G04 #@! TD*
G04 APERTURE END LIST*
D10*
X131300000Y-77000000D03*
X138800000Y-75000000D03*
D11*
X123800000Y-63900000D03*
X125800000Y-63900000D03*
D12*
X76740000Y-65425000D03*
D13*
X74200000Y-74575000D03*
D12*
X71660000Y-65425000D03*
D14*
X130650000Y-62450000D03*
X139450000Y-62450000D03*
D15*
X137550000Y-69450000D03*
X135050000Y-69450000D03*
X132550000Y-69450000D03*
D16*
X135392500Y-48207500D03*
X135392500Y-52207500D03*
D17*
X92000000Y-71000000D03*
D18*
X94540000Y-71000000D03*
X92000000Y-68460000D03*
X94540000Y-68460000D03*
X92000000Y-65920000D03*
X94540000Y-65920000D03*
X92000000Y-63380000D03*
X94540000Y-63380000D03*
D19*
X86871250Y-57966666D03*
X84796250Y-57966666D03*
D20*
X75483750Y-53080000D03*
X75483750Y-55620000D03*
X81983750Y-55620000D03*
X81983750Y-53080000D03*
D19*
X86871250Y-53100000D03*
X84796250Y-53100000D03*
D21*
X68550000Y-58700000D03*
X65450000Y-58700000D03*
D22*
X84700000Y-64500000D03*
X84700000Y-66500000D03*
D21*
X68550000Y-55000000D03*
X65450000Y-55000000D03*
D23*
X111025000Y-70600000D03*
X111025000Y-54600000D03*
D24*
X119075000Y-67600000D03*
X119075000Y-65100000D03*
X119075000Y-62600000D03*
X119075000Y-60100000D03*
X119075000Y-57600000D03*
X100775000Y-57600000D03*
X100775000Y-60100000D03*
X100775000Y-62600000D03*
X100775000Y-65100000D03*
X100775000Y-67600000D03*
D25*
X86833750Y-60400000D03*
X84833750Y-60400000D03*
D20*
X75483750Y-57830000D03*
X75483750Y-60370000D03*
X81983750Y-60370000D03*
X81983750Y-57830000D03*
D11*
X123800000Y-67100000D03*
X125800000Y-67100000D03*
D22*
X72000000Y-58100000D03*
X72000000Y-60100000D03*
D26*
X72000000Y-52600000D03*
X72000000Y-55900000D03*
X82200000Y-67150000D03*
X82200000Y-63850000D03*
D27*
X84700000Y-71400000D03*
X84700000Y-69400000D03*
D25*
X86833750Y-55533333D03*
X84833750Y-55533333D03*
D28*
X123850000Y-60750000D03*
X125750000Y-60750000D03*
X124800000Y-58650000D03*
D29*
X131487719Y-46850000D03*
D30*
X131487719Y-54450000D03*
X144187719Y-46850000D03*
X146727719Y-54450000D03*
D31*
X109397239Y-51450000D03*
D32*
X104397239Y-48950000D03*
X109397239Y-46450000D03*
D33*
X147950000Y-58991500D03*
D23*
X147950000Y-64071500D03*
X147950000Y-69151500D03*
D34*
X60200000Y-55420000D03*
D35*
X60200000Y-52880000D03*
D31*
X117597239Y-51450000D03*
D32*
X112597239Y-48950000D03*
X117597239Y-46450000D03*
D31*
X125797239Y-51450000D03*
D32*
X120797239Y-48950000D03*
X125797239Y-46450000D03*
D35*
X60200000Y-58530000D03*
D34*
X60200000Y-61070000D03*
D31*
X101197239Y-51450000D03*
D32*
X96197239Y-48950000D03*
X101197239Y-46450000D03*
D33*
X62500000Y-70540000D03*
D23*
X62500000Y-65460000D03*
D36*
X101300000Y-76300000D03*
X137100000Y-66400000D03*
X102950000Y-67150000D03*
X151600000Y-67600000D03*
X86450000Y-62600000D03*
X65500000Y-70600000D03*
X75600000Y-69000000D03*
X77450000Y-47550000D03*
X114700000Y-64100000D03*
X77900000Y-57400000D03*
X76400000Y-69000000D03*
X91100000Y-76300000D03*
X149950000Y-53250000D03*
X132950000Y-49750000D03*
X147250000Y-74050000D03*
X83600000Y-46400000D03*
X140550000Y-47250000D03*
X114300000Y-54750000D03*
X134350000Y-58400000D03*
X78000000Y-55100000D03*
X121750000Y-62150000D03*
X62650000Y-54150000D03*
X83250000Y-54250000D03*
X80600000Y-73600000D03*
X62500000Y-57650000D03*
X86150000Y-78900000D03*
X89000000Y-59000000D03*
X57400000Y-48200000D03*
X142350000Y-69150000D03*
X110200000Y-57700000D03*
X100700000Y-70400000D03*
X93600000Y-56900000D03*
X72000000Y-54350000D03*
X80000000Y-60000000D03*
X87000000Y-69000000D03*
X102200000Y-61450000D03*
X83300000Y-59150000D03*
X127700000Y-70600000D03*
X68200000Y-51500000D03*
X83350000Y-56750000D03*
X65100000Y-62900000D03*
X101900000Y-48950000D03*
X129000000Y-74050000D03*
X116550000Y-49350000D03*
X121150000Y-66700000D03*
X117200000Y-69850000D03*
X126650000Y-56300000D03*
X141700000Y-78400000D03*
X115100000Y-59250000D03*
X135100000Y-77950000D03*
X88900000Y-72300000D03*
X89800000Y-69300000D03*
X128900000Y-66000000D03*
X58450000Y-77200000D03*
X67000000Y-59200000D03*
X75475000Y-62225000D03*
X70000000Y-65000000D03*
X74200000Y-66100000D03*
X73200000Y-65000000D03*
X90650000Y-75050000D03*
X80000000Y-67200000D03*
D37*
X84250000Y-69850000D02*
X84700000Y-69400000D01*
X81500000Y-69850000D02*
X84250000Y-69850000D01*
X80000000Y-67200000D02*
X80000000Y-68350000D01*
X80000000Y-68350000D02*
X81500000Y-69850000D01*
D38*
X79025000Y-68125000D02*
X75790000Y-68125000D01*
X74200000Y-66535000D02*
X74200000Y-66100000D01*
X82450000Y-72400000D02*
X87150000Y-72400000D01*
X75790000Y-68125000D02*
X74200000Y-66535000D01*
X82100000Y-71200000D02*
X81300000Y-70400000D01*
X81300000Y-70400000D02*
X79025000Y-68125000D01*
X82100000Y-72050000D02*
X82100000Y-71200000D01*
X82100000Y-72050000D02*
X82450000Y-72400000D01*
X87150000Y-72400000D02*
X88550000Y-71000000D01*
X88550000Y-71000000D02*
X92000000Y-71000000D01*
D37*
X80950000Y-63850000D02*
X79325000Y-62225000D01*
X82200000Y-63850000D02*
X80950000Y-63850000D01*
D39*
X135392500Y-48207500D02*
X134035000Y-46850000D01*
D37*
X79325000Y-62225000D02*
X75475000Y-62225000D01*
D39*
X134035000Y-46850000D02*
X131487719Y-46850000D01*
D40*
X70000000Y-65000000D02*
X73200000Y-65000000D01*
D39*
X131487719Y-58462281D02*
X131300000Y-58650000D01*
X124800000Y-58650000D02*
X131300000Y-58650000D01*
X133150000Y-54450000D02*
X135392500Y-52207500D01*
X131487719Y-54450000D02*
X131487719Y-58462281D01*
X131487719Y-54450000D02*
X133150000Y-54450000D01*
D37*
X90650000Y-74890000D02*
X94540000Y-71000000D01*
X90650000Y-75050000D02*
X90650000Y-74890000D01*
X135225000Y-67125000D02*
X137550000Y-69450000D01*
X125825000Y-67125000D02*
X135225000Y-67125000D01*
X125800000Y-67100000D02*
X125825000Y-67125000D01*
X82200000Y-67150000D02*
X80475000Y-65425000D01*
X84050000Y-67150000D02*
X82200000Y-67150000D01*
X80475000Y-65425000D02*
X76740000Y-65425000D01*
X84700000Y-66500000D02*
X84050000Y-67150000D01*
X87063590Y-54150000D02*
X85846250Y-54150000D01*
X94540000Y-61626410D02*
X87063590Y-54150000D01*
X85846250Y-54150000D02*
X84796250Y-53100000D01*
X94540000Y-63380000D02*
X94540000Y-61626410D01*
X84796250Y-53100000D02*
X82003750Y-53100000D01*
X87300000Y-59250000D02*
X86079584Y-59250000D01*
X90825000Y-64745000D02*
X90825000Y-62775000D01*
X84696250Y-57900000D02*
X82053750Y-57900000D01*
X86079584Y-59250000D02*
X84796250Y-57966666D01*
X92000000Y-65920000D02*
X90825000Y-64745000D01*
X90825000Y-62775000D02*
X87300000Y-59250000D01*
X74403750Y-56700000D02*
X75483750Y-55620000D01*
X72000000Y-55900000D02*
X72000000Y-56650000D01*
X68550000Y-58700000D02*
X70550000Y-56700000D01*
X72000000Y-56650000D02*
X72050000Y-56700000D01*
X72050000Y-56700000D02*
X74403750Y-56700000D01*
X70550000Y-56700000D02*
X72050000Y-56700000D01*
X71500000Y-60600000D02*
X72000000Y-60100000D01*
X62370000Y-60600000D02*
X71500000Y-60600000D01*
X60200000Y-58430000D02*
X62370000Y-60600000D01*
X75483750Y-60370000D02*
X74530000Y-60370000D01*
X60580000Y-61350000D02*
X73550000Y-61350000D01*
X60200000Y-60970000D02*
X60580000Y-61350000D01*
X74530000Y-60370000D02*
X73550000Y-61350000D01*
X123800000Y-63900000D02*
X123850000Y-63850000D01*
X94705000Y-68625000D02*
X94540000Y-68460000D01*
X123800000Y-63900000D02*
X124750000Y-64850000D01*
X123888173Y-68625000D02*
X94705000Y-68625000D01*
X124750000Y-67763173D02*
X123888173Y-68625000D01*
X123850000Y-63850000D02*
X123850000Y-60750000D01*
X124750000Y-64850000D02*
X124750000Y-67763173D01*
X81983750Y-55620000D02*
X84747083Y-55620000D01*
X93175000Y-67285000D02*
X94540000Y-65920000D01*
X86815000Y-67285000D02*
X93175000Y-67285000D01*
X84700000Y-69400000D02*
X86815000Y-67285000D01*
X72270000Y-57830000D02*
X72000000Y-58100000D01*
X75483750Y-57830000D02*
X72270000Y-57830000D01*
X120100000Y-63400000D02*
X120100000Y-58625000D01*
X123800000Y-67100000D02*
X120100000Y-63400000D01*
X120100000Y-58625000D02*
X119075000Y-57600000D01*
X60200000Y-55420000D02*
X65030000Y-55420000D01*
X65450000Y-58700000D02*
X65450000Y-55000000D01*
X65030000Y-55420000D02*
X65450000Y-55000000D01*
D40*
X62500000Y-65460000D02*
X65085000Y-65460000D01*
X65085000Y-65460000D02*
X74200000Y-74575000D01*
D37*
X75483750Y-53080000D02*
X75003750Y-52600000D01*
X60200000Y-52880000D02*
X66430000Y-52880000D01*
X72000000Y-52600000D02*
X70950000Y-52600000D01*
X66430000Y-52880000D02*
X68550000Y-55000000D01*
X70950000Y-52600000D02*
X68550000Y-55000000D01*
X75003750Y-52600000D02*
X72000000Y-52600000D01*
X84833750Y-60400000D02*
X82013750Y-60400000D01*
G04 #@! TA.AperFunction,Conductor*
G36*
X100116308Y-45528502D02*
G01*
X100162801Y-45582158D01*
X100172905Y-45652432D01*
X100151400Y-45706771D01*
X100085041Y-45801541D01*
X100079558Y-45811037D01*
X99989331Y-46004530D01*
X99985585Y-46014822D01*
X99930328Y-46221043D01*
X99928425Y-46231838D01*
X99909817Y-46444525D01*
X99909817Y-46455475D01*
X99928425Y-46668162D01*
X99930328Y-46678957D01*
X99985585Y-46885178D01*
X99989331Y-46895470D01*
X100079558Y-47088963D01*
X100085041Y-47098459D01*
X100117699Y-47145099D01*
X100128176Y-47153474D01*
X100141624Y-47146405D01*
X101108144Y-46179885D01*
X101170456Y-46145859D01*
X101241271Y-46150924D01*
X101286334Y-46179885D01*
X102253576Y-47147127D01*
X102265351Y-47153557D01*
X102277366Y-47144261D01*
X102309437Y-47098459D01*
X102314920Y-47088963D01*
X102405147Y-46895470D01*
X102408893Y-46885178D01*
X102464150Y-46678957D01*
X102466053Y-46668162D01*
X102484661Y-46455475D01*
X102484661Y-46444525D01*
X102466053Y-46231838D01*
X102464150Y-46221043D01*
X102408893Y-46014822D01*
X102405147Y-46004530D01*
X102314920Y-45811037D01*
X102309437Y-45801541D01*
X102243078Y-45706771D01*
X102220390Y-45639497D01*
X102237675Y-45570636D01*
X102289445Y-45522052D01*
X102346291Y-45508500D01*
X108248187Y-45508500D01*
X108316308Y-45528502D01*
X108362801Y-45582158D01*
X108372905Y-45652432D01*
X108351400Y-45706771D01*
X108285041Y-45801541D01*
X108279558Y-45811037D01*
X108189331Y-46004530D01*
X108185585Y-46014822D01*
X108130328Y-46221043D01*
X108128425Y-46231838D01*
X108109817Y-46444525D01*
X108109817Y-46455475D01*
X108128425Y-46668162D01*
X108130328Y-46678957D01*
X108185585Y-46885178D01*
X108189331Y-46895470D01*
X108279558Y-47088963D01*
X108285041Y-47098459D01*
X108317699Y-47145099D01*
X108328176Y-47153474D01*
X108341624Y-47146405D01*
X109308144Y-46179885D01*
X109370456Y-46145859D01*
X109441271Y-46150924D01*
X109486334Y-46179885D01*
X110453576Y-47147127D01*
X110465351Y-47153557D01*
X110477366Y-47144261D01*
X110509437Y-47098459D01*
X110514920Y-47088963D01*
X110605147Y-46895470D01*
X110608893Y-46885178D01*
X110664150Y-46678957D01*
X110666053Y-46668162D01*
X110684661Y-46455475D01*
X110684661Y-46444525D01*
X110666053Y-46231838D01*
X110664150Y-46221043D01*
X110608893Y-46014822D01*
X110605147Y-46004530D01*
X110514920Y-45811037D01*
X110509437Y-45801541D01*
X110443078Y-45706771D01*
X110420390Y-45639497D01*
X110437675Y-45570636D01*
X110489445Y-45522052D01*
X110546291Y-45508500D01*
X116448187Y-45508500D01*
X116516308Y-45528502D01*
X116562801Y-45582158D01*
X116572905Y-45652432D01*
X116551400Y-45706771D01*
X116485041Y-45801541D01*
X116479558Y-45811037D01*
X116389331Y-46004530D01*
X116385585Y-46014822D01*
X116330328Y-46221043D01*
X116328425Y-46231838D01*
X116309817Y-46444525D01*
X116309817Y-46455475D01*
X116328425Y-46668162D01*
X116330328Y-46678957D01*
X116385585Y-46885178D01*
X116389331Y-46895470D01*
X116479558Y-47088963D01*
X116485041Y-47098459D01*
X116517699Y-47145099D01*
X116528176Y-47153474D01*
X116541624Y-47146405D01*
X117508144Y-46179885D01*
X117570456Y-46145859D01*
X117641271Y-46150924D01*
X117686334Y-46179885D01*
X118653576Y-47147127D01*
X118665351Y-47153557D01*
X118677366Y-47144261D01*
X118709437Y-47098459D01*
X118714920Y-47088963D01*
X118805147Y-46895470D01*
X118808893Y-46885178D01*
X118864150Y-46678957D01*
X118866053Y-46668162D01*
X118884661Y-46455475D01*
X118884661Y-46444525D01*
X118866053Y-46231838D01*
X118864150Y-46221043D01*
X118808893Y-46014822D01*
X118805147Y-46004530D01*
X118714920Y-45811037D01*
X118709437Y-45801541D01*
X118643078Y-45706771D01*
X118620390Y-45639497D01*
X118637675Y-45570636D01*
X118689445Y-45522052D01*
X118746291Y-45508500D01*
X124648187Y-45508500D01*
X124716308Y-45528502D01*
X124762801Y-45582158D01*
X124772905Y-45652432D01*
X124751400Y-45706771D01*
X124685041Y-45801541D01*
X124679558Y-45811037D01*
X124589331Y-46004530D01*
X124585585Y-46014822D01*
X124530328Y-46221043D01*
X124528425Y-46231838D01*
X124509817Y-46444525D01*
X124509817Y-46455475D01*
X124528425Y-46668162D01*
X124530328Y-46678957D01*
X124585585Y-46885178D01*
X124589331Y-46895470D01*
X124679558Y-47088963D01*
X124685041Y-47098459D01*
X124717699Y-47145099D01*
X124728176Y-47153474D01*
X124741624Y-47146405D01*
X125708144Y-46179885D01*
X125770456Y-46145859D01*
X125841271Y-46150924D01*
X125886334Y-46179885D01*
X126853576Y-47147127D01*
X126865351Y-47153557D01*
X126877366Y-47144261D01*
X126909437Y-47098459D01*
X126914920Y-47088963D01*
X127005147Y-46895470D01*
X127008893Y-46885178D01*
X127064150Y-46678957D01*
X127066053Y-46668162D01*
X127084661Y-46455475D01*
X127084661Y-46444525D01*
X127066053Y-46231838D01*
X127064150Y-46221043D01*
X127008893Y-46014822D01*
X127005147Y-46004530D01*
X126914920Y-45811037D01*
X126909437Y-45801541D01*
X126843078Y-45706771D01*
X126820390Y-45639497D01*
X126837675Y-45570636D01*
X126889445Y-45522052D01*
X126946291Y-45508500D01*
X129603219Y-45508500D01*
X129671340Y-45528502D01*
X129717833Y-45582158D01*
X129729219Y-45634500D01*
X129729219Y-48148134D01*
X129735974Y-48210316D01*
X129787104Y-48346705D01*
X129874458Y-48463261D01*
X129991014Y-48550615D01*
X130127403Y-48601745D01*
X130189585Y-48608500D01*
X132785853Y-48608500D01*
X132848035Y-48601745D01*
X132984424Y-48550615D01*
X133100980Y-48463261D01*
X133188334Y-48346705D01*
X133239464Y-48210316D01*
X133246219Y-48148134D01*
X133246219Y-47734500D01*
X133266221Y-47666379D01*
X133319877Y-47619886D01*
X133372219Y-47608500D01*
X133668629Y-47608500D01*
X133736750Y-47628502D01*
X133757724Y-47645405D01*
X133947095Y-47834776D01*
X133981121Y-47897088D01*
X133984000Y-47923871D01*
X133984000Y-49505634D01*
X133990755Y-49567816D01*
X134041885Y-49704205D01*
X134129239Y-49820761D01*
X134245795Y-49908115D01*
X134382184Y-49959245D01*
X134444366Y-49966000D01*
X136340634Y-49966000D01*
X136402816Y-49959245D01*
X136539205Y-49908115D01*
X136655761Y-49820761D01*
X136743115Y-49704205D01*
X136794245Y-49567816D01*
X136801000Y-49505634D01*
X136801000Y-46909366D01*
X136794245Y-46847184D01*
X136743115Y-46710795D01*
X136655761Y-46594239D01*
X136539205Y-46506885D01*
X136402816Y-46455755D01*
X136340634Y-46449000D01*
X134758871Y-46449000D01*
X134690750Y-46428998D01*
X134669776Y-46412095D01*
X134618770Y-46361089D01*
X134606384Y-46346677D01*
X134597851Y-46335082D01*
X134597846Y-46335077D01*
X134593508Y-46329182D01*
X134587930Y-46324443D01*
X134587927Y-46324440D01*
X134553232Y-46294965D01*
X134545716Y-46288035D01*
X134540021Y-46282340D01*
X134533880Y-46277482D01*
X134517749Y-46264719D01*
X134514345Y-46261928D01*
X134464297Y-46219409D01*
X134464295Y-46219408D01*
X134458715Y-46214667D01*
X134452199Y-46211339D01*
X134447150Y-46207972D01*
X134442021Y-46204805D01*
X134436284Y-46200266D01*
X134370125Y-46169345D01*
X134366225Y-46167439D01*
X134301192Y-46134231D01*
X134294084Y-46132492D01*
X134288441Y-46130393D01*
X134282678Y-46128476D01*
X134276050Y-46125378D01*
X134204583Y-46110513D01*
X134200299Y-46109543D01*
X134129390Y-46092192D01*
X134123788Y-46091844D01*
X134123785Y-46091844D01*
X134118236Y-46091500D01*
X134118238Y-46091464D01*
X134114245Y-46091225D01*
X134110053Y-46090851D01*
X134102885Y-46089360D01*
X134048805Y-46090823D01*
X134025479Y-46091454D01*
X134022072Y-46091500D01*
X133372219Y-46091500D01*
X133304098Y-46071498D01*
X133257605Y-46017842D01*
X133246219Y-45965500D01*
X133246219Y-45634500D01*
X133266221Y-45566379D01*
X133319877Y-45519886D01*
X133372219Y-45508500D01*
X142747443Y-45508500D01*
X142815564Y-45528502D01*
X142862057Y-45582158D01*
X142872161Y-45652432D01*
X142844317Y-45715070D01*
X142752082Y-45825970D01*
X142616490Y-46049419D01*
X142515416Y-46290455D01*
X142451078Y-46543783D01*
X142424892Y-46803839D01*
X142425116Y-46808505D01*
X142425116Y-46808511D01*
X142426958Y-46846851D01*
X142437432Y-47064908D01*
X142488423Y-47321256D01*
X142576745Y-47567252D01*
X142578961Y-47571376D01*
X142658182Y-47718814D01*
X142700456Y-47797491D01*
X142703251Y-47801234D01*
X142703253Y-47801237D01*
X142854049Y-48003177D01*
X142854054Y-48003183D01*
X142856841Y-48006915D01*
X142860150Y-48010195D01*
X142860155Y-48010201D01*
X143039145Y-48187635D01*
X143042462Y-48190923D01*
X143046224Y-48193681D01*
X143046227Y-48193684D01*
X143193326Y-48301541D01*
X143253243Y-48345474D01*
X143257386Y-48347654D01*
X143257388Y-48347655D01*
X143480403Y-48464989D01*
X143480408Y-48464991D01*
X143484553Y-48467172D01*
X143731309Y-48553344D01*
X143735902Y-48554216D01*
X143983504Y-48601224D01*
X143983507Y-48601224D01*
X143988093Y-48602095D01*
X144118677Y-48607226D01*
X144244594Y-48612174D01*
X144244600Y-48612174D01*
X144249262Y-48612357D01*
X144338370Y-48602598D01*
X144504426Y-48584412D01*
X144504431Y-48584411D01*
X144509079Y-48583902D01*
X144621835Y-48554216D01*
X144757313Y-48518548D01*
X144757315Y-48518547D01*
X144761836Y-48517357D01*
X144767737Y-48514822D01*
X144997691Y-48416025D01*
X145001981Y-48414182D01*
X145168663Y-48311037D01*
X145220266Y-48279104D01*
X145220267Y-48279104D01*
X145224238Y-48276646D01*
X145227801Y-48273629D01*
X145227806Y-48273626D01*
X145420158Y-48110787D01*
X145420159Y-48110786D01*
X145423724Y-48107768D01*
X145584998Y-47923871D01*
X145592976Y-47914774D01*
X145592980Y-47914769D01*
X145596058Y-47911259D01*
X145621516Y-47871681D01*
X145707279Y-47738346D01*
X145737452Y-47691437D01*
X145844802Y-47453129D01*
X145915749Y-47201572D01*
X145932551Y-47069496D01*
X145948335Y-46945421D01*
X145948335Y-46945417D01*
X145948733Y-46942291D01*
X145951150Y-46850000D01*
X145940271Y-46703609D01*
X145932126Y-46594000D01*
X145932125Y-46593996D01*
X145931780Y-46589348D01*
X145920444Y-46539248D01*
X145875127Y-46338980D01*
X145874096Y-46334423D01*
X145846990Y-46264719D01*
X145781059Y-46095176D01*
X145781058Y-46095173D01*
X145779366Y-46090823D01*
X145649670Y-45863902D01*
X145530319Y-45712506D01*
X145503854Y-45646626D01*
X145517207Y-45576897D01*
X145566139Y-45525456D01*
X145629269Y-45508500D01*
X149117132Y-45508500D01*
X149185253Y-45528502D01*
X149231746Y-45582158D01*
X149241850Y-45652432D01*
X149212356Y-45717012D01*
X149196434Y-45732413D01*
X149087489Y-45820635D01*
X148820635Y-46087489D01*
X148583137Y-46380775D01*
X148581335Y-46383550D01*
X148379395Y-46694510D01*
X148379393Y-46694513D01*
X148377597Y-46697279D01*
X148376102Y-46700213D01*
X148376098Y-46700220D01*
X148271264Y-46905969D01*
X148206266Y-47033535D01*
X148071022Y-47385857D01*
X147973347Y-47750387D01*
X147945870Y-47923871D01*
X147916265Y-48110787D01*
X147914310Y-48123129D01*
X147894559Y-48500000D01*
X147914310Y-48876871D01*
X147973347Y-49249613D01*
X148071022Y-49614143D01*
X148206266Y-49966465D01*
X148207764Y-49969405D01*
X148340428Y-50229771D01*
X148377597Y-50302720D01*
X148379393Y-50305486D01*
X148379395Y-50305489D01*
X148383454Y-50311739D01*
X148583137Y-50619225D01*
X148820635Y-50912511D01*
X149087489Y-51179365D01*
X149380775Y-51416863D01*
X149383550Y-51418665D01*
X149639332Y-51584771D01*
X149697280Y-51622403D01*
X149700214Y-51623898D01*
X149700221Y-51623902D01*
X149998944Y-51776109D01*
X150033535Y-51793734D01*
X150224399Y-51867000D01*
X150318951Y-51903295D01*
X150385857Y-51928978D01*
X150750387Y-52026653D01*
X150948353Y-52058008D01*
X151119881Y-52085176D01*
X151119889Y-52085177D01*
X151123129Y-52085690D01*
X151405720Y-52100500D01*
X151594280Y-52100500D01*
X151876871Y-52085690D01*
X151880111Y-52085177D01*
X151880119Y-52085176D01*
X152051647Y-52058008D01*
X152249613Y-52026653D01*
X152614143Y-51928978D01*
X152681050Y-51903295D01*
X152775601Y-51867000D01*
X152966465Y-51793734D01*
X153001056Y-51776109D01*
X153299779Y-51623902D01*
X153299786Y-51623898D01*
X153302720Y-51622403D01*
X153360669Y-51584771D01*
X153616450Y-51418665D01*
X153619225Y-51416863D01*
X153912511Y-51179365D01*
X154179365Y-50912511D01*
X154267582Y-50803572D01*
X154325994Y-50763222D01*
X154396951Y-50760856D01*
X154457923Y-50797229D01*
X154489551Y-50860791D01*
X154491500Y-50882868D01*
X154491500Y-74117132D01*
X154471498Y-74185253D01*
X154417842Y-74231746D01*
X154347568Y-74241850D01*
X154282988Y-74212356D01*
X154267587Y-74196434D01*
X154179365Y-74087489D01*
X153912511Y-73820635D01*
X153619225Y-73583137D01*
X153302720Y-73377597D01*
X153299786Y-73376102D01*
X153299779Y-73376098D01*
X152969405Y-73207764D01*
X152966465Y-73206266D01*
X152711776Y-73108500D01*
X152617233Y-73072208D01*
X152617231Y-73072207D01*
X152614143Y-73071022D01*
X152249613Y-72973347D01*
X152036930Y-72939661D01*
X151880119Y-72914824D01*
X151880111Y-72914823D01*
X151876871Y-72914310D01*
X151594280Y-72899500D01*
X151405720Y-72899500D01*
X151123129Y-72914310D01*
X151119889Y-72914823D01*
X151119881Y-72914824D01*
X150963070Y-72939661D01*
X150750387Y-72973347D01*
X150385857Y-73071022D01*
X150382769Y-73072207D01*
X150382767Y-73072208D01*
X150288224Y-73108500D01*
X150033535Y-73206266D01*
X150030595Y-73207764D01*
X149700221Y-73376098D01*
X149700214Y-73376102D01*
X149697280Y-73377597D01*
X149380775Y-73583137D01*
X149087489Y-73820635D01*
X148820635Y-74087489D01*
X148583137Y-74380775D01*
X148581335Y-74383550D01*
X148389829Y-74678444D01*
X148377597Y-74697279D01*
X148376102Y-74700213D01*
X148376098Y-74700220D01*
X148294650Y-74860072D01*
X148206266Y-75033535D01*
X148071022Y-75385857D01*
X147973347Y-75750387D01*
X147942656Y-75944162D01*
X147926231Y-76047865D01*
X147914310Y-76123129D01*
X147894559Y-76500000D01*
X147914310Y-76876871D01*
X147973347Y-77249613D01*
X148071022Y-77614143D01*
X148206266Y-77966465D01*
X148207764Y-77969405D01*
X148293231Y-78137142D01*
X148377597Y-78302720D01*
X148583137Y-78619225D01*
X148820635Y-78912511D01*
X149087489Y-79179365D01*
X149196428Y-79267582D01*
X149236778Y-79325994D01*
X149239144Y-79396951D01*
X149202771Y-79457923D01*
X149139209Y-79489551D01*
X149117132Y-79491500D01*
X80230639Y-79491500D01*
X80162518Y-79471498D01*
X80116025Y-79417842D01*
X80105376Y-79351893D01*
X80108131Y-79326533D01*
X80108131Y-79326529D01*
X80108500Y-79323134D01*
X80108500Y-77000000D01*
X129686526Y-77000000D01*
X129706391Y-77252403D01*
X129765495Y-77498591D01*
X129862384Y-77732502D01*
X129994672Y-77948376D01*
X130159102Y-78140898D01*
X130351624Y-78305328D01*
X130567498Y-78437616D01*
X130572068Y-78439509D01*
X130572072Y-78439511D01*
X130796836Y-78532611D01*
X130801409Y-78534505D01*
X130886032Y-78554821D01*
X131042784Y-78592454D01*
X131042790Y-78592455D01*
X131047597Y-78593609D01*
X131300000Y-78613474D01*
X131552403Y-78593609D01*
X131557210Y-78592455D01*
X131557216Y-78592454D01*
X131713968Y-78554821D01*
X131798591Y-78534505D01*
X131803164Y-78532611D01*
X132027928Y-78439511D01*
X132027932Y-78439509D01*
X132032502Y-78437616D01*
X132248376Y-78305328D01*
X132440898Y-78140898D01*
X132605328Y-77948376D01*
X132737616Y-77732502D01*
X132834505Y-77498591D01*
X132893609Y-77252403D01*
X132913474Y-77000000D01*
X132893609Y-76747597D01*
X132834505Y-76501409D01*
X132807010Y-76435030D01*
X132739511Y-76272072D01*
X132739509Y-76272068D01*
X132737616Y-76267498D01*
X132605328Y-76051624D01*
X132440898Y-75859102D01*
X132248376Y-75694672D01*
X132032502Y-75562384D01*
X132027932Y-75560491D01*
X132027928Y-75560489D01*
X131803164Y-75467389D01*
X131803162Y-75467388D01*
X131798591Y-75465495D01*
X131713968Y-75445179D01*
X131557216Y-75407546D01*
X131557210Y-75407545D01*
X131552403Y-75406391D01*
X131300000Y-75386526D01*
X131047597Y-75406391D01*
X131042790Y-75407545D01*
X131042784Y-75407546D01*
X130886032Y-75445179D01*
X130801409Y-75465495D01*
X130796838Y-75467388D01*
X130796836Y-75467389D01*
X130572072Y-75560489D01*
X130572068Y-75560491D01*
X130567498Y-75562384D01*
X130351624Y-75694672D01*
X130159102Y-75859102D01*
X129994672Y-76051624D01*
X129862384Y-76267498D01*
X129860491Y-76272068D01*
X129860489Y-76272072D01*
X129792990Y-76435030D01*
X129765495Y-76501409D01*
X129706391Y-76747597D01*
X129686526Y-77000000D01*
X80108500Y-77000000D01*
X80108500Y-70514660D01*
X80128502Y-70446539D01*
X80182158Y-70400046D01*
X80252432Y-70389942D01*
X80317012Y-70419436D01*
X80323595Y-70425565D01*
X81354595Y-71456565D01*
X81388621Y-71518877D01*
X81391500Y-71545660D01*
X81391500Y-72021088D01*
X81391208Y-72029658D01*
X81387275Y-72087352D01*
X81388580Y-72094829D01*
X81388580Y-72094830D01*
X81398261Y-72150299D01*
X81399223Y-72156821D01*
X81406898Y-72220242D01*
X81409581Y-72227343D01*
X81410222Y-72229952D01*
X81414685Y-72246262D01*
X81415450Y-72248798D01*
X81416757Y-72256284D01*
X81426314Y-72278054D01*
X81442442Y-72314795D01*
X81444933Y-72320899D01*
X81467513Y-72380656D01*
X81471817Y-72386919D01*
X81473054Y-72389285D01*
X81481299Y-72404097D01*
X81482632Y-72406351D01*
X81485685Y-72413305D01*
X81490307Y-72419328D01*
X81524579Y-72463991D01*
X81528459Y-72469332D01*
X81560339Y-72515720D01*
X81560344Y-72515725D01*
X81564643Y-72521981D01*
X81570313Y-72527032D01*
X81570314Y-72527034D01*
X81611170Y-72563435D01*
X81616446Y-72568416D01*
X81928550Y-72880520D01*
X81934404Y-72886785D01*
X81972439Y-72930385D01*
X81978657Y-72934755D01*
X82024697Y-72967112D01*
X82029993Y-72971045D01*
X82080282Y-73010477D01*
X82087204Y-73013602D01*
X82089452Y-73014964D01*
X82104185Y-73023368D01*
X82106524Y-73024622D01*
X82112739Y-73028990D01*
X82119815Y-73031749D01*
X82119819Y-73031751D01*
X82172269Y-73052200D01*
X82178334Y-73054749D01*
X82236573Y-73081045D01*
X82244038Y-73082429D01*
X82246582Y-73083226D01*
X82262848Y-73087859D01*
X82265428Y-73088521D01*
X82272509Y-73091282D01*
X82280042Y-73092274D01*
X82280043Y-73092274D01*
X82293261Y-73094014D01*
X82335857Y-73099622D01*
X82342355Y-73100650D01*
X82405187Y-73112296D01*
X82412767Y-73111859D01*
X82412768Y-73111859D01*
X82467393Y-73108709D01*
X82474647Y-73108500D01*
X87121088Y-73108500D01*
X87129658Y-73108792D01*
X87179776Y-73112209D01*
X87179780Y-73112209D01*
X87187352Y-73112725D01*
X87194829Y-73111420D01*
X87194830Y-73111420D01*
X87221308Y-73106799D01*
X87250303Y-73101738D01*
X87256821Y-73100777D01*
X87320242Y-73093102D01*
X87327343Y-73090419D01*
X87329952Y-73089778D01*
X87346262Y-73085315D01*
X87348798Y-73084550D01*
X87356284Y-73083243D01*
X87414800Y-73057556D01*
X87420904Y-73055065D01*
X87425319Y-73053397D01*
X87480656Y-73032487D01*
X87486919Y-73028183D01*
X87489285Y-73026946D01*
X87504097Y-73018701D01*
X87506351Y-73017368D01*
X87513305Y-73014315D01*
X87564002Y-72975413D01*
X87569332Y-72971541D01*
X87615720Y-72939661D01*
X87615725Y-72939656D01*
X87621981Y-72935357D01*
X87640887Y-72914138D01*
X87663435Y-72888830D01*
X87668416Y-72883554D01*
X88806565Y-71745405D01*
X88868877Y-71711379D01*
X88895660Y-71708500D01*
X90515500Y-71708500D01*
X90583621Y-71728502D01*
X90630114Y-71782158D01*
X90641500Y-71834500D01*
X90641500Y-71898134D01*
X90648255Y-71960316D01*
X90699385Y-72096705D01*
X90786739Y-72213261D01*
X90903295Y-72300615D01*
X91039684Y-72351745D01*
X91101866Y-72358500D01*
X91981406Y-72358500D01*
X92049527Y-72378502D01*
X92096020Y-72432158D01*
X92106124Y-72502432D01*
X92076630Y-72567012D01*
X92070501Y-72573595D01*
X90514972Y-74129123D01*
X90452077Y-74163273D01*
X90367712Y-74181206D01*
X90333527Y-74196426D01*
X90199278Y-74256197D01*
X90199276Y-74256198D01*
X90193248Y-74258882D01*
X90187907Y-74262762D01*
X90187906Y-74262763D01*
X90137843Y-74299136D01*
X90038747Y-74371134D01*
X90034326Y-74376044D01*
X90034325Y-74376045D01*
X89925565Y-74496836D01*
X89910960Y-74513056D01*
X89815473Y-74678444D01*
X89756458Y-74860072D01*
X89736496Y-75050000D01*
X89756458Y-75239928D01*
X89815473Y-75421556D01*
X89910960Y-75586944D01*
X89915378Y-75591851D01*
X89915379Y-75591852D01*
X90010850Y-75697883D01*
X90038747Y-75728866D01*
X90193248Y-75841118D01*
X90199276Y-75843802D01*
X90199278Y-75843803D01*
X90242077Y-75862858D01*
X90367712Y-75918794D01*
X90461113Y-75938647D01*
X90548056Y-75957128D01*
X90548061Y-75957128D01*
X90554513Y-75958500D01*
X90745487Y-75958500D01*
X90751939Y-75957128D01*
X90751944Y-75957128D01*
X90838887Y-75938647D01*
X90932288Y-75918794D01*
X91057923Y-75862858D01*
X91100722Y-75843803D01*
X91100724Y-75843802D01*
X91106752Y-75841118D01*
X91261253Y-75728866D01*
X91289150Y-75697883D01*
X91384621Y-75591852D01*
X91384622Y-75591851D01*
X91389040Y-75586944D01*
X91484527Y-75421556D01*
X91543542Y-75239928D01*
X91563504Y-75050000D01*
X91562098Y-75036620D01*
X91558249Y-75000000D01*
X137186526Y-75000000D01*
X137206391Y-75252403D01*
X137207545Y-75257210D01*
X137207546Y-75257216D01*
X137243267Y-75406003D01*
X137265495Y-75498591D01*
X137267388Y-75503162D01*
X137267389Y-75503164D01*
X137358844Y-75723955D01*
X137362384Y-75732502D01*
X137494672Y-75948376D01*
X137659102Y-76140898D01*
X137851624Y-76305328D01*
X138067498Y-76437616D01*
X138072068Y-76439509D01*
X138072072Y-76439511D01*
X138233125Y-76506221D01*
X138301409Y-76534505D01*
X138386032Y-76554821D01*
X138542784Y-76592454D01*
X138542790Y-76592455D01*
X138547597Y-76593609D01*
X138800000Y-76613474D01*
X139052403Y-76593609D01*
X139057210Y-76592455D01*
X139057216Y-76592454D01*
X139213968Y-76554821D01*
X139298591Y-76534505D01*
X139366875Y-76506221D01*
X139527928Y-76439511D01*
X139527932Y-76439509D01*
X139532502Y-76437616D01*
X139748376Y-76305328D01*
X139940898Y-76140898D01*
X140105328Y-75948376D01*
X140237616Y-75732502D01*
X140241157Y-75723955D01*
X140332611Y-75503164D01*
X140332612Y-75503162D01*
X140334505Y-75498591D01*
X140356733Y-75406003D01*
X140392454Y-75257216D01*
X140392455Y-75257210D01*
X140393609Y-75252403D01*
X140413474Y-75000000D01*
X140393609Y-74747597D01*
X140371863Y-74657015D01*
X140335660Y-74506221D01*
X140334505Y-74501409D01*
X140332143Y-74495706D01*
X140239511Y-74272072D01*
X140239509Y-74272068D01*
X140237616Y-74267498D01*
X140105328Y-74051624D01*
X139940898Y-73859102D01*
X139748376Y-73694672D01*
X139532502Y-73562384D01*
X139527932Y-73560491D01*
X139527928Y-73560489D01*
X139303164Y-73467389D01*
X139303162Y-73467388D01*
X139298591Y-73465495D01*
X139213968Y-73445179D01*
X139057216Y-73407546D01*
X139057210Y-73407545D01*
X139052403Y-73406391D01*
X138800000Y-73386526D01*
X138547597Y-73406391D01*
X138542790Y-73407545D01*
X138542784Y-73407546D01*
X138386032Y-73445179D01*
X138301409Y-73465495D01*
X138296838Y-73467388D01*
X138296836Y-73467389D01*
X138072072Y-73560489D01*
X138072068Y-73560491D01*
X138067498Y-73562384D01*
X137851624Y-73694672D01*
X137659102Y-73859102D01*
X137494672Y-74051624D01*
X137362384Y-74267498D01*
X137360491Y-74272068D01*
X137360489Y-74272072D01*
X137267857Y-74495706D01*
X137265495Y-74501409D01*
X137264340Y-74506221D01*
X137228138Y-74657015D01*
X137206391Y-74747597D01*
X137186526Y-75000000D01*
X91558249Y-75000000D01*
X91552895Y-74949059D01*
X91565667Y-74879221D01*
X91589110Y-74846794D01*
X94084549Y-72351355D01*
X94146861Y-72317329D01*
X94198762Y-72316979D01*
X94378597Y-72353567D01*
X94383772Y-72353757D01*
X94383774Y-72353757D01*
X94596673Y-72361564D01*
X94596677Y-72361564D01*
X94601837Y-72361753D01*
X94606957Y-72361097D01*
X94606959Y-72361097D01*
X94818288Y-72334025D01*
X94818289Y-72334025D01*
X94823416Y-72333368D01*
X94828366Y-72331883D01*
X95032429Y-72270661D01*
X95032434Y-72270659D01*
X95037384Y-72269174D01*
X95237994Y-72170896D01*
X95419860Y-72041173D01*
X95431416Y-72029658D01*
X95565563Y-71895978D01*
X95578096Y-71883489D01*
X95708453Y-71702077D01*
X95713681Y-71691500D01*
X95805136Y-71506453D01*
X95805137Y-71506451D01*
X95807430Y-71501811D01*
X95872370Y-71288069D01*
X95901529Y-71066590D01*
X95903156Y-71000000D01*
X95884852Y-70777361D01*
X95830431Y-70560702D01*
X95741354Y-70355840D01*
X95662287Y-70233621D01*
X95622822Y-70172617D01*
X95622820Y-70172614D01*
X95620014Y-70168277D01*
X95469670Y-70003051D01*
X95465619Y-69999852D01*
X95465615Y-69999848D01*
X95298414Y-69867800D01*
X95298410Y-69867798D01*
X95294359Y-69864598D01*
X95253053Y-69841796D01*
X95203084Y-69791364D01*
X95188312Y-69721921D01*
X95213428Y-69655516D01*
X95240780Y-69628909D01*
X95284603Y-69597650D01*
X95419860Y-69501173D01*
X95578096Y-69343489D01*
X95581112Y-69339291D01*
X95581116Y-69339287D01*
X95601460Y-69310975D01*
X95657454Y-69267326D01*
X95703783Y-69258500D01*
X109269962Y-69258500D01*
X109338083Y-69278502D01*
X109384576Y-69332158D01*
X109394680Y-69402432D01*
X109372285Y-69458026D01*
X109342059Y-69500090D01*
X109314002Y-69539136D01*
X109185857Y-69781161D01*
X109184385Y-69785184D01*
X109184383Y-69785188D01*
X109093958Y-70032285D01*
X109091743Y-70038337D01*
X109033404Y-70305907D01*
X109028442Y-70368948D01*
X109012557Y-70570792D01*
X109011917Y-70578918D01*
X109027682Y-70852320D01*
X109028507Y-70856525D01*
X109028508Y-70856533D01*
X109042745Y-70929099D01*
X109080405Y-71121053D01*
X109081792Y-71125103D01*
X109081793Y-71125108D01*
X109167723Y-71376088D01*
X109169112Y-71380144D01*
X109292160Y-71624799D01*
X109294586Y-71628328D01*
X109294589Y-71628334D01*
X109400310Y-71782158D01*
X109447274Y-71850490D01*
X109631582Y-72053043D01*
X109634877Y-72055798D01*
X109634878Y-72055799D01*
X109677564Y-72091490D01*
X109841675Y-72228707D01*
X109845316Y-72230991D01*
X110070024Y-72371951D01*
X110070028Y-72371953D01*
X110073664Y-72374234D01*
X110173536Y-72419328D01*
X110319345Y-72485164D01*
X110319349Y-72485166D01*
X110323257Y-72486930D01*
X110327377Y-72488150D01*
X110327376Y-72488150D01*
X110581723Y-72563491D01*
X110581727Y-72563492D01*
X110585836Y-72564709D01*
X110590070Y-72565357D01*
X110590075Y-72565358D01*
X110852298Y-72605483D01*
X110852300Y-72605483D01*
X110856540Y-72606132D01*
X110995912Y-72608322D01*
X111126071Y-72610367D01*
X111126077Y-72610367D01*
X111130362Y-72610434D01*
X111402235Y-72577534D01*
X111667127Y-72508041D01*
X111671087Y-72506401D01*
X111671092Y-72506399D01*
X111850324Y-72432158D01*
X111920136Y-72403241D01*
X112095759Y-72300615D01*
X112152879Y-72267237D01*
X112152880Y-72267236D01*
X112156582Y-72265073D01*
X112372089Y-72096094D01*
X112376555Y-72091486D01*
X112559686Y-71902509D01*
X112562669Y-71899431D01*
X112565202Y-71895983D01*
X112565206Y-71895978D01*
X112722257Y-71682178D01*
X112724795Y-71678723D01*
X112737311Y-71655671D01*
X112853418Y-71441830D01*
X112853419Y-71441828D01*
X112855468Y-71438054D01*
X112910271Y-71293023D01*
X112950751Y-71185895D01*
X112950752Y-71185891D01*
X112952269Y-71181877D01*
X112989333Y-71020048D01*
X113012449Y-70919117D01*
X113012450Y-70919113D01*
X113013407Y-70914933D01*
X113015748Y-70888710D01*
X113037531Y-70644627D01*
X113037531Y-70644625D01*
X113037751Y-70642161D01*
X113038000Y-70618461D01*
X113038074Y-70611406D01*
X131753423Y-70611406D01*
X131758704Y-70618461D01*
X131935080Y-70721527D01*
X131944363Y-70725974D01*
X132151003Y-70804883D01*
X132160901Y-70807759D01*
X132377653Y-70851857D01*
X132387883Y-70853076D01*
X132608914Y-70861182D01*
X132619223Y-70860714D01*
X132838623Y-70832608D01*
X132848688Y-70830468D01*
X133060557Y-70766905D01*
X133070152Y-70763144D01*
X133268778Y-70665838D01*
X133277636Y-70660559D01*
X133335097Y-70619572D01*
X133341509Y-70611406D01*
X134253423Y-70611406D01*
X134258704Y-70618461D01*
X134435080Y-70721527D01*
X134444363Y-70725974D01*
X134651003Y-70804883D01*
X134660901Y-70807759D01*
X134877653Y-70851857D01*
X134887883Y-70853076D01*
X135108914Y-70861182D01*
X135119223Y-70860714D01*
X135338623Y-70832608D01*
X135348688Y-70830468D01*
X135560557Y-70766905D01*
X135570152Y-70763144D01*
X135768778Y-70665838D01*
X135777636Y-70660559D01*
X135835097Y-70619572D01*
X135843497Y-70608874D01*
X135836510Y-70595721D01*
X135062811Y-69822021D01*
X135048868Y-69814408D01*
X135047034Y-69814539D01*
X135040420Y-69818790D01*
X134260180Y-70599031D01*
X134253423Y-70611406D01*
X133341509Y-70611406D01*
X133343497Y-70608874D01*
X133336510Y-70595721D01*
X132562811Y-69822021D01*
X132548868Y-69814408D01*
X132547034Y-69814539D01*
X132540420Y-69818790D01*
X131760180Y-70599031D01*
X131753423Y-70611406D01*
X113038074Y-70611406D01*
X113038167Y-70602484D01*
X113038167Y-70602483D01*
X113038193Y-70600000D01*
X113035514Y-70560702D01*
X113019859Y-70331055D01*
X113019858Y-70331049D01*
X113019567Y-70326778D01*
X113016824Y-70313530D01*
X112987778Y-70173278D01*
X112964032Y-70058612D01*
X112872617Y-69800465D01*
X112784070Y-69628909D01*
X112748978Y-69560919D01*
X112748978Y-69560918D01*
X112747013Y-69557112D01*
X112739032Y-69545756D01*
X112676619Y-69456950D01*
X112664302Y-69420638D01*
X131137893Y-69420638D01*
X131150627Y-69641468D01*
X131152061Y-69651670D01*
X131200685Y-69867439D01*
X131203773Y-69877292D01*
X131286986Y-70082220D01*
X131291634Y-70091421D01*
X131380097Y-70235781D01*
X131390553Y-70245242D01*
X131399331Y-70241458D01*
X132177979Y-69462811D01*
X132184356Y-69451132D01*
X132914408Y-69451132D01*
X132914539Y-69452966D01*
X132918790Y-69459580D01*
X133696307Y-70237096D01*
X133708313Y-70243652D01*
X133722874Y-70232528D01*
X133789149Y-70207069D01*
X133858667Y-70221482D01*
X133883898Y-70239220D01*
X133890553Y-70245241D01*
X133899331Y-70241458D01*
X134677979Y-69462811D01*
X134685592Y-69448868D01*
X134685461Y-69447034D01*
X134681210Y-69440420D01*
X133903862Y-68663073D01*
X133892331Y-68656776D01*
X133878153Y-68667884D01*
X133812194Y-68694151D01*
X133742505Y-68680588D01*
X133718219Y-68664172D01*
X133708538Y-68655835D01*
X133698973Y-68660238D01*
X132922021Y-69437189D01*
X132914408Y-69451132D01*
X132184356Y-69451132D01*
X132185592Y-69448868D01*
X132185461Y-69447034D01*
X132181210Y-69440420D01*
X131403862Y-68663073D01*
X131392330Y-68656776D01*
X131380048Y-68666399D01*
X131324467Y-68747877D01*
X131319379Y-68756833D01*
X131226252Y-68957459D01*
X131222689Y-68967146D01*
X131163581Y-69180280D01*
X131161650Y-69190400D01*
X131138145Y-69410349D01*
X131137893Y-69420638D01*
X112664302Y-69420638D01*
X112653814Y-69389716D01*
X112670979Y-69320826D01*
X112722664Y-69272151D01*
X112779706Y-69258500D01*
X123809406Y-69258500D01*
X123820589Y-69259027D01*
X123828082Y-69260702D01*
X123836008Y-69260453D01*
X123836009Y-69260453D01*
X123896159Y-69258562D01*
X123900118Y-69258500D01*
X123928029Y-69258500D01*
X123931964Y-69258003D01*
X123932029Y-69257995D01*
X123943866Y-69257062D01*
X123976124Y-69256048D01*
X123980143Y-69255922D01*
X123988062Y-69255673D01*
X124007516Y-69250021D01*
X124026873Y-69246013D01*
X124039103Y-69244468D01*
X124039104Y-69244468D01*
X124046970Y-69243474D01*
X124054341Y-69240555D01*
X124054343Y-69240555D01*
X124088085Y-69227196D01*
X124099315Y-69223351D01*
X124134156Y-69213229D01*
X124134157Y-69213229D01*
X124141766Y-69211018D01*
X124148585Y-69206985D01*
X124148590Y-69206983D01*
X124159201Y-69200707D01*
X124176949Y-69192012D01*
X124195790Y-69184552D01*
X124231560Y-69158564D01*
X124241480Y-69152048D01*
X124272708Y-69133580D01*
X124272711Y-69133578D01*
X124279535Y-69129542D01*
X124293856Y-69115221D01*
X124308890Y-69102380D01*
X124318867Y-69095131D01*
X124325280Y-69090472D01*
X124353471Y-69056395D01*
X124361461Y-69047616D01*
X125102101Y-68306976D01*
X125164413Y-68272950D01*
X125230863Y-68276478D01*
X125288611Y-68295632D01*
X125288613Y-68295632D01*
X125295139Y-68297797D01*
X125301975Y-68298497D01*
X125301978Y-68298498D01*
X125333837Y-68301762D01*
X125399600Y-68308500D01*
X126200400Y-68308500D01*
X126203646Y-68308163D01*
X126203650Y-68308163D01*
X126299308Y-68298238D01*
X126299312Y-68298237D01*
X126306166Y-68297526D01*
X126312702Y-68295345D01*
X126312704Y-68295345D01*
X126326594Y-68290711D01*
X131755508Y-68290711D01*
X131762251Y-68303040D01*
X132537189Y-69077979D01*
X132551132Y-69085592D01*
X132552966Y-69085461D01*
X132559580Y-69081210D01*
X133338994Y-68301795D01*
X133346011Y-68288944D01*
X133338237Y-68278274D01*
X133335902Y-68276430D01*
X133327320Y-68270729D01*
X133133678Y-68163833D01*
X133124272Y-68159606D01*
X132915772Y-68085772D01*
X132905809Y-68083140D01*
X132688047Y-68044350D01*
X132677796Y-68043381D01*
X132456616Y-68040679D01*
X132446332Y-68041399D01*
X132227693Y-68074855D01*
X132217666Y-68077244D01*
X132007426Y-68145961D01*
X131997916Y-68149958D01*
X131801725Y-68252089D01*
X131793007Y-68257578D01*
X131763961Y-68279386D01*
X131755508Y-68290711D01*
X126326594Y-68290711D01*
X126466998Y-68243868D01*
X126473946Y-68241550D01*
X126624348Y-68148478D01*
X126679089Y-68093642D01*
X126729760Y-68042882D01*
X126749305Y-68023303D01*
X126753146Y-68017072D01*
X126838275Y-67878968D01*
X126838276Y-67878966D01*
X126842115Y-67872738D01*
X126851372Y-67844830D01*
X126891803Y-67786472D01*
X126957367Y-67759236D01*
X126970964Y-67758500D01*
X134910406Y-67758500D01*
X134978527Y-67778502D01*
X134999501Y-67795405D01*
X135030440Y-67826344D01*
X135064466Y-67888656D01*
X135059401Y-67959471D01*
X135016854Y-68016307D01*
X134950143Y-68041131D01*
X134946342Y-68041397D01*
X134727693Y-68074855D01*
X134717666Y-68077244D01*
X134507426Y-68145961D01*
X134497916Y-68149958D01*
X134301725Y-68252089D01*
X134293007Y-68257578D01*
X134263961Y-68279386D01*
X134255508Y-68290711D01*
X134262251Y-68303040D01*
X135050000Y-69090790D01*
X136196304Y-70237093D01*
X136208313Y-70243650D01*
X136217244Y-70236828D01*
X136283519Y-70211369D01*
X136353037Y-70225782D01*
X136401167Y-70271120D01*
X136406800Y-70280313D01*
X136406806Y-70280321D01*
X136409501Y-70284719D01*
X136561147Y-70459784D01*
X136739349Y-70607730D01*
X136939322Y-70724584D01*
X136944147Y-70726426D01*
X136944148Y-70726427D01*
X136982714Y-70741154D01*
X137155694Y-70807209D01*
X137160760Y-70808240D01*
X137160761Y-70808240D01*
X137186659Y-70813509D01*
X137382656Y-70853385D01*
X137513324Y-70858176D01*
X137608949Y-70861683D01*
X137608953Y-70861683D01*
X137614113Y-70861872D01*
X137619233Y-70861216D01*
X137619235Y-70861216D01*
X137692291Y-70851857D01*
X137843847Y-70832442D01*
X137848795Y-70830957D01*
X137848802Y-70830956D01*
X138060747Y-70767369D01*
X138065690Y-70765886D01*
X138095817Y-70751127D01*
X138116175Y-70741154D01*
X146725618Y-70741154D01*
X146732673Y-70751127D01*
X146763679Y-70777051D01*
X146770598Y-70782079D01*
X146995272Y-70923015D01*
X147002807Y-70927056D01*
X147244520Y-71036194D01*
X147252551Y-71039180D01*
X147506832Y-71114502D01*
X147515184Y-71116369D01*
X147777340Y-71156484D01*
X147785874Y-71157200D01*
X148051045Y-71161367D01*
X148059596Y-71160918D01*
X148322883Y-71129057D01*
X148331284Y-71127455D01*
X148587824Y-71060153D01*
X148595926Y-71057426D01*
X148840949Y-70955934D01*
X148848617Y-70952128D01*
X149077598Y-70818322D01*
X149084679Y-70813509D01*
X149164655Y-70750801D01*
X149173125Y-70738942D01*
X149166608Y-70727318D01*
X147962812Y-69523522D01*
X147948868Y-69515908D01*
X147947035Y-69516039D01*
X147940420Y-69520290D01*
X146732910Y-70727800D01*
X146725618Y-70741154D01*
X138116175Y-70741154D01*
X138269049Y-70666262D01*
X138269052Y-70666260D01*
X138273684Y-70663991D01*
X138462243Y-70529494D01*
X138626303Y-70366005D01*
X138638898Y-70348478D01*
X138666387Y-70310222D01*
X138761458Y-70177917D01*
X138764078Y-70172617D01*
X138861784Y-69974922D01*
X138861785Y-69974920D01*
X138864078Y-69970280D01*
X138931408Y-69748671D01*
X138961640Y-69519041D01*
X138961722Y-69515691D01*
X138963245Y-69453365D01*
X138963245Y-69453361D01*
X138963327Y-69450000D01*
X138954225Y-69339287D01*
X138944773Y-69224318D01*
X138944772Y-69224312D01*
X138944349Y-69219167D01*
X138923133Y-69134704D01*
X145937665Y-69134704D01*
X145952932Y-69399469D01*
X145954005Y-69407970D01*
X146005065Y-69668222D01*
X146007276Y-69676474D01*
X146093184Y-69927394D01*
X146096499Y-69935279D01*
X146215664Y-70172213D01*
X146220020Y-70179579D01*
X146349347Y-70367750D01*
X146359601Y-70376094D01*
X146373342Y-70368948D01*
X147577978Y-69164312D01*
X147584356Y-69152632D01*
X148314408Y-69152632D01*
X148314539Y-69154465D01*
X148318790Y-69161080D01*
X149525730Y-70368020D01*
X149537939Y-70374687D01*
X149549439Y-70365997D01*
X149646831Y-70233413D01*
X149651418Y-70226185D01*
X149777962Y-69993121D01*
X149781530Y-69985327D01*
X149875271Y-69737250D01*
X149877748Y-69729044D01*
X149936954Y-69470538D01*
X149938294Y-69462077D01*
X149962031Y-69196116D01*
X149962277Y-69191177D01*
X149962666Y-69153985D01*
X149962523Y-69149019D01*
X149944362Y-68882623D01*
X149943201Y-68874149D01*
X149889419Y-68614444D01*
X149887120Y-68606209D01*
X149798588Y-68356205D01*
X149795191Y-68348354D01*
X149673550Y-68112678D01*
X149669122Y-68105366D01*
X149550031Y-67935917D01*
X149539509Y-67927537D01*
X149526121Y-67934589D01*
X148322022Y-69138688D01*
X148314408Y-69152632D01*
X147584356Y-69152632D01*
X147585592Y-69150368D01*
X147585461Y-69148535D01*
X147581210Y-69141920D01*
X146373814Y-67934524D01*
X146361804Y-67927966D01*
X146350064Y-67936934D01*
X146241935Y-68087411D01*
X146237418Y-68094696D01*
X146113325Y-68329067D01*
X146109839Y-68336895D01*
X146018700Y-68585946D01*
X146016311Y-68594170D01*
X145959812Y-68853295D01*
X145958563Y-68861750D01*
X145937754Y-69126153D01*
X145937665Y-69134704D01*
X138923133Y-69134704D01*
X138910797Y-69085592D01*
X138889184Y-68999544D01*
X138889183Y-68999540D01*
X138887925Y-68994533D01*
X138847681Y-68901978D01*
X138797630Y-68786868D01*
X138797628Y-68786865D01*
X138795570Y-68782131D01*
X138669764Y-68587665D01*
X138655071Y-68571517D01*
X138550599Y-68456704D01*
X138513887Y-68416358D01*
X138509836Y-68413159D01*
X138509832Y-68413155D01*
X138336177Y-68276011D01*
X138336172Y-68276008D01*
X138332123Y-68272810D01*
X138327607Y-68270317D01*
X138327604Y-68270315D01*
X138133879Y-68163373D01*
X138133875Y-68163371D01*
X138129355Y-68160876D01*
X138124486Y-68159152D01*
X138124482Y-68159150D01*
X137915903Y-68085288D01*
X137915899Y-68085287D01*
X137911028Y-68083562D01*
X137905935Y-68082655D01*
X137905932Y-68082654D01*
X137688095Y-68043851D01*
X137688089Y-68043850D01*
X137683006Y-68042945D01*
X137610096Y-68042054D01*
X137456581Y-68040179D01*
X137456579Y-68040179D01*
X137451411Y-68040116D01*
X137336219Y-68057743D01*
X137227573Y-68074368D01*
X137227571Y-68074369D01*
X137222464Y-68075150D01*
X137217549Y-68076757D01*
X137217547Y-68076757D01*
X137181889Y-68088412D01*
X137110925Y-68090565D01*
X137053647Y-68057743D01*
X136559905Y-67564000D01*
X146726584Y-67564000D01*
X146732980Y-67575270D01*
X147937188Y-68779478D01*
X147951132Y-68787092D01*
X147952965Y-68786961D01*
X147959580Y-68782710D01*
X149166604Y-67575686D01*
X149173795Y-67562517D01*
X149166473Y-67552280D01*
X149119233Y-67513615D01*
X149112261Y-67508660D01*
X148886122Y-67370082D01*
X148878552Y-67366124D01*
X148635704Y-67259522D01*
X148627644Y-67256620D01*
X148372592Y-67183967D01*
X148364214Y-67182185D01*
X148101656Y-67144818D01*
X148093111Y-67144191D01*
X147827908Y-67142802D01*
X147819374Y-67143339D01*
X147556433Y-67177956D01*
X147548035Y-67179649D01*
X147292238Y-67249627D01*
X147284143Y-67252446D01*
X147040199Y-67356497D01*
X147032577Y-67360381D01*
X146805013Y-67496575D01*
X146797981Y-67501462D01*
X146735053Y-67551877D01*
X146726584Y-67564000D01*
X136559905Y-67564000D01*
X136412405Y-67416500D01*
X135728652Y-66732747D01*
X135721112Y-66724461D01*
X135717000Y-66717982D01*
X135667348Y-66671356D01*
X135664507Y-66668602D01*
X135644770Y-66648865D01*
X135641573Y-66646385D01*
X135632551Y-66638680D01*
X135600321Y-66608414D01*
X135593375Y-66604595D01*
X135593372Y-66604593D01*
X135582566Y-66598652D01*
X135566047Y-66587801D01*
X135565583Y-66587441D01*
X135550041Y-66575386D01*
X135542772Y-66572241D01*
X135542768Y-66572238D01*
X135509463Y-66557826D01*
X135498813Y-66552609D01*
X135460060Y-66531305D01*
X135440437Y-66526267D01*
X135421734Y-66519863D01*
X135410420Y-66514967D01*
X135410419Y-66514967D01*
X135403145Y-66511819D01*
X135395322Y-66510580D01*
X135395312Y-66510577D01*
X135359476Y-66504901D01*
X135347856Y-66502495D01*
X135312711Y-66493472D01*
X135312710Y-66493472D01*
X135305030Y-66491500D01*
X135284776Y-66491500D01*
X135265065Y-66489949D01*
X135254869Y-66488334D01*
X135245057Y-66486780D01*
X135237165Y-66487526D01*
X135201039Y-66490941D01*
X135189181Y-66491500D01*
X126987538Y-66491500D01*
X126919417Y-66471498D01*
X126872924Y-66417842D01*
X126868014Y-66405376D01*
X126843868Y-66333002D01*
X126841550Y-66326054D01*
X126748478Y-66175652D01*
X126623303Y-66050695D01*
X126597033Y-66034502D01*
X126478968Y-65961725D01*
X126478966Y-65961724D01*
X126472738Y-65957885D01*
X126348406Y-65916646D01*
X126311389Y-65904368D01*
X126311387Y-65904368D01*
X126304861Y-65902203D01*
X126298025Y-65901503D01*
X126298022Y-65901502D01*
X126254969Y-65897091D01*
X126200400Y-65891500D01*
X125509500Y-65891500D01*
X125441379Y-65871498D01*
X125394886Y-65817842D01*
X125383500Y-65765500D01*
X125383500Y-65661154D01*
X146725618Y-65661154D01*
X146732673Y-65671127D01*
X146763679Y-65697051D01*
X146770598Y-65702079D01*
X146995272Y-65843015D01*
X147002807Y-65847056D01*
X147244520Y-65956194D01*
X147252551Y-65959180D01*
X147506832Y-66034502D01*
X147515184Y-66036369D01*
X147777340Y-66076484D01*
X147785874Y-66077200D01*
X148051045Y-66081367D01*
X148059596Y-66080918D01*
X148322883Y-66049057D01*
X148331284Y-66047455D01*
X148587824Y-65980153D01*
X148595926Y-65977426D01*
X148840949Y-65875934D01*
X148848617Y-65872128D01*
X149077598Y-65738322D01*
X149084679Y-65733509D01*
X149164655Y-65670801D01*
X149173125Y-65658942D01*
X149166608Y-65647318D01*
X147962812Y-64443522D01*
X147948868Y-64435908D01*
X147947035Y-64436039D01*
X147940420Y-64440290D01*
X146732910Y-65647800D01*
X146725618Y-65661154D01*
X125383500Y-65661154D01*
X125383500Y-65234000D01*
X125403502Y-65165879D01*
X125457158Y-65119386D01*
X125509500Y-65108000D01*
X125527885Y-65108000D01*
X125543124Y-65103525D01*
X125544329Y-65102135D01*
X125546000Y-65094452D01*
X125546000Y-65089884D01*
X126054000Y-65089884D01*
X126058475Y-65105123D01*
X126059865Y-65106328D01*
X126067548Y-65107999D01*
X126197095Y-65107999D01*
X126203614Y-65107662D01*
X126299206Y-65097743D01*
X126312600Y-65094851D01*
X126466784Y-65043412D01*
X126479962Y-65037239D01*
X126617807Y-64951937D01*
X126629208Y-64942901D01*
X126743739Y-64828171D01*
X126752751Y-64816760D01*
X126837816Y-64678757D01*
X126843963Y-64665576D01*
X126895138Y-64511290D01*
X126898005Y-64497914D01*
X126907672Y-64403562D01*
X126908000Y-64397146D01*
X126908000Y-64172115D01*
X126903525Y-64156876D01*
X126902135Y-64155671D01*
X126894452Y-64154000D01*
X126072115Y-64154000D01*
X126056876Y-64158475D01*
X126055671Y-64159865D01*
X126054000Y-64167548D01*
X126054000Y-65089884D01*
X125546000Y-65089884D01*
X125546000Y-63627885D01*
X126054000Y-63627885D01*
X126058475Y-63643124D01*
X126059865Y-63644329D01*
X126067548Y-63646000D01*
X126889884Y-63646000D01*
X126905123Y-63641525D01*
X126906328Y-63640135D01*
X126907999Y-63632452D01*
X126907999Y-63402905D01*
X126907662Y-63396386D01*
X126897743Y-63300794D01*
X126894851Y-63287400D01*
X126843412Y-63133216D01*
X126837239Y-63120038D01*
X126751937Y-62982193D01*
X126742901Y-62970792D01*
X126628171Y-62856261D01*
X126616760Y-62847249D01*
X126478757Y-62762184D01*
X126465576Y-62756037D01*
X126311290Y-62704862D01*
X126297914Y-62701995D01*
X126203562Y-62692328D01*
X126197145Y-62692000D01*
X126072115Y-62692000D01*
X126056876Y-62696475D01*
X126055671Y-62697865D01*
X126054000Y-62705548D01*
X126054000Y-63627885D01*
X125546000Y-63627885D01*
X125546000Y-62710116D01*
X125541525Y-62694877D01*
X125540135Y-62693672D01*
X125532452Y-62692001D01*
X125402905Y-62692001D01*
X125396386Y-62692338D01*
X125300794Y-62702257D01*
X125287400Y-62705149D01*
X125133216Y-62756588D01*
X125120038Y-62762761D01*
X124982193Y-62848063D01*
X124970792Y-62857099D01*
X124889570Y-62938462D01*
X124827287Y-62972541D01*
X124756467Y-62967538D01*
X124711380Y-62938617D01*
X124628488Y-62855870D01*
X124628483Y-62855866D01*
X124623303Y-62850695D01*
X124543384Y-62801432D01*
X124495891Y-62748660D01*
X124483500Y-62694172D01*
X124483500Y-62450000D01*
X128136540Y-62450000D01*
X128156359Y-62765020D01*
X128215505Y-63075072D01*
X128313044Y-63375266D01*
X128314731Y-63378852D01*
X128314733Y-63378856D01*
X128445750Y-63657283D01*
X128445754Y-63657290D01*
X128447438Y-63660869D01*
X128616568Y-63927375D01*
X128619093Y-63930427D01*
X128805432Y-64155671D01*
X128817767Y-64170582D01*
X128820657Y-64173296D01*
X128820658Y-64173297D01*
X128841700Y-64193057D01*
X129047860Y-64386654D01*
X129051062Y-64388981D01*
X129051064Y-64388982D01*
X129062301Y-64397146D01*
X129303221Y-64572184D01*
X129306690Y-64574091D01*
X129306693Y-64574093D01*
X129576352Y-64722340D01*
X129579821Y-64724247D01*
X129583490Y-64725700D01*
X129583495Y-64725702D01*
X129845240Y-64829334D01*
X129873298Y-64840443D01*
X130179025Y-64918940D01*
X130492179Y-64958500D01*
X130807821Y-64958500D01*
X131120975Y-64918940D01*
X131426702Y-64840443D01*
X131454760Y-64829334D01*
X131716505Y-64725702D01*
X131716510Y-64725700D01*
X131720179Y-64724247D01*
X131723648Y-64722340D01*
X131993307Y-64574093D01*
X131993310Y-64574091D01*
X131996779Y-64572184D01*
X132237699Y-64397146D01*
X132248936Y-64388982D01*
X132248938Y-64388981D01*
X132252140Y-64386654D01*
X132458300Y-64193057D01*
X132479342Y-64173297D01*
X132479343Y-64173296D01*
X132482233Y-64170582D01*
X132494569Y-64155671D01*
X132680907Y-63930427D01*
X132683432Y-63927375D01*
X132852562Y-63660869D01*
X132854246Y-63657290D01*
X132854250Y-63657283D01*
X132985267Y-63378856D01*
X132985269Y-63378852D01*
X132986956Y-63375266D01*
X133084495Y-63075072D01*
X133143641Y-62765020D01*
X133163460Y-62450000D01*
X136936540Y-62450000D01*
X136956359Y-62765020D01*
X137015505Y-63075072D01*
X137113044Y-63375266D01*
X137114731Y-63378852D01*
X137114733Y-63378856D01*
X137245750Y-63657283D01*
X137245754Y-63657290D01*
X137247438Y-63660869D01*
X137416568Y-63927375D01*
X137419093Y-63930427D01*
X137605432Y-64155671D01*
X137617767Y-64170582D01*
X137620657Y-64173296D01*
X137620658Y-64173297D01*
X137641700Y-64193057D01*
X137847860Y-64386654D01*
X137851062Y-64388981D01*
X137851064Y-64388982D01*
X137862301Y-64397146D01*
X138103221Y-64572184D01*
X138106690Y-64574091D01*
X138106693Y-64574093D01*
X138376352Y-64722340D01*
X138379821Y-64724247D01*
X138383490Y-64725700D01*
X138383495Y-64725702D01*
X138645240Y-64829334D01*
X138673298Y-64840443D01*
X138979025Y-64918940D01*
X139292179Y-64958500D01*
X139607821Y-64958500D01*
X139920975Y-64918940D01*
X140226702Y-64840443D01*
X140254760Y-64829334D01*
X140516505Y-64725702D01*
X140516510Y-64725700D01*
X140520179Y-64724247D01*
X140523648Y-64722340D01*
X140793307Y-64574093D01*
X140793310Y-64574091D01*
X140796779Y-64572184D01*
X141037699Y-64397146D01*
X141048936Y-64388982D01*
X141048938Y-64388981D01*
X141052140Y-64386654D01*
X141258300Y-64193057D01*
X141279342Y-64173297D01*
X141279343Y-64173296D01*
X141282233Y-64170582D01*
X141294569Y-64155671D01*
X141378096Y-64054704D01*
X145937665Y-64054704D01*
X145952932Y-64319469D01*
X145954005Y-64327970D01*
X146005065Y-64588222D01*
X146007276Y-64596474D01*
X146093184Y-64847394D01*
X146096499Y-64855279D01*
X146215664Y-65092213D01*
X146220020Y-65099579D01*
X146349347Y-65287750D01*
X146359601Y-65296094D01*
X146373342Y-65288948D01*
X147577978Y-64084312D01*
X147584356Y-64072632D01*
X148314408Y-64072632D01*
X148314539Y-64074465D01*
X148318790Y-64081080D01*
X149525730Y-65288020D01*
X149537939Y-65294687D01*
X149549439Y-65285997D01*
X149646831Y-65153413D01*
X149651418Y-65146185D01*
X149777962Y-64913121D01*
X149781530Y-64905327D01*
X149875271Y-64657250D01*
X149877748Y-64649044D01*
X149936954Y-64390538D01*
X149938294Y-64382077D01*
X149962031Y-64116116D01*
X149962277Y-64111177D01*
X149962666Y-64073985D01*
X149962523Y-64069019D01*
X149944362Y-63802623D01*
X149943201Y-63794149D01*
X149889419Y-63534444D01*
X149887120Y-63526209D01*
X149798588Y-63276205D01*
X149795191Y-63268354D01*
X149673550Y-63032678D01*
X149669122Y-63025366D01*
X149550031Y-62855917D01*
X149539509Y-62847537D01*
X149526121Y-62854589D01*
X148322022Y-64058688D01*
X148314408Y-64072632D01*
X147584356Y-64072632D01*
X147585592Y-64070368D01*
X147585461Y-64068535D01*
X147581210Y-64061920D01*
X146373814Y-62854524D01*
X146361804Y-62847966D01*
X146350064Y-62856934D01*
X146241935Y-63007411D01*
X146237418Y-63014696D01*
X146113325Y-63249067D01*
X146109839Y-63256895D01*
X146018700Y-63505946D01*
X146016311Y-63514170D01*
X145959812Y-63773295D01*
X145958563Y-63781750D01*
X145937754Y-64046153D01*
X145937665Y-64054704D01*
X141378096Y-64054704D01*
X141480907Y-63930427D01*
X141483432Y-63927375D01*
X141652562Y-63660869D01*
X141654246Y-63657290D01*
X141654250Y-63657283D01*
X141785267Y-63378856D01*
X141785269Y-63378852D01*
X141786956Y-63375266D01*
X141884495Y-63075072D01*
X141943641Y-62765020D01*
X141961321Y-62484000D01*
X146726584Y-62484000D01*
X146732980Y-62495270D01*
X147937188Y-63699478D01*
X147951132Y-63707092D01*
X147952965Y-63706961D01*
X147959580Y-63702710D01*
X149166604Y-62495686D01*
X149173795Y-62482517D01*
X149166473Y-62472280D01*
X149119233Y-62433615D01*
X149112261Y-62428660D01*
X148886122Y-62290082D01*
X148878552Y-62286124D01*
X148635704Y-62179522D01*
X148627644Y-62176620D01*
X148372592Y-62103967D01*
X148364214Y-62102185D01*
X148101656Y-62064818D01*
X148093111Y-62064191D01*
X147827908Y-62062802D01*
X147819374Y-62063339D01*
X147556433Y-62097956D01*
X147548035Y-62099649D01*
X147292238Y-62169627D01*
X147284143Y-62172446D01*
X147040199Y-62276497D01*
X147032577Y-62280381D01*
X146805013Y-62416575D01*
X146797981Y-62421462D01*
X146735053Y-62471877D01*
X146726584Y-62484000D01*
X141961321Y-62484000D01*
X141963460Y-62450000D01*
X141943641Y-62134980D01*
X141884495Y-61824928D01*
X141816763Y-61616470D01*
X141788182Y-61528507D01*
X141788182Y-61528506D01*
X141786956Y-61524734D01*
X141783601Y-61517604D01*
X141654250Y-61242717D01*
X141654246Y-61242710D01*
X141652562Y-61239131D01*
X141483432Y-60972625D01*
X141282233Y-60729418D01*
X141080134Y-60539634D01*
X145941500Y-60539634D01*
X145948255Y-60601816D01*
X145999385Y-60738205D01*
X146086739Y-60854761D01*
X146203295Y-60942115D01*
X146339684Y-60993245D01*
X146401866Y-61000000D01*
X149498134Y-61000000D01*
X149560316Y-60993245D01*
X149696705Y-60942115D01*
X149813261Y-60854761D01*
X149900615Y-60738205D01*
X149951745Y-60601816D01*
X149958500Y-60539634D01*
X149958500Y-57443366D01*
X149951745Y-57381184D01*
X149900615Y-57244795D01*
X149813261Y-57128239D01*
X149696705Y-57040885D01*
X149560316Y-56989755D01*
X149498134Y-56983000D01*
X146401866Y-56983000D01*
X146339684Y-56989755D01*
X146203295Y-57040885D01*
X146086739Y-57128239D01*
X145999385Y-57244795D01*
X145948255Y-57381184D01*
X145941500Y-57443366D01*
X145941500Y-60539634D01*
X141080134Y-60539634D01*
X141052140Y-60513346D01*
X140796779Y-60327816D01*
X140775232Y-60315970D01*
X140523648Y-60177660D01*
X140523647Y-60177659D01*
X140520179Y-60175753D01*
X140516510Y-60174300D01*
X140516505Y-60174298D01*
X140230372Y-60061010D01*
X140230371Y-60061010D01*
X140226702Y-60059557D01*
X139920975Y-59981060D01*
X139607821Y-59941500D01*
X139292179Y-59941500D01*
X138979025Y-59981060D01*
X138673298Y-60059557D01*
X138669629Y-60061010D01*
X138669628Y-60061010D01*
X138383495Y-60174298D01*
X138383490Y-60174300D01*
X138379821Y-60175753D01*
X138376353Y-60177659D01*
X138376352Y-60177660D01*
X138124769Y-60315970D01*
X138103221Y-60327816D01*
X137847860Y-60513346D01*
X137617767Y-60729418D01*
X137416568Y-60972625D01*
X137247438Y-61239131D01*
X137245754Y-61242710D01*
X137245750Y-61242717D01*
X137116399Y-61517604D01*
X137113044Y-61524734D01*
X137111818Y-61528506D01*
X137111818Y-61528507D01*
X137083237Y-61616470D01*
X137015505Y-61824928D01*
X136956359Y-62134980D01*
X136936540Y-62450000D01*
X133163460Y-62450000D01*
X133143641Y-62134980D01*
X133084495Y-61824928D01*
X133016763Y-61616470D01*
X132988182Y-61528507D01*
X132988182Y-61528506D01*
X132986956Y-61524734D01*
X132983601Y-61517604D01*
X132854250Y-61242717D01*
X132854246Y-61242710D01*
X132852562Y-61239131D01*
X132683432Y-60972625D01*
X132482233Y-60729418D01*
X132252140Y-60513346D01*
X131996779Y-60327816D01*
X131975232Y-60315970D01*
X131723648Y-60177660D01*
X131723647Y-60177659D01*
X131720179Y-60175753D01*
X131716510Y-60174300D01*
X131716505Y-60174298D01*
X131430372Y-60061010D01*
X131430371Y-60061010D01*
X131426702Y-60059557D01*
X131120975Y-59981060D01*
X130807821Y-59941500D01*
X130492179Y-59941500D01*
X130179025Y-59981060D01*
X129873298Y-60059557D01*
X129869629Y-60061010D01*
X129869628Y-60061010D01*
X129583495Y-60174298D01*
X129583490Y-60174300D01*
X129579821Y-60175753D01*
X129576353Y-60177659D01*
X129576352Y-60177660D01*
X129324769Y-60315970D01*
X129303221Y-60327816D01*
X129047860Y-60513346D01*
X128817767Y-60729418D01*
X128616568Y-60972625D01*
X128447438Y-61239131D01*
X128445754Y-61242710D01*
X128445750Y-61242717D01*
X128316399Y-61517604D01*
X128313044Y-61524734D01*
X128311818Y-61528506D01*
X128311818Y-61528507D01*
X128283237Y-61616470D01*
X128215505Y-61824928D01*
X128156359Y-62134980D01*
X128136540Y-62450000D01*
X124483500Y-62450000D01*
X124483500Y-61843413D01*
X124503502Y-61775292D01*
X124513102Y-61763380D01*
X124513261Y-61763261D01*
X124531684Y-61738680D01*
X124561683Y-61698652D01*
X124600615Y-61646705D01*
X124651745Y-61510316D01*
X124658500Y-61448134D01*
X124658500Y-61444669D01*
X124942001Y-61444669D01*
X124942371Y-61451490D01*
X124947895Y-61502352D01*
X124951521Y-61517604D01*
X124996676Y-61638054D01*
X125005214Y-61653649D01*
X125081715Y-61755724D01*
X125094276Y-61768285D01*
X125196351Y-61844786D01*
X125211946Y-61853324D01*
X125332394Y-61898478D01*
X125347649Y-61902105D01*
X125398514Y-61907631D01*
X125405328Y-61908000D01*
X125477885Y-61908000D01*
X125493124Y-61903525D01*
X125494329Y-61902135D01*
X125496000Y-61894452D01*
X125496000Y-61889884D01*
X126004000Y-61889884D01*
X126008475Y-61905123D01*
X126009865Y-61906328D01*
X126017548Y-61907999D01*
X126094669Y-61907999D01*
X126101490Y-61907629D01*
X126152352Y-61902105D01*
X126167604Y-61898479D01*
X126288054Y-61853324D01*
X126303649Y-61844786D01*
X126405724Y-61768285D01*
X126418285Y-61755724D01*
X126494786Y-61653649D01*
X126503324Y-61638054D01*
X126548478Y-61517606D01*
X126552105Y-61502351D01*
X126557631Y-61451486D01*
X126558000Y-61444672D01*
X126558000Y-61022115D01*
X126553525Y-61006876D01*
X126552135Y-61005671D01*
X126544452Y-61004000D01*
X126022115Y-61004000D01*
X126006876Y-61008475D01*
X126005671Y-61009865D01*
X126004000Y-61017548D01*
X126004000Y-61889884D01*
X125496000Y-61889884D01*
X125496000Y-61022115D01*
X125491525Y-61006876D01*
X125490135Y-61005671D01*
X125482452Y-61004000D01*
X124960116Y-61004000D01*
X124944877Y-61008475D01*
X124943672Y-61009865D01*
X124942001Y-61017548D01*
X124942001Y-61444669D01*
X124658500Y-61444669D01*
X124658500Y-60051866D01*
X124651745Y-59989684D01*
X124648881Y-59982045D01*
X124647637Y-59978725D01*
X124647420Y-59975762D01*
X124647144Y-59974600D01*
X124647332Y-59974555D01*
X124642457Y-59907918D01*
X124676380Y-59845550D01*
X124738637Y-59811423D01*
X124765621Y-59808500D01*
X124834913Y-59808500D01*
X124903034Y-59828502D01*
X124949527Y-59882158D01*
X124959631Y-59952432D01*
X124952896Y-59978726D01*
X124951523Y-59982389D01*
X124947895Y-59997649D01*
X124942369Y-60048514D01*
X124942000Y-60055328D01*
X124942000Y-60477885D01*
X124946475Y-60493124D01*
X124947865Y-60494329D01*
X124955548Y-60496000D01*
X126539884Y-60496000D01*
X126555123Y-60491525D01*
X126556328Y-60490135D01*
X126557999Y-60482452D01*
X126557999Y-60055331D01*
X126557629Y-60048510D01*
X126552105Y-59997648D01*
X126548479Y-59982396D01*
X126503324Y-59861946D01*
X126494786Y-59846351D01*
X126418285Y-59744276D01*
X126405724Y-59731715D01*
X126303646Y-59655212D01*
X126285030Y-59645020D01*
X126234884Y-59594762D01*
X126219870Y-59525371D01*
X126244755Y-59458878D01*
X126301638Y-59416395D01*
X126345539Y-59408500D01*
X131232930Y-59408500D01*
X131251880Y-59409933D01*
X131266115Y-59412099D01*
X131266119Y-59412099D01*
X131273349Y-59413199D01*
X131280641Y-59412606D01*
X131280644Y-59412606D01*
X131326018Y-59408915D01*
X131336233Y-59408500D01*
X131344293Y-59408500D01*
X131357583Y-59406951D01*
X131372507Y-59405211D01*
X131376882Y-59404778D01*
X131442339Y-59399454D01*
X131442342Y-59399453D01*
X131449637Y-59398860D01*
X131456601Y-59396604D01*
X131462560Y-59395413D01*
X131468415Y-59394029D01*
X131475681Y-59393182D01*
X131544327Y-59368265D01*
X131548455Y-59366848D01*
X131610936Y-59346607D01*
X131610938Y-59346606D01*
X131617899Y-59344351D01*
X131624154Y-59340555D01*
X131629628Y-59338049D01*
X131635058Y-59335330D01*
X131641937Y-59332833D01*
X131667110Y-59316329D01*
X131702976Y-59292814D01*
X131706680Y-59290477D01*
X131769107Y-59252595D01*
X131777484Y-59245197D01*
X131777508Y-59245224D01*
X131780500Y-59242571D01*
X131783733Y-59239868D01*
X131789852Y-59235856D01*
X131843128Y-59179617D01*
X131845506Y-59177175D01*
X131976630Y-59046051D01*
X131991042Y-59033665D01*
X132002637Y-59025132D01*
X132002642Y-59025127D01*
X132008537Y-59020789D01*
X132013276Y-59015211D01*
X132013279Y-59015208D01*
X132042754Y-58980513D01*
X132049684Y-58972997D01*
X132055380Y-58967301D01*
X132057643Y-58964440D01*
X132057648Y-58964435D01*
X132073012Y-58945015D01*
X132075801Y-58941614D01*
X132086075Y-58929521D01*
X132123052Y-58885996D01*
X132126378Y-58879483D01*
X132129739Y-58874444D01*
X132132915Y-58869302D01*
X132137453Y-58863565D01*
X132168374Y-58797406D01*
X132170280Y-58793506D01*
X132175787Y-58782722D01*
X132203488Y-58728473D01*
X132205227Y-58721364D01*
X132207323Y-58715730D01*
X132209242Y-58709960D01*
X132212341Y-58703331D01*
X132214718Y-58691907D01*
X132227209Y-58631852D01*
X132228180Y-58627563D01*
X132230123Y-58619623D01*
X132245527Y-58556671D01*
X132246219Y-58545517D01*
X132246254Y-58545519D01*
X132246494Y-58541547D01*
X132246871Y-58537326D01*
X132248360Y-58530166D01*
X132246265Y-58452739D01*
X132246219Y-58449331D01*
X132246219Y-56118892D01*
X132266221Y-56050771D01*
X132305916Y-56011747D01*
X132520266Y-55879104D01*
X132520267Y-55879104D01*
X132524238Y-55876646D01*
X132527801Y-55873629D01*
X132527806Y-55873626D01*
X132720158Y-55710787D01*
X132720159Y-55710786D01*
X132723724Y-55707768D01*
X132815448Y-55603177D01*
X132892976Y-55514774D01*
X132892980Y-55514769D01*
X132896058Y-55511259D01*
X132943145Y-55438054D01*
X133034927Y-55295363D01*
X133034929Y-55295360D01*
X133037452Y-55291437D01*
X133039369Y-55287180D01*
X133039374Y-55287172D01*
X133040228Y-55285276D01*
X133040706Y-55284719D01*
X133041602Y-55283068D01*
X133041956Y-55283260D01*
X133086446Y-55231383D01*
X133144891Y-55211447D01*
X133167705Y-55209591D01*
X133176019Y-55208915D01*
X133186233Y-55208500D01*
X133194293Y-55208500D01*
X133207583Y-55206951D01*
X133222507Y-55205211D01*
X133226882Y-55204778D01*
X133292339Y-55199454D01*
X133292342Y-55199453D01*
X133299637Y-55198860D01*
X133306601Y-55196604D01*
X133312560Y-55195413D01*
X133318415Y-55194029D01*
X133325681Y-55193182D01*
X133394327Y-55168265D01*
X133398455Y-55166848D01*
X133460936Y-55146607D01*
X133460938Y-55146606D01*
X133467899Y-55144351D01*
X133474154Y-55140555D01*
X133479628Y-55138049D01*
X133485058Y-55135330D01*
X133491937Y-55132833D01*
X133498058Y-55128820D01*
X133552976Y-55092814D01*
X133556680Y-55090477D01*
X133619107Y-55052595D01*
X133627484Y-55045197D01*
X133627508Y-55045224D01*
X133630500Y-55042571D01*
X133633733Y-55039868D01*
X133639852Y-55035856D01*
X133693128Y-54979617D01*
X133695506Y-54977175D01*
X134268842Y-54403839D01*
X144964892Y-54403839D01*
X144965116Y-54408505D01*
X144965116Y-54408511D01*
X144968783Y-54484855D01*
X144977432Y-54664908D01*
X145028423Y-54921256D01*
X145116745Y-55167252D01*
X145136908Y-55204778D01*
X145233194Y-55383975D01*
X145240456Y-55397491D01*
X145243251Y-55401234D01*
X145243253Y-55401237D01*
X145394049Y-55603177D01*
X145394054Y-55603183D01*
X145396841Y-55606915D01*
X145400150Y-55610195D01*
X145400155Y-55610201D01*
X145579145Y-55787635D01*
X145582462Y-55790923D01*
X145586224Y-55793681D01*
X145586227Y-55793684D01*
X145725739Y-55895978D01*
X145793243Y-55945474D01*
X145797386Y-55947654D01*
X145797388Y-55947655D01*
X146020403Y-56064989D01*
X146020408Y-56064991D01*
X146024553Y-56067172D01*
X146157899Y-56113739D01*
X146247731Y-56145110D01*
X146271309Y-56153344D01*
X146275902Y-56154216D01*
X146523504Y-56201224D01*
X146523507Y-56201224D01*
X146528093Y-56202095D01*
X146658678Y-56207226D01*
X146784594Y-56212174D01*
X146784600Y-56212174D01*
X146789262Y-56212357D01*
X146868696Y-56203657D01*
X147044426Y-56184412D01*
X147044431Y-56184411D01*
X147049079Y-56183902D01*
X147053603Y-56182711D01*
X147297313Y-56118548D01*
X147297315Y-56118547D01*
X147301836Y-56117357D01*
X147309692Y-56113982D01*
X147486406Y-56038059D01*
X147541981Y-56014182D01*
X147661051Y-55940500D01*
X147760266Y-55879104D01*
X147760267Y-55879104D01*
X147764238Y-55876646D01*
X147767801Y-55873629D01*
X147767806Y-55873626D01*
X147960158Y-55710787D01*
X147960159Y-55710786D01*
X147963724Y-55707768D01*
X148055448Y-55603177D01*
X148132976Y-55514774D01*
X148132980Y-55514769D01*
X148136058Y-55511259D01*
X148185730Y-55434036D01*
X148236069Y-55355774D01*
X148277452Y-55291437D01*
X148384802Y-55053129D01*
X148391172Y-55030544D01*
X148454479Y-54806076D01*
X148454480Y-54806073D01*
X148455749Y-54801572D01*
X148472551Y-54669496D01*
X148488335Y-54545421D01*
X148488335Y-54545417D01*
X148488733Y-54542291D01*
X148489295Y-54520854D01*
X148491067Y-54453160D01*
X148491150Y-54450000D01*
X148471780Y-54189348D01*
X148470518Y-54183768D01*
X148428572Y-53998399D01*
X148414096Y-53934423D01*
X148405091Y-53911267D01*
X148321059Y-53695176D01*
X148321058Y-53695173D01*
X148319366Y-53690823D01*
X148300282Y-53657432D01*
X148242483Y-53556305D01*
X148189670Y-53463902D01*
X148027857Y-53258643D01*
X147837482Y-53079557D01*
X147685156Y-52973884D01*
X147626570Y-52933241D01*
X147626567Y-52933239D01*
X147622728Y-52930576D01*
X147618535Y-52928508D01*
X147392500Y-52817040D01*
X147392497Y-52817039D01*
X147388312Y-52814975D01*
X147342168Y-52800204D01*
X147143842Y-52736720D01*
X147139384Y-52735293D01*
X146881412Y-52693279D01*
X146767661Y-52691790D01*
X146624741Y-52689919D01*
X146624738Y-52689919D01*
X146620064Y-52689858D01*
X146361081Y-52725104D01*
X146356595Y-52726412D01*
X146356593Y-52726412D01*
X146328707Y-52734540D01*
X146110152Y-52798243D01*
X146105899Y-52800203D01*
X146105898Y-52800204D01*
X146071849Y-52815901D01*
X145872791Y-52907668D01*
X145833786Y-52933241D01*
X145658123Y-53048410D01*
X145658118Y-53048414D01*
X145654210Y-53050976D01*
X145459213Y-53225018D01*
X145292082Y-53425970D01*
X145289653Y-53429973D01*
X145173040Y-53622146D01*
X145156490Y-53649419D01*
X145055416Y-53890455D01*
X144991078Y-54143783D01*
X144990610Y-54148434D01*
X144990609Y-54148438D01*
X144986021Y-54194000D01*
X144964892Y-54403839D01*
X134268842Y-54403839D01*
X134669776Y-54002905D01*
X134732088Y-53968879D01*
X134758871Y-53966000D01*
X136340634Y-53966000D01*
X136402816Y-53959245D01*
X136539205Y-53908115D01*
X136655761Y-53820761D01*
X136743115Y-53704205D01*
X136794245Y-53567816D01*
X136801000Y-53505634D01*
X136801000Y-50909366D01*
X136794245Y-50847184D01*
X136743115Y-50710795D01*
X136655761Y-50594239D01*
X136539205Y-50506885D01*
X136402816Y-50455755D01*
X136340634Y-50449000D01*
X134444366Y-50449000D01*
X134382184Y-50455755D01*
X134245795Y-50506885D01*
X134129239Y-50594239D01*
X134041885Y-50710795D01*
X133990755Y-50847184D01*
X133984000Y-50909366D01*
X133984000Y-52491129D01*
X133963998Y-52559250D01*
X133947095Y-52580224D01*
X133100075Y-53427244D01*
X133037763Y-53461270D01*
X132966948Y-53456205D01*
X132912030Y-53416155D01*
X132790749Y-53262311D01*
X132790746Y-53262308D01*
X132787857Y-53258643D01*
X132597482Y-53079557D01*
X132445156Y-52973884D01*
X132386570Y-52933241D01*
X132386567Y-52933239D01*
X132382728Y-52930576D01*
X132378535Y-52928508D01*
X132152500Y-52817040D01*
X132152497Y-52817039D01*
X132148312Y-52814975D01*
X132102168Y-52800204D01*
X131903842Y-52736720D01*
X131899384Y-52735293D01*
X131641412Y-52693279D01*
X131527661Y-52691790D01*
X131384741Y-52689919D01*
X131384738Y-52689919D01*
X131380064Y-52689858D01*
X131121081Y-52725104D01*
X131116595Y-52726412D01*
X131116593Y-52726412D01*
X131088707Y-52734540D01*
X130870152Y-52798243D01*
X130865899Y-52800203D01*
X130865898Y-52800204D01*
X130831849Y-52815901D01*
X130632791Y-52907668D01*
X130593786Y-52933241D01*
X130418123Y-53048410D01*
X130418118Y-53048414D01*
X130414210Y-53050976D01*
X130219213Y-53225018D01*
X130052082Y-53425970D01*
X130049653Y-53429973D01*
X129933040Y-53622146D01*
X129916490Y-53649419D01*
X129815416Y-53890455D01*
X129751078Y-54143783D01*
X129750610Y-54148434D01*
X129750609Y-54148438D01*
X129746021Y-54194000D01*
X129724892Y-54403839D01*
X129725116Y-54408505D01*
X129725116Y-54408511D01*
X129728783Y-54484855D01*
X129737432Y-54664908D01*
X129788423Y-54921256D01*
X129876745Y-55167252D01*
X129896908Y-55204778D01*
X129993194Y-55383975D01*
X130000456Y-55397491D01*
X130003251Y-55401234D01*
X130003253Y-55401237D01*
X130154049Y-55603177D01*
X130154054Y-55603183D01*
X130156841Y-55606915D01*
X130160150Y-55610195D01*
X130160155Y-55610201D01*
X130339145Y-55787635D01*
X130342462Y-55790923D01*
X130346224Y-55793681D01*
X130346227Y-55793684D01*
X130485739Y-55895978D01*
X130553243Y-55945474D01*
X130557376Y-55947648D01*
X130557380Y-55947651D01*
X130661887Y-56002635D01*
X130712859Y-56052054D01*
X130729219Y-56114143D01*
X130729219Y-57765500D01*
X130709217Y-57833621D01*
X130655561Y-57880114D01*
X130603219Y-57891500D01*
X125689754Y-57891500D01*
X125621633Y-57871498D01*
X125575140Y-57817842D01*
X125571772Y-57809730D01*
X125553767Y-57761703D01*
X125550615Y-57753295D01*
X125463261Y-57636739D01*
X125346705Y-57549385D01*
X125210316Y-57498255D01*
X125148134Y-57491500D01*
X124451866Y-57491500D01*
X124389684Y-57498255D01*
X124253295Y-57549385D01*
X124136739Y-57636739D01*
X124049385Y-57753295D01*
X123998255Y-57889684D01*
X123991500Y-57951866D01*
X123991500Y-59348134D01*
X123998255Y-59410316D01*
X124001029Y-59417715D01*
X124001029Y-59417716D01*
X124002363Y-59421275D01*
X124002580Y-59424238D01*
X124002856Y-59425400D01*
X124002668Y-59425445D01*
X124007543Y-59492082D01*
X123973620Y-59554450D01*
X123911363Y-59588577D01*
X123884379Y-59591500D01*
X123501866Y-59591500D01*
X123439684Y-59598255D01*
X123303295Y-59649385D01*
X123186739Y-59736739D01*
X123099385Y-59853295D01*
X123048255Y-59989684D01*
X123041500Y-60051866D01*
X123041500Y-61448134D01*
X123048255Y-61510316D01*
X123099385Y-61646705D01*
X123149701Y-61713841D01*
X123186739Y-61763261D01*
X123185135Y-61764463D01*
X123213621Y-61816630D01*
X123216500Y-61843413D01*
X123216500Y-62637484D01*
X123196498Y-62705605D01*
X123142842Y-62752098D01*
X123135126Y-62755137D01*
X123133003Y-62756132D01*
X123126054Y-62758450D01*
X122975652Y-62851522D01*
X122850695Y-62976697D01*
X122846855Y-62982927D01*
X122846854Y-62982928D01*
X122788950Y-63076866D01*
X122757885Y-63127262D01*
X122702203Y-63295139D01*
X122691500Y-63399600D01*
X122691500Y-64400400D01*
X122691837Y-64403646D01*
X122691837Y-64403650D01*
X122701756Y-64499242D01*
X122702474Y-64506166D01*
X122704655Y-64512702D01*
X122704655Y-64512704D01*
X122747766Y-64641921D01*
X122758450Y-64673946D01*
X122851522Y-64824348D01*
X122976697Y-64949305D01*
X122982927Y-64953145D01*
X122982928Y-64953146D01*
X123119352Y-65037239D01*
X123127262Y-65042115D01*
X123207005Y-65068564D01*
X123288611Y-65095632D01*
X123288613Y-65095632D01*
X123295139Y-65097797D01*
X123301975Y-65098497D01*
X123301978Y-65098498D01*
X123345031Y-65102909D01*
X123399600Y-65108500D01*
X123990500Y-65108500D01*
X124058621Y-65128502D01*
X124105114Y-65182158D01*
X124116500Y-65234500D01*
X124116500Y-65765500D01*
X124096498Y-65833621D01*
X124042842Y-65880114D01*
X123990500Y-65891500D01*
X123539595Y-65891500D01*
X123471474Y-65871498D01*
X123450500Y-65854595D01*
X120770405Y-63174500D01*
X120736379Y-63112188D01*
X120733500Y-63085405D01*
X120733500Y-58703767D01*
X120734027Y-58692584D01*
X120735702Y-58685091D01*
X120734562Y-58648801D01*
X120733562Y-58617001D01*
X120733500Y-58613043D01*
X120733500Y-58585144D01*
X120732996Y-58581153D01*
X120732063Y-58569311D01*
X120731838Y-58562125D01*
X120730674Y-58525111D01*
X120728462Y-58517497D01*
X120728461Y-58517492D01*
X120725023Y-58505659D01*
X120721012Y-58486295D01*
X120719467Y-58474064D01*
X120718474Y-58466203D01*
X120715557Y-58458836D01*
X120715556Y-58458831D01*
X120702198Y-58425092D01*
X120698354Y-58413865D01*
X120689581Y-58383671D01*
X120686018Y-58371407D01*
X120675707Y-58353972D01*
X120667012Y-58336224D01*
X120659552Y-58317383D01*
X120633564Y-58281613D01*
X120627048Y-58271693D01*
X120608580Y-58240465D01*
X120608578Y-58240462D01*
X120604542Y-58233638D01*
X120590221Y-58219317D01*
X120577380Y-58204283D01*
X120570131Y-58194306D01*
X120565472Y-58187893D01*
X120559368Y-58182843D01*
X120559363Y-58182838D01*
X120531402Y-58159707D01*
X120522621Y-58151717D01*
X120302442Y-57931537D01*
X120268417Y-57869225D01*
X120267453Y-57820559D01*
X120268263Y-57815965D01*
X120269686Y-57810655D01*
X120270166Y-57805175D01*
X120287637Y-57605475D01*
X120288116Y-57600000D01*
X120269686Y-57389345D01*
X120255258Y-57335500D01*
X120216379Y-57190400D01*
X120216378Y-57190398D01*
X120214956Y-57185090D01*
X120206856Y-57167720D01*
X120127912Y-56998423D01*
X120127910Y-56998420D01*
X120125589Y-56993442D01*
X120004301Y-56820224D01*
X119854776Y-56670699D01*
X119681558Y-56549411D01*
X119676580Y-56547090D01*
X119676577Y-56547088D01*
X119494892Y-56462367D01*
X119494891Y-56462366D01*
X119489910Y-56460044D01*
X119484602Y-56458622D01*
X119484600Y-56458621D01*
X119290970Y-56406738D01*
X119290968Y-56406738D01*
X119285655Y-56405314D01*
X119075000Y-56386884D01*
X118864345Y-56405314D01*
X118859032Y-56406738D01*
X118859030Y-56406738D01*
X118665400Y-56458621D01*
X118665398Y-56458622D01*
X118660090Y-56460044D01*
X118655109Y-56462366D01*
X118655108Y-56462367D01*
X118473423Y-56547088D01*
X118473420Y-56547090D01*
X118468442Y-56549411D01*
X118295224Y-56670699D01*
X118145699Y-56820224D01*
X118024411Y-56993442D01*
X118022090Y-56998420D01*
X118022088Y-56998423D01*
X117943144Y-57167720D01*
X117935044Y-57185090D01*
X117933622Y-57190398D01*
X117933621Y-57190400D01*
X117894742Y-57335500D01*
X117880314Y-57389345D01*
X117861884Y-57600000D01*
X117880314Y-57810655D01*
X117935044Y-58014910D01*
X117937366Y-58019891D01*
X117937367Y-58019892D01*
X118018698Y-58194306D01*
X118024411Y-58206558D01*
X118145699Y-58379776D01*
X118295224Y-58529301D01*
X118468442Y-58650589D01*
X118473420Y-58652910D01*
X118473423Y-58652912D01*
X118651188Y-58735805D01*
X118704473Y-58782722D01*
X118723934Y-58851000D01*
X118703392Y-58918960D01*
X118651188Y-58964195D01*
X118473423Y-59047088D01*
X118473420Y-59047090D01*
X118468442Y-59049411D01*
X118295224Y-59170699D01*
X118145699Y-59320224D01*
X118024411Y-59493442D01*
X118022090Y-59498420D01*
X118022088Y-59498423D01*
X117949182Y-59654771D01*
X117935044Y-59685090D01*
X117933622Y-59690398D01*
X117933621Y-59690400D01*
X117885212Y-59871064D01*
X117880314Y-59889345D01*
X117861884Y-60100000D01*
X117880314Y-60310655D01*
X117881738Y-60315968D01*
X117881738Y-60315970D01*
X117928406Y-60490135D01*
X117935044Y-60514910D01*
X117937366Y-60519891D01*
X117937367Y-60519892D01*
X117971906Y-60593960D01*
X118024411Y-60706558D01*
X118145699Y-60879776D01*
X118295224Y-61029301D01*
X118468442Y-61150589D01*
X118473420Y-61152910D01*
X118473423Y-61152912D01*
X118651188Y-61235805D01*
X118704473Y-61282722D01*
X118723934Y-61351000D01*
X118703392Y-61418960D01*
X118651188Y-61464195D01*
X118473423Y-61547088D01*
X118473420Y-61547090D01*
X118468442Y-61549411D01*
X118295224Y-61670699D01*
X118145699Y-61820224D01*
X118024411Y-61993442D01*
X118022090Y-61998420D01*
X118022088Y-61998423D01*
X117938280Y-62178150D01*
X117935044Y-62185090D01*
X117933622Y-62190398D01*
X117933621Y-62190400D01*
X117888889Y-62357343D01*
X117880314Y-62389345D01*
X117861884Y-62600000D01*
X117880314Y-62810655D01*
X117881738Y-62815968D01*
X117881738Y-62815970D01*
X117933035Y-63007411D01*
X117935044Y-63014910D01*
X117937366Y-63019891D01*
X117937367Y-63019892D01*
X118003877Y-63162522D01*
X118024411Y-63206558D01*
X118145699Y-63379776D01*
X118295224Y-63529301D01*
X118468442Y-63650589D01*
X118473420Y-63652910D01*
X118473423Y-63652912D01*
X118651188Y-63735805D01*
X118704473Y-63782722D01*
X118723934Y-63851000D01*
X118703392Y-63918960D01*
X118651188Y-63964195D01*
X118473423Y-64047088D01*
X118473420Y-64047090D01*
X118468442Y-64049411D01*
X118295224Y-64170699D01*
X118145699Y-64320224D01*
X118024411Y-64493442D01*
X118022090Y-64498420D01*
X118022088Y-64498423D01*
X117939722Y-64675058D01*
X117935044Y-64685090D01*
X117933622Y-64690398D01*
X117933621Y-64690400D01*
X117881738Y-64884030D01*
X117880314Y-64889345D01*
X117861884Y-65100000D01*
X117880314Y-65310655D01*
X117881738Y-65315968D01*
X117881738Y-65315970D01*
X117927223Y-65485720D01*
X117935044Y-65514910D01*
X117937366Y-65519891D01*
X117937367Y-65519892D01*
X118019978Y-65697051D01*
X118024411Y-65706558D01*
X118145699Y-65879776D01*
X118295224Y-66029301D01*
X118468442Y-66150589D01*
X118473420Y-66152910D01*
X118473423Y-66152912D01*
X118651188Y-66235805D01*
X118704473Y-66282722D01*
X118723934Y-66351000D01*
X118703392Y-66418960D01*
X118651188Y-66464195D01*
X118473423Y-66547088D01*
X118473420Y-66547090D01*
X118468442Y-66549411D01*
X118295224Y-66670699D01*
X118145699Y-66820224D01*
X118024411Y-66993442D01*
X118022090Y-66998420D01*
X118022088Y-66998423D01*
X117937581Y-67179649D01*
X117935044Y-67185090D01*
X117933622Y-67190398D01*
X117933621Y-67190400D01*
X117881738Y-67384030D01*
X117880314Y-67389345D01*
X117861884Y-67600000D01*
X117880314Y-67810655D01*
X117881739Y-67815972D01*
X117881739Y-67815974D01*
X117886271Y-67832887D01*
X117884583Y-67903863D01*
X117844790Y-67962660D01*
X117779526Y-67990609D01*
X117764565Y-67991500D01*
X102085435Y-67991500D01*
X102017314Y-67971498D01*
X101970821Y-67917842D01*
X101960717Y-67847568D01*
X101963729Y-67832887D01*
X101968261Y-67815974D01*
X101968261Y-67815972D01*
X101969686Y-67810655D01*
X101988116Y-67600000D01*
X101969686Y-67389345D01*
X101968262Y-67384030D01*
X101916379Y-67190400D01*
X101916378Y-67190398D01*
X101914956Y-67185090D01*
X101912419Y-67179649D01*
X101827912Y-66998423D01*
X101827910Y-66998420D01*
X101825589Y-66993442D01*
X101704301Y-66820224D01*
X101554776Y-66670699D01*
X101381558Y-66549411D01*
X101376580Y-66547090D01*
X101376577Y-66547088D01*
X101198812Y-66464195D01*
X101145527Y-66417278D01*
X101126066Y-66349000D01*
X101146608Y-66281040D01*
X101198812Y-66235805D01*
X101376577Y-66152912D01*
X101376580Y-66152910D01*
X101381558Y-66150589D01*
X101554776Y-66029301D01*
X101704301Y-65879776D01*
X101825589Y-65706558D01*
X101830023Y-65697051D01*
X101912633Y-65519892D01*
X101912634Y-65519891D01*
X101914956Y-65514910D01*
X101922778Y-65485720D01*
X101968262Y-65315970D01*
X101968262Y-65315968D01*
X101969686Y-65310655D01*
X101988116Y-65100000D01*
X101969686Y-64889345D01*
X101968262Y-64884030D01*
X101916379Y-64690400D01*
X101916378Y-64690398D01*
X101914956Y-64685090D01*
X101910278Y-64675058D01*
X101827912Y-64498423D01*
X101827910Y-64498420D01*
X101825589Y-64493442D01*
X101704301Y-64320224D01*
X101554776Y-64170699D01*
X101381558Y-64049411D01*
X101376580Y-64047090D01*
X101376577Y-64047088D01*
X101198812Y-63964195D01*
X101145527Y-63917278D01*
X101126066Y-63849000D01*
X101146608Y-63781040D01*
X101198812Y-63735805D01*
X101376577Y-63652912D01*
X101376580Y-63652910D01*
X101381558Y-63650589D01*
X101554776Y-63529301D01*
X101704301Y-63379776D01*
X101825589Y-63206558D01*
X101846124Y-63162522D01*
X101912633Y-63019892D01*
X101912634Y-63019891D01*
X101914956Y-63014910D01*
X101916966Y-63007411D01*
X101968262Y-62815970D01*
X101968262Y-62815968D01*
X101969686Y-62810655D01*
X101988116Y-62600000D01*
X101969686Y-62389345D01*
X101961111Y-62357343D01*
X101916379Y-62190400D01*
X101916378Y-62190398D01*
X101914956Y-62185090D01*
X101911720Y-62178150D01*
X101827912Y-61998423D01*
X101827910Y-61998420D01*
X101825589Y-61993442D01*
X101704301Y-61820224D01*
X101554776Y-61670699D01*
X101381558Y-61549411D01*
X101376580Y-61547090D01*
X101376577Y-61547088D01*
X101198812Y-61464195D01*
X101145527Y-61417278D01*
X101126066Y-61349000D01*
X101146608Y-61281040D01*
X101198812Y-61235805D01*
X101376577Y-61152912D01*
X101376580Y-61152910D01*
X101381558Y-61150589D01*
X101554776Y-61029301D01*
X101704301Y-60879776D01*
X101825589Y-60706558D01*
X101878095Y-60593960D01*
X101912633Y-60519892D01*
X101912634Y-60519891D01*
X101914956Y-60514910D01*
X101921595Y-60490135D01*
X101968262Y-60315970D01*
X101968262Y-60315968D01*
X101969686Y-60310655D01*
X101988116Y-60100000D01*
X101969686Y-59889345D01*
X101964788Y-59871064D01*
X101916379Y-59690400D01*
X101916378Y-59690398D01*
X101914956Y-59685090D01*
X101900818Y-59654771D01*
X101827912Y-59498423D01*
X101827910Y-59498420D01*
X101825589Y-59493442D01*
X101704301Y-59320224D01*
X101554776Y-59170699D01*
X101381558Y-59049411D01*
X101376580Y-59047090D01*
X101376577Y-59047088D01*
X101198812Y-58964195D01*
X101145527Y-58917278D01*
X101126066Y-58849000D01*
X101146608Y-58781040D01*
X101198812Y-58735805D01*
X101376577Y-58652912D01*
X101376580Y-58652910D01*
X101381558Y-58650589D01*
X101554776Y-58529301D01*
X101704301Y-58379776D01*
X101825589Y-58206558D01*
X101831303Y-58194306D01*
X101912633Y-58019892D01*
X101912634Y-58019891D01*
X101914956Y-58014910D01*
X101969686Y-57810655D01*
X101988116Y-57600000D01*
X101969686Y-57389345D01*
X101955258Y-57335500D01*
X101916379Y-57190400D01*
X101916378Y-57190398D01*
X101914956Y-57185090D01*
X101906856Y-57167720D01*
X101827912Y-56998423D01*
X101827910Y-56998420D01*
X101825589Y-56993442D01*
X101704301Y-56820224D01*
X101554776Y-56670699D01*
X101381558Y-56549411D01*
X101376580Y-56547090D01*
X101376577Y-56547088D01*
X101194892Y-56462367D01*
X101194891Y-56462366D01*
X101189910Y-56460044D01*
X101184602Y-56458622D01*
X101184600Y-56458621D01*
X100990970Y-56406738D01*
X100990968Y-56406738D01*
X100985655Y-56405314D01*
X100775000Y-56386884D01*
X100564345Y-56405314D01*
X100559032Y-56406738D01*
X100559030Y-56406738D01*
X100365400Y-56458621D01*
X100365398Y-56458622D01*
X100360090Y-56460044D01*
X100355109Y-56462366D01*
X100355108Y-56462367D01*
X100173423Y-56547088D01*
X100173420Y-56547090D01*
X100168442Y-56549411D01*
X99995224Y-56670699D01*
X99845699Y-56820224D01*
X99724411Y-56993442D01*
X99722090Y-56998420D01*
X99722088Y-56998423D01*
X99643144Y-57167720D01*
X99635044Y-57185090D01*
X99633622Y-57190398D01*
X99633621Y-57190400D01*
X99594742Y-57335500D01*
X99580314Y-57389345D01*
X99561884Y-57600000D01*
X99580314Y-57810655D01*
X99635044Y-58014910D01*
X99637366Y-58019891D01*
X99637367Y-58019892D01*
X99718698Y-58194306D01*
X99724411Y-58206558D01*
X99845699Y-58379776D01*
X99995224Y-58529301D01*
X100168442Y-58650589D01*
X100173420Y-58652910D01*
X100173423Y-58652912D01*
X100351188Y-58735805D01*
X100404473Y-58782722D01*
X100423934Y-58851000D01*
X100403392Y-58918960D01*
X100351188Y-58964195D01*
X100173423Y-59047088D01*
X100173420Y-59047090D01*
X100168442Y-59049411D01*
X99995224Y-59170699D01*
X99845699Y-59320224D01*
X99724411Y-59493442D01*
X99722090Y-59498420D01*
X99722088Y-59498423D01*
X99649182Y-59654771D01*
X99635044Y-59685090D01*
X99633622Y-59690398D01*
X99633621Y-59690400D01*
X99585212Y-59871064D01*
X99580314Y-59889345D01*
X99561884Y-60100000D01*
X99580314Y-60310655D01*
X99581738Y-60315968D01*
X99581738Y-60315970D01*
X99628406Y-60490135D01*
X99635044Y-60514910D01*
X99637366Y-60519891D01*
X99637367Y-60519892D01*
X99671906Y-60593960D01*
X99724411Y-60706558D01*
X99845699Y-60879776D01*
X99995224Y-61029301D01*
X100168442Y-61150589D01*
X100173420Y-61152910D01*
X100173423Y-61152912D01*
X100351188Y-61235805D01*
X100404473Y-61282722D01*
X100423934Y-61351000D01*
X100403392Y-61418960D01*
X100351188Y-61464195D01*
X100173423Y-61547088D01*
X100173420Y-61547090D01*
X100168442Y-61549411D01*
X99995224Y-61670699D01*
X99845699Y-61820224D01*
X99724411Y-61993442D01*
X99722090Y-61998420D01*
X99722088Y-61998423D01*
X99638280Y-62178150D01*
X99635044Y-62185090D01*
X99633622Y-62190398D01*
X99633621Y-62190400D01*
X99588889Y-62357343D01*
X99580314Y-62389345D01*
X99561884Y-62600000D01*
X99580314Y-62810655D01*
X99581738Y-62815968D01*
X99581738Y-62815970D01*
X99633035Y-63007411D01*
X99635044Y-63014910D01*
X99637366Y-63019891D01*
X99637367Y-63019892D01*
X99703877Y-63162522D01*
X99724411Y-63206558D01*
X99845699Y-63379776D01*
X99995224Y-63529301D01*
X100168442Y-63650589D01*
X100173420Y-63652910D01*
X100173423Y-63652912D01*
X100351188Y-63735805D01*
X100404473Y-63782722D01*
X100423934Y-63851000D01*
X100403392Y-63918960D01*
X100351188Y-63964195D01*
X100173423Y-64047088D01*
X100173420Y-64047090D01*
X100168442Y-64049411D01*
X99995224Y-64170699D01*
X99845699Y-64320224D01*
X99724411Y-64493442D01*
X99722090Y-64498420D01*
X99722088Y-64498423D01*
X99639722Y-64675058D01*
X99635044Y-64685090D01*
X99633622Y-64690398D01*
X99633621Y-64690400D01*
X99581738Y-64884030D01*
X99580314Y-64889345D01*
X99561884Y-65100000D01*
X99580314Y-65310655D01*
X99581738Y-65315968D01*
X99581738Y-65315970D01*
X99627223Y-65485720D01*
X99635044Y-65514910D01*
X99637366Y-65519891D01*
X99637367Y-65519892D01*
X99719978Y-65697051D01*
X99724411Y-65706558D01*
X99845699Y-65879776D01*
X99995224Y-66029301D01*
X100168442Y-66150589D01*
X100173420Y-66152910D01*
X100173423Y-66152912D01*
X100351188Y-66235805D01*
X100404473Y-66282722D01*
X100423934Y-66351000D01*
X100403392Y-66418960D01*
X100351188Y-66464195D01*
X100173423Y-66547088D01*
X100173420Y-66547090D01*
X100168442Y-66549411D01*
X99995224Y-66670699D01*
X99845699Y-66820224D01*
X99724411Y-66993442D01*
X99722090Y-66998420D01*
X99722088Y-66998423D01*
X99637581Y-67179649D01*
X99635044Y-67185090D01*
X99633622Y-67190398D01*
X99633621Y-67190400D01*
X99581738Y-67384030D01*
X99580314Y-67389345D01*
X99561884Y-67600000D01*
X99580314Y-67810655D01*
X99581739Y-67815972D01*
X99581739Y-67815974D01*
X99586271Y-67832887D01*
X99584583Y-67903863D01*
X99544790Y-67962660D01*
X99479526Y-67990609D01*
X99464565Y-67991500D01*
X95900343Y-67991500D01*
X95832222Y-67971498D01*
X95784794Y-67915743D01*
X95755150Y-67847568D01*
X95741354Y-67815840D01*
X95689715Y-67736018D01*
X95622822Y-67632617D01*
X95622820Y-67632614D01*
X95620014Y-67628277D01*
X95469670Y-67463051D01*
X95465619Y-67459852D01*
X95465615Y-67459848D01*
X95298414Y-67327800D01*
X95298410Y-67327798D01*
X95294359Y-67324598D01*
X95253053Y-67301796D01*
X95203084Y-67251364D01*
X95188312Y-67181921D01*
X95213428Y-67115516D01*
X95240780Y-67088909D01*
X95297522Y-67048435D01*
X95419860Y-66961173D01*
X95429456Y-66951611D01*
X95523221Y-66858173D01*
X95578096Y-66803489D01*
X95594646Y-66780458D01*
X95705435Y-66626277D01*
X95708453Y-66622077D01*
X95712524Y-66613841D01*
X95805136Y-66426453D01*
X95805137Y-66426451D01*
X95807430Y-66421811D01*
X95850971Y-66278502D01*
X95870865Y-66213023D01*
X95870865Y-66213021D01*
X95872370Y-66208069D01*
X95901529Y-65986590D01*
X95902199Y-65959180D01*
X95903074Y-65923365D01*
X95903074Y-65923361D01*
X95903156Y-65920000D01*
X95884852Y-65697361D01*
X95830431Y-65480702D01*
X95741354Y-65275840D01*
X95672998Y-65170177D01*
X95622822Y-65092617D01*
X95622820Y-65092614D01*
X95620014Y-65088277D01*
X95469670Y-64923051D01*
X95465619Y-64919852D01*
X95465615Y-64919848D01*
X95298414Y-64787800D01*
X95298410Y-64787798D01*
X95294359Y-64784598D01*
X95253053Y-64761796D01*
X95203084Y-64711364D01*
X95188312Y-64641921D01*
X95213428Y-64575516D01*
X95240780Y-64548909D01*
X95291027Y-64513068D01*
X95419860Y-64421173D01*
X95437445Y-64403650D01*
X95517128Y-64324244D01*
X95578096Y-64263489D01*
X95594878Y-64240135D01*
X95705435Y-64086277D01*
X95708453Y-64082077D01*
X95712453Y-64073985D01*
X95805136Y-63886453D01*
X95805137Y-63886451D01*
X95807430Y-63881811D01*
X95869309Y-63678145D01*
X95870865Y-63673023D01*
X95870865Y-63673021D01*
X95872370Y-63668069D01*
X95901529Y-63446590D01*
X95902549Y-63404862D01*
X95903074Y-63383365D01*
X95903074Y-63383361D01*
X95903156Y-63380000D01*
X95884852Y-63157361D01*
X95830431Y-62940702D01*
X95741354Y-62735840D01*
X95670314Y-62626029D01*
X95622822Y-62552617D01*
X95622820Y-62552614D01*
X95620014Y-62548277D01*
X95469670Y-62383051D01*
X95465619Y-62379852D01*
X95465615Y-62379848D01*
X95298414Y-62247800D01*
X95298410Y-62247798D01*
X95294359Y-62244598D01*
X95289835Y-62242101D01*
X95289831Y-62242098D01*
X95238608Y-62213822D01*
X95188636Y-62163390D01*
X95173500Y-62103513D01*
X95173500Y-61705173D01*
X95174027Y-61693989D01*
X95175701Y-61686501D01*
X95173562Y-61618442D01*
X95173500Y-61614485D01*
X95173500Y-61586554D01*
X95172994Y-61582548D01*
X95172061Y-61570702D01*
X95171444Y-61551045D01*
X95170673Y-61526520D01*
X95165022Y-61507068D01*
X95161014Y-61487716D01*
X95159468Y-61475478D01*
X95159467Y-61475476D01*
X95158474Y-61467613D01*
X95142194Y-61426496D01*
X95138359Y-61415295D01*
X95126018Y-61372816D01*
X95121985Y-61365997D01*
X95121983Y-61365992D01*
X95115707Y-61355381D01*
X95107010Y-61337631D01*
X95099552Y-61318793D01*
X95073571Y-61283033D01*
X95067053Y-61273111D01*
X95048578Y-61241870D01*
X95048574Y-61241865D01*
X95044542Y-61235047D01*
X95030218Y-61220723D01*
X95017376Y-61205688D01*
X95005472Y-61189303D01*
X94971406Y-61161121D01*
X94962627Y-61153132D01*
X87897087Y-54087592D01*
X87863061Y-54025280D01*
X87868126Y-53954465D01*
X87878922Y-53932381D01*
X87896567Y-53903755D01*
X87902713Y-53890576D01*
X87953888Y-53736290D01*
X87956755Y-53722914D01*
X87966422Y-53628562D01*
X87966750Y-53622146D01*
X87966750Y-53372115D01*
X87962275Y-53356876D01*
X87960885Y-53355671D01*
X87953202Y-53354000D01*
X87143365Y-53354000D01*
X87128126Y-53358475D01*
X87126921Y-53359865D01*
X87125250Y-53367548D01*
X87125250Y-53390500D01*
X87105248Y-53458621D01*
X87051592Y-53505114D01*
X86999250Y-53516500D01*
X86743250Y-53516500D01*
X86675129Y-53496498D01*
X86628636Y-53442842D01*
X86617250Y-53390500D01*
X86617250Y-52827885D01*
X87125250Y-52827885D01*
X87129725Y-52843124D01*
X87131115Y-52844329D01*
X87138798Y-52846000D01*
X87948634Y-52846000D01*
X87963873Y-52841525D01*
X87965078Y-52840135D01*
X87966749Y-52832452D01*
X87966749Y-52577905D01*
X87966412Y-52571386D01*
X87956493Y-52475794D01*
X87953601Y-52462400D01*
X87902162Y-52308216D01*
X87895989Y-52295038D01*
X87882434Y-52273134D01*
X99913739Y-52273134D01*
X99920494Y-52335316D01*
X99971624Y-52471705D01*
X100058978Y-52588261D01*
X100175534Y-52675615D01*
X100311923Y-52726745D01*
X100374105Y-52733500D01*
X102020373Y-52733500D01*
X102082555Y-52726745D01*
X102218944Y-52675615D01*
X102335500Y-52588261D01*
X102422854Y-52471705D01*
X102473984Y-52335316D01*
X102480739Y-52273134D01*
X108113739Y-52273134D01*
X108120494Y-52335316D01*
X108171624Y-52471705D01*
X108258978Y-52588261D01*
X108375534Y-52675615D01*
X108511923Y-52726745D01*
X108574105Y-52733500D01*
X109783574Y-52733500D01*
X109851695Y-52753502D01*
X109898188Y-52807158D01*
X109908292Y-52877432D01*
X109878798Y-52942012D01*
X109862355Y-52957834D01*
X109662318Y-53118094D01*
X109566489Y-53219077D01*
X109503754Y-53285186D01*
X109473808Y-53316742D01*
X109314002Y-53539136D01*
X109185857Y-53781161D01*
X109184385Y-53785184D01*
X109184383Y-53785188D01*
X109104709Y-54002905D01*
X109091743Y-54038337D01*
X109033404Y-54305907D01*
X109011917Y-54578918D01*
X109027682Y-54852320D01*
X109028507Y-54856525D01*
X109028508Y-54856533D01*
X109058917Y-55011526D01*
X109080405Y-55121053D01*
X109081792Y-55125103D01*
X109081793Y-55125108D01*
X109160768Y-55355774D01*
X109169112Y-55380144D01*
X109179721Y-55401237D01*
X109275351Y-55591377D01*
X109292160Y-55624799D01*
X109294586Y-55628328D01*
X109294589Y-55628334D01*
X109408232Y-55793684D01*
X109447274Y-55850490D01*
X109450161Y-55853663D01*
X109450162Y-55853664D01*
X109628692Y-56049867D01*
X109631582Y-56053043D01*
X109634877Y-56055798D01*
X109634878Y-56055799D01*
X109720223Y-56127158D01*
X109841675Y-56228707D01*
X109845316Y-56230991D01*
X110070024Y-56371951D01*
X110070028Y-56371953D01*
X110073664Y-56374234D01*
X110198461Y-56430582D01*
X110319345Y-56485164D01*
X110319349Y-56485166D01*
X110323257Y-56486930D01*
X110327377Y-56488150D01*
X110327376Y-56488150D01*
X110581723Y-56563491D01*
X110581727Y-56563492D01*
X110585836Y-56564709D01*
X110590070Y-56565357D01*
X110590075Y-56565358D01*
X110852298Y-56605483D01*
X110852300Y-56605483D01*
X110856540Y-56606132D01*
X110995912Y-56608322D01*
X111126071Y-56610367D01*
X111126077Y-56610367D01*
X111130362Y-56610434D01*
X111402235Y-56577534D01*
X111667127Y-56508041D01*
X111671087Y-56506401D01*
X111671092Y-56506399D01*
X111803742Y-56451453D01*
X111920136Y-56403241D01*
X112156582Y-56265073D01*
X112372089Y-56096094D01*
X112386207Y-56081526D01*
X112520727Y-55942712D01*
X112562669Y-55899431D01*
X112565202Y-55895983D01*
X112565206Y-55895978D01*
X112722257Y-55682178D01*
X112724795Y-55678723D01*
X112752154Y-55628334D01*
X112853418Y-55441830D01*
X112853419Y-55441828D01*
X112855468Y-55438054D01*
X112933562Y-55231383D01*
X112950751Y-55185895D01*
X112950752Y-55185891D01*
X112952269Y-55181877D01*
X112977107Y-55073427D01*
X113012449Y-54919117D01*
X113012450Y-54919113D01*
X113013407Y-54914933D01*
X113014111Y-54907051D01*
X113037531Y-54644627D01*
X113037531Y-54644625D01*
X113037751Y-54642161D01*
X113038193Y-54600000D01*
X113034044Y-54539135D01*
X113019859Y-54331055D01*
X113019858Y-54331049D01*
X113019567Y-54326778D01*
X112964032Y-54058612D01*
X112872617Y-53800465D01*
X112747013Y-53557112D01*
X112741292Y-53548971D01*
X112657658Y-53429973D01*
X112589545Y-53333057D01*
X112489149Y-53225018D01*
X112406046Y-53135588D01*
X112406043Y-53135585D01*
X112403125Y-53132445D01*
X112399810Y-53129731D01*
X112399806Y-53129728D01*
X112194523Y-52961706D01*
X112191205Y-52958990D01*
X112006821Y-52846000D01*
X111961366Y-52818145D01*
X111961365Y-52818145D01*
X111957704Y-52815901D01*
X111935678Y-52806232D01*
X111710873Y-52707549D01*
X111710869Y-52707548D01*
X111706945Y-52705825D01*
X111443566Y-52630800D01*
X111439324Y-52630196D01*
X111439318Y-52630195D01*
X111238834Y-52601662D01*
X111172443Y-52592213D01*
X111028589Y-52591460D01*
X110902877Y-52590802D01*
X110902871Y-52590802D01*
X110898591Y-52590780D01*
X110769692Y-52607750D01*
X110699545Y-52596811D01*
X110646446Y-52549683D01*
X110627256Y-52481329D01*
X110635265Y-52438598D01*
X110637136Y-52433609D01*
X110673984Y-52335316D01*
X110680739Y-52273134D01*
X116313739Y-52273134D01*
X116320494Y-52335316D01*
X116371624Y-52471705D01*
X116458978Y-52588261D01*
X116575534Y-52675615D01*
X116711923Y-52726745D01*
X116774105Y-52733500D01*
X118420373Y-52733500D01*
X118482555Y-52726745D01*
X118618944Y-52675615D01*
X118735500Y-52588261D01*
X118822854Y-52471705D01*
X118873984Y-52335316D01*
X118880739Y-52273134D01*
X124513739Y-52273134D01*
X124520494Y-52335316D01*
X124571624Y-52471705D01*
X124658978Y-52588261D01*
X124775534Y-52675615D01*
X124911923Y-52726745D01*
X124974105Y-52733500D01*
X126620373Y-52733500D01*
X126682555Y-52726745D01*
X126818944Y-52675615D01*
X126935500Y-52588261D01*
X127022854Y-52471705D01*
X127073984Y-52335316D01*
X127080739Y-52273134D01*
X127080739Y-50626866D01*
X127073984Y-50564684D01*
X127022854Y-50428295D01*
X126935500Y-50311739D01*
X126818944Y-50224385D01*
X126682555Y-50173255D01*
X126620373Y-50166500D01*
X124974105Y-50166500D01*
X124911923Y-50173255D01*
X124775534Y-50224385D01*
X124658978Y-50311739D01*
X124571624Y-50428295D01*
X124520494Y-50564684D01*
X124513739Y-50626866D01*
X124513739Y-52273134D01*
X118880739Y-52273134D01*
X118880739Y-50626866D01*
X118873984Y-50564684D01*
X118822854Y-50428295D01*
X118735500Y-50311739D01*
X118618944Y-50224385D01*
X118482555Y-50173255D01*
X118420373Y-50166500D01*
X116774105Y-50166500D01*
X116711923Y-50173255D01*
X116575534Y-50224385D01*
X116458978Y-50311739D01*
X116371624Y-50428295D01*
X116320494Y-50564684D01*
X116313739Y-50626866D01*
X116313739Y-52273134D01*
X110680739Y-52273134D01*
X110680739Y-50626866D01*
X110673984Y-50564684D01*
X110622854Y-50428295D01*
X110535500Y-50311739D01*
X110418944Y-50224385D01*
X110282555Y-50173255D01*
X110220373Y-50166500D01*
X108574105Y-50166500D01*
X108511923Y-50173255D01*
X108375534Y-50224385D01*
X108258978Y-50311739D01*
X108171624Y-50428295D01*
X108120494Y-50564684D01*
X108113739Y-50626866D01*
X108113739Y-52273134D01*
X102480739Y-52273134D01*
X102480739Y-50626866D01*
X102473984Y-50564684D01*
X102422854Y-50428295D01*
X102335500Y-50311739D01*
X102218944Y-50224385D01*
X102082555Y-50173255D01*
X102020373Y-50166500D01*
X100374105Y-50166500D01*
X100311923Y-50173255D01*
X100175534Y-50224385D01*
X100058978Y-50311739D01*
X99971624Y-50428295D01*
X99920494Y-50564684D01*
X99913739Y-50626866D01*
X99913739Y-52273134D01*
X87882434Y-52273134D01*
X87810687Y-52157193D01*
X87801651Y-52145792D01*
X87686921Y-52031261D01*
X87675510Y-52022249D01*
X87537507Y-51937184D01*
X87524326Y-51931037D01*
X87370040Y-51879862D01*
X87356664Y-51876995D01*
X87262312Y-51867328D01*
X87255895Y-51867000D01*
X87143365Y-51867000D01*
X87128126Y-51871475D01*
X87126921Y-51872865D01*
X87125250Y-51880548D01*
X87125250Y-52827885D01*
X86617250Y-52827885D01*
X86617250Y-51885116D01*
X86612775Y-51869877D01*
X86611385Y-51868672D01*
X86603702Y-51867001D01*
X86486655Y-51867001D01*
X86480136Y-51867338D01*
X86384544Y-51877257D01*
X86371150Y-51880149D01*
X86216966Y-51931588D01*
X86203788Y-51937761D01*
X86065943Y-52023063D01*
X86054542Y-52032099D01*
X85940012Y-52146828D01*
X85932956Y-52155762D01*
X85875038Y-52196823D01*
X85804115Y-52200053D01*
X85742704Y-52164426D01*
X85735904Y-52156593D01*
X85732228Y-52150652D01*
X85695192Y-52113680D01*
X85612233Y-52030866D01*
X85607053Y-52025695D01*
X85600822Y-52021854D01*
X85462718Y-51936725D01*
X85462716Y-51936724D01*
X85456488Y-51932885D01*
X85345617Y-51896111D01*
X85295139Y-51879368D01*
X85295137Y-51879368D01*
X85288611Y-51877203D01*
X85281775Y-51876503D01*
X85281772Y-51876502D01*
X85238719Y-51872091D01*
X85184150Y-51866500D01*
X84408350Y-51866500D01*
X84405104Y-51866837D01*
X84405100Y-51866837D01*
X84309442Y-51876762D01*
X84309438Y-51876763D01*
X84302584Y-51877474D01*
X84296048Y-51879655D01*
X84296046Y-51879655D01*
X84198243Y-51912285D01*
X84134804Y-51933450D01*
X83984402Y-52026522D01*
X83859445Y-52151697D01*
X83855605Y-52157927D01*
X83855604Y-52157928D01*
X83779577Y-52281267D01*
X83766635Y-52302262D01*
X83751173Y-52348879D01*
X83740795Y-52380167D01*
X83700364Y-52438527D01*
X83634800Y-52465764D01*
X83621202Y-52466500D01*
X83136022Y-52466500D01*
X83067901Y-52446498D01*
X83057483Y-52438102D01*
X83057201Y-52438465D01*
X83050940Y-52433608D01*
X83045335Y-52428003D01*
X83038519Y-52423972D01*
X83038515Y-52423969D01*
X82911669Y-52348954D01*
X82904846Y-52344919D01*
X82897235Y-52342708D01*
X82897233Y-52342707D01*
X82754287Y-52301177D01*
X82754282Y-52301176D01*
X82748110Y-52299383D01*
X82741705Y-52298879D01*
X82741700Y-52298878D01*
X82713936Y-52296693D01*
X82713928Y-52296693D01*
X82711480Y-52296500D01*
X81256020Y-52296500D01*
X81253572Y-52296693D01*
X81253564Y-52296693D01*
X81225800Y-52298878D01*
X81225795Y-52298879D01*
X81219390Y-52299383D01*
X81213218Y-52301176D01*
X81213213Y-52301177D01*
X81070267Y-52342707D01*
X81070265Y-52342708D01*
X81062654Y-52344919D01*
X81055831Y-52348954D01*
X80928985Y-52423969D01*
X80928981Y-52423972D01*
X80922165Y-52428003D01*
X80806753Y-52543415D01*
X80802722Y-52550231D01*
X80802719Y-52550235D01*
X80757602Y-52626525D01*
X80723669Y-52683904D01*
X80721458Y-52691515D01*
X80721457Y-52691517D01*
X80679927Y-52834463D01*
X80679926Y-52834468D01*
X80678133Y-52840640D01*
X80675250Y-52877270D01*
X80675250Y-53282730D01*
X80675443Y-53285178D01*
X80675443Y-53285186D01*
X80677173Y-53307158D01*
X80678133Y-53319360D01*
X80679926Y-53325532D01*
X80679927Y-53325537D01*
X80720126Y-53463902D01*
X80723669Y-53476096D01*
X80727704Y-53482919D01*
X80802719Y-53609765D01*
X80802722Y-53609769D01*
X80806753Y-53616585D01*
X80922165Y-53731997D01*
X80928981Y-53736028D01*
X80928985Y-53736031D01*
X81037939Y-53800465D01*
X81062654Y-53815081D01*
X81070265Y-53817292D01*
X81070267Y-53817293D01*
X81213213Y-53858823D01*
X81213218Y-53858824D01*
X81219390Y-53860617D01*
X81225795Y-53861121D01*
X81225800Y-53861122D01*
X81253564Y-53863307D01*
X81253572Y-53863307D01*
X81256020Y-53863500D01*
X82711480Y-53863500D01*
X82713928Y-53863307D01*
X82713936Y-53863307D01*
X82741700Y-53861122D01*
X82741705Y-53861121D01*
X82748110Y-53860617D01*
X82754282Y-53858824D01*
X82754287Y-53858823D01*
X82897233Y-53817293D01*
X82897235Y-53817292D01*
X82904846Y-53815081D01*
X82911670Y-53811045D01*
X82911673Y-53811044D01*
X83013126Y-53751046D01*
X83077264Y-53733500D01*
X83621212Y-53733500D01*
X83689333Y-53753502D01*
X83735826Y-53807158D01*
X83740736Y-53819624D01*
X83750108Y-53847715D01*
X83767200Y-53898946D01*
X83860272Y-54049348D01*
X83985447Y-54174305D01*
X83991677Y-54178145D01*
X83991678Y-54178146D01*
X84075191Y-54229624D01*
X84122684Y-54282396D01*
X84134108Y-54352468D01*
X84105834Y-54417592D01*
X84075384Y-54444024D01*
X84009402Y-54484855D01*
X83884445Y-54610030D01*
X83880605Y-54616260D01*
X83880604Y-54616261D01*
X83805930Y-54737405D01*
X83791635Y-54760595D01*
X83776550Y-54806076D01*
X83745341Y-54900167D01*
X83704910Y-54958527D01*
X83639346Y-54985764D01*
X83625748Y-54986500D01*
X83110700Y-54986500D01*
X83045686Y-54967410D01*
X83045335Y-54968003D01*
X83042998Y-54966621D01*
X82958545Y-54916676D01*
X82911669Y-54888954D01*
X82904846Y-54884919D01*
X82897235Y-54882708D01*
X82897233Y-54882707D01*
X82754287Y-54841177D01*
X82754282Y-54841176D01*
X82748110Y-54839383D01*
X82741705Y-54838879D01*
X82741700Y-54838878D01*
X82713936Y-54836693D01*
X82713928Y-54836693D01*
X82711480Y-54836500D01*
X81256020Y-54836500D01*
X81253572Y-54836693D01*
X81253564Y-54836693D01*
X81225800Y-54838878D01*
X81225795Y-54838879D01*
X81219390Y-54839383D01*
X81213218Y-54841176D01*
X81213213Y-54841177D01*
X81070267Y-54882707D01*
X81070265Y-54882708D01*
X81062654Y-54884919D01*
X81055831Y-54888954D01*
X80928985Y-54963969D01*
X80928981Y-54963972D01*
X80922165Y-54968003D01*
X80806753Y-55083415D01*
X80802722Y-55090231D01*
X80802719Y-55090235D01*
X80730000Y-55213199D01*
X80723669Y-55223904D01*
X80721458Y-55231515D01*
X80721457Y-55231517D01*
X80679927Y-55374463D01*
X80679926Y-55374468D01*
X80678133Y-55380640D01*
X80677629Y-55387045D01*
X80677628Y-55387050D01*
X80676462Y-55401866D01*
X80675250Y-55417270D01*
X80675250Y-55822730D01*
X80675443Y-55825178D01*
X80675443Y-55825186D01*
X80677435Y-55850490D01*
X80678133Y-55859360D01*
X80679926Y-55865532D01*
X80679927Y-55865537D01*
X80702349Y-55942712D01*
X80723669Y-56016096D01*
X80727704Y-56022919D01*
X80802719Y-56149765D01*
X80802722Y-56149769D01*
X80806753Y-56156585D01*
X80922165Y-56271997D01*
X80928981Y-56276028D01*
X80928985Y-56276031D01*
X81009124Y-56323424D01*
X81062654Y-56355081D01*
X81070265Y-56357292D01*
X81070267Y-56357293D01*
X81213213Y-56398823D01*
X81213218Y-56398824D01*
X81219390Y-56400617D01*
X81225795Y-56401121D01*
X81225800Y-56401122D01*
X81253564Y-56403307D01*
X81253572Y-56403307D01*
X81256020Y-56403500D01*
X82711480Y-56403500D01*
X82713928Y-56403307D01*
X82713936Y-56403307D01*
X82741700Y-56401122D01*
X82741705Y-56401121D01*
X82748110Y-56400617D01*
X82754282Y-56398824D01*
X82754287Y-56398823D01*
X82897233Y-56357293D01*
X82897235Y-56357292D01*
X82904846Y-56355081D01*
X82965610Y-56319146D01*
X83045335Y-56271997D01*
X83046912Y-56274664D01*
X83099558Y-56253994D01*
X83110700Y-56253500D01*
X83688718Y-56253500D01*
X83756839Y-56273502D01*
X83795862Y-56313197D01*
X83849960Y-56400617D01*
X83885272Y-56457681D01*
X84010447Y-56582638D01*
X84016677Y-56586478D01*
X84016678Y-56586479D01*
X84075142Y-56622517D01*
X84122636Y-56675290D01*
X84134059Y-56745361D01*
X84105784Y-56810485D01*
X84075335Y-56836916D01*
X83984402Y-56893188D01*
X83859445Y-57018363D01*
X83855605Y-57024593D01*
X83855604Y-57024594D01*
X83773416Y-57157928D01*
X83766635Y-57168928D01*
X83764331Y-57175876D01*
X83764329Y-57175879D01*
X83762906Y-57180169D01*
X83722475Y-57238528D01*
X83656910Y-57265764D01*
X83643314Y-57266500D01*
X83186022Y-57266500D01*
X83117901Y-57246498D01*
X83096927Y-57229595D01*
X83045335Y-57178003D01*
X83038519Y-57173972D01*
X83038515Y-57173969D01*
X82911669Y-57098954D01*
X82904846Y-57094919D01*
X82897235Y-57092708D01*
X82897233Y-57092707D01*
X82754287Y-57051177D01*
X82754282Y-57051176D01*
X82748110Y-57049383D01*
X82741705Y-57048879D01*
X82741700Y-57048878D01*
X82713936Y-57046693D01*
X82713928Y-57046693D01*
X82711480Y-57046500D01*
X81256020Y-57046500D01*
X81253572Y-57046693D01*
X81253564Y-57046693D01*
X81225800Y-57048878D01*
X81225795Y-57048879D01*
X81219390Y-57049383D01*
X81213218Y-57051176D01*
X81213213Y-57051177D01*
X81070267Y-57092707D01*
X81070265Y-57092708D01*
X81062654Y-57094919D01*
X81055831Y-57098954D01*
X80928985Y-57173969D01*
X80928981Y-57173972D01*
X80922165Y-57178003D01*
X80806753Y-57293415D01*
X80802722Y-57300231D01*
X80802719Y-57300235D01*
X80792959Y-57316739D01*
X80723669Y-57433904D01*
X80721458Y-57441515D01*
X80721457Y-57441517D01*
X80679927Y-57584463D01*
X80679926Y-57584468D01*
X80678133Y-57590640D01*
X80675250Y-57627270D01*
X80675250Y-58032730D01*
X80678133Y-58069360D01*
X80679926Y-58075532D01*
X80679927Y-58075537D01*
X80719662Y-58212303D01*
X80723669Y-58226096D01*
X80727704Y-58232919D01*
X80802719Y-58359765D01*
X80802722Y-58359769D01*
X80806753Y-58366585D01*
X80922165Y-58481997D01*
X80928981Y-58486028D01*
X80928985Y-58486031D01*
X81055831Y-58561046D01*
X81062654Y-58565081D01*
X81070265Y-58567292D01*
X81070267Y-58567293D01*
X81213213Y-58608823D01*
X81213218Y-58608824D01*
X81219390Y-58610617D01*
X81225795Y-58611121D01*
X81225800Y-58611122D01*
X81253564Y-58613307D01*
X81253572Y-58613307D01*
X81256020Y-58613500D01*
X82711480Y-58613500D01*
X82713928Y-58613307D01*
X82713936Y-58613307D01*
X82741700Y-58611122D01*
X82741705Y-58611121D01*
X82748110Y-58610617D01*
X82754282Y-58608824D01*
X82754287Y-58608823D01*
X82897233Y-58567293D01*
X82897235Y-58567292D01*
X82904846Y-58565081D01*
X82928578Y-58551046D01*
X82992717Y-58533500D01*
X83598970Y-58533500D01*
X83667091Y-58553502D01*
X83713584Y-58607158D01*
X83718493Y-58619623D01*
X83764880Y-58758659D01*
X83767200Y-58765612D01*
X83860272Y-58916014D01*
X83985447Y-59040971D01*
X83991677Y-59044811D01*
X83991678Y-59044812D01*
X83998967Y-59049305D01*
X84065644Y-59090405D01*
X84075191Y-59096290D01*
X84122684Y-59149062D01*
X84134108Y-59219134D01*
X84105834Y-59284258D01*
X84075379Y-59310694D01*
X84009402Y-59351522D01*
X84004229Y-59356704D01*
X83952947Y-59408075D01*
X83884445Y-59476697D01*
X83880605Y-59482927D01*
X83880604Y-59482928D01*
X83813452Y-59591869D01*
X83791635Y-59627262D01*
X83779695Y-59663261D01*
X83774087Y-59680168D01*
X83733656Y-59738527D01*
X83668092Y-59765764D01*
X83654494Y-59766500D01*
X83146022Y-59766500D01*
X83077901Y-59746498D01*
X83056927Y-59729595D01*
X83045335Y-59718003D01*
X83038519Y-59713972D01*
X83038515Y-59713969D01*
X82911669Y-59638954D01*
X82904846Y-59634919D01*
X82897235Y-59632708D01*
X82897233Y-59632707D01*
X82754287Y-59591177D01*
X82754282Y-59591176D01*
X82748110Y-59589383D01*
X82741705Y-59588879D01*
X82741700Y-59588878D01*
X82713936Y-59586693D01*
X82713928Y-59586693D01*
X82711480Y-59586500D01*
X81256020Y-59586500D01*
X81253572Y-59586693D01*
X81253564Y-59586693D01*
X81225800Y-59588878D01*
X81225795Y-59588879D01*
X81219390Y-59589383D01*
X81213218Y-59591176D01*
X81213213Y-59591177D01*
X81070267Y-59632707D01*
X81070265Y-59632708D01*
X81062654Y-59634919D01*
X81055831Y-59638954D01*
X80928985Y-59713969D01*
X80928981Y-59713972D01*
X80922165Y-59718003D01*
X80806753Y-59833415D01*
X80802722Y-59840231D01*
X80802719Y-59840235D01*
X80736367Y-59952432D01*
X80723669Y-59973904D01*
X80721458Y-59981515D01*
X80721457Y-59981517D01*
X80679927Y-60124463D01*
X80679926Y-60124468D01*
X80678133Y-60130640D01*
X80677629Y-60137045D01*
X80677628Y-60137050D01*
X80675443Y-60164814D01*
X80675250Y-60167270D01*
X80675250Y-60572730D01*
X80675443Y-60575178D01*
X80675443Y-60575186D01*
X80676921Y-60593960D01*
X80678133Y-60609360D01*
X80679926Y-60615532D01*
X80679927Y-60615537D01*
X80721457Y-60758483D01*
X80723669Y-60766096D01*
X80727704Y-60772919D01*
X80802719Y-60899765D01*
X80802722Y-60899769D01*
X80806753Y-60906585D01*
X80922165Y-61021997D01*
X80928981Y-61026028D01*
X80928985Y-61026031D01*
X81055831Y-61101046D01*
X81062654Y-61105081D01*
X81070265Y-61107292D01*
X81070267Y-61107293D01*
X81213213Y-61148823D01*
X81213218Y-61148824D01*
X81219390Y-61150617D01*
X81225795Y-61151121D01*
X81225800Y-61151122D01*
X81253564Y-61153307D01*
X81253572Y-61153307D01*
X81256020Y-61153500D01*
X82711480Y-61153500D01*
X82713928Y-61153307D01*
X82713936Y-61153307D01*
X82741700Y-61151122D01*
X82741705Y-61151121D01*
X82748110Y-61150617D01*
X82754282Y-61148824D01*
X82754287Y-61148823D01*
X82897233Y-61107293D01*
X82897235Y-61107292D01*
X82904846Y-61105081D01*
X82996215Y-61051046D01*
X83060354Y-61033500D01*
X83654553Y-61033500D01*
X83722674Y-61053502D01*
X83769167Y-61107158D01*
X83774076Y-61119623D01*
X83789408Y-61165576D01*
X83792200Y-61173946D01*
X83796051Y-61180170D01*
X83796052Y-61180171D01*
X83827399Y-61230827D01*
X83885272Y-61324348D01*
X84010447Y-61449305D01*
X84016677Y-61453145D01*
X84016678Y-61453146D01*
X84154038Y-61537816D01*
X84161012Y-61542115D01*
X84192521Y-61552566D01*
X84322361Y-61595632D01*
X84322363Y-61595632D01*
X84328889Y-61597797D01*
X84335725Y-61598497D01*
X84335728Y-61598498D01*
X84374741Y-61602495D01*
X84433350Y-61608500D01*
X85234150Y-61608500D01*
X85237396Y-61608163D01*
X85237400Y-61608163D01*
X85333058Y-61598238D01*
X85333062Y-61598237D01*
X85339916Y-61597526D01*
X85346452Y-61595345D01*
X85346454Y-61595345D01*
X85493956Y-61546134D01*
X85507696Y-61541550D01*
X85658098Y-61448478D01*
X85719585Y-61386884D01*
X85744888Y-61361537D01*
X85807171Y-61327458D01*
X85877991Y-61332461D01*
X85923079Y-61361382D01*
X86005579Y-61443739D01*
X86016990Y-61452751D01*
X86154993Y-61537816D01*
X86168174Y-61543963D01*
X86322460Y-61595138D01*
X86335836Y-61598005D01*
X86430188Y-61607672D01*
X86436604Y-61608000D01*
X86561635Y-61608000D01*
X86576874Y-61603525D01*
X86578079Y-61602135D01*
X86579750Y-61594452D01*
X86579750Y-60009500D01*
X86599752Y-59941379D01*
X86653408Y-59894886D01*
X86705750Y-59883500D01*
X86961750Y-59883500D01*
X87029871Y-59903502D01*
X87076364Y-59957158D01*
X87087750Y-60009500D01*
X87087750Y-61589884D01*
X87092225Y-61605123D01*
X87093615Y-61606328D01*
X87101298Y-61607999D01*
X87230845Y-61607999D01*
X87237364Y-61607662D01*
X87332956Y-61597743D01*
X87346350Y-61594851D01*
X87500534Y-61543412D01*
X87513712Y-61537239D01*
X87651557Y-61451937D01*
X87662958Y-61442901D01*
X87777489Y-61328171D01*
X87786501Y-61316760D01*
X87871566Y-61178757D01*
X87877713Y-61165576D01*
X87923504Y-61027523D01*
X87963935Y-60969163D01*
X88029500Y-60941927D01*
X88099381Y-60954461D01*
X88132191Y-60978095D01*
X89147537Y-61993442D01*
X90154595Y-63000500D01*
X90188621Y-63062812D01*
X90191500Y-63089595D01*
X90191500Y-64666233D01*
X90190973Y-64677416D01*
X90189298Y-64684909D01*
X90189547Y-64692835D01*
X90189547Y-64692836D01*
X90191438Y-64752986D01*
X90191500Y-64756945D01*
X90191500Y-64784856D01*
X90191997Y-64788790D01*
X90191997Y-64788791D01*
X90192005Y-64788856D01*
X90192938Y-64800693D01*
X90194327Y-64844889D01*
X90199978Y-64864339D01*
X90203987Y-64883700D01*
X90205393Y-64894825D01*
X90206526Y-64903797D01*
X90209445Y-64911168D01*
X90209445Y-64911170D01*
X90222804Y-64944912D01*
X90226649Y-64956142D01*
X90238982Y-64998593D01*
X90243015Y-65005412D01*
X90243017Y-65005417D01*
X90249293Y-65016028D01*
X90257988Y-65033776D01*
X90265448Y-65052617D01*
X90270110Y-65059033D01*
X90270110Y-65059034D01*
X90291436Y-65088387D01*
X90297952Y-65098307D01*
X90315810Y-65128502D01*
X90320458Y-65136362D01*
X90334779Y-65150683D01*
X90347619Y-65165716D01*
X90359528Y-65182107D01*
X90393605Y-65210298D01*
X90402384Y-65218288D01*
X90649778Y-65465682D01*
X90683804Y-65527994D01*
X90682100Y-65588448D01*
X90660989Y-65664570D01*
X90660441Y-65669700D01*
X90660440Y-65669704D01*
X90654163Y-65728444D01*
X90637251Y-65886695D01*
X90637548Y-65891848D01*
X90637548Y-65891851D01*
X90648194Y-66076484D01*
X90650110Y-66109715D01*
X90651247Y-66114761D01*
X90651248Y-66114767D01*
X90664970Y-66175652D01*
X90699222Y-66327639D01*
X90701164Y-66332421D01*
X90701165Y-66332425D01*
X90723279Y-66386884D01*
X90755110Y-66465274D01*
X90760316Y-66478096D01*
X90767412Y-66548737D01*
X90735190Y-66612001D01*
X90673880Y-66647801D01*
X90643573Y-66651500D01*
X86893768Y-66651500D01*
X86882585Y-66650973D01*
X86875092Y-66649298D01*
X86867166Y-66649547D01*
X86867165Y-66649547D01*
X86807002Y-66651438D01*
X86803044Y-66651500D01*
X86775144Y-66651500D01*
X86771154Y-66652004D01*
X86759320Y-66652936D01*
X86715111Y-66654326D01*
X86707495Y-66656539D01*
X86707493Y-66656539D01*
X86695652Y-66659979D01*
X86676293Y-66663988D01*
X86674983Y-66664154D01*
X86656203Y-66666526D01*
X86648837Y-66669442D01*
X86648831Y-66669444D01*
X86615098Y-66682800D01*
X86603868Y-66686645D01*
X86569017Y-66696770D01*
X86561407Y-66698981D01*
X86554584Y-66703016D01*
X86543966Y-66709295D01*
X86526213Y-66717992D01*
X86518568Y-66721019D01*
X86507383Y-66725448D01*
X86500968Y-66730109D01*
X86471612Y-66751437D01*
X86461695Y-66757951D01*
X86423638Y-66780458D01*
X86409317Y-66794779D01*
X86394284Y-66807619D01*
X86377893Y-66819528D01*
X86349702Y-66853605D01*
X86341722Y-66862374D01*
X86113941Y-67090155D01*
X86051629Y-67124180D01*
X85980813Y-67119115D01*
X85923978Y-67076568D01*
X85899167Y-67010047D01*
X85899502Y-66988216D01*
X85902647Y-66957529D01*
X85908500Y-66900400D01*
X85908500Y-66099600D01*
X85908163Y-66096350D01*
X85898238Y-66000692D01*
X85898237Y-66000688D01*
X85897526Y-65993834D01*
X85891859Y-65976846D01*
X85843868Y-65833002D01*
X85841550Y-65826054D01*
X85748478Y-65675652D01*
X85731739Y-65658942D01*
X85661537Y-65588862D01*
X85627458Y-65526579D01*
X85632461Y-65455759D01*
X85661382Y-65410671D01*
X85743739Y-65328171D01*
X85752751Y-65316760D01*
X85837816Y-65178757D01*
X85843963Y-65165576D01*
X85895138Y-65011290D01*
X85898005Y-64997914D01*
X85907672Y-64903562D01*
X85908000Y-64897146D01*
X85908000Y-64772115D01*
X85903525Y-64756876D01*
X85902135Y-64755671D01*
X85894452Y-64754000D01*
X83510116Y-64754000D01*
X83494877Y-64758475D01*
X83493672Y-64759865D01*
X83492001Y-64767548D01*
X83492001Y-64897095D01*
X83492338Y-64903614D01*
X83502257Y-64999206D01*
X83505149Y-65012600D01*
X83556588Y-65166784D01*
X83562761Y-65179962D01*
X83648063Y-65317807D01*
X83657099Y-65329208D01*
X83738462Y-65410430D01*
X83772541Y-65472713D01*
X83767538Y-65543533D01*
X83738617Y-65588620D01*
X83655870Y-65671512D01*
X83655866Y-65671517D01*
X83650695Y-65676697D01*
X83646855Y-65682927D01*
X83646854Y-65682928D01*
X83563692Y-65817842D01*
X83557885Y-65827262D01*
X83555581Y-65834209D01*
X83505039Y-65986590D01*
X83502203Y-65995139D01*
X83491500Y-66099600D01*
X83491500Y-66390500D01*
X83471498Y-66458621D01*
X83417842Y-66505114D01*
X83365500Y-66516500D01*
X83358433Y-66516500D01*
X83290312Y-66496498D01*
X83251000Y-66454322D01*
X83250615Y-66453295D01*
X83163261Y-66336739D01*
X83046705Y-66249385D01*
X82910316Y-66198255D01*
X82848134Y-66191500D01*
X82189595Y-66191500D01*
X82121474Y-66171498D01*
X82100500Y-66154595D01*
X80978652Y-65032747D01*
X80971112Y-65024461D01*
X80967000Y-65017982D01*
X80917348Y-64971356D01*
X80914507Y-64968602D01*
X80894770Y-64948865D01*
X80891573Y-64946385D01*
X80882551Y-64938680D01*
X80856100Y-64913841D01*
X80850321Y-64908414D01*
X80843375Y-64904595D01*
X80843372Y-64904593D01*
X80832566Y-64898652D01*
X80816047Y-64887801D01*
X80811185Y-64884030D01*
X80800041Y-64875386D01*
X80792772Y-64872241D01*
X80792768Y-64872238D01*
X80759463Y-64857826D01*
X80748813Y-64852609D01*
X80710060Y-64831305D01*
X80690437Y-64826267D01*
X80671734Y-64819863D01*
X80660420Y-64814967D01*
X80660419Y-64814967D01*
X80653145Y-64811819D01*
X80645322Y-64810580D01*
X80645312Y-64810577D01*
X80609476Y-64804901D01*
X80597856Y-64802495D01*
X80562711Y-64793472D01*
X80562710Y-64793472D01*
X80555030Y-64791500D01*
X80534776Y-64791500D01*
X80515065Y-64789949D01*
X80502886Y-64788020D01*
X80495057Y-64786780D01*
X80487165Y-64787526D01*
X80451039Y-64790941D01*
X80439181Y-64791500D01*
X77924500Y-64791500D01*
X77856379Y-64771498D01*
X77809886Y-64717842D01*
X77798500Y-64665500D01*
X77798500Y-63076866D01*
X77791745Y-63014684D01*
X77790591Y-63011605D01*
X77794187Y-62942745D01*
X77835633Y-62885102D01*
X77901665Y-62859017D01*
X77913067Y-62858500D01*
X79010406Y-62858500D01*
X79078527Y-62878502D01*
X79099501Y-62895405D01*
X79773810Y-63569715D01*
X80446348Y-64242253D01*
X80453888Y-64250539D01*
X80458000Y-64257018D01*
X80463777Y-64262443D01*
X80507651Y-64303643D01*
X80510493Y-64306398D01*
X80530230Y-64326135D01*
X80533427Y-64328615D01*
X80542447Y-64336318D01*
X80574679Y-64366586D01*
X80581625Y-64370405D01*
X80581628Y-64370407D01*
X80592434Y-64376348D01*
X80608953Y-64387199D01*
X80624959Y-64399614D01*
X80632228Y-64402759D01*
X80632232Y-64402762D01*
X80665537Y-64417174D01*
X80676187Y-64422391D01*
X80714940Y-64443695D01*
X80722615Y-64445666D01*
X80722616Y-64445666D01*
X80734562Y-64448733D01*
X80753266Y-64455137D01*
X80761357Y-64458638D01*
X80771855Y-64463181D01*
X80779678Y-64464420D01*
X80779688Y-64464423D01*
X80815524Y-64470099D01*
X80827144Y-64472505D01*
X80862289Y-64481528D01*
X80869970Y-64483500D01*
X80890224Y-64483500D01*
X80909934Y-64485051D01*
X80929943Y-64488220D01*
X80937835Y-64487474D01*
X80973961Y-64484059D01*
X80985819Y-64483500D01*
X81041567Y-64483500D01*
X81109688Y-64503502D01*
X81149000Y-64545678D01*
X81149385Y-64546705D01*
X81236739Y-64663261D01*
X81353295Y-64750615D01*
X81489684Y-64801745D01*
X81551866Y-64808500D01*
X82848134Y-64808500D01*
X82910316Y-64801745D01*
X83046705Y-64750615D01*
X83163261Y-64663261D01*
X83250615Y-64546705D01*
X83301745Y-64410316D01*
X83308500Y-64348134D01*
X83308562Y-64348141D01*
X83331932Y-64282025D01*
X83388027Y-64238506D01*
X83458745Y-64232223D01*
X83471951Y-64238692D01*
X83505548Y-64246000D01*
X84427885Y-64246000D01*
X84443124Y-64241525D01*
X84444329Y-64240135D01*
X84446000Y-64232452D01*
X84446000Y-64227885D01*
X84954000Y-64227885D01*
X84958475Y-64243124D01*
X84959865Y-64244329D01*
X84967548Y-64246000D01*
X85889884Y-64246000D01*
X85905123Y-64241525D01*
X85906328Y-64240135D01*
X85907999Y-64232452D01*
X85907999Y-64102905D01*
X85907662Y-64096386D01*
X85897743Y-64000794D01*
X85894851Y-63987400D01*
X85843412Y-63833216D01*
X85837237Y-63820035D01*
X85751937Y-63682193D01*
X85742901Y-63670792D01*
X85628171Y-63556261D01*
X85616760Y-63547249D01*
X85478757Y-63462184D01*
X85465576Y-63456037D01*
X85311290Y-63404862D01*
X85297914Y-63401995D01*
X85203562Y-63392328D01*
X85197145Y-63392000D01*
X84972115Y-63392000D01*
X84956876Y-63396475D01*
X84955671Y-63397865D01*
X84954000Y-63405548D01*
X84954000Y-64227885D01*
X84446000Y-64227885D01*
X84446000Y-63410116D01*
X84441525Y-63394877D01*
X84440135Y-63393672D01*
X84432452Y-63392001D01*
X84202905Y-63392001D01*
X84196386Y-63392338D01*
X84100794Y-63402257D01*
X84087400Y-63405149D01*
X83933216Y-63456588D01*
X83920038Y-63462761D01*
X83782193Y-63548063D01*
X83770792Y-63557099D01*
X83656261Y-63671829D01*
X83647249Y-63683240D01*
X83562184Y-63821243D01*
X83556037Y-63834424D01*
X83554093Y-63840285D01*
X83513662Y-63898645D01*
X83448097Y-63925881D01*
X83378216Y-63913347D01*
X83326204Y-63865022D01*
X83308500Y-63800617D01*
X83308500Y-63351866D01*
X83301745Y-63289684D01*
X83250615Y-63153295D01*
X83163261Y-63036739D01*
X83046705Y-62949385D01*
X82910316Y-62898255D01*
X82848134Y-62891500D01*
X81551866Y-62891500D01*
X81489684Y-62898255D01*
X81353295Y-62949385D01*
X81236739Y-63036739D01*
X81231358Y-63043919D01*
X81225008Y-63050269D01*
X81222366Y-63047627D01*
X81179717Y-63079581D01*
X81108903Y-63084674D01*
X81046542Y-63050638D01*
X80479905Y-62484000D01*
X79828652Y-61832747D01*
X79821112Y-61824461D01*
X79817000Y-61817982D01*
X79767348Y-61771356D01*
X79764507Y-61768602D01*
X79744770Y-61748865D01*
X79741573Y-61746385D01*
X79732551Y-61738680D01*
X79706100Y-61713841D01*
X79700321Y-61708414D01*
X79693375Y-61704595D01*
X79693372Y-61704593D01*
X79682566Y-61698652D01*
X79666047Y-61687801D01*
X79656999Y-61680783D01*
X79650041Y-61675386D01*
X79642772Y-61672241D01*
X79642768Y-61672238D01*
X79609463Y-61657826D01*
X79598813Y-61652609D01*
X79560060Y-61631305D01*
X79540437Y-61626267D01*
X79521734Y-61619863D01*
X79510420Y-61614967D01*
X79510419Y-61614967D01*
X79503145Y-61611819D01*
X79495322Y-61610580D01*
X79495312Y-61610577D01*
X79459476Y-61604901D01*
X79447856Y-61602495D01*
X79412711Y-61593472D01*
X79412710Y-61593472D01*
X79405030Y-61591500D01*
X79384776Y-61591500D01*
X79365065Y-61589949D01*
X79352886Y-61588020D01*
X79345057Y-61586780D01*
X79312221Y-61589884D01*
X79301039Y-61590941D01*
X79289181Y-61591500D01*
X76183200Y-61591500D01*
X76115079Y-61571498D01*
X76095853Y-61555157D01*
X76095580Y-61555460D01*
X76090668Y-61551037D01*
X76086253Y-61546134D01*
X76036954Y-61510316D01*
X75937094Y-61437763D01*
X75937093Y-61437762D01*
X75931752Y-61433882D01*
X75925726Y-61431199D01*
X75925719Y-61431195D01*
X75843539Y-61394607D01*
X75789443Y-61348627D01*
X75768793Y-61280700D01*
X75788145Y-61212392D01*
X75841356Y-61165390D01*
X75894787Y-61153500D01*
X76211480Y-61153500D01*
X76213928Y-61153307D01*
X76213936Y-61153307D01*
X76241700Y-61151122D01*
X76241705Y-61151121D01*
X76248110Y-61150617D01*
X76254282Y-61148824D01*
X76254287Y-61148823D01*
X76397233Y-61107293D01*
X76397235Y-61107292D01*
X76404846Y-61105081D01*
X76411669Y-61101046D01*
X76538515Y-61026031D01*
X76538519Y-61026028D01*
X76545335Y-61021997D01*
X76660747Y-60906585D01*
X76664778Y-60899769D01*
X76664781Y-60899765D01*
X76739796Y-60772919D01*
X76743831Y-60766096D01*
X76746043Y-60758483D01*
X76787573Y-60615537D01*
X76787574Y-60615532D01*
X76789367Y-60609360D01*
X76790580Y-60593960D01*
X76792057Y-60575186D01*
X76792057Y-60575178D01*
X76792250Y-60572730D01*
X76792250Y-60167270D01*
X76792057Y-60164814D01*
X76789872Y-60137050D01*
X76789871Y-60137045D01*
X76789367Y-60130640D01*
X76787574Y-60124468D01*
X76787573Y-60124463D01*
X76746043Y-59981517D01*
X76746042Y-59981515D01*
X76743831Y-59973904D01*
X76731133Y-59952432D01*
X76664781Y-59840235D01*
X76664778Y-59840231D01*
X76660747Y-59833415D01*
X76545335Y-59718003D01*
X76538519Y-59713972D01*
X76538515Y-59713969D01*
X76411669Y-59638954D01*
X76404846Y-59634919D01*
X76397235Y-59632708D01*
X76397233Y-59632707D01*
X76254287Y-59591177D01*
X76254282Y-59591176D01*
X76248110Y-59589383D01*
X76241705Y-59588879D01*
X76241700Y-59588878D01*
X76213936Y-59586693D01*
X76213928Y-59586693D01*
X76211480Y-59586500D01*
X74756020Y-59586500D01*
X74753572Y-59586693D01*
X74753564Y-59586693D01*
X74725800Y-59588878D01*
X74725795Y-59588879D01*
X74719390Y-59589383D01*
X74713218Y-59591176D01*
X74713213Y-59591177D01*
X74570267Y-59632707D01*
X74570265Y-59632708D01*
X74562654Y-59634919D01*
X74555831Y-59638954D01*
X74428985Y-59713969D01*
X74428981Y-59713972D01*
X74422165Y-59718003D01*
X74416560Y-59723608D01*
X74410299Y-59728465D01*
X74409353Y-59727246D01*
X74370389Y-59749473D01*
X74371202Y-59751526D01*
X74330097Y-59767800D01*
X74318869Y-59771645D01*
X74276407Y-59783982D01*
X74269585Y-59788016D01*
X74269579Y-59788019D01*
X74258968Y-59794294D01*
X74241218Y-59802990D01*
X74229756Y-59807528D01*
X74229751Y-59807531D01*
X74222383Y-59810448D01*
X74215968Y-59815109D01*
X74186625Y-59836427D01*
X74176707Y-59842943D01*
X74158019Y-59853995D01*
X74138637Y-59865458D01*
X74124313Y-59879782D01*
X74109281Y-59892621D01*
X74092893Y-59904528D01*
X74081860Y-59917865D01*
X74064712Y-59938593D01*
X74056722Y-59947373D01*
X73423595Y-60580500D01*
X73361283Y-60614526D01*
X73290468Y-60609461D01*
X73233632Y-60566914D01*
X73208821Y-60500394D01*
X73208500Y-60491405D01*
X73208500Y-59699600D01*
X73208163Y-59696350D01*
X73198238Y-59600692D01*
X73198237Y-59600688D01*
X73197526Y-59593834D01*
X73184387Y-59554450D01*
X73143868Y-59433002D01*
X73141550Y-59426054D01*
X73048478Y-59275652D01*
X72961891Y-59189216D01*
X72927812Y-59126934D01*
X72932815Y-59056114D01*
X72961736Y-59011025D01*
X73044134Y-58928483D01*
X73049305Y-58923303D01*
X73060394Y-58905314D01*
X73138275Y-58778968D01*
X73138276Y-58778966D01*
X73142115Y-58772738D01*
X73188845Y-58631852D01*
X73195632Y-58611389D01*
X73195632Y-58611387D01*
X73197797Y-58604861D01*
X73200687Y-58576656D01*
X73227529Y-58510929D01*
X73285644Y-58470148D01*
X73326031Y-58463500D01*
X74356800Y-58463500D01*
X74421814Y-58482590D01*
X74422165Y-58481997D01*
X74426000Y-58484265D01*
X74491250Y-58522853D01*
X74562654Y-58565081D01*
X74570265Y-58567292D01*
X74570267Y-58567293D01*
X74713213Y-58608823D01*
X74713218Y-58608824D01*
X74719390Y-58610617D01*
X74725795Y-58611121D01*
X74725800Y-58611122D01*
X74753564Y-58613307D01*
X74753572Y-58613307D01*
X74756020Y-58613500D01*
X76211480Y-58613500D01*
X76213928Y-58613307D01*
X76213936Y-58613307D01*
X76241700Y-58611122D01*
X76241705Y-58611121D01*
X76248110Y-58610617D01*
X76254282Y-58608824D01*
X76254287Y-58608823D01*
X76397233Y-58567293D01*
X76397235Y-58567292D01*
X76404846Y-58565081D01*
X76411669Y-58561046D01*
X76538515Y-58486031D01*
X76538519Y-58486028D01*
X76545335Y-58481997D01*
X76660747Y-58366585D01*
X76664778Y-58359769D01*
X76664781Y-58359765D01*
X76739796Y-58232919D01*
X76743831Y-58226096D01*
X76747838Y-58212303D01*
X76787573Y-58075537D01*
X76787574Y-58075532D01*
X76789367Y-58069360D01*
X76792250Y-58032730D01*
X76792250Y-57627270D01*
X76789367Y-57590640D01*
X76787574Y-57584468D01*
X76787573Y-57584463D01*
X76746043Y-57441517D01*
X76746042Y-57441515D01*
X76743831Y-57433904D01*
X76674541Y-57316739D01*
X76664781Y-57300235D01*
X76664778Y-57300231D01*
X76660747Y-57293415D01*
X76545335Y-57178003D01*
X76538519Y-57173972D01*
X76538515Y-57173969D01*
X76411669Y-57098954D01*
X76404846Y-57094919D01*
X76397235Y-57092708D01*
X76397233Y-57092707D01*
X76254287Y-57051177D01*
X76254282Y-57051176D01*
X76248110Y-57049383D01*
X76241705Y-57048879D01*
X76241700Y-57048878D01*
X76213936Y-57046693D01*
X76213928Y-57046693D01*
X76211480Y-57046500D01*
X75257344Y-57046500D01*
X75189223Y-57026498D01*
X75142730Y-56972842D01*
X75132626Y-56902568D01*
X75162120Y-56837988D01*
X75168249Y-56831405D01*
X75559249Y-56440405D01*
X75621561Y-56406379D01*
X75648344Y-56403500D01*
X76211480Y-56403500D01*
X76213928Y-56403307D01*
X76213936Y-56403307D01*
X76241700Y-56401122D01*
X76241705Y-56401121D01*
X76248110Y-56400617D01*
X76254282Y-56398824D01*
X76254287Y-56398823D01*
X76397233Y-56357293D01*
X76397235Y-56357292D01*
X76404846Y-56355081D01*
X76458376Y-56323424D01*
X76538515Y-56276031D01*
X76538519Y-56276028D01*
X76545335Y-56271997D01*
X76660747Y-56156585D01*
X76664778Y-56149769D01*
X76664781Y-56149765D01*
X76739796Y-56022919D01*
X76743831Y-56016096D01*
X76765151Y-55942712D01*
X76787573Y-55865537D01*
X76787574Y-55865532D01*
X76789367Y-55859360D01*
X76790066Y-55850490D01*
X76792057Y-55825186D01*
X76792057Y-55825178D01*
X76792250Y-55822730D01*
X76792250Y-55417270D01*
X76791038Y-55401866D01*
X76789872Y-55387050D01*
X76789871Y-55387045D01*
X76789367Y-55380640D01*
X76787574Y-55374468D01*
X76787573Y-55374463D01*
X76746043Y-55231517D01*
X76746042Y-55231515D01*
X76743831Y-55223904D01*
X76737500Y-55213199D01*
X76664781Y-55090235D01*
X76664778Y-55090231D01*
X76660747Y-55083415D01*
X76545335Y-54968003D01*
X76538519Y-54963972D01*
X76538515Y-54963969D01*
X76411669Y-54888954D01*
X76404846Y-54884919D01*
X76397235Y-54882708D01*
X76397233Y-54882707D01*
X76254287Y-54841177D01*
X76254282Y-54841176D01*
X76248110Y-54839383D01*
X76241705Y-54838879D01*
X76241700Y-54838878D01*
X76213936Y-54836693D01*
X76213928Y-54836693D01*
X76211480Y-54836500D01*
X74756020Y-54836500D01*
X74753572Y-54836693D01*
X74753564Y-54836693D01*
X74725800Y-54838878D01*
X74725795Y-54838879D01*
X74719390Y-54839383D01*
X74713218Y-54841176D01*
X74713213Y-54841177D01*
X74570267Y-54882707D01*
X74570265Y-54882708D01*
X74562654Y-54884919D01*
X74555831Y-54888954D01*
X74428985Y-54963969D01*
X74428981Y-54963972D01*
X74422165Y-54968003D01*
X74306753Y-55083415D01*
X74302722Y-55090231D01*
X74302719Y-55090235D01*
X74230000Y-55213199D01*
X74223669Y-55223904D01*
X74221458Y-55231515D01*
X74221457Y-55231517D01*
X74179927Y-55374463D01*
X74179926Y-55374468D01*
X74178133Y-55380640D01*
X74177629Y-55387045D01*
X74177628Y-55387050D01*
X74176462Y-55401866D01*
X74175250Y-55417270D01*
X74175250Y-55822730D01*
X74175443Y-55825178D01*
X74175443Y-55825186D01*
X74177435Y-55850490D01*
X74178133Y-55859360D01*
X74179927Y-55865536D01*
X74179928Y-55865540D01*
X74191493Y-55905348D01*
X74191290Y-55976345D01*
X74152735Y-56035960D01*
X74088070Y-56065268D01*
X74070496Y-56066500D01*
X73234500Y-56066500D01*
X73166379Y-56046498D01*
X73119886Y-55992842D01*
X73108500Y-55940500D01*
X73108500Y-55401866D01*
X73101745Y-55339684D01*
X73050615Y-55203295D01*
X72963261Y-55086739D01*
X72846705Y-54999385D01*
X72710316Y-54948255D01*
X72648134Y-54941500D01*
X71351866Y-54941500D01*
X71289684Y-54948255D01*
X71153295Y-54999385D01*
X71036739Y-55086739D01*
X70949385Y-55203295D01*
X70898255Y-55339684D01*
X70891500Y-55401866D01*
X70891500Y-55940500D01*
X70871498Y-56008621D01*
X70817842Y-56055114D01*
X70765500Y-56066500D01*
X70628767Y-56066500D01*
X70617584Y-56065973D01*
X70610091Y-56064298D01*
X70602165Y-56064547D01*
X70602164Y-56064547D01*
X70542014Y-56066438D01*
X70538055Y-56066500D01*
X70510144Y-56066500D01*
X70506210Y-56066997D01*
X70506209Y-56066997D01*
X70506144Y-56067005D01*
X70494307Y-56067938D01*
X70462490Y-56068938D01*
X70458029Y-56069078D01*
X70450110Y-56069327D01*
X70435739Y-56073502D01*
X70430658Y-56074978D01*
X70411306Y-56078986D01*
X70404235Y-56079880D01*
X70391203Y-56081526D01*
X70383834Y-56084443D01*
X70383832Y-56084444D01*
X70350097Y-56097800D01*
X70338869Y-56101645D01*
X70296407Y-56113982D01*
X70289584Y-56118017D01*
X70289582Y-56118018D01*
X70278972Y-56124293D01*
X70261224Y-56132988D01*
X70242383Y-56140448D01*
X70235967Y-56145110D01*
X70235966Y-56145110D01*
X70206613Y-56166436D01*
X70196693Y-56172952D01*
X70165465Y-56191420D01*
X70165462Y-56191422D01*
X70158638Y-56195458D01*
X70144317Y-56209779D01*
X70129284Y-56222619D01*
X70112893Y-56234528D01*
X70107843Y-56240632D01*
X70107838Y-56240637D01*
X70084707Y-56268598D01*
X70076717Y-56277379D01*
X69862321Y-56491774D01*
X69800009Y-56525799D01*
X69729193Y-56520734D01*
X69672358Y-56478187D01*
X69647547Y-56411666D01*
X69653633Y-56363011D01*
X69656264Y-56355081D01*
X69697797Y-56229861D01*
X69699591Y-56212357D01*
X69705305Y-56156585D01*
X69708500Y-56125400D01*
X69708500Y-54789594D01*
X69728502Y-54721473D01*
X69745405Y-54700499D01*
X70957153Y-53488751D01*
X71019465Y-53454725D01*
X71090280Y-53459790D01*
X71121813Y-53477020D01*
X71153295Y-53500615D01*
X71289684Y-53551745D01*
X71351866Y-53558500D01*
X72648134Y-53558500D01*
X72710316Y-53551745D01*
X72846705Y-53500615D01*
X72963261Y-53413261D01*
X73050615Y-53296705D01*
X73050861Y-53296049D01*
X73098175Y-53248843D01*
X73158433Y-53233500D01*
X74058585Y-53233500D01*
X74126706Y-53253502D01*
X74173199Y-53307158D01*
X74179582Y-53324347D01*
X74219362Y-53461270D01*
X74223669Y-53476096D01*
X74227704Y-53482919D01*
X74302719Y-53609765D01*
X74302722Y-53609769D01*
X74306753Y-53616585D01*
X74422165Y-53731997D01*
X74428981Y-53736028D01*
X74428985Y-53736031D01*
X74537939Y-53800465D01*
X74562654Y-53815081D01*
X74570265Y-53817292D01*
X74570267Y-53817293D01*
X74713213Y-53858823D01*
X74713218Y-53858824D01*
X74719390Y-53860617D01*
X74725795Y-53861121D01*
X74725800Y-53861122D01*
X74753564Y-53863307D01*
X74753572Y-53863307D01*
X74756020Y-53863500D01*
X76211480Y-53863500D01*
X76213928Y-53863307D01*
X76213936Y-53863307D01*
X76241700Y-53861122D01*
X76241705Y-53861121D01*
X76248110Y-53860617D01*
X76254282Y-53858824D01*
X76254287Y-53858823D01*
X76397233Y-53817293D01*
X76397235Y-53817292D01*
X76404846Y-53815081D01*
X76429561Y-53800465D01*
X76538515Y-53736031D01*
X76538519Y-53736028D01*
X76545335Y-53731997D01*
X76660747Y-53616585D01*
X76664778Y-53609769D01*
X76664781Y-53609765D01*
X76739796Y-53482919D01*
X76743831Y-53476096D01*
X76747374Y-53463902D01*
X76787573Y-53325537D01*
X76787574Y-53325532D01*
X76789367Y-53319360D01*
X76790328Y-53307158D01*
X76792057Y-53285186D01*
X76792057Y-53285178D01*
X76792250Y-53282730D01*
X76792250Y-52877270D01*
X76789367Y-52840640D01*
X76787574Y-52834468D01*
X76787573Y-52834463D01*
X76746043Y-52691517D01*
X76746042Y-52691515D01*
X76743831Y-52683904D01*
X76709898Y-52626525D01*
X76664781Y-52550235D01*
X76664778Y-52550231D01*
X76660747Y-52543415D01*
X76545335Y-52428003D01*
X76538519Y-52423972D01*
X76538515Y-52423969D01*
X76411669Y-52348954D01*
X76404846Y-52344919D01*
X76397235Y-52342708D01*
X76397233Y-52342707D01*
X76254287Y-52301177D01*
X76254282Y-52301176D01*
X76248110Y-52299383D01*
X76241705Y-52298879D01*
X76241700Y-52298878D01*
X76213936Y-52296693D01*
X76213928Y-52296693D01*
X76211480Y-52296500D01*
X75648345Y-52296500D01*
X75580224Y-52276498D01*
X75559250Y-52259595D01*
X75507402Y-52207747D01*
X75499862Y-52199461D01*
X75495750Y-52192982D01*
X75446098Y-52146356D01*
X75443257Y-52143602D01*
X75423520Y-52123865D01*
X75420323Y-52121385D01*
X75411301Y-52113680D01*
X75399468Y-52102568D01*
X75379071Y-52083414D01*
X75372125Y-52079595D01*
X75372122Y-52079593D01*
X75361316Y-52073652D01*
X75344797Y-52062801D01*
X75344333Y-52062441D01*
X75328791Y-52050386D01*
X75321522Y-52047241D01*
X75321518Y-52047238D01*
X75288213Y-52032826D01*
X75277563Y-52027609D01*
X75238810Y-52006305D01*
X75219187Y-52001267D01*
X75200484Y-51994863D01*
X75189170Y-51989967D01*
X75189169Y-51989967D01*
X75181895Y-51986819D01*
X75174072Y-51985580D01*
X75174062Y-51985577D01*
X75138226Y-51979901D01*
X75126606Y-51977495D01*
X75091461Y-51968472D01*
X75091460Y-51968472D01*
X75083780Y-51966500D01*
X75063526Y-51966500D01*
X75043815Y-51964949D01*
X75031636Y-51963020D01*
X75023807Y-51961780D01*
X75015915Y-51962526D01*
X74979789Y-51965941D01*
X74967931Y-51966500D01*
X73158433Y-51966500D01*
X73090312Y-51946498D01*
X73051000Y-51904322D01*
X73050615Y-51903295D01*
X72963261Y-51786739D01*
X72846705Y-51699385D01*
X72710316Y-51648255D01*
X72648134Y-51641500D01*
X71351866Y-51641500D01*
X71289684Y-51648255D01*
X71153295Y-51699385D01*
X71036739Y-51786739D01*
X71031358Y-51793919D01*
X70975334Y-51868672D01*
X70949385Y-51903295D01*
X70948064Y-51906819D01*
X70899662Y-51955112D01*
X70859115Y-51968905D01*
X70858028Y-51969077D01*
X70850111Y-51969326D01*
X70842503Y-51971536D01*
X70842499Y-51971537D01*
X70830652Y-51974979D01*
X70811293Y-51978988D01*
X70809983Y-51979154D01*
X70791203Y-51981526D01*
X70783837Y-51984442D01*
X70783831Y-51984444D01*
X70750098Y-51997800D01*
X70738868Y-52001645D01*
X70722828Y-52006305D01*
X70696407Y-52013981D01*
X70689584Y-52018016D01*
X70678966Y-52024295D01*
X70661213Y-52032992D01*
X70654261Y-52035745D01*
X70642383Y-52040448D01*
X70628705Y-52050386D01*
X70606612Y-52066437D01*
X70596695Y-52072951D01*
X70558638Y-52095458D01*
X70544317Y-52109779D01*
X70529284Y-52122619D01*
X70512893Y-52134528D01*
X70504217Y-52145016D01*
X70484702Y-52168605D01*
X70476712Y-52177384D01*
X69435018Y-53219077D01*
X69372706Y-53253103D01*
X69301890Y-53248038D01*
X69279811Y-53237245D01*
X69272738Y-53232885D01*
X69112254Y-53179655D01*
X69111389Y-53179368D01*
X69111387Y-53179368D01*
X69104861Y-53177203D01*
X69098025Y-53176503D01*
X69098022Y-53176502D01*
X69054969Y-53172091D01*
X69000400Y-53166500D01*
X68099600Y-53166500D01*
X68096354Y-53166837D01*
X68096350Y-53166837D01*
X68000692Y-53176762D01*
X68000688Y-53176763D01*
X67993834Y-53177474D01*
X67987298Y-53179655D01*
X67987296Y-53179655D01*
X67869441Y-53218975D01*
X67826054Y-53233450D01*
X67819823Y-53237306D01*
X67813203Y-53240407D01*
X67812608Y-53239136D01*
X67751821Y-53255862D01*
X67684052Y-53234698D01*
X67664880Y-53218975D01*
X66933652Y-52487747D01*
X66926112Y-52479461D01*
X66922000Y-52472982D01*
X66911687Y-52463297D01*
X66872349Y-52426357D01*
X66869507Y-52423602D01*
X66849770Y-52403865D01*
X66846573Y-52401385D01*
X66837551Y-52393680D01*
X66811100Y-52368841D01*
X66805321Y-52363414D01*
X66798375Y-52359595D01*
X66798372Y-52359593D01*
X66787566Y-52353652D01*
X66771047Y-52342801D01*
X66770583Y-52342441D01*
X66755041Y-52330386D01*
X66747772Y-52327241D01*
X66747768Y-52327238D01*
X66714463Y-52312826D01*
X66703813Y-52307609D01*
X66665060Y-52286305D01*
X66645437Y-52281267D01*
X66626734Y-52274863D01*
X66615420Y-52269967D01*
X66615419Y-52269967D01*
X66608145Y-52266819D01*
X66600322Y-52265580D01*
X66600312Y-52265577D01*
X66564476Y-52259901D01*
X66552856Y-52257495D01*
X66517711Y-52248472D01*
X66517710Y-52248472D01*
X66510030Y-52246500D01*
X66489776Y-52246500D01*
X66470065Y-52244949D01*
X66457886Y-52243020D01*
X66450057Y-52241780D01*
X66442165Y-52242526D01*
X66406039Y-52245941D01*
X66394181Y-52246500D01*
X65886199Y-52246500D01*
X65818078Y-52226498D01*
X65771585Y-52172842D01*
X65761481Y-52102568D01*
X65790975Y-52037988D01*
X65853588Y-51998793D01*
X65857294Y-51997800D01*
X66114143Y-51928978D01*
X66181050Y-51903295D01*
X66275601Y-51867000D01*
X66466465Y-51793734D01*
X66501056Y-51776109D01*
X66799779Y-51623902D01*
X66799786Y-51623898D01*
X66802720Y-51622403D01*
X66860669Y-51584771D01*
X67116450Y-51418665D01*
X67119225Y-51416863D01*
X67412511Y-51179365D01*
X67679365Y-50912511D01*
X67916863Y-50619225D01*
X68120606Y-50305489D01*
X68120607Y-50305487D01*
X68122403Y-50302721D01*
X68123903Y-50299779D01*
X68267419Y-50018112D01*
X95493682Y-50018112D01*
X95502978Y-50030127D01*
X95548780Y-50062198D01*
X95558275Y-50067681D01*
X95751769Y-50157908D01*
X95762061Y-50161654D01*
X95968282Y-50216911D01*
X95979077Y-50218814D01*
X96191764Y-50237422D01*
X96202714Y-50237422D01*
X96415401Y-50218814D01*
X96426196Y-50216911D01*
X96632417Y-50161654D01*
X96642709Y-50157908D01*
X96836203Y-50067681D01*
X96845698Y-50062198D01*
X96892338Y-50029540D01*
X96900713Y-50019063D01*
X96900213Y-50018112D01*
X103693682Y-50018112D01*
X103702978Y-50030127D01*
X103748780Y-50062198D01*
X103758275Y-50067681D01*
X103951769Y-50157908D01*
X103962061Y-50161654D01*
X104168282Y-50216911D01*
X104179077Y-50218814D01*
X104391764Y-50237422D01*
X104402714Y-50237422D01*
X104615401Y-50218814D01*
X104626196Y-50216911D01*
X104832417Y-50161654D01*
X104842709Y-50157908D01*
X105036203Y-50067681D01*
X105045698Y-50062198D01*
X105092338Y-50029540D01*
X105100713Y-50019063D01*
X105100213Y-50018112D01*
X111893682Y-50018112D01*
X111902978Y-50030127D01*
X111948780Y-50062198D01*
X111958275Y-50067681D01*
X112151769Y-50157908D01*
X112162061Y-50161654D01*
X112368282Y-50216911D01*
X112379077Y-50218814D01*
X112591764Y-50237422D01*
X112602714Y-50237422D01*
X112815401Y-50218814D01*
X112826196Y-50216911D01*
X113032417Y-50161654D01*
X113042709Y-50157908D01*
X113236203Y-50067681D01*
X113245698Y-50062198D01*
X113292338Y-50029540D01*
X113300713Y-50019063D01*
X113300213Y-50018112D01*
X120093682Y-50018112D01*
X120102978Y-50030127D01*
X120148780Y-50062198D01*
X120158275Y-50067681D01*
X120351769Y-50157908D01*
X120362061Y-50161654D01*
X120568282Y-50216911D01*
X120579077Y-50218814D01*
X120791764Y-50237422D01*
X120802714Y-50237422D01*
X121015401Y-50218814D01*
X121026196Y-50216911D01*
X121232417Y-50161654D01*
X121242709Y-50157908D01*
X121436203Y-50067681D01*
X121445698Y-50062198D01*
X121492338Y-50029540D01*
X121500713Y-50019063D01*
X121493645Y-50005616D01*
X120810051Y-49322022D01*
X120796107Y-49314408D01*
X120794274Y-49314539D01*
X120787659Y-49318790D01*
X120100112Y-50006337D01*
X120093682Y-50018112D01*
X113300213Y-50018112D01*
X113293645Y-50005616D01*
X112610051Y-49322022D01*
X112596107Y-49314408D01*
X112594274Y-49314539D01*
X112587659Y-49318790D01*
X111900112Y-50006337D01*
X111893682Y-50018112D01*
X105100213Y-50018112D01*
X105093645Y-50005616D01*
X104410051Y-49322022D01*
X104396107Y-49314408D01*
X104394274Y-49314539D01*
X104387659Y-49318790D01*
X103700112Y-50006337D01*
X103693682Y-50018112D01*
X96900213Y-50018112D01*
X96893645Y-50005616D01*
X96210051Y-49322022D01*
X96196107Y-49314408D01*
X96194274Y-49314539D01*
X96187659Y-49318790D01*
X95500112Y-50006337D01*
X95493682Y-50018112D01*
X68267419Y-50018112D01*
X68292236Y-49969405D01*
X68293734Y-49966465D01*
X68428978Y-49614143D01*
X68526653Y-49249613D01*
X68573240Y-48955475D01*
X94909817Y-48955475D01*
X94928425Y-49168162D01*
X94930328Y-49178957D01*
X94985585Y-49385178D01*
X94989331Y-49395470D01*
X95079558Y-49588963D01*
X95085041Y-49598459D01*
X95117699Y-49645099D01*
X95128176Y-49653474D01*
X95141624Y-49646405D01*
X95825217Y-48962812D01*
X95831595Y-48951132D01*
X96561647Y-48951132D01*
X96561778Y-48952965D01*
X96566029Y-48959580D01*
X97253576Y-49647127D01*
X97265351Y-49653557D01*
X97277366Y-49644261D01*
X97309437Y-49598459D01*
X97314920Y-49588963D01*
X97405147Y-49395470D01*
X97408893Y-49385178D01*
X97464150Y-49178957D01*
X97466053Y-49168162D01*
X97484661Y-48955475D01*
X103109817Y-48955475D01*
X103128425Y-49168162D01*
X103130328Y-49178957D01*
X103185585Y-49385178D01*
X103189331Y-49395470D01*
X103279558Y-49588963D01*
X103285041Y-49598459D01*
X103317699Y-49645099D01*
X103328176Y-49653474D01*
X103341624Y-49646405D01*
X104025217Y-48962812D01*
X104031595Y-48951132D01*
X104761647Y-48951132D01*
X104761778Y-48952965D01*
X104766029Y-48959580D01*
X105453576Y-49647127D01*
X105465351Y-49653557D01*
X105477366Y-49644261D01*
X105509437Y-49598459D01*
X105514920Y-49588963D01*
X105605147Y-49395470D01*
X105608893Y-49385178D01*
X105664150Y-49178957D01*
X105666053Y-49168162D01*
X105684661Y-48955475D01*
X111309817Y-48955475D01*
X111328425Y-49168162D01*
X111330328Y-49178957D01*
X111385585Y-49385178D01*
X111389331Y-49395470D01*
X111479558Y-49588963D01*
X111485041Y-49598459D01*
X111517699Y-49645099D01*
X111528176Y-49653474D01*
X111541624Y-49646405D01*
X112225217Y-48962812D01*
X112231595Y-48951132D01*
X112961647Y-48951132D01*
X112961778Y-48952965D01*
X112966029Y-48959580D01*
X113653576Y-49647127D01*
X113665351Y-49653557D01*
X113677366Y-49644261D01*
X113709437Y-49598459D01*
X113714920Y-49588963D01*
X113805147Y-49395470D01*
X113808893Y-49385178D01*
X113864150Y-49178957D01*
X113866053Y-49168162D01*
X113884661Y-48955475D01*
X119509817Y-48955475D01*
X119528425Y-49168162D01*
X119530328Y-49178957D01*
X119585585Y-49385178D01*
X119589331Y-49395470D01*
X119679558Y-49588963D01*
X119685041Y-49598459D01*
X119717699Y-49645099D01*
X119728176Y-49653474D01*
X119741624Y-49646405D01*
X120425217Y-48962812D01*
X120431595Y-48951132D01*
X121161647Y-48951132D01*
X121161778Y-48952965D01*
X121166029Y-48959580D01*
X121853576Y-49647127D01*
X121865351Y-49653557D01*
X121877366Y-49644261D01*
X121909437Y-49598459D01*
X121914920Y-49588963D01*
X122005147Y-49395470D01*
X122008893Y-49385178D01*
X122064150Y-49178957D01*
X122066053Y-49168162D01*
X122084661Y-48955475D01*
X122084661Y-48944525D01*
X122066053Y-48731838D01*
X122064150Y-48721043D01*
X122008893Y-48514822D01*
X122005147Y-48504530D01*
X121914920Y-48311037D01*
X121909437Y-48301541D01*
X121876779Y-48254901D01*
X121866302Y-48246526D01*
X121852854Y-48253595D01*
X121169261Y-48937188D01*
X121161647Y-48951132D01*
X120431595Y-48951132D01*
X120432831Y-48948868D01*
X120432700Y-48947035D01*
X120428449Y-48940420D01*
X119740902Y-48252873D01*
X119729127Y-48246443D01*
X119717112Y-48255739D01*
X119685041Y-48301541D01*
X119679558Y-48311037D01*
X119589331Y-48504530D01*
X119585585Y-48514822D01*
X119530328Y-48721043D01*
X119528425Y-48731838D01*
X119509817Y-48944525D01*
X119509817Y-48955475D01*
X113884661Y-48955475D01*
X113884661Y-48944525D01*
X113866053Y-48731838D01*
X113864150Y-48721043D01*
X113808893Y-48514822D01*
X113805147Y-48504530D01*
X113714920Y-48311037D01*
X113709437Y-48301541D01*
X113676779Y-48254901D01*
X113666302Y-48246526D01*
X113652854Y-48253595D01*
X112969261Y-48937188D01*
X112961647Y-48951132D01*
X112231595Y-48951132D01*
X112232831Y-48948868D01*
X112232700Y-48947035D01*
X112228449Y-48940420D01*
X111540902Y-48252873D01*
X111529127Y-48246443D01*
X111517112Y-48255739D01*
X111485041Y-48301541D01*
X111479558Y-48311037D01*
X111389331Y-48504530D01*
X111385585Y-48514822D01*
X111330328Y-48721043D01*
X111328425Y-48731838D01*
X111309817Y-48944525D01*
X111309817Y-48955475D01*
X105684661Y-48955475D01*
X105684661Y-48944525D01*
X105666053Y-48731838D01*
X105664150Y-48721043D01*
X105608893Y-48514822D01*
X105605147Y-48504530D01*
X105514920Y-48311037D01*
X105509437Y-48301541D01*
X105476779Y-48254901D01*
X105466302Y-48246526D01*
X105452854Y-48253595D01*
X104769261Y-48937188D01*
X104761647Y-48951132D01*
X104031595Y-48951132D01*
X104032831Y-48948868D01*
X104032700Y-48947035D01*
X104028449Y-48940420D01*
X103340902Y-48252873D01*
X103329127Y-48246443D01*
X103317112Y-48255739D01*
X103285041Y-48301541D01*
X103279558Y-48311037D01*
X103189331Y-48504530D01*
X103185585Y-48514822D01*
X103130328Y-48721043D01*
X103128425Y-48731838D01*
X103109817Y-48944525D01*
X103109817Y-48955475D01*
X97484661Y-48955475D01*
X97484661Y-48944525D01*
X97466053Y-48731838D01*
X97464150Y-48721043D01*
X97408893Y-48514822D01*
X97405147Y-48504530D01*
X97314920Y-48311037D01*
X97309437Y-48301541D01*
X97276779Y-48254901D01*
X97266302Y-48246526D01*
X97252854Y-48253595D01*
X96569261Y-48937188D01*
X96561647Y-48951132D01*
X95831595Y-48951132D01*
X95832831Y-48948868D01*
X95832700Y-48947035D01*
X95828449Y-48940420D01*
X95140902Y-48252873D01*
X95129127Y-48246443D01*
X95117112Y-48255739D01*
X95085041Y-48301541D01*
X95079558Y-48311037D01*
X94989331Y-48504530D01*
X94985585Y-48514822D01*
X94930328Y-48721043D01*
X94928425Y-48731838D01*
X94909817Y-48944525D01*
X94909817Y-48955475D01*
X68573240Y-48955475D01*
X68585690Y-48876871D01*
X68605441Y-48500000D01*
X68585690Y-48123129D01*
X68583736Y-48110787D01*
X68554130Y-47923871D01*
X68547330Y-47880937D01*
X95493765Y-47880937D01*
X95500834Y-47894385D01*
X96184427Y-48577978D01*
X96198371Y-48585592D01*
X96200204Y-48585461D01*
X96206819Y-48581210D01*
X96894366Y-47893663D01*
X96900796Y-47881888D01*
X96900060Y-47880937D01*
X103693765Y-47880937D01*
X103700834Y-47894385D01*
X104384427Y-48577978D01*
X104398371Y-48585592D01*
X104400204Y-48585461D01*
X104406819Y-48581210D01*
X105094366Y-47893663D01*
X105100796Y-47881888D01*
X105100060Y-47880937D01*
X111893765Y-47880937D01*
X111900834Y-47894385D01*
X112584427Y-48577978D01*
X112598371Y-48585592D01*
X112600204Y-48585461D01*
X112606819Y-48581210D01*
X113294366Y-47893663D01*
X113300796Y-47881888D01*
X113300060Y-47880937D01*
X120093765Y-47880937D01*
X120100834Y-47894385D01*
X120784427Y-48577978D01*
X120798371Y-48585592D01*
X120800204Y-48585461D01*
X120806819Y-48581210D01*
X121494366Y-47893663D01*
X121500796Y-47881888D01*
X121491500Y-47869873D01*
X121445698Y-47837802D01*
X121436203Y-47832319D01*
X121242709Y-47742092D01*
X121232417Y-47738346D01*
X121026196Y-47683089D01*
X121015401Y-47681186D01*
X120802714Y-47662578D01*
X120791764Y-47662578D01*
X120579077Y-47681186D01*
X120568282Y-47683089D01*
X120362061Y-47738346D01*
X120351769Y-47742092D01*
X120158276Y-47832319D01*
X120148780Y-47837802D01*
X120102140Y-47870460D01*
X120093765Y-47880937D01*
X113300060Y-47880937D01*
X113291500Y-47869873D01*
X113245698Y-47837802D01*
X113236203Y-47832319D01*
X113042709Y-47742092D01*
X113032417Y-47738346D01*
X112826196Y-47683089D01*
X112815401Y-47681186D01*
X112602714Y-47662578D01*
X112591764Y-47662578D01*
X112379077Y-47681186D01*
X112368282Y-47683089D01*
X112162061Y-47738346D01*
X112151769Y-47742092D01*
X111958276Y-47832319D01*
X111948780Y-47837802D01*
X111902140Y-47870460D01*
X111893765Y-47880937D01*
X105100060Y-47880937D01*
X105091500Y-47869873D01*
X105045698Y-47837802D01*
X105036203Y-47832319D01*
X104842709Y-47742092D01*
X104832417Y-47738346D01*
X104626196Y-47683089D01*
X104615401Y-47681186D01*
X104402714Y-47662578D01*
X104391764Y-47662578D01*
X104179077Y-47681186D01*
X104168282Y-47683089D01*
X103962061Y-47738346D01*
X103951769Y-47742092D01*
X103758276Y-47832319D01*
X103748780Y-47837802D01*
X103702140Y-47870460D01*
X103693765Y-47880937D01*
X96900060Y-47880937D01*
X96891500Y-47869873D01*
X96845698Y-47837802D01*
X96836203Y-47832319D01*
X96642709Y-47742092D01*
X96632417Y-47738346D01*
X96426196Y-47683089D01*
X96415401Y-47681186D01*
X96202714Y-47662578D01*
X96191764Y-47662578D01*
X95979077Y-47681186D01*
X95968282Y-47683089D01*
X95762061Y-47738346D01*
X95751769Y-47742092D01*
X95558276Y-47832319D01*
X95548780Y-47837802D01*
X95502140Y-47870460D01*
X95493765Y-47880937D01*
X68547330Y-47880937D01*
X68526653Y-47750387D01*
X68464415Y-47518112D01*
X100493682Y-47518112D01*
X100502978Y-47530127D01*
X100548780Y-47562198D01*
X100558275Y-47567681D01*
X100751769Y-47657908D01*
X100762061Y-47661654D01*
X100968282Y-47716911D01*
X100979077Y-47718814D01*
X101191764Y-47737422D01*
X101202714Y-47737422D01*
X101415401Y-47718814D01*
X101426196Y-47716911D01*
X101632417Y-47661654D01*
X101642709Y-47657908D01*
X101836203Y-47567681D01*
X101845698Y-47562198D01*
X101892338Y-47529540D01*
X101900713Y-47519063D01*
X101900213Y-47518112D01*
X108693682Y-47518112D01*
X108702978Y-47530127D01*
X108748780Y-47562198D01*
X108758275Y-47567681D01*
X108951769Y-47657908D01*
X108962061Y-47661654D01*
X109168282Y-47716911D01*
X109179077Y-47718814D01*
X109391764Y-47737422D01*
X109402714Y-47737422D01*
X109615401Y-47718814D01*
X109626196Y-47716911D01*
X109832417Y-47661654D01*
X109842709Y-47657908D01*
X110036203Y-47567681D01*
X110045698Y-47562198D01*
X110092338Y-47529540D01*
X110100713Y-47519063D01*
X110100213Y-47518112D01*
X116893682Y-47518112D01*
X116902978Y-47530127D01*
X116948780Y-47562198D01*
X116958275Y-47567681D01*
X117151769Y-47657908D01*
X117162061Y-47661654D01*
X117368282Y-47716911D01*
X117379077Y-47718814D01*
X117591764Y-47737422D01*
X117602714Y-47737422D01*
X117815401Y-47718814D01*
X117826196Y-47716911D01*
X118032417Y-47661654D01*
X118042709Y-47657908D01*
X118236203Y-47567681D01*
X118245698Y-47562198D01*
X118292338Y-47529540D01*
X118300713Y-47519063D01*
X118300213Y-47518112D01*
X125093682Y-47518112D01*
X125102978Y-47530127D01*
X125148780Y-47562198D01*
X125158275Y-47567681D01*
X125351769Y-47657908D01*
X125362061Y-47661654D01*
X125568282Y-47716911D01*
X125579077Y-47718814D01*
X125791764Y-47737422D01*
X125802714Y-47737422D01*
X126015401Y-47718814D01*
X126026196Y-47716911D01*
X126232417Y-47661654D01*
X126242709Y-47657908D01*
X126436203Y-47567681D01*
X126445698Y-47562198D01*
X126492338Y-47529540D01*
X126500713Y-47519063D01*
X126493645Y-47505616D01*
X125810051Y-46822022D01*
X125796107Y-46814408D01*
X125794274Y-46814539D01*
X125787659Y-46818790D01*
X125100112Y-47506337D01*
X125093682Y-47518112D01*
X118300213Y-47518112D01*
X118293645Y-47505616D01*
X117610051Y-46822022D01*
X117596107Y-46814408D01*
X117594274Y-46814539D01*
X117587659Y-46818790D01*
X116900112Y-47506337D01*
X116893682Y-47518112D01*
X110100213Y-47518112D01*
X110093645Y-47505616D01*
X109410051Y-46822022D01*
X109396107Y-46814408D01*
X109394274Y-46814539D01*
X109387659Y-46818790D01*
X108700112Y-47506337D01*
X108693682Y-47518112D01*
X101900213Y-47518112D01*
X101893645Y-47505616D01*
X101210051Y-46822022D01*
X101196107Y-46814408D01*
X101194274Y-46814539D01*
X101187659Y-46818790D01*
X100500112Y-47506337D01*
X100493682Y-47518112D01*
X68464415Y-47518112D01*
X68428978Y-47385857D01*
X68293734Y-47033535D01*
X68198783Y-46847184D01*
X68123902Y-46700221D01*
X68123898Y-46700214D01*
X68122403Y-46697280D01*
X68055333Y-46594000D01*
X67918665Y-46383550D01*
X67916863Y-46380775D01*
X67679365Y-46087489D01*
X67412511Y-45820635D01*
X67303572Y-45732418D01*
X67263222Y-45674006D01*
X67260856Y-45603049D01*
X67297229Y-45542077D01*
X67360791Y-45510449D01*
X67382868Y-45508500D01*
X100048187Y-45508500D01*
X100116308Y-45528502D01*
G37*
G04 #@! TD.AperFunction*
G04 #@! TA.AperFunction,Conductor*
G36*
X62685253Y-45528502D02*
G01*
X62731746Y-45582158D01*
X62741850Y-45652432D01*
X62712356Y-45717012D01*
X62696434Y-45732413D01*
X62587489Y-45820635D01*
X62320635Y-46087489D01*
X62083137Y-46380775D01*
X62081335Y-46383550D01*
X61879395Y-46694510D01*
X61879393Y-46694513D01*
X61877597Y-46697279D01*
X61876102Y-46700213D01*
X61876098Y-46700220D01*
X61771264Y-46905969D01*
X61706266Y-47033535D01*
X61571022Y-47385857D01*
X61473347Y-47750387D01*
X61445870Y-47923871D01*
X61416265Y-48110787D01*
X61414310Y-48123129D01*
X61394559Y-48500000D01*
X61414310Y-48876871D01*
X61473347Y-49249613D01*
X61571022Y-49614143D01*
X61706266Y-49966465D01*
X61707764Y-49969405D01*
X61840428Y-50229771D01*
X61877597Y-50302720D01*
X61879393Y-50305486D01*
X61879395Y-50305489D01*
X61883454Y-50311739D01*
X62083137Y-50619225D01*
X62320635Y-50912511D01*
X62587489Y-51179365D01*
X62880775Y-51416863D01*
X62883550Y-51418665D01*
X63139332Y-51584771D01*
X63197280Y-51622403D01*
X63200214Y-51623898D01*
X63200221Y-51623902D01*
X63498944Y-51776109D01*
X63533535Y-51793734D01*
X63724399Y-51867000D01*
X63818951Y-51903295D01*
X63885857Y-51928978D01*
X64142706Y-51997800D01*
X64146412Y-51998793D01*
X64207035Y-52035745D01*
X64238056Y-52099605D01*
X64229628Y-52170100D01*
X64184425Y-52224847D01*
X64113801Y-52246500D01*
X61934500Y-52246500D01*
X61866379Y-52226498D01*
X61819886Y-52172842D01*
X61808500Y-52120500D01*
X61808500Y-51981866D01*
X61801745Y-51919684D01*
X61750615Y-51783295D01*
X61663261Y-51666739D01*
X61546705Y-51579385D01*
X61410316Y-51528255D01*
X61348134Y-51521500D01*
X59051866Y-51521500D01*
X58989684Y-51528255D01*
X58853295Y-51579385D01*
X58736739Y-51666739D01*
X58649385Y-51783295D01*
X58598255Y-51919684D01*
X58591500Y-51981866D01*
X58591500Y-53778134D01*
X58598255Y-53840316D01*
X58649385Y-53976705D01*
X58736739Y-54093261D01*
X58853295Y-54180615D01*
X58861704Y-54183767D01*
X58861705Y-54183768D01*
X58972289Y-54225224D01*
X59029054Y-54267865D01*
X59053754Y-54334427D01*
X59038547Y-54403776D01*
X59015032Y-54434375D01*
X58932727Y-54512890D01*
X58932717Y-54512902D01*
X58928865Y-54516576D01*
X58791246Y-54701542D01*
X58788830Y-54706293D01*
X58788828Y-54706297D01*
X58742746Y-54796934D01*
X58686760Y-54907051D01*
X58685178Y-54912145D01*
X58685177Y-54912148D01*
X58643864Y-55045197D01*
X58618393Y-55127227D01*
X58617692Y-55132516D01*
X58590235Y-55339684D01*
X58588102Y-55355774D01*
X58588302Y-55361103D01*
X58588302Y-55361105D01*
X58589161Y-55383975D01*
X58596751Y-55586158D01*
X58644093Y-55811791D01*
X58646051Y-55816750D01*
X58646052Y-55816752D01*
X58724022Y-56014182D01*
X58728776Y-56026221D01*
X58731543Y-56030780D01*
X58731544Y-56030783D01*
X58793995Y-56133698D01*
X58848377Y-56223317D01*
X58851874Y-56227347D01*
X58990313Y-56386884D01*
X58999477Y-56397445D01*
X59008906Y-56405176D01*
X59173627Y-56540240D01*
X59173633Y-56540244D01*
X59177755Y-56543624D01*
X59182391Y-56546263D01*
X59182394Y-56546265D01*
X59348076Y-56640577D01*
X59378114Y-56657675D01*
X59594825Y-56736337D01*
X59600074Y-56737286D01*
X59600077Y-56737287D01*
X59817608Y-56776623D01*
X59817615Y-56776624D01*
X59821692Y-56777361D01*
X59839414Y-56778197D01*
X59844356Y-56778430D01*
X59844363Y-56778430D01*
X59845844Y-56778500D01*
X60507890Y-56778500D01*
X60574809Y-56772822D01*
X60674409Y-56764371D01*
X60674413Y-56764370D01*
X60679720Y-56763920D01*
X60684875Y-56762582D01*
X60684881Y-56762581D01*
X60897703Y-56707343D01*
X60897707Y-56707342D01*
X60902872Y-56706001D01*
X60907738Y-56703809D01*
X60907741Y-56703808D01*
X61108202Y-56613507D01*
X61113075Y-56611312D01*
X61304319Y-56482559D01*
X61326391Y-56461504D01*
X61385744Y-56404883D01*
X61471135Y-56323424D01*
X61506397Y-56276031D01*
X61545836Y-56223022D01*
X61608754Y-56138458D01*
X61611170Y-56133706D01*
X61611175Y-56133698D01*
X61616922Y-56122394D01*
X61665625Y-56070737D01*
X61729238Y-56053500D01*
X64170437Y-56053500D01*
X64238558Y-56073502D01*
X64285051Y-56127158D01*
X64295764Y-56166496D01*
X64301660Y-56223317D01*
X64302474Y-56231166D01*
X64304655Y-56237702D01*
X64304655Y-56237704D01*
X64333254Y-56323424D01*
X64358450Y-56398946D01*
X64451522Y-56549348D01*
X64576697Y-56674305D01*
X64678989Y-56737359D01*
X64687649Y-56742697D01*
X64735142Y-56795470D01*
X64746564Y-56865541D01*
X64718290Y-56930665D01*
X64687836Y-56957100D01*
X64575652Y-57026522D01*
X64450695Y-57151697D01*
X64446855Y-57157927D01*
X64446854Y-57157928D01*
X64388126Y-57253203D01*
X64357885Y-57302262D01*
X64355581Y-57309209D01*
X64314222Y-57433904D01*
X64302203Y-57470139D01*
X64301503Y-57476975D01*
X64301502Y-57476978D01*
X64299410Y-57497402D01*
X64291500Y-57574600D01*
X64291500Y-59825400D01*
X64291837Y-59828650D01*
X64292005Y-59831892D01*
X64290904Y-59831949D01*
X64278839Y-59897343D01*
X64230257Y-59949114D01*
X64166390Y-59966500D01*
X62684595Y-59966500D01*
X62616474Y-59946498D01*
X62595500Y-59929595D01*
X61845405Y-59179500D01*
X61811379Y-59117188D01*
X61808500Y-59090405D01*
X61808500Y-57631866D01*
X61801745Y-57569684D01*
X61750615Y-57433295D01*
X61663261Y-57316739D01*
X61546705Y-57229385D01*
X61410316Y-57178255D01*
X61348134Y-57171500D01*
X59051866Y-57171500D01*
X58989684Y-57178255D01*
X58853295Y-57229385D01*
X58736739Y-57316739D01*
X58649385Y-57433295D01*
X58598255Y-57569684D01*
X58591500Y-57631866D01*
X58591500Y-59428134D01*
X58598255Y-59490316D01*
X58649385Y-59626705D01*
X58736739Y-59743261D01*
X58853295Y-59830615D01*
X58861704Y-59833767D01*
X58861705Y-59833768D01*
X58972289Y-59875224D01*
X59029054Y-59917865D01*
X59053754Y-59984427D01*
X59038547Y-60053776D01*
X59015032Y-60084375D01*
X58932727Y-60162890D01*
X58932717Y-60162902D01*
X58928865Y-60166576D01*
X58791246Y-60351542D01*
X58686760Y-60557051D01*
X58685178Y-60562145D01*
X58685177Y-60562148D01*
X58630510Y-60738205D01*
X58618393Y-60777227D01*
X58617692Y-60782516D01*
X58589650Y-60994098D01*
X58588102Y-61005774D01*
X58588302Y-61011103D01*
X58588302Y-61011105D01*
X58588544Y-61017548D01*
X58596751Y-61236158D01*
X58644093Y-61461791D01*
X58646051Y-61466750D01*
X58646052Y-61466752D01*
X58725348Y-61667540D01*
X58728776Y-61676221D01*
X58731543Y-61680780D01*
X58731544Y-61680783D01*
X58811507Y-61812557D01*
X58848377Y-61873317D01*
X58851874Y-61877347D01*
X58983293Y-62028794D01*
X58999477Y-62047445D01*
X59041030Y-62081516D01*
X59173627Y-62190240D01*
X59173633Y-62190244D01*
X59177755Y-62193624D01*
X59182391Y-62196263D01*
X59182394Y-62196265D01*
X59273670Y-62248222D01*
X59378114Y-62307675D01*
X59594825Y-62386337D01*
X59600074Y-62387286D01*
X59600077Y-62387287D01*
X59817608Y-62426623D01*
X59817615Y-62426624D01*
X59821692Y-62427361D01*
X59839414Y-62428197D01*
X59844356Y-62428430D01*
X59844363Y-62428430D01*
X59845844Y-62428500D01*
X60507890Y-62428500D01*
X60574809Y-62422822D01*
X60674409Y-62414371D01*
X60674413Y-62414370D01*
X60679720Y-62413920D01*
X60684875Y-62412582D01*
X60684881Y-62412581D01*
X60897703Y-62357343D01*
X60897707Y-62357342D01*
X60902872Y-62356001D01*
X60907738Y-62353809D01*
X60907741Y-62353808D01*
X61108202Y-62263507D01*
X61113075Y-62261312D01*
X61304319Y-62132559D01*
X61315166Y-62122212D01*
X61424062Y-62018330D01*
X61487159Y-61985783D01*
X61511034Y-61983500D01*
X73471233Y-61983500D01*
X73482416Y-61984027D01*
X73489909Y-61985702D01*
X73497835Y-61985453D01*
X73497836Y-61985453D01*
X73557986Y-61983562D01*
X73561945Y-61983500D01*
X73589856Y-61983500D01*
X73593791Y-61983003D01*
X73593856Y-61982995D01*
X73605693Y-61982062D01*
X73637951Y-61981048D01*
X73641970Y-61980922D01*
X73649889Y-61980673D01*
X73669343Y-61975021D01*
X73688700Y-61971013D01*
X73700930Y-61969468D01*
X73700931Y-61969468D01*
X73708797Y-61968474D01*
X73716168Y-61965555D01*
X73716170Y-61965555D01*
X73749912Y-61952196D01*
X73761142Y-61948351D01*
X73795983Y-61938229D01*
X73795984Y-61938229D01*
X73803593Y-61936018D01*
X73810412Y-61931985D01*
X73810417Y-61931983D01*
X73821028Y-61925707D01*
X73838776Y-61917012D01*
X73857617Y-61909552D01*
X73893387Y-61883564D01*
X73903307Y-61877048D01*
X73934535Y-61858580D01*
X73934538Y-61858578D01*
X73941362Y-61854542D01*
X73955683Y-61840221D01*
X73970717Y-61827380D01*
X73987107Y-61815472D01*
X74015298Y-61781395D01*
X74023288Y-61772616D01*
X74610568Y-61185336D01*
X74672880Y-61151310D01*
X74719113Y-61150536D01*
X74719390Y-61150617D01*
X74728195Y-61151310D01*
X74753564Y-61153307D01*
X74753572Y-61153307D01*
X74756020Y-61153500D01*
X75055213Y-61153500D01*
X75123334Y-61173502D01*
X75169827Y-61227158D01*
X75179931Y-61297432D01*
X75150437Y-61362012D01*
X75106461Y-61394607D01*
X75024281Y-61431195D01*
X75024274Y-61431199D01*
X75018248Y-61433882D01*
X75012907Y-61437762D01*
X75012906Y-61437763D01*
X74971821Y-61467613D01*
X74863747Y-61546134D01*
X74859326Y-61551044D01*
X74859325Y-61551045D01*
X74742509Y-61680783D01*
X74735960Y-61688056D01*
X74721073Y-61713841D01*
X74654685Y-61828829D01*
X74640473Y-61853444D01*
X74581458Y-62035072D01*
X74580768Y-62041633D01*
X74580768Y-62041635D01*
X74574849Y-62097956D01*
X74561496Y-62225000D01*
X74562186Y-62231565D01*
X74578262Y-62384516D01*
X74581458Y-62414928D01*
X74640473Y-62596556D01*
X74735960Y-62761944D01*
X74740378Y-62766851D01*
X74740379Y-62766852D01*
X74852945Y-62891869D01*
X74863747Y-62903866D01*
X75018248Y-63016118D01*
X75024276Y-63018802D01*
X75024278Y-63018803D01*
X75186681Y-63091109D01*
X75192712Y-63093794D01*
X75286113Y-63113647D01*
X75373056Y-63132128D01*
X75373061Y-63132128D01*
X75379513Y-63133500D01*
X75555500Y-63133500D01*
X75623621Y-63153502D01*
X75670114Y-63207158D01*
X75681500Y-63259500D01*
X75681500Y-66710339D01*
X75661498Y-66778460D01*
X75607842Y-66824953D01*
X75537568Y-66835057D01*
X75472988Y-66805563D01*
X75466405Y-66799434D01*
X75114630Y-66447659D01*
X75080604Y-66385347D01*
X75083892Y-66319628D01*
X75091502Y-66296206D01*
X75093542Y-66289928D01*
X75094300Y-66282722D01*
X75112814Y-66106565D01*
X75113504Y-66100000D01*
X75111498Y-66080918D01*
X75094232Y-65916635D01*
X75094232Y-65916633D01*
X75093542Y-65910072D01*
X75034527Y-65728444D01*
X75013684Y-65692342D01*
X74942341Y-65568774D01*
X74939040Y-65563056D01*
X74921462Y-65543533D01*
X74815675Y-65426045D01*
X74815674Y-65426044D01*
X74811253Y-65421134D01*
X74656752Y-65308882D01*
X74650724Y-65306198D01*
X74650722Y-65306197D01*
X74527773Y-65251457D01*
X74473677Y-65205477D01*
X74453028Y-65137550D01*
X74453231Y-65129097D01*
X74453266Y-65128502D01*
X74460362Y-65005417D01*
X74462640Y-64965917D01*
X74462640Y-64965914D01*
X74462963Y-64960310D01*
X74435975Y-64737285D01*
X74369918Y-64522565D01*
X74365017Y-64513068D01*
X74269454Y-64327919D01*
X74269454Y-64327918D01*
X74266882Y-64322936D01*
X74130123Y-64144708D01*
X73963964Y-63993515D01*
X73959217Y-63990537D01*
X73959214Y-63990535D01*
X73778405Y-63877115D01*
X73773656Y-63874136D01*
X73565217Y-63790344D01*
X73345233Y-63744787D01*
X73340622Y-63744521D01*
X73340621Y-63744521D01*
X73290048Y-63741605D01*
X73290044Y-63741605D01*
X73288225Y-63741500D01*
X72844500Y-63741500D01*
X72776379Y-63721498D01*
X72729886Y-63667842D01*
X72718500Y-63615500D01*
X72718500Y-63076866D01*
X72711745Y-63014684D01*
X72660615Y-62878295D01*
X72573261Y-62761739D01*
X72456705Y-62674385D01*
X72320316Y-62623255D01*
X72258134Y-62616500D01*
X71061866Y-62616500D01*
X70999684Y-62623255D01*
X70863295Y-62674385D01*
X70746739Y-62761739D01*
X70659385Y-62878295D01*
X70608255Y-63014684D01*
X70601500Y-63076866D01*
X70601500Y-63615500D01*
X70581498Y-63683621D01*
X70527842Y-63730114D01*
X70475500Y-63741500D01*
X69943001Y-63741500D01*
X69940214Y-63741749D01*
X69940208Y-63741749D01*
X69870071Y-63748009D01*
X69776238Y-63756383D01*
X69770824Y-63757864D01*
X69770819Y-63757865D01*
X69661986Y-63787639D01*
X69559549Y-63815663D01*
X69554491Y-63818075D01*
X69554487Y-63818077D01*
X69458165Y-63864021D01*
X69356782Y-63912378D01*
X69174346Y-64043471D01*
X69159600Y-64058688D01*
X69021967Y-64200714D01*
X69018008Y-64204799D01*
X68892710Y-64391262D01*
X68802412Y-64596967D01*
X68801103Y-64602418D01*
X68801102Y-64602422D01*
X68753500Y-64800699D01*
X68749968Y-64815411D01*
X68745233Y-64897530D01*
X68738289Y-65017982D01*
X68737037Y-65039690D01*
X68764025Y-65262715D01*
X68830082Y-65477435D01*
X68832652Y-65482415D01*
X68832654Y-65482419D01*
X68924906Y-65661154D01*
X68933118Y-65677064D01*
X69069877Y-65855292D01*
X69236036Y-66006485D01*
X69240783Y-66009463D01*
X69240786Y-66009465D01*
X69400600Y-66109715D01*
X69426344Y-66125864D01*
X69634783Y-66209656D01*
X69854767Y-66255213D01*
X69859378Y-66255479D01*
X69859379Y-66255479D01*
X69909952Y-66258395D01*
X69909956Y-66258395D01*
X69911775Y-66258500D01*
X70475500Y-66258500D01*
X70543621Y-66278502D01*
X70590114Y-66332158D01*
X70601500Y-66384500D01*
X70601500Y-67773134D01*
X70608255Y-67835316D01*
X70659385Y-67971705D01*
X70746739Y-68088261D01*
X70863295Y-68175615D01*
X70999684Y-68226745D01*
X71061866Y-68233500D01*
X72258134Y-68233500D01*
X72320316Y-68226745D01*
X72456705Y-68175615D01*
X72573261Y-68088261D01*
X72660615Y-67971705D01*
X72711745Y-67835316D01*
X72718500Y-67773134D01*
X72718500Y-66384500D01*
X72738502Y-66316379D01*
X72792158Y-66269886D01*
X72844500Y-66258500D01*
X73204702Y-66258500D01*
X73272823Y-66278502D01*
X73319316Y-66332158D01*
X73324535Y-66345563D01*
X73365473Y-66471556D01*
X73398831Y-66529334D01*
X73452377Y-66622077D01*
X73460960Y-66636944D01*
X73481178Y-66659399D01*
X73505688Y-66705694D01*
X73506896Y-66705238D01*
X73509318Y-66711647D01*
X73509829Y-66713516D01*
X73509906Y-66713661D01*
X73510230Y-66714979D01*
X73514685Y-66731262D01*
X73515450Y-66733798D01*
X73516757Y-66741284D01*
X73542284Y-66799434D01*
X73542442Y-66799795D01*
X73544933Y-66805899D01*
X73567513Y-66865656D01*
X73571817Y-66871919D01*
X73573054Y-66874285D01*
X73581299Y-66889097D01*
X73582632Y-66891351D01*
X73585685Y-66898305D01*
X73615688Y-66937404D01*
X73624579Y-66948991D01*
X73628459Y-66954332D01*
X73660339Y-67000720D01*
X73660344Y-67000725D01*
X73664643Y-67006981D01*
X73670313Y-67012032D01*
X73670314Y-67012034D01*
X73711170Y-67048435D01*
X73716446Y-67053416D01*
X75268550Y-68605520D01*
X75274404Y-68611785D01*
X75312439Y-68655385D01*
X75330224Y-68667884D01*
X75364697Y-68692112D01*
X75369993Y-68696045D01*
X75420282Y-68735477D01*
X75427204Y-68738602D01*
X75429452Y-68739964D01*
X75444185Y-68748368D01*
X75446524Y-68749622D01*
X75452739Y-68753990D01*
X75459815Y-68756749D01*
X75459819Y-68756751D01*
X75512274Y-68777202D01*
X75518352Y-68779757D01*
X75576574Y-68806045D01*
X75584045Y-68807429D01*
X75586599Y-68808230D01*
X75602878Y-68812867D01*
X75605433Y-68813523D01*
X75612509Y-68816282D01*
X75640962Y-68820028D01*
X75675851Y-68824621D01*
X75682367Y-68825653D01*
X75724706Y-68833500D01*
X75745187Y-68837296D01*
X75752767Y-68836859D01*
X75752768Y-68836859D01*
X75807398Y-68833709D01*
X75814651Y-68833500D01*
X78679340Y-68833500D01*
X78747461Y-68853502D01*
X78768435Y-68870405D01*
X79049435Y-69151405D01*
X79083461Y-69213717D01*
X79078396Y-69284532D01*
X79035849Y-69341368D01*
X78969329Y-69366179D01*
X78960340Y-69366500D01*
X70823478Y-69366500D01*
X70755357Y-69346498D01*
X70734383Y-69329595D01*
X66039525Y-64634737D01*
X66028657Y-64622346D01*
X66018533Y-64609152D01*
X66015123Y-64604708D01*
X65954826Y-64549842D01*
X65950531Y-64545743D01*
X65934590Y-64529802D01*
X65919974Y-64517581D01*
X65914577Y-64513068D01*
X65910602Y-64509600D01*
X65853112Y-64457288D01*
X65853103Y-64457281D01*
X65848964Y-64453515D01*
X65833773Y-64443986D01*
X65819907Y-64433911D01*
X65810451Y-64426004D01*
X65810441Y-64425997D01*
X65806146Y-64422406D01*
X65733752Y-64381113D01*
X65729232Y-64378408D01*
X65716478Y-64370407D01*
X65695487Y-64357240D01*
X65663404Y-64337114D01*
X65663401Y-64337112D01*
X65658656Y-64334136D01*
X65653451Y-64332043D01*
X65653448Y-64332042D01*
X65642021Y-64327448D01*
X65626589Y-64319988D01*
X65615881Y-64313880D01*
X65615872Y-64313876D01*
X65611007Y-64311101D01*
X65605730Y-64309232D01*
X65605725Y-64309230D01*
X65532458Y-64283285D01*
X65527522Y-64281420D01*
X65455416Y-64252434D01*
X65450217Y-64250344D01*
X65444730Y-64249208D01*
X65444728Y-64249207D01*
X65432651Y-64246706D01*
X65416156Y-64242101D01*
X65399241Y-64236111D01*
X65316990Y-64222641D01*
X65311820Y-64221683D01*
X65256396Y-64210205D01*
X65234758Y-64205724D01*
X65234757Y-64205724D01*
X65230233Y-64204787D01*
X65225621Y-64204521D01*
X65225620Y-64204521D01*
X65202452Y-64203185D01*
X65189347Y-64201738D01*
X65183090Y-64200714D01*
X65183086Y-64200714D01*
X65177543Y-64199806D01*
X65171930Y-64199894D01*
X65171928Y-64199894D01*
X65070736Y-64201484D01*
X65068757Y-64201500D01*
X64127308Y-64201500D01*
X64059187Y-64181498D01*
X64035008Y-64161271D01*
X63881046Y-63995588D01*
X63881043Y-63995585D01*
X63878125Y-63992445D01*
X63874810Y-63989731D01*
X63874806Y-63989728D01*
X63692222Y-63840285D01*
X63666205Y-63818990D01*
X63483390Y-63706961D01*
X63436366Y-63678145D01*
X63436365Y-63678145D01*
X63432704Y-63675901D01*
X63423428Y-63671829D01*
X63185873Y-63567549D01*
X63185869Y-63567548D01*
X63181945Y-63565825D01*
X62918566Y-63490800D01*
X62914324Y-63490196D01*
X62914318Y-63490195D01*
X62713834Y-63461662D01*
X62647443Y-63452213D01*
X62503589Y-63451460D01*
X62377877Y-63450802D01*
X62377871Y-63450802D01*
X62373591Y-63450780D01*
X62369347Y-63451339D01*
X62369343Y-63451339D01*
X62286968Y-63462184D01*
X62102078Y-63486525D01*
X62097938Y-63487658D01*
X62097936Y-63487658D01*
X62025008Y-63507609D01*
X61837928Y-63558788D01*
X61833980Y-63560472D01*
X61589982Y-63664546D01*
X61589978Y-63664548D01*
X61586030Y-63666232D01*
X61517758Y-63707092D01*
X61354725Y-63804664D01*
X61354721Y-63804667D01*
X61351043Y-63806868D01*
X61137318Y-63978094D01*
X61064618Y-64054704D01*
X60954543Y-64170699D01*
X60948808Y-64176742D01*
X60789002Y-64399136D01*
X60660857Y-64641161D01*
X60659385Y-64645184D01*
X60659383Y-64645188D01*
X60576294Y-64872238D01*
X60566743Y-64898337D01*
X60508404Y-65165907D01*
X60486917Y-65438918D01*
X60502682Y-65712320D01*
X60503507Y-65716525D01*
X60503508Y-65716533D01*
X60528323Y-65843015D01*
X60555405Y-65981053D01*
X60556792Y-65985103D01*
X60556793Y-65985108D01*
X60634826Y-66213023D01*
X60644112Y-66240144D01*
X60691262Y-66333891D01*
X60754710Y-66460044D01*
X60767160Y-66484799D01*
X60769586Y-66488328D01*
X60769589Y-66488334D01*
X60889673Y-66663056D01*
X60922274Y-66710490D01*
X60925161Y-66713663D01*
X60925162Y-66713664D01*
X61095078Y-66900400D01*
X61106582Y-66913043D01*
X61109877Y-66915798D01*
X61109878Y-66915799D01*
X61152709Y-66951611D01*
X61316675Y-67088707D01*
X61320316Y-67090991D01*
X61545024Y-67231951D01*
X61545028Y-67231953D01*
X61548664Y-67234234D01*
X61673279Y-67290500D01*
X61794345Y-67345164D01*
X61794349Y-67345166D01*
X61798257Y-67346930D01*
X61802377Y-67348150D01*
X61802376Y-67348150D01*
X62056723Y-67423491D01*
X62056727Y-67423492D01*
X62060836Y-67424709D01*
X62065070Y-67425357D01*
X62065075Y-67425358D01*
X62327298Y-67465483D01*
X62327300Y-67465483D01*
X62331540Y-67466132D01*
X62470912Y-67468322D01*
X62601071Y-67470367D01*
X62601077Y-67470367D01*
X62605362Y-67470434D01*
X62877235Y-67437534D01*
X63142127Y-67368041D01*
X63146087Y-67366401D01*
X63146092Y-67366399D01*
X63329327Y-67290500D01*
X63395136Y-67263241D01*
X63597793Y-67144818D01*
X63627879Y-67127237D01*
X63627880Y-67127236D01*
X63631582Y-67125073D01*
X63847089Y-66956094D01*
X63851434Y-66951611D01*
X64037669Y-66759431D01*
X64038528Y-66760263D01*
X64093381Y-66724050D01*
X64130364Y-66718500D01*
X64511523Y-66718500D01*
X64579644Y-66738502D01*
X64600618Y-66755405D01*
X68254595Y-70409382D01*
X68288621Y-70471694D01*
X68291500Y-70498477D01*
X68291500Y-74532297D01*
X68271498Y-74600418D01*
X68217842Y-74646911D01*
X68147568Y-74657015D01*
X68082988Y-74627521D01*
X68059827Y-74600921D01*
X67918665Y-74383550D01*
X67916863Y-74380775D01*
X67679365Y-74087489D01*
X67412511Y-73820635D01*
X67119225Y-73583137D01*
X66802720Y-73377597D01*
X66799786Y-73376102D01*
X66799779Y-73376098D01*
X66469405Y-73207764D01*
X66466465Y-73206266D01*
X66211776Y-73108500D01*
X66117233Y-73072208D01*
X66117231Y-73072207D01*
X66114143Y-73071022D01*
X65749613Y-72973347D01*
X65536930Y-72939661D01*
X65380119Y-72914824D01*
X65380111Y-72914823D01*
X65376871Y-72914310D01*
X65094280Y-72899500D01*
X64905720Y-72899500D01*
X64623129Y-72914310D01*
X64619889Y-72914823D01*
X64619881Y-72914824D01*
X64463070Y-72939661D01*
X64250387Y-72973347D01*
X63885857Y-73071022D01*
X63882769Y-73072207D01*
X63882767Y-73072208D01*
X63788224Y-73108500D01*
X63533535Y-73206266D01*
X63530595Y-73207764D01*
X63200221Y-73376098D01*
X63200214Y-73376102D01*
X63197280Y-73377597D01*
X62880775Y-73583137D01*
X62587489Y-73820635D01*
X62320635Y-74087489D01*
X62083137Y-74380775D01*
X62081335Y-74383550D01*
X61889829Y-74678444D01*
X61877597Y-74697279D01*
X61876102Y-74700213D01*
X61876098Y-74700220D01*
X61794650Y-74860072D01*
X61706266Y-75033535D01*
X61571022Y-75385857D01*
X61473347Y-75750387D01*
X61442656Y-75944162D01*
X61426231Y-76047865D01*
X61414310Y-76123129D01*
X61394559Y-76500000D01*
X61414310Y-76876871D01*
X61473347Y-77249613D01*
X61571022Y-77614143D01*
X61706266Y-77966465D01*
X61707764Y-77969405D01*
X61793231Y-78137142D01*
X61877597Y-78302720D01*
X62083137Y-78619225D01*
X62320635Y-78912511D01*
X62587489Y-79179365D01*
X62696428Y-79267582D01*
X62736778Y-79325994D01*
X62739144Y-79396951D01*
X62702771Y-79457923D01*
X62639209Y-79489551D01*
X62617132Y-79491500D01*
X55634500Y-79491500D01*
X55566379Y-79471498D01*
X55519886Y-79417842D01*
X55508500Y-79365500D01*
X55508500Y-72084669D01*
X60492001Y-72084669D01*
X60492371Y-72091490D01*
X60497895Y-72142352D01*
X60501521Y-72157604D01*
X60546676Y-72278054D01*
X60555214Y-72293649D01*
X60631715Y-72395724D01*
X60644276Y-72408285D01*
X60746351Y-72484786D01*
X60761946Y-72493324D01*
X60882394Y-72538478D01*
X60897649Y-72542105D01*
X60948514Y-72547631D01*
X60955328Y-72548000D01*
X62227885Y-72548000D01*
X62243124Y-72543525D01*
X62244329Y-72542135D01*
X62246000Y-72534452D01*
X62246000Y-72529884D01*
X62754000Y-72529884D01*
X62758475Y-72545123D01*
X62759865Y-72546328D01*
X62767548Y-72547999D01*
X64044669Y-72547999D01*
X64051490Y-72547629D01*
X64102352Y-72542105D01*
X64117604Y-72538479D01*
X64238054Y-72493324D01*
X64253649Y-72484786D01*
X64355724Y-72408285D01*
X64368285Y-72395724D01*
X64444786Y-72293649D01*
X64453324Y-72278054D01*
X64498478Y-72157606D01*
X64502105Y-72142351D01*
X64507631Y-72091486D01*
X64508000Y-72084672D01*
X64508000Y-70812115D01*
X64503525Y-70796876D01*
X64502135Y-70795671D01*
X64494452Y-70794000D01*
X62772115Y-70794000D01*
X62756876Y-70798475D01*
X62755671Y-70799865D01*
X62754000Y-70807548D01*
X62754000Y-72529884D01*
X62246000Y-72529884D01*
X62246000Y-70812115D01*
X62241525Y-70796876D01*
X62240135Y-70795671D01*
X62232452Y-70794000D01*
X60510116Y-70794000D01*
X60494877Y-70798475D01*
X60493672Y-70799865D01*
X60492001Y-70807548D01*
X60492001Y-72084669D01*
X55508500Y-72084669D01*
X55508500Y-70267885D01*
X60492000Y-70267885D01*
X60496475Y-70283124D01*
X60497865Y-70284329D01*
X60505548Y-70286000D01*
X62227885Y-70286000D01*
X62243124Y-70281525D01*
X62244329Y-70280135D01*
X62246000Y-70272452D01*
X62246000Y-70267885D01*
X62754000Y-70267885D01*
X62758475Y-70283124D01*
X62759865Y-70284329D01*
X62767548Y-70286000D01*
X64489884Y-70286000D01*
X64505123Y-70281525D01*
X64506328Y-70280135D01*
X64507999Y-70272452D01*
X64507999Y-68995331D01*
X64507629Y-68988510D01*
X64502105Y-68937648D01*
X64498479Y-68922396D01*
X64453324Y-68801946D01*
X64444786Y-68786351D01*
X64368285Y-68684276D01*
X64355724Y-68671715D01*
X64253649Y-68595214D01*
X64238054Y-68586676D01*
X64117606Y-68541522D01*
X64102351Y-68537895D01*
X64051486Y-68532369D01*
X64044672Y-68532000D01*
X62772115Y-68532000D01*
X62756876Y-68536475D01*
X62755671Y-68537865D01*
X62754000Y-68545548D01*
X62754000Y-70267885D01*
X62246000Y-70267885D01*
X62246000Y-68550116D01*
X62241525Y-68534877D01*
X62240135Y-68533672D01*
X62232452Y-68532001D01*
X60955331Y-68532001D01*
X60948510Y-68532371D01*
X60897648Y-68537895D01*
X60882396Y-68541521D01*
X60761946Y-68586676D01*
X60746351Y-68595214D01*
X60644276Y-68671715D01*
X60631715Y-68684276D01*
X60555214Y-68786351D01*
X60546676Y-68801946D01*
X60501522Y-68922394D01*
X60497895Y-68937649D01*
X60492369Y-68988514D01*
X60492000Y-68995328D01*
X60492000Y-70267885D01*
X55508500Y-70267885D01*
X55508500Y-45634500D01*
X55528502Y-45566379D01*
X55582158Y-45519886D01*
X55634500Y-45508500D01*
X62617132Y-45508500D01*
X62685253Y-45528502D01*
G37*
G04 #@! TD.AperFunction*
G04 #@! TA.AperFunction,Conductor*
G36*
X90642747Y-67938502D02*
G01*
X90689240Y-67992158D01*
X90699344Y-68062432D01*
X90696045Y-68078164D01*
X90660989Y-68204570D01*
X90637251Y-68426695D01*
X90637548Y-68431848D01*
X90637548Y-68431851D01*
X90647737Y-68608565D01*
X90650110Y-68649715D01*
X90651247Y-68654761D01*
X90651248Y-68654767D01*
X90670449Y-68739964D01*
X90699222Y-68867639D01*
X90748302Y-68988510D01*
X90772303Y-69047616D01*
X90783266Y-69074616D01*
X90822529Y-69138688D01*
X90897291Y-69260688D01*
X90899987Y-69265088D01*
X91046250Y-69433938D01*
X91050230Y-69437242D01*
X91054981Y-69441187D01*
X91094616Y-69500090D01*
X91096113Y-69571071D01*
X91058997Y-69631593D01*
X91018725Y-69656112D01*
X90964410Y-69676474D01*
X90903295Y-69699385D01*
X90786739Y-69786739D01*
X90699385Y-69903295D01*
X90648255Y-70039684D01*
X90641500Y-70101866D01*
X90641500Y-70165500D01*
X90621498Y-70233621D01*
X90567842Y-70280114D01*
X90515500Y-70291500D01*
X88578912Y-70291500D01*
X88570342Y-70291208D01*
X88520224Y-70287791D01*
X88520220Y-70287791D01*
X88512648Y-70287275D01*
X88505171Y-70288580D01*
X88505170Y-70288580D01*
X88478692Y-70293201D01*
X88449697Y-70298262D01*
X88443179Y-70299223D01*
X88379758Y-70306898D01*
X88372657Y-70309581D01*
X88370048Y-70310222D01*
X88353738Y-70314685D01*
X88351202Y-70315450D01*
X88343716Y-70316757D01*
X88333659Y-70321172D01*
X88285205Y-70342442D01*
X88279101Y-70344933D01*
X88219344Y-70367513D01*
X88213081Y-70371817D01*
X88210715Y-70373054D01*
X88195903Y-70381299D01*
X88193649Y-70382632D01*
X88186695Y-70385685D01*
X88135998Y-70424587D01*
X88130668Y-70428459D01*
X88084280Y-70460339D01*
X88084275Y-70460344D01*
X88078019Y-70464643D01*
X88072968Y-70470313D01*
X88072966Y-70470314D01*
X88036565Y-70511170D01*
X88031584Y-70516446D01*
X86893435Y-71654595D01*
X86831123Y-71688621D01*
X86804340Y-71691500D01*
X85990479Y-71691500D01*
X85922358Y-71671498D01*
X85907966Y-71660724D01*
X85902135Y-71655671D01*
X85894452Y-71654000D01*
X83510116Y-71654000D01*
X83481594Y-71662375D01*
X83444217Y-71686396D01*
X83408718Y-71691500D01*
X82934500Y-71691500D01*
X82866379Y-71671498D01*
X82819886Y-71617842D01*
X82808500Y-71565500D01*
X82808500Y-71228927D01*
X82808792Y-71220358D01*
X82812210Y-71170225D01*
X82812210Y-71170221D01*
X82812726Y-71162648D01*
X82801736Y-71099681D01*
X82800775Y-71093165D01*
X82793102Y-71029758D01*
X82790419Y-71022657D01*
X82789778Y-71020048D01*
X82785309Y-71003715D01*
X82784548Y-71001195D01*
X82783243Y-70993717D01*
X82766658Y-70955934D01*
X82757559Y-70935204D01*
X82755068Y-70929099D01*
X82735175Y-70876456D01*
X82735173Y-70876452D01*
X82732487Y-70869344D01*
X82728184Y-70863083D01*
X82726947Y-70860717D01*
X82718720Y-70845937D01*
X82717369Y-70843652D01*
X82714315Y-70836695D01*
X82709695Y-70830675D01*
X82709692Y-70830669D01*
X82683760Y-70796876D01*
X82675413Y-70785998D01*
X82671541Y-70780668D01*
X82639661Y-70734280D01*
X82639656Y-70734275D01*
X82635357Y-70728019D01*
X82627747Y-70721238D01*
X82607923Y-70703576D01*
X82570367Y-70643326D01*
X82571348Y-70572336D01*
X82610552Y-70513145D01*
X82675534Y-70484547D01*
X82691742Y-70483500D01*
X83483048Y-70483500D01*
X83551169Y-70503502D01*
X83597662Y-70557158D01*
X83607766Y-70627432D01*
X83590308Y-70675615D01*
X83562186Y-70721238D01*
X83556037Y-70734424D01*
X83504862Y-70888710D01*
X83501995Y-70902086D01*
X83492328Y-70996438D01*
X83492000Y-71002855D01*
X83492000Y-71127885D01*
X83496475Y-71143124D01*
X83497865Y-71144329D01*
X83505548Y-71146000D01*
X85889884Y-71146000D01*
X85905123Y-71141525D01*
X85906328Y-71140135D01*
X85907999Y-71132452D01*
X85907999Y-71002905D01*
X85907662Y-70996386D01*
X85897743Y-70900794D01*
X85894851Y-70887400D01*
X85843412Y-70733216D01*
X85837239Y-70720038D01*
X85751937Y-70582193D01*
X85742901Y-70570792D01*
X85661538Y-70489570D01*
X85627459Y-70427287D01*
X85632462Y-70356467D01*
X85661383Y-70311380D01*
X85744130Y-70228488D01*
X85744134Y-70228483D01*
X85749305Y-70223303D01*
X85756661Y-70211369D01*
X85838275Y-70078968D01*
X85838276Y-70078966D01*
X85842115Y-70072738D01*
X85897797Y-69904861D01*
X85908500Y-69800400D01*
X85908500Y-69139594D01*
X85928502Y-69071473D01*
X85945405Y-69050499D01*
X87040499Y-67955405D01*
X87102811Y-67921379D01*
X87129594Y-67918500D01*
X90574626Y-67918500D01*
X90642747Y-67938502D01*
G37*
G04 #@! TD.AperFunction*
G04 #@! TA.AperFunction,Conductor*
G36*
X120413049Y-64618752D02*
G01*
X120447089Y-64642993D01*
X122654595Y-66850499D01*
X122688621Y-66912811D01*
X122691500Y-66939594D01*
X122691500Y-67600400D01*
X122691837Y-67603646D01*
X122691837Y-67603650D01*
X122700129Y-67683564D01*
X122702474Y-67706166D01*
X122704655Y-67712702D01*
X122704655Y-67712704D01*
X122742328Y-67825624D01*
X122744912Y-67896574D01*
X122708728Y-67957658D01*
X122645264Y-67989482D01*
X122622804Y-67991500D01*
X120385435Y-67991500D01*
X120317314Y-67971498D01*
X120270821Y-67917842D01*
X120260717Y-67847568D01*
X120263729Y-67832887D01*
X120268261Y-67815974D01*
X120268261Y-67815972D01*
X120269686Y-67810655D01*
X120288116Y-67600000D01*
X120269686Y-67389345D01*
X120268262Y-67384030D01*
X120216379Y-67190400D01*
X120216378Y-67190398D01*
X120214956Y-67185090D01*
X120212419Y-67179649D01*
X120127912Y-66998423D01*
X120127910Y-66998420D01*
X120125589Y-66993442D01*
X120004301Y-66820224D01*
X119854776Y-66670699D01*
X119681558Y-66549411D01*
X119676580Y-66547090D01*
X119676577Y-66547088D01*
X119498812Y-66464195D01*
X119445527Y-66417278D01*
X119426066Y-66349000D01*
X119446608Y-66281040D01*
X119498812Y-66235805D01*
X119676577Y-66152912D01*
X119676580Y-66152910D01*
X119681558Y-66150589D01*
X119854776Y-66029301D01*
X120004301Y-65879776D01*
X120125589Y-65706558D01*
X120130023Y-65697051D01*
X120212633Y-65519892D01*
X120212634Y-65519891D01*
X120214956Y-65514910D01*
X120222778Y-65485720D01*
X120268262Y-65315970D01*
X120268262Y-65315968D01*
X120269686Y-65310655D01*
X120288116Y-65100000D01*
X120269686Y-64889345D01*
X120268174Y-64883700D01*
X120238109Y-64771498D01*
X120236287Y-64764698D01*
X120237977Y-64693723D01*
X120277771Y-64634927D01*
X120343035Y-64606979D01*
X120413049Y-64618752D01*
G37*
G04 #@! TD.AperFunction*
G04 #@! TA.AperFunction,Conductor*
G36*
X86817117Y-54803502D02*
G01*
X86838091Y-54820405D01*
X87050845Y-55033159D01*
X87084871Y-55095471D01*
X87087750Y-55122254D01*
X87087750Y-56675551D01*
X87096125Y-56704073D01*
X87120146Y-56741450D01*
X87125250Y-56776949D01*
X87125250Y-57694551D01*
X87129725Y-57709790D01*
X87131115Y-57710995D01*
X87138798Y-57712666D01*
X87948634Y-57712666D01*
X87963873Y-57708191D01*
X87965078Y-57706801D01*
X87966749Y-57699118D01*
X87966749Y-57444571D01*
X87966412Y-57438052D01*
X87956493Y-57342460D01*
X87953601Y-57329066D01*
X87902162Y-57174882D01*
X87895989Y-57161704D01*
X87810687Y-57023859D01*
X87801651Y-57012458D01*
X87686921Y-56897927D01*
X87675510Y-56888915D01*
X87591357Y-56837043D01*
X87543864Y-56784271D01*
X87532440Y-56714200D01*
X87560714Y-56649076D01*
X87591170Y-56622639D01*
X87651557Y-56585270D01*
X87662958Y-56576234D01*
X87777489Y-56461504D01*
X87786501Y-56450093D01*
X87871566Y-56312090D01*
X87877714Y-56298907D01*
X87922737Y-56163167D01*
X87963168Y-56104807D01*
X88028732Y-56077570D01*
X88098614Y-56090103D01*
X88131425Y-56113739D01*
X93869595Y-61851909D01*
X93903621Y-61914221D01*
X93906500Y-61941004D01*
X93906500Y-62101692D01*
X93886498Y-62169813D01*
X93838683Y-62213453D01*
X93813607Y-62226507D01*
X93809474Y-62229610D01*
X93809471Y-62229612D01*
X93639100Y-62357530D01*
X93634965Y-62360635D01*
X93631393Y-62364373D01*
X93517075Y-62484000D01*
X93480629Y-62522138D01*
X93477715Y-62526410D01*
X93477714Y-62526411D01*
X93372898Y-62680066D01*
X93317987Y-62725069D01*
X93247462Y-62733240D01*
X93183715Y-62701986D01*
X93163018Y-62677502D01*
X93082426Y-62552926D01*
X93076136Y-62544757D01*
X92932806Y-62387240D01*
X92925273Y-62380215D01*
X92758139Y-62248222D01*
X92749552Y-62242517D01*
X92563117Y-62139599D01*
X92553705Y-62135369D01*
X92352959Y-62064280D01*
X92342988Y-62061646D01*
X92271837Y-62048972D01*
X92258540Y-62050432D01*
X92254000Y-62064989D01*
X92254000Y-63508000D01*
X92233998Y-63576121D01*
X92180342Y-63622614D01*
X92128000Y-63634000D01*
X91872000Y-63634000D01*
X91803879Y-63613998D01*
X91757386Y-63560342D01*
X91746000Y-63508000D01*
X91746000Y-62063102D01*
X91742082Y-62049758D01*
X91727806Y-62047771D01*
X91689324Y-62053660D01*
X91679288Y-62056051D01*
X91476868Y-62122212D01*
X91467368Y-62126205D01*
X91289373Y-62218863D01*
X91219713Y-62232575D01*
X91153698Y-62206450D01*
X91142098Y-62196194D01*
X89521091Y-60575186D01*
X87898260Y-58952355D01*
X87864234Y-58890043D01*
X87869299Y-58819227D01*
X87880095Y-58797144D01*
X87896567Y-58770421D01*
X87902713Y-58757242D01*
X87953888Y-58602956D01*
X87956755Y-58589580D01*
X87966422Y-58495228D01*
X87966750Y-58488812D01*
X87966750Y-58238781D01*
X87962275Y-58223542D01*
X87960885Y-58222337D01*
X87953202Y-58220666D01*
X87143365Y-58220666D01*
X87128126Y-58225141D01*
X87126921Y-58226531D01*
X87125250Y-58234214D01*
X87125250Y-58490500D01*
X87105248Y-58558621D01*
X87051592Y-58605114D01*
X86999250Y-58616500D01*
X86743250Y-58616500D01*
X86675129Y-58596498D01*
X86628636Y-58542842D01*
X86617250Y-58490500D01*
X86617250Y-56799448D01*
X86608875Y-56770926D01*
X86584854Y-56733549D01*
X86579750Y-56698050D01*
X86579750Y-54909500D01*
X86599752Y-54841379D01*
X86653408Y-54794886D01*
X86705750Y-54783500D01*
X86748996Y-54783500D01*
X86817117Y-54803502D01*
G37*
G04 #@! TD.AperFunction*
G04 #@! TA.AperFunction,Conductor*
G36*
X66817012Y-54163371D02*
G01*
X66823592Y-54169496D01*
X67089548Y-54435453D01*
X67354596Y-54700501D01*
X67388621Y-54762813D01*
X67391500Y-54789594D01*
X67391500Y-56125400D01*
X67391837Y-56128646D01*
X67391837Y-56128650D01*
X67401660Y-56223317D01*
X67402474Y-56231166D01*
X67404655Y-56237702D01*
X67404655Y-56237704D01*
X67433254Y-56323424D01*
X67458450Y-56398946D01*
X67551522Y-56549348D01*
X67676697Y-56674305D01*
X67778989Y-56737359D01*
X67787649Y-56742697D01*
X67835142Y-56795470D01*
X67846564Y-56865541D01*
X67818290Y-56930665D01*
X67787836Y-56957100D01*
X67675652Y-57026522D01*
X67550695Y-57151697D01*
X67546855Y-57157927D01*
X67546854Y-57157928D01*
X67488126Y-57253203D01*
X67457885Y-57302262D01*
X67455581Y-57309209D01*
X67414222Y-57433904D01*
X67402203Y-57470139D01*
X67401503Y-57476975D01*
X67401502Y-57476978D01*
X67399410Y-57497402D01*
X67391500Y-57574600D01*
X67391500Y-59825400D01*
X67391837Y-59828650D01*
X67392005Y-59831892D01*
X67390904Y-59831949D01*
X67378839Y-59897343D01*
X67330257Y-59949114D01*
X67266390Y-59966500D01*
X66733613Y-59966500D01*
X66665492Y-59946498D01*
X66618999Y-59892842D01*
X66608958Y-59831864D01*
X66608008Y-59831815D01*
X66608172Y-59828598D01*
X66608500Y-59825400D01*
X66608500Y-57574600D01*
X66607990Y-57569684D01*
X66598238Y-57475692D01*
X66598237Y-57475688D01*
X66597526Y-57468834D01*
X66588475Y-57441703D01*
X66543868Y-57308002D01*
X66541550Y-57301054D01*
X66448478Y-57150652D01*
X66323303Y-57025695D01*
X66212351Y-56957303D01*
X66164858Y-56904530D01*
X66153436Y-56834459D01*
X66181710Y-56769335D01*
X66212165Y-56742899D01*
X66212492Y-56742697D01*
X66324348Y-56673478D01*
X66449305Y-56548303D01*
X66487136Y-56486930D01*
X66538275Y-56403968D01*
X66538276Y-56403966D01*
X66542115Y-56397738D01*
X66586118Y-56265073D01*
X66595632Y-56236389D01*
X66595632Y-56236387D01*
X66597797Y-56229861D01*
X66599591Y-56212357D01*
X66605305Y-56156585D01*
X66608500Y-56125400D01*
X66608500Y-54258595D01*
X66628502Y-54190474D01*
X66682158Y-54143981D01*
X66752432Y-54133877D01*
X66817012Y-54163371D01*
G37*
G04 #@! TD.AperFunction*
G04 #@! TA.AperFunction,Conductor*
G36*
X64280905Y-53533502D02*
G01*
X64327398Y-53587158D01*
X64337502Y-53657432D01*
X64332377Y-53679166D01*
X64302203Y-53770139D01*
X64301503Y-53776975D01*
X64301502Y-53776978D01*
X64301036Y-53781531D01*
X64291500Y-53874600D01*
X64291500Y-54660500D01*
X64271498Y-54728621D01*
X64217842Y-54775114D01*
X64165500Y-54786500D01*
X61725596Y-54786500D01*
X61657475Y-54766498D01*
X61617877Y-54725866D01*
X61600519Y-54697260D01*
X61551623Y-54616683D01*
X61464755Y-54516576D01*
X61404023Y-54446588D01*
X61404021Y-54446586D01*
X61400523Y-54442555D01*
X61396259Y-54439058D01*
X61396217Y-54438998D01*
X61392572Y-54435453D01*
X61393294Y-54434710D01*
X61356266Y-54380398D01*
X61354337Y-54309428D01*
X61391083Y-54248680D01*
X61431923Y-54223645D01*
X61523410Y-54189348D01*
X61546705Y-54180615D01*
X61663261Y-54093261D01*
X61750615Y-53976705D01*
X61801745Y-53840316D01*
X61808500Y-53778134D01*
X61808500Y-53639500D01*
X61828502Y-53571379D01*
X61882158Y-53524886D01*
X61934500Y-53513500D01*
X64212784Y-53513500D01*
X64280905Y-53533502D01*
G37*
G04 #@! TD.AperFunction*
M02*
