G04 #@! TF.GenerationSoftware,KiCad,Pcbnew,(6.0.8)*
G04 #@! TF.CreationDate,2022-10-30T12:57:40+01:00*
G04 #@! TF.ProjectId,HeaterPSU,48656174-6572-4505-9355-2e6b69636164,rev?*
G04 #@! TF.SameCoordinates,Original*
G04 #@! TF.FileFunction,Soldermask,Top*
G04 #@! TF.FilePolarity,Negative*
%FSLAX46Y46*%
G04 Gerber Fmt 4.6, Leading zero omitted, Abs format (unit mm)*
G04 Created by KiCad (PCBNEW (6.0.8)) date 2022-10-30 12:57:40*
%MOMM*%
%LPD*%
G01*
G04 APERTURE LIST*
G04 Aperture macros list*
%AMRoundRect*
0 Rectangle with rounded corners*
0 $1 Rounding radius*
0 $2 $3 $4 $5 $6 $7 $8 $9 X,Y pos of 4 corners*
0 Add a 4 corners polygon primitive as box body*
4,1,4,$2,$3,$4,$5,$6,$7,$8,$9,$2,$3,0*
0 Add four circle primitives for the rounded corners*
1,1,$1+$1,$2,$3*
1,1,$1+$1,$4,$5*
1,1,$1+$1,$6,$7*
1,1,$1+$1,$8,$9*
0 Add four rect primitives between the rounded corners*
20,1,$1+$1,$2,$3,$4,$5,0*
20,1,$1+$1,$4,$5,$6,$7,0*
20,1,$1+$1,$6,$7,$8,$9,0*
20,1,$1+$1,$8,$9,$2,$3,0*%
G04 Aperture macros list end*
%ADD10C,3.200000*%
%ADD11RoundRect,0.250000X-0.350000X-0.450000X0.350000X-0.450000X0.350000X0.450000X-0.350000X0.450000X0*%
%ADD12R,1.100000X4.600000*%
%ADD13R,10.800000X9.400000*%
%ADD14C,4.000000*%
%ADD15C,1.800000*%
%ADD16R,1.800000X2.500000*%
%ADD17R,1.700000X1.700000*%
%ADD18O,1.700000X1.700000*%
%ADD19RoundRect,0.250000X0.337500X0.475000X-0.337500X0.475000X-0.337500X-0.475000X0.337500X-0.475000X0*%
%ADD20RoundRect,0.137500X-0.662500X-0.137500X0.662500X-0.137500X0.662500X0.137500X-0.662500X0.137500X0*%
%ADD21RoundRect,0.250000X0.400000X1.075000X-0.400000X1.075000X-0.400000X-1.075000X0.400000X-1.075000X0*%
%ADD22RoundRect,0.250000X-0.450000X0.350000X-0.450000X-0.350000X0.450000X-0.350000X0.450000X0.350000X0*%
%ADD23C,3.000000*%
%ADD24C,1.400000*%
%ADD25RoundRect,0.250000X0.350000X0.450000X-0.350000X0.450000X-0.350000X-0.450000X0.350000X-0.450000X0*%
%ADD26R,1.200000X0.900000*%
%ADD27RoundRect,0.250000X0.450000X-0.350000X0.450000X0.350000X-0.450000X0.350000X-0.450000X-0.350000X0*%
%ADD28RoundRect,0.070000X0.300000X-0.650000X0.300000X0.650000X-0.300000X0.650000X-0.300000X-0.650000X0*%
%ADD29R,2.500000X2.500000*%
%ADD30O,2.500000X2.500000*%
%ADD31R,1.550000X1.550000*%
%ADD32C,1.550000*%
%ADD33R,3.000000X3.000000*%
%ADD34R,2.200000X1.700000*%
%ADD35O,2.200000X1.700000*%
G04 APERTURE END LIST*
D10*
X151500000Y-48500000D03*
X65000000Y-76500000D03*
D11*
X123800000Y-63900000D03*
X125800000Y-63900000D03*
D12*
X76740000Y-65425000D03*
D13*
X74200000Y-74575000D03*
D12*
X71660000Y-65425000D03*
D14*
X130650000Y-62450000D03*
X139450000Y-62450000D03*
D15*
X137550000Y-69450000D03*
X135050000Y-69450000D03*
X132550000Y-69450000D03*
D16*
X135392500Y-48207500D03*
X135392500Y-52207500D03*
D17*
X92000000Y-71000000D03*
D18*
X94540000Y-71000000D03*
X92000000Y-68460000D03*
X94540000Y-68460000D03*
X92000000Y-65920000D03*
X94540000Y-65920000D03*
X92000000Y-63380000D03*
X94540000Y-63380000D03*
D19*
X86871250Y-57966666D03*
X84796250Y-57966666D03*
D20*
X75483750Y-53080000D03*
X75483750Y-55620000D03*
X81983750Y-55620000D03*
X81983750Y-53080000D03*
D19*
X86871250Y-53100000D03*
X84796250Y-53100000D03*
D10*
X65000000Y-48500000D03*
X151500000Y-76500000D03*
D21*
X68550000Y-58700000D03*
X65450000Y-58700000D03*
D22*
X84700000Y-64500000D03*
X84700000Y-66500000D03*
D21*
X68550000Y-55000000D03*
X65450000Y-55000000D03*
D23*
X111025000Y-70600000D03*
X111025000Y-54600000D03*
D24*
X119075000Y-67600000D03*
X119075000Y-65100000D03*
X119075000Y-62600000D03*
X119075000Y-60100000D03*
X119075000Y-57600000D03*
X100775000Y-57600000D03*
X100775000Y-60100000D03*
X100775000Y-62600000D03*
X100775000Y-65100000D03*
X100775000Y-67600000D03*
D25*
X86833750Y-60400000D03*
X84833750Y-60400000D03*
D20*
X75483750Y-57830000D03*
X75483750Y-60370000D03*
X81983750Y-60370000D03*
X81983750Y-57830000D03*
D11*
X123800000Y-67100000D03*
X125800000Y-67100000D03*
D22*
X72000000Y-58100000D03*
X72000000Y-60100000D03*
D26*
X72000000Y-52600000D03*
X72000000Y-55900000D03*
X82200000Y-63850000D03*
X82200000Y-67150000D03*
D27*
X84700000Y-71400000D03*
X84700000Y-69400000D03*
D25*
X86833750Y-55533333D03*
X84833750Y-55533333D03*
D28*
X123850000Y-60750000D03*
X125750000Y-60750000D03*
X124800000Y-58650000D03*
D29*
X131487719Y-46850000D03*
D30*
X131487719Y-54450000D03*
X144187719Y-46850000D03*
X146727719Y-54450000D03*
D31*
X109397239Y-51450000D03*
D32*
X104397239Y-48950000D03*
X109397239Y-46450000D03*
D33*
X147950000Y-58991500D03*
D23*
X147950000Y-64071500D03*
X147950000Y-69151500D03*
D34*
X60200000Y-52880000D03*
D35*
X60200000Y-55420000D03*
D31*
X117597239Y-51450000D03*
D32*
X112597239Y-48950000D03*
X117597239Y-46450000D03*
D31*
X125797239Y-51450000D03*
D32*
X120797239Y-48950000D03*
X125797239Y-46450000D03*
D34*
X60200000Y-58530000D03*
D35*
X60200000Y-61070000D03*
D15*
X131300000Y-77000000D03*
X138800000Y-74800000D03*
D31*
X101197239Y-51450000D03*
D32*
X96197239Y-48950000D03*
X101197239Y-46450000D03*
D33*
X62500000Y-70540000D03*
D23*
X62500000Y-65460000D03*
M02*
