G04 #@! TF.GenerationSoftware,KiCad,Pcbnew,(6.0.10)*
G04 #@! TF.CreationDate,2023-01-22T11:55:07+01:00*
G04 #@! TF.ProjectId,HeaterPSU,48656174-6572-4505-9355-2e6b69636164,rev?*
G04 #@! TF.SameCoordinates,Original*
G04 #@! TF.FileFunction,Legend,Bot*
G04 #@! TF.FilePolarity,Positive*
%FSLAX46Y46*%
G04 Gerber Fmt 4.6, Leading zero omitted, Abs format (unit mm)*
G04 Created by KiCad (PCBNEW (6.0.10)) date 2023-01-22 11:55:07*
%MOMM*%
%LPD*%
G01*
G04 APERTURE LIST*
G04 Aperture macros list*
%AMRoundRect*
0 Rectangle with rounded corners*
0 $1 Rounding radius*
0 $2 $3 $4 $5 $6 $7 $8 $9 X,Y pos of 4 corners*
0 Add a 4 corners polygon primitive as box body*
4,1,4,$2,$3,$4,$5,$6,$7,$8,$9,$2,$3,0*
0 Add four circle primitives for the rounded corners*
1,1,$1+$1,$2,$3*
1,1,$1+$1,$4,$5*
1,1,$1+$1,$6,$7*
1,1,$1+$1,$8,$9*
0 Add four rect primitives between the rounded corners*
20,1,$1+$1,$2,$3,$4,$5,0*
20,1,$1+$1,$4,$5,$6,$7,0*
20,1,$1+$1,$6,$7,$8,$9,0*
20,1,$1+$1,$8,$9,$2,$3,0*%
G04 Aperture macros list end*
%ADD10C,0.150000*%
%ADD11C,0.300000*%
%ADD12C,0.100000*%
%ADD13C,0.120000*%
%ADD14RoundRect,0.250000X-0.475000X0.337500X-0.475000X-0.337500X0.475000X-0.337500X0.475000X0.337500X0*%
%ADD15RoundRect,0.250000X0.475000X-0.337500X0.475000X0.337500X-0.475000X0.337500X-0.475000X-0.337500X0*%
%ADD16C,3.200000*%
%ADD17C,4.000000*%
%ADD18C,1.800000*%
%ADD19R,1.700000X1.700000*%
%ADD20O,1.700000X1.700000*%
%ADD21C,1.400000*%
%ADD22C,3.000000*%
%ADD23R,1.100000X4.600000*%
%ADD24R,10.800000X9.400000*%
%ADD25RoundRect,0.250000X-1.000000X1.500000X-1.000000X-1.500000X1.000000X-1.500000X1.000000X1.500000X0*%
%ADD26R,1.200000X1.200000*%
%ADD27R,1.600000X1.500000*%
%ADD28RoundRect,0.237500X-0.237500X0.300000X-0.237500X-0.300000X0.237500X-0.300000X0.237500X0.300000X0*%
%ADD29RoundRect,0.250000X0.450000X-0.350000X0.450000X0.350000X-0.450000X0.350000X-0.450000X-0.350000X0*%
%ADD30RoundRect,0.250000X-0.450000X0.350000X-0.450000X-0.350000X0.450000X-0.350000X0.450000X0.350000X0*%
%ADD31RoundRect,0.237500X0.250000X0.237500X-0.250000X0.237500X-0.250000X-0.237500X0.250000X-0.237500X0*%
%ADD32RoundRect,0.250000X0.337500X0.475000X-0.337500X0.475000X-0.337500X-0.475000X0.337500X-0.475000X0*%
%ADD33R,1.560000X0.650000*%
%ADD34RoundRect,0.237500X0.237500X-0.250000X0.237500X0.250000X-0.237500X0.250000X-0.237500X-0.250000X0*%
%ADD35RoundRect,0.250000X0.350000X0.450000X-0.350000X0.450000X-0.350000X-0.450000X0.350000X-0.450000X0*%
%ADD36R,3.000000X3.000000*%
%ADD37R,5.400000X2.900000*%
%ADD38RoundRect,0.250000X-0.350000X-0.450000X0.350000X-0.450000X0.350000X0.450000X-0.350000X0.450000X0*%
%ADD39R,1.200000X0.600000*%
%ADD40R,4.000000X4.400000*%
%ADD41R,1.200000X0.900000*%
%ADD42RoundRect,0.249999X-0.450001X-1.425001X0.450001X-1.425001X0.450001X1.425001X-0.450001X1.425001X0*%
%ADD43R,2.200000X1.200000*%
%ADD44R,6.400000X5.800000*%
G04 APERTURE END LIST*
D10*
X56078571Y-71730952D02*
X56078571Y-70969047D01*
X55697619Y-71350000D02*
X56459523Y-71350000D01*
X55697619Y-69969047D02*
X55697619Y-70540476D01*
X55697619Y-70254761D02*
X56697619Y-70254761D01*
X56554761Y-70350000D01*
X56459523Y-70445238D01*
X56411904Y-70540476D01*
X55697619Y-69492857D02*
X55697619Y-69302380D01*
X55745238Y-69207142D01*
X55792857Y-69159523D01*
X55935714Y-69064285D01*
X56126190Y-69016666D01*
X56507142Y-69016666D01*
X56602380Y-69064285D01*
X56650000Y-69111904D01*
X56697619Y-69207142D01*
X56697619Y-69397619D01*
X56650000Y-69492857D01*
X56602380Y-69540476D01*
X56507142Y-69588095D01*
X56269047Y-69588095D01*
X56173809Y-69540476D01*
X56126190Y-69492857D01*
X56078571Y-69397619D01*
X56078571Y-69207142D01*
X56126190Y-69111904D01*
X56173809Y-69064285D01*
X56269047Y-69016666D01*
X56697619Y-68730952D02*
X55697619Y-68397619D01*
X56697619Y-68064285D01*
X56697619Y-65254761D02*
X56697619Y-65159523D01*
X56650000Y-65064285D01*
X56602380Y-65016666D01*
X56507142Y-64969047D01*
X56316666Y-64921428D01*
X56078571Y-64921428D01*
X55888095Y-64969047D01*
X55792857Y-65016666D01*
X55745238Y-65064285D01*
X55697619Y-65159523D01*
X55697619Y-65254761D01*
X55745238Y-65350000D01*
X55792857Y-65397619D01*
X55888095Y-65445238D01*
X56078571Y-65492857D01*
X56316666Y-65492857D01*
X56507142Y-65445238D01*
X56602380Y-65397619D01*
X56650000Y-65350000D01*
X56697619Y-65254761D01*
X154602380Y-64428571D02*
X153602380Y-64428571D01*
X154078571Y-64428571D02*
X154078571Y-65000000D01*
X154602380Y-65000000D02*
X153602380Y-65000000D01*
X154221428Y-65476190D02*
X154221428Y-66238095D01*
X154602380Y-69761904D02*
X153602380Y-69761904D01*
X154078571Y-69761904D02*
X154078571Y-70333333D01*
X154602380Y-70333333D02*
X153602380Y-70333333D01*
X154221428Y-70809523D02*
X154221428Y-71571428D01*
X154602380Y-71190476D02*
X153840476Y-71190476D01*
X140995238Y-45361904D02*
X140995238Y-45933333D01*
X141033333Y-46047619D01*
X141109523Y-46123809D01*
X141223809Y-46161904D01*
X141300000Y-46161904D01*
X140233333Y-46161904D02*
X140614285Y-46161904D01*
X140614285Y-45361904D01*
X139509523Y-46085714D02*
X139547619Y-46123809D01*
X139661904Y-46161904D01*
X139738095Y-46161904D01*
X139852380Y-46123809D01*
X139928571Y-46047619D01*
X139966666Y-45971428D01*
X140004761Y-45819047D01*
X140004761Y-45704761D01*
X139966666Y-45552380D01*
X139928571Y-45476190D01*
X139852380Y-45400000D01*
X139738095Y-45361904D01*
X139661904Y-45361904D01*
X139547619Y-45400000D01*
X139509523Y-45438095D01*
X138938095Y-45361904D02*
X138938095Y-45933333D01*
X138976190Y-46047619D01*
X139052380Y-46123809D01*
X139166666Y-46161904D01*
X139242857Y-46161904D01*
X138176190Y-46161904D02*
X138557142Y-46161904D01*
X138557142Y-45361904D01*
X137452380Y-46085714D02*
X137490476Y-46123809D01*
X137604761Y-46161904D01*
X137680952Y-46161904D01*
X137795238Y-46123809D01*
X137871428Y-46047619D01*
X137909523Y-45971428D01*
X137947619Y-45819047D01*
X137947619Y-45704761D01*
X137909523Y-45552380D01*
X137871428Y-45476190D01*
X137795238Y-45400000D01*
X137680952Y-45361904D01*
X137604761Y-45361904D01*
X137490476Y-45400000D01*
X137452380Y-45438095D01*
X136880952Y-45361904D02*
X136880952Y-45933333D01*
X136919047Y-46047619D01*
X136995238Y-46123809D01*
X137109523Y-46161904D01*
X137185714Y-46161904D01*
X136119047Y-46161904D02*
X136500000Y-46161904D01*
X136500000Y-45361904D01*
X135395238Y-46085714D02*
X135433333Y-46123809D01*
X135547619Y-46161904D01*
X135623809Y-46161904D01*
X135738095Y-46123809D01*
X135814285Y-46047619D01*
X135852380Y-45971428D01*
X135890476Y-45819047D01*
X135890476Y-45704761D01*
X135852380Y-45552380D01*
X135814285Y-45476190D01*
X135738095Y-45400000D01*
X135623809Y-45361904D01*
X135547619Y-45361904D01*
X135433333Y-45400000D01*
X135395238Y-45438095D01*
X134823809Y-45361904D02*
X134823809Y-45933333D01*
X134861904Y-46047619D01*
X134938095Y-46123809D01*
X135052380Y-46161904D01*
X135128571Y-46161904D01*
X134061904Y-46161904D02*
X134442857Y-46161904D01*
X134442857Y-45361904D01*
X133338095Y-46085714D02*
X133376190Y-46123809D01*
X133490476Y-46161904D01*
X133566666Y-46161904D01*
X133680952Y-46123809D01*
X133757142Y-46047619D01*
X133795238Y-45971428D01*
X133833333Y-45819047D01*
X133833333Y-45704761D01*
X133795238Y-45552380D01*
X133757142Y-45476190D01*
X133680952Y-45400000D01*
X133566666Y-45361904D01*
X133490476Y-45361904D01*
X133376190Y-45400000D01*
X133338095Y-45438095D01*
D11*
X143800000Y-54685714D02*
X143728571Y-54757142D01*
X143800000Y-54828571D01*
X143871428Y-54757142D01*
X143800000Y-54685714D01*
X143800000Y-54828571D01*
D10*
X148290476Y-75247380D02*
X148290476Y-74247380D01*
X148290476Y-74723571D02*
X147719047Y-74723571D01*
X147719047Y-75247380D02*
X147719047Y-74247380D01*
X146861904Y-75199761D02*
X146957142Y-75247380D01*
X147147619Y-75247380D01*
X147242857Y-75199761D01*
X147290476Y-75104523D01*
X147290476Y-74723571D01*
X147242857Y-74628333D01*
X147147619Y-74580714D01*
X146957142Y-74580714D01*
X146861904Y-74628333D01*
X146814285Y-74723571D01*
X146814285Y-74818809D01*
X147290476Y-74914047D01*
X145957142Y-75247380D02*
X145957142Y-74723571D01*
X146004761Y-74628333D01*
X146100000Y-74580714D01*
X146290476Y-74580714D01*
X146385714Y-74628333D01*
X145957142Y-75199761D02*
X146052380Y-75247380D01*
X146290476Y-75247380D01*
X146385714Y-75199761D01*
X146433333Y-75104523D01*
X146433333Y-75009285D01*
X146385714Y-74914047D01*
X146290476Y-74866428D01*
X146052380Y-74866428D01*
X145957142Y-74818809D01*
X145623809Y-74580714D02*
X145242857Y-74580714D01*
X145480952Y-74247380D02*
X145480952Y-75104523D01*
X145433333Y-75199761D01*
X145338095Y-75247380D01*
X145242857Y-75247380D01*
X144528571Y-75199761D02*
X144623809Y-75247380D01*
X144814285Y-75247380D01*
X144909523Y-75199761D01*
X144957142Y-75104523D01*
X144957142Y-74723571D01*
X144909523Y-74628333D01*
X144814285Y-74580714D01*
X144623809Y-74580714D01*
X144528571Y-74628333D01*
X144480952Y-74723571D01*
X144480952Y-74818809D01*
X144957142Y-74914047D01*
X144052380Y-75247380D02*
X144052380Y-74580714D01*
X144052380Y-74771190D02*
X144004761Y-74675952D01*
X143957142Y-74628333D01*
X143861904Y-74580714D01*
X143766666Y-74580714D01*
X146909523Y-76857380D02*
X147004761Y-76809761D01*
X147052380Y-76762142D01*
X147100000Y-76666904D01*
X147100000Y-76381190D01*
X147052380Y-76285952D01*
X147004761Y-76238333D01*
X146909523Y-76190714D01*
X146766666Y-76190714D01*
X146671428Y-76238333D01*
X146623809Y-76285952D01*
X146576190Y-76381190D01*
X146576190Y-76666904D01*
X146623809Y-76762142D01*
X146671428Y-76809761D01*
X146766666Y-76857380D01*
X146909523Y-76857380D01*
X145719047Y-76190714D02*
X145719047Y-76857380D01*
X146147619Y-76190714D02*
X146147619Y-76714523D01*
X146100000Y-76809761D01*
X146004761Y-76857380D01*
X145861904Y-76857380D01*
X145766666Y-76809761D01*
X145719047Y-76762142D01*
X145385714Y-76190714D02*
X145004761Y-76190714D01*
X145242857Y-75857380D02*
X145242857Y-76714523D01*
X145195238Y-76809761D01*
X145100000Y-76857380D01*
X145004761Y-76857380D01*
X67572619Y-69983333D02*
X68572619Y-69983333D01*
X68572619Y-69745238D01*
X68525000Y-69602380D01*
X68429761Y-69507142D01*
X68334523Y-69459523D01*
X68144047Y-69411904D01*
X68001190Y-69411904D01*
X67810714Y-69459523D01*
X67715476Y-69507142D01*
X67620238Y-69602380D01*
X67572619Y-69745238D01*
X67572619Y-69983333D01*
X67667857Y-68411904D02*
X67620238Y-68459523D01*
X67572619Y-68602380D01*
X67572619Y-68697619D01*
X67620238Y-68840476D01*
X67715476Y-68935714D01*
X67810714Y-68983333D01*
X68001190Y-69030952D01*
X68144047Y-69030952D01*
X68334523Y-68983333D01*
X68429761Y-68935714D01*
X68525000Y-68840476D01*
X68572619Y-68697619D01*
X68572619Y-68602380D01*
X68525000Y-68459523D01*
X68477380Y-68411904D01*
X67572619Y-67221428D02*
X68572619Y-67221428D01*
X68239285Y-66745238D02*
X67572619Y-66745238D01*
X68144047Y-66745238D02*
X68191666Y-66697619D01*
X68239285Y-66602380D01*
X68239285Y-66459523D01*
X68191666Y-66364285D01*
X68096428Y-66316666D01*
X67572619Y-66316666D01*
X117485714Y-75475714D02*
X117485714Y-76475714D01*
X117009523Y-75999523D02*
X116961904Y-76094761D01*
X116866666Y-76142380D01*
X117485714Y-75999523D02*
X117438095Y-76094761D01*
X117342857Y-76142380D01*
X117152380Y-76142380D01*
X117057142Y-76094761D01*
X117009523Y-75999523D01*
X117009523Y-75475714D01*
X116580952Y-75142380D02*
X116009523Y-75142380D01*
X116295238Y-76142380D02*
X116295238Y-75142380D01*
X115676190Y-76142380D02*
X115676190Y-75475714D01*
X115676190Y-75666190D02*
X115628571Y-75570952D01*
X115580952Y-75523333D01*
X115485714Y-75475714D01*
X115390476Y-75475714D01*
X114628571Y-76142380D02*
X114628571Y-75618571D01*
X114676190Y-75523333D01*
X114771428Y-75475714D01*
X114961904Y-75475714D01*
X115057142Y-75523333D01*
X114628571Y-76094761D02*
X114723809Y-76142380D01*
X114961904Y-76142380D01*
X115057142Y-76094761D01*
X115104761Y-75999523D01*
X115104761Y-75904285D01*
X115057142Y-75809047D01*
X114961904Y-75761428D01*
X114723809Y-75761428D01*
X114628571Y-75713809D01*
X113723809Y-76094761D02*
X113819047Y-76142380D01*
X114009523Y-76142380D01*
X114104761Y-76094761D01*
X114152380Y-76047142D01*
X114200000Y-75951904D01*
X114200000Y-75666190D01*
X114152380Y-75570952D01*
X114104761Y-75523333D01*
X114009523Y-75475714D01*
X113819047Y-75475714D01*
X113723809Y-75523333D01*
X112914285Y-76094761D02*
X113009523Y-76142380D01*
X113200000Y-76142380D01*
X113295238Y-76094761D01*
X113342857Y-75999523D01*
X113342857Y-75618571D01*
X113295238Y-75523333D01*
X113200000Y-75475714D01*
X113009523Y-75475714D01*
X112914285Y-75523333D01*
X112866666Y-75618571D01*
X112866666Y-75713809D01*
X113342857Y-75809047D01*
X112438095Y-76142380D02*
X112438095Y-75475714D01*
X112438095Y-75666190D02*
X112390476Y-75570952D01*
X112342857Y-75523333D01*
X112247619Y-75475714D01*
X112152380Y-75475714D01*
X111057142Y-76142380D02*
X111057142Y-75142380D01*
X111057142Y-75618571D02*
X110485714Y-75618571D01*
X110485714Y-76142380D02*
X110485714Y-75142380D01*
X109628571Y-76094761D02*
X109723809Y-76142380D01*
X109914285Y-76142380D01*
X110009523Y-76094761D01*
X110057142Y-75999523D01*
X110057142Y-75618571D01*
X110009523Y-75523333D01*
X109914285Y-75475714D01*
X109723809Y-75475714D01*
X109628571Y-75523333D01*
X109580952Y-75618571D01*
X109580952Y-75713809D01*
X110057142Y-75809047D01*
X108723809Y-76142380D02*
X108723809Y-75618571D01*
X108771428Y-75523333D01*
X108866666Y-75475714D01*
X109057142Y-75475714D01*
X109152380Y-75523333D01*
X108723809Y-76094761D02*
X108819047Y-76142380D01*
X109057142Y-76142380D01*
X109152380Y-76094761D01*
X109200000Y-75999523D01*
X109200000Y-75904285D01*
X109152380Y-75809047D01*
X109057142Y-75761428D01*
X108819047Y-75761428D01*
X108723809Y-75713809D01*
X108390476Y-75475714D02*
X108009523Y-75475714D01*
X108247619Y-75142380D02*
X108247619Y-75999523D01*
X108200000Y-76094761D01*
X108104761Y-76142380D01*
X108009523Y-76142380D01*
X107295238Y-76094761D02*
X107390476Y-76142380D01*
X107580952Y-76142380D01*
X107676190Y-76094761D01*
X107723809Y-75999523D01*
X107723809Y-75618571D01*
X107676190Y-75523333D01*
X107580952Y-75475714D01*
X107390476Y-75475714D01*
X107295238Y-75523333D01*
X107247619Y-75618571D01*
X107247619Y-75713809D01*
X107723809Y-75809047D01*
X106819047Y-76142380D02*
X106819047Y-75475714D01*
X106819047Y-75666190D02*
X106771428Y-75570952D01*
X106723809Y-75523333D01*
X106628571Y-75475714D01*
X106533333Y-75475714D01*
X105438095Y-76142380D02*
X105438095Y-75142380D01*
X105057142Y-75142380D01*
X104961904Y-75190000D01*
X104914285Y-75237619D01*
X104866666Y-75332857D01*
X104866666Y-75475714D01*
X104914285Y-75570952D01*
X104961904Y-75618571D01*
X105057142Y-75666190D01*
X105438095Y-75666190D01*
X104485714Y-76094761D02*
X104342857Y-76142380D01*
X104104761Y-76142380D01*
X104009523Y-76094761D01*
X103961904Y-76047142D01*
X103914285Y-75951904D01*
X103914285Y-75856666D01*
X103961904Y-75761428D01*
X104009523Y-75713809D01*
X104104761Y-75666190D01*
X104295238Y-75618571D01*
X104390476Y-75570952D01*
X104438095Y-75523333D01*
X104485714Y-75428095D01*
X104485714Y-75332857D01*
X104438095Y-75237619D01*
X104390476Y-75190000D01*
X104295238Y-75142380D01*
X104057142Y-75142380D01*
X103914285Y-75190000D01*
X103485714Y-75142380D02*
X103485714Y-75951904D01*
X103438095Y-76047142D01*
X103390476Y-76094761D01*
X103295238Y-76142380D01*
X103104761Y-76142380D01*
X103009523Y-76094761D01*
X102961904Y-76047142D01*
X102914285Y-75951904D01*
X102914285Y-75142380D01*
X115033333Y-76847619D02*
X114985714Y-76800000D01*
X114890476Y-76752380D01*
X114652380Y-76752380D01*
X114557142Y-76800000D01*
X114509523Y-76847619D01*
X114461904Y-76942857D01*
X114461904Y-77038095D01*
X114509523Y-77180952D01*
X115080952Y-77752380D01*
X114461904Y-77752380D01*
X114080952Y-76847619D02*
X114033333Y-76800000D01*
X113938095Y-76752380D01*
X113700000Y-76752380D01*
X113604761Y-76800000D01*
X113557142Y-76847619D01*
X113509523Y-76942857D01*
X113509523Y-77038095D01*
X113557142Y-77180952D01*
X114128571Y-77752380D01*
X113509523Y-77752380D01*
X113319047Y-77847619D02*
X112557142Y-77847619D01*
X111890476Y-77085714D02*
X111890476Y-77752380D01*
X112128571Y-76704761D02*
X112366666Y-77419047D01*
X111747619Y-77419047D01*
X111461904Y-76752380D02*
X110842857Y-76752380D01*
X111176190Y-77133333D01*
X111033333Y-77133333D01*
X110938095Y-77180952D01*
X110890476Y-77228571D01*
X110842857Y-77323809D01*
X110842857Y-77561904D01*
X110890476Y-77657142D01*
X110938095Y-77704761D01*
X111033333Y-77752380D01*
X111319047Y-77752380D01*
X111414285Y-77704761D01*
X111461904Y-77657142D01*
X110652380Y-77847619D02*
X109890476Y-77847619D01*
X109461904Y-76752380D02*
X109366666Y-76752380D01*
X109271428Y-76800000D01*
X109223809Y-76847619D01*
X109176190Y-76942857D01*
X109128571Y-77133333D01*
X109128571Y-77371428D01*
X109176190Y-77561904D01*
X109223809Y-77657142D01*
X109271428Y-77704761D01*
X109366666Y-77752380D01*
X109461904Y-77752380D01*
X109557142Y-77704761D01*
X109604761Y-77657142D01*
X109652380Y-77561904D01*
X109700000Y-77371428D01*
X109700000Y-77133333D01*
X109652380Y-76942857D01*
X109604761Y-76847619D01*
X109557142Y-76800000D01*
X109461904Y-76752380D01*
X108176190Y-77752380D02*
X108747619Y-77752380D01*
X108461904Y-77752380D02*
X108461904Y-76752380D01*
X108557142Y-76895238D01*
X108652380Y-76990476D01*
X108747619Y-77038095D01*
X107223809Y-77752380D02*
X107795238Y-77752380D01*
X107509523Y-77752380D02*
X107509523Y-76752380D01*
X107604761Y-76895238D01*
X107700000Y-76990476D01*
X107795238Y-77038095D01*
X106747619Y-77752380D02*
X106557142Y-77752380D01*
X106461904Y-77704761D01*
X106414285Y-77657142D01*
X106319047Y-77514285D01*
X106271428Y-77323809D01*
X106271428Y-76942857D01*
X106319047Y-76847619D01*
X106366666Y-76800000D01*
X106461904Y-76752380D01*
X106652380Y-76752380D01*
X106747619Y-76800000D01*
X106795238Y-76847619D01*
X106842857Y-76942857D01*
X106842857Y-77180952D01*
X106795238Y-77276190D01*
X106747619Y-77323809D01*
X106652380Y-77371428D01*
X106461904Y-77371428D01*
X106366666Y-77323809D01*
X106319047Y-77276190D01*
X106271428Y-77180952D01*
X105842857Y-77228571D02*
X105509523Y-77228571D01*
X105366666Y-77752380D02*
X105842857Y-77752380D01*
X105842857Y-76752380D01*
X105366666Y-76752380D01*
X115652380Y-78838571D02*
X115509523Y-78886190D01*
X115461904Y-78933809D01*
X115414285Y-79029047D01*
X115414285Y-79171904D01*
X115461904Y-79267142D01*
X115509523Y-79314761D01*
X115604761Y-79362380D01*
X115985714Y-79362380D01*
X115985714Y-78362380D01*
X115652380Y-78362380D01*
X115557142Y-78410000D01*
X115509523Y-78457619D01*
X115461904Y-78552857D01*
X115461904Y-78648095D01*
X115509523Y-78743333D01*
X115557142Y-78790952D01*
X115652380Y-78838571D01*
X115985714Y-78838571D01*
X114985714Y-78695714D02*
X114985714Y-79552857D01*
X115033333Y-79648095D01*
X115128571Y-79695714D01*
X115176190Y-79695714D01*
X114985714Y-78362380D02*
X115033333Y-78410000D01*
X114985714Y-78457619D01*
X114938095Y-78410000D01*
X114985714Y-78362380D01*
X114985714Y-78457619D01*
X113985714Y-78695714D02*
X114604761Y-79362380D01*
X114366666Y-79362380D02*
X114461904Y-79314761D01*
X114509523Y-79267142D01*
X114557142Y-79171904D01*
X114557142Y-78886190D01*
X114509523Y-78790952D01*
X114461904Y-78743333D01*
X114366666Y-78695714D01*
X114223809Y-78695714D01*
X114128571Y-78743333D01*
X114080952Y-78790952D01*
X114033333Y-78886190D01*
X114033333Y-79171904D01*
X114080952Y-79267142D01*
X114128571Y-79314761D01*
X114223809Y-79362380D01*
X114366666Y-79362380D01*
X113604761Y-79362380D02*
X113604761Y-78695714D01*
X113604761Y-78886190D02*
X113557142Y-78790952D01*
X113509523Y-78743333D01*
X113414285Y-78695714D01*
X113319047Y-78695714D01*
X112985714Y-78695714D02*
X112985714Y-79362380D01*
X112985714Y-78790952D02*
X112938095Y-78743333D01*
X112842857Y-78695714D01*
X112700000Y-78695714D01*
X112604761Y-78743333D01*
X112557142Y-78838571D01*
X112557142Y-79362380D01*
X111700000Y-79314761D02*
X111795238Y-79362380D01*
X111985714Y-79362380D01*
X112080952Y-79314761D01*
X112128571Y-79219523D01*
X112128571Y-78838571D01*
X112080952Y-78743333D01*
X111985714Y-78695714D01*
X111795238Y-78695714D01*
X111700000Y-78743333D01*
X111652380Y-78838571D01*
X111652380Y-78933809D01*
X112128571Y-79029047D01*
X111223809Y-79362380D02*
X111223809Y-78695714D01*
X111223809Y-78886190D02*
X111176190Y-78790952D01*
X111128571Y-78743333D01*
X111033333Y-78695714D01*
X110938095Y-78695714D01*
X109890476Y-79314761D02*
X109747619Y-79362380D01*
X109509523Y-79362380D01*
X109414285Y-79314761D01*
X109366666Y-79267142D01*
X109319047Y-79171904D01*
X109319047Y-79076666D01*
X109366666Y-78981428D01*
X109414285Y-78933809D01*
X109509523Y-78886190D01*
X109700000Y-78838571D01*
X109795238Y-78790952D01*
X109842857Y-78743333D01*
X109890476Y-78648095D01*
X109890476Y-78552857D01*
X109842857Y-78457619D01*
X109795238Y-78410000D01*
X109700000Y-78362380D01*
X109461904Y-78362380D01*
X109319047Y-78410000D01*
X108461904Y-79362380D02*
X108461904Y-78838571D01*
X108509523Y-78743333D01*
X108604761Y-78695714D01*
X108795238Y-78695714D01*
X108890476Y-78743333D01*
X108461904Y-79314761D02*
X108557142Y-79362380D01*
X108795238Y-79362380D01*
X108890476Y-79314761D01*
X108938095Y-79219523D01*
X108938095Y-79124285D01*
X108890476Y-79029047D01*
X108795238Y-78981428D01*
X108557142Y-78981428D01*
X108461904Y-78933809D01*
X107985714Y-78695714D02*
X107985714Y-79362380D01*
X107985714Y-78790952D02*
X107938095Y-78743333D01*
X107842857Y-78695714D01*
X107700000Y-78695714D01*
X107604761Y-78743333D01*
X107557142Y-78838571D01*
X107557142Y-79362380D01*
X106652380Y-79362380D02*
X106652380Y-78362380D01*
X106652380Y-79314761D02*
X106747619Y-79362380D01*
X106938095Y-79362380D01*
X107033333Y-79314761D01*
X107080952Y-79267142D01*
X107128571Y-79171904D01*
X107128571Y-78886190D01*
X107080952Y-78790952D01*
X107033333Y-78743333D01*
X106938095Y-78695714D01*
X106747619Y-78695714D01*
X106652380Y-78743333D01*
X106033333Y-79362380D02*
X106128571Y-79314761D01*
X106176190Y-79267142D01*
X106223809Y-79171904D01*
X106223809Y-78886190D01*
X106176190Y-78790952D01*
X106128571Y-78743333D01*
X106033333Y-78695714D01*
X105890476Y-78695714D01*
X105795238Y-78743333D01*
X105747619Y-78790952D01*
X105700000Y-78886190D01*
X105700000Y-79171904D01*
X105747619Y-79267142D01*
X105795238Y-79314761D01*
X105890476Y-79362380D01*
X106033333Y-79362380D01*
X105271428Y-79362380D02*
X105271428Y-78695714D01*
X105271428Y-78790952D02*
X105223809Y-78743333D01*
X105128571Y-78695714D01*
X104985714Y-78695714D01*
X104890476Y-78743333D01*
X104842857Y-78838571D01*
X104842857Y-79362380D01*
X104842857Y-78838571D02*
X104795238Y-78743333D01*
X104700000Y-78695714D01*
X104557142Y-78695714D01*
X104461904Y-78743333D01*
X104414285Y-78838571D01*
X104414285Y-79362380D01*
D12*
X142385714Y-71904761D02*
X142423809Y-71866666D01*
X142461904Y-71752380D01*
X142461904Y-71676190D01*
X142423809Y-71561904D01*
X142347619Y-71485714D01*
X142271428Y-71447619D01*
X142119047Y-71409523D01*
X142004761Y-71409523D01*
X141852380Y-71447619D01*
X141776190Y-71485714D01*
X141700000Y-71561904D01*
X141661904Y-71676190D01*
X141661904Y-71752380D01*
X141700000Y-71866666D01*
X141738095Y-71904761D01*
X141738095Y-72209523D02*
X141700000Y-72247619D01*
X141661904Y-72323809D01*
X141661904Y-72514285D01*
X141700000Y-72590476D01*
X141738095Y-72628571D01*
X141814285Y-72666666D01*
X141890476Y-72666666D01*
X142004761Y-72628571D01*
X142461904Y-72171428D01*
X142461904Y-72666666D01*
X141661904Y-73161904D02*
X141661904Y-73238095D01*
X141700000Y-73314285D01*
X141738095Y-73352380D01*
X141814285Y-73390476D01*
X141966666Y-73428571D01*
X142157142Y-73428571D01*
X142309523Y-73390476D01*
X142385714Y-73352380D01*
X142423809Y-73314285D01*
X142461904Y-73238095D01*
X142461904Y-73161904D01*
X142423809Y-73085714D01*
X142385714Y-73047619D01*
X142309523Y-73009523D01*
X142157142Y-72971428D01*
X141966666Y-72971428D01*
X141814285Y-73009523D01*
X141738095Y-73047619D01*
X141700000Y-73085714D01*
X141661904Y-73161904D01*
X141661904Y-73695238D02*
X141661904Y-74228571D01*
X142461904Y-73885714D01*
X142385714Y-67104761D02*
X142423809Y-67066666D01*
X142461904Y-66952380D01*
X142461904Y-66876190D01*
X142423809Y-66761904D01*
X142347619Y-66685714D01*
X142271428Y-66647619D01*
X142119047Y-66609523D01*
X142004761Y-66609523D01*
X141852380Y-66647619D01*
X141776190Y-66685714D01*
X141700000Y-66761904D01*
X141661904Y-66876190D01*
X141661904Y-66952380D01*
X141700000Y-67066666D01*
X141738095Y-67104761D01*
X141738095Y-67409523D02*
X141700000Y-67447619D01*
X141661904Y-67523809D01*
X141661904Y-67714285D01*
X141700000Y-67790476D01*
X141738095Y-67828571D01*
X141814285Y-67866666D01*
X141890476Y-67866666D01*
X142004761Y-67828571D01*
X142461904Y-67371428D01*
X142461904Y-67866666D01*
X141661904Y-68361904D02*
X141661904Y-68438095D01*
X141700000Y-68514285D01*
X141738095Y-68552380D01*
X141814285Y-68590476D01*
X141966666Y-68628571D01*
X142157142Y-68628571D01*
X142309523Y-68590476D01*
X142385714Y-68552380D01*
X142423809Y-68514285D01*
X142461904Y-68438095D01*
X142461904Y-68361904D01*
X142423809Y-68285714D01*
X142385714Y-68247619D01*
X142309523Y-68209523D01*
X142157142Y-68171428D01*
X141966666Y-68171428D01*
X141814285Y-68209523D01*
X141738095Y-68247619D01*
X141700000Y-68285714D01*
X141661904Y-68361904D01*
X141661904Y-69314285D02*
X141661904Y-69161904D01*
X141700000Y-69085714D01*
X141738095Y-69047619D01*
X141852380Y-68971428D01*
X142004761Y-68933333D01*
X142309523Y-68933333D01*
X142385714Y-68971428D01*
X142423809Y-69009523D01*
X142461904Y-69085714D01*
X142461904Y-69238095D01*
X142423809Y-69314285D01*
X142385714Y-69352380D01*
X142309523Y-69390476D01*
X142119047Y-69390476D01*
X142042857Y-69352380D01*
X142004761Y-69314285D01*
X141966666Y-69238095D01*
X141966666Y-69085714D01*
X142004761Y-69009523D01*
X142042857Y-68971428D01*
X142119047Y-68933333D01*
X77488095Y-64213095D02*
X77564285Y-64175000D01*
X77640476Y-64098809D01*
X77754761Y-63984523D01*
X77830952Y-63946428D01*
X77907142Y-63946428D01*
X77869047Y-64136904D02*
X77945238Y-64098809D01*
X78021428Y-64022619D01*
X78059523Y-63870238D01*
X78059523Y-63603571D01*
X78021428Y-63451190D01*
X77945238Y-63375000D01*
X77869047Y-63336904D01*
X77716666Y-63336904D01*
X77640476Y-63375000D01*
X77564285Y-63451190D01*
X77526190Y-63603571D01*
X77526190Y-63870238D01*
X77564285Y-64022619D01*
X77640476Y-64098809D01*
X77716666Y-64136904D01*
X77869047Y-64136904D01*
X77221428Y-63413095D02*
X77183333Y-63375000D01*
X77107142Y-63336904D01*
X76916666Y-63336904D01*
X76840476Y-63375000D01*
X76802380Y-63413095D01*
X76764285Y-63489285D01*
X76764285Y-63565476D01*
X76802380Y-63679761D01*
X77259523Y-64136904D01*
X76764285Y-64136904D01*
X76269047Y-63336904D02*
X76192857Y-63336904D01*
X76116666Y-63375000D01*
X76078571Y-63413095D01*
X76040476Y-63489285D01*
X76002380Y-63641666D01*
X76002380Y-63832142D01*
X76040476Y-63984523D01*
X76078571Y-64060714D01*
X76116666Y-64098809D01*
X76192857Y-64136904D01*
X76269047Y-64136904D01*
X76345238Y-64098809D01*
X76383333Y-64060714D01*
X76421428Y-63984523D01*
X76459523Y-63832142D01*
X76459523Y-63641666D01*
X76421428Y-63489285D01*
X76383333Y-63413095D01*
X76345238Y-63375000D01*
X76269047Y-63336904D01*
X75697619Y-63413095D02*
X75659523Y-63375000D01*
X75583333Y-63336904D01*
X75392857Y-63336904D01*
X75316666Y-63375000D01*
X75278571Y-63413095D01*
X75240476Y-63489285D01*
X75240476Y-63565476D01*
X75278571Y-63679761D01*
X75735714Y-64136904D01*
X75240476Y-64136904D01*
X89745238Y-71635714D02*
X89783333Y-71673809D01*
X89897619Y-71711904D01*
X89973809Y-71711904D01*
X90088095Y-71673809D01*
X90164285Y-71597619D01*
X90202380Y-71521428D01*
X90240476Y-71369047D01*
X90240476Y-71254761D01*
X90202380Y-71102380D01*
X90164285Y-71026190D01*
X90088095Y-70950000D01*
X89973809Y-70911904D01*
X89897619Y-70911904D01*
X89783333Y-70950000D01*
X89745238Y-70988095D01*
X89440476Y-70988095D02*
X89402380Y-70950000D01*
X89326190Y-70911904D01*
X89135714Y-70911904D01*
X89059523Y-70950000D01*
X89021428Y-70988095D01*
X88983333Y-71064285D01*
X88983333Y-71140476D01*
X89021428Y-71254761D01*
X89478571Y-71711904D01*
X88983333Y-71711904D01*
X88488095Y-70911904D02*
X88411904Y-70911904D01*
X88335714Y-70950000D01*
X88297619Y-70988095D01*
X88259523Y-71064285D01*
X88221428Y-71216666D01*
X88221428Y-71407142D01*
X88259523Y-71559523D01*
X88297619Y-71635714D01*
X88335714Y-71673809D01*
X88411904Y-71711904D01*
X88488095Y-71711904D01*
X88564285Y-71673809D01*
X88602380Y-71635714D01*
X88640476Y-71559523D01*
X88678571Y-71407142D01*
X88678571Y-71216666D01*
X88640476Y-71064285D01*
X88602380Y-70988095D01*
X88564285Y-70950000D01*
X88488095Y-70911904D01*
X87497619Y-70911904D02*
X87878571Y-70911904D01*
X87916666Y-71292857D01*
X87878571Y-71254761D01*
X87802380Y-71216666D01*
X87611904Y-71216666D01*
X87535714Y-71254761D01*
X87497619Y-71292857D01*
X87459523Y-71369047D01*
X87459523Y-71559523D01*
X87497619Y-71635714D01*
X87535714Y-71673809D01*
X87611904Y-71711904D01*
X87802380Y-71711904D01*
X87878571Y-71673809D01*
X87916666Y-71635714D01*
D10*
X108902380Y-64127380D02*
X108426190Y-63794047D01*
X108902380Y-63555952D02*
X107902380Y-63555952D01*
X107902380Y-63936904D01*
X107950000Y-64032142D01*
X107997619Y-64079761D01*
X108092857Y-64127380D01*
X108235714Y-64127380D01*
X108330952Y-64079761D01*
X108378571Y-64032142D01*
X108426190Y-63936904D01*
X108426190Y-63555952D01*
X107902380Y-64413095D02*
X108902380Y-64746428D01*
X107902380Y-65079761D01*
X107997619Y-65365476D02*
X107950000Y-65413095D01*
X107902380Y-65508333D01*
X107902380Y-65746428D01*
X107950000Y-65841666D01*
X107997619Y-65889285D01*
X108092857Y-65936904D01*
X108188095Y-65936904D01*
X108330952Y-65889285D01*
X108902380Y-65317857D01*
X108902380Y-65936904D01*
X107902380Y-66555952D02*
X107902380Y-66651190D01*
X107950000Y-66746428D01*
X107997619Y-66794047D01*
X108092857Y-66841666D01*
X108283333Y-66889285D01*
X108521428Y-66889285D01*
X108711904Y-66841666D01*
X108807142Y-66794047D01*
X108854761Y-66746428D01*
X108902380Y-66651190D01*
X108902380Y-66555952D01*
X108854761Y-66460714D01*
X108807142Y-66413095D01*
X108711904Y-66365476D01*
X108521428Y-66317857D01*
X108283333Y-66317857D01*
X108092857Y-66365476D01*
X107997619Y-66413095D01*
X107950000Y-66460714D01*
X107902380Y-66555952D01*
X107902380Y-67794047D02*
X107902380Y-67317857D01*
X108378571Y-67270238D01*
X108330952Y-67317857D01*
X108283333Y-67413095D01*
X108283333Y-67651190D01*
X108330952Y-67746428D01*
X108378571Y-67794047D01*
X108473809Y-67841666D01*
X108711904Y-67841666D01*
X108807142Y-67794047D01*
X108854761Y-67746428D01*
X108902380Y-67651190D01*
X108902380Y-67413095D01*
X108854761Y-67317857D01*
X108807142Y-67270238D01*
D12*
X141285714Y-52904761D02*
X141323809Y-52866666D01*
X141361904Y-52752380D01*
X141361904Y-52676190D01*
X141323809Y-52561904D01*
X141247619Y-52485714D01*
X141171428Y-52447619D01*
X141019047Y-52409523D01*
X140904761Y-52409523D01*
X140752380Y-52447619D01*
X140676190Y-52485714D01*
X140600000Y-52561904D01*
X140561904Y-52676190D01*
X140561904Y-52752380D01*
X140600000Y-52866666D01*
X140638095Y-52904761D01*
X140638095Y-53209523D02*
X140600000Y-53247619D01*
X140561904Y-53323809D01*
X140561904Y-53514285D01*
X140600000Y-53590476D01*
X140638095Y-53628571D01*
X140714285Y-53666666D01*
X140790476Y-53666666D01*
X140904761Y-53628571D01*
X141361904Y-53171428D01*
X141361904Y-53666666D01*
X140561904Y-54161904D02*
X140561904Y-54238095D01*
X140600000Y-54314285D01*
X140638095Y-54352380D01*
X140714285Y-54390476D01*
X140866666Y-54428571D01*
X141057142Y-54428571D01*
X141209523Y-54390476D01*
X141285714Y-54352380D01*
X141323809Y-54314285D01*
X141361904Y-54238095D01*
X141361904Y-54161904D01*
X141323809Y-54085714D01*
X141285714Y-54047619D01*
X141209523Y-54009523D01*
X141057142Y-53971428D01*
X140866666Y-53971428D01*
X140714285Y-54009523D01*
X140638095Y-54047619D01*
X140600000Y-54085714D01*
X140561904Y-54161904D01*
X140904761Y-54885714D02*
X140866666Y-54809523D01*
X140828571Y-54771428D01*
X140752380Y-54733333D01*
X140714285Y-54733333D01*
X140638095Y-54771428D01*
X140600000Y-54809523D01*
X140561904Y-54885714D01*
X140561904Y-55038095D01*
X140600000Y-55114285D01*
X140638095Y-55152380D01*
X140714285Y-55190476D01*
X140752380Y-55190476D01*
X140828571Y-55152380D01*
X140866666Y-55114285D01*
X140904761Y-55038095D01*
X140904761Y-54885714D01*
X140942857Y-54809523D01*
X140980952Y-54771428D01*
X141057142Y-54733333D01*
X141209523Y-54733333D01*
X141285714Y-54771428D01*
X141323809Y-54809523D01*
X141361904Y-54885714D01*
X141361904Y-55038095D01*
X141323809Y-55114285D01*
X141285714Y-55152380D01*
X141209523Y-55190476D01*
X141057142Y-55190476D01*
X140980952Y-55152380D01*
X140942857Y-55114285D01*
X140904761Y-55038095D01*
X111786904Y-64179761D02*
X111405952Y-63913095D01*
X111786904Y-63722619D02*
X110986904Y-63722619D01*
X110986904Y-64027380D01*
X111025000Y-64103571D01*
X111063095Y-64141666D01*
X111139285Y-64179761D01*
X111253571Y-64179761D01*
X111329761Y-64141666D01*
X111367857Y-64103571D01*
X111405952Y-64027380D01*
X111405952Y-63722619D01*
X111063095Y-64484523D02*
X111025000Y-64522619D01*
X110986904Y-64598809D01*
X110986904Y-64789285D01*
X111025000Y-64865476D01*
X111063095Y-64903571D01*
X111139285Y-64941666D01*
X111215476Y-64941666D01*
X111329761Y-64903571D01*
X111786904Y-64446428D01*
X111786904Y-64941666D01*
X111786904Y-65703571D02*
X111786904Y-65246428D01*
X111786904Y-65475000D02*
X110986904Y-65475000D01*
X111101190Y-65398809D01*
X111177380Y-65322619D01*
X111215476Y-65246428D01*
X111063095Y-66008333D02*
X111025000Y-66046428D01*
X110986904Y-66122619D01*
X110986904Y-66313095D01*
X111025000Y-66389285D01*
X111063095Y-66427380D01*
X111139285Y-66465476D01*
X111215476Y-66465476D01*
X111329761Y-66427380D01*
X111786904Y-65970238D01*
X111786904Y-66465476D01*
X78021428Y-62186904D02*
X78021428Y-62834523D01*
X77983333Y-62910714D01*
X77945238Y-62948809D01*
X77869047Y-62986904D01*
X77716666Y-62986904D01*
X77640476Y-62948809D01*
X77602380Y-62910714D01*
X77564285Y-62834523D01*
X77564285Y-62186904D01*
X77221428Y-62263095D02*
X77183333Y-62225000D01*
X77107142Y-62186904D01*
X76916666Y-62186904D01*
X76840476Y-62225000D01*
X76802380Y-62263095D01*
X76764285Y-62339285D01*
X76764285Y-62415476D01*
X76802380Y-62529761D01*
X77259523Y-62986904D01*
X76764285Y-62986904D01*
X76269047Y-62186904D02*
X76192857Y-62186904D01*
X76116666Y-62225000D01*
X76078571Y-62263095D01*
X76040476Y-62339285D01*
X76002380Y-62491666D01*
X76002380Y-62682142D01*
X76040476Y-62834523D01*
X76078571Y-62910714D01*
X76116666Y-62948809D01*
X76192857Y-62986904D01*
X76269047Y-62986904D01*
X76345238Y-62948809D01*
X76383333Y-62910714D01*
X76421428Y-62834523D01*
X76459523Y-62682142D01*
X76459523Y-62491666D01*
X76421428Y-62339285D01*
X76383333Y-62263095D01*
X76345238Y-62225000D01*
X76269047Y-62186904D01*
X75240476Y-62986904D02*
X75697619Y-62986904D01*
X75469047Y-62986904D02*
X75469047Y-62186904D01*
X75545238Y-62301190D01*
X75621428Y-62377380D01*
X75697619Y-62415476D01*
X128407904Y-52704761D02*
X128026952Y-52438095D01*
X128407904Y-52247619D02*
X127607904Y-52247619D01*
X127607904Y-52552380D01*
X127646000Y-52628571D01*
X127684095Y-52666666D01*
X127760285Y-52704761D01*
X127874571Y-52704761D01*
X127950761Y-52666666D01*
X127988857Y-52628571D01*
X128026952Y-52552380D01*
X128026952Y-52247619D01*
X127684095Y-53009523D02*
X127646000Y-53047619D01*
X127607904Y-53123809D01*
X127607904Y-53314285D01*
X127646000Y-53390476D01*
X127684095Y-53428571D01*
X127760285Y-53466666D01*
X127836476Y-53466666D01*
X127950761Y-53428571D01*
X128407904Y-52971428D01*
X128407904Y-53466666D01*
X128407904Y-54228571D02*
X128407904Y-53771428D01*
X128407904Y-54000000D02*
X127607904Y-54000000D01*
X127722190Y-53923809D01*
X127798380Y-53847619D01*
X127836476Y-53771428D01*
X127607904Y-54723809D02*
X127607904Y-54800000D01*
X127646000Y-54876190D01*
X127684095Y-54914285D01*
X127760285Y-54952380D01*
X127912666Y-54990476D01*
X128103142Y-54990476D01*
X128255523Y-54952380D01*
X128331714Y-54914285D01*
X128369809Y-54876190D01*
X128407904Y-54800000D01*
X128407904Y-54723809D01*
X128369809Y-54647619D01*
X128331714Y-54609523D01*
X128255523Y-54571428D01*
X128103142Y-54533333D01*
X127912666Y-54533333D01*
X127760285Y-54571428D01*
X127684095Y-54609523D01*
X127646000Y-54647619D01*
X127607904Y-54723809D01*
X151895238Y-53961904D02*
X152161904Y-53580952D01*
X152352380Y-53961904D02*
X152352380Y-53161904D01*
X152047619Y-53161904D01*
X151971428Y-53200000D01*
X151933333Y-53238095D01*
X151895238Y-53314285D01*
X151895238Y-53428571D01*
X151933333Y-53504761D01*
X151971428Y-53542857D01*
X152047619Y-53580952D01*
X152352380Y-53580952D01*
X151590476Y-53238095D02*
X151552380Y-53200000D01*
X151476190Y-53161904D01*
X151285714Y-53161904D01*
X151209523Y-53200000D01*
X151171428Y-53238095D01*
X151133333Y-53314285D01*
X151133333Y-53390476D01*
X151171428Y-53504761D01*
X151628571Y-53961904D01*
X151133333Y-53961904D01*
X150371428Y-53961904D02*
X150828571Y-53961904D01*
X150600000Y-53961904D02*
X150600000Y-53161904D01*
X150676190Y-53276190D01*
X150752380Y-53352380D01*
X150828571Y-53390476D01*
X150104761Y-53161904D02*
X149609523Y-53161904D01*
X149876190Y-53466666D01*
X149761904Y-53466666D01*
X149685714Y-53504761D01*
X149647619Y-53542857D01*
X149609523Y-53619047D01*
X149609523Y-53809523D01*
X149647619Y-53885714D01*
X149685714Y-53923809D01*
X149761904Y-53961904D01*
X149990476Y-53961904D01*
X150066666Y-53923809D01*
X150104761Y-53885714D01*
X85895238Y-62785714D02*
X85933333Y-62823809D01*
X86047619Y-62861904D01*
X86123809Y-62861904D01*
X86238095Y-62823809D01*
X86314285Y-62747619D01*
X86352380Y-62671428D01*
X86390476Y-62519047D01*
X86390476Y-62404761D01*
X86352380Y-62252380D01*
X86314285Y-62176190D01*
X86238095Y-62100000D01*
X86123809Y-62061904D01*
X86047619Y-62061904D01*
X85933333Y-62100000D01*
X85895238Y-62138095D01*
X85590476Y-62138095D02*
X85552380Y-62100000D01*
X85476190Y-62061904D01*
X85285714Y-62061904D01*
X85209523Y-62100000D01*
X85171428Y-62138095D01*
X85133333Y-62214285D01*
X85133333Y-62290476D01*
X85171428Y-62404761D01*
X85628571Y-62861904D01*
X85133333Y-62861904D01*
X84638095Y-62061904D02*
X84561904Y-62061904D01*
X84485714Y-62100000D01*
X84447619Y-62138095D01*
X84409523Y-62214285D01*
X84371428Y-62366666D01*
X84371428Y-62557142D01*
X84409523Y-62709523D01*
X84447619Y-62785714D01*
X84485714Y-62823809D01*
X84561904Y-62861904D01*
X84638095Y-62861904D01*
X84714285Y-62823809D01*
X84752380Y-62785714D01*
X84790476Y-62709523D01*
X84828571Y-62557142D01*
X84828571Y-62366666D01*
X84790476Y-62214285D01*
X84752380Y-62138095D01*
X84714285Y-62100000D01*
X84638095Y-62061904D01*
X83685714Y-62328571D02*
X83685714Y-62861904D01*
X83876190Y-62023809D02*
X84066666Y-62595238D01*
X83571428Y-62595238D01*
X147571428Y-51211904D02*
X147571428Y-51859523D01*
X147533333Y-51935714D01*
X147495238Y-51973809D01*
X147419047Y-52011904D01*
X147266666Y-52011904D01*
X147190476Y-51973809D01*
X147152380Y-51935714D01*
X147114285Y-51859523D01*
X147114285Y-51211904D01*
X146771428Y-51288095D02*
X146733333Y-51250000D01*
X146657142Y-51211904D01*
X146466666Y-51211904D01*
X146390476Y-51250000D01*
X146352380Y-51288095D01*
X146314285Y-51364285D01*
X146314285Y-51440476D01*
X146352380Y-51554761D01*
X146809523Y-52011904D01*
X146314285Y-52011904D01*
X145819047Y-51211904D02*
X145742857Y-51211904D01*
X145666666Y-51250000D01*
X145628571Y-51288095D01*
X145590476Y-51364285D01*
X145552380Y-51516666D01*
X145552380Y-51707142D01*
X145590476Y-51859523D01*
X145628571Y-51935714D01*
X145666666Y-51973809D01*
X145742857Y-52011904D01*
X145819047Y-52011904D01*
X145895238Y-51973809D01*
X145933333Y-51935714D01*
X145971428Y-51859523D01*
X146009523Y-51707142D01*
X146009523Y-51516666D01*
X145971428Y-51364285D01*
X145933333Y-51288095D01*
X145895238Y-51250000D01*
X145819047Y-51211904D01*
X145247619Y-51288095D02*
X145209523Y-51250000D01*
X145133333Y-51211904D01*
X144942857Y-51211904D01*
X144866666Y-51250000D01*
X144828571Y-51288095D01*
X144790476Y-51364285D01*
X144790476Y-51440476D01*
X144828571Y-51554761D01*
X145285714Y-52011904D01*
X144790476Y-52011904D01*
X134661904Y-69104761D02*
X134280952Y-68838095D01*
X134661904Y-68647619D02*
X133861904Y-68647619D01*
X133861904Y-68952380D01*
X133900000Y-69028571D01*
X133938095Y-69066666D01*
X134014285Y-69104761D01*
X134128571Y-69104761D01*
X134204761Y-69066666D01*
X134242857Y-69028571D01*
X134280952Y-68952380D01*
X134280952Y-68647619D01*
X133938095Y-69409523D02*
X133900000Y-69447619D01*
X133861904Y-69523809D01*
X133861904Y-69714285D01*
X133900000Y-69790476D01*
X133938095Y-69828571D01*
X134014285Y-69866666D01*
X134090476Y-69866666D01*
X134204761Y-69828571D01*
X134661904Y-69371428D01*
X134661904Y-69866666D01*
X134661904Y-70628571D02*
X134661904Y-70171428D01*
X134661904Y-70400000D02*
X133861904Y-70400000D01*
X133976190Y-70323809D01*
X134052380Y-70247619D01*
X134090476Y-70171428D01*
X133861904Y-70895238D02*
X133861904Y-71428571D01*
X134661904Y-71085714D01*
X128377904Y-56479761D02*
X127996952Y-56213095D01*
X128377904Y-56022619D02*
X127577904Y-56022619D01*
X127577904Y-56327380D01*
X127616000Y-56403571D01*
X127654095Y-56441666D01*
X127730285Y-56479761D01*
X127844571Y-56479761D01*
X127920761Y-56441666D01*
X127958857Y-56403571D01*
X127996952Y-56327380D01*
X127996952Y-56022619D01*
X127654095Y-56784523D02*
X127616000Y-56822619D01*
X127577904Y-56898809D01*
X127577904Y-57089285D01*
X127616000Y-57165476D01*
X127654095Y-57203571D01*
X127730285Y-57241666D01*
X127806476Y-57241666D01*
X127920761Y-57203571D01*
X128377904Y-56746428D01*
X128377904Y-57241666D01*
X127577904Y-57736904D02*
X127577904Y-57813095D01*
X127616000Y-57889285D01*
X127654095Y-57927380D01*
X127730285Y-57965476D01*
X127882666Y-58003571D01*
X128073142Y-58003571D01*
X128225523Y-57965476D01*
X128301714Y-57927380D01*
X128339809Y-57889285D01*
X128377904Y-57813095D01*
X128377904Y-57736904D01*
X128339809Y-57660714D01*
X128301714Y-57622619D01*
X128225523Y-57584523D01*
X128073142Y-57546428D01*
X127882666Y-57546428D01*
X127730285Y-57584523D01*
X127654095Y-57622619D01*
X127616000Y-57660714D01*
X127577904Y-57736904D01*
X127577904Y-58727380D02*
X127577904Y-58346428D01*
X127958857Y-58308333D01*
X127920761Y-58346428D01*
X127882666Y-58422619D01*
X127882666Y-58613095D01*
X127920761Y-58689285D01*
X127958857Y-58727380D01*
X128035047Y-58765476D01*
X128225523Y-58765476D01*
X128301714Y-58727380D01*
X128339809Y-58689285D01*
X128377904Y-58613095D01*
X128377904Y-58422619D01*
X128339809Y-58346428D01*
X128301714Y-58308333D01*
X147070238Y-49586904D02*
X147336904Y-49205952D01*
X147527380Y-49586904D02*
X147527380Y-48786904D01*
X147222619Y-48786904D01*
X147146428Y-48825000D01*
X147108333Y-48863095D01*
X147070238Y-48939285D01*
X147070238Y-49053571D01*
X147108333Y-49129761D01*
X147146428Y-49167857D01*
X147222619Y-49205952D01*
X147527380Y-49205952D01*
X146765476Y-48863095D02*
X146727380Y-48825000D01*
X146651190Y-48786904D01*
X146460714Y-48786904D01*
X146384523Y-48825000D01*
X146346428Y-48863095D01*
X146308333Y-48939285D01*
X146308333Y-49015476D01*
X146346428Y-49129761D01*
X146803571Y-49586904D01*
X146308333Y-49586904D01*
X145546428Y-49586904D02*
X146003571Y-49586904D01*
X145775000Y-49586904D02*
X145775000Y-48786904D01*
X145851190Y-48901190D01*
X145927380Y-48977380D01*
X146003571Y-49015476D01*
X144822619Y-48786904D02*
X145203571Y-48786904D01*
X145241666Y-49167857D01*
X145203571Y-49129761D01*
X145127380Y-49091666D01*
X144936904Y-49091666D01*
X144860714Y-49129761D01*
X144822619Y-49167857D01*
X144784523Y-49244047D01*
X144784523Y-49434523D01*
X144822619Y-49510714D01*
X144860714Y-49548809D01*
X144936904Y-49586904D01*
X145127380Y-49586904D01*
X145203571Y-49548809D01*
X145241666Y-49510714D01*
X85945238Y-71461904D02*
X86211904Y-71080952D01*
X86402380Y-71461904D02*
X86402380Y-70661904D01*
X86097619Y-70661904D01*
X86021428Y-70700000D01*
X85983333Y-70738095D01*
X85945238Y-70814285D01*
X85945238Y-70928571D01*
X85983333Y-71004761D01*
X86021428Y-71042857D01*
X86097619Y-71080952D01*
X86402380Y-71080952D01*
X85640476Y-70738095D02*
X85602380Y-70700000D01*
X85526190Y-70661904D01*
X85335714Y-70661904D01*
X85259523Y-70700000D01*
X85221428Y-70738095D01*
X85183333Y-70814285D01*
X85183333Y-70890476D01*
X85221428Y-71004761D01*
X85678571Y-71461904D01*
X85183333Y-71461904D01*
X84421428Y-71461904D02*
X84878571Y-71461904D01*
X84650000Y-71461904D02*
X84650000Y-70661904D01*
X84726190Y-70776190D01*
X84802380Y-70852380D01*
X84878571Y-70890476D01*
X84040476Y-71461904D02*
X83888095Y-71461904D01*
X83811904Y-71423809D01*
X83773809Y-71385714D01*
X83697619Y-71271428D01*
X83659523Y-71119047D01*
X83659523Y-70814285D01*
X83697619Y-70738095D01*
X83735714Y-70700000D01*
X83811904Y-70661904D01*
X83964285Y-70661904D01*
X84040476Y-70700000D01*
X84078571Y-70738095D01*
X84116666Y-70814285D01*
X84116666Y-71004761D01*
X84078571Y-71080952D01*
X84040476Y-71119047D01*
X83964285Y-71157142D01*
X83811904Y-71157142D01*
X83735714Y-71119047D01*
X83697619Y-71080952D01*
X83659523Y-71004761D01*
X66653571Y-73386904D02*
X66653571Y-73958333D01*
X66691666Y-74072619D01*
X66767857Y-74148809D01*
X66882142Y-74186904D01*
X66958333Y-74186904D01*
X66310714Y-73463095D02*
X66272619Y-73425000D01*
X66196428Y-73386904D01*
X66005952Y-73386904D01*
X65929761Y-73425000D01*
X65891666Y-73463095D01*
X65853571Y-73539285D01*
X65853571Y-73615476D01*
X65891666Y-73729761D01*
X66348809Y-74186904D01*
X65853571Y-74186904D01*
X65358333Y-73386904D02*
X65282142Y-73386904D01*
X65205952Y-73425000D01*
X65167857Y-73463095D01*
X65129761Y-73539285D01*
X65091666Y-73691666D01*
X65091666Y-73882142D01*
X65129761Y-74034523D01*
X65167857Y-74110714D01*
X65205952Y-74148809D01*
X65282142Y-74186904D01*
X65358333Y-74186904D01*
X65434523Y-74148809D01*
X65472619Y-74110714D01*
X65510714Y-74034523D01*
X65548809Y-73882142D01*
X65548809Y-73691666D01*
X65510714Y-73539285D01*
X65472619Y-73463095D01*
X65434523Y-73425000D01*
X65358333Y-73386904D01*
X64825000Y-73386904D02*
X64329761Y-73386904D01*
X64596428Y-73691666D01*
X64482142Y-73691666D01*
X64405952Y-73729761D01*
X64367857Y-73767857D01*
X64329761Y-73844047D01*
X64329761Y-74034523D01*
X64367857Y-74110714D01*
X64405952Y-74148809D01*
X64482142Y-74186904D01*
X64710714Y-74186904D01*
X64786904Y-74148809D01*
X64825000Y-74110714D01*
X97254904Y-60084761D02*
X96873952Y-59818095D01*
X97254904Y-59627619D02*
X96454904Y-59627619D01*
X96454904Y-59932380D01*
X96493000Y-60008571D01*
X96531095Y-60046666D01*
X96607285Y-60084761D01*
X96721571Y-60084761D01*
X96797761Y-60046666D01*
X96835857Y-60008571D01*
X96873952Y-59932380D01*
X96873952Y-59627619D01*
X96531095Y-60389523D02*
X96493000Y-60427619D01*
X96454904Y-60503809D01*
X96454904Y-60694285D01*
X96493000Y-60770476D01*
X96531095Y-60808571D01*
X96607285Y-60846666D01*
X96683476Y-60846666D01*
X96797761Y-60808571D01*
X97254904Y-60351428D01*
X97254904Y-60846666D01*
X97254904Y-61608571D02*
X97254904Y-61151428D01*
X97254904Y-61380000D02*
X96454904Y-61380000D01*
X96569190Y-61303809D01*
X96645380Y-61227619D01*
X96683476Y-61151428D01*
X97254904Y-62370476D02*
X97254904Y-61913333D01*
X97254904Y-62141904D02*
X96454904Y-62141904D01*
X96569190Y-62065714D01*
X96645380Y-61989523D01*
X96683476Y-61913333D01*
X90745238Y-60811904D02*
X91126190Y-60811904D01*
X91126190Y-60011904D01*
X90516666Y-60088095D02*
X90478571Y-60050000D01*
X90402380Y-60011904D01*
X90211904Y-60011904D01*
X90135714Y-60050000D01*
X90097619Y-60088095D01*
X90059523Y-60164285D01*
X90059523Y-60240476D01*
X90097619Y-60354761D01*
X90554761Y-60811904D01*
X90059523Y-60811904D01*
X89564285Y-60011904D02*
X89488095Y-60011904D01*
X89411904Y-60050000D01*
X89373809Y-60088095D01*
X89335714Y-60164285D01*
X89297619Y-60316666D01*
X89297619Y-60507142D01*
X89335714Y-60659523D01*
X89373809Y-60735714D01*
X89411904Y-60773809D01*
X89488095Y-60811904D01*
X89564285Y-60811904D01*
X89640476Y-60773809D01*
X89678571Y-60735714D01*
X89716666Y-60659523D01*
X89754761Y-60507142D01*
X89754761Y-60316666D01*
X89716666Y-60164285D01*
X89678571Y-60088095D01*
X89640476Y-60050000D01*
X89564285Y-60011904D01*
X88535714Y-60811904D02*
X88992857Y-60811904D01*
X88764285Y-60811904D02*
X88764285Y-60011904D01*
X88840476Y-60126190D01*
X88916666Y-60202380D01*
X88992857Y-60240476D01*
D10*
X117902380Y-64077380D02*
X117426190Y-63744047D01*
X117902380Y-63505952D02*
X116902380Y-63505952D01*
X116902380Y-63886904D01*
X116950000Y-63982142D01*
X116997619Y-64029761D01*
X117092857Y-64077380D01*
X117235714Y-64077380D01*
X117330952Y-64029761D01*
X117378571Y-63982142D01*
X117426190Y-63886904D01*
X117426190Y-63505952D01*
X116902380Y-64363095D02*
X117902380Y-64696428D01*
X116902380Y-65029761D01*
X116997619Y-65315476D02*
X116950000Y-65363095D01*
X116902380Y-65458333D01*
X116902380Y-65696428D01*
X116950000Y-65791666D01*
X116997619Y-65839285D01*
X117092857Y-65886904D01*
X117188095Y-65886904D01*
X117330952Y-65839285D01*
X117902380Y-65267857D01*
X117902380Y-65886904D01*
X116902380Y-66505952D02*
X116902380Y-66601190D01*
X116950000Y-66696428D01*
X116997619Y-66744047D01*
X117092857Y-66791666D01*
X117283333Y-66839285D01*
X117521428Y-66839285D01*
X117711904Y-66791666D01*
X117807142Y-66744047D01*
X117854761Y-66696428D01*
X117902380Y-66601190D01*
X117902380Y-66505952D01*
X117854761Y-66410714D01*
X117807142Y-66363095D01*
X117711904Y-66315476D01*
X117521428Y-66267857D01*
X117283333Y-66267857D01*
X117092857Y-66315476D01*
X116997619Y-66363095D01*
X116950000Y-66410714D01*
X116902380Y-66505952D01*
X117235714Y-67696428D02*
X117902380Y-67696428D01*
X116854761Y-67458333D02*
X117569047Y-67220238D01*
X117569047Y-67839285D01*
D12*
X70785714Y-58917261D02*
X70823809Y-58879166D01*
X70861904Y-58764880D01*
X70861904Y-58688690D01*
X70823809Y-58574404D01*
X70747619Y-58498214D01*
X70671428Y-58460119D01*
X70519047Y-58422023D01*
X70404761Y-58422023D01*
X70252380Y-58460119D01*
X70176190Y-58498214D01*
X70100000Y-58574404D01*
X70061904Y-58688690D01*
X70061904Y-58764880D01*
X70100000Y-58879166D01*
X70138095Y-58917261D01*
X70138095Y-59222023D02*
X70100000Y-59260119D01*
X70061904Y-59336309D01*
X70061904Y-59526785D01*
X70100000Y-59602976D01*
X70138095Y-59641071D01*
X70214285Y-59679166D01*
X70290476Y-59679166D01*
X70404761Y-59641071D01*
X70861904Y-59183928D01*
X70861904Y-59679166D01*
X70061904Y-60174404D02*
X70061904Y-60250595D01*
X70100000Y-60326785D01*
X70138095Y-60364880D01*
X70214285Y-60402976D01*
X70366666Y-60441071D01*
X70557142Y-60441071D01*
X70709523Y-60402976D01*
X70785714Y-60364880D01*
X70823809Y-60326785D01*
X70861904Y-60250595D01*
X70861904Y-60174404D01*
X70823809Y-60098214D01*
X70785714Y-60060119D01*
X70709523Y-60022023D01*
X70557142Y-59983928D01*
X70366666Y-59983928D01*
X70214285Y-60022023D01*
X70138095Y-60060119D01*
X70100000Y-60098214D01*
X70061904Y-60174404D01*
X70061904Y-60707738D02*
X70061904Y-61202976D01*
X70366666Y-60936309D01*
X70366666Y-61050595D01*
X70404761Y-61126785D01*
X70442857Y-61164880D01*
X70519047Y-61202976D01*
X70709523Y-61202976D01*
X70785714Y-61164880D01*
X70823809Y-61126785D01*
X70861904Y-61050595D01*
X70861904Y-60822023D01*
X70823809Y-60745833D01*
X70785714Y-60707738D01*
X97313714Y-64357761D02*
X97351809Y-64319666D01*
X97389904Y-64205380D01*
X97389904Y-64129190D01*
X97351809Y-64014904D01*
X97275619Y-63938714D01*
X97199428Y-63900619D01*
X97047047Y-63862523D01*
X96932761Y-63862523D01*
X96780380Y-63900619D01*
X96704190Y-63938714D01*
X96628000Y-64014904D01*
X96589904Y-64129190D01*
X96589904Y-64205380D01*
X96628000Y-64319666D01*
X96666095Y-64357761D01*
X96666095Y-64662523D02*
X96628000Y-64700619D01*
X96589904Y-64776809D01*
X96589904Y-64967285D01*
X96628000Y-65043476D01*
X96666095Y-65081571D01*
X96742285Y-65119666D01*
X96818476Y-65119666D01*
X96932761Y-65081571D01*
X97389904Y-64624428D01*
X97389904Y-65119666D01*
X96589904Y-65614904D02*
X96589904Y-65691095D01*
X96628000Y-65767285D01*
X96666095Y-65805380D01*
X96742285Y-65843476D01*
X96894666Y-65881571D01*
X97085142Y-65881571D01*
X97237523Y-65843476D01*
X97313714Y-65805380D01*
X97351809Y-65767285D01*
X97389904Y-65691095D01*
X97389904Y-65614904D01*
X97351809Y-65538714D01*
X97313714Y-65500619D01*
X97237523Y-65462523D01*
X97085142Y-65424428D01*
X96894666Y-65424428D01*
X96742285Y-65462523D01*
X96666095Y-65500619D01*
X96628000Y-65538714D01*
X96589904Y-65614904D01*
X97389904Y-66262523D02*
X97389904Y-66414904D01*
X97351809Y-66491095D01*
X97313714Y-66529190D01*
X97199428Y-66605380D01*
X97047047Y-66643476D01*
X96742285Y-66643476D01*
X96666095Y-66605380D01*
X96628000Y-66567285D01*
X96589904Y-66491095D01*
X96589904Y-66338714D01*
X96628000Y-66262523D01*
X96666095Y-66224428D01*
X96742285Y-66186333D01*
X96932761Y-66186333D01*
X97008952Y-66224428D01*
X97047047Y-66262523D01*
X97085142Y-66338714D01*
X97085142Y-66491095D01*
X97047047Y-66567285D01*
X97008952Y-66605380D01*
X96932761Y-66643476D01*
X115770238Y-62586904D02*
X116036904Y-62205952D01*
X116227380Y-62586904D02*
X116227380Y-61786904D01*
X115922619Y-61786904D01*
X115846428Y-61825000D01*
X115808333Y-61863095D01*
X115770238Y-61939285D01*
X115770238Y-62053571D01*
X115808333Y-62129761D01*
X115846428Y-62167857D01*
X115922619Y-62205952D01*
X116227380Y-62205952D01*
X115465476Y-61863095D02*
X115427380Y-61825000D01*
X115351190Y-61786904D01*
X115160714Y-61786904D01*
X115084523Y-61825000D01*
X115046428Y-61863095D01*
X115008333Y-61939285D01*
X115008333Y-62015476D01*
X115046428Y-62129761D01*
X115503571Y-62586904D01*
X115008333Y-62586904D01*
X114513095Y-61786904D02*
X114436904Y-61786904D01*
X114360714Y-61825000D01*
X114322619Y-61863095D01*
X114284523Y-61939285D01*
X114246428Y-62091666D01*
X114246428Y-62282142D01*
X114284523Y-62434523D01*
X114322619Y-62510714D01*
X114360714Y-62548809D01*
X114436904Y-62586904D01*
X114513095Y-62586904D01*
X114589285Y-62548809D01*
X114627380Y-62510714D01*
X114665476Y-62434523D01*
X114703571Y-62282142D01*
X114703571Y-62091666D01*
X114665476Y-61939285D01*
X114627380Y-61863095D01*
X114589285Y-61825000D01*
X114513095Y-61786904D01*
X113979761Y-61786904D02*
X113446428Y-61786904D01*
X113789285Y-62586904D01*
X99136904Y-73579761D02*
X98755952Y-73313095D01*
X99136904Y-73122619D02*
X98336904Y-73122619D01*
X98336904Y-73427380D01*
X98375000Y-73503571D01*
X98413095Y-73541666D01*
X98489285Y-73579761D01*
X98603571Y-73579761D01*
X98679761Y-73541666D01*
X98717857Y-73503571D01*
X98755952Y-73427380D01*
X98755952Y-73122619D01*
X98413095Y-73884523D02*
X98375000Y-73922619D01*
X98336904Y-73998809D01*
X98336904Y-74189285D01*
X98375000Y-74265476D01*
X98413095Y-74303571D01*
X98489285Y-74341666D01*
X98565476Y-74341666D01*
X98679761Y-74303571D01*
X99136904Y-73846428D01*
X99136904Y-74341666D01*
X98336904Y-74836904D02*
X98336904Y-74913095D01*
X98375000Y-74989285D01*
X98413095Y-75027380D01*
X98489285Y-75065476D01*
X98641666Y-75103571D01*
X98832142Y-75103571D01*
X98984523Y-75065476D01*
X99060714Y-75027380D01*
X99098809Y-74989285D01*
X99136904Y-74913095D01*
X99136904Y-74836904D01*
X99098809Y-74760714D01*
X99060714Y-74722619D01*
X98984523Y-74684523D01*
X98832142Y-74646428D01*
X98641666Y-74646428D01*
X98489285Y-74684523D01*
X98413095Y-74722619D01*
X98375000Y-74760714D01*
X98336904Y-74836904D01*
X98336904Y-75370238D02*
X98336904Y-75865476D01*
X98641666Y-75598809D01*
X98641666Y-75713095D01*
X98679761Y-75789285D01*
X98717857Y-75827380D01*
X98794047Y-75865476D01*
X98984523Y-75865476D01*
X99060714Y-75827380D01*
X99098809Y-75789285D01*
X99136904Y-75713095D01*
X99136904Y-75484523D01*
X99098809Y-75408333D01*
X99060714Y-75370238D01*
X106845238Y-71636904D02*
X107111904Y-71255952D01*
X107302380Y-71636904D02*
X107302380Y-70836904D01*
X106997619Y-70836904D01*
X106921428Y-70875000D01*
X106883333Y-70913095D01*
X106845238Y-70989285D01*
X106845238Y-71103571D01*
X106883333Y-71179761D01*
X106921428Y-71217857D01*
X106997619Y-71255952D01*
X107302380Y-71255952D01*
X106540476Y-70913095D02*
X106502380Y-70875000D01*
X106426190Y-70836904D01*
X106235714Y-70836904D01*
X106159523Y-70875000D01*
X106121428Y-70913095D01*
X106083333Y-70989285D01*
X106083333Y-71065476D01*
X106121428Y-71179761D01*
X106578571Y-71636904D01*
X106083333Y-71636904D01*
X105588095Y-70836904D02*
X105511904Y-70836904D01*
X105435714Y-70875000D01*
X105397619Y-70913095D01*
X105359523Y-70989285D01*
X105321428Y-71141666D01*
X105321428Y-71332142D01*
X105359523Y-71484523D01*
X105397619Y-71560714D01*
X105435714Y-71598809D01*
X105511904Y-71636904D01*
X105588095Y-71636904D01*
X105664285Y-71598809D01*
X105702380Y-71560714D01*
X105740476Y-71484523D01*
X105778571Y-71332142D01*
X105778571Y-71141666D01*
X105740476Y-70989285D01*
X105702380Y-70913095D01*
X105664285Y-70875000D01*
X105588095Y-70836904D01*
X104940476Y-71636904D02*
X104788095Y-71636904D01*
X104711904Y-71598809D01*
X104673809Y-71560714D01*
X104597619Y-71446428D01*
X104559523Y-71294047D01*
X104559523Y-70989285D01*
X104597619Y-70913095D01*
X104635714Y-70875000D01*
X104711904Y-70836904D01*
X104864285Y-70836904D01*
X104940476Y-70875000D01*
X104978571Y-70913095D01*
X105016666Y-70989285D01*
X105016666Y-71179761D01*
X104978571Y-71255952D01*
X104940476Y-71294047D01*
X104864285Y-71332142D01*
X104711904Y-71332142D01*
X104635714Y-71294047D01*
X104597619Y-71255952D01*
X104559523Y-71179761D01*
D10*
X117827380Y-55377380D02*
X117351190Y-55044047D01*
X117827380Y-54805952D02*
X116827380Y-54805952D01*
X116827380Y-55186904D01*
X116875000Y-55282142D01*
X116922619Y-55329761D01*
X117017857Y-55377380D01*
X117160714Y-55377380D01*
X117255952Y-55329761D01*
X117303571Y-55282142D01*
X117351190Y-55186904D01*
X117351190Y-54805952D01*
X116827380Y-55663095D02*
X117827380Y-55996428D01*
X116827380Y-56329761D01*
X116922619Y-56615476D02*
X116875000Y-56663095D01*
X116827380Y-56758333D01*
X116827380Y-56996428D01*
X116875000Y-57091666D01*
X116922619Y-57139285D01*
X117017857Y-57186904D01*
X117113095Y-57186904D01*
X117255952Y-57139285D01*
X117827380Y-56567857D01*
X117827380Y-57186904D01*
X116827380Y-57805952D02*
X116827380Y-57901190D01*
X116875000Y-57996428D01*
X116922619Y-58044047D01*
X117017857Y-58091666D01*
X117208333Y-58139285D01*
X117446428Y-58139285D01*
X117636904Y-58091666D01*
X117732142Y-58044047D01*
X117779761Y-57996428D01*
X117827380Y-57901190D01*
X117827380Y-57805952D01*
X117779761Y-57710714D01*
X117732142Y-57663095D01*
X117636904Y-57615476D01*
X117446428Y-57567857D01*
X117208333Y-57567857D01*
X117017857Y-57615476D01*
X116922619Y-57663095D01*
X116875000Y-57710714D01*
X116827380Y-57805952D01*
X116827380Y-58472619D02*
X116827380Y-59091666D01*
X117208333Y-58758333D01*
X117208333Y-58901190D01*
X117255952Y-58996428D01*
X117303571Y-59044047D01*
X117398809Y-59091666D01*
X117636904Y-59091666D01*
X117732142Y-59044047D01*
X117779761Y-58996428D01*
X117827380Y-58901190D01*
X117827380Y-58615476D01*
X117779761Y-58520238D01*
X117732142Y-58472619D01*
D12*
X106870238Y-62636904D02*
X107136904Y-62255952D01*
X107327380Y-62636904D02*
X107327380Y-61836904D01*
X107022619Y-61836904D01*
X106946428Y-61875000D01*
X106908333Y-61913095D01*
X106870238Y-61989285D01*
X106870238Y-62103571D01*
X106908333Y-62179761D01*
X106946428Y-62217857D01*
X107022619Y-62255952D01*
X107327380Y-62255952D01*
X106565476Y-61913095D02*
X106527380Y-61875000D01*
X106451190Y-61836904D01*
X106260714Y-61836904D01*
X106184523Y-61875000D01*
X106146428Y-61913095D01*
X106108333Y-61989285D01*
X106108333Y-62065476D01*
X106146428Y-62179761D01*
X106603571Y-62636904D01*
X106108333Y-62636904D01*
X105613095Y-61836904D02*
X105536904Y-61836904D01*
X105460714Y-61875000D01*
X105422619Y-61913095D01*
X105384523Y-61989285D01*
X105346428Y-62141666D01*
X105346428Y-62332142D01*
X105384523Y-62484523D01*
X105422619Y-62560714D01*
X105460714Y-62598809D01*
X105536904Y-62636904D01*
X105613095Y-62636904D01*
X105689285Y-62598809D01*
X105727380Y-62560714D01*
X105765476Y-62484523D01*
X105803571Y-62332142D01*
X105803571Y-62141666D01*
X105765476Y-61989285D01*
X105727380Y-61913095D01*
X105689285Y-61875000D01*
X105613095Y-61836904D01*
X104660714Y-61836904D02*
X104813095Y-61836904D01*
X104889285Y-61875000D01*
X104927380Y-61913095D01*
X105003571Y-62027380D01*
X105041666Y-62179761D01*
X105041666Y-62484523D01*
X105003571Y-62560714D01*
X104965476Y-62598809D01*
X104889285Y-62636904D01*
X104736904Y-62636904D01*
X104660714Y-62598809D01*
X104622619Y-62560714D01*
X104584523Y-62484523D01*
X104584523Y-62294047D01*
X104622619Y-62217857D01*
X104660714Y-62179761D01*
X104736904Y-62141666D01*
X104889285Y-62141666D01*
X104965476Y-62179761D01*
X105003571Y-62217857D01*
X105041666Y-62294047D01*
X85441904Y-73834761D02*
X85060952Y-73568095D01*
X85441904Y-73377619D02*
X84641904Y-73377619D01*
X84641904Y-73682380D01*
X84680000Y-73758571D01*
X84718095Y-73796666D01*
X84794285Y-73834761D01*
X84908571Y-73834761D01*
X84984761Y-73796666D01*
X85022857Y-73758571D01*
X85060952Y-73682380D01*
X85060952Y-73377619D01*
X84718095Y-74139523D02*
X84680000Y-74177619D01*
X84641904Y-74253809D01*
X84641904Y-74444285D01*
X84680000Y-74520476D01*
X84718095Y-74558571D01*
X84794285Y-74596666D01*
X84870476Y-74596666D01*
X84984761Y-74558571D01*
X85441904Y-74101428D01*
X85441904Y-74596666D01*
X84641904Y-75091904D02*
X84641904Y-75168095D01*
X84680000Y-75244285D01*
X84718095Y-75282380D01*
X84794285Y-75320476D01*
X84946666Y-75358571D01*
X85137142Y-75358571D01*
X85289523Y-75320476D01*
X85365714Y-75282380D01*
X85403809Y-75244285D01*
X85441904Y-75168095D01*
X85441904Y-75091904D01*
X85403809Y-75015714D01*
X85365714Y-74977619D01*
X85289523Y-74939523D01*
X85137142Y-74901428D01*
X84946666Y-74901428D01*
X84794285Y-74939523D01*
X84718095Y-74977619D01*
X84680000Y-75015714D01*
X84641904Y-75091904D01*
X84718095Y-75663333D02*
X84680000Y-75701428D01*
X84641904Y-75777619D01*
X84641904Y-75968095D01*
X84680000Y-76044285D01*
X84718095Y-76082380D01*
X84794285Y-76120476D01*
X84870476Y-76120476D01*
X84984761Y-76082380D01*
X85441904Y-75625238D01*
X85441904Y-76120476D01*
X152188095Y-58161904D02*
X152150000Y-58085714D01*
X152073809Y-58009523D01*
X151959523Y-57895238D01*
X151921428Y-57819047D01*
X151921428Y-57742857D01*
X152111904Y-57780952D02*
X152073809Y-57704761D01*
X151997619Y-57628571D01*
X151845238Y-57590476D01*
X151578571Y-57590476D01*
X151426190Y-57628571D01*
X151350000Y-57704761D01*
X151311904Y-57780952D01*
X151311904Y-57933333D01*
X151350000Y-58009523D01*
X151426190Y-58085714D01*
X151578571Y-58123809D01*
X151845238Y-58123809D01*
X151997619Y-58085714D01*
X152073809Y-58009523D01*
X152111904Y-57933333D01*
X152111904Y-57780952D01*
X151388095Y-58428571D02*
X151350000Y-58466666D01*
X151311904Y-58542857D01*
X151311904Y-58733333D01*
X151350000Y-58809523D01*
X151388095Y-58847619D01*
X151464285Y-58885714D01*
X151540476Y-58885714D01*
X151654761Y-58847619D01*
X152111904Y-58390476D01*
X152111904Y-58885714D01*
X151311904Y-59380952D02*
X151311904Y-59457142D01*
X151350000Y-59533333D01*
X151388095Y-59571428D01*
X151464285Y-59609523D01*
X151616666Y-59647619D01*
X151807142Y-59647619D01*
X151959523Y-59609523D01*
X152035714Y-59571428D01*
X152073809Y-59533333D01*
X152111904Y-59457142D01*
X152111904Y-59380952D01*
X152073809Y-59304761D01*
X152035714Y-59266666D01*
X151959523Y-59228571D01*
X151807142Y-59190476D01*
X151616666Y-59190476D01*
X151464285Y-59228571D01*
X151388095Y-59266666D01*
X151350000Y-59304761D01*
X151311904Y-59380952D01*
X152111904Y-60409523D02*
X152111904Y-59952380D01*
X152111904Y-60180952D02*
X151311904Y-60180952D01*
X151426190Y-60104761D01*
X151502380Y-60028571D01*
X151540476Y-59952380D01*
X57885714Y-56397261D02*
X57923809Y-56359166D01*
X57961904Y-56244880D01*
X57961904Y-56168690D01*
X57923809Y-56054404D01*
X57847619Y-55978214D01*
X57771428Y-55940119D01*
X57619047Y-55902023D01*
X57504761Y-55902023D01*
X57352380Y-55940119D01*
X57276190Y-55978214D01*
X57200000Y-56054404D01*
X57161904Y-56168690D01*
X57161904Y-56244880D01*
X57200000Y-56359166D01*
X57238095Y-56397261D01*
X57238095Y-56702023D02*
X57200000Y-56740119D01*
X57161904Y-56816309D01*
X57161904Y-57006785D01*
X57200000Y-57082976D01*
X57238095Y-57121071D01*
X57314285Y-57159166D01*
X57390476Y-57159166D01*
X57504761Y-57121071D01*
X57961904Y-56663928D01*
X57961904Y-57159166D01*
X57161904Y-57654404D02*
X57161904Y-57730595D01*
X57200000Y-57806785D01*
X57238095Y-57844880D01*
X57314285Y-57882976D01*
X57466666Y-57921071D01*
X57657142Y-57921071D01*
X57809523Y-57882976D01*
X57885714Y-57844880D01*
X57923809Y-57806785D01*
X57961904Y-57730595D01*
X57961904Y-57654404D01*
X57923809Y-57578214D01*
X57885714Y-57540119D01*
X57809523Y-57502023D01*
X57657142Y-57463928D01*
X57466666Y-57463928D01*
X57314285Y-57502023D01*
X57238095Y-57540119D01*
X57200000Y-57578214D01*
X57161904Y-57654404D01*
X57238095Y-58225833D02*
X57200000Y-58263928D01*
X57161904Y-58340119D01*
X57161904Y-58530595D01*
X57200000Y-58606785D01*
X57238095Y-58644880D01*
X57314285Y-58682976D01*
X57390476Y-58682976D01*
X57504761Y-58644880D01*
X57961904Y-58187738D01*
X57961904Y-58682976D01*
X83511904Y-63947619D02*
X82711904Y-63947619D01*
X82711904Y-64138095D01*
X82750000Y-64252380D01*
X82826190Y-64328571D01*
X82902380Y-64366666D01*
X83054761Y-64404761D01*
X83169047Y-64404761D01*
X83321428Y-64366666D01*
X83397619Y-64328571D01*
X83473809Y-64252380D01*
X83511904Y-64138095D01*
X83511904Y-63947619D01*
X82788095Y-64709523D02*
X82750000Y-64747619D01*
X82711904Y-64823809D01*
X82711904Y-65014285D01*
X82750000Y-65090476D01*
X82788095Y-65128571D01*
X82864285Y-65166666D01*
X82940476Y-65166666D01*
X83054761Y-65128571D01*
X83511904Y-64671428D01*
X83511904Y-65166666D01*
X82711904Y-65661904D02*
X82711904Y-65738095D01*
X82750000Y-65814285D01*
X82788095Y-65852380D01*
X82864285Y-65890476D01*
X83016666Y-65928571D01*
X83207142Y-65928571D01*
X83359523Y-65890476D01*
X83435714Y-65852380D01*
X83473809Y-65814285D01*
X83511904Y-65738095D01*
X83511904Y-65661904D01*
X83473809Y-65585714D01*
X83435714Y-65547619D01*
X83359523Y-65509523D01*
X83207142Y-65471428D01*
X83016666Y-65471428D01*
X82864285Y-65509523D01*
X82788095Y-65547619D01*
X82750000Y-65585714D01*
X82711904Y-65661904D01*
X82711904Y-66652380D02*
X82711904Y-66271428D01*
X83092857Y-66233333D01*
X83054761Y-66271428D01*
X83016666Y-66347619D01*
X83016666Y-66538095D01*
X83054761Y-66614285D01*
X83092857Y-66652380D01*
X83169047Y-66690476D01*
X83359523Y-66690476D01*
X83435714Y-66652380D01*
X83473809Y-66614285D01*
X83511904Y-66538095D01*
X83511904Y-66347619D01*
X83473809Y-66271428D01*
X83435714Y-66233333D01*
X92715238Y-72651904D02*
X92981904Y-72270952D01*
X93172380Y-72651904D02*
X93172380Y-71851904D01*
X92867619Y-71851904D01*
X92791428Y-71890000D01*
X92753333Y-71928095D01*
X92715238Y-72004285D01*
X92715238Y-72118571D01*
X92753333Y-72194761D01*
X92791428Y-72232857D01*
X92867619Y-72270952D01*
X93172380Y-72270952D01*
X92410476Y-71928095D02*
X92372380Y-71890000D01*
X92296190Y-71851904D01*
X92105714Y-71851904D01*
X92029523Y-71890000D01*
X91991428Y-71928095D01*
X91953333Y-72004285D01*
X91953333Y-72080476D01*
X91991428Y-72194761D01*
X92448571Y-72651904D01*
X91953333Y-72651904D01*
X91458095Y-71851904D02*
X91381904Y-71851904D01*
X91305714Y-71890000D01*
X91267619Y-71928095D01*
X91229523Y-72004285D01*
X91191428Y-72156666D01*
X91191428Y-72347142D01*
X91229523Y-72499523D01*
X91267619Y-72575714D01*
X91305714Y-72613809D01*
X91381904Y-72651904D01*
X91458095Y-72651904D01*
X91534285Y-72613809D01*
X91572380Y-72575714D01*
X91610476Y-72499523D01*
X91648571Y-72347142D01*
X91648571Y-72156666D01*
X91610476Y-72004285D01*
X91572380Y-71928095D01*
X91534285Y-71890000D01*
X91458095Y-71851904D01*
X90505714Y-72118571D02*
X90505714Y-72651904D01*
X90696190Y-71813809D02*
X90886666Y-72385238D01*
X90391428Y-72385238D01*
X97611904Y-47897619D02*
X96811904Y-47897619D01*
X96811904Y-48088095D01*
X96850000Y-48202380D01*
X96926190Y-48278571D01*
X97002380Y-48316666D01*
X97154761Y-48354761D01*
X97269047Y-48354761D01*
X97421428Y-48316666D01*
X97497619Y-48278571D01*
X97573809Y-48202380D01*
X97611904Y-48088095D01*
X97611904Y-47897619D01*
X96888095Y-48659523D02*
X96850000Y-48697619D01*
X96811904Y-48773809D01*
X96811904Y-48964285D01*
X96850000Y-49040476D01*
X96888095Y-49078571D01*
X96964285Y-49116666D01*
X97040476Y-49116666D01*
X97154761Y-49078571D01*
X97611904Y-48621428D01*
X97611904Y-49116666D01*
X96811904Y-49611904D02*
X96811904Y-49688095D01*
X96850000Y-49764285D01*
X96888095Y-49802380D01*
X96964285Y-49840476D01*
X97116666Y-49878571D01*
X97307142Y-49878571D01*
X97459523Y-49840476D01*
X97535714Y-49802380D01*
X97573809Y-49764285D01*
X97611904Y-49688095D01*
X97611904Y-49611904D01*
X97573809Y-49535714D01*
X97535714Y-49497619D01*
X97459523Y-49459523D01*
X97307142Y-49421428D01*
X97116666Y-49421428D01*
X96964285Y-49459523D01*
X96888095Y-49497619D01*
X96850000Y-49535714D01*
X96811904Y-49611904D01*
X96888095Y-50183333D02*
X96850000Y-50221428D01*
X96811904Y-50297619D01*
X96811904Y-50488095D01*
X96850000Y-50564285D01*
X96888095Y-50602380D01*
X96964285Y-50640476D01*
X97040476Y-50640476D01*
X97154761Y-50602380D01*
X97611904Y-50145238D01*
X97611904Y-50640476D01*
X115770238Y-71886904D02*
X116036904Y-71505952D01*
X116227380Y-71886904D02*
X116227380Y-71086904D01*
X115922619Y-71086904D01*
X115846428Y-71125000D01*
X115808333Y-71163095D01*
X115770238Y-71239285D01*
X115770238Y-71353571D01*
X115808333Y-71429761D01*
X115846428Y-71467857D01*
X115922619Y-71505952D01*
X116227380Y-71505952D01*
X115465476Y-71163095D02*
X115427380Y-71125000D01*
X115351190Y-71086904D01*
X115160714Y-71086904D01*
X115084523Y-71125000D01*
X115046428Y-71163095D01*
X115008333Y-71239285D01*
X115008333Y-71315476D01*
X115046428Y-71429761D01*
X115503571Y-71886904D01*
X115008333Y-71886904D01*
X114513095Y-71086904D02*
X114436904Y-71086904D01*
X114360714Y-71125000D01*
X114322619Y-71163095D01*
X114284523Y-71239285D01*
X114246428Y-71391666D01*
X114246428Y-71582142D01*
X114284523Y-71734523D01*
X114322619Y-71810714D01*
X114360714Y-71848809D01*
X114436904Y-71886904D01*
X114513095Y-71886904D01*
X114589285Y-71848809D01*
X114627380Y-71810714D01*
X114665476Y-71734523D01*
X114703571Y-71582142D01*
X114703571Y-71391666D01*
X114665476Y-71239285D01*
X114627380Y-71163095D01*
X114589285Y-71125000D01*
X114513095Y-71086904D01*
X113789285Y-71429761D02*
X113865476Y-71391666D01*
X113903571Y-71353571D01*
X113941666Y-71277380D01*
X113941666Y-71239285D01*
X113903571Y-71163095D01*
X113865476Y-71125000D01*
X113789285Y-71086904D01*
X113636904Y-71086904D01*
X113560714Y-71125000D01*
X113522619Y-71163095D01*
X113484523Y-71239285D01*
X113484523Y-71277380D01*
X113522619Y-71353571D01*
X113560714Y-71391666D01*
X113636904Y-71429761D01*
X113789285Y-71429761D01*
X113865476Y-71467857D01*
X113903571Y-71505952D01*
X113941666Y-71582142D01*
X113941666Y-71734523D01*
X113903571Y-71810714D01*
X113865476Y-71848809D01*
X113789285Y-71886904D01*
X113636904Y-71886904D01*
X113560714Y-71848809D01*
X113522619Y-71810714D01*
X113484523Y-71734523D01*
X113484523Y-71582142D01*
X113522619Y-71505952D01*
X113560714Y-71467857D01*
X113636904Y-71429761D01*
D10*
X108927380Y-55277380D02*
X108451190Y-54944047D01*
X108927380Y-54705952D02*
X107927380Y-54705952D01*
X107927380Y-55086904D01*
X107975000Y-55182142D01*
X108022619Y-55229761D01*
X108117857Y-55277380D01*
X108260714Y-55277380D01*
X108355952Y-55229761D01*
X108403571Y-55182142D01*
X108451190Y-55086904D01*
X108451190Y-54705952D01*
X107927380Y-55563095D02*
X108927380Y-55896428D01*
X107927380Y-56229761D01*
X108022619Y-56515476D02*
X107975000Y-56563095D01*
X107927380Y-56658333D01*
X107927380Y-56896428D01*
X107975000Y-56991666D01*
X108022619Y-57039285D01*
X108117857Y-57086904D01*
X108213095Y-57086904D01*
X108355952Y-57039285D01*
X108927380Y-56467857D01*
X108927380Y-57086904D01*
X107927380Y-57705952D02*
X107927380Y-57801190D01*
X107975000Y-57896428D01*
X108022619Y-57944047D01*
X108117857Y-57991666D01*
X108308333Y-58039285D01*
X108546428Y-58039285D01*
X108736904Y-57991666D01*
X108832142Y-57944047D01*
X108879761Y-57896428D01*
X108927380Y-57801190D01*
X108927380Y-57705952D01*
X108879761Y-57610714D01*
X108832142Y-57563095D01*
X108736904Y-57515476D01*
X108546428Y-57467857D01*
X108308333Y-57467857D01*
X108117857Y-57515476D01*
X108022619Y-57563095D01*
X107975000Y-57610714D01*
X107927380Y-57705952D01*
X108022619Y-58420238D02*
X107975000Y-58467857D01*
X107927380Y-58563095D01*
X107927380Y-58801190D01*
X107975000Y-58896428D01*
X108022619Y-58944047D01*
X108117857Y-58991666D01*
X108213095Y-58991666D01*
X108355952Y-58944047D01*
X108927380Y-58372619D01*
X108927380Y-58991666D01*
D12*
X147128571Y-73261904D02*
X147128571Y-73833333D01*
X147166666Y-73947619D01*
X147242857Y-74023809D01*
X147357142Y-74061904D01*
X147433333Y-74061904D01*
X146785714Y-73338095D02*
X146747619Y-73300000D01*
X146671428Y-73261904D01*
X146480952Y-73261904D01*
X146404761Y-73300000D01*
X146366666Y-73338095D01*
X146328571Y-73414285D01*
X146328571Y-73490476D01*
X146366666Y-73604761D01*
X146823809Y-74061904D01*
X146328571Y-74061904D01*
X145833333Y-73261904D02*
X145757142Y-73261904D01*
X145680952Y-73300000D01*
X145642857Y-73338095D01*
X145604761Y-73414285D01*
X145566666Y-73566666D01*
X145566666Y-73757142D01*
X145604761Y-73909523D01*
X145642857Y-73985714D01*
X145680952Y-74023809D01*
X145757142Y-74061904D01*
X145833333Y-74061904D01*
X145909523Y-74023809D01*
X145947619Y-73985714D01*
X145985714Y-73909523D01*
X146023809Y-73757142D01*
X146023809Y-73566666D01*
X145985714Y-73414285D01*
X145947619Y-73338095D01*
X145909523Y-73300000D01*
X145833333Y-73261904D01*
X144804761Y-74061904D02*
X145261904Y-74061904D01*
X145033333Y-74061904D02*
X145033333Y-73261904D01*
X145109523Y-73376190D01*
X145185714Y-73452380D01*
X145261904Y-73490476D01*
D13*
X141535000Y-72576248D02*
X141535000Y-73098752D01*
X140065000Y-72576248D02*
X140065000Y-73098752D01*
X141535000Y-68261252D02*
X141535000Y-67738748D01*
X140065000Y-68261252D02*
X140065000Y-67738748D01*
X79990000Y-68450000D02*
X79990000Y-67350000D01*
X73210000Y-68450000D02*
X73210000Y-63325000D01*
X71400000Y-69950000D02*
X71400000Y-68450000D01*
X81800000Y-69950000D02*
X81800000Y-68450000D01*
X81800000Y-68450000D02*
X79990000Y-68450000D01*
X71400000Y-68450000D02*
X73210000Y-68450000D01*
X87690000Y-70702500D02*
X90440000Y-70702500D01*
X95145563Y-62182500D02*
X96210000Y-63246937D01*
X96210000Y-63246937D02*
X96210000Y-70702500D01*
X95145563Y-62182500D02*
X93460000Y-62182500D01*
X88754437Y-62182500D02*
X87690000Y-63246937D01*
X96210000Y-70702500D02*
X93460000Y-70702500D01*
X87690000Y-63246937D02*
X87690000Y-70702500D01*
X88754437Y-62182500D02*
X90440000Y-62182500D01*
X88940000Y-61442500D02*
X89940000Y-61442500D01*
X89440000Y-60942500D02*
X89440000Y-61942500D01*
X104350000Y-63775000D02*
X104950000Y-63775000D01*
X107750000Y-67575000D02*
X107750000Y-68275000D01*
X107550000Y-63775000D02*
X106950000Y-63775000D01*
X107750000Y-68275000D02*
X107050000Y-68275000D01*
X106150000Y-67775000D02*
X105750000Y-67775000D01*
X107550000Y-66675000D02*
X107550000Y-63775000D01*
X104350000Y-66675000D02*
X104350000Y-63775000D01*
X142785000Y-53653733D02*
X142785000Y-53946267D01*
X141765000Y-53653733D02*
X141765000Y-53946267D01*
X109215000Y-65302064D02*
X109215000Y-64847936D01*
X110685000Y-65302064D02*
X110685000Y-64847936D01*
X81800000Y-55000000D02*
X81800000Y-56500000D01*
X71400000Y-56500000D02*
X72350000Y-56500000D01*
X81800000Y-56500000D02*
X80850000Y-56500000D01*
X71400000Y-55000000D02*
X71400000Y-56500000D01*
X72350000Y-56500000D02*
X72350000Y-57600000D01*
X80850000Y-56500000D02*
X80850000Y-61625000D01*
X125865000Y-53372936D02*
X125865000Y-53827064D01*
X127335000Y-53372936D02*
X127335000Y-53827064D01*
X151254724Y-55272500D02*
X150745276Y-55272500D01*
X151254724Y-54227500D02*
X150745276Y-54227500D01*
X85311252Y-60265000D02*
X84788748Y-60265000D01*
X85311252Y-61735000D02*
X84788748Y-61735000D01*
X145300000Y-52190000D02*
X147100000Y-52190000D01*
X147100000Y-55410000D02*
X144150000Y-55410000D01*
X133522500Y-70254724D02*
X133522500Y-69745276D01*
X132477500Y-70254724D02*
X132477500Y-69745276D01*
X127360000Y-57802064D02*
X127360000Y-57347936D01*
X125890000Y-57802064D02*
X125890000Y-57347936D01*
X146429724Y-49852500D02*
X145920276Y-49852500D01*
X146429724Y-50897500D02*
X145920276Y-50897500D01*
X85277064Y-68865000D02*
X84822936Y-68865000D01*
X85277064Y-70335000D02*
X84822936Y-70335000D01*
X67150000Y-73040000D02*
X57150000Y-73040000D01*
X58150000Y-62880000D02*
X58150000Y-73040000D01*
X57150000Y-73040000D02*
X57150000Y-62880000D01*
X57150000Y-62880000D02*
X67150000Y-62880000D01*
X67150000Y-62880000D02*
X67150000Y-73040000D01*
X99033000Y-61187064D02*
X99033000Y-60732936D01*
X97563000Y-61187064D02*
X97563000Y-60732936D01*
X83700000Y-59300000D02*
X86700000Y-59300000D01*
X86700000Y-46700000D02*
X83700000Y-46700000D01*
X83700000Y-46700000D02*
X83700000Y-59300000D01*
X93300000Y-59300000D02*
X96300000Y-59300000D01*
X96300000Y-59300000D02*
X96300000Y-46700000D01*
X96300000Y-46700000D02*
X93300000Y-46700000D01*
G36*
X109858014Y-72289234D02*
G01*
X109958888Y-72290785D01*
X110035725Y-72295339D01*
X110099199Y-72304216D01*
X110159984Y-72318742D01*
X110228754Y-72340238D01*
X110424234Y-72420744D01*
X110602109Y-72529504D01*
X110765885Y-72670264D01*
X110848891Y-72759751D01*
X110981353Y-72942594D01*
X111080061Y-73139136D01*
X111144373Y-73345849D01*
X111173647Y-73559206D01*
X111167241Y-73775676D01*
X111124514Y-73991734D01*
X111044823Y-74203849D01*
X111036552Y-74221138D01*
X110934770Y-74399564D01*
X110814844Y-74556345D01*
X110682904Y-74683361D01*
X110655611Y-74704298D01*
X110558046Y-74768646D01*
X110444511Y-74832008D01*
X110326530Y-74888701D01*
X110215625Y-74933041D01*
X110123320Y-74959347D01*
X110080843Y-74967614D01*
X110019612Y-74979555D01*
X109979547Y-74987399D01*
X109962726Y-74990355D01*
X109850464Y-74997959D01*
X109717320Y-74991258D01*
X109575110Y-74971786D01*
X109435649Y-74941074D01*
X109310753Y-74900656D01*
X109198058Y-74848310D01*
X109034678Y-74745756D01*
X108881222Y-74619476D01*
X108747159Y-74477574D01*
X108641962Y-74328159D01*
X108637077Y-74319700D01*
X108541443Y-74115320D01*
X108481728Y-73901240D01*
X108458043Y-73681310D01*
X108470500Y-73459378D01*
X108519210Y-73239293D01*
X108604284Y-73024906D01*
X108605109Y-73023228D01*
X108656018Y-72926402D01*
X108706688Y-72847759D01*
X108767246Y-72773341D01*
X108847819Y-72689187D01*
X108916026Y-72624287D01*
X109066699Y-72504499D01*
X109225799Y-72412141D01*
X109404452Y-72340238D01*
X109429251Y-72332111D01*
X109494129Y-72313119D01*
X109554628Y-72300650D01*
X109621424Y-72293382D01*
X109705191Y-72289991D01*
X109816603Y-72289155D01*
X109858014Y-72289234D01*
G37*
G36*
X100921811Y-72629209D02*
G01*
X101156289Y-72652831D01*
X101362366Y-72696232D01*
X101538131Y-72758938D01*
X101682649Y-72840527D01*
X101794985Y-72940577D01*
X101874204Y-73058667D01*
X101897326Y-73109239D01*
X101916658Y-73168982D01*
X101925748Y-73234520D01*
X101927894Y-73322038D01*
X101924386Y-73404051D01*
X101903680Y-73510759D01*
X101860782Y-73600267D01*
X101791570Y-73683503D01*
X101760797Y-73712586D01*
X101710440Y-73751724D01*
X101654089Y-73783193D01*
X101587123Y-73807972D01*
X101504923Y-73827039D01*
X101402869Y-73841374D01*
X101276343Y-73851955D01*
X101120725Y-73859761D01*
X100931396Y-73865771D01*
X100836112Y-73868374D01*
X100692105Y-73873130D01*
X100579859Y-73878580D01*
X100495150Y-73885434D01*
X100433749Y-73894401D01*
X100391430Y-73906191D01*
X100363967Y-73921512D01*
X100347132Y-73941076D01*
X100336699Y-73965590D01*
X100328512Y-74020319D01*
X100349129Y-74079588D01*
X100404857Y-74124692D01*
X100495286Y-74155333D01*
X100620008Y-74171217D01*
X100665047Y-74172960D01*
X100798947Y-74167589D01*
X100924386Y-74147794D01*
X101034035Y-74115545D01*
X101120564Y-74072814D01*
X101176646Y-74021569D01*
X101179524Y-74017581D01*
X101191390Y-74005160D01*
X101209157Y-73996223D01*
X101238230Y-73990311D01*
X101284014Y-73986968D01*
X101351914Y-73985734D01*
X101447336Y-73986153D01*
X101575686Y-73987766D01*
X101947396Y-73992981D01*
X101941157Y-74050491D01*
X101927255Y-74113802D01*
X101887269Y-74210636D01*
X101829974Y-74306127D01*
X101762949Y-74386005D01*
X101707131Y-74433958D01*
X101576962Y-74516236D01*
X101420322Y-74585341D01*
X101244304Y-74638397D01*
X101056000Y-74672531D01*
X101041624Y-74674198D01*
X100932241Y-74682195D01*
X100801439Y-74685602D01*
X100659163Y-74684732D01*
X100515356Y-74679898D01*
X100379963Y-74671414D01*
X100262925Y-74659593D01*
X100174188Y-74644748D01*
X100091600Y-74623256D01*
X99924917Y-74559853D01*
X99788126Y-74477299D01*
X99682523Y-74377003D01*
X99609407Y-74260376D01*
X99570075Y-74128827D01*
X99565825Y-73983767D01*
X99579481Y-73893765D01*
X99626498Y-73758679D01*
X99703055Y-73647903D01*
X99808792Y-73561895D01*
X99943349Y-73501117D01*
X99962793Y-73495073D01*
X100006585Y-73483570D01*
X100055325Y-73474477D01*
X100114578Y-73467328D01*
X100189908Y-73461658D01*
X100286881Y-73457000D01*
X100411061Y-73452890D01*
X100568014Y-73448862D01*
X100650030Y-73446858D01*
X100787320Y-73442995D01*
X100893339Y-73438986D01*
X100972795Y-73434441D01*
X101030396Y-73428967D01*
X101070850Y-73422175D01*
X101098864Y-73413672D01*
X101119146Y-73403068D01*
X101145859Y-73380156D01*
X101171018Y-73327279D01*
X101162621Y-73270095D01*
X101120591Y-73218060D01*
X101091601Y-73198069D01*
X101004128Y-73161808D01*
X100891561Y-73144435D01*
X100749283Y-73145042D01*
X100677912Y-73151071D01*
X100547006Y-73175811D01*
X100447447Y-73217224D01*
X100376638Y-73276223D01*
X100330022Y-73331623D01*
X99575024Y-73331623D01*
X99587567Y-73253185D01*
X99618382Y-73141266D01*
X99686766Y-73018505D01*
X99786993Y-72910272D01*
X99916646Y-72817697D01*
X100073312Y-72741909D01*
X100254576Y-72684037D01*
X100458024Y-72645210D01*
X100681240Y-72626558D01*
X100921811Y-72629209D01*
G37*
G36*
X103580217Y-72635929D02*
G01*
X103668082Y-72640152D01*
X103741768Y-72647800D01*
X103810511Y-72659652D01*
X103883547Y-72676491D01*
X103982644Y-72704514D01*
X104181903Y-72783776D01*
X104353815Y-72885970D01*
X104496841Y-73009620D01*
X104609443Y-73153253D01*
X104690081Y-73315393D01*
X104737217Y-73494566D01*
X104748825Y-73621402D01*
X104738039Y-73804942D01*
X104696431Y-73979138D01*
X104674240Y-74037123D01*
X104586355Y-74196991D01*
X104467127Y-74336729D01*
X104318186Y-74455189D01*
X104141167Y-74551229D01*
X103937700Y-74623701D01*
X103709418Y-74671463D01*
X103614582Y-74682216D01*
X103438014Y-74689640D01*
X103252404Y-74684108D01*
X103069303Y-74666504D01*
X102900263Y-74637710D01*
X102756835Y-74598611D01*
X102619478Y-74543133D01*
X102447419Y-74446567D01*
X102302697Y-74330719D01*
X102187773Y-74198075D01*
X102105111Y-74051120D01*
X102057171Y-73892340D01*
X102038894Y-73791698D01*
X102814971Y-73791698D01*
X102837750Y-73846691D01*
X102844297Y-73860927D01*
X102898519Y-73936040D01*
X102979652Y-74006485D01*
X103078415Y-74063886D01*
X103124055Y-74082809D01*
X103170807Y-74095786D01*
X103226863Y-74103441D01*
X103301894Y-74107078D01*
X103405570Y-74108000D01*
X103471311Y-74107826D01*
X103552078Y-74106089D01*
X103610478Y-74101111D01*
X103656362Y-74091239D01*
X103699581Y-74074819D01*
X103749988Y-74050197D01*
X103815999Y-74010445D01*
X103904071Y-73926305D01*
X103960215Y-73821225D01*
X103985424Y-73693704D01*
X103985345Y-73615662D01*
X103957851Y-73491335D01*
X103897221Y-73384401D01*
X103805354Y-73297760D01*
X103684152Y-73234310D01*
X103657051Y-73225339D01*
X103549522Y-73204704D01*
X103424368Y-73197450D01*
X103295115Y-73203182D01*
X103175288Y-73221503D01*
X103078415Y-73252019D01*
X103058622Y-73261412D01*
X102962699Y-73321230D01*
X102885931Y-73393028D01*
X102837750Y-73468328D01*
X102814971Y-73523321D01*
X102036070Y-73523321D01*
X102047156Y-73451434D01*
X102058385Y-73393047D01*
X102114694Y-73232261D01*
X102204930Y-73086717D01*
X102327609Y-72957792D01*
X102481242Y-72846862D01*
X102664343Y-72755303D01*
X102875426Y-72684492D01*
X102946577Y-72666499D01*
X103013549Y-72652853D01*
X103081571Y-72643732D01*
X103159961Y-72638219D01*
X103258042Y-72635397D01*
X103385132Y-72634350D01*
X103468938Y-72634348D01*
X103580217Y-72635929D01*
G37*
G36*
X112960452Y-74673510D02*
G01*
X112960452Y-74040906D01*
X112901272Y-74040906D01*
X112900769Y-74040907D01*
X112878116Y-74044426D01*
X112850791Y-74056746D01*
X112815051Y-74080916D01*
X112767153Y-74119984D01*
X112703354Y-74176999D01*
X112619912Y-74255009D01*
X112513083Y-74357062D01*
X112184075Y-74673219D01*
X111727809Y-74673364D01*
X111271542Y-74673510D01*
X111622375Y-74374699D01*
X111690717Y-74316194D01*
X111781384Y-74237569D01*
X111858551Y-74169450D01*
X111918262Y-74115385D01*
X111956558Y-74078919D01*
X111969483Y-74063599D01*
X111952272Y-74053784D01*
X111907302Y-74038377D01*
X111844879Y-74021231D01*
X111787120Y-74005695D01*
X111669708Y-73963021D01*
X111574000Y-73908123D01*
X111488356Y-73834920D01*
X111479117Y-73825552D01*
X111408161Y-73738861D01*
X111359881Y-73644492D01*
X111330515Y-73532800D01*
X111316707Y-73398131D01*
X112078641Y-73398131D01*
X112091152Y-73489025D01*
X112130814Y-73557158D01*
X112197785Y-73598566D01*
X112222409Y-73603684D01*
X112285225Y-73609959D01*
X112374979Y-73614854D01*
X112485014Y-73618035D01*
X112608672Y-73619170D01*
X112960452Y-73619170D01*
X112960452Y-73178264D01*
X112605195Y-73178264D01*
X112587395Y-73178276D01*
X112434526Y-73179897D01*
X112315399Y-73185469D01*
X112225898Y-73196710D01*
X112161905Y-73215339D01*
X112119300Y-73243076D01*
X112093966Y-73281641D01*
X112081786Y-73332753D01*
X112078641Y-73398131D01*
X111316707Y-73398131D01*
X111316298Y-73394141D01*
X111317166Y-73266660D01*
X111344286Y-73109112D01*
X111402197Y-72974092D01*
X111491576Y-72860546D01*
X111613103Y-72767421D01*
X111767456Y-72693660D01*
X111781277Y-72688550D01*
X111807702Y-72679801D01*
X111836418Y-72672529D01*
X111871028Y-72666567D01*
X111915138Y-72661746D01*
X111972353Y-72657900D01*
X112046277Y-72654859D01*
X112140516Y-72652455D01*
X112258675Y-72650521D01*
X112404358Y-72648889D01*
X112581170Y-72647389D01*
X112792717Y-72645855D01*
X113708075Y-72639459D01*
X113708075Y-74673510D01*
X112960452Y-74673510D01*
G37*
G36*
X105656754Y-74673510D02*
G01*
X104909132Y-74673510D01*
X104909132Y-72641510D01*
X105656754Y-72641510D01*
X105656754Y-74673510D01*
G37*
G36*
X116046792Y-73197434D02*
G01*
X115337509Y-73197434D01*
X115337509Y-74673510D01*
X114589886Y-74673510D01*
X114589886Y-73197434D01*
X113880603Y-73197434D01*
X113880603Y-72641510D01*
X116046792Y-72641510D01*
X116046792Y-73197434D01*
G37*
G36*
X118232151Y-74673510D02*
G01*
X116180981Y-74673510D01*
X116180981Y-74117585D01*
X117484528Y-74117585D01*
X117484528Y-73906717D01*
X116180981Y-73906717D01*
X116180981Y-73427472D01*
X117484528Y-73427472D01*
X117484528Y-73197434D01*
X116180981Y-73197434D01*
X116180981Y-72641510D01*
X118232151Y-72641510D01*
X118232151Y-74673510D01*
G37*
G36*
X106672754Y-73168680D02*
G01*
X106672966Y-73295177D01*
X106673977Y-73431650D01*
X106675963Y-73535708D01*
X106679076Y-73610726D01*
X106683471Y-73660076D01*
X106689300Y-73687132D01*
X106696717Y-73695268D01*
X106705268Y-73688223D01*
X106733980Y-73653441D01*
X106779393Y-73592917D01*
X106838830Y-73510387D01*
X106909615Y-73409585D01*
X106989072Y-73294244D01*
X107074525Y-73168098D01*
X107428370Y-72641510D01*
X108302188Y-72641510D01*
X108302188Y-74673510D01*
X107554566Y-74673510D01*
X107554566Y-74165510D01*
X107554047Y-74032882D01*
X107552548Y-73911043D01*
X107550213Y-73807600D01*
X107547190Y-73727540D01*
X107543624Y-73675848D01*
X107539662Y-73657510D01*
X107533155Y-73663428D01*
X107506371Y-73696073D01*
X107461845Y-73754028D01*
X107402314Y-73833621D01*
X107330514Y-73931179D01*
X107249183Y-74043031D01*
X107161058Y-74165504D01*
X106797358Y-74673499D01*
X106370830Y-74673504D01*
X105944301Y-74673510D01*
X105944301Y-72641510D01*
X106672754Y-72641510D01*
X106672754Y-73168680D01*
G37*
G36*
X120091622Y-74673510D02*
G01*
X120091622Y-74040906D01*
X120032442Y-74040906D01*
X120031939Y-74040907D01*
X120009286Y-74044426D01*
X119981961Y-74056746D01*
X119946221Y-74080916D01*
X119898323Y-74119984D01*
X119834524Y-74176999D01*
X119751082Y-74255009D01*
X119644253Y-74357062D01*
X119315245Y-74673219D01*
X118858978Y-74673364D01*
X118402712Y-74673510D01*
X118753544Y-74374699D01*
X118821887Y-74316194D01*
X118912554Y-74237569D01*
X118989721Y-74169450D01*
X119049432Y-74115385D01*
X119087728Y-74078919D01*
X119100653Y-74063599D01*
X119083442Y-74053784D01*
X119038472Y-74038377D01*
X118976049Y-74021231D01*
X118918290Y-74005695D01*
X118800878Y-73963021D01*
X118705170Y-73908123D01*
X118619525Y-73834920D01*
X118610287Y-73825552D01*
X118539330Y-73738861D01*
X118491051Y-73644492D01*
X118461685Y-73532800D01*
X118447877Y-73398131D01*
X119209811Y-73398131D01*
X119222321Y-73489025D01*
X119261983Y-73557158D01*
X119328955Y-73598566D01*
X119353579Y-73603684D01*
X119416395Y-73609959D01*
X119506149Y-73614854D01*
X119616184Y-73618035D01*
X119739841Y-73619170D01*
X120091622Y-73619170D01*
X120091622Y-73178264D01*
X119736365Y-73178264D01*
X119718565Y-73178276D01*
X119565695Y-73179897D01*
X119446569Y-73185469D01*
X119357068Y-73196710D01*
X119293074Y-73215339D01*
X119250470Y-73243076D01*
X119225136Y-73281641D01*
X119212956Y-73332753D01*
X119209811Y-73398131D01*
X118447877Y-73398131D01*
X118447468Y-73394141D01*
X118448336Y-73266660D01*
X118475456Y-73109112D01*
X118533367Y-72974092D01*
X118622746Y-72860546D01*
X118744273Y-72767421D01*
X118898626Y-72693660D01*
X118912447Y-72688550D01*
X118938872Y-72679801D01*
X118967587Y-72672529D01*
X119002198Y-72666567D01*
X119046308Y-72661746D01*
X119103523Y-72657900D01*
X119177447Y-72654859D01*
X119271686Y-72652455D01*
X119389845Y-72650521D01*
X119535528Y-72648889D01*
X119712340Y-72647389D01*
X119923886Y-72645855D01*
X120839245Y-72639459D01*
X120839245Y-74673510D01*
X120091622Y-74673510D01*
G37*
X113275000Y-63725000D02*
X113875000Y-63725000D01*
X116675000Y-68225000D02*
X115975000Y-68225000D01*
X116475000Y-66625000D02*
X116475000Y-63725000D01*
X115075000Y-67725000D02*
X114675000Y-67725000D01*
X116475000Y-63725000D02*
X115875000Y-63725000D01*
X113275000Y-66625000D02*
X113275000Y-63725000D01*
X116675000Y-67525000D02*
X116675000Y-68225000D01*
X69735000Y-60073752D02*
X69735000Y-59551248D01*
X68265000Y-60073752D02*
X68265000Y-59551248D01*
X99033000Y-65539252D02*
X99033000Y-65016748D01*
X97563000Y-65539252D02*
X97563000Y-65016748D01*
X114647936Y-60165000D02*
X115102064Y-60165000D01*
X114647936Y-61635000D02*
X115102064Y-61635000D01*
X98010000Y-74322936D02*
X98010000Y-74777064D01*
X96540000Y-74322936D02*
X96540000Y-74777064D01*
X105722936Y-70610000D02*
X106177064Y-70610000D01*
X105722936Y-69140000D02*
X106177064Y-69140000D01*
X116475000Y-55025000D02*
X115875000Y-55025000D01*
X115075000Y-59025000D02*
X114675000Y-59025000D01*
X116675000Y-58825000D02*
X116675000Y-59525000D01*
X116675000Y-59525000D02*
X115975000Y-59525000D01*
X113275000Y-55025000D02*
X113875000Y-55025000D01*
X116475000Y-57925000D02*
X116475000Y-55025000D01*
X113275000Y-57925000D02*
X113275000Y-55025000D01*
X105747936Y-61635000D02*
X106202064Y-61635000D01*
X105747936Y-60165000D02*
X106202064Y-60165000D01*
X87165000Y-74402936D02*
X87165000Y-74857064D01*
X85695000Y-74402936D02*
X85695000Y-74857064D01*
X144426600Y-56533660D02*
X144426600Y-56218700D01*
X150573400Y-56218700D02*
X150573400Y-56533660D01*
X150573400Y-61466340D02*
X150573400Y-61781300D01*
X150573400Y-61781300D02*
X144426600Y-61781300D01*
X144426600Y-61781300D02*
X144426600Y-61466340D01*
X144426600Y-56218700D02*
X150573400Y-56218700D01*
X59604437Y-53032500D02*
X61290000Y-53032500D01*
X60290000Y-51792500D02*
X60290000Y-52792500D01*
X59604437Y-53032500D02*
X58540000Y-54096937D01*
X65995563Y-53032500D02*
X67060000Y-54096937D01*
X59790000Y-52292500D02*
X60790000Y-52292500D01*
X65995563Y-53032500D02*
X64310000Y-53032500D01*
X67060000Y-54096937D02*
X67060000Y-61552500D01*
X58540000Y-61552500D02*
X61290000Y-61552500D01*
X67060000Y-61552500D02*
X64310000Y-61552500D01*
X58540000Y-54096937D02*
X58540000Y-61552500D01*
X84050000Y-63200000D02*
X84050000Y-67100000D01*
X84050000Y-63200000D02*
X86050000Y-63200000D01*
X86050000Y-63200000D02*
X86050000Y-67100000D01*
X89647936Y-76235000D02*
X94002064Y-76235000D01*
X89647936Y-72815000D02*
X94002064Y-72815000D01*
X105770000Y-45720000D02*
X105770000Y-45990000D01*
X105770000Y-45990000D02*
X108600000Y-45990000D01*
X105770000Y-52620000D02*
X105770000Y-52350000D01*
X104270000Y-52620000D02*
X105770000Y-52620000D01*
X105770000Y-52350000D02*
X106870000Y-52350000D01*
X104270000Y-45720000D02*
X105770000Y-45720000D01*
X114647936Y-70610000D02*
X115102064Y-70610000D01*
X114647936Y-69140000D02*
X115102064Y-69140000D01*
X107575000Y-54925000D02*
X106975000Y-54925000D01*
X107575000Y-57825000D02*
X107575000Y-54925000D01*
X104375000Y-57825000D02*
X104375000Y-54925000D01*
X106175000Y-58925000D02*
X105775000Y-58925000D01*
X107775000Y-58725000D02*
X107775000Y-59425000D01*
X104375000Y-54925000D02*
X104975000Y-54925000D01*
X107775000Y-59425000D02*
X107075000Y-59425000D01*
X152000000Y-73030000D02*
X152000000Y-62870000D01*
X153000000Y-73030000D02*
X143000000Y-73030000D01*
X143000000Y-62870000D02*
X153000000Y-62870000D01*
X153000000Y-62870000D02*
X153000000Y-73030000D01*
X143000000Y-73030000D02*
X143000000Y-62870000D01*
%LPC*%
D14*
X140800000Y-73875000D03*
X140800000Y-71800000D03*
D15*
X140800000Y-69037500D03*
X140800000Y-66962500D03*
D16*
X151500000Y-48500000D03*
X58500000Y-76500000D03*
D17*
X137300000Y-49500000D03*
X137300000Y-58300000D03*
D18*
X130300000Y-56400000D03*
X130300000Y-53900000D03*
X130300000Y-51400000D03*
D17*
X137300000Y-66800000D03*
X137300000Y-75600000D03*
D18*
X130300000Y-73700000D03*
X130300000Y-71200000D03*
X130300000Y-68700000D03*
D19*
X123425000Y-53725000D03*
D20*
X123425000Y-56265000D03*
X123425000Y-58805000D03*
X123425000Y-61345000D03*
X123425000Y-63885000D03*
X123425000Y-66425000D03*
X123425000Y-68965000D03*
X123425000Y-71505000D03*
D16*
X58500000Y-48500000D03*
X151500000Y-76500000D03*
D21*
X100775000Y-67600000D03*
X100775000Y-65100000D03*
X100775000Y-62600000D03*
X100775000Y-60100000D03*
X100775000Y-57600000D03*
X119075000Y-57600000D03*
X119075000Y-60100000D03*
X119075000Y-62600000D03*
X119075000Y-65100000D03*
X119075000Y-67600000D03*
D22*
X111025000Y-54600000D03*
X111025000Y-70600000D03*
D23*
X74060000Y-65625000D03*
D24*
X76600000Y-74775000D03*
D23*
X79140000Y-65625000D03*
D25*
X91950000Y-63192500D03*
X91950000Y-69692500D03*
D26*
X106950000Y-67475000D03*
D27*
X105950000Y-64225000D03*
D26*
X104950000Y-67475000D03*
D28*
X142275000Y-52937500D03*
X142275000Y-54662500D03*
D29*
X109950000Y-66075000D03*
X109950000Y-64075000D03*
D23*
X80000000Y-59325000D03*
X78300000Y-59325000D03*
D24*
X76600000Y-50175000D03*
D23*
X76600000Y-59325000D03*
X74900000Y-59325000D03*
X73200000Y-59325000D03*
D30*
X126600000Y-52600000D03*
X126600000Y-54600000D03*
D31*
X151912500Y-54750000D03*
X150087500Y-54750000D03*
D32*
X86087500Y-61000000D03*
X84012500Y-61000000D03*
D33*
X144850000Y-54750000D03*
X144850000Y-53800000D03*
X144850000Y-52850000D03*
X147550000Y-52850000D03*
X147550000Y-53800000D03*
X147550000Y-54750000D03*
D34*
X133000000Y-70912500D03*
X133000000Y-69087500D03*
D29*
X126625000Y-58575000D03*
X126625000Y-56575000D03*
D31*
X147087500Y-50375000D03*
X145262500Y-50375000D03*
D35*
X86050000Y-69600000D03*
X84050000Y-69600000D03*
D36*
X62150000Y-70500000D03*
D22*
X62150000Y-65420000D03*
D29*
X98298000Y-61960000D03*
X98298000Y-59960000D03*
D37*
X90000000Y-48050000D03*
X90000000Y-57950000D03*
D26*
X115875000Y-67425000D03*
D27*
X114875000Y-64175000D03*
D26*
X113875000Y-67425000D03*
D15*
X69000000Y-60850000D03*
X69000000Y-58775000D03*
X98298000Y-66315500D03*
X98298000Y-64240500D03*
D38*
X113875000Y-60900000D03*
X115875000Y-60900000D03*
D30*
X97275000Y-73550000D03*
X97275000Y-75550000D03*
D38*
X104950000Y-69875000D03*
X106950000Y-69875000D03*
D26*
X115875000Y-58725000D03*
D27*
X114875000Y-55475000D03*
D26*
X113875000Y-58725000D03*
D38*
X104975000Y-60900000D03*
X106975000Y-60900000D03*
D30*
X86430000Y-73630000D03*
X86430000Y-75630000D03*
D39*
X144579000Y-59635000D03*
X144579000Y-60905000D03*
X144579000Y-58365000D03*
X144579000Y-57095000D03*
X150421000Y-58365000D03*
D40*
X148100000Y-59000000D03*
D39*
X150421000Y-60905000D03*
X150421000Y-57095000D03*
X150421000Y-59635000D03*
D25*
X62800000Y-54042500D03*
X62800000Y-60542500D03*
D41*
X85050000Y-63800000D03*
X85050000Y-67100000D03*
D42*
X88775000Y-74525000D03*
X94875000Y-74525000D03*
D43*
X107500000Y-46890000D03*
D44*
X101200000Y-49170000D03*
D43*
X107500000Y-51450000D03*
D38*
X113875000Y-69875000D03*
X115875000Y-69875000D03*
D26*
X106975000Y-58625000D03*
D27*
X105975000Y-55375000D03*
D26*
X104975000Y-58625000D03*
D22*
X148000000Y-70490000D03*
D36*
X148000000Y-65410000D03*
M02*
