G04 #@! TF.GenerationSoftware,KiCad,Pcbnew,(6.0.9)*
G04 #@! TF.CreationDate,2022-12-04T16:35:20+01:00*
G04 #@! TF.ProjectId,HeaterPSU,48656174-6572-4505-9355-2e6b69636164,rev?*
G04 #@! TF.SameCoordinates,Original*
G04 #@! TF.FileFunction,Legend,Top*
G04 #@! TF.FilePolarity,Positive*
%FSLAX46Y46*%
G04 Gerber Fmt 4.6, Leading zero omitted, Abs format (unit mm)*
G04 Created by KiCad (PCBNEW (6.0.9)) date 2022-12-04 16:35:20*
%MOMM*%
%LPD*%
G01*
G04 APERTURE LIST*
G04 Aperture macros list*
%AMRoundRect*
0 Rectangle with rounded corners*
0 $1 Rounding radius*
0 $2 $3 $4 $5 $6 $7 $8 $9 X,Y pos of 4 corners*
0 Add a 4 corners polygon primitive as box body*
4,1,4,$2,$3,$4,$5,$6,$7,$8,$9,$2,$3,0*
0 Add four circle primitives for the rounded corners*
1,1,$1+$1,$2,$3*
1,1,$1+$1,$4,$5*
1,1,$1+$1,$6,$7*
1,1,$1+$1,$8,$9*
0 Add four rect primitives between the rounded corners*
20,1,$1+$1,$2,$3,$4,$5,0*
20,1,$1+$1,$4,$5,$6,$7,0*
20,1,$1+$1,$6,$7,$8,$9,0*
20,1,$1+$1,$8,$9,$2,$3,0*%
G04 Aperture macros list end*
%ADD10C,0.150000*%
%ADD11C,0.100000*%
%ADD12C,0.120000*%
%ADD13C,0.200000*%
%ADD14C,3.200000*%
%ADD15RoundRect,0.250000X0.350000X0.450000X-0.350000X0.450000X-0.350000X-0.450000X0.350000X-0.450000X0*%
%ADD16C,4.000000*%
%ADD17C,1.800000*%
%ADD18R,1.700000X1.700000*%
%ADD19O,1.700000X1.700000*%
%ADD20RoundRect,0.150000X-0.587500X-0.150000X0.587500X-0.150000X0.587500X0.150000X-0.587500X0.150000X0*%
%ADD21C,1.400000*%
%ADD22C,3.000000*%
%ADD23R,1.550000X1.550000*%
%ADD24C,1.550000*%
%ADD25R,3.000000X3.000000*%
G04 APERTURE END LIST*
D10*
X76004761Y-64861904D02*
X76004761Y-65433333D01*
X75966666Y-65547619D01*
X75890476Y-65623809D01*
X75776190Y-65661904D01*
X75700000Y-65661904D01*
X76766666Y-65661904D02*
X76385714Y-65661904D01*
X76385714Y-64861904D01*
X77490476Y-65585714D02*
X77452380Y-65623809D01*
X77338095Y-65661904D01*
X77261904Y-65661904D01*
X77147619Y-65623809D01*
X77071428Y-65547619D01*
X77033333Y-65471428D01*
X76995238Y-65319047D01*
X76995238Y-65204761D01*
X77033333Y-65052380D01*
X77071428Y-64976190D01*
X77147619Y-64900000D01*
X77261904Y-64861904D01*
X77338095Y-64861904D01*
X77452380Y-64900000D01*
X77490476Y-64938095D01*
X78061904Y-64861904D02*
X78061904Y-65433333D01*
X78023809Y-65547619D01*
X77947619Y-65623809D01*
X77833333Y-65661904D01*
X77757142Y-65661904D01*
X78823809Y-65661904D02*
X78442857Y-65661904D01*
X78442857Y-64861904D01*
X79547619Y-65585714D02*
X79509523Y-65623809D01*
X79395238Y-65661904D01*
X79319047Y-65661904D01*
X79204761Y-65623809D01*
X79128571Y-65547619D01*
X79090476Y-65471428D01*
X79052380Y-65319047D01*
X79052380Y-65204761D01*
X79090476Y-65052380D01*
X79128571Y-64976190D01*
X79204761Y-64900000D01*
X79319047Y-64861904D01*
X79395238Y-64861904D01*
X79509523Y-64900000D01*
X79547619Y-64938095D01*
X80119047Y-64861904D02*
X80119047Y-65433333D01*
X80080952Y-65547619D01*
X80004761Y-65623809D01*
X79890476Y-65661904D01*
X79814285Y-65661904D01*
X80880952Y-65661904D02*
X80500000Y-65661904D01*
X80500000Y-64861904D01*
X81604761Y-65585714D02*
X81566666Y-65623809D01*
X81452380Y-65661904D01*
X81376190Y-65661904D01*
X81261904Y-65623809D01*
X81185714Y-65547619D01*
X81147619Y-65471428D01*
X81109523Y-65319047D01*
X81109523Y-65204761D01*
X81147619Y-65052380D01*
X81185714Y-64976190D01*
X81261904Y-64900000D01*
X81376190Y-64861904D01*
X81452380Y-64861904D01*
X81566666Y-64900000D01*
X81604761Y-64938095D01*
X82176190Y-64861904D02*
X82176190Y-65433333D01*
X82138095Y-65547619D01*
X82061904Y-65623809D01*
X81947619Y-65661904D01*
X81871428Y-65661904D01*
X82938095Y-65661904D02*
X82557142Y-65661904D01*
X82557142Y-64861904D01*
X83661904Y-65585714D02*
X83623809Y-65623809D01*
X83509523Y-65661904D01*
X83433333Y-65661904D01*
X83319047Y-65623809D01*
X83242857Y-65547619D01*
X83204761Y-65471428D01*
X83166666Y-65319047D01*
X83166666Y-65204761D01*
X83204761Y-65052380D01*
X83242857Y-64976190D01*
X83319047Y-64900000D01*
X83433333Y-64861904D01*
X83509523Y-64861904D01*
X83623809Y-64900000D01*
X83661904Y-64938095D01*
X72414285Y-60175714D02*
X72414285Y-61175714D01*
X72890476Y-60699523D02*
X72938095Y-60794761D01*
X73033333Y-60842380D01*
X72414285Y-60699523D02*
X72461904Y-60794761D01*
X72557142Y-60842380D01*
X72747619Y-60842380D01*
X72842857Y-60794761D01*
X72890476Y-60699523D01*
X72890476Y-60175714D01*
X73319047Y-59842380D02*
X73890476Y-59842380D01*
X73604761Y-60842380D02*
X73604761Y-59842380D01*
X74223809Y-60842380D02*
X74223809Y-60175714D01*
X74223809Y-60366190D02*
X74271428Y-60270952D01*
X74319047Y-60223333D01*
X74414285Y-60175714D01*
X74509523Y-60175714D01*
X75271428Y-60842380D02*
X75271428Y-60318571D01*
X75223809Y-60223333D01*
X75128571Y-60175714D01*
X74938095Y-60175714D01*
X74842857Y-60223333D01*
X75271428Y-60794761D02*
X75176190Y-60842380D01*
X74938095Y-60842380D01*
X74842857Y-60794761D01*
X74795238Y-60699523D01*
X74795238Y-60604285D01*
X74842857Y-60509047D01*
X74938095Y-60461428D01*
X75176190Y-60461428D01*
X75271428Y-60413809D01*
X76176190Y-60794761D02*
X76080952Y-60842380D01*
X75890476Y-60842380D01*
X75795238Y-60794761D01*
X75747619Y-60747142D01*
X75700000Y-60651904D01*
X75700000Y-60366190D01*
X75747619Y-60270952D01*
X75795238Y-60223333D01*
X75890476Y-60175714D01*
X76080952Y-60175714D01*
X76176190Y-60223333D01*
X76985714Y-60794761D02*
X76890476Y-60842380D01*
X76700000Y-60842380D01*
X76604761Y-60794761D01*
X76557142Y-60699523D01*
X76557142Y-60318571D01*
X76604761Y-60223333D01*
X76700000Y-60175714D01*
X76890476Y-60175714D01*
X76985714Y-60223333D01*
X77033333Y-60318571D01*
X77033333Y-60413809D01*
X76557142Y-60509047D01*
X77461904Y-60842380D02*
X77461904Y-60175714D01*
X77461904Y-60366190D02*
X77509523Y-60270952D01*
X77557142Y-60223333D01*
X77652380Y-60175714D01*
X77747619Y-60175714D01*
X78842857Y-60842380D02*
X78842857Y-59842380D01*
X78842857Y-60318571D02*
X79414285Y-60318571D01*
X79414285Y-60842380D02*
X79414285Y-59842380D01*
X80271428Y-60794761D02*
X80176190Y-60842380D01*
X79985714Y-60842380D01*
X79890476Y-60794761D01*
X79842857Y-60699523D01*
X79842857Y-60318571D01*
X79890476Y-60223333D01*
X79985714Y-60175714D01*
X80176190Y-60175714D01*
X80271428Y-60223333D01*
X80319047Y-60318571D01*
X80319047Y-60413809D01*
X79842857Y-60509047D01*
X81176190Y-60842380D02*
X81176190Y-60318571D01*
X81128571Y-60223333D01*
X81033333Y-60175714D01*
X80842857Y-60175714D01*
X80747619Y-60223333D01*
X81176190Y-60794761D02*
X81080952Y-60842380D01*
X80842857Y-60842380D01*
X80747619Y-60794761D01*
X80700000Y-60699523D01*
X80700000Y-60604285D01*
X80747619Y-60509047D01*
X80842857Y-60461428D01*
X81080952Y-60461428D01*
X81176190Y-60413809D01*
X81509523Y-60175714D02*
X81890476Y-60175714D01*
X81652380Y-59842380D02*
X81652380Y-60699523D01*
X81700000Y-60794761D01*
X81795238Y-60842380D01*
X81890476Y-60842380D01*
X82604761Y-60794761D02*
X82509523Y-60842380D01*
X82319047Y-60842380D01*
X82223809Y-60794761D01*
X82176190Y-60699523D01*
X82176190Y-60318571D01*
X82223809Y-60223333D01*
X82319047Y-60175714D01*
X82509523Y-60175714D01*
X82604761Y-60223333D01*
X82652380Y-60318571D01*
X82652380Y-60413809D01*
X82176190Y-60509047D01*
X83080952Y-60842380D02*
X83080952Y-60175714D01*
X83080952Y-60366190D02*
X83128571Y-60270952D01*
X83176190Y-60223333D01*
X83271428Y-60175714D01*
X83366666Y-60175714D01*
X84461904Y-60842380D02*
X84461904Y-59842380D01*
X84842857Y-59842380D01*
X84938095Y-59890000D01*
X84985714Y-59937619D01*
X85033333Y-60032857D01*
X85033333Y-60175714D01*
X84985714Y-60270952D01*
X84938095Y-60318571D01*
X84842857Y-60366190D01*
X84461904Y-60366190D01*
X85414285Y-60794761D02*
X85557142Y-60842380D01*
X85795238Y-60842380D01*
X85890476Y-60794761D01*
X85938095Y-60747142D01*
X85985714Y-60651904D01*
X85985714Y-60556666D01*
X85938095Y-60461428D01*
X85890476Y-60413809D01*
X85795238Y-60366190D01*
X85604761Y-60318571D01*
X85509523Y-60270952D01*
X85461904Y-60223333D01*
X85414285Y-60128095D01*
X85414285Y-60032857D01*
X85461904Y-59937619D01*
X85509523Y-59890000D01*
X85604761Y-59842380D01*
X85842857Y-59842380D01*
X85985714Y-59890000D01*
X86414285Y-59842380D02*
X86414285Y-60651904D01*
X86461904Y-60747142D01*
X86509523Y-60794761D01*
X86604761Y-60842380D01*
X86795238Y-60842380D01*
X86890476Y-60794761D01*
X86938095Y-60747142D01*
X86985714Y-60651904D01*
X86985714Y-59842380D01*
X74819047Y-61547619D02*
X74866666Y-61500000D01*
X74961904Y-61452380D01*
X75200000Y-61452380D01*
X75295238Y-61500000D01*
X75342857Y-61547619D01*
X75390476Y-61642857D01*
X75390476Y-61738095D01*
X75342857Y-61880952D01*
X74771428Y-62452380D01*
X75390476Y-62452380D01*
X75771428Y-61547619D02*
X75819047Y-61500000D01*
X75914285Y-61452380D01*
X76152380Y-61452380D01*
X76247619Y-61500000D01*
X76295238Y-61547619D01*
X76342857Y-61642857D01*
X76342857Y-61738095D01*
X76295238Y-61880952D01*
X75723809Y-62452380D01*
X76342857Y-62452380D01*
X76533333Y-62547619D02*
X77295238Y-62547619D01*
X77961904Y-61785714D02*
X77961904Y-62452380D01*
X77723809Y-61404761D02*
X77485714Y-62119047D01*
X78104761Y-62119047D01*
X78390476Y-61452380D02*
X79009523Y-61452380D01*
X78676190Y-61833333D01*
X78819047Y-61833333D01*
X78914285Y-61880952D01*
X78961904Y-61928571D01*
X79009523Y-62023809D01*
X79009523Y-62261904D01*
X78961904Y-62357142D01*
X78914285Y-62404761D01*
X78819047Y-62452380D01*
X78533333Y-62452380D01*
X78438095Y-62404761D01*
X78390476Y-62357142D01*
X79200000Y-62547619D02*
X79961904Y-62547619D01*
X80390476Y-61452380D02*
X80485714Y-61452380D01*
X80580952Y-61500000D01*
X80628571Y-61547619D01*
X80676190Y-61642857D01*
X80723809Y-61833333D01*
X80723809Y-62071428D01*
X80676190Y-62261904D01*
X80628571Y-62357142D01*
X80580952Y-62404761D01*
X80485714Y-62452380D01*
X80390476Y-62452380D01*
X80295238Y-62404761D01*
X80247619Y-62357142D01*
X80200000Y-62261904D01*
X80152380Y-62071428D01*
X80152380Y-61833333D01*
X80200000Y-61642857D01*
X80247619Y-61547619D01*
X80295238Y-61500000D01*
X80390476Y-61452380D01*
X81676190Y-62452380D02*
X81104761Y-62452380D01*
X81390476Y-62452380D02*
X81390476Y-61452380D01*
X81295238Y-61595238D01*
X81200000Y-61690476D01*
X81104761Y-61738095D01*
X82628571Y-62452380D02*
X82057142Y-62452380D01*
X82342857Y-62452380D02*
X82342857Y-61452380D01*
X82247619Y-61595238D01*
X82152380Y-61690476D01*
X82057142Y-61738095D01*
X83104761Y-62452380D02*
X83295238Y-62452380D01*
X83390476Y-62404761D01*
X83438095Y-62357142D01*
X83533333Y-62214285D01*
X83580952Y-62023809D01*
X83580952Y-61642857D01*
X83533333Y-61547619D01*
X83485714Y-61500000D01*
X83390476Y-61452380D01*
X83200000Y-61452380D01*
X83104761Y-61500000D01*
X83057142Y-61547619D01*
X83009523Y-61642857D01*
X83009523Y-61880952D01*
X83057142Y-61976190D01*
X83104761Y-62023809D01*
X83200000Y-62071428D01*
X83390476Y-62071428D01*
X83485714Y-62023809D01*
X83533333Y-61976190D01*
X83580952Y-61880952D01*
X84580952Y-62357142D02*
X84533333Y-62404761D01*
X84390476Y-62452380D01*
X84295238Y-62452380D01*
X84152380Y-62404761D01*
X84057142Y-62309523D01*
X84009523Y-62214285D01*
X83961904Y-62023809D01*
X83961904Y-61880952D01*
X84009523Y-61690476D01*
X84057142Y-61595238D01*
X84152380Y-61500000D01*
X84295238Y-61452380D01*
X84390476Y-61452380D01*
X84533333Y-61500000D01*
X84580952Y-61547619D01*
X74247619Y-63538571D02*
X74390476Y-63586190D01*
X74438095Y-63633809D01*
X74485714Y-63729047D01*
X74485714Y-63871904D01*
X74438095Y-63967142D01*
X74390476Y-64014761D01*
X74295238Y-64062380D01*
X73914285Y-64062380D01*
X73914285Y-63062380D01*
X74247619Y-63062380D01*
X74342857Y-63110000D01*
X74390476Y-63157619D01*
X74438095Y-63252857D01*
X74438095Y-63348095D01*
X74390476Y-63443333D01*
X74342857Y-63490952D01*
X74247619Y-63538571D01*
X73914285Y-63538571D01*
X74914285Y-63395714D02*
X74914285Y-64252857D01*
X74866666Y-64348095D01*
X74771428Y-64395714D01*
X74723809Y-64395714D01*
X74914285Y-63062380D02*
X74866666Y-63110000D01*
X74914285Y-63157619D01*
X74961904Y-63110000D01*
X74914285Y-63062380D01*
X74914285Y-63157619D01*
X75914285Y-63395714D02*
X75295238Y-64062380D01*
X75533333Y-64062380D02*
X75438095Y-64014761D01*
X75390476Y-63967142D01*
X75342857Y-63871904D01*
X75342857Y-63586190D01*
X75390476Y-63490952D01*
X75438095Y-63443333D01*
X75533333Y-63395714D01*
X75676190Y-63395714D01*
X75771428Y-63443333D01*
X75819047Y-63490952D01*
X75866666Y-63586190D01*
X75866666Y-63871904D01*
X75819047Y-63967142D01*
X75771428Y-64014761D01*
X75676190Y-64062380D01*
X75533333Y-64062380D01*
X76295238Y-64062380D02*
X76295238Y-63395714D01*
X76295238Y-63586190D02*
X76342857Y-63490952D01*
X76390476Y-63443333D01*
X76485714Y-63395714D01*
X76580952Y-63395714D01*
X76914285Y-63395714D02*
X76914285Y-64062380D01*
X76914285Y-63490952D02*
X76961904Y-63443333D01*
X77057142Y-63395714D01*
X77200000Y-63395714D01*
X77295238Y-63443333D01*
X77342857Y-63538571D01*
X77342857Y-64062380D01*
X78200000Y-64014761D02*
X78104761Y-64062380D01*
X77914285Y-64062380D01*
X77819047Y-64014761D01*
X77771428Y-63919523D01*
X77771428Y-63538571D01*
X77819047Y-63443333D01*
X77914285Y-63395714D01*
X78104761Y-63395714D01*
X78200000Y-63443333D01*
X78247619Y-63538571D01*
X78247619Y-63633809D01*
X77771428Y-63729047D01*
X78676190Y-64062380D02*
X78676190Y-63395714D01*
X78676190Y-63586190D02*
X78723809Y-63490952D01*
X78771428Y-63443333D01*
X78866666Y-63395714D01*
X78961904Y-63395714D01*
X80009523Y-64014761D02*
X80152380Y-64062380D01*
X80390476Y-64062380D01*
X80485714Y-64014761D01*
X80533333Y-63967142D01*
X80580952Y-63871904D01*
X80580952Y-63776666D01*
X80533333Y-63681428D01*
X80485714Y-63633809D01*
X80390476Y-63586190D01*
X80200000Y-63538571D01*
X80104761Y-63490952D01*
X80057142Y-63443333D01*
X80009523Y-63348095D01*
X80009523Y-63252857D01*
X80057142Y-63157619D01*
X80104761Y-63110000D01*
X80200000Y-63062380D01*
X80438095Y-63062380D01*
X80580952Y-63110000D01*
X81438095Y-64062380D02*
X81438095Y-63538571D01*
X81390476Y-63443333D01*
X81295238Y-63395714D01*
X81104761Y-63395714D01*
X81009523Y-63443333D01*
X81438095Y-64014761D02*
X81342857Y-64062380D01*
X81104761Y-64062380D01*
X81009523Y-64014761D01*
X80961904Y-63919523D01*
X80961904Y-63824285D01*
X81009523Y-63729047D01*
X81104761Y-63681428D01*
X81342857Y-63681428D01*
X81438095Y-63633809D01*
X81914285Y-63395714D02*
X81914285Y-64062380D01*
X81914285Y-63490952D02*
X81961904Y-63443333D01*
X82057142Y-63395714D01*
X82200000Y-63395714D01*
X82295238Y-63443333D01*
X82342857Y-63538571D01*
X82342857Y-64062380D01*
X83247619Y-64062380D02*
X83247619Y-63062380D01*
X83247619Y-64014761D02*
X83152380Y-64062380D01*
X82961904Y-64062380D01*
X82866666Y-64014761D01*
X82819047Y-63967142D01*
X82771428Y-63871904D01*
X82771428Y-63586190D01*
X82819047Y-63490952D01*
X82866666Y-63443333D01*
X82961904Y-63395714D01*
X83152380Y-63395714D01*
X83247619Y-63443333D01*
X83866666Y-64062380D02*
X83771428Y-64014761D01*
X83723809Y-63967142D01*
X83676190Y-63871904D01*
X83676190Y-63586190D01*
X83723809Y-63490952D01*
X83771428Y-63443333D01*
X83866666Y-63395714D01*
X84009523Y-63395714D01*
X84104761Y-63443333D01*
X84152380Y-63490952D01*
X84200000Y-63586190D01*
X84200000Y-63871904D01*
X84152380Y-63967142D01*
X84104761Y-64014761D01*
X84009523Y-64062380D01*
X83866666Y-64062380D01*
X84628571Y-64062380D02*
X84628571Y-63395714D01*
X84628571Y-63490952D02*
X84676190Y-63443333D01*
X84771428Y-63395714D01*
X84914285Y-63395714D01*
X85009523Y-63443333D01*
X85057142Y-63538571D01*
X85057142Y-64062380D01*
X85057142Y-63538571D02*
X85104761Y-63443333D01*
X85200000Y-63395714D01*
X85342857Y-63395714D01*
X85438095Y-63443333D01*
X85485714Y-63538571D01*
X85485714Y-64062380D01*
D11*
X119779761Y-52836904D02*
X119513095Y-52455952D01*
X119322619Y-52836904D02*
X119322619Y-52036904D01*
X119627380Y-52036904D01*
X119703571Y-52075000D01*
X119741666Y-52113095D01*
X119779761Y-52189285D01*
X119779761Y-52303571D01*
X119741666Y-52379761D01*
X119703571Y-52417857D01*
X119627380Y-52455952D01*
X119322619Y-52455952D01*
X120084523Y-52113095D02*
X120122619Y-52075000D01*
X120198809Y-52036904D01*
X120389285Y-52036904D01*
X120465476Y-52075000D01*
X120503571Y-52113095D01*
X120541666Y-52189285D01*
X120541666Y-52265476D01*
X120503571Y-52379761D01*
X120046428Y-52836904D01*
X120541666Y-52836904D01*
X121036904Y-52036904D02*
X121113095Y-52036904D01*
X121189285Y-52075000D01*
X121227380Y-52113095D01*
X121265476Y-52189285D01*
X121303571Y-52341666D01*
X121303571Y-52532142D01*
X121265476Y-52684523D01*
X121227380Y-52760714D01*
X121189285Y-52798809D01*
X121113095Y-52836904D01*
X121036904Y-52836904D01*
X120960714Y-52798809D01*
X120922619Y-52760714D01*
X120884523Y-52684523D01*
X120846428Y-52532142D01*
X120846428Y-52341666D01*
X120884523Y-52189285D01*
X120922619Y-52113095D01*
X120960714Y-52075000D01*
X121036904Y-52036904D01*
X121989285Y-52036904D02*
X121836904Y-52036904D01*
X121760714Y-52075000D01*
X121722619Y-52113095D01*
X121646428Y-52227380D01*
X121608333Y-52379761D01*
X121608333Y-52684523D01*
X121646428Y-52760714D01*
X121684523Y-52798809D01*
X121760714Y-52836904D01*
X121913095Y-52836904D01*
X121989285Y-52798809D01*
X122027380Y-52760714D01*
X122065476Y-52684523D01*
X122065476Y-52494047D01*
X122027380Y-52417857D01*
X121989285Y-52379761D01*
X121913095Y-52341666D01*
X121760714Y-52341666D01*
X121684523Y-52379761D01*
X121646428Y-52417857D01*
X121608333Y-52494047D01*
X133711904Y-56361904D02*
X133445238Y-55980952D01*
X133254761Y-56361904D02*
X133254761Y-55561904D01*
X133559523Y-55561904D01*
X133635714Y-55600000D01*
X133673809Y-55638095D01*
X133711904Y-55714285D01*
X133711904Y-55828571D01*
X133673809Y-55904761D01*
X133635714Y-55942857D01*
X133559523Y-55980952D01*
X133254761Y-55980952D01*
X133940476Y-55561904D02*
X134207142Y-56361904D01*
X134473809Y-55561904D01*
X134702380Y-55638095D02*
X134740476Y-55600000D01*
X134816666Y-55561904D01*
X135007142Y-55561904D01*
X135083333Y-55600000D01*
X135121428Y-55638095D01*
X135159523Y-55714285D01*
X135159523Y-55790476D01*
X135121428Y-55904761D01*
X134664285Y-56361904D01*
X135159523Y-56361904D01*
X135654761Y-55561904D02*
X135730952Y-55561904D01*
X135807142Y-55600000D01*
X135845238Y-55638095D01*
X135883333Y-55714285D01*
X135921428Y-55866666D01*
X135921428Y-56057142D01*
X135883333Y-56209523D01*
X135845238Y-56285714D01*
X135807142Y-56323809D01*
X135730952Y-56361904D01*
X135654761Y-56361904D01*
X135578571Y-56323809D01*
X135540476Y-56285714D01*
X135502380Y-56209523D01*
X135464285Y-56057142D01*
X135464285Y-55866666D01*
X135502380Y-55714285D01*
X135540476Y-55638095D01*
X135578571Y-55600000D01*
X135654761Y-55561904D01*
X136683333Y-56361904D02*
X136226190Y-56361904D01*
X136454761Y-56361904D02*
X136454761Y-55561904D01*
X136378571Y-55676190D01*
X136302380Y-55752380D01*
X136226190Y-55790476D01*
X96871428Y-53361904D02*
X96871428Y-53933333D01*
X96833333Y-54047619D01*
X96757142Y-54123809D01*
X96642857Y-54161904D01*
X96566666Y-54161904D01*
X97214285Y-53438095D02*
X97252380Y-53400000D01*
X97328571Y-53361904D01*
X97519047Y-53361904D01*
X97595238Y-53400000D01*
X97633333Y-53438095D01*
X97671428Y-53514285D01*
X97671428Y-53590476D01*
X97633333Y-53704761D01*
X97176190Y-54161904D01*
X97671428Y-54161904D01*
X98166666Y-53361904D02*
X98242857Y-53361904D01*
X98319047Y-53400000D01*
X98357142Y-53438095D01*
X98395238Y-53514285D01*
X98433333Y-53666666D01*
X98433333Y-53857142D01*
X98395238Y-54009523D01*
X98357142Y-54085714D01*
X98319047Y-54123809D01*
X98242857Y-54161904D01*
X98166666Y-54161904D01*
X98090476Y-54123809D01*
X98052380Y-54085714D01*
X98014285Y-54009523D01*
X97976190Y-53857142D01*
X97976190Y-53666666D01*
X98014285Y-53514285D01*
X98052380Y-53438095D01*
X98090476Y-53400000D01*
X98166666Y-53361904D01*
X98700000Y-53361904D02*
X99195238Y-53361904D01*
X98928571Y-53666666D01*
X99042857Y-53666666D01*
X99119047Y-53704761D01*
X99157142Y-53742857D01*
X99195238Y-53819047D01*
X99195238Y-54009523D01*
X99157142Y-54085714D01*
X99119047Y-54123809D01*
X99042857Y-54161904D01*
X98814285Y-54161904D01*
X98738095Y-54123809D01*
X98700000Y-54085714D01*
X119849404Y-46163095D02*
X119773214Y-46125000D01*
X119697023Y-46048809D01*
X119582738Y-45934523D01*
X119506547Y-45896428D01*
X119430357Y-45896428D01*
X119468452Y-46086904D02*
X119392261Y-46048809D01*
X119316071Y-45972619D01*
X119277976Y-45820238D01*
X119277976Y-45553571D01*
X119316071Y-45401190D01*
X119392261Y-45325000D01*
X119468452Y-45286904D01*
X119620833Y-45286904D01*
X119697023Y-45325000D01*
X119773214Y-45401190D01*
X119811309Y-45553571D01*
X119811309Y-45820238D01*
X119773214Y-45972619D01*
X119697023Y-46048809D01*
X119620833Y-46086904D01*
X119468452Y-46086904D01*
X120116071Y-45363095D02*
X120154166Y-45325000D01*
X120230357Y-45286904D01*
X120420833Y-45286904D01*
X120497023Y-45325000D01*
X120535119Y-45363095D01*
X120573214Y-45439285D01*
X120573214Y-45515476D01*
X120535119Y-45629761D01*
X120077976Y-46086904D01*
X120573214Y-46086904D01*
X121068452Y-45286904D02*
X121144642Y-45286904D01*
X121220833Y-45325000D01*
X121258928Y-45363095D01*
X121297023Y-45439285D01*
X121335119Y-45591666D01*
X121335119Y-45782142D01*
X121297023Y-45934523D01*
X121258928Y-46010714D01*
X121220833Y-46048809D01*
X121144642Y-46086904D01*
X121068452Y-46086904D01*
X120992261Y-46048809D01*
X120954166Y-46010714D01*
X120916071Y-45934523D01*
X120877976Y-45782142D01*
X120877976Y-45591666D01*
X120916071Y-45439285D01*
X120954166Y-45363095D01*
X120992261Y-45325000D01*
X121068452Y-45286904D01*
X121601785Y-45286904D02*
X122097023Y-45286904D01*
X121830357Y-45591666D01*
X121944642Y-45591666D01*
X122020833Y-45629761D01*
X122058928Y-45667857D01*
X122097023Y-45744047D01*
X122097023Y-45934523D01*
X122058928Y-46010714D01*
X122020833Y-46048809D01*
X121944642Y-46086904D01*
X121716071Y-46086904D01*
X121639880Y-46048809D01*
X121601785Y-46010714D01*
X128479761Y-52561904D02*
X128213095Y-52180952D01*
X128022619Y-52561904D02*
X128022619Y-51761904D01*
X128327380Y-51761904D01*
X128403571Y-51800000D01*
X128441666Y-51838095D01*
X128479761Y-51914285D01*
X128479761Y-52028571D01*
X128441666Y-52104761D01*
X128403571Y-52142857D01*
X128327380Y-52180952D01*
X128022619Y-52180952D01*
X128784523Y-51838095D02*
X128822619Y-51800000D01*
X128898809Y-51761904D01*
X129089285Y-51761904D01*
X129165476Y-51800000D01*
X129203571Y-51838095D01*
X129241666Y-51914285D01*
X129241666Y-51990476D01*
X129203571Y-52104761D01*
X128746428Y-52561904D01*
X129241666Y-52561904D01*
X129736904Y-51761904D02*
X129813095Y-51761904D01*
X129889285Y-51800000D01*
X129927380Y-51838095D01*
X129965476Y-51914285D01*
X130003571Y-52066666D01*
X130003571Y-52257142D01*
X129965476Y-52409523D01*
X129927380Y-52485714D01*
X129889285Y-52523809D01*
X129813095Y-52561904D01*
X129736904Y-52561904D01*
X129660714Y-52523809D01*
X129622619Y-52485714D01*
X129584523Y-52409523D01*
X129546428Y-52257142D01*
X129546428Y-52066666D01*
X129584523Y-51914285D01*
X129622619Y-51838095D01*
X129660714Y-51800000D01*
X129736904Y-51761904D01*
X130689285Y-52028571D02*
X130689285Y-52561904D01*
X130498809Y-51723809D02*
X130308333Y-52295238D01*
X130803571Y-52295238D01*
X124199404Y-46163095D02*
X124123214Y-46125000D01*
X124047023Y-46048809D01*
X123932738Y-45934523D01*
X123856547Y-45896428D01*
X123780357Y-45896428D01*
X123818452Y-46086904D02*
X123742261Y-46048809D01*
X123666071Y-45972619D01*
X123627976Y-45820238D01*
X123627976Y-45553571D01*
X123666071Y-45401190D01*
X123742261Y-45325000D01*
X123818452Y-45286904D01*
X123970833Y-45286904D01*
X124047023Y-45325000D01*
X124123214Y-45401190D01*
X124161309Y-45553571D01*
X124161309Y-45820238D01*
X124123214Y-45972619D01*
X124047023Y-46048809D01*
X123970833Y-46086904D01*
X123818452Y-46086904D01*
X124466071Y-45363095D02*
X124504166Y-45325000D01*
X124580357Y-45286904D01*
X124770833Y-45286904D01*
X124847023Y-45325000D01*
X124885119Y-45363095D01*
X124923214Y-45439285D01*
X124923214Y-45515476D01*
X124885119Y-45629761D01*
X124427976Y-46086904D01*
X124923214Y-46086904D01*
X125418452Y-45286904D02*
X125494642Y-45286904D01*
X125570833Y-45325000D01*
X125608928Y-45363095D01*
X125647023Y-45439285D01*
X125685119Y-45591666D01*
X125685119Y-45782142D01*
X125647023Y-45934523D01*
X125608928Y-46010714D01*
X125570833Y-46048809D01*
X125494642Y-46086904D01*
X125418452Y-46086904D01*
X125342261Y-46048809D01*
X125304166Y-46010714D01*
X125266071Y-45934523D01*
X125227976Y-45782142D01*
X125227976Y-45591666D01*
X125266071Y-45439285D01*
X125304166Y-45363095D01*
X125342261Y-45325000D01*
X125418452Y-45286904D01*
X126370833Y-45553571D02*
X126370833Y-46086904D01*
X126180357Y-45248809D02*
X125989880Y-45820238D01*
X126485119Y-45820238D01*
X124079761Y-52636904D02*
X123813095Y-52255952D01*
X123622619Y-52636904D02*
X123622619Y-51836904D01*
X123927380Y-51836904D01*
X124003571Y-51875000D01*
X124041666Y-51913095D01*
X124079761Y-51989285D01*
X124079761Y-52103571D01*
X124041666Y-52179761D01*
X124003571Y-52217857D01*
X123927380Y-52255952D01*
X123622619Y-52255952D01*
X124384523Y-51913095D02*
X124422619Y-51875000D01*
X124498809Y-51836904D01*
X124689285Y-51836904D01*
X124765476Y-51875000D01*
X124803571Y-51913095D01*
X124841666Y-51989285D01*
X124841666Y-52065476D01*
X124803571Y-52179761D01*
X124346428Y-52636904D01*
X124841666Y-52636904D01*
X125336904Y-51836904D02*
X125413095Y-51836904D01*
X125489285Y-51875000D01*
X125527380Y-51913095D01*
X125565476Y-51989285D01*
X125603571Y-52141666D01*
X125603571Y-52332142D01*
X125565476Y-52484523D01*
X125527380Y-52560714D01*
X125489285Y-52598809D01*
X125413095Y-52636904D01*
X125336904Y-52636904D01*
X125260714Y-52598809D01*
X125222619Y-52560714D01*
X125184523Y-52484523D01*
X125146428Y-52332142D01*
X125146428Y-52141666D01*
X125184523Y-51989285D01*
X125222619Y-51913095D01*
X125260714Y-51875000D01*
X125336904Y-51836904D01*
X126327380Y-51836904D02*
X125946428Y-51836904D01*
X125908333Y-52217857D01*
X125946428Y-52179761D01*
X126022619Y-52141666D01*
X126213095Y-52141666D01*
X126289285Y-52179761D01*
X126327380Y-52217857D01*
X126365476Y-52294047D01*
X126365476Y-52484523D01*
X126327380Y-52560714D01*
X126289285Y-52598809D01*
X126213095Y-52636904D01*
X126022619Y-52636904D01*
X125946428Y-52598809D01*
X125908333Y-52560714D01*
X102421428Y-54073809D02*
X102535714Y-54111904D01*
X102726190Y-54111904D01*
X102802380Y-54073809D01*
X102840476Y-54035714D01*
X102878571Y-53959523D01*
X102878571Y-53883333D01*
X102840476Y-53807142D01*
X102802380Y-53769047D01*
X102726190Y-53730952D01*
X102573809Y-53692857D01*
X102497619Y-53654761D01*
X102459523Y-53616666D01*
X102421428Y-53540476D01*
X102421428Y-53464285D01*
X102459523Y-53388095D01*
X102497619Y-53350000D01*
X102573809Y-53311904D01*
X102764285Y-53311904D01*
X102878571Y-53350000D01*
X103145238Y-53311904D02*
X103335714Y-54111904D01*
X103488095Y-53540476D01*
X103640476Y-54111904D01*
X103830952Y-53311904D01*
X104097619Y-53388095D02*
X104135714Y-53350000D01*
X104211904Y-53311904D01*
X104402380Y-53311904D01*
X104478571Y-53350000D01*
X104516666Y-53388095D01*
X104554761Y-53464285D01*
X104554761Y-53540476D01*
X104516666Y-53654761D01*
X104059523Y-54111904D01*
X104554761Y-54111904D01*
X105050000Y-53311904D02*
X105126190Y-53311904D01*
X105202380Y-53350000D01*
X105240476Y-53388095D01*
X105278571Y-53464285D01*
X105316666Y-53616666D01*
X105316666Y-53807142D01*
X105278571Y-53959523D01*
X105240476Y-54035714D01*
X105202380Y-54073809D01*
X105126190Y-54111904D01*
X105050000Y-54111904D01*
X104973809Y-54073809D01*
X104935714Y-54035714D01*
X104897619Y-53959523D01*
X104859523Y-53807142D01*
X104859523Y-53616666D01*
X104897619Y-53464285D01*
X104935714Y-53388095D01*
X104973809Y-53350000D01*
X105050000Y-53311904D01*
X106078571Y-54111904D02*
X105621428Y-54111904D01*
X105850000Y-54111904D02*
X105850000Y-53311904D01*
X105773809Y-53426190D01*
X105697619Y-53502380D01*
X105621428Y-53540476D01*
X128549404Y-46163095D02*
X128473214Y-46125000D01*
X128397023Y-46048809D01*
X128282738Y-45934523D01*
X128206547Y-45896428D01*
X128130357Y-45896428D01*
X128168452Y-46086904D02*
X128092261Y-46048809D01*
X128016071Y-45972619D01*
X127977976Y-45820238D01*
X127977976Y-45553571D01*
X128016071Y-45401190D01*
X128092261Y-45325000D01*
X128168452Y-45286904D01*
X128320833Y-45286904D01*
X128397023Y-45325000D01*
X128473214Y-45401190D01*
X128511309Y-45553571D01*
X128511309Y-45820238D01*
X128473214Y-45972619D01*
X128397023Y-46048809D01*
X128320833Y-46086904D01*
X128168452Y-46086904D01*
X128816071Y-45363095D02*
X128854166Y-45325000D01*
X128930357Y-45286904D01*
X129120833Y-45286904D01*
X129197023Y-45325000D01*
X129235119Y-45363095D01*
X129273214Y-45439285D01*
X129273214Y-45515476D01*
X129235119Y-45629761D01*
X128777976Y-46086904D01*
X129273214Y-46086904D01*
X129768452Y-45286904D02*
X129844642Y-45286904D01*
X129920833Y-45325000D01*
X129958928Y-45363095D01*
X129997023Y-45439285D01*
X130035119Y-45591666D01*
X130035119Y-45782142D01*
X129997023Y-45934523D01*
X129958928Y-46010714D01*
X129920833Y-46048809D01*
X129844642Y-46086904D01*
X129768452Y-46086904D01*
X129692261Y-46048809D01*
X129654166Y-46010714D01*
X129616071Y-45934523D01*
X129577976Y-45782142D01*
X129577976Y-45591666D01*
X129616071Y-45439285D01*
X129654166Y-45363095D01*
X129692261Y-45325000D01*
X129768452Y-45286904D01*
X130339880Y-45363095D02*
X130377976Y-45325000D01*
X130454166Y-45286904D01*
X130644642Y-45286904D01*
X130720833Y-45325000D01*
X130758928Y-45363095D01*
X130797023Y-45439285D01*
X130797023Y-45515476D01*
X130758928Y-45629761D01*
X130301785Y-46086904D01*
X130797023Y-46086904D01*
D12*
X120902064Y-50090000D02*
X120447936Y-50090000D01*
X120902064Y-51560000D02*
X120447936Y-51560000D01*
X138420000Y-69070000D02*
X140020000Y-69070000D01*
X130080000Y-69070000D02*
X131679000Y-69070000D01*
X140020000Y-60695000D02*
X140020000Y-56830000D01*
X130080000Y-56830000D02*
X140020000Y-56830000D01*
X133421000Y-69070000D02*
X134180000Y-69070000D01*
X135921000Y-69070000D02*
X136680000Y-69070000D01*
X140020000Y-69070000D02*
X140020000Y-65205000D01*
X130080000Y-60695000D02*
X130080000Y-56830000D01*
X130080000Y-69070000D02*
X130080000Y-65205000D01*
X99330000Y-57445000D02*
X99330000Y-70205000D01*
X96670000Y-70205000D02*
X99330000Y-70205000D01*
X98000000Y-54845000D02*
X99330000Y-54845000D01*
X99330000Y-54845000D02*
X99330000Y-56175000D01*
X96670000Y-57445000D02*
X99330000Y-57445000D01*
X96670000Y-57445000D02*
X96670000Y-70205000D01*
X120687500Y-46340000D02*
X119012500Y-46340000D01*
X120687500Y-49460000D02*
X121337500Y-49460000D01*
X120687500Y-49460000D02*
X120037500Y-49460000D01*
X120687500Y-46340000D02*
X121337500Y-46340000D01*
X129602064Y-51535000D02*
X129147936Y-51535000D01*
X129602064Y-50065000D02*
X129147936Y-50065000D01*
X125037500Y-46340000D02*
X123362500Y-46340000D01*
X125037500Y-49460000D02*
X124387500Y-49460000D01*
X125037500Y-46340000D02*
X125687500Y-46340000D01*
X125037500Y-49460000D02*
X125687500Y-49460000D01*
X125202064Y-51585000D02*
X124747936Y-51585000D01*
X125202064Y-50115000D02*
X124747936Y-50115000D01*
D11*
X120425000Y-70700000D02*
X112925000Y-70700000D01*
D13*
X99675000Y-67700000D02*
X99675000Y-67700000D01*
X99675000Y-67500000D02*
X99675000Y-67500000D01*
D11*
X108925000Y-54500000D02*
X101925000Y-54500000D01*
X112925000Y-54500000D02*
X120425000Y-54500000D01*
X101925000Y-70700000D02*
X108925000Y-70700000D01*
X120425000Y-54500000D02*
X120425000Y-70600000D01*
X120425000Y-70600000D02*
X120425000Y-70700000D01*
X120425000Y-70600000D02*
X120425000Y-70600000D01*
X101925000Y-54500000D02*
X101925000Y-70700000D01*
D13*
X99675000Y-67500000D02*
G75*
G03*
X99675000Y-67700000I0J-100000D01*
G01*
X99675000Y-67700000D02*
G75*
G03*
X99675000Y-67500000I0J100000D01*
G01*
G36*
X76021932Y-57997434D02*
G01*
X75312649Y-57997434D01*
X75312649Y-59473510D01*
X74565026Y-59473510D01*
X74565026Y-57997434D01*
X73855743Y-57997434D01*
X73855743Y-57441510D01*
X76021932Y-57441510D01*
X76021932Y-57997434D01*
G37*
G36*
X86517403Y-57434350D02*
G01*
X86644493Y-57435397D01*
X86742574Y-57438219D01*
X86820964Y-57443732D01*
X86888986Y-57452853D01*
X86955958Y-57466499D01*
X87027109Y-57484492D01*
X87238192Y-57555303D01*
X87421293Y-57646862D01*
X87574926Y-57757792D01*
X87697605Y-57886717D01*
X87787841Y-58032261D01*
X87844150Y-58193047D01*
X87855379Y-58251434D01*
X87866465Y-58323321D01*
X87087564Y-58323321D01*
X87064785Y-58268328D01*
X87016604Y-58193028D01*
X86939836Y-58121230D01*
X86843913Y-58061412D01*
X86824120Y-58052019D01*
X86727247Y-58021503D01*
X86607420Y-58003182D01*
X86478167Y-57997450D01*
X86353013Y-58004704D01*
X86245484Y-58025339D01*
X86218383Y-58034310D01*
X86097181Y-58097760D01*
X86005314Y-58184401D01*
X85944684Y-58291335D01*
X85917190Y-58415662D01*
X85917111Y-58493704D01*
X85942320Y-58621225D01*
X85998464Y-58726305D01*
X86086536Y-58810445D01*
X86152547Y-58850197D01*
X86202954Y-58874819D01*
X86246173Y-58891239D01*
X86292057Y-58901111D01*
X86350457Y-58906089D01*
X86431224Y-58907826D01*
X86496965Y-58908000D01*
X86600641Y-58907078D01*
X86675672Y-58903441D01*
X86731728Y-58895786D01*
X86778480Y-58882809D01*
X86824120Y-58863886D01*
X86922883Y-58806485D01*
X87004016Y-58736040D01*
X87058238Y-58660927D01*
X87064785Y-58646691D01*
X87087564Y-58591698D01*
X87863641Y-58591698D01*
X87845364Y-58692340D01*
X87797424Y-58851120D01*
X87714762Y-58998075D01*
X87599838Y-59130719D01*
X87455116Y-59246567D01*
X87283057Y-59343133D01*
X87145700Y-59398611D01*
X87002272Y-59437710D01*
X86833232Y-59466504D01*
X86650131Y-59484108D01*
X86464521Y-59489640D01*
X86287953Y-59482216D01*
X86193117Y-59471463D01*
X85964835Y-59423701D01*
X85761368Y-59351229D01*
X85584349Y-59255189D01*
X85435408Y-59136729D01*
X85316180Y-58996991D01*
X85228295Y-58837123D01*
X85206104Y-58779138D01*
X85164496Y-58604942D01*
X85153710Y-58421402D01*
X85165318Y-58294566D01*
X85212454Y-58115393D01*
X85293092Y-57953253D01*
X85405694Y-57809620D01*
X85548720Y-57685970D01*
X85720632Y-57583776D01*
X85919891Y-57504514D01*
X86018988Y-57476491D01*
X86092024Y-57459652D01*
X86160767Y-57447800D01*
X86234453Y-57440152D01*
X86322318Y-57435929D01*
X86433597Y-57434348D01*
X86517403Y-57434350D01*
G37*
G36*
X84993403Y-59473510D02*
G01*
X84245781Y-59473510D01*
X84245781Y-57441510D01*
X84993403Y-57441510D01*
X84993403Y-59473510D01*
G37*
G36*
X69978649Y-57445855D02*
G01*
X70190195Y-57447389D01*
X70367007Y-57448889D01*
X70512690Y-57450521D01*
X70630849Y-57452455D01*
X70725088Y-57454859D01*
X70799012Y-57457900D01*
X70856227Y-57461746D01*
X70900337Y-57466567D01*
X70934948Y-57472529D01*
X70963663Y-57479801D01*
X70990088Y-57488550D01*
X71003909Y-57493660D01*
X71158262Y-57567421D01*
X71279789Y-57660546D01*
X71369168Y-57774092D01*
X71427079Y-57909112D01*
X71454199Y-58066660D01*
X71455067Y-58194141D01*
X71440850Y-58332800D01*
X71411484Y-58444492D01*
X71363205Y-58538861D01*
X71292248Y-58625552D01*
X71283010Y-58634920D01*
X71197365Y-58708123D01*
X71101657Y-58763021D01*
X70984245Y-58805695D01*
X70926486Y-58821231D01*
X70864063Y-58838377D01*
X70819093Y-58853784D01*
X70801882Y-58863599D01*
X70814807Y-58878919D01*
X70853103Y-58915385D01*
X70912814Y-58969450D01*
X70989981Y-59037569D01*
X71080648Y-59116194D01*
X71148991Y-59174699D01*
X71499823Y-59473510D01*
X71043557Y-59473364D01*
X70587290Y-59473219D01*
X70258282Y-59157062D01*
X70151453Y-59055009D01*
X70068011Y-58976999D01*
X70004212Y-58919984D01*
X69956314Y-58880916D01*
X69920574Y-58856746D01*
X69893249Y-58844426D01*
X69870596Y-58840907D01*
X69870093Y-58840906D01*
X69810913Y-58840906D01*
X69810913Y-59473510D01*
X69063290Y-59473510D01*
X69063290Y-58419170D01*
X69810913Y-58419170D01*
X70162694Y-58419170D01*
X70286351Y-58418035D01*
X70396386Y-58414854D01*
X70486140Y-58409959D01*
X70548956Y-58403684D01*
X70573580Y-58398566D01*
X70640552Y-58357158D01*
X70680214Y-58289025D01*
X70692724Y-58198131D01*
X70689579Y-58132753D01*
X70677399Y-58081641D01*
X70652065Y-58043076D01*
X70609461Y-58015339D01*
X70545467Y-57996710D01*
X70455966Y-57985469D01*
X70336840Y-57979897D01*
X70183970Y-57978276D01*
X70166170Y-57978264D01*
X69810913Y-57978264D01*
X69810913Y-58419170D01*
X69063290Y-58419170D01*
X69063290Y-57439459D01*
X69978649Y-57445855D01*
G37*
G36*
X82828010Y-57968098D02*
G01*
X82913463Y-58094244D01*
X82992920Y-58209585D01*
X83063705Y-58310387D01*
X83123142Y-58392917D01*
X83168555Y-58453441D01*
X83197267Y-58488223D01*
X83205818Y-58495268D01*
X83213235Y-58487132D01*
X83219064Y-58460076D01*
X83223459Y-58410726D01*
X83226572Y-58335708D01*
X83228558Y-58231650D01*
X83229569Y-58095177D01*
X83229781Y-57968680D01*
X83229781Y-57441510D01*
X83958234Y-57441510D01*
X83958234Y-59473510D01*
X83531705Y-59473504D01*
X83105177Y-59473499D01*
X82741477Y-58965504D01*
X82653352Y-58843031D01*
X82572021Y-58731179D01*
X82500221Y-58633621D01*
X82440690Y-58554028D01*
X82396164Y-58496073D01*
X82369380Y-58463428D01*
X82362873Y-58457510D01*
X82358911Y-58475848D01*
X82355345Y-58527540D01*
X82352322Y-58607600D01*
X82349987Y-58711043D01*
X82348488Y-58832882D01*
X82347969Y-58965510D01*
X82347969Y-59473510D01*
X81600347Y-59473510D01*
X81600347Y-57441510D01*
X82474165Y-57441510D01*
X82828010Y-57968098D01*
G37*
G36*
X73721554Y-57997434D02*
G01*
X72418007Y-57997434D01*
X72418007Y-58227472D01*
X73721554Y-58227472D01*
X73721554Y-58706717D01*
X72418007Y-58706717D01*
X72418007Y-58917585D01*
X73721554Y-58917585D01*
X73721554Y-59473510D01*
X71670384Y-59473510D01*
X71670384Y-57441510D01*
X73721554Y-57441510D01*
X73721554Y-57997434D01*
G37*
G36*
X80197344Y-57089991D02*
G01*
X80281111Y-57093382D01*
X80347907Y-57100650D01*
X80408406Y-57113119D01*
X80473284Y-57132111D01*
X80498083Y-57140238D01*
X80676736Y-57212141D01*
X80835836Y-57304499D01*
X80986509Y-57424287D01*
X81054716Y-57489187D01*
X81135289Y-57573341D01*
X81195847Y-57647759D01*
X81246517Y-57726402D01*
X81297426Y-57823228D01*
X81298251Y-57824906D01*
X81383325Y-58039293D01*
X81432035Y-58259378D01*
X81444492Y-58481310D01*
X81420807Y-58701240D01*
X81361092Y-58915320D01*
X81265458Y-59119700D01*
X81260573Y-59128159D01*
X81155376Y-59277574D01*
X81021313Y-59419476D01*
X80867857Y-59545756D01*
X80704477Y-59648310D01*
X80591782Y-59700656D01*
X80466886Y-59741074D01*
X80327425Y-59771786D01*
X80185215Y-59791258D01*
X80052071Y-59797959D01*
X79939809Y-59790355D01*
X79922988Y-59787399D01*
X79882923Y-59779555D01*
X79821692Y-59767614D01*
X79779215Y-59759347D01*
X79686910Y-59733041D01*
X79576005Y-59688701D01*
X79458024Y-59632008D01*
X79344489Y-59568646D01*
X79246924Y-59504298D01*
X79219631Y-59483361D01*
X79087691Y-59356345D01*
X78967765Y-59199564D01*
X78865983Y-59021138D01*
X78857712Y-59003849D01*
X78778021Y-58791734D01*
X78735294Y-58575676D01*
X78728888Y-58359206D01*
X78758162Y-58145849D01*
X78822474Y-57939136D01*
X78921182Y-57742594D01*
X79053644Y-57559751D01*
X79136650Y-57470264D01*
X79300426Y-57329504D01*
X79478301Y-57220744D01*
X79673781Y-57140238D01*
X79742551Y-57118742D01*
X79803336Y-57104216D01*
X79866810Y-57095339D01*
X79943647Y-57090785D01*
X80044521Y-57089234D01*
X80085932Y-57089155D01*
X80197344Y-57089991D01*
G37*
G36*
X89444511Y-57445210D02*
G01*
X89647959Y-57484037D01*
X89829223Y-57541909D01*
X89985889Y-57617697D01*
X90115542Y-57710272D01*
X90215769Y-57818505D01*
X90284153Y-57941266D01*
X90314968Y-58053185D01*
X90327511Y-58131623D01*
X89572513Y-58131623D01*
X89525897Y-58076223D01*
X89455088Y-58017224D01*
X89355529Y-57975811D01*
X89224623Y-57951071D01*
X89153252Y-57945042D01*
X89010974Y-57944435D01*
X88898407Y-57961808D01*
X88810934Y-57998069D01*
X88781944Y-58018060D01*
X88739914Y-58070095D01*
X88731517Y-58127279D01*
X88756676Y-58180156D01*
X88783389Y-58203068D01*
X88803671Y-58213672D01*
X88831685Y-58222175D01*
X88872139Y-58228967D01*
X88929740Y-58234441D01*
X89009196Y-58238986D01*
X89115215Y-58242995D01*
X89252505Y-58246858D01*
X89334521Y-58248862D01*
X89491474Y-58252890D01*
X89615654Y-58257000D01*
X89712627Y-58261658D01*
X89787957Y-58267328D01*
X89847210Y-58274477D01*
X89895950Y-58283570D01*
X89939742Y-58295073D01*
X89959186Y-58301117D01*
X90093743Y-58361895D01*
X90199480Y-58447903D01*
X90276037Y-58558679D01*
X90323054Y-58693765D01*
X90336710Y-58783767D01*
X90332460Y-58928827D01*
X90293128Y-59060376D01*
X90220012Y-59177003D01*
X90114409Y-59277299D01*
X89977618Y-59359853D01*
X89810935Y-59423256D01*
X89728347Y-59444748D01*
X89639610Y-59459593D01*
X89522572Y-59471414D01*
X89387179Y-59479898D01*
X89243372Y-59484732D01*
X89101096Y-59485602D01*
X88970294Y-59482195D01*
X88860911Y-59474198D01*
X88846535Y-59472531D01*
X88658231Y-59438397D01*
X88482213Y-59385341D01*
X88325573Y-59316236D01*
X88195404Y-59233958D01*
X88139586Y-59186005D01*
X88072561Y-59106127D01*
X88015266Y-59010636D01*
X87975280Y-58913802D01*
X87961378Y-58850491D01*
X87955139Y-58792981D01*
X88326849Y-58787766D01*
X88455199Y-58786153D01*
X88550621Y-58785734D01*
X88618521Y-58786968D01*
X88664305Y-58790311D01*
X88693378Y-58796223D01*
X88711145Y-58805160D01*
X88723011Y-58817581D01*
X88725889Y-58821569D01*
X88781971Y-58872814D01*
X88868500Y-58915545D01*
X88978149Y-58947794D01*
X89103588Y-58967589D01*
X89237488Y-58972960D01*
X89282527Y-58971217D01*
X89407249Y-58955333D01*
X89497678Y-58924692D01*
X89553406Y-58879588D01*
X89574023Y-58820319D01*
X89565836Y-58765590D01*
X89555403Y-58741076D01*
X89538568Y-58721512D01*
X89511105Y-58706191D01*
X89468786Y-58694401D01*
X89407385Y-58685434D01*
X89322676Y-58678580D01*
X89210430Y-58673130D01*
X89066423Y-58668374D01*
X88971139Y-58665771D01*
X88781810Y-58659761D01*
X88626192Y-58651955D01*
X88499666Y-58641374D01*
X88397612Y-58627039D01*
X88315412Y-58607972D01*
X88248446Y-58583193D01*
X88192095Y-58551724D01*
X88141738Y-58512586D01*
X88110965Y-58483503D01*
X88041753Y-58400267D01*
X87998855Y-58310759D01*
X87978149Y-58204051D01*
X87974641Y-58122038D01*
X87976787Y-58034520D01*
X87985877Y-57968982D01*
X88005209Y-57909239D01*
X88028331Y-57858667D01*
X88107550Y-57740577D01*
X88219886Y-57640527D01*
X88364404Y-57558938D01*
X88540169Y-57496232D01*
X88746246Y-57452831D01*
X88980724Y-57429209D01*
X89221295Y-57426558D01*
X89444511Y-57445210D01*
G37*
G36*
X77109818Y-57445855D02*
G01*
X77321365Y-57447389D01*
X77498177Y-57448889D01*
X77643860Y-57450521D01*
X77762019Y-57452455D01*
X77856258Y-57454859D01*
X77930182Y-57457900D01*
X77987397Y-57461746D01*
X78031507Y-57466567D01*
X78066117Y-57472529D01*
X78094833Y-57479801D01*
X78121258Y-57488550D01*
X78135079Y-57493660D01*
X78289432Y-57567421D01*
X78410959Y-57660546D01*
X78500338Y-57774092D01*
X78558249Y-57909112D01*
X78585369Y-58066660D01*
X78586237Y-58194141D01*
X78572020Y-58332800D01*
X78542654Y-58444492D01*
X78494374Y-58538861D01*
X78423418Y-58625552D01*
X78414179Y-58634920D01*
X78328535Y-58708123D01*
X78232827Y-58763021D01*
X78115415Y-58805695D01*
X78057656Y-58821231D01*
X77995233Y-58838377D01*
X77950263Y-58853784D01*
X77933052Y-58863599D01*
X77945977Y-58878919D01*
X77984273Y-58915385D01*
X78043984Y-58969450D01*
X78121151Y-59037569D01*
X78211818Y-59116194D01*
X78280160Y-59174699D01*
X78630993Y-59473510D01*
X78174726Y-59473364D01*
X77718460Y-59473219D01*
X77389452Y-59157062D01*
X77282623Y-59055009D01*
X77199181Y-58976999D01*
X77135382Y-58919984D01*
X77087484Y-58880916D01*
X77051744Y-58856746D01*
X77024419Y-58844426D01*
X77001766Y-58840907D01*
X77001263Y-58840906D01*
X76942083Y-58840906D01*
X76942083Y-59473510D01*
X76194460Y-59473510D01*
X76194460Y-58419170D01*
X76942083Y-58419170D01*
X77293863Y-58419170D01*
X77417521Y-58418035D01*
X77527556Y-58414854D01*
X77617310Y-58409959D01*
X77680126Y-58403684D01*
X77704750Y-58398566D01*
X77771721Y-58357158D01*
X77811383Y-58289025D01*
X77823894Y-58198131D01*
X77820749Y-58132753D01*
X77808569Y-58081641D01*
X77783235Y-58043076D01*
X77740630Y-58015339D01*
X77676637Y-57996710D01*
X77587136Y-57985469D01*
X77468009Y-57979897D01*
X77315140Y-57978276D01*
X77297340Y-57978264D01*
X76942083Y-57978264D01*
X76942083Y-58419170D01*
X76194460Y-58419170D01*
X76194460Y-57439459D01*
X77109818Y-57445855D01*
G37*
D12*
X129387500Y-49460000D02*
X128737500Y-49460000D01*
X129387500Y-46340000D02*
X127712500Y-46340000D01*
X129387500Y-46340000D02*
X130037500Y-46340000D01*
X129387500Y-49460000D02*
X130037500Y-49460000D01*
%LPC*%
D14*
X151500000Y-48500000D03*
D15*
X121675000Y-50825000D03*
X119675000Y-50825000D03*
D14*
X58500000Y-76500000D03*
D16*
X130650000Y-62950000D03*
X139450000Y-62950000D03*
D17*
X137550000Y-69950000D03*
X135050000Y-69950000D03*
X132550000Y-69950000D03*
D18*
X98000000Y-56175000D03*
D19*
X98000000Y-58715000D03*
X98000000Y-61255000D03*
X98000000Y-63795000D03*
X98000000Y-66335000D03*
X98000000Y-68875000D03*
D14*
X58500000Y-48500000D03*
D20*
X119750000Y-46950000D03*
X119750000Y-48850000D03*
X121625000Y-47900000D03*
D14*
X151500000Y-76500000D03*
D15*
X130375000Y-50800000D03*
X128375000Y-50800000D03*
D20*
X124100000Y-46950000D03*
X124100000Y-48850000D03*
X125975000Y-47900000D03*
D15*
X125975000Y-50850000D03*
X123975000Y-50850000D03*
D21*
X100775000Y-67600000D03*
X100775000Y-65100000D03*
X100775000Y-62600000D03*
X100775000Y-60100000D03*
X100775000Y-57600000D03*
X119075000Y-57600000D03*
X119075000Y-60100000D03*
X119075000Y-62600000D03*
X119075000Y-65100000D03*
X119075000Y-67600000D03*
D22*
X111025000Y-54600000D03*
X111025000Y-70600000D03*
D20*
X128450000Y-46950000D03*
X128450000Y-48850000D03*
X130325000Y-47900000D03*
D23*
X100794058Y-51400000D03*
D24*
X95794058Y-48900000D03*
X100794058Y-46400000D03*
D25*
X147850000Y-63910000D03*
D22*
X147850000Y-68990000D03*
D23*
X108994058Y-51400000D03*
D24*
X103994058Y-48900000D03*
X108994058Y-46400000D03*
D23*
X117194058Y-51400000D03*
D24*
X112194058Y-48900000D03*
X117194058Y-46400000D03*
D23*
X92594058Y-51400000D03*
D24*
X87594058Y-48900000D03*
X92594058Y-46400000D03*
D25*
X62500000Y-70540000D03*
D22*
X62500000Y-65460000D03*
M02*
