M48
; DRILL file {KiCad (6.0.10)} date Sun Jan 22 11:55:08 2023
; FORMAT={-:-/ absolute / metric / decimal}
; #@! TF.CreationDate,2023-01-22T11:55:08+01:00
; #@! TF.GenerationSoftware,Kicad,Pcbnew,(6.0.10)
; #@! TF.FileFunction,Plated,1,2,PTH
FMAT,2
METRIC
; #@! TA.AperFunction,Plated,PTH,ViaDrill
T1C0.400
; #@! TA.AperFunction,Plated,PTH,ComponentDrill
T2C0.900
; #@! TA.AperFunction,Plated,PTH,ComponentDrill
T3C1.000
; #@! TA.AperFunction,Plated,PTH,ComponentDrill
T4C1.520
; #@! TA.AperFunction,Plated,PTH,ComponentDrill
T5C2.000
%
G90
G05
T1
X56.175Y-57.35
X59.71Y-59.51
X59.73Y-61.5
X60.37Y-60.5
X60.69Y-53.7
X65.0Y-60.8
X65.93Y-65.15
X65.96Y-66.91
X66.158Y-51.552
X66.294Y-56.642
X67.3Y-62.275
X68.95Y-57.725
X69.83Y-63.22
X72.6Y-63.14
X74.93Y-56.642
X75.692Y-64.77
X76.9Y-66.75
X78.486Y-55.626
X81.325Y-59.3
X81.85Y-64.008
X82.804Y-54.356
X83.975Y-59.75
X84.328Y-56.388
X86.34Y-58.62
X86.847Y-71.837
X87.33Y-63.45
X88.0Y-78.5
X90.84Y-73.9
X90.84Y-76.62
X90.84Y-77.68
X91.865Y-73.875
X91.865Y-76.595
X91.865Y-77.68
X92.9Y-73.9
X92.9Y-76.62
X92.9Y-77.68
X93.726Y-55.88
X93.98Y-58.166
X94.5Y-69.0
X94.5Y-70.31
X94.996Y-60.706
X95.32Y-69.69
X96.22Y-73.01
X99.98Y-71.19
X102.575Y-56.575
X102.925Y-63.8
X103.025Y-67.425
X103.124Y-61.468
X107.4Y-49.075
X108.2Y-54.15
X108.66Y-68.7
X110.15Y-59.35
X110.998Y-47.244
X112.2Y-67.68
X112.61Y-65.2
X113.538Y-51.562
X113.55Y-53.825
X117.348Y-62.738
X117.4Y-78.4
X117.925Y-70.025
X118.075Y-49.0
X119.25Y-71.85
X120.775Y-54.075
X120.904Y-59.182
X120.904Y-62.992
X121.412Y-68.326
X125.222Y-70.104
X125.95Y-60.9
X126.2Y-71.8
X126.9Y-66.1
X127.762Y-73.66
X128.524Y-63.754
X130.25Y-78.75
X132.08Y-60.706
X133.2Y-52.125
X141.0Y-77.5
X141.0Y-79.0
X141.45Y-48.525
X141.5Y-62.5
X142.5Y-77.5
X142.5Y-79.0
X143.15Y-56.1
X143.4Y-58.4
X143.4Y-59.6
X143.4Y-60.9
X144.0Y-63.525
X144.0Y-77.5
X144.0Y-79.0
X145.5Y-77.5
X145.5Y-79.0
X146.0Y-47.0
X146.2Y-53.8
X146.23Y-54.8
X153.9Y-53.35
T2
X100.775Y-57.6
X100.775Y-60.1
X100.775Y-62.6
X100.775Y-65.1
X100.775Y-67.6
X119.075Y-57.6
X119.075Y-60.1
X119.075Y-62.6
X119.075Y-65.1
X119.075Y-67.6
T3
X123.425Y-53.725
X123.425Y-56.265
X123.425Y-58.805
X123.425Y-61.345
X123.425Y-63.885
X123.425Y-66.425
X123.425Y-68.965
X123.425Y-71.505
X130.3Y-51.4
X130.3Y-53.9
X130.3Y-56.4
X130.3Y-68.7
X130.3Y-71.2
X130.3Y-73.7
T4
X62.15Y-65.42
X62.15Y-70.5
X148.0Y-65.41
X148.0Y-70.49
T5
X111.025Y-54.6
X111.025Y-70.6
T0
M30
