G04 #@! TF.GenerationSoftware,KiCad,Pcbnew,(6.0.9)*
G04 #@! TF.CreationDate,2022-12-05T09:31:55+01:00*
G04 #@! TF.ProjectId,HeaterPSU,48656174-6572-4505-9355-2e6b69636164,rev?*
G04 #@! TF.SameCoordinates,Original*
G04 #@! TF.FileFunction,Soldermask,Bot*
G04 #@! TF.FilePolarity,Negative*
%FSLAX46Y46*%
G04 Gerber Fmt 4.6, Leading zero omitted, Abs format (unit mm)*
G04 Created by KiCad (PCBNEW (6.0.9)) date 2022-12-05 09:31:55*
%MOMM*%
%LPD*%
G01*
G04 APERTURE LIST*
G04 Aperture macros list*
%AMRoundRect*
0 Rectangle with rounded corners*
0 $1 Rounding radius*
0 $2 $3 $4 $5 $6 $7 $8 $9 X,Y pos of 4 corners*
0 Add a 4 corners polygon primitive as box body*
4,1,4,$2,$3,$4,$5,$6,$7,$8,$9,$2,$3,0*
0 Add four circle primitives for the rounded corners*
1,1,$1+$1,$2,$3*
1,1,$1+$1,$4,$5*
1,1,$1+$1,$6,$7*
1,1,$1+$1,$8,$9*
0 Add four rect primitives between the rounded corners*
20,1,$1+$1,$2,$3,$4,$5,0*
20,1,$1+$1,$4,$5,$6,$7,0*
20,1,$1+$1,$6,$7,$8,$9,0*
20,1,$1+$1,$8,$9,$2,$3,0*%
%AMFreePoly0*
4,1,9,3.862500,-0.866500,0.737500,-0.866500,0.737500,-0.450000,-0.737500,-0.450000,-0.737500,0.450000,0.737500,0.450000,0.737500,0.866500,3.862500,0.866500,3.862500,-0.866500,3.862500,-0.866500,$1*%
G04 Aperture macros list end*
%ADD10R,0.900000X1.300000*%
%ADD11FreePoly0,90.000000*%
%ADD12RoundRect,0.250000X-0.337500X-0.475000X0.337500X-0.475000X0.337500X0.475000X-0.337500X0.475000X0*%
%ADD13RoundRect,0.250000X0.337500X0.475000X-0.337500X0.475000X-0.337500X-0.475000X0.337500X-0.475000X0*%
%ADD14R,4.600000X1.100000*%
%ADD15R,9.400000X10.800000*%
%ADD16C,3.200000*%
%ADD17C,4.000000*%
%ADD18C,1.800000*%
%ADD19R,1.700000X1.700000*%
%ADD20O,1.700000X1.700000*%
%ADD21C,1.400000*%
%ADD22C,3.000000*%
%ADD23R,1.550000X1.550000*%
%ADD24C,1.550000*%
%ADD25RoundRect,0.250000X-0.350000X-0.450000X0.350000X-0.450000X0.350000X0.450000X-0.350000X0.450000X0*%
%ADD26R,3.500000X4.000000*%
%ADD27RoundRect,0.250000X0.450000X-0.350000X0.450000X0.350000X-0.450000X0.350000X-0.450000X-0.350000X0*%
%ADD28RoundRect,0.250000X-0.325000X-0.450000X0.325000X-0.450000X0.325000X0.450000X-0.325000X0.450000X0*%
%ADD29RoundRect,0.250000X0.400000X1.075000X-0.400000X1.075000X-0.400000X-1.075000X0.400000X-1.075000X0*%
%ADD30RoundRect,0.250000X-0.450000X0.350000X-0.450000X-0.350000X0.450000X-0.350000X0.450000X0.350000X0*%
%ADD31RoundRect,0.250000X0.475000X-0.337500X0.475000X0.337500X-0.475000X0.337500X-0.475000X-0.337500X0*%
%ADD32R,3.000000X3.000000*%
%ADD33RoundRect,0.250000X-1.075000X0.400000X-1.075000X-0.400000X1.075000X-0.400000X1.075000X0.400000X0*%
%ADD34R,1.560000X0.650000*%
%ADD35R,1.200000X0.900000*%
%ADD36R,0.900000X1.200000*%
%ADD37RoundRect,0.249999X1.425001X-0.450001X1.425001X0.450001X-1.425001X0.450001X-1.425001X-0.450001X0*%
%ADD38RoundRect,0.250000X0.350000X0.450000X-0.350000X0.450000X-0.350000X-0.450000X0.350000X-0.450000X0*%
G04 APERTURE END LIST*
D10*
X80890000Y-50770000D03*
D11*
X79390000Y-50682500D03*
D10*
X77890000Y-50770000D03*
D12*
X80525000Y-52970000D03*
X82600000Y-52970000D03*
D13*
X78272500Y-52970000D03*
X76197500Y-52970000D03*
D14*
X134255000Y-53740000D03*
D15*
X143405000Y-51200000D03*
D14*
X134255000Y-48660000D03*
D16*
X151500000Y-48500000D03*
X58500000Y-76500000D03*
D17*
X130650000Y-62950000D03*
X139450000Y-62950000D03*
D18*
X137550000Y-69950000D03*
X135050000Y-69950000D03*
X132550000Y-69950000D03*
D19*
X98000000Y-56175000D03*
D20*
X98000000Y-58715000D03*
X98000000Y-61255000D03*
X98000000Y-63795000D03*
X98000000Y-66335000D03*
X98000000Y-68875000D03*
D16*
X58500000Y-48500000D03*
X151500000Y-76500000D03*
D21*
X100775000Y-67600000D03*
X100775000Y-65100000D03*
X100775000Y-62600000D03*
X100775000Y-60100000D03*
X100775000Y-57600000D03*
X119075000Y-57600000D03*
X119075000Y-60100000D03*
X119075000Y-62600000D03*
X119075000Y-65100000D03*
X119075000Y-67600000D03*
D22*
X111025000Y-54600000D03*
X111025000Y-70600000D03*
D14*
X83075000Y-69160000D03*
D15*
X73925000Y-71700000D03*
D14*
X83075000Y-74240000D03*
D23*
X100794058Y-51400000D03*
D24*
X95794058Y-48900000D03*
X100794058Y-46400000D03*
D25*
X114750000Y-57450000D03*
X116750000Y-57450000D03*
D26*
X114450000Y-74200000D03*
X122450000Y-74200000D03*
D25*
X114750000Y-65077500D03*
X116750000Y-65077500D03*
D13*
X129187500Y-53550000D03*
X127112500Y-53550000D03*
D27*
X94625000Y-68875000D03*
X94625000Y-66875000D03*
D12*
X122462500Y-53550000D03*
X124537500Y-53550000D03*
D28*
X69330000Y-47680000D03*
X71380000Y-47680000D03*
D29*
X66205000Y-51280000D03*
X63105000Y-51280000D03*
D30*
X88500000Y-66850000D03*
X88500000Y-68850000D03*
D12*
X114712500Y-62525000D03*
X116787500Y-62525000D03*
D25*
X103800000Y-65000000D03*
X105800000Y-65000000D03*
D31*
X126300000Y-76387500D03*
X126300000Y-74312500D03*
X129050000Y-76387500D03*
X129050000Y-74312500D03*
D32*
X147850000Y-65460000D03*
D22*
X147850000Y-70540000D03*
D33*
X135600000Y-74350000D03*
X135600000Y-77450000D03*
D34*
X108450000Y-72550000D03*
X108450000Y-73500000D03*
X108450000Y-74450000D03*
X105750000Y-74450000D03*
X105750000Y-73500000D03*
X105750000Y-72550000D03*
D12*
X122462500Y-56750000D03*
X124537500Y-56750000D03*
D29*
X71505000Y-51280000D03*
X68405000Y-51280000D03*
D13*
X108187500Y-69900000D03*
X106112500Y-69900000D03*
D25*
X114750000Y-67600000D03*
X116750000Y-67600000D03*
D23*
X108994058Y-51400000D03*
D24*
X103994058Y-48900000D03*
X108994058Y-46400000D03*
D25*
X103800000Y-60000000D03*
X105800000Y-60000000D03*
D13*
X129187500Y-56750000D03*
X127112500Y-56750000D03*
D23*
X117194058Y-51400000D03*
D24*
X112194058Y-48900000D03*
X117194058Y-46400000D03*
D31*
X105700000Y-78337500D03*
X105700000Y-76262500D03*
D28*
X63630000Y-47680000D03*
X65680000Y-47680000D03*
D31*
X131800000Y-76387500D03*
X131800000Y-74312500D03*
D23*
X92594058Y-51400000D03*
D24*
X87594058Y-48900000D03*
X92594058Y-46400000D03*
D25*
X103800000Y-62600000D03*
X105800000Y-62600000D03*
D35*
X88500000Y-74450000D03*
X88500000Y-71150000D03*
D25*
X103800000Y-57400000D03*
X105800000Y-57400000D03*
D31*
X108450000Y-78337500D03*
X108450000Y-76262500D03*
D36*
X66305000Y-54930000D03*
X63005000Y-54930000D03*
D37*
X125750000Y-67400000D03*
X125750000Y-61300000D03*
D38*
X116750000Y-59972500D03*
X114750000Y-59972500D03*
D32*
X62500000Y-70540000D03*
D22*
X62500000Y-65460000D03*
M02*
