G04 #@! TF.GenerationSoftware,KiCad,Pcbnew,(6.0.9)*
G04 #@! TF.CreationDate,2022-12-04T16:37:35+01:00*
G04 #@! TF.ProjectId,HeaterMCU,48656174-6572-44d4-9355-2e6b69636164,rev?*
G04 #@! TF.SameCoordinates,Original*
G04 #@! TF.FileFunction,Legend,Top*
G04 #@! TF.FilePolarity,Positive*
%FSLAX46Y46*%
G04 Gerber Fmt 4.6, Leading zero omitted, Abs format (unit mm)*
G04 Created by KiCad (PCBNEW (6.0.9)) date 2022-12-04 16:37:35*
%MOMM*%
%LPD*%
G01*
G04 APERTURE LIST*
G04 Aperture macros list*
%AMRoundRect*
0 Rectangle with rounded corners*
0 $1 Rounding radius*
0 $2 $3 $4 $5 $6 $7 $8 $9 X,Y pos of 4 corners*
0 Add a 4 corners polygon primitive as box body*
4,1,4,$2,$3,$4,$5,$6,$7,$8,$9,$2,$3,0*
0 Add four circle primitives for the rounded corners*
1,1,$1+$1,$2,$3*
1,1,$1+$1,$4,$5*
1,1,$1+$1,$6,$7*
1,1,$1+$1,$8,$9*
0 Add four rect primitives between the rounded corners*
20,1,$1+$1,$2,$3,$4,$5,0*
20,1,$1+$1,$4,$5,$6,$7,0*
20,1,$1+$1,$6,$7,$8,$9,0*
20,1,$1+$1,$8,$9,$2,$3,0*%
G04 Aperture macros list end*
%ADD10C,0.300000*%
%ADD11C,0.150000*%
%ADD12C,0.100000*%
%ADD13C,0.120000*%
%ADD14R,1.700000X1.700000*%
%ADD15O,1.700000X1.700000*%
%ADD16RoundRect,0.237500X-0.300000X-0.237500X0.300000X-0.237500X0.300000X0.237500X-0.300000X0.237500X0*%
%ADD17C,0.700000*%
%ADD18RoundRect,0.237500X-0.287500X-0.237500X0.287500X-0.237500X0.287500X0.237500X-0.287500X0.237500X0*%
%ADD19C,2.700000*%
%ADD20C,1.700000*%
%ADD21RoundRect,0.237500X-0.250000X-0.237500X0.250000X-0.237500X0.250000X0.237500X-0.250000X0.237500X0*%
%ADD22R,0.900000X1.200000*%
%ADD23RoundRect,0.237500X-0.237500X0.300000X-0.237500X-0.300000X0.237500X-0.300000X0.237500X0.300000X0*%
%ADD24RoundRect,0.250000X-1.075000X0.400000X-1.075000X-0.400000X1.075000X-0.400000X1.075000X0.400000X0*%
%ADD25C,3.200000*%
%ADD26R,2.000000X1.650000*%
%ADD27RoundRect,0.237500X0.300000X0.237500X-0.300000X0.237500X-0.300000X-0.237500X0.300000X-0.237500X0*%
%ADD28R,0.650000X1.560000*%
%ADD29RoundRect,0.137500X-0.662500X-0.137500X0.662500X-0.137500X0.662500X0.137500X-0.662500X0.137500X0*%
G04 APERTURE END LIST*
D10*
X106700000Y-69223214D02*
X106771428Y-69294642D01*
X106700000Y-69366071D01*
X106628571Y-69294642D01*
X106700000Y-69223214D01*
X106700000Y-69366071D01*
D11*
X65367619Y-47582380D02*
X65034285Y-47106190D01*
X64796190Y-47582380D02*
X64796190Y-46582380D01*
X65177142Y-46582380D01*
X65272380Y-46630000D01*
X65320000Y-46677619D01*
X65367619Y-46772857D01*
X65367619Y-46915714D01*
X65320000Y-47010952D01*
X65272380Y-47058571D01*
X65177142Y-47106190D01*
X64796190Y-47106190D01*
X65796190Y-47058571D02*
X66129523Y-47058571D01*
X66272380Y-47582380D02*
X65796190Y-47582380D01*
X65796190Y-46582380D01*
X66272380Y-46582380D01*
X66653333Y-47534761D02*
X66796190Y-47582380D01*
X67034285Y-47582380D01*
X67129523Y-47534761D01*
X67177142Y-47487142D01*
X67224761Y-47391904D01*
X67224761Y-47296666D01*
X67177142Y-47201428D01*
X67129523Y-47153809D01*
X67034285Y-47106190D01*
X66843809Y-47058571D01*
X66748571Y-47010952D01*
X66700952Y-46963333D01*
X66653333Y-46868095D01*
X66653333Y-46772857D01*
X66700952Y-46677619D01*
X66748571Y-46630000D01*
X66843809Y-46582380D01*
X67081904Y-46582380D01*
X67224761Y-46630000D01*
X67653333Y-47058571D02*
X67986666Y-47058571D01*
X68129523Y-47582380D02*
X67653333Y-47582380D01*
X67653333Y-46582380D01*
X68129523Y-46582380D01*
X68415238Y-46582380D02*
X68986666Y-46582380D01*
X68700952Y-47582380D02*
X68700952Y-46582380D01*
D12*
X76352380Y-79461904D02*
X76352380Y-78661904D01*
X76352380Y-79042857D02*
X76809523Y-79042857D01*
X76809523Y-79461904D02*
X76809523Y-78661904D01*
X77495238Y-79423809D02*
X77419047Y-79461904D01*
X77266666Y-79461904D01*
X77190476Y-79423809D01*
X77152380Y-79347619D01*
X77152380Y-79042857D01*
X77190476Y-78966666D01*
X77266666Y-78928571D01*
X77419047Y-78928571D01*
X77495238Y-78966666D01*
X77533333Y-79042857D01*
X77533333Y-79119047D01*
X77152380Y-79195238D01*
X78219047Y-79461904D02*
X78219047Y-79042857D01*
X78180952Y-78966666D01*
X78104761Y-78928571D01*
X77952380Y-78928571D01*
X77876190Y-78966666D01*
X78219047Y-79423809D02*
X78142857Y-79461904D01*
X77952380Y-79461904D01*
X77876190Y-79423809D01*
X77838095Y-79347619D01*
X77838095Y-79271428D01*
X77876190Y-79195238D01*
X77952380Y-79157142D01*
X78142857Y-79157142D01*
X78219047Y-79119047D01*
X78485714Y-78928571D02*
X78790476Y-78928571D01*
X78600000Y-78661904D02*
X78600000Y-79347619D01*
X78638095Y-79423809D01*
X78714285Y-79461904D01*
X78790476Y-79461904D01*
X79361904Y-79423809D02*
X79285714Y-79461904D01*
X79133333Y-79461904D01*
X79057142Y-79423809D01*
X79019047Y-79347619D01*
X79019047Y-79042857D01*
X79057142Y-78966666D01*
X79133333Y-78928571D01*
X79285714Y-78928571D01*
X79361904Y-78966666D01*
X79400000Y-79042857D01*
X79400000Y-79119047D01*
X79019047Y-79195238D01*
X79742857Y-79461904D02*
X79742857Y-78928571D01*
X79742857Y-79080952D02*
X79780952Y-79004761D01*
X79819047Y-78966666D01*
X79895238Y-78928571D01*
X79971428Y-78928571D01*
X80809523Y-79423809D02*
X80885714Y-79461904D01*
X81038095Y-79461904D01*
X81114285Y-79423809D01*
X81152380Y-79347619D01*
X81152380Y-79309523D01*
X81114285Y-79233333D01*
X81038095Y-79195238D01*
X80923809Y-79195238D01*
X80847619Y-79157142D01*
X80809523Y-79080952D01*
X80809523Y-79042857D01*
X80847619Y-78966666D01*
X80923809Y-78928571D01*
X81038095Y-78928571D01*
X81114285Y-78966666D01*
X81380952Y-78928571D02*
X81685714Y-78928571D01*
X81495238Y-78661904D02*
X81495238Y-79347619D01*
X81533333Y-79423809D01*
X81609523Y-79461904D01*
X81685714Y-79461904D01*
X82295238Y-79461904D02*
X82295238Y-79042857D01*
X82257142Y-78966666D01*
X82180952Y-78928571D01*
X82028571Y-78928571D01*
X81952380Y-78966666D01*
X82295238Y-79423809D02*
X82219047Y-79461904D01*
X82028571Y-79461904D01*
X81952380Y-79423809D01*
X81914285Y-79347619D01*
X81914285Y-79271428D01*
X81952380Y-79195238D01*
X82028571Y-79157142D01*
X82219047Y-79157142D01*
X82295238Y-79119047D01*
X82676190Y-79461904D02*
X82676190Y-78928571D01*
X82676190Y-79080952D02*
X82714285Y-79004761D01*
X82752380Y-78966666D01*
X82828571Y-78928571D01*
X82904761Y-78928571D01*
X83057142Y-78928571D02*
X83361904Y-78928571D01*
X83171428Y-78661904D02*
X83171428Y-79347619D01*
X83209523Y-79423809D01*
X83285714Y-79461904D01*
X83361904Y-79461904D01*
X84719047Y-79486904D02*
X84719047Y-78686904D01*
X84719047Y-79067857D02*
X85176190Y-79067857D01*
X85176190Y-79486904D02*
X85176190Y-78686904D01*
X85861904Y-79448809D02*
X85785714Y-79486904D01*
X85633333Y-79486904D01*
X85557142Y-79448809D01*
X85519047Y-79372619D01*
X85519047Y-79067857D01*
X85557142Y-78991666D01*
X85633333Y-78953571D01*
X85785714Y-78953571D01*
X85861904Y-78991666D01*
X85900000Y-79067857D01*
X85900000Y-79144047D01*
X85519047Y-79220238D01*
X86585714Y-79486904D02*
X86585714Y-79067857D01*
X86547619Y-78991666D01*
X86471428Y-78953571D01*
X86319047Y-78953571D01*
X86242857Y-78991666D01*
X86585714Y-79448809D02*
X86509523Y-79486904D01*
X86319047Y-79486904D01*
X86242857Y-79448809D01*
X86204761Y-79372619D01*
X86204761Y-79296428D01*
X86242857Y-79220238D01*
X86319047Y-79182142D01*
X86509523Y-79182142D01*
X86585714Y-79144047D01*
X86852380Y-78953571D02*
X87157142Y-78953571D01*
X86966666Y-78686904D02*
X86966666Y-79372619D01*
X87004761Y-79448809D01*
X87080952Y-79486904D01*
X87157142Y-79486904D01*
X87728571Y-79448809D02*
X87652380Y-79486904D01*
X87500000Y-79486904D01*
X87423809Y-79448809D01*
X87385714Y-79372619D01*
X87385714Y-79067857D01*
X87423809Y-78991666D01*
X87500000Y-78953571D01*
X87652380Y-78953571D01*
X87728571Y-78991666D01*
X87766666Y-79067857D01*
X87766666Y-79144047D01*
X87385714Y-79220238D01*
X88109523Y-79486904D02*
X88109523Y-78953571D01*
X88109523Y-79105952D02*
X88147619Y-79029761D01*
X88185714Y-78991666D01*
X88261904Y-78953571D01*
X88338095Y-78953571D01*
X89328571Y-79486904D02*
X89252380Y-79448809D01*
X89214285Y-79410714D01*
X89176190Y-79334523D01*
X89176190Y-79105952D01*
X89214285Y-79029761D01*
X89252380Y-78991666D01*
X89328571Y-78953571D01*
X89442857Y-78953571D01*
X89519047Y-78991666D01*
X89557142Y-79029761D01*
X89595238Y-79105952D01*
X89595238Y-79334523D01*
X89557142Y-79410714D01*
X89519047Y-79448809D01*
X89442857Y-79486904D01*
X89328571Y-79486904D01*
X89938095Y-78953571D02*
X89938095Y-79486904D01*
X89938095Y-79029761D02*
X89976190Y-78991666D01*
X90052380Y-78953571D01*
X90166666Y-78953571D01*
X90242857Y-78991666D01*
X90280952Y-79067857D01*
X90280952Y-79486904D01*
X62600000Y-79007142D02*
X63209523Y-79007142D01*
X62904761Y-79311904D02*
X62904761Y-78702380D01*
X63514285Y-78511904D02*
X64009523Y-78511904D01*
X63742857Y-78816666D01*
X63857142Y-78816666D01*
X63933333Y-78854761D01*
X63971428Y-78892857D01*
X64009523Y-78969047D01*
X64009523Y-79159523D01*
X63971428Y-79235714D01*
X63933333Y-79273809D01*
X63857142Y-79311904D01*
X63628571Y-79311904D01*
X63552380Y-79273809D01*
X63514285Y-79235714D01*
X64352380Y-79235714D02*
X64390476Y-79273809D01*
X64352380Y-79311904D01*
X64314285Y-79273809D01*
X64352380Y-79235714D01*
X64352380Y-79311904D01*
X64657142Y-78511904D02*
X65152380Y-78511904D01*
X64885714Y-78816666D01*
X65000000Y-78816666D01*
X65076190Y-78854761D01*
X65114285Y-78892857D01*
X65152380Y-78969047D01*
X65152380Y-79159523D01*
X65114285Y-79235714D01*
X65076190Y-79273809D01*
X65000000Y-79311904D01*
X64771428Y-79311904D01*
X64695238Y-79273809D01*
X64657142Y-79235714D01*
X65380952Y-78511904D02*
X65647619Y-79311904D01*
X65914285Y-78511904D01*
X69738095Y-79461904D02*
X69738095Y-78661904D01*
X70004761Y-79233333D01*
X70271428Y-78661904D01*
X70271428Y-79461904D01*
X71109523Y-79385714D02*
X71071428Y-79423809D01*
X70957142Y-79461904D01*
X70880952Y-79461904D01*
X70766666Y-79423809D01*
X70690476Y-79347619D01*
X70652380Y-79271428D01*
X70614285Y-79119047D01*
X70614285Y-79004761D01*
X70652380Y-78852380D01*
X70690476Y-78776190D01*
X70766666Y-78700000D01*
X70880952Y-78661904D01*
X70957142Y-78661904D01*
X71071428Y-78700000D01*
X71109523Y-78738095D01*
X71452380Y-78661904D02*
X71452380Y-79309523D01*
X71490476Y-79385714D01*
X71528571Y-79423809D01*
X71604761Y-79461904D01*
X71757142Y-79461904D01*
X71833333Y-79423809D01*
X71871428Y-79385714D01*
X71909523Y-79309523D01*
X71909523Y-78661904D01*
X72900000Y-79461904D02*
X72900000Y-78928571D01*
X72900000Y-79080952D02*
X72938095Y-79004761D01*
X72976190Y-78966666D01*
X73052380Y-78928571D01*
X73128571Y-78928571D01*
X73738095Y-78928571D02*
X73738095Y-79461904D01*
X73395238Y-78928571D02*
X73395238Y-79347619D01*
X73433333Y-79423809D01*
X73509523Y-79461904D01*
X73623809Y-79461904D01*
X73700000Y-79423809D01*
X73738095Y-79385714D01*
X74119047Y-78928571D02*
X74119047Y-79461904D01*
X74119047Y-79004761D02*
X74157142Y-78966666D01*
X74233333Y-78928571D01*
X74347619Y-78928571D01*
X74423809Y-78966666D01*
X74461904Y-79042857D01*
X74461904Y-79461904D01*
X101129761Y-67335714D02*
X101091666Y-67373809D01*
X100977380Y-67411904D01*
X100901190Y-67411904D01*
X100786904Y-67373809D01*
X100710714Y-67297619D01*
X100672619Y-67221428D01*
X100634523Y-67069047D01*
X100634523Y-66954761D01*
X100672619Y-66802380D01*
X100710714Y-66726190D01*
X100786904Y-66650000D01*
X100901190Y-66611904D01*
X100977380Y-66611904D01*
X101091666Y-66650000D01*
X101129761Y-66688095D01*
X101396428Y-66611904D02*
X101891666Y-66611904D01*
X101625000Y-66916666D01*
X101739285Y-66916666D01*
X101815476Y-66954761D01*
X101853571Y-66992857D01*
X101891666Y-67069047D01*
X101891666Y-67259523D01*
X101853571Y-67335714D01*
X101815476Y-67373809D01*
X101739285Y-67411904D01*
X101510714Y-67411904D01*
X101434523Y-67373809D01*
X101396428Y-67335714D01*
X102653571Y-67411904D02*
X102196428Y-67411904D01*
X102425000Y-67411904D02*
X102425000Y-66611904D01*
X102348809Y-66726190D01*
X102272619Y-66802380D01*
X102196428Y-66840476D01*
X103377380Y-66611904D02*
X102996428Y-66611904D01*
X102958333Y-66992857D01*
X102996428Y-66954761D01*
X103072619Y-66916666D01*
X103263095Y-66916666D01*
X103339285Y-66954761D01*
X103377380Y-66992857D01*
X103415476Y-67069047D01*
X103415476Y-67259523D01*
X103377380Y-67335714D01*
X103339285Y-67373809D01*
X103263095Y-67411904D01*
X103072619Y-67411904D01*
X102996428Y-67373809D01*
X102958333Y-67335714D01*
X62970119Y-76711904D02*
X62970119Y-75911904D01*
X63160595Y-75911904D01*
X63274880Y-75950000D01*
X63351071Y-76026190D01*
X63389166Y-76102380D01*
X63427261Y-76254761D01*
X63427261Y-76369047D01*
X63389166Y-76521428D01*
X63351071Y-76597619D01*
X63274880Y-76673809D01*
X63160595Y-76711904D01*
X62970119Y-76711904D01*
X63693928Y-75911904D02*
X64189166Y-75911904D01*
X63922500Y-76216666D01*
X64036785Y-76216666D01*
X64112976Y-76254761D01*
X64151071Y-76292857D01*
X64189166Y-76369047D01*
X64189166Y-76559523D01*
X64151071Y-76635714D01*
X64112976Y-76673809D01*
X64036785Y-76711904D01*
X63808214Y-76711904D01*
X63732023Y-76673809D01*
X63693928Y-76635714D01*
X64684404Y-75911904D02*
X64760595Y-75911904D01*
X64836785Y-75950000D01*
X64874880Y-75988095D01*
X64912976Y-76064285D01*
X64951071Y-76216666D01*
X64951071Y-76407142D01*
X64912976Y-76559523D01*
X64874880Y-76635714D01*
X64836785Y-76673809D01*
X64760595Y-76711904D01*
X64684404Y-76711904D01*
X64608214Y-76673809D01*
X64570119Y-76635714D01*
X64532023Y-76559523D01*
X64493928Y-76407142D01*
X64493928Y-76216666D01*
X64532023Y-76064285D01*
X64570119Y-75988095D01*
X64608214Y-75950000D01*
X64684404Y-75911904D01*
X65674880Y-75911904D02*
X65293928Y-75911904D01*
X65255833Y-76292857D01*
X65293928Y-76254761D01*
X65370119Y-76216666D01*
X65560595Y-76216666D01*
X65636785Y-76254761D01*
X65674880Y-76292857D01*
X65712976Y-76369047D01*
X65712976Y-76559523D01*
X65674880Y-76635714D01*
X65636785Y-76673809D01*
X65560595Y-76711904D01*
X65370119Y-76711904D01*
X65293928Y-76673809D01*
X65255833Y-76635714D01*
X78396229Y-76661904D02*
X78396229Y-75861904D01*
X78586705Y-75861904D01*
X78700990Y-75900000D01*
X78777181Y-75976190D01*
X78815276Y-76052380D01*
X78853371Y-76204761D01*
X78853371Y-76319047D01*
X78815276Y-76471428D01*
X78777181Y-76547619D01*
X78700990Y-76623809D01*
X78586705Y-76661904D01*
X78396229Y-76661904D01*
X79120038Y-75861904D02*
X79615276Y-75861904D01*
X79348610Y-76166666D01*
X79462895Y-76166666D01*
X79539086Y-76204761D01*
X79577181Y-76242857D01*
X79615276Y-76319047D01*
X79615276Y-76509523D01*
X79577181Y-76585714D01*
X79539086Y-76623809D01*
X79462895Y-76661904D01*
X79234324Y-76661904D01*
X79158133Y-76623809D01*
X79120038Y-76585714D01*
X80110514Y-75861904D02*
X80186705Y-75861904D01*
X80262895Y-75900000D01*
X80300990Y-75938095D01*
X80339086Y-76014285D01*
X80377181Y-76166666D01*
X80377181Y-76357142D01*
X80339086Y-76509523D01*
X80300990Y-76585714D01*
X80262895Y-76623809D01*
X80186705Y-76661904D01*
X80110514Y-76661904D01*
X80034324Y-76623809D01*
X79996229Y-76585714D01*
X79958133Y-76509523D01*
X79920038Y-76357142D01*
X79920038Y-76166666D01*
X79958133Y-76014285D01*
X79996229Y-75938095D01*
X80034324Y-75900000D01*
X80110514Y-75861904D01*
X80643848Y-75861904D02*
X81139086Y-75861904D01*
X80872419Y-76166666D01*
X80986705Y-76166666D01*
X81062895Y-76204761D01*
X81100990Y-76242857D01*
X81139086Y-76319047D01*
X81139086Y-76509523D01*
X81100990Y-76585714D01*
X81062895Y-76623809D01*
X80986705Y-76661904D01*
X80758133Y-76661904D01*
X80681943Y-76623809D01*
X80643848Y-76585714D01*
X86109285Y-76661904D02*
X86109285Y-75861904D01*
X86299761Y-75861904D01*
X86414046Y-75900000D01*
X86490237Y-75976190D01*
X86528332Y-76052380D01*
X86566427Y-76204761D01*
X86566427Y-76319047D01*
X86528332Y-76471428D01*
X86490237Y-76547619D01*
X86414046Y-76623809D01*
X86299761Y-76661904D01*
X86109285Y-76661904D01*
X86833094Y-75861904D02*
X87328332Y-75861904D01*
X87061666Y-76166666D01*
X87175951Y-76166666D01*
X87252142Y-76204761D01*
X87290237Y-76242857D01*
X87328332Y-76319047D01*
X87328332Y-76509523D01*
X87290237Y-76585714D01*
X87252142Y-76623809D01*
X87175951Y-76661904D01*
X86947380Y-76661904D01*
X86871189Y-76623809D01*
X86833094Y-76585714D01*
X87823570Y-75861904D02*
X87899761Y-75861904D01*
X87975951Y-75900000D01*
X88014046Y-75938095D01*
X88052142Y-76014285D01*
X88090237Y-76166666D01*
X88090237Y-76357142D01*
X88052142Y-76509523D01*
X88014046Y-76585714D01*
X87975951Y-76623809D01*
X87899761Y-76661904D01*
X87823570Y-76661904D01*
X87747380Y-76623809D01*
X87709285Y-76585714D01*
X87671189Y-76509523D01*
X87633094Y-76357142D01*
X87633094Y-76166666D01*
X87671189Y-76014285D01*
X87709285Y-75938095D01*
X87747380Y-75900000D01*
X87823570Y-75861904D01*
X88394999Y-75938095D02*
X88433094Y-75900000D01*
X88509285Y-75861904D01*
X88699761Y-75861904D01*
X88775951Y-75900000D01*
X88814046Y-75938095D01*
X88852142Y-76014285D01*
X88852142Y-76090476D01*
X88814046Y-76204761D01*
X88356904Y-76661904D01*
X88852142Y-76661904D01*
X70647619Y-76711904D02*
X70647619Y-75911904D01*
X70838095Y-75911904D01*
X70952380Y-75950000D01*
X71028571Y-76026190D01*
X71066666Y-76102380D01*
X71104761Y-76254761D01*
X71104761Y-76369047D01*
X71066666Y-76521428D01*
X71028571Y-76597619D01*
X70952380Y-76673809D01*
X70838095Y-76711904D01*
X70647619Y-76711904D01*
X71371428Y-75911904D02*
X71866666Y-75911904D01*
X71600000Y-76216666D01*
X71714285Y-76216666D01*
X71790476Y-76254761D01*
X71828571Y-76292857D01*
X71866666Y-76369047D01*
X71866666Y-76559523D01*
X71828571Y-76635714D01*
X71790476Y-76673809D01*
X71714285Y-76711904D01*
X71485714Y-76711904D01*
X71409523Y-76673809D01*
X71371428Y-76635714D01*
X72361904Y-75911904D02*
X72438095Y-75911904D01*
X72514285Y-75950000D01*
X72552380Y-75988095D01*
X72590476Y-76064285D01*
X72628571Y-76216666D01*
X72628571Y-76407142D01*
X72590476Y-76559523D01*
X72552380Y-76635714D01*
X72514285Y-76673809D01*
X72438095Y-76711904D01*
X72361904Y-76711904D01*
X72285714Y-76673809D01*
X72247619Y-76635714D01*
X72209523Y-76559523D01*
X72171428Y-76407142D01*
X72171428Y-76216666D01*
X72209523Y-76064285D01*
X72247619Y-75988095D01*
X72285714Y-75950000D01*
X72361904Y-75911904D01*
X73390476Y-76711904D02*
X72933333Y-76711904D01*
X73161904Y-76711904D02*
X73161904Y-75911904D01*
X73085714Y-76026190D01*
X73009523Y-76102380D01*
X72933333Y-76140476D01*
X139559761Y-70436904D02*
X139293095Y-70055952D01*
X139102619Y-70436904D02*
X139102619Y-69636904D01*
X139407380Y-69636904D01*
X139483571Y-69675000D01*
X139521666Y-69713095D01*
X139559761Y-69789285D01*
X139559761Y-69903571D01*
X139521666Y-69979761D01*
X139483571Y-70017857D01*
X139407380Y-70055952D01*
X139102619Y-70055952D01*
X139826428Y-69636904D02*
X140321666Y-69636904D01*
X140055000Y-69941666D01*
X140169285Y-69941666D01*
X140245476Y-69979761D01*
X140283571Y-70017857D01*
X140321666Y-70094047D01*
X140321666Y-70284523D01*
X140283571Y-70360714D01*
X140245476Y-70398809D01*
X140169285Y-70436904D01*
X139940714Y-70436904D01*
X139864523Y-70398809D01*
X139826428Y-70360714D01*
X141083571Y-70436904D02*
X140626428Y-70436904D01*
X140855000Y-70436904D02*
X140855000Y-69636904D01*
X140778809Y-69751190D01*
X140702619Y-69827380D01*
X140626428Y-69865476D01*
X141807380Y-69636904D02*
X141426428Y-69636904D01*
X141388333Y-70017857D01*
X141426428Y-69979761D01*
X141502619Y-69941666D01*
X141693095Y-69941666D01*
X141769285Y-69979761D01*
X141807380Y-70017857D01*
X141845476Y-70094047D01*
X141845476Y-70284523D01*
X141807380Y-70360714D01*
X141769285Y-70398809D01*
X141693095Y-70436904D01*
X141502619Y-70436904D01*
X141426428Y-70398809D01*
X141388333Y-70360714D01*
X139547261Y-67791904D02*
X139280595Y-67410952D01*
X139090119Y-67791904D02*
X139090119Y-66991904D01*
X139394880Y-66991904D01*
X139471071Y-67030000D01*
X139509166Y-67068095D01*
X139547261Y-67144285D01*
X139547261Y-67258571D01*
X139509166Y-67334761D01*
X139471071Y-67372857D01*
X139394880Y-67410952D01*
X139090119Y-67410952D01*
X139813928Y-66991904D02*
X140309166Y-66991904D01*
X140042500Y-67296666D01*
X140156785Y-67296666D01*
X140232976Y-67334761D01*
X140271071Y-67372857D01*
X140309166Y-67449047D01*
X140309166Y-67639523D01*
X140271071Y-67715714D01*
X140232976Y-67753809D01*
X140156785Y-67791904D01*
X139928214Y-67791904D01*
X139852023Y-67753809D01*
X139813928Y-67715714D01*
X141071071Y-67791904D02*
X140613928Y-67791904D01*
X140842500Y-67791904D02*
X140842500Y-66991904D01*
X140766309Y-67106190D01*
X140690119Y-67182380D01*
X140613928Y-67220476D01*
X141756785Y-67258571D02*
X141756785Y-67791904D01*
X141566309Y-66953809D02*
X141375833Y-67525238D01*
X141871071Y-67525238D01*
X151897261Y-53111904D02*
X151630595Y-52730952D01*
X151440119Y-53111904D02*
X151440119Y-52311904D01*
X151744880Y-52311904D01*
X151821071Y-52350000D01*
X151859166Y-52388095D01*
X151897261Y-52464285D01*
X151897261Y-52578571D01*
X151859166Y-52654761D01*
X151821071Y-52692857D01*
X151744880Y-52730952D01*
X151440119Y-52730952D01*
X152163928Y-52311904D02*
X152659166Y-52311904D01*
X152392500Y-52616666D01*
X152506785Y-52616666D01*
X152582976Y-52654761D01*
X152621071Y-52692857D01*
X152659166Y-52769047D01*
X152659166Y-52959523D01*
X152621071Y-53035714D01*
X152582976Y-53073809D01*
X152506785Y-53111904D01*
X152278214Y-53111904D01*
X152202023Y-53073809D01*
X152163928Y-53035714D01*
X153154404Y-52311904D02*
X153230595Y-52311904D01*
X153306785Y-52350000D01*
X153344880Y-52388095D01*
X153382976Y-52464285D01*
X153421071Y-52616666D01*
X153421071Y-52807142D01*
X153382976Y-52959523D01*
X153344880Y-53035714D01*
X153306785Y-53073809D01*
X153230595Y-53111904D01*
X153154404Y-53111904D01*
X153078214Y-53073809D01*
X153040119Y-53035714D01*
X153002023Y-52959523D01*
X152963928Y-52807142D01*
X152963928Y-52616666D01*
X153002023Y-52464285D01*
X153040119Y-52388095D01*
X153078214Y-52350000D01*
X153154404Y-52311904D01*
X153687738Y-52311904D02*
X154221071Y-52311904D01*
X153878214Y-53111904D01*
X146480119Y-52761904D02*
X146480119Y-51961904D01*
X146670595Y-51961904D01*
X146784880Y-52000000D01*
X146861071Y-52076190D01*
X146899166Y-52152380D01*
X146937261Y-52304761D01*
X146937261Y-52419047D01*
X146899166Y-52571428D01*
X146861071Y-52647619D01*
X146784880Y-52723809D01*
X146670595Y-52761904D01*
X146480119Y-52761904D01*
X147203928Y-51961904D02*
X147699166Y-51961904D01*
X147432500Y-52266666D01*
X147546785Y-52266666D01*
X147622976Y-52304761D01*
X147661071Y-52342857D01*
X147699166Y-52419047D01*
X147699166Y-52609523D01*
X147661071Y-52685714D01*
X147622976Y-52723809D01*
X147546785Y-52761904D01*
X147318214Y-52761904D01*
X147242023Y-52723809D01*
X147203928Y-52685714D01*
X148194404Y-51961904D02*
X148270595Y-51961904D01*
X148346785Y-52000000D01*
X148384880Y-52038095D01*
X148422976Y-52114285D01*
X148461071Y-52266666D01*
X148461071Y-52457142D01*
X148422976Y-52609523D01*
X148384880Y-52685714D01*
X148346785Y-52723809D01*
X148270595Y-52761904D01*
X148194404Y-52761904D01*
X148118214Y-52723809D01*
X148080119Y-52685714D01*
X148042023Y-52609523D01*
X148003928Y-52457142D01*
X148003928Y-52266666D01*
X148042023Y-52114285D01*
X148080119Y-52038095D01*
X148118214Y-52000000D01*
X148194404Y-51961904D01*
X149146785Y-52228571D02*
X149146785Y-52761904D01*
X148956309Y-51923809D02*
X148765833Y-52495238D01*
X149261071Y-52495238D01*
X108335714Y-72882738D02*
X108373809Y-72920833D01*
X108411904Y-73035119D01*
X108411904Y-73111309D01*
X108373809Y-73225595D01*
X108297619Y-73301785D01*
X108221428Y-73339880D01*
X108069047Y-73377976D01*
X107954761Y-73377976D01*
X107802380Y-73339880D01*
X107726190Y-73301785D01*
X107650000Y-73225595D01*
X107611904Y-73111309D01*
X107611904Y-73035119D01*
X107650000Y-72920833D01*
X107688095Y-72882738D01*
X107611904Y-72616071D02*
X107611904Y-72120833D01*
X107916666Y-72387500D01*
X107916666Y-72273214D01*
X107954761Y-72197023D01*
X107992857Y-72158928D01*
X108069047Y-72120833D01*
X108259523Y-72120833D01*
X108335714Y-72158928D01*
X108373809Y-72197023D01*
X108411904Y-72273214D01*
X108411904Y-72501785D01*
X108373809Y-72577976D01*
X108335714Y-72616071D01*
X108411904Y-71358928D02*
X108411904Y-71816071D01*
X108411904Y-71587500D02*
X107611904Y-71587500D01*
X107726190Y-71663690D01*
X107802380Y-71739880D01*
X107840476Y-71816071D01*
X107688095Y-71054166D02*
X107650000Y-71016071D01*
X107611904Y-70939880D01*
X107611904Y-70749404D01*
X107650000Y-70673214D01*
X107688095Y-70635119D01*
X107764285Y-70597023D01*
X107840476Y-70597023D01*
X107954761Y-70635119D01*
X108411904Y-71092261D01*
X108411904Y-70597023D01*
X145631904Y-64755238D02*
X145250952Y-65021904D01*
X145631904Y-65212380D02*
X144831904Y-65212380D01*
X144831904Y-64907619D01*
X144870000Y-64831428D01*
X144908095Y-64793333D01*
X144984285Y-64755238D01*
X145098571Y-64755238D01*
X145174761Y-64793333D01*
X145212857Y-64831428D01*
X145250952Y-64907619D01*
X145250952Y-65212380D01*
X144831904Y-64488571D02*
X144831904Y-63993333D01*
X145136666Y-64260000D01*
X145136666Y-64145714D01*
X145174761Y-64069523D01*
X145212857Y-64031428D01*
X145289047Y-63993333D01*
X145479523Y-63993333D01*
X145555714Y-64031428D01*
X145593809Y-64069523D01*
X145631904Y-64145714D01*
X145631904Y-64374285D01*
X145593809Y-64450476D01*
X145555714Y-64488571D01*
X144831904Y-63498095D02*
X144831904Y-63421904D01*
X144870000Y-63345714D01*
X144908095Y-63307619D01*
X144984285Y-63269523D01*
X145136666Y-63231428D01*
X145327142Y-63231428D01*
X145479523Y-63269523D01*
X145555714Y-63307619D01*
X145593809Y-63345714D01*
X145631904Y-63421904D01*
X145631904Y-63498095D01*
X145593809Y-63574285D01*
X145555714Y-63612380D01*
X145479523Y-63650476D01*
X145327142Y-63688571D01*
X145136666Y-63688571D01*
X144984285Y-63650476D01*
X144908095Y-63612380D01*
X144870000Y-63574285D01*
X144831904Y-63498095D01*
X144831904Y-62507619D02*
X144831904Y-62888571D01*
X145212857Y-62926666D01*
X145174761Y-62888571D01*
X145136666Y-62812380D01*
X145136666Y-62621904D01*
X145174761Y-62545714D01*
X145212857Y-62507619D01*
X145289047Y-62469523D01*
X145479523Y-62469523D01*
X145555714Y-62507619D01*
X145593809Y-62545714D01*
X145631904Y-62621904D01*
X145631904Y-62812380D01*
X145593809Y-62888571D01*
X145555714Y-62926666D01*
X104754761Y-77061904D02*
X104488095Y-76680952D01*
X104297619Y-77061904D02*
X104297619Y-76261904D01*
X104602380Y-76261904D01*
X104678571Y-76300000D01*
X104716666Y-76338095D01*
X104754761Y-76414285D01*
X104754761Y-76528571D01*
X104716666Y-76604761D01*
X104678571Y-76642857D01*
X104602380Y-76680952D01*
X104297619Y-76680952D01*
X105021428Y-76261904D02*
X105516666Y-76261904D01*
X105250000Y-76566666D01*
X105364285Y-76566666D01*
X105440476Y-76604761D01*
X105478571Y-76642857D01*
X105516666Y-76719047D01*
X105516666Y-76909523D01*
X105478571Y-76985714D01*
X105440476Y-77023809D01*
X105364285Y-77061904D01*
X105135714Y-77061904D01*
X105059523Y-77023809D01*
X105021428Y-76985714D01*
X106278571Y-77061904D02*
X105821428Y-77061904D01*
X106050000Y-77061904D02*
X106050000Y-76261904D01*
X105973809Y-76376190D01*
X105897619Y-76452380D01*
X105821428Y-76490476D01*
X106545238Y-76261904D02*
X107078571Y-76261904D01*
X106735714Y-77061904D01*
X101079761Y-77186904D02*
X100813095Y-76805952D01*
X100622619Y-77186904D02*
X100622619Y-76386904D01*
X100927380Y-76386904D01*
X101003571Y-76425000D01*
X101041666Y-76463095D01*
X101079761Y-76539285D01*
X101079761Y-76653571D01*
X101041666Y-76729761D01*
X101003571Y-76767857D01*
X100927380Y-76805952D01*
X100622619Y-76805952D01*
X101346428Y-76386904D02*
X101841666Y-76386904D01*
X101575000Y-76691666D01*
X101689285Y-76691666D01*
X101765476Y-76729761D01*
X101803571Y-76767857D01*
X101841666Y-76844047D01*
X101841666Y-77034523D01*
X101803571Y-77110714D01*
X101765476Y-77148809D01*
X101689285Y-77186904D01*
X101460714Y-77186904D01*
X101384523Y-77148809D01*
X101346428Y-77110714D01*
X102603571Y-77186904D02*
X102146428Y-77186904D01*
X102375000Y-77186904D02*
X102375000Y-76386904D01*
X102298809Y-76501190D01*
X102222619Y-76577380D01*
X102146428Y-76615476D01*
X103289285Y-76386904D02*
X103136904Y-76386904D01*
X103060714Y-76425000D01*
X103022619Y-76463095D01*
X102946428Y-76577380D01*
X102908333Y-76729761D01*
X102908333Y-77034523D01*
X102946428Y-77110714D01*
X102984523Y-77148809D01*
X103060714Y-77186904D01*
X103213095Y-77186904D01*
X103289285Y-77148809D01*
X103327380Y-77110714D01*
X103365476Y-77034523D01*
X103365476Y-76844047D01*
X103327380Y-76767857D01*
X103289285Y-76729761D01*
X103213095Y-76691666D01*
X103060714Y-76691666D01*
X102984523Y-76729761D01*
X102946428Y-76767857D01*
X102908333Y-76844047D01*
X97379761Y-79435714D02*
X97341666Y-79473809D01*
X97227380Y-79511904D01*
X97151190Y-79511904D01*
X97036904Y-79473809D01*
X96960714Y-79397619D01*
X96922619Y-79321428D01*
X96884523Y-79169047D01*
X96884523Y-79054761D01*
X96922619Y-78902380D01*
X96960714Y-78826190D01*
X97036904Y-78750000D01*
X97151190Y-78711904D01*
X97227380Y-78711904D01*
X97341666Y-78750000D01*
X97379761Y-78788095D01*
X97646428Y-78711904D02*
X98141666Y-78711904D01*
X97875000Y-79016666D01*
X97989285Y-79016666D01*
X98065476Y-79054761D01*
X98103571Y-79092857D01*
X98141666Y-79169047D01*
X98141666Y-79359523D01*
X98103571Y-79435714D01*
X98065476Y-79473809D01*
X97989285Y-79511904D01*
X97760714Y-79511904D01*
X97684523Y-79473809D01*
X97646428Y-79435714D01*
X98903571Y-79511904D02*
X98446428Y-79511904D01*
X98675000Y-79511904D02*
X98675000Y-78711904D01*
X98598809Y-78826190D01*
X98522619Y-78902380D01*
X98446428Y-78940476D01*
X99170238Y-78711904D02*
X99665476Y-78711904D01*
X99398809Y-79016666D01*
X99513095Y-79016666D01*
X99589285Y-79054761D01*
X99627380Y-79092857D01*
X99665476Y-79169047D01*
X99665476Y-79359523D01*
X99627380Y-79435714D01*
X99589285Y-79473809D01*
X99513095Y-79511904D01*
X99284523Y-79511904D01*
X99208333Y-79473809D01*
X99170238Y-79435714D01*
X154061904Y-63885238D02*
X153680952Y-64151904D01*
X154061904Y-64342380D02*
X153261904Y-64342380D01*
X153261904Y-64037619D01*
X153300000Y-63961428D01*
X153338095Y-63923333D01*
X153414285Y-63885238D01*
X153528571Y-63885238D01*
X153604761Y-63923333D01*
X153642857Y-63961428D01*
X153680952Y-64037619D01*
X153680952Y-64342380D01*
X153261904Y-63618571D02*
X153261904Y-63123333D01*
X153566666Y-63390000D01*
X153566666Y-63275714D01*
X153604761Y-63199523D01*
X153642857Y-63161428D01*
X153719047Y-63123333D01*
X153909523Y-63123333D01*
X153985714Y-63161428D01*
X154023809Y-63199523D01*
X154061904Y-63275714D01*
X154061904Y-63504285D01*
X154023809Y-63580476D01*
X153985714Y-63618571D01*
X153261904Y-62628095D02*
X153261904Y-62551904D01*
X153300000Y-62475714D01*
X153338095Y-62437619D01*
X153414285Y-62399523D01*
X153566666Y-62361428D01*
X153757142Y-62361428D01*
X153909523Y-62399523D01*
X153985714Y-62437619D01*
X154023809Y-62475714D01*
X154061904Y-62551904D01*
X154061904Y-62628095D01*
X154023809Y-62704285D01*
X153985714Y-62742380D01*
X153909523Y-62780476D01*
X153757142Y-62818571D01*
X153566666Y-62818571D01*
X153414285Y-62780476D01*
X153338095Y-62742380D01*
X153300000Y-62704285D01*
X153261904Y-62628095D01*
X153261904Y-61675714D02*
X153261904Y-61828095D01*
X153300000Y-61904285D01*
X153338095Y-61942380D01*
X153452380Y-62018571D01*
X153604761Y-62056666D01*
X153909523Y-62056666D01*
X153985714Y-62018571D01*
X154023809Y-61980476D01*
X154061904Y-61904285D01*
X154061904Y-61751904D01*
X154023809Y-61675714D01*
X153985714Y-61637619D01*
X153909523Y-61599523D01*
X153719047Y-61599523D01*
X153642857Y-61637619D01*
X153604761Y-61675714D01*
X153566666Y-61751904D01*
X153566666Y-61904285D01*
X153604761Y-61980476D01*
X153642857Y-62018571D01*
X153719047Y-62056666D01*
X100136904Y-72832738D02*
X100136904Y-73213690D01*
X99336904Y-73213690D01*
X99336904Y-72642261D02*
X99336904Y-72147023D01*
X99641666Y-72413690D01*
X99641666Y-72299404D01*
X99679761Y-72223214D01*
X99717857Y-72185119D01*
X99794047Y-72147023D01*
X99984523Y-72147023D01*
X100060714Y-72185119D01*
X100098809Y-72223214D01*
X100136904Y-72299404D01*
X100136904Y-72527976D01*
X100098809Y-72604166D01*
X100060714Y-72642261D01*
X99336904Y-71651785D02*
X99336904Y-71575595D01*
X99375000Y-71499404D01*
X99413095Y-71461309D01*
X99489285Y-71423214D01*
X99641666Y-71385119D01*
X99832142Y-71385119D01*
X99984523Y-71423214D01*
X100060714Y-71461309D01*
X100098809Y-71499404D01*
X100136904Y-71575595D01*
X100136904Y-71651785D01*
X100098809Y-71727976D01*
X100060714Y-71766071D01*
X99984523Y-71804166D01*
X99832142Y-71842261D01*
X99641666Y-71842261D01*
X99489285Y-71804166D01*
X99413095Y-71766071D01*
X99375000Y-71727976D01*
X99336904Y-71651785D01*
X100136904Y-70623214D02*
X100136904Y-71080357D01*
X100136904Y-70851785D02*
X99336904Y-70851785D01*
X99451190Y-70927976D01*
X99527380Y-71004166D01*
X99565476Y-71080357D01*
X104679761Y-67523214D02*
X104641666Y-67561309D01*
X104527380Y-67599404D01*
X104451190Y-67599404D01*
X104336904Y-67561309D01*
X104260714Y-67485119D01*
X104222619Y-67408928D01*
X104184523Y-67256547D01*
X104184523Y-67142261D01*
X104222619Y-66989880D01*
X104260714Y-66913690D01*
X104336904Y-66837500D01*
X104451190Y-66799404D01*
X104527380Y-66799404D01*
X104641666Y-66837500D01*
X104679761Y-66875595D01*
X104946428Y-66799404D02*
X105441666Y-66799404D01*
X105175000Y-67104166D01*
X105289285Y-67104166D01*
X105365476Y-67142261D01*
X105403571Y-67180357D01*
X105441666Y-67256547D01*
X105441666Y-67447023D01*
X105403571Y-67523214D01*
X105365476Y-67561309D01*
X105289285Y-67599404D01*
X105060714Y-67599404D01*
X104984523Y-67561309D01*
X104946428Y-67523214D01*
X106203571Y-67599404D02*
X105746428Y-67599404D01*
X105975000Y-67599404D02*
X105975000Y-66799404D01*
X105898809Y-66913690D01*
X105822619Y-66989880D01*
X105746428Y-67027976D01*
X106889285Y-66799404D02*
X106736904Y-66799404D01*
X106660714Y-66837500D01*
X106622619Y-66875595D01*
X106546428Y-66989880D01*
X106508333Y-67142261D01*
X106508333Y-67447023D01*
X106546428Y-67523214D01*
X106584523Y-67561309D01*
X106660714Y-67599404D01*
X106813095Y-67599404D01*
X106889285Y-67561309D01*
X106927380Y-67523214D01*
X106965476Y-67447023D01*
X106965476Y-67256547D01*
X106927380Y-67180357D01*
X106889285Y-67142261D01*
X106813095Y-67104166D01*
X106660714Y-67104166D01*
X106584523Y-67142261D01*
X106546428Y-67180357D01*
X106508333Y-67256547D01*
X108504761Y-77086904D02*
X108238095Y-76705952D01*
X108047619Y-77086904D02*
X108047619Y-76286904D01*
X108352380Y-76286904D01*
X108428571Y-76325000D01*
X108466666Y-76363095D01*
X108504761Y-76439285D01*
X108504761Y-76553571D01*
X108466666Y-76629761D01*
X108428571Y-76667857D01*
X108352380Y-76705952D01*
X108047619Y-76705952D01*
X108771428Y-76286904D02*
X109266666Y-76286904D01*
X109000000Y-76591666D01*
X109114285Y-76591666D01*
X109190476Y-76629761D01*
X109228571Y-76667857D01*
X109266666Y-76744047D01*
X109266666Y-76934523D01*
X109228571Y-77010714D01*
X109190476Y-77048809D01*
X109114285Y-77086904D01*
X108885714Y-77086904D01*
X108809523Y-77048809D01*
X108771428Y-77010714D01*
X110028571Y-77086904D02*
X109571428Y-77086904D01*
X109800000Y-77086904D02*
X109800000Y-76286904D01*
X109723809Y-76401190D01*
X109647619Y-76477380D01*
X109571428Y-76515476D01*
X110409523Y-77086904D02*
X110561904Y-77086904D01*
X110638095Y-77048809D01*
X110676190Y-77010714D01*
X110752380Y-76896428D01*
X110790476Y-76744047D01*
X110790476Y-76439285D01*
X110752380Y-76363095D01*
X110714285Y-76325000D01*
X110638095Y-76286904D01*
X110485714Y-76286904D01*
X110409523Y-76325000D01*
X110371428Y-76363095D01*
X110333333Y-76439285D01*
X110333333Y-76629761D01*
X110371428Y-76705952D01*
X110409523Y-76744047D01*
X110485714Y-76782142D01*
X110638095Y-76782142D01*
X110714285Y-76744047D01*
X110752380Y-76705952D01*
X110790476Y-76629761D01*
X104729761Y-79585714D02*
X104691666Y-79623809D01*
X104577380Y-79661904D01*
X104501190Y-79661904D01*
X104386904Y-79623809D01*
X104310714Y-79547619D01*
X104272619Y-79471428D01*
X104234523Y-79319047D01*
X104234523Y-79204761D01*
X104272619Y-79052380D01*
X104310714Y-78976190D01*
X104386904Y-78900000D01*
X104501190Y-78861904D01*
X104577380Y-78861904D01*
X104691666Y-78900000D01*
X104729761Y-78938095D01*
X104996428Y-78861904D02*
X105491666Y-78861904D01*
X105225000Y-79166666D01*
X105339285Y-79166666D01*
X105415476Y-79204761D01*
X105453571Y-79242857D01*
X105491666Y-79319047D01*
X105491666Y-79509523D01*
X105453571Y-79585714D01*
X105415476Y-79623809D01*
X105339285Y-79661904D01*
X105110714Y-79661904D01*
X105034523Y-79623809D01*
X104996428Y-79585714D01*
X106253571Y-79661904D02*
X105796428Y-79661904D01*
X106025000Y-79661904D02*
X106025000Y-78861904D01*
X105948809Y-78976190D01*
X105872619Y-79052380D01*
X105796428Y-79090476D01*
X106520238Y-78861904D02*
X107053571Y-78861904D01*
X106710714Y-79661904D01*
X102836904Y-73408928D02*
X103484523Y-73408928D01*
X103560714Y-73370833D01*
X103598809Y-73332738D01*
X103636904Y-73256547D01*
X103636904Y-73104166D01*
X103598809Y-73027976D01*
X103560714Y-72989880D01*
X103484523Y-72951785D01*
X102836904Y-72951785D01*
X102836904Y-72647023D02*
X102836904Y-72151785D01*
X103141666Y-72418452D01*
X103141666Y-72304166D01*
X103179761Y-72227976D01*
X103217857Y-72189880D01*
X103294047Y-72151785D01*
X103484523Y-72151785D01*
X103560714Y-72189880D01*
X103598809Y-72227976D01*
X103636904Y-72304166D01*
X103636904Y-72532738D01*
X103598809Y-72608928D01*
X103560714Y-72647023D01*
X102836904Y-71656547D02*
X102836904Y-71580357D01*
X102875000Y-71504166D01*
X102913095Y-71466071D01*
X102989285Y-71427976D01*
X103141666Y-71389880D01*
X103332142Y-71389880D01*
X103484523Y-71427976D01*
X103560714Y-71466071D01*
X103598809Y-71504166D01*
X103636904Y-71580357D01*
X103636904Y-71656547D01*
X103598809Y-71732738D01*
X103560714Y-71770833D01*
X103484523Y-71808928D01*
X103332142Y-71847023D01*
X103141666Y-71847023D01*
X102989285Y-71808928D01*
X102913095Y-71770833D01*
X102875000Y-71732738D01*
X102836904Y-71656547D01*
X102836904Y-70704166D02*
X102836904Y-70856547D01*
X102875000Y-70932738D01*
X102913095Y-70970833D01*
X103027380Y-71047023D01*
X103179761Y-71085119D01*
X103484523Y-71085119D01*
X103560714Y-71047023D01*
X103598809Y-71008928D01*
X103636904Y-70932738D01*
X103636904Y-70780357D01*
X103598809Y-70704166D01*
X103560714Y-70666071D01*
X103484523Y-70627976D01*
X103294047Y-70627976D01*
X103217857Y-70666071D01*
X103179761Y-70704166D01*
X103141666Y-70780357D01*
X103141666Y-70932738D01*
X103179761Y-71008928D01*
X103217857Y-71047023D01*
X103294047Y-71085119D01*
X148593571Y-66651904D02*
X148593571Y-67299523D01*
X148631666Y-67375714D01*
X148669761Y-67413809D01*
X148745952Y-67451904D01*
X148898333Y-67451904D01*
X148974523Y-67413809D01*
X149012619Y-67375714D01*
X149050714Y-67299523D01*
X149050714Y-66651904D01*
X149355476Y-66651904D02*
X149850714Y-66651904D01*
X149584047Y-66956666D01*
X149698333Y-66956666D01*
X149774523Y-66994761D01*
X149812619Y-67032857D01*
X149850714Y-67109047D01*
X149850714Y-67299523D01*
X149812619Y-67375714D01*
X149774523Y-67413809D01*
X149698333Y-67451904D01*
X149469761Y-67451904D01*
X149393571Y-67413809D01*
X149355476Y-67375714D01*
X150345952Y-66651904D02*
X150422142Y-66651904D01*
X150498333Y-66690000D01*
X150536428Y-66728095D01*
X150574523Y-66804285D01*
X150612619Y-66956666D01*
X150612619Y-67147142D01*
X150574523Y-67299523D01*
X150536428Y-67375714D01*
X150498333Y-67413809D01*
X150422142Y-67451904D01*
X150345952Y-67451904D01*
X150269761Y-67413809D01*
X150231666Y-67375714D01*
X150193571Y-67299523D01*
X150155476Y-67147142D01*
X150155476Y-66956666D01*
X150193571Y-66804285D01*
X150231666Y-66728095D01*
X150269761Y-66690000D01*
X150345952Y-66651904D01*
X151336428Y-66651904D02*
X150955476Y-66651904D01*
X150917380Y-67032857D01*
X150955476Y-66994761D01*
X151031666Y-66956666D01*
X151222142Y-66956666D01*
X151298333Y-66994761D01*
X151336428Y-67032857D01*
X151374523Y-67109047D01*
X151374523Y-67299523D01*
X151336428Y-67375714D01*
X151298333Y-67413809D01*
X151222142Y-67451904D01*
X151031666Y-67451904D01*
X150955476Y-67413809D01*
X150917380Y-67375714D01*
X97279761Y-77085714D02*
X97241666Y-77123809D01*
X97127380Y-77161904D01*
X97051190Y-77161904D01*
X96936904Y-77123809D01*
X96860714Y-77047619D01*
X96822619Y-76971428D01*
X96784523Y-76819047D01*
X96784523Y-76704761D01*
X96822619Y-76552380D01*
X96860714Y-76476190D01*
X96936904Y-76400000D01*
X97051190Y-76361904D01*
X97127380Y-76361904D01*
X97241666Y-76400000D01*
X97279761Y-76438095D01*
X97546428Y-76361904D02*
X98041666Y-76361904D01*
X97775000Y-76666666D01*
X97889285Y-76666666D01*
X97965476Y-76704761D01*
X98003571Y-76742857D01*
X98041666Y-76819047D01*
X98041666Y-77009523D01*
X98003571Y-77085714D01*
X97965476Y-77123809D01*
X97889285Y-77161904D01*
X97660714Y-77161904D01*
X97584523Y-77123809D01*
X97546428Y-77085714D01*
X98803571Y-77161904D02*
X98346428Y-77161904D01*
X98575000Y-77161904D02*
X98575000Y-76361904D01*
X98498809Y-76476190D01*
X98422619Y-76552380D01*
X98346428Y-76590476D01*
X99489285Y-76628571D02*
X99489285Y-77161904D01*
X99298809Y-76323809D02*
X99108333Y-76895238D01*
X99603571Y-76895238D01*
X148678571Y-60441904D02*
X148678571Y-61089523D01*
X148716666Y-61165714D01*
X148754761Y-61203809D01*
X148830952Y-61241904D01*
X148983333Y-61241904D01*
X149059523Y-61203809D01*
X149097619Y-61165714D01*
X149135714Y-61089523D01*
X149135714Y-60441904D01*
X149440476Y-60441904D02*
X149935714Y-60441904D01*
X149669047Y-60746666D01*
X149783333Y-60746666D01*
X149859523Y-60784761D01*
X149897619Y-60822857D01*
X149935714Y-60899047D01*
X149935714Y-61089523D01*
X149897619Y-61165714D01*
X149859523Y-61203809D01*
X149783333Y-61241904D01*
X149554761Y-61241904D01*
X149478571Y-61203809D01*
X149440476Y-61165714D01*
X150430952Y-60441904D02*
X150507142Y-60441904D01*
X150583333Y-60480000D01*
X150621428Y-60518095D01*
X150659523Y-60594285D01*
X150697619Y-60746666D01*
X150697619Y-60937142D01*
X150659523Y-61089523D01*
X150621428Y-61165714D01*
X150583333Y-61203809D01*
X150507142Y-61241904D01*
X150430952Y-61241904D01*
X150354761Y-61203809D01*
X150316666Y-61165714D01*
X150278571Y-61089523D01*
X150240476Y-60937142D01*
X150240476Y-60746666D01*
X150278571Y-60594285D01*
X150316666Y-60518095D01*
X150354761Y-60480000D01*
X150430952Y-60441904D01*
X150964285Y-60441904D02*
X151459523Y-60441904D01*
X151192857Y-60746666D01*
X151307142Y-60746666D01*
X151383333Y-60784761D01*
X151421428Y-60822857D01*
X151459523Y-60899047D01*
X151459523Y-61089523D01*
X151421428Y-61165714D01*
X151383333Y-61203809D01*
X151307142Y-61241904D01*
X151078571Y-61241904D01*
X151002380Y-61203809D01*
X150964285Y-61165714D01*
D13*
X101828733Y-67815000D02*
X102121267Y-67815000D01*
X101828733Y-68835000D02*
X102121267Y-68835000D01*
X65122500Y-76865000D02*
X62662500Y-76865000D01*
X62662500Y-78335000D02*
X65122500Y-78335000D01*
X62662500Y-76865000D02*
X62662500Y-78335000D01*
X80548610Y-76865000D02*
X78088610Y-76865000D01*
X78088610Y-78335000D02*
X80548610Y-78335000D01*
X78088610Y-76865000D02*
X78088610Y-78335000D01*
X85801666Y-76865000D02*
X85801666Y-78335000D01*
X85801666Y-78335000D02*
X88261666Y-78335000D01*
X88261666Y-76865000D02*
X85801666Y-76865000D01*
X72835555Y-76865000D02*
X70375555Y-76865000D01*
X70375555Y-78335000D02*
X72835555Y-78335000D01*
X70375555Y-76865000D02*
X70375555Y-78335000D01*
X56762500Y-48437500D02*
X95762500Y-48437500D01*
X56762500Y-76437500D02*
X56762500Y-48437500D01*
X56762500Y-76437500D02*
X95762500Y-76437500D01*
X95762500Y-76437500D02*
X95762500Y-48437500D01*
X140200276Y-70627500D02*
X140709724Y-70627500D01*
X140200276Y-71672500D02*
X140709724Y-71672500D01*
X140240276Y-69152500D02*
X140749724Y-69152500D01*
X140240276Y-68107500D02*
X140749724Y-68107500D01*
X152555276Y-53387500D02*
X153064724Y-53387500D01*
X152555276Y-54432500D02*
X153064724Y-54432500D01*
X145797500Y-52910000D02*
X145797500Y-54910000D01*
X145797500Y-52910000D02*
X149697500Y-52910000D01*
X145797500Y-54910000D02*
X149697500Y-54910000D01*
X109660000Y-71841233D02*
X109660000Y-72133767D01*
X108640000Y-71841233D02*
X108640000Y-72133767D01*
X148675000Y-63136263D02*
X148675000Y-64583737D01*
X145965000Y-63136263D02*
X145965000Y-64583737D01*
X105320276Y-75090000D02*
X105829724Y-75090000D01*
X105320276Y-76135000D02*
X105829724Y-76135000D01*
X101720276Y-76122500D02*
X102229724Y-76122500D01*
X101720276Y-75077500D02*
X102229724Y-75077500D01*
X98128733Y-77540000D02*
X98421267Y-77540000D01*
X98128733Y-78560000D02*
X98421267Y-78560000D01*
X150075000Y-63166263D02*
X150075000Y-64613737D01*
X152785000Y-63166263D02*
X152785000Y-64613737D01*
X102550000Y-69987500D02*
X102550000Y-73987500D01*
X100350000Y-69987500D02*
X100350000Y-73987500D01*
X105721267Y-67802500D02*
X105428733Y-67802500D01*
X105721267Y-68822500D02*
X105428733Y-68822500D01*
X109145276Y-76147500D02*
X109654724Y-76147500D01*
X109145276Y-75102500D02*
X109654724Y-75102500D01*
X105721267Y-78547500D02*
X105428733Y-78547500D01*
X105721267Y-77527500D02*
X105428733Y-77527500D01*
X103965000Y-71087500D02*
X103965000Y-72887500D01*
X107185000Y-72887500D02*
X107185000Y-69937500D01*
X149900000Y-67930000D02*
X152175000Y-67930000D01*
X149900000Y-71850000D02*
X152175000Y-71850000D01*
X149900000Y-71850000D02*
X147625000Y-71850000D01*
X149900000Y-67930000D02*
X145850000Y-67930000D01*
X98128733Y-75090000D02*
X98421267Y-75090000D01*
X98128733Y-76110000D02*
X98421267Y-76110000D01*
X149955000Y-56265000D02*
X145905000Y-56265000D01*
X149955000Y-56265000D02*
X152230000Y-56265000D01*
X149955000Y-60185000D02*
X147680000Y-60185000D01*
X149955000Y-60185000D02*
X152230000Y-60185000D01*
%LPC*%
D14*
X74170000Y-47180000D03*
D15*
X79250000Y-47180000D03*
X81790000Y-47180000D03*
X84330000Y-47180000D03*
X86870000Y-47180000D03*
D16*
X102837500Y-68325000D03*
X101112500Y-68325000D03*
D17*
X66820000Y-45950500D03*
X66820000Y-48554000D03*
D18*
X63447500Y-77600000D03*
X65197500Y-77600000D03*
X78873610Y-77600000D03*
X80623610Y-77600000D03*
X88336666Y-77600000D03*
X86586666Y-77600000D03*
X71160555Y-77600000D03*
X72910555Y-77600000D03*
D19*
X93262500Y-50237500D03*
X93262500Y-74637500D03*
D14*
X57762500Y-70057500D03*
D20*
X57762500Y-67517500D03*
X57762500Y-64977500D03*
X57762500Y-62437500D03*
X57762500Y-59897500D03*
X57762500Y-57357500D03*
X57762500Y-54817500D03*
D21*
X139542500Y-71150000D03*
X141367500Y-71150000D03*
X141407500Y-68630000D03*
X139582500Y-68630000D03*
X151897500Y-53910000D03*
X153722500Y-53910000D03*
D15*
X144350000Y-71130000D03*
D14*
X144350000Y-68590000D03*
X144355000Y-56925000D03*
D15*
X144355000Y-59465000D03*
D22*
X146397500Y-53910000D03*
X149697500Y-53910000D03*
D23*
X109150000Y-72850000D03*
X109150000Y-71125000D03*
D24*
X147320000Y-65410000D03*
X147320000Y-62310000D03*
D21*
X106487500Y-75612500D03*
X104662500Y-75612500D03*
D25*
X151500000Y-48500000D03*
D21*
X102887500Y-75600000D03*
X101062500Y-75600000D03*
D14*
X98000000Y-56175000D03*
D15*
X98000000Y-58715000D03*
X98000000Y-61255000D03*
X98000000Y-63795000D03*
X98000000Y-66335000D03*
X98000000Y-68875000D03*
D25*
X151500000Y-76500000D03*
X58500000Y-76500000D03*
D16*
X99137500Y-78050000D03*
X97412500Y-78050000D03*
D24*
X151430000Y-65440000D03*
X151430000Y-62340000D03*
D26*
X101450000Y-73162500D03*
X101450000Y-70812500D03*
D27*
X104712500Y-68312500D03*
X106437500Y-68312500D03*
D21*
X110312500Y-75625000D03*
X108487500Y-75625000D03*
D27*
X104712500Y-78037500D03*
X106437500Y-78037500D03*
D28*
X106525000Y-70637500D03*
X105575000Y-70637500D03*
X104625000Y-70637500D03*
X104625000Y-73337500D03*
X105575000Y-73337500D03*
X106525000Y-73337500D03*
D29*
X153150000Y-68620000D03*
X153150000Y-71160000D03*
X146650000Y-71160000D03*
X146650000Y-68620000D03*
D16*
X99137500Y-75600000D03*
X97412500Y-75600000D03*
D25*
X58500000Y-48500000D03*
D29*
X153205000Y-56955000D03*
X153205000Y-59495000D03*
X146705000Y-59495000D03*
X146705000Y-56955000D03*
M02*
