G04 #@! TF.GenerationSoftware,KiCad,Pcbnew,(6.0.10)*
G04 #@! TF.CreationDate,2023-01-12T15:38:19+01:00*
G04 #@! TF.ProjectId,HeaterMCU,48656174-6572-44d4-9355-2e6b69636164,rev?*
G04 #@! TF.SameCoordinates,Original*
G04 #@! TF.FileFunction,Soldermask,Top*
G04 #@! TF.FilePolarity,Negative*
%FSLAX46Y46*%
G04 Gerber Fmt 4.6, Leading zero omitted, Abs format (unit mm)*
G04 Created by KiCad (PCBNEW (6.0.10)) date 2023-01-12 15:38:19*
%MOMM*%
%LPD*%
G01*
G04 APERTURE LIST*
G04 Aperture macros list*
%AMRoundRect*
0 Rectangle with rounded corners*
0 $1 Rounding radius*
0 $2 $3 $4 $5 $6 $7 $8 $9 X,Y pos of 4 corners*
0 Add a 4 corners polygon primitive as box body*
4,1,4,$2,$3,$4,$5,$6,$7,$8,$9,$2,$3,0*
0 Add four circle primitives for the rounded corners*
1,1,$1+$1,$2,$3*
1,1,$1+$1,$4,$5*
1,1,$1+$1,$6,$7*
1,1,$1+$1,$8,$9*
0 Add four rect primitives between the rounded corners*
20,1,$1+$1,$2,$3,$4,$5,0*
20,1,$1+$1,$4,$5,$6,$7,0*
20,1,$1+$1,$6,$7,$8,$9,0*
20,1,$1+$1,$8,$9,$2,$3,0*%
G04 Aperture macros list end*
%ADD10RoundRect,0.237500X-0.237500X0.300000X-0.237500X-0.300000X0.237500X-0.300000X0.237500X0.300000X0*%
%ADD11RoundRect,0.237500X0.237500X-0.250000X0.237500X0.250000X-0.237500X0.250000X-0.237500X-0.250000X0*%
%ADD12R,0.800000X0.300000*%
%ADD13R,3.050000X2.400000*%
%ADD14RoundRect,0.237500X-0.250000X-0.237500X0.250000X-0.237500X0.250000X0.237500X-0.250000X0.237500X0*%
%ADD15RoundRect,0.237500X-0.287500X-0.237500X0.287500X-0.237500X0.287500X0.237500X-0.287500X0.237500X0*%
%ADD16RoundRect,0.237500X0.237500X-0.300000X0.237500X0.300000X-0.237500X0.300000X-0.237500X-0.300000X0*%
%ADD17RoundRect,0.237500X-0.237500X0.250000X-0.237500X-0.250000X0.237500X-0.250000X0.237500X0.250000X0*%
%ADD18C,3.200000*%
%ADD19RoundRect,0.237500X0.237500X-0.287500X0.237500X0.287500X-0.237500X0.287500X-0.237500X-0.287500X0*%
%ADD20C,2.700000*%
%ADD21R,1.700000X1.700000*%
%ADD22C,1.700000*%
%ADD23RoundRect,0.237500X0.250000X0.237500X-0.250000X0.237500X-0.250000X-0.237500X0.250000X-0.237500X0*%
%ADD24RoundRect,0.237500X-0.300000X-0.237500X0.300000X-0.237500X0.300000X0.237500X-0.300000X0.237500X0*%
%ADD25R,1.650000X2.000000*%
%ADD26R,0.650000X1.560000*%
%ADD27RoundRect,0.150000X-0.587500X-0.150000X0.587500X-0.150000X0.587500X0.150000X-0.587500X0.150000X0*%
%ADD28O,1.700000X1.700000*%
%ADD29C,0.700000*%
G04 APERTURE END LIST*
D10*
X111150000Y-49825000D03*
X111150000Y-51550000D03*
D11*
X126300000Y-66112500D03*
X126300000Y-64287500D03*
D12*
X146275000Y-64050000D03*
X146275000Y-63550000D03*
X146275000Y-63050000D03*
X146275000Y-62550000D03*
X146275000Y-62050000D03*
X146275000Y-61550000D03*
X146275000Y-61050000D03*
X146275000Y-60550000D03*
D13*
X148200000Y-66500000D03*
X148200000Y-58100000D03*
D14*
X129856250Y-62200000D03*
X131681250Y-62200000D03*
D15*
X66025000Y-77500000D03*
X67775000Y-77500000D03*
D14*
X129856250Y-68250000D03*
X131681250Y-68250000D03*
D15*
X84825000Y-77500000D03*
X86575000Y-77500000D03*
D16*
X102100000Y-51512500D03*
X102100000Y-49787500D03*
D17*
X108700000Y-46137500D03*
X108700000Y-47962500D03*
D18*
X151500000Y-48500000D03*
D19*
X98830000Y-51525000D03*
X98830000Y-49775000D03*
D14*
X104262500Y-46850000D03*
X106087500Y-46850000D03*
D20*
X93262500Y-50237500D03*
X93262500Y-74637500D03*
D21*
X57762500Y-70057500D03*
D22*
X57762500Y-67517500D03*
X57762500Y-64977500D03*
X57762500Y-62437500D03*
X57762500Y-59897500D03*
X57762500Y-57357500D03*
X57762500Y-54817500D03*
D15*
X75380000Y-47250000D03*
X77130000Y-47250000D03*
D23*
X77167500Y-49850000D03*
X75342500Y-49850000D03*
D24*
X126337500Y-68250000D03*
X128062500Y-68250000D03*
D18*
X151500000Y-76500000D03*
D23*
X86587500Y-74875000D03*
X84762500Y-74875000D03*
D18*
X58500000Y-76500000D03*
D24*
X99475000Y-56450000D03*
X101200000Y-56450000D03*
D15*
X66025000Y-47250000D03*
X67775000Y-47250000D03*
X84825000Y-47250000D03*
X86575000Y-47250000D03*
D23*
X67810000Y-74875000D03*
X65985000Y-74875000D03*
D25*
X106255000Y-54790000D03*
X103905000Y-54790000D03*
D10*
X108700000Y-49825000D03*
X108700000Y-51550000D03*
D11*
X113600000Y-47962500D03*
X113600000Y-46137500D03*
D14*
X84787500Y-49850000D03*
X86612500Y-49850000D03*
D23*
X77142500Y-74875000D03*
X75317500Y-74875000D03*
D15*
X75380000Y-77500000D03*
X77130000Y-77500000D03*
D16*
X111100000Y-47912500D03*
X111100000Y-46187500D03*
D26*
X104187500Y-52037500D03*
X105137500Y-52037500D03*
X106087500Y-52037500D03*
X106087500Y-49337500D03*
X105137500Y-49337500D03*
X104187500Y-49337500D03*
D24*
X99475000Y-54000000D03*
X101200000Y-54000000D03*
D18*
X58500000Y-48500000D03*
D27*
X129831250Y-64250000D03*
X129831250Y-66150000D03*
X131706250Y-65200000D03*
D21*
X123250000Y-76600000D03*
D28*
X118170000Y-76600000D03*
X115630000Y-76600000D03*
X113090000Y-76600000D03*
X110550000Y-76600000D03*
D29*
X102300000Y-75976000D03*
X102300000Y-78579500D03*
D21*
X123425000Y-53725000D03*
D28*
X123425000Y-56265000D03*
X123425000Y-58805000D03*
X123425000Y-61345000D03*
X123425000Y-63885000D03*
X123425000Y-66425000D03*
X123425000Y-68965000D03*
X123425000Y-71505000D03*
M02*
