G04 #@! TF.GenerationSoftware,KiCad,Pcbnew,(6.0.9)*
G04 #@! TF.CreationDate,2022-12-04T16:37:35+01:00*
G04 #@! TF.ProjectId,HeaterMCU,48656174-6572-44d4-9355-2e6b69636164,rev?*
G04 #@! TF.SameCoordinates,Original*
G04 #@! TF.FileFunction,Copper,L1,Top*
G04 #@! TF.FilePolarity,Positive*
%FSLAX46Y46*%
G04 Gerber Fmt 4.6, Leading zero omitted, Abs format (unit mm)*
G04 Created by KiCad (PCBNEW (6.0.9)) date 2022-12-04 16:37:35*
%MOMM*%
%LPD*%
G01*
G04 APERTURE LIST*
G04 Aperture macros list*
%AMRoundRect*
0 Rectangle with rounded corners*
0 $1 Rounding radius*
0 $2 $3 $4 $5 $6 $7 $8 $9 X,Y pos of 4 corners*
0 Add a 4 corners polygon primitive as box body*
4,1,4,$2,$3,$4,$5,$6,$7,$8,$9,$2,$3,0*
0 Add four circle primitives for the rounded corners*
1,1,$1+$1,$2,$3*
1,1,$1+$1,$4,$5*
1,1,$1+$1,$6,$7*
1,1,$1+$1,$8,$9*
0 Add four rect primitives between the rounded corners*
20,1,$1+$1,$2,$3,$4,$5,0*
20,1,$1+$1,$4,$5,$6,$7,0*
20,1,$1+$1,$6,$7,$8,$9,0*
20,1,$1+$1,$8,$9,$2,$3,0*%
G04 Aperture macros list end*
G04 #@! TA.AperFunction,ComponentPad*
%ADD10R,1.700000X1.700000*%
G04 #@! TD*
G04 #@! TA.AperFunction,ComponentPad*
%ADD11O,1.700000X1.700000*%
G04 #@! TD*
G04 #@! TA.AperFunction,SMDPad,CuDef*
%ADD12RoundRect,0.237500X-0.300000X-0.237500X0.300000X-0.237500X0.300000X0.237500X-0.300000X0.237500X0*%
G04 #@! TD*
G04 #@! TA.AperFunction,SMDPad,CuDef*
%ADD13RoundRect,0.237500X-0.287500X-0.237500X0.287500X-0.237500X0.287500X0.237500X-0.287500X0.237500X0*%
G04 #@! TD*
G04 #@! TA.AperFunction,ComponentPad*
%ADD14C,1.700000*%
G04 #@! TD*
G04 #@! TA.AperFunction,SMDPad,CuDef*
%ADD15RoundRect,0.237500X-0.250000X-0.237500X0.250000X-0.237500X0.250000X0.237500X-0.250000X0.237500X0*%
G04 #@! TD*
G04 #@! TA.AperFunction,SMDPad,CuDef*
%ADD16R,0.900000X1.200000*%
G04 #@! TD*
G04 #@! TA.AperFunction,SMDPad,CuDef*
%ADD17RoundRect,0.237500X-0.237500X0.300000X-0.237500X-0.300000X0.237500X-0.300000X0.237500X0.300000X0*%
G04 #@! TD*
G04 #@! TA.AperFunction,SMDPad,CuDef*
%ADD18RoundRect,0.250000X-1.075000X0.400000X-1.075000X-0.400000X1.075000X-0.400000X1.075000X0.400000X0*%
G04 #@! TD*
G04 #@! TA.AperFunction,SMDPad,CuDef*
%ADD19R,2.000000X1.650000*%
G04 #@! TD*
G04 #@! TA.AperFunction,SMDPad,CuDef*
%ADD20RoundRect,0.237500X0.300000X0.237500X-0.300000X0.237500X-0.300000X-0.237500X0.300000X-0.237500X0*%
G04 #@! TD*
G04 #@! TA.AperFunction,SMDPad,CuDef*
%ADD21R,0.650000X1.560000*%
G04 #@! TD*
G04 #@! TA.AperFunction,SMDPad,CuDef*
%ADD22RoundRect,0.137500X-0.662500X-0.137500X0.662500X-0.137500X0.662500X0.137500X-0.662500X0.137500X0*%
G04 #@! TD*
G04 #@! TA.AperFunction,ViaPad*
%ADD23C,0.800000*%
G04 #@! TD*
G04 #@! TA.AperFunction,Conductor*
%ADD24C,0.250000*%
G04 #@! TD*
G04 #@! TA.AperFunction,Conductor*
%ADD25C,0.500000*%
G04 #@! TD*
G04 APERTURE END LIST*
D10*
X74170000Y-47180000D03*
D11*
X79250000Y-47180000D03*
X81790000Y-47180000D03*
X84330000Y-47180000D03*
X86870000Y-47180000D03*
D12*
X102837500Y-68325000D03*
X101112500Y-68325000D03*
D13*
X63447500Y-77600000D03*
X65197500Y-77600000D03*
X78873610Y-77600000D03*
X80623610Y-77600000D03*
X88336666Y-77600000D03*
X86586666Y-77600000D03*
X71160555Y-77600000D03*
X72910555Y-77600000D03*
D10*
X57762500Y-70057500D03*
D14*
X57762500Y-67517500D03*
X57762500Y-64977500D03*
X57762500Y-62437500D03*
X57762500Y-59897500D03*
X57762500Y-57357500D03*
X57762500Y-54817500D03*
D15*
X139542500Y-71150000D03*
X141367500Y-71150000D03*
X141407500Y-68630000D03*
X139582500Y-68630000D03*
X151897500Y-53910000D03*
X153722500Y-53910000D03*
D11*
X144350000Y-71130000D03*
D10*
X144350000Y-68590000D03*
X144355000Y-56925000D03*
D11*
X144355000Y-59465000D03*
D16*
X146397500Y-53910000D03*
X149697500Y-53910000D03*
D17*
X109150000Y-72850000D03*
X109150000Y-71125000D03*
D18*
X147320000Y-65410000D03*
X147320000Y-62310000D03*
D15*
X106487500Y-75612500D03*
X104662500Y-75612500D03*
X102887500Y-75600000D03*
X101062500Y-75600000D03*
D10*
X98000000Y-56175000D03*
D11*
X98000000Y-58715000D03*
X98000000Y-61255000D03*
X98000000Y-63795000D03*
X98000000Y-66335000D03*
X98000000Y-68875000D03*
D12*
X99137500Y-78050000D03*
X97412500Y-78050000D03*
D18*
X151430000Y-65440000D03*
X151430000Y-62340000D03*
D19*
X101450000Y-73162500D03*
X101450000Y-70812500D03*
D20*
X104712500Y-68312500D03*
X106437500Y-68312500D03*
D15*
X110312500Y-75625000D03*
X108487500Y-75625000D03*
D20*
X104712500Y-78037500D03*
X106437500Y-78037500D03*
D21*
X106525000Y-70637500D03*
X105575000Y-70637500D03*
X104625000Y-70637500D03*
X104625000Y-73337500D03*
X105575000Y-73337500D03*
X106525000Y-73337500D03*
D22*
X153150000Y-68620000D03*
X153150000Y-71160000D03*
X146650000Y-71160000D03*
X146650000Y-68620000D03*
D12*
X99137500Y-75600000D03*
X97412500Y-75600000D03*
D22*
X153205000Y-56955000D03*
X153205000Y-59495000D03*
X146705000Y-59495000D03*
X146705000Y-56955000D03*
D23*
X72484881Y-63767104D03*
X73725000Y-66675000D03*
X152750421Y-54570788D03*
X140600000Y-73990000D03*
X134120000Y-46780000D03*
X131330000Y-57700000D03*
X115300000Y-55600000D03*
X94180000Y-54780000D03*
X89010000Y-71010000D03*
X98490000Y-71800000D03*
X95670000Y-67880000D03*
X95940000Y-62410000D03*
X91230000Y-65390000D03*
X83450000Y-63690000D03*
X85630000Y-57700000D03*
X88670000Y-49940000D03*
X69460000Y-50890000D03*
X64900000Y-67640000D03*
X68060000Y-77670000D03*
X75420000Y-77640000D03*
X84080000Y-77640000D03*
X108310000Y-68430000D03*
X102000000Y-78180000D03*
X109450000Y-78420000D03*
X127380000Y-65380000D03*
X68930000Y-71040000D03*
X70300000Y-63560000D03*
X67500000Y-60110000D03*
X95050000Y-71540000D03*
X86525000Y-51975000D03*
X82750000Y-52075000D03*
X81700000Y-57022918D03*
X79825000Y-65950000D03*
X83400000Y-58375000D03*
X68925000Y-57975000D03*
X80387500Y-59537500D03*
X70575000Y-58850000D03*
X75550000Y-59700000D03*
X75600000Y-61300000D03*
X68050000Y-63750000D03*
X61924500Y-62795500D03*
X64400000Y-60500000D03*
X88400000Y-75400000D03*
X80600000Y-75400000D03*
X72050000Y-75400000D03*
X63400000Y-75400000D03*
X60160000Y-53020000D03*
X78730000Y-55260000D03*
X104290000Y-58300000D03*
X97550000Y-47400000D03*
D24*
X73651985Y-62600000D02*
X75275000Y-62600000D01*
X72484881Y-63767104D02*
X73651985Y-62600000D01*
X73725000Y-66675000D02*
X97660000Y-66675000D01*
X152005000Y-69765000D02*
X153150000Y-68620000D01*
X116275305Y-53250000D02*
X132790305Y-69765000D01*
X83925000Y-53250000D02*
X116275305Y-53250000D01*
X132790305Y-69765000D02*
X152005000Y-69765000D01*
X82750000Y-52075000D02*
X83925000Y-53250000D01*
D25*
X152089633Y-53910000D02*
X152750421Y-54570788D01*
X151897500Y-53910000D02*
X152089633Y-53910000D01*
D24*
X150840000Y-53085000D02*
X149730000Y-51975000D01*
X149730000Y-51975000D02*
X86525000Y-51975000D01*
X150840000Y-54590000D02*
X150840000Y-53085000D01*
X153205000Y-56955000D02*
X150840000Y-54590000D01*
X151450000Y-65620000D02*
X147370000Y-65620000D01*
X147370000Y-65620000D02*
X147340000Y-65590000D01*
X144355000Y-59465000D02*
X144355000Y-62605000D01*
X144355000Y-62605000D02*
X147340000Y-65590000D01*
X145530000Y-60680000D02*
X147340000Y-62490000D01*
X145530000Y-58130000D02*
X145530000Y-60680000D01*
X146705000Y-56955000D02*
X145530000Y-58130000D01*
X149705000Y-58215000D02*
X148425000Y-59495000D01*
X149705000Y-53650000D02*
X149705000Y-58215000D01*
X148425000Y-59495000D02*
X151450000Y-62520000D01*
X146705000Y-59495000D02*
X148425000Y-59495000D01*
X154330000Y-54250000D02*
X153730000Y-53650000D01*
X154330000Y-58370000D02*
X154330000Y-54250000D01*
X153205000Y-59495000D02*
X154330000Y-58370000D01*
X152005000Y-72305000D02*
X153150000Y-71160000D01*
X142522500Y-72305000D02*
X152005000Y-72305000D01*
X141367500Y-71150000D02*
X142522500Y-72305000D01*
D25*
X95050000Y-71540000D02*
X99110000Y-75600000D01*
D24*
X65197500Y-74952500D02*
X57762500Y-67517500D01*
X65197500Y-77600000D02*
X65197500Y-74952500D01*
X61924500Y-63355500D02*
X57762500Y-67517500D01*
X61924500Y-62795500D02*
X61924500Y-63355500D01*
X144380000Y-71160000D02*
X144350000Y-71130000D01*
X146650000Y-71160000D02*
X144380000Y-71160000D01*
X141407500Y-68630000D02*
X141447500Y-68590000D01*
X141447500Y-68590000D02*
X144350000Y-68590000D01*
X140797500Y-67415000D02*
X139582500Y-68630000D01*
X145445000Y-67415000D02*
X140797500Y-67415000D01*
X146650000Y-68620000D02*
X145445000Y-67415000D01*
X146405000Y-56655000D02*
X146705000Y-56955000D01*
X146405000Y-53650000D02*
X146405000Y-56655000D01*
X146705000Y-56955000D02*
X144385000Y-56955000D01*
X144385000Y-56955000D02*
X144355000Y-56925000D01*
D25*
X104625000Y-68400000D02*
X104712500Y-68312500D01*
X104625000Y-70637500D02*
X104625000Y-68400000D01*
X104700000Y-68325000D02*
X104712500Y-68312500D01*
X102837500Y-68325000D02*
X104700000Y-68325000D01*
X99202081Y-63795000D02*
X102837500Y-67430419D01*
X98000000Y-63795000D02*
X99202081Y-63795000D01*
X102837500Y-67430419D02*
X102837500Y-68325000D01*
X99137500Y-75600000D02*
X99137500Y-78050000D01*
X101062500Y-75600000D02*
X99137500Y-75600000D01*
X101450000Y-75212500D02*
X101062500Y-75600000D01*
X101450000Y-73162500D02*
X101450000Y-75212500D01*
D24*
X108487500Y-75625000D02*
X106500000Y-75625000D01*
X106487500Y-77987500D02*
X106437500Y-78037500D01*
X106487500Y-75612500D02*
X106487500Y-77987500D01*
X104625000Y-74275000D02*
X104625000Y-73337500D01*
X105962500Y-75612500D02*
X104625000Y-74275000D01*
X104662500Y-77987500D02*
X104712500Y-78037500D01*
X104662500Y-75612500D02*
X104662500Y-77987500D01*
X104650000Y-75600000D02*
X104662500Y-75612500D01*
X102887500Y-75600000D02*
X104650000Y-75600000D01*
D25*
X107112500Y-72850000D02*
X106625000Y-73337500D01*
X109150000Y-72850000D02*
X107112500Y-72850000D01*
X105675000Y-71737500D02*
X105545000Y-71867500D01*
X105545000Y-71867500D02*
X108407500Y-71867500D01*
X102505000Y-71867500D02*
X105545000Y-71867500D01*
X105675000Y-70637500D02*
X105675000Y-71737500D01*
X108407500Y-71867500D02*
X109150000Y-71125000D01*
X101450000Y-70812500D02*
X102505000Y-71867500D01*
D24*
X79250000Y-54572918D02*
X81700000Y-57022918D01*
X79250000Y-47180000D02*
X79250000Y-54572918D01*
X79700000Y-58850000D02*
X70575000Y-58850000D01*
X80387500Y-59537500D02*
X79700000Y-58850000D01*
X97660000Y-66675000D02*
X98000000Y-66335000D01*
X75275000Y-62600000D02*
X91575000Y-62600000D01*
X91575000Y-62600000D02*
X98000000Y-56175000D01*
X83000000Y-57975000D02*
X83400000Y-58375000D01*
X68925000Y-57975000D02*
X83000000Y-57975000D01*
X58150000Y-62050000D02*
X57762500Y-62437500D01*
X66350000Y-62050000D02*
X58150000Y-62050000D01*
X68050000Y-63750000D02*
X66350000Y-62050000D01*
X88336666Y-75463334D02*
X88400000Y-75400000D01*
X88336666Y-77600000D02*
X88336666Y-75463334D01*
X80623610Y-75423610D02*
X80600000Y-75400000D01*
X80623610Y-77600000D02*
X80623610Y-75423610D01*
X72910555Y-76260555D02*
X72050000Y-75400000D01*
X72910555Y-77600000D02*
X72910555Y-76260555D01*
X63400000Y-77552500D02*
X63447500Y-77600000D01*
X63400000Y-75400000D02*
X63400000Y-77552500D01*
G04 #@! TA.AperFunction,Conductor*
G36*
X65954171Y-45528502D02*
G01*
X66000664Y-45582158D01*
X66010768Y-45652432D01*
X66003039Y-45681292D01*
X65990786Y-45711927D01*
X65988249Y-45718271D01*
X65973749Y-45805856D01*
X65960612Y-45885214D01*
X65957784Y-45902295D01*
X65958141Y-45909111D01*
X65958141Y-45909115D01*
X65962837Y-45998705D01*
X65967547Y-46088567D01*
X66017080Y-46268398D01*
X66104075Y-46433398D01*
X66108480Y-46438611D01*
X66108483Y-46438615D01*
X66220064Y-46570653D01*
X66220068Y-46570657D01*
X66224471Y-46575867D01*
X66229895Y-46580014D01*
X66229896Y-46580015D01*
X66367231Y-46685016D01*
X66367235Y-46685019D01*
X66372652Y-46689160D01*
X66541704Y-46767990D01*
X66723740Y-46808680D01*
X66729463Y-46809000D01*
X66866596Y-46809000D01*
X67005437Y-46793917D01*
X67182223Y-46734422D01*
X67342109Y-46638353D01*
X67477636Y-46510192D01*
X67498414Y-46479618D01*
X67578646Y-46361560D01*
X67578647Y-46361558D01*
X67582480Y-46355918D01*
X67585537Y-46348277D01*
X67649215Y-46189070D01*
X67649216Y-46189068D01*
X67651751Y-46182729D01*
X67674088Y-46047800D01*
X67681101Y-46005442D01*
X67681101Y-46005439D01*
X67682216Y-45998705D01*
X67680278Y-45961715D01*
X67673904Y-45840116D01*
X67672453Y-45812433D01*
X67632659Y-45667960D01*
X67633853Y-45596973D01*
X67673236Y-45537901D01*
X67738304Y-45509499D01*
X67754135Y-45508500D01*
X149117132Y-45508500D01*
X149185253Y-45528502D01*
X149231746Y-45582158D01*
X149241850Y-45652432D01*
X149212356Y-45717012D01*
X149196434Y-45732413D01*
X149087489Y-45820635D01*
X148820635Y-46087489D01*
X148583137Y-46380775D01*
X148581335Y-46383550D01*
X148379395Y-46694510D01*
X148379393Y-46694513D01*
X148377597Y-46697279D01*
X148376102Y-46700213D01*
X148376098Y-46700220D01*
X148242449Y-46962522D01*
X148206266Y-47033535D01*
X148071022Y-47385857D01*
X147973347Y-47750387D01*
X147945772Y-47924485D01*
X147920906Y-48081486D01*
X147914310Y-48123129D01*
X147894559Y-48500000D01*
X147914310Y-48876871D01*
X147914823Y-48880111D01*
X147914824Y-48880119D01*
X147939309Y-49034708D01*
X147973347Y-49249613D01*
X148071022Y-49614143D01*
X148206266Y-49966465D01*
X148207764Y-49969405D01*
X148365907Y-50279777D01*
X148377597Y-50302720D01*
X148583137Y-50619225D01*
X148820635Y-50912511D01*
X149034529Y-51126405D01*
X149068555Y-51188717D01*
X149063490Y-51259532D01*
X149020943Y-51316368D01*
X148954423Y-51341179D01*
X148945434Y-51341500D01*
X94990450Y-51341500D01*
X94922329Y-51321498D01*
X94875836Y-51267842D01*
X94865732Y-51197568D01*
X94878941Y-51156833D01*
X94967990Y-50987579D01*
X94967993Y-50987573D01*
X94970115Y-50983539D01*
X95032878Y-50805812D01*
X95058402Y-50733533D01*
X95058402Y-50733532D01*
X95059925Y-50729220D01*
X95096487Y-50543717D01*
X95111200Y-50469072D01*
X95111201Y-50469066D01*
X95112081Y-50464600D01*
X95121282Y-50279777D01*
X95125264Y-50199792D01*
X95125264Y-50199786D01*
X95125491Y-50195223D01*
X95099875Y-49926731D01*
X95054542Y-49741467D01*
X95036855Y-49669188D01*
X95035769Y-49664750D01*
X94934515Y-49414767D01*
X94798235Y-49182018D01*
X94680428Y-49034708D01*
X94632636Y-48974947D01*
X94632635Y-48974945D01*
X94629784Y-48971381D01*
X94432691Y-48787266D01*
X94211084Y-48633532D01*
X94207001Y-48631501D01*
X94206998Y-48631499D01*
X94042106Y-48549467D01*
X93969606Y-48513399D01*
X93965272Y-48511978D01*
X93965269Y-48511977D01*
X93717647Y-48430802D01*
X93717641Y-48430801D01*
X93713314Y-48429382D01*
X93708822Y-48428602D01*
X93451360Y-48383899D01*
X93451352Y-48383898D01*
X93447579Y-48383243D01*
X93432474Y-48382491D01*
X93363922Y-48379078D01*
X93363914Y-48379078D01*
X93362351Y-48379000D01*
X93193988Y-48379000D01*
X93191720Y-48379165D01*
X93191708Y-48379165D01*
X93060616Y-48388677D01*
X92993496Y-48393547D01*
X92989041Y-48394531D01*
X92989038Y-48394531D01*
X92734588Y-48450709D01*
X92734584Y-48450710D01*
X92730128Y-48451694D01*
X92707078Y-48460427D01*
X92482182Y-48545632D01*
X92482179Y-48545633D01*
X92477912Y-48547250D01*
X92242132Y-48678214D01*
X92027727Y-48841843D01*
X92024534Y-48845109D01*
X92024532Y-48845111D01*
X91933457Y-48938276D01*
X91839188Y-49034708D01*
X91680466Y-49252770D01*
X91678344Y-49256804D01*
X91557010Y-49487421D01*
X91557007Y-49487427D01*
X91554885Y-49491461D01*
X91553365Y-49495766D01*
X91553363Y-49495770D01*
X91466598Y-49741467D01*
X91465075Y-49745780D01*
X91464192Y-49750262D01*
X91422187Y-49963380D01*
X91412919Y-50010400D01*
X91412692Y-50014953D01*
X91412692Y-50014956D01*
X91403491Y-50199792D01*
X91399509Y-50279777D01*
X91425125Y-50548269D01*
X91426210Y-50552703D01*
X91426211Y-50552709D01*
X91476482Y-50758150D01*
X91489231Y-50810250D01*
X91590485Y-51060233D01*
X91594958Y-51067872D01*
X91644120Y-51151835D01*
X91661280Y-51220727D01*
X91638469Y-51287959D01*
X91582931Y-51332186D01*
X91535388Y-51341500D01*
X87233200Y-51341500D01*
X87165079Y-51321498D01*
X87145853Y-51305157D01*
X87145580Y-51305460D01*
X87140668Y-51301037D01*
X87136253Y-51296134D01*
X86981752Y-51183882D01*
X86975724Y-51181198D01*
X86975722Y-51181197D01*
X86813319Y-51108891D01*
X86813318Y-51108891D01*
X86807288Y-51106206D01*
X86713887Y-51086353D01*
X86626944Y-51067872D01*
X86626939Y-51067872D01*
X86620487Y-51066500D01*
X86429513Y-51066500D01*
X86423061Y-51067872D01*
X86423056Y-51067872D01*
X86336113Y-51086353D01*
X86242712Y-51106206D01*
X86236682Y-51108891D01*
X86236681Y-51108891D01*
X86074278Y-51181197D01*
X86074276Y-51181198D01*
X86068248Y-51183882D01*
X85913747Y-51296134D01*
X85785960Y-51438056D01*
X85690473Y-51603444D01*
X85631458Y-51785072D01*
X85630768Y-51791633D01*
X85630768Y-51791635D01*
X85620948Y-51885072D01*
X85611496Y-51975000D01*
X85612186Y-51981565D01*
X85619410Y-52050293D01*
X85631458Y-52164928D01*
X85690473Y-52346556D01*
X85693776Y-52352278D01*
X85693777Y-52352279D01*
X85737206Y-52427500D01*
X85753944Y-52496495D01*
X85730724Y-52563587D01*
X85674916Y-52607474D01*
X85628087Y-52616500D01*
X84239594Y-52616500D01*
X84171473Y-52596498D01*
X84150499Y-52579595D01*
X83697122Y-52126218D01*
X83663096Y-52063906D01*
X83660907Y-52050293D01*
X83658423Y-52026653D01*
X83643542Y-51885072D01*
X83584527Y-51703444D01*
X83489040Y-51538056D01*
X83379918Y-51416863D01*
X83365675Y-51401045D01*
X83365674Y-51401044D01*
X83361253Y-51396134D01*
X83251465Y-51316368D01*
X83212094Y-51287763D01*
X83212093Y-51287762D01*
X83206752Y-51283882D01*
X83200724Y-51281198D01*
X83200722Y-51281197D01*
X83038319Y-51208891D01*
X83038318Y-51208891D01*
X83032288Y-51206206D01*
X82938888Y-51186353D01*
X82851944Y-51167872D01*
X82851939Y-51167872D01*
X82845487Y-51166500D01*
X82654513Y-51166500D01*
X82648061Y-51167872D01*
X82648056Y-51167872D01*
X82561113Y-51186353D01*
X82467712Y-51206206D01*
X82461682Y-51208891D01*
X82461681Y-51208891D01*
X82299278Y-51281197D01*
X82299276Y-51281198D01*
X82293248Y-51283882D01*
X82287907Y-51287762D01*
X82287906Y-51287763D01*
X82248535Y-51316368D01*
X82138747Y-51396134D01*
X82134326Y-51401044D01*
X82134325Y-51401045D01*
X82120083Y-51416863D01*
X82010960Y-51538056D01*
X81915473Y-51703444D01*
X81856458Y-51885072D01*
X81836496Y-52075000D01*
X81837186Y-52081565D01*
X81846608Y-52171206D01*
X81856458Y-52264928D01*
X81915473Y-52446556D01*
X82010960Y-52611944D01*
X82015378Y-52616851D01*
X82015379Y-52616852D01*
X82118782Y-52731693D01*
X82138747Y-52753866D01*
X82225660Y-52817012D01*
X82257965Y-52840483D01*
X82293248Y-52866118D01*
X82299276Y-52868802D01*
X82299278Y-52868803D01*
X82453110Y-52937293D01*
X82467712Y-52943794D01*
X82561113Y-52963647D01*
X82648056Y-52982128D01*
X82648061Y-52982128D01*
X82654513Y-52983500D01*
X82710405Y-52983500D01*
X82778526Y-53003502D01*
X82799501Y-53020405D01*
X83421353Y-53642258D01*
X83428887Y-53650537D01*
X83433000Y-53657018D01*
X83457049Y-53679601D01*
X83482651Y-53703643D01*
X83485493Y-53706398D01*
X83505230Y-53726135D01*
X83508427Y-53728615D01*
X83517447Y-53736318D01*
X83549679Y-53766586D01*
X83556625Y-53770405D01*
X83556628Y-53770407D01*
X83567434Y-53776348D01*
X83583953Y-53787199D01*
X83599959Y-53799614D01*
X83607228Y-53802759D01*
X83607232Y-53802762D01*
X83640537Y-53817174D01*
X83651187Y-53822391D01*
X83689940Y-53843695D01*
X83697615Y-53845666D01*
X83697616Y-53845666D01*
X83709562Y-53848733D01*
X83728267Y-53855137D01*
X83746855Y-53863181D01*
X83754678Y-53864420D01*
X83754688Y-53864423D01*
X83790524Y-53870099D01*
X83802144Y-53872505D01*
X83837289Y-53881528D01*
X83844970Y-53883500D01*
X83865224Y-53883500D01*
X83884934Y-53885051D01*
X83904943Y-53888220D01*
X83912835Y-53887474D01*
X83948961Y-53884059D01*
X83960819Y-53883500D01*
X115960711Y-53883500D01*
X116028832Y-53903502D01*
X116049806Y-53920405D01*
X124169848Y-62040448D01*
X132286653Y-70157253D01*
X132294193Y-70165539D01*
X132298305Y-70172018D01*
X132304082Y-70177443D01*
X132347956Y-70218643D01*
X132350798Y-70221398D01*
X132370535Y-70241135D01*
X132373732Y-70243615D01*
X132382752Y-70251318D01*
X132414984Y-70281586D01*
X132421930Y-70285405D01*
X132421933Y-70285407D01*
X132432739Y-70291348D01*
X132449258Y-70302199D01*
X132465264Y-70314614D01*
X132472533Y-70317759D01*
X132472537Y-70317762D01*
X132505842Y-70332174D01*
X132516492Y-70337391D01*
X132555245Y-70358695D01*
X132562920Y-70360666D01*
X132562921Y-70360666D01*
X132574867Y-70363733D01*
X132593572Y-70370137D01*
X132612160Y-70378181D01*
X132619983Y-70379420D01*
X132619993Y-70379423D01*
X132655829Y-70385099D01*
X132667449Y-70387505D01*
X132699264Y-70395673D01*
X132710275Y-70398500D01*
X132730529Y-70398500D01*
X132750239Y-70400051D01*
X132770248Y-70403220D01*
X132778140Y-70402474D01*
X132814266Y-70399059D01*
X132826124Y-70398500D01*
X138507871Y-70398500D01*
X138575992Y-70418502D01*
X138622485Y-70472158D01*
X138632589Y-70542432D01*
X138618255Y-70581993D01*
X138619183Y-70582426D01*
X138609944Y-70602241D01*
X138559685Y-70753766D01*
X138556819Y-70767132D01*
X138547328Y-70859770D01*
X138547000Y-70866185D01*
X138547000Y-70877885D01*
X138551475Y-70893124D01*
X138552865Y-70894329D01*
X138560548Y-70896000D01*
X139670500Y-70896000D01*
X139738621Y-70916002D01*
X139785114Y-70969658D01*
X139796500Y-71022000D01*
X139796500Y-72114885D01*
X139800975Y-72130124D01*
X139802365Y-72131329D01*
X139810048Y-72133000D01*
X139838766Y-72133000D01*
X139845282Y-72132663D01*
X139939132Y-72122925D01*
X139952528Y-72120032D01*
X140103953Y-72069512D01*
X140117115Y-72063347D01*
X140252492Y-71979574D01*
X140263890Y-71970540D01*
X140365393Y-71868860D01*
X140427676Y-71834781D01*
X140498496Y-71839784D01*
X140543583Y-71868704D01*
X140651997Y-71976929D01*
X140800080Y-72068209D01*
X140965191Y-72122974D01*
X140972027Y-72123674D01*
X140972030Y-72123675D01*
X141019370Y-72128525D01*
X141067928Y-72133500D01*
X141402906Y-72133500D01*
X141471027Y-72153502D01*
X141492001Y-72170405D01*
X142018843Y-72697247D01*
X142026387Y-72705537D01*
X142030500Y-72712018D01*
X142036277Y-72717443D01*
X142080167Y-72758658D01*
X142083009Y-72761413D01*
X142102731Y-72781135D01*
X142105855Y-72783558D01*
X142105859Y-72783562D01*
X142105924Y-72783612D01*
X142114945Y-72791317D01*
X142147179Y-72821586D01*
X142154127Y-72825405D01*
X142154129Y-72825407D01*
X142164932Y-72831346D01*
X142181459Y-72842202D01*
X142191198Y-72849757D01*
X142191200Y-72849758D01*
X142197460Y-72854614D01*
X142238040Y-72872174D01*
X142248688Y-72877391D01*
X142273476Y-72891018D01*
X142287440Y-72898695D01*
X142295116Y-72900666D01*
X142295119Y-72900667D01*
X142307062Y-72903733D01*
X142325766Y-72910137D01*
X142335410Y-72914310D01*
X142344355Y-72918181D01*
X142352178Y-72919420D01*
X142352188Y-72919423D01*
X142388024Y-72925099D01*
X142399644Y-72927505D01*
X142431459Y-72935673D01*
X142442470Y-72938500D01*
X142462724Y-72938500D01*
X142482434Y-72940051D01*
X142502443Y-72943220D01*
X142510335Y-72942474D01*
X142546461Y-72939059D01*
X142558319Y-72938500D01*
X150051255Y-72938500D01*
X150119376Y-72958502D01*
X150165869Y-73012158D01*
X150175973Y-73082432D01*
X150146479Y-73147012D01*
X150096409Y-73182131D01*
X150033535Y-73206266D01*
X150030595Y-73207764D01*
X149700221Y-73376098D01*
X149700214Y-73376102D01*
X149697280Y-73377597D01*
X149380775Y-73583137D01*
X149087489Y-73820635D01*
X148820635Y-74087489D01*
X148583137Y-74380775D01*
X148565465Y-74407988D01*
X148379395Y-74694510D01*
X148379393Y-74694513D01*
X148377597Y-74697279D01*
X148376102Y-74700213D01*
X148376098Y-74700220D01*
X148213465Y-75019407D01*
X148206266Y-75033535D01*
X148169536Y-75129220D01*
X148075078Y-75375292D01*
X148071022Y-75385857D01*
X147973347Y-75750387D01*
X147944705Y-75931222D01*
X147917513Y-76102909D01*
X147914310Y-76123129D01*
X147894559Y-76500000D01*
X147914310Y-76876871D01*
X147914823Y-76880111D01*
X147914824Y-76880119D01*
X147918534Y-76903540D01*
X147973347Y-77249613D01*
X148071022Y-77614143D01*
X148072207Y-77617231D01*
X148072208Y-77617233D01*
X148086232Y-77653766D01*
X148206266Y-77966465D01*
X148207764Y-77969405D01*
X148375092Y-78297803D01*
X148377597Y-78302720D01*
X148583137Y-78619225D01*
X148820635Y-78912511D01*
X149087489Y-79179365D01*
X149196428Y-79267582D01*
X149236778Y-79325994D01*
X149239144Y-79396951D01*
X149202771Y-79457923D01*
X149139209Y-79489551D01*
X149117132Y-79491500D01*
X60882868Y-79491500D01*
X60814747Y-79471498D01*
X60768254Y-79417842D01*
X60758150Y-79347568D01*
X60787644Y-79282988D01*
X60803566Y-79267587D01*
X60912511Y-79179365D01*
X61179365Y-78912511D01*
X61416863Y-78619225D01*
X61541495Y-78427309D01*
X61620605Y-78305490D01*
X61620607Y-78305487D01*
X61622403Y-78302721D01*
X61623903Y-78299779D01*
X61792236Y-77969405D01*
X61793734Y-77966465D01*
X61913768Y-77653766D01*
X61927792Y-77617233D01*
X61927793Y-77617231D01*
X61928978Y-77614143D01*
X62026653Y-77249613D01*
X62081466Y-76903540D01*
X62085176Y-76880119D01*
X62085177Y-76880111D01*
X62085690Y-76876871D01*
X62105441Y-76500000D01*
X62085690Y-76123129D01*
X62082488Y-76102909D01*
X62055295Y-75931222D01*
X62026653Y-75750387D01*
X61928978Y-75385857D01*
X61924923Y-75375292D01*
X61830464Y-75129220D01*
X61793734Y-75033535D01*
X61786535Y-75019407D01*
X61623902Y-74700221D01*
X61623898Y-74700214D01*
X61622403Y-74697280D01*
X61617272Y-74689378D01*
X61481794Y-74480761D01*
X61416863Y-74380775D01*
X61179365Y-74087489D01*
X60912511Y-73820635D01*
X60619225Y-73583137D01*
X60302720Y-73377597D01*
X60299786Y-73376102D01*
X60299779Y-73376098D01*
X59969405Y-73207764D01*
X59966465Y-73206266D01*
X59614143Y-73071022D01*
X59249613Y-72973347D01*
X59033129Y-72939059D01*
X58880119Y-72914824D01*
X58880111Y-72914823D01*
X58876871Y-72914310D01*
X58594280Y-72899500D01*
X58405720Y-72899500D01*
X58123129Y-72914310D01*
X58119889Y-72914823D01*
X58119881Y-72914824D01*
X57966871Y-72939059D01*
X57750387Y-72973347D01*
X57385857Y-73071022D01*
X57033535Y-73206266D01*
X57030595Y-73207764D01*
X56700221Y-73376098D01*
X56700214Y-73376102D01*
X56697280Y-73377597D01*
X56380775Y-73583137D01*
X56087489Y-73820635D01*
X55820635Y-74087489D01*
X55732418Y-74196428D01*
X55674006Y-74236778D01*
X55603049Y-74239144D01*
X55542077Y-74202771D01*
X55510449Y-74139209D01*
X55508500Y-74117132D01*
X55508500Y-70952169D01*
X56404501Y-70952169D01*
X56404871Y-70958990D01*
X56410395Y-71009852D01*
X56414021Y-71025104D01*
X56459176Y-71145554D01*
X56467714Y-71161149D01*
X56544215Y-71263224D01*
X56556776Y-71275785D01*
X56658851Y-71352286D01*
X56674446Y-71360824D01*
X56794894Y-71405978D01*
X56810149Y-71409605D01*
X56861014Y-71415131D01*
X56867828Y-71415500D01*
X57490385Y-71415500D01*
X57505624Y-71411025D01*
X57506829Y-71409635D01*
X57508500Y-71401952D01*
X57508500Y-71397384D01*
X58016500Y-71397384D01*
X58020975Y-71412623D01*
X58022365Y-71413828D01*
X58030048Y-71415499D01*
X58657169Y-71415499D01*
X58663990Y-71415129D01*
X58714852Y-71409605D01*
X58730104Y-71405979D01*
X58850554Y-71360824D01*
X58866149Y-71352286D01*
X58968224Y-71275785D01*
X58980785Y-71263224D01*
X59057286Y-71161149D01*
X59065824Y-71145554D01*
X59110978Y-71025106D01*
X59114605Y-71009851D01*
X59120131Y-70958986D01*
X59120500Y-70952172D01*
X59120500Y-70329615D01*
X59116025Y-70314376D01*
X59114635Y-70313171D01*
X59106952Y-70311500D01*
X58034615Y-70311500D01*
X58019376Y-70315975D01*
X58018171Y-70317365D01*
X58016500Y-70325048D01*
X58016500Y-71397384D01*
X57508500Y-71397384D01*
X57508500Y-70329615D01*
X57504025Y-70314376D01*
X57502635Y-70313171D01*
X57494952Y-70311500D01*
X56422616Y-70311500D01*
X56407377Y-70315975D01*
X56406172Y-70317365D01*
X56404501Y-70325048D01*
X56404501Y-70952169D01*
X55508500Y-70952169D01*
X55508500Y-67484195D01*
X56399751Y-67484195D01*
X56400048Y-67489348D01*
X56400048Y-67489351D01*
X56409857Y-67659474D01*
X56412610Y-67707215D01*
X56413747Y-67712261D01*
X56413748Y-67712267D01*
X56426950Y-67770845D01*
X56461722Y-67925139D01*
X56545766Y-68132116D01*
X56662487Y-68322588D01*
X56808750Y-68491438D01*
X56812725Y-68494738D01*
X56812731Y-68494744D01*
X56817925Y-68499056D01*
X56857559Y-68557960D01*
X56859055Y-68628941D01*
X56821939Y-68689462D01*
X56781668Y-68713980D01*
X56674446Y-68754176D01*
X56658851Y-68762714D01*
X56556776Y-68839215D01*
X56544215Y-68851776D01*
X56467714Y-68953851D01*
X56459176Y-68969446D01*
X56414022Y-69089894D01*
X56410395Y-69105149D01*
X56404869Y-69156014D01*
X56404500Y-69162828D01*
X56404500Y-69785385D01*
X56408975Y-69800624D01*
X56410365Y-69801829D01*
X56418048Y-69803500D01*
X59100406Y-69803500D01*
X59168527Y-69823502D01*
X59189500Y-69840404D01*
X61412159Y-72063064D01*
X63632970Y-74283875D01*
X63666996Y-74346187D01*
X63661931Y-74417002D01*
X63619384Y-74473838D01*
X63552864Y-74498649D01*
X63517677Y-74496216D01*
X63501951Y-74492873D01*
X63501942Y-74492872D01*
X63495487Y-74491500D01*
X63304513Y-74491500D01*
X63298061Y-74492872D01*
X63298056Y-74492872D01*
X63215869Y-74510342D01*
X63117712Y-74531206D01*
X63111682Y-74533891D01*
X63111681Y-74533891D01*
X62949278Y-74606197D01*
X62949276Y-74606198D01*
X62943248Y-74608882D01*
X62937907Y-74612762D01*
X62937906Y-74612763D01*
X62897665Y-74642000D01*
X62788747Y-74721134D01*
X62784326Y-74726044D01*
X62784325Y-74726045D01*
X62716328Y-74801564D01*
X62660960Y-74863056D01*
X62630329Y-74916110D01*
X62570691Y-75019407D01*
X62565473Y-75028444D01*
X62506458Y-75210072D01*
X62505768Y-75216633D01*
X62505768Y-75216635D01*
X62493357Y-75334718D01*
X62486496Y-75400000D01*
X62506458Y-75589928D01*
X62565473Y-75771556D01*
X62660960Y-75936944D01*
X62734137Y-76018215D01*
X62764853Y-76082221D01*
X62766500Y-76102524D01*
X62766500Y-76658489D01*
X62746498Y-76726610D01*
X62706804Y-76765632D01*
X62693469Y-76773884D01*
X62688296Y-76779066D01*
X62575742Y-76891816D01*
X62575738Y-76891821D01*
X62570571Y-76896997D01*
X62566731Y-76903227D01*
X62566730Y-76903228D01*
X62483864Y-77037662D01*
X62479291Y-77045080D01*
X62424526Y-77210191D01*
X62423826Y-77217027D01*
X62423825Y-77217030D01*
X62420633Y-77248184D01*
X62414000Y-77312928D01*
X62414000Y-77887072D01*
X62414337Y-77890318D01*
X62414337Y-77890322D01*
X62424071Y-77984132D01*
X62424793Y-77991093D01*
X62479846Y-78156107D01*
X62571384Y-78304031D01*
X62576566Y-78309204D01*
X62689316Y-78421758D01*
X62689321Y-78421762D01*
X62694497Y-78426929D01*
X62700727Y-78430769D01*
X62700728Y-78430770D01*
X62820006Y-78504294D01*
X62842580Y-78518209D01*
X63007691Y-78572974D01*
X63014527Y-78573674D01*
X63014530Y-78573675D01*
X63061870Y-78578525D01*
X63110428Y-78583500D01*
X63784572Y-78583500D01*
X63787818Y-78583163D01*
X63787822Y-78583163D01*
X63881735Y-78573419D01*
X63881739Y-78573418D01*
X63888593Y-78572707D01*
X63895129Y-78570526D01*
X63895131Y-78570526D01*
X64027895Y-78526232D01*
X64053607Y-78517654D01*
X64166930Y-78447528D01*
X64195305Y-78429969D01*
X64195306Y-78429968D01*
X64201531Y-78426116D01*
X64233379Y-78394213D01*
X64295659Y-78360134D01*
X64366479Y-78365137D01*
X64411567Y-78394057D01*
X64437541Y-78419985D01*
X64444497Y-78426929D01*
X64450727Y-78430769D01*
X64450728Y-78430770D01*
X64570006Y-78504294D01*
X64592580Y-78518209D01*
X64757691Y-78572974D01*
X64764527Y-78573674D01*
X64764530Y-78573675D01*
X64811870Y-78578525D01*
X64860428Y-78583500D01*
X65534572Y-78583500D01*
X65537818Y-78583163D01*
X65537822Y-78583163D01*
X65631735Y-78573419D01*
X65631739Y-78573418D01*
X65638593Y-78572707D01*
X65645129Y-78570526D01*
X65645131Y-78570526D01*
X65777895Y-78526232D01*
X65803607Y-78517654D01*
X65951531Y-78426116D01*
X65957167Y-78420470D01*
X66069258Y-78308184D01*
X66069262Y-78308179D01*
X66074429Y-78303003D01*
X66078270Y-78296772D01*
X66161869Y-78161150D01*
X66161870Y-78161148D01*
X66165709Y-78154920D01*
X66220474Y-77989809D01*
X66231000Y-77887072D01*
X66231000Y-77883766D01*
X70127555Y-77883766D01*
X70127892Y-77890282D01*
X70137630Y-77984132D01*
X70140523Y-77997528D01*
X70191043Y-78148953D01*
X70197208Y-78162115D01*
X70280981Y-78297492D01*
X70290015Y-78308890D01*
X70402684Y-78421363D01*
X70414095Y-78430375D01*
X70549618Y-78513912D01*
X70562796Y-78520056D01*
X70714321Y-78570315D01*
X70727687Y-78573181D01*
X70820325Y-78582672D01*
X70826740Y-78583000D01*
X70888440Y-78583000D01*
X70903679Y-78578525D01*
X70904884Y-78577135D01*
X70906555Y-78569452D01*
X70906555Y-77872115D01*
X70902080Y-77856876D01*
X70900690Y-77855671D01*
X70893007Y-77854000D01*
X70145670Y-77854000D01*
X70130431Y-77858475D01*
X70129226Y-77859865D01*
X70127555Y-77867548D01*
X70127555Y-77883766D01*
X66231000Y-77883766D01*
X66231000Y-77327885D01*
X70127555Y-77327885D01*
X70132030Y-77343124D01*
X70133420Y-77344329D01*
X70141103Y-77346000D01*
X70888440Y-77346000D01*
X70903679Y-77341525D01*
X70904884Y-77340135D01*
X70906555Y-77332452D01*
X70906555Y-76635115D01*
X70902080Y-76619876D01*
X70900690Y-76618671D01*
X70893007Y-76617000D01*
X70826789Y-76617000D01*
X70820273Y-76617337D01*
X70726423Y-76627075D01*
X70713027Y-76629968D01*
X70561602Y-76680488D01*
X70548440Y-76686653D01*
X70413063Y-76770426D01*
X70401665Y-76779460D01*
X70289192Y-76892129D01*
X70280180Y-76903540D01*
X70196643Y-77039063D01*
X70190499Y-77052241D01*
X70140240Y-77203766D01*
X70137374Y-77217132D01*
X70127883Y-77309770D01*
X70127555Y-77316185D01*
X70127555Y-77327885D01*
X66231000Y-77327885D01*
X66231000Y-77312928D01*
X66224782Y-77252998D01*
X66220919Y-77215765D01*
X66220918Y-77215761D01*
X66220207Y-77208907D01*
X66216217Y-77196946D01*
X66167472Y-77050841D01*
X66165154Y-77043893D01*
X66073616Y-76895969D01*
X66051189Y-76873581D01*
X65955684Y-76778242D01*
X65955679Y-76778238D01*
X65950503Y-76773071D01*
X65890884Y-76736321D01*
X65843390Y-76683548D01*
X65831000Y-76629061D01*
X65831000Y-75400000D01*
X71136496Y-75400000D01*
X71156458Y-75589928D01*
X71215473Y-75771556D01*
X71310960Y-75936944D01*
X71315375Y-75941847D01*
X71315379Y-75941852D01*
X71350616Y-75980987D01*
X71438747Y-76078866D01*
X71593248Y-76191118D01*
X71599276Y-76193802D01*
X71599278Y-76193803D01*
X71722353Y-76248599D01*
X71767712Y-76268794D01*
X71844590Y-76285135D01*
X71948056Y-76307128D01*
X71948061Y-76307128D01*
X71954513Y-76308500D01*
X72010406Y-76308500D01*
X72078527Y-76328502D01*
X72099501Y-76345405D01*
X72240150Y-76486054D01*
X72274176Y-76548366D01*
X72277055Y-76575149D01*
X72277055Y-76629095D01*
X72257053Y-76697216D01*
X72217362Y-76736236D01*
X72156524Y-76773884D01*
X72124324Y-76806141D01*
X72062043Y-76840220D01*
X71991223Y-76835218D01*
X71946133Y-76806296D01*
X71918426Y-76778637D01*
X71907015Y-76769625D01*
X71771492Y-76686088D01*
X71758314Y-76679944D01*
X71606789Y-76629685D01*
X71593423Y-76626819D01*
X71500785Y-76617328D01*
X71494370Y-76617000D01*
X71432670Y-76617000D01*
X71417431Y-76621475D01*
X71416226Y-76622865D01*
X71414555Y-76630548D01*
X71414555Y-78564885D01*
X71419030Y-78580124D01*
X71420420Y-78581329D01*
X71428103Y-78583000D01*
X71494321Y-78583000D01*
X71500837Y-78582663D01*
X71594687Y-78572925D01*
X71608083Y-78570032D01*
X71759508Y-78519512D01*
X71772670Y-78513347D01*
X71908047Y-78429574D01*
X71919450Y-78420536D01*
X71946080Y-78393860D01*
X72008362Y-78359781D01*
X72079182Y-78364784D01*
X72124270Y-78393705D01*
X72157552Y-78426929D01*
X72163782Y-78430769D01*
X72163783Y-78430770D01*
X72283061Y-78504294D01*
X72305635Y-78518209D01*
X72470746Y-78572974D01*
X72477582Y-78573674D01*
X72477585Y-78573675D01*
X72524925Y-78578525D01*
X72573483Y-78583500D01*
X73247627Y-78583500D01*
X73250873Y-78583163D01*
X73250877Y-78583163D01*
X73344790Y-78573419D01*
X73344794Y-78573418D01*
X73351648Y-78572707D01*
X73358184Y-78570526D01*
X73358186Y-78570526D01*
X73490950Y-78526232D01*
X73516662Y-78517654D01*
X73664586Y-78426116D01*
X73670222Y-78420470D01*
X73782313Y-78308184D01*
X73782317Y-78308179D01*
X73787484Y-78303003D01*
X73791325Y-78296772D01*
X73874924Y-78161150D01*
X73874925Y-78161148D01*
X73878764Y-78154920D01*
X73933529Y-77989809D01*
X73944055Y-77887072D01*
X73944055Y-77883766D01*
X77840610Y-77883766D01*
X77840947Y-77890282D01*
X77850685Y-77984132D01*
X77853578Y-77997528D01*
X77904098Y-78148953D01*
X77910263Y-78162115D01*
X77994036Y-78297492D01*
X78003070Y-78308890D01*
X78115739Y-78421363D01*
X78127150Y-78430375D01*
X78262673Y-78513912D01*
X78275851Y-78520056D01*
X78427376Y-78570315D01*
X78440742Y-78573181D01*
X78533380Y-78582672D01*
X78539795Y-78583000D01*
X78601495Y-78583000D01*
X78616734Y-78578525D01*
X78617939Y-78577135D01*
X78619610Y-78569452D01*
X78619610Y-78564885D01*
X79127610Y-78564885D01*
X79132085Y-78580124D01*
X79133475Y-78581329D01*
X79141158Y-78583000D01*
X79207376Y-78583000D01*
X79213892Y-78582663D01*
X79307742Y-78572925D01*
X79321138Y-78570032D01*
X79472563Y-78519512D01*
X79485725Y-78513347D01*
X79621102Y-78429574D01*
X79632505Y-78420536D01*
X79659135Y-78393860D01*
X79721417Y-78359781D01*
X79792237Y-78364784D01*
X79837325Y-78393705D01*
X79870607Y-78426929D01*
X79876837Y-78430769D01*
X79876838Y-78430770D01*
X79996116Y-78504294D01*
X80018690Y-78518209D01*
X80183801Y-78572974D01*
X80190637Y-78573674D01*
X80190640Y-78573675D01*
X80237980Y-78578525D01*
X80286538Y-78583500D01*
X80960682Y-78583500D01*
X80963928Y-78583163D01*
X80963932Y-78583163D01*
X81057845Y-78573419D01*
X81057849Y-78573418D01*
X81064703Y-78572707D01*
X81071239Y-78570526D01*
X81071241Y-78570526D01*
X81204005Y-78526232D01*
X81229717Y-78517654D01*
X81377641Y-78426116D01*
X81383277Y-78420470D01*
X81495368Y-78308184D01*
X81495372Y-78308179D01*
X81500539Y-78303003D01*
X81504380Y-78296772D01*
X81587979Y-78161150D01*
X81587980Y-78161148D01*
X81591819Y-78154920D01*
X81646584Y-77989809D01*
X81657110Y-77887072D01*
X81657110Y-77883766D01*
X85553666Y-77883766D01*
X85554003Y-77890282D01*
X85563741Y-77984132D01*
X85566634Y-77997528D01*
X85617154Y-78148953D01*
X85623319Y-78162115D01*
X85707092Y-78297492D01*
X85716126Y-78308890D01*
X85828795Y-78421363D01*
X85840206Y-78430375D01*
X85975729Y-78513912D01*
X85988907Y-78520056D01*
X86140432Y-78570315D01*
X86153798Y-78573181D01*
X86246436Y-78582672D01*
X86252851Y-78583000D01*
X86314551Y-78583000D01*
X86329790Y-78578525D01*
X86330995Y-78577135D01*
X86332666Y-78569452D01*
X86332666Y-78564885D01*
X86840666Y-78564885D01*
X86845141Y-78580124D01*
X86846531Y-78581329D01*
X86854214Y-78583000D01*
X86920432Y-78583000D01*
X86926948Y-78582663D01*
X87020798Y-78572925D01*
X87034194Y-78570032D01*
X87185619Y-78519512D01*
X87198781Y-78513347D01*
X87334158Y-78429574D01*
X87345561Y-78420536D01*
X87372191Y-78393860D01*
X87434473Y-78359781D01*
X87505293Y-78364784D01*
X87550381Y-78393705D01*
X87583663Y-78426929D01*
X87589893Y-78430769D01*
X87589894Y-78430770D01*
X87709172Y-78504294D01*
X87731746Y-78518209D01*
X87896857Y-78572974D01*
X87903693Y-78573674D01*
X87903696Y-78573675D01*
X87951036Y-78578525D01*
X87999594Y-78583500D01*
X88673738Y-78583500D01*
X88676984Y-78583163D01*
X88676988Y-78583163D01*
X88770901Y-78573419D01*
X88770905Y-78573418D01*
X88777759Y-78572707D01*
X88784295Y-78570526D01*
X88784297Y-78570526D01*
X88917061Y-78526232D01*
X88942773Y-78517654D01*
X89090697Y-78426116D01*
X89096333Y-78420470D01*
X89182886Y-78333766D01*
X96367000Y-78333766D01*
X96367337Y-78340282D01*
X96377075Y-78434132D01*
X96379968Y-78447528D01*
X96430488Y-78598953D01*
X96436653Y-78612115D01*
X96520426Y-78747492D01*
X96529460Y-78758890D01*
X96642129Y-78871363D01*
X96653540Y-78880375D01*
X96789063Y-78963912D01*
X96802241Y-78970056D01*
X96953766Y-79020315D01*
X96967132Y-79023181D01*
X97059770Y-79032672D01*
X97066185Y-79033000D01*
X97140385Y-79033000D01*
X97155624Y-79028525D01*
X97156829Y-79027135D01*
X97158500Y-79019452D01*
X97158500Y-78322115D01*
X97154025Y-78306876D01*
X97152635Y-78305671D01*
X97144952Y-78304000D01*
X96385115Y-78304000D01*
X96369876Y-78308475D01*
X96368671Y-78309865D01*
X96367000Y-78317548D01*
X96367000Y-78333766D01*
X89182886Y-78333766D01*
X89208424Y-78308184D01*
X89208428Y-78308179D01*
X89213595Y-78303003D01*
X89217436Y-78296772D01*
X89301035Y-78161150D01*
X89301036Y-78161148D01*
X89304875Y-78154920D01*
X89359640Y-77989809D01*
X89370166Y-77887072D01*
X89370166Y-77777885D01*
X96367000Y-77777885D01*
X96371475Y-77793124D01*
X96372865Y-77794329D01*
X96380548Y-77796000D01*
X97140385Y-77796000D01*
X97155624Y-77791525D01*
X97156829Y-77790135D01*
X97158500Y-77782452D01*
X97158500Y-77085115D01*
X97154025Y-77069876D01*
X97152635Y-77068671D01*
X97144952Y-77067000D01*
X97066234Y-77067000D01*
X97059718Y-77067337D01*
X96965868Y-77077075D01*
X96952472Y-77079968D01*
X96801047Y-77130488D01*
X96787885Y-77136653D01*
X96652508Y-77220426D01*
X96641110Y-77229460D01*
X96528637Y-77342129D01*
X96519625Y-77353540D01*
X96436088Y-77489063D01*
X96429944Y-77502241D01*
X96379685Y-77653766D01*
X96376819Y-77667132D01*
X96367328Y-77759770D01*
X96367000Y-77766185D01*
X96367000Y-77777885D01*
X89370166Y-77777885D01*
X89370166Y-77312928D01*
X89363948Y-77252998D01*
X89360085Y-77215765D01*
X89360084Y-77215761D01*
X89359373Y-77208907D01*
X89355383Y-77196946D01*
X89306638Y-77050841D01*
X89304320Y-77043893D01*
X89212782Y-76895969D01*
X89190355Y-76873581D01*
X89094850Y-76778242D01*
X89094845Y-76778238D01*
X89089669Y-76773071D01*
X89030050Y-76736321D01*
X88982556Y-76683548D01*
X88970166Y-76629061D01*
X88970166Y-76171030D01*
X88990168Y-76102909D01*
X89009558Y-76080097D01*
X89011253Y-76078866D01*
X89107684Y-75971768D01*
X89134621Y-75941852D01*
X89134625Y-75941847D01*
X89139040Y-75936944D01*
X89234527Y-75771556D01*
X89293542Y-75589928D01*
X89313504Y-75400000D01*
X89306643Y-75334718D01*
X89294232Y-75216635D01*
X89294232Y-75216633D01*
X89293542Y-75210072D01*
X89234527Y-75028444D01*
X89229310Y-75019407D01*
X89169671Y-74916110D01*
X89139040Y-74863056D01*
X89083673Y-74801564D01*
X89015675Y-74726045D01*
X89015674Y-74726044D01*
X89011253Y-74721134D01*
X88954330Y-74679777D01*
X91399509Y-74679777D01*
X91425125Y-74948269D01*
X91426210Y-74952703D01*
X91426211Y-74952709D01*
X91487644Y-75203766D01*
X91489231Y-75210250D01*
X91590485Y-75460233D01*
X91726765Y-75692982D01*
X91808560Y-75795261D01*
X91890015Y-75897115D01*
X91895216Y-75903619D01*
X92092309Y-76087734D01*
X92313916Y-76241468D01*
X92317999Y-76243499D01*
X92318002Y-76243501D01*
X92411747Y-76290138D01*
X92555394Y-76361601D01*
X92559728Y-76363022D01*
X92559731Y-76363023D01*
X92807353Y-76444198D01*
X92807359Y-76444199D01*
X92811686Y-76445618D01*
X92816177Y-76446398D01*
X92816178Y-76446398D01*
X93073640Y-76491101D01*
X93073648Y-76491102D01*
X93077421Y-76491757D01*
X93081258Y-76491948D01*
X93161078Y-76495922D01*
X93161086Y-76495922D01*
X93162649Y-76496000D01*
X93331012Y-76496000D01*
X93333280Y-76495835D01*
X93333292Y-76495835D01*
X93468091Y-76486054D01*
X93531504Y-76481453D01*
X93535959Y-76480469D01*
X93535962Y-76480469D01*
X93790412Y-76424291D01*
X93790416Y-76424290D01*
X93794872Y-76423306D01*
X93920980Y-76375528D01*
X94042818Y-76329368D01*
X94042821Y-76329367D01*
X94047088Y-76327750D01*
X94247000Y-76216709D01*
X94278875Y-76199004D01*
X94278876Y-76199003D01*
X94282868Y-76196786D01*
X94469755Y-76054158D01*
X94493641Y-76035929D01*
X94493642Y-76035928D01*
X94497273Y-76033157D01*
X94515210Y-76014809D01*
X94627391Y-75900053D01*
X94643313Y-75883766D01*
X96367000Y-75883766D01*
X96367337Y-75890282D01*
X96377075Y-75984132D01*
X96379968Y-75997528D01*
X96430488Y-76148953D01*
X96436653Y-76162115D01*
X96520426Y-76297492D01*
X96529460Y-76308890D01*
X96642129Y-76421363D01*
X96653540Y-76430375D01*
X96789063Y-76513912D01*
X96802241Y-76520056D01*
X96953766Y-76570315D01*
X96967132Y-76573181D01*
X97059770Y-76582672D01*
X97066185Y-76583000D01*
X97140385Y-76583000D01*
X97155624Y-76578525D01*
X97156829Y-76577135D01*
X97158500Y-76569452D01*
X97158500Y-75872115D01*
X97154025Y-75856876D01*
X97152635Y-75855671D01*
X97144952Y-75854000D01*
X96385115Y-75854000D01*
X96369876Y-75858475D01*
X96368671Y-75859865D01*
X96367000Y-75867548D01*
X96367000Y-75883766D01*
X94643313Y-75883766D01*
X94685812Y-75840292D01*
X94844534Y-75622230D01*
X94927690Y-75464176D01*
X94967990Y-75387579D01*
X94967993Y-75387573D01*
X94970115Y-75383539D01*
X94973028Y-75375292D01*
X95058402Y-75133533D01*
X95058402Y-75133532D01*
X95059925Y-75129220D01*
X95100971Y-74920969D01*
X95111200Y-74869072D01*
X95111201Y-74869066D01*
X95112081Y-74864600D01*
X95113231Y-74841500D01*
X95125264Y-74599792D01*
X95125264Y-74599786D01*
X95125491Y-74595223D01*
X95099875Y-74326731D01*
X95089389Y-74283875D01*
X95036855Y-74069188D01*
X95035769Y-74064750D01*
X94934515Y-73814767D01*
X94835304Y-73645327D01*
X94800545Y-73585963D01*
X94800544Y-73585962D01*
X94798235Y-73582018D01*
X94680428Y-73434708D01*
X94632636Y-73374947D01*
X94632635Y-73374945D01*
X94629784Y-73371381D01*
X94432691Y-73187266D01*
X94211084Y-73033532D01*
X94207001Y-73031501D01*
X94206998Y-73031499D01*
X94042106Y-72949467D01*
X93969606Y-72913399D01*
X93965272Y-72911978D01*
X93965269Y-72911977D01*
X93717647Y-72830802D01*
X93717641Y-72830801D01*
X93713314Y-72829382D01*
X93708822Y-72828602D01*
X93451360Y-72783899D01*
X93451352Y-72783898D01*
X93447579Y-72783243D01*
X93436317Y-72782682D01*
X93363922Y-72779078D01*
X93363914Y-72779078D01*
X93362351Y-72779000D01*
X93193988Y-72779000D01*
X93191720Y-72779165D01*
X93191708Y-72779165D01*
X93067094Y-72788207D01*
X92993496Y-72793547D01*
X92989041Y-72794531D01*
X92989038Y-72794531D01*
X92734588Y-72850709D01*
X92734584Y-72850710D01*
X92730128Y-72851694D01*
X92662302Y-72877391D01*
X92482182Y-72945632D01*
X92482179Y-72945633D01*
X92477912Y-72947250D01*
X92242132Y-73078214D01*
X92238500Y-73080986D01*
X92078924Y-73202771D01*
X92027727Y-73241843D01*
X91839188Y-73434708D01*
X91680466Y-73652770D01*
X91678344Y-73656804D01*
X91557010Y-73887421D01*
X91557007Y-73887427D01*
X91554885Y-73891461D01*
X91553365Y-73895766D01*
X91553363Y-73895770D01*
X91482013Y-74097816D01*
X91465075Y-74145780D01*
X91457295Y-74185253D01*
X91419266Y-74378199D01*
X91412919Y-74410400D01*
X91412692Y-74414953D01*
X91412692Y-74414956D01*
X91399850Y-74672937D01*
X91399509Y-74679777D01*
X88954330Y-74679777D01*
X88902335Y-74642000D01*
X88862094Y-74612763D01*
X88862093Y-74612762D01*
X88856752Y-74608882D01*
X88850724Y-74606198D01*
X88850722Y-74606197D01*
X88688319Y-74533891D01*
X88688318Y-74533891D01*
X88682288Y-74531206D01*
X88584131Y-74510342D01*
X88501944Y-74492872D01*
X88501939Y-74492872D01*
X88495487Y-74491500D01*
X88304513Y-74491500D01*
X88298061Y-74492872D01*
X88298056Y-74492872D01*
X88215869Y-74510342D01*
X88117712Y-74531206D01*
X88111682Y-74533891D01*
X88111681Y-74533891D01*
X87949278Y-74606197D01*
X87949276Y-74606198D01*
X87943248Y-74608882D01*
X87937907Y-74612762D01*
X87937906Y-74612763D01*
X87897665Y-74642000D01*
X87788747Y-74721134D01*
X87784326Y-74726044D01*
X87784325Y-74726045D01*
X87716328Y-74801564D01*
X87660960Y-74863056D01*
X87630329Y-74916110D01*
X87570691Y-75019407D01*
X87565473Y-75028444D01*
X87506458Y-75210072D01*
X87505768Y-75216633D01*
X87505768Y-75216635D01*
X87493357Y-75334718D01*
X87486496Y-75400000D01*
X87506458Y-75589928D01*
X87565473Y-75771556D01*
X87568776Y-75777278D01*
X87568777Y-75777279D01*
X87649542Y-75917167D01*
X87660960Y-75936944D01*
X87665382Y-75941855D01*
X87665384Y-75941858D01*
X87670803Y-75947877D01*
X87701520Y-76011884D01*
X87703166Y-76032186D01*
X87703166Y-76629095D01*
X87683164Y-76697216D01*
X87643473Y-76736236D01*
X87582635Y-76773884D01*
X87550435Y-76806141D01*
X87488154Y-76840220D01*
X87417334Y-76835218D01*
X87372244Y-76806296D01*
X87344537Y-76778637D01*
X87333126Y-76769625D01*
X87197603Y-76686088D01*
X87184425Y-76679944D01*
X87032900Y-76629685D01*
X87019534Y-76626819D01*
X86926896Y-76617328D01*
X86920481Y-76617000D01*
X86858781Y-76617000D01*
X86843542Y-76621475D01*
X86842337Y-76622865D01*
X86840666Y-76630548D01*
X86840666Y-78564885D01*
X86332666Y-78564885D01*
X86332666Y-77872115D01*
X86328191Y-77856876D01*
X86326801Y-77855671D01*
X86319118Y-77854000D01*
X85571781Y-77854000D01*
X85556542Y-77858475D01*
X85555337Y-77859865D01*
X85553666Y-77867548D01*
X85553666Y-77883766D01*
X81657110Y-77883766D01*
X81657110Y-77327885D01*
X85553666Y-77327885D01*
X85558141Y-77343124D01*
X85559531Y-77344329D01*
X85567214Y-77346000D01*
X86314551Y-77346000D01*
X86329790Y-77341525D01*
X86330995Y-77340135D01*
X86332666Y-77332452D01*
X86332666Y-76635115D01*
X86328191Y-76619876D01*
X86326801Y-76618671D01*
X86319118Y-76617000D01*
X86252900Y-76617000D01*
X86246384Y-76617337D01*
X86152534Y-76627075D01*
X86139138Y-76629968D01*
X85987713Y-76680488D01*
X85974551Y-76686653D01*
X85839174Y-76770426D01*
X85827776Y-76779460D01*
X85715303Y-76892129D01*
X85706291Y-76903540D01*
X85622754Y-77039063D01*
X85616610Y-77052241D01*
X85566351Y-77203766D01*
X85563485Y-77217132D01*
X85553994Y-77309770D01*
X85553666Y-77316185D01*
X85553666Y-77327885D01*
X81657110Y-77327885D01*
X81657110Y-77312928D01*
X81650892Y-77252998D01*
X81647029Y-77215765D01*
X81647028Y-77215761D01*
X81646317Y-77208907D01*
X81642327Y-77196946D01*
X81593582Y-77050841D01*
X81591264Y-77043893D01*
X81499726Y-76895969D01*
X81477299Y-76873581D01*
X81381794Y-76778242D01*
X81381789Y-76778238D01*
X81376613Y-76773071D01*
X81316994Y-76736321D01*
X81269500Y-76683548D01*
X81257110Y-76629061D01*
X81257110Y-76076303D01*
X81277112Y-76008182D01*
X81289468Y-75992000D01*
X81339040Y-75936944D01*
X81434527Y-75771556D01*
X81493542Y-75589928D01*
X81513504Y-75400000D01*
X81506643Y-75334718D01*
X81494232Y-75216635D01*
X81494232Y-75216633D01*
X81493542Y-75210072D01*
X81434527Y-75028444D01*
X81429310Y-75019407D01*
X81369671Y-74916110D01*
X81339040Y-74863056D01*
X81283673Y-74801564D01*
X81215675Y-74726045D01*
X81215674Y-74726044D01*
X81211253Y-74721134D01*
X81102335Y-74642000D01*
X81062094Y-74612763D01*
X81062093Y-74612762D01*
X81056752Y-74608882D01*
X81050724Y-74606198D01*
X81050722Y-74606197D01*
X80888319Y-74533891D01*
X80888318Y-74533891D01*
X80882288Y-74531206D01*
X80784131Y-74510342D01*
X80701944Y-74492872D01*
X80701939Y-74492872D01*
X80695487Y-74491500D01*
X80504513Y-74491500D01*
X80498061Y-74492872D01*
X80498056Y-74492872D01*
X80415869Y-74510342D01*
X80317712Y-74531206D01*
X80311682Y-74533891D01*
X80311681Y-74533891D01*
X80149278Y-74606197D01*
X80149276Y-74606198D01*
X80143248Y-74608882D01*
X80137907Y-74612762D01*
X80137906Y-74612763D01*
X80097665Y-74642000D01*
X79988747Y-74721134D01*
X79984326Y-74726044D01*
X79984325Y-74726045D01*
X79916328Y-74801564D01*
X79860960Y-74863056D01*
X79830329Y-74916110D01*
X79770691Y-75019407D01*
X79765473Y-75028444D01*
X79706458Y-75210072D01*
X79705768Y-75216633D01*
X79705768Y-75216635D01*
X79693357Y-75334718D01*
X79686496Y-75400000D01*
X79706458Y-75589928D01*
X79765473Y-75771556D01*
X79860960Y-75936944D01*
X79865375Y-75941847D01*
X79865379Y-75941852D01*
X79957746Y-76044436D01*
X79988464Y-76108443D01*
X79990110Y-76128746D01*
X79990110Y-76629095D01*
X79970108Y-76697216D01*
X79930417Y-76736236D01*
X79869579Y-76773884D01*
X79837379Y-76806141D01*
X79775098Y-76840220D01*
X79704278Y-76835218D01*
X79659188Y-76806296D01*
X79631481Y-76778637D01*
X79620070Y-76769625D01*
X79484547Y-76686088D01*
X79471369Y-76679944D01*
X79319844Y-76629685D01*
X79306478Y-76626819D01*
X79213840Y-76617328D01*
X79207425Y-76617000D01*
X79145725Y-76617000D01*
X79130486Y-76621475D01*
X79129281Y-76622865D01*
X79127610Y-76630548D01*
X79127610Y-78564885D01*
X78619610Y-78564885D01*
X78619610Y-77872115D01*
X78615135Y-77856876D01*
X78613745Y-77855671D01*
X78606062Y-77854000D01*
X77858725Y-77854000D01*
X77843486Y-77858475D01*
X77842281Y-77859865D01*
X77840610Y-77867548D01*
X77840610Y-77883766D01*
X73944055Y-77883766D01*
X73944055Y-77327885D01*
X77840610Y-77327885D01*
X77845085Y-77343124D01*
X77846475Y-77344329D01*
X77854158Y-77346000D01*
X78601495Y-77346000D01*
X78616734Y-77341525D01*
X78617939Y-77340135D01*
X78619610Y-77332452D01*
X78619610Y-76635115D01*
X78615135Y-76619876D01*
X78613745Y-76618671D01*
X78606062Y-76617000D01*
X78539844Y-76617000D01*
X78533328Y-76617337D01*
X78439478Y-76627075D01*
X78426082Y-76629968D01*
X78274657Y-76680488D01*
X78261495Y-76686653D01*
X78126118Y-76770426D01*
X78114720Y-76779460D01*
X78002247Y-76892129D01*
X77993235Y-76903540D01*
X77909698Y-77039063D01*
X77903554Y-77052241D01*
X77853295Y-77203766D01*
X77850429Y-77217132D01*
X77840938Y-77309770D01*
X77840610Y-77316185D01*
X77840610Y-77327885D01*
X73944055Y-77327885D01*
X73944055Y-77312928D01*
X73937837Y-77252998D01*
X73933974Y-77215765D01*
X73933973Y-77215761D01*
X73933262Y-77208907D01*
X73929272Y-77196946D01*
X73880527Y-77050841D01*
X73878209Y-77043893D01*
X73786671Y-76895969D01*
X73764244Y-76873581D01*
X73668739Y-76778242D01*
X73668734Y-76778238D01*
X73663558Y-76773071D01*
X73603939Y-76736321D01*
X73556445Y-76683548D01*
X73544055Y-76629061D01*
X73544055Y-76339323D01*
X73544582Y-76328140D01*
X73546257Y-76320647D01*
X73545916Y-76309780D01*
X73544117Y-76252557D01*
X73544055Y-76248599D01*
X73544055Y-76220699D01*
X73543551Y-76216708D01*
X73542618Y-76204866D01*
X73542373Y-76197048D01*
X73541229Y-76160666D01*
X73535576Y-76141207D01*
X73531567Y-76121848D01*
X73531318Y-76119881D01*
X73529029Y-76101758D01*
X73526113Y-76094392D01*
X73526111Y-76094386D01*
X73512755Y-76060653D01*
X73508910Y-76049423D01*
X73498785Y-76014572D01*
X73498785Y-76014571D01*
X73496574Y-76006962D01*
X73487722Y-75991993D01*
X73486260Y-75989521D01*
X73477563Y-75971768D01*
X73473027Y-75960313D01*
X73470107Y-75952938D01*
X73444118Y-75917167D01*
X73437602Y-75907247D01*
X73437302Y-75906740D01*
X73415097Y-75869193D01*
X73400776Y-75854872D01*
X73387935Y-75839838D01*
X73380686Y-75829861D01*
X73376027Y-75823448D01*
X73369922Y-75818397D01*
X73369917Y-75818392D01*
X73341957Y-75795261D01*
X73333179Y-75787274D01*
X73168135Y-75622230D01*
X72997122Y-75451218D01*
X72963097Y-75388905D01*
X72960907Y-75375292D01*
X72959840Y-75365135D01*
X72943542Y-75210072D01*
X72884527Y-75028444D01*
X72879310Y-75019407D01*
X72819671Y-74916110D01*
X72789040Y-74863056D01*
X72733673Y-74801564D01*
X72665675Y-74726045D01*
X72665674Y-74726044D01*
X72661253Y-74721134D01*
X72552335Y-74642000D01*
X72512094Y-74612763D01*
X72512093Y-74612762D01*
X72506752Y-74608882D01*
X72500724Y-74606198D01*
X72500722Y-74606197D01*
X72338319Y-74533891D01*
X72338318Y-74533891D01*
X72332288Y-74531206D01*
X72234131Y-74510342D01*
X72151944Y-74492872D01*
X72151939Y-74492872D01*
X72145487Y-74491500D01*
X71954513Y-74491500D01*
X71948061Y-74492872D01*
X71948056Y-74492872D01*
X71865869Y-74510342D01*
X71767712Y-74531206D01*
X71761682Y-74533891D01*
X71761681Y-74533891D01*
X71599278Y-74606197D01*
X71599276Y-74606198D01*
X71593248Y-74608882D01*
X71587907Y-74612762D01*
X71587906Y-74612763D01*
X71547665Y-74642000D01*
X71438747Y-74721134D01*
X71434326Y-74726044D01*
X71434325Y-74726045D01*
X71366328Y-74801564D01*
X71310960Y-74863056D01*
X71280329Y-74916110D01*
X71220691Y-75019407D01*
X71215473Y-75028444D01*
X71156458Y-75210072D01*
X71155768Y-75216633D01*
X71155768Y-75216635D01*
X71143357Y-75334718D01*
X71136496Y-75400000D01*
X65831000Y-75400000D01*
X65831000Y-75031267D01*
X65831527Y-75020084D01*
X65833202Y-75012591D01*
X65831911Y-74971498D01*
X65831062Y-74944501D01*
X65831000Y-74940543D01*
X65831000Y-74912644D01*
X65830496Y-74908653D01*
X65829563Y-74896811D01*
X65828423Y-74860536D01*
X65828174Y-74852611D01*
X65825962Y-74844997D01*
X65825961Y-74844992D01*
X65822523Y-74833159D01*
X65818512Y-74813795D01*
X65816967Y-74801564D01*
X65815974Y-74793703D01*
X65813057Y-74786336D01*
X65813056Y-74786331D01*
X65799698Y-74752592D01*
X65795854Y-74741365D01*
X65789976Y-74721134D01*
X65783518Y-74698907D01*
X65776271Y-74686653D01*
X65773207Y-74681472D01*
X65764512Y-74663724D01*
X65757052Y-74644883D01*
X65731064Y-74609113D01*
X65724548Y-74599193D01*
X65706080Y-74567965D01*
X65706078Y-74567962D01*
X65702042Y-74561138D01*
X65687721Y-74546817D01*
X65674880Y-74531783D01*
X65667631Y-74521806D01*
X65662972Y-74515393D01*
X65628895Y-74487202D01*
X65620116Y-74479212D01*
X60283871Y-69142966D01*
X96668257Y-69142966D01*
X96698565Y-69277446D01*
X96701645Y-69287275D01*
X96781770Y-69484603D01*
X96786413Y-69493794D01*
X96897694Y-69675388D01*
X96903777Y-69683699D01*
X97043213Y-69844667D01*
X97050580Y-69851883D01*
X97214434Y-69987916D01*
X97222881Y-69993831D01*
X97406756Y-70101279D01*
X97416042Y-70105729D01*
X97615001Y-70181703D01*
X97624899Y-70184579D01*
X97728250Y-70205606D01*
X97742299Y-70204410D01*
X97746000Y-70194065D01*
X97746000Y-70193517D01*
X98254000Y-70193517D01*
X98258064Y-70207359D01*
X98271478Y-70209393D01*
X98278184Y-70208534D01*
X98288262Y-70206392D01*
X98492255Y-70145191D01*
X98501842Y-70141433D01*
X98693095Y-70047739D01*
X98701945Y-70042464D01*
X98875328Y-69918792D01*
X98883200Y-69912139D01*
X99034052Y-69761812D01*
X99040730Y-69753965D01*
X99165003Y-69581020D01*
X99170313Y-69572183D01*
X99264670Y-69381267D01*
X99268469Y-69371672D01*
X99330377Y-69167910D01*
X99332555Y-69157837D01*
X99333986Y-69146962D01*
X99331775Y-69132778D01*
X99318617Y-69129000D01*
X98272115Y-69129000D01*
X98256876Y-69133475D01*
X98255671Y-69134865D01*
X98254000Y-69142548D01*
X98254000Y-70193517D01*
X97746000Y-70193517D01*
X97746000Y-69147115D01*
X97741525Y-69131876D01*
X97740135Y-69130671D01*
X97732452Y-69129000D01*
X96683225Y-69129000D01*
X96669694Y-69132973D01*
X96668257Y-69142966D01*
X60283871Y-69142966D01*
X59113718Y-67972813D01*
X59079692Y-67910501D01*
X59082255Y-67847089D01*
X59084597Y-67839383D01*
X59094870Y-67805569D01*
X59124029Y-67584090D01*
X59124530Y-67563597D01*
X59125574Y-67520865D01*
X59125574Y-67520861D01*
X59125656Y-67517500D01*
X59107352Y-67294861D01*
X59079321Y-67183265D01*
X59082125Y-67112323D01*
X59112430Y-67063474D01*
X60694494Y-65481411D01*
X62316753Y-63859152D01*
X62325039Y-63851612D01*
X62331518Y-63847500D01*
X62378144Y-63797848D01*
X62380898Y-63795007D01*
X62400635Y-63775270D01*
X62403115Y-63772073D01*
X62410820Y-63763051D01*
X62441086Y-63730821D01*
X62444905Y-63723875D01*
X62444907Y-63723872D01*
X62450848Y-63713066D01*
X62461699Y-63696547D01*
X62469258Y-63686801D01*
X62474114Y-63680541D01*
X62477259Y-63673272D01*
X62477262Y-63673268D01*
X62491674Y-63639963D01*
X62496891Y-63629313D01*
X62518195Y-63590560D01*
X62523233Y-63570937D01*
X62529637Y-63552234D01*
X62534533Y-63540920D01*
X62534533Y-63540919D01*
X62537681Y-63533645D01*
X62538920Y-63525822D01*
X62538923Y-63525812D01*
X62543649Y-63495974D01*
X62574461Y-63431376D01*
X62659121Y-63337352D01*
X62659122Y-63337351D01*
X62663540Y-63332444D01*
X62699358Y-63270405D01*
X62755723Y-63172779D01*
X62755724Y-63172778D01*
X62759027Y-63167056D01*
X62818042Y-62985428D01*
X62819035Y-62975986D01*
X62837917Y-62796329D01*
X62864930Y-62730673D01*
X62923152Y-62690043D01*
X62963227Y-62683500D01*
X66035406Y-62683500D01*
X66103527Y-62703502D01*
X66124501Y-62720405D01*
X67102878Y-63698783D01*
X67136904Y-63761095D01*
X67139093Y-63774706D01*
X67141226Y-63795007D01*
X67147129Y-63851163D01*
X67156458Y-63939928D01*
X67215473Y-64121556D01*
X67218776Y-64127278D01*
X67218777Y-64127279D01*
X67228652Y-64144383D01*
X67310960Y-64286944D01*
X67315378Y-64291851D01*
X67315379Y-64291852D01*
X67427042Y-64415866D01*
X67438747Y-64428866D01*
X67500092Y-64473436D01*
X67585725Y-64535652D01*
X67593248Y-64541118D01*
X67599276Y-64543802D01*
X67599278Y-64543803D01*
X67744162Y-64608309D01*
X67767712Y-64618794D01*
X67861113Y-64638647D01*
X67948056Y-64657128D01*
X67948061Y-64657128D01*
X67954513Y-64658500D01*
X68145487Y-64658500D01*
X68151939Y-64657128D01*
X68151944Y-64657128D01*
X68238887Y-64638647D01*
X68332288Y-64618794D01*
X68355838Y-64608309D01*
X68500722Y-64543803D01*
X68500724Y-64543802D01*
X68506752Y-64541118D01*
X68514276Y-64535652D01*
X68599908Y-64473436D01*
X68661253Y-64428866D01*
X68672958Y-64415866D01*
X68784621Y-64291852D01*
X68784622Y-64291851D01*
X68789040Y-64286944D01*
X68871348Y-64144383D01*
X68881223Y-64127279D01*
X68881224Y-64127278D01*
X68884527Y-64121556D01*
X68943542Y-63939928D01*
X68952872Y-63851163D01*
X68961706Y-63767104D01*
X71571377Y-63767104D01*
X71572067Y-63773669D01*
X71588852Y-63933365D01*
X71591339Y-63957032D01*
X71650354Y-64138660D01*
X71745841Y-64304048D01*
X71750259Y-64308955D01*
X71750260Y-64308956D01*
X71861724Y-64432749D01*
X71873628Y-64445970D01*
X71890632Y-64458324D01*
X72013387Y-64547511D01*
X72028129Y-64558222D01*
X72034157Y-64560906D01*
X72034159Y-64560907D01*
X72196562Y-64633213D01*
X72202593Y-64635898D01*
X72295993Y-64655751D01*
X72382937Y-64674232D01*
X72382942Y-64674232D01*
X72389394Y-64675604D01*
X72580368Y-64675604D01*
X72586820Y-64674232D01*
X72586825Y-64674232D01*
X72673769Y-64655751D01*
X72767169Y-64635898D01*
X72773200Y-64633213D01*
X72935603Y-64560907D01*
X72935605Y-64560906D01*
X72941633Y-64558222D01*
X72956376Y-64547511D01*
X73079130Y-64458324D01*
X73096134Y-64445970D01*
X73108038Y-64432749D01*
X73219502Y-64308956D01*
X73219503Y-64308955D01*
X73223921Y-64304048D01*
X73319408Y-64138660D01*
X73378423Y-63957032D01*
X73380911Y-63933365D01*
X73393085Y-63817527D01*
X73395788Y-63791810D01*
X73422801Y-63726154D01*
X73432003Y-63715886D01*
X73877484Y-63270405D01*
X73939796Y-63236379D01*
X73966579Y-63233500D01*
X91496233Y-63233500D01*
X91507416Y-63234027D01*
X91514909Y-63235702D01*
X91522835Y-63235453D01*
X91522836Y-63235453D01*
X91582986Y-63233562D01*
X91586945Y-63233500D01*
X91614856Y-63233500D01*
X91618791Y-63233003D01*
X91618856Y-63232995D01*
X91630693Y-63232062D01*
X91662951Y-63231048D01*
X91666970Y-63230922D01*
X91674889Y-63230673D01*
X91694343Y-63225021D01*
X91713700Y-63221013D01*
X91725930Y-63219468D01*
X91725931Y-63219468D01*
X91733797Y-63218474D01*
X91741168Y-63215555D01*
X91741170Y-63215555D01*
X91774912Y-63202196D01*
X91786142Y-63198351D01*
X91820983Y-63188229D01*
X91820984Y-63188229D01*
X91828593Y-63186018D01*
X91835412Y-63181985D01*
X91835417Y-63181983D01*
X91846028Y-63175707D01*
X91863776Y-63167012D01*
X91882617Y-63159552D01*
X91918387Y-63133564D01*
X91928307Y-63127048D01*
X91959535Y-63108580D01*
X91959538Y-63108578D01*
X91966362Y-63104542D01*
X91980683Y-63090221D01*
X91995717Y-63077380D01*
X91997552Y-63076047D01*
X92012107Y-63065472D01*
X92040298Y-63031395D01*
X92048288Y-63022616D01*
X96425019Y-58645885D01*
X96487331Y-58611859D01*
X96558146Y-58616924D01*
X96614982Y-58659471D01*
X96639905Y-58727727D01*
X96643632Y-58792369D01*
X96650110Y-58904715D01*
X96651247Y-58909761D01*
X96651248Y-58909767D01*
X96663749Y-58965235D01*
X96699222Y-59122639D01*
X96752294Y-59253340D01*
X96778477Y-59317821D01*
X96783266Y-59329616D01*
X96798291Y-59354135D01*
X96888995Y-59502150D01*
X96899987Y-59520088D01*
X97046250Y-59688938D01*
X97218126Y-59831632D01*
X97265067Y-59859062D01*
X97291445Y-59874476D01*
X97340169Y-59926114D01*
X97353240Y-59995897D01*
X97326509Y-60061669D01*
X97286055Y-60095027D01*
X97273607Y-60101507D01*
X97269474Y-60104610D01*
X97269471Y-60104612D01*
X97104356Y-60228584D01*
X97094965Y-60235635D01*
X97048775Y-60283970D01*
X96966738Y-60369817D01*
X96940629Y-60397138D01*
X96937715Y-60401410D01*
X96937714Y-60401411D01*
X96871238Y-60498862D01*
X96814743Y-60581680D01*
X96799060Y-60615466D01*
X96726685Y-60771386D01*
X96720688Y-60784305D01*
X96660989Y-60999570D01*
X96637251Y-61221695D01*
X96637548Y-61226848D01*
X96637548Y-61226851D01*
X96648394Y-61414949D01*
X96650110Y-61444715D01*
X96651247Y-61449761D01*
X96651248Y-61449767D01*
X96671797Y-61540945D01*
X96699222Y-61662639D01*
X96736252Y-61753834D01*
X96772670Y-61843520D01*
X96783266Y-61869616D01*
X96795512Y-61889600D01*
X96890370Y-62044394D01*
X96899987Y-62060088D01*
X97046250Y-62228938D01*
X97218126Y-62371632D01*
X97231591Y-62379500D01*
X97291445Y-62414476D01*
X97340169Y-62466114D01*
X97353240Y-62535897D01*
X97326509Y-62601669D01*
X97286055Y-62635027D01*
X97273607Y-62641507D01*
X97269474Y-62644610D01*
X97269471Y-62644612D01*
X97099100Y-62772530D01*
X97094965Y-62775635D01*
X97076605Y-62794848D01*
X96957930Y-62919034D01*
X96940629Y-62937138D01*
X96937715Y-62941410D01*
X96937714Y-62941411D01*
X96854898Y-63062815D01*
X96814743Y-63121680D01*
X96784431Y-63186982D01*
X96726246Y-63312332D01*
X96720688Y-63324305D01*
X96660989Y-63539570D01*
X96637251Y-63761695D01*
X96637548Y-63766848D01*
X96637548Y-63766851D01*
X96643344Y-63867368D01*
X96650110Y-63984715D01*
X96651247Y-63989761D01*
X96651248Y-63989767D01*
X96668122Y-64064638D01*
X96699222Y-64202639D01*
X96783266Y-64409616D01*
X96807923Y-64449853D01*
X96888933Y-64582049D01*
X96899987Y-64600088D01*
X97046250Y-64768938D01*
X97218126Y-64911632D01*
X97229633Y-64918356D01*
X97291445Y-64954476D01*
X97340169Y-65006114D01*
X97353240Y-65075897D01*
X97326509Y-65141669D01*
X97286055Y-65175027D01*
X97273607Y-65181507D01*
X97269474Y-65184610D01*
X97269471Y-65184612D01*
X97107174Y-65306468D01*
X97094965Y-65315635D01*
X96940629Y-65477138D01*
X96937715Y-65481410D01*
X96937714Y-65481411D01*
X96926500Y-65497850D01*
X96814743Y-65661680D01*
X96799003Y-65695590D01*
X96724017Y-65857134D01*
X96720688Y-65864305D01*
X96710589Y-65900720D01*
X96697152Y-65949172D01*
X96659673Y-66009470D01*
X96595544Y-66039933D01*
X96575735Y-66041500D01*
X74433200Y-66041500D01*
X74365079Y-66021498D01*
X74345853Y-66005157D01*
X74345580Y-66005460D01*
X74340668Y-66001037D01*
X74336253Y-65996134D01*
X74279279Y-65954740D01*
X74187094Y-65887763D01*
X74187093Y-65887762D01*
X74181752Y-65883882D01*
X74175724Y-65881198D01*
X74175722Y-65881197D01*
X74013319Y-65808891D01*
X74013318Y-65808891D01*
X74007288Y-65806206D01*
X73896175Y-65782588D01*
X73826944Y-65767872D01*
X73826939Y-65767872D01*
X73820487Y-65766500D01*
X73629513Y-65766500D01*
X73623061Y-65767872D01*
X73623056Y-65767872D01*
X73553825Y-65782588D01*
X73442712Y-65806206D01*
X73436682Y-65808891D01*
X73436681Y-65808891D01*
X73274278Y-65881197D01*
X73274276Y-65881198D01*
X73268248Y-65883882D01*
X73262907Y-65887762D01*
X73262906Y-65887763D01*
X73225140Y-65915202D01*
X73113747Y-65996134D01*
X73109326Y-66001044D01*
X73109325Y-66001045D01*
X72995917Y-66126998D01*
X72985960Y-66138056D01*
X72977379Y-66152919D01*
X72897957Y-66290482D01*
X72890473Y-66303444D01*
X72831458Y-66485072D01*
X72830768Y-66491633D01*
X72830768Y-66491635D01*
X72820919Y-66585345D01*
X72811496Y-66675000D01*
X72812186Y-66681565D01*
X72830462Y-66855448D01*
X72831458Y-66864928D01*
X72890473Y-67046556D01*
X72893776Y-67052278D01*
X72893777Y-67052279D01*
X72903524Y-67069161D01*
X72985960Y-67211944D01*
X72990378Y-67216851D01*
X72990379Y-67216852D01*
X73108344Y-67347865D01*
X73113747Y-67353866D01*
X73175458Y-67398702D01*
X73255795Y-67457070D01*
X73268248Y-67466118D01*
X73274276Y-67468802D01*
X73274278Y-67468803D01*
X73410647Y-67529518D01*
X73442712Y-67543794D01*
X73535877Y-67563597D01*
X73623056Y-67582128D01*
X73623061Y-67582128D01*
X73629513Y-67583500D01*
X73820487Y-67583500D01*
X73826939Y-67582128D01*
X73826944Y-67582128D01*
X73914123Y-67563597D01*
X74007288Y-67543794D01*
X74039353Y-67529518D01*
X74175722Y-67468803D01*
X74175724Y-67468802D01*
X74181752Y-67466118D01*
X74194206Y-67457070D01*
X74330679Y-67357916D01*
X74336253Y-67353866D01*
X74340668Y-67348963D01*
X74345580Y-67344540D01*
X74346705Y-67345789D01*
X74400014Y-67312949D01*
X74433200Y-67308500D01*
X97000236Y-67308500D01*
X97068357Y-67328502D01*
X97080718Y-67337553D01*
X97218126Y-67451632D01*
X97285731Y-67491137D01*
X97291955Y-67494774D01*
X97340679Y-67546412D01*
X97353750Y-67616195D01*
X97327019Y-67681967D01*
X97286562Y-67715327D01*
X97278457Y-67719546D01*
X97269738Y-67725036D01*
X97099433Y-67852905D01*
X97091726Y-67859748D01*
X96944590Y-68013717D01*
X96938104Y-68021727D01*
X96818098Y-68197649D01*
X96813000Y-68206623D01*
X96723338Y-68399783D01*
X96719775Y-68409470D01*
X96664389Y-68609183D01*
X96665912Y-68617607D01*
X96678292Y-68621000D01*
X99318344Y-68621000D01*
X99331875Y-68617027D01*
X99333180Y-68607947D01*
X99291214Y-68440875D01*
X99287894Y-68431124D01*
X99202972Y-68235814D01*
X99198105Y-68226739D01*
X99085634Y-68052885D01*
X100067000Y-68052885D01*
X100071475Y-68068124D01*
X100072865Y-68069329D01*
X100080548Y-68071000D01*
X100840385Y-68071000D01*
X100855624Y-68066525D01*
X100856829Y-68065135D01*
X100858500Y-68057452D01*
X100858500Y-67360115D01*
X100854025Y-67344876D01*
X100852635Y-67343671D01*
X100844952Y-67342000D01*
X100766234Y-67342000D01*
X100759718Y-67342337D01*
X100665868Y-67352075D01*
X100652472Y-67354968D01*
X100501047Y-67405488D01*
X100487885Y-67411653D01*
X100352508Y-67495426D01*
X100341110Y-67504460D01*
X100228637Y-67617129D01*
X100219625Y-67628540D01*
X100136088Y-67764063D01*
X100129944Y-67777241D01*
X100079685Y-67928766D01*
X100076819Y-67942132D01*
X100067328Y-68034770D01*
X100067000Y-68041185D01*
X100067000Y-68052885D01*
X99085634Y-68052885D01*
X99082426Y-68047926D01*
X99076136Y-68039757D01*
X98932806Y-67882240D01*
X98925273Y-67875215D01*
X98758139Y-67743222D01*
X98749556Y-67737520D01*
X98712602Y-67717120D01*
X98662631Y-67666687D01*
X98647859Y-67597245D01*
X98672975Y-67530839D01*
X98700327Y-67504232D01*
X98766446Y-67457070D01*
X98879860Y-67376173D01*
X98898349Y-67357749D01*
X98975584Y-67280783D01*
X99038096Y-67218489D01*
X99168453Y-67037077D01*
X99173215Y-67027443D01*
X99265136Y-66841453D01*
X99265137Y-66841451D01*
X99267430Y-66836811D01*
X99306956Y-66706717D01*
X99330865Y-66628023D01*
X99330865Y-66628021D01*
X99332370Y-66623069D01*
X99361529Y-66401590D01*
X99362136Y-66376757D01*
X99363074Y-66338365D01*
X99363074Y-66338361D01*
X99363156Y-66335000D01*
X99344852Y-66112361D01*
X99290431Y-65895702D01*
X99201354Y-65690840D01*
X99161906Y-65629862D01*
X99082822Y-65507617D01*
X99082820Y-65507614D01*
X99080014Y-65503277D01*
X98929670Y-65338051D01*
X98925619Y-65334852D01*
X98925615Y-65334848D01*
X98758414Y-65202800D01*
X98758410Y-65202798D01*
X98754359Y-65199598D01*
X98713053Y-65176796D01*
X98663084Y-65126364D01*
X98648312Y-65056921D01*
X98673428Y-64990516D01*
X98700780Y-64963909D01*
X98768103Y-64915888D01*
X98879860Y-64836173D01*
X98936376Y-64779854D01*
X98998746Y-64745938D01*
X99069552Y-64751126D01*
X99114410Y-64780010D01*
X101461305Y-67126905D01*
X101495331Y-67189217D01*
X101490266Y-67260032D01*
X101447719Y-67316868D01*
X101401211Y-67334215D01*
X101401998Y-67336896D01*
X101369376Y-67346475D01*
X101368171Y-67347865D01*
X101366500Y-67355548D01*
X101366500Y-68453000D01*
X101346498Y-68521121D01*
X101292842Y-68567614D01*
X101240500Y-68579000D01*
X100085115Y-68579000D01*
X100069876Y-68583475D01*
X100068671Y-68584865D01*
X100067000Y-68592548D01*
X100067000Y-68608766D01*
X100067337Y-68615282D01*
X100077075Y-68709132D01*
X100079968Y-68722528D01*
X100130488Y-68873953D01*
X100136653Y-68887115D01*
X100220426Y-69022492D01*
X100229460Y-69033890D01*
X100342129Y-69146363D01*
X100353540Y-69155375D01*
X100495293Y-69242752D01*
X100494597Y-69243880D01*
X100542119Y-69285721D01*
X100561581Y-69353998D01*
X100541040Y-69421958D01*
X100487018Y-69468025D01*
X100435585Y-69479000D01*
X100401866Y-69479000D01*
X100339684Y-69485755D01*
X100203295Y-69536885D01*
X100086739Y-69624239D01*
X99999385Y-69740795D01*
X99948255Y-69877184D01*
X99941500Y-69939366D01*
X99941500Y-71685634D01*
X99948255Y-71747816D01*
X99999385Y-71884205D01*
X100004771Y-71891391D01*
X100020168Y-71911936D01*
X100045015Y-71978443D01*
X100029961Y-72047825D01*
X100020168Y-72063064D01*
X100019190Y-72064369D01*
X99999385Y-72090795D01*
X99948255Y-72227184D01*
X99941500Y-72289366D01*
X99941500Y-74035634D01*
X99948255Y-74097816D01*
X99999385Y-74234205D01*
X100086739Y-74350761D01*
X100203295Y-74438115D01*
X100339684Y-74489245D01*
X100372005Y-74492756D01*
X100437567Y-74519997D01*
X100477994Y-74578360D01*
X100480450Y-74649314D01*
X100444155Y-74710332D01*
X100424701Y-74725163D01*
X100353490Y-74769230D01*
X100345969Y-74773884D01*
X100340796Y-74779066D01*
X100315388Y-74804518D01*
X100253105Y-74838597D01*
X100226215Y-74841500D01*
X100023677Y-74841500D01*
X99955556Y-74821498D01*
X99934666Y-74804679D01*
X99903003Y-74773071D01*
X99802633Y-74711202D01*
X99761150Y-74685631D01*
X99761148Y-74685630D01*
X99754920Y-74681791D01*
X99589809Y-74627026D01*
X99582973Y-74626326D01*
X99582970Y-74626325D01*
X99531474Y-74621049D01*
X99487072Y-74616500D01*
X99251371Y-74616500D01*
X99183250Y-74596498D01*
X99162276Y-74579595D01*
X95970125Y-71387444D01*
X95939387Y-71337285D01*
X95902802Y-71224687D01*
X95884527Y-71168444D01*
X95871312Y-71145554D01*
X95807680Y-71035342D01*
X95789040Y-71003056D01*
X95758969Y-70969658D01*
X95665675Y-70866045D01*
X95665674Y-70866044D01*
X95661253Y-70861134D01*
X95531871Y-70767132D01*
X95512094Y-70752763D01*
X95512093Y-70752762D01*
X95506752Y-70748882D01*
X95500724Y-70746198D01*
X95500722Y-70746197D01*
X95338319Y-70673891D01*
X95338318Y-70673891D01*
X95332288Y-70671206D01*
X95238888Y-70651353D01*
X95151944Y-70632872D01*
X95151939Y-70632872D01*
X95145487Y-70631500D01*
X94954513Y-70631500D01*
X94948061Y-70632872D01*
X94948056Y-70632872D01*
X94861112Y-70651353D01*
X94767712Y-70671206D01*
X94761682Y-70673891D01*
X94761681Y-70673891D01*
X94599278Y-70746197D01*
X94599276Y-70746198D01*
X94593248Y-70748882D01*
X94587907Y-70752762D01*
X94587906Y-70752763D01*
X94568129Y-70767132D01*
X94438747Y-70861134D01*
X94434326Y-70866044D01*
X94434325Y-70866045D01*
X94341032Y-70969658D01*
X94310960Y-71003056D01*
X94292320Y-71035342D01*
X94228689Y-71145554D01*
X94215473Y-71168444D01*
X94156458Y-71350072D01*
X94155768Y-71356633D01*
X94155768Y-71356635D01*
X94147314Y-71437072D01*
X94136496Y-71540000D01*
X94137186Y-71546565D01*
X94154695Y-71713151D01*
X94156458Y-71729928D01*
X94215473Y-71911556D01*
X94310960Y-72076944D01*
X94315378Y-72081851D01*
X94315379Y-72081852D01*
X94434325Y-72213955D01*
X94438747Y-72218866D01*
X94593248Y-72331118D01*
X94599276Y-72333802D01*
X94599278Y-72333803D01*
X94761681Y-72406109D01*
X94767712Y-72408794D01*
X94774167Y-72410166D01*
X94774176Y-72410169D01*
X94830772Y-72422199D01*
X94893669Y-72456350D01*
X96894448Y-74457129D01*
X96928474Y-74519441D01*
X96923409Y-74590256D01*
X96880862Y-74647092D01*
X96845228Y-74665748D01*
X96801049Y-74680487D01*
X96787885Y-74686653D01*
X96652508Y-74770426D01*
X96641110Y-74779460D01*
X96528637Y-74892129D01*
X96519625Y-74903540D01*
X96436088Y-75039063D01*
X96429944Y-75052241D01*
X96379685Y-75203766D01*
X96376819Y-75217132D01*
X96367328Y-75309770D01*
X96367000Y-75316185D01*
X96367000Y-75327885D01*
X96371475Y-75343124D01*
X96372865Y-75344329D01*
X96380548Y-75346000D01*
X97540500Y-75346000D01*
X97608621Y-75366002D01*
X97655114Y-75419658D01*
X97666500Y-75472000D01*
X97666500Y-76564885D01*
X97670975Y-76580124D01*
X97672365Y-76581329D01*
X97680048Y-76583000D01*
X97758766Y-76583000D01*
X97765282Y-76582663D01*
X97859132Y-76572925D01*
X97872528Y-76570032D01*
X98023953Y-76519512D01*
X98037115Y-76513347D01*
X98172488Y-76429576D01*
X98174734Y-76427796D01*
X98176558Y-76427058D01*
X98178718Y-76425721D01*
X98178947Y-76426091D01*
X98240544Y-76401158D01*
X98310309Y-76414328D01*
X98361878Y-76463125D01*
X98379000Y-76526541D01*
X98379000Y-77123466D01*
X98358998Y-77191587D01*
X98305342Y-77238080D01*
X98235068Y-77248184D01*
X98174909Y-77222349D01*
X98171460Y-77219625D01*
X98035937Y-77136088D01*
X98022759Y-77129944D01*
X97871234Y-77079685D01*
X97857868Y-77076819D01*
X97765230Y-77067328D01*
X97758815Y-77067000D01*
X97684615Y-77067000D01*
X97669376Y-77071475D01*
X97668171Y-77072865D01*
X97666500Y-77080548D01*
X97666500Y-79014885D01*
X97670975Y-79030124D01*
X97672365Y-79031329D01*
X97680048Y-79033000D01*
X97758766Y-79033000D01*
X97765282Y-79032663D01*
X97859132Y-79022925D01*
X97872528Y-79020032D01*
X98023953Y-78969512D01*
X98037115Y-78963347D01*
X98172492Y-78879574D01*
X98183894Y-78870536D01*
X98185567Y-78868861D01*
X98186993Y-78868081D01*
X98189627Y-78865993D01*
X98189984Y-78866444D01*
X98247849Y-78834781D01*
X98318669Y-78839784D01*
X98363754Y-78868701D01*
X98366421Y-78871363D01*
X98371997Y-78876929D01*
X98378227Y-78880769D01*
X98378228Y-78880770D01*
X98493572Y-78951869D01*
X98520080Y-78968209D01*
X98685191Y-79022974D01*
X98692027Y-79023674D01*
X98692030Y-79023675D01*
X98739370Y-79028525D01*
X98787928Y-79033500D01*
X99487072Y-79033500D01*
X99490318Y-79033163D01*
X99490322Y-79033163D01*
X99584235Y-79023419D01*
X99584239Y-79023418D01*
X99591093Y-79022707D01*
X99597629Y-79020526D01*
X99597631Y-79020526D01*
X99730395Y-78976232D01*
X99756107Y-78967654D01*
X99904031Y-78876116D01*
X99945294Y-78834781D01*
X100021758Y-78758184D01*
X100021762Y-78758179D01*
X100026929Y-78753003D01*
X100031441Y-78745684D01*
X100114369Y-78611150D01*
X100114370Y-78611148D01*
X100118209Y-78604920D01*
X100172974Y-78439809D01*
X100174824Y-78421758D01*
X100178951Y-78381474D01*
X100183500Y-78337072D01*
X100183500Y-77762928D01*
X100181866Y-77747178D01*
X100173419Y-77665765D01*
X100173418Y-77665761D01*
X100172707Y-77658907D01*
X100166356Y-77639869D01*
X100119972Y-77500841D01*
X100117654Y-77493893D01*
X100026116Y-77345969D01*
X100020934Y-77340796D01*
X100020930Y-77340791D01*
X99932983Y-77252998D01*
X99898903Y-77190716D01*
X99896000Y-77163825D01*
X99896000Y-76486288D01*
X99916002Y-76418167D01*
X99932830Y-76397267D01*
X99934615Y-76395479D01*
X99996898Y-76361402D01*
X100023785Y-76358500D01*
X100226323Y-76358500D01*
X100294444Y-76378502D01*
X100315334Y-76395321D01*
X100346997Y-76426929D01*
X100389396Y-76453064D01*
X100465540Y-76500000D01*
X100495080Y-76518209D01*
X100660191Y-76572974D01*
X100667027Y-76573674D01*
X100667030Y-76573675D01*
X100714370Y-76578525D01*
X100762928Y-76583500D01*
X101362072Y-76583500D01*
X101365318Y-76583163D01*
X101365322Y-76583163D01*
X101459235Y-76573419D01*
X101459239Y-76573418D01*
X101466093Y-76572707D01*
X101472629Y-76570526D01*
X101472631Y-76570526D01*
X101615206Y-76522959D01*
X101631107Y-76517654D01*
X101779031Y-76426116D01*
X101786966Y-76418167D01*
X101885747Y-76319214D01*
X101948030Y-76285135D01*
X102018850Y-76290138D01*
X102063937Y-76319059D01*
X102166812Y-76421754D01*
X102166817Y-76421758D01*
X102171997Y-76426929D01*
X102178227Y-76430769D01*
X102178228Y-76430770D01*
X102295895Y-76503301D01*
X102320080Y-76518209D01*
X102485191Y-76572974D01*
X102492027Y-76573674D01*
X102492030Y-76573675D01*
X102539370Y-76578525D01*
X102587928Y-76583500D01*
X103187072Y-76583500D01*
X103190318Y-76583163D01*
X103190322Y-76583163D01*
X103284235Y-76573419D01*
X103284239Y-76573418D01*
X103291093Y-76572707D01*
X103297629Y-76570526D01*
X103297631Y-76570526D01*
X103440206Y-76522959D01*
X103456107Y-76517654D01*
X103604031Y-76426116D01*
X103632830Y-76397267D01*
X103679541Y-76350474D01*
X103741823Y-76316395D01*
X103812643Y-76321398D01*
X103857730Y-76350317D01*
X103946997Y-76439429D01*
X103953224Y-76443267D01*
X103953226Y-76443269D01*
X103969116Y-76453064D01*
X104016609Y-76505836D01*
X104029000Y-76560324D01*
X104029000Y-77089801D01*
X104008998Y-77157922D01*
X103969302Y-77196945D01*
X103945969Y-77211384D01*
X103940796Y-77216566D01*
X103828242Y-77329316D01*
X103828238Y-77329321D01*
X103823071Y-77334497D01*
X103819231Y-77340727D01*
X103819230Y-77340728D01*
X103736364Y-77475162D01*
X103731791Y-77482580D01*
X103677026Y-77647691D01*
X103666500Y-77750428D01*
X103666500Y-78324572D01*
X103666837Y-78327818D01*
X103666837Y-78327822D01*
X103676543Y-78421363D01*
X103677293Y-78428593D01*
X103732346Y-78593607D01*
X103823884Y-78741531D01*
X103829066Y-78746704D01*
X103941816Y-78859258D01*
X103941821Y-78859262D01*
X103946997Y-78864429D01*
X103953227Y-78868269D01*
X103953228Y-78868270D01*
X104028803Y-78914855D01*
X104095080Y-78955709D01*
X104260191Y-79010474D01*
X104267027Y-79011174D01*
X104267030Y-79011175D01*
X104318526Y-79016451D01*
X104362928Y-79021000D01*
X105062072Y-79021000D01*
X105065318Y-79020663D01*
X105065322Y-79020663D01*
X105159235Y-79010919D01*
X105159239Y-79010918D01*
X105166093Y-79010207D01*
X105172629Y-79008026D01*
X105172631Y-79008026D01*
X105306550Y-78963347D01*
X105331107Y-78955154D01*
X105447920Y-78882868D01*
X105472805Y-78867469D01*
X105472806Y-78867468D01*
X105479031Y-78863616D01*
X105485923Y-78856712D01*
X105487387Y-78855911D01*
X105489938Y-78853889D01*
X105490284Y-78854326D01*
X105548204Y-78822634D01*
X105619024Y-78827637D01*
X105664110Y-78856556D01*
X105666616Y-78859057D01*
X105671997Y-78864429D01*
X105678227Y-78868269D01*
X105678228Y-78868270D01*
X105753803Y-78914855D01*
X105820080Y-78955709D01*
X105985191Y-79010474D01*
X105992027Y-79011174D01*
X105992030Y-79011175D01*
X106043526Y-79016451D01*
X106087928Y-79021000D01*
X106787072Y-79021000D01*
X106790318Y-79020663D01*
X106790322Y-79020663D01*
X106884235Y-79010919D01*
X106884239Y-79010918D01*
X106891093Y-79010207D01*
X106897629Y-79008026D01*
X106897631Y-79008026D01*
X107031550Y-78963347D01*
X107056107Y-78955154D01*
X107204031Y-78863616D01*
X107213741Y-78853889D01*
X107321758Y-78745684D01*
X107321762Y-78745679D01*
X107326929Y-78740503D01*
X107410504Y-78604920D01*
X107414369Y-78598650D01*
X107414370Y-78598648D01*
X107418209Y-78592420D01*
X107472974Y-78427309D01*
X107483500Y-78324572D01*
X107483500Y-77750428D01*
X107483163Y-77747178D01*
X107473419Y-77653265D01*
X107473418Y-77653261D01*
X107472707Y-77646407D01*
X107417654Y-77481393D01*
X107326116Y-77333469D01*
X107302335Y-77309729D01*
X107208181Y-77215740D01*
X107203003Y-77210571D01*
X107196776Y-77206733D01*
X107196774Y-77206731D01*
X107180884Y-77196936D01*
X107133391Y-77144164D01*
X107121000Y-77089676D01*
X107121000Y-76560199D01*
X107141002Y-76492078D01*
X107180699Y-76453054D01*
X107183831Y-76451116D01*
X107204031Y-76438616D01*
X107216904Y-76425721D01*
X107279492Y-76363023D01*
X107326929Y-76315503D01*
X107330768Y-76309275D01*
X107333033Y-76306407D01*
X107390950Y-76265345D01*
X107431914Y-76258500D01*
X107535036Y-76258500D01*
X107603157Y-76278502D01*
X107642179Y-76318196D01*
X107648884Y-76329031D01*
X107654066Y-76334204D01*
X107766816Y-76446758D01*
X107766821Y-76446762D01*
X107771997Y-76451929D01*
X107778227Y-76455769D01*
X107778228Y-76455770D01*
X107893040Y-76526541D01*
X107920080Y-76543209D01*
X108085191Y-76597974D01*
X108092027Y-76598674D01*
X108092030Y-76598675D01*
X108139370Y-76603525D01*
X108187928Y-76608500D01*
X108787072Y-76608500D01*
X108790318Y-76608163D01*
X108790322Y-76608163D01*
X108884235Y-76598419D01*
X108884239Y-76598418D01*
X108891093Y-76597707D01*
X108897629Y-76595526D01*
X108897631Y-76595526D01*
X109038986Y-76548366D01*
X109056107Y-76542654D01*
X109204031Y-76451116D01*
X109311101Y-76343859D01*
X109373382Y-76309780D01*
X109444202Y-76314783D01*
X109489291Y-76343704D01*
X109592129Y-76446363D01*
X109603540Y-76455375D01*
X109739063Y-76538912D01*
X109752241Y-76545056D01*
X109903766Y-76595315D01*
X109917132Y-76598181D01*
X110009770Y-76607672D01*
X110016185Y-76608000D01*
X110040385Y-76608000D01*
X110055624Y-76603525D01*
X110056829Y-76602135D01*
X110058500Y-76594452D01*
X110058500Y-76589885D01*
X110566500Y-76589885D01*
X110570975Y-76605124D01*
X110572365Y-76606329D01*
X110580048Y-76608000D01*
X110608766Y-76608000D01*
X110615282Y-76607663D01*
X110709132Y-76597925D01*
X110722528Y-76595032D01*
X110873953Y-76544512D01*
X110887115Y-76538347D01*
X111022492Y-76454574D01*
X111033890Y-76445540D01*
X111146363Y-76332871D01*
X111155375Y-76321460D01*
X111238912Y-76185937D01*
X111245056Y-76172759D01*
X111295315Y-76021234D01*
X111298181Y-76007868D01*
X111307672Y-75915230D01*
X111308000Y-75908815D01*
X111308000Y-75897115D01*
X111303525Y-75881876D01*
X111302135Y-75880671D01*
X111294452Y-75879000D01*
X110584615Y-75879000D01*
X110569376Y-75883475D01*
X110568171Y-75884865D01*
X110566500Y-75892548D01*
X110566500Y-76589885D01*
X110058500Y-76589885D01*
X110058500Y-75352885D01*
X110566500Y-75352885D01*
X110570975Y-75368124D01*
X110572365Y-75369329D01*
X110580048Y-75371000D01*
X111289885Y-75371000D01*
X111305124Y-75366525D01*
X111306329Y-75365135D01*
X111308000Y-75357452D01*
X111308000Y-75341234D01*
X111307663Y-75334718D01*
X111297925Y-75240868D01*
X111295032Y-75227472D01*
X111244512Y-75076047D01*
X111238347Y-75062885D01*
X111154574Y-74927508D01*
X111145540Y-74916110D01*
X111032871Y-74803637D01*
X111021460Y-74794625D01*
X110885937Y-74711088D01*
X110872759Y-74704944D01*
X110721234Y-74654685D01*
X110707868Y-74651819D01*
X110615230Y-74642328D01*
X110608815Y-74642000D01*
X110584615Y-74642000D01*
X110569376Y-74646475D01*
X110568171Y-74647865D01*
X110566500Y-74655548D01*
X110566500Y-75352885D01*
X110058500Y-75352885D01*
X110058500Y-74660115D01*
X110054025Y-74644876D01*
X110052635Y-74643671D01*
X110044952Y-74642000D01*
X110016234Y-74642000D01*
X110009718Y-74642337D01*
X109915868Y-74652075D01*
X109902472Y-74654968D01*
X109751047Y-74705488D01*
X109737885Y-74711653D01*
X109602508Y-74795426D01*
X109591110Y-74804460D01*
X109489607Y-74906140D01*
X109427324Y-74940219D01*
X109356504Y-74935216D01*
X109311416Y-74906295D01*
X109308657Y-74903540D01*
X109203003Y-74798071D01*
X109184043Y-74786384D01*
X109061150Y-74710631D01*
X109061148Y-74710630D01*
X109054920Y-74706791D01*
X108889809Y-74652026D01*
X108882973Y-74651326D01*
X108882970Y-74651325D01*
X108831474Y-74646049D01*
X108787072Y-74641500D01*
X108187928Y-74641500D01*
X108184682Y-74641837D01*
X108184678Y-74641837D01*
X108090765Y-74651581D01*
X108090761Y-74651582D01*
X108083907Y-74652293D01*
X108077371Y-74654474D01*
X108077369Y-74654474D01*
X107993827Y-74682346D01*
X107918893Y-74707346D01*
X107770969Y-74798884D01*
X107765796Y-74804066D01*
X107653242Y-74916816D01*
X107653238Y-74916821D01*
X107648071Y-74921997D01*
X107644231Y-74928227D01*
X107644230Y-74928228D01*
X107642143Y-74931614D01*
X107640114Y-74933441D01*
X107639693Y-74933973D01*
X107639602Y-74933901D01*
X107589372Y-74979108D01*
X107534882Y-74991500D01*
X107447699Y-74991500D01*
X107379578Y-74971498D01*
X107340554Y-74931801D01*
X107326116Y-74908469D01*
X107313594Y-74895969D01*
X107208184Y-74790742D01*
X107208179Y-74790738D01*
X107203003Y-74785571D01*
X107191109Y-74778239D01*
X107143001Y-74748585D01*
X107095508Y-74695812D01*
X107084084Y-74625741D01*
X107112358Y-74560617D01*
X107133544Y-74540506D01*
X107213261Y-74480761D01*
X107300615Y-74364205D01*
X107351745Y-74227816D01*
X107358500Y-74165634D01*
X107358500Y-73734500D01*
X107378502Y-73666379D01*
X107432158Y-73619886D01*
X107484500Y-73608500D01*
X108263712Y-73608500D01*
X108331833Y-73628502D01*
X108352729Y-73645327D01*
X108441812Y-73734254D01*
X108441817Y-73734258D01*
X108446997Y-73739429D01*
X108453227Y-73743269D01*
X108453228Y-73743270D01*
X108582540Y-73822979D01*
X108595080Y-73830709D01*
X108760191Y-73885474D01*
X108767027Y-73886174D01*
X108767030Y-73886175D01*
X108818526Y-73891451D01*
X108862928Y-73896000D01*
X109437072Y-73896000D01*
X109440318Y-73895663D01*
X109440322Y-73895663D01*
X109534235Y-73885919D01*
X109534239Y-73885918D01*
X109541093Y-73885207D01*
X109547629Y-73883026D01*
X109547631Y-73883026D01*
X109680395Y-73838732D01*
X109706107Y-73830154D01*
X109854031Y-73738616D01*
X109926142Y-73666379D01*
X109971758Y-73620684D01*
X109971762Y-73620679D01*
X109976929Y-73615503D01*
X110068209Y-73467420D01*
X110122974Y-73302309D01*
X110133500Y-73199572D01*
X110133500Y-72500428D01*
X110126188Y-72429957D01*
X110123419Y-72403265D01*
X110123418Y-72403261D01*
X110122707Y-72396407D01*
X110067654Y-72231393D01*
X110004987Y-72130124D01*
X109979969Y-72089695D01*
X109979968Y-72089694D01*
X109976116Y-72083469D01*
X109969212Y-72076577D01*
X109968411Y-72075113D01*
X109966389Y-72072562D01*
X109966826Y-72072216D01*
X109935134Y-72014296D01*
X109940137Y-71943476D01*
X109969056Y-71898390D01*
X109971757Y-71895684D01*
X109976929Y-71890503D01*
X109999411Y-71854031D01*
X110064369Y-71748650D01*
X110064370Y-71748648D01*
X110068209Y-71742420D01*
X110122974Y-71577309D01*
X110125148Y-71556096D01*
X110133172Y-71477771D01*
X110133500Y-71474572D01*
X110133500Y-71433766D01*
X138547000Y-71433766D01*
X138547337Y-71440282D01*
X138557075Y-71534132D01*
X138559968Y-71547528D01*
X138610488Y-71698953D01*
X138616653Y-71712115D01*
X138700426Y-71847492D01*
X138709460Y-71858890D01*
X138822129Y-71971363D01*
X138833540Y-71980375D01*
X138969063Y-72063912D01*
X138982241Y-72070056D01*
X139133766Y-72120315D01*
X139147132Y-72123181D01*
X139239770Y-72132672D01*
X139246185Y-72133000D01*
X139270385Y-72133000D01*
X139285624Y-72128525D01*
X139286829Y-72127135D01*
X139288500Y-72119452D01*
X139288500Y-71422115D01*
X139284025Y-71406876D01*
X139282635Y-71405671D01*
X139274952Y-71404000D01*
X138565115Y-71404000D01*
X138549876Y-71408475D01*
X138548671Y-71409865D01*
X138547000Y-71417548D01*
X138547000Y-71433766D01*
X110133500Y-71433766D01*
X110133500Y-70775428D01*
X110132639Y-70767132D01*
X110123419Y-70678265D01*
X110123418Y-70678261D01*
X110122707Y-70671407D01*
X110118670Y-70659305D01*
X110069972Y-70513341D01*
X110067654Y-70506393D01*
X109976116Y-70358469D01*
X109933548Y-70315975D01*
X109858184Y-70240742D01*
X109858179Y-70240738D01*
X109853003Y-70235571D01*
X109830010Y-70221398D01*
X109711150Y-70148131D01*
X109711148Y-70148130D01*
X109704920Y-70144291D01*
X109539809Y-70089526D01*
X109532973Y-70088826D01*
X109532970Y-70088825D01*
X109481474Y-70083549D01*
X109437072Y-70079000D01*
X108862928Y-70079000D01*
X108859682Y-70079337D01*
X108859678Y-70079337D01*
X108765765Y-70089081D01*
X108765761Y-70089082D01*
X108758907Y-70089793D01*
X108752371Y-70091974D01*
X108752369Y-70091974D01*
X108619605Y-70136268D01*
X108593893Y-70144846D01*
X108445969Y-70236384D01*
X108440796Y-70241566D01*
X108328242Y-70354316D01*
X108328238Y-70354321D01*
X108323071Y-70359497D01*
X108319231Y-70365727D01*
X108319230Y-70365728D01*
X108236364Y-70500162D01*
X108231791Y-70507580D01*
X108177026Y-70672691D01*
X108166500Y-70775428D01*
X108166500Y-70983000D01*
X108146498Y-71051121D01*
X108092842Y-71097614D01*
X108040500Y-71109000D01*
X107484000Y-71109000D01*
X107415879Y-71088998D01*
X107369386Y-71035342D01*
X107358000Y-70983000D01*
X107358000Y-70909615D01*
X107353525Y-70894376D01*
X107352135Y-70893171D01*
X107344452Y-70891500D01*
X106559500Y-70891500D01*
X106491379Y-70871498D01*
X106444886Y-70817842D01*
X106433500Y-70765500D01*
X106433500Y-70593207D01*
X106424189Y-70513341D01*
X106419030Y-70469089D01*
X106419029Y-70469085D01*
X106418182Y-70461819D01*
X106415686Y-70454943D01*
X106414000Y-70447810D01*
X106414601Y-70447668D01*
X106408500Y-70412984D01*
X106408500Y-69809366D01*
X106401745Y-69747184D01*
X106350615Y-69610795D01*
X106296174Y-69538154D01*
X106271326Y-69471649D01*
X106271000Y-69462590D01*
X106271000Y-69367616D01*
X106266525Y-69352377D01*
X106247111Y-69335554D01*
X106220405Y-69320972D01*
X106196605Y-69277385D01*
X106691500Y-69277385D01*
X106695975Y-69292624D01*
X106715389Y-69309447D01*
X106742095Y-69324029D01*
X106776120Y-69386341D01*
X106779000Y-69413125D01*
X106779000Y-70365385D01*
X106783475Y-70380624D01*
X106784865Y-70381829D01*
X106792548Y-70383500D01*
X107339884Y-70383500D01*
X107355123Y-70379025D01*
X107356328Y-70377635D01*
X107357999Y-70369952D01*
X107357999Y-69812831D01*
X107357629Y-69806010D01*
X107352105Y-69755148D01*
X107348479Y-69739896D01*
X107303324Y-69619446D01*
X107294786Y-69603851D01*
X107218285Y-69501776D01*
X107205724Y-69489215D01*
X107096462Y-69407328D01*
X107098693Y-69404351D01*
X107060971Y-69366577D01*
X107045928Y-69297192D01*
X107070786Y-69230690D01*
X107105298Y-69199124D01*
X107197496Y-69142071D01*
X107208890Y-69133040D01*
X107321363Y-69020371D01*
X107330375Y-69008960D01*
X107413912Y-68873437D01*
X107420056Y-68860259D01*
X107470315Y-68708734D01*
X107473181Y-68695368D01*
X107482672Y-68602730D01*
X107483000Y-68596315D01*
X107483000Y-68584615D01*
X107478525Y-68569376D01*
X107477135Y-68568171D01*
X107469452Y-68566500D01*
X106709615Y-68566500D01*
X106694376Y-68570975D01*
X106693171Y-68572365D01*
X106691500Y-68580048D01*
X106691500Y-69277385D01*
X106196605Y-69277385D01*
X106186380Y-69258660D01*
X106183500Y-69231876D01*
X106183500Y-68040385D01*
X106691500Y-68040385D01*
X106695975Y-68055624D01*
X106697365Y-68056829D01*
X106705048Y-68058500D01*
X107464885Y-68058500D01*
X107480124Y-68054025D01*
X107481329Y-68052635D01*
X107483000Y-68044952D01*
X107483000Y-68028734D01*
X107482663Y-68022218D01*
X107472925Y-67928368D01*
X107470032Y-67914972D01*
X107419512Y-67763547D01*
X107413347Y-67750385D01*
X107329574Y-67615008D01*
X107320540Y-67603610D01*
X107207871Y-67491137D01*
X107196457Y-67482123D01*
X107107251Y-67427136D01*
X107080832Y-67397781D01*
X107063064Y-67397883D01*
X107054537Y-67394692D01*
X106896234Y-67342185D01*
X106882868Y-67339319D01*
X106790230Y-67329828D01*
X106783815Y-67329500D01*
X106709615Y-67329500D01*
X106694376Y-67333975D01*
X106693171Y-67335365D01*
X106691500Y-67343048D01*
X106691500Y-68040385D01*
X106183500Y-68040385D01*
X106183500Y-67347615D01*
X106179025Y-67332376D01*
X106177635Y-67331171D01*
X106169952Y-67329500D01*
X106091234Y-67329500D01*
X106084718Y-67329837D01*
X105990868Y-67339575D01*
X105977472Y-67342468D01*
X105826047Y-67392988D01*
X105812885Y-67399153D01*
X105677508Y-67482926D01*
X105666106Y-67491964D01*
X105664433Y-67493639D01*
X105663007Y-67494419D01*
X105660373Y-67496507D01*
X105660016Y-67496056D01*
X105602151Y-67527719D01*
X105531331Y-67522716D01*
X105486246Y-67493799D01*
X105483185Y-67490744D01*
X105478003Y-67485571D01*
X105471772Y-67481730D01*
X105336150Y-67398131D01*
X105336148Y-67398130D01*
X105329920Y-67394291D01*
X105164809Y-67339526D01*
X105157973Y-67338826D01*
X105157970Y-67338825D01*
X105106474Y-67333549D01*
X105062072Y-67329000D01*
X104362928Y-67329000D01*
X104359682Y-67329337D01*
X104359678Y-67329337D01*
X104265765Y-67339081D01*
X104265761Y-67339082D01*
X104258907Y-67339793D01*
X104252371Y-67341974D01*
X104252369Y-67341974D01*
X104160785Y-67372529D01*
X104093893Y-67394846D01*
X103945969Y-67486384D01*
X103940796Y-67491566D01*
X103902910Y-67529518D01*
X103840627Y-67563597D01*
X103813737Y-67566500D01*
X103725767Y-67566500D01*
X103657646Y-67546498D01*
X103611153Y-67492842D01*
X103600182Y-67450715D01*
X103596415Y-67404401D01*
X103596000Y-67394186D01*
X103596000Y-67386126D01*
X103592709Y-67357899D01*
X103592278Y-67353540D01*
X103591905Y-67348955D01*
X103586360Y-67280783D01*
X103584105Y-67273822D01*
X103582918Y-67267882D01*
X103581529Y-67262007D01*
X103580682Y-67254738D01*
X103555764Y-67186089D01*
X103554347Y-67181961D01*
X103534107Y-67119483D01*
X103534106Y-67119481D01*
X103531851Y-67112520D01*
X103528055Y-67106265D01*
X103525549Y-67100791D01*
X103522830Y-67095361D01*
X103520333Y-67088482D01*
X103508652Y-67070666D01*
X103480314Y-67027443D01*
X103477967Y-67023724D01*
X103440095Y-66961312D01*
X103432697Y-66952935D01*
X103432724Y-66952911D01*
X103430071Y-66949919D01*
X103427368Y-66946686D01*
X103423356Y-66940567D01*
X103367117Y-66887291D01*
X103364675Y-66884913D01*
X101503357Y-65023595D01*
X101469331Y-64961283D01*
X101474396Y-64890468D01*
X101516943Y-64833632D01*
X101583463Y-64808821D01*
X101592452Y-64808500D01*
X102791377Y-64808500D01*
X102792148Y-64808502D01*
X102869721Y-64808976D01*
X102898152Y-64800850D01*
X102914915Y-64797272D01*
X102944187Y-64793080D01*
X102967564Y-64782451D01*
X102985087Y-64776004D01*
X103009771Y-64768949D01*
X103017365Y-64764157D01*
X103017368Y-64764156D01*
X103034780Y-64753170D01*
X103049865Y-64745030D01*
X103076782Y-64732792D01*
X103096235Y-64716030D01*
X103111239Y-64704927D01*
X103132958Y-64691224D01*
X103138897Y-64684499D01*
X103138901Y-64684496D01*
X103152532Y-64669062D01*
X103164724Y-64657018D01*
X103180327Y-64643573D01*
X103180329Y-64643570D01*
X103187127Y-64637713D01*
X103201016Y-64616286D01*
X103201094Y-64616165D01*
X103212385Y-64601291D01*
X103223431Y-64588783D01*
X103223432Y-64588782D01*
X103229378Y-64582049D01*
X103241943Y-64555287D01*
X103250263Y-64540309D01*
X103261471Y-64523017D01*
X103261473Y-64523012D01*
X103266352Y-64515485D01*
X103268922Y-64506892D01*
X103268924Y-64506887D01*
X103273711Y-64490880D01*
X103280372Y-64473436D01*
X103287467Y-64458324D01*
X103287468Y-64458322D01*
X103291281Y-64450200D01*
X103292705Y-64441059D01*
X103295830Y-64420985D01*
X103299613Y-64404268D01*
X103305515Y-64384534D01*
X103305516Y-64384528D01*
X103308086Y-64375934D01*
X103308296Y-64341494D01*
X103308329Y-64340711D01*
X103308500Y-64339614D01*
X103308500Y-64308623D01*
X103308502Y-64307853D01*
X103308952Y-64234215D01*
X103308952Y-64234214D01*
X103308976Y-64230279D01*
X103308592Y-64228935D01*
X103308500Y-64227590D01*
X103308500Y-62726689D01*
X104491370Y-62726689D01*
X104491590Y-62729308D01*
X104491590Y-62729310D01*
X104497148Y-62795500D01*
X104529308Y-63178476D01*
X104604917Y-63625505D01*
X104605572Y-63628055D01*
X104605573Y-63628061D01*
X104697880Y-63987568D01*
X104717668Y-64064638D01*
X104866768Y-64492797D01*
X105051174Y-64906978D01*
X105269590Y-65304276D01*
X105271042Y-65306462D01*
X105271046Y-65306468D01*
X105323315Y-65385139D01*
X105520485Y-65681904D01*
X105802100Y-66037213D01*
X105962053Y-66207546D01*
X106108980Y-66364007D01*
X106112458Y-66367711D01*
X106449383Y-66671079D01*
X106451467Y-66672661D01*
X106451472Y-66672665D01*
X106797791Y-66935535D01*
X106810512Y-66945191D01*
X106812746Y-66946609D01*
X106812755Y-66946615D01*
X107165385Y-67170401D01*
X107190141Y-67198643D01*
X107206585Y-67198334D01*
X107231741Y-67208214D01*
X107592758Y-67396949D01*
X107592763Y-67396951D01*
X107595096Y-67398171D01*
X107878968Y-67517500D01*
X107995535Y-67566500D01*
X108013048Y-67573862D01*
X108015556Y-67574677D01*
X108015559Y-67574678D01*
X108441720Y-67713146D01*
X108441724Y-67713147D01*
X108444235Y-67713963D01*
X108714023Y-67777241D01*
X108883058Y-67816888D01*
X108883062Y-67816889D01*
X108885634Y-67817492D01*
X108888251Y-67817879D01*
X108888254Y-67817879D01*
X109331526Y-67883336D01*
X109331530Y-67883336D01*
X109334148Y-67883723D01*
X109786631Y-67912191D01*
X109789263Y-67912136D01*
X109789270Y-67912136D01*
X109961705Y-67908524D01*
X110239909Y-67902696D01*
X110690803Y-67855305D01*
X111136150Y-67770351D01*
X111138687Y-67769643D01*
X111138694Y-67769641D01*
X111570288Y-67649137D01*
X111570296Y-67649134D01*
X111572826Y-67648428D01*
X111754834Y-67580740D01*
X111995295Y-67491314D01*
X111995301Y-67491311D01*
X111997768Y-67490394D01*
X112407997Y-67297355D01*
X112800633Y-67070666D01*
X112802792Y-67069165D01*
X112802799Y-67069161D01*
X113100523Y-66862238D01*
X113172924Y-66811918D01*
X113270581Y-66731129D01*
X113520232Y-66524600D01*
X113520243Y-66524591D01*
X113522257Y-66522924D01*
X113846183Y-66205712D01*
X113847896Y-66203727D01*
X113847903Y-66203720D01*
X113989960Y-66039145D01*
X114142429Y-65862508D01*
X114408918Y-65495718D01*
X114420171Y-65477138D01*
X114554118Y-65255963D01*
X114643779Y-65107915D01*
X114845367Y-64701819D01*
X115012266Y-64280279D01*
X115143307Y-63846252D01*
X115147376Y-63827112D01*
X115221438Y-63478673D01*
X115237569Y-63402782D01*
X115294393Y-62952980D01*
X115294586Y-62948387D01*
X115313267Y-62502648D01*
X115313378Y-62500000D01*
X115302156Y-62232240D01*
X115294504Y-62049665D01*
X115294504Y-62049662D01*
X115294393Y-62047020D01*
X115237569Y-61597218D01*
X115206546Y-61451267D01*
X115143853Y-61156315D01*
X115143851Y-61156307D01*
X115143307Y-61153748D01*
X115012266Y-60719721D01*
X114845367Y-60298181D01*
X114695312Y-59995897D01*
X114644956Y-59894456D01*
X114643779Y-59892085D01*
X114465972Y-59598489D01*
X114410284Y-59506537D01*
X114410280Y-59506531D01*
X114408918Y-59504282D01*
X114142429Y-59137492D01*
X113960844Y-58927124D01*
X113847903Y-58796280D01*
X113847896Y-58796273D01*
X113846183Y-58794288D01*
X113522257Y-58477076D01*
X113520243Y-58475409D01*
X113520232Y-58475400D01*
X113220167Y-58227165D01*
X113172924Y-58188082D01*
X112979120Y-58053385D01*
X112802799Y-57930839D01*
X112802792Y-57930835D01*
X112800633Y-57929334D01*
X112407997Y-57702645D01*
X111997768Y-57509606D01*
X111995301Y-57508689D01*
X111995295Y-57508686D01*
X111652776Y-57381305D01*
X111572826Y-57351572D01*
X111570296Y-57350866D01*
X111570288Y-57350863D01*
X111138694Y-57230359D01*
X111138687Y-57230357D01*
X111136150Y-57229649D01*
X110690803Y-57144695D01*
X110239909Y-57097304D01*
X109961705Y-57091476D01*
X109789270Y-57087864D01*
X109789263Y-57087864D01*
X109786631Y-57087809D01*
X109334148Y-57116277D01*
X109331530Y-57116664D01*
X109331526Y-57116664D01*
X108888254Y-57182121D01*
X108888251Y-57182121D01*
X108885634Y-57182508D01*
X108883062Y-57183111D01*
X108883058Y-57183112D01*
X108801122Y-57202330D01*
X108444235Y-57286037D01*
X108441724Y-57286853D01*
X108441720Y-57286854D01*
X108029661Y-57420740D01*
X108013048Y-57426138D01*
X107595096Y-57601829D01*
X107592763Y-57603049D01*
X107592758Y-57603051D01*
X107195644Y-57810657D01*
X107195638Y-57810661D01*
X107193311Y-57811877D01*
X107191083Y-57813291D01*
X106812755Y-58053385D01*
X106812746Y-58053391D01*
X106810512Y-58054809D01*
X106808405Y-58056408D01*
X106808404Y-58056409D01*
X106456611Y-58323435D01*
X106449383Y-58328921D01*
X106112458Y-58632289D01*
X106110654Y-58634210D01*
X106110650Y-58634214D01*
X106039973Y-58709478D01*
X105802100Y-58962787D01*
X105520485Y-59318096D01*
X105398674Y-59501437D01*
X105271905Y-59692240D01*
X105269590Y-59695724D01*
X105051174Y-60093022D01*
X104866768Y-60507203D01*
X104717668Y-60935362D01*
X104717013Y-60937913D01*
X104717010Y-60937923D01*
X104605573Y-61371939D01*
X104604917Y-61374495D01*
X104529308Y-61821524D01*
X104510924Y-62040448D01*
X104500164Y-62168593D01*
X104491370Y-62273311D01*
X104491370Y-62726689D01*
X103308500Y-62726689D01*
X103308500Y-60708623D01*
X103308502Y-60707853D01*
X103308800Y-60659102D01*
X103308976Y-60630279D01*
X103302585Y-60607918D01*
X103300850Y-60601847D01*
X103297272Y-60585085D01*
X103296784Y-60581680D01*
X103293080Y-60555813D01*
X103282451Y-60532436D01*
X103276004Y-60514913D01*
X103273800Y-60507203D01*
X103268949Y-60490229D01*
X103264156Y-60482632D01*
X103253170Y-60465220D01*
X103245030Y-60450135D01*
X103242526Y-60444628D01*
X103232792Y-60423218D01*
X103216030Y-60403765D01*
X103204927Y-60388761D01*
X103191224Y-60367042D01*
X103184499Y-60361103D01*
X103184496Y-60361099D01*
X103169062Y-60347468D01*
X103157018Y-60335276D01*
X103143573Y-60319673D01*
X103143570Y-60319671D01*
X103137713Y-60312873D01*
X103124009Y-60303990D01*
X103116165Y-60298906D01*
X103101291Y-60287615D01*
X103088783Y-60276569D01*
X103088782Y-60276568D01*
X103082049Y-60270622D01*
X103055287Y-60258057D01*
X103040309Y-60249737D01*
X103023017Y-60238529D01*
X103023012Y-60238527D01*
X103015485Y-60233648D01*
X103006892Y-60231078D01*
X103006887Y-60231076D01*
X102990880Y-60226289D01*
X102973436Y-60219628D01*
X102958324Y-60212533D01*
X102958322Y-60212532D01*
X102950200Y-60208719D01*
X102941333Y-60207338D01*
X102941332Y-60207338D01*
X102930478Y-60205648D01*
X102920983Y-60204170D01*
X102904268Y-60200387D01*
X102884534Y-60194485D01*
X102884528Y-60194484D01*
X102875934Y-60191914D01*
X102866963Y-60191859D01*
X102866962Y-60191859D01*
X102856903Y-60191798D01*
X102841494Y-60191704D01*
X102840711Y-60191671D01*
X102839614Y-60191500D01*
X102808623Y-60191500D01*
X102807853Y-60191498D01*
X102734215Y-60191048D01*
X102734214Y-60191048D01*
X102730279Y-60191024D01*
X102728935Y-60191408D01*
X102727590Y-60191500D01*
X100908623Y-60191500D01*
X100907853Y-60191498D01*
X100907037Y-60191493D01*
X100830279Y-60191024D01*
X100807918Y-60197415D01*
X100801847Y-60199150D01*
X100785085Y-60202728D01*
X100755813Y-60206920D01*
X100747645Y-60210634D01*
X100747644Y-60210634D01*
X100743468Y-60212533D01*
X100735038Y-60216366D01*
X100732438Y-60217548D01*
X100714914Y-60223996D01*
X100690229Y-60231051D01*
X100682635Y-60235843D01*
X100682632Y-60235844D01*
X100665220Y-60246830D01*
X100650137Y-60254969D01*
X100623218Y-60267208D01*
X100616416Y-60273069D01*
X100603765Y-60283970D01*
X100588761Y-60295073D01*
X100567042Y-60308776D01*
X100561103Y-60315501D01*
X100561099Y-60315504D01*
X100547468Y-60330938D01*
X100535276Y-60342982D01*
X100519673Y-60356427D01*
X100519671Y-60356430D01*
X100512873Y-60362287D01*
X100507993Y-60369816D01*
X100507992Y-60369817D01*
X100498906Y-60383835D01*
X100487615Y-60398709D01*
X100480917Y-60406294D01*
X100470622Y-60417951D01*
X100459218Y-60442240D01*
X100458058Y-60444711D01*
X100449737Y-60459691D01*
X100438529Y-60476983D01*
X100438527Y-60476988D01*
X100433648Y-60484515D01*
X100431078Y-60493108D01*
X100431076Y-60493113D01*
X100426289Y-60509120D01*
X100419628Y-60526564D01*
X100412533Y-60541676D01*
X100408719Y-60549800D01*
X100407338Y-60558667D01*
X100407338Y-60558668D01*
X100404170Y-60579015D01*
X100400387Y-60595732D01*
X100394485Y-60615466D01*
X100394484Y-60615472D01*
X100391914Y-60624066D01*
X100391859Y-60633037D01*
X100391859Y-60633038D01*
X100391704Y-60658497D01*
X100391671Y-60659289D01*
X100391500Y-60660386D01*
X100391500Y-60691377D01*
X100391498Y-60692147D01*
X100391119Y-60754250D01*
X100391024Y-60769721D01*
X100391408Y-60771065D01*
X100391500Y-60772410D01*
X100391500Y-63607548D01*
X100371498Y-63675669D01*
X100317842Y-63722162D01*
X100247568Y-63732266D01*
X100182988Y-63702772D01*
X100176405Y-63696643D01*
X99785851Y-63306089D01*
X99773465Y-63291677D01*
X99764932Y-63280082D01*
X99764927Y-63280077D01*
X99760589Y-63274182D01*
X99755011Y-63269443D01*
X99755008Y-63269440D01*
X99720313Y-63239965D01*
X99712797Y-63233035D01*
X99707102Y-63227340D01*
X99692206Y-63215555D01*
X99684830Y-63209719D01*
X99681426Y-63206928D01*
X99631378Y-63164409D01*
X99631376Y-63164408D01*
X99625796Y-63159667D01*
X99619280Y-63156339D01*
X99614231Y-63152972D01*
X99609102Y-63149805D01*
X99603365Y-63145266D01*
X99537206Y-63114345D01*
X99533306Y-63112439D01*
X99517841Y-63104542D01*
X99468273Y-63079231D01*
X99461165Y-63077492D01*
X99455522Y-63075393D01*
X99449759Y-63073476D01*
X99443131Y-63070378D01*
X99428098Y-63067251D01*
X99402333Y-63061892D01*
X99371664Y-63055513D01*
X99367380Y-63054543D01*
X99296471Y-63037192D01*
X99290869Y-63036844D01*
X99290866Y-63036844D01*
X99285317Y-63036500D01*
X99285319Y-63036464D01*
X99281326Y-63036225D01*
X99277134Y-63035851D01*
X99269966Y-63034360D01*
X99199229Y-63036274D01*
X99130593Y-63018122D01*
X99090029Y-62978758D01*
X99082823Y-62967619D01*
X99080014Y-62963277D01*
X98929670Y-62798051D01*
X98925619Y-62794852D01*
X98925615Y-62794848D01*
X98758414Y-62662800D01*
X98758410Y-62662798D01*
X98754359Y-62659598D01*
X98713053Y-62636796D01*
X98663084Y-62586364D01*
X98648312Y-62516921D01*
X98673428Y-62450516D01*
X98700780Y-62423909D01*
X98763039Y-62379500D01*
X98879860Y-62296173D01*
X98928142Y-62248060D01*
X98999362Y-62177088D01*
X99038096Y-62138489D01*
X99044290Y-62129870D01*
X99165435Y-61961277D01*
X99168453Y-61957077D01*
X99182036Y-61929595D01*
X99265136Y-61761453D01*
X99265137Y-61761451D01*
X99267430Y-61756811D01*
X99304969Y-61633257D01*
X99330865Y-61548023D01*
X99330865Y-61548021D01*
X99332370Y-61543069D01*
X99361529Y-61321590D01*
X99362324Y-61289063D01*
X99363074Y-61258365D01*
X99363074Y-61258361D01*
X99363156Y-61255000D01*
X99344852Y-61032361D01*
X99290431Y-60815702D01*
X99201354Y-60610840D01*
X99119631Y-60484515D01*
X99082822Y-60427617D01*
X99082820Y-60427614D01*
X99080014Y-60423277D01*
X98929670Y-60258051D01*
X98925619Y-60254852D01*
X98925615Y-60254848D01*
X98758414Y-60122800D01*
X98758410Y-60122798D01*
X98754359Y-60119598D01*
X98713053Y-60096796D01*
X98663084Y-60046364D01*
X98648312Y-59976921D01*
X98673428Y-59910516D01*
X98700780Y-59883909D01*
X98744603Y-59852650D01*
X98879860Y-59756173D01*
X98901750Y-59734360D01*
X99034435Y-59602137D01*
X99038096Y-59598489D01*
X99077204Y-59544065D01*
X99165435Y-59421277D01*
X99168453Y-59417077D01*
X99202805Y-59347572D01*
X99265136Y-59221453D01*
X99265137Y-59221451D01*
X99267430Y-59216811D01*
X99321171Y-59039928D01*
X99330865Y-59008023D01*
X99330865Y-59008021D01*
X99332370Y-59003069D01*
X99361529Y-58781590D01*
X99361611Y-58778240D01*
X99363074Y-58718365D01*
X99363074Y-58718361D01*
X99363156Y-58715000D01*
X99344852Y-58492361D01*
X99290431Y-58275702D01*
X99201354Y-58070840D01*
X99080014Y-57883277D01*
X99074721Y-57877460D01*
X98932798Y-57721488D01*
X98901746Y-57657642D01*
X98910141Y-57587143D01*
X98955317Y-57532375D01*
X98981761Y-57518706D01*
X99088297Y-57478767D01*
X99096705Y-57475615D01*
X99213261Y-57388261D01*
X99300615Y-57271705D01*
X99351745Y-57135316D01*
X99358500Y-57073134D01*
X99358500Y-55276866D01*
X99351745Y-55214684D01*
X99300615Y-55078295D01*
X99213261Y-54961739D01*
X99096705Y-54874385D01*
X98960316Y-54823255D01*
X98898134Y-54816500D01*
X97101866Y-54816500D01*
X97039684Y-54823255D01*
X96903295Y-54874385D01*
X96786739Y-54961739D01*
X96699385Y-55078295D01*
X96648255Y-55214684D01*
X96641500Y-55276866D01*
X96641500Y-56585406D01*
X96621498Y-56653527D01*
X96604595Y-56674501D01*
X91349500Y-61929595D01*
X91287188Y-61963621D01*
X91260405Y-61966500D01*
X73730752Y-61966500D01*
X73719569Y-61965973D01*
X73712076Y-61964298D01*
X73704150Y-61964547D01*
X73704149Y-61964547D01*
X73643999Y-61966438D01*
X73640040Y-61966500D01*
X73612129Y-61966500D01*
X73608195Y-61966997D01*
X73608194Y-61966997D01*
X73608129Y-61967005D01*
X73596292Y-61967938D01*
X73564475Y-61968938D01*
X73560014Y-61969078D01*
X73552095Y-61969327D01*
X73543593Y-61971797D01*
X73532643Y-61974978D01*
X73513291Y-61978986D01*
X73506220Y-61979880D01*
X73493188Y-61981526D01*
X73485819Y-61984443D01*
X73485817Y-61984444D01*
X73452082Y-61997800D01*
X73440854Y-62001645D01*
X73398392Y-62013982D01*
X73391570Y-62018016D01*
X73391564Y-62018019D01*
X73380953Y-62024294D01*
X73363203Y-62032990D01*
X73351741Y-62037528D01*
X73351736Y-62037531D01*
X73344368Y-62040448D01*
X73331682Y-62049665D01*
X73308610Y-62066427D01*
X73298692Y-62072943D01*
X73280004Y-62083995D01*
X73260622Y-62095458D01*
X73246298Y-62109782D01*
X73231266Y-62122621D01*
X73214878Y-62134528D01*
X73186697Y-62168593D01*
X73178707Y-62177373D01*
X72534381Y-62821699D01*
X72472069Y-62855725D01*
X72445286Y-62858604D01*
X72389394Y-62858604D01*
X72382942Y-62859976D01*
X72382937Y-62859976D01*
X72307421Y-62876028D01*
X72202593Y-62898310D01*
X72196563Y-62900995D01*
X72196562Y-62900995D01*
X72034159Y-62973301D01*
X72034157Y-62973302D01*
X72028129Y-62975986D01*
X71873628Y-63088238D01*
X71869207Y-63093148D01*
X71869206Y-63093149D01*
X71766630Y-63207072D01*
X71745841Y-63230160D01*
X71650354Y-63395548D01*
X71591339Y-63577176D01*
X71590649Y-63583737D01*
X71590649Y-63583739D01*
X71575921Y-63723872D01*
X71571377Y-63767104D01*
X68961706Y-63767104D01*
X68962814Y-63756565D01*
X68962814Y-63756562D01*
X68963504Y-63750000D01*
X68955439Y-63673268D01*
X68944232Y-63566635D01*
X68944232Y-63566633D01*
X68943542Y-63560072D01*
X68884527Y-63378444D01*
X68860803Y-63337352D01*
X68834432Y-63291677D01*
X68789040Y-63213056D01*
X68783523Y-63206928D01*
X68665675Y-63076045D01*
X68665674Y-63076044D01*
X68661253Y-63071134D01*
X68526598Y-62973301D01*
X68512094Y-62962763D01*
X68512093Y-62962762D01*
X68506752Y-62958882D01*
X68500724Y-62956198D01*
X68500722Y-62956197D01*
X68338319Y-62883891D01*
X68338318Y-62883891D01*
X68332288Y-62881206D01*
X68225903Y-62858593D01*
X68151944Y-62842872D01*
X68151939Y-62842872D01*
X68145487Y-62841500D01*
X68089594Y-62841500D01*
X68021473Y-62821498D01*
X68000499Y-62804595D01*
X67441112Y-62245207D01*
X66853652Y-61657747D01*
X66846112Y-61649461D01*
X66842000Y-61642982D01*
X66792348Y-61596356D01*
X66789507Y-61593602D01*
X66769770Y-61573865D01*
X66766573Y-61571385D01*
X66757551Y-61563680D01*
X66740878Y-61548023D01*
X66725321Y-61533414D01*
X66718375Y-61529595D01*
X66718372Y-61529593D01*
X66707566Y-61523652D01*
X66691047Y-61512801D01*
X66690583Y-61512441D01*
X66675041Y-61500386D01*
X66667772Y-61497241D01*
X66667768Y-61497238D01*
X66634463Y-61482826D01*
X66623813Y-61477609D01*
X66585060Y-61456305D01*
X66565437Y-61451267D01*
X66546734Y-61444863D01*
X66535420Y-61439967D01*
X66535419Y-61439967D01*
X66528145Y-61436819D01*
X66520322Y-61435580D01*
X66520312Y-61435577D01*
X66484476Y-61429901D01*
X66472856Y-61427495D01*
X66437711Y-61418472D01*
X66437710Y-61418472D01*
X66430030Y-61416500D01*
X66409776Y-61416500D01*
X66390065Y-61414949D01*
X66377886Y-61413020D01*
X66370057Y-61411780D01*
X66362165Y-61412526D01*
X66326039Y-61415941D01*
X66314181Y-61416500D01*
X58705472Y-61416500D01*
X58637351Y-61396498D01*
X58627380Y-61389382D01*
X58520921Y-61305306D01*
X58516859Y-61302098D01*
X58475553Y-61279296D01*
X58425584Y-61228864D01*
X58410812Y-61159421D01*
X58435928Y-61093016D01*
X58463280Y-61066409D01*
X58507103Y-61035150D01*
X58642360Y-60938673D01*
X58648189Y-60932865D01*
X58796935Y-60784637D01*
X58800596Y-60780989D01*
X58807497Y-60771386D01*
X58927935Y-60603777D01*
X58930953Y-60599577D01*
X58938116Y-60585085D01*
X59027636Y-60403953D01*
X59027637Y-60403951D01*
X59029930Y-60399311D01*
X59078523Y-60239373D01*
X59093365Y-60190523D01*
X59093365Y-60190521D01*
X59094870Y-60185569D01*
X59124029Y-59964090D01*
X59125656Y-59897500D01*
X59107352Y-59674861D01*
X59052931Y-59458202D01*
X58963854Y-59253340D01*
X58882396Y-59127425D01*
X58845322Y-59070117D01*
X58845320Y-59070114D01*
X58842514Y-59065777D01*
X58692170Y-58900551D01*
X58688119Y-58897352D01*
X58688115Y-58897348D01*
X58520914Y-58765300D01*
X58520910Y-58765298D01*
X58516859Y-58762098D01*
X58475553Y-58739296D01*
X58425584Y-58688864D01*
X58410812Y-58619421D01*
X58435928Y-58553016D01*
X58463280Y-58526409D01*
X58508692Y-58494017D01*
X58642360Y-58398673D01*
X58647908Y-58393145D01*
X58746366Y-58295030D01*
X58800596Y-58240989D01*
X58810530Y-58227165D01*
X58927935Y-58063777D01*
X58930953Y-58059577D01*
X58933310Y-58054809D01*
X58972754Y-57975000D01*
X68011496Y-57975000D01*
X68012186Y-57981565D01*
X68027901Y-58131081D01*
X68031458Y-58164928D01*
X68090473Y-58346556D01*
X68185960Y-58511944D01*
X68190378Y-58516851D01*
X68190379Y-58516852D01*
X68293741Y-58631647D01*
X68313747Y-58653866D01*
X68412843Y-58725864D01*
X68444155Y-58748613D01*
X68468248Y-58766118D01*
X68474276Y-58768802D01*
X68474278Y-58768803D01*
X68635841Y-58840735D01*
X68642712Y-58843794D01*
X68726012Y-58861500D01*
X68823056Y-58882128D01*
X68823061Y-58882128D01*
X68829513Y-58883500D01*
X69020487Y-58883500D01*
X69026939Y-58882128D01*
X69026944Y-58882128D01*
X69123988Y-58861500D01*
X69207288Y-58843794D01*
X69214159Y-58840735D01*
X69375722Y-58768803D01*
X69375724Y-58768802D01*
X69381752Y-58766118D01*
X69405846Y-58748613D01*
X69465217Y-58705477D01*
X69532085Y-58681619D01*
X69601236Y-58697699D01*
X69650716Y-58748613D01*
X69664588Y-58820583D01*
X69661496Y-58850000D01*
X69662186Y-58856565D01*
X69677188Y-58999297D01*
X69681458Y-59039928D01*
X69740473Y-59221556D01*
X69743776Y-59227278D01*
X69743777Y-59227279D01*
X69760151Y-59255640D01*
X69835960Y-59386944D01*
X69840378Y-59391851D01*
X69840379Y-59391852D01*
X69871632Y-59426562D01*
X69963747Y-59528866D01*
X70118248Y-59641118D01*
X70124276Y-59643802D01*
X70124278Y-59643803D01*
X70252191Y-59700753D01*
X70292712Y-59718794D01*
X70365944Y-59734360D01*
X70473056Y-59757128D01*
X70473061Y-59757128D01*
X70479513Y-59758500D01*
X70670487Y-59758500D01*
X70676939Y-59757128D01*
X70676944Y-59757128D01*
X70784056Y-59734360D01*
X70857288Y-59718794D01*
X70897809Y-59700753D01*
X71025722Y-59643803D01*
X71025724Y-59643802D01*
X71031752Y-59641118D01*
X71186253Y-59528866D01*
X71190668Y-59523963D01*
X71195580Y-59519540D01*
X71196705Y-59520789D01*
X71250014Y-59487949D01*
X71283200Y-59483500D01*
X79354869Y-59483500D01*
X79422990Y-59503502D01*
X79469483Y-59557158D01*
X79480179Y-59596329D01*
X79493195Y-59720166D01*
X79493958Y-59727428D01*
X79552973Y-59909056D01*
X79648460Y-60074444D01*
X79652878Y-60079351D01*
X79652879Y-60079352D01*
X79771086Y-60210634D01*
X79776247Y-60216366D01*
X79855559Y-60273990D01*
X79896851Y-60303990D01*
X79930748Y-60328618D01*
X79936776Y-60331302D01*
X79936778Y-60331303D01*
X80099181Y-60403609D01*
X80105212Y-60406294D01*
X80198288Y-60426078D01*
X80285556Y-60444628D01*
X80285561Y-60444628D01*
X80292013Y-60446000D01*
X80482987Y-60446000D01*
X80489439Y-60444628D01*
X80489444Y-60444628D01*
X80576712Y-60426078D01*
X80669788Y-60406294D01*
X80675819Y-60403609D01*
X80838222Y-60331303D01*
X80838224Y-60331302D01*
X80844252Y-60328618D01*
X80878150Y-60303990D01*
X80919441Y-60273990D01*
X80998753Y-60216366D01*
X81003914Y-60210634D01*
X81122121Y-60079352D01*
X81122122Y-60079351D01*
X81126540Y-60074444D01*
X81222027Y-59909056D01*
X81281042Y-59727428D01*
X81281950Y-59718794D01*
X81300314Y-59544065D01*
X81301004Y-59537500D01*
X81291909Y-59450968D01*
X81281732Y-59354135D01*
X81281732Y-59354133D01*
X81281042Y-59347572D01*
X81222027Y-59165944D01*
X81126540Y-59000556D01*
X81083549Y-58952809D01*
X81003175Y-58863545D01*
X81003174Y-58863544D01*
X80998753Y-58858634D01*
X80986870Y-58850000D01*
X80974117Y-58840735D01*
X80968200Y-58836436D01*
X80924846Y-58780214D01*
X80918771Y-58709478D01*
X80951902Y-58646686D01*
X81013722Y-58611775D01*
X81042261Y-58608500D01*
X82429072Y-58608500D01*
X82497193Y-58628502D01*
X82543686Y-58682158D01*
X82548905Y-58695565D01*
X82552621Y-58707000D01*
X82565473Y-58746556D01*
X82660960Y-58911944D01*
X82665378Y-58916851D01*
X82665379Y-58916852D01*
X82743009Y-59003069D01*
X82788747Y-59053866D01*
X82883405Y-59122639D01*
X82935132Y-59160221D01*
X82943248Y-59166118D01*
X82949276Y-59168802D01*
X82949278Y-59168803D01*
X83084203Y-59228875D01*
X83117712Y-59243794D01*
X83203599Y-59262050D01*
X83298056Y-59282128D01*
X83298061Y-59282128D01*
X83304513Y-59283500D01*
X83495487Y-59283500D01*
X83501939Y-59282128D01*
X83501944Y-59282128D01*
X83596401Y-59262050D01*
X83682288Y-59243794D01*
X83715797Y-59228875D01*
X83850722Y-59168803D01*
X83850724Y-59168802D01*
X83856752Y-59166118D01*
X83864869Y-59160221D01*
X83916595Y-59122639D01*
X84011253Y-59053866D01*
X84056991Y-59003069D01*
X84134621Y-58916852D01*
X84134622Y-58916851D01*
X84139040Y-58911944D01*
X84234527Y-58746556D01*
X84293542Y-58564928D01*
X84296923Y-58532765D01*
X84312814Y-58381565D01*
X84313504Y-58375000D01*
X84309854Y-58340271D01*
X84294232Y-58191635D01*
X84294232Y-58191633D01*
X84293542Y-58185072D01*
X84234527Y-58003444D01*
X84229993Y-57995590D01*
X84167654Y-57887617D01*
X84139040Y-57838056D01*
X84115722Y-57812158D01*
X84015675Y-57701045D01*
X84015674Y-57701044D01*
X84011253Y-57696134D01*
X83856752Y-57583882D01*
X83850724Y-57581198D01*
X83850722Y-57581197D01*
X83688319Y-57508891D01*
X83688318Y-57508891D01*
X83682288Y-57506206D01*
X83581417Y-57484765D01*
X83501944Y-57467872D01*
X83501939Y-57467872D01*
X83495487Y-57466500D01*
X83422382Y-57466500D01*
X83361673Y-57450910D01*
X83357561Y-57448649D01*
X83341047Y-57437801D01*
X83335048Y-57433148D01*
X83325041Y-57425386D01*
X83317772Y-57422241D01*
X83317768Y-57422238D01*
X83284463Y-57407826D01*
X83273813Y-57402609D01*
X83235060Y-57381305D01*
X83215437Y-57376267D01*
X83196734Y-57369863D01*
X83185420Y-57364967D01*
X83185419Y-57364967D01*
X83178145Y-57361819D01*
X83170322Y-57360580D01*
X83170312Y-57360577D01*
X83134476Y-57354901D01*
X83122856Y-57352495D01*
X83087711Y-57343472D01*
X83087710Y-57343472D01*
X83080030Y-57341500D01*
X83059776Y-57341500D01*
X83040065Y-57339949D01*
X83027886Y-57338020D01*
X83020057Y-57336780D01*
X83012165Y-57337526D01*
X82976039Y-57340941D01*
X82964181Y-57341500D01*
X82719957Y-57341500D01*
X82651836Y-57321498D01*
X82605343Y-57267842D01*
X82594647Y-57202329D01*
X82594836Y-57200537D01*
X82613504Y-57022918D01*
X82608121Y-56971700D01*
X82594232Y-56839553D01*
X82594232Y-56839551D01*
X82593542Y-56832990D01*
X82534527Y-56651362D01*
X82439040Y-56485974D01*
X82384351Y-56425235D01*
X82315675Y-56348963D01*
X82315674Y-56348962D01*
X82311253Y-56344052D01*
X82156752Y-56231800D01*
X82150724Y-56229116D01*
X82150722Y-56229115D01*
X81988319Y-56156809D01*
X81988318Y-56156809D01*
X81982288Y-56154124D01*
X81888888Y-56134271D01*
X81801944Y-56115790D01*
X81801939Y-56115790D01*
X81795487Y-56114418D01*
X81739595Y-56114418D01*
X81671474Y-56094416D01*
X81650500Y-56077513D01*
X79920405Y-54347418D01*
X79886379Y-54285106D01*
X79883500Y-54258323D01*
X79883500Y-48460427D01*
X79903502Y-48392306D01*
X79944618Y-48352550D01*
X79947994Y-48350896D01*
X80129860Y-48221173D01*
X80288096Y-48063489D01*
X80333753Y-47999951D01*
X80418453Y-47882077D01*
X80419776Y-47883028D01*
X80466645Y-47839857D01*
X80536580Y-47827625D01*
X80602026Y-47855144D01*
X80629875Y-47886994D01*
X80689987Y-47985088D01*
X80836250Y-48153938D01*
X81008126Y-48296632D01*
X81201000Y-48409338D01*
X81205825Y-48411180D01*
X81205826Y-48411181D01*
X81236112Y-48422746D01*
X81409692Y-48489030D01*
X81414760Y-48490061D01*
X81414763Y-48490062D01*
X81492094Y-48505795D01*
X81628597Y-48533567D01*
X81633772Y-48533757D01*
X81633774Y-48533757D01*
X81846673Y-48541564D01*
X81846677Y-48541564D01*
X81851837Y-48541753D01*
X81856957Y-48541097D01*
X81856959Y-48541097D01*
X82068288Y-48514025D01*
X82068289Y-48514025D01*
X82073416Y-48513368D01*
X82117974Y-48500000D01*
X82282429Y-48450661D01*
X82282434Y-48450659D01*
X82287384Y-48449174D01*
X82487994Y-48350896D01*
X82669860Y-48221173D01*
X82828096Y-48063489D01*
X82873753Y-47999951D01*
X82958453Y-47882077D01*
X82959776Y-47883028D01*
X83006645Y-47839857D01*
X83076580Y-47827625D01*
X83142026Y-47855144D01*
X83169875Y-47886994D01*
X83229987Y-47985088D01*
X83376250Y-48153938D01*
X83548126Y-48296632D01*
X83741000Y-48409338D01*
X83745825Y-48411180D01*
X83745826Y-48411181D01*
X83776112Y-48422746D01*
X83949692Y-48489030D01*
X83954760Y-48490061D01*
X83954763Y-48490062D01*
X84032094Y-48505795D01*
X84168597Y-48533567D01*
X84173772Y-48533757D01*
X84173774Y-48533757D01*
X84386673Y-48541564D01*
X84386677Y-48541564D01*
X84391837Y-48541753D01*
X84396957Y-48541097D01*
X84396959Y-48541097D01*
X84608288Y-48514025D01*
X84608289Y-48514025D01*
X84613416Y-48513368D01*
X84657974Y-48500000D01*
X84822429Y-48450661D01*
X84822434Y-48450659D01*
X84827384Y-48449174D01*
X85027994Y-48350896D01*
X85209860Y-48221173D01*
X85368096Y-48063489D01*
X85413753Y-47999951D01*
X85498453Y-47882077D01*
X85499776Y-47883028D01*
X85546645Y-47839857D01*
X85616580Y-47827625D01*
X85682026Y-47855144D01*
X85709875Y-47886994D01*
X85769987Y-47985088D01*
X85916250Y-48153938D01*
X86088126Y-48296632D01*
X86281000Y-48409338D01*
X86285825Y-48411180D01*
X86285826Y-48411181D01*
X86316112Y-48422746D01*
X86489692Y-48489030D01*
X86494760Y-48490061D01*
X86494763Y-48490062D01*
X86572094Y-48505795D01*
X86708597Y-48533567D01*
X86713772Y-48533757D01*
X86713774Y-48533757D01*
X86926673Y-48541564D01*
X86926677Y-48541564D01*
X86931837Y-48541753D01*
X86936957Y-48541097D01*
X86936959Y-48541097D01*
X87148288Y-48514025D01*
X87148289Y-48514025D01*
X87153416Y-48513368D01*
X87197974Y-48500000D01*
X87362429Y-48450661D01*
X87362434Y-48450659D01*
X87367384Y-48449174D01*
X87567994Y-48350896D01*
X87749860Y-48221173D01*
X87908096Y-48063489D01*
X87953753Y-47999951D01*
X88035435Y-47886277D01*
X88038453Y-47882077D01*
X88059320Y-47839857D01*
X88135136Y-47686453D01*
X88135137Y-47686451D01*
X88137430Y-47681811D01*
X88202370Y-47468069D01*
X88231529Y-47246590D01*
X88233156Y-47180000D01*
X88214852Y-46957361D01*
X88160431Y-46740702D01*
X88071354Y-46535840D01*
X87971038Y-46380775D01*
X87952822Y-46352617D01*
X87952820Y-46352614D01*
X87950014Y-46348277D01*
X87799670Y-46183051D01*
X87795619Y-46179852D01*
X87795615Y-46179848D01*
X87628414Y-46047800D01*
X87628410Y-46047798D01*
X87624359Y-46044598D01*
X87428789Y-45936638D01*
X87423920Y-45934914D01*
X87423916Y-45934912D01*
X87223087Y-45863795D01*
X87223083Y-45863794D01*
X87218212Y-45862069D01*
X87213119Y-45861162D01*
X87213116Y-45861161D01*
X87003373Y-45823800D01*
X87003367Y-45823799D01*
X86998284Y-45822894D01*
X86924452Y-45821992D01*
X86780081Y-45820228D01*
X86780079Y-45820228D01*
X86774911Y-45820165D01*
X86554091Y-45853955D01*
X86341756Y-45923357D01*
X86143607Y-46026507D01*
X86139474Y-46029610D01*
X86139471Y-46029612D01*
X85969100Y-46157530D01*
X85964965Y-46160635D01*
X85810629Y-46322138D01*
X85703201Y-46479621D01*
X85648293Y-46524621D01*
X85577768Y-46532792D01*
X85514021Y-46501538D01*
X85493324Y-46477054D01*
X85412822Y-46352617D01*
X85412820Y-46352614D01*
X85410014Y-46348277D01*
X85259670Y-46183051D01*
X85255619Y-46179852D01*
X85255615Y-46179848D01*
X85088414Y-46047800D01*
X85088410Y-46047798D01*
X85084359Y-46044598D01*
X84888789Y-45936638D01*
X84883920Y-45934914D01*
X84883916Y-45934912D01*
X84683087Y-45863795D01*
X84683083Y-45863794D01*
X84678212Y-45862069D01*
X84673119Y-45861162D01*
X84673116Y-45861161D01*
X84463373Y-45823800D01*
X84463367Y-45823799D01*
X84458284Y-45822894D01*
X84384452Y-45821992D01*
X84240081Y-45820228D01*
X84240079Y-45820228D01*
X84234911Y-45820165D01*
X84014091Y-45853955D01*
X83801756Y-45923357D01*
X83603607Y-46026507D01*
X83599474Y-46029610D01*
X83599471Y-46029612D01*
X83429100Y-46157530D01*
X83424965Y-46160635D01*
X83270629Y-46322138D01*
X83163201Y-46479621D01*
X83108293Y-46524621D01*
X83037768Y-46532792D01*
X82974021Y-46501538D01*
X82953324Y-46477054D01*
X82872822Y-46352617D01*
X82872820Y-46352614D01*
X82870014Y-46348277D01*
X82719670Y-46183051D01*
X82715619Y-46179852D01*
X82715615Y-46179848D01*
X82548414Y-46047800D01*
X82548410Y-46047798D01*
X82544359Y-46044598D01*
X82348789Y-45936638D01*
X82343920Y-45934914D01*
X82343916Y-45934912D01*
X82143087Y-45863795D01*
X82143083Y-45863794D01*
X82138212Y-45862069D01*
X82133119Y-45861162D01*
X82133116Y-45861161D01*
X81923373Y-45823800D01*
X81923367Y-45823799D01*
X81918284Y-45822894D01*
X81844452Y-45821992D01*
X81700081Y-45820228D01*
X81700079Y-45820228D01*
X81694911Y-45820165D01*
X81474091Y-45853955D01*
X81261756Y-45923357D01*
X81063607Y-46026507D01*
X81059474Y-46029610D01*
X81059471Y-46029612D01*
X80889100Y-46157530D01*
X80884965Y-46160635D01*
X80730629Y-46322138D01*
X80623201Y-46479621D01*
X80568293Y-46524621D01*
X80497768Y-46532792D01*
X80434021Y-46501538D01*
X80413324Y-46477054D01*
X80332822Y-46352617D01*
X80332820Y-46352614D01*
X80330014Y-46348277D01*
X80179670Y-46183051D01*
X80175619Y-46179852D01*
X80175615Y-46179848D01*
X80008414Y-46047800D01*
X80008410Y-46047798D01*
X80004359Y-46044598D01*
X79808789Y-45936638D01*
X79803920Y-45934914D01*
X79803916Y-45934912D01*
X79603087Y-45863795D01*
X79603083Y-45863794D01*
X79598212Y-45862069D01*
X79593119Y-45861162D01*
X79593116Y-45861161D01*
X79383373Y-45823800D01*
X79383367Y-45823799D01*
X79378284Y-45822894D01*
X79304452Y-45821992D01*
X79160081Y-45820228D01*
X79160079Y-45820228D01*
X79154911Y-45820165D01*
X78934091Y-45853955D01*
X78721756Y-45923357D01*
X78523607Y-46026507D01*
X78519474Y-46029610D01*
X78519471Y-46029612D01*
X78349100Y-46157530D01*
X78344965Y-46160635D01*
X78190629Y-46322138D01*
X78187720Y-46326403D01*
X78187714Y-46326411D01*
X78118854Y-46427356D01*
X78064743Y-46506680D01*
X78049003Y-46540590D01*
X77974905Y-46700221D01*
X77970688Y-46709305D01*
X77910989Y-46924570D01*
X77887251Y-47146695D01*
X77887548Y-47151848D01*
X77887548Y-47151851D01*
X77893011Y-47246590D01*
X77900110Y-47369715D01*
X77901247Y-47374761D01*
X77901248Y-47374767D01*
X77915606Y-47438475D01*
X77949222Y-47587639D01*
X78033266Y-47794616D01*
X78074947Y-47862633D01*
X78147291Y-47980688D01*
X78149987Y-47985088D01*
X78296250Y-48153938D01*
X78468126Y-48296632D01*
X78554070Y-48346853D01*
X78602794Y-48398491D01*
X78616500Y-48455641D01*
X78616500Y-54494151D01*
X78615973Y-54505334D01*
X78614298Y-54512827D01*
X78614547Y-54520753D01*
X78614547Y-54520754D01*
X78616438Y-54580904D01*
X78616500Y-54584863D01*
X78616500Y-54612774D01*
X78616997Y-54616708D01*
X78616997Y-54616709D01*
X78617005Y-54616774D01*
X78617938Y-54628611D01*
X78619327Y-54672807D01*
X78624978Y-54692257D01*
X78628987Y-54711618D01*
X78631526Y-54731715D01*
X78634445Y-54739086D01*
X78634445Y-54739088D01*
X78647804Y-54772830D01*
X78651649Y-54784060D01*
X78661181Y-54816869D01*
X78663982Y-54826511D01*
X78668015Y-54833330D01*
X78668017Y-54833335D01*
X78674293Y-54843946D01*
X78682988Y-54861694D01*
X78690448Y-54880535D01*
X78695110Y-54886951D01*
X78695110Y-54886952D01*
X78716436Y-54916305D01*
X78722952Y-54926225D01*
X78740773Y-54956358D01*
X78745458Y-54964280D01*
X78759779Y-54978601D01*
X78772619Y-54993634D01*
X78784528Y-55010025D01*
X78805177Y-55027107D01*
X78818605Y-55038216D01*
X78827384Y-55046206D01*
X80752878Y-56971700D01*
X80786904Y-57034012D01*
X80789092Y-57047621D01*
X80805165Y-57200537D01*
X80805353Y-57202330D01*
X80792581Y-57272168D01*
X80744079Y-57324015D01*
X80680043Y-57341500D01*
X69633200Y-57341500D01*
X69565079Y-57321498D01*
X69545853Y-57305157D01*
X69545580Y-57305460D01*
X69540668Y-57301037D01*
X69536253Y-57296134D01*
X69444065Y-57229155D01*
X69387094Y-57187763D01*
X69387093Y-57187762D01*
X69381752Y-57183882D01*
X69375724Y-57181198D01*
X69375722Y-57181197D01*
X69213319Y-57108891D01*
X69213318Y-57108891D01*
X69207288Y-57106206D01*
X69113887Y-57086353D01*
X69026944Y-57067872D01*
X69026939Y-57067872D01*
X69020487Y-57066500D01*
X68829513Y-57066500D01*
X68823061Y-57067872D01*
X68823056Y-57067872D01*
X68736113Y-57086353D01*
X68642712Y-57106206D01*
X68636682Y-57108891D01*
X68636681Y-57108891D01*
X68474278Y-57181197D01*
X68474276Y-57181198D01*
X68468248Y-57183882D01*
X68462907Y-57187762D01*
X68462906Y-57187763D01*
X68428383Y-57212846D01*
X68313747Y-57296134D01*
X68309326Y-57301044D01*
X68309325Y-57301045D01*
X68200203Y-57422238D01*
X68185960Y-57438056D01*
X68145182Y-57508686D01*
X68104241Y-57579598D01*
X68090473Y-57603444D01*
X68031458Y-57785072D01*
X68030768Y-57791633D01*
X68030768Y-57791635D01*
X68021136Y-57883277D01*
X68011496Y-57975000D01*
X58972754Y-57975000D01*
X59027636Y-57863953D01*
X59027637Y-57863951D01*
X59029930Y-57859311D01*
X59094870Y-57645569D01*
X59124029Y-57424090D01*
X59124111Y-57420740D01*
X59125574Y-57360865D01*
X59125574Y-57360861D01*
X59125656Y-57357500D01*
X59107352Y-57134861D01*
X59052931Y-56918202D01*
X58963854Y-56713340D01*
X58842514Y-56525777D01*
X58692170Y-56360551D01*
X58688119Y-56357352D01*
X58688115Y-56357348D01*
X58520914Y-56225300D01*
X58520910Y-56225298D01*
X58516859Y-56222098D01*
X58475553Y-56199296D01*
X58425584Y-56148864D01*
X58410812Y-56079421D01*
X58435928Y-56013016D01*
X58463280Y-55986409D01*
X58507103Y-55955150D01*
X58642360Y-55858673D01*
X58672845Y-55828295D01*
X58793750Y-55707811D01*
X58800596Y-55700989D01*
X58860094Y-55618189D01*
X58927935Y-55523777D01*
X58930953Y-55519577D01*
X59029930Y-55319311D01*
X59094870Y-55105569D01*
X59124029Y-54884090D01*
X59125363Y-54829512D01*
X59125574Y-54820865D01*
X59125574Y-54820861D01*
X59125656Y-54817500D01*
X59107352Y-54594861D01*
X59052931Y-54378202D01*
X58963854Y-54173340D01*
X58842514Y-53985777D01*
X58692170Y-53820551D01*
X58688119Y-53817352D01*
X58688115Y-53817348D01*
X58520914Y-53685300D01*
X58520910Y-53685298D01*
X58516859Y-53682098D01*
X58471427Y-53657018D01*
X58409672Y-53622928D01*
X58321289Y-53574138D01*
X58316420Y-53572414D01*
X58316416Y-53572412D01*
X58115587Y-53501295D01*
X58115583Y-53501294D01*
X58110712Y-53499569D01*
X58105619Y-53498662D01*
X58105616Y-53498661D01*
X57895873Y-53461300D01*
X57895867Y-53461299D01*
X57890784Y-53460394D01*
X57816952Y-53459492D01*
X57672581Y-53457728D01*
X57672579Y-53457728D01*
X57667411Y-53457665D01*
X57446591Y-53491455D01*
X57234256Y-53560857D01*
X57036107Y-53664007D01*
X57031974Y-53667110D01*
X57031971Y-53667112D01*
X56861600Y-53795030D01*
X56857465Y-53798135D01*
X56703129Y-53959638D01*
X56577243Y-54144180D01*
X56530216Y-54245492D01*
X56511828Y-54285106D01*
X56483188Y-54346805D01*
X56423489Y-54562070D01*
X56399751Y-54784195D01*
X56400048Y-54789348D01*
X56400048Y-54789351D01*
X56405347Y-54881246D01*
X56412610Y-55007215D01*
X56413747Y-55012261D01*
X56413748Y-55012267D01*
X56432056Y-55093502D01*
X56461722Y-55225139D01*
X56545766Y-55432116D01*
X56662487Y-55622588D01*
X56808750Y-55791438D01*
X56980626Y-55934132D01*
X57020248Y-55957285D01*
X57053945Y-55976976D01*
X57102669Y-56028614D01*
X57115740Y-56098397D01*
X57089009Y-56164169D01*
X57048555Y-56197527D01*
X57036107Y-56204007D01*
X57031974Y-56207110D01*
X57031971Y-56207112D01*
X56896790Y-56308609D01*
X56857465Y-56338135D01*
X56853893Y-56341873D01*
X56716187Y-56485974D01*
X56703129Y-56499638D01*
X56577243Y-56684180D01*
X56546777Y-56749814D01*
X56505122Y-56839553D01*
X56483188Y-56886805D01*
X56423489Y-57102070D01*
X56399751Y-57324195D01*
X56400048Y-57329348D01*
X56400048Y-57329351D01*
X56410966Y-57518706D01*
X56412610Y-57547215D01*
X56413747Y-57552261D01*
X56413748Y-57552267D01*
X56426698Y-57609729D01*
X56461722Y-57765139D01*
X56545766Y-57972116D01*
X56555900Y-57988653D01*
X56651403Y-58144500D01*
X56662487Y-58162588D01*
X56808750Y-58331438D01*
X56980626Y-58474132D01*
X57023311Y-58499075D01*
X57053945Y-58516976D01*
X57102669Y-58568614D01*
X57115740Y-58638397D01*
X57089009Y-58704169D01*
X57048555Y-58737527D01*
X57043288Y-58740269D01*
X57036107Y-58744007D01*
X57031974Y-58747110D01*
X57031971Y-58747112D01*
X56861600Y-58875030D01*
X56857465Y-58878135D01*
X56853893Y-58881873D01*
X56709124Y-59033365D01*
X56703129Y-59039638D01*
X56700215Y-59043910D01*
X56700214Y-59043911D01*
X56634914Y-59139638D01*
X56577243Y-59224180D01*
X56533649Y-59318096D01*
X56487704Y-59417077D01*
X56483188Y-59426805D01*
X56423489Y-59642070D01*
X56399751Y-59864195D01*
X56400048Y-59869348D01*
X56400048Y-59869351D01*
X56408252Y-60011638D01*
X56412610Y-60087215D01*
X56413747Y-60092261D01*
X56413748Y-60092267D01*
X56436112Y-60191500D01*
X56461722Y-60305139D01*
X56545766Y-60512116D01*
X56574293Y-60558668D01*
X56656089Y-60692147D01*
X56662487Y-60702588D01*
X56808750Y-60871438D01*
X56885346Y-60935029D01*
X56969274Y-61004707D01*
X56980626Y-61014132D01*
X57029787Y-61042859D01*
X57053945Y-61056976D01*
X57102669Y-61108614D01*
X57115740Y-61178397D01*
X57089009Y-61244169D01*
X57048555Y-61277527D01*
X57036107Y-61284007D01*
X57031974Y-61287110D01*
X57031971Y-61287112D01*
X56861708Y-61414949D01*
X56857465Y-61418135D01*
X56834774Y-61441880D01*
X56742116Y-61538841D01*
X56703129Y-61579638D01*
X56700215Y-61583910D01*
X56700214Y-61583911D01*
X56678288Y-61616054D01*
X56577243Y-61764180D01*
X56543033Y-61837879D01*
X56487704Y-61957077D01*
X56483188Y-61966805D01*
X56423489Y-62182070D01*
X56399751Y-62404195D01*
X56400048Y-62409348D01*
X56400048Y-62409351D01*
X56407864Y-62544909D01*
X56412610Y-62627215D01*
X56413747Y-62632261D01*
X56413748Y-62632267D01*
X56434435Y-62724060D01*
X56461722Y-62845139D01*
X56516429Y-62979867D01*
X56535077Y-63025791D01*
X56545766Y-63052116D01*
X56553951Y-63065472D01*
X56658115Y-63235453D01*
X56662487Y-63242588D01*
X56665867Y-63246490D01*
X56796845Y-63397694D01*
X56808750Y-63411438D01*
X56910574Y-63495974D01*
X56969274Y-63544707D01*
X56980626Y-63554132D01*
X57031293Y-63583739D01*
X57053945Y-63596976D01*
X57102669Y-63648614D01*
X57115740Y-63718397D01*
X57089009Y-63784169D01*
X57048555Y-63817527D01*
X57036107Y-63824007D01*
X57031974Y-63827110D01*
X57031971Y-63827112D01*
X56867675Y-63950469D01*
X56857465Y-63958135D01*
X56703129Y-64119638D01*
X56700215Y-64123910D01*
X56700214Y-64123911D01*
X56652869Y-64193316D01*
X56577243Y-64304180D01*
X56554904Y-64352306D01*
X56511427Y-64445970D01*
X56483188Y-64506805D01*
X56423489Y-64722070D01*
X56399751Y-64944195D01*
X56400048Y-64949348D01*
X56400048Y-64949351D01*
X56407509Y-65078745D01*
X56412610Y-65167215D01*
X56413747Y-65172261D01*
X56413748Y-65172267D01*
X56434775Y-65265569D01*
X56461722Y-65385139D01*
X56545766Y-65592116D01*
X56662487Y-65782588D01*
X56808750Y-65951438D01*
X56980626Y-66094132D01*
X57036870Y-66126998D01*
X57053945Y-66136976D01*
X57102669Y-66188614D01*
X57115740Y-66258397D01*
X57089009Y-66324169D01*
X57048555Y-66357527D01*
X57036107Y-66364007D01*
X57031974Y-66367110D01*
X57031971Y-66367112D01*
X56874863Y-66485072D01*
X56857465Y-66498135D01*
X56829218Y-66527694D01*
X56742978Y-66617939D01*
X56703129Y-66659638D01*
X56700215Y-66663910D01*
X56700214Y-66663911D01*
X56692650Y-66675000D01*
X56577243Y-66844180D01*
X56548351Y-66906422D01*
X56487704Y-67037077D01*
X56483188Y-67046805D01*
X56423489Y-67262070D01*
X56399751Y-67484195D01*
X55508500Y-67484195D01*
X55508500Y-50882868D01*
X55528502Y-50814747D01*
X55582158Y-50768254D01*
X55652432Y-50758150D01*
X55717012Y-50787644D01*
X55732413Y-50803566D01*
X55820635Y-50912511D01*
X56087489Y-51179365D01*
X56380775Y-51416863D01*
X56485807Y-51485072D01*
X56677764Y-51609729D01*
X56697280Y-51622403D01*
X56700214Y-51623898D01*
X56700221Y-51623902D01*
X56845099Y-51697721D01*
X57033535Y-51793734D01*
X57385857Y-51928978D01*
X57750387Y-52026653D01*
X57948353Y-52058008D01*
X58119881Y-52085176D01*
X58119889Y-52085177D01*
X58123129Y-52085690D01*
X58405720Y-52100500D01*
X58594280Y-52100500D01*
X58876871Y-52085690D01*
X58880111Y-52085177D01*
X58880119Y-52085176D01*
X59051647Y-52058008D01*
X59249613Y-52026653D01*
X59614143Y-51928978D01*
X59966465Y-51793734D01*
X60154901Y-51697721D01*
X60299779Y-51623902D01*
X60299786Y-51623898D01*
X60302720Y-51622403D01*
X60322237Y-51609729D01*
X60514193Y-51485072D01*
X60619225Y-51416863D01*
X60912511Y-51179365D01*
X61179365Y-50912511D01*
X61416863Y-50619225D01*
X61620606Y-50305489D01*
X61620607Y-50305487D01*
X61622403Y-50302721D01*
X61623903Y-50299779D01*
X61792236Y-49969405D01*
X61793734Y-49966465D01*
X61928978Y-49614143D01*
X62026653Y-49249613D01*
X62060691Y-49034708D01*
X62085176Y-48880119D01*
X62085177Y-48880111D01*
X62085690Y-48876871D01*
X62105137Y-48505795D01*
X65957784Y-48505795D01*
X65958141Y-48512611D01*
X65958141Y-48512615D01*
X65962837Y-48602205D01*
X65967547Y-48692067D01*
X66017080Y-48871898D01*
X66104075Y-49036898D01*
X66108480Y-49042111D01*
X66108483Y-49042115D01*
X66220064Y-49174153D01*
X66220068Y-49174157D01*
X66224471Y-49179367D01*
X66229895Y-49183514D01*
X66229896Y-49183515D01*
X66367231Y-49288516D01*
X66367235Y-49288519D01*
X66372652Y-49292660D01*
X66541704Y-49371490D01*
X66723740Y-49412180D01*
X66729463Y-49412500D01*
X66866596Y-49412500D01*
X67005437Y-49397417D01*
X67182223Y-49337922D01*
X67342109Y-49241853D01*
X67477636Y-49113692D01*
X67481471Y-49108049D01*
X67578646Y-48965060D01*
X67578647Y-48965058D01*
X67582480Y-48959418D01*
X67614198Y-48880119D01*
X67649215Y-48792570D01*
X67649216Y-48792568D01*
X67651751Y-48786229D01*
X67677030Y-48633532D01*
X67681101Y-48608942D01*
X67681101Y-48608939D01*
X67682216Y-48602205D01*
X67678832Y-48537629D01*
X67672810Y-48422746D01*
X67672453Y-48415933D01*
X67622920Y-48236102D01*
X67537806Y-48074669D01*
X72812001Y-48074669D01*
X72812371Y-48081490D01*
X72817895Y-48132352D01*
X72821521Y-48147604D01*
X72866676Y-48268054D01*
X72875214Y-48283649D01*
X72951715Y-48385724D01*
X72964276Y-48398285D01*
X73066351Y-48474786D01*
X73081946Y-48483324D01*
X73202394Y-48528478D01*
X73217649Y-48532105D01*
X73268514Y-48537631D01*
X73275328Y-48538000D01*
X73897885Y-48538000D01*
X73913124Y-48533525D01*
X73914329Y-48532135D01*
X73916000Y-48524452D01*
X73916000Y-48519884D01*
X74424000Y-48519884D01*
X74428475Y-48535123D01*
X74429865Y-48536328D01*
X74437548Y-48537999D01*
X75064669Y-48537999D01*
X75071490Y-48537629D01*
X75122352Y-48532105D01*
X75137604Y-48528479D01*
X75258054Y-48483324D01*
X75273649Y-48474786D01*
X75375724Y-48398285D01*
X75388285Y-48385724D01*
X75464786Y-48283649D01*
X75473324Y-48268054D01*
X75518478Y-48147606D01*
X75522105Y-48132351D01*
X75527631Y-48081486D01*
X75528000Y-48074672D01*
X75528000Y-47452115D01*
X75523525Y-47436876D01*
X75522135Y-47435671D01*
X75514452Y-47434000D01*
X74442115Y-47434000D01*
X74426876Y-47438475D01*
X74425671Y-47439865D01*
X74424000Y-47447548D01*
X74424000Y-48519884D01*
X73916000Y-48519884D01*
X73916000Y-47452115D01*
X73911525Y-47436876D01*
X73910135Y-47435671D01*
X73902452Y-47434000D01*
X72830116Y-47434000D01*
X72814877Y-47438475D01*
X72813672Y-47439865D01*
X72812001Y-47447548D01*
X72812001Y-48074669D01*
X67537806Y-48074669D01*
X67535925Y-48071102D01*
X67531520Y-48065889D01*
X67531517Y-48065885D01*
X67419936Y-47933847D01*
X67419932Y-47933843D01*
X67415529Y-47928633D01*
X67410104Y-47924485D01*
X67272769Y-47819484D01*
X67272765Y-47819481D01*
X67267348Y-47815340D01*
X67098296Y-47736510D01*
X66916260Y-47695820D01*
X66910537Y-47695500D01*
X66773404Y-47695500D01*
X66634563Y-47710583D01*
X66457777Y-47770078D01*
X66297891Y-47866147D01*
X66162364Y-47994308D01*
X66158529Y-47999951D01*
X66068551Y-48132351D01*
X66057520Y-48148582D01*
X66054988Y-48154911D01*
X66054987Y-48154914D01*
X66009734Y-48268054D01*
X65988249Y-48321771D01*
X65977964Y-48383899D01*
X65960389Y-48490062D01*
X65957784Y-48505795D01*
X62105137Y-48505795D01*
X62105441Y-48500000D01*
X62085690Y-48123129D01*
X62079095Y-48081486D01*
X62054228Y-47924485D01*
X62026653Y-47750387D01*
X61928978Y-47385857D01*
X61793734Y-47033535D01*
X61738942Y-46926000D01*
X61729712Y-46907885D01*
X72812000Y-46907885D01*
X72816475Y-46923124D01*
X72817865Y-46924329D01*
X72825548Y-46926000D01*
X73897885Y-46926000D01*
X73913124Y-46921525D01*
X73914329Y-46920135D01*
X73916000Y-46912452D01*
X73916000Y-46907885D01*
X74424000Y-46907885D01*
X74428475Y-46923124D01*
X74429865Y-46924329D01*
X74437548Y-46926000D01*
X75509884Y-46926000D01*
X75525123Y-46921525D01*
X75526328Y-46920135D01*
X75527999Y-46912452D01*
X75527999Y-46285331D01*
X75527629Y-46278510D01*
X75522105Y-46227648D01*
X75518479Y-46212396D01*
X75473324Y-46091946D01*
X75464786Y-46076351D01*
X75388285Y-45974276D01*
X75375724Y-45961715D01*
X75273649Y-45885214D01*
X75258054Y-45876676D01*
X75137606Y-45831522D01*
X75122351Y-45827895D01*
X75071486Y-45822369D01*
X75064672Y-45822000D01*
X74442115Y-45822000D01*
X74426876Y-45826475D01*
X74425671Y-45827865D01*
X74424000Y-45835548D01*
X74424000Y-46907885D01*
X73916000Y-46907885D01*
X73916000Y-45840116D01*
X73911525Y-45824877D01*
X73910135Y-45823672D01*
X73902452Y-45822001D01*
X73275331Y-45822001D01*
X73268510Y-45822371D01*
X73217648Y-45827895D01*
X73202396Y-45831521D01*
X73081946Y-45876676D01*
X73066351Y-45885214D01*
X72964276Y-45961715D01*
X72951715Y-45974276D01*
X72875214Y-46076351D01*
X72866676Y-46091946D01*
X72821522Y-46212394D01*
X72817895Y-46227649D01*
X72812369Y-46278514D01*
X72812000Y-46285328D01*
X72812000Y-46907885D01*
X61729712Y-46907885D01*
X61623902Y-46700221D01*
X61623898Y-46700214D01*
X61622403Y-46697280D01*
X61619002Y-46692042D01*
X61418665Y-46383550D01*
X61416863Y-46380775D01*
X61179365Y-46087489D01*
X60912511Y-45820635D01*
X60803572Y-45732418D01*
X60763222Y-45674006D01*
X60760856Y-45603049D01*
X60797229Y-45542077D01*
X60860791Y-45510449D01*
X60882868Y-45508500D01*
X65886050Y-45508500D01*
X65954171Y-45528502D01*
G37*
G04 #@! TD.AperFunction*
G04 #@! TA.AperFunction,Conductor*
G36*
X145743100Y-52628502D02*
G01*
X145789593Y-52682158D01*
X145799697Y-52752432D01*
X145770203Y-52817012D01*
X145719208Y-52852482D01*
X145709205Y-52856232D01*
X145709204Y-52856233D01*
X145700795Y-52859385D01*
X145584239Y-52946739D01*
X145496885Y-53063295D01*
X145445755Y-53199684D01*
X145439000Y-53261866D01*
X145439000Y-54558134D01*
X145445755Y-54620316D01*
X145496885Y-54756705D01*
X145584239Y-54873261D01*
X145700795Y-54960615D01*
X145706887Y-54962899D01*
X145756156Y-55012279D01*
X145771500Y-55072539D01*
X145771500Y-55612587D01*
X145751498Y-55680708D01*
X145697842Y-55727201D01*
X145627568Y-55737305D01*
X145569110Y-55710607D01*
X145568261Y-55711739D01*
X145563070Y-55707848D01*
X145563068Y-55707847D01*
X145451705Y-55624385D01*
X145315316Y-55573255D01*
X145253134Y-55566500D01*
X143456866Y-55566500D01*
X143394684Y-55573255D01*
X143258295Y-55624385D01*
X143141739Y-55711739D01*
X143054385Y-55828295D01*
X143003255Y-55964684D01*
X142996500Y-56026866D01*
X142996500Y-57823134D01*
X143003255Y-57885316D01*
X143054385Y-58021705D01*
X143141739Y-58138261D01*
X143258295Y-58225615D01*
X143266704Y-58228767D01*
X143266705Y-58228768D01*
X143375451Y-58269535D01*
X143432216Y-58312176D01*
X143456916Y-58378738D01*
X143441709Y-58448087D01*
X143422316Y-58474568D01*
X143295629Y-58607138D01*
X143292715Y-58611410D01*
X143292714Y-58611411D01*
X143235308Y-58695565D01*
X143169743Y-58791680D01*
X143146561Y-58841621D01*
X143089354Y-58964865D01*
X143075688Y-58994305D01*
X143015989Y-59209570D01*
X142992251Y-59431695D01*
X142992548Y-59436848D01*
X142992548Y-59436851D01*
X143001868Y-59598489D01*
X143005110Y-59654715D01*
X143006247Y-59659761D01*
X143006248Y-59659767D01*
X143030304Y-59766508D01*
X143054222Y-59872639D01*
X143110663Y-60011638D01*
X143130979Y-60061669D01*
X143138266Y-60079616D01*
X143150217Y-60099118D01*
X143250946Y-60263493D01*
X143254987Y-60270088D01*
X143401250Y-60438938D01*
X143573126Y-60581632D01*
X143631239Y-60615590D01*
X143659070Y-60631853D01*
X143707794Y-60683491D01*
X143721500Y-60740641D01*
X143721500Y-62526233D01*
X143720973Y-62537416D01*
X143719298Y-62544909D01*
X143719547Y-62552835D01*
X143719547Y-62552836D01*
X143721438Y-62612986D01*
X143721500Y-62616945D01*
X143721500Y-62644856D01*
X143721997Y-62648790D01*
X143721997Y-62648791D01*
X143722005Y-62648856D01*
X143722938Y-62660693D01*
X143724327Y-62704889D01*
X143726831Y-62713507D01*
X143729978Y-62724339D01*
X143733987Y-62743700D01*
X143736526Y-62763797D01*
X143739445Y-62771168D01*
X143739445Y-62771170D01*
X143752804Y-62804912D01*
X143756649Y-62816142D01*
X143763608Y-62840096D01*
X143768982Y-62858593D01*
X143773015Y-62865412D01*
X143773017Y-62865417D01*
X143779293Y-62876028D01*
X143787988Y-62893776D01*
X143795448Y-62912617D01*
X143800110Y-62919033D01*
X143800110Y-62919034D01*
X143821436Y-62948387D01*
X143827952Y-62958307D01*
X143843992Y-62985428D01*
X143850458Y-62996362D01*
X143864779Y-63010683D01*
X143877619Y-63025716D01*
X143889528Y-63042107D01*
X143914467Y-63062738D01*
X143923605Y-63070298D01*
X143932384Y-63078288D01*
X145495041Y-64640945D01*
X145529067Y-64703257D01*
X145525539Y-64769707D01*
X145502499Y-64839171D01*
X145497203Y-64855139D01*
X145486500Y-64959600D01*
X145486500Y-65860400D01*
X145486837Y-65863646D01*
X145486837Y-65863650D01*
X145495946Y-65951438D01*
X145497474Y-65966166D01*
X145499655Y-65972702D01*
X145499655Y-65972704D01*
X145511921Y-66009470D01*
X145553450Y-66133946D01*
X145646522Y-66284348D01*
X145651704Y-66289521D01*
X145676574Y-66314348D01*
X145771697Y-66409305D01*
X145777927Y-66413145D01*
X145777928Y-66413146D01*
X145915090Y-66497694D01*
X145922262Y-66502115D01*
X145979455Y-66521085D01*
X146083611Y-66555632D01*
X146083613Y-66555632D01*
X146090139Y-66557797D01*
X146096975Y-66558497D01*
X146096978Y-66558498D01*
X146140031Y-66562909D01*
X146194600Y-66568500D01*
X148445400Y-66568500D01*
X148448646Y-66568163D01*
X148448650Y-66568163D01*
X148544308Y-66558238D01*
X148544312Y-66558237D01*
X148551166Y-66557526D01*
X148557702Y-66555345D01*
X148557704Y-66555345D01*
X148689806Y-66511272D01*
X148718946Y-66501550D01*
X148869348Y-66408478D01*
X148913742Y-66364007D01*
X148987139Y-66290482D01*
X149049422Y-66256403D01*
X149076312Y-66253500D01*
X149648666Y-66253500D01*
X149716787Y-66273502D01*
X149746469Y-66303700D01*
X149748125Y-66302388D01*
X149752668Y-66308120D01*
X149756522Y-66314348D01*
X149881697Y-66439305D01*
X149887927Y-66443145D01*
X149887928Y-66443146D01*
X150025090Y-66527694D01*
X150032262Y-66532115D01*
X150063964Y-66542630D01*
X150193611Y-66585632D01*
X150193613Y-66585632D01*
X150200139Y-66587797D01*
X150206975Y-66588497D01*
X150206978Y-66588498D01*
X150250031Y-66592909D01*
X150304600Y-66598500D01*
X152555400Y-66598500D01*
X152558646Y-66598163D01*
X152558650Y-66598163D01*
X152654308Y-66588238D01*
X152654312Y-66588237D01*
X152661166Y-66587526D01*
X152667702Y-66585345D01*
X152667704Y-66585345D01*
X152799884Y-66541246D01*
X152828946Y-66531550D01*
X152979348Y-66438478D01*
X153104305Y-66313303D01*
X153108146Y-66307072D01*
X153193275Y-66168968D01*
X153193276Y-66168966D01*
X153197115Y-66162738D01*
X153243962Y-66021498D01*
X153250632Y-66001389D01*
X153250632Y-66001387D01*
X153252797Y-65994861D01*
X153263500Y-65890400D01*
X153263500Y-64989600D01*
X153261041Y-64965896D01*
X153253238Y-64890692D01*
X153253237Y-64890688D01*
X153252526Y-64883834D01*
X153236658Y-64836270D01*
X153198868Y-64723002D01*
X153196550Y-64716054D01*
X153103478Y-64565652D01*
X152978303Y-64440695D01*
X152938023Y-64415866D01*
X152833968Y-64351725D01*
X152833966Y-64351724D01*
X152827738Y-64347885D01*
X152709366Y-64308623D01*
X152666389Y-64294368D01*
X152666387Y-64294368D01*
X152659861Y-64292203D01*
X152653025Y-64291503D01*
X152653022Y-64291502D01*
X152608533Y-64286944D01*
X152555400Y-64281500D01*
X150304600Y-64281500D01*
X150301354Y-64281837D01*
X150301350Y-64281837D01*
X150205692Y-64291762D01*
X150205688Y-64291763D01*
X150198834Y-64292474D01*
X150192298Y-64294655D01*
X150192296Y-64294655D01*
X150076344Y-64333340D01*
X150031054Y-64348450D01*
X149880652Y-64441522D01*
X149875479Y-64446704D01*
X149871989Y-64450200D01*
X149755695Y-64566697D01*
X149751855Y-64572927D01*
X149751854Y-64572928D01*
X149667411Y-64709920D01*
X149662885Y-64717262D01*
X149607203Y-64885139D01*
X149606889Y-64888203D01*
X149573750Y-64949328D01*
X149511540Y-64983540D01*
X149484388Y-64986500D01*
X149269894Y-64986500D01*
X149201773Y-64966498D01*
X149155280Y-64912842D01*
X149144567Y-64873504D01*
X149143238Y-64860692D01*
X149143237Y-64860688D01*
X149142526Y-64853834D01*
X149135419Y-64832530D01*
X149088868Y-64693002D01*
X149086550Y-64686054D01*
X148993478Y-64535652D01*
X148868303Y-64410695D01*
X148825862Y-64384534D01*
X148723968Y-64321725D01*
X148723966Y-64321724D01*
X148717738Y-64317885D01*
X148596749Y-64277755D01*
X148556389Y-64264368D01*
X148556387Y-64264368D01*
X148549861Y-64262203D01*
X148543025Y-64261503D01*
X148543022Y-64261502D01*
X148499969Y-64257091D01*
X148445400Y-64251500D01*
X146949595Y-64251500D01*
X146881474Y-64231498D01*
X146860500Y-64214595D01*
X146329500Y-63683595D01*
X146295474Y-63621283D01*
X146300539Y-63550468D01*
X146343086Y-63493632D01*
X146409606Y-63468821D01*
X146418595Y-63468500D01*
X148445400Y-63468500D01*
X148448646Y-63468163D01*
X148448650Y-63468163D01*
X148544308Y-63458238D01*
X148544312Y-63458237D01*
X148551166Y-63457526D01*
X148557702Y-63455345D01*
X148557704Y-63455345D01*
X148711998Y-63403868D01*
X148718946Y-63401550D01*
X148869348Y-63308478D01*
X148994305Y-63183303D01*
X149004351Y-63167006D01*
X149083275Y-63038968D01*
X149083276Y-63038966D01*
X149087115Y-63032738D01*
X149133203Y-62893787D01*
X149140632Y-62871389D01*
X149140632Y-62871387D01*
X149142797Y-62864861D01*
X149144328Y-62849925D01*
X149150093Y-62793650D01*
X149153500Y-62760400D01*
X149153500Y-61859600D01*
X149151537Y-61840681D01*
X149143238Y-61760692D01*
X149143237Y-61760688D01*
X149142526Y-61753834D01*
X149116931Y-61677115D01*
X149088868Y-61593002D01*
X149086550Y-61586054D01*
X148993478Y-61435652D01*
X148868303Y-61310695D01*
X148862072Y-61306854D01*
X148723968Y-61221725D01*
X148723966Y-61221724D01*
X148717738Y-61217885D01*
X148608040Y-61181500D01*
X148556389Y-61164368D01*
X148556387Y-61164368D01*
X148549861Y-61162203D01*
X148543025Y-61161503D01*
X148543022Y-61161502D01*
X148492394Y-61156315D01*
X148445400Y-61151500D01*
X146949595Y-61151500D01*
X146881474Y-61131498D01*
X146860499Y-61114595D01*
X146239500Y-60493595D01*
X146205475Y-60431283D01*
X146210540Y-60360467D01*
X146253087Y-60303632D01*
X146319607Y-60278821D01*
X146328596Y-60278500D01*
X147432730Y-60278500D01*
X147435178Y-60278307D01*
X147435186Y-60278307D01*
X147462950Y-60276122D01*
X147462955Y-60276121D01*
X147469360Y-60275617D01*
X147475532Y-60273824D01*
X147475537Y-60273823D01*
X147618483Y-60232293D01*
X147618485Y-60232292D01*
X147626096Y-60230081D01*
X147647737Y-60217283D01*
X147766585Y-60146997D01*
X147768162Y-60149664D01*
X147820808Y-60128994D01*
X147831950Y-60128500D01*
X148110406Y-60128500D01*
X148178527Y-60148502D01*
X148199501Y-60165405D01*
X149605041Y-61570945D01*
X149639067Y-61633257D01*
X149635539Y-61699707D01*
X149610872Y-61774076D01*
X149607203Y-61785139D01*
X149596500Y-61889600D01*
X149596500Y-62790400D01*
X149596837Y-62793646D01*
X149596837Y-62793650D01*
X149605922Y-62881206D01*
X149607474Y-62896166D01*
X149609655Y-62902702D01*
X149609655Y-62902704D01*
X149629864Y-62963277D01*
X149663450Y-63063946D01*
X149756522Y-63214348D01*
X149881697Y-63339305D01*
X149887927Y-63343145D01*
X149887928Y-63343146D01*
X150025090Y-63427694D01*
X150032262Y-63432115D01*
X150102145Y-63455294D01*
X150193611Y-63485632D01*
X150193613Y-63485632D01*
X150200139Y-63487797D01*
X150206975Y-63488497D01*
X150206978Y-63488498D01*
X150250031Y-63492909D01*
X150304600Y-63498500D01*
X152555400Y-63498500D01*
X152558646Y-63498163D01*
X152558650Y-63498163D01*
X152654308Y-63488238D01*
X152654312Y-63488237D01*
X152661166Y-63487526D01*
X152667702Y-63485345D01*
X152667704Y-63485345D01*
X152799806Y-63441272D01*
X152828946Y-63431550D01*
X152979348Y-63338478D01*
X152985372Y-63332444D01*
X153099134Y-63218483D01*
X153104305Y-63213303D01*
X153108235Y-63206928D01*
X153193275Y-63068968D01*
X153193276Y-63068966D01*
X153197115Y-63062738D01*
X153238054Y-62939311D01*
X153250632Y-62901389D01*
X153250632Y-62901387D01*
X153252797Y-62894861D01*
X153256572Y-62858022D01*
X153260862Y-62816142D01*
X153263500Y-62790400D01*
X153263500Y-61889600D01*
X153263163Y-61886350D01*
X153253238Y-61790692D01*
X153253237Y-61790688D01*
X153252526Y-61783834D01*
X153249271Y-61774076D01*
X153198868Y-61623002D01*
X153196550Y-61616054D01*
X153103478Y-61465652D01*
X152978303Y-61340695D01*
X152947309Y-61321590D01*
X152833968Y-61251725D01*
X152833966Y-61251724D01*
X152827738Y-61247885D01*
X152730344Y-61215581D01*
X152666389Y-61194368D01*
X152666387Y-61194368D01*
X152659861Y-61192203D01*
X152653025Y-61191503D01*
X152653022Y-61191502D01*
X152609969Y-61187091D01*
X152555400Y-61181500D01*
X151059594Y-61181500D01*
X150991473Y-61161498D01*
X150970499Y-61144595D01*
X149409999Y-59584095D01*
X149375973Y-59521783D01*
X149381038Y-59450968D01*
X149409999Y-59405905D01*
X150097247Y-58718657D01*
X150105537Y-58711113D01*
X150112018Y-58707000D01*
X150158659Y-58657332D01*
X150161413Y-58654491D01*
X150181134Y-58634770D01*
X150183612Y-58631575D01*
X150191318Y-58622553D01*
X150216158Y-58596101D01*
X150221586Y-58590321D01*
X150231346Y-58572568D01*
X150242199Y-58556045D01*
X150249753Y-58546306D01*
X150254613Y-58540041D01*
X150272176Y-58499457D01*
X150277383Y-58488827D01*
X150298695Y-58450060D01*
X150300666Y-58442383D01*
X150300668Y-58442378D01*
X150303732Y-58430442D01*
X150310138Y-58411730D01*
X150315034Y-58400417D01*
X150318181Y-58393145D01*
X150320822Y-58376474D01*
X150325097Y-58349481D01*
X150327504Y-58337860D01*
X150336528Y-58302711D01*
X150336528Y-58302710D01*
X150338500Y-58295030D01*
X150338500Y-58274769D01*
X150340051Y-58255058D01*
X150341979Y-58242885D01*
X150343219Y-58235057D01*
X150339059Y-58191046D01*
X150338500Y-58179189D01*
X150338500Y-55288594D01*
X150358502Y-55220473D01*
X150412158Y-55173980D01*
X150482432Y-55163876D01*
X150547012Y-55193370D01*
X150553594Y-55199498D01*
X151284922Y-55930827D01*
X151885042Y-56530947D01*
X151919068Y-56593259D01*
X151916944Y-56655194D01*
X151913496Y-56667062D01*
X151901177Y-56709463D01*
X151901176Y-56709468D01*
X151899383Y-56715640D01*
X151896500Y-56752270D01*
X151896500Y-57157730D01*
X151896693Y-57160178D01*
X151896693Y-57160186D01*
X151898864Y-57187763D01*
X151899383Y-57194360D01*
X151901176Y-57200532D01*
X151901177Y-57200537D01*
X151942131Y-57341500D01*
X151944919Y-57351096D01*
X151948954Y-57357919D01*
X152023969Y-57484765D01*
X152023972Y-57484769D01*
X152028003Y-57491585D01*
X152143415Y-57606997D01*
X152150231Y-57611028D01*
X152150235Y-57611031D01*
X152277081Y-57686046D01*
X152283904Y-57690081D01*
X152291515Y-57692292D01*
X152291517Y-57692293D01*
X152434463Y-57733823D01*
X152434468Y-57733824D01*
X152440640Y-57735617D01*
X152447045Y-57736121D01*
X152447050Y-57736122D01*
X152474814Y-57738307D01*
X152474822Y-57738307D01*
X152477270Y-57738500D01*
X153570500Y-57738500D01*
X153638621Y-57758502D01*
X153685114Y-57812158D01*
X153696500Y-57864500D01*
X153696500Y-58055405D01*
X153676498Y-58123526D01*
X153659595Y-58144500D01*
X153129500Y-58674595D01*
X153067188Y-58708621D01*
X153040405Y-58711500D01*
X152477270Y-58711500D01*
X152474822Y-58711693D01*
X152474814Y-58711693D01*
X152447050Y-58713878D01*
X152447045Y-58713879D01*
X152440640Y-58714383D01*
X152434468Y-58716176D01*
X152434463Y-58716177D01*
X152291517Y-58757707D01*
X152291515Y-58757708D01*
X152283904Y-58759919D01*
X152277081Y-58763954D01*
X152150235Y-58838969D01*
X152150231Y-58838972D01*
X152143415Y-58843003D01*
X152028003Y-58958415D01*
X152023972Y-58965231D01*
X152023969Y-58965235D01*
X151966769Y-59061957D01*
X151944919Y-59098904D01*
X151942708Y-59106515D01*
X151942707Y-59106517D01*
X151901177Y-59249463D01*
X151901176Y-59249468D01*
X151899383Y-59255640D01*
X151896500Y-59292270D01*
X151896500Y-59697730D01*
X151896693Y-59700178D01*
X151896693Y-59700186D01*
X151898321Y-59720866D01*
X151899383Y-59734360D01*
X151901176Y-59740532D01*
X151901177Y-59740537D01*
X151938601Y-59869351D01*
X151944919Y-59891096D01*
X151948954Y-59897919D01*
X152023969Y-60024765D01*
X152023972Y-60024769D01*
X152028003Y-60031585D01*
X152143415Y-60146997D01*
X152150231Y-60151028D01*
X152150235Y-60151031D01*
X152273615Y-60223996D01*
X152283904Y-60230081D01*
X152291515Y-60232292D01*
X152291517Y-60232293D01*
X152434463Y-60273823D01*
X152434468Y-60273824D01*
X152440640Y-60275617D01*
X152447045Y-60276121D01*
X152447050Y-60276122D01*
X152474814Y-60278307D01*
X152474822Y-60278307D01*
X152477270Y-60278500D01*
X153932730Y-60278500D01*
X153935178Y-60278307D01*
X153935186Y-60278307D01*
X153962950Y-60276122D01*
X153962955Y-60276121D01*
X153969360Y-60275617D01*
X153975532Y-60273824D01*
X153975537Y-60273823D01*
X154118483Y-60232293D01*
X154118485Y-60232292D01*
X154126096Y-60230081D01*
X154136385Y-60223996D01*
X154259765Y-60151031D01*
X154259769Y-60151028D01*
X154266585Y-60146997D01*
X154276405Y-60137177D01*
X154338717Y-60103151D01*
X154409532Y-60108216D01*
X154466368Y-60150763D01*
X154491179Y-60217283D01*
X154491500Y-60226272D01*
X154491500Y-67943728D01*
X154471498Y-68011849D01*
X154417842Y-68058342D01*
X154347568Y-68068446D01*
X154282988Y-68038952D01*
X154276405Y-68032823D01*
X154211585Y-67968003D01*
X154204769Y-67963972D01*
X154204765Y-67963969D01*
X154077919Y-67888954D01*
X154071096Y-67884919D01*
X154063485Y-67882708D01*
X154063483Y-67882707D01*
X153920537Y-67841177D01*
X153920532Y-67841176D01*
X153914360Y-67839383D01*
X153907955Y-67838879D01*
X153907950Y-67838878D01*
X153880186Y-67836693D01*
X153880178Y-67836693D01*
X153877730Y-67836500D01*
X152422270Y-67836500D01*
X152419822Y-67836693D01*
X152419814Y-67836693D01*
X152392050Y-67838878D01*
X152392045Y-67838879D01*
X152385640Y-67839383D01*
X152379468Y-67841176D01*
X152379463Y-67841177D01*
X152236517Y-67882707D01*
X152236515Y-67882708D01*
X152228904Y-67884919D01*
X152222081Y-67888954D01*
X152095235Y-67963969D01*
X152095231Y-67963972D01*
X152088415Y-67968003D01*
X151973003Y-68083415D01*
X151968972Y-68090231D01*
X151968969Y-68090235D01*
X151941597Y-68136520D01*
X151889919Y-68223904D01*
X151887708Y-68231515D01*
X151887707Y-68231517D01*
X151846177Y-68374463D01*
X151846176Y-68374468D01*
X151844383Y-68380640D01*
X151841500Y-68417270D01*
X151841500Y-68822730D01*
X151841693Y-68825178D01*
X151841693Y-68825186D01*
X151843715Y-68850868D01*
X151844383Y-68859360D01*
X151846176Y-68865532D01*
X151846177Y-68865537D01*
X151861944Y-68919805D01*
X151861741Y-68990801D01*
X151830042Y-69044053D01*
X151779500Y-69094595D01*
X151717188Y-69128621D01*
X151690405Y-69131500D01*
X148044369Y-69131500D01*
X147976248Y-69111498D01*
X147929755Y-69057842D01*
X147919651Y-68987568D01*
X147923372Y-68970347D01*
X147953823Y-68865537D01*
X147953824Y-68865532D01*
X147955617Y-68859360D01*
X147956286Y-68850868D01*
X147958307Y-68825186D01*
X147958307Y-68825178D01*
X147958500Y-68822730D01*
X147958500Y-68417270D01*
X147955617Y-68380640D01*
X147953824Y-68374468D01*
X147953823Y-68374463D01*
X147912293Y-68231517D01*
X147912292Y-68231515D01*
X147910081Y-68223904D01*
X147858403Y-68136520D01*
X147831031Y-68090235D01*
X147831028Y-68090231D01*
X147826997Y-68083415D01*
X147711585Y-67968003D01*
X147704769Y-67963972D01*
X147704765Y-67963969D01*
X147577919Y-67888954D01*
X147571096Y-67884919D01*
X147563485Y-67882708D01*
X147563483Y-67882707D01*
X147420537Y-67841177D01*
X147420532Y-67841176D01*
X147414360Y-67839383D01*
X147407955Y-67838879D01*
X147407950Y-67838878D01*
X147380186Y-67836693D01*
X147380178Y-67836693D01*
X147377730Y-67836500D01*
X146814595Y-67836500D01*
X146746474Y-67816498D01*
X146725500Y-67799595D01*
X145948652Y-67022747D01*
X145941112Y-67014461D01*
X145937000Y-67007982D01*
X145887348Y-66961356D01*
X145884507Y-66958602D01*
X145864770Y-66938865D01*
X145861573Y-66936385D01*
X145852551Y-66928680D01*
X145839116Y-66916064D01*
X145820321Y-66898414D01*
X145813375Y-66894595D01*
X145813372Y-66894593D01*
X145802566Y-66888652D01*
X145786047Y-66877801D01*
X145777544Y-66871206D01*
X145770041Y-66865386D01*
X145762772Y-66862241D01*
X145762768Y-66862238D01*
X145729463Y-66847826D01*
X145718813Y-66842609D01*
X145680060Y-66821305D01*
X145660437Y-66816267D01*
X145641734Y-66809863D01*
X145630420Y-66804967D01*
X145630419Y-66804967D01*
X145623145Y-66801819D01*
X145615322Y-66800580D01*
X145615312Y-66800577D01*
X145579476Y-66794901D01*
X145567856Y-66792495D01*
X145532711Y-66783472D01*
X145532710Y-66783472D01*
X145525030Y-66781500D01*
X145504776Y-66781500D01*
X145485065Y-66779949D01*
X145482534Y-66779548D01*
X145465057Y-66776780D01*
X145457165Y-66777526D01*
X145421039Y-66780941D01*
X145409181Y-66781500D01*
X140876263Y-66781500D01*
X140865079Y-66780973D01*
X140857591Y-66779299D01*
X140849668Y-66779548D01*
X140789533Y-66781438D01*
X140785575Y-66781500D01*
X140757644Y-66781500D01*
X140753729Y-66781995D01*
X140753725Y-66781995D01*
X140753667Y-66782003D01*
X140753638Y-66782006D01*
X140741796Y-66782939D01*
X140697610Y-66784327D01*
X140680244Y-66789372D01*
X140678158Y-66789978D01*
X140658806Y-66793986D01*
X140646568Y-66795532D01*
X140646566Y-66795533D01*
X140638703Y-66796526D01*
X140597586Y-66812806D01*
X140586385Y-66816641D01*
X140543906Y-66828982D01*
X140537087Y-66833015D01*
X140537082Y-66833017D01*
X140526471Y-66839293D01*
X140508721Y-66847990D01*
X140489883Y-66855448D01*
X140483467Y-66860109D01*
X140483466Y-66860110D01*
X140454125Y-66881428D01*
X140444201Y-66887947D01*
X140412960Y-66906422D01*
X140412955Y-66906426D01*
X140406137Y-66910458D01*
X140391813Y-66924782D01*
X140376781Y-66937621D01*
X140360393Y-66949528D01*
X140332212Y-66983593D01*
X140324222Y-66992373D01*
X139707000Y-67609595D01*
X139644688Y-67643621D01*
X139617905Y-67646500D01*
X139282928Y-67646500D01*
X139279682Y-67646837D01*
X139279678Y-67646837D01*
X139185765Y-67656581D01*
X139185761Y-67656582D01*
X139178907Y-67657293D01*
X139172371Y-67659474D01*
X139172369Y-67659474D01*
X139145711Y-67668368D01*
X139013893Y-67712346D01*
X138865969Y-67803884D01*
X138860796Y-67809066D01*
X138748242Y-67921816D01*
X138748238Y-67921821D01*
X138743071Y-67926997D01*
X138739231Y-67933227D01*
X138739230Y-67933228D01*
X138664770Y-68054025D01*
X138651791Y-68075080D01*
X138597026Y-68240191D01*
X138586500Y-68342928D01*
X138586500Y-68917072D01*
X138586837Y-68920318D01*
X138586837Y-68920322D01*
X138594326Y-68992496D01*
X138581461Y-69062317D01*
X138532891Y-69114100D01*
X138468999Y-69131500D01*
X133104899Y-69131500D01*
X133036778Y-69111498D01*
X133015804Y-69094595D01*
X126578721Y-62657512D01*
X130489433Y-62657512D01*
X130489662Y-62660357D01*
X130489662Y-62660360D01*
X130521766Y-63059366D01*
X130522273Y-63065668D01*
X130591969Y-63469168D01*
X130697949Y-63864691D01*
X130698934Y-63867368D01*
X130838152Y-64245750D01*
X130839340Y-64248980D01*
X130840565Y-64251560D01*
X130840568Y-64251567D01*
X131009962Y-64608309D01*
X131014979Y-64618874D01*
X131118004Y-64793080D01*
X131220563Y-64966498D01*
X131223418Y-64971326D01*
X131225080Y-64973630D01*
X131225081Y-64973632D01*
X131386255Y-65197104D01*
X131462944Y-65303436D01*
X131731584Y-65612471D01*
X132027126Y-65895886D01*
X132029344Y-65897656D01*
X132029349Y-65897661D01*
X132158856Y-66001045D01*
X132347139Y-66151349D01*
X132349520Y-66152919D01*
X132674362Y-66367112D01*
X132688989Y-66376757D01*
X132735302Y-66401590D01*
X133026121Y-66557526D01*
X133049860Y-66570255D01*
X133426784Y-66730250D01*
X133429522Y-66731129D01*
X133813931Y-66854549D01*
X133813935Y-66854550D01*
X133816657Y-66855424D01*
X133819447Y-66856048D01*
X133819452Y-66856049D01*
X134213477Y-66944125D01*
X134213488Y-66944127D01*
X134216271Y-66944749D01*
X134622335Y-66997487D01*
X135031509Y-67013206D01*
X135034371Y-67013056D01*
X135034372Y-67013056D01*
X135437566Y-66991926D01*
X135437573Y-66991925D01*
X135440422Y-66991776D01*
X135443245Y-66991369D01*
X135443247Y-66991369D01*
X135842889Y-66933780D01*
X135842896Y-66933779D01*
X135845711Y-66933373D01*
X136244038Y-66838478D01*
X136246736Y-66837570D01*
X136246743Y-66837568D01*
X136629414Y-66708785D01*
X136629420Y-66708783D01*
X136632126Y-66707872D01*
X137006779Y-66542630D01*
X137080890Y-66501550D01*
X137258145Y-66403296D01*
X137364914Y-66344113D01*
X137491041Y-66258397D01*
X137701198Y-66115575D01*
X137701200Y-66115573D01*
X137703583Y-66113954D01*
X137791790Y-66041500D01*
X138017779Y-65855870D01*
X138017783Y-65855867D01*
X138019998Y-65854047D01*
X138022036Y-65852038D01*
X138022043Y-65852031D01*
X138194562Y-65681904D01*
X138311555Y-65566533D01*
X138369597Y-65497850D01*
X138574008Y-65255963D01*
X138574013Y-65255957D01*
X138575854Y-65253778D01*
X138628132Y-65179118D01*
X138792626Y-64944195D01*
X138810719Y-64918356D01*
X139014217Y-64563027D01*
X139021321Y-64547511D01*
X139183485Y-64193316D01*
X139183488Y-64193307D01*
X139184674Y-64190718D01*
X139320685Y-63804492D01*
X139328222Y-63774708D01*
X139420430Y-63410307D01*
X139420431Y-63410303D01*
X139421133Y-63407528D01*
X139423031Y-63395548D01*
X139473423Y-63077380D01*
X139485189Y-63003095D01*
X139497237Y-62821699D01*
X139512210Y-62596271D01*
X139512210Y-62596260D01*
X139512326Y-62594520D01*
X139513316Y-62500000D01*
X139494741Y-62090947D01*
X139494163Y-62086723D01*
X139463491Y-61862817D01*
X139439169Y-61685260D01*
X139435052Y-61667425D01*
X139407485Y-61548023D01*
X139347057Y-61286280D01*
X139326574Y-61223980D01*
X139220057Y-60900005D01*
X139220054Y-60899998D01*
X139219164Y-60897290D01*
X139056542Y-60521492D01*
X138937956Y-60303990D01*
X138861899Y-60164492D01*
X138861895Y-60164485D01*
X138860529Y-60161980D01*
X138736643Y-59976921D01*
X138634332Y-59824090D01*
X138634324Y-59824079D01*
X138632740Y-59821713D01*
X138375049Y-59503491D01*
X138335888Y-59463220D01*
X138091567Y-59211980D01*
X138091563Y-59211976D01*
X138089577Y-59209934D01*
X138087419Y-59208084D01*
X138087409Y-59208075D01*
X137780849Y-58945321D01*
X137780844Y-58945317D01*
X137778675Y-58943458D01*
X137776344Y-58941801D01*
X137776337Y-58941796D01*
X137605774Y-58820584D01*
X137444900Y-58706257D01*
X137245702Y-58590321D01*
X137093474Y-58501722D01*
X137093469Y-58501719D01*
X137091001Y-58500283D01*
X136856342Y-58390860D01*
X136722487Y-58328442D01*
X136722477Y-58328438D01*
X136719891Y-58327232D01*
X136717194Y-58326261D01*
X136337314Y-58189495D01*
X136337305Y-58189492D01*
X136334624Y-58188527D01*
X136072247Y-58120183D01*
X135941140Y-58086032D01*
X135941134Y-58086031D01*
X135938371Y-58085311D01*
X135534395Y-58018433D01*
X135531552Y-58018224D01*
X135531550Y-58018224D01*
X135128865Y-57988653D01*
X135126019Y-57988444D01*
X134956043Y-57991411D01*
X134719458Y-57995540D01*
X134719453Y-57995540D01*
X134716607Y-57995590D01*
X134713774Y-57995898D01*
X134713770Y-57995898D01*
X134476214Y-58021705D01*
X134309527Y-58039813D01*
X133908130Y-58120749D01*
X133905402Y-58121562D01*
X133905391Y-58121565D01*
X133676623Y-58189764D01*
X133515721Y-58237731D01*
X133513060Y-58238795D01*
X133513058Y-58238796D01*
X133221280Y-58355499D01*
X133135529Y-58389797D01*
X133055759Y-58430442D01*
X132773227Y-58574399D01*
X132773222Y-58574402D01*
X132770684Y-58575695D01*
X132768265Y-58577218D01*
X132768262Y-58577220D01*
X132680814Y-58632289D01*
X132424189Y-58793894D01*
X132223670Y-58947202D01*
X132102390Y-59039928D01*
X132098896Y-59042599D01*
X132096785Y-59044540D01*
X132096784Y-59044541D01*
X132011853Y-59122639D01*
X131797483Y-59319763D01*
X131522430Y-59623104D01*
X131520706Y-59625391D01*
X131520705Y-59625393D01*
X131294096Y-59926114D01*
X131276002Y-59950125D01*
X131115667Y-60208719D01*
X131075198Y-60273990D01*
X131060227Y-60298135D01*
X131058947Y-60300691D01*
X131058942Y-60300700D01*
X130903636Y-60610840D01*
X130876881Y-60664269D01*
X130875840Y-60666925D01*
X130875837Y-60666932D01*
X130785561Y-60897290D01*
X130727473Y-61045513D01*
X130726681Y-61048240D01*
X130726677Y-61048251D01*
X130619691Y-61416500D01*
X130613233Y-61438729D01*
X130535101Y-61840681D01*
X130493721Y-62248060D01*
X130491083Y-62500000D01*
X130489433Y-62657512D01*
X126578721Y-62657512D01*
X116778957Y-52857747D01*
X116771417Y-52849461D01*
X116767305Y-52842982D01*
X116749593Y-52826349D01*
X116713628Y-52765136D01*
X116716467Y-52694197D01*
X116757208Y-52636053D01*
X116822916Y-52609165D01*
X116835847Y-52608500D01*
X145674979Y-52608500D01*
X145743100Y-52628502D01*
G37*
G04 #@! TD.AperFunction*
G04 #@! TA.AperFunction,Conductor*
G36*
X152853496Y-54599784D02*
G01*
X152898583Y-54628704D01*
X153006997Y-54736929D01*
X153013227Y-54740769D01*
X153013228Y-54740770D01*
X153143166Y-54820865D01*
X153155080Y-54828209D01*
X153320191Y-54882974D01*
X153327027Y-54883674D01*
X153327030Y-54883675D01*
X153378526Y-54888951D01*
X153422928Y-54893500D01*
X153570500Y-54893500D01*
X153638621Y-54913502D01*
X153685114Y-54967158D01*
X153696500Y-55019500D01*
X153696500Y-56045500D01*
X153676498Y-56113621D01*
X153622842Y-56160114D01*
X153570500Y-56171500D01*
X153369594Y-56171500D01*
X153301473Y-56151498D01*
X153280499Y-56134595D01*
X152239407Y-55093502D01*
X152205381Y-55031190D01*
X152210446Y-54960374D01*
X152252993Y-54903539D01*
X152301905Y-54881246D01*
X152307528Y-54880032D01*
X152458953Y-54829512D01*
X152472115Y-54823347D01*
X152607492Y-54739574D01*
X152618890Y-54730540D01*
X152720393Y-54628860D01*
X152782676Y-54594781D01*
X152853496Y-54599784D01*
G37*
G04 #@! TD.AperFunction*
G04 #@! TA.AperFunction,Conductor*
G36*
X154457923Y-50797229D02*
G01*
X154489551Y-50860791D01*
X154491500Y-50882868D01*
X154491500Y-52890365D01*
X154471498Y-52958486D01*
X154417842Y-53004979D01*
X154347568Y-53015083D01*
X154299382Y-52997623D01*
X154296154Y-52995633D01*
X154296149Y-52995631D01*
X154289920Y-52991791D01*
X154124809Y-52937026D01*
X154117973Y-52936326D01*
X154117970Y-52936325D01*
X154062714Y-52930664D01*
X154022072Y-52926500D01*
X153422928Y-52926500D01*
X153419682Y-52926837D01*
X153419678Y-52926837D01*
X153325765Y-52936581D01*
X153325761Y-52936582D01*
X153318907Y-52937293D01*
X153312371Y-52939474D01*
X153312369Y-52939474D01*
X153184520Y-52982128D01*
X153153893Y-52992346D01*
X153005969Y-53083884D01*
X152898899Y-53191141D01*
X152836618Y-53225220D01*
X152765798Y-53220217D01*
X152720709Y-53191296D01*
X152617871Y-53088637D01*
X152606460Y-53079625D01*
X152470937Y-52996088D01*
X152457759Y-52989944D01*
X152306234Y-52939685D01*
X152292868Y-52936819D01*
X152200230Y-52927328D01*
X152193815Y-52927000D01*
X152169615Y-52927000D01*
X152154376Y-52931475D01*
X152153171Y-52932865D01*
X152151500Y-52940548D01*
X152151500Y-54038000D01*
X152131498Y-54106121D01*
X152077842Y-54152614D01*
X152025500Y-54164000D01*
X151769500Y-54164000D01*
X151701379Y-54143998D01*
X151654886Y-54090342D01*
X151643500Y-54038000D01*
X151643500Y-52945115D01*
X151639025Y-52929876D01*
X151637635Y-52928671D01*
X151629952Y-52927000D01*
X151601234Y-52927000D01*
X151594718Y-52927337D01*
X151562657Y-52930664D01*
X151492836Y-52917800D01*
X151441054Y-52869229D01*
X151428656Y-52840488D01*
X151426018Y-52831407D01*
X151421985Y-52824588D01*
X151421983Y-52824583D01*
X151415707Y-52813972D01*
X151407012Y-52796224D01*
X151399552Y-52777383D01*
X151373564Y-52741613D01*
X151367048Y-52731693D01*
X151348580Y-52700465D01*
X151348578Y-52700462D01*
X151344542Y-52693638D01*
X151330221Y-52679317D01*
X151317380Y-52664283D01*
X151305472Y-52647893D01*
X151271395Y-52619702D01*
X151262616Y-52611712D01*
X150938059Y-52287155D01*
X150904033Y-52224843D01*
X150909098Y-52154028D01*
X150951645Y-52097192D01*
X151018165Y-52072381D01*
X151046865Y-52073611D01*
X151119881Y-52085176D01*
X151119889Y-52085177D01*
X151123129Y-52085690D01*
X151405720Y-52100500D01*
X151594280Y-52100500D01*
X151876871Y-52085690D01*
X151880111Y-52085177D01*
X151880119Y-52085176D01*
X152051647Y-52058008D01*
X152249613Y-52026653D01*
X152614143Y-51928978D01*
X152966465Y-51793734D01*
X153154901Y-51697721D01*
X153299779Y-51623902D01*
X153299786Y-51623898D01*
X153302720Y-51622403D01*
X153322237Y-51609729D01*
X153514193Y-51485072D01*
X153619225Y-51416863D01*
X153912511Y-51179365D01*
X154179365Y-50912511D01*
X154267582Y-50803572D01*
X154325994Y-50763222D01*
X154396951Y-50760856D01*
X154457923Y-50797229D01*
G37*
G04 #@! TD.AperFunction*
M02*
