G04 #@! TF.GenerationSoftware,KiCad,Pcbnew,(6.0.9)*
G04 #@! TF.CreationDate,2022-12-04T16:37:35+01:00*
G04 #@! TF.ProjectId,HeaterMCU,48656174-6572-44d4-9355-2e6b69636164,rev?*
G04 #@! TF.SameCoordinates,Original*
G04 #@! TF.FileFunction,Soldermask,Bot*
G04 #@! TF.FilePolarity,Negative*
%FSLAX46Y46*%
G04 Gerber Fmt 4.6, Leading zero omitted, Abs format (unit mm)*
G04 Created by KiCad (PCBNEW (6.0.9)) date 2022-12-04 16:37:35*
%MOMM*%
%LPD*%
G01*
G04 APERTURE LIST*
G04 Aperture macros list*
%AMRoundRect*
0 Rectangle with rounded corners*
0 $1 Rounding radius*
0 $2 $3 $4 $5 $6 $7 $8 $9 X,Y pos of 4 corners*
0 Add a 4 corners polygon primitive as box body*
4,1,4,$2,$3,$4,$5,$6,$7,$8,$9,$2,$3,0*
0 Add four circle primitives for the rounded corners*
1,1,$1+$1,$2,$3*
1,1,$1+$1,$4,$5*
1,1,$1+$1,$6,$7*
1,1,$1+$1,$8,$9*
0 Add four rect primitives between the rounded corners*
20,1,$1+$1,$2,$3,$4,$5,0*
20,1,$1+$1,$4,$5,$6,$7,0*
20,1,$1+$1,$6,$7,$8,$9,0*
20,1,$1+$1,$8,$9,$2,$3,0*%
G04 Aperture macros list end*
%ADD10R,1.700000X1.700000*%
%ADD11O,1.700000X1.700000*%
%ADD12RoundRect,0.237500X0.287500X0.237500X-0.287500X0.237500X-0.287500X-0.237500X0.287500X-0.237500X0*%
%ADD13C,0.700000*%
%ADD14R,1.600000X1.200000*%
%ADD15C,2.700000*%
%ADD16C,1.700000*%
%ADD17RoundRect,0.237500X-0.237500X0.300000X-0.237500X-0.300000X0.237500X-0.300000X0.237500X0.300000X0*%
%ADD18RoundRect,0.237500X-0.300000X-0.237500X0.300000X-0.237500X0.300000X0.237500X-0.300000X0.237500X0*%
%ADD19R,1.500000X0.550000*%
%ADD20R,0.550000X1.500000*%
%ADD21C,3.200000*%
%ADD22RoundRect,0.237500X0.237500X-0.250000X0.237500X0.250000X-0.237500X0.250000X-0.237500X-0.250000X0*%
%ADD23RoundRect,0.237500X0.300000X0.237500X-0.300000X0.237500X-0.300000X-0.237500X0.300000X-0.237500X0*%
%ADD24R,1.560000X0.400000*%
%ADD25RoundRect,0.237500X-0.250000X-0.237500X0.250000X-0.237500X0.250000X0.237500X-0.250000X0.237500X0*%
%ADD26RoundRect,0.237500X0.237500X-0.300000X0.237500X0.300000X-0.237500X0.300000X-0.237500X-0.300000X0*%
%ADD27R,4.500000X2.000000*%
%ADD28RoundRect,0.237500X0.250000X0.237500X-0.250000X0.237500X-0.250000X-0.237500X0.250000X-0.237500X0*%
%ADD29RoundRect,0.237500X-0.237500X0.250000X-0.237500X-0.250000X0.237500X-0.250000X0.237500X0.250000X0*%
G04 APERTURE END LIST*
D10*
X74170000Y-47180000D03*
D11*
X79250000Y-47180000D03*
X81790000Y-47180000D03*
X84330000Y-47180000D03*
X86870000Y-47180000D03*
D12*
X92225000Y-70425000D03*
X93975000Y-70425000D03*
D13*
X66820000Y-45950500D03*
X66820000Y-48554000D03*
D14*
X64470500Y-46310000D03*
X69169500Y-46310000D03*
X64470500Y-48194500D03*
X69169500Y-48194500D03*
D15*
X93262500Y-50237500D03*
X93262500Y-74637500D03*
D10*
X57762500Y-70057500D03*
D16*
X57762500Y-67517500D03*
X57762500Y-64977500D03*
X57762500Y-62437500D03*
X57762500Y-59897500D03*
X57762500Y-57357500D03*
X57762500Y-54817500D03*
D17*
X81725000Y-50262500D03*
X81725000Y-51987500D03*
X84300000Y-50262500D03*
X84300000Y-51987500D03*
D11*
X144350000Y-71130000D03*
D10*
X144350000Y-68590000D03*
X144355000Y-56925000D03*
D11*
X144355000Y-59465000D03*
D18*
X76550000Y-65950000D03*
X78275000Y-65950000D03*
D19*
X74300000Y-58100000D03*
X74300000Y-58900000D03*
X74300000Y-59700000D03*
X74300000Y-60500000D03*
X74300000Y-61300000D03*
X74300000Y-62100000D03*
X74300000Y-62900000D03*
X74300000Y-63700000D03*
D20*
X72900000Y-65100000D03*
X72100000Y-65100000D03*
X71300000Y-65100000D03*
X70500000Y-65100000D03*
X69700000Y-65100000D03*
X68900000Y-65100000D03*
X68100000Y-65100000D03*
X67300000Y-65100000D03*
D19*
X65900000Y-63700000D03*
X65900000Y-62900000D03*
X65900000Y-62100000D03*
X65900000Y-61300000D03*
X65900000Y-60500000D03*
X65900000Y-59700000D03*
X65900000Y-58900000D03*
X65900000Y-58100000D03*
D20*
X67300000Y-56700000D03*
X68100000Y-56700000D03*
X68900000Y-56700000D03*
X69700000Y-56700000D03*
X70500000Y-56700000D03*
X71300000Y-56700000D03*
X72100000Y-56700000D03*
X72900000Y-56700000D03*
D18*
X87837500Y-63450000D03*
X89562500Y-63450000D03*
D21*
X151500000Y-48500000D03*
D22*
X84300000Y-55687500D03*
X84300000Y-53862500D03*
D23*
X84112500Y-65950000D03*
X82387500Y-65950000D03*
D24*
X90050000Y-59720000D03*
X90050000Y-60370000D03*
X90050000Y-61030000D03*
X90050000Y-61680000D03*
X87350000Y-61680000D03*
X87350000Y-61030000D03*
X87350000Y-60370000D03*
X87350000Y-59720000D03*
D25*
X92587500Y-60350000D03*
X94412500Y-60350000D03*
D10*
X98000000Y-56175000D03*
D11*
X98000000Y-58715000D03*
X98000000Y-61255000D03*
X98000000Y-63795000D03*
X98000000Y-66335000D03*
X98000000Y-68875000D03*
D25*
X92562500Y-57750000D03*
X94387500Y-57750000D03*
X73050000Y-74500000D03*
X71225000Y-74500000D03*
D17*
X77000000Y-61312500D03*
X77000000Y-59587500D03*
D21*
X151500000Y-76500000D03*
D26*
X60275000Y-70087500D03*
X60275000Y-68362500D03*
D21*
X58500000Y-76500000D03*
D22*
X81725000Y-61387500D03*
X81725000Y-59562500D03*
D27*
X75600000Y-69950000D03*
X84100000Y-69950000D03*
D28*
X86587500Y-74500000D03*
X88412500Y-74500000D03*
D25*
X65212500Y-74500000D03*
X63387500Y-74500000D03*
D28*
X78887500Y-74500000D03*
X80712500Y-74500000D03*
D26*
X60850000Y-64382500D03*
X60850000Y-62657500D03*
D23*
X71300000Y-52100000D03*
X73025000Y-52100000D03*
D18*
X87837500Y-57150000D03*
X89562500Y-57150000D03*
D21*
X58500000Y-48500000D03*
D22*
X81700000Y-55712500D03*
X81700000Y-53887500D03*
D26*
X63000000Y-62657500D03*
X63000000Y-64382500D03*
D29*
X84275000Y-59537500D03*
X84275000Y-61362500D03*
D28*
X73075000Y-50150000D03*
X71250000Y-50150000D03*
M02*
