G04 #@! TF.GenerationSoftware,KiCad,Pcbnew,(6.0.10)*
G04 #@! TF.CreationDate,2023-01-23T18:48:08+01:00*
G04 #@! TF.ProjectId,HeaterMCU,48656174-6572-44d4-9355-2e6b69636164,rev?*
G04 #@! TF.SameCoordinates,Original*
G04 #@! TF.FileFunction,Legend,Bot*
G04 #@! TF.FilePolarity,Positive*
%FSLAX46Y46*%
G04 Gerber Fmt 4.6, Leading zero omitted, Abs format (unit mm)*
G04 Created by KiCad (PCBNEW (6.0.10)) date 2023-01-23 18:48:08*
%MOMM*%
%LPD*%
G01*
G04 APERTURE LIST*
G04 Aperture macros list*
%AMRoundRect*
0 Rectangle with rounded corners*
0 $1 Rounding radius*
0 $2 $3 $4 $5 $6 $7 $8 $9 X,Y pos of 4 corners*
0 Add a 4 corners polygon primitive as box body*
4,1,4,$2,$3,$4,$5,$6,$7,$8,$9,$2,$3,0*
0 Add four circle primitives for the rounded corners*
1,1,$1+$1,$2,$3*
1,1,$1+$1,$4,$5*
1,1,$1+$1,$6,$7*
1,1,$1+$1,$8,$9*
0 Add four rect primitives between the rounded corners*
20,1,$1+$1,$2,$3,$4,$5,0*
20,1,$1+$1,$4,$5,$6,$7,0*
20,1,$1+$1,$6,$7,$8,$9,0*
20,1,$1+$1,$8,$9,$2,$3,0*%
G04 Aperture macros list end*
%ADD10C,0.150000*%
%ADD11C,0.300000*%
%ADD12C,0.100000*%
%ADD13C,0.120000*%
%ADD14RoundRect,0.237500X0.250000X0.237500X-0.250000X0.237500X-0.250000X-0.237500X0.250000X-0.237500X0*%
%ADD15C,3.200000*%
%ADD16C,2.700000*%
%ADD17R,1.700000X1.700000*%
%ADD18C,1.700000*%
%ADD19RoundRect,0.237500X-0.250000X-0.237500X0.250000X-0.237500X0.250000X0.237500X-0.250000X0.237500X0*%
%ADD20RoundRect,0.237500X0.237500X-0.300000X0.237500X0.300000X-0.237500X0.300000X-0.237500X-0.300000X0*%
%ADD21R,0.550000X1.500000*%
%ADD22R,1.500000X0.550000*%
%ADD23RoundRect,0.237500X-0.300000X-0.237500X0.300000X-0.237500X0.300000X0.237500X-0.300000X0.237500X0*%
%ADD24RoundRect,0.237500X0.300000X0.237500X-0.300000X0.237500X-0.300000X-0.237500X0.300000X-0.237500X0*%
%ADD25RoundRect,0.237500X-0.237500X0.300000X-0.237500X-0.300000X0.237500X-0.300000X0.237500X0.300000X0*%
%ADD26R,1.560000X0.400000*%
%ADD27RoundRect,0.150000X-0.150000X0.587500X-0.150000X-0.587500X0.150000X-0.587500X0.150000X0.587500X0*%
%ADD28O,1.700000X1.700000*%
%ADD29R,2.000000X4.500000*%
%ADD30RoundRect,0.237500X0.237500X-0.250000X0.237500X0.250000X-0.237500X0.250000X-0.237500X-0.250000X0*%
%ADD31R,1.600000X1.200000*%
%ADD32C,0.700000*%
%ADD33RoundRect,0.237500X-0.237500X0.250000X-0.237500X-0.250000X0.237500X-0.250000X0.237500X0.250000X0*%
G04 APERTURE END LIST*
D10*
X85885714Y-75128571D02*
X86219047Y-75128571D01*
X86219047Y-75652380D02*
X86219047Y-74652380D01*
X85742857Y-74652380D01*
X85361904Y-75652380D02*
X85361904Y-74985714D01*
X85361904Y-74652380D02*
X85409523Y-74700000D01*
X85361904Y-74747619D01*
X85314285Y-74700000D01*
X85361904Y-74652380D01*
X85361904Y-74747619D01*
X84885714Y-75652380D02*
X84885714Y-74985714D01*
X84885714Y-75176190D02*
X84838095Y-75080952D01*
X84790476Y-75033333D01*
X84695238Y-74985714D01*
X84600000Y-74985714D01*
X84266666Y-75652380D02*
X84266666Y-74985714D01*
X84266666Y-75080952D02*
X84219047Y-75033333D01*
X84123809Y-74985714D01*
X83980952Y-74985714D01*
X83885714Y-75033333D01*
X83838095Y-75128571D01*
X83838095Y-75652380D01*
X83838095Y-75128571D02*
X83790476Y-75033333D01*
X83695238Y-74985714D01*
X83552380Y-74985714D01*
X83457142Y-75033333D01*
X83409523Y-75128571D01*
X83409523Y-75652380D01*
X83028571Y-74985714D02*
X82838095Y-75652380D01*
X82647619Y-75176190D01*
X82457142Y-75652380D01*
X82266666Y-74985714D01*
X81457142Y-75652380D02*
X81457142Y-75128571D01*
X81504761Y-75033333D01*
X81600000Y-74985714D01*
X81790476Y-74985714D01*
X81885714Y-75033333D01*
X81457142Y-75604761D02*
X81552380Y-75652380D01*
X81790476Y-75652380D01*
X81885714Y-75604761D01*
X81933333Y-75509523D01*
X81933333Y-75414285D01*
X81885714Y-75319047D01*
X81790476Y-75271428D01*
X81552380Y-75271428D01*
X81457142Y-75223809D01*
X80980952Y-75652380D02*
X80980952Y-74985714D01*
X80980952Y-75176190D02*
X80933333Y-75080952D01*
X80885714Y-75033333D01*
X80790476Y-74985714D01*
X80695238Y-74985714D01*
X79980952Y-75604761D02*
X80076190Y-75652380D01*
X80266666Y-75652380D01*
X80361904Y-75604761D01*
X80409523Y-75509523D01*
X80409523Y-75128571D01*
X80361904Y-75033333D01*
X80266666Y-74985714D01*
X80076190Y-74985714D01*
X79980952Y-75033333D01*
X79933333Y-75128571D01*
X79933333Y-75223809D01*
X80409523Y-75319047D01*
D11*
X83300000Y-67735714D02*
X83228571Y-67807142D01*
X83300000Y-67878571D01*
X83371428Y-67807142D01*
X83300000Y-67735714D01*
X83300000Y-67878571D01*
X92900000Y-55035714D02*
X92828571Y-55107142D01*
X92900000Y-55178571D01*
X92971428Y-55107142D01*
X92900000Y-55035714D01*
X92900000Y-55178571D01*
D10*
X113895238Y-78461904D02*
X113895238Y-79033333D01*
X113933333Y-79147619D01*
X114009523Y-79223809D01*
X114123809Y-79261904D01*
X114200000Y-79261904D01*
X113133333Y-79261904D02*
X113514285Y-79261904D01*
X113514285Y-78461904D01*
X112409523Y-79185714D02*
X112447619Y-79223809D01*
X112561904Y-79261904D01*
X112638095Y-79261904D01*
X112752380Y-79223809D01*
X112828571Y-79147619D01*
X112866666Y-79071428D01*
X112904761Y-78919047D01*
X112904761Y-78804761D01*
X112866666Y-78652380D01*
X112828571Y-78576190D01*
X112752380Y-78500000D01*
X112638095Y-78461904D01*
X112561904Y-78461904D01*
X112447619Y-78500000D01*
X112409523Y-78538095D01*
X111838095Y-78461904D02*
X111838095Y-79033333D01*
X111876190Y-79147619D01*
X111952380Y-79223809D01*
X112066666Y-79261904D01*
X112142857Y-79261904D01*
X111076190Y-79261904D02*
X111457142Y-79261904D01*
X111457142Y-78461904D01*
X110352380Y-79185714D02*
X110390476Y-79223809D01*
X110504761Y-79261904D01*
X110580952Y-79261904D01*
X110695238Y-79223809D01*
X110771428Y-79147619D01*
X110809523Y-79071428D01*
X110847619Y-78919047D01*
X110847619Y-78804761D01*
X110809523Y-78652380D01*
X110771428Y-78576190D01*
X110695238Y-78500000D01*
X110580952Y-78461904D01*
X110504761Y-78461904D01*
X110390476Y-78500000D01*
X110352380Y-78538095D01*
X109780952Y-78461904D02*
X109780952Y-79033333D01*
X109819047Y-79147619D01*
X109895238Y-79223809D01*
X110009523Y-79261904D01*
X110085714Y-79261904D01*
X109019047Y-79261904D02*
X109400000Y-79261904D01*
X109400000Y-78461904D01*
X108295238Y-79185714D02*
X108333333Y-79223809D01*
X108447619Y-79261904D01*
X108523809Y-79261904D01*
X108638095Y-79223809D01*
X108714285Y-79147619D01*
X108752380Y-79071428D01*
X108790476Y-78919047D01*
X108790476Y-78804761D01*
X108752380Y-78652380D01*
X108714285Y-78576190D01*
X108638095Y-78500000D01*
X108523809Y-78461904D01*
X108447619Y-78461904D01*
X108333333Y-78500000D01*
X108295238Y-78538095D01*
X107723809Y-78461904D02*
X107723809Y-79033333D01*
X107761904Y-79147619D01*
X107838095Y-79223809D01*
X107952380Y-79261904D01*
X108028571Y-79261904D01*
X106961904Y-79261904D02*
X107342857Y-79261904D01*
X107342857Y-78461904D01*
X106238095Y-79185714D02*
X106276190Y-79223809D01*
X106390476Y-79261904D01*
X106466666Y-79261904D01*
X106580952Y-79223809D01*
X106657142Y-79147619D01*
X106695238Y-79071428D01*
X106733333Y-78919047D01*
X106733333Y-78804761D01*
X106695238Y-78652380D01*
X106657142Y-78576190D01*
X106580952Y-78500000D01*
X106466666Y-78461904D01*
X106390476Y-78461904D01*
X106276190Y-78500000D01*
X106238095Y-78538095D01*
X117580952Y-73725714D02*
X117580952Y-74725714D01*
X117104761Y-74249523D02*
X117057142Y-74344761D01*
X116961904Y-74392380D01*
X117580952Y-74249523D02*
X117533333Y-74344761D01*
X117438095Y-74392380D01*
X117247619Y-74392380D01*
X117152380Y-74344761D01*
X117104761Y-74249523D01*
X117104761Y-73725714D01*
X116676190Y-73392380D02*
X116104761Y-73392380D01*
X116390476Y-74392380D02*
X116390476Y-73392380D01*
X115771428Y-74392380D02*
X115771428Y-73725714D01*
X115771428Y-73916190D02*
X115723809Y-73820952D01*
X115676190Y-73773333D01*
X115580952Y-73725714D01*
X115485714Y-73725714D01*
X114723809Y-74392380D02*
X114723809Y-73868571D01*
X114771428Y-73773333D01*
X114866666Y-73725714D01*
X115057142Y-73725714D01*
X115152380Y-73773333D01*
X114723809Y-74344761D02*
X114819047Y-74392380D01*
X115057142Y-74392380D01*
X115152380Y-74344761D01*
X115200000Y-74249523D01*
X115200000Y-74154285D01*
X115152380Y-74059047D01*
X115057142Y-74011428D01*
X114819047Y-74011428D01*
X114723809Y-73963809D01*
X113819047Y-74344761D02*
X113914285Y-74392380D01*
X114104761Y-74392380D01*
X114200000Y-74344761D01*
X114247619Y-74297142D01*
X114295238Y-74201904D01*
X114295238Y-73916190D01*
X114247619Y-73820952D01*
X114200000Y-73773333D01*
X114104761Y-73725714D01*
X113914285Y-73725714D01*
X113819047Y-73773333D01*
X113009523Y-74344761D02*
X113104761Y-74392380D01*
X113295238Y-74392380D01*
X113390476Y-74344761D01*
X113438095Y-74249523D01*
X113438095Y-73868571D01*
X113390476Y-73773333D01*
X113295238Y-73725714D01*
X113104761Y-73725714D01*
X113009523Y-73773333D01*
X112961904Y-73868571D01*
X112961904Y-73963809D01*
X113438095Y-74059047D01*
X112533333Y-74392380D02*
X112533333Y-73725714D01*
X112533333Y-73916190D02*
X112485714Y-73820952D01*
X112438095Y-73773333D01*
X112342857Y-73725714D01*
X112247619Y-73725714D01*
X111152380Y-74392380D02*
X111152380Y-73392380D01*
X111152380Y-73868571D02*
X110580952Y-73868571D01*
X110580952Y-74392380D02*
X110580952Y-73392380D01*
X109723809Y-74344761D02*
X109819047Y-74392380D01*
X110009523Y-74392380D01*
X110104761Y-74344761D01*
X110152380Y-74249523D01*
X110152380Y-73868571D01*
X110104761Y-73773333D01*
X110009523Y-73725714D01*
X109819047Y-73725714D01*
X109723809Y-73773333D01*
X109676190Y-73868571D01*
X109676190Y-73963809D01*
X110152380Y-74059047D01*
X108819047Y-74392380D02*
X108819047Y-73868571D01*
X108866666Y-73773333D01*
X108961904Y-73725714D01*
X109152380Y-73725714D01*
X109247619Y-73773333D01*
X108819047Y-74344761D02*
X108914285Y-74392380D01*
X109152380Y-74392380D01*
X109247619Y-74344761D01*
X109295238Y-74249523D01*
X109295238Y-74154285D01*
X109247619Y-74059047D01*
X109152380Y-74011428D01*
X108914285Y-74011428D01*
X108819047Y-73963809D01*
X108485714Y-73725714D02*
X108104761Y-73725714D01*
X108342857Y-73392380D02*
X108342857Y-74249523D01*
X108295238Y-74344761D01*
X108200000Y-74392380D01*
X108104761Y-74392380D01*
X107390476Y-74344761D02*
X107485714Y-74392380D01*
X107676190Y-74392380D01*
X107771428Y-74344761D01*
X107819047Y-74249523D01*
X107819047Y-73868571D01*
X107771428Y-73773333D01*
X107676190Y-73725714D01*
X107485714Y-73725714D01*
X107390476Y-73773333D01*
X107342857Y-73868571D01*
X107342857Y-73963809D01*
X107819047Y-74059047D01*
X106914285Y-74392380D02*
X106914285Y-73725714D01*
X106914285Y-73916190D02*
X106866666Y-73820952D01*
X106819047Y-73773333D01*
X106723809Y-73725714D01*
X106628571Y-73725714D01*
X105533333Y-74392380D02*
X105533333Y-73392380D01*
X105200000Y-74106666D01*
X104866666Y-73392380D01*
X104866666Y-74392380D01*
X103819047Y-74297142D02*
X103866666Y-74344761D01*
X104009523Y-74392380D01*
X104104761Y-74392380D01*
X104247619Y-74344761D01*
X104342857Y-74249523D01*
X104390476Y-74154285D01*
X104438095Y-73963809D01*
X104438095Y-73820952D01*
X104390476Y-73630476D01*
X104342857Y-73535238D01*
X104247619Y-73440000D01*
X104104761Y-73392380D01*
X104009523Y-73392380D01*
X103866666Y-73440000D01*
X103819047Y-73487619D01*
X103390476Y-73392380D02*
X103390476Y-74201904D01*
X103342857Y-74297142D01*
X103295238Y-74344761D01*
X103200000Y-74392380D01*
X103009523Y-74392380D01*
X102914285Y-74344761D01*
X102866666Y-74297142D01*
X102819047Y-74201904D01*
X102819047Y-73392380D01*
X115009523Y-75097619D02*
X114961904Y-75050000D01*
X114866666Y-75002380D01*
X114628571Y-75002380D01*
X114533333Y-75050000D01*
X114485714Y-75097619D01*
X114438095Y-75192857D01*
X114438095Y-75288095D01*
X114485714Y-75430952D01*
X115057142Y-76002380D01*
X114438095Y-76002380D01*
X114057142Y-75097619D02*
X114009523Y-75050000D01*
X113914285Y-75002380D01*
X113676190Y-75002380D01*
X113580952Y-75050000D01*
X113533333Y-75097619D01*
X113485714Y-75192857D01*
X113485714Y-75288095D01*
X113533333Y-75430952D01*
X114104761Y-76002380D01*
X113485714Y-76002380D01*
X113295238Y-76097619D02*
X112533333Y-76097619D01*
X111866666Y-75335714D02*
X111866666Y-76002380D01*
X112104761Y-74954761D02*
X112342857Y-75669047D01*
X111723809Y-75669047D01*
X111438095Y-75002380D02*
X110819047Y-75002380D01*
X111152380Y-75383333D01*
X111009523Y-75383333D01*
X110914285Y-75430952D01*
X110866666Y-75478571D01*
X110819047Y-75573809D01*
X110819047Y-75811904D01*
X110866666Y-75907142D01*
X110914285Y-75954761D01*
X111009523Y-76002380D01*
X111295238Y-76002380D01*
X111390476Y-75954761D01*
X111438095Y-75907142D01*
X110628571Y-76097619D02*
X109866666Y-76097619D01*
X109438095Y-75002380D02*
X109342857Y-75002380D01*
X109247619Y-75050000D01*
X109200000Y-75097619D01*
X109152380Y-75192857D01*
X109104761Y-75383333D01*
X109104761Y-75621428D01*
X109152380Y-75811904D01*
X109200000Y-75907142D01*
X109247619Y-75954761D01*
X109342857Y-76002380D01*
X109438095Y-76002380D01*
X109533333Y-75954761D01*
X109580952Y-75907142D01*
X109628571Y-75811904D01*
X109676190Y-75621428D01*
X109676190Y-75383333D01*
X109628571Y-75192857D01*
X109580952Y-75097619D01*
X109533333Y-75050000D01*
X109438095Y-75002380D01*
X108152380Y-76002380D02*
X108723809Y-76002380D01*
X108438095Y-76002380D02*
X108438095Y-75002380D01*
X108533333Y-75145238D01*
X108628571Y-75240476D01*
X108723809Y-75288095D01*
X107771428Y-75097619D02*
X107723809Y-75050000D01*
X107628571Y-75002380D01*
X107390476Y-75002380D01*
X107295238Y-75050000D01*
X107247619Y-75097619D01*
X107200000Y-75192857D01*
X107200000Y-75288095D01*
X107247619Y-75430952D01*
X107819047Y-76002380D01*
X107200000Y-76002380D01*
X106580952Y-75002380D02*
X106485714Y-75002380D01*
X106390476Y-75050000D01*
X106342857Y-75097619D01*
X106295238Y-75192857D01*
X106247619Y-75383333D01*
X106247619Y-75621428D01*
X106295238Y-75811904D01*
X106342857Y-75907142D01*
X106390476Y-75954761D01*
X106485714Y-76002380D01*
X106580952Y-76002380D01*
X106676190Y-75954761D01*
X106723809Y-75907142D01*
X106771428Y-75811904D01*
X106819047Y-75621428D01*
X106819047Y-75383333D01*
X106771428Y-75192857D01*
X106723809Y-75097619D01*
X106676190Y-75050000D01*
X106580952Y-75002380D01*
X105485714Y-75478571D02*
X105819047Y-75478571D01*
X105819047Y-76002380D02*
X105819047Y-75002380D01*
X105342857Y-75002380D01*
X115652380Y-77088571D02*
X115509523Y-77136190D01*
X115461904Y-77183809D01*
X115414285Y-77279047D01*
X115414285Y-77421904D01*
X115461904Y-77517142D01*
X115509523Y-77564761D01*
X115604761Y-77612380D01*
X115985714Y-77612380D01*
X115985714Y-76612380D01*
X115652380Y-76612380D01*
X115557142Y-76660000D01*
X115509523Y-76707619D01*
X115461904Y-76802857D01*
X115461904Y-76898095D01*
X115509523Y-76993333D01*
X115557142Y-77040952D01*
X115652380Y-77088571D01*
X115985714Y-77088571D01*
X114985714Y-76945714D02*
X114985714Y-77802857D01*
X115033333Y-77898095D01*
X115128571Y-77945714D01*
X115176190Y-77945714D01*
X114985714Y-76612380D02*
X115033333Y-76660000D01*
X114985714Y-76707619D01*
X114938095Y-76660000D01*
X114985714Y-76612380D01*
X114985714Y-76707619D01*
X113985714Y-76945714D02*
X114604761Y-77612380D01*
X114366666Y-77612380D02*
X114461904Y-77564761D01*
X114509523Y-77517142D01*
X114557142Y-77421904D01*
X114557142Y-77136190D01*
X114509523Y-77040952D01*
X114461904Y-76993333D01*
X114366666Y-76945714D01*
X114223809Y-76945714D01*
X114128571Y-76993333D01*
X114080952Y-77040952D01*
X114033333Y-77136190D01*
X114033333Y-77421904D01*
X114080952Y-77517142D01*
X114128571Y-77564761D01*
X114223809Y-77612380D01*
X114366666Y-77612380D01*
X113604761Y-77612380D02*
X113604761Y-76945714D01*
X113604761Y-77136190D02*
X113557142Y-77040952D01*
X113509523Y-76993333D01*
X113414285Y-76945714D01*
X113319047Y-76945714D01*
X112985714Y-76945714D02*
X112985714Y-77612380D01*
X112985714Y-77040952D02*
X112938095Y-76993333D01*
X112842857Y-76945714D01*
X112700000Y-76945714D01*
X112604761Y-76993333D01*
X112557142Y-77088571D01*
X112557142Y-77612380D01*
X111700000Y-77564761D02*
X111795238Y-77612380D01*
X111985714Y-77612380D01*
X112080952Y-77564761D01*
X112128571Y-77469523D01*
X112128571Y-77088571D01*
X112080952Y-76993333D01*
X111985714Y-76945714D01*
X111795238Y-76945714D01*
X111700000Y-76993333D01*
X111652380Y-77088571D01*
X111652380Y-77183809D01*
X112128571Y-77279047D01*
X111223809Y-77612380D02*
X111223809Y-76945714D01*
X111223809Y-77136190D02*
X111176190Y-77040952D01*
X111128571Y-76993333D01*
X111033333Y-76945714D01*
X110938095Y-76945714D01*
X109890476Y-77564761D02*
X109747619Y-77612380D01*
X109509523Y-77612380D01*
X109414285Y-77564761D01*
X109366666Y-77517142D01*
X109319047Y-77421904D01*
X109319047Y-77326666D01*
X109366666Y-77231428D01*
X109414285Y-77183809D01*
X109509523Y-77136190D01*
X109700000Y-77088571D01*
X109795238Y-77040952D01*
X109842857Y-76993333D01*
X109890476Y-76898095D01*
X109890476Y-76802857D01*
X109842857Y-76707619D01*
X109795238Y-76660000D01*
X109700000Y-76612380D01*
X109461904Y-76612380D01*
X109319047Y-76660000D01*
X108461904Y-77612380D02*
X108461904Y-77088571D01*
X108509523Y-76993333D01*
X108604761Y-76945714D01*
X108795238Y-76945714D01*
X108890476Y-76993333D01*
X108461904Y-77564761D02*
X108557142Y-77612380D01*
X108795238Y-77612380D01*
X108890476Y-77564761D01*
X108938095Y-77469523D01*
X108938095Y-77374285D01*
X108890476Y-77279047D01*
X108795238Y-77231428D01*
X108557142Y-77231428D01*
X108461904Y-77183809D01*
X107985714Y-76945714D02*
X107985714Y-77612380D01*
X107985714Y-77040952D02*
X107938095Y-76993333D01*
X107842857Y-76945714D01*
X107700000Y-76945714D01*
X107604761Y-76993333D01*
X107557142Y-77088571D01*
X107557142Y-77612380D01*
X106652380Y-77612380D02*
X106652380Y-76612380D01*
X106652380Y-77564761D02*
X106747619Y-77612380D01*
X106938095Y-77612380D01*
X107033333Y-77564761D01*
X107080952Y-77517142D01*
X107128571Y-77421904D01*
X107128571Y-77136190D01*
X107080952Y-77040952D01*
X107033333Y-76993333D01*
X106938095Y-76945714D01*
X106747619Y-76945714D01*
X106652380Y-76993333D01*
X106033333Y-77612380D02*
X106128571Y-77564761D01*
X106176190Y-77517142D01*
X106223809Y-77421904D01*
X106223809Y-77136190D01*
X106176190Y-77040952D01*
X106128571Y-76993333D01*
X106033333Y-76945714D01*
X105890476Y-76945714D01*
X105795238Y-76993333D01*
X105747619Y-77040952D01*
X105700000Y-77136190D01*
X105700000Y-77421904D01*
X105747619Y-77517142D01*
X105795238Y-77564761D01*
X105890476Y-77612380D01*
X106033333Y-77612380D01*
X105271428Y-77612380D02*
X105271428Y-76945714D01*
X105271428Y-77040952D02*
X105223809Y-76993333D01*
X105128571Y-76945714D01*
X104985714Y-76945714D01*
X104890476Y-76993333D01*
X104842857Y-77088571D01*
X104842857Y-77612380D01*
X104842857Y-77088571D02*
X104795238Y-76993333D01*
X104700000Y-76945714D01*
X104557142Y-76945714D01*
X104461904Y-76993333D01*
X104414285Y-77088571D01*
X104414285Y-77612380D01*
D12*
X88545238Y-51511904D02*
X88811904Y-51130952D01*
X89002380Y-51511904D02*
X89002380Y-50711904D01*
X88697619Y-50711904D01*
X88621428Y-50750000D01*
X88583333Y-50788095D01*
X88545238Y-50864285D01*
X88545238Y-50978571D01*
X88583333Y-51054761D01*
X88621428Y-51092857D01*
X88697619Y-51130952D01*
X89002380Y-51130952D01*
X88278571Y-50711904D02*
X87783333Y-50711904D01*
X88050000Y-51016666D01*
X87935714Y-51016666D01*
X87859523Y-51054761D01*
X87821428Y-51092857D01*
X87783333Y-51169047D01*
X87783333Y-51359523D01*
X87821428Y-51435714D01*
X87859523Y-51473809D01*
X87935714Y-51511904D01*
X88164285Y-51511904D01*
X88240476Y-51473809D01*
X88278571Y-51435714D01*
X87478571Y-50788095D02*
X87440476Y-50750000D01*
X87364285Y-50711904D01*
X87173809Y-50711904D01*
X87097619Y-50750000D01*
X87059523Y-50788095D01*
X87021428Y-50864285D01*
X87021428Y-50940476D01*
X87059523Y-51054761D01*
X87516666Y-51511904D01*
X87021428Y-51511904D01*
X86526190Y-50711904D02*
X86450000Y-50711904D01*
X86373809Y-50750000D01*
X86335714Y-50788095D01*
X86297619Y-50864285D01*
X86259523Y-51016666D01*
X86259523Y-51207142D01*
X86297619Y-51359523D01*
X86335714Y-51435714D01*
X86373809Y-51473809D01*
X86450000Y-51511904D01*
X86526190Y-51511904D01*
X86602380Y-51473809D01*
X86640476Y-51435714D01*
X86678571Y-51359523D01*
X86716666Y-51207142D01*
X86716666Y-51016666D01*
X86678571Y-50864285D01*
X86640476Y-50788095D01*
X86602380Y-50750000D01*
X86526190Y-50711904D01*
X74395238Y-54811904D02*
X74661904Y-54430952D01*
X74852380Y-54811904D02*
X74852380Y-54011904D01*
X74547619Y-54011904D01*
X74471428Y-54050000D01*
X74433333Y-54088095D01*
X74395238Y-54164285D01*
X74395238Y-54278571D01*
X74433333Y-54354761D01*
X74471428Y-54392857D01*
X74547619Y-54430952D01*
X74852380Y-54430952D01*
X74128571Y-54011904D02*
X73633333Y-54011904D01*
X73900000Y-54316666D01*
X73785714Y-54316666D01*
X73709523Y-54354761D01*
X73671428Y-54392857D01*
X73633333Y-54469047D01*
X73633333Y-54659523D01*
X73671428Y-54735714D01*
X73709523Y-54773809D01*
X73785714Y-54811904D01*
X74014285Y-54811904D01*
X74090476Y-54773809D01*
X74128571Y-54735714D01*
X73328571Y-54088095D02*
X73290476Y-54050000D01*
X73214285Y-54011904D01*
X73023809Y-54011904D01*
X72947619Y-54050000D01*
X72909523Y-54088095D01*
X72871428Y-54164285D01*
X72871428Y-54240476D01*
X72909523Y-54354761D01*
X73366666Y-54811904D01*
X72871428Y-54811904D01*
X72109523Y-54811904D02*
X72566666Y-54811904D01*
X72338095Y-54811904D02*
X72338095Y-54011904D01*
X72414285Y-54126190D01*
X72490476Y-54202380D01*
X72566666Y-54240476D01*
X84495238Y-51511904D02*
X84761904Y-51130952D01*
X84952380Y-51511904D02*
X84952380Y-50711904D01*
X84647619Y-50711904D01*
X84571428Y-50750000D01*
X84533333Y-50788095D01*
X84495238Y-50864285D01*
X84495238Y-50978571D01*
X84533333Y-51054761D01*
X84571428Y-51092857D01*
X84647619Y-51130952D01*
X84952380Y-51130952D01*
X84228571Y-50711904D02*
X83733333Y-50711904D01*
X84000000Y-51016666D01*
X83885714Y-51016666D01*
X83809523Y-51054761D01*
X83771428Y-51092857D01*
X83733333Y-51169047D01*
X83733333Y-51359523D01*
X83771428Y-51435714D01*
X83809523Y-51473809D01*
X83885714Y-51511904D01*
X84114285Y-51511904D01*
X84190476Y-51473809D01*
X84228571Y-51435714D01*
X83238095Y-50711904D02*
X83161904Y-50711904D01*
X83085714Y-50750000D01*
X83047619Y-50788095D01*
X83009523Y-50864285D01*
X82971428Y-51016666D01*
X82971428Y-51207142D01*
X83009523Y-51359523D01*
X83047619Y-51435714D01*
X83085714Y-51473809D01*
X83161904Y-51511904D01*
X83238095Y-51511904D01*
X83314285Y-51473809D01*
X83352380Y-51435714D01*
X83390476Y-51359523D01*
X83428571Y-51207142D01*
X83428571Y-51016666D01*
X83390476Y-50864285D01*
X83352380Y-50788095D01*
X83314285Y-50750000D01*
X83238095Y-50711904D01*
X82704761Y-50711904D02*
X82209523Y-50711904D01*
X82476190Y-51016666D01*
X82361904Y-51016666D01*
X82285714Y-51054761D01*
X82247619Y-51092857D01*
X82209523Y-51169047D01*
X82209523Y-51359523D01*
X82247619Y-51435714D01*
X82285714Y-51473809D01*
X82361904Y-51511904D01*
X82590476Y-51511904D01*
X82666666Y-51473809D01*
X82704761Y-51435714D01*
X66685714Y-62767261D02*
X66723809Y-62729166D01*
X66761904Y-62614880D01*
X66761904Y-62538690D01*
X66723809Y-62424404D01*
X66647619Y-62348214D01*
X66571428Y-62310119D01*
X66419047Y-62272023D01*
X66304761Y-62272023D01*
X66152380Y-62310119D01*
X66076190Y-62348214D01*
X66000000Y-62424404D01*
X65961904Y-62538690D01*
X65961904Y-62614880D01*
X66000000Y-62729166D01*
X66038095Y-62767261D01*
X65961904Y-63033928D02*
X65961904Y-63529166D01*
X66266666Y-63262500D01*
X66266666Y-63376785D01*
X66304761Y-63452976D01*
X66342857Y-63491071D01*
X66419047Y-63529166D01*
X66609523Y-63529166D01*
X66685714Y-63491071D01*
X66723809Y-63452976D01*
X66761904Y-63376785D01*
X66761904Y-63148214D01*
X66723809Y-63072023D01*
X66685714Y-63033928D01*
X66761904Y-64291071D02*
X66761904Y-63833928D01*
X66761904Y-64062500D02*
X65961904Y-64062500D01*
X66076190Y-63986309D01*
X66152380Y-63910119D01*
X66190476Y-63833928D01*
X65961904Y-64786309D02*
X65961904Y-64862500D01*
X66000000Y-64938690D01*
X66038095Y-64976785D01*
X66114285Y-65014880D01*
X66266666Y-65052976D01*
X66457142Y-65052976D01*
X66609523Y-65014880D01*
X66685714Y-64976785D01*
X66723809Y-64938690D01*
X66761904Y-64862500D01*
X66761904Y-64786309D01*
X66723809Y-64710119D01*
X66685714Y-64672023D01*
X66609523Y-64633928D01*
X66457142Y-64595833D01*
X66266666Y-64595833D01*
X66114285Y-64633928D01*
X66038095Y-64672023D01*
X66000000Y-64710119D01*
X65961904Y-64786309D01*
X85761904Y-61203571D02*
X86409523Y-61203571D01*
X86485714Y-61241666D01*
X86523809Y-61279761D01*
X86561904Y-61355952D01*
X86561904Y-61508333D01*
X86523809Y-61584523D01*
X86485714Y-61622619D01*
X86409523Y-61660714D01*
X85761904Y-61660714D01*
X85761904Y-61965476D02*
X85761904Y-62460714D01*
X86066666Y-62194047D01*
X86066666Y-62308333D01*
X86104761Y-62384523D01*
X86142857Y-62422619D01*
X86219047Y-62460714D01*
X86409523Y-62460714D01*
X86485714Y-62422619D01*
X86523809Y-62384523D01*
X86561904Y-62308333D01*
X86561904Y-62079761D01*
X86523809Y-62003571D01*
X86485714Y-61965476D01*
X85761904Y-62955952D02*
X85761904Y-63032142D01*
X85800000Y-63108333D01*
X85838095Y-63146428D01*
X85914285Y-63184523D01*
X86066666Y-63222619D01*
X86257142Y-63222619D01*
X86409523Y-63184523D01*
X86485714Y-63146428D01*
X86523809Y-63108333D01*
X86561904Y-63032142D01*
X86561904Y-62955952D01*
X86523809Y-62879761D01*
X86485714Y-62841666D01*
X86409523Y-62803571D01*
X86257142Y-62765476D01*
X86066666Y-62765476D01*
X85914285Y-62803571D01*
X85838095Y-62841666D01*
X85800000Y-62879761D01*
X85761904Y-62955952D01*
X85838095Y-63527380D02*
X85800000Y-63565476D01*
X85761904Y-63641666D01*
X85761904Y-63832142D01*
X85800000Y-63908333D01*
X85838095Y-63946428D01*
X85914285Y-63984523D01*
X85990476Y-63984523D01*
X86104761Y-63946428D01*
X86561904Y-63489285D01*
X86561904Y-63984523D01*
X94395238Y-58985714D02*
X94433333Y-59023809D01*
X94547619Y-59061904D01*
X94623809Y-59061904D01*
X94738095Y-59023809D01*
X94814285Y-58947619D01*
X94852380Y-58871428D01*
X94890476Y-58719047D01*
X94890476Y-58604761D01*
X94852380Y-58452380D01*
X94814285Y-58376190D01*
X94738095Y-58300000D01*
X94623809Y-58261904D01*
X94547619Y-58261904D01*
X94433333Y-58300000D01*
X94395238Y-58338095D01*
X94128571Y-58261904D02*
X93633333Y-58261904D01*
X93900000Y-58566666D01*
X93785714Y-58566666D01*
X93709523Y-58604761D01*
X93671428Y-58642857D01*
X93633333Y-58719047D01*
X93633333Y-58909523D01*
X93671428Y-58985714D01*
X93709523Y-59023809D01*
X93785714Y-59061904D01*
X94014285Y-59061904D01*
X94090476Y-59023809D01*
X94128571Y-58985714D01*
X92871428Y-59061904D02*
X93328571Y-59061904D01*
X93100000Y-59061904D02*
X93100000Y-58261904D01*
X93176190Y-58376190D01*
X93252380Y-58452380D01*
X93328571Y-58490476D01*
X92147619Y-58261904D02*
X92528571Y-58261904D01*
X92566666Y-58642857D01*
X92528571Y-58604761D01*
X92452380Y-58566666D01*
X92261904Y-58566666D01*
X92185714Y-58604761D01*
X92147619Y-58642857D01*
X92109523Y-58719047D01*
X92109523Y-58909523D01*
X92147619Y-58985714D01*
X92185714Y-59023809D01*
X92261904Y-59061904D01*
X92452380Y-59061904D01*
X92528571Y-59023809D01*
X92566666Y-58985714D01*
X146645238Y-67285714D02*
X146683333Y-67323809D01*
X146797619Y-67361904D01*
X146873809Y-67361904D01*
X146988095Y-67323809D01*
X147064285Y-67247619D01*
X147102380Y-67171428D01*
X147140476Y-67019047D01*
X147140476Y-66904761D01*
X147102380Y-66752380D01*
X147064285Y-66676190D01*
X146988095Y-66600000D01*
X146873809Y-66561904D01*
X146797619Y-66561904D01*
X146683333Y-66600000D01*
X146645238Y-66638095D01*
X146378571Y-66561904D02*
X145883333Y-66561904D01*
X146150000Y-66866666D01*
X146035714Y-66866666D01*
X145959523Y-66904761D01*
X145921428Y-66942857D01*
X145883333Y-67019047D01*
X145883333Y-67209523D01*
X145921428Y-67285714D01*
X145959523Y-67323809D01*
X146035714Y-67361904D01*
X146264285Y-67361904D01*
X146340476Y-67323809D01*
X146378571Y-67285714D01*
X145121428Y-67361904D02*
X145578571Y-67361904D01*
X145350000Y-67361904D02*
X145350000Y-66561904D01*
X145426190Y-66676190D01*
X145502380Y-66752380D01*
X145578571Y-66790476D01*
X144816666Y-66638095D02*
X144778571Y-66600000D01*
X144702380Y-66561904D01*
X144511904Y-66561904D01*
X144435714Y-66600000D01*
X144397619Y-66638095D01*
X144359523Y-66714285D01*
X144359523Y-66790476D01*
X144397619Y-66904761D01*
X144854761Y-67361904D01*
X144359523Y-67361904D01*
X66735714Y-71254761D02*
X66773809Y-71216666D01*
X66811904Y-71102380D01*
X66811904Y-71026190D01*
X66773809Y-70911904D01*
X66697619Y-70835714D01*
X66621428Y-70797619D01*
X66469047Y-70759523D01*
X66354761Y-70759523D01*
X66202380Y-70797619D01*
X66126190Y-70835714D01*
X66050000Y-70911904D01*
X66011904Y-71026190D01*
X66011904Y-71102380D01*
X66050000Y-71216666D01*
X66088095Y-71254761D01*
X66011904Y-71521428D02*
X66011904Y-72016666D01*
X66316666Y-71750000D01*
X66316666Y-71864285D01*
X66354761Y-71940476D01*
X66392857Y-71978571D01*
X66469047Y-72016666D01*
X66659523Y-72016666D01*
X66735714Y-71978571D01*
X66773809Y-71940476D01*
X66811904Y-71864285D01*
X66811904Y-71635714D01*
X66773809Y-71559523D01*
X66735714Y-71521428D01*
X66011904Y-72511904D02*
X66011904Y-72588095D01*
X66050000Y-72664285D01*
X66088095Y-72702380D01*
X66164285Y-72740476D01*
X66316666Y-72778571D01*
X66507142Y-72778571D01*
X66659523Y-72740476D01*
X66735714Y-72702380D01*
X66773809Y-72664285D01*
X66811904Y-72588095D01*
X66811904Y-72511904D01*
X66773809Y-72435714D01*
X66735714Y-72397619D01*
X66659523Y-72359523D01*
X66507142Y-72321428D01*
X66316666Y-72321428D01*
X66164285Y-72359523D01*
X66088095Y-72397619D01*
X66050000Y-72435714D01*
X66011904Y-72511904D01*
X66011904Y-73464285D02*
X66011904Y-73311904D01*
X66050000Y-73235714D01*
X66088095Y-73197619D01*
X66202380Y-73121428D01*
X66354761Y-73083333D01*
X66659523Y-73083333D01*
X66735714Y-73121428D01*
X66773809Y-73159523D01*
X66811904Y-73235714D01*
X66811904Y-73388095D01*
X66773809Y-73464285D01*
X66735714Y-73502380D01*
X66659523Y-73540476D01*
X66469047Y-73540476D01*
X66392857Y-73502380D01*
X66354761Y-73464285D01*
X66316666Y-73388095D01*
X66316666Y-73235714D01*
X66354761Y-73159523D01*
X66392857Y-73121428D01*
X66469047Y-73083333D01*
X91671428Y-53411904D02*
X91671428Y-54059523D01*
X91633333Y-54135714D01*
X91595238Y-54173809D01*
X91519047Y-54211904D01*
X91366666Y-54211904D01*
X91290476Y-54173809D01*
X91252380Y-54135714D01*
X91214285Y-54059523D01*
X91214285Y-53411904D01*
X90909523Y-53411904D02*
X90414285Y-53411904D01*
X90680952Y-53716666D01*
X90566666Y-53716666D01*
X90490476Y-53754761D01*
X90452380Y-53792857D01*
X90414285Y-53869047D01*
X90414285Y-54059523D01*
X90452380Y-54135714D01*
X90490476Y-54173809D01*
X90566666Y-54211904D01*
X90795238Y-54211904D01*
X90871428Y-54173809D01*
X90909523Y-54135714D01*
X89919047Y-53411904D02*
X89842857Y-53411904D01*
X89766666Y-53450000D01*
X89728571Y-53488095D01*
X89690476Y-53564285D01*
X89652380Y-53716666D01*
X89652380Y-53907142D01*
X89690476Y-54059523D01*
X89728571Y-54135714D01*
X89766666Y-54173809D01*
X89842857Y-54211904D01*
X89919047Y-54211904D01*
X89995238Y-54173809D01*
X90033333Y-54135714D01*
X90071428Y-54059523D01*
X90109523Y-53907142D01*
X90109523Y-53716666D01*
X90071428Y-53564285D01*
X90033333Y-53488095D01*
X89995238Y-53450000D01*
X89919047Y-53411904D01*
X89385714Y-53411904D02*
X88890476Y-53411904D01*
X89157142Y-53716666D01*
X89042857Y-53716666D01*
X88966666Y-53754761D01*
X88928571Y-53792857D01*
X88890476Y-53869047D01*
X88890476Y-54059523D01*
X88928571Y-54135714D01*
X88966666Y-54173809D01*
X89042857Y-54211904D01*
X89271428Y-54211904D01*
X89347619Y-54173809D01*
X89385714Y-54135714D01*
X146645238Y-65611904D02*
X146911904Y-65230952D01*
X147102380Y-65611904D02*
X147102380Y-64811904D01*
X146797619Y-64811904D01*
X146721428Y-64850000D01*
X146683333Y-64888095D01*
X146645238Y-64964285D01*
X146645238Y-65078571D01*
X146683333Y-65154761D01*
X146721428Y-65192857D01*
X146797619Y-65230952D01*
X147102380Y-65230952D01*
X146378571Y-64811904D02*
X145883333Y-64811904D01*
X146150000Y-65116666D01*
X146035714Y-65116666D01*
X145959523Y-65154761D01*
X145921428Y-65192857D01*
X145883333Y-65269047D01*
X145883333Y-65459523D01*
X145921428Y-65535714D01*
X145959523Y-65573809D01*
X146035714Y-65611904D01*
X146264285Y-65611904D01*
X146340476Y-65573809D01*
X146378571Y-65535714D01*
X145121428Y-65611904D02*
X145578571Y-65611904D01*
X145350000Y-65611904D02*
X145350000Y-64811904D01*
X145426190Y-64926190D01*
X145502380Y-65002380D01*
X145578571Y-65040476D01*
X144626190Y-64811904D02*
X144550000Y-64811904D01*
X144473809Y-64850000D01*
X144435714Y-64888095D01*
X144397619Y-64964285D01*
X144359523Y-65116666D01*
X144359523Y-65307142D01*
X144397619Y-65459523D01*
X144435714Y-65535714D01*
X144473809Y-65573809D01*
X144550000Y-65611904D01*
X144626190Y-65611904D01*
X144702380Y-65573809D01*
X144740476Y-65535714D01*
X144778571Y-65459523D01*
X144816666Y-65307142D01*
X144816666Y-65116666D01*
X144778571Y-64964285D01*
X144740476Y-64888095D01*
X144702380Y-64850000D01*
X144626190Y-64811904D01*
X147263095Y-59199404D02*
X147225000Y-59123214D01*
X147148809Y-59047023D01*
X147034523Y-58932738D01*
X146996428Y-58856547D01*
X146996428Y-58780357D01*
X147186904Y-58818452D02*
X147148809Y-58742261D01*
X147072619Y-58666071D01*
X146920238Y-58627976D01*
X146653571Y-58627976D01*
X146501190Y-58666071D01*
X146425000Y-58742261D01*
X146386904Y-58818452D01*
X146386904Y-58970833D01*
X146425000Y-59047023D01*
X146501190Y-59123214D01*
X146653571Y-59161309D01*
X146920238Y-59161309D01*
X147072619Y-59123214D01*
X147148809Y-59047023D01*
X147186904Y-58970833D01*
X147186904Y-58818452D01*
X146386904Y-59427976D02*
X146386904Y-59923214D01*
X146691666Y-59656547D01*
X146691666Y-59770833D01*
X146729761Y-59847023D01*
X146767857Y-59885119D01*
X146844047Y-59923214D01*
X147034523Y-59923214D01*
X147110714Y-59885119D01*
X147148809Y-59847023D01*
X147186904Y-59770833D01*
X147186904Y-59542261D01*
X147148809Y-59466071D01*
X147110714Y-59427976D01*
X146386904Y-60418452D02*
X146386904Y-60494642D01*
X146425000Y-60570833D01*
X146463095Y-60608928D01*
X146539285Y-60647023D01*
X146691666Y-60685119D01*
X146882142Y-60685119D01*
X147034523Y-60647023D01*
X147110714Y-60608928D01*
X147148809Y-60570833D01*
X147186904Y-60494642D01*
X147186904Y-60418452D01*
X147148809Y-60342261D01*
X147110714Y-60304166D01*
X147034523Y-60266071D01*
X146882142Y-60227976D01*
X146691666Y-60227976D01*
X146539285Y-60266071D01*
X146463095Y-60304166D01*
X146425000Y-60342261D01*
X146386904Y-60418452D01*
X147186904Y-61447023D02*
X147186904Y-60989880D01*
X147186904Y-61218452D02*
X146386904Y-61218452D01*
X146501190Y-61142261D01*
X146577380Y-61066071D01*
X146615476Y-60989880D01*
X81470238Y-70360714D02*
X81508333Y-70398809D01*
X81622619Y-70436904D01*
X81698809Y-70436904D01*
X81813095Y-70398809D01*
X81889285Y-70322619D01*
X81927380Y-70246428D01*
X81965476Y-70094047D01*
X81965476Y-69979761D01*
X81927380Y-69827380D01*
X81889285Y-69751190D01*
X81813095Y-69675000D01*
X81698809Y-69636904D01*
X81622619Y-69636904D01*
X81508333Y-69675000D01*
X81470238Y-69713095D01*
X81203571Y-69636904D02*
X80708333Y-69636904D01*
X80975000Y-69941666D01*
X80860714Y-69941666D01*
X80784523Y-69979761D01*
X80746428Y-70017857D01*
X80708333Y-70094047D01*
X80708333Y-70284523D01*
X80746428Y-70360714D01*
X80784523Y-70398809D01*
X80860714Y-70436904D01*
X81089285Y-70436904D01*
X81165476Y-70398809D01*
X81203571Y-70360714D01*
X80213095Y-69636904D02*
X80136904Y-69636904D01*
X80060714Y-69675000D01*
X80022619Y-69713095D01*
X79984523Y-69789285D01*
X79946428Y-69941666D01*
X79946428Y-70132142D01*
X79984523Y-70284523D01*
X80022619Y-70360714D01*
X80060714Y-70398809D01*
X80136904Y-70436904D01*
X80213095Y-70436904D01*
X80289285Y-70398809D01*
X80327380Y-70360714D01*
X80365476Y-70284523D01*
X80403571Y-70132142D01*
X80403571Y-69941666D01*
X80365476Y-69789285D01*
X80327380Y-69713095D01*
X80289285Y-69675000D01*
X80213095Y-69636904D01*
X79184523Y-70436904D02*
X79641666Y-70436904D01*
X79413095Y-70436904D02*
X79413095Y-69636904D01*
X79489285Y-69751190D01*
X79565476Y-69827380D01*
X79641666Y-69865476D01*
X61885714Y-68344761D02*
X61923809Y-68306666D01*
X61961904Y-68192380D01*
X61961904Y-68116190D01*
X61923809Y-68001904D01*
X61847619Y-67925714D01*
X61771428Y-67887619D01*
X61619047Y-67849523D01*
X61504761Y-67849523D01*
X61352380Y-67887619D01*
X61276190Y-67925714D01*
X61200000Y-68001904D01*
X61161904Y-68116190D01*
X61161904Y-68192380D01*
X61200000Y-68306666D01*
X61238095Y-68344761D01*
X61161904Y-68611428D02*
X61161904Y-69106666D01*
X61466666Y-68840000D01*
X61466666Y-68954285D01*
X61504761Y-69030476D01*
X61542857Y-69068571D01*
X61619047Y-69106666D01*
X61809523Y-69106666D01*
X61885714Y-69068571D01*
X61923809Y-69030476D01*
X61961904Y-68954285D01*
X61961904Y-68725714D01*
X61923809Y-68649523D01*
X61885714Y-68611428D01*
X61961904Y-69868571D02*
X61961904Y-69411428D01*
X61961904Y-69640000D02*
X61161904Y-69640000D01*
X61276190Y-69563809D01*
X61352380Y-69487619D01*
X61390476Y-69411428D01*
X61161904Y-70554285D02*
X61161904Y-70401904D01*
X61200000Y-70325714D01*
X61238095Y-70287619D01*
X61352380Y-70211428D01*
X61504761Y-70173333D01*
X61809523Y-70173333D01*
X61885714Y-70211428D01*
X61923809Y-70249523D01*
X61961904Y-70325714D01*
X61961904Y-70478095D01*
X61923809Y-70554285D01*
X61885714Y-70592380D01*
X61809523Y-70630476D01*
X61619047Y-70630476D01*
X61542857Y-70592380D01*
X61504761Y-70554285D01*
X61466666Y-70478095D01*
X61466666Y-70325714D01*
X61504761Y-70249523D01*
X61542857Y-70211428D01*
X61619047Y-70173333D01*
X94395238Y-62561904D02*
X94661904Y-62180952D01*
X94852380Y-62561904D02*
X94852380Y-61761904D01*
X94547619Y-61761904D01*
X94471428Y-61800000D01*
X94433333Y-61838095D01*
X94395238Y-61914285D01*
X94395238Y-62028571D01*
X94433333Y-62104761D01*
X94471428Y-62142857D01*
X94547619Y-62180952D01*
X94852380Y-62180952D01*
X94128571Y-61761904D02*
X93633333Y-61761904D01*
X93900000Y-62066666D01*
X93785714Y-62066666D01*
X93709523Y-62104761D01*
X93671428Y-62142857D01*
X93633333Y-62219047D01*
X93633333Y-62409523D01*
X93671428Y-62485714D01*
X93709523Y-62523809D01*
X93785714Y-62561904D01*
X94014285Y-62561904D01*
X94090476Y-62523809D01*
X94128571Y-62485714D01*
X93138095Y-61761904D02*
X93061904Y-61761904D01*
X92985714Y-61800000D01*
X92947619Y-61838095D01*
X92909523Y-61914285D01*
X92871428Y-62066666D01*
X92871428Y-62257142D01*
X92909523Y-62409523D01*
X92947619Y-62485714D01*
X92985714Y-62523809D01*
X93061904Y-62561904D01*
X93138095Y-62561904D01*
X93214285Y-62523809D01*
X93252380Y-62485714D01*
X93290476Y-62409523D01*
X93328571Y-62257142D01*
X93328571Y-62066666D01*
X93290476Y-61914285D01*
X93252380Y-61838095D01*
X93214285Y-61800000D01*
X93138095Y-61761904D01*
X92490476Y-62561904D02*
X92338095Y-62561904D01*
X92261904Y-62523809D01*
X92223809Y-62485714D01*
X92147619Y-62371428D01*
X92109523Y-62219047D01*
X92109523Y-61914285D01*
X92147619Y-61838095D01*
X92185714Y-61800000D01*
X92261904Y-61761904D01*
X92414285Y-61761904D01*
X92490476Y-61800000D01*
X92528571Y-61838095D01*
X92566666Y-61914285D01*
X92566666Y-62104761D01*
X92528571Y-62180952D01*
X92490476Y-62219047D01*
X92414285Y-62257142D01*
X92261904Y-62257142D01*
X92185714Y-62219047D01*
X92147619Y-62180952D01*
X92109523Y-62104761D01*
X67850952Y-66757142D02*
X68231904Y-66757142D01*
X67431904Y-66490476D02*
X67850952Y-66757142D01*
X67431904Y-67023809D01*
X67431904Y-67214285D02*
X67431904Y-67709523D01*
X67736666Y-67442857D01*
X67736666Y-67557142D01*
X67774761Y-67633333D01*
X67812857Y-67671428D01*
X67889047Y-67709523D01*
X68079523Y-67709523D01*
X68155714Y-67671428D01*
X68193809Y-67633333D01*
X68231904Y-67557142D01*
X68231904Y-67328571D01*
X68193809Y-67252380D01*
X68155714Y-67214285D01*
X67431904Y-68204761D02*
X67431904Y-68280952D01*
X67470000Y-68357142D01*
X67508095Y-68395238D01*
X67584285Y-68433333D01*
X67736666Y-68471428D01*
X67927142Y-68471428D01*
X68079523Y-68433333D01*
X68155714Y-68395238D01*
X68193809Y-68357142D01*
X68231904Y-68280952D01*
X68231904Y-68204761D01*
X68193809Y-68128571D01*
X68155714Y-68090476D01*
X68079523Y-68052380D01*
X67927142Y-68014285D01*
X67736666Y-68014285D01*
X67584285Y-68052380D01*
X67508095Y-68090476D01*
X67470000Y-68128571D01*
X67431904Y-68204761D01*
X68231904Y-69233333D02*
X68231904Y-68776190D01*
X68231904Y-69004761D02*
X67431904Y-69004761D01*
X67546190Y-68928571D01*
X67622380Y-68852380D01*
X67660476Y-68776190D01*
X153791904Y-65017261D02*
X153410952Y-64750595D01*
X153791904Y-64560119D02*
X152991904Y-64560119D01*
X152991904Y-64864880D01*
X153030000Y-64941071D01*
X153068095Y-64979166D01*
X153144285Y-65017261D01*
X153258571Y-65017261D01*
X153334761Y-64979166D01*
X153372857Y-64941071D01*
X153410952Y-64864880D01*
X153410952Y-64560119D01*
X152991904Y-65283928D02*
X152991904Y-65779166D01*
X153296666Y-65512500D01*
X153296666Y-65626785D01*
X153334761Y-65702976D01*
X153372857Y-65741071D01*
X153449047Y-65779166D01*
X153639523Y-65779166D01*
X153715714Y-65741071D01*
X153753809Y-65702976D01*
X153791904Y-65626785D01*
X153791904Y-65398214D01*
X153753809Y-65322023D01*
X153715714Y-65283928D01*
X152991904Y-66274404D02*
X152991904Y-66350595D01*
X153030000Y-66426785D01*
X153068095Y-66464880D01*
X153144285Y-66502976D01*
X153296666Y-66541071D01*
X153487142Y-66541071D01*
X153639523Y-66502976D01*
X153715714Y-66464880D01*
X153753809Y-66426785D01*
X153791904Y-66350595D01*
X153791904Y-66274404D01*
X153753809Y-66198214D01*
X153715714Y-66160119D01*
X153639523Y-66122023D01*
X153487142Y-66083928D01*
X153296666Y-66083928D01*
X153144285Y-66122023D01*
X153068095Y-66160119D01*
X153030000Y-66198214D01*
X152991904Y-66274404D01*
X152991904Y-67226785D02*
X152991904Y-67074404D01*
X153030000Y-66998214D01*
X153068095Y-66960119D01*
X153182380Y-66883928D01*
X153334761Y-66845833D01*
X153639523Y-66845833D01*
X153715714Y-66883928D01*
X153753809Y-66922023D01*
X153791904Y-66998214D01*
X153791904Y-67150595D01*
X153753809Y-67226785D01*
X153715714Y-67264880D01*
X153639523Y-67302976D01*
X153449047Y-67302976D01*
X153372857Y-67264880D01*
X153334761Y-67226785D01*
X153296666Y-67150595D01*
X153296666Y-66998214D01*
X153334761Y-66922023D01*
X153372857Y-66883928D01*
X153449047Y-66845833D01*
X68528571Y-75223809D02*
X68414285Y-75261904D01*
X68223809Y-75261904D01*
X68147619Y-75223809D01*
X68109523Y-75185714D01*
X68071428Y-75109523D01*
X68071428Y-75033333D01*
X68109523Y-74957142D01*
X68147619Y-74919047D01*
X68223809Y-74880952D01*
X68376190Y-74842857D01*
X68452380Y-74804761D01*
X68490476Y-74766666D01*
X68528571Y-74690476D01*
X68528571Y-74614285D01*
X68490476Y-74538095D01*
X68452380Y-74500000D01*
X68376190Y-74461904D01*
X68185714Y-74461904D01*
X68071428Y-74500000D01*
X67804761Y-74461904D02*
X67614285Y-75261904D01*
X67461904Y-74690476D01*
X67309523Y-75261904D01*
X67119047Y-74461904D01*
X66890476Y-74461904D02*
X66395238Y-74461904D01*
X66661904Y-74766666D01*
X66547619Y-74766666D01*
X66471428Y-74804761D01*
X66433333Y-74842857D01*
X66395238Y-74919047D01*
X66395238Y-75109523D01*
X66433333Y-75185714D01*
X66471428Y-75223809D01*
X66547619Y-75261904D01*
X66776190Y-75261904D01*
X66852380Y-75223809D01*
X66890476Y-75185714D01*
X65900000Y-74461904D02*
X65823809Y-74461904D01*
X65747619Y-74500000D01*
X65709523Y-74538095D01*
X65671428Y-74614285D01*
X65633333Y-74766666D01*
X65633333Y-74957142D01*
X65671428Y-75109523D01*
X65709523Y-75185714D01*
X65747619Y-75223809D01*
X65823809Y-75261904D01*
X65900000Y-75261904D01*
X65976190Y-75223809D01*
X66014285Y-75185714D01*
X66052380Y-75109523D01*
X66090476Y-74957142D01*
X66090476Y-74766666D01*
X66052380Y-74614285D01*
X66014285Y-74538095D01*
X65976190Y-74500000D01*
X65900000Y-74461904D01*
X64871428Y-75261904D02*
X65328571Y-75261904D01*
X65100000Y-75261904D02*
X65100000Y-74461904D01*
X65176190Y-74576190D01*
X65252380Y-74652380D01*
X65328571Y-74690476D01*
X81495238Y-54785714D02*
X81533333Y-54823809D01*
X81647619Y-54861904D01*
X81723809Y-54861904D01*
X81838095Y-54823809D01*
X81914285Y-54747619D01*
X81952380Y-54671428D01*
X81990476Y-54519047D01*
X81990476Y-54404761D01*
X81952380Y-54252380D01*
X81914285Y-54176190D01*
X81838095Y-54100000D01*
X81723809Y-54061904D01*
X81647619Y-54061904D01*
X81533333Y-54100000D01*
X81495238Y-54138095D01*
X81228571Y-54061904D02*
X80733333Y-54061904D01*
X81000000Y-54366666D01*
X80885714Y-54366666D01*
X80809523Y-54404761D01*
X80771428Y-54442857D01*
X80733333Y-54519047D01*
X80733333Y-54709523D01*
X80771428Y-54785714D01*
X80809523Y-54823809D01*
X80885714Y-54861904D01*
X81114285Y-54861904D01*
X81190476Y-54823809D01*
X81228571Y-54785714D01*
X79971428Y-54861904D02*
X80428571Y-54861904D01*
X80200000Y-54861904D02*
X80200000Y-54061904D01*
X80276190Y-54176190D01*
X80352380Y-54252380D01*
X80428571Y-54290476D01*
X79209523Y-54861904D02*
X79666666Y-54861904D01*
X79438095Y-54861904D02*
X79438095Y-54061904D01*
X79514285Y-54176190D01*
X79590476Y-54252380D01*
X79666666Y-54290476D01*
X153145238Y-63861904D02*
X153411904Y-63480952D01*
X153602380Y-63861904D02*
X153602380Y-63061904D01*
X153297619Y-63061904D01*
X153221428Y-63100000D01*
X153183333Y-63138095D01*
X153145238Y-63214285D01*
X153145238Y-63328571D01*
X153183333Y-63404761D01*
X153221428Y-63442857D01*
X153297619Y-63480952D01*
X153602380Y-63480952D01*
X152878571Y-63061904D02*
X152383333Y-63061904D01*
X152650000Y-63366666D01*
X152535714Y-63366666D01*
X152459523Y-63404761D01*
X152421428Y-63442857D01*
X152383333Y-63519047D01*
X152383333Y-63709523D01*
X152421428Y-63785714D01*
X152459523Y-63823809D01*
X152535714Y-63861904D01*
X152764285Y-63861904D01*
X152840476Y-63823809D01*
X152878571Y-63785714D01*
X151888095Y-63061904D02*
X151811904Y-63061904D01*
X151735714Y-63100000D01*
X151697619Y-63138095D01*
X151659523Y-63214285D01*
X151621428Y-63366666D01*
X151621428Y-63557142D01*
X151659523Y-63709523D01*
X151697619Y-63785714D01*
X151735714Y-63823809D01*
X151811904Y-63861904D01*
X151888095Y-63861904D01*
X151964285Y-63823809D01*
X152002380Y-63785714D01*
X152040476Y-63709523D01*
X152078571Y-63557142D01*
X152078571Y-63366666D01*
X152040476Y-63214285D01*
X152002380Y-63138095D01*
X151964285Y-63100000D01*
X151888095Y-63061904D01*
X150897619Y-63061904D02*
X151278571Y-63061904D01*
X151316666Y-63442857D01*
X151278571Y-63404761D01*
X151202380Y-63366666D01*
X151011904Y-63366666D01*
X150935714Y-63404761D01*
X150897619Y-63442857D01*
X150859523Y-63519047D01*
X150859523Y-63709523D01*
X150897619Y-63785714D01*
X150935714Y-63823809D01*
X151011904Y-63861904D01*
X151202380Y-63861904D01*
X151278571Y-63823809D01*
X151316666Y-63785714D01*
X124453571Y-50956904D02*
X124453571Y-51528333D01*
X124491666Y-51642619D01*
X124567857Y-51718809D01*
X124682142Y-51756904D01*
X124758333Y-51756904D01*
X124148809Y-50956904D02*
X123653571Y-50956904D01*
X123920238Y-51261666D01*
X123805952Y-51261666D01*
X123729761Y-51299761D01*
X123691666Y-51337857D01*
X123653571Y-51414047D01*
X123653571Y-51604523D01*
X123691666Y-51680714D01*
X123729761Y-51718809D01*
X123805952Y-51756904D01*
X124034523Y-51756904D01*
X124110714Y-51718809D01*
X124148809Y-51680714D01*
X123158333Y-50956904D02*
X123082142Y-50956904D01*
X123005952Y-50995000D01*
X122967857Y-51033095D01*
X122929761Y-51109285D01*
X122891666Y-51261666D01*
X122891666Y-51452142D01*
X122929761Y-51604523D01*
X122967857Y-51680714D01*
X123005952Y-51718809D01*
X123082142Y-51756904D01*
X123158333Y-51756904D01*
X123234523Y-51718809D01*
X123272619Y-51680714D01*
X123310714Y-51604523D01*
X123348809Y-51452142D01*
X123348809Y-51261666D01*
X123310714Y-51109285D01*
X123272619Y-51033095D01*
X123234523Y-50995000D01*
X123158333Y-50956904D01*
X122625000Y-50956904D02*
X122129761Y-50956904D01*
X122396428Y-51261666D01*
X122282142Y-51261666D01*
X122205952Y-51299761D01*
X122167857Y-51337857D01*
X122129761Y-51414047D01*
X122129761Y-51604523D01*
X122167857Y-51680714D01*
X122205952Y-51718809D01*
X122282142Y-51756904D01*
X122510714Y-51756904D01*
X122586904Y-51718809D01*
X122625000Y-51680714D01*
X74735714Y-76404761D02*
X74773809Y-76366666D01*
X74811904Y-76252380D01*
X74811904Y-76176190D01*
X74773809Y-76061904D01*
X74697619Y-75985714D01*
X74621428Y-75947619D01*
X74469047Y-75909523D01*
X74354761Y-75909523D01*
X74202380Y-75947619D01*
X74126190Y-75985714D01*
X74050000Y-76061904D01*
X74011904Y-76176190D01*
X74011904Y-76252380D01*
X74050000Y-76366666D01*
X74088095Y-76404761D01*
X74011904Y-76671428D02*
X74011904Y-77166666D01*
X74316666Y-76900000D01*
X74316666Y-77014285D01*
X74354761Y-77090476D01*
X74392857Y-77128571D01*
X74469047Y-77166666D01*
X74659523Y-77166666D01*
X74735714Y-77128571D01*
X74773809Y-77090476D01*
X74811904Y-77014285D01*
X74811904Y-76785714D01*
X74773809Y-76709523D01*
X74735714Y-76671428D01*
X74811904Y-77928571D02*
X74811904Y-77471428D01*
X74811904Y-77700000D02*
X74011904Y-77700000D01*
X74126190Y-77623809D01*
X74202380Y-77547619D01*
X74240476Y-77471428D01*
X74011904Y-78195238D02*
X74011904Y-78690476D01*
X74316666Y-78423809D01*
X74316666Y-78538095D01*
X74354761Y-78614285D01*
X74392857Y-78652380D01*
X74469047Y-78690476D01*
X74659523Y-78690476D01*
X74735714Y-78652380D01*
X74773809Y-78614285D01*
X74811904Y-78538095D01*
X74811904Y-78309523D01*
X74773809Y-78233333D01*
X74735714Y-78195238D01*
X77895238Y-54885714D02*
X77933333Y-54923809D01*
X78047619Y-54961904D01*
X78123809Y-54961904D01*
X78238095Y-54923809D01*
X78314285Y-54847619D01*
X78352380Y-54771428D01*
X78390476Y-54619047D01*
X78390476Y-54504761D01*
X78352380Y-54352380D01*
X78314285Y-54276190D01*
X78238095Y-54200000D01*
X78123809Y-54161904D01*
X78047619Y-54161904D01*
X77933333Y-54200000D01*
X77895238Y-54238095D01*
X77628571Y-54161904D02*
X77133333Y-54161904D01*
X77400000Y-54466666D01*
X77285714Y-54466666D01*
X77209523Y-54504761D01*
X77171428Y-54542857D01*
X77133333Y-54619047D01*
X77133333Y-54809523D01*
X77171428Y-54885714D01*
X77209523Y-54923809D01*
X77285714Y-54961904D01*
X77514285Y-54961904D01*
X77590476Y-54923809D01*
X77628571Y-54885714D01*
X76638095Y-54161904D02*
X76561904Y-54161904D01*
X76485714Y-54200000D01*
X76447619Y-54238095D01*
X76409523Y-54314285D01*
X76371428Y-54466666D01*
X76371428Y-54657142D01*
X76409523Y-54809523D01*
X76447619Y-54885714D01*
X76485714Y-54923809D01*
X76561904Y-54961904D01*
X76638095Y-54961904D01*
X76714285Y-54923809D01*
X76752380Y-54885714D01*
X76790476Y-54809523D01*
X76828571Y-54657142D01*
X76828571Y-54466666D01*
X76790476Y-54314285D01*
X76752380Y-54238095D01*
X76714285Y-54200000D01*
X76638095Y-54161904D01*
X76066666Y-54238095D02*
X76028571Y-54200000D01*
X75952380Y-54161904D01*
X75761904Y-54161904D01*
X75685714Y-54200000D01*
X75647619Y-54238095D01*
X75609523Y-54314285D01*
X75609523Y-54390476D01*
X75647619Y-54504761D01*
X76104761Y-54961904D01*
X75609523Y-54961904D01*
X95885714Y-55204761D02*
X95923809Y-55166666D01*
X95961904Y-55052380D01*
X95961904Y-54976190D01*
X95923809Y-54861904D01*
X95847619Y-54785714D01*
X95771428Y-54747619D01*
X95619047Y-54709523D01*
X95504761Y-54709523D01*
X95352380Y-54747619D01*
X95276190Y-54785714D01*
X95200000Y-54861904D01*
X95161904Y-54976190D01*
X95161904Y-55052380D01*
X95200000Y-55166666D01*
X95238095Y-55204761D01*
X95161904Y-55471428D02*
X95161904Y-55966666D01*
X95466666Y-55700000D01*
X95466666Y-55814285D01*
X95504761Y-55890476D01*
X95542857Y-55928571D01*
X95619047Y-55966666D01*
X95809523Y-55966666D01*
X95885714Y-55928571D01*
X95923809Y-55890476D01*
X95961904Y-55814285D01*
X95961904Y-55585714D01*
X95923809Y-55509523D01*
X95885714Y-55471428D01*
X95961904Y-56728571D02*
X95961904Y-56271428D01*
X95961904Y-56500000D02*
X95161904Y-56500000D01*
X95276190Y-56423809D01*
X95352380Y-56347619D01*
X95390476Y-56271428D01*
X95161904Y-56995238D02*
X95161904Y-57528571D01*
X95961904Y-57185714D01*
X94395238Y-60861904D02*
X94661904Y-60480952D01*
X94852380Y-60861904D02*
X94852380Y-60061904D01*
X94547619Y-60061904D01*
X94471428Y-60100000D01*
X94433333Y-60138095D01*
X94395238Y-60214285D01*
X94395238Y-60328571D01*
X94433333Y-60404761D01*
X94471428Y-60442857D01*
X94547619Y-60480952D01*
X94852380Y-60480952D01*
X94128571Y-60061904D02*
X93633333Y-60061904D01*
X93900000Y-60366666D01*
X93785714Y-60366666D01*
X93709523Y-60404761D01*
X93671428Y-60442857D01*
X93633333Y-60519047D01*
X93633333Y-60709523D01*
X93671428Y-60785714D01*
X93709523Y-60823809D01*
X93785714Y-60861904D01*
X94014285Y-60861904D01*
X94090476Y-60823809D01*
X94128571Y-60785714D01*
X93138095Y-60061904D02*
X93061904Y-60061904D01*
X92985714Y-60100000D01*
X92947619Y-60138095D01*
X92909523Y-60214285D01*
X92871428Y-60366666D01*
X92871428Y-60557142D01*
X92909523Y-60709523D01*
X92947619Y-60785714D01*
X92985714Y-60823809D01*
X93061904Y-60861904D01*
X93138095Y-60861904D01*
X93214285Y-60823809D01*
X93252380Y-60785714D01*
X93290476Y-60709523D01*
X93328571Y-60557142D01*
X93328571Y-60366666D01*
X93290476Y-60214285D01*
X93252380Y-60138095D01*
X93214285Y-60100000D01*
X93138095Y-60061904D01*
X92414285Y-60404761D02*
X92490476Y-60366666D01*
X92528571Y-60328571D01*
X92566666Y-60252380D01*
X92566666Y-60214285D01*
X92528571Y-60138095D01*
X92490476Y-60100000D01*
X92414285Y-60061904D01*
X92261904Y-60061904D01*
X92185714Y-60100000D01*
X92147619Y-60138095D01*
X92109523Y-60214285D01*
X92109523Y-60252380D01*
X92147619Y-60328571D01*
X92185714Y-60366666D01*
X92261904Y-60404761D01*
X92414285Y-60404761D01*
X92490476Y-60442857D01*
X92528571Y-60480952D01*
X92566666Y-60557142D01*
X92566666Y-60709523D01*
X92528571Y-60785714D01*
X92490476Y-60823809D01*
X92414285Y-60861904D01*
X92261904Y-60861904D01*
X92185714Y-60823809D01*
X92147619Y-60785714D01*
X92109523Y-60709523D01*
X92109523Y-60557142D01*
X92147619Y-60480952D01*
X92185714Y-60442857D01*
X92261904Y-60404761D01*
X63111904Y-76442261D02*
X62730952Y-76175595D01*
X63111904Y-75985119D02*
X62311904Y-75985119D01*
X62311904Y-76289880D01*
X62350000Y-76366071D01*
X62388095Y-76404166D01*
X62464285Y-76442261D01*
X62578571Y-76442261D01*
X62654761Y-76404166D01*
X62692857Y-76366071D01*
X62730952Y-76289880D01*
X62730952Y-75985119D01*
X62311904Y-76708928D02*
X62311904Y-77204166D01*
X62616666Y-76937500D01*
X62616666Y-77051785D01*
X62654761Y-77127976D01*
X62692857Y-77166071D01*
X62769047Y-77204166D01*
X62959523Y-77204166D01*
X63035714Y-77166071D01*
X63073809Y-77127976D01*
X63111904Y-77051785D01*
X63111904Y-76823214D01*
X63073809Y-76747023D01*
X63035714Y-76708928D01*
X62311904Y-77699404D02*
X62311904Y-77775595D01*
X62350000Y-77851785D01*
X62388095Y-77889880D01*
X62464285Y-77927976D01*
X62616666Y-77966071D01*
X62807142Y-77966071D01*
X62959523Y-77927976D01*
X63035714Y-77889880D01*
X63073809Y-77851785D01*
X63111904Y-77775595D01*
X63111904Y-77699404D01*
X63073809Y-77623214D01*
X63035714Y-77585119D01*
X62959523Y-77547023D01*
X62807142Y-77508928D01*
X62616666Y-77508928D01*
X62464285Y-77547023D01*
X62388095Y-77585119D01*
X62350000Y-77623214D01*
X62311904Y-77699404D01*
X62311904Y-78232738D02*
X62311904Y-78766071D01*
X63111904Y-78423214D01*
D13*
X87954724Y-49377500D02*
X87445276Y-49377500D01*
X87954724Y-50422500D02*
X87445276Y-50422500D01*
X73195276Y-55177500D02*
X73704724Y-55177500D01*
X73195276Y-56222500D02*
X73704724Y-56222500D01*
X83854724Y-49377500D02*
X83345276Y-49377500D01*
X83854724Y-50422500D02*
X83345276Y-50422500D01*
X67040000Y-63846267D02*
X67040000Y-63553733D01*
X68060000Y-63846267D02*
X68060000Y-63553733D01*
D12*
X84100000Y-59000000D02*
X84100000Y-59450000D01*
X84100000Y-59000000D02*
X83650000Y-59000000D01*
X83650000Y-66200000D02*
X83650000Y-67500000D01*
X83750000Y-66200000D02*
X83650000Y-66200000D01*
X84100000Y-65750000D02*
X84100000Y-65850000D01*
X84100000Y-65850000D02*
X83750000Y-66200000D01*
X76900000Y-59000000D02*
X77350000Y-59000000D01*
X76900000Y-66200000D02*
X77350000Y-66200000D01*
X76900000Y-66200000D02*
X76900000Y-65750000D01*
X76900000Y-59000000D02*
X76900000Y-59450000D01*
D13*
X90153733Y-58290000D02*
X90446267Y-58290000D01*
X90153733Y-59310000D02*
X90446267Y-59310000D01*
X149146267Y-67510000D02*
X148853733Y-67510000D01*
X149146267Y-66490000D02*
X148853733Y-66490000D01*
X67040000Y-72003733D02*
X67040000Y-72296267D01*
X68060000Y-72003733D02*
X68060000Y-72296267D01*
X89400000Y-54490000D02*
X92350000Y-54490000D01*
X91200000Y-57710000D02*
X89400000Y-57710000D01*
X148745276Y-65772500D02*
X149254724Y-65772500D01*
X148745276Y-64727500D02*
X149254724Y-64727500D01*
X150560000Y-60000000D02*
X150560000Y-60650000D01*
X147440000Y-60000000D02*
X147440000Y-60650000D01*
X150560000Y-60000000D02*
X150560000Y-59350000D01*
X147440000Y-60000000D02*
X147440000Y-58325000D01*
X80646267Y-69310000D02*
X80353733Y-69310000D01*
X80646267Y-68290000D02*
X80353733Y-68290000D01*
X60785000Y-69371267D02*
X60785000Y-69078733D01*
X59765000Y-69371267D02*
X59765000Y-69078733D01*
X88280000Y-78730000D02*
X88280000Y-76070000D01*
X89550000Y-78730000D02*
X90880000Y-78730000D01*
X75520000Y-78730000D02*
X75520000Y-76070000D01*
X88280000Y-76070000D02*
X75520000Y-76070000D01*
X88280000Y-78730000D02*
X75520000Y-78730000D01*
X90880000Y-78730000D02*
X90880000Y-77400000D01*
X90554724Y-61677500D02*
X90045276Y-61677500D01*
X90554724Y-62722500D02*
X90045276Y-62722500D01*
X73800000Y-74600000D02*
X68700000Y-74600000D01*
X68700000Y-74600000D02*
X68700000Y-62000000D01*
X73800000Y-62000000D02*
X73800000Y-74600000D01*
X152522500Y-66167224D02*
X152522500Y-65657776D01*
X151477500Y-66167224D02*
X151477500Y-65657776D01*
X70609000Y-75505500D02*
X66291000Y-75505500D01*
X66291000Y-79087500D02*
X70609000Y-79087500D01*
X80746267Y-56210000D02*
X80453733Y-56210000D01*
X80746267Y-55190000D02*
X80453733Y-55190000D01*
X148745276Y-64022500D02*
X149254724Y-64022500D01*
X148745276Y-62977500D02*
X149254724Y-62977500D01*
X124755000Y-53725000D02*
X124755000Y-52395000D01*
X124755000Y-54995000D02*
X124755000Y-72835000D01*
X124755000Y-72835000D02*
X122095000Y-72835000D01*
X124755000Y-52395000D02*
X123425000Y-52395000D01*
X124755000Y-54995000D02*
X122095000Y-54995000D01*
X122095000Y-54995000D02*
X122095000Y-72835000D01*
X72640000Y-77483767D02*
X72640000Y-77191233D01*
X73660000Y-77483767D02*
X73660000Y-77191233D01*
G36*
X116044257Y-70097434D02*
G01*
X115334974Y-70097434D01*
X115334974Y-71573510D01*
X114587351Y-71573510D01*
X114587351Y-70097434D01*
X113878068Y-70097434D01*
X113878068Y-69541510D01*
X116044257Y-69541510D01*
X116044257Y-70097434D01*
G37*
G36*
X103577682Y-69535929D02*
G01*
X103665547Y-69540152D01*
X103739233Y-69547800D01*
X103807976Y-69559652D01*
X103881012Y-69576491D01*
X103980109Y-69604514D01*
X104179368Y-69683776D01*
X104351280Y-69785970D01*
X104494306Y-69909620D01*
X104606908Y-70053253D01*
X104687546Y-70215393D01*
X104734682Y-70394566D01*
X104746290Y-70521402D01*
X104735504Y-70704942D01*
X104693896Y-70879138D01*
X104671705Y-70937123D01*
X104583820Y-71096991D01*
X104464592Y-71236729D01*
X104315651Y-71355189D01*
X104138632Y-71451229D01*
X103935165Y-71523701D01*
X103706883Y-71571463D01*
X103612047Y-71582216D01*
X103435479Y-71589640D01*
X103249869Y-71584108D01*
X103066768Y-71566504D01*
X102897728Y-71537710D01*
X102754300Y-71498611D01*
X102616943Y-71443133D01*
X102444884Y-71346567D01*
X102300162Y-71230719D01*
X102185238Y-71098075D01*
X102102576Y-70951120D01*
X102054636Y-70792340D01*
X102036359Y-70691698D01*
X102812436Y-70691698D01*
X102835215Y-70746691D01*
X102841762Y-70760927D01*
X102895984Y-70836040D01*
X102977117Y-70906485D01*
X103075880Y-70963886D01*
X103121520Y-70982809D01*
X103168272Y-70995786D01*
X103224328Y-71003441D01*
X103299359Y-71007078D01*
X103403035Y-71008000D01*
X103468776Y-71007826D01*
X103549543Y-71006089D01*
X103607943Y-71001111D01*
X103653827Y-70991239D01*
X103697046Y-70974819D01*
X103747453Y-70950197D01*
X103813464Y-70910445D01*
X103901536Y-70826305D01*
X103957680Y-70721225D01*
X103982889Y-70593704D01*
X103982810Y-70515662D01*
X103955316Y-70391335D01*
X103894686Y-70284401D01*
X103802819Y-70197760D01*
X103681617Y-70134310D01*
X103654516Y-70125339D01*
X103546987Y-70104704D01*
X103421833Y-70097450D01*
X103292580Y-70103182D01*
X103172753Y-70121503D01*
X103075880Y-70152019D01*
X103056087Y-70161412D01*
X102960164Y-70221230D01*
X102883396Y-70293028D01*
X102835215Y-70368328D01*
X102812436Y-70423321D01*
X102033535Y-70423321D01*
X102044621Y-70351434D01*
X102055850Y-70293047D01*
X102112159Y-70132261D01*
X102202395Y-69986717D01*
X102325074Y-69857792D01*
X102478707Y-69746862D01*
X102661808Y-69655303D01*
X102872891Y-69584492D01*
X102944042Y-69566499D01*
X103011014Y-69552853D01*
X103079036Y-69543732D01*
X103157426Y-69538219D01*
X103255507Y-69535397D01*
X103382597Y-69534350D01*
X103466403Y-69534348D01*
X103577682Y-69535929D01*
G37*
G36*
X105654219Y-71573510D02*
G01*
X104906597Y-71573510D01*
X104906597Y-69541510D01*
X105654219Y-69541510D01*
X105654219Y-71573510D01*
G37*
G36*
X120089087Y-71573510D02*
G01*
X120089087Y-70940906D01*
X120029907Y-70940906D01*
X120029404Y-70940907D01*
X120006751Y-70944426D01*
X119979426Y-70956746D01*
X119943686Y-70980916D01*
X119895788Y-71019984D01*
X119831989Y-71076999D01*
X119748547Y-71155009D01*
X119641718Y-71257062D01*
X119312710Y-71573219D01*
X118856443Y-71573364D01*
X118400177Y-71573510D01*
X118751009Y-71274699D01*
X118819352Y-71216194D01*
X118910019Y-71137569D01*
X118987186Y-71069450D01*
X119046897Y-71015385D01*
X119085193Y-70978919D01*
X119098118Y-70963599D01*
X119080907Y-70953784D01*
X119035937Y-70938377D01*
X118973514Y-70921231D01*
X118915755Y-70905695D01*
X118798343Y-70863021D01*
X118702635Y-70808123D01*
X118616990Y-70734920D01*
X118607752Y-70725552D01*
X118536795Y-70638861D01*
X118488516Y-70544492D01*
X118459150Y-70432800D01*
X118445342Y-70298131D01*
X119207276Y-70298131D01*
X119219786Y-70389025D01*
X119259448Y-70457158D01*
X119326420Y-70498566D01*
X119351044Y-70503684D01*
X119413860Y-70509959D01*
X119503614Y-70514854D01*
X119613649Y-70518035D01*
X119737306Y-70519170D01*
X120089087Y-70519170D01*
X120089087Y-70078264D01*
X119733830Y-70078264D01*
X119716030Y-70078276D01*
X119563160Y-70079897D01*
X119444034Y-70085469D01*
X119354533Y-70096710D01*
X119290539Y-70115339D01*
X119247935Y-70143076D01*
X119222601Y-70181641D01*
X119210421Y-70232753D01*
X119207276Y-70298131D01*
X118445342Y-70298131D01*
X118444933Y-70294141D01*
X118445801Y-70166660D01*
X118472921Y-70009112D01*
X118530832Y-69874092D01*
X118620211Y-69760546D01*
X118741738Y-69667421D01*
X118896091Y-69593660D01*
X118909912Y-69588550D01*
X118936337Y-69579801D01*
X118965052Y-69572529D01*
X118999663Y-69566567D01*
X119043773Y-69561746D01*
X119100988Y-69557900D01*
X119174912Y-69554859D01*
X119269151Y-69552455D01*
X119387310Y-69550521D01*
X119532993Y-69548889D01*
X119709805Y-69547389D01*
X119921351Y-69545855D01*
X120836710Y-69539459D01*
X120836710Y-71573510D01*
X120089087Y-71573510D01*
G37*
G36*
X106670219Y-70068680D02*
G01*
X106670431Y-70195177D01*
X106671442Y-70331650D01*
X106673428Y-70435708D01*
X106676541Y-70510726D01*
X106680936Y-70560076D01*
X106686765Y-70587132D01*
X106694182Y-70595268D01*
X106702733Y-70588223D01*
X106731445Y-70553441D01*
X106776858Y-70492917D01*
X106836295Y-70410387D01*
X106907080Y-70309585D01*
X106986537Y-70194244D01*
X107071990Y-70068098D01*
X107425835Y-69541510D01*
X108299653Y-69541510D01*
X108299653Y-71573510D01*
X107552031Y-71573510D01*
X107552031Y-71065510D01*
X107551512Y-70932882D01*
X107550013Y-70811043D01*
X107547678Y-70707600D01*
X107544655Y-70627540D01*
X107541089Y-70575848D01*
X107537127Y-70557510D01*
X107530620Y-70563428D01*
X107503836Y-70596073D01*
X107459310Y-70654028D01*
X107399779Y-70733621D01*
X107327979Y-70831179D01*
X107246648Y-70943031D01*
X107158523Y-71065504D01*
X106794823Y-71573499D01*
X106368295Y-71573504D01*
X105941766Y-71573510D01*
X105941766Y-69541510D01*
X106670219Y-69541510D01*
X106670219Y-70068680D01*
G37*
G36*
X118229616Y-71573510D02*
G01*
X116178446Y-71573510D01*
X116178446Y-71017585D01*
X117481993Y-71017585D01*
X117481993Y-70806717D01*
X116178446Y-70806717D01*
X116178446Y-70327472D01*
X117481993Y-70327472D01*
X117481993Y-70097434D01*
X116178446Y-70097434D01*
X116178446Y-69541510D01*
X118229616Y-69541510D01*
X118229616Y-71573510D01*
G37*
G36*
X109855479Y-69189234D02*
G01*
X109956353Y-69190785D01*
X110033190Y-69195339D01*
X110096664Y-69204216D01*
X110157449Y-69218742D01*
X110226219Y-69240238D01*
X110421699Y-69320744D01*
X110599574Y-69429504D01*
X110763350Y-69570264D01*
X110846356Y-69659751D01*
X110978818Y-69842594D01*
X111077526Y-70039136D01*
X111141838Y-70245849D01*
X111171112Y-70459206D01*
X111164706Y-70675676D01*
X111121979Y-70891734D01*
X111042288Y-71103849D01*
X111034017Y-71121138D01*
X110932235Y-71299564D01*
X110812309Y-71456345D01*
X110680369Y-71583361D01*
X110653076Y-71604298D01*
X110555511Y-71668646D01*
X110441976Y-71732008D01*
X110323995Y-71788701D01*
X110213090Y-71833041D01*
X110120785Y-71859347D01*
X110078308Y-71867614D01*
X110017077Y-71879555D01*
X109977012Y-71887399D01*
X109960191Y-71890355D01*
X109847929Y-71897959D01*
X109714785Y-71891258D01*
X109572575Y-71871786D01*
X109433114Y-71841074D01*
X109308218Y-71800656D01*
X109195523Y-71748310D01*
X109032143Y-71645756D01*
X108878687Y-71519476D01*
X108744624Y-71377574D01*
X108639427Y-71228159D01*
X108634542Y-71219700D01*
X108538908Y-71015320D01*
X108479193Y-70801240D01*
X108455508Y-70581310D01*
X108467965Y-70359378D01*
X108516675Y-70139293D01*
X108601749Y-69924906D01*
X108602574Y-69923228D01*
X108653483Y-69826402D01*
X108704153Y-69747759D01*
X108764711Y-69673341D01*
X108845284Y-69589187D01*
X108913491Y-69524287D01*
X109064164Y-69404499D01*
X109223264Y-69312141D01*
X109401917Y-69240238D01*
X109426716Y-69232111D01*
X109491594Y-69213119D01*
X109552093Y-69200650D01*
X109618889Y-69193382D01*
X109702656Y-69189991D01*
X109814068Y-69189155D01*
X109855479Y-69189234D01*
G37*
G36*
X100919276Y-69529209D02*
G01*
X101153754Y-69552831D01*
X101359831Y-69596232D01*
X101535596Y-69658938D01*
X101680114Y-69740527D01*
X101792450Y-69840577D01*
X101871669Y-69958667D01*
X101894791Y-70009239D01*
X101914123Y-70068982D01*
X101923213Y-70134520D01*
X101925359Y-70222038D01*
X101921851Y-70304051D01*
X101901145Y-70410759D01*
X101858247Y-70500267D01*
X101789035Y-70583503D01*
X101758262Y-70612586D01*
X101707905Y-70651724D01*
X101651554Y-70683193D01*
X101584588Y-70707972D01*
X101502388Y-70727039D01*
X101400334Y-70741374D01*
X101273808Y-70751955D01*
X101118190Y-70759761D01*
X100928861Y-70765771D01*
X100833577Y-70768374D01*
X100689570Y-70773130D01*
X100577324Y-70778580D01*
X100492615Y-70785434D01*
X100431214Y-70794401D01*
X100388895Y-70806191D01*
X100361432Y-70821512D01*
X100344597Y-70841076D01*
X100334164Y-70865590D01*
X100325977Y-70920319D01*
X100346594Y-70979588D01*
X100402322Y-71024692D01*
X100492751Y-71055333D01*
X100617473Y-71071217D01*
X100662512Y-71072960D01*
X100796412Y-71067589D01*
X100921851Y-71047794D01*
X101031500Y-71015545D01*
X101118029Y-70972814D01*
X101174111Y-70921569D01*
X101176989Y-70917581D01*
X101188855Y-70905160D01*
X101206622Y-70896223D01*
X101235695Y-70890311D01*
X101281479Y-70886968D01*
X101349379Y-70885734D01*
X101444801Y-70886153D01*
X101573151Y-70887766D01*
X101944861Y-70892981D01*
X101938622Y-70950491D01*
X101924720Y-71013802D01*
X101884734Y-71110636D01*
X101827439Y-71206127D01*
X101760414Y-71286005D01*
X101704596Y-71333958D01*
X101574427Y-71416236D01*
X101417787Y-71485341D01*
X101241769Y-71538397D01*
X101053465Y-71572531D01*
X101039089Y-71574198D01*
X100929706Y-71582195D01*
X100798904Y-71585602D01*
X100656628Y-71584732D01*
X100512821Y-71579898D01*
X100377428Y-71571414D01*
X100260390Y-71559593D01*
X100171653Y-71544748D01*
X100089065Y-71523256D01*
X99922382Y-71459853D01*
X99785591Y-71377299D01*
X99679988Y-71277003D01*
X99606872Y-71160376D01*
X99567540Y-71028827D01*
X99563290Y-70883767D01*
X99576946Y-70793765D01*
X99623963Y-70658679D01*
X99700520Y-70547903D01*
X99806257Y-70461895D01*
X99940814Y-70401117D01*
X99960258Y-70395073D01*
X100004050Y-70383570D01*
X100052790Y-70374477D01*
X100112043Y-70367328D01*
X100187373Y-70361658D01*
X100284346Y-70357000D01*
X100408526Y-70352890D01*
X100565479Y-70348862D01*
X100647495Y-70346858D01*
X100784785Y-70342995D01*
X100890804Y-70338986D01*
X100970260Y-70334441D01*
X101027861Y-70328967D01*
X101068315Y-70322175D01*
X101096329Y-70313672D01*
X101116611Y-70303068D01*
X101143324Y-70280156D01*
X101168483Y-70227279D01*
X101160086Y-70170095D01*
X101118056Y-70118060D01*
X101089066Y-70098069D01*
X101001593Y-70061808D01*
X100889026Y-70044435D01*
X100746748Y-70045042D01*
X100675377Y-70051071D01*
X100544471Y-70075811D01*
X100444912Y-70117224D01*
X100374103Y-70176223D01*
X100327487Y-70231623D01*
X99572489Y-70231623D01*
X99585032Y-70153185D01*
X99615847Y-70041266D01*
X99684231Y-69918505D01*
X99784458Y-69810272D01*
X99914111Y-69717697D01*
X100070777Y-69641909D01*
X100252041Y-69584037D01*
X100455489Y-69545210D01*
X100678705Y-69526558D01*
X100919276Y-69529209D01*
G37*
G36*
X112957917Y-71573510D02*
G01*
X112957917Y-70940906D01*
X112898737Y-70940906D01*
X112898234Y-70940907D01*
X112875581Y-70944426D01*
X112848256Y-70956746D01*
X112812516Y-70980916D01*
X112764618Y-71019984D01*
X112700819Y-71076999D01*
X112617377Y-71155009D01*
X112510548Y-71257062D01*
X112181540Y-71573219D01*
X111725274Y-71573364D01*
X111269007Y-71573510D01*
X111619840Y-71274699D01*
X111688182Y-71216194D01*
X111778849Y-71137569D01*
X111856016Y-71069450D01*
X111915727Y-71015385D01*
X111954023Y-70978919D01*
X111966948Y-70963599D01*
X111949737Y-70953784D01*
X111904767Y-70938377D01*
X111842344Y-70921231D01*
X111784585Y-70905695D01*
X111667173Y-70863021D01*
X111571465Y-70808123D01*
X111485821Y-70734920D01*
X111476582Y-70725552D01*
X111405626Y-70638861D01*
X111357346Y-70544492D01*
X111327980Y-70432800D01*
X111314172Y-70298131D01*
X112076106Y-70298131D01*
X112088617Y-70389025D01*
X112128279Y-70457158D01*
X112195250Y-70498566D01*
X112219874Y-70503684D01*
X112282690Y-70509959D01*
X112372444Y-70514854D01*
X112482479Y-70518035D01*
X112606137Y-70519170D01*
X112957917Y-70519170D01*
X112957917Y-70078264D01*
X112602660Y-70078264D01*
X112584860Y-70078276D01*
X112431991Y-70079897D01*
X112312864Y-70085469D01*
X112223363Y-70096710D01*
X112159370Y-70115339D01*
X112116765Y-70143076D01*
X112091431Y-70181641D01*
X112079251Y-70232753D01*
X112076106Y-70298131D01*
X111314172Y-70298131D01*
X111313763Y-70294141D01*
X111314631Y-70166660D01*
X111341751Y-70009112D01*
X111399662Y-69874092D01*
X111489041Y-69760546D01*
X111610568Y-69667421D01*
X111764921Y-69593660D01*
X111778742Y-69588550D01*
X111805167Y-69579801D01*
X111833883Y-69572529D01*
X111868493Y-69566567D01*
X111912603Y-69561746D01*
X111969818Y-69557900D01*
X112043742Y-69554859D01*
X112137981Y-69552455D01*
X112256140Y-69550521D01*
X112401823Y-69548889D01*
X112578635Y-69547389D01*
X112790182Y-69545855D01*
X113705540Y-69539459D01*
X113705540Y-71573510D01*
X112957917Y-71573510D01*
G37*
X76853733Y-55190000D02*
X77146267Y-55190000D01*
X76853733Y-56210000D02*
X77146267Y-56210000D01*
X94910000Y-56246267D02*
X94910000Y-55953733D01*
X93890000Y-56246267D02*
X93890000Y-55953733D01*
X90045276Y-59977500D02*
X90554724Y-59977500D01*
X90045276Y-61022500D02*
X90554724Y-61022500D01*
X64372500Y-77082776D02*
X64372500Y-77592224D01*
X63327500Y-77082776D02*
X63327500Y-77592224D01*
%LPC*%
D14*
X88612500Y-49900000D03*
X86787500Y-49900000D03*
D15*
X151500000Y-48500000D03*
D16*
X93262500Y-50237500D03*
X93262500Y-74637500D03*
D17*
X57762500Y-70057500D03*
D18*
X57762500Y-67517500D03*
X57762500Y-64977500D03*
X57762500Y-62437500D03*
X57762500Y-59897500D03*
X57762500Y-57357500D03*
X57762500Y-54817500D03*
D19*
X74362500Y-55700000D03*
X72537500Y-55700000D03*
D15*
X151500000Y-76500000D03*
X58500000Y-76500000D03*
D14*
X84512500Y-49900000D03*
X82687500Y-49900000D03*
D15*
X58500000Y-48500000D03*
D20*
X67550000Y-64562500D03*
X67550000Y-62837500D03*
D21*
X83300000Y-66800000D03*
X82500000Y-66800000D03*
X81700000Y-66800000D03*
X80900000Y-66800000D03*
X80100000Y-66800000D03*
X79300000Y-66800000D03*
X78500000Y-66800000D03*
X77700000Y-66800000D03*
D22*
X76300000Y-65400000D03*
X76300000Y-64600000D03*
X76300000Y-63800000D03*
X76300000Y-63000000D03*
X76300000Y-62200000D03*
X76300000Y-61400000D03*
X76300000Y-60600000D03*
X76300000Y-59800000D03*
D21*
X77700000Y-58400000D03*
X78500000Y-58400000D03*
X79300000Y-58400000D03*
X80100000Y-58400000D03*
X80900000Y-58400000D03*
X81700000Y-58400000D03*
X82500000Y-58400000D03*
X83300000Y-58400000D03*
D22*
X84700000Y-59800000D03*
X84700000Y-60600000D03*
X84700000Y-61400000D03*
X84700000Y-62200000D03*
X84700000Y-63000000D03*
X84700000Y-63800000D03*
X84700000Y-64600000D03*
X84700000Y-65400000D03*
D23*
X89437500Y-58800000D03*
X91162500Y-58800000D03*
D24*
X149862500Y-67000000D03*
X148137500Y-67000000D03*
D25*
X67550000Y-71287500D03*
X67550000Y-73012500D03*
D26*
X91650000Y-55120000D03*
X91650000Y-55770000D03*
X91650000Y-56430000D03*
X91650000Y-57080000D03*
X88950000Y-57080000D03*
X88950000Y-56430000D03*
X88950000Y-55770000D03*
X88950000Y-55120000D03*
D19*
X148087500Y-65250000D03*
X149912500Y-65250000D03*
D27*
X148050000Y-59062500D03*
X149950000Y-59062500D03*
X149000000Y-60937500D03*
D24*
X81362500Y-68800000D03*
X79637500Y-68800000D03*
D20*
X60275000Y-70087500D03*
X60275000Y-68362500D03*
D17*
X89550000Y-77400000D03*
D28*
X84470000Y-77400000D03*
X81930000Y-77400000D03*
X79390000Y-77400000D03*
X76850000Y-77400000D03*
D14*
X91212500Y-62200000D03*
X89387500Y-62200000D03*
D29*
X71250000Y-72150000D03*
X71250000Y-63650000D03*
D30*
X152000000Y-66825000D03*
X152000000Y-65000000D03*
D31*
X70799500Y-78257500D03*
X66100500Y-78257500D03*
X70799500Y-76373000D03*
X66100500Y-76373000D03*
D32*
X68450000Y-78617000D03*
X68450000Y-76013500D03*
D24*
X81462500Y-55700000D03*
X79737500Y-55700000D03*
D19*
X148087500Y-63500000D03*
X149912500Y-63500000D03*
D17*
X123425000Y-53725000D03*
D28*
X123425000Y-56265000D03*
X123425000Y-58805000D03*
X123425000Y-61345000D03*
X123425000Y-63885000D03*
X123425000Y-66425000D03*
X123425000Y-68965000D03*
X123425000Y-71505000D03*
D20*
X73150000Y-76475000D03*
X73150000Y-78200000D03*
D23*
X76137500Y-55700000D03*
X77862500Y-55700000D03*
D20*
X94400000Y-56962500D03*
X94400000Y-55237500D03*
D19*
X89387500Y-60500000D03*
X91212500Y-60500000D03*
D33*
X63850000Y-78250000D03*
X63850000Y-76425000D03*
M02*
