M48
; DRILL file {KiCad (6.0.10)} date Mon Jan 23 18:05:14 2023
; FORMAT={-:-/ absolute / metric / decimal}
; #@! TF.CreationDate,2023-01-23T18:05:14+01:00
; #@! TF.GenerationSoftware,Kicad,Pcbnew,(6.0.10)
; #@! TF.FileFunction,Plated,1,2,PTH
FMAT,2
METRIC
; #@! TA.AperFunction,Plated,PTH,ViaDrill
T1C0.400
; #@! TA.AperFunction,Plated,PTH,ComponentDrill
T2C1.000
%
G90
G05
T1
X60.6Y-58.85
X60.775Y-54.525
X61.925Y-72.225
X63.0Y-50.65
X64.9Y-67.64
X67.25Y-58.4
X69.35Y-54.65
X69.575Y-50.2
X71.1Y-68.0
X71.3Y-59.45
X72.5Y-47.25
X73.1Y-63.95
X73.329Y-61.325
X74.043Y-62.124
X74.3Y-56.9
X74.7Y-70.0
X74.8Y-63.45
X75.3Y-51.25
X76.05Y-74.15
X76.15Y-56.5
X76.25Y-66.05
X77.6Y-63.0
X77.75Y-61.15
X77.8Y-52.8
X77.95Y-65.0
X79.65Y-60.2
X79.75Y-74.35
X81.475Y-71.45
X82.25Y-62.45
X82.5Y-55.7
X82.85Y-68.6
X84.125Y-66.8
X84.5Y-48.95
X85.15Y-68.4
X85.7Y-65.9
X86.05Y-73.95
X86.25Y-60.6
X86.75Y-71.9
X86.816Y-59.776
X87.5Y-55.45
X88.424Y-58.8
X89.55Y-71.7
X89.8Y-49.75
X90.1Y-74.8
X90.2Y-52.8
X90.25Y-68.4
X90.35Y-63.05
X90.65Y-51.25
X91.9Y-65.0
X92.8Y-65.95
X93.056Y-56.644
X95.05Y-65.5
X95.875Y-50.175
X96.75Y-71.9
X96.8Y-63.7
X97.35Y-53.625
X97.45Y-56.15
X97.9Y-47.2
X98.6Y-69.35
X101.1Y-49.85
X101.65Y-68.3
X102.25Y-65.25
X102.406Y-72.132
X103.55Y-58.75
X114.15Y-72.05
X118.0Y-66.15
X118.35Y-74.4
X118.5Y-54.1
X119.6Y-59.0
X121.35Y-71.95
X126.25Y-72.9
X126.35Y-66.8
X126.75Y-63.45
X126.9Y-52.15
X126.9Y-69.1
X128.45Y-60.35
X129.75Y-62.2
X130.25Y-66.85
X130.35Y-60.35
X130.75Y-56.6
X131.15Y-64.3
X131.9Y-74.95
X132.05Y-51.15
X132.05Y-78.55
X133.1Y-64.4
X133.525Y-46.125
X140.2Y-61.85
X143.6Y-63.4
X144.3Y-51.65
X144.35Y-59.65
X145.0Y-64.0
X145.45Y-70.85
X146.3Y-59.97
X147.1Y-78.35
X147.3Y-63.3
X147.5Y-61.75
X150.75Y-66.1
X151.9Y-59.45
T2
X57.762Y-54.817
X57.762Y-57.357
X57.762Y-59.897
X57.762Y-62.438
X57.762Y-64.977
X57.762Y-67.517
X57.762Y-70.057
X76.85Y-77.4
X79.39Y-77.4
X81.93Y-77.4
X84.47Y-77.4
X89.55Y-77.4
X123.425Y-53.725
X123.425Y-56.265
X123.425Y-58.805
X123.425Y-61.345
X123.425Y-63.885
X123.425Y-66.425
X123.425Y-68.965
X123.425Y-71.505
T0
M30
