G04 #@! TF.GenerationSoftware,KiCad,Pcbnew,(6.0.10)*
G04 #@! TF.CreationDate,2022-12-26T19:25:23+01:00*
G04 #@! TF.ProjectId,HeaterMCU,48656174-6572-44d4-9355-2e6b69636164,rev?*
G04 #@! TF.SameCoordinates,Original*
G04 #@! TF.FileFunction,Legend,Top*
G04 #@! TF.FilePolarity,Positive*
%FSLAX46Y46*%
G04 Gerber Fmt 4.6, Leading zero omitted, Abs format (unit mm)*
G04 Created by KiCad (PCBNEW (6.0.10)) date 2022-12-26 19:25:23*
%MOMM*%
%LPD*%
G01*
G04 APERTURE LIST*
G04 Aperture macros list*
%AMRoundRect*
0 Rectangle with rounded corners*
0 $1 Rounding radius*
0 $2 $3 $4 $5 $6 $7 $8 $9 X,Y pos of 4 corners*
0 Add a 4 corners polygon primitive as box body*
4,1,4,$2,$3,$4,$5,$6,$7,$8,$9,$2,$3,0*
0 Add four circle primitives for the rounded corners*
1,1,$1+$1,$2,$3*
1,1,$1+$1,$4,$5*
1,1,$1+$1,$6,$7*
1,1,$1+$1,$8,$9*
0 Add four rect primitives between the rounded corners*
20,1,$1+$1,$2,$3,$4,$5,0*
20,1,$1+$1,$4,$5,$6,$7,0*
20,1,$1+$1,$6,$7,$8,$9,0*
20,1,$1+$1,$8,$9,$2,$3,0*%
G04 Aperture macros list end*
%ADD10C,0.150000*%
%ADD11C,0.300000*%
%ADD12C,0.100000*%
%ADD13C,0.120000*%
%ADD14RoundRect,0.237500X-0.237500X0.250000X-0.237500X-0.250000X0.237500X-0.250000X0.237500X0.250000X0*%
%ADD15RoundRect,0.237500X0.237500X-0.250000X0.237500X0.250000X-0.237500X0.250000X-0.237500X-0.250000X0*%
%ADD16RoundRect,0.237500X-0.250000X-0.237500X0.250000X-0.237500X0.250000X0.237500X-0.250000X0.237500X0*%
%ADD17RoundRect,0.150000X-0.587500X-0.150000X0.587500X-0.150000X0.587500X0.150000X-0.587500X0.150000X0*%
%ADD18RoundRect,0.237500X-0.237500X0.300000X-0.237500X-0.300000X0.237500X-0.300000X0.237500X0.300000X0*%
%ADD19C,0.700000*%
%ADD20RoundRect,0.237500X-0.287500X-0.237500X0.287500X-0.237500X0.287500X0.237500X-0.287500X0.237500X0*%
%ADD21RoundRect,0.237500X0.250000X0.237500X-0.250000X0.237500X-0.250000X-0.237500X0.250000X-0.237500X0*%
%ADD22R,0.800000X0.300000*%
%ADD23R,3.050000X2.400000*%
%ADD24RoundRect,0.237500X0.237500X-0.300000X0.237500X0.300000X-0.237500X0.300000X-0.237500X-0.300000X0*%
%ADD25C,3.200000*%
%ADD26RoundRect,0.237500X0.237500X-0.287500X0.237500X0.287500X-0.237500X0.287500X-0.237500X-0.287500X0*%
%ADD27C,2.700000*%
%ADD28R,1.700000X1.700000*%
%ADD29C,1.700000*%
%ADD30RoundRect,0.237500X-0.300000X-0.237500X0.300000X-0.237500X0.300000X0.237500X-0.300000X0.237500X0*%
%ADD31R,1.650000X2.000000*%
%ADD32R,0.650000X1.560000*%
%ADD33O,1.700000X1.700000*%
G04 APERTURE END LIST*
D10*
X83700000Y-45971428D02*
X84461904Y-45971428D01*
X84080952Y-46352380D02*
X84080952Y-45590476D01*
X84842857Y-45352380D02*
X85461904Y-45352380D01*
X85128571Y-45733333D01*
X85271428Y-45733333D01*
X85366666Y-45780952D01*
X85414285Y-45828571D01*
X85461904Y-45923809D01*
X85461904Y-46161904D01*
X85414285Y-46257142D01*
X85366666Y-46304761D01*
X85271428Y-46352380D01*
X84985714Y-46352380D01*
X84890476Y-46304761D01*
X84842857Y-46257142D01*
X85890476Y-46257142D02*
X85938095Y-46304761D01*
X85890476Y-46352380D01*
X85842857Y-46304761D01*
X85890476Y-46257142D01*
X85890476Y-46352380D01*
X86271428Y-45352380D02*
X86890476Y-45352380D01*
X86557142Y-45733333D01*
X86700000Y-45733333D01*
X86795238Y-45780952D01*
X86842857Y-45828571D01*
X86890476Y-45923809D01*
X86890476Y-46161904D01*
X86842857Y-46257142D01*
X86795238Y-46304761D01*
X86700000Y-46352380D01*
X86414285Y-46352380D01*
X86319047Y-46304761D01*
X86271428Y-46257142D01*
X87176190Y-45352380D02*
X87509523Y-46352380D01*
X87842857Y-45352380D01*
X73464285Y-46352380D02*
X73464285Y-45352380D01*
X73797619Y-46066666D01*
X74130952Y-45352380D01*
X74130952Y-46352380D01*
X75178571Y-46257142D02*
X75130952Y-46304761D01*
X74988095Y-46352380D01*
X74892857Y-46352380D01*
X74750000Y-46304761D01*
X74654761Y-46209523D01*
X74607142Y-46114285D01*
X74559523Y-45923809D01*
X74559523Y-45780952D01*
X74607142Y-45590476D01*
X74654761Y-45495238D01*
X74750000Y-45400000D01*
X74892857Y-45352380D01*
X74988095Y-45352380D01*
X75130952Y-45400000D01*
X75178571Y-45447619D01*
X75607142Y-45352380D02*
X75607142Y-46161904D01*
X75654761Y-46257142D01*
X75702380Y-46304761D01*
X75797619Y-46352380D01*
X75988095Y-46352380D01*
X76083333Y-46304761D01*
X76130952Y-46257142D01*
X76178571Y-46161904D01*
X76178571Y-45352380D01*
X77607142Y-45352380D02*
X77797619Y-45352380D01*
X77892857Y-45400000D01*
X77988095Y-45495238D01*
X78035714Y-45685714D01*
X78035714Y-46019047D01*
X77988095Y-46209523D01*
X77892857Y-46304761D01*
X77797619Y-46352380D01*
X77607142Y-46352380D01*
X77511904Y-46304761D01*
X77416666Y-46209523D01*
X77369047Y-46019047D01*
X77369047Y-45685714D01*
X77416666Y-45495238D01*
X77511904Y-45400000D01*
X77607142Y-45352380D01*
X78464285Y-46352380D02*
X78464285Y-45352380D01*
X79035714Y-46352380D01*
X79035714Y-45352380D01*
X63233333Y-46352380D02*
X63233333Y-45352380D01*
X63566666Y-46066666D01*
X63900000Y-45352380D01*
X63900000Y-46352380D01*
X64947619Y-46257142D02*
X64900000Y-46304761D01*
X64757142Y-46352380D01*
X64661904Y-46352380D01*
X64519047Y-46304761D01*
X64423809Y-46209523D01*
X64376190Y-46114285D01*
X64328571Y-45923809D01*
X64328571Y-45780952D01*
X64376190Y-45590476D01*
X64423809Y-45495238D01*
X64519047Y-45400000D01*
X64661904Y-45352380D01*
X64757142Y-45352380D01*
X64900000Y-45400000D01*
X64947619Y-45447619D01*
X65376190Y-45352380D02*
X65376190Y-46161904D01*
X65423809Y-46257142D01*
X65471428Y-46304761D01*
X65566666Y-46352380D01*
X65757142Y-46352380D01*
X65852380Y-46304761D01*
X65900000Y-46257142D01*
X65947619Y-46161904D01*
X65947619Y-45352380D01*
X67519047Y-45828571D02*
X67661904Y-45876190D01*
X67709523Y-45923809D01*
X67757142Y-46019047D01*
X67757142Y-46161904D01*
X67709523Y-46257142D01*
X67661904Y-46304761D01*
X67566666Y-46352380D01*
X67185714Y-46352380D01*
X67185714Y-45352380D01*
X67519047Y-45352380D01*
X67614285Y-45400000D01*
X67661904Y-45447619D01*
X67709523Y-45542857D01*
X67709523Y-45638095D01*
X67661904Y-45733333D01*
X67614285Y-45780952D01*
X67519047Y-45828571D01*
X67185714Y-45828571D01*
X68376190Y-45352380D02*
X68566666Y-45352380D01*
X68661904Y-45400000D01*
X68757142Y-45495238D01*
X68804761Y-45685714D01*
X68804761Y-46019047D01*
X68757142Y-46209523D01*
X68661904Y-46304761D01*
X68566666Y-46352380D01*
X68376190Y-46352380D01*
X68280952Y-46304761D01*
X68185714Y-46209523D01*
X68138095Y-46019047D01*
X68138095Y-45685714D01*
X68185714Y-45495238D01*
X68280952Y-45400000D01*
X68376190Y-45352380D01*
X69423809Y-45352380D02*
X69614285Y-45352380D01*
X69709523Y-45400000D01*
X69804761Y-45495238D01*
X69852380Y-45685714D01*
X69852380Y-46019047D01*
X69804761Y-46209523D01*
X69709523Y-46304761D01*
X69614285Y-46352380D01*
X69423809Y-46352380D01*
X69328571Y-46304761D01*
X69233333Y-46209523D01*
X69185714Y-46019047D01*
X69185714Y-45685714D01*
X69233333Y-45495238D01*
X69328571Y-45400000D01*
X69423809Y-45352380D01*
X70138095Y-45352380D02*
X70709523Y-45352380D01*
X70423809Y-46352380D02*
X70423809Y-45352380D01*
X83295238Y-79357142D02*
X83247619Y-79404761D01*
X83104761Y-79452380D01*
X83009523Y-79452380D01*
X82866666Y-79404761D01*
X82771428Y-79309523D01*
X82723809Y-79214285D01*
X82676190Y-79023809D01*
X82676190Y-78880952D01*
X82723809Y-78690476D01*
X82771428Y-78595238D01*
X82866666Y-78500000D01*
X83009523Y-78452380D01*
X83104761Y-78452380D01*
X83247619Y-78500000D01*
X83295238Y-78547619D01*
X83723809Y-78452380D02*
X83723809Y-79261904D01*
X83771428Y-79357142D01*
X83819047Y-79404761D01*
X83914285Y-79452380D01*
X84104761Y-79452380D01*
X84200000Y-79404761D01*
X84247619Y-79357142D01*
X84295238Y-79261904D01*
X84295238Y-78452380D01*
X85342857Y-79452380D02*
X85009523Y-78976190D01*
X84771428Y-79452380D02*
X84771428Y-78452380D01*
X85152380Y-78452380D01*
X85247619Y-78500000D01*
X85295238Y-78547619D01*
X85342857Y-78642857D01*
X85342857Y-78785714D01*
X85295238Y-78880952D01*
X85247619Y-78928571D01*
X85152380Y-78976190D01*
X84771428Y-78976190D01*
X85771428Y-79357142D02*
X85819047Y-79404761D01*
X85771428Y-79452380D01*
X85723809Y-79404761D01*
X85771428Y-79357142D01*
X85771428Y-79452380D01*
X86723809Y-79452380D02*
X86247619Y-79452380D01*
X86247619Y-78452380D01*
X87057142Y-79452380D02*
X87057142Y-78452380D01*
X87533333Y-79452380D02*
X87533333Y-78452380D01*
X87866666Y-79166666D01*
X88200000Y-78452380D01*
X88200000Y-79452380D01*
X88676190Y-79357142D02*
X88723809Y-79404761D01*
X88676190Y-79452380D01*
X88628571Y-79404761D01*
X88676190Y-79357142D01*
X88676190Y-79452380D01*
X72395238Y-79452380D02*
X72395238Y-78452380D01*
X72395238Y-78928571D02*
X72966666Y-78928571D01*
X72966666Y-79452380D02*
X72966666Y-78452380D01*
X73442857Y-79452380D02*
X73442857Y-78452380D01*
X74442857Y-78500000D02*
X74347619Y-78452380D01*
X74204761Y-78452380D01*
X74061904Y-78500000D01*
X73966666Y-78595238D01*
X73919047Y-78690476D01*
X73871428Y-78880952D01*
X73871428Y-79023809D01*
X73919047Y-79214285D01*
X73966666Y-79309523D01*
X74061904Y-79404761D01*
X74204761Y-79452380D01*
X74300000Y-79452380D01*
X74442857Y-79404761D01*
X74490476Y-79357142D01*
X74490476Y-79023809D01*
X74300000Y-79023809D01*
X74919047Y-79452380D02*
X74919047Y-78452380D01*
X74919047Y-78928571D02*
X75490476Y-78928571D01*
X75490476Y-79452380D02*
X75490476Y-78452380D01*
X76585714Y-78452380D02*
X76919047Y-79452380D01*
X77252380Y-78452380D01*
X77776190Y-78452380D02*
X77966666Y-78452380D01*
X78061904Y-78500000D01*
X78157142Y-78595238D01*
X78204761Y-78785714D01*
X78204761Y-79119047D01*
X78157142Y-79309523D01*
X78061904Y-79404761D01*
X77966666Y-79452380D01*
X77776190Y-79452380D01*
X77680952Y-79404761D01*
X77585714Y-79309523D01*
X77538095Y-79119047D01*
X77538095Y-78785714D01*
X77585714Y-78595238D01*
X77680952Y-78500000D01*
X77776190Y-78452380D01*
X79109523Y-79452380D02*
X78633333Y-79452380D01*
X78633333Y-78452380D01*
X79300000Y-78452380D02*
X79871428Y-78452380D01*
X79585714Y-79452380D02*
X79585714Y-78452380D01*
X80204761Y-79357142D02*
X80252380Y-79404761D01*
X80204761Y-79452380D01*
X80157142Y-79404761D01*
X80204761Y-79357142D01*
X80204761Y-79452380D01*
X64400000Y-79452380D02*
X64400000Y-78452380D01*
X64400000Y-78928571D02*
X64971428Y-78928571D01*
X64971428Y-79452380D02*
X64971428Y-78452380D01*
X65447619Y-78928571D02*
X65780952Y-78928571D01*
X65923809Y-79452380D02*
X65447619Y-79452380D01*
X65447619Y-78452380D01*
X65923809Y-78452380D01*
X66304761Y-79166666D02*
X66780952Y-79166666D01*
X66209523Y-79452380D02*
X66542857Y-78452380D01*
X66876190Y-79452380D01*
X67066666Y-78452380D02*
X67638095Y-78452380D01*
X67352380Y-79452380D02*
X67352380Y-78452380D01*
X67971428Y-78928571D02*
X68304761Y-78928571D01*
X68447619Y-79452380D02*
X67971428Y-79452380D01*
X67971428Y-78452380D01*
X68447619Y-78452380D01*
X69447619Y-79452380D02*
X69114285Y-78976190D01*
X68876190Y-79452380D02*
X68876190Y-78452380D01*
X69257142Y-78452380D01*
X69352380Y-78500000D01*
X69400000Y-78547619D01*
X69447619Y-78642857D01*
X69447619Y-78785714D01*
X69400000Y-78880952D01*
X69352380Y-78928571D01*
X69257142Y-78976190D01*
X68876190Y-78976190D01*
X100847619Y-77852380D02*
X100514285Y-77376190D01*
X100276190Y-77852380D02*
X100276190Y-76852380D01*
X100657142Y-76852380D01*
X100752380Y-76900000D01*
X100800000Y-76947619D01*
X100847619Y-77042857D01*
X100847619Y-77185714D01*
X100800000Y-77280952D01*
X100752380Y-77328571D01*
X100657142Y-77376190D01*
X100276190Y-77376190D01*
X101276190Y-77328571D02*
X101609523Y-77328571D01*
X101752380Y-77852380D02*
X101276190Y-77852380D01*
X101276190Y-76852380D01*
X101752380Y-76852380D01*
X102133333Y-77804761D02*
X102276190Y-77852380D01*
X102514285Y-77852380D01*
X102609523Y-77804761D01*
X102657142Y-77757142D01*
X102704761Y-77661904D01*
X102704761Y-77566666D01*
X102657142Y-77471428D01*
X102609523Y-77423809D01*
X102514285Y-77376190D01*
X102323809Y-77328571D01*
X102228571Y-77280952D01*
X102180952Y-77233333D01*
X102133333Y-77138095D01*
X102133333Y-77042857D01*
X102180952Y-76947619D01*
X102228571Y-76900000D01*
X102323809Y-76852380D01*
X102561904Y-76852380D01*
X102704761Y-76900000D01*
X103133333Y-77328571D02*
X103466666Y-77328571D01*
X103609523Y-77852380D02*
X103133333Y-77852380D01*
X103133333Y-76852380D01*
X103609523Y-76852380D01*
X103895238Y-76852380D02*
X104466666Y-76852380D01*
X104180952Y-77852380D02*
X104180952Y-76852380D01*
D11*
X106262500Y-47923214D02*
X106333928Y-47994642D01*
X106262500Y-48066071D01*
X106191071Y-47994642D01*
X106262500Y-47923214D01*
X106262500Y-48066071D01*
D12*
X128686904Y-78295238D02*
X128305952Y-78561904D01*
X128686904Y-78752380D02*
X127886904Y-78752380D01*
X127886904Y-78447619D01*
X127925000Y-78371428D01*
X127963095Y-78333333D01*
X128039285Y-78295238D01*
X128153571Y-78295238D01*
X128229761Y-78333333D01*
X128267857Y-78371428D01*
X128305952Y-78447619D01*
X128305952Y-78752380D01*
X127886904Y-78028571D02*
X127886904Y-77533333D01*
X128191666Y-77800000D01*
X128191666Y-77685714D01*
X128229761Y-77609523D01*
X128267857Y-77571428D01*
X128344047Y-77533333D01*
X128534523Y-77533333D01*
X128610714Y-77571428D01*
X128648809Y-77609523D01*
X128686904Y-77685714D01*
X128686904Y-77914285D01*
X128648809Y-77990476D01*
X128610714Y-78028571D01*
X128686904Y-76771428D02*
X128686904Y-77228571D01*
X128686904Y-77000000D02*
X127886904Y-77000000D01*
X128001190Y-77076190D01*
X128077380Y-77152380D01*
X128115476Y-77228571D01*
X127886904Y-76504761D02*
X127886904Y-76009523D01*
X128191666Y-76276190D01*
X128191666Y-76161904D01*
X128229761Y-76085714D01*
X128267857Y-76047619D01*
X128344047Y-76009523D01*
X128534523Y-76009523D01*
X128610714Y-76047619D01*
X128648809Y-76085714D01*
X128686904Y-76161904D01*
X128686904Y-76390476D01*
X128648809Y-76466666D01*
X128610714Y-76504761D01*
X138716904Y-78325238D02*
X138335952Y-78591904D01*
X138716904Y-78782380D02*
X137916904Y-78782380D01*
X137916904Y-78477619D01*
X137955000Y-78401428D01*
X137993095Y-78363333D01*
X138069285Y-78325238D01*
X138183571Y-78325238D01*
X138259761Y-78363333D01*
X138297857Y-78401428D01*
X138335952Y-78477619D01*
X138335952Y-78782380D01*
X137916904Y-78058571D02*
X137916904Y-77563333D01*
X138221666Y-77830000D01*
X138221666Y-77715714D01*
X138259761Y-77639523D01*
X138297857Y-77601428D01*
X138374047Y-77563333D01*
X138564523Y-77563333D01*
X138640714Y-77601428D01*
X138678809Y-77639523D01*
X138716904Y-77715714D01*
X138716904Y-77944285D01*
X138678809Y-78020476D01*
X138640714Y-78058571D01*
X138716904Y-76801428D02*
X138716904Y-77258571D01*
X138716904Y-77030000D02*
X137916904Y-77030000D01*
X138031190Y-77106190D01*
X138107380Y-77182380D01*
X138145476Y-77258571D01*
X137993095Y-76496666D02*
X137955000Y-76458571D01*
X137916904Y-76382380D01*
X137916904Y-76191904D01*
X137955000Y-76115714D01*
X137993095Y-76077619D01*
X138069285Y-76039523D01*
X138145476Y-76039523D01*
X138259761Y-76077619D01*
X138716904Y-76534761D01*
X138716904Y-76039523D01*
X129879761Y-73336904D02*
X129613095Y-72955952D01*
X129422619Y-73336904D02*
X129422619Y-72536904D01*
X129727380Y-72536904D01*
X129803571Y-72575000D01*
X129841666Y-72613095D01*
X129879761Y-72689285D01*
X129879761Y-72803571D01*
X129841666Y-72879761D01*
X129803571Y-72917857D01*
X129727380Y-72955952D01*
X129422619Y-72955952D01*
X130146428Y-72536904D02*
X130641666Y-72536904D01*
X130375000Y-72841666D01*
X130489285Y-72841666D01*
X130565476Y-72879761D01*
X130603571Y-72917857D01*
X130641666Y-72994047D01*
X130641666Y-73184523D01*
X130603571Y-73260714D01*
X130565476Y-73298809D01*
X130489285Y-73336904D01*
X130260714Y-73336904D01*
X130184523Y-73298809D01*
X130146428Y-73260714D01*
X131403571Y-73336904D02*
X130946428Y-73336904D01*
X131175000Y-73336904D02*
X131175000Y-72536904D01*
X131098809Y-72651190D01*
X131022619Y-72727380D01*
X130946428Y-72765476D01*
X132165476Y-73336904D02*
X131708333Y-73336904D01*
X131936904Y-73336904D02*
X131936904Y-72536904D01*
X131860714Y-72651190D01*
X131784523Y-72727380D01*
X131708333Y-72765476D01*
X133763095Y-78263095D02*
X133725000Y-78339285D01*
X133648809Y-78415476D01*
X133534523Y-78529761D01*
X133496428Y-78605952D01*
X133496428Y-78682142D01*
X133686904Y-78644047D02*
X133648809Y-78720238D01*
X133572619Y-78796428D01*
X133420238Y-78834523D01*
X133153571Y-78834523D01*
X133001190Y-78796428D01*
X132925000Y-78720238D01*
X132886904Y-78644047D01*
X132886904Y-78491666D01*
X132925000Y-78415476D01*
X133001190Y-78339285D01*
X133153571Y-78301190D01*
X133420238Y-78301190D01*
X133572619Y-78339285D01*
X133648809Y-78415476D01*
X133686904Y-78491666D01*
X133686904Y-78644047D01*
X132886904Y-78034523D02*
X132886904Y-77539285D01*
X133191666Y-77805952D01*
X133191666Y-77691666D01*
X133229761Y-77615476D01*
X133267857Y-77577380D01*
X133344047Y-77539285D01*
X133534523Y-77539285D01*
X133610714Y-77577380D01*
X133648809Y-77615476D01*
X133686904Y-77691666D01*
X133686904Y-77920238D01*
X133648809Y-77996428D01*
X133610714Y-78034523D01*
X132886904Y-77044047D02*
X132886904Y-76967857D01*
X132925000Y-76891666D01*
X132963095Y-76853571D01*
X133039285Y-76815476D01*
X133191666Y-76777380D01*
X133382142Y-76777380D01*
X133534523Y-76815476D01*
X133610714Y-76853571D01*
X133648809Y-76891666D01*
X133686904Y-76967857D01*
X133686904Y-77044047D01*
X133648809Y-77120238D01*
X133610714Y-77158333D01*
X133534523Y-77196428D01*
X133382142Y-77234523D01*
X133191666Y-77234523D01*
X133039285Y-77196428D01*
X132963095Y-77158333D01*
X132925000Y-77120238D01*
X132886904Y-77044047D01*
X132963095Y-76472619D02*
X132925000Y-76434523D01*
X132886904Y-76358333D01*
X132886904Y-76167857D01*
X132925000Y-76091666D01*
X132963095Y-76053571D01*
X133039285Y-76015476D01*
X133115476Y-76015476D01*
X133229761Y-76053571D01*
X133686904Y-76510714D01*
X133686904Y-76015476D01*
X136135714Y-78345238D02*
X136173809Y-78383333D01*
X136211904Y-78497619D01*
X136211904Y-78573809D01*
X136173809Y-78688095D01*
X136097619Y-78764285D01*
X136021428Y-78802380D01*
X135869047Y-78840476D01*
X135754761Y-78840476D01*
X135602380Y-78802380D01*
X135526190Y-78764285D01*
X135450000Y-78688095D01*
X135411904Y-78573809D01*
X135411904Y-78497619D01*
X135450000Y-78383333D01*
X135488095Y-78345238D01*
X135411904Y-78078571D02*
X135411904Y-77583333D01*
X135716666Y-77850000D01*
X135716666Y-77735714D01*
X135754761Y-77659523D01*
X135792857Y-77621428D01*
X135869047Y-77583333D01*
X136059523Y-77583333D01*
X136135714Y-77621428D01*
X136173809Y-77659523D01*
X136211904Y-77735714D01*
X136211904Y-77964285D01*
X136173809Y-78040476D01*
X136135714Y-78078571D01*
X136211904Y-76821428D02*
X136211904Y-77278571D01*
X136211904Y-77050000D02*
X135411904Y-77050000D01*
X135526190Y-77126190D01*
X135602380Y-77202380D01*
X135640476Y-77278571D01*
X136211904Y-76059523D02*
X136211904Y-76516666D01*
X136211904Y-76288095D02*
X135411904Y-76288095D01*
X135526190Y-76364285D01*
X135602380Y-76440476D01*
X135640476Y-76516666D01*
X84322619Y-76636904D02*
X84322619Y-75836904D01*
X84513095Y-75836904D01*
X84627380Y-75875000D01*
X84703571Y-75951190D01*
X84741666Y-76027380D01*
X84779761Y-76179761D01*
X84779761Y-76294047D01*
X84741666Y-76446428D01*
X84703571Y-76522619D01*
X84627380Y-76598809D01*
X84513095Y-76636904D01*
X84322619Y-76636904D01*
X85046428Y-75836904D02*
X85541666Y-75836904D01*
X85275000Y-76141666D01*
X85389285Y-76141666D01*
X85465476Y-76179761D01*
X85503571Y-76217857D01*
X85541666Y-76294047D01*
X85541666Y-76484523D01*
X85503571Y-76560714D01*
X85465476Y-76598809D01*
X85389285Y-76636904D01*
X85160714Y-76636904D01*
X85084523Y-76598809D01*
X85046428Y-76560714D01*
X86036904Y-75836904D02*
X86113095Y-75836904D01*
X86189285Y-75875000D01*
X86227380Y-75913095D01*
X86265476Y-75989285D01*
X86303571Y-76141666D01*
X86303571Y-76332142D01*
X86265476Y-76484523D01*
X86227380Y-76560714D01*
X86189285Y-76598809D01*
X86113095Y-76636904D01*
X86036904Y-76636904D01*
X85960714Y-76598809D01*
X85922619Y-76560714D01*
X85884523Y-76484523D01*
X85846428Y-76332142D01*
X85846428Y-76141666D01*
X85884523Y-75989285D01*
X85922619Y-75913095D01*
X85960714Y-75875000D01*
X86036904Y-75836904D01*
X87027380Y-75836904D02*
X86646428Y-75836904D01*
X86608333Y-76217857D01*
X86646428Y-76179761D01*
X86722619Y-76141666D01*
X86913095Y-76141666D01*
X86989285Y-76179761D01*
X87027380Y-76217857D01*
X87065476Y-76294047D01*
X87065476Y-76484523D01*
X87027380Y-76560714D01*
X86989285Y-76598809D01*
X86913095Y-76636904D01*
X86722619Y-76636904D01*
X86646428Y-76598809D01*
X86608333Y-76560714D01*
X74947619Y-76611904D02*
X74947619Y-75811904D01*
X75138095Y-75811904D01*
X75252380Y-75850000D01*
X75328571Y-75926190D01*
X75366666Y-76002380D01*
X75404761Y-76154761D01*
X75404761Y-76269047D01*
X75366666Y-76421428D01*
X75328571Y-76497619D01*
X75252380Y-76573809D01*
X75138095Y-76611904D01*
X74947619Y-76611904D01*
X75671428Y-75811904D02*
X76166666Y-75811904D01*
X75900000Y-76116666D01*
X76014285Y-76116666D01*
X76090476Y-76154761D01*
X76128571Y-76192857D01*
X76166666Y-76269047D01*
X76166666Y-76459523D01*
X76128571Y-76535714D01*
X76090476Y-76573809D01*
X76014285Y-76611904D01*
X75785714Y-76611904D01*
X75709523Y-76573809D01*
X75671428Y-76535714D01*
X76661904Y-75811904D02*
X76738095Y-75811904D01*
X76814285Y-75850000D01*
X76852380Y-75888095D01*
X76890476Y-75964285D01*
X76928571Y-76116666D01*
X76928571Y-76307142D01*
X76890476Y-76459523D01*
X76852380Y-76535714D01*
X76814285Y-76573809D01*
X76738095Y-76611904D01*
X76661904Y-76611904D01*
X76585714Y-76573809D01*
X76547619Y-76535714D01*
X76509523Y-76459523D01*
X76471428Y-76307142D01*
X76471428Y-76116666D01*
X76509523Y-75964285D01*
X76547619Y-75888095D01*
X76585714Y-75850000D01*
X76661904Y-75811904D01*
X77614285Y-76078571D02*
X77614285Y-76611904D01*
X77423809Y-75773809D02*
X77233333Y-76345238D01*
X77728571Y-76345238D01*
X65522619Y-76636904D02*
X65522619Y-75836904D01*
X65713095Y-75836904D01*
X65827380Y-75875000D01*
X65903571Y-75951190D01*
X65941666Y-76027380D01*
X65979761Y-76179761D01*
X65979761Y-76294047D01*
X65941666Y-76446428D01*
X65903571Y-76522619D01*
X65827380Y-76598809D01*
X65713095Y-76636904D01*
X65522619Y-76636904D01*
X66246428Y-75836904D02*
X66741666Y-75836904D01*
X66475000Y-76141666D01*
X66589285Y-76141666D01*
X66665476Y-76179761D01*
X66703571Y-76217857D01*
X66741666Y-76294047D01*
X66741666Y-76484523D01*
X66703571Y-76560714D01*
X66665476Y-76598809D01*
X66589285Y-76636904D01*
X66360714Y-76636904D01*
X66284523Y-76598809D01*
X66246428Y-76560714D01*
X67236904Y-75836904D02*
X67313095Y-75836904D01*
X67389285Y-75875000D01*
X67427380Y-75913095D01*
X67465476Y-75989285D01*
X67503571Y-76141666D01*
X67503571Y-76332142D01*
X67465476Y-76484523D01*
X67427380Y-76560714D01*
X67389285Y-76598809D01*
X67313095Y-76636904D01*
X67236904Y-76636904D01*
X67160714Y-76598809D01*
X67122619Y-76560714D01*
X67084523Y-76484523D01*
X67046428Y-76332142D01*
X67046428Y-76141666D01*
X67084523Y-75989285D01*
X67122619Y-75913095D01*
X67160714Y-75875000D01*
X67236904Y-75836904D01*
X67770238Y-75836904D02*
X68265476Y-75836904D01*
X67998809Y-76141666D01*
X68113095Y-76141666D01*
X68189285Y-76179761D01*
X68227380Y-76217857D01*
X68265476Y-76294047D01*
X68265476Y-76484523D01*
X68227380Y-76560714D01*
X68189285Y-76598809D01*
X68113095Y-76636904D01*
X67884523Y-76636904D01*
X67808333Y-76598809D01*
X67770238Y-76560714D01*
X84779761Y-74036904D02*
X84513095Y-73655952D01*
X84322619Y-74036904D02*
X84322619Y-73236904D01*
X84627380Y-73236904D01*
X84703571Y-73275000D01*
X84741666Y-73313095D01*
X84779761Y-73389285D01*
X84779761Y-73503571D01*
X84741666Y-73579761D01*
X84703571Y-73617857D01*
X84627380Y-73655952D01*
X84322619Y-73655952D01*
X85046428Y-73236904D02*
X85541666Y-73236904D01*
X85275000Y-73541666D01*
X85389285Y-73541666D01*
X85465476Y-73579761D01*
X85503571Y-73617857D01*
X85541666Y-73694047D01*
X85541666Y-73884523D01*
X85503571Y-73960714D01*
X85465476Y-73998809D01*
X85389285Y-74036904D01*
X85160714Y-74036904D01*
X85084523Y-73998809D01*
X85046428Y-73960714D01*
X86036904Y-73236904D02*
X86113095Y-73236904D01*
X86189285Y-73275000D01*
X86227380Y-73313095D01*
X86265476Y-73389285D01*
X86303571Y-73541666D01*
X86303571Y-73732142D01*
X86265476Y-73884523D01*
X86227380Y-73960714D01*
X86189285Y-73998809D01*
X86113095Y-74036904D01*
X86036904Y-74036904D01*
X85960714Y-73998809D01*
X85922619Y-73960714D01*
X85884523Y-73884523D01*
X85846428Y-73732142D01*
X85846428Y-73541666D01*
X85884523Y-73389285D01*
X85922619Y-73313095D01*
X85960714Y-73275000D01*
X86036904Y-73236904D01*
X86570238Y-73236904D02*
X87103571Y-73236904D01*
X86760714Y-74036904D01*
X65533174Y-48861904D02*
X65533174Y-48061904D01*
X65723650Y-48061904D01*
X65837935Y-48100000D01*
X65914126Y-48176190D01*
X65952221Y-48252380D01*
X65990316Y-48404761D01*
X65990316Y-48519047D01*
X65952221Y-48671428D01*
X65914126Y-48747619D01*
X65837935Y-48823809D01*
X65723650Y-48861904D01*
X65533174Y-48861904D01*
X66256983Y-48061904D02*
X66752221Y-48061904D01*
X66485555Y-48366666D01*
X66599840Y-48366666D01*
X66676031Y-48404761D01*
X66714126Y-48442857D01*
X66752221Y-48519047D01*
X66752221Y-48709523D01*
X66714126Y-48785714D01*
X66676031Y-48823809D01*
X66599840Y-48861904D01*
X66371269Y-48861904D01*
X66295078Y-48823809D01*
X66256983Y-48785714D01*
X67247459Y-48061904D02*
X67323650Y-48061904D01*
X67399840Y-48100000D01*
X67437935Y-48138095D01*
X67476031Y-48214285D01*
X67514126Y-48366666D01*
X67514126Y-48557142D01*
X67476031Y-48709523D01*
X67437935Y-48785714D01*
X67399840Y-48823809D01*
X67323650Y-48861904D01*
X67247459Y-48861904D01*
X67171269Y-48823809D01*
X67133174Y-48785714D01*
X67095078Y-48709523D01*
X67056983Y-48557142D01*
X67056983Y-48366666D01*
X67095078Y-48214285D01*
X67133174Y-48138095D01*
X67171269Y-48100000D01*
X67247459Y-48061904D01*
X68276031Y-48861904D02*
X67818888Y-48861904D01*
X68047459Y-48861904D02*
X68047459Y-48061904D01*
X67971269Y-48176190D01*
X67895078Y-48252380D01*
X67818888Y-48290476D01*
X112685714Y-51595238D02*
X112723809Y-51633333D01*
X112761904Y-51747619D01*
X112761904Y-51823809D01*
X112723809Y-51938095D01*
X112647619Y-52014285D01*
X112571428Y-52052380D01*
X112419047Y-52090476D01*
X112304761Y-52090476D01*
X112152380Y-52052380D01*
X112076190Y-52014285D01*
X112000000Y-51938095D01*
X111961904Y-51823809D01*
X111961904Y-51747619D01*
X112000000Y-51633333D01*
X112038095Y-51595238D01*
X111961904Y-51328571D02*
X111961904Y-50833333D01*
X112266666Y-51100000D01*
X112266666Y-50985714D01*
X112304761Y-50909523D01*
X112342857Y-50871428D01*
X112419047Y-50833333D01*
X112609523Y-50833333D01*
X112685714Y-50871428D01*
X112723809Y-50909523D01*
X112761904Y-50985714D01*
X112761904Y-51214285D01*
X112723809Y-51290476D01*
X112685714Y-51328571D01*
X112761904Y-50071428D02*
X112761904Y-50528571D01*
X112761904Y-50300000D02*
X111961904Y-50300000D01*
X112076190Y-50376190D01*
X112152380Y-50452380D01*
X112190476Y-50528571D01*
X111961904Y-49347619D02*
X111961904Y-49728571D01*
X112342857Y-49766666D01*
X112304761Y-49728571D01*
X112266666Y-49652380D01*
X112266666Y-49461904D01*
X112304761Y-49385714D01*
X112342857Y-49347619D01*
X112419047Y-49309523D01*
X112609523Y-49309523D01*
X112685714Y-49347619D01*
X112723809Y-49385714D01*
X112761904Y-49461904D01*
X112761904Y-49652380D01*
X112723809Y-49728571D01*
X112685714Y-49766666D01*
X128011904Y-66095238D02*
X127630952Y-66361904D01*
X128011904Y-66552380D02*
X127211904Y-66552380D01*
X127211904Y-66247619D01*
X127250000Y-66171428D01*
X127288095Y-66133333D01*
X127364285Y-66095238D01*
X127478571Y-66095238D01*
X127554761Y-66133333D01*
X127592857Y-66171428D01*
X127630952Y-66247619D01*
X127630952Y-66552380D01*
X127211904Y-65828571D02*
X127211904Y-65333333D01*
X127516666Y-65600000D01*
X127516666Y-65485714D01*
X127554761Y-65409523D01*
X127592857Y-65371428D01*
X127669047Y-65333333D01*
X127859523Y-65333333D01*
X127935714Y-65371428D01*
X127973809Y-65409523D01*
X128011904Y-65485714D01*
X128011904Y-65714285D01*
X127973809Y-65790476D01*
X127935714Y-65828571D01*
X127211904Y-64838095D02*
X127211904Y-64761904D01*
X127250000Y-64685714D01*
X127288095Y-64647619D01*
X127364285Y-64609523D01*
X127516666Y-64571428D01*
X127707142Y-64571428D01*
X127859523Y-64609523D01*
X127935714Y-64647619D01*
X127973809Y-64685714D01*
X128011904Y-64761904D01*
X128011904Y-64838095D01*
X127973809Y-64914285D01*
X127935714Y-64952380D01*
X127859523Y-64990476D01*
X127707142Y-65028571D01*
X127516666Y-65028571D01*
X127364285Y-64990476D01*
X127288095Y-64952380D01*
X127250000Y-64914285D01*
X127211904Y-64838095D01*
X127211904Y-63885714D02*
X127211904Y-64038095D01*
X127250000Y-64114285D01*
X127288095Y-64152380D01*
X127402380Y-64228571D01*
X127554761Y-64266666D01*
X127859523Y-64266666D01*
X127935714Y-64228571D01*
X127973809Y-64190476D01*
X128011904Y-64114285D01*
X128011904Y-63961904D01*
X127973809Y-63885714D01*
X127935714Y-63847619D01*
X127859523Y-63809523D01*
X127669047Y-63809523D01*
X127592857Y-63847619D01*
X127554761Y-63885714D01*
X127516666Y-63961904D01*
X127516666Y-64114285D01*
X127554761Y-64190476D01*
X127592857Y-64228571D01*
X127669047Y-64266666D01*
X148761904Y-63328571D02*
X149333333Y-63328571D01*
X149447619Y-63366666D01*
X149523809Y-63442857D01*
X149561904Y-63557142D01*
X149561904Y-63633333D01*
X148761904Y-63023809D02*
X148761904Y-62528571D01*
X149066666Y-62795238D01*
X149066666Y-62680952D01*
X149104761Y-62604761D01*
X149142857Y-62566666D01*
X149219047Y-62528571D01*
X149409523Y-62528571D01*
X149485714Y-62566666D01*
X149523809Y-62604761D01*
X149561904Y-62680952D01*
X149561904Y-62909523D01*
X149523809Y-62985714D01*
X149485714Y-63023809D01*
X148761904Y-62033333D02*
X148761904Y-61957142D01*
X148800000Y-61880952D01*
X148838095Y-61842857D01*
X148914285Y-61804761D01*
X149066666Y-61766666D01*
X149257142Y-61766666D01*
X149409523Y-61804761D01*
X149485714Y-61842857D01*
X149523809Y-61880952D01*
X149561904Y-61957142D01*
X149561904Y-62033333D01*
X149523809Y-62109523D01*
X149485714Y-62147619D01*
X149409523Y-62185714D01*
X149257142Y-62223809D01*
X149066666Y-62223809D01*
X148914285Y-62185714D01*
X148838095Y-62147619D01*
X148800000Y-62109523D01*
X148761904Y-62033333D01*
X148838095Y-61461904D02*
X148800000Y-61423809D01*
X148761904Y-61347619D01*
X148761904Y-61157142D01*
X148800000Y-61080952D01*
X148838095Y-61042857D01*
X148914285Y-61004761D01*
X148990476Y-61004761D01*
X149104761Y-61042857D01*
X149561904Y-61500000D01*
X149561904Y-61004761D01*
X129704761Y-61311904D02*
X129438095Y-60930952D01*
X129247619Y-61311904D02*
X129247619Y-60511904D01*
X129552380Y-60511904D01*
X129628571Y-60550000D01*
X129666666Y-60588095D01*
X129704761Y-60664285D01*
X129704761Y-60778571D01*
X129666666Y-60854761D01*
X129628571Y-60892857D01*
X129552380Y-60930952D01*
X129247619Y-60930952D01*
X129971428Y-60511904D02*
X130466666Y-60511904D01*
X130200000Y-60816666D01*
X130314285Y-60816666D01*
X130390476Y-60854761D01*
X130428571Y-60892857D01*
X130466666Y-60969047D01*
X130466666Y-61159523D01*
X130428571Y-61235714D01*
X130390476Y-61273809D01*
X130314285Y-61311904D01*
X130085714Y-61311904D01*
X130009523Y-61273809D01*
X129971428Y-61235714D01*
X130961904Y-60511904D02*
X131038095Y-60511904D01*
X131114285Y-60550000D01*
X131152380Y-60588095D01*
X131190476Y-60664285D01*
X131228571Y-60816666D01*
X131228571Y-61007142D01*
X131190476Y-61159523D01*
X131152380Y-61235714D01*
X131114285Y-61273809D01*
X131038095Y-61311904D01*
X130961904Y-61311904D01*
X130885714Y-61273809D01*
X130847619Y-61235714D01*
X130809523Y-61159523D01*
X130771428Y-61007142D01*
X130771428Y-60816666D01*
X130809523Y-60664285D01*
X130847619Y-60588095D01*
X130885714Y-60550000D01*
X130961904Y-60511904D01*
X131495238Y-60511904D02*
X131990476Y-60511904D01*
X131723809Y-60816666D01*
X131838095Y-60816666D01*
X131914285Y-60854761D01*
X131952380Y-60892857D01*
X131990476Y-60969047D01*
X131990476Y-61159523D01*
X131952380Y-61235714D01*
X131914285Y-61273809D01*
X131838095Y-61311904D01*
X131609523Y-61311904D01*
X131533333Y-61273809D01*
X131495238Y-61235714D01*
X129854761Y-69761904D02*
X129588095Y-69380952D01*
X129397619Y-69761904D02*
X129397619Y-68961904D01*
X129702380Y-68961904D01*
X129778571Y-69000000D01*
X129816666Y-69038095D01*
X129854761Y-69114285D01*
X129854761Y-69228571D01*
X129816666Y-69304761D01*
X129778571Y-69342857D01*
X129702380Y-69380952D01*
X129397619Y-69380952D01*
X130121428Y-68961904D02*
X130616666Y-68961904D01*
X130350000Y-69266666D01*
X130464285Y-69266666D01*
X130540476Y-69304761D01*
X130578571Y-69342857D01*
X130616666Y-69419047D01*
X130616666Y-69609523D01*
X130578571Y-69685714D01*
X130540476Y-69723809D01*
X130464285Y-69761904D01*
X130235714Y-69761904D01*
X130159523Y-69723809D01*
X130121428Y-69685714D01*
X131111904Y-68961904D02*
X131188095Y-68961904D01*
X131264285Y-69000000D01*
X131302380Y-69038095D01*
X131340476Y-69114285D01*
X131378571Y-69266666D01*
X131378571Y-69457142D01*
X131340476Y-69609523D01*
X131302380Y-69685714D01*
X131264285Y-69723809D01*
X131188095Y-69761904D01*
X131111904Y-69761904D01*
X131035714Y-69723809D01*
X130997619Y-69685714D01*
X130959523Y-69609523D01*
X130921428Y-69457142D01*
X130921428Y-69266666D01*
X130959523Y-69114285D01*
X130997619Y-69038095D01*
X131035714Y-69000000D01*
X131111904Y-68961904D01*
X132064285Y-69228571D02*
X132064285Y-69761904D01*
X131873809Y-68923809D02*
X131683333Y-69495238D01*
X132178571Y-69495238D01*
X101235714Y-51532738D02*
X101273809Y-51570833D01*
X101311904Y-51685119D01*
X101311904Y-51761309D01*
X101273809Y-51875595D01*
X101197619Y-51951785D01*
X101121428Y-51989880D01*
X100969047Y-52027976D01*
X100854761Y-52027976D01*
X100702380Y-51989880D01*
X100626190Y-51951785D01*
X100550000Y-51875595D01*
X100511904Y-51761309D01*
X100511904Y-51685119D01*
X100550000Y-51570833D01*
X100588095Y-51532738D01*
X100511904Y-51266071D02*
X100511904Y-50770833D01*
X100816666Y-51037500D01*
X100816666Y-50923214D01*
X100854761Y-50847023D01*
X100892857Y-50808928D01*
X100969047Y-50770833D01*
X101159523Y-50770833D01*
X101235714Y-50808928D01*
X101273809Y-50847023D01*
X101311904Y-50923214D01*
X101311904Y-51151785D01*
X101273809Y-51227976D01*
X101235714Y-51266071D01*
X101311904Y-50008928D02*
X101311904Y-50466071D01*
X101311904Y-50237500D02*
X100511904Y-50237500D01*
X100626190Y-50313690D01*
X100702380Y-50389880D01*
X100740476Y-50466071D01*
X100588095Y-49704166D02*
X100550000Y-49666071D01*
X100511904Y-49589880D01*
X100511904Y-49399404D01*
X100550000Y-49323214D01*
X100588095Y-49285119D01*
X100664285Y-49247023D01*
X100740476Y-49247023D01*
X100854761Y-49285119D01*
X101311904Y-49742261D01*
X101311904Y-49247023D01*
X110161904Y-47995238D02*
X109780952Y-48261904D01*
X110161904Y-48452380D02*
X109361904Y-48452380D01*
X109361904Y-48147619D01*
X109400000Y-48071428D01*
X109438095Y-48033333D01*
X109514285Y-47995238D01*
X109628571Y-47995238D01*
X109704761Y-48033333D01*
X109742857Y-48071428D01*
X109780952Y-48147619D01*
X109780952Y-48452380D01*
X109361904Y-47728571D02*
X109361904Y-47233333D01*
X109666666Y-47500000D01*
X109666666Y-47385714D01*
X109704761Y-47309523D01*
X109742857Y-47271428D01*
X109819047Y-47233333D01*
X110009523Y-47233333D01*
X110085714Y-47271428D01*
X110123809Y-47309523D01*
X110161904Y-47385714D01*
X110161904Y-47614285D01*
X110123809Y-47690476D01*
X110085714Y-47728571D01*
X110161904Y-46471428D02*
X110161904Y-46928571D01*
X110161904Y-46700000D02*
X109361904Y-46700000D01*
X109476190Y-46776190D01*
X109552380Y-46852380D01*
X109590476Y-46928571D01*
X109361904Y-45747619D02*
X109361904Y-46128571D01*
X109742857Y-46166666D01*
X109704761Y-46128571D01*
X109666666Y-46052380D01*
X109666666Y-45861904D01*
X109704761Y-45785714D01*
X109742857Y-45747619D01*
X109819047Y-45709523D01*
X110009523Y-45709523D01*
X110085714Y-45747619D01*
X110123809Y-45785714D01*
X110161904Y-45861904D01*
X110161904Y-46052380D01*
X110123809Y-46128571D01*
X110085714Y-46166666D01*
X97672857Y-52078571D02*
X97672857Y-52345238D01*
X98091904Y-52345238D02*
X97291904Y-52345238D01*
X97291904Y-51964285D01*
X97672857Y-51392857D02*
X97710952Y-51278571D01*
X97749047Y-51240476D01*
X97825238Y-51202380D01*
X97939523Y-51202380D01*
X98015714Y-51240476D01*
X98053809Y-51278571D01*
X98091904Y-51354761D01*
X98091904Y-51659523D01*
X97291904Y-51659523D01*
X97291904Y-51392857D01*
X97330000Y-51316666D01*
X97368095Y-51278571D01*
X97444285Y-51240476D01*
X97520476Y-51240476D01*
X97596666Y-51278571D01*
X97634761Y-51316666D01*
X97672857Y-51392857D01*
X97672857Y-51659523D01*
X97291904Y-50935714D02*
X97291904Y-50440476D01*
X97596666Y-50707142D01*
X97596666Y-50592857D01*
X97634761Y-50516666D01*
X97672857Y-50478571D01*
X97749047Y-50440476D01*
X97939523Y-50440476D01*
X98015714Y-50478571D01*
X98053809Y-50516666D01*
X98091904Y-50592857D01*
X98091904Y-50821428D01*
X98053809Y-50897619D01*
X98015714Y-50935714D01*
X97291904Y-49945238D02*
X97291904Y-49869047D01*
X97330000Y-49792857D01*
X97368095Y-49754761D01*
X97444285Y-49716666D01*
X97596666Y-49678571D01*
X97787142Y-49678571D01*
X97939523Y-49716666D01*
X98015714Y-49754761D01*
X98053809Y-49792857D01*
X98091904Y-49869047D01*
X98091904Y-49945238D01*
X98053809Y-50021428D01*
X98015714Y-50059523D01*
X97939523Y-50097619D01*
X97787142Y-50135714D01*
X97596666Y-50135714D01*
X97444285Y-50097619D01*
X97368095Y-50059523D01*
X97330000Y-50021428D01*
X97291904Y-49945238D01*
X98091904Y-48916666D02*
X98091904Y-49373809D01*
X98091904Y-49145238D02*
X97291904Y-49145238D01*
X97406190Y-49221428D01*
X97482380Y-49297619D01*
X97520476Y-49373809D01*
X104304761Y-46086904D02*
X104038095Y-45705952D01*
X103847619Y-46086904D02*
X103847619Y-45286904D01*
X104152380Y-45286904D01*
X104228571Y-45325000D01*
X104266666Y-45363095D01*
X104304761Y-45439285D01*
X104304761Y-45553571D01*
X104266666Y-45629761D01*
X104228571Y-45667857D01*
X104152380Y-45705952D01*
X103847619Y-45705952D01*
X104571428Y-45286904D02*
X105066666Y-45286904D01*
X104800000Y-45591666D01*
X104914285Y-45591666D01*
X104990476Y-45629761D01*
X105028571Y-45667857D01*
X105066666Y-45744047D01*
X105066666Y-45934523D01*
X105028571Y-46010714D01*
X104990476Y-46048809D01*
X104914285Y-46086904D01*
X104685714Y-46086904D01*
X104609523Y-46048809D01*
X104571428Y-46010714D01*
X105828571Y-46086904D02*
X105371428Y-46086904D01*
X105600000Y-46086904D02*
X105600000Y-45286904D01*
X105523809Y-45401190D01*
X105447619Y-45477380D01*
X105371428Y-45515476D01*
X106514285Y-45553571D02*
X106514285Y-46086904D01*
X106323809Y-45248809D02*
X106133333Y-45820238D01*
X106628571Y-45820238D01*
X74852619Y-48911904D02*
X74852619Y-48111904D01*
X75043095Y-48111904D01*
X75157380Y-48150000D01*
X75233571Y-48226190D01*
X75271666Y-48302380D01*
X75309761Y-48454761D01*
X75309761Y-48569047D01*
X75271666Y-48721428D01*
X75233571Y-48797619D01*
X75157380Y-48873809D01*
X75043095Y-48911904D01*
X74852619Y-48911904D01*
X75576428Y-48111904D02*
X76071666Y-48111904D01*
X75805000Y-48416666D01*
X75919285Y-48416666D01*
X75995476Y-48454761D01*
X76033571Y-48492857D01*
X76071666Y-48569047D01*
X76071666Y-48759523D01*
X76033571Y-48835714D01*
X75995476Y-48873809D01*
X75919285Y-48911904D01*
X75690714Y-48911904D01*
X75614523Y-48873809D01*
X75576428Y-48835714D01*
X76566904Y-48111904D02*
X76643095Y-48111904D01*
X76719285Y-48150000D01*
X76757380Y-48188095D01*
X76795476Y-48264285D01*
X76833571Y-48416666D01*
X76833571Y-48607142D01*
X76795476Y-48759523D01*
X76757380Y-48835714D01*
X76719285Y-48873809D01*
X76643095Y-48911904D01*
X76566904Y-48911904D01*
X76490714Y-48873809D01*
X76452619Y-48835714D01*
X76414523Y-48759523D01*
X76376428Y-48607142D01*
X76376428Y-48416666D01*
X76414523Y-48264285D01*
X76452619Y-48188095D01*
X76490714Y-48150000D01*
X76566904Y-48111904D01*
X77138333Y-48188095D02*
X77176428Y-48150000D01*
X77252619Y-48111904D01*
X77443095Y-48111904D01*
X77519285Y-48150000D01*
X77557380Y-48188095D01*
X77595476Y-48264285D01*
X77595476Y-48340476D01*
X77557380Y-48454761D01*
X77100238Y-48911904D01*
X77595476Y-48911904D01*
X126286011Y-69685714D02*
X126247916Y-69723809D01*
X126133630Y-69761904D01*
X126057440Y-69761904D01*
X125943154Y-69723809D01*
X125866964Y-69647619D01*
X125828869Y-69571428D01*
X125790773Y-69419047D01*
X125790773Y-69304761D01*
X125828869Y-69152380D01*
X125866964Y-69076190D01*
X125943154Y-69000000D01*
X126057440Y-68961904D01*
X126133630Y-68961904D01*
X126247916Y-69000000D01*
X126286011Y-69038095D01*
X126552678Y-68961904D02*
X127047916Y-68961904D01*
X126781250Y-69266666D01*
X126895535Y-69266666D01*
X126971726Y-69304761D01*
X127009821Y-69342857D01*
X127047916Y-69419047D01*
X127047916Y-69609523D01*
X127009821Y-69685714D01*
X126971726Y-69723809D01*
X126895535Y-69761904D01*
X126666964Y-69761904D01*
X126590773Y-69723809D01*
X126552678Y-69685714D01*
X127543154Y-68961904D02*
X127619345Y-68961904D01*
X127695535Y-69000000D01*
X127733630Y-69038095D01*
X127771726Y-69114285D01*
X127809821Y-69266666D01*
X127809821Y-69457142D01*
X127771726Y-69609523D01*
X127733630Y-69685714D01*
X127695535Y-69723809D01*
X127619345Y-69761904D01*
X127543154Y-69761904D01*
X127466964Y-69723809D01*
X127428869Y-69685714D01*
X127390773Y-69609523D01*
X127352678Y-69457142D01*
X127352678Y-69266666D01*
X127390773Y-69114285D01*
X127428869Y-69038095D01*
X127466964Y-69000000D01*
X127543154Y-68961904D01*
X128266964Y-69304761D02*
X128190773Y-69266666D01*
X128152678Y-69228571D01*
X128114583Y-69152380D01*
X128114583Y-69114285D01*
X128152678Y-69038095D01*
X128190773Y-69000000D01*
X128266964Y-68961904D01*
X128419345Y-68961904D01*
X128495535Y-69000000D01*
X128533630Y-69038095D01*
X128571726Y-69114285D01*
X128571726Y-69152380D01*
X128533630Y-69228571D01*
X128495535Y-69266666D01*
X128419345Y-69304761D01*
X128266964Y-69304761D01*
X128190773Y-69342857D01*
X128152678Y-69380952D01*
X128114583Y-69457142D01*
X128114583Y-69609523D01*
X128152678Y-69685714D01*
X128190773Y-69723809D01*
X128266964Y-69761904D01*
X128419345Y-69761904D01*
X128495535Y-69723809D01*
X128533630Y-69685714D01*
X128571726Y-69609523D01*
X128571726Y-69457142D01*
X128533630Y-69380952D01*
X128495535Y-69342857D01*
X128419345Y-69304761D01*
X99442261Y-57835714D02*
X99404166Y-57873809D01*
X99289880Y-57911904D01*
X99213690Y-57911904D01*
X99099404Y-57873809D01*
X99023214Y-57797619D01*
X98985119Y-57721428D01*
X98947023Y-57569047D01*
X98947023Y-57454761D01*
X98985119Y-57302380D01*
X99023214Y-57226190D01*
X99099404Y-57150000D01*
X99213690Y-57111904D01*
X99289880Y-57111904D01*
X99404166Y-57150000D01*
X99442261Y-57188095D01*
X99708928Y-57111904D02*
X100204166Y-57111904D01*
X99937500Y-57416666D01*
X100051785Y-57416666D01*
X100127976Y-57454761D01*
X100166071Y-57492857D01*
X100204166Y-57569047D01*
X100204166Y-57759523D01*
X100166071Y-57835714D01*
X100127976Y-57873809D01*
X100051785Y-57911904D01*
X99823214Y-57911904D01*
X99747023Y-57873809D01*
X99708928Y-57835714D01*
X100966071Y-57911904D02*
X100508928Y-57911904D01*
X100737500Y-57911904D02*
X100737500Y-57111904D01*
X100661309Y-57226190D01*
X100585119Y-57302380D01*
X100508928Y-57340476D01*
X101232738Y-57111904D02*
X101727976Y-57111904D01*
X101461309Y-57416666D01*
X101575595Y-57416666D01*
X101651785Y-57454761D01*
X101689880Y-57492857D01*
X101727976Y-57569047D01*
X101727976Y-57759523D01*
X101689880Y-57835714D01*
X101651785Y-57873809D01*
X101575595Y-57911904D01*
X101347023Y-57911904D01*
X101270833Y-57873809D01*
X101232738Y-57835714D01*
X84347619Y-48911904D02*
X84347619Y-48111904D01*
X84538095Y-48111904D01*
X84652380Y-48150000D01*
X84728571Y-48226190D01*
X84766666Y-48302380D01*
X84804761Y-48454761D01*
X84804761Y-48569047D01*
X84766666Y-48721428D01*
X84728571Y-48797619D01*
X84652380Y-48873809D01*
X84538095Y-48911904D01*
X84347619Y-48911904D01*
X85071428Y-48111904D02*
X85566666Y-48111904D01*
X85300000Y-48416666D01*
X85414285Y-48416666D01*
X85490476Y-48454761D01*
X85528571Y-48492857D01*
X85566666Y-48569047D01*
X85566666Y-48759523D01*
X85528571Y-48835714D01*
X85490476Y-48873809D01*
X85414285Y-48911904D01*
X85185714Y-48911904D01*
X85109523Y-48873809D01*
X85071428Y-48835714D01*
X86061904Y-48111904D02*
X86138095Y-48111904D01*
X86214285Y-48150000D01*
X86252380Y-48188095D01*
X86290476Y-48264285D01*
X86328571Y-48416666D01*
X86328571Y-48607142D01*
X86290476Y-48759523D01*
X86252380Y-48835714D01*
X86214285Y-48873809D01*
X86138095Y-48911904D01*
X86061904Y-48911904D01*
X85985714Y-48873809D01*
X85947619Y-48835714D01*
X85909523Y-48759523D01*
X85871428Y-48607142D01*
X85871428Y-48416666D01*
X85909523Y-48264285D01*
X85947619Y-48188095D01*
X85985714Y-48150000D01*
X86061904Y-48111904D01*
X87014285Y-48111904D02*
X86861904Y-48111904D01*
X86785714Y-48150000D01*
X86747619Y-48188095D01*
X86671428Y-48302380D01*
X86633333Y-48454761D01*
X86633333Y-48759523D01*
X86671428Y-48835714D01*
X86709523Y-48873809D01*
X86785714Y-48911904D01*
X86938095Y-48911904D01*
X87014285Y-48873809D01*
X87052380Y-48835714D01*
X87090476Y-48759523D01*
X87090476Y-48569047D01*
X87052380Y-48492857D01*
X87014285Y-48454761D01*
X86938095Y-48416666D01*
X86785714Y-48416666D01*
X86709523Y-48454761D01*
X86671428Y-48492857D01*
X86633333Y-48569047D01*
X104204761Y-57011904D02*
X103823809Y-57011904D01*
X103823809Y-56211904D01*
X104395238Y-56211904D02*
X104890476Y-56211904D01*
X104623809Y-56516666D01*
X104738095Y-56516666D01*
X104814285Y-56554761D01*
X104852380Y-56592857D01*
X104890476Y-56669047D01*
X104890476Y-56859523D01*
X104852380Y-56935714D01*
X104814285Y-56973809D01*
X104738095Y-57011904D01*
X104509523Y-57011904D01*
X104433333Y-56973809D01*
X104395238Y-56935714D01*
X105385714Y-56211904D02*
X105461904Y-56211904D01*
X105538095Y-56250000D01*
X105576190Y-56288095D01*
X105614285Y-56364285D01*
X105652380Y-56516666D01*
X105652380Y-56707142D01*
X105614285Y-56859523D01*
X105576190Y-56935714D01*
X105538095Y-56973809D01*
X105461904Y-57011904D01*
X105385714Y-57011904D01*
X105309523Y-56973809D01*
X105271428Y-56935714D01*
X105233333Y-56859523D01*
X105195238Y-56707142D01*
X105195238Y-56516666D01*
X105233333Y-56364285D01*
X105271428Y-56288095D01*
X105309523Y-56250000D01*
X105385714Y-56211904D01*
X106414285Y-57011904D02*
X105957142Y-57011904D01*
X106185714Y-57011904D02*
X106185714Y-56211904D01*
X106109523Y-56326190D01*
X106033333Y-56402380D01*
X105957142Y-56440476D01*
X110135714Y-51582738D02*
X110173809Y-51620833D01*
X110211904Y-51735119D01*
X110211904Y-51811309D01*
X110173809Y-51925595D01*
X110097619Y-52001785D01*
X110021428Y-52039880D01*
X109869047Y-52077976D01*
X109754761Y-52077976D01*
X109602380Y-52039880D01*
X109526190Y-52001785D01*
X109450000Y-51925595D01*
X109411904Y-51811309D01*
X109411904Y-51735119D01*
X109450000Y-51620833D01*
X109488095Y-51582738D01*
X109411904Y-51316071D02*
X109411904Y-50820833D01*
X109716666Y-51087500D01*
X109716666Y-50973214D01*
X109754761Y-50897023D01*
X109792857Y-50858928D01*
X109869047Y-50820833D01*
X110059523Y-50820833D01*
X110135714Y-50858928D01*
X110173809Y-50897023D01*
X110211904Y-50973214D01*
X110211904Y-51201785D01*
X110173809Y-51277976D01*
X110135714Y-51316071D01*
X110211904Y-50058928D02*
X110211904Y-50516071D01*
X110211904Y-50287500D02*
X109411904Y-50287500D01*
X109526190Y-50363690D01*
X109602380Y-50439880D01*
X109640476Y-50516071D01*
X109411904Y-49373214D02*
X109411904Y-49525595D01*
X109450000Y-49601785D01*
X109488095Y-49639880D01*
X109602380Y-49716071D01*
X109754761Y-49754166D01*
X110059523Y-49754166D01*
X110135714Y-49716071D01*
X110173809Y-49677976D01*
X110211904Y-49601785D01*
X110211904Y-49449404D01*
X110173809Y-49373214D01*
X110135714Y-49335119D01*
X110059523Y-49297023D01*
X109869047Y-49297023D01*
X109792857Y-49335119D01*
X109754761Y-49373214D01*
X109716666Y-49449404D01*
X109716666Y-49601785D01*
X109754761Y-49677976D01*
X109792857Y-49716071D01*
X109869047Y-49754166D01*
X115161904Y-47945238D02*
X114780952Y-48211904D01*
X115161904Y-48402380D02*
X114361904Y-48402380D01*
X114361904Y-48097619D01*
X114400000Y-48021428D01*
X114438095Y-47983333D01*
X114514285Y-47945238D01*
X114628571Y-47945238D01*
X114704761Y-47983333D01*
X114742857Y-48021428D01*
X114780952Y-48097619D01*
X114780952Y-48402380D01*
X114361904Y-47678571D02*
X114361904Y-47183333D01*
X114666666Y-47450000D01*
X114666666Y-47335714D01*
X114704761Y-47259523D01*
X114742857Y-47221428D01*
X114819047Y-47183333D01*
X115009523Y-47183333D01*
X115085714Y-47221428D01*
X115123809Y-47259523D01*
X115161904Y-47335714D01*
X115161904Y-47564285D01*
X115123809Y-47640476D01*
X115085714Y-47678571D01*
X115161904Y-46421428D02*
X115161904Y-46878571D01*
X115161904Y-46650000D02*
X114361904Y-46650000D01*
X114476190Y-46726190D01*
X114552380Y-46802380D01*
X114590476Y-46878571D01*
X114361904Y-46154761D02*
X114361904Y-45621428D01*
X115161904Y-45964285D01*
X112585714Y-47945238D02*
X112623809Y-47983333D01*
X112661904Y-48097619D01*
X112661904Y-48173809D01*
X112623809Y-48288095D01*
X112547619Y-48364285D01*
X112471428Y-48402380D01*
X112319047Y-48440476D01*
X112204761Y-48440476D01*
X112052380Y-48402380D01*
X111976190Y-48364285D01*
X111900000Y-48288095D01*
X111861904Y-48173809D01*
X111861904Y-48097619D01*
X111900000Y-47983333D01*
X111938095Y-47945238D01*
X111861904Y-47678571D02*
X111861904Y-47183333D01*
X112166666Y-47450000D01*
X112166666Y-47335714D01*
X112204761Y-47259523D01*
X112242857Y-47221428D01*
X112319047Y-47183333D01*
X112509523Y-47183333D01*
X112585714Y-47221428D01*
X112623809Y-47259523D01*
X112661904Y-47335714D01*
X112661904Y-47564285D01*
X112623809Y-47640476D01*
X112585714Y-47678571D01*
X112661904Y-46421428D02*
X112661904Y-46878571D01*
X112661904Y-46650000D02*
X111861904Y-46650000D01*
X111976190Y-46726190D01*
X112052380Y-46802380D01*
X112090476Y-46878571D01*
X111861904Y-46154761D02*
X111861904Y-45621428D01*
X112661904Y-45964285D01*
X106999404Y-52008928D02*
X107647023Y-52008928D01*
X107723214Y-51970833D01*
X107761309Y-51932738D01*
X107799404Y-51856547D01*
X107799404Y-51704166D01*
X107761309Y-51627976D01*
X107723214Y-51589880D01*
X107647023Y-51551785D01*
X106999404Y-51551785D01*
X106999404Y-51247023D02*
X106999404Y-50751785D01*
X107304166Y-51018452D01*
X107304166Y-50904166D01*
X107342261Y-50827976D01*
X107380357Y-50789880D01*
X107456547Y-50751785D01*
X107647023Y-50751785D01*
X107723214Y-50789880D01*
X107761309Y-50827976D01*
X107799404Y-50904166D01*
X107799404Y-51132738D01*
X107761309Y-51208928D01*
X107723214Y-51247023D01*
X106999404Y-50256547D02*
X106999404Y-50180357D01*
X107037500Y-50104166D01*
X107075595Y-50066071D01*
X107151785Y-50027976D01*
X107304166Y-49989880D01*
X107494642Y-49989880D01*
X107647023Y-50027976D01*
X107723214Y-50066071D01*
X107761309Y-50104166D01*
X107799404Y-50180357D01*
X107799404Y-50256547D01*
X107761309Y-50332738D01*
X107723214Y-50370833D01*
X107647023Y-50408928D01*
X107494642Y-50447023D01*
X107304166Y-50447023D01*
X107151785Y-50408928D01*
X107075595Y-50370833D01*
X107037500Y-50332738D01*
X106999404Y-50256547D01*
X107266071Y-49304166D02*
X107799404Y-49304166D01*
X106961309Y-49494642D02*
X107532738Y-49685119D01*
X107532738Y-49189880D01*
X99342261Y-55485714D02*
X99304166Y-55523809D01*
X99189880Y-55561904D01*
X99113690Y-55561904D01*
X98999404Y-55523809D01*
X98923214Y-55447619D01*
X98885119Y-55371428D01*
X98847023Y-55219047D01*
X98847023Y-55104761D01*
X98885119Y-54952380D01*
X98923214Y-54876190D01*
X98999404Y-54800000D01*
X99113690Y-54761904D01*
X99189880Y-54761904D01*
X99304166Y-54800000D01*
X99342261Y-54838095D01*
X99608928Y-54761904D02*
X100104166Y-54761904D01*
X99837500Y-55066666D01*
X99951785Y-55066666D01*
X100027976Y-55104761D01*
X100066071Y-55142857D01*
X100104166Y-55219047D01*
X100104166Y-55409523D01*
X100066071Y-55485714D01*
X100027976Y-55523809D01*
X99951785Y-55561904D01*
X99723214Y-55561904D01*
X99647023Y-55523809D01*
X99608928Y-55485714D01*
X100866071Y-55561904D02*
X100408928Y-55561904D01*
X100637500Y-55561904D02*
X100637500Y-54761904D01*
X100561309Y-54876190D01*
X100485119Y-54952380D01*
X100408928Y-54990476D01*
X101551785Y-55028571D02*
X101551785Y-55561904D01*
X101361309Y-54723809D02*
X101170833Y-55295238D01*
X101666071Y-55295238D01*
X133706845Y-66038095D02*
X133668750Y-66114285D01*
X133592559Y-66190476D01*
X133478273Y-66304761D01*
X133440178Y-66380952D01*
X133440178Y-66457142D01*
X133630654Y-66419047D02*
X133592559Y-66495238D01*
X133516369Y-66571428D01*
X133363988Y-66609523D01*
X133097321Y-66609523D01*
X132944940Y-66571428D01*
X132868750Y-66495238D01*
X132830654Y-66419047D01*
X132830654Y-66266666D01*
X132868750Y-66190476D01*
X132944940Y-66114285D01*
X133097321Y-66076190D01*
X133363988Y-66076190D01*
X133516369Y-66114285D01*
X133592559Y-66190476D01*
X133630654Y-66266666D01*
X133630654Y-66419047D01*
X132830654Y-65809523D02*
X132830654Y-65314285D01*
X133135416Y-65580952D01*
X133135416Y-65466666D01*
X133173511Y-65390476D01*
X133211607Y-65352380D01*
X133287797Y-65314285D01*
X133478273Y-65314285D01*
X133554464Y-65352380D01*
X133592559Y-65390476D01*
X133630654Y-65466666D01*
X133630654Y-65695238D01*
X133592559Y-65771428D01*
X133554464Y-65809523D01*
X132830654Y-64819047D02*
X132830654Y-64742857D01*
X132868750Y-64666666D01*
X132906845Y-64628571D01*
X132983035Y-64590476D01*
X133135416Y-64552380D01*
X133325892Y-64552380D01*
X133478273Y-64590476D01*
X133554464Y-64628571D01*
X133592559Y-64666666D01*
X133630654Y-64742857D01*
X133630654Y-64819047D01*
X133592559Y-64895238D01*
X133554464Y-64933333D01*
X133478273Y-64971428D01*
X133325892Y-65009523D01*
X133135416Y-65009523D01*
X132983035Y-64971428D01*
X132906845Y-64933333D01*
X132868750Y-64895238D01*
X132830654Y-64819047D01*
X133630654Y-63790476D02*
X133630654Y-64247619D01*
X133630654Y-64019047D02*
X132830654Y-64019047D01*
X132944940Y-64095238D01*
X133021130Y-64171428D01*
X133059226Y-64247619D01*
X75359761Y-51461904D02*
X75093095Y-51080952D01*
X74902619Y-51461904D02*
X74902619Y-50661904D01*
X75207380Y-50661904D01*
X75283571Y-50700000D01*
X75321666Y-50738095D01*
X75359761Y-50814285D01*
X75359761Y-50928571D01*
X75321666Y-51004761D01*
X75283571Y-51042857D01*
X75207380Y-51080952D01*
X74902619Y-51080952D01*
X75626428Y-50661904D02*
X76121666Y-50661904D01*
X75855000Y-50966666D01*
X75969285Y-50966666D01*
X76045476Y-51004761D01*
X76083571Y-51042857D01*
X76121666Y-51119047D01*
X76121666Y-51309523D01*
X76083571Y-51385714D01*
X76045476Y-51423809D01*
X75969285Y-51461904D01*
X75740714Y-51461904D01*
X75664523Y-51423809D01*
X75626428Y-51385714D01*
X76616904Y-50661904D02*
X76693095Y-50661904D01*
X76769285Y-50700000D01*
X76807380Y-50738095D01*
X76845476Y-50814285D01*
X76883571Y-50966666D01*
X76883571Y-51157142D01*
X76845476Y-51309523D01*
X76807380Y-51385714D01*
X76769285Y-51423809D01*
X76693095Y-51461904D01*
X76616904Y-51461904D01*
X76540714Y-51423809D01*
X76502619Y-51385714D01*
X76464523Y-51309523D01*
X76426428Y-51157142D01*
X76426428Y-50966666D01*
X76464523Y-50814285D01*
X76502619Y-50738095D01*
X76540714Y-50700000D01*
X76616904Y-50661904D01*
X77645476Y-51461904D02*
X77188333Y-51461904D01*
X77416904Y-51461904D02*
X77416904Y-50661904D01*
X77340714Y-50776190D01*
X77264523Y-50852380D01*
X77188333Y-50890476D01*
X66029761Y-74036904D02*
X65763095Y-73655952D01*
X65572619Y-74036904D02*
X65572619Y-73236904D01*
X65877380Y-73236904D01*
X65953571Y-73275000D01*
X65991666Y-73313095D01*
X66029761Y-73389285D01*
X66029761Y-73503571D01*
X65991666Y-73579761D01*
X65953571Y-73617857D01*
X65877380Y-73655952D01*
X65572619Y-73655952D01*
X66296428Y-73236904D02*
X66791666Y-73236904D01*
X66525000Y-73541666D01*
X66639285Y-73541666D01*
X66715476Y-73579761D01*
X66753571Y-73617857D01*
X66791666Y-73694047D01*
X66791666Y-73884523D01*
X66753571Y-73960714D01*
X66715476Y-73998809D01*
X66639285Y-74036904D01*
X66410714Y-74036904D01*
X66334523Y-73998809D01*
X66296428Y-73960714D01*
X67286904Y-73236904D02*
X67363095Y-73236904D01*
X67439285Y-73275000D01*
X67477380Y-73313095D01*
X67515476Y-73389285D01*
X67553571Y-73541666D01*
X67553571Y-73732142D01*
X67515476Y-73884523D01*
X67477380Y-73960714D01*
X67439285Y-73998809D01*
X67363095Y-74036904D01*
X67286904Y-74036904D01*
X67210714Y-73998809D01*
X67172619Y-73960714D01*
X67134523Y-73884523D01*
X67096428Y-73732142D01*
X67096428Y-73541666D01*
X67134523Y-73389285D01*
X67172619Y-73313095D01*
X67210714Y-73275000D01*
X67286904Y-73236904D01*
X67858333Y-73313095D02*
X67896428Y-73275000D01*
X67972619Y-73236904D01*
X68163095Y-73236904D01*
X68239285Y-73275000D01*
X68277380Y-73313095D01*
X68315476Y-73389285D01*
X68315476Y-73465476D01*
X68277380Y-73579761D01*
X67820238Y-74036904D01*
X68315476Y-74036904D01*
X84854761Y-51411904D02*
X84588095Y-51030952D01*
X84397619Y-51411904D02*
X84397619Y-50611904D01*
X84702380Y-50611904D01*
X84778571Y-50650000D01*
X84816666Y-50688095D01*
X84854761Y-50764285D01*
X84854761Y-50878571D01*
X84816666Y-50954761D01*
X84778571Y-50992857D01*
X84702380Y-51030952D01*
X84397619Y-51030952D01*
X85121428Y-50611904D02*
X85616666Y-50611904D01*
X85350000Y-50916666D01*
X85464285Y-50916666D01*
X85540476Y-50954761D01*
X85578571Y-50992857D01*
X85616666Y-51069047D01*
X85616666Y-51259523D01*
X85578571Y-51335714D01*
X85540476Y-51373809D01*
X85464285Y-51411904D01*
X85235714Y-51411904D01*
X85159523Y-51373809D01*
X85121428Y-51335714D01*
X86378571Y-51411904D02*
X85921428Y-51411904D01*
X86150000Y-51411904D02*
X86150000Y-50611904D01*
X86073809Y-50726190D01*
X85997619Y-50802380D01*
X85921428Y-50840476D01*
X87064285Y-50611904D02*
X86911904Y-50611904D01*
X86835714Y-50650000D01*
X86797619Y-50688095D01*
X86721428Y-50802380D01*
X86683333Y-50954761D01*
X86683333Y-51259523D01*
X86721428Y-51335714D01*
X86759523Y-51373809D01*
X86835714Y-51411904D01*
X86988095Y-51411904D01*
X87064285Y-51373809D01*
X87102380Y-51335714D01*
X87140476Y-51259523D01*
X87140476Y-51069047D01*
X87102380Y-50992857D01*
X87064285Y-50954761D01*
X86988095Y-50916666D01*
X86835714Y-50916666D01*
X86759523Y-50954761D01*
X86721428Y-50992857D01*
X86683333Y-51069047D01*
X75379761Y-74086904D02*
X75113095Y-73705952D01*
X74922619Y-74086904D02*
X74922619Y-73286904D01*
X75227380Y-73286904D01*
X75303571Y-73325000D01*
X75341666Y-73363095D01*
X75379761Y-73439285D01*
X75379761Y-73553571D01*
X75341666Y-73629761D01*
X75303571Y-73667857D01*
X75227380Y-73705952D01*
X74922619Y-73705952D01*
X75646428Y-73286904D02*
X76141666Y-73286904D01*
X75875000Y-73591666D01*
X75989285Y-73591666D01*
X76065476Y-73629761D01*
X76103571Y-73667857D01*
X76141666Y-73744047D01*
X76141666Y-73934523D01*
X76103571Y-74010714D01*
X76065476Y-74048809D01*
X75989285Y-74086904D01*
X75760714Y-74086904D01*
X75684523Y-74048809D01*
X75646428Y-74010714D01*
X76636904Y-73286904D02*
X76713095Y-73286904D01*
X76789285Y-73325000D01*
X76827380Y-73363095D01*
X76865476Y-73439285D01*
X76903571Y-73591666D01*
X76903571Y-73782142D01*
X76865476Y-73934523D01*
X76827380Y-74010714D01*
X76789285Y-74048809D01*
X76713095Y-74086904D01*
X76636904Y-74086904D01*
X76560714Y-74048809D01*
X76522619Y-74010714D01*
X76484523Y-73934523D01*
X76446428Y-73782142D01*
X76446428Y-73591666D01*
X76484523Y-73439285D01*
X76522619Y-73363095D01*
X76560714Y-73325000D01*
X76636904Y-73286904D01*
X77627380Y-73286904D02*
X77246428Y-73286904D01*
X77208333Y-73667857D01*
X77246428Y-73629761D01*
X77322619Y-73591666D01*
X77513095Y-73591666D01*
X77589285Y-73629761D01*
X77627380Y-73667857D01*
X77665476Y-73744047D01*
X77665476Y-73934523D01*
X77627380Y-74010714D01*
X77589285Y-74048809D01*
X77513095Y-74086904D01*
X77322619Y-74086904D01*
X77246428Y-74048809D01*
X77208333Y-74010714D01*
D13*
X127672500Y-77170276D02*
X127672500Y-77679724D01*
X126627500Y-77170276D02*
X126627500Y-77679724D01*
X136587500Y-77674724D02*
X136587500Y-77165276D01*
X137632500Y-77674724D02*
X137632500Y-77165276D01*
X130495276Y-73552500D02*
X131004724Y-73552500D01*
X130495276Y-74597500D02*
X131004724Y-74597500D01*
X130800000Y-75865000D02*
X131450000Y-75865000D01*
X130800000Y-78985000D02*
X131450000Y-78985000D01*
X130800000Y-75865000D02*
X129125000Y-75865000D01*
X130800000Y-78985000D02*
X130150000Y-78985000D01*
X135235000Y-77278733D02*
X135235000Y-77571267D01*
X134215000Y-77278733D02*
X134215000Y-77571267D01*
X86500000Y-76765000D02*
X84040000Y-76765000D01*
X84040000Y-78235000D02*
X86500000Y-78235000D01*
X84040000Y-76765000D02*
X84040000Y-78235000D01*
X77055000Y-76765000D02*
X74595000Y-76765000D01*
X74595000Y-78235000D02*
X77055000Y-78235000D01*
X74595000Y-76765000D02*
X74595000Y-78235000D01*
X67700000Y-76765000D02*
X65240000Y-76765000D01*
X65240000Y-78235000D02*
X67700000Y-78235000D01*
X65240000Y-76765000D02*
X65240000Y-78235000D01*
X85929724Y-75397500D02*
X85420276Y-75397500D01*
X85929724Y-74352500D02*
X85420276Y-74352500D01*
X67700000Y-46515000D02*
X65240000Y-46515000D01*
X65240000Y-47985000D02*
X67700000Y-47985000D01*
X65240000Y-46515000D02*
X65240000Y-47985000D01*
X110640000Y-50541233D02*
X110640000Y-50833767D01*
X111660000Y-50541233D02*
X111660000Y-50833767D01*
X126822500Y-65454724D02*
X126822500Y-64945276D01*
X125777500Y-65454724D02*
X125777500Y-64945276D01*
D12*
X152525000Y-57250000D02*
X150325000Y-57250000D01*
X152525000Y-67350000D02*
X152525000Y-57250000D01*
X150325000Y-67350000D02*
X152525000Y-67350000D01*
X146825000Y-64800000D02*
X146825000Y-59800000D01*
D13*
X130514026Y-61677500D02*
X131023474Y-61677500D01*
X130514026Y-62722500D02*
X131023474Y-62722500D01*
X130514026Y-68772500D02*
X131023474Y-68772500D01*
X130514026Y-67727500D02*
X131023474Y-67727500D01*
X102610000Y-50796267D02*
X102610000Y-50503733D01*
X101590000Y-50796267D02*
X101590000Y-50503733D01*
X108177500Y-46795276D02*
X108177500Y-47304724D01*
X109222500Y-46795276D02*
X109222500Y-47304724D01*
X99340000Y-50821267D02*
X99340000Y-50478733D01*
X98320000Y-50821267D02*
X98320000Y-50478733D01*
X104920276Y-46327500D02*
X105429724Y-46327500D01*
X104920276Y-47372500D02*
X105429724Y-47372500D01*
X56762500Y-48437500D02*
X95762500Y-48437500D01*
X56762500Y-76437500D02*
X56762500Y-48437500D01*
X56762500Y-76437500D02*
X95762500Y-76437500D01*
X95762500Y-76437500D02*
X95762500Y-48437500D01*
X74595000Y-47985000D02*
X77055000Y-47985000D01*
X77055000Y-46515000D02*
X74595000Y-46515000D01*
X74595000Y-46515000D02*
X74595000Y-47985000D01*
X127053733Y-67740000D02*
X127346267Y-67740000D01*
X127053733Y-68760000D02*
X127346267Y-68760000D01*
X100191233Y-56960000D02*
X100483767Y-56960000D01*
X100191233Y-55940000D02*
X100483767Y-55940000D01*
X84040000Y-47985000D02*
X86500000Y-47985000D01*
X86500000Y-46515000D02*
X84040000Y-46515000D01*
X84040000Y-46515000D02*
X84040000Y-47985000D01*
X107080000Y-53690000D02*
X103080000Y-53690000D01*
X107080000Y-55890000D02*
X103080000Y-55890000D01*
X109210000Y-50541233D02*
X109210000Y-50833767D01*
X108190000Y-50541233D02*
X108190000Y-50833767D01*
X113077500Y-47304724D02*
X113077500Y-46795276D01*
X114122500Y-47304724D02*
X114122500Y-46795276D01*
X111610000Y-47196267D02*
X111610000Y-46903733D01*
X110590000Y-47196267D02*
X110590000Y-46903733D01*
X106747500Y-51587500D02*
X106747500Y-49787500D01*
X103527500Y-49787500D02*
X103527500Y-52737500D01*
X100191233Y-54510000D02*
X100483767Y-54510000D01*
X100191233Y-53490000D02*
X100483767Y-53490000D01*
X130768750Y-66760000D02*
X131418750Y-66760000D01*
X130768750Y-63640000D02*
X129093750Y-63640000D01*
X130768750Y-63640000D02*
X131418750Y-63640000D01*
X130768750Y-66760000D02*
X130118750Y-66760000D01*
X76509724Y-50372500D02*
X76000276Y-50372500D01*
X76509724Y-49327500D02*
X76000276Y-49327500D01*
X67152224Y-75397500D02*
X66642776Y-75397500D01*
X67152224Y-74352500D02*
X66642776Y-74352500D01*
X85445276Y-49327500D02*
X85954724Y-49327500D01*
X85445276Y-50372500D02*
X85954724Y-50372500D01*
X76484724Y-74352500D02*
X75975276Y-74352500D01*
X76484724Y-75397500D02*
X75975276Y-75397500D01*
%LPC*%
D14*
X127150000Y-76512500D03*
X127150000Y-78337500D03*
D15*
X137110000Y-78332500D03*
X137110000Y-76507500D03*
D16*
X129837500Y-74075000D03*
X131662500Y-74075000D03*
D17*
X129862500Y-76475000D03*
X129862500Y-78375000D03*
X131737500Y-77425000D03*
D18*
X134725000Y-76562500D03*
X134725000Y-78287500D03*
D19*
X102300000Y-78579500D03*
X102300000Y-75976000D03*
D20*
X84825000Y-77500000D03*
X86575000Y-77500000D03*
X75380000Y-77500000D03*
X77130000Y-77500000D03*
X66025000Y-77500000D03*
X67775000Y-77500000D03*
D21*
X86587500Y-74875000D03*
X84762500Y-74875000D03*
D20*
X66025000Y-47250000D03*
X67775000Y-47250000D03*
D18*
X111150000Y-49825000D03*
X111150000Y-51550000D03*
D15*
X126300000Y-66112500D03*
X126300000Y-64287500D03*
D22*
X146275000Y-64050000D03*
X146275000Y-63550000D03*
X146275000Y-63050000D03*
X146275000Y-62550000D03*
X146275000Y-62050000D03*
X146275000Y-61550000D03*
X146275000Y-61050000D03*
X146275000Y-60550000D03*
D23*
X148200000Y-66500000D03*
X148200000Y-58100000D03*
D16*
X129856250Y-62200000D03*
X131681250Y-62200000D03*
X129856250Y-68250000D03*
X131681250Y-68250000D03*
D24*
X102100000Y-51512500D03*
X102100000Y-49787500D03*
D14*
X108700000Y-46137500D03*
X108700000Y-47962500D03*
D25*
X151500000Y-48500000D03*
D26*
X98830000Y-49775000D03*
X98830000Y-51525000D03*
D16*
X104262500Y-46850000D03*
X106087500Y-46850000D03*
D27*
X93262500Y-50237500D03*
X93262500Y-74637500D03*
D28*
X57762500Y-70057500D03*
D29*
X57762500Y-67517500D03*
X57762500Y-64977500D03*
X57762500Y-62437500D03*
X57762500Y-59897500D03*
X57762500Y-57357500D03*
X57762500Y-54817500D03*
D20*
X75380000Y-47250000D03*
X77130000Y-47250000D03*
D30*
X126337500Y-68250000D03*
X128062500Y-68250000D03*
D25*
X151500000Y-76500000D03*
X58500000Y-76500000D03*
D30*
X99475000Y-56450000D03*
X101200000Y-56450000D03*
D20*
X84825000Y-47250000D03*
X86575000Y-47250000D03*
D31*
X106255000Y-54790000D03*
X103905000Y-54790000D03*
D18*
X108700000Y-49825000D03*
X108700000Y-51550000D03*
D15*
X113600000Y-47962500D03*
X113600000Y-46137500D03*
D24*
X111100000Y-47912500D03*
X111100000Y-46187500D03*
D32*
X104187500Y-52037500D03*
X105137500Y-52037500D03*
X106087500Y-52037500D03*
X106087500Y-49337500D03*
X105137500Y-49337500D03*
X104187500Y-49337500D03*
D30*
X99475000Y-54000000D03*
X101200000Y-54000000D03*
D25*
X58500000Y-48500000D03*
D17*
X129831250Y-64250000D03*
X129831250Y-66150000D03*
X131706250Y-65200000D03*
D21*
X77167500Y-49850000D03*
X75342500Y-49850000D03*
D28*
X123250000Y-76600000D03*
D33*
X118170000Y-76600000D03*
X115630000Y-76600000D03*
X113090000Y-76600000D03*
X110550000Y-76600000D03*
D21*
X67810000Y-74875000D03*
X65985000Y-74875000D03*
D16*
X84787500Y-49850000D03*
X86612500Y-49850000D03*
D21*
X77142500Y-74875000D03*
X75317500Y-74875000D03*
D28*
X123425000Y-53725000D03*
D33*
X123425000Y-56265000D03*
X123425000Y-58805000D03*
X123425000Y-61345000D03*
X123425000Y-63885000D03*
X123425000Y-66425000D03*
X123425000Y-68965000D03*
X123425000Y-71505000D03*
M02*
