G04 #@! TF.GenerationSoftware,KiCad,Pcbnew,(6.0.10)*
G04 #@! TF.CreationDate,2023-01-12T15:38:19+01:00*
G04 #@! TF.ProjectId,HeaterMCU,48656174-6572-44d4-9355-2e6b69636164,rev?*
G04 #@! TF.SameCoordinates,Original*
G04 #@! TF.FileFunction,Soldermask,Bot*
G04 #@! TF.FilePolarity,Negative*
%FSLAX46Y46*%
G04 Gerber Fmt 4.6, Leading zero omitted, Abs format (unit mm)*
G04 Created by KiCad (PCBNEW (6.0.10)) date 2023-01-12 15:38:19*
%MOMM*%
%LPD*%
G01*
G04 APERTURE LIST*
G04 Aperture macros list*
%AMRoundRect*
0 Rectangle with rounded corners*
0 $1 Rounding radius*
0 $2 $3 $4 $5 $6 $7 $8 $9 X,Y pos of 4 corners*
0 Add a 4 corners polygon primitive as box body*
4,1,4,$2,$3,$4,$5,$6,$7,$8,$9,$2,$3,0*
0 Add four circle primitives for the rounded corners*
1,1,$1+$1,$2,$3*
1,1,$1+$1,$4,$5*
1,1,$1+$1,$6,$7*
1,1,$1+$1,$8,$9*
0 Add four rect primitives between the rounded corners*
20,1,$1+$1,$2,$3,$4,$5,0*
20,1,$1+$1,$4,$5,$6,$7,0*
20,1,$1+$1,$6,$7,$8,$9,0*
20,1,$1+$1,$8,$9,$2,$3,0*%
G04 Aperture macros list end*
%ADD10C,3.200000*%
%ADD11C,2.700000*%
%ADD12R,1.700000X1.700000*%
%ADD13C,1.700000*%
%ADD14RoundRect,0.237500X0.237500X-0.300000X0.237500X0.300000X-0.237500X0.300000X-0.237500X-0.300000X0*%
%ADD15R,0.550000X1.500000*%
%ADD16R,1.500000X0.550000*%
%ADD17RoundRect,0.237500X-0.300000X-0.237500X0.300000X-0.237500X0.300000X0.237500X-0.300000X0.237500X0*%
%ADD18RoundRect,0.237500X-0.237500X0.300000X-0.237500X-0.300000X0.237500X-0.300000X0.237500X0.300000X0*%
%ADD19R,1.560000X0.400000*%
%ADD20RoundRect,0.237500X0.250000X0.237500X-0.250000X0.237500X-0.250000X-0.237500X0.250000X-0.237500X0*%
%ADD21RoundRect,0.150000X0.587500X0.150000X-0.587500X0.150000X-0.587500X-0.150000X0.587500X-0.150000X0*%
%ADD22RoundRect,0.237500X0.300000X0.237500X-0.300000X0.237500X-0.300000X-0.237500X0.300000X-0.237500X0*%
%ADD23O,1.700000X1.700000*%
%ADD24R,4.500000X2.000000*%
%ADD25RoundRect,0.237500X0.237500X-0.250000X0.237500X0.250000X-0.237500X0.250000X-0.237500X-0.250000X0*%
%ADD26C,0.700000*%
%ADD27R,1.600000X1.200000*%
%ADD28RoundRect,0.237500X-0.250000X-0.237500X0.250000X-0.237500X0.250000X0.237500X-0.250000X0.237500X0*%
G04 APERTURE END LIST*
D10*
X151500000Y-48500000D03*
D11*
X93262500Y-50237500D03*
X93262500Y-74637500D03*
D12*
X57762500Y-70057500D03*
D13*
X57762500Y-67517500D03*
X57762500Y-64977500D03*
X57762500Y-62437500D03*
X57762500Y-59897500D03*
X57762500Y-57357500D03*
X57762500Y-54817500D03*
D10*
X151500000Y-76500000D03*
X58500000Y-76500000D03*
X58500000Y-48500000D03*
D14*
X72200000Y-73962500D03*
X72200000Y-72237500D03*
D15*
X83300000Y-66800000D03*
X82500000Y-66800000D03*
X81700000Y-66800000D03*
X80900000Y-66800000D03*
X80100000Y-66800000D03*
X79300000Y-66800000D03*
X78500000Y-66800000D03*
X77700000Y-66800000D03*
D16*
X76300000Y-65400000D03*
X76300000Y-64600000D03*
X76300000Y-63800000D03*
X76300000Y-63000000D03*
X76300000Y-62200000D03*
X76300000Y-61400000D03*
X76300000Y-60600000D03*
X76300000Y-59800000D03*
D15*
X77700000Y-58400000D03*
X78500000Y-58400000D03*
X79300000Y-58400000D03*
X80100000Y-58400000D03*
X80900000Y-58400000D03*
X81700000Y-58400000D03*
X82500000Y-58400000D03*
X83300000Y-58400000D03*
D16*
X84700000Y-59800000D03*
X84700000Y-60600000D03*
X84700000Y-61400000D03*
X84700000Y-62200000D03*
X84700000Y-63000000D03*
X84700000Y-63800000D03*
X84700000Y-64600000D03*
X84700000Y-65400000D03*
D17*
X89437500Y-58800000D03*
X91162500Y-58800000D03*
D18*
X143450000Y-76300000D03*
X143450000Y-78025000D03*
D14*
X89200000Y-73962500D03*
X89200000Y-72237500D03*
D19*
X91650000Y-55120000D03*
X91650000Y-55770000D03*
X91650000Y-56430000D03*
X91650000Y-57080000D03*
X88950000Y-57080000D03*
X88950000Y-56430000D03*
X88950000Y-55770000D03*
X88950000Y-55120000D03*
D20*
X148987500Y-69975000D03*
X147162500Y-69975000D03*
D21*
X145287500Y-72425000D03*
X145287500Y-74325000D03*
X143412500Y-73375000D03*
D22*
X81362500Y-68800000D03*
X79637500Y-68800000D03*
D14*
X60275000Y-70087500D03*
X60275000Y-68362500D03*
D12*
X123250000Y-76600000D03*
D23*
X118170000Y-76600000D03*
X115630000Y-76600000D03*
X113090000Y-76600000D03*
X110550000Y-76600000D03*
D20*
X91212500Y-62200000D03*
X89387500Y-62200000D03*
D24*
X84750000Y-73120000D03*
X76250000Y-73120000D03*
D25*
X145225000Y-78075000D03*
X145225000Y-76250000D03*
D26*
X102300000Y-75976000D03*
X102300000Y-78579500D03*
D27*
X99950500Y-76335500D03*
X104649500Y-76335500D03*
X99950500Y-78220000D03*
X104649500Y-78220000D03*
D22*
X81462500Y-55700000D03*
X79737500Y-55700000D03*
D20*
X145262500Y-69975000D03*
X143437500Y-69975000D03*
D12*
X123425000Y-53725000D03*
D23*
X123425000Y-56265000D03*
X123425000Y-58805000D03*
X123425000Y-61345000D03*
X123425000Y-63885000D03*
X123425000Y-66425000D03*
X123425000Y-68965000D03*
X123425000Y-71505000D03*
D18*
X107000000Y-76437500D03*
X107000000Y-78162500D03*
D17*
X76137500Y-55700000D03*
X77862500Y-55700000D03*
D14*
X94400000Y-56962500D03*
X94400000Y-55237500D03*
D28*
X89387500Y-60500000D03*
X91212500Y-60500000D03*
D25*
X97700000Y-78212500D03*
X97700000Y-76387500D03*
M02*
