G04 #@! TF.GenerationSoftware,KiCad,Pcbnew,(6.0.9)*
G04 #@! TF.CreationDate,2022-11-14T17:51:37+01:00*
G04 #@! TF.ProjectId,HeaterMCU,48656174-6572-44d4-9355-2e6b69636164,rev?*
G04 #@! TF.SameCoordinates,Original*
G04 #@! TF.FileFunction,Copper,L2,Bot*
G04 #@! TF.FilePolarity,Positive*
%FSLAX46Y46*%
G04 Gerber Fmt 4.6, Leading zero omitted, Abs format (unit mm)*
G04 Created by KiCad (PCBNEW (6.0.9)) date 2022-11-14 17:51:37*
%MOMM*%
%LPD*%
G01*
G04 APERTURE LIST*
G04 #@! TA.AperFunction,ComponentPad*
%ADD10R,1.700000X1.700000*%
G04 #@! TD*
G04 #@! TA.AperFunction,ComponentPad*
%ADD11C,1.700000*%
G04 #@! TD*
G04 #@! TA.AperFunction,ComponentPad*
%ADD12O,1.700000X1.700000*%
G04 #@! TD*
G04 #@! TA.AperFunction,ViaPad*
%ADD13C,0.800000*%
G04 #@! TD*
G04 #@! TA.AperFunction,Conductor*
%ADD14C,0.250000*%
G04 #@! TD*
G04 #@! TA.AperFunction,Conductor*
%ADD15C,0.500000*%
G04 #@! TD*
G04 APERTURE END LIST*
D10*
X57762500Y-70057500D03*
D11*
X57762500Y-67517500D03*
X57762500Y-64977500D03*
X57762500Y-62437500D03*
X57762500Y-59897500D03*
X57762500Y-57357500D03*
X57762500Y-54817500D03*
D10*
X92000000Y-71000000D03*
D12*
X94540000Y-71000000D03*
X92000000Y-68460000D03*
X94540000Y-68460000D03*
X92000000Y-65920000D03*
X94540000Y-65920000D03*
X92000000Y-63380000D03*
X94540000Y-63380000D03*
D10*
X109718018Y-77500000D03*
D12*
X112258018Y-77500000D03*
X114798018Y-77500000D03*
X117338018Y-77500000D03*
X119878018Y-77500000D03*
X122418018Y-77500000D03*
D13*
X109000000Y-71400000D03*
X97700000Y-62500000D03*
X139600000Y-64800000D03*
X120075000Y-58700000D03*
X99900000Y-59100000D03*
X147850000Y-78750000D03*
X139500000Y-68100000D03*
X103800000Y-66100000D03*
X128500000Y-59500000D03*
X100650000Y-50700000D03*
X94250000Y-56250000D03*
X115600000Y-60800000D03*
X103400000Y-75600000D03*
X150100000Y-69300000D03*
X108400000Y-54200000D03*
X145000000Y-74000000D03*
X124100000Y-56100000D03*
X95500000Y-48500000D03*
X150850000Y-58800000D03*
X71200000Y-77500000D03*
X82500000Y-77450000D03*
X139700000Y-75300000D03*
X134100000Y-46950000D03*
X89500000Y-78000000D03*
X133150000Y-72350000D03*
X123700000Y-69850000D03*
X128200000Y-67200000D03*
X135300000Y-55400000D03*
X133000000Y-79000000D03*
X118100000Y-53200000D03*
X142200000Y-55400000D03*
X126475000Y-65075000D03*
X126500000Y-74275000D03*
X120150000Y-56300000D03*
X116525000Y-58475000D03*
X110262500Y-47885000D03*
X121400000Y-53000000D03*
X130487500Y-77062500D03*
X123700000Y-64325000D03*
X124700000Y-64300000D03*
D14*
X126500000Y-74275000D02*
X126500000Y-65100000D01*
X126500000Y-65100000D02*
X126475000Y-65075000D01*
X117975000Y-58475000D02*
X120150000Y-56300000D01*
X116525000Y-58475000D02*
X117975000Y-58475000D01*
X118000000Y-49600000D02*
X110800000Y-49600000D01*
X110262500Y-49062500D02*
X110262500Y-47885000D01*
X110800000Y-49600000D02*
X110262500Y-49062500D01*
X121400000Y-53000000D02*
X118000000Y-49600000D01*
D15*
X100541297Y-79300000D02*
X101000000Y-79300000D01*
X101000000Y-79300000D02*
X128250000Y-79300000D01*
X92000000Y-71000000D02*
X92241297Y-71000000D01*
X92241297Y-71000000D02*
X100541297Y-79300000D01*
X128250000Y-79300000D02*
X130487500Y-77062500D01*
D14*
X123700000Y-67188604D02*
X117338018Y-73550586D01*
X117338018Y-73550586D02*
X117338018Y-77500000D01*
X123700000Y-64325000D02*
X123700000Y-67188604D01*
X124700000Y-66825000D02*
X119878018Y-71646982D01*
X124700000Y-64300000D02*
X124700000Y-66825000D01*
X119878018Y-71646982D02*
X119878018Y-77500000D01*
G04 #@! TA.AperFunction,Conductor*
G36*
X62685253Y-45528502D02*
G01*
X62731746Y-45582158D01*
X62741850Y-45652432D01*
X62712356Y-45717012D01*
X62696434Y-45732413D01*
X62587489Y-45820635D01*
X62320635Y-46087489D01*
X62083137Y-46380775D01*
X62081335Y-46383550D01*
X61879395Y-46694510D01*
X61879393Y-46694513D01*
X61877597Y-46697279D01*
X61876102Y-46700213D01*
X61876098Y-46700220D01*
X61735327Y-46976500D01*
X61706266Y-47033535D01*
X61705082Y-47036620D01*
X61583338Y-47353774D01*
X61571022Y-47385857D01*
X61473347Y-47750387D01*
X61414310Y-48123129D01*
X61394559Y-48500000D01*
X61414310Y-48876871D01*
X61414823Y-48880111D01*
X61414824Y-48880119D01*
X61439011Y-49032826D01*
X61473347Y-49249613D01*
X61571022Y-49614143D01*
X61706266Y-49966465D01*
X61707764Y-49969405D01*
X61865907Y-50279777D01*
X61877597Y-50302720D01*
X62083137Y-50619225D01*
X62320635Y-50912511D01*
X62587489Y-51179365D01*
X62880775Y-51416863D01*
X63197280Y-51622403D01*
X63200214Y-51623898D01*
X63200221Y-51623902D01*
X63530595Y-51792236D01*
X63533535Y-51793734D01*
X63885857Y-51928978D01*
X64250387Y-52026653D01*
X64448353Y-52058008D01*
X64619881Y-52085176D01*
X64619889Y-52085177D01*
X64623129Y-52085690D01*
X64905720Y-52100500D01*
X65094280Y-52100500D01*
X65376871Y-52085690D01*
X65380111Y-52085177D01*
X65380119Y-52085176D01*
X65551647Y-52058008D01*
X65749613Y-52026653D01*
X66114143Y-51928978D01*
X66466465Y-51793734D01*
X66469405Y-51792236D01*
X66799779Y-51623902D01*
X66799786Y-51623898D01*
X66802720Y-51622403D01*
X67119225Y-51416863D01*
X67412511Y-51179365D01*
X67679365Y-50912511D01*
X67916863Y-50619225D01*
X68120606Y-50305489D01*
X68120607Y-50305487D01*
X68122403Y-50302721D01*
X68123903Y-50299779D01*
X68134094Y-50279777D01*
X91399509Y-50279777D01*
X91425125Y-50548269D01*
X91426210Y-50552703D01*
X91426211Y-50552709D01*
X91477144Y-50760856D01*
X91489231Y-50810250D01*
X91590485Y-51060233D01*
X91726765Y-51292982D01*
X91729618Y-51296549D01*
X91847186Y-51443560D01*
X91895216Y-51503619D01*
X92092309Y-51687734D01*
X92313916Y-51841468D01*
X92317999Y-51843499D01*
X92318002Y-51843501D01*
X92433513Y-51900966D01*
X92555394Y-51961601D01*
X92559728Y-51963022D01*
X92559731Y-51963023D01*
X92807353Y-52044198D01*
X92807359Y-52044199D01*
X92811686Y-52045618D01*
X92816177Y-52046398D01*
X92816178Y-52046398D01*
X93073640Y-52091101D01*
X93073648Y-52091102D01*
X93077421Y-52091757D01*
X93081258Y-52091948D01*
X93161078Y-52095922D01*
X93161086Y-52095922D01*
X93162649Y-52096000D01*
X93331012Y-52096000D01*
X93333280Y-52095835D01*
X93333292Y-52095835D01*
X93464384Y-52086323D01*
X93531504Y-52081453D01*
X93535959Y-52080469D01*
X93535962Y-52080469D01*
X93790412Y-52024291D01*
X93790416Y-52024290D01*
X93794872Y-52023306D01*
X93920980Y-51975528D01*
X94042818Y-51929368D01*
X94042821Y-51929367D01*
X94047088Y-51927750D01*
X94282868Y-51796786D01*
X94497273Y-51633157D01*
X94506321Y-51623902D01*
X94682617Y-51443560D01*
X94685812Y-51440292D01*
X94844534Y-51222230D01*
X94927690Y-51064176D01*
X94967990Y-50987579D01*
X94967993Y-50987573D01*
X94970115Y-50983539D01*
X95032878Y-50805812D01*
X95058402Y-50733533D01*
X95058402Y-50733532D01*
X95059925Y-50729220D01*
X95096487Y-50543717D01*
X95111200Y-50469072D01*
X95111201Y-50469066D01*
X95112081Y-50464600D01*
X95121282Y-50279777D01*
X95125264Y-50199792D01*
X95125264Y-50199786D01*
X95125491Y-50195223D01*
X95099875Y-49926731D01*
X95054542Y-49741467D01*
X95036855Y-49669188D01*
X95035769Y-49664750D01*
X94934515Y-49414767D01*
X94821234Y-49221297D01*
X94800545Y-49185963D01*
X94800544Y-49185962D01*
X94798235Y-49182018D01*
X94678923Y-49032826D01*
X94632636Y-48974947D01*
X94632635Y-48974945D01*
X94629784Y-48971381D01*
X94432691Y-48787266D01*
X94211084Y-48633532D01*
X94207001Y-48631501D01*
X94206998Y-48631499D01*
X94042106Y-48549467D01*
X93969606Y-48513399D01*
X93965272Y-48511978D01*
X93965269Y-48511977D01*
X93717647Y-48430802D01*
X93717641Y-48430801D01*
X93713314Y-48429382D01*
X93698714Y-48426847D01*
X93451360Y-48383899D01*
X93451352Y-48383898D01*
X93447579Y-48383243D01*
X93436317Y-48382682D01*
X93363922Y-48379078D01*
X93363914Y-48379078D01*
X93362351Y-48379000D01*
X93193988Y-48379000D01*
X93191720Y-48379165D01*
X93191708Y-48379165D01*
X93060616Y-48388677D01*
X92993496Y-48393547D01*
X92989041Y-48394531D01*
X92989038Y-48394531D01*
X92734588Y-48450709D01*
X92734584Y-48450710D01*
X92730128Y-48451694D01*
X92611339Y-48496699D01*
X92482182Y-48545632D01*
X92482179Y-48545633D01*
X92477912Y-48547250D01*
X92242132Y-48678214D01*
X92027727Y-48841843D01*
X92024534Y-48845109D01*
X92024532Y-48845111D01*
X91941943Y-48929595D01*
X91839188Y-49034708D01*
X91680466Y-49252770D01*
X91669485Y-49273642D01*
X91557010Y-49487421D01*
X91557007Y-49487427D01*
X91554885Y-49491461D01*
X91553365Y-49495766D01*
X91553363Y-49495770D01*
X91466598Y-49741467D01*
X91465075Y-49745780D01*
X91464192Y-49750262D01*
X91414765Y-50001036D01*
X91412919Y-50010400D01*
X91412692Y-50014953D01*
X91412692Y-50014956D01*
X91399976Y-50270405D01*
X91399509Y-50279777D01*
X68134094Y-50279777D01*
X68292236Y-49969405D01*
X68293734Y-49966465D01*
X68428978Y-49614143D01*
X68526653Y-49249613D01*
X68560989Y-49032826D01*
X68585176Y-48880119D01*
X68585177Y-48880111D01*
X68585690Y-48876871D01*
X68605441Y-48500000D01*
X68585690Y-48123129D01*
X68547974Y-47885000D01*
X109348996Y-47885000D01*
X109368958Y-48074928D01*
X109427973Y-48256556D01*
X109523460Y-48421944D01*
X109596637Y-48503215D01*
X109627353Y-48567221D01*
X109629000Y-48587524D01*
X109629000Y-48983733D01*
X109628473Y-48994916D01*
X109626798Y-49002409D01*
X109627047Y-49010335D01*
X109627047Y-49010336D01*
X109628938Y-49070486D01*
X109629000Y-49074445D01*
X109629000Y-49102356D01*
X109629497Y-49106290D01*
X109629497Y-49106291D01*
X109629505Y-49106356D01*
X109630438Y-49118193D01*
X109631827Y-49162389D01*
X109637478Y-49181839D01*
X109641487Y-49201200D01*
X109644026Y-49221297D01*
X109646945Y-49228668D01*
X109646945Y-49228670D01*
X109660304Y-49262412D01*
X109664149Y-49273642D01*
X109676482Y-49316093D01*
X109680515Y-49322912D01*
X109680517Y-49322917D01*
X109686793Y-49333528D01*
X109695488Y-49351276D01*
X109702948Y-49370117D01*
X109707610Y-49376533D01*
X109707610Y-49376534D01*
X109728936Y-49405887D01*
X109735452Y-49415807D01*
X109757958Y-49453862D01*
X109772279Y-49468183D01*
X109785119Y-49483216D01*
X109797028Y-49499607D01*
X109828913Y-49525984D01*
X109831093Y-49527788D01*
X109839874Y-49535778D01*
X110296353Y-49992258D01*
X110303887Y-50000537D01*
X110308000Y-50007018D01*
X110357651Y-50053643D01*
X110360493Y-50056398D01*
X110380230Y-50076135D01*
X110383427Y-50078615D01*
X110392447Y-50086318D01*
X110424679Y-50116586D01*
X110431625Y-50120405D01*
X110431628Y-50120407D01*
X110442434Y-50126348D01*
X110458953Y-50137199D01*
X110474959Y-50149614D01*
X110482228Y-50152759D01*
X110482232Y-50152762D01*
X110515537Y-50167174D01*
X110526187Y-50172391D01*
X110564940Y-50193695D01*
X110572615Y-50195666D01*
X110572616Y-50195666D01*
X110584562Y-50198733D01*
X110603267Y-50205137D01*
X110621855Y-50213181D01*
X110629678Y-50214420D01*
X110629688Y-50214423D01*
X110665524Y-50220099D01*
X110677144Y-50222505D01*
X110712289Y-50231528D01*
X110719970Y-50233500D01*
X110740224Y-50233500D01*
X110759934Y-50235051D01*
X110779943Y-50238220D01*
X110787835Y-50237474D01*
X110823961Y-50234059D01*
X110835819Y-50233500D01*
X117685406Y-50233500D01*
X117753527Y-50253502D01*
X117774501Y-50270405D01*
X120452878Y-52948783D01*
X120486904Y-53011095D01*
X120489093Y-53024706D01*
X120506458Y-53189928D01*
X120565473Y-53371556D01*
X120660960Y-53536944D01*
X120665378Y-53541851D01*
X120665379Y-53541852D01*
X120696700Y-53576637D01*
X120788747Y-53678866D01*
X120943248Y-53791118D01*
X120949276Y-53793802D01*
X120949278Y-53793803D01*
X121111681Y-53866109D01*
X121117712Y-53868794D01*
X121211112Y-53888647D01*
X121298056Y-53907128D01*
X121298061Y-53907128D01*
X121304513Y-53908500D01*
X121495487Y-53908500D01*
X121501939Y-53907128D01*
X121501944Y-53907128D01*
X121588887Y-53888647D01*
X121682288Y-53868794D01*
X121688319Y-53866109D01*
X121850722Y-53793803D01*
X121850724Y-53793802D01*
X121856752Y-53791118D01*
X122011253Y-53678866D01*
X122103300Y-53576637D01*
X122134621Y-53541852D01*
X122134622Y-53541851D01*
X122139040Y-53536944D01*
X122234527Y-53371556D01*
X122293542Y-53189928D01*
X122313504Y-53000000D01*
X122293542Y-52810072D01*
X122234527Y-52628444D01*
X122139040Y-52463056D01*
X122011253Y-52321134D01*
X121856752Y-52208882D01*
X121850724Y-52206198D01*
X121850722Y-52206197D01*
X121688319Y-52133891D01*
X121688318Y-52133891D01*
X121682288Y-52131206D01*
X121588887Y-52111353D01*
X121501944Y-52092872D01*
X121501939Y-52092872D01*
X121495487Y-52091500D01*
X121439594Y-52091500D01*
X121371473Y-52071498D01*
X121350499Y-52054595D01*
X118503652Y-49207747D01*
X118496112Y-49199461D01*
X118492000Y-49192982D01*
X118484526Y-49185963D01*
X118442349Y-49146357D01*
X118439507Y-49143602D01*
X118419770Y-49123865D01*
X118416573Y-49121385D01*
X118407551Y-49113680D01*
X118399752Y-49106356D01*
X118375321Y-49083414D01*
X118368375Y-49079595D01*
X118368372Y-49079593D01*
X118357566Y-49073652D01*
X118341047Y-49062801D01*
X118340583Y-49062441D01*
X118325041Y-49050386D01*
X118317772Y-49047241D01*
X118317768Y-49047238D01*
X118284463Y-49032826D01*
X118273813Y-49027609D01*
X118235060Y-49006305D01*
X118215437Y-49001267D01*
X118196734Y-48994863D01*
X118185420Y-48989967D01*
X118185419Y-48989967D01*
X118178145Y-48986819D01*
X118170322Y-48985580D01*
X118170312Y-48985577D01*
X118134476Y-48979901D01*
X118122856Y-48977495D01*
X118087711Y-48968472D01*
X118087710Y-48968472D01*
X118080030Y-48966500D01*
X118059776Y-48966500D01*
X118040065Y-48964949D01*
X118027886Y-48963020D01*
X118020057Y-48961780D01*
X118012165Y-48962526D01*
X117976039Y-48965941D01*
X117964181Y-48966500D01*
X111114595Y-48966500D01*
X111046474Y-48946498D01*
X111025499Y-48929595D01*
X110932904Y-48836999D01*
X110898879Y-48774687D01*
X110896000Y-48747904D01*
X110896000Y-48587524D01*
X110916002Y-48519403D01*
X110928358Y-48503221D01*
X111001540Y-48421944D01*
X111097027Y-48256556D01*
X111156042Y-48074928D01*
X111176004Y-47885000D01*
X111156042Y-47695072D01*
X111097027Y-47513444D01*
X111001540Y-47348056D01*
X110873753Y-47206134D01*
X110719252Y-47093882D01*
X110713224Y-47091198D01*
X110713222Y-47091197D01*
X110550819Y-47018891D01*
X110550818Y-47018891D01*
X110544788Y-47016206D01*
X110451388Y-46996353D01*
X110364444Y-46977872D01*
X110364439Y-46977872D01*
X110357987Y-46976500D01*
X110167013Y-46976500D01*
X110160561Y-46977872D01*
X110160556Y-46977872D01*
X110073613Y-46996353D01*
X109980212Y-47016206D01*
X109974182Y-47018891D01*
X109974181Y-47018891D01*
X109811778Y-47091197D01*
X109811776Y-47091198D01*
X109805748Y-47093882D01*
X109651247Y-47206134D01*
X109523460Y-47348056D01*
X109427973Y-47513444D01*
X109368958Y-47695072D01*
X109348996Y-47885000D01*
X68547974Y-47885000D01*
X68526653Y-47750387D01*
X68428978Y-47385857D01*
X68416663Y-47353774D01*
X68294918Y-47036620D01*
X68293734Y-47033535D01*
X68292236Y-47030595D01*
X68123902Y-46700221D01*
X68123898Y-46700214D01*
X68122403Y-46697280D01*
X67916863Y-46380775D01*
X67679365Y-46087489D01*
X67412511Y-45820635D01*
X67303572Y-45732418D01*
X67263222Y-45674006D01*
X67260856Y-45603049D01*
X67297229Y-45542077D01*
X67360791Y-45510449D01*
X67382868Y-45508500D01*
X149117132Y-45508500D01*
X149185253Y-45528502D01*
X149231746Y-45582158D01*
X149241850Y-45652432D01*
X149212356Y-45717012D01*
X149196434Y-45732413D01*
X149087489Y-45820635D01*
X148820635Y-46087489D01*
X148583137Y-46380775D01*
X148581335Y-46383550D01*
X148379395Y-46694510D01*
X148379393Y-46694513D01*
X148377597Y-46697279D01*
X148376102Y-46700213D01*
X148376098Y-46700220D01*
X148235327Y-46976500D01*
X148206266Y-47033535D01*
X148205082Y-47036620D01*
X148083338Y-47353774D01*
X148071022Y-47385857D01*
X147973347Y-47750387D01*
X147914310Y-48123129D01*
X147894559Y-48500000D01*
X147914310Y-48876871D01*
X147914823Y-48880111D01*
X147914824Y-48880119D01*
X147939011Y-49032826D01*
X147973347Y-49249613D01*
X148071022Y-49614143D01*
X148206266Y-49966465D01*
X148207764Y-49969405D01*
X148365907Y-50279777D01*
X148377597Y-50302720D01*
X148583137Y-50619225D01*
X148820635Y-50912511D01*
X149087489Y-51179365D01*
X149380775Y-51416863D01*
X149697280Y-51622403D01*
X149700214Y-51623898D01*
X149700221Y-51623902D01*
X150030595Y-51792236D01*
X150033535Y-51793734D01*
X150385857Y-51928978D01*
X150750387Y-52026653D01*
X150948353Y-52058008D01*
X151119881Y-52085176D01*
X151119889Y-52085177D01*
X151123129Y-52085690D01*
X151405720Y-52100500D01*
X151594280Y-52100500D01*
X151876871Y-52085690D01*
X151880111Y-52085177D01*
X151880119Y-52085176D01*
X152051647Y-52058008D01*
X152249613Y-52026653D01*
X152614143Y-51928978D01*
X152966465Y-51793734D01*
X152969405Y-51792236D01*
X153299779Y-51623902D01*
X153299786Y-51623898D01*
X153302720Y-51622403D01*
X153619225Y-51416863D01*
X153912511Y-51179365D01*
X154179365Y-50912511D01*
X154267582Y-50803572D01*
X154325994Y-50763222D01*
X154396951Y-50760856D01*
X154457923Y-50797229D01*
X154489551Y-50860791D01*
X154491500Y-50882868D01*
X154491500Y-74117132D01*
X154471498Y-74185253D01*
X154417842Y-74231746D01*
X154347568Y-74241850D01*
X154282988Y-74212356D01*
X154267587Y-74196434D01*
X154179365Y-74087489D01*
X153912511Y-73820635D01*
X153619225Y-73583137D01*
X153477053Y-73490810D01*
X153305489Y-73379395D01*
X153305486Y-73379393D01*
X153302720Y-73377597D01*
X153299786Y-73376102D01*
X153299779Y-73376098D01*
X152969405Y-73207764D01*
X152966465Y-73206266D01*
X152614143Y-73071022D01*
X152249613Y-72973347D01*
X152051647Y-72941992D01*
X151880119Y-72914824D01*
X151880111Y-72914823D01*
X151876871Y-72914310D01*
X151594280Y-72899500D01*
X151405720Y-72899500D01*
X151123129Y-72914310D01*
X151119889Y-72914823D01*
X151119881Y-72914824D01*
X150948353Y-72941992D01*
X150750387Y-72973347D01*
X150385857Y-73071022D01*
X150033535Y-73206266D01*
X150030595Y-73207764D01*
X149700221Y-73376098D01*
X149700214Y-73376102D01*
X149697280Y-73377597D01*
X149694514Y-73379393D01*
X149694511Y-73379395D01*
X149522947Y-73490810D01*
X149380775Y-73583137D01*
X149087489Y-73820635D01*
X148820635Y-74087489D01*
X148583137Y-74380775D01*
X148528487Y-74464928D01*
X148379395Y-74694510D01*
X148379393Y-74694513D01*
X148377597Y-74697279D01*
X148376102Y-74700213D01*
X148376098Y-74700220D01*
X148249711Y-74948269D01*
X148206266Y-75033535D01*
X148071022Y-75385857D01*
X147973347Y-75750387D01*
X147958590Y-75843560D01*
X147919504Y-76090338D01*
X147914310Y-76123129D01*
X147894559Y-76500000D01*
X147914310Y-76876871D01*
X147914823Y-76880111D01*
X147914824Y-76880119D01*
X147919548Y-76909944D01*
X147973347Y-77249613D01*
X148071022Y-77614143D01*
X148206266Y-77966465D01*
X148207764Y-77969405D01*
X148328457Y-78206277D01*
X148377597Y-78302720D01*
X148583137Y-78619225D01*
X148820635Y-78912511D01*
X149087489Y-79179365D01*
X149196428Y-79267582D01*
X149236778Y-79325994D01*
X149239144Y-79396951D01*
X149202771Y-79457923D01*
X149139209Y-79489551D01*
X149117132Y-79491500D01*
X129435371Y-79491500D01*
X129367250Y-79471498D01*
X129320757Y-79417842D01*
X129310653Y-79347568D01*
X129340147Y-79282988D01*
X129346276Y-79276405D01*
X130643831Y-77978850D01*
X130706728Y-77944699D01*
X130763324Y-77932669D01*
X130763333Y-77932666D01*
X130769788Y-77931294D01*
X130775819Y-77928609D01*
X130938222Y-77856303D01*
X130938224Y-77856302D01*
X130944252Y-77853618D01*
X131098753Y-77741366D01*
X131226540Y-77599444D01*
X131322027Y-77434056D01*
X131381042Y-77252428D01*
X131401004Y-77062500D01*
X131381042Y-76872572D01*
X131322027Y-76690944D01*
X131226540Y-76525556D01*
X131206277Y-76503051D01*
X131103175Y-76388545D01*
X131103174Y-76388544D01*
X131098753Y-76383634D01*
X130944252Y-76271382D01*
X130938224Y-76268698D01*
X130938222Y-76268697D01*
X130775819Y-76196391D01*
X130775818Y-76196391D01*
X130769788Y-76193706D01*
X130673188Y-76173173D01*
X130589444Y-76155372D01*
X130589439Y-76155372D01*
X130582987Y-76154000D01*
X130392013Y-76154000D01*
X130385561Y-76155372D01*
X130385556Y-76155372D01*
X130301812Y-76173173D01*
X130205212Y-76193706D01*
X130199182Y-76196391D01*
X130199181Y-76196391D01*
X130036778Y-76268697D01*
X130036776Y-76268698D01*
X130030748Y-76271382D01*
X129876247Y-76383634D01*
X129871826Y-76388544D01*
X129871825Y-76388545D01*
X129768724Y-76503051D01*
X129748460Y-76525556D01*
X129652973Y-76690944D01*
X129600808Y-76851492D01*
X129598113Y-76859785D01*
X129567375Y-76909944D01*
X127972724Y-78504595D01*
X127910412Y-78538621D01*
X127883629Y-78541500D01*
X123588268Y-78541500D01*
X123520147Y-78521498D01*
X123473654Y-78467842D01*
X123463550Y-78397568D01*
X123485945Y-78341974D01*
X123509647Y-78308990D01*
X123586471Y-78202077D01*
X123607338Y-78159857D01*
X123683154Y-78006453D01*
X123683155Y-78006451D01*
X123685448Y-78001811D01*
X123750388Y-77788069D01*
X123779547Y-77566590D01*
X123781174Y-77500000D01*
X123762870Y-77277361D01*
X123708449Y-77060702D01*
X123619372Y-76855840D01*
X123498032Y-76668277D01*
X123347688Y-76503051D01*
X123343637Y-76499852D01*
X123343633Y-76499848D01*
X123176432Y-76367800D01*
X123176428Y-76367798D01*
X123172377Y-76364598D01*
X123167849Y-76362098D01*
X123105627Y-76327750D01*
X122976807Y-76256638D01*
X122971938Y-76254914D01*
X122971934Y-76254912D01*
X122771105Y-76183795D01*
X122771101Y-76183794D01*
X122766230Y-76182069D01*
X122761137Y-76181162D01*
X122761134Y-76181161D01*
X122551391Y-76143800D01*
X122551385Y-76143799D01*
X122546302Y-76142894D01*
X122472470Y-76141992D01*
X122328099Y-76140228D01*
X122328097Y-76140228D01*
X122322929Y-76140165D01*
X122102109Y-76173955D01*
X121889774Y-76243357D01*
X121859461Y-76259137D01*
X121715993Y-76333822D01*
X121691625Y-76346507D01*
X121687492Y-76349610D01*
X121687489Y-76349612D01*
X121559621Y-76445618D01*
X121512983Y-76480635D01*
X121358647Y-76642138D01*
X121251219Y-76799621D01*
X121196311Y-76844621D01*
X121125786Y-76852792D01*
X121062039Y-76821538D01*
X121041342Y-76797054D01*
X120960840Y-76672617D01*
X120960838Y-76672614D01*
X120958032Y-76668277D01*
X120807688Y-76503051D01*
X120803637Y-76499852D01*
X120803633Y-76499848D01*
X120636432Y-76367800D01*
X120636428Y-76367798D01*
X120632377Y-76364598D01*
X120627853Y-76362101D01*
X120627849Y-76362098D01*
X120576626Y-76333822D01*
X120526654Y-76283390D01*
X120511518Y-76223513D01*
X120511518Y-71961576D01*
X120531520Y-71893455D01*
X120548423Y-71872481D01*
X125092247Y-67328657D01*
X125100537Y-67321113D01*
X125107018Y-67317000D01*
X125119115Y-67304118D01*
X125153660Y-67267331D01*
X125156415Y-67264489D01*
X125176134Y-67244770D01*
X125178612Y-67241575D01*
X125186318Y-67232553D01*
X125211158Y-67206101D01*
X125216586Y-67200321D01*
X125226346Y-67182568D01*
X125237199Y-67166045D01*
X125244753Y-67156306D01*
X125249613Y-67150041D01*
X125267176Y-67109457D01*
X125272383Y-67098827D01*
X125293695Y-67060060D01*
X125295666Y-67052383D01*
X125295668Y-67052378D01*
X125298732Y-67040442D01*
X125305138Y-67021730D01*
X125310034Y-67010417D01*
X125313181Y-67003145D01*
X125320097Y-66959481D01*
X125322504Y-66947860D01*
X125331528Y-66912711D01*
X125331528Y-66912710D01*
X125333500Y-66905030D01*
X125333500Y-66884769D01*
X125335051Y-66865058D01*
X125336716Y-66854549D01*
X125338219Y-66845057D01*
X125334059Y-66801046D01*
X125333500Y-66789189D01*
X125333500Y-65293867D01*
X125353502Y-65225746D01*
X125407158Y-65179253D01*
X125477432Y-65169149D01*
X125542012Y-65198643D01*
X125580396Y-65258369D01*
X125581034Y-65260894D01*
X125581458Y-65264928D01*
X125640473Y-65446556D01*
X125735960Y-65611944D01*
X125740378Y-65616851D01*
X125740379Y-65616852D01*
X125834136Y-65720980D01*
X125864854Y-65784987D01*
X125866500Y-65805290D01*
X125866500Y-73572476D01*
X125846498Y-73640597D01*
X125834142Y-73656779D01*
X125760960Y-73738056D01*
X125757659Y-73743774D01*
X125669904Y-73895770D01*
X125665473Y-73903444D01*
X125606458Y-74085072D01*
X125586496Y-74275000D01*
X125587186Y-74281565D01*
X125597343Y-74378199D01*
X125606458Y-74464928D01*
X125665473Y-74646556D01*
X125760960Y-74811944D01*
X125765378Y-74816851D01*
X125765379Y-74816852D01*
X125812398Y-74869072D01*
X125888747Y-74953866D01*
X125987843Y-75025864D01*
X126032536Y-75058335D01*
X126043248Y-75066118D01*
X126049276Y-75068802D01*
X126049278Y-75068803D01*
X126174911Y-75124738D01*
X126217712Y-75143794D01*
X126311113Y-75163647D01*
X126398056Y-75182128D01*
X126398061Y-75182128D01*
X126404513Y-75183500D01*
X126595487Y-75183500D01*
X126601939Y-75182128D01*
X126601944Y-75182128D01*
X126688887Y-75163647D01*
X126782288Y-75143794D01*
X126825089Y-75124738D01*
X126950722Y-75068803D01*
X126950724Y-75068802D01*
X126956752Y-75066118D01*
X126967465Y-75058335D01*
X127012157Y-75025864D01*
X127111253Y-74953866D01*
X127187602Y-74869072D01*
X127234621Y-74816852D01*
X127234622Y-74816851D01*
X127239040Y-74811944D01*
X127334527Y-74646556D01*
X127393542Y-74464928D01*
X127402658Y-74378199D01*
X127412814Y-74281565D01*
X127413504Y-74275000D01*
X127393542Y-74085072D01*
X127334527Y-73903444D01*
X127330097Y-73895770D01*
X127242341Y-73743774D01*
X127239040Y-73738056D01*
X127165863Y-73656785D01*
X127135147Y-73592779D01*
X127133500Y-73572476D01*
X127133500Y-65749759D01*
X127153502Y-65681638D01*
X127165864Y-65665449D01*
X127209621Y-65616852D01*
X127209622Y-65616851D01*
X127214040Y-65611944D01*
X127309527Y-65446556D01*
X127368542Y-65264928D01*
X127369967Y-65251375D01*
X127387814Y-65081565D01*
X127388504Y-65075000D01*
X127378431Y-64979158D01*
X127369232Y-64891635D01*
X127369232Y-64891633D01*
X127368542Y-64885072D01*
X127309527Y-64703444D01*
X127302925Y-64692008D01*
X127243327Y-64588783D01*
X127214040Y-64538056D01*
X127195413Y-64517368D01*
X127090675Y-64401045D01*
X127090674Y-64401044D01*
X127086253Y-64396134D01*
X126959690Y-64304180D01*
X126937094Y-64287763D01*
X126937093Y-64287762D01*
X126931752Y-64283882D01*
X126925724Y-64281198D01*
X126925722Y-64281197D01*
X126763319Y-64208891D01*
X126763318Y-64208891D01*
X126757288Y-64206206D01*
X126657936Y-64185088D01*
X126576944Y-64167872D01*
X126576939Y-64167872D01*
X126570487Y-64166500D01*
X126379513Y-64166500D01*
X126373061Y-64167872D01*
X126373056Y-64167872D01*
X126292064Y-64185088D01*
X126192712Y-64206206D01*
X126186682Y-64208891D01*
X126186681Y-64208891D01*
X126024278Y-64281197D01*
X126024276Y-64281198D01*
X126018248Y-64283882D01*
X126012907Y-64287762D01*
X126012906Y-64287763D01*
X125990310Y-64304180D01*
X125863747Y-64396134D01*
X125828472Y-64435311D01*
X125768029Y-64472549D01*
X125697045Y-64471198D01*
X125638060Y-64431684D01*
X125609802Y-64366554D01*
X125609528Y-64337828D01*
X125612814Y-64306564D01*
X125613504Y-64300000D01*
X125609667Y-64263489D01*
X125594232Y-64116635D01*
X125594232Y-64116633D01*
X125593542Y-64110072D01*
X125534527Y-63928444D01*
X125510284Y-63886453D01*
X125462963Y-63804492D01*
X125439040Y-63763056D01*
X125388274Y-63706674D01*
X125315675Y-63626045D01*
X125315674Y-63626044D01*
X125311253Y-63621134D01*
X125196503Y-63537763D01*
X125162094Y-63512763D01*
X125162093Y-63512762D01*
X125156752Y-63508882D01*
X125150724Y-63506198D01*
X125150722Y-63506197D01*
X124988319Y-63433891D01*
X124988318Y-63433891D01*
X124982288Y-63431206D01*
X124888887Y-63411353D01*
X124801944Y-63392872D01*
X124801939Y-63392872D01*
X124795487Y-63391500D01*
X124604513Y-63391500D01*
X124598061Y-63392872D01*
X124598056Y-63392872D01*
X124511113Y-63411353D01*
X124417712Y-63431206D01*
X124411682Y-63433891D01*
X124411681Y-63433891D01*
X124326230Y-63471936D01*
X124243248Y-63508882D01*
X124237902Y-63512766D01*
X124237523Y-63512985D01*
X124168529Y-63529726D01*
X124123270Y-63518975D01*
X123988319Y-63458891D01*
X123988318Y-63458891D01*
X123982288Y-63456206D01*
X123877305Y-63433891D01*
X123801944Y-63417872D01*
X123801939Y-63417872D01*
X123795487Y-63416500D01*
X123604513Y-63416500D01*
X123598061Y-63417872D01*
X123598056Y-63417872D01*
X123522695Y-63433891D01*
X123417712Y-63456206D01*
X123411682Y-63458891D01*
X123411681Y-63458891D01*
X123249278Y-63531197D01*
X123249276Y-63531198D01*
X123243248Y-63533882D01*
X123088747Y-63646134D01*
X123084326Y-63651044D01*
X123084325Y-63651045D01*
X122978241Y-63768864D01*
X122960960Y-63788056D01*
X122865473Y-63953444D01*
X122806458Y-64135072D01*
X122805768Y-64141633D01*
X122805768Y-64141635D01*
X122798699Y-64208891D01*
X122786496Y-64325000D01*
X122787186Y-64331565D01*
X122805009Y-64501138D01*
X122806458Y-64514928D01*
X122865473Y-64696556D01*
X122868776Y-64702278D01*
X122868777Y-64702279D01*
X122893785Y-64745594D01*
X122960960Y-64861944D01*
X123034137Y-64943215D01*
X123064853Y-65007221D01*
X123066500Y-65027524D01*
X123066500Y-66874009D01*
X123046498Y-66942130D01*
X123029595Y-66963104D01*
X116945765Y-73046934D01*
X116937479Y-73054474D01*
X116931000Y-73058586D01*
X116925575Y-73064363D01*
X116884375Y-73108237D01*
X116881620Y-73111079D01*
X116861883Y-73130816D01*
X116859403Y-73134013D01*
X116851700Y-73143033D01*
X116821432Y-73175265D01*
X116817613Y-73182211D01*
X116817611Y-73182214D01*
X116811670Y-73193020D01*
X116800819Y-73209539D01*
X116788404Y-73225545D01*
X116785259Y-73232814D01*
X116785256Y-73232818D01*
X116770844Y-73266123D01*
X116765627Y-73276773D01*
X116744323Y-73315526D01*
X116742352Y-73323201D01*
X116742352Y-73323202D01*
X116739285Y-73335148D01*
X116732881Y-73353852D01*
X116724837Y-73372441D01*
X116723598Y-73380264D01*
X116723595Y-73380274D01*
X116717919Y-73416110D01*
X116715513Y-73427730D01*
X116712774Y-73438399D01*
X116704518Y-73470556D01*
X116704518Y-73490810D01*
X116702967Y-73510520D01*
X116699798Y-73530529D01*
X116700544Y-73538421D01*
X116703959Y-73574547D01*
X116704518Y-73586405D01*
X116704518Y-76221692D01*
X116684516Y-76289813D01*
X116636701Y-76333453D01*
X116611625Y-76346507D01*
X116607492Y-76349610D01*
X116607489Y-76349612D01*
X116479621Y-76445618D01*
X116432983Y-76480635D01*
X116278647Y-76642138D01*
X116171219Y-76799621D01*
X116116311Y-76844621D01*
X116045786Y-76852792D01*
X115982039Y-76821538D01*
X115961342Y-76797054D01*
X115880840Y-76672617D01*
X115880838Y-76672614D01*
X115878032Y-76668277D01*
X115727688Y-76503051D01*
X115723637Y-76499852D01*
X115723633Y-76499848D01*
X115556432Y-76367800D01*
X115556428Y-76367798D01*
X115552377Y-76364598D01*
X115547849Y-76362098D01*
X115485627Y-76327750D01*
X115356807Y-76256638D01*
X115351938Y-76254914D01*
X115351934Y-76254912D01*
X115151105Y-76183795D01*
X115151101Y-76183794D01*
X115146230Y-76182069D01*
X115141137Y-76181162D01*
X115141134Y-76181161D01*
X114931391Y-76143800D01*
X114931385Y-76143799D01*
X114926302Y-76142894D01*
X114852470Y-76141992D01*
X114708099Y-76140228D01*
X114708097Y-76140228D01*
X114702929Y-76140165D01*
X114482109Y-76173955D01*
X114269774Y-76243357D01*
X114239461Y-76259137D01*
X114095993Y-76333822D01*
X114071625Y-76346507D01*
X114067492Y-76349610D01*
X114067489Y-76349612D01*
X113939621Y-76445618D01*
X113892983Y-76480635D01*
X113738647Y-76642138D01*
X113631219Y-76799621D01*
X113576311Y-76844621D01*
X113505786Y-76852792D01*
X113442039Y-76821538D01*
X113421342Y-76797054D01*
X113340840Y-76672617D01*
X113340838Y-76672614D01*
X113338032Y-76668277D01*
X113187688Y-76503051D01*
X113183637Y-76499852D01*
X113183633Y-76499848D01*
X113016432Y-76367800D01*
X113016428Y-76367798D01*
X113012377Y-76364598D01*
X113007849Y-76362098D01*
X112945627Y-76327750D01*
X112816807Y-76256638D01*
X112811938Y-76254914D01*
X112811934Y-76254912D01*
X112611105Y-76183795D01*
X112611101Y-76183794D01*
X112606230Y-76182069D01*
X112601137Y-76181162D01*
X112601134Y-76181161D01*
X112391391Y-76143800D01*
X112391385Y-76143799D01*
X112386302Y-76142894D01*
X112312470Y-76141992D01*
X112168099Y-76140228D01*
X112168097Y-76140228D01*
X112162929Y-76140165D01*
X111942109Y-76173955D01*
X111729774Y-76243357D01*
X111699461Y-76259137D01*
X111555993Y-76333822D01*
X111531625Y-76346507D01*
X111527492Y-76349610D01*
X111527489Y-76349612D01*
X111399621Y-76445618D01*
X111352983Y-76480635D01*
X111342355Y-76491757D01*
X111271916Y-76565466D01*
X111210392Y-76600895D01*
X111139480Y-76597438D01*
X111081694Y-76556192D01*
X111062841Y-76522644D01*
X111021342Y-76411946D01*
X111012804Y-76396351D01*
X110936303Y-76294276D01*
X110923742Y-76281715D01*
X110821667Y-76205214D01*
X110806072Y-76196676D01*
X110685624Y-76151522D01*
X110670369Y-76147895D01*
X110619504Y-76142369D01*
X110612690Y-76142000D01*
X109990133Y-76142000D01*
X109974894Y-76146475D01*
X109973689Y-76147865D01*
X109972018Y-76155548D01*
X109972018Y-77628000D01*
X109952016Y-77696121D01*
X109898360Y-77742614D01*
X109846018Y-77754000D01*
X108378134Y-77754000D01*
X108362895Y-77758475D01*
X108361690Y-77759865D01*
X108360019Y-77767548D01*
X108360019Y-78394669D01*
X108360389Y-78401494D01*
X108360434Y-78401911D01*
X108360417Y-78402008D01*
X108360572Y-78404877D01*
X108359895Y-78404914D01*
X108347896Y-78471791D01*
X108299567Y-78523800D01*
X108235169Y-78541500D01*
X100907668Y-78541500D01*
X100839547Y-78521498D01*
X100818573Y-78504595D01*
X99541863Y-77227885D01*
X108360018Y-77227885D01*
X108364493Y-77243124D01*
X108365883Y-77244329D01*
X108373566Y-77246000D01*
X109445903Y-77246000D01*
X109461142Y-77241525D01*
X109462347Y-77240135D01*
X109464018Y-77232452D01*
X109464018Y-76160116D01*
X109459543Y-76144877D01*
X109458153Y-76143672D01*
X109450470Y-76142001D01*
X108823349Y-76142001D01*
X108816528Y-76142371D01*
X108765666Y-76147895D01*
X108750414Y-76151521D01*
X108629964Y-76196676D01*
X108614369Y-76205214D01*
X108512294Y-76281715D01*
X108499733Y-76294276D01*
X108423232Y-76396351D01*
X108414694Y-76411946D01*
X108369540Y-76532394D01*
X108365913Y-76547649D01*
X108360387Y-76598514D01*
X108360018Y-76605328D01*
X108360018Y-77227885D01*
X99541863Y-77227885D01*
X94837142Y-72523164D01*
X94803116Y-72460852D01*
X94808181Y-72390037D01*
X94850728Y-72333201D01*
X94890029Y-72313383D01*
X95032429Y-72270661D01*
X95032434Y-72270659D01*
X95037384Y-72269174D01*
X95237994Y-72170896D01*
X95419860Y-72041173D01*
X95578096Y-71883489D01*
X95708453Y-71702077D01*
X95807430Y-71501811D01*
X95872370Y-71288069D01*
X95901529Y-71066590D01*
X95902915Y-71009852D01*
X95903074Y-71003365D01*
X95903074Y-71003361D01*
X95903156Y-71000000D01*
X95884852Y-70777361D01*
X95830431Y-70560702D01*
X95741354Y-70355840D01*
X95620014Y-70168277D01*
X95469670Y-70003051D01*
X95465619Y-69999852D01*
X95465615Y-69999848D01*
X95298414Y-69867800D01*
X95298410Y-69867798D01*
X95294359Y-69864598D01*
X95253053Y-69841796D01*
X95203084Y-69791364D01*
X95188312Y-69721921D01*
X95213428Y-69655516D01*
X95240780Y-69628909D01*
X95284603Y-69597650D01*
X95419860Y-69501173D01*
X95578096Y-69343489D01*
X95637594Y-69260689D01*
X95705435Y-69166277D01*
X95708453Y-69162077D01*
X95711452Y-69156010D01*
X95805136Y-68966453D01*
X95805137Y-68966451D01*
X95807430Y-68961811D01*
X95860641Y-68786674D01*
X95870865Y-68753023D01*
X95870865Y-68753021D01*
X95872370Y-68748069D01*
X95901529Y-68526590D01*
X95901611Y-68523240D01*
X95903074Y-68463365D01*
X95903074Y-68463361D01*
X95903156Y-68460000D01*
X95884852Y-68237361D01*
X95830431Y-68020702D01*
X95741354Y-67815840D01*
X95633509Y-67649137D01*
X95622822Y-67632617D01*
X95622820Y-67632614D01*
X95620014Y-67628277D01*
X95469670Y-67463051D01*
X95465619Y-67459852D01*
X95465615Y-67459848D01*
X95298414Y-67327800D01*
X95298410Y-67327798D01*
X95294359Y-67324598D01*
X95253053Y-67301796D01*
X95203084Y-67251364D01*
X95188312Y-67181921D01*
X95213428Y-67115516D01*
X95240780Y-67088909D01*
X95308728Y-67040442D01*
X95419860Y-66961173D01*
X95427446Y-66953614D01*
X95536382Y-66845057D01*
X95578096Y-66803489D01*
X95637594Y-66720689D01*
X95705435Y-66626277D01*
X95708453Y-66622077D01*
X95729320Y-66579857D01*
X95805136Y-66426453D01*
X95805137Y-66426451D01*
X95807430Y-66421811D01*
X95872370Y-66208069D01*
X95901529Y-65986590D01*
X95901611Y-65983240D01*
X95903074Y-65923365D01*
X95903074Y-65923361D01*
X95903156Y-65920000D01*
X95884852Y-65697361D01*
X95830431Y-65480702D01*
X95741354Y-65275840D01*
X95674350Y-65172267D01*
X95622822Y-65092617D01*
X95622820Y-65092614D01*
X95620014Y-65088277D01*
X95469670Y-64923051D01*
X95465619Y-64919852D01*
X95465615Y-64919848D01*
X95298414Y-64787800D01*
X95298410Y-64787798D01*
X95294359Y-64784598D01*
X95253053Y-64761796D01*
X95203084Y-64711364D01*
X95188312Y-64641921D01*
X95213428Y-64575516D01*
X95240780Y-64548909D01*
X95306390Y-64502110D01*
X95419860Y-64421173D01*
X95428568Y-64412496D01*
X95471492Y-64369721D01*
X100391024Y-64369721D01*
X100393491Y-64378352D01*
X100399150Y-64398153D01*
X100402728Y-64414915D01*
X100406920Y-64444187D01*
X100410634Y-64452355D01*
X100410634Y-64452356D01*
X100417548Y-64467562D01*
X100423996Y-64485086D01*
X100431051Y-64509771D01*
X100435843Y-64517365D01*
X100435844Y-64517368D01*
X100446830Y-64534780D01*
X100454969Y-64549863D01*
X100467208Y-64576782D01*
X100473069Y-64583584D01*
X100483970Y-64596235D01*
X100495073Y-64611239D01*
X100508776Y-64632958D01*
X100515501Y-64638897D01*
X100515504Y-64638901D01*
X100530938Y-64652532D01*
X100542982Y-64664724D01*
X100556427Y-64680327D01*
X100556430Y-64680329D01*
X100562287Y-64687127D01*
X100569816Y-64692007D01*
X100569817Y-64692008D01*
X100583835Y-64701094D01*
X100598709Y-64712385D01*
X100609676Y-64722070D01*
X100617951Y-64729378D01*
X100644711Y-64741942D01*
X100659691Y-64750263D01*
X100676983Y-64761471D01*
X100676988Y-64761473D01*
X100684515Y-64766352D01*
X100693108Y-64768922D01*
X100693113Y-64768924D01*
X100709120Y-64773711D01*
X100726564Y-64780372D01*
X100741676Y-64787467D01*
X100741678Y-64787468D01*
X100749800Y-64791281D01*
X100758667Y-64792662D01*
X100758668Y-64792662D01*
X100761353Y-64793080D01*
X100779017Y-64795830D01*
X100795732Y-64799613D01*
X100815466Y-64805515D01*
X100815472Y-64805516D01*
X100824066Y-64808086D01*
X100833037Y-64808141D01*
X100833038Y-64808141D01*
X100843097Y-64808202D01*
X100858506Y-64808296D01*
X100859289Y-64808329D01*
X100860386Y-64808500D01*
X100891377Y-64808500D01*
X100892147Y-64808502D01*
X100965785Y-64808952D01*
X100965786Y-64808952D01*
X100969721Y-64808976D01*
X100971065Y-64808592D01*
X100972410Y-64808500D01*
X102791377Y-64808500D01*
X102792148Y-64808502D01*
X102869721Y-64808976D01*
X102898152Y-64800850D01*
X102914915Y-64797272D01*
X102915753Y-64797152D01*
X102944187Y-64793080D01*
X102967564Y-64782451D01*
X102985087Y-64776004D01*
X103009771Y-64768949D01*
X103017365Y-64764157D01*
X103017368Y-64764156D01*
X103034780Y-64753170D01*
X103049865Y-64745030D01*
X103076782Y-64732792D01*
X103096235Y-64716030D01*
X103111239Y-64704927D01*
X103132958Y-64691224D01*
X103138897Y-64684499D01*
X103138901Y-64684496D01*
X103152532Y-64669062D01*
X103164724Y-64657018D01*
X103180327Y-64643573D01*
X103180329Y-64643570D01*
X103187127Y-64637713D01*
X103201016Y-64616286D01*
X103201094Y-64616165D01*
X103212385Y-64601291D01*
X103223431Y-64588783D01*
X103223432Y-64588782D01*
X103229378Y-64582049D01*
X103241943Y-64555287D01*
X103250263Y-64540309D01*
X103261471Y-64523017D01*
X103261473Y-64523012D01*
X103266352Y-64515485D01*
X103268922Y-64506892D01*
X103268924Y-64506887D01*
X103273711Y-64490880D01*
X103280372Y-64473436D01*
X103287467Y-64458324D01*
X103287468Y-64458322D01*
X103291281Y-64450200D01*
X103295830Y-64420983D01*
X103299613Y-64404268D01*
X103305515Y-64384534D01*
X103305516Y-64384528D01*
X103308086Y-64375934D01*
X103308296Y-64341494D01*
X103308329Y-64340711D01*
X103308500Y-64339614D01*
X103308500Y-64308623D01*
X103308502Y-64307853D01*
X103308952Y-64234215D01*
X103308952Y-64234214D01*
X103308976Y-64230279D01*
X103308592Y-64228935D01*
X103308500Y-64227590D01*
X103308500Y-62726689D01*
X104491370Y-62726689D01*
X104529308Y-63178476D01*
X104604917Y-63625505D01*
X104605572Y-63628055D01*
X104605573Y-63628061D01*
X104715111Y-64054678D01*
X104717668Y-64064638D01*
X104866768Y-64492797D01*
X105051174Y-64906978D01*
X105269590Y-65304276D01*
X105271042Y-65306462D01*
X105271046Y-65306468D01*
X105323315Y-65385139D01*
X105520485Y-65681904D01*
X105802100Y-66037213D01*
X105991986Y-66239421D01*
X106108980Y-66364007D01*
X106112458Y-66367711D01*
X106449383Y-66671079D01*
X106451467Y-66672661D01*
X106451472Y-66672665D01*
X106806479Y-66942130D01*
X106810512Y-66945191D01*
X106812746Y-66946609D01*
X106812755Y-66946615D01*
X107150297Y-67160826D01*
X107193311Y-67188123D01*
X107195638Y-67189339D01*
X107195644Y-67189343D01*
X107592758Y-67396949D01*
X107592763Y-67396951D01*
X107595096Y-67398171D01*
X108013048Y-67573862D01*
X108015556Y-67574677D01*
X108015559Y-67574678D01*
X108441720Y-67713146D01*
X108441724Y-67713147D01*
X108444235Y-67713963D01*
X108754266Y-67786680D01*
X108883058Y-67816888D01*
X108883062Y-67816889D01*
X108885634Y-67817492D01*
X108888251Y-67817879D01*
X108888254Y-67817879D01*
X109331526Y-67883336D01*
X109331530Y-67883336D01*
X109334148Y-67883723D01*
X109786631Y-67912191D01*
X109789263Y-67912136D01*
X109789270Y-67912136D01*
X109961705Y-67908524D01*
X110239909Y-67902696D01*
X110690803Y-67855305D01*
X111136150Y-67770351D01*
X111138687Y-67769643D01*
X111138694Y-67769641D01*
X111570288Y-67649137D01*
X111570296Y-67649134D01*
X111572826Y-67648428D01*
X111754834Y-67580740D01*
X111995295Y-67491314D01*
X111995301Y-67491311D01*
X111997768Y-67490394D01*
X112407997Y-67297355D01*
X112800633Y-67070666D01*
X112802792Y-67069165D01*
X112802799Y-67069161D01*
X113096465Y-66865058D01*
X113172924Y-66811918D01*
X113270581Y-66731129D01*
X113520232Y-66524600D01*
X113520243Y-66524591D01*
X113522257Y-66522924D01*
X113846183Y-66205712D01*
X113847896Y-66203727D01*
X113847903Y-66203720D01*
X113989960Y-66039145D01*
X114142429Y-65862508D01*
X114408918Y-65495718D01*
X114418855Y-65479311D01*
X114543926Y-65272792D01*
X114643779Y-65107915D01*
X114814439Y-64764124D01*
X114844193Y-64704184D01*
X114845367Y-64701819D01*
X115012266Y-64280279D01*
X115143307Y-63846252D01*
X115147376Y-63827112D01*
X115221438Y-63478673D01*
X115237569Y-63402782D01*
X115294393Y-62952980D01*
X115296224Y-62909305D01*
X115306777Y-62657512D01*
X130489433Y-62657512D01*
X130489662Y-62660357D01*
X130489662Y-62660360D01*
X130521183Y-63052116D01*
X130522273Y-63065668D01*
X130591969Y-63469168D01*
X130697949Y-63864691D01*
X130698934Y-63867368D01*
X130838152Y-64245750D01*
X130839340Y-64248980D01*
X130840565Y-64251560D01*
X130840568Y-64251567D01*
X131004229Y-64596235D01*
X131014979Y-64618874D01*
X131122599Y-64800850D01*
X131213265Y-64954158D01*
X131223418Y-64971326D01*
X131225080Y-64973630D01*
X131225081Y-64973632D01*
X131456043Y-65293867D01*
X131462944Y-65303436D01*
X131731584Y-65612471D01*
X132027126Y-65895886D01*
X132029344Y-65897656D01*
X132029349Y-65897661D01*
X132176374Y-66015029D01*
X132347139Y-66151349D01*
X132349520Y-66152919D01*
X132674362Y-66367112D01*
X132688989Y-66376757D01*
X132691519Y-66378113D01*
X132691518Y-66378113D01*
X132998340Y-66542630D01*
X133049860Y-66570255D01*
X133426784Y-66730250D01*
X133429522Y-66731129D01*
X133813931Y-66854549D01*
X133813935Y-66854550D01*
X133816657Y-66855424D01*
X133819447Y-66856048D01*
X133819452Y-66856049D01*
X134213477Y-66944125D01*
X134213488Y-66944127D01*
X134216271Y-66944749D01*
X134622335Y-66997487D01*
X135031509Y-67013206D01*
X135034371Y-67013056D01*
X135034372Y-67013056D01*
X135437566Y-66991926D01*
X135437573Y-66991925D01*
X135440422Y-66991776D01*
X135443245Y-66991369D01*
X135443247Y-66991369D01*
X135842889Y-66933780D01*
X135842896Y-66933779D01*
X135845711Y-66933373D01*
X136244038Y-66838478D01*
X136246736Y-66837570D01*
X136246743Y-66837568D01*
X136629414Y-66708785D01*
X136629420Y-66708783D01*
X136632126Y-66707872D01*
X137006779Y-66542630D01*
X137364914Y-66344113D01*
X137508291Y-66246674D01*
X137701198Y-66115575D01*
X137701200Y-66115573D01*
X137703583Y-66113954D01*
X137824016Y-66015029D01*
X138017779Y-65855870D01*
X138017783Y-65855867D01*
X138019998Y-65854047D01*
X138022036Y-65852038D01*
X138022043Y-65852031D01*
X138194831Y-65681638D01*
X138311555Y-65566533D01*
X138369597Y-65497850D01*
X138574008Y-65255963D01*
X138574013Y-65255957D01*
X138575854Y-65253778D01*
X138601569Y-65217054D01*
X138793314Y-64943213D01*
X138810719Y-64918356D01*
X139014217Y-64563027D01*
X139046128Y-64493327D01*
X139183485Y-64193316D01*
X139183488Y-64193307D01*
X139184674Y-64190718D01*
X139320685Y-63804492D01*
X139324844Y-63788056D01*
X139420430Y-63410307D01*
X139420431Y-63410303D01*
X139421133Y-63407528D01*
X139423455Y-63392872D01*
X139467594Y-63114183D01*
X139485189Y-63003095D01*
X139502940Y-62735840D01*
X139512210Y-62596271D01*
X139512210Y-62596260D01*
X139512326Y-62594520D01*
X139513316Y-62500000D01*
X139494741Y-62090947D01*
X139494163Y-62086723D01*
X139449980Y-61764180D01*
X139439169Y-61685260D01*
X139347057Y-61286280D01*
X139275421Y-61068396D01*
X139220057Y-60900005D01*
X139220054Y-60899998D01*
X139219164Y-60897290D01*
X139056542Y-60521492D01*
X138935184Y-60298906D01*
X138861899Y-60164492D01*
X138861895Y-60164485D01*
X138860529Y-60161980D01*
X138773255Y-60031611D01*
X138634332Y-59824090D01*
X138634324Y-59824079D01*
X138632740Y-59821713D01*
X138375049Y-59503491D01*
X138335888Y-59463220D01*
X138091567Y-59211980D01*
X138091563Y-59211976D01*
X138089577Y-59209934D01*
X138087419Y-59208084D01*
X138087409Y-59208075D01*
X137780849Y-58945321D01*
X137780844Y-58945317D01*
X137778675Y-58943458D01*
X137776344Y-58941801D01*
X137776337Y-58941796D01*
X137568772Y-58794288D01*
X137444900Y-58706257D01*
X137267951Y-58603270D01*
X137093474Y-58501722D01*
X137093469Y-58501719D01*
X137091001Y-58500283D01*
X136856846Y-58391095D01*
X136722487Y-58328442D01*
X136722477Y-58328438D01*
X136719891Y-58327232D01*
X136717194Y-58326261D01*
X136337314Y-58189495D01*
X136337305Y-58189492D01*
X136334624Y-58188527D01*
X136072247Y-58120183D01*
X135941140Y-58086032D01*
X135941134Y-58086031D01*
X135938371Y-58085311D01*
X135534395Y-58018433D01*
X135531552Y-58018224D01*
X135531550Y-58018224D01*
X135128865Y-57988653D01*
X135126019Y-57988444D01*
X134956043Y-57991411D01*
X134719458Y-57995540D01*
X134719453Y-57995540D01*
X134716607Y-57995590D01*
X134713774Y-57995898D01*
X134713770Y-57995898D01*
X134384896Y-58031625D01*
X134309527Y-58039813D01*
X133908130Y-58120749D01*
X133905402Y-58121562D01*
X133905391Y-58121565D01*
X133676623Y-58189764D01*
X133515721Y-58237731D01*
X133513060Y-58238795D01*
X133513058Y-58238796D01*
X133291695Y-58327335D01*
X133135529Y-58389797D01*
X133132982Y-58391095D01*
X132773227Y-58574399D01*
X132773222Y-58574402D01*
X132770684Y-58575695D01*
X132768265Y-58577218D01*
X132768262Y-58577220D01*
X132685565Y-58629297D01*
X132424189Y-58793894D01*
X132098896Y-59042599D01*
X131797483Y-59319763D01*
X131522430Y-59623104D01*
X131520706Y-59625391D01*
X131520705Y-59625393D01*
X131309773Y-59905310D01*
X131276002Y-59950125D01*
X131115667Y-60208719D01*
X131075769Y-60273069D01*
X131060227Y-60298135D01*
X131058947Y-60300691D01*
X131058942Y-60300700D01*
X130954574Y-60509120D01*
X130876881Y-60664269D01*
X130875840Y-60666925D01*
X130875837Y-60666932D01*
X130785561Y-60897290D01*
X130727473Y-61045513D01*
X130726681Y-61048240D01*
X130726677Y-61048251D01*
X130631142Y-61377086D01*
X130613233Y-61438729D01*
X130535101Y-61840681D01*
X130493721Y-62248060D01*
X130491083Y-62500000D01*
X130489433Y-62657512D01*
X115306777Y-62657512D01*
X115313267Y-62502648D01*
X115313378Y-62500000D01*
X115302569Y-62242101D01*
X115294504Y-62049665D01*
X115294504Y-62049662D01*
X115294393Y-62047020D01*
X115237569Y-61597218D01*
X115203298Y-61435985D01*
X115143853Y-61156315D01*
X115143851Y-61156307D01*
X115143307Y-61153748D01*
X115012266Y-60719721D01*
X114845367Y-60298181D01*
X114643779Y-59892085D01*
X114408918Y-59504282D01*
X114142429Y-59137492D01*
X113937907Y-58900551D01*
X113847903Y-58796280D01*
X113847896Y-58796273D01*
X113846183Y-58794288D01*
X113522257Y-58477076D01*
X113520243Y-58475409D01*
X113520232Y-58475400D01*
X113519748Y-58475000D01*
X115611496Y-58475000D01*
X115612186Y-58481565D01*
X115630068Y-58651699D01*
X115631458Y-58664928D01*
X115690473Y-58846556D01*
X115693776Y-58852278D01*
X115693777Y-58852279D01*
X115708705Y-58878135D01*
X115785960Y-59011944D01*
X115790378Y-59016851D01*
X115790379Y-59016852D01*
X115872452Y-59108003D01*
X115913747Y-59153866D01*
X115988359Y-59208075D01*
X116050661Y-59253340D01*
X116068248Y-59266118D01*
X116074276Y-59268802D01*
X116074278Y-59268803D01*
X116236681Y-59341109D01*
X116242712Y-59343794D01*
X116336113Y-59363647D01*
X116423056Y-59382128D01*
X116423061Y-59382128D01*
X116429513Y-59383500D01*
X116620487Y-59383500D01*
X116626939Y-59382128D01*
X116626944Y-59382128D01*
X116713887Y-59363647D01*
X116807288Y-59343794D01*
X116813319Y-59341109D01*
X116975722Y-59268803D01*
X116975724Y-59268802D01*
X116981752Y-59266118D01*
X116999340Y-59253340D01*
X117114671Y-59169546D01*
X117136253Y-59153866D01*
X117140668Y-59148963D01*
X117145580Y-59144540D01*
X117146705Y-59145789D01*
X117200014Y-59112949D01*
X117233200Y-59108500D01*
X117896233Y-59108500D01*
X117907416Y-59109027D01*
X117914909Y-59110702D01*
X117922835Y-59110453D01*
X117922836Y-59110453D01*
X117982986Y-59108562D01*
X117986945Y-59108500D01*
X118014856Y-59108500D01*
X118018791Y-59108003D01*
X118018856Y-59107995D01*
X118030693Y-59107062D01*
X118062951Y-59106048D01*
X118066970Y-59105922D01*
X118074889Y-59105673D01*
X118094343Y-59100021D01*
X118113700Y-59096013D01*
X118125930Y-59094468D01*
X118125931Y-59094468D01*
X118133797Y-59093474D01*
X118141168Y-59090555D01*
X118141170Y-59090555D01*
X118174912Y-59077196D01*
X118186142Y-59073351D01*
X118220983Y-59063229D01*
X118220984Y-59063229D01*
X118228593Y-59061018D01*
X118235412Y-59056985D01*
X118235417Y-59056983D01*
X118246028Y-59050707D01*
X118263776Y-59042012D01*
X118282617Y-59034552D01*
X118318387Y-59008564D01*
X118328307Y-59002048D01*
X118359535Y-58983580D01*
X118359538Y-58983578D01*
X118366362Y-58979542D01*
X118380683Y-58965221D01*
X118395717Y-58952380D01*
X118402844Y-58947202D01*
X118412107Y-58940472D01*
X118440298Y-58906395D01*
X118448288Y-58897616D01*
X120100499Y-57245405D01*
X120162811Y-57211379D01*
X120189594Y-57208500D01*
X120245487Y-57208500D01*
X120251939Y-57207128D01*
X120251944Y-57207128D01*
X120364927Y-57183112D01*
X120432288Y-57168794D01*
X120438319Y-57166109D01*
X120600722Y-57093803D01*
X120600724Y-57093802D01*
X120606752Y-57091118D01*
X120761253Y-56978866D01*
X120844145Y-56886805D01*
X120884621Y-56841852D01*
X120884622Y-56841851D01*
X120889040Y-56836944D01*
X120984527Y-56671556D01*
X121043542Y-56489928D01*
X121063504Y-56300000D01*
X121043542Y-56110072D01*
X120984527Y-55928444D01*
X120889040Y-55763056D01*
X120836440Y-55704637D01*
X120765675Y-55626045D01*
X120765674Y-55626044D01*
X120761253Y-55621134D01*
X120627253Y-55523777D01*
X120612094Y-55512763D01*
X120612093Y-55512762D01*
X120606752Y-55508882D01*
X120600724Y-55506198D01*
X120600722Y-55506197D01*
X120438319Y-55433891D01*
X120438318Y-55433891D01*
X120432288Y-55431206D01*
X120338887Y-55411353D01*
X120251944Y-55392872D01*
X120251939Y-55392872D01*
X120245487Y-55391500D01*
X120054513Y-55391500D01*
X120048061Y-55392872D01*
X120048056Y-55392872D01*
X119961113Y-55411353D01*
X119867712Y-55431206D01*
X119861682Y-55433891D01*
X119861681Y-55433891D01*
X119699278Y-55506197D01*
X119699276Y-55506198D01*
X119693248Y-55508882D01*
X119687907Y-55512762D01*
X119687906Y-55512763D01*
X119672747Y-55523777D01*
X119538747Y-55621134D01*
X119534326Y-55626044D01*
X119534325Y-55626045D01*
X119463561Y-55704637D01*
X119410960Y-55763056D01*
X119315473Y-55928444D01*
X119256458Y-56110072D01*
X119255768Y-56116633D01*
X119255768Y-56116635D01*
X119239093Y-56275292D01*
X119212080Y-56340949D01*
X119202878Y-56351217D01*
X117749500Y-57804595D01*
X117687188Y-57838621D01*
X117660405Y-57841500D01*
X117233200Y-57841500D01*
X117165079Y-57821498D01*
X117145853Y-57805157D01*
X117145580Y-57805460D01*
X117140668Y-57801037D01*
X117136253Y-57796134D01*
X117086651Y-57760096D01*
X116987094Y-57687763D01*
X116987093Y-57687762D01*
X116981752Y-57683882D01*
X116975724Y-57681198D01*
X116975722Y-57681197D01*
X116813319Y-57608891D01*
X116813318Y-57608891D01*
X116807288Y-57606206D01*
X116713888Y-57586353D01*
X116626944Y-57567872D01*
X116626939Y-57567872D01*
X116620487Y-57566500D01*
X116429513Y-57566500D01*
X116423061Y-57567872D01*
X116423056Y-57567872D01*
X116336112Y-57586353D01*
X116242712Y-57606206D01*
X116236682Y-57608891D01*
X116236681Y-57608891D01*
X116074278Y-57681197D01*
X116074276Y-57681198D01*
X116068248Y-57683882D01*
X116062907Y-57687762D01*
X116062906Y-57687763D01*
X116012843Y-57724136D01*
X115913747Y-57796134D01*
X115909326Y-57801044D01*
X115909325Y-57801045D01*
X115852683Y-57863953D01*
X115785960Y-57938056D01*
X115690473Y-58103444D01*
X115631458Y-58285072D01*
X115611496Y-58475000D01*
X113519748Y-58475000D01*
X113174957Y-58189764D01*
X113172924Y-58188082D01*
X112979120Y-58053385D01*
X112802799Y-57930839D01*
X112802792Y-57930835D01*
X112800633Y-57929334D01*
X112407997Y-57702645D01*
X111997768Y-57509606D01*
X111995301Y-57508689D01*
X111995295Y-57508686D01*
X111575286Y-57352487D01*
X111572826Y-57351572D01*
X111570296Y-57350866D01*
X111570288Y-57350863D01*
X111138694Y-57230359D01*
X111138687Y-57230357D01*
X111136150Y-57229649D01*
X110690803Y-57144695D01*
X110239909Y-57097304D01*
X109961705Y-57091476D01*
X109789270Y-57087864D01*
X109789263Y-57087864D01*
X109786631Y-57087809D01*
X109334148Y-57116277D01*
X109331530Y-57116664D01*
X109331526Y-57116664D01*
X108888254Y-57182121D01*
X108888251Y-57182121D01*
X108885634Y-57182508D01*
X108883062Y-57183111D01*
X108883058Y-57183112D01*
X108780666Y-57207128D01*
X108444235Y-57286037D01*
X108441724Y-57286853D01*
X108441720Y-57286854D01*
X108029661Y-57420740D01*
X108013048Y-57426138D01*
X107595096Y-57601829D01*
X107592763Y-57603049D01*
X107592758Y-57603051D01*
X107195644Y-57810657D01*
X107195638Y-57810661D01*
X107193311Y-57811877D01*
X107191083Y-57813291D01*
X106812755Y-58053385D01*
X106812746Y-58053391D01*
X106810512Y-58054809D01*
X106808405Y-58056408D01*
X106808404Y-58056409D01*
X106456611Y-58323435D01*
X106449383Y-58328921D01*
X106112458Y-58632289D01*
X106110654Y-58634210D01*
X106110650Y-58634214D01*
X106044958Y-58704169D01*
X105802100Y-58962787D01*
X105520485Y-59318096D01*
X105398674Y-59501437D01*
X105301825Y-59647207D01*
X105269590Y-59695724D01*
X105051174Y-60093022D01*
X104866768Y-60507203D01*
X104717668Y-60935362D01*
X104717013Y-60937913D01*
X104717010Y-60937923D01*
X104622683Y-61305300D01*
X104604917Y-61374495D01*
X104529308Y-61821524D01*
X104507038Y-62086723D01*
X104495040Y-62229612D01*
X104491370Y-62273311D01*
X104491370Y-62726689D01*
X103308500Y-62726689D01*
X103308500Y-60708623D01*
X103308502Y-60707853D01*
X103308800Y-60659102D01*
X103308976Y-60630279D01*
X103300850Y-60601847D01*
X103297272Y-60585085D01*
X103294352Y-60564698D01*
X103293080Y-60555813D01*
X103282451Y-60532436D01*
X103276004Y-60514913D01*
X103273800Y-60507203D01*
X103268949Y-60490229D01*
X103264156Y-60482632D01*
X103253170Y-60465220D01*
X103245030Y-60450135D01*
X103242564Y-60444711D01*
X103232792Y-60423218D01*
X103216030Y-60403765D01*
X103204927Y-60388761D01*
X103191224Y-60367042D01*
X103184499Y-60361103D01*
X103184496Y-60361099D01*
X103169062Y-60347468D01*
X103157018Y-60335276D01*
X103143573Y-60319673D01*
X103143570Y-60319671D01*
X103137713Y-60312873D01*
X103124009Y-60303990D01*
X103116165Y-60298906D01*
X103101291Y-60287615D01*
X103088783Y-60276569D01*
X103088782Y-60276568D01*
X103082049Y-60270622D01*
X103055287Y-60258057D01*
X103040309Y-60249737D01*
X103023017Y-60238529D01*
X103023012Y-60238527D01*
X103015485Y-60233648D01*
X103006892Y-60231078D01*
X103006887Y-60231076D01*
X102990880Y-60226289D01*
X102973436Y-60219628D01*
X102958324Y-60212533D01*
X102958322Y-60212532D01*
X102950200Y-60208719D01*
X102941333Y-60207338D01*
X102941332Y-60207338D01*
X102930478Y-60205648D01*
X102920983Y-60204170D01*
X102904268Y-60200387D01*
X102884534Y-60194485D01*
X102884528Y-60194484D01*
X102875934Y-60191914D01*
X102866963Y-60191859D01*
X102866962Y-60191859D01*
X102856903Y-60191798D01*
X102841494Y-60191704D01*
X102840711Y-60191671D01*
X102839614Y-60191500D01*
X102808623Y-60191500D01*
X102807853Y-60191498D01*
X102734215Y-60191048D01*
X102734214Y-60191048D01*
X102730279Y-60191024D01*
X102728935Y-60191408D01*
X102727590Y-60191500D01*
X100908623Y-60191500D01*
X100907853Y-60191498D01*
X100907037Y-60191493D01*
X100830279Y-60191024D01*
X100807918Y-60197415D01*
X100801847Y-60199150D01*
X100785085Y-60202728D01*
X100755813Y-60206920D01*
X100747645Y-60210634D01*
X100747644Y-60210634D01*
X100732438Y-60217548D01*
X100714914Y-60223996D01*
X100690229Y-60231051D01*
X100682635Y-60235843D01*
X100682632Y-60235844D01*
X100665220Y-60246830D01*
X100650137Y-60254969D01*
X100623218Y-60267208D01*
X100616416Y-60273069D01*
X100603765Y-60283970D01*
X100588761Y-60295073D01*
X100567042Y-60308776D01*
X100561103Y-60315501D01*
X100561099Y-60315504D01*
X100547468Y-60330938D01*
X100535276Y-60342982D01*
X100519673Y-60356427D01*
X100519671Y-60356430D01*
X100512873Y-60362287D01*
X100507993Y-60369816D01*
X100507992Y-60369817D01*
X100498906Y-60383835D01*
X100487615Y-60398709D01*
X100476569Y-60411217D01*
X100470622Y-60417951D01*
X100464312Y-60431391D01*
X100458058Y-60444711D01*
X100449737Y-60459691D01*
X100438529Y-60476983D01*
X100438527Y-60476988D01*
X100433648Y-60484515D01*
X100431078Y-60493108D01*
X100431076Y-60493113D01*
X100426289Y-60509120D01*
X100419628Y-60526564D01*
X100412533Y-60541676D01*
X100408719Y-60549800D01*
X100407338Y-60558667D01*
X100407338Y-60558668D01*
X100404170Y-60579015D01*
X100400387Y-60595732D01*
X100394485Y-60615466D01*
X100394484Y-60615472D01*
X100391914Y-60624066D01*
X100391859Y-60633037D01*
X100391859Y-60633038D01*
X100391704Y-60658497D01*
X100391671Y-60659289D01*
X100391500Y-60660386D01*
X100391500Y-60691377D01*
X100391498Y-60692147D01*
X100391119Y-60754250D01*
X100391024Y-60769721D01*
X100391408Y-60771065D01*
X100391500Y-60772410D01*
X100391500Y-64291377D01*
X100391498Y-64292147D01*
X100391024Y-64369721D01*
X95471492Y-64369721D01*
X95532804Y-64308623D01*
X95578096Y-64263489D01*
X95599132Y-64234215D01*
X95705435Y-64086277D01*
X95708453Y-64082077D01*
X95721995Y-64054678D01*
X95805136Y-63886453D01*
X95805137Y-63886451D01*
X95807430Y-63881811D01*
X95872370Y-63668069D01*
X95901529Y-63446590D01*
X95901905Y-63431206D01*
X95903074Y-63383365D01*
X95903074Y-63383361D01*
X95903156Y-63380000D01*
X95884852Y-63157361D01*
X95830431Y-62940702D01*
X95741354Y-62735840D01*
X95620014Y-62548277D01*
X95469670Y-62383051D01*
X95465619Y-62379852D01*
X95465615Y-62379848D01*
X95298414Y-62247800D01*
X95298410Y-62247798D01*
X95294359Y-62244598D01*
X95258028Y-62224542D01*
X95172064Y-62177088D01*
X95098789Y-62136638D01*
X95093920Y-62134914D01*
X95093916Y-62134912D01*
X94893087Y-62063795D01*
X94893083Y-62063794D01*
X94888212Y-62062069D01*
X94883119Y-62061162D01*
X94883116Y-62061161D01*
X94673373Y-62023800D01*
X94673367Y-62023799D01*
X94668284Y-62022894D01*
X94594452Y-62021992D01*
X94450081Y-62020228D01*
X94450079Y-62020228D01*
X94444911Y-62020165D01*
X94224091Y-62053955D01*
X94011756Y-62123357D01*
X93933455Y-62164118D01*
X93826065Y-62220022D01*
X93813607Y-62226507D01*
X93809474Y-62229610D01*
X93809471Y-62229612D01*
X93747768Y-62275940D01*
X93634965Y-62360635D01*
X93631393Y-62364373D01*
X93501785Y-62500000D01*
X93480629Y-62522138D01*
X93477715Y-62526410D01*
X93477714Y-62526411D01*
X93372898Y-62680066D01*
X93317987Y-62725069D01*
X93247462Y-62733240D01*
X93183715Y-62701986D01*
X93163018Y-62677502D01*
X93082426Y-62552926D01*
X93076136Y-62544757D01*
X92932806Y-62387240D01*
X92925273Y-62380215D01*
X92758139Y-62248222D01*
X92749552Y-62242517D01*
X92563117Y-62139599D01*
X92553705Y-62135369D01*
X92352959Y-62064280D01*
X92342988Y-62061646D01*
X92271837Y-62048972D01*
X92258540Y-62050432D01*
X92254000Y-62064989D01*
X92254000Y-63508000D01*
X92233998Y-63576121D01*
X92180342Y-63622614D01*
X92128000Y-63634000D01*
X90683225Y-63634000D01*
X90669694Y-63637973D01*
X90668257Y-63647966D01*
X90698565Y-63782446D01*
X90701645Y-63792275D01*
X90781770Y-63989603D01*
X90786413Y-63998794D01*
X90897694Y-64180388D01*
X90903777Y-64188699D01*
X91043213Y-64349667D01*
X91050580Y-64356883D01*
X91214434Y-64492916D01*
X91222881Y-64498831D01*
X91291969Y-64539203D01*
X91340693Y-64590842D01*
X91353764Y-64660625D01*
X91327033Y-64726396D01*
X91286584Y-64759752D01*
X91273607Y-64766507D01*
X91269474Y-64769610D01*
X91269471Y-64769612D01*
X91099100Y-64897530D01*
X91094965Y-64900635D01*
X90940629Y-65062138D01*
X90937720Y-65066403D01*
X90937714Y-65066411D01*
X90911019Y-65105544D01*
X90814743Y-65246680D01*
X90720688Y-65449305D01*
X90660989Y-65664570D01*
X90637251Y-65886695D01*
X90637548Y-65891848D01*
X90637548Y-65891851D01*
X90649362Y-66096742D01*
X90650110Y-66109715D01*
X90651247Y-66114761D01*
X90651248Y-66114767D01*
X90667891Y-66188614D01*
X90699222Y-66327639D01*
X90737461Y-66421811D01*
X90779106Y-66524370D01*
X90783266Y-66534616D01*
X90834019Y-66617438D01*
X90897291Y-66720688D01*
X90899987Y-66725088D01*
X91046250Y-66893938D01*
X91218126Y-67036632D01*
X91278629Y-67071987D01*
X91291445Y-67079476D01*
X91340169Y-67131114D01*
X91353240Y-67200897D01*
X91326509Y-67266669D01*
X91286055Y-67300027D01*
X91273607Y-67306507D01*
X91269474Y-67309610D01*
X91269471Y-67309612D01*
X91099100Y-67437530D01*
X91094965Y-67440635D01*
X90940629Y-67602138D01*
X90814743Y-67786680D01*
X90782761Y-67855579D01*
X90756509Y-67912136D01*
X90720688Y-67989305D01*
X90660989Y-68204570D01*
X90637251Y-68426695D01*
X90637548Y-68431848D01*
X90637548Y-68431851D01*
X90649812Y-68644547D01*
X90650110Y-68649715D01*
X90651247Y-68654761D01*
X90651248Y-68654767D01*
X90664338Y-68712848D01*
X90699222Y-68867639D01*
X90783266Y-69074616D01*
X90833144Y-69156010D01*
X90897291Y-69260688D01*
X90899987Y-69265088D01*
X91046250Y-69433938D01*
X91050230Y-69437242D01*
X91054981Y-69441187D01*
X91094616Y-69500090D01*
X91096113Y-69571071D01*
X91058997Y-69631593D01*
X91018725Y-69656112D01*
X90930095Y-69689338D01*
X90903295Y-69699385D01*
X90786739Y-69786739D01*
X90699385Y-69903295D01*
X90648255Y-70039684D01*
X90641500Y-70101866D01*
X90641500Y-71898134D01*
X90648255Y-71960316D01*
X90699385Y-72096705D01*
X90786739Y-72213261D01*
X90903295Y-72300615D01*
X91039684Y-72351745D01*
X91101866Y-72358500D01*
X92474926Y-72358500D01*
X92543047Y-72378502D01*
X92564021Y-72395405D01*
X92805263Y-72636647D01*
X92839289Y-72698959D01*
X92834224Y-72769774D01*
X92791677Y-72826610D01*
X92743331Y-72848779D01*
X92730128Y-72851694D01*
X92604020Y-72899472D01*
X92482182Y-72945632D01*
X92482179Y-72945633D01*
X92477912Y-72947250D01*
X92429389Y-72974202D01*
X92267069Y-73064363D01*
X92242132Y-73078214D01*
X92199069Y-73111079D01*
X92039553Y-73232818D01*
X92027727Y-73241843D01*
X92024534Y-73245109D01*
X92024532Y-73245111D01*
X91998662Y-73271575D01*
X91839188Y-73434708D01*
X91680466Y-73652770D01*
X91678344Y-73656804D01*
X91557010Y-73887421D01*
X91557007Y-73887427D01*
X91554885Y-73891461D01*
X91553365Y-73895766D01*
X91553363Y-73895770D01*
X91484196Y-74091635D01*
X91465075Y-74145780D01*
X91464192Y-74150262D01*
X91419266Y-74378199D01*
X91412919Y-74410400D01*
X91412692Y-74414953D01*
X91412692Y-74414956D01*
X91400878Y-74652279D01*
X91399509Y-74679777D01*
X91425125Y-74948269D01*
X91426210Y-74952703D01*
X91426211Y-74952709D01*
X91472312Y-75141109D01*
X91489231Y-75210250D01*
X91590485Y-75460233D01*
X91726765Y-75692982D01*
X91729618Y-75696549D01*
X91847186Y-75843560D01*
X91895216Y-75903619D01*
X92092309Y-76087734D01*
X92313916Y-76241468D01*
X92317999Y-76243499D01*
X92318002Y-76243501D01*
X92374046Y-76271382D01*
X92555394Y-76361601D01*
X92559728Y-76363022D01*
X92559731Y-76363023D01*
X92807353Y-76444198D01*
X92807359Y-76444199D01*
X92811686Y-76445618D01*
X92816177Y-76446398D01*
X92816178Y-76446398D01*
X93073640Y-76491101D01*
X93073648Y-76491102D01*
X93077421Y-76491757D01*
X93081258Y-76491948D01*
X93161078Y-76495922D01*
X93161086Y-76495922D01*
X93162649Y-76496000D01*
X93331012Y-76496000D01*
X93333280Y-76495835D01*
X93333292Y-76495835D01*
X93464384Y-76486323D01*
X93531504Y-76481453D01*
X93535959Y-76480469D01*
X93535962Y-76480469D01*
X93790412Y-76424291D01*
X93790416Y-76424290D01*
X93794872Y-76423306D01*
X93949829Y-76364598D01*
X94042818Y-76329368D01*
X94042821Y-76329367D01*
X94047088Y-76327750D01*
X94282868Y-76196786D01*
X94497273Y-76033157D01*
X94685812Y-75840292D01*
X94844534Y-75622230D01*
X94927690Y-75464176D01*
X94967990Y-75387579D01*
X94967993Y-75387573D01*
X94970115Y-75383539D01*
X95032878Y-75205812D01*
X95055454Y-75141881D01*
X95096997Y-75084308D01*
X95163073Y-75058335D01*
X95232701Y-75072208D01*
X95263358Y-75094742D01*
X99445021Y-79276405D01*
X99479047Y-79338717D01*
X99473982Y-79409532D01*
X99431435Y-79466368D01*
X99364915Y-79491179D01*
X99355926Y-79491500D01*
X67382868Y-79491500D01*
X67314747Y-79471498D01*
X67268254Y-79417842D01*
X67258150Y-79347568D01*
X67287644Y-79282988D01*
X67303566Y-79267587D01*
X67412511Y-79179365D01*
X67679365Y-78912511D01*
X67916863Y-78619225D01*
X68120606Y-78305489D01*
X68120607Y-78305487D01*
X68122403Y-78302721D01*
X68123903Y-78299779D01*
X68292236Y-77969405D01*
X68293734Y-77966465D01*
X68428978Y-77614143D01*
X68526653Y-77249613D01*
X68580452Y-76909944D01*
X68585176Y-76880119D01*
X68585177Y-76880111D01*
X68585690Y-76876871D01*
X68605441Y-76500000D01*
X68585690Y-76123129D01*
X68580497Y-76090338D01*
X68541410Y-75843560D01*
X68526653Y-75750387D01*
X68428978Y-75385857D01*
X68293734Y-75033535D01*
X68255119Y-74957749D01*
X68123902Y-74700221D01*
X68123898Y-74700214D01*
X68122403Y-74697280D01*
X68111037Y-74679777D01*
X67918665Y-74383550D01*
X67916863Y-74380775D01*
X67679365Y-74087489D01*
X67412511Y-73820635D01*
X67119225Y-73583137D01*
X66977053Y-73490810D01*
X66805489Y-73379395D01*
X66805486Y-73379393D01*
X66802720Y-73377597D01*
X66799786Y-73376102D01*
X66799779Y-73376098D01*
X66469405Y-73207764D01*
X66466465Y-73206266D01*
X66114143Y-73071022D01*
X65749613Y-72973347D01*
X65551647Y-72941992D01*
X65380119Y-72914824D01*
X65380111Y-72914823D01*
X65376871Y-72914310D01*
X65094280Y-72899500D01*
X64905720Y-72899500D01*
X64623129Y-72914310D01*
X64619889Y-72914823D01*
X64619881Y-72914824D01*
X64448353Y-72941992D01*
X64250387Y-72973347D01*
X63885857Y-73071022D01*
X63533535Y-73206266D01*
X63530595Y-73207764D01*
X63200221Y-73376098D01*
X63200214Y-73376102D01*
X63197280Y-73377597D01*
X63194514Y-73379393D01*
X63194511Y-73379395D01*
X63022947Y-73490810D01*
X62880775Y-73583137D01*
X62587489Y-73820635D01*
X62320635Y-74087489D01*
X62083137Y-74380775D01*
X62028487Y-74464928D01*
X61879395Y-74694510D01*
X61879393Y-74694513D01*
X61877597Y-74697279D01*
X61876102Y-74700213D01*
X61876098Y-74700220D01*
X61749711Y-74948269D01*
X61706266Y-75033535D01*
X61571022Y-75385857D01*
X61473347Y-75750387D01*
X61458590Y-75843560D01*
X61419504Y-76090338D01*
X61414310Y-76123129D01*
X61394559Y-76500000D01*
X61414310Y-76876871D01*
X61414823Y-76880111D01*
X61414824Y-76880119D01*
X61419548Y-76909944D01*
X61473347Y-77249613D01*
X61571022Y-77614143D01*
X61706266Y-77966465D01*
X61707764Y-77969405D01*
X61828457Y-78206277D01*
X61877597Y-78302720D01*
X62083137Y-78619225D01*
X62320635Y-78912511D01*
X62587489Y-79179365D01*
X62696428Y-79267582D01*
X62736778Y-79325994D01*
X62739144Y-79396951D01*
X62702771Y-79457923D01*
X62639209Y-79489551D01*
X62617132Y-79491500D01*
X55634500Y-79491500D01*
X55566379Y-79471498D01*
X55519886Y-79417842D01*
X55508500Y-79365500D01*
X55508500Y-74679777D01*
X56999509Y-74679777D01*
X57025125Y-74948269D01*
X57026210Y-74952703D01*
X57026211Y-74952709D01*
X57072312Y-75141109D01*
X57089231Y-75210250D01*
X57190485Y-75460233D01*
X57326765Y-75692982D01*
X57329618Y-75696549D01*
X57447186Y-75843560D01*
X57495216Y-75903619D01*
X57692309Y-76087734D01*
X57913916Y-76241468D01*
X57917999Y-76243499D01*
X57918002Y-76243501D01*
X57974046Y-76271382D01*
X58155394Y-76361601D01*
X58159728Y-76363022D01*
X58159731Y-76363023D01*
X58407353Y-76444198D01*
X58407359Y-76444199D01*
X58411686Y-76445618D01*
X58416177Y-76446398D01*
X58416178Y-76446398D01*
X58673640Y-76491101D01*
X58673648Y-76491102D01*
X58677421Y-76491757D01*
X58681258Y-76491948D01*
X58761078Y-76495922D01*
X58761086Y-76495922D01*
X58762649Y-76496000D01*
X58931012Y-76496000D01*
X58933280Y-76495835D01*
X58933292Y-76495835D01*
X59064384Y-76486323D01*
X59131504Y-76481453D01*
X59135959Y-76480469D01*
X59135962Y-76480469D01*
X59390412Y-76424291D01*
X59390416Y-76424290D01*
X59394872Y-76423306D01*
X59549829Y-76364598D01*
X59642818Y-76329368D01*
X59642821Y-76329367D01*
X59647088Y-76327750D01*
X59882868Y-76196786D01*
X60097273Y-76033157D01*
X60285812Y-75840292D01*
X60444534Y-75622230D01*
X60527690Y-75464176D01*
X60567990Y-75387579D01*
X60567993Y-75387573D01*
X60570115Y-75383539D01*
X60632878Y-75205812D01*
X60658402Y-75133533D01*
X60658402Y-75133532D01*
X60659925Y-75129220D01*
X60712081Y-74864600D01*
X60714458Y-74816852D01*
X60725264Y-74599792D01*
X60725264Y-74599786D01*
X60725491Y-74595223D01*
X60699875Y-74326731D01*
X60685611Y-74268435D01*
X60636855Y-74069188D01*
X60635769Y-74064750D01*
X60534515Y-73814767D01*
X60398235Y-73582018D01*
X60280428Y-73434708D01*
X60232636Y-73374947D01*
X60232635Y-73374945D01*
X60229784Y-73371381D01*
X60032691Y-73187266D01*
X59811084Y-73033532D01*
X59807001Y-73031501D01*
X59806998Y-73031499D01*
X59642106Y-72949467D01*
X59569606Y-72913399D01*
X59565272Y-72911978D01*
X59565269Y-72911977D01*
X59317647Y-72830802D01*
X59317641Y-72830801D01*
X59313314Y-72829382D01*
X59297349Y-72826610D01*
X59051360Y-72783899D01*
X59051352Y-72783898D01*
X59047579Y-72783243D01*
X59036317Y-72782682D01*
X58963922Y-72779078D01*
X58963914Y-72779078D01*
X58962351Y-72779000D01*
X58793988Y-72779000D01*
X58791720Y-72779165D01*
X58791708Y-72779165D01*
X58660616Y-72788677D01*
X58593496Y-72793547D01*
X58589041Y-72794531D01*
X58589038Y-72794531D01*
X58334588Y-72850709D01*
X58334584Y-72850710D01*
X58330128Y-72851694D01*
X58204020Y-72899472D01*
X58082182Y-72945632D01*
X58082179Y-72945633D01*
X58077912Y-72947250D01*
X58029389Y-72974202D01*
X57867069Y-73064363D01*
X57842132Y-73078214D01*
X57799069Y-73111079D01*
X57639553Y-73232818D01*
X57627727Y-73241843D01*
X57624534Y-73245109D01*
X57624532Y-73245111D01*
X57598662Y-73271575D01*
X57439188Y-73434708D01*
X57280466Y-73652770D01*
X57278344Y-73656804D01*
X57157010Y-73887421D01*
X57157007Y-73887427D01*
X57154885Y-73891461D01*
X57153365Y-73895766D01*
X57153363Y-73895770D01*
X57084196Y-74091635D01*
X57065075Y-74145780D01*
X57064192Y-74150262D01*
X57019266Y-74378199D01*
X57012919Y-74410400D01*
X57012692Y-74414953D01*
X57012692Y-74414956D01*
X57000878Y-74652279D01*
X56999509Y-74679777D01*
X55508500Y-74679777D01*
X55508500Y-70952169D01*
X56404501Y-70952169D01*
X56404871Y-70958990D01*
X56410395Y-71009852D01*
X56414021Y-71025104D01*
X56459176Y-71145554D01*
X56467714Y-71161149D01*
X56544215Y-71263224D01*
X56556776Y-71275785D01*
X56658851Y-71352286D01*
X56674446Y-71360824D01*
X56794894Y-71405978D01*
X56810149Y-71409605D01*
X56861014Y-71415131D01*
X56867828Y-71415500D01*
X57490385Y-71415500D01*
X57505624Y-71411025D01*
X57506829Y-71409635D01*
X57508500Y-71401952D01*
X57508500Y-71397384D01*
X58016500Y-71397384D01*
X58020975Y-71412623D01*
X58022365Y-71413828D01*
X58030048Y-71415499D01*
X58657169Y-71415499D01*
X58663990Y-71415129D01*
X58714852Y-71409605D01*
X58730104Y-71405979D01*
X58850554Y-71360824D01*
X58866149Y-71352286D01*
X58968224Y-71275785D01*
X58980785Y-71263224D01*
X59057286Y-71161149D01*
X59065824Y-71145554D01*
X59110978Y-71025106D01*
X59114605Y-71009851D01*
X59120131Y-70958986D01*
X59120500Y-70952172D01*
X59120500Y-70329615D01*
X59116025Y-70314376D01*
X59114635Y-70313171D01*
X59106952Y-70311500D01*
X58034615Y-70311500D01*
X58019376Y-70315975D01*
X58018171Y-70317365D01*
X58016500Y-70325048D01*
X58016500Y-71397384D01*
X57508500Y-71397384D01*
X57508500Y-70329615D01*
X57504025Y-70314376D01*
X57502635Y-70313171D01*
X57494952Y-70311500D01*
X56422616Y-70311500D01*
X56407377Y-70315975D01*
X56406172Y-70317365D01*
X56404501Y-70325048D01*
X56404501Y-70952169D01*
X55508500Y-70952169D01*
X55508500Y-67484195D01*
X56399751Y-67484195D01*
X56400048Y-67489348D01*
X56400048Y-67489351D01*
X56408309Y-67632617D01*
X56412610Y-67707215D01*
X56413747Y-67712261D01*
X56413748Y-67712267D01*
X56433619Y-67800439D01*
X56461722Y-67925139D01*
X56545766Y-68132116D01*
X56662487Y-68322588D01*
X56808750Y-68491438D01*
X56812725Y-68494738D01*
X56812731Y-68494744D01*
X56817925Y-68499056D01*
X56857559Y-68557960D01*
X56859055Y-68628941D01*
X56821939Y-68689462D01*
X56781668Y-68713980D01*
X56674446Y-68754176D01*
X56658851Y-68762714D01*
X56556776Y-68839215D01*
X56544215Y-68851776D01*
X56467714Y-68953851D01*
X56459176Y-68969446D01*
X56414022Y-69089894D01*
X56410395Y-69105149D01*
X56404869Y-69156014D01*
X56404500Y-69162828D01*
X56404500Y-69785385D01*
X56408975Y-69800624D01*
X56410365Y-69801829D01*
X56418048Y-69803500D01*
X59102384Y-69803500D01*
X59117623Y-69799025D01*
X59118828Y-69797635D01*
X59120499Y-69789952D01*
X59120499Y-69162831D01*
X59120129Y-69156010D01*
X59114605Y-69105148D01*
X59110979Y-69089896D01*
X59065824Y-68969446D01*
X59057286Y-68953851D01*
X58980785Y-68851776D01*
X58968224Y-68839215D01*
X58866149Y-68762714D01*
X58850554Y-68754176D01*
X58740313Y-68712848D01*
X58683549Y-68670206D01*
X58658849Y-68603645D01*
X58674057Y-68534296D01*
X58695604Y-68505615D01*
X58796930Y-68404644D01*
X58796940Y-68404632D01*
X58800596Y-68400989D01*
X58860094Y-68318189D01*
X58927935Y-68223777D01*
X58930953Y-68219577D01*
X59026763Y-68025720D01*
X59027636Y-68023953D01*
X59027637Y-68023951D01*
X59029930Y-68019311D01*
X59065444Y-67902420D01*
X59093365Y-67810523D01*
X59093365Y-67810521D01*
X59094870Y-67805569D01*
X59124029Y-67584090D01*
X59125656Y-67517500D01*
X59107352Y-67294861D01*
X59052931Y-67078202D01*
X58963854Y-66873340D01*
X58871285Y-66730250D01*
X58845322Y-66690117D01*
X58845320Y-66690114D01*
X58842514Y-66685777D01*
X58692170Y-66520551D01*
X58688119Y-66517352D01*
X58688115Y-66517348D01*
X58520914Y-66385300D01*
X58520910Y-66385298D01*
X58516859Y-66382098D01*
X58475553Y-66359296D01*
X58425584Y-66308864D01*
X58410812Y-66239421D01*
X58435928Y-66173016D01*
X58463280Y-66146409D01*
X58521968Y-66104547D01*
X58642360Y-66018673D01*
X58800596Y-65860989D01*
X58804275Y-65855870D01*
X58927935Y-65683777D01*
X58930953Y-65679577D01*
X58937936Y-65665449D01*
X59027636Y-65483953D01*
X59027637Y-65483951D01*
X59029930Y-65479311D01*
X59083809Y-65301976D01*
X59093365Y-65270523D01*
X59093365Y-65270521D01*
X59094870Y-65265569D01*
X59124029Y-65044090D01*
X59125656Y-64977500D01*
X59107352Y-64754861D01*
X59052931Y-64538202D01*
X58963854Y-64333340D01*
X58907542Y-64246295D01*
X58845322Y-64150117D01*
X58845320Y-64150114D01*
X58842514Y-64145777D01*
X58692170Y-63980551D01*
X58688119Y-63977352D01*
X58688115Y-63977348D01*
X58520914Y-63845300D01*
X58520910Y-63845298D01*
X58516859Y-63842098D01*
X58475553Y-63819296D01*
X58425584Y-63768864D01*
X58410812Y-63699421D01*
X58435928Y-63633016D01*
X58463280Y-63606409D01*
X58514723Y-63569715D01*
X58642360Y-63478673D01*
X58666283Y-63454834D01*
X58796935Y-63324637D01*
X58800596Y-63320989D01*
X58860094Y-63238189D01*
X58927935Y-63143777D01*
X58930953Y-63139577D01*
X58943504Y-63114183D01*
X90664389Y-63114183D01*
X90665912Y-63122607D01*
X90678292Y-63126000D01*
X91727885Y-63126000D01*
X91743124Y-63121525D01*
X91744329Y-63120135D01*
X91746000Y-63112452D01*
X91746000Y-62063102D01*
X91742082Y-62049758D01*
X91727806Y-62047771D01*
X91689324Y-62053660D01*
X91679288Y-62056051D01*
X91476868Y-62122212D01*
X91467359Y-62126209D01*
X91278463Y-62224542D01*
X91269738Y-62230036D01*
X91099433Y-62357905D01*
X91091726Y-62364748D01*
X90944590Y-62518717D01*
X90938104Y-62526727D01*
X90818098Y-62702649D01*
X90813000Y-62711623D01*
X90723338Y-62904783D01*
X90719775Y-62914470D01*
X90664389Y-63114183D01*
X58943504Y-63114183D01*
X59027636Y-62943953D01*
X59027637Y-62943951D01*
X59029930Y-62939311D01*
X59090306Y-62740590D01*
X59093365Y-62730523D01*
X59093365Y-62730521D01*
X59094870Y-62725569D01*
X59124029Y-62504090D01*
X59125656Y-62437500D01*
X59107352Y-62214861D01*
X59052931Y-61998202D01*
X58963854Y-61793340D01*
X58842514Y-61605777D01*
X58692170Y-61440551D01*
X58688119Y-61437352D01*
X58688115Y-61437348D01*
X58520914Y-61305300D01*
X58520910Y-61305298D01*
X58516859Y-61302098D01*
X58475553Y-61279296D01*
X58425584Y-61228864D01*
X58410812Y-61159421D01*
X58435928Y-61093016D01*
X58463280Y-61066409D01*
X58507103Y-61035150D01*
X58642360Y-60938673D01*
X58648189Y-60932865D01*
X58796935Y-60784637D01*
X58800596Y-60780989D01*
X58807497Y-60771386D01*
X58927935Y-60603777D01*
X58930953Y-60599577D01*
X58938116Y-60585085D01*
X59027636Y-60403953D01*
X59027637Y-60403951D01*
X59029930Y-60399311D01*
X59076257Y-60246830D01*
X59093365Y-60190523D01*
X59093365Y-60190521D01*
X59094870Y-60185569D01*
X59124029Y-59964090D01*
X59125656Y-59897500D01*
X59107352Y-59674861D01*
X59052931Y-59458202D01*
X58963854Y-59253340D01*
X58873031Y-59112949D01*
X58845322Y-59070117D01*
X58845320Y-59070114D01*
X58842514Y-59065777D01*
X58692170Y-58900551D01*
X58688119Y-58897352D01*
X58688115Y-58897348D01*
X58520914Y-58765300D01*
X58520910Y-58765298D01*
X58516859Y-58762098D01*
X58475553Y-58739296D01*
X58425584Y-58688864D01*
X58410812Y-58619421D01*
X58435928Y-58553016D01*
X58463280Y-58526409D01*
X58532442Y-58477076D01*
X58642360Y-58398673D01*
X58715026Y-58326261D01*
X58796935Y-58244637D01*
X58800596Y-58240989D01*
X58860094Y-58158189D01*
X58927935Y-58063777D01*
X58930953Y-58059577D01*
X58933310Y-58054809D01*
X59027636Y-57863953D01*
X59027637Y-57863951D01*
X59029930Y-57859311D01*
X59077870Y-57701522D01*
X59093365Y-57650523D01*
X59093365Y-57650521D01*
X59094870Y-57645569D01*
X59124029Y-57424090D01*
X59125656Y-57357500D01*
X59107352Y-57134861D01*
X59052931Y-56918202D01*
X58963854Y-56713340D01*
X58842514Y-56525777D01*
X58692170Y-56360551D01*
X58688119Y-56357352D01*
X58688115Y-56357348D01*
X58520914Y-56225300D01*
X58520910Y-56225298D01*
X58516859Y-56222098D01*
X58475553Y-56199296D01*
X58425584Y-56148864D01*
X58410812Y-56079421D01*
X58435928Y-56013016D01*
X58463280Y-55986409D01*
X58507103Y-55955150D01*
X58642360Y-55858673D01*
X58800596Y-55700989D01*
X58854449Y-55626045D01*
X58927935Y-55523777D01*
X58930953Y-55519577D01*
X58973302Y-55433891D01*
X59027636Y-55323953D01*
X59027637Y-55323951D01*
X59029930Y-55319311D01*
X59094870Y-55105569D01*
X59124029Y-54884090D01*
X59125656Y-54817500D01*
X59107352Y-54594861D01*
X59052931Y-54378202D01*
X58963854Y-54173340D01*
X58842514Y-53985777D01*
X58692170Y-53820551D01*
X58688119Y-53817352D01*
X58688115Y-53817348D01*
X58520914Y-53685300D01*
X58520910Y-53685298D01*
X58516859Y-53682098D01*
X58511005Y-53678866D01*
X58464636Y-53653269D01*
X58321289Y-53574138D01*
X58316420Y-53572414D01*
X58316416Y-53572412D01*
X58115587Y-53501295D01*
X58115583Y-53501294D01*
X58110712Y-53499569D01*
X58105619Y-53498662D01*
X58105616Y-53498661D01*
X57895873Y-53461300D01*
X57895867Y-53461299D01*
X57890784Y-53460394D01*
X57816952Y-53459492D01*
X57672581Y-53457728D01*
X57672579Y-53457728D01*
X57667411Y-53457665D01*
X57446591Y-53491455D01*
X57234256Y-53560857D01*
X57036107Y-53664007D01*
X57031974Y-53667110D01*
X57031971Y-53667112D01*
X56861600Y-53795030D01*
X56857465Y-53798135D01*
X56703129Y-53959638D01*
X56577243Y-54144180D01*
X56483188Y-54346805D01*
X56423489Y-54562070D01*
X56399751Y-54784195D01*
X56400048Y-54789348D01*
X56400048Y-54789351D01*
X56405511Y-54884090D01*
X56412610Y-55007215D01*
X56413747Y-55012261D01*
X56413748Y-55012267D01*
X56433619Y-55100439D01*
X56461722Y-55225139D01*
X56545766Y-55432116D01*
X56662487Y-55622588D01*
X56808750Y-55791438D01*
X56980626Y-55934132D01*
X57051095Y-55975311D01*
X57053945Y-55976976D01*
X57102669Y-56028614D01*
X57115740Y-56098397D01*
X57089009Y-56164169D01*
X57048555Y-56197527D01*
X57036107Y-56204007D01*
X57031974Y-56207110D01*
X57031971Y-56207112D01*
X56908256Y-56300000D01*
X56857465Y-56338135D01*
X56703129Y-56499638D01*
X56577243Y-56684180D01*
X56561503Y-56718090D01*
X56506333Y-56836944D01*
X56483188Y-56886805D01*
X56423489Y-57102070D01*
X56399751Y-57324195D01*
X56400048Y-57329348D01*
X56400048Y-57329351D01*
X56412312Y-57542047D01*
X56412610Y-57547215D01*
X56413747Y-57552261D01*
X56413748Y-57552267D01*
X56424918Y-57601829D01*
X56461722Y-57765139D01*
X56499961Y-57859311D01*
X56534258Y-57943774D01*
X56545766Y-57972116D01*
X56555900Y-57988653D01*
X56626244Y-58103444D01*
X56662487Y-58162588D01*
X56808750Y-58331438D01*
X56980626Y-58474132D01*
X57023311Y-58499075D01*
X57053945Y-58516976D01*
X57102669Y-58568614D01*
X57115740Y-58638397D01*
X57089009Y-58704169D01*
X57048555Y-58737527D01*
X57036107Y-58744007D01*
X57031974Y-58747110D01*
X57031971Y-58747112D01*
X56861600Y-58875030D01*
X56857465Y-58878135D01*
X56703129Y-59039638D01*
X56700215Y-59043910D01*
X56700214Y-59043911D01*
X56634914Y-59139638D01*
X56577243Y-59224180D01*
X56533649Y-59318096D01*
X56498072Y-59394741D01*
X56483188Y-59426805D01*
X56423489Y-59642070D01*
X56399751Y-59864195D01*
X56400048Y-59869348D01*
X56400048Y-59869351D01*
X56405511Y-59964090D01*
X56412610Y-60087215D01*
X56413747Y-60092261D01*
X56413748Y-60092267D01*
X56436112Y-60191500D01*
X56461722Y-60305139D01*
X56545766Y-60512116D01*
X56574293Y-60558668D01*
X56656089Y-60692147D01*
X56662487Y-60702588D01*
X56808750Y-60871438D01*
X56980626Y-61014132D01*
X57029787Y-61042859D01*
X57053945Y-61056976D01*
X57102669Y-61108614D01*
X57115740Y-61178397D01*
X57089009Y-61244169D01*
X57048555Y-61277527D01*
X57036107Y-61284007D01*
X57031974Y-61287110D01*
X57031971Y-61287112D01*
X57007747Y-61305300D01*
X56857465Y-61418135D01*
X56703129Y-61579638D01*
X56577243Y-61764180D01*
X56543033Y-61837879D01*
X56491175Y-61949599D01*
X56483188Y-61966805D01*
X56423489Y-62182070D01*
X56399751Y-62404195D01*
X56400048Y-62409348D01*
X56400048Y-62409351D01*
X56410624Y-62592764D01*
X56412610Y-62627215D01*
X56413747Y-62632261D01*
X56413748Y-62632267D01*
X56429610Y-62702649D01*
X56461722Y-62845139D01*
X56545766Y-63052116D01*
X56662487Y-63242588D01*
X56808750Y-63411438D01*
X56980626Y-63554132D01*
X57018256Y-63576121D01*
X57053945Y-63596976D01*
X57102669Y-63648614D01*
X57115740Y-63718397D01*
X57089009Y-63784169D01*
X57048555Y-63817527D01*
X57036107Y-63824007D01*
X57031974Y-63827110D01*
X57031971Y-63827112D01*
X56861600Y-63955030D01*
X56857465Y-63958135D01*
X56822603Y-63994616D01*
X56735010Y-64086277D01*
X56703129Y-64119638D01*
X56700215Y-64123910D01*
X56700214Y-64123911D01*
X56652869Y-64193316D01*
X56577243Y-64304180D01*
X56550986Y-64360746D01*
X56485819Y-64501138D01*
X56483188Y-64506805D01*
X56423489Y-64722070D01*
X56399751Y-64944195D01*
X56400048Y-64949348D01*
X56400048Y-64949351D01*
X56408309Y-65092617D01*
X56412610Y-65167215D01*
X56413747Y-65172261D01*
X56413748Y-65172267D01*
X56433152Y-65258365D01*
X56461722Y-65385139D01*
X56545766Y-65592116D01*
X56662487Y-65782588D01*
X56808750Y-65951438D01*
X56980626Y-66094132D01*
X57051095Y-66135311D01*
X57053945Y-66136976D01*
X57102669Y-66188614D01*
X57115740Y-66258397D01*
X57089009Y-66324169D01*
X57048555Y-66357527D01*
X57036107Y-66364007D01*
X57031974Y-66367110D01*
X57031971Y-66367112D01*
X56861600Y-66495030D01*
X56857465Y-66498135D01*
X56822603Y-66534616D01*
X56735010Y-66626277D01*
X56703129Y-66659638D01*
X56700215Y-66663910D01*
X56700214Y-66663911D01*
X56661483Y-66720689D01*
X56577243Y-66844180D01*
X56545432Y-66912711D01*
X56486142Y-67040442D01*
X56483188Y-67046805D01*
X56423489Y-67262070D01*
X56399751Y-67484195D01*
X55508500Y-67484195D01*
X55508500Y-50279777D01*
X56999509Y-50279777D01*
X57025125Y-50548269D01*
X57026210Y-50552703D01*
X57026211Y-50552709D01*
X57077144Y-50760856D01*
X57089231Y-50810250D01*
X57190485Y-51060233D01*
X57326765Y-51292982D01*
X57329618Y-51296549D01*
X57447186Y-51443560D01*
X57495216Y-51503619D01*
X57692309Y-51687734D01*
X57913916Y-51841468D01*
X57917999Y-51843499D01*
X57918002Y-51843501D01*
X58033513Y-51900966D01*
X58155394Y-51961601D01*
X58159728Y-51963022D01*
X58159731Y-51963023D01*
X58407353Y-52044198D01*
X58407359Y-52044199D01*
X58411686Y-52045618D01*
X58416177Y-52046398D01*
X58416178Y-52046398D01*
X58673640Y-52091101D01*
X58673648Y-52091102D01*
X58677421Y-52091757D01*
X58681258Y-52091948D01*
X58761078Y-52095922D01*
X58761086Y-52095922D01*
X58762649Y-52096000D01*
X58931012Y-52096000D01*
X58933280Y-52095835D01*
X58933292Y-52095835D01*
X59064384Y-52086323D01*
X59131504Y-52081453D01*
X59135959Y-52080469D01*
X59135962Y-52080469D01*
X59390412Y-52024291D01*
X59390416Y-52024290D01*
X59394872Y-52023306D01*
X59520980Y-51975528D01*
X59642818Y-51929368D01*
X59642821Y-51929367D01*
X59647088Y-51927750D01*
X59882868Y-51796786D01*
X60097273Y-51633157D01*
X60106321Y-51623902D01*
X60282617Y-51443560D01*
X60285812Y-51440292D01*
X60444534Y-51222230D01*
X60527690Y-51064176D01*
X60567990Y-50987579D01*
X60567993Y-50987573D01*
X60570115Y-50983539D01*
X60632878Y-50805812D01*
X60658402Y-50733533D01*
X60658402Y-50733532D01*
X60659925Y-50729220D01*
X60696487Y-50543717D01*
X60711200Y-50469072D01*
X60711201Y-50469066D01*
X60712081Y-50464600D01*
X60721282Y-50279777D01*
X60725264Y-50199792D01*
X60725264Y-50199786D01*
X60725491Y-50195223D01*
X60699875Y-49926731D01*
X60654542Y-49741467D01*
X60636855Y-49669188D01*
X60635769Y-49664750D01*
X60534515Y-49414767D01*
X60421234Y-49221297D01*
X60400545Y-49185963D01*
X60400544Y-49185962D01*
X60398235Y-49182018D01*
X60278923Y-49032826D01*
X60232636Y-48974947D01*
X60232635Y-48974945D01*
X60229784Y-48971381D01*
X60032691Y-48787266D01*
X59811084Y-48633532D01*
X59807001Y-48631501D01*
X59806998Y-48631499D01*
X59642106Y-48549467D01*
X59569606Y-48513399D01*
X59565272Y-48511978D01*
X59565269Y-48511977D01*
X59317647Y-48430802D01*
X59317641Y-48430801D01*
X59313314Y-48429382D01*
X59298714Y-48426847D01*
X59051360Y-48383899D01*
X59051352Y-48383898D01*
X59047579Y-48383243D01*
X59036317Y-48382682D01*
X58963922Y-48379078D01*
X58963914Y-48379078D01*
X58962351Y-48379000D01*
X58793988Y-48379000D01*
X58791720Y-48379165D01*
X58791708Y-48379165D01*
X58660616Y-48388677D01*
X58593496Y-48393547D01*
X58589041Y-48394531D01*
X58589038Y-48394531D01*
X58334588Y-48450709D01*
X58334584Y-48450710D01*
X58330128Y-48451694D01*
X58211339Y-48496699D01*
X58082182Y-48545632D01*
X58082179Y-48545633D01*
X58077912Y-48547250D01*
X57842132Y-48678214D01*
X57627727Y-48841843D01*
X57624534Y-48845109D01*
X57624532Y-48845111D01*
X57541943Y-48929595D01*
X57439188Y-49034708D01*
X57280466Y-49252770D01*
X57269485Y-49273642D01*
X57157010Y-49487421D01*
X57157007Y-49487427D01*
X57154885Y-49491461D01*
X57153365Y-49495766D01*
X57153363Y-49495770D01*
X57066598Y-49741467D01*
X57065075Y-49745780D01*
X57064192Y-49750262D01*
X57014765Y-50001036D01*
X57012919Y-50010400D01*
X57012692Y-50014953D01*
X57012692Y-50014956D01*
X56999976Y-50270405D01*
X56999509Y-50279777D01*
X55508500Y-50279777D01*
X55508500Y-45634500D01*
X55528502Y-45566379D01*
X55582158Y-45519886D01*
X55634500Y-45508500D01*
X62617132Y-45508500D01*
X62685253Y-45528502D01*
G37*
G04 #@! TD.AperFunction*
M02*
