G04 #@! TF.GenerationSoftware,KiCad,Pcbnew,(6.0.9)*
G04 #@! TF.CreationDate,2022-12-04T12:56:21+01:00*
G04 #@! TF.ProjectId,HeaterMCU,48656174-6572-44d4-9355-2e6b69636164,rev?*
G04 #@! TF.SameCoordinates,Original*
G04 #@! TF.FileFunction,Legend,Top*
G04 #@! TF.FilePolarity,Positive*
%FSLAX46Y46*%
G04 Gerber Fmt 4.6, Leading zero omitted, Abs format (unit mm)*
G04 Created by KiCad (PCBNEW (6.0.9)) date 2022-12-04 12:56:21*
%MOMM*%
%LPD*%
G01*
G04 APERTURE LIST*
G04 Aperture macros list*
%AMRoundRect*
0 Rectangle with rounded corners*
0 $1 Rounding radius*
0 $2 $3 $4 $5 $6 $7 $8 $9 X,Y pos of 4 corners*
0 Add a 4 corners polygon primitive as box body*
4,1,4,$2,$3,$4,$5,$6,$7,$8,$9,$2,$3,0*
0 Add four circle primitives for the rounded corners*
1,1,$1+$1,$2,$3*
1,1,$1+$1,$4,$5*
1,1,$1+$1,$6,$7*
1,1,$1+$1,$8,$9*
0 Add four rect primitives between the rounded corners*
20,1,$1+$1,$2,$3,$4,$5,0*
20,1,$1+$1,$4,$5,$6,$7,0*
20,1,$1+$1,$6,$7,$8,$9,0*
20,1,$1+$1,$8,$9,$2,$3,0*%
G04 Aperture macros list end*
%ADD10C,0.300000*%
%ADD11C,0.150000*%
%ADD12C,0.100000*%
%ADD13C,0.120000*%
%ADD14R,1.700000X1.700000*%
%ADD15O,1.700000X1.700000*%
%ADD16RoundRect,0.237500X-0.300000X-0.237500X0.300000X-0.237500X0.300000X0.237500X-0.300000X0.237500X0*%
%ADD17C,0.700000*%
%ADD18RoundRect,0.237500X-0.287500X-0.237500X0.287500X-0.237500X0.287500X0.237500X-0.287500X0.237500X0*%
%ADD19C,2.700000*%
%ADD20C,1.700000*%
%ADD21RoundRect,0.237500X-0.250000X-0.237500X0.250000X-0.237500X0.250000X0.237500X-0.250000X0.237500X0*%
%ADD22R,0.900000X1.200000*%
%ADD23RoundRect,0.237500X-0.237500X0.300000X-0.237500X-0.300000X0.237500X-0.300000X0.237500X0.300000X0*%
%ADD24RoundRect,0.250000X-1.075000X0.400000X-1.075000X-0.400000X1.075000X-0.400000X1.075000X0.400000X0*%
%ADD25C,3.200000*%
%ADD26R,2.000000X1.650000*%
%ADD27RoundRect,0.237500X0.300000X0.237500X-0.300000X0.237500X-0.300000X-0.237500X0.300000X-0.237500X0*%
%ADD28R,0.650000X1.560000*%
%ADD29RoundRect,0.137500X-0.662500X-0.137500X0.662500X-0.137500X0.662500X0.137500X-0.662500X0.137500X0*%
G04 APERTURE END LIST*
D10*
X106700000Y-69223214D02*
X106771428Y-69294642D01*
X106700000Y-69366071D01*
X106628571Y-69294642D01*
X106700000Y-69223214D01*
X106700000Y-69366071D01*
D11*
X65367619Y-47582380D02*
X65034285Y-47106190D01*
X64796190Y-47582380D02*
X64796190Y-46582380D01*
X65177142Y-46582380D01*
X65272380Y-46630000D01*
X65320000Y-46677619D01*
X65367619Y-46772857D01*
X65367619Y-46915714D01*
X65320000Y-47010952D01*
X65272380Y-47058571D01*
X65177142Y-47106190D01*
X64796190Y-47106190D01*
X65796190Y-47058571D02*
X66129523Y-47058571D01*
X66272380Y-47582380D02*
X65796190Y-47582380D01*
X65796190Y-46582380D01*
X66272380Y-46582380D01*
X66653333Y-47534761D02*
X66796190Y-47582380D01*
X67034285Y-47582380D01*
X67129523Y-47534761D01*
X67177142Y-47487142D01*
X67224761Y-47391904D01*
X67224761Y-47296666D01*
X67177142Y-47201428D01*
X67129523Y-47153809D01*
X67034285Y-47106190D01*
X66843809Y-47058571D01*
X66748571Y-47010952D01*
X66700952Y-46963333D01*
X66653333Y-46868095D01*
X66653333Y-46772857D01*
X66700952Y-46677619D01*
X66748571Y-46630000D01*
X66843809Y-46582380D01*
X67081904Y-46582380D01*
X67224761Y-46630000D01*
X67653333Y-47058571D02*
X67986666Y-47058571D01*
X68129523Y-47582380D02*
X67653333Y-47582380D01*
X67653333Y-46582380D01*
X68129523Y-46582380D01*
X68415238Y-46582380D02*
X68986666Y-46582380D01*
X68700952Y-47582380D02*
X68700952Y-46582380D01*
X120182226Y-76685461D02*
X120182226Y-77256890D01*
X120144131Y-77371176D01*
X120067941Y-77447366D01*
X119953655Y-77485461D01*
X119877465Y-77485461D01*
X120944131Y-77485461D02*
X120563179Y-77485461D01*
X120563179Y-76685461D01*
X121667941Y-77409271D02*
X121629845Y-77447366D01*
X121515560Y-77485461D01*
X121439369Y-77485461D01*
X121325084Y-77447366D01*
X121248893Y-77371176D01*
X121210798Y-77294985D01*
X121172703Y-77142604D01*
X121172703Y-77028318D01*
X121210798Y-76875937D01*
X121248893Y-76799747D01*
X121325084Y-76723557D01*
X121439369Y-76685461D01*
X121515560Y-76685461D01*
X121629845Y-76723557D01*
X121667941Y-76761652D01*
X122239369Y-76685461D02*
X122239369Y-77256890D01*
X122201274Y-77371176D01*
X122125084Y-77447366D01*
X122010798Y-77485461D01*
X121934607Y-77485461D01*
X123001274Y-77485461D02*
X122620322Y-77485461D01*
X122620322Y-76685461D01*
X123725084Y-77409271D02*
X123686988Y-77447366D01*
X123572703Y-77485461D01*
X123496512Y-77485461D01*
X123382226Y-77447366D01*
X123306036Y-77371176D01*
X123267941Y-77294985D01*
X123229845Y-77142604D01*
X123229845Y-77028318D01*
X123267941Y-76875937D01*
X123306036Y-76799747D01*
X123382226Y-76723557D01*
X123496512Y-76685461D01*
X123572703Y-76685461D01*
X123686988Y-76723557D01*
X123725084Y-76761652D01*
X124296512Y-76685461D02*
X124296512Y-77256890D01*
X124258417Y-77371176D01*
X124182226Y-77447366D01*
X124067941Y-77485461D01*
X123991750Y-77485461D01*
X125058417Y-77485461D02*
X124677465Y-77485461D01*
X124677465Y-76685461D01*
X125782226Y-77409271D02*
X125744131Y-77447366D01*
X125629845Y-77485461D01*
X125553655Y-77485461D01*
X125439369Y-77447366D01*
X125363179Y-77371176D01*
X125325084Y-77294985D01*
X125286988Y-77142604D01*
X125286988Y-77028318D01*
X125325084Y-76875937D01*
X125363179Y-76799747D01*
X125439369Y-76723557D01*
X125553655Y-76685461D01*
X125629845Y-76685461D01*
X125744131Y-76723557D01*
X125782226Y-76761652D01*
X126353655Y-76685461D02*
X126353655Y-77256890D01*
X126315560Y-77371176D01*
X126239369Y-77447366D01*
X126125084Y-77485461D01*
X126048893Y-77485461D01*
X127115560Y-77485461D02*
X126734607Y-77485461D01*
X126734607Y-76685461D01*
X127839369Y-77409271D02*
X127801274Y-77447366D01*
X127686988Y-77485461D01*
X127610798Y-77485461D01*
X127496512Y-77447366D01*
X127420322Y-77371176D01*
X127382226Y-77294985D01*
X127344131Y-77142604D01*
X127344131Y-77028318D01*
X127382226Y-76875937D01*
X127420322Y-76799747D01*
X127496512Y-76723557D01*
X127610798Y-76685461D01*
X127686988Y-76685461D01*
X127801274Y-76723557D01*
X127839369Y-76761652D01*
X116496512Y-71524271D02*
X116496512Y-72524271D01*
X116972703Y-72048080D02*
X117020322Y-72143318D01*
X117115560Y-72190937D01*
X116496512Y-72048080D02*
X116544131Y-72143318D01*
X116639369Y-72190937D01*
X116829845Y-72190937D01*
X116925084Y-72143318D01*
X116972703Y-72048080D01*
X116972703Y-71524271D01*
X117401274Y-71190937D02*
X117972703Y-71190937D01*
X117686988Y-72190937D02*
X117686988Y-71190937D01*
X118306036Y-72190937D02*
X118306036Y-71524271D01*
X118306036Y-71714747D02*
X118353655Y-71619509D01*
X118401274Y-71571890D01*
X118496512Y-71524271D01*
X118591750Y-71524271D01*
X119353655Y-72190937D02*
X119353655Y-71667128D01*
X119306036Y-71571890D01*
X119210798Y-71524271D01*
X119020322Y-71524271D01*
X118925084Y-71571890D01*
X119353655Y-72143318D02*
X119258417Y-72190937D01*
X119020322Y-72190937D01*
X118925084Y-72143318D01*
X118877465Y-72048080D01*
X118877465Y-71952842D01*
X118925084Y-71857604D01*
X119020322Y-71809985D01*
X119258417Y-71809985D01*
X119353655Y-71762366D01*
X120258417Y-72143318D02*
X120163179Y-72190937D01*
X119972703Y-72190937D01*
X119877465Y-72143318D01*
X119829845Y-72095699D01*
X119782226Y-72000461D01*
X119782226Y-71714747D01*
X119829845Y-71619509D01*
X119877465Y-71571890D01*
X119972703Y-71524271D01*
X120163179Y-71524271D01*
X120258417Y-71571890D01*
X121067941Y-72143318D02*
X120972703Y-72190937D01*
X120782226Y-72190937D01*
X120686988Y-72143318D01*
X120639369Y-72048080D01*
X120639369Y-71667128D01*
X120686988Y-71571890D01*
X120782226Y-71524271D01*
X120972703Y-71524271D01*
X121067941Y-71571890D01*
X121115560Y-71667128D01*
X121115560Y-71762366D01*
X120639369Y-71857604D01*
X121544131Y-72190937D02*
X121544131Y-71524271D01*
X121544131Y-71714747D02*
X121591750Y-71619509D01*
X121639369Y-71571890D01*
X121734607Y-71524271D01*
X121829845Y-71524271D01*
X122925084Y-72190937D02*
X122925084Y-71190937D01*
X122925084Y-71667128D02*
X123496512Y-71667128D01*
X123496512Y-72190937D02*
X123496512Y-71190937D01*
X124353655Y-72143318D02*
X124258417Y-72190937D01*
X124067941Y-72190937D01*
X123972703Y-72143318D01*
X123925084Y-72048080D01*
X123925084Y-71667128D01*
X123972703Y-71571890D01*
X124067941Y-71524271D01*
X124258417Y-71524271D01*
X124353655Y-71571890D01*
X124401274Y-71667128D01*
X124401274Y-71762366D01*
X123925084Y-71857604D01*
X125258417Y-72190937D02*
X125258417Y-71667128D01*
X125210798Y-71571890D01*
X125115560Y-71524271D01*
X124925084Y-71524271D01*
X124829845Y-71571890D01*
X125258417Y-72143318D02*
X125163179Y-72190937D01*
X124925084Y-72190937D01*
X124829845Y-72143318D01*
X124782226Y-72048080D01*
X124782226Y-71952842D01*
X124829845Y-71857604D01*
X124925084Y-71809985D01*
X125163179Y-71809985D01*
X125258417Y-71762366D01*
X125591750Y-71524271D02*
X125972703Y-71524271D01*
X125734607Y-71190937D02*
X125734607Y-72048080D01*
X125782226Y-72143318D01*
X125877465Y-72190937D01*
X125972703Y-72190937D01*
X126686988Y-72143318D02*
X126591750Y-72190937D01*
X126401274Y-72190937D01*
X126306036Y-72143318D01*
X126258417Y-72048080D01*
X126258417Y-71667128D01*
X126306036Y-71571890D01*
X126401274Y-71524271D01*
X126591750Y-71524271D01*
X126686988Y-71571890D01*
X126734607Y-71667128D01*
X126734607Y-71762366D01*
X126258417Y-71857604D01*
X127163179Y-72190937D02*
X127163179Y-71524271D01*
X127163179Y-71714747D02*
X127210798Y-71619509D01*
X127258417Y-71571890D01*
X127353655Y-71524271D01*
X127448893Y-71524271D01*
X128544131Y-72190937D02*
X128544131Y-71190937D01*
X128877465Y-71905223D01*
X129210798Y-71190937D01*
X129210798Y-72190937D01*
X130258417Y-72095699D02*
X130210798Y-72143318D01*
X130067941Y-72190937D01*
X129972703Y-72190937D01*
X129829845Y-72143318D01*
X129734607Y-72048080D01*
X129686988Y-71952842D01*
X129639369Y-71762366D01*
X129639369Y-71619509D01*
X129686988Y-71429033D01*
X129734607Y-71333795D01*
X129829845Y-71238557D01*
X129972703Y-71190937D01*
X130067941Y-71190937D01*
X130210798Y-71238557D01*
X130258417Y-71286176D01*
X130686988Y-71190937D02*
X130686988Y-72000461D01*
X130734607Y-72095699D01*
X130782226Y-72143318D01*
X130877465Y-72190937D01*
X131067941Y-72190937D01*
X131163179Y-72143318D01*
X131210798Y-72095699D01*
X131258417Y-72000461D01*
X131258417Y-71190937D01*
X118996512Y-72896176D02*
X119044131Y-72848557D01*
X119139369Y-72800937D01*
X119377465Y-72800937D01*
X119472703Y-72848557D01*
X119520322Y-72896176D01*
X119567941Y-72991414D01*
X119567941Y-73086652D01*
X119520322Y-73229509D01*
X118948893Y-73800937D01*
X119567941Y-73800937D01*
X119948893Y-72896176D02*
X119996512Y-72848557D01*
X120091750Y-72800937D01*
X120329845Y-72800937D01*
X120425084Y-72848557D01*
X120472703Y-72896176D01*
X120520322Y-72991414D01*
X120520322Y-73086652D01*
X120472703Y-73229509D01*
X119901274Y-73800937D01*
X120520322Y-73800937D01*
X120710798Y-73896176D02*
X121472703Y-73896176D01*
X122139369Y-73134271D02*
X122139369Y-73800937D01*
X121901274Y-72753318D02*
X121663179Y-73467604D01*
X122282226Y-73467604D01*
X122567941Y-72800937D02*
X123186988Y-72800937D01*
X122853655Y-73181890D01*
X122996512Y-73181890D01*
X123091750Y-73229509D01*
X123139369Y-73277128D01*
X123186988Y-73372366D01*
X123186988Y-73610461D01*
X123139369Y-73705699D01*
X123091750Y-73753318D01*
X122996512Y-73800937D01*
X122710798Y-73800937D01*
X122615560Y-73753318D01*
X122567941Y-73705699D01*
X123377465Y-73896176D02*
X124139369Y-73896176D01*
X124567941Y-72800937D02*
X124663179Y-72800937D01*
X124758417Y-72848557D01*
X124806036Y-72896176D01*
X124853655Y-72991414D01*
X124901274Y-73181890D01*
X124901274Y-73419985D01*
X124853655Y-73610461D01*
X124806036Y-73705699D01*
X124758417Y-73753318D01*
X124663179Y-73800937D01*
X124567941Y-73800937D01*
X124472703Y-73753318D01*
X124425084Y-73705699D01*
X124377465Y-73610461D01*
X124329845Y-73419985D01*
X124329845Y-73181890D01*
X124377465Y-72991414D01*
X124425084Y-72896176D01*
X124472703Y-72848557D01*
X124567941Y-72800937D01*
X125853655Y-73800937D02*
X125282226Y-73800937D01*
X125567941Y-73800937D02*
X125567941Y-72800937D01*
X125472703Y-72943795D01*
X125377465Y-73039033D01*
X125282226Y-73086652D01*
X126234607Y-72896176D02*
X126282226Y-72848557D01*
X126377465Y-72800937D01*
X126615560Y-72800937D01*
X126710798Y-72848557D01*
X126758417Y-72896176D01*
X126806036Y-72991414D01*
X126806036Y-73086652D01*
X126758417Y-73229509D01*
X126186988Y-73800937D01*
X126806036Y-73800937D01*
X127425084Y-72800937D02*
X127520322Y-72800937D01*
X127615560Y-72848557D01*
X127663179Y-72896176D01*
X127710798Y-72991414D01*
X127758417Y-73181890D01*
X127758417Y-73419985D01*
X127710798Y-73610461D01*
X127663179Y-73705699D01*
X127615560Y-73753318D01*
X127520322Y-73800937D01*
X127425084Y-73800937D01*
X127329845Y-73753318D01*
X127282226Y-73705699D01*
X127234607Y-73610461D01*
X127186988Y-73419985D01*
X127186988Y-73181890D01*
X127234607Y-72991414D01*
X127282226Y-72896176D01*
X127329845Y-72848557D01*
X127425084Y-72800937D01*
X128758417Y-73705699D02*
X128710798Y-73753318D01*
X128567941Y-73800937D01*
X128472703Y-73800937D01*
X128329845Y-73753318D01*
X128234607Y-73658080D01*
X128186988Y-73562842D01*
X128139369Y-73372366D01*
X128139369Y-73229509D01*
X128186988Y-73039033D01*
X128234607Y-72943795D01*
X128329845Y-72848557D01*
X128472703Y-72800937D01*
X128567941Y-72800937D01*
X128710798Y-72848557D01*
X128758417Y-72896176D01*
X118425084Y-74887128D02*
X118567941Y-74934747D01*
X118615560Y-74982366D01*
X118663179Y-75077604D01*
X118663179Y-75220461D01*
X118615560Y-75315699D01*
X118567941Y-75363318D01*
X118472703Y-75410937D01*
X118091750Y-75410937D01*
X118091750Y-74410937D01*
X118425084Y-74410937D01*
X118520322Y-74458557D01*
X118567941Y-74506176D01*
X118615560Y-74601414D01*
X118615560Y-74696652D01*
X118567941Y-74791890D01*
X118520322Y-74839509D01*
X118425084Y-74887128D01*
X118091750Y-74887128D01*
X119091750Y-74744271D02*
X119091750Y-75601414D01*
X119044131Y-75696652D01*
X118948893Y-75744271D01*
X118901274Y-75744271D01*
X119091750Y-74410937D02*
X119044131Y-74458557D01*
X119091750Y-74506176D01*
X119139369Y-74458557D01*
X119091750Y-74410937D01*
X119091750Y-74506176D01*
X120091750Y-74744271D02*
X119472703Y-75410937D01*
X119710798Y-75410937D02*
X119615560Y-75363318D01*
X119567941Y-75315699D01*
X119520322Y-75220461D01*
X119520322Y-74934747D01*
X119567941Y-74839509D01*
X119615560Y-74791890D01*
X119710798Y-74744271D01*
X119853655Y-74744271D01*
X119948893Y-74791890D01*
X119996512Y-74839509D01*
X120044131Y-74934747D01*
X120044131Y-75220461D01*
X119996512Y-75315699D01*
X119948893Y-75363318D01*
X119853655Y-75410937D01*
X119710798Y-75410937D01*
X120472703Y-75410937D02*
X120472703Y-74744271D01*
X120472703Y-74934747D02*
X120520322Y-74839509D01*
X120567941Y-74791890D01*
X120663179Y-74744271D01*
X120758417Y-74744271D01*
X121091750Y-74744271D02*
X121091750Y-75410937D01*
X121091750Y-74839509D02*
X121139369Y-74791890D01*
X121234607Y-74744271D01*
X121377465Y-74744271D01*
X121472703Y-74791890D01*
X121520322Y-74887128D01*
X121520322Y-75410937D01*
X122377465Y-75363318D02*
X122282226Y-75410937D01*
X122091750Y-75410937D01*
X121996512Y-75363318D01*
X121948893Y-75268080D01*
X121948893Y-74887128D01*
X121996512Y-74791890D01*
X122091750Y-74744271D01*
X122282226Y-74744271D01*
X122377465Y-74791890D01*
X122425084Y-74887128D01*
X122425084Y-74982366D01*
X121948893Y-75077604D01*
X122853655Y-75410937D02*
X122853655Y-74744271D01*
X122853655Y-74934747D02*
X122901274Y-74839509D01*
X122948893Y-74791890D01*
X123044131Y-74744271D01*
X123139369Y-74744271D01*
X124186988Y-75363318D02*
X124329845Y-75410937D01*
X124567941Y-75410937D01*
X124663179Y-75363318D01*
X124710798Y-75315699D01*
X124758417Y-75220461D01*
X124758417Y-75125223D01*
X124710798Y-75029985D01*
X124663179Y-74982366D01*
X124567941Y-74934747D01*
X124377465Y-74887128D01*
X124282226Y-74839509D01*
X124234607Y-74791890D01*
X124186988Y-74696652D01*
X124186988Y-74601414D01*
X124234607Y-74506176D01*
X124282226Y-74458557D01*
X124377465Y-74410937D01*
X124615560Y-74410937D01*
X124758417Y-74458557D01*
X125615560Y-75410937D02*
X125615560Y-74887128D01*
X125567941Y-74791890D01*
X125472703Y-74744271D01*
X125282226Y-74744271D01*
X125186988Y-74791890D01*
X125615560Y-75363318D02*
X125520322Y-75410937D01*
X125282226Y-75410937D01*
X125186988Y-75363318D01*
X125139369Y-75268080D01*
X125139369Y-75172842D01*
X125186988Y-75077604D01*
X125282226Y-75029985D01*
X125520322Y-75029985D01*
X125615560Y-74982366D01*
X126091750Y-74744271D02*
X126091750Y-75410937D01*
X126091750Y-74839509D02*
X126139369Y-74791890D01*
X126234607Y-74744271D01*
X126377465Y-74744271D01*
X126472703Y-74791890D01*
X126520322Y-74887128D01*
X126520322Y-75410937D01*
X127425084Y-75410937D02*
X127425084Y-74410937D01*
X127425084Y-75363318D02*
X127329845Y-75410937D01*
X127139369Y-75410937D01*
X127044131Y-75363318D01*
X126996512Y-75315699D01*
X126948893Y-75220461D01*
X126948893Y-74934747D01*
X126996512Y-74839509D01*
X127044131Y-74791890D01*
X127139369Y-74744271D01*
X127329845Y-74744271D01*
X127425084Y-74791890D01*
X128044131Y-75410937D02*
X127948893Y-75363318D01*
X127901274Y-75315699D01*
X127853655Y-75220461D01*
X127853655Y-74934747D01*
X127901274Y-74839509D01*
X127948893Y-74791890D01*
X128044131Y-74744271D01*
X128186988Y-74744271D01*
X128282226Y-74791890D01*
X128329845Y-74839509D01*
X128377465Y-74934747D01*
X128377465Y-75220461D01*
X128329845Y-75315699D01*
X128282226Y-75363318D01*
X128186988Y-75410937D01*
X128044131Y-75410937D01*
X128806036Y-75410937D02*
X128806036Y-74744271D01*
X128806036Y-74839509D02*
X128853655Y-74791890D01*
X128948893Y-74744271D01*
X129091750Y-74744271D01*
X129186988Y-74791890D01*
X129234607Y-74887128D01*
X129234607Y-75410937D01*
X129234607Y-74887128D02*
X129282226Y-74791890D01*
X129377465Y-74744271D01*
X129520322Y-74744271D01*
X129615560Y-74791890D01*
X129663179Y-74887128D01*
X129663179Y-75410937D01*
D12*
X76352380Y-79461904D02*
X76352380Y-78661904D01*
X76352380Y-79042857D02*
X76809523Y-79042857D01*
X76809523Y-79461904D02*
X76809523Y-78661904D01*
X77495238Y-79423809D02*
X77419047Y-79461904D01*
X77266666Y-79461904D01*
X77190476Y-79423809D01*
X77152380Y-79347619D01*
X77152380Y-79042857D01*
X77190476Y-78966666D01*
X77266666Y-78928571D01*
X77419047Y-78928571D01*
X77495238Y-78966666D01*
X77533333Y-79042857D01*
X77533333Y-79119047D01*
X77152380Y-79195238D01*
X78219047Y-79461904D02*
X78219047Y-79042857D01*
X78180952Y-78966666D01*
X78104761Y-78928571D01*
X77952380Y-78928571D01*
X77876190Y-78966666D01*
X78219047Y-79423809D02*
X78142857Y-79461904D01*
X77952380Y-79461904D01*
X77876190Y-79423809D01*
X77838095Y-79347619D01*
X77838095Y-79271428D01*
X77876190Y-79195238D01*
X77952380Y-79157142D01*
X78142857Y-79157142D01*
X78219047Y-79119047D01*
X78485714Y-78928571D02*
X78790476Y-78928571D01*
X78600000Y-78661904D02*
X78600000Y-79347619D01*
X78638095Y-79423809D01*
X78714285Y-79461904D01*
X78790476Y-79461904D01*
X79361904Y-79423809D02*
X79285714Y-79461904D01*
X79133333Y-79461904D01*
X79057142Y-79423809D01*
X79019047Y-79347619D01*
X79019047Y-79042857D01*
X79057142Y-78966666D01*
X79133333Y-78928571D01*
X79285714Y-78928571D01*
X79361904Y-78966666D01*
X79400000Y-79042857D01*
X79400000Y-79119047D01*
X79019047Y-79195238D01*
X79742857Y-79461904D02*
X79742857Y-78928571D01*
X79742857Y-79080952D02*
X79780952Y-79004761D01*
X79819047Y-78966666D01*
X79895238Y-78928571D01*
X79971428Y-78928571D01*
X80809523Y-79423809D02*
X80885714Y-79461904D01*
X81038095Y-79461904D01*
X81114285Y-79423809D01*
X81152380Y-79347619D01*
X81152380Y-79309523D01*
X81114285Y-79233333D01*
X81038095Y-79195238D01*
X80923809Y-79195238D01*
X80847619Y-79157142D01*
X80809523Y-79080952D01*
X80809523Y-79042857D01*
X80847619Y-78966666D01*
X80923809Y-78928571D01*
X81038095Y-78928571D01*
X81114285Y-78966666D01*
X81380952Y-78928571D02*
X81685714Y-78928571D01*
X81495238Y-78661904D02*
X81495238Y-79347619D01*
X81533333Y-79423809D01*
X81609523Y-79461904D01*
X81685714Y-79461904D01*
X82295238Y-79461904D02*
X82295238Y-79042857D01*
X82257142Y-78966666D01*
X82180952Y-78928571D01*
X82028571Y-78928571D01*
X81952380Y-78966666D01*
X82295238Y-79423809D02*
X82219047Y-79461904D01*
X82028571Y-79461904D01*
X81952380Y-79423809D01*
X81914285Y-79347619D01*
X81914285Y-79271428D01*
X81952380Y-79195238D01*
X82028571Y-79157142D01*
X82219047Y-79157142D01*
X82295238Y-79119047D01*
X82676190Y-79461904D02*
X82676190Y-78928571D01*
X82676190Y-79080952D02*
X82714285Y-79004761D01*
X82752380Y-78966666D01*
X82828571Y-78928571D01*
X82904761Y-78928571D01*
X83057142Y-78928571D02*
X83361904Y-78928571D01*
X83171428Y-78661904D02*
X83171428Y-79347619D01*
X83209523Y-79423809D01*
X83285714Y-79461904D01*
X83361904Y-79461904D01*
X84719047Y-79486904D02*
X84719047Y-78686904D01*
X84719047Y-79067857D02*
X85176190Y-79067857D01*
X85176190Y-79486904D02*
X85176190Y-78686904D01*
X85861904Y-79448809D02*
X85785714Y-79486904D01*
X85633333Y-79486904D01*
X85557142Y-79448809D01*
X85519047Y-79372619D01*
X85519047Y-79067857D01*
X85557142Y-78991666D01*
X85633333Y-78953571D01*
X85785714Y-78953571D01*
X85861904Y-78991666D01*
X85900000Y-79067857D01*
X85900000Y-79144047D01*
X85519047Y-79220238D01*
X86585714Y-79486904D02*
X86585714Y-79067857D01*
X86547619Y-78991666D01*
X86471428Y-78953571D01*
X86319047Y-78953571D01*
X86242857Y-78991666D01*
X86585714Y-79448809D02*
X86509523Y-79486904D01*
X86319047Y-79486904D01*
X86242857Y-79448809D01*
X86204761Y-79372619D01*
X86204761Y-79296428D01*
X86242857Y-79220238D01*
X86319047Y-79182142D01*
X86509523Y-79182142D01*
X86585714Y-79144047D01*
X86852380Y-78953571D02*
X87157142Y-78953571D01*
X86966666Y-78686904D02*
X86966666Y-79372619D01*
X87004761Y-79448809D01*
X87080952Y-79486904D01*
X87157142Y-79486904D01*
X87728571Y-79448809D02*
X87652380Y-79486904D01*
X87500000Y-79486904D01*
X87423809Y-79448809D01*
X87385714Y-79372619D01*
X87385714Y-79067857D01*
X87423809Y-78991666D01*
X87500000Y-78953571D01*
X87652380Y-78953571D01*
X87728571Y-78991666D01*
X87766666Y-79067857D01*
X87766666Y-79144047D01*
X87385714Y-79220238D01*
X88109523Y-79486904D02*
X88109523Y-78953571D01*
X88109523Y-79105952D02*
X88147619Y-79029761D01*
X88185714Y-78991666D01*
X88261904Y-78953571D01*
X88338095Y-78953571D01*
X89328571Y-79486904D02*
X89252380Y-79448809D01*
X89214285Y-79410714D01*
X89176190Y-79334523D01*
X89176190Y-79105952D01*
X89214285Y-79029761D01*
X89252380Y-78991666D01*
X89328571Y-78953571D01*
X89442857Y-78953571D01*
X89519047Y-78991666D01*
X89557142Y-79029761D01*
X89595238Y-79105952D01*
X89595238Y-79334523D01*
X89557142Y-79410714D01*
X89519047Y-79448809D01*
X89442857Y-79486904D01*
X89328571Y-79486904D01*
X89938095Y-78953571D02*
X89938095Y-79486904D01*
X89938095Y-79029761D02*
X89976190Y-78991666D01*
X90052380Y-78953571D01*
X90166666Y-78953571D01*
X90242857Y-78991666D01*
X90280952Y-79067857D01*
X90280952Y-79486904D01*
X62600000Y-79007142D02*
X63209523Y-79007142D01*
X62904761Y-79311904D02*
X62904761Y-78702380D01*
X63514285Y-78511904D02*
X64009523Y-78511904D01*
X63742857Y-78816666D01*
X63857142Y-78816666D01*
X63933333Y-78854761D01*
X63971428Y-78892857D01*
X64009523Y-78969047D01*
X64009523Y-79159523D01*
X63971428Y-79235714D01*
X63933333Y-79273809D01*
X63857142Y-79311904D01*
X63628571Y-79311904D01*
X63552380Y-79273809D01*
X63514285Y-79235714D01*
X64352380Y-79235714D02*
X64390476Y-79273809D01*
X64352380Y-79311904D01*
X64314285Y-79273809D01*
X64352380Y-79235714D01*
X64352380Y-79311904D01*
X64657142Y-78511904D02*
X65152380Y-78511904D01*
X64885714Y-78816666D01*
X65000000Y-78816666D01*
X65076190Y-78854761D01*
X65114285Y-78892857D01*
X65152380Y-78969047D01*
X65152380Y-79159523D01*
X65114285Y-79235714D01*
X65076190Y-79273809D01*
X65000000Y-79311904D01*
X64771428Y-79311904D01*
X64695238Y-79273809D01*
X64657142Y-79235714D01*
X65380952Y-78511904D02*
X65647619Y-79311904D01*
X65914285Y-78511904D01*
X69738095Y-79461904D02*
X69738095Y-78661904D01*
X70004761Y-79233333D01*
X70271428Y-78661904D01*
X70271428Y-79461904D01*
X71109523Y-79385714D02*
X71071428Y-79423809D01*
X70957142Y-79461904D01*
X70880952Y-79461904D01*
X70766666Y-79423809D01*
X70690476Y-79347619D01*
X70652380Y-79271428D01*
X70614285Y-79119047D01*
X70614285Y-79004761D01*
X70652380Y-78852380D01*
X70690476Y-78776190D01*
X70766666Y-78700000D01*
X70880952Y-78661904D01*
X70957142Y-78661904D01*
X71071428Y-78700000D01*
X71109523Y-78738095D01*
X71452380Y-78661904D02*
X71452380Y-79309523D01*
X71490476Y-79385714D01*
X71528571Y-79423809D01*
X71604761Y-79461904D01*
X71757142Y-79461904D01*
X71833333Y-79423809D01*
X71871428Y-79385714D01*
X71909523Y-79309523D01*
X71909523Y-78661904D01*
X72900000Y-79461904D02*
X72900000Y-78928571D01*
X72900000Y-79080952D02*
X72938095Y-79004761D01*
X72976190Y-78966666D01*
X73052380Y-78928571D01*
X73128571Y-78928571D01*
X73738095Y-78928571D02*
X73738095Y-79461904D01*
X73395238Y-78928571D02*
X73395238Y-79347619D01*
X73433333Y-79423809D01*
X73509523Y-79461904D01*
X73623809Y-79461904D01*
X73700000Y-79423809D01*
X73738095Y-79385714D01*
X74119047Y-78928571D02*
X74119047Y-79461904D01*
X74119047Y-79004761D02*
X74157142Y-78966666D01*
X74233333Y-78928571D01*
X74347619Y-78928571D01*
X74423809Y-78966666D01*
X74461904Y-79042857D01*
X74461904Y-79461904D01*
X101129761Y-67335714D02*
X101091666Y-67373809D01*
X100977380Y-67411904D01*
X100901190Y-67411904D01*
X100786904Y-67373809D01*
X100710714Y-67297619D01*
X100672619Y-67221428D01*
X100634523Y-67069047D01*
X100634523Y-66954761D01*
X100672619Y-66802380D01*
X100710714Y-66726190D01*
X100786904Y-66650000D01*
X100901190Y-66611904D01*
X100977380Y-66611904D01*
X101091666Y-66650000D01*
X101129761Y-66688095D01*
X101396428Y-66611904D02*
X101891666Y-66611904D01*
X101625000Y-66916666D01*
X101739285Y-66916666D01*
X101815476Y-66954761D01*
X101853571Y-66992857D01*
X101891666Y-67069047D01*
X101891666Y-67259523D01*
X101853571Y-67335714D01*
X101815476Y-67373809D01*
X101739285Y-67411904D01*
X101510714Y-67411904D01*
X101434523Y-67373809D01*
X101396428Y-67335714D01*
X102653571Y-67411904D02*
X102196428Y-67411904D01*
X102425000Y-67411904D02*
X102425000Y-66611904D01*
X102348809Y-66726190D01*
X102272619Y-66802380D01*
X102196428Y-66840476D01*
X103377380Y-66611904D02*
X102996428Y-66611904D01*
X102958333Y-66992857D01*
X102996428Y-66954761D01*
X103072619Y-66916666D01*
X103263095Y-66916666D01*
X103339285Y-66954761D01*
X103377380Y-66992857D01*
X103415476Y-67069047D01*
X103415476Y-67259523D01*
X103377380Y-67335714D01*
X103339285Y-67373809D01*
X103263095Y-67411904D01*
X103072619Y-67411904D01*
X102996428Y-67373809D01*
X102958333Y-67335714D01*
X62970119Y-76711904D02*
X62970119Y-75911904D01*
X63160595Y-75911904D01*
X63274880Y-75950000D01*
X63351071Y-76026190D01*
X63389166Y-76102380D01*
X63427261Y-76254761D01*
X63427261Y-76369047D01*
X63389166Y-76521428D01*
X63351071Y-76597619D01*
X63274880Y-76673809D01*
X63160595Y-76711904D01*
X62970119Y-76711904D01*
X63693928Y-75911904D02*
X64189166Y-75911904D01*
X63922500Y-76216666D01*
X64036785Y-76216666D01*
X64112976Y-76254761D01*
X64151071Y-76292857D01*
X64189166Y-76369047D01*
X64189166Y-76559523D01*
X64151071Y-76635714D01*
X64112976Y-76673809D01*
X64036785Y-76711904D01*
X63808214Y-76711904D01*
X63732023Y-76673809D01*
X63693928Y-76635714D01*
X64684404Y-75911904D02*
X64760595Y-75911904D01*
X64836785Y-75950000D01*
X64874880Y-75988095D01*
X64912976Y-76064285D01*
X64951071Y-76216666D01*
X64951071Y-76407142D01*
X64912976Y-76559523D01*
X64874880Y-76635714D01*
X64836785Y-76673809D01*
X64760595Y-76711904D01*
X64684404Y-76711904D01*
X64608214Y-76673809D01*
X64570119Y-76635714D01*
X64532023Y-76559523D01*
X64493928Y-76407142D01*
X64493928Y-76216666D01*
X64532023Y-76064285D01*
X64570119Y-75988095D01*
X64608214Y-75950000D01*
X64684404Y-75911904D01*
X65674880Y-75911904D02*
X65293928Y-75911904D01*
X65255833Y-76292857D01*
X65293928Y-76254761D01*
X65370119Y-76216666D01*
X65560595Y-76216666D01*
X65636785Y-76254761D01*
X65674880Y-76292857D01*
X65712976Y-76369047D01*
X65712976Y-76559523D01*
X65674880Y-76635714D01*
X65636785Y-76673809D01*
X65560595Y-76711904D01*
X65370119Y-76711904D01*
X65293928Y-76673809D01*
X65255833Y-76635714D01*
X78396229Y-76661904D02*
X78396229Y-75861904D01*
X78586705Y-75861904D01*
X78700990Y-75900000D01*
X78777181Y-75976190D01*
X78815276Y-76052380D01*
X78853371Y-76204761D01*
X78853371Y-76319047D01*
X78815276Y-76471428D01*
X78777181Y-76547619D01*
X78700990Y-76623809D01*
X78586705Y-76661904D01*
X78396229Y-76661904D01*
X79120038Y-75861904D02*
X79615276Y-75861904D01*
X79348610Y-76166666D01*
X79462895Y-76166666D01*
X79539086Y-76204761D01*
X79577181Y-76242857D01*
X79615276Y-76319047D01*
X79615276Y-76509523D01*
X79577181Y-76585714D01*
X79539086Y-76623809D01*
X79462895Y-76661904D01*
X79234324Y-76661904D01*
X79158133Y-76623809D01*
X79120038Y-76585714D01*
X80110514Y-75861904D02*
X80186705Y-75861904D01*
X80262895Y-75900000D01*
X80300990Y-75938095D01*
X80339086Y-76014285D01*
X80377181Y-76166666D01*
X80377181Y-76357142D01*
X80339086Y-76509523D01*
X80300990Y-76585714D01*
X80262895Y-76623809D01*
X80186705Y-76661904D01*
X80110514Y-76661904D01*
X80034324Y-76623809D01*
X79996229Y-76585714D01*
X79958133Y-76509523D01*
X79920038Y-76357142D01*
X79920038Y-76166666D01*
X79958133Y-76014285D01*
X79996229Y-75938095D01*
X80034324Y-75900000D01*
X80110514Y-75861904D01*
X80643848Y-75861904D02*
X81139086Y-75861904D01*
X80872419Y-76166666D01*
X80986705Y-76166666D01*
X81062895Y-76204761D01*
X81100990Y-76242857D01*
X81139086Y-76319047D01*
X81139086Y-76509523D01*
X81100990Y-76585714D01*
X81062895Y-76623809D01*
X80986705Y-76661904D01*
X80758133Y-76661904D01*
X80681943Y-76623809D01*
X80643848Y-76585714D01*
X86109285Y-76661904D02*
X86109285Y-75861904D01*
X86299761Y-75861904D01*
X86414046Y-75900000D01*
X86490237Y-75976190D01*
X86528332Y-76052380D01*
X86566427Y-76204761D01*
X86566427Y-76319047D01*
X86528332Y-76471428D01*
X86490237Y-76547619D01*
X86414046Y-76623809D01*
X86299761Y-76661904D01*
X86109285Y-76661904D01*
X86833094Y-75861904D02*
X87328332Y-75861904D01*
X87061666Y-76166666D01*
X87175951Y-76166666D01*
X87252142Y-76204761D01*
X87290237Y-76242857D01*
X87328332Y-76319047D01*
X87328332Y-76509523D01*
X87290237Y-76585714D01*
X87252142Y-76623809D01*
X87175951Y-76661904D01*
X86947380Y-76661904D01*
X86871189Y-76623809D01*
X86833094Y-76585714D01*
X87823570Y-75861904D02*
X87899761Y-75861904D01*
X87975951Y-75900000D01*
X88014046Y-75938095D01*
X88052142Y-76014285D01*
X88090237Y-76166666D01*
X88090237Y-76357142D01*
X88052142Y-76509523D01*
X88014046Y-76585714D01*
X87975951Y-76623809D01*
X87899761Y-76661904D01*
X87823570Y-76661904D01*
X87747380Y-76623809D01*
X87709285Y-76585714D01*
X87671189Y-76509523D01*
X87633094Y-76357142D01*
X87633094Y-76166666D01*
X87671189Y-76014285D01*
X87709285Y-75938095D01*
X87747380Y-75900000D01*
X87823570Y-75861904D01*
X88394999Y-75938095D02*
X88433094Y-75900000D01*
X88509285Y-75861904D01*
X88699761Y-75861904D01*
X88775951Y-75900000D01*
X88814046Y-75938095D01*
X88852142Y-76014285D01*
X88852142Y-76090476D01*
X88814046Y-76204761D01*
X88356904Y-76661904D01*
X88852142Y-76661904D01*
X70647619Y-76711904D02*
X70647619Y-75911904D01*
X70838095Y-75911904D01*
X70952380Y-75950000D01*
X71028571Y-76026190D01*
X71066666Y-76102380D01*
X71104761Y-76254761D01*
X71104761Y-76369047D01*
X71066666Y-76521428D01*
X71028571Y-76597619D01*
X70952380Y-76673809D01*
X70838095Y-76711904D01*
X70647619Y-76711904D01*
X71371428Y-75911904D02*
X71866666Y-75911904D01*
X71600000Y-76216666D01*
X71714285Y-76216666D01*
X71790476Y-76254761D01*
X71828571Y-76292857D01*
X71866666Y-76369047D01*
X71866666Y-76559523D01*
X71828571Y-76635714D01*
X71790476Y-76673809D01*
X71714285Y-76711904D01*
X71485714Y-76711904D01*
X71409523Y-76673809D01*
X71371428Y-76635714D01*
X72361904Y-75911904D02*
X72438095Y-75911904D01*
X72514285Y-75950000D01*
X72552380Y-75988095D01*
X72590476Y-76064285D01*
X72628571Y-76216666D01*
X72628571Y-76407142D01*
X72590476Y-76559523D01*
X72552380Y-76635714D01*
X72514285Y-76673809D01*
X72438095Y-76711904D01*
X72361904Y-76711904D01*
X72285714Y-76673809D01*
X72247619Y-76635714D01*
X72209523Y-76559523D01*
X72171428Y-76407142D01*
X72171428Y-76216666D01*
X72209523Y-76064285D01*
X72247619Y-75988095D01*
X72285714Y-75950000D01*
X72361904Y-75911904D01*
X73390476Y-76711904D02*
X72933333Y-76711904D01*
X73161904Y-76711904D02*
X73161904Y-75911904D01*
X73085714Y-76026190D01*
X73009523Y-76102380D01*
X72933333Y-76140476D01*
X139559761Y-70436904D02*
X139293095Y-70055952D01*
X139102619Y-70436904D02*
X139102619Y-69636904D01*
X139407380Y-69636904D01*
X139483571Y-69675000D01*
X139521666Y-69713095D01*
X139559761Y-69789285D01*
X139559761Y-69903571D01*
X139521666Y-69979761D01*
X139483571Y-70017857D01*
X139407380Y-70055952D01*
X139102619Y-70055952D01*
X139826428Y-69636904D02*
X140321666Y-69636904D01*
X140055000Y-69941666D01*
X140169285Y-69941666D01*
X140245476Y-69979761D01*
X140283571Y-70017857D01*
X140321666Y-70094047D01*
X140321666Y-70284523D01*
X140283571Y-70360714D01*
X140245476Y-70398809D01*
X140169285Y-70436904D01*
X139940714Y-70436904D01*
X139864523Y-70398809D01*
X139826428Y-70360714D01*
X141083571Y-70436904D02*
X140626428Y-70436904D01*
X140855000Y-70436904D02*
X140855000Y-69636904D01*
X140778809Y-69751190D01*
X140702619Y-69827380D01*
X140626428Y-69865476D01*
X141807380Y-69636904D02*
X141426428Y-69636904D01*
X141388333Y-70017857D01*
X141426428Y-69979761D01*
X141502619Y-69941666D01*
X141693095Y-69941666D01*
X141769285Y-69979761D01*
X141807380Y-70017857D01*
X141845476Y-70094047D01*
X141845476Y-70284523D01*
X141807380Y-70360714D01*
X141769285Y-70398809D01*
X141693095Y-70436904D01*
X141502619Y-70436904D01*
X141426428Y-70398809D01*
X141388333Y-70360714D01*
X139547261Y-67791904D02*
X139280595Y-67410952D01*
X139090119Y-67791904D02*
X139090119Y-66991904D01*
X139394880Y-66991904D01*
X139471071Y-67030000D01*
X139509166Y-67068095D01*
X139547261Y-67144285D01*
X139547261Y-67258571D01*
X139509166Y-67334761D01*
X139471071Y-67372857D01*
X139394880Y-67410952D01*
X139090119Y-67410952D01*
X139813928Y-66991904D02*
X140309166Y-66991904D01*
X140042500Y-67296666D01*
X140156785Y-67296666D01*
X140232976Y-67334761D01*
X140271071Y-67372857D01*
X140309166Y-67449047D01*
X140309166Y-67639523D01*
X140271071Y-67715714D01*
X140232976Y-67753809D01*
X140156785Y-67791904D01*
X139928214Y-67791904D01*
X139852023Y-67753809D01*
X139813928Y-67715714D01*
X141071071Y-67791904D02*
X140613928Y-67791904D01*
X140842500Y-67791904D02*
X140842500Y-66991904D01*
X140766309Y-67106190D01*
X140690119Y-67182380D01*
X140613928Y-67220476D01*
X141756785Y-67258571D02*
X141756785Y-67791904D01*
X141566309Y-66953809D02*
X141375833Y-67525238D01*
X141871071Y-67525238D01*
X151897261Y-53111904D02*
X151630595Y-52730952D01*
X151440119Y-53111904D02*
X151440119Y-52311904D01*
X151744880Y-52311904D01*
X151821071Y-52350000D01*
X151859166Y-52388095D01*
X151897261Y-52464285D01*
X151897261Y-52578571D01*
X151859166Y-52654761D01*
X151821071Y-52692857D01*
X151744880Y-52730952D01*
X151440119Y-52730952D01*
X152163928Y-52311904D02*
X152659166Y-52311904D01*
X152392500Y-52616666D01*
X152506785Y-52616666D01*
X152582976Y-52654761D01*
X152621071Y-52692857D01*
X152659166Y-52769047D01*
X152659166Y-52959523D01*
X152621071Y-53035714D01*
X152582976Y-53073809D01*
X152506785Y-53111904D01*
X152278214Y-53111904D01*
X152202023Y-53073809D01*
X152163928Y-53035714D01*
X153154404Y-52311904D02*
X153230595Y-52311904D01*
X153306785Y-52350000D01*
X153344880Y-52388095D01*
X153382976Y-52464285D01*
X153421071Y-52616666D01*
X153421071Y-52807142D01*
X153382976Y-52959523D01*
X153344880Y-53035714D01*
X153306785Y-53073809D01*
X153230595Y-53111904D01*
X153154404Y-53111904D01*
X153078214Y-53073809D01*
X153040119Y-53035714D01*
X153002023Y-52959523D01*
X152963928Y-52807142D01*
X152963928Y-52616666D01*
X153002023Y-52464285D01*
X153040119Y-52388095D01*
X153078214Y-52350000D01*
X153154404Y-52311904D01*
X153687738Y-52311904D02*
X154221071Y-52311904D01*
X153878214Y-53111904D01*
X146480119Y-52761904D02*
X146480119Y-51961904D01*
X146670595Y-51961904D01*
X146784880Y-52000000D01*
X146861071Y-52076190D01*
X146899166Y-52152380D01*
X146937261Y-52304761D01*
X146937261Y-52419047D01*
X146899166Y-52571428D01*
X146861071Y-52647619D01*
X146784880Y-52723809D01*
X146670595Y-52761904D01*
X146480119Y-52761904D01*
X147203928Y-51961904D02*
X147699166Y-51961904D01*
X147432500Y-52266666D01*
X147546785Y-52266666D01*
X147622976Y-52304761D01*
X147661071Y-52342857D01*
X147699166Y-52419047D01*
X147699166Y-52609523D01*
X147661071Y-52685714D01*
X147622976Y-52723809D01*
X147546785Y-52761904D01*
X147318214Y-52761904D01*
X147242023Y-52723809D01*
X147203928Y-52685714D01*
X148194404Y-51961904D02*
X148270595Y-51961904D01*
X148346785Y-52000000D01*
X148384880Y-52038095D01*
X148422976Y-52114285D01*
X148461071Y-52266666D01*
X148461071Y-52457142D01*
X148422976Y-52609523D01*
X148384880Y-52685714D01*
X148346785Y-52723809D01*
X148270595Y-52761904D01*
X148194404Y-52761904D01*
X148118214Y-52723809D01*
X148080119Y-52685714D01*
X148042023Y-52609523D01*
X148003928Y-52457142D01*
X148003928Y-52266666D01*
X148042023Y-52114285D01*
X148080119Y-52038095D01*
X148118214Y-52000000D01*
X148194404Y-51961904D01*
X149146785Y-52228571D02*
X149146785Y-52761904D01*
X148956309Y-51923809D02*
X148765833Y-52495238D01*
X149261071Y-52495238D01*
X108335714Y-72882738D02*
X108373809Y-72920833D01*
X108411904Y-73035119D01*
X108411904Y-73111309D01*
X108373809Y-73225595D01*
X108297619Y-73301785D01*
X108221428Y-73339880D01*
X108069047Y-73377976D01*
X107954761Y-73377976D01*
X107802380Y-73339880D01*
X107726190Y-73301785D01*
X107650000Y-73225595D01*
X107611904Y-73111309D01*
X107611904Y-73035119D01*
X107650000Y-72920833D01*
X107688095Y-72882738D01*
X107611904Y-72616071D02*
X107611904Y-72120833D01*
X107916666Y-72387500D01*
X107916666Y-72273214D01*
X107954761Y-72197023D01*
X107992857Y-72158928D01*
X108069047Y-72120833D01*
X108259523Y-72120833D01*
X108335714Y-72158928D01*
X108373809Y-72197023D01*
X108411904Y-72273214D01*
X108411904Y-72501785D01*
X108373809Y-72577976D01*
X108335714Y-72616071D01*
X108411904Y-71358928D02*
X108411904Y-71816071D01*
X108411904Y-71587500D02*
X107611904Y-71587500D01*
X107726190Y-71663690D01*
X107802380Y-71739880D01*
X107840476Y-71816071D01*
X107688095Y-71054166D02*
X107650000Y-71016071D01*
X107611904Y-70939880D01*
X107611904Y-70749404D01*
X107650000Y-70673214D01*
X107688095Y-70635119D01*
X107764285Y-70597023D01*
X107840476Y-70597023D01*
X107954761Y-70635119D01*
X108411904Y-71092261D01*
X108411904Y-70597023D01*
X145631904Y-64755238D02*
X145250952Y-65021904D01*
X145631904Y-65212380D02*
X144831904Y-65212380D01*
X144831904Y-64907619D01*
X144870000Y-64831428D01*
X144908095Y-64793333D01*
X144984285Y-64755238D01*
X145098571Y-64755238D01*
X145174761Y-64793333D01*
X145212857Y-64831428D01*
X145250952Y-64907619D01*
X145250952Y-65212380D01*
X144831904Y-64488571D02*
X144831904Y-63993333D01*
X145136666Y-64260000D01*
X145136666Y-64145714D01*
X145174761Y-64069523D01*
X145212857Y-64031428D01*
X145289047Y-63993333D01*
X145479523Y-63993333D01*
X145555714Y-64031428D01*
X145593809Y-64069523D01*
X145631904Y-64145714D01*
X145631904Y-64374285D01*
X145593809Y-64450476D01*
X145555714Y-64488571D01*
X144831904Y-63498095D02*
X144831904Y-63421904D01*
X144870000Y-63345714D01*
X144908095Y-63307619D01*
X144984285Y-63269523D01*
X145136666Y-63231428D01*
X145327142Y-63231428D01*
X145479523Y-63269523D01*
X145555714Y-63307619D01*
X145593809Y-63345714D01*
X145631904Y-63421904D01*
X145631904Y-63498095D01*
X145593809Y-63574285D01*
X145555714Y-63612380D01*
X145479523Y-63650476D01*
X145327142Y-63688571D01*
X145136666Y-63688571D01*
X144984285Y-63650476D01*
X144908095Y-63612380D01*
X144870000Y-63574285D01*
X144831904Y-63498095D01*
X144831904Y-62507619D02*
X144831904Y-62888571D01*
X145212857Y-62926666D01*
X145174761Y-62888571D01*
X145136666Y-62812380D01*
X145136666Y-62621904D01*
X145174761Y-62545714D01*
X145212857Y-62507619D01*
X145289047Y-62469523D01*
X145479523Y-62469523D01*
X145555714Y-62507619D01*
X145593809Y-62545714D01*
X145631904Y-62621904D01*
X145631904Y-62812380D01*
X145593809Y-62888571D01*
X145555714Y-62926666D01*
X104754761Y-77061904D02*
X104488095Y-76680952D01*
X104297619Y-77061904D02*
X104297619Y-76261904D01*
X104602380Y-76261904D01*
X104678571Y-76300000D01*
X104716666Y-76338095D01*
X104754761Y-76414285D01*
X104754761Y-76528571D01*
X104716666Y-76604761D01*
X104678571Y-76642857D01*
X104602380Y-76680952D01*
X104297619Y-76680952D01*
X105021428Y-76261904D02*
X105516666Y-76261904D01*
X105250000Y-76566666D01*
X105364285Y-76566666D01*
X105440476Y-76604761D01*
X105478571Y-76642857D01*
X105516666Y-76719047D01*
X105516666Y-76909523D01*
X105478571Y-76985714D01*
X105440476Y-77023809D01*
X105364285Y-77061904D01*
X105135714Y-77061904D01*
X105059523Y-77023809D01*
X105021428Y-76985714D01*
X106278571Y-77061904D02*
X105821428Y-77061904D01*
X106050000Y-77061904D02*
X106050000Y-76261904D01*
X105973809Y-76376190D01*
X105897619Y-76452380D01*
X105821428Y-76490476D01*
X106545238Y-76261904D02*
X107078571Y-76261904D01*
X106735714Y-77061904D01*
X101079761Y-77186904D02*
X100813095Y-76805952D01*
X100622619Y-77186904D02*
X100622619Y-76386904D01*
X100927380Y-76386904D01*
X101003571Y-76425000D01*
X101041666Y-76463095D01*
X101079761Y-76539285D01*
X101079761Y-76653571D01*
X101041666Y-76729761D01*
X101003571Y-76767857D01*
X100927380Y-76805952D01*
X100622619Y-76805952D01*
X101346428Y-76386904D02*
X101841666Y-76386904D01*
X101575000Y-76691666D01*
X101689285Y-76691666D01*
X101765476Y-76729761D01*
X101803571Y-76767857D01*
X101841666Y-76844047D01*
X101841666Y-77034523D01*
X101803571Y-77110714D01*
X101765476Y-77148809D01*
X101689285Y-77186904D01*
X101460714Y-77186904D01*
X101384523Y-77148809D01*
X101346428Y-77110714D01*
X102603571Y-77186904D02*
X102146428Y-77186904D01*
X102375000Y-77186904D02*
X102375000Y-76386904D01*
X102298809Y-76501190D01*
X102222619Y-76577380D01*
X102146428Y-76615476D01*
X103289285Y-76386904D02*
X103136904Y-76386904D01*
X103060714Y-76425000D01*
X103022619Y-76463095D01*
X102946428Y-76577380D01*
X102908333Y-76729761D01*
X102908333Y-77034523D01*
X102946428Y-77110714D01*
X102984523Y-77148809D01*
X103060714Y-77186904D01*
X103213095Y-77186904D01*
X103289285Y-77148809D01*
X103327380Y-77110714D01*
X103365476Y-77034523D01*
X103365476Y-76844047D01*
X103327380Y-76767857D01*
X103289285Y-76729761D01*
X103213095Y-76691666D01*
X103060714Y-76691666D01*
X102984523Y-76729761D01*
X102946428Y-76767857D01*
X102908333Y-76844047D01*
X97379761Y-79435714D02*
X97341666Y-79473809D01*
X97227380Y-79511904D01*
X97151190Y-79511904D01*
X97036904Y-79473809D01*
X96960714Y-79397619D01*
X96922619Y-79321428D01*
X96884523Y-79169047D01*
X96884523Y-79054761D01*
X96922619Y-78902380D01*
X96960714Y-78826190D01*
X97036904Y-78750000D01*
X97151190Y-78711904D01*
X97227380Y-78711904D01*
X97341666Y-78750000D01*
X97379761Y-78788095D01*
X97646428Y-78711904D02*
X98141666Y-78711904D01*
X97875000Y-79016666D01*
X97989285Y-79016666D01*
X98065476Y-79054761D01*
X98103571Y-79092857D01*
X98141666Y-79169047D01*
X98141666Y-79359523D01*
X98103571Y-79435714D01*
X98065476Y-79473809D01*
X97989285Y-79511904D01*
X97760714Y-79511904D01*
X97684523Y-79473809D01*
X97646428Y-79435714D01*
X98903571Y-79511904D02*
X98446428Y-79511904D01*
X98675000Y-79511904D02*
X98675000Y-78711904D01*
X98598809Y-78826190D01*
X98522619Y-78902380D01*
X98446428Y-78940476D01*
X99170238Y-78711904D02*
X99665476Y-78711904D01*
X99398809Y-79016666D01*
X99513095Y-79016666D01*
X99589285Y-79054761D01*
X99627380Y-79092857D01*
X99665476Y-79169047D01*
X99665476Y-79359523D01*
X99627380Y-79435714D01*
X99589285Y-79473809D01*
X99513095Y-79511904D01*
X99284523Y-79511904D01*
X99208333Y-79473809D01*
X99170238Y-79435714D01*
X154061904Y-63885238D02*
X153680952Y-64151904D01*
X154061904Y-64342380D02*
X153261904Y-64342380D01*
X153261904Y-64037619D01*
X153300000Y-63961428D01*
X153338095Y-63923333D01*
X153414285Y-63885238D01*
X153528571Y-63885238D01*
X153604761Y-63923333D01*
X153642857Y-63961428D01*
X153680952Y-64037619D01*
X153680952Y-64342380D01*
X153261904Y-63618571D02*
X153261904Y-63123333D01*
X153566666Y-63390000D01*
X153566666Y-63275714D01*
X153604761Y-63199523D01*
X153642857Y-63161428D01*
X153719047Y-63123333D01*
X153909523Y-63123333D01*
X153985714Y-63161428D01*
X154023809Y-63199523D01*
X154061904Y-63275714D01*
X154061904Y-63504285D01*
X154023809Y-63580476D01*
X153985714Y-63618571D01*
X153261904Y-62628095D02*
X153261904Y-62551904D01*
X153300000Y-62475714D01*
X153338095Y-62437619D01*
X153414285Y-62399523D01*
X153566666Y-62361428D01*
X153757142Y-62361428D01*
X153909523Y-62399523D01*
X153985714Y-62437619D01*
X154023809Y-62475714D01*
X154061904Y-62551904D01*
X154061904Y-62628095D01*
X154023809Y-62704285D01*
X153985714Y-62742380D01*
X153909523Y-62780476D01*
X153757142Y-62818571D01*
X153566666Y-62818571D01*
X153414285Y-62780476D01*
X153338095Y-62742380D01*
X153300000Y-62704285D01*
X153261904Y-62628095D01*
X153261904Y-61675714D02*
X153261904Y-61828095D01*
X153300000Y-61904285D01*
X153338095Y-61942380D01*
X153452380Y-62018571D01*
X153604761Y-62056666D01*
X153909523Y-62056666D01*
X153985714Y-62018571D01*
X154023809Y-61980476D01*
X154061904Y-61904285D01*
X154061904Y-61751904D01*
X154023809Y-61675714D01*
X153985714Y-61637619D01*
X153909523Y-61599523D01*
X153719047Y-61599523D01*
X153642857Y-61637619D01*
X153604761Y-61675714D01*
X153566666Y-61751904D01*
X153566666Y-61904285D01*
X153604761Y-61980476D01*
X153642857Y-62018571D01*
X153719047Y-62056666D01*
X100136904Y-72832738D02*
X100136904Y-73213690D01*
X99336904Y-73213690D01*
X99336904Y-72642261D02*
X99336904Y-72147023D01*
X99641666Y-72413690D01*
X99641666Y-72299404D01*
X99679761Y-72223214D01*
X99717857Y-72185119D01*
X99794047Y-72147023D01*
X99984523Y-72147023D01*
X100060714Y-72185119D01*
X100098809Y-72223214D01*
X100136904Y-72299404D01*
X100136904Y-72527976D01*
X100098809Y-72604166D01*
X100060714Y-72642261D01*
X99336904Y-71651785D02*
X99336904Y-71575595D01*
X99375000Y-71499404D01*
X99413095Y-71461309D01*
X99489285Y-71423214D01*
X99641666Y-71385119D01*
X99832142Y-71385119D01*
X99984523Y-71423214D01*
X100060714Y-71461309D01*
X100098809Y-71499404D01*
X100136904Y-71575595D01*
X100136904Y-71651785D01*
X100098809Y-71727976D01*
X100060714Y-71766071D01*
X99984523Y-71804166D01*
X99832142Y-71842261D01*
X99641666Y-71842261D01*
X99489285Y-71804166D01*
X99413095Y-71766071D01*
X99375000Y-71727976D01*
X99336904Y-71651785D01*
X100136904Y-70623214D02*
X100136904Y-71080357D01*
X100136904Y-70851785D02*
X99336904Y-70851785D01*
X99451190Y-70927976D01*
X99527380Y-71004166D01*
X99565476Y-71080357D01*
X104679761Y-67523214D02*
X104641666Y-67561309D01*
X104527380Y-67599404D01*
X104451190Y-67599404D01*
X104336904Y-67561309D01*
X104260714Y-67485119D01*
X104222619Y-67408928D01*
X104184523Y-67256547D01*
X104184523Y-67142261D01*
X104222619Y-66989880D01*
X104260714Y-66913690D01*
X104336904Y-66837500D01*
X104451190Y-66799404D01*
X104527380Y-66799404D01*
X104641666Y-66837500D01*
X104679761Y-66875595D01*
X104946428Y-66799404D02*
X105441666Y-66799404D01*
X105175000Y-67104166D01*
X105289285Y-67104166D01*
X105365476Y-67142261D01*
X105403571Y-67180357D01*
X105441666Y-67256547D01*
X105441666Y-67447023D01*
X105403571Y-67523214D01*
X105365476Y-67561309D01*
X105289285Y-67599404D01*
X105060714Y-67599404D01*
X104984523Y-67561309D01*
X104946428Y-67523214D01*
X106203571Y-67599404D02*
X105746428Y-67599404D01*
X105975000Y-67599404D02*
X105975000Y-66799404D01*
X105898809Y-66913690D01*
X105822619Y-66989880D01*
X105746428Y-67027976D01*
X106889285Y-66799404D02*
X106736904Y-66799404D01*
X106660714Y-66837500D01*
X106622619Y-66875595D01*
X106546428Y-66989880D01*
X106508333Y-67142261D01*
X106508333Y-67447023D01*
X106546428Y-67523214D01*
X106584523Y-67561309D01*
X106660714Y-67599404D01*
X106813095Y-67599404D01*
X106889285Y-67561309D01*
X106927380Y-67523214D01*
X106965476Y-67447023D01*
X106965476Y-67256547D01*
X106927380Y-67180357D01*
X106889285Y-67142261D01*
X106813095Y-67104166D01*
X106660714Y-67104166D01*
X106584523Y-67142261D01*
X106546428Y-67180357D01*
X106508333Y-67256547D01*
X108504761Y-77086904D02*
X108238095Y-76705952D01*
X108047619Y-77086904D02*
X108047619Y-76286904D01*
X108352380Y-76286904D01*
X108428571Y-76325000D01*
X108466666Y-76363095D01*
X108504761Y-76439285D01*
X108504761Y-76553571D01*
X108466666Y-76629761D01*
X108428571Y-76667857D01*
X108352380Y-76705952D01*
X108047619Y-76705952D01*
X108771428Y-76286904D02*
X109266666Y-76286904D01*
X109000000Y-76591666D01*
X109114285Y-76591666D01*
X109190476Y-76629761D01*
X109228571Y-76667857D01*
X109266666Y-76744047D01*
X109266666Y-76934523D01*
X109228571Y-77010714D01*
X109190476Y-77048809D01*
X109114285Y-77086904D01*
X108885714Y-77086904D01*
X108809523Y-77048809D01*
X108771428Y-77010714D01*
X110028571Y-77086904D02*
X109571428Y-77086904D01*
X109800000Y-77086904D02*
X109800000Y-76286904D01*
X109723809Y-76401190D01*
X109647619Y-76477380D01*
X109571428Y-76515476D01*
X110409523Y-77086904D02*
X110561904Y-77086904D01*
X110638095Y-77048809D01*
X110676190Y-77010714D01*
X110752380Y-76896428D01*
X110790476Y-76744047D01*
X110790476Y-76439285D01*
X110752380Y-76363095D01*
X110714285Y-76325000D01*
X110638095Y-76286904D01*
X110485714Y-76286904D01*
X110409523Y-76325000D01*
X110371428Y-76363095D01*
X110333333Y-76439285D01*
X110333333Y-76629761D01*
X110371428Y-76705952D01*
X110409523Y-76744047D01*
X110485714Y-76782142D01*
X110638095Y-76782142D01*
X110714285Y-76744047D01*
X110752380Y-76705952D01*
X110790476Y-76629761D01*
X104729761Y-79585714D02*
X104691666Y-79623809D01*
X104577380Y-79661904D01*
X104501190Y-79661904D01*
X104386904Y-79623809D01*
X104310714Y-79547619D01*
X104272619Y-79471428D01*
X104234523Y-79319047D01*
X104234523Y-79204761D01*
X104272619Y-79052380D01*
X104310714Y-78976190D01*
X104386904Y-78900000D01*
X104501190Y-78861904D01*
X104577380Y-78861904D01*
X104691666Y-78900000D01*
X104729761Y-78938095D01*
X104996428Y-78861904D02*
X105491666Y-78861904D01*
X105225000Y-79166666D01*
X105339285Y-79166666D01*
X105415476Y-79204761D01*
X105453571Y-79242857D01*
X105491666Y-79319047D01*
X105491666Y-79509523D01*
X105453571Y-79585714D01*
X105415476Y-79623809D01*
X105339285Y-79661904D01*
X105110714Y-79661904D01*
X105034523Y-79623809D01*
X104996428Y-79585714D01*
X106253571Y-79661904D02*
X105796428Y-79661904D01*
X106025000Y-79661904D02*
X106025000Y-78861904D01*
X105948809Y-78976190D01*
X105872619Y-79052380D01*
X105796428Y-79090476D01*
X106520238Y-78861904D02*
X107053571Y-78861904D01*
X106710714Y-79661904D01*
X102836904Y-73408928D02*
X103484523Y-73408928D01*
X103560714Y-73370833D01*
X103598809Y-73332738D01*
X103636904Y-73256547D01*
X103636904Y-73104166D01*
X103598809Y-73027976D01*
X103560714Y-72989880D01*
X103484523Y-72951785D01*
X102836904Y-72951785D01*
X102836904Y-72647023D02*
X102836904Y-72151785D01*
X103141666Y-72418452D01*
X103141666Y-72304166D01*
X103179761Y-72227976D01*
X103217857Y-72189880D01*
X103294047Y-72151785D01*
X103484523Y-72151785D01*
X103560714Y-72189880D01*
X103598809Y-72227976D01*
X103636904Y-72304166D01*
X103636904Y-72532738D01*
X103598809Y-72608928D01*
X103560714Y-72647023D01*
X102836904Y-71656547D02*
X102836904Y-71580357D01*
X102875000Y-71504166D01*
X102913095Y-71466071D01*
X102989285Y-71427976D01*
X103141666Y-71389880D01*
X103332142Y-71389880D01*
X103484523Y-71427976D01*
X103560714Y-71466071D01*
X103598809Y-71504166D01*
X103636904Y-71580357D01*
X103636904Y-71656547D01*
X103598809Y-71732738D01*
X103560714Y-71770833D01*
X103484523Y-71808928D01*
X103332142Y-71847023D01*
X103141666Y-71847023D01*
X102989285Y-71808928D01*
X102913095Y-71770833D01*
X102875000Y-71732738D01*
X102836904Y-71656547D01*
X102836904Y-70704166D02*
X102836904Y-70856547D01*
X102875000Y-70932738D01*
X102913095Y-70970833D01*
X103027380Y-71047023D01*
X103179761Y-71085119D01*
X103484523Y-71085119D01*
X103560714Y-71047023D01*
X103598809Y-71008928D01*
X103636904Y-70932738D01*
X103636904Y-70780357D01*
X103598809Y-70704166D01*
X103560714Y-70666071D01*
X103484523Y-70627976D01*
X103294047Y-70627976D01*
X103217857Y-70666071D01*
X103179761Y-70704166D01*
X103141666Y-70780357D01*
X103141666Y-70932738D01*
X103179761Y-71008928D01*
X103217857Y-71047023D01*
X103294047Y-71085119D01*
X148593571Y-66651904D02*
X148593571Y-67299523D01*
X148631666Y-67375714D01*
X148669761Y-67413809D01*
X148745952Y-67451904D01*
X148898333Y-67451904D01*
X148974523Y-67413809D01*
X149012619Y-67375714D01*
X149050714Y-67299523D01*
X149050714Y-66651904D01*
X149355476Y-66651904D02*
X149850714Y-66651904D01*
X149584047Y-66956666D01*
X149698333Y-66956666D01*
X149774523Y-66994761D01*
X149812619Y-67032857D01*
X149850714Y-67109047D01*
X149850714Y-67299523D01*
X149812619Y-67375714D01*
X149774523Y-67413809D01*
X149698333Y-67451904D01*
X149469761Y-67451904D01*
X149393571Y-67413809D01*
X149355476Y-67375714D01*
X150345952Y-66651904D02*
X150422142Y-66651904D01*
X150498333Y-66690000D01*
X150536428Y-66728095D01*
X150574523Y-66804285D01*
X150612619Y-66956666D01*
X150612619Y-67147142D01*
X150574523Y-67299523D01*
X150536428Y-67375714D01*
X150498333Y-67413809D01*
X150422142Y-67451904D01*
X150345952Y-67451904D01*
X150269761Y-67413809D01*
X150231666Y-67375714D01*
X150193571Y-67299523D01*
X150155476Y-67147142D01*
X150155476Y-66956666D01*
X150193571Y-66804285D01*
X150231666Y-66728095D01*
X150269761Y-66690000D01*
X150345952Y-66651904D01*
X151336428Y-66651904D02*
X150955476Y-66651904D01*
X150917380Y-67032857D01*
X150955476Y-66994761D01*
X151031666Y-66956666D01*
X151222142Y-66956666D01*
X151298333Y-66994761D01*
X151336428Y-67032857D01*
X151374523Y-67109047D01*
X151374523Y-67299523D01*
X151336428Y-67375714D01*
X151298333Y-67413809D01*
X151222142Y-67451904D01*
X151031666Y-67451904D01*
X150955476Y-67413809D01*
X150917380Y-67375714D01*
X97279761Y-77085714D02*
X97241666Y-77123809D01*
X97127380Y-77161904D01*
X97051190Y-77161904D01*
X96936904Y-77123809D01*
X96860714Y-77047619D01*
X96822619Y-76971428D01*
X96784523Y-76819047D01*
X96784523Y-76704761D01*
X96822619Y-76552380D01*
X96860714Y-76476190D01*
X96936904Y-76400000D01*
X97051190Y-76361904D01*
X97127380Y-76361904D01*
X97241666Y-76400000D01*
X97279761Y-76438095D01*
X97546428Y-76361904D02*
X98041666Y-76361904D01*
X97775000Y-76666666D01*
X97889285Y-76666666D01*
X97965476Y-76704761D01*
X98003571Y-76742857D01*
X98041666Y-76819047D01*
X98041666Y-77009523D01*
X98003571Y-77085714D01*
X97965476Y-77123809D01*
X97889285Y-77161904D01*
X97660714Y-77161904D01*
X97584523Y-77123809D01*
X97546428Y-77085714D01*
X98803571Y-77161904D02*
X98346428Y-77161904D01*
X98575000Y-77161904D02*
X98575000Y-76361904D01*
X98498809Y-76476190D01*
X98422619Y-76552380D01*
X98346428Y-76590476D01*
X99489285Y-76628571D02*
X99489285Y-77161904D01*
X99298809Y-76323809D02*
X99108333Y-76895238D01*
X99603571Y-76895238D01*
X148678571Y-60441904D02*
X148678571Y-61089523D01*
X148716666Y-61165714D01*
X148754761Y-61203809D01*
X148830952Y-61241904D01*
X148983333Y-61241904D01*
X149059523Y-61203809D01*
X149097619Y-61165714D01*
X149135714Y-61089523D01*
X149135714Y-60441904D01*
X149440476Y-60441904D02*
X149935714Y-60441904D01*
X149669047Y-60746666D01*
X149783333Y-60746666D01*
X149859523Y-60784761D01*
X149897619Y-60822857D01*
X149935714Y-60899047D01*
X149935714Y-61089523D01*
X149897619Y-61165714D01*
X149859523Y-61203809D01*
X149783333Y-61241904D01*
X149554761Y-61241904D01*
X149478571Y-61203809D01*
X149440476Y-61165714D01*
X150430952Y-60441904D02*
X150507142Y-60441904D01*
X150583333Y-60480000D01*
X150621428Y-60518095D01*
X150659523Y-60594285D01*
X150697619Y-60746666D01*
X150697619Y-60937142D01*
X150659523Y-61089523D01*
X150621428Y-61165714D01*
X150583333Y-61203809D01*
X150507142Y-61241904D01*
X150430952Y-61241904D01*
X150354761Y-61203809D01*
X150316666Y-61165714D01*
X150278571Y-61089523D01*
X150240476Y-60937142D01*
X150240476Y-60746666D01*
X150278571Y-60594285D01*
X150316666Y-60518095D01*
X150354761Y-60480000D01*
X150430952Y-60441904D01*
X150964285Y-60441904D02*
X151459523Y-60441904D01*
X151192857Y-60746666D01*
X151307142Y-60746666D01*
X151383333Y-60784761D01*
X151421428Y-60822857D01*
X151459523Y-60899047D01*
X151459523Y-61089523D01*
X151421428Y-61165714D01*
X151383333Y-61203809D01*
X151307142Y-61241904D01*
X151078571Y-61241904D01*
X151002380Y-61203809D01*
X150964285Y-61165714D01*
D13*
X101828733Y-67815000D02*
X102121267Y-67815000D01*
X101828733Y-68835000D02*
X102121267Y-68835000D01*
X65122500Y-76865000D02*
X62662500Y-76865000D01*
X62662500Y-78335000D02*
X65122500Y-78335000D01*
X62662500Y-76865000D02*
X62662500Y-78335000D01*
X80548610Y-76865000D02*
X78088610Y-76865000D01*
X78088610Y-78335000D02*
X80548610Y-78335000D01*
X78088610Y-76865000D02*
X78088610Y-78335000D01*
X85801666Y-76865000D02*
X85801666Y-78335000D01*
X85801666Y-78335000D02*
X88261666Y-78335000D01*
X88261666Y-76865000D02*
X85801666Y-76865000D01*
X72835555Y-76865000D02*
X70375555Y-76865000D01*
X70375555Y-78335000D02*
X72835555Y-78335000D01*
X70375555Y-76865000D02*
X70375555Y-78335000D01*
X56762500Y-48437500D02*
X95762500Y-48437500D01*
X56762500Y-76437500D02*
X56762500Y-48437500D01*
X56762500Y-76437500D02*
X95762500Y-76437500D01*
X95762500Y-76437500D02*
X95762500Y-48437500D01*
X140200276Y-70627500D02*
X140709724Y-70627500D01*
X140200276Y-71672500D02*
X140709724Y-71672500D01*
X140240276Y-69152500D02*
X140749724Y-69152500D01*
X140240276Y-68107500D02*
X140749724Y-68107500D01*
X152555276Y-53387500D02*
X153064724Y-53387500D01*
X152555276Y-54432500D02*
X153064724Y-54432500D01*
X145797500Y-52910000D02*
X145797500Y-54910000D01*
X145797500Y-52910000D02*
X149697500Y-52910000D01*
X145797500Y-54910000D02*
X149697500Y-54910000D01*
X109660000Y-71841233D02*
X109660000Y-72133767D01*
X108640000Y-71841233D02*
X108640000Y-72133767D01*
X148675000Y-63136263D02*
X148675000Y-64583737D01*
X145965000Y-63136263D02*
X145965000Y-64583737D01*
X105320276Y-75090000D02*
X105829724Y-75090000D01*
X105320276Y-76135000D02*
X105829724Y-76135000D01*
X101720276Y-76122500D02*
X102229724Y-76122500D01*
X101720276Y-75077500D02*
X102229724Y-75077500D01*
X98128733Y-77540000D02*
X98421267Y-77540000D01*
X98128733Y-78560000D02*
X98421267Y-78560000D01*
X150075000Y-63166263D02*
X150075000Y-64613737D01*
X152785000Y-63166263D02*
X152785000Y-64613737D01*
X102550000Y-69987500D02*
X102550000Y-73987500D01*
X100350000Y-69987500D02*
X100350000Y-73987500D01*
X105721267Y-67802500D02*
X105428733Y-67802500D01*
X105721267Y-68822500D02*
X105428733Y-68822500D01*
X109145276Y-76147500D02*
X109654724Y-76147500D01*
X109145276Y-75102500D02*
X109654724Y-75102500D01*
X105721267Y-78547500D02*
X105428733Y-78547500D01*
X105721267Y-77527500D02*
X105428733Y-77527500D01*
X103965000Y-71087500D02*
X103965000Y-72887500D01*
X107185000Y-72887500D02*
X107185000Y-69937500D01*
X149900000Y-67930000D02*
X152175000Y-67930000D01*
X149900000Y-71850000D02*
X152175000Y-71850000D01*
X149900000Y-71850000D02*
X147625000Y-71850000D01*
X149900000Y-67930000D02*
X145850000Y-67930000D01*
X98128733Y-75090000D02*
X98421267Y-75090000D01*
X98128733Y-76110000D02*
X98421267Y-76110000D01*
X149955000Y-56265000D02*
X145905000Y-56265000D01*
X149955000Y-56265000D02*
X152230000Y-56265000D01*
X149955000Y-60185000D02*
X147680000Y-60185000D01*
X149955000Y-60185000D02*
X152230000Y-60185000D01*
G36*
X120199397Y-68947434D02*
G01*
X119490114Y-68947434D01*
X119490114Y-70423510D01*
X118742491Y-70423510D01*
X118742491Y-68947434D01*
X118033208Y-68947434D01*
X118033208Y-68391510D01*
X120199397Y-68391510D01*
X120199397Y-68947434D01*
G37*
G36*
X130694868Y-68384350D02*
G01*
X130821958Y-68385397D01*
X130920039Y-68388219D01*
X130998429Y-68393732D01*
X131066451Y-68402853D01*
X131133423Y-68416499D01*
X131204574Y-68434492D01*
X131415657Y-68505303D01*
X131598758Y-68596862D01*
X131752391Y-68707792D01*
X131875070Y-68836717D01*
X131965306Y-68982261D01*
X132021615Y-69143047D01*
X132032844Y-69201434D01*
X132043930Y-69273321D01*
X131265029Y-69273321D01*
X131242250Y-69218328D01*
X131194069Y-69143028D01*
X131117301Y-69071230D01*
X131021378Y-69011412D01*
X131001585Y-69002019D01*
X130904712Y-68971503D01*
X130784885Y-68953182D01*
X130655632Y-68947450D01*
X130530478Y-68954704D01*
X130422949Y-68975339D01*
X130395848Y-68984310D01*
X130274646Y-69047760D01*
X130182779Y-69134401D01*
X130122149Y-69241335D01*
X130094655Y-69365662D01*
X130094576Y-69443704D01*
X130119785Y-69571225D01*
X130175929Y-69676305D01*
X130264001Y-69760445D01*
X130330012Y-69800197D01*
X130380419Y-69824819D01*
X130423638Y-69841239D01*
X130469522Y-69851111D01*
X130527922Y-69856089D01*
X130608689Y-69857826D01*
X130674430Y-69858000D01*
X130778106Y-69857078D01*
X130853137Y-69853441D01*
X130909193Y-69845786D01*
X130955945Y-69832809D01*
X131001585Y-69813886D01*
X131100348Y-69756485D01*
X131181481Y-69686040D01*
X131235703Y-69610927D01*
X131242250Y-69596691D01*
X131265029Y-69541698D01*
X132041106Y-69541698D01*
X132022829Y-69642340D01*
X131974889Y-69801120D01*
X131892227Y-69948075D01*
X131777303Y-70080719D01*
X131632581Y-70196567D01*
X131460522Y-70293133D01*
X131323165Y-70348611D01*
X131179737Y-70387710D01*
X131010697Y-70416504D01*
X130827596Y-70434108D01*
X130641986Y-70439640D01*
X130465418Y-70432216D01*
X130370582Y-70421463D01*
X130142300Y-70373701D01*
X129938833Y-70301229D01*
X129761814Y-70205189D01*
X129612873Y-70086729D01*
X129493645Y-69946991D01*
X129405760Y-69787123D01*
X129383569Y-69729138D01*
X129341961Y-69554942D01*
X129331175Y-69371402D01*
X129342783Y-69244566D01*
X129389919Y-69065393D01*
X129470557Y-68903253D01*
X129583159Y-68759620D01*
X129726185Y-68635970D01*
X129898097Y-68533776D01*
X130097356Y-68454514D01*
X130196453Y-68426491D01*
X130269489Y-68409652D01*
X130338232Y-68397800D01*
X130411918Y-68390152D01*
X130499783Y-68385929D01*
X130611062Y-68384348D01*
X130694868Y-68384350D01*
G37*
G36*
X129170868Y-70423510D02*
G01*
X128423246Y-70423510D01*
X128423246Y-68391510D01*
X129170868Y-68391510D01*
X129170868Y-70423510D01*
G37*
G36*
X114156114Y-68395855D02*
G01*
X114367660Y-68397389D01*
X114544472Y-68398889D01*
X114690155Y-68400521D01*
X114808314Y-68402455D01*
X114902553Y-68404859D01*
X114976477Y-68407900D01*
X115033692Y-68411746D01*
X115077802Y-68416567D01*
X115112413Y-68422529D01*
X115141128Y-68429801D01*
X115167553Y-68438550D01*
X115181374Y-68443660D01*
X115335727Y-68517421D01*
X115457254Y-68610546D01*
X115546633Y-68724092D01*
X115604544Y-68859112D01*
X115631664Y-69016660D01*
X115632532Y-69144141D01*
X115618315Y-69282800D01*
X115588949Y-69394492D01*
X115540670Y-69488861D01*
X115469713Y-69575552D01*
X115460475Y-69584920D01*
X115374830Y-69658123D01*
X115279122Y-69713021D01*
X115161710Y-69755695D01*
X115103951Y-69771231D01*
X115041528Y-69788377D01*
X114996558Y-69803784D01*
X114979347Y-69813599D01*
X114992272Y-69828919D01*
X115030568Y-69865385D01*
X115090279Y-69919450D01*
X115167446Y-69987569D01*
X115258113Y-70066194D01*
X115326456Y-70124699D01*
X115677288Y-70423510D01*
X115221022Y-70423364D01*
X114764755Y-70423219D01*
X114435747Y-70107062D01*
X114328918Y-70005009D01*
X114245476Y-69926999D01*
X114181677Y-69869984D01*
X114133779Y-69830916D01*
X114098039Y-69806746D01*
X114070714Y-69794426D01*
X114048061Y-69790907D01*
X114047558Y-69790906D01*
X113988378Y-69790906D01*
X113988378Y-70423510D01*
X113240755Y-70423510D01*
X113240755Y-69369170D01*
X113988378Y-69369170D01*
X114340159Y-69369170D01*
X114463816Y-69368035D01*
X114573851Y-69364854D01*
X114663605Y-69359959D01*
X114726421Y-69353684D01*
X114751045Y-69348566D01*
X114818017Y-69307158D01*
X114857679Y-69239025D01*
X114870189Y-69148131D01*
X114867044Y-69082753D01*
X114854864Y-69031641D01*
X114829530Y-68993076D01*
X114786926Y-68965339D01*
X114722932Y-68946710D01*
X114633431Y-68935469D01*
X114514305Y-68929897D01*
X114361435Y-68928276D01*
X114343635Y-68928264D01*
X113988378Y-68928264D01*
X113988378Y-69369170D01*
X113240755Y-69369170D01*
X113240755Y-68389459D01*
X114156114Y-68395855D01*
G37*
G36*
X127005475Y-68918098D02*
G01*
X127090928Y-69044244D01*
X127170385Y-69159585D01*
X127241170Y-69260387D01*
X127300607Y-69342917D01*
X127346020Y-69403441D01*
X127374732Y-69438223D01*
X127383283Y-69445268D01*
X127390700Y-69437132D01*
X127396529Y-69410076D01*
X127400924Y-69360726D01*
X127404037Y-69285708D01*
X127406023Y-69181650D01*
X127407034Y-69045177D01*
X127407246Y-68918680D01*
X127407246Y-68391510D01*
X128135699Y-68391510D01*
X128135699Y-70423510D01*
X127709170Y-70423504D01*
X127282642Y-70423499D01*
X126918942Y-69915504D01*
X126830817Y-69793031D01*
X126749486Y-69681179D01*
X126677686Y-69583621D01*
X126618155Y-69504028D01*
X126573629Y-69446073D01*
X126546845Y-69413428D01*
X126540338Y-69407510D01*
X126536376Y-69425848D01*
X126532810Y-69477540D01*
X126529787Y-69557600D01*
X126527452Y-69661043D01*
X126525953Y-69782882D01*
X126525434Y-69915510D01*
X126525434Y-70423510D01*
X125777812Y-70423510D01*
X125777812Y-68391510D01*
X126651630Y-68391510D01*
X127005475Y-68918098D01*
G37*
G36*
X117899019Y-68947434D02*
G01*
X116595472Y-68947434D01*
X116595472Y-69177472D01*
X117899019Y-69177472D01*
X117899019Y-69656717D01*
X116595472Y-69656717D01*
X116595472Y-69867585D01*
X117899019Y-69867585D01*
X117899019Y-70423510D01*
X115847849Y-70423510D01*
X115847849Y-68391510D01*
X117899019Y-68391510D01*
X117899019Y-68947434D01*
G37*
G36*
X124374809Y-68039991D02*
G01*
X124458576Y-68043382D01*
X124525372Y-68050650D01*
X124585871Y-68063119D01*
X124650749Y-68082111D01*
X124675548Y-68090238D01*
X124854201Y-68162141D01*
X125013301Y-68254499D01*
X125163974Y-68374287D01*
X125232181Y-68439187D01*
X125312754Y-68523341D01*
X125373312Y-68597759D01*
X125423982Y-68676402D01*
X125474891Y-68773228D01*
X125475716Y-68774906D01*
X125560790Y-68989293D01*
X125609500Y-69209378D01*
X125621957Y-69431310D01*
X125598272Y-69651240D01*
X125538557Y-69865320D01*
X125442923Y-70069700D01*
X125438038Y-70078159D01*
X125332841Y-70227574D01*
X125198778Y-70369476D01*
X125045322Y-70495756D01*
X124881942Y-70598310D01*
X124769247Y-70650656D01*
X124644351Y-70691074D01*
X124504890Y-70721786D01*
X124362680Y-70741258D01*
X124229536Y-70747959D01*
X124117274Y-70740355D01*
X124100453Y-70737399D01*
X124060388Y-70729555D01*
X123999157Y-70717614D01*
X123956680Y-70709347D01*
X123864375Y-70683041D01*
X123753470Y-70638701D01*
X123635489Y-70582008D01*
X123521954Y-70518646D01*
X123424389Y-70454298D01*
X123397096Y-70433361D01*
X123265156Y-70306345D01*
X123145230Y-70149564D01*
X123043448Y-69971138D01*
X123035177Y-69953849D01*
X122955486Y-69741734D01*
X122912759Y-69525676D01*
X122906353Y-69309206D01*
X122935627Y-69095849D01*
X122999939Y-68889136D01*
X123098647Y-68692594D01*
X123231109Y-68509751D01*
X123314115Y-68420264D01*
X123477891Y-68279504D01*
X123655766Y-68170744D01*
X123851246Y-68090238D01*
X123920016Y-68068742D01*
X123980801Y-68054216D01*
X124044275Y-68045339D01*
X124121112Y-68040785D01*
X124221986Y-68039234D01*
X124263397Y-68039155D01*
X124374809Y-68039991D01*
G37*
G36*
X133621976Y-68395210D02*
G01*
X133825424Y-68434037D01*
X134006688Y-68491909D01*
X134163354Y-68567697D01*
X134293007Y-68660272D01*
X134393234Y-68768505D01*
X134461618Y-68891266D01*
X134492433Y-69003185D01*
X134504976Y-69081623D01*
X133749978Y-69081623D01*
X133703362Y-69026223D01*
X133632553Y-68967224D01*
X133532994Y-68925811D01*
X133402088Y-68901071D01*
X133330717Y-68895042D01*
X133188439Y-68894435D01*
X133075872Y-68911808D01*
X132988399Y-68948069D01*
X132959409Y-68968060D01*
X132917379Y-69020095D01*
X132908982Y-69077279D01*
X132934141Y-69130156D01*
X132960854Y-69153068D01*
X132981136Y-69163672D01*
X133009150Y-69172175D01*
X133049604Y-69178967D01*
X133107205Y-69184441D01*
X133186661Y-69188986D01*
X133292680Y-69192995D01*
X133429970Y-69196858D01*
X133511986Y-69198862D01*
X133668939Y-69202890D01*
X133793119Y-69207000D01*
X133890092Y-69211658D01*
X133965422Y-69217328D01*
X134024675Y-69224477D01*
X134073415Y-69233570D01*
X134117207Y-69245073D01*
X134136651Y-69251117D01*
X134271208Y-69311895D01*
X134376945Y-69397903D01*
X134453502Y-69508679D01*
X134500519Y-69643765D01*
X134514175Y-69733767D01*
X134509925Y-69878827D01*
X134470593Y-70010376D01*
X134397477Y-70127003D01*
X134291874Y-70227299D01*
X134155083Y-70309853D01*
X133988400Y-70373256D01*
X133905812Y-70394748D01*
X133817075Y-70409593D01*
X133700037Y-70421414D01*
X133564644Y-70429898D01*
X133420837Y-70434732D01*
X133278561Y-70435602D01*
X133147759Y-70432195D01*
X133038376Y-70424198D01*
X133024000Y-70422531D01*
X132835696Y-70388397D01*
X132659678Y-70335341D01*
X132503038Y-70266236D01*
X132372869Y-70183958D01*
X132317051Y-70136005D01*
X132250026Y-70056127D01*
X132192731Y-69960636D01*
X132152745Y-69863802D01*
X132138843Y-69800491D01*
X132132604Y-69742981D01*
X132504314Y-69737766D01*
X132632664Y-69736153D01*
X132728086Y-69735734D01*
X132795986Y-69736968D01*
X132841770Y-69740311D01*
X132870843Y-69746223D01*
X132888610Y-69755160D01*
X132900476Y-69767581D01*
X132903354Y-69771569D01*
X132959436Y-69822814D01*
X133045965Y-69865545D01*
X133155614Y-69897794D01*
X133281053Y-69917589D01*
X133414953Y-69922960D01*
X133459992Y-69921217D01*
X133584714Y-69905333D01*
X133675143Y-69874692D01*
X133730871Y-69829588D01*
X133751488Y-69770319D01*
X133743301Y-69715590D01*
X133732868Y-69691076D01*
X133716033Y-69671512D01*
X133688570Y-69656191D01*
X133646251Y-69644401D01*
X133584850Y-69635434D01*
X133500141Y-69628580D01*
X133387895Y-69623130D01*
X133243888Y-69618374D01*
X133148604Y-69615771D01*
X132959275Y-69609761D01*
X132803657Y-69601955D01*
X132677131Y-69591374D01*
X132575077Y-69577039D01*
X132492877Y-69557972D01*
X132425911Y-69533193D01*
X132369560Y-69501724D01*
X132319203Y-69462586D01*
X132288430Y-69433503D01*
X132219218Y-69350267D01*
X132176320Y-69260759D01*
X132155614Y-69154051D01*
X132152106Y-69072038D01*
X132154252Y-68984520D01*
X132163342Y-68918982D01*
X132182674Y-68859239D01*
X132205796Y-68808667D01*
X132285015Y-68690577D01*
X132397351Y-68590527D01*
X132541869Y-68508938D01*
X132717634Y-68446232D01*
X132923711Y-68402831D01*
X133158189Y-68379209D01*
X133398760Y-68376558D01*
X133621976Y-68395210D01*
G37*
G36*
X121287283Y-68395855D02*
G01*
X121498830Y-68397389D01*
X121675642Y-68398889D01*
X121821325Y-68400521D01*
X121939484Y-68402455D01*
X122033723Y-68404859D01*
X122107647Y-68407900D01*
X122164862Y-68411746D01*
X122208972Y-68416567D01*
X122243582Y-68422529D01*
X122272298Y-68429801D01*
X122298723Y-68438550D01*
X122312544Y-68443660D01*
X122466897Y-68517421D01*
X122588424Y-68610546D01*
X122677803Y-68724092D01*
X122735714Y-68859112D01*
X122762834Y-69016660D01*
X122763702Y-69144141D01*
X122749485Y-69282800D01*
X122720119Y-69394492D01*
X122671839Y-69488861D01*
X122600883Y-69575552D01*
X122591644Y-69584920D01*
X122506000Y-69658123D01*
X122410292Y-69713021D01*
X122292880Y-69755695D01*
X122235121Y-69771231D01*
X122172698Y-69788377D01*
X122127728Y-69803784D01*
X122110517Y-69813599D01*
X122123442Y-69828919D01*
X122161738Y-69865385D01*
X122221449Y-69919450D01*
X122298616Y-69987569D01*
X122389283Y-70066194D01*
X122457625Y-70124699D01*
X122808458Y-70423510D01*
X122352191Y-70423364D01*
X121895925Y-70423219D01*
X121566917Y-70107062D01*
X121460088Y-70005009D01*
X121376646Y-69926999D01*
X121312847Y-69869984D01*
X121264949Y-69830916D01*
X121229209Y-69806746D01*
X121201884Y-69794426D01*
X121179231Y-69790907D01*
X121178728Y-69790906D01*
X121119548Y-69790906D01*
X121119548Y-70423510D01*
X120371925Y-70423510D01*
X120371925Y-69369170D01*
X121119548Y-69369170D01*
X121471328Y-69369170D01*
X121594986Y-69368035D01*
X121705021Y-69364854D01*
X121794775Y-69359959D01*
X121857591Y-69353684D01*
X121882215Y-69348566D01*
X121949186Y-69307158D01*
X121988848Y-69239025D01*
X122001359Y-69148131D01*
X121998214Y-69082753D01*
X121986034Y-69031641D01*
X121960700Y-68993076D01*
X121918095Y-68965339D01*
X121854102Y-68946710D01*
X121764601Y-68935469D01*
X121645474Y-68929897D01*
X121492605Y-68928276D01*
X121474805Y-68928264D01*
X121119548Y-68928264D01*
X121119548Y-69369170D01*
X120371925Y-69369170D01*
X120371925Y-68389459D01*
X121287283Y-68395855D01*
G37*
%LPC*%
D14*
X74170000Y-47180000D03*
D15*
X79250000Y-47180000D03*
X81790000Y-47180000D03*
X84330000Y-47180000D03*
X86870000Y-47180000D03*
D16*
X102837500Y-68325000D03*
X101112500Y-68325000D03*
D17*
X66820000Y-45950500D03*
X66820000Y-48554000D03*
D18*
X63447500Y-77600000D03*
X65197500Y-77600000D03*
X78873610Y-77600000D03*
X80623610Y-77600000D03*
X88336666Y-77600000D03*
X86586666Y-77600000D03*
X71160555Y-77600000D03*
X72910555Y-77600000D03*
D19*
X93262500Y-50237500D03*
X93262500Y-74637500D03*
D14*
X57762500Y-70057500D03*
D20*
X57762500Y-67517500D03*
X57762500Y-64977500D03*
X57762500Y-62437500D03*
X57762500Y-59897500D03*
X57762500Y-57357500D03*
X57762500Y-54817500D03*
D21*
X139542500Y-71150000D03*
X141367500Y-71150000D03*
X141407500Y-68630000D03*
X139582500Y-68630000D03*
X151897500Y-53910000D03*
X153722500Y-53910000D03*
D15*
X144350000Y-71130000D03*
D14*
X144350000Y-68590000D03*
X144355000Y-56925000D03*
D15*
X144355000Y-59465000D03*
D22*
X146397500Y-53910000D03*
X149697500Y-53910000D03*
D23*
X109150000Y-72850000D03*
X109150000Y-71125000D03*
D24*
X147320000Y-65410000D03*
X147320000Y-62310000D03*
D21*
X106487500Y-75612500D03*
X104662500Y-75612500D03*
D25*
X151500000Y-48500000D03*
D21*
X102887500Y-75600000D03*
X101062500Y-75600000D03*
D14*
X98000000Y-56175000D03*
D15*
X98000000Y-58715000D03*
X98000000Y-61255000D03*
X98000000Y-63795000D03*
X98000000Y-66335000D03*
X98000000Y-68875000D03*
D25*
X151500000Y-76500000D03*
X58500000Y-76500000D03*
D16*
X99137500Y-78050000D03*
X97412500Y-78050000D03*
D24*
X151430000Y-65440000D03*
X151430000Y-62340000D03*
D26*
X101450000Y-73162500D03*
X101450000Y-70812500D03*
D27*
X104712500Y-68312500D03*
X106437500Y-68312500D03*
D21*
X110312500Y-75625000D03*
X108487500Y-75625000D03*
D27*
X104712500Y-78037500D03*
X106437500Y-78037500D03*
D28*
X106525000Y-70637500D03*
X105575000Y-70637500D03*
X104625000Y-70637500D03*
X104625000Y-73337500D03*
X105575000Y-73337500D03*
X106525000Y-73337500D03*
D29*
X153150000Y-68620000D03*
X153150000Y-71160000D03*
X146650000Y-71160000D03*
X146650000Y-68620000D03*
D16*
X99137500Y-75600000D03*
X97412500Y-75600000D03*
D25*
X58500000Y-48500000D03*
D29*
X153205000Y-56955000D03*
X153205000Y-59495000D03*
X146705000Y-59495000D03*
X146705000Y-56955000D03*
M02*
