M48
; DRILL file {KiCad (6.0.9)} date Mon Nov 14 13:49:11 2022
; FORMAT={-:-/ absolute / metric / decimal}
; #@! TF.CreationDate,2022-11-14T13:49:11+01:00
; #@! TF.GenerationSoftware,Kicad,Pcbnew,(6.0.9)
; #@! TF.FileFunction,Plated,1,2,PTH
FMAT,2
METRIC
; #@! TA.AperFunction,Plated,PTH,ViaDrill
T1C0.400
; #@! TA.AperFunction,Plated,PTH,ComponentDrill
T2C1.000
%
G90
G05
T1
X71.2Y-77.5
X82.5Y-77.45
X89.5Y-78.0
X94.25Y-56.25
X95.5Y-48.5
X97.7Y-62.5
X99.9Y-59.1
X100.65Y-50.7
X103.4Y-75.6
X103.8Y-66.1
X109.75Y-54.25
X109.9Y-73.2
X110.262Y-47.885
X115.6Y-60.8
X116.525Y-58.475
X118.1Y-53.2
X120.075Y-58.7
X120.15Y-56.3
X121.4Y-53.0
X123.7Y-64.325
X123.7Y-69.85
X124.1Y-56.1
X124.7Y-64.3
X126.475Y-65.075
X126.5Y-74.275
X128.2Y-67.2
X128.5Y-59.5
X130.487Y-77.062
X133.15Y-72.35
X134.1Y-46.95
X135.3Y-55.4
X138.15Y-78.85
X139.5Y-68.1
X139.6Y-64.8
X139.7Y-75.3
X142.2Y-55.4
X144.4Y-72.65
X147.85Y-78.75
X150.1Y-69.3
X150.85Y-58.8
T2
X57.762Y-54.817
X57.762Y-57.357
X57.762Y-59.897
X57.762Y-62.438
X57.762Y-64.977
X57.762Y-67.517
X57.762Y-70.057
X92.0Y-63.38
X92.0Y-65.92
X92.0Y-68.46
X92.0Y-71.0
X94.54Y-63.38
X94.54Y-65.92
X94.54Y-68.46
X94.54Y-71.0
X109.718Y-77.5
X112.258Y-77.5
X114.798Y-77.5
X117.338Y-77.5
X119.878Y-77.5
X122.418Y-77.5
T0
M30
