G04 #@! TF.GenerationSoftware,KiCad,Pcbnew,(6.0.10)*
G04 #@! TF.CreationDate,2023-01-23T18:05:13+01:00*
G04 #@! TF.ProjectId,HeaterMCU,48656174-6572-44d4-9355-2e6b69636164,rev?*
G04 #@! TF.SameCoordinates,Original*
G04 #@! TF.FileFunction,Copper,L2,Bot*
G04 #@! TF.FilePolarity,Positive*
%FSLAX46Y46*%
G04 Gerber Fmt 4.6, Leading zero omitted, Abs format (unit mm)*
G04 Created by KiCad (PCBNEW (6.0.10)) date 2023-01-23 18:05:13*
%MOMM*%
%LPD*%
G01*
G04 APERTURE LIST*
G04 Aperture macros list*
%AMRoundRect*
0 Rectangle with rounded corners*
0 $1 Rounding radius*
0 $2 $3 $4 $5 $6 $7 $8 $9 X,Y pos of 4 corners*
0 Add a 4 corners polygon primitive as box body*
4,1,4,$2,$3,$4,$5,$6,$7,$8,$9,$2,$3,0*
0 Add four circle primitives for the rounded corners*
1,1,$1+$1,$2,$3*
1,1,$1+$1,$4,$5*
1,1,$1+$1,$6,$7*
1,1,$1+$1,$8,$9*
0 Add four rect primitives between the rounded corners*
20,1,$1+$1,$2,$3,$4,$5,0*
20,1,$1+$1,$4,$5,$6,$7,0*
20,1,$1+$1,$6,$7,$8,$9,0*
20,1,$1+$1,$8,$9,$2,$3,0*%
G04 Aperture macros list end*
G04 #@! TA.AperFunction,SMDPad,CuDef*
%ADD10RoundRect,0.237500X0.250000X0.237500X-0.250000X0.237500X-0.250000X-0.237500X0.250000X-0.237500X0*%
G04 #@! TD*
G04 #@! TA.AperFunction,ComponentPad*
%ADD11R,1.700000X1.700000*%
G04 #@! TD*
G04 #@! TA.AperFunction,ComponentPad*
%ADD12C,1.700000*%
G04 #@! TD*
G04 #@! TA.AperFunction,SMDPad,CuDef*
%ADD13RoundRect,0.237500X-0.250000X-0.237500X0.250000X-0.237500X0.250000X0.237500X-0.250000X0.237500X0*%
G04 #@! TD*
G04 #@! TA.AperFunction,SMDPad,CuDef*
%ADD14RoundRect,0.237500X0.237500X-0.300000X0.237500X0.300000X-0.237500X0.300000X-0.237500X-0.300000X0*%
G04 #@! TD*
G04 #@! TA.AperFunction,SMDPad,CuDef*
%ADD15R,0.550000X1.500000*%
G04 #@! TD*
G04 #@! TA.AperFunction,SMDPad,CuDef*
%ADD16R,1.500000X0.550000*%
G04 #@! TD*
G04 #@! TA.AperFunction,SMDPad,CuDef*
%ADD17RoundRect,0.237500X-0.300000X-0.237500X0.300000X-0.237500X0.300000X0.237500X-0.300000X0.237500X0*%
G04 #@! TD*
G04 #@! TA.AperFunction,SMDPad,CuDef*
%ADD18RoundRect,0.237500X0.300000X0.237500X-0.300000X0.237500X-0.300000X-0.237500X0.300000X-0.237500X0*%
G04 #@! TD*
G04 #@! TA.AperFunction,SMDPad,CuDef*
%ADD19RoundRect,0.237500X-0.237500X0.300000X-0.237500X-0.300000X0.237500X-0.300000X0.237500X0.300000X0*%
G04 #@! TD*
G04 #@! TA.AperFunction,SMDPad,CuDef*
%ADD20R,1.560000X0.400000*%
G04 #@! TD*
G04 #@! TA.AperFunction,SMDPad,CuDef*
%ADD21RoundRect,0.150000X-0.150000X0.587500X-0.150000X-0.587500X0.150000X-0.587500X0.150000X0.587500X0*%
G04 #@! TD*
G04 #@! TA.AperFunction,ComponentPad*
%ADD22O,1.700000X1.700000*%
G04 #@! TD*
G04 #@! TA.AperFunction,SMDPad,CuDef*
%ADD23R,2.000000X4.500000*%
G04 #@! TD*
G04 #@! TA.AperFunction,SMDPad,CuDef*
%ADD24RoundRect,0.237500X0.237500X-0.250000X0.237500X0.250000X-0.237500X0.250000X-0.237500X-0.250000X0*%
G04 #@! TD*
G04 #@! TA.AperFunction,SMDPad,CuDef*
%ADD25R,1.600000X1.200000*%
G04 #@! TD*
G04 #@! TA.AperFunction,SMDPad,CuDef*
%ADD26RoundRect,0.237500X-0.237500X0.250000X-0.237500X-0.250000X0.237500X-0.250000X0.237500X0.250000X0*%
G04 #@! TD*
G04 #@! TA.AperFunction,ViaPad*
%ADD27C,0.800000*%
G04 #@! TD*
G04 #@! TA.AperFunction,Conductor*
%ADD28C,0.250000*%
G04 #@! TD*
G04 #@! TA.AperFunction,Conductor*
%ADD29C,0.500000*%
G04 #@! TD*
G04 APERTURE END LIST*
D10*
X88612500Y-49900000D03*
X86787500Y-49900000D03*
D11*
X57762500Y-70057500D03*
D12*
X57762500Y-67517500D03*
X57762500Y-64977500D03*
X57762500Y-62437500D03*
X57762500Y-59897500D03*
X57762500Y-57357500D03*
X57762500Y-54817500D03*
D13*
X74362500Y-55700000D03*
X72537500Y-55700000D03*
D10*
X84512500Y-49900000D03*
X82687500Y-49900000D03*
D14*
X67550000Y-64562500D03*
X67550000Y-62837500D03*
D15*
X83300000Y-66800000D03*
X82500000Y-66800000D03*
X81700000Y-66800000D03*
X80900000Y-66800000D03*
X80100000Y-66800000D03*
X79300000Y-66800000D03*
X78500000Y-66800000D03*
X77700000Y-66800000D03*
D16*
X76300000Y-65400000D03*
X76300000Y-64600000D03*
X76300000Y-63800000D03*
X76300000Y-63000000D03*
X76300000Y-62200000D03*
X76300000Y-61400000D03*
X76300000Y-60600000D03*
X76300000Y-59800000D03*
D15*
X77700000Y-58400000D03*
X78500000Y-58400000D03*
X79300000Y-58400000D03*
X80100000Y-58400000D03*
X80900000Y-58400000D03*
X81700000Y-58400000D03*
X82500000Y-58400000D03*
X83300000Y-58400000D03*
D16*
X84700000Y-59800000D03*
X84700000Y-60600000D03*
X84700000Y-61400000D03*
X84700000Y-62200000D03*
X84700000Y-63000000D03*
X84700000Y-63800000D03*
X84700000Y-64600000D03*
X84700000Y-65400000D03*
D17*
X89437500Y-58800000D03*
X91162500Y-58800000D03*
D18*
X149862500Y-67000000D03*
X148137500Y-67000000D03*
D19*
X67550000Y-71287500D03*
X67550000Y-73012500D03*
D20*
X91650000Y-55120000D03*
X91650000Y-55770000D03*
X91650000Y-56430000D03*
X91650000Y-57080000D03*
X88950000Y-57080000D03*
X88950000Y-56430000D03*
X88950000Y-55770000D03*
X88950000Y-55120000D03*
D13*
X148087500Y-65250000D03*
X149912500Y-65250000D03*
D21*
X148050000Y-59062500D03*
X149950000Y-59062500D03*
X149000000Y-60937500D03*
D18*
X81362500Y-68800000D03*
X79637500Y-68800000D03*
D14*
X60275000Y-70087500D03*
X60275000Y-68362500D03*
D11*
X89550000Y-77400000D03*
D22*
X84470000Y-77400000D03*
X81930000Y-77400000D03*
X79390000Y-77400000D03*
X76850000Y-77400000D03*
D10*
X91212500Y-62200000D03*
X89387500Y-62200000D03*
D23*
X71250000Y-72150000D03*
X71250000Y-63650000D03*
D24*
X152000000Y-66825000D03*
X152000000Y-65000000D03*
D25*
X70799500Y-78257500D03*
X66100500Y-78257500D03*
X70799500Y-76373000D03*
X66100500Y-76373000D03*
D18*
X81462500Y-55700000D03*
X79737500Y-55700000D03*
D13*
X148087500Y-63500000D03*
X149912500Y-63500000D03*
D11*
X123425000Y-53725000D03*
D22*
X123425000Y-56265000D03*
X123425000Y-58805000D03*
X123425000Y-61345000D03*
X123425000Y-63885000D03*
X123425000Y-66425000D03*
X123425000Y-68965000D03*
X123425000Y-71505000D03*
D14*
X73150000Y-76475000D03*
X73150000Y-78200000D03*
D17*
X76137500Y-55700000D03*
X77862500Y-55700000D03*
D14*
X94400000Y-56962500D03*
X94400000Y-55237500D03*
D13*
X89387500Y-60500000D03*
X91212500Y-60500000D03*
D26*
X63850000Y-78250000D03*
X63850000Y-76425000D03*
D27*
X95050000Y-65500000D03*
X77950000Y-65000000D03*
X75300000Y-51250000D03*
X89800000Y-49750000D03*
X84500000Y-48950000D03*
X101650000Y-68300000D03*
X103550000Y-58750000D03*
X96800000Y-63700000D03*
X96750000Y-71900000D03*
X90650000Y-51250000D03*
X74700000Y-70000000D03*
X79750000Y-74350000D03*
X90100000Y-74800000D03*
X118500000Y-54100000D03*
X119600000Y-59000000D03*
X118000000Y-66150000D03*
X132050000Y-51150000D03*
X130750000Y-56600000D03*
X129750000Y-62200000D03*
X126350000Y-66800000D03*
X133100000Y-64400000D03*
X143600000Y-63400000D03*
X145450000Y-70850000D03*
X132050000Y-78550000D03*
X131900000Y-74950000D03*
X114150000Y-72050000D03*
X121350000Y-71950000D03*
X126750000Y-63450000D03*
X130250000Y-66850000D03*
X126900000Y-69100000D03*
X101100000Y-49850000D03*
X102250000Y-65250000D03*
X86816247Y-59776368D03*
X131150000Y-64300000D03*
X82850000Y-68600000D03*
X118350000Y-74400000D03*
X76250000Y-66050000D03*
X77600000Y-63000000D03*
X130350000Y-60350000D03*
X128450000Y-60350000D03*
X126900000Y-52150000D03*
X126250000Y-72900000D03*
X73100000Y-63950000D03*
X97450000Y-56150000D03*
X147100000Y-78350000D03*
X151900000Y-59450000D03*
X144300000Y-51650000D03*
X140200000Y-61850000D03*
X144350000Y-59650000D03*
X86050000Y-73950000D03*
X86750000Y-71900000D03*
X89550000Y-71700000D03*
X71300000Y-59450000D03*
X76050000Y-74150000D03*
X85150000Y-68400000D03*
X85700000Y-65900000D03*
X92800000Y-65950000D03*
X74300000Y-56900000D03*
X74800000Y-63450000D03*
X72500000Y-47250000D03*
X145000000Y-64000000D03*
X82500000Y-55700000D03*
X90250000Y-68400000D03*
X88424500Y-58800000D03*
X82250000Y-62450000D03*
X71100000Y-68000000D03*
X63000000Y-50650000D03*
X77750000Y-61150000D03*
X93056451Y-56643549D03*
X61925000Y-72225000D03*
X64900000Y-67640000D03*
X95875000Y-50175000D03*
X79650000Y-60200000D03*
X90350000Y-63050000D03*
X60600000Y-58850000D03*
X76150000Y-56500000D03*
X97900000Y-47200000D03*
X91900000Y-65000000D03*
X150750000Y-66100000D03*
X60775000Y-54525000D03*
X81475000Y-71450000D03*
X87500000Y-55450000D03*
X133525000Y-46125000D03*
X97350000Y-53625000D03*
X146300000Y-59970000D03*
X69575000Y-50200000D03*
X69350000Y-54650000D03*
X77800000Y-52800000D03*
X90200000Y-52800000D03*
X147300000Y-63300000D03*
X86250000Y-60600000D03*
X74043245Y-62124500D03*
X73328730Y-61324500D03*
X67250000Y-58400000D03*
X102406299Y-72131700D03*
X98600000Y-69350000D03*
X84125000Y-66800000D03*
X147500000Y-61750000D03*
D28*
X86787500Y-53212500D02*
X86787500Y-49900000D01*
X82500000Y-57500000D02*
X86787500Y-53212500D01*
X82500000Y-58400000D02*
X82500000Y-57500000D01*
X89650000Y-49900000D02*
X89800000Y-49750000D01*
X88612500Y-49900000D02*
X89650000Y-49900000D01*
X84512500Y-48962500D02*
X84500000Y-48950000D01*
X84512500Y-49900000D02*
X84512500Y-48962500D01*
X83300000Y-58400000D02*
X89725000Y-51975000D01*
X90175000Y-51975000D02*
X121675000Y-51975000D01*
X89725000Y-51975000D02*
X90175000Y-51975000D01*
X121675000Y-51975000D02*
X123425000Y-53725000D01*
X86792615Y-59800000D02*
X86816247Y-59776368D01*
X84700000Y-59800000D02*
X86792615Y-59800000D01*
X128067082Y-56265000D02*
X123425000Y-56265000D01*
X131150000Y-64300000D02*
X131150000Y-59347918D01*
X131150000Y-59347918D02*
X128067082Y-56265000D01*
X82500000Y-68250000D02*
X82850000Y-68600000D01*
X82500000Y-66800000D02*
X82500000Y-68250000D01*
X124725000Y-73125000D02*
X128450000Y-69400000D01*
X128450000Y-69400000D02*
X128450000Y-60350000D01*
X103399599Y-73125000D02*
X124725000Y-73125000D01*
X102406299Y-72131700D02*
X103399599Y-73125000D01*
X118350000Y-74400000D02*
X126000000Y-74400000D01*
X102350000Y-74400000D02*
X118350000Y-74400000D01*
X144200000Y-64800000D02*
X145000000Y-64000000D01*
X126000000Y-74400000D02*
X135600000Y-64800000D01*
X91212500Y-63262500D02*
X102350000Y-74400000D01*
X91212500Y-62200000D02*
X91212500Y-63262500D01*
X135600000Y-64800000D02*
X144200000Y-64800000D01*
X76300000Y-66000000D02*
X76250000Y-66050000D01*
X76300000Y-65400000D02*
X76300000Y-66000000D01*
X93263604Y-65950000D02*
X92800000Y-65950000D01*
X142850000Y-76050000D02*
X103363604Y-76050000D01*
X147200000Y-71700000D02*
X142850000Y-76050000D01*
X147200000Y-68550000D02*
X147200000Y-71700000D01*
X103363604Y-76050000D02*
X93263604Y-65950000D01*
X76300000Y-63000000D02*
X77600000Y-63000000D01*
X125025000Y-73575000D02*
X125575000Y-73575000D01*
X125025000Y-73575000D02*
X102825000Y-73575000D01*
X125575000Y-73575000D02*
X126250000Y-72900000D01*
X86000000Y-63000000D02*
X84700000Y-63000000D01*
X87750000Y-76150000D02*
X87750000Y-64750000D01*
X87750000Y-64750000D02*
X86000000Y-63000000D01*
X84550000Y-79350000D02*
X87750000Y-76150000D01*
X70799500Y-78257500D02*
X71892000Y-79350000D01*
X71892000Y-79350000D02*
X84550000Y-79350000D01*
X85200000Y-65900000D02*
X84700000Y-65400000D01*
X85700000Y-65900000D02*
X85200000Y-65900000D01*
X80900000Y-66800000D02*
X80900000Y-67537500D01*
X80900000Y-67537500D02*
X79637500Y-68800000D01*
X78215000Y-76735000D02*
X78350000Y-76600000D01*
X78350000Y-70087500D02*
X79637500Y-68800000D01*
X78215000Y-78515000D02*
X78215000Y-76735000D01*
X78600000Y-78900000D02*
X78215000Y-78515000D01*
X78350000Y-76600000D02*
X78350000Y-70087500D01*
X82870000Y-78900000D02*
X78600000Y-78900000D01*
X84470000Y-77300000D02*
X82870000Y-78900000D01*
X87300000Y-65050000D02*
X86050000Y-63800000D01*
X86050000Y-63800000D02*
X84700000Y-63800000D01*
X87300000Y-70026396D02*
X87300000Y-65050000D01*
X81930000Y-77300000D02*
X81930000Y-75396396D01*
X81930000Y-75396396D02*
X87300000Y-70026396D01*
X86000000Y-64600000D02*
X84700000Y-64600000D01*
X86850000Y-65450000D02*
X86000000Y-64600000D01*
X79390000Y-77300000D02*
X86850000Y-69840000D01*
X86850000Y-69840000D02*
X86850000Y-65450000D01*
X75950000Y-78200000D02*
X76850000Y-77300000D01*
X73150000Y-78200000D02*
X75950000Y-78200000D01*
X64208001Y-77891999D02*
X63850000Y-78250000D01*
X70433999Y-77891999D02*
X64208001Y-77891999D01*
X70799500Y-78257500D02*
X70433999Y-77891999D01*
X72582000Y-76475000D02*
X70799500Y-78257500D01*
X73150000Y-76475000D02*
X72582000Y-76475000D01*
X74300000Y-55762500D02*
X74362500Y-55700000D01*
X74300000Y-56900000D02*
X74300000Y-55762500D01*
X75300000Y-64600000D02*
X74800000Y-64100000D01*
X74800000Y-64100000D02*
X74800000Y-63450000D01*
X76300000Y-64600000D02*
X75300000Y-64600000D01*
X77700000Y-58400000D02*
X67250000Y-58400000D01*
X74850000Y-72150000D02*
X78500000Y-68500000D01*
X78500000Y-68500000D02*
X78500000Y-66800000D01*
X71250000Y-72150000D02*
X74850000Y-72150000D01*
X68412500Y-72150000D02*
X71250000Y-72150000D01*
X67550000Y-71287500D02*
X68412500Y-72150000D01*
X71250000Y-63750000D02*
X74300000Y-66800000D01*
X74300000Y-66800000D02*
X77700000Y-66800000D01*
X71250000Y-63650000D02*
X71250000Y-63750000D01*
X68462500Y-63650000D02*
X71250000Y-63650000D01*
X67550000Y-64562500D02*
X68462500Y-63650000D01*
X63850000Y-71937500D02*
X60275000Y-68362500D01*
X63850000Y-76425000D02*
X63850000Y-71937500D01*
X72537500Y-47287500D02*
X72500000Y-47250000D01*
X72537500Y-55700000D02*
X72537500Y-47287500D01*
D29*
X76150000Y-56500000D02*
X76150000Y-55712500D01*
X76150000Y-55712500D02*
X76137500Y-55700000D01*
D28*
X73404230Y-61400000D02*
X73328730Y-61324500D01*
X76300000Y-61400000D02*
X73404230Y-61400000D01*
X102825000Y-73575000D02*
X98600000Y-69350000D01*
X87820000Y-55770000D02*
X88950000Y-55770000D01*
X81200000Y-65200000D02*
X81700000Y-65700000D01*
D29*
X60245000Y-70057500D02*
X60275000Y-70087500D01*
D28*
X87500000Y-55450000D02*
X87830000Y-55120000D01*
X87500000Y-55450000D02*
X87820000Y-55770000D01*
X150637500Y-66137500D02*
X149862500Y-66137500D01*
X150750000Y-66250000D02*
X150637500Y-66137500D01*
X80900000Y-65200000D02*
X81200000Y-65200000D01*
X92842902Y-56430000D02*
X91650000Y-56430000D01*
X80900000Y-58400000D02*
X80900000Y-65200000D01*
X81362500Y-68800000D02*
X81700000Y-68462500D01*
X81700000Y-68462500D02*
X81700000Y-66800000D01*
X87830000Y-55120000D02*
X88950000Y-55120000D01*
X80900000Y-56262500D02*
X81462500Y-55700000D01*
D29*
X57762500Y-70057500D02*
X60245000Y-70057500D01*
D28*
X80100000Y-65800000D02*
X80700000Y-65200000D01*
D29*
X81462500Y-55700000D02*
X82500000Y-55700000D01*
D28*
X80900000Y-58400000D02*
X80900000Y-56262500D01*
X80700000Y-65200000D02*
X80900000Y-65200000D01*
X81700000Y-65700000D02*
X81700000Y-66800000D01*
X149862500Y-66137500D02*
X149862500Y-65300000D01*
X149862500Y-65300000D02*
X149912500Y-65250000D01*
X93056451Y-56643549D02*
X92842902Y-56430000D01*
X80100000Y-66800000D02*
X80100000Y-65800000D01*
X89437500Y-58800000D02*
X88424500Y-58800000D01*
X149862500Y-67000000D02*
X149862500Y-66137500D01*
X57762500Y-67517500D02*
X59430000Y-67517500D01*
X90280000Y-57080000D02*
X90200000Y-57000000D01*
D29*
X77862500Y-52862500D02*
X77800000Y-52800000D01*
D28*
X79300000Y-61600000D02*
X78500000Y-60800000D01*
X91650000Y-57080000D02*
X90280000Y-57080000D01*
X91212500Y-62200000D02*
X91212500Y-58850000D01*
X78500000Y-58400000D02*
X78500000Y-56337500D01*
X79337500Y-66837500D02*
X79300000Y-66800000D01*
X59430000Y-67517500D02*
X60275000Y-68362500D01*
X90200000Y-57400000D02*
X90200000Y-57000000D01*
X79300000Y-66800000D02*
X79300000Y-61600000D01*
X147500000Y-63500000D02*
X148087500Y-63500000D01*
X91162500Y-58800000D02*
X91162500Y-58362500D01*
X79337500Y-68800000D02*
X79337500Y-66837500D01*
X147300000Y-63300000D02*
X147500000Y-63500000D01*
X91162500Y-58362500D02*
X90200000Y-57400000D01*
X78500000Y-56337500D02*
X77862500Y-55700000D01*
X91212500Y-58850000D02*
X91162500Y-58800000D01*
D29*
X77862500Y-55700000D02*
X77862500Y-52862500D01*
D28*
X90200000Y-57000000D02*
X90200000Y-52800000D01*
X78500000Y-60800000D02*
X78500000Y-58400000D01*
X87920000Y-56430000D02*
X87700000Y-56650000D01*
X88950000Y-56430000D02*
X87920000Y-56430000D01*
X87700000Y-56650000D02*
X87700000Y-61400000D01*
X84700000Y-61400000D02*
X87700000Y-61400000D01*
X87700000Y-61400000D02*
X88487500Y-61400000D01*
X88487500Y-61400000D02*
X89387500Y-60500000D01*
X89080000Y-57080000D02*
X88950000Y-57080000D01*
X90300000Y-58300000D02*
X89080000Y-57080000D01*
X84700000Y-62200000D02*
X89387500Y-62200000D01*
X90300000Y-61287500D02*
X90300000Y-58300000D01*
X89387500Y-62200000D02*
X90300000Y-61287500D01*
X80100000Y-56062500D02*
X79737500Y-55700000D01*
X80100000Y-58400000D02*
X80100000Y-56062500D01*
X122250000Y-67790000D02*
X122250000Y-65200000D01*
X94282500Y-55120000D02*
X94400000Y-55237500D01*
X91650000Y-55120000D02*
X94282500Y-55120000D01*
X112287500Y-55237500D02*
X94400000Y-55237500D01*
X123425000Y-68965000D02*
X122250000Y-67790000D01*
X122250000Y-65200000D02*
X112287500Y-55237500D01*
X121800000Y-69880000D02*
X121800000Y-65386396D01*
X93207500Y-55770000D02*
X94400000Y-56962500D01*
X123425000Y-71505000D02*
X121800000Y-69880000D01*
X121800000Y-65386396D02*
X113376104Y-56962500D01*
X91650000Y-55770000D02*
X93207500Y-55770000D01*
X113376104Y-56962500D02*
X94400000Y-56962500D01*
X147200000Y-67937500D02*
X148137500Y-67000000D01*
X150275000Y-68550000D02*
X152000000Y-66825000D01*
X147200000Y-68550000D02*
X150275000Y-68550000D01*
X147200000Y-68550000D02*
X147200000Y-67937500D01*
X86250000Y-60600000D02*
X84700000Y-60600000D01*
X149912500Y-61850000D02*
X149000000Y-60937500D01*
X152000000Y-65000000D02*
X150500000Y-63500000D01*
X150500000Y-63500000D02*
X149912500Y-63500000D01*
X149912500Y-63500000D02*
X149912500Y-61850000D01*
X76300000Y-62200000D02*
X74118745Y-62200000D01*
X74118745Y-62200000D02*
X74043245Y-62124500D01*
X59600000Y-60600000D02*
X57762500Y-62437500D01*
X76300000Y-60600000D02*
X59600000Y-60600000D01*
X83300000Y-66800000D02*
X84125000Y-66800000D01*
X148050000Y-61200000D02*
X148050000Y-59062500D01*
X148087500Y-65250000D02*
X148900000Y-64437500D01*
X147500000Y-61750000D02*
X148050000Y-61200000D01*
X148900000Y-62650000D02*
X148000000Y-61750000D01*
X148900000Y-64437500D02*
X148900000Y-62650000D01*
X148000000Y-61750000D02*
X147500000Y-61750000D01*
G04 #@! TA.AperFunction,Conductor*
G36*
X149185253Y-45528502D02*
G01*
X149231746Y-45582158D01*
X149241850Y-45652432D01*
X149212356Y-45717012D01*
X149196434Y-45732413D01*
X149087489Y-45820635D01*
X148820635Y-46087489D01*
X148583137Y-46380775D01*
X148534157Y-46456197D01*
X148379395Y-46694510D01*
X148379393Y-46694513D01*
X148377597Y-46697279D01*
X148376102Y-46700213D01*
X148376098Y-46700220D01*
X148288205Y-46872721D01*
X148206266Y-47033535D01*
X148071022Y-47385857D01*
X147973347Y-47750387D01*
X147943323Y-47939948D01*
X147920525Y-48083891D01*
X147914310Y-48123129D01*
X147894559Y-48500000D01*
X147914310Y-48876871D01*
X147914823Y-48880111D01*
X147914824Y-48880119D01*
X147939309Y-49034708D01*
X147973347Y-49249613D01*
X148071022Y-49614143D01*
X148206266Y-49966465D01*
X148207764Y-49969405D01*
X148374952Y-50297528D01*
X148377597Y-50302720D01*
X148379393Y-50305486D01*
X148379395Y-50305489D01*
X148471924Y-50447972D01*
X148583137Y-50619225D01*
X148820635Y-50912511D01*
X149087489Y-51179365D01*
X149380775Y-51416863D01*
X149383550Y-51418665D01*
X149532870Y-51515634D01*
X149697280Y-51622403D01*
X149700214Y-51623898D01*
X149700221Y-51623902D01*
X150030595Y-51792236D01*
X150033535Y-51793734D01*
X150385857Y-51928978D01*
X150750387Y-52026653D01*
X150948353Y-52058008D01*
X151119881Y-52085176D01*
X151119889Y-52085177D01*
X151123129Y-52085690D01*
X151405720Y-52100500D01*
X151594280Y-52100500D01*
X151876871Y-52085690D01*
X151880111Y-52085177D01*
X151880119Y-52085176D01*
X152051647Y-52058008D01*
X152249613Y-52026653D01*
X152614143Y-51928978D01*
X152966465Y-51793734D01*
X152969405Y-51792236D01*
X153299779Y-51623902D01*
X153299786Y-51623898D01*
X153302720Y-51622403D01*
X153467131Y-51515634D01*
X153616450Y-51418665D01*
X153619225Y-51416863D01*
X153912511Y-51179365D01*
X154179365Y-50912511D01*
X154267582Y-50803572D01*
X154325994Y-50763222D01*
X154396951Y-50760856D01*
X154457923Y-50797229D01*
X154489551Y-50860791D01*
X154491500Y-50882868D01*
X154491500Y-74117132D01*
X154471498Y-74185253D01*
X154417842Y-74231746D01*
X154347568Y-74241850D01*
X154282988Y-74212356D01*
X154267587Y-74196434D01*
X154179365Y-74087489D01*
X153912511Y-73820635D01*
X153619225Y-73583137D01*
X153514193Y-73514928D01*
X153305489Y-73379395D01*
X153305486Y-73379393D01*
X153302720Y-73377597D01*
X153299786Y-73376102D01*
X153299779Y-73376098D01*
X152969405Y-73207764D01*
X152966465Y-73206266D01*
X152614143Y-73071022D01*
X152249613Y-72973347D01*
X152051647Y-72941992D01*
X151880119Y-72914824D01*
X151880111Y-72914823D01*
X151876871Y-72914310D01*
X151594280Y-72899500D01*
X151405720Y-72899500D01*
X151123129Y-72914310D01*
X151119889Y-72914823D01*
X151119881Y-72914824D01*
X150948353Y-72941992D01*
X150750387Y-72973347D01*
X150385857Y-73071022D01*
X150033535Y-73206266D01*
X150030595Y-73207764D01*
X149700221Y-73376098D01*
X149700214Y-73376102D01*
X149697280Y-73377597D01*
X149694514Y-73379393D01*
X149694511Y-73379395D01*
X149485807Y-73514928D01*
X149380775Y-73583137D01*
X149087489Y-73820635D01*
X148820635Y-74087489D01*
X148583137Y-74380775D01*
X148563898Y-74410400D01*
X148379395Y-74694510D01*
X148379393Y-74694513D01*
X148377597Y-74697279D01*
X148376102Y-74700213D01*
X148376098Y-74700220D01*
X148228141Y-74990603D01*
X148206266Y-75033535D01*
X148159517Y-75155320D01*
X148096427Y-75319676D01*
X148071022Y-75385857D01*
X147973347Y-75750387D01*
X147958590Y-75843560D01*
X147915229Y-76117329D01*
X147914310Y-76123129D01*
X147894559Y-76500000D01*
X147914310Y-76876871D01*
X147914823Y-76880111D01*
X147914824Y-76880119D01*
X147929267Y-76971305D01*
X147973347Y-77249613D01*
X148071022Y-77614143D01*
X148072207Y-77617231D01*
X148072208Y-77617233D01*
X148099960Y-77689528D01*
X148206266Y-77966465D01*
X148207764Y-77969405D01*
X148373495Y-78294669D01*
X148377597Y-78302720D01*
X148379393Y-78305486D01*
X148379395Y-78305489D01*
X148409828Y-78352352D01*
X148583137Y-78619225D01*
X148820635Y-78912511D01*
X149087489Y-79179365D01*
X149196428Y-79267582D01*
X149236778Y-79325994D01*
X149239144Y-79396951D01*
X149202771Y-79457923D01*
X149139209Y-79489551D01*
X149117132Y-79491500D01*
X85608594Y-79491500D01*
X85540473Y-79471498D01*
X85493980Y-79417842D01*
X85483876Y-79347568D01*
X85513370Y-79282988D01*
X85519499Y-79276405D01*
X86501235Y-78294669D01*
X88192001Y-78294669D01*
X88192371Y-78301490D01*
X88197895Y-78352352D01*
X88201521Y-78367604D01*
X88246676Y-78488054D01*
X88255214Y-78503649D01*
X88331715Y-78605724D01*
X88344276Y-78618285D01*
X88446351Y-78694786D01*
X88461946Y-78703324D01*
X88582394Y-78748478D01*
X88597649Y-78752105D01*
X88648514Y-78757631D01*
X88655328Y-78758000D01*
X89277885Y-78758000D01*
X89293124Y-78753525D01*
X89294329Y-78752135D01*
X89296000Y-78744452D01*
X89296000Y-78739884D01*
X89804000Y-78739884D01*
X89808475Y-78755123D01*
X89809865Y-78756328D01*
X89817548Y-78757999D01*
X90444669Y-78757999D01*
X90451490Y-78757629D01*
X90502352Y-78752105D01*
X90517604Y-78748479D01*
X90638054Y-78703324D01*
X90653649Y-78694786D01*
X90755724Y-78618285D01*
X90768285Y-78605724D01*
X90844786Y-78503649D01*
X90853324Y-78488054D01*
X90898478Y-78367606D01*
X90902105Y-78352351D01*
X90907631Y-78301486D01*
X90908000Y-78294672D01*
X90908000Y-77672115D01*
X90903525Y-77656876D01*
X90902135Y-77655671D01*
X90894452Y-77654000D01*
X89822115Y-77654000D01*
X89806876Y-77658475D01*
X89805671Y-77659865D01*
X89804000Y-77667548D01*
X89804000Y-78739884D01*
X89296000Y-78739884D01*
X89296000Y-77672115D01*
X89291525Y-77656876D01*
X89290135Y-77655671D01*
X89282452Y-77654000D01*
X88210116Y-77654000D01*
X88194877Y-77658475D01*
X88193672Y-77659865D01*
X88192001Y-77667548D01*
X88192001Y-78294669D01*
X86501235Y-78294669D01*
X87976905Y-76818999D01*
X88039217Y-76784973D01*
X88110032Y-76790038D01*
X88166868Y-76832585D01*
X88191679Y-76899105D01*
X88192000Y-76908094D01*
X88192000Y-77127885D01*
X88196475Y-77143124D01*
X88197865Y-77144329D01*
X88205548Y-77146000D01*
X89277885Y-77146000D01*
X89293124Y-77141525D01*
X89294329Y-77140135D01*
X89296000Y-77132452D01*
X89296000Y-77127885D01*
X89804000Y-77127885D01*
X89808475Y-77143124D01*
X89809865Y-77144329D01*
X89817548Y-77146000D01*
X90889884Y-77146000D01*
X90905123Y-77141525D01*
X90906328Y-77140135D01*
X90907999Y-77132452D01*
X90907999Y-76505331D01*
X90907629Y-76498510D01*
X90902105Y-76447648D01*
X90898479Y-76432396D01*
X90853324Y-76311946D01*
X90844786Y-76296351D01*
X90768285Y-76194276D01*
X90755724Y-76181715D01*
X90653649Y-76105214D01*
X90638054Y-76096676D01*
X90517606Y-76051522D01*
X90502351Y-76047895D01*
X90451486Y-76042369D01*
X90444672Y-76042000D01*
X89822115Y-76042000D01*
X89806876Y-76046475D01*
X89805671Y-76047865D01*
X89804000Y-76055548D01*
X89804000Y-77127885D01*
X89296000Y-77127885D01*
X89296000Y-76060116D01*
X89291525Y-76044877D01*
X89290135Y-76043672D01*
X89282452Y-76042001D01*
X88655331Y-76042001D01*
X88648510Y-76042371D01*
X88597648Y-76047895D01*
X88582390Y-76051522D01*
X88553728Y-76062267D01*
X88482921Y-76067450D01*
X88420552Y-76033528D01*
X88386424Y-75971272D01*
X88383500Y-75944285D01*
X88383500Y-74679777D01*
X91399509Y-74679777D01*
X91425125Y-74948269D01*
X91426210Y-74952703D01*
X91426211Y-74952709D01*
X91486452Y-75198894D01*
X91489231Y-75210250D01*
X91590485Y-75460233D01*
X91637575Y-75540657D01*
X91721429Y-75683868D01*
X91726765Y-75692982D01*
X91838877Y-75833171D01*
X91847186Y-75843560D01*
X91895216Y-75903619D01*
X92092309Y-76087734D01*
X92313916Y-76241468D01*
X92317999Y-76243499D01*
X92318002Y-76243501D01*
X92388583Y-76278614D01*
X92555394Y-76361601D01*
X92559728Y-76363022D01*
X92559731Y-76363023D01*
X92807353Y-76444198D01*
X92807359Y-76444199D01*
X92811686Y-76445618D01*
X92816177Y-76446398D01*
X92816178Y-76446398D01*
X93073640Y-76491101D01*
X93073648Y-76491102D01*
X93077421Y-76491757D01*
X93081258Y-76491948D01*
X93161078Y-76495922D01*
X93161086Y-76495922D01*
X93162649Y-76496000D01*
X93331012Y-76496000D01*
X93333280Y-76495835D01*
X93333292Y-76495835D01*
X93464384Y-76486323D01*
X93531504Y-76481453D01*
X93535959Y-76480469D01*
X93535962Y-76480469D01*
X93790412Y-76424291D01*
X93790416Y-76424290D01*
X93794872Y-76423306D01*
X93920980Y-76375528D01*
X94042818Y-76329368D01*
X94042821Y-76329367D01*
X94047088Y-76327750D01*
X94282868Y-76196786D01*
X94429854Y-76084610D01*
X94493641Y-76035929D01*
X94493642Y-76035928D01*
X94497273Y-76033157D01*
X94502056Y-76028265D01*
X94651459Y-75875433D01*
X94685812Y-75840292D01*
X94844534Y-75622230D01*
X94909525Y-75498702D01*
X94967990Y-75387579D01*
X94967993Y-75387573D01*
X94970115Y-75383539D01*
X94989653Y-75328214D01*
X95058402Y-75133533D01*
X95058402Y-75133532D01*
X95059925Y-75129220D01*
X95096487Y-74943717D01*
X95111200Y-74869072D01*
X95111201Y-74869066D01*
X95112081Y-74864600D01*
X95112777Y-74850615D01*
X95125264Y-74599792D01*
X95125264Y-74599786D01*
X95125491Y-74595223D01*
X95099875Y-74326731D01*
X95076633Y-74231746D01*
X95036855Y-74069188D01*
X95035769Y-74064750D01*
X94934515Y-73814767D01*
X94798235Y-73582018D01*
X94680428Y-73434708D01*
X94632636Y-73374947D01*
X94632635Y-73374945D01*
X94629784Y-73371381D01*
X94432691Y-73187266D01*
X94211084Y-73033532D01*
X94207001Y-73031501D01*
X94206998Y-73031499D01*
X94042106Y-72949467D01*
X93969606Y-72913399D01*
X93965272Y-72911978D01*
X93965269Y-72911977D01*
X93717647Y-72830802D01*
X93717641Y-72830801D01*
X93713314Y-72829382D01*
X93708822Y-72828602D01*
X93451360Y-72783899D01*
X93451352Y-72783898D01*
X93447579Y-72783243D01*
X93423857Y-72782062D01*
X93363922Y-72779078D01*
X93363914Y-72779078D01*
X93362351Y-72779000D01*
X93193988Y-72779000D01*
X93191720Y-72779165D01*
X93191708Y-72779165D01*
X93060616Y-72788677D01*
X92993496Y-72793547D01*
X92989041Y-72794531D01*
X92989038Y-72794531D01*
X92734588Y-72850709D01*
X92734584Y-72850710D01*
X92730128Y-72851694D01*
X92604020Y-72899472D01*
X92482182Y-72945632D01*
X92482179Y-72945633D01*
X92477912Y-72947250D01*
X92242132Y-73078214D01*
X92027727Y-73241843D01*
X92024534Y-73245109D01*
X92024532Y-73245111D01*
X91990379Y-73280048D01*
X91839188Y-73434708D01*
X91680466Y-73652770D01*
X91678344Y-73656804D01*
X91557010Y-73887421D01*
X91557007Y-73887427D01*
X91554885Y-73891461D01*
X91553365Y-73895766D01*
X91553363Y-73895770D01*
X91475192Y-74117132D01*
X91465075Y-74145780D01*
X91456587Y-74188845D01*
X91419266Y-74378199D01*
X91412919Y-74410400D01*
X91412692Y-74414953D01*
X91412692Y-74414956D01*
X91400798Y-74653891D01*
X91399509Y-74679777D01*
X88383500Y-74679777D01*
X88383500Y-64828768D01*
X88384027Y-64817585D01*
X88385702Y-64810092D01*
X88384395Y-64768489D01*
X88383562Y-64742002D01*
X88383500Y-64738044D01*
X88383500Y-64710144D01*
X88382996Y-64706153D01*
X88382063Y-64694311D01*
X88381892Y-64688850D01*
X88380674Y-64650111D01*
X88378462Y-64642497D01*
X88378461Y-64642492D01*
X88375023Y-64630659D01*
X88371012Y-64611295D01*
X88369467Y-64599064D01*
X88368474Y-64591203D01*
X88365557Y-64583836D01*
X88365556Y-64583831D01*
X88352198Y-64550092D01*
X88348354Y-64538865D01*
X88344934Y-64527095D01*
X88336018Y-64496407D01*
X88325707Y-64478972D01*
X88317012Y-64461224D01*
X88309552Y-64442383D01*
X88301568Y-64431393D01*
X88283564Y-64406613D01*
X88277048Y-64396693D01*
X88258580Y-64365465D01*
X88258578Y-64365462D01*
X88254542Y-64358638D01*
X88240221Y-64344317D01*
X88227380Y-64329283D01*
X88220131Y-64319306D01*
X88215472Y-64312893D01*
X88181395Y-64284702D01*
X88172616Y-64276712D01*
X86944500Y-63048595D01*
X86910474Y-62986283D01*
X86915539Y-62915467D01*
X86958086Y-62858632D01*
X87024606Y-62833821D01*
X87033595Y-62833500D01*
X88435036Y-62833500D01*
X88503157Y-62853502D01*
X88542179Y-62893196D01*
X88548884Y-62904031D01*
X88554066Y-62909204D01*
X88666816Y-63021758D01*
X88666821Y-63021762D01*
X88671997Y-63026929D01*
X88678227Y-63030769D01*
X88678228Y-63030770D01*
X88803108Y-63107747D01*
X88820080Y-63118209D01*
X88985191Y-63172974D01*
X88992027Y-63173674D01*
X88992030Y-63173675D01*
X89043526Y-63178951D01*
X89087928Y-63183500D01*
X89687072Y-63183500D01*
X89690318Y-63183163D01*
X89690322Y-63183163D01*
X89784235Y-63173419D01*
X89784239Y-63173418D01*
X89791093Y-63172707D01*
X89797629Y-63170526D01*
X89797631Y-63170526D01*
X89930395Y-63126232D01*
X89956107Y-63117654D01*
X90104031Y-63026116D01*
X90119583Y-63010537D01*
X90210747Y-62919214D01*
X90273030Y-62885135D01*
X90343850Y-62890138D01*
X90388937Y-62919059D01*
X90491815Y-63021757D01*
X90491820Y-63021761D01*
X90496997Y-63026929D01*
X90503224Y-63030767D01*
X90503226Y-63030769D01*
X90519116Y-63040564D01*
X90566609Y-63093336D01*
X90579000Y-63147824D01*
X90579000Y-63183733D01*
X90578473Y-63194916D01*
X90576798Y-63202409D01*
X90577047Y-63210335D01*
X90577047Y-63210336D01*
X90578938Y-63270486D01*
X90579000Y-63274445D01*
X90579000Y-63302356D01*
X90579497Y-63306290D01*
X90579497Y-63306291D01*
X90579505Y-63306356D01*
X90580438Y-63318193D01*
X90581827Y-63362389D01*
X90587478Y-63381839D01*
X90591487Y-63401200D01*
X90592550Y-63409610D01*
X90594026Y-63421297D01*
X90596945Y-63428668D01*
X90596945Y-63428670D01*
X90610304Y-63462412D01*
X90614149Y-63473642D01*
X90620704Y-63496206D01*
X90626482Y-63516093D01*
X90630515Y-63522912D01*
X90630517Y-63522917D01*
X90636793Y-63533528D01*
X90645488Y-63551276D01*
X90652948Y-63570117D01*
X90657610Y-63576533D01*
X90657610Y-63576534D01*
X90678936Y-63605887D01*
X90685452Y-63615807D01*
X90703215Y-63645842D01*
X90707958Y-63653862D01*
X90722279Y-63668183D01*
X90735119Y-63683216D01*
X90747028Y-63699607D01*
X90755571Y-63706674D01*
X90781105Y-63727798D01*
X90789884Y-63735788D01*
X92168864Y-65114768D01*
X92202890Y-65177080D01*
X92197825Y-65247895D01*
X92173405Y-65288173D01*
X92069481Y-65403593D01*
X92060960Y-65413056D01*
X92025568Y-65474357D01*
X91970803Y-65569213D01*
X91965473Y-65578444D01*
X91906458Y-65760072D01*
X91905768Y-65766633D01*
X91905768Y-65766635D01*
X91887603Y-65939470D01*
X91886496Y-65950000D01*
X91887186Y-65956565D01*
X91904954Y-66125615D01*
X91906458Y-66139928D01*
X91965473Y-66321556D01*
X92060960Y-66486944D01*
X92065378Y-66491851D01*
X92065379Y-66491852D01*
X92154295Y-66590603D01*
X92188747Y-66628866D01*
X92274429Y-66691118D01*
X92333450Y-66733999D01*
X92343248Y-66741118D01*
X92349276Y-66743802D01*
X92349278Y-66743803D01*
X92511681Y-66816109D01*
X92517712Y-66818794D01*
X92611113Y-66838647D01*
X92698056Y-66857128D01*
X92698061Y-66857128D01*
X92704513Y-66858500D01*
X92895487Y-66858500D01*
X92901939Y-66857128D01*
X92901944Y-66857128D01*
X92988887Y-66838647D01*
X93082288Y-66818794D01*
X93109878Y-66806510D01*
X93180245Y-66797076D01*
X93244542Y-66827182D01*
X93250222Y-66832522D01*
X98056293Y-71638594D01*
X102859952Y-76442253D01*
X102867492Y-76450539D01*
X102871604Y-76457018D01*
X102877381Y-76462443D01*
X102921255Y-76503643D01*
X102924097Y-76506398D01*
X102943834Y-76526135D01*
X102947031Y-76528615D01*
X102956051Y-76536318D01*
X102988283Y-76566586D01*
X102995229Y-76570405D01*
X102995232Y-76570407D01*
X103006038Y-76576348D01*
X103022557Y-76587199D01*
X103038563Y-76599614D01*
X103045832Y-76602759D01*
X103045836Y-76602762D01*
X103079141Y-76617174D01*
X103089791Y-76622391D01*
X103128544Y-76643695D01*
X103136219Y-76645666D01*
X103136220Y-76645666D01*
X103148166Y-76648733D01*
X103166871Y-76655137D01*
X103185459Y-76663181D01*
X103193282Y-76664420D01*
X103193292Y-76664423D01*
X103229128Y-76670099D01*
X103240748Y-76672505D01*
X103272563Y-76680673D01*
X103283574Y-76683500D01*
X103303828Y-76683500D01*
X103323538Y-76685051D01*
X103343547Y-76688220D01*
X103351439Y-76687474D01*
X103370184Y-76685702D01*
X103387566Y-76684059D01*
X103399423Y-76683500D01*
X142771233Y-76683500D01*
X142782416Y-76684027D01*
X142789909Y-76685702D01*
X142797835Y-76685453D01*
X142797836Y-76685453D01*
X142857986Y-76683562D01*
X142861945Y-76683500D01*
X142889856Y-76683500D01*
X142893791Y-76683003D01*
X142893856Y-76682995D01*
X142905693Y-76682062D01*
X142937951Y-76681048D01*
X142941970Y-76680922D01*
X142949889Y-76680673D01*
X142969343Y-76675021D01*
X142988700Y-76671013D01*
X143000930Y-76669468D01*
X143000931Y-76669468D01*
X143008797Y-76668474D01*
X143016168Y-76665555D01*
X143016170Y-76665555D01*
X143049912Y-76652196D01*
X143061142Y-76648351D01*
X143095983Y-76638229D01*
X143095984Y-76638229D01*
X143103593Y-76636018D01*
X143110412Y-76631985D01*
X143110417Y-76631983D01*
X143121028Y-76625707D01*
X143138776Y-76617012D01*
X143157617Y-76609552D01*
X143193387Y-76583564D01*
X143203307Y-76577048D01*
X143234535Y-76558580D01*
X143234538Y-76558578D01*
X143241362Y-76554542D01*
X143255683Y-76540221D01*
X143270717Y-76527380D01*
X143280694Y-76520131D01*
X143287107Y-76515472D01*
X143315298Y-76481395D01*
X143323288Y-76472616D01*
X147592253Y-72203652D01*
X147600539Y-72196112D01*
X147607018Y-72192000D01*
X147615548Y-72182917D01*
X147653643Y-72142349D01*
X147656398Y-72139507D01*
X147676135Y-72119770D01*
X147678615Y-72116573D01*
X147686320Y-72107551D01*
X147711159Y-72081100D01*
X147716586Y-72075321D01*
X147720405Y-72068375D01*
X147720407Y-72068372D01*
X147726348Y-72057566D01*
X147737199Y-72041047D01*
X147744758Y-72031301D01*
X147749614Y-72025041D01*
X147752759Y-72017772D01*
X147752762Y-72017768D01*
X147767174Y-71984463D01*
X147772391Y-71973813D01*
X147793695Y-71935060D01*
X147798733Y-71915437D01*
X147805137Y-71896734D01*
X147810033Y-71885420D01*
X147810033Y-71885419D01*
X147813181Y-71878145D01*
X147814420Y-71870322D01*
X147814423Y-71870312D01*
X147820099Y-71834476D01*
X147822505Y-71822856D01*
X147831528Y-71787711D01*
X147831528Y-71787710D01*
X147833500Y-71780030D01*
X147833500Y-71759776D01*
X147835051Y-71740065D01*
X147836980Y-71727886D01*
X147838220Y-71720057D01*
X147834059Y-71676038D01*
X147833500Y-71664181D01*
X147833500Y-69309500D01*
X147853502Y-69241379D01*
X147907158Y-69194886D01*
X147959500Y-69183500D01*
X150196233Y-69183500D01*
X150207416Y-69184027D01*
X150214909Y-69185702D01*
X150222835Y-69185453D01*
X150222836Y-69185453D01*
X150282986Y-69183562D01*
X150286945Y-69183500D01*
X150314856Y-69183500D01*
X150318791Y-69183003D01*
X150318856Y-69182995D01*
X150330693Y-69182062D01*
X150362951Y-69181048D01*
X150366970Y-69180922D01*
X150374889Y-69180673D01*
X150394343Y-69175021D01*
X150413700Y-69171013D01*
X150425930Y-69169468D01*
X150425931Y-69169468D01*
X150433797Y-69168474D01*
X150441168Y-69165555D01*
X150441170Y-69165555D01*
X150474912Y-69152196D01*
X150486142Y-69148351D01*
X150520983Y-69138229D01*
X150520984Y-69138229D01*
X150528593Y-69136018D01*
X150535412Y-69131985D01*
X150535417Y-69131983D01*
X150546028Y-69125707D01*
X150563776Y-69117012D01*
X150582617Y-69109552D01*
X150618387Y-69083564D01*
X150628307Y-69077048D01*
X150659535Y-69058580D01*
X150659538Y-69058578D01*
X150666362Y-69054542D01*
X150680683Y-69040221D01*
X150695717Y-69027380D01*
X150705694Y-69020131D01*
X150712107Y-69015472D01*
X150740298Y-68981395D01*
X150748288Y-68972616D01*
X151862999Y-67857905D01*
X151925311Y-67823879D01*
X151952094Y-67821000D01*
X152287072Y-67821000D01*
X152290318Y-67820663D01*
X152290322Y-67820663D01*
X152384235Y-67810919D01*
X152384239Y-67810918D01*
X152391093Y-67810207D01*
X152397629Y-67808026D01*
X152397631Y-67808026D01*
X152549159Y-67757472D01*
X152556107Y-67755154D01*
X152704031Y-67663616D01*
X152747056Y-67620516D01*
X152821758Y-67545684D01*
X152821762Y-67545679D01*
X152826929Y-67540503D01*
X152854004Y-67496579D01*
X152914369Y-67398650D01*
X152914370Y-67398648D01*
X152918209Y-67392420D01*
X152972974Y-67227309D01*
X152976170Y-67196121D01*
X152982813Y-67131277D01*
X152983500Y-67124572D01*
X152983500Y-66525428D01*
X152982378Y-66514612D01*
X152973419Y-66428265D01*
X152973418Y-66428261D01*
X152972707Y-66421407D01*
X152959593Y-66382098D01*
X152919972Y-66263341D01*
X152917654Y-66256393D01*
X152826116Y-66108469D01*
X152815700Y-66098071D01*
X152719214Y-66001753D01*
X152685135Y-65939470D01*
X152690138Y-65868650D01*
X152719059Y-65823563D01*
X152821754Y-65720688D01*
X152821758Y-65720683D01*
X152826929Y-65715503D01*
X152830770Y-65709272D01*
X152914369Y-65573650D01*
X152914370Y-65573648D01*
X152918209Y-65567420D01*
X152972974Y-65402309D01*
X152983500Y-65299572D01*
X152983500Y-64700428D01*
X152982945Y-64695080D01*
X152973419Y-64603265D01*
X152973418Y-64603261D01*
X152972707Y-64596407D01*
X152969595Y-64587077D01*
X152923259Y-64448192D01*
X152917654Y-64431393D01*
X152826116Y-64283469D01*
X152820934Y-64278296D01*
X152708184Y-64165742D01*
X152708179Y-64165738D01*
X152703003Y-64160571D01*
X152686044Y-64150117D01*
X152561150Y-64073131D01*
X152561148Y-64073130D01*
X152554920Y-64069291D01*
X152389809Y-64014526D01*
X152382973Y-64013826D01*
X152382970Y-64013825D01*
X152331474Y-64008549D01*
X152287072Y-64004000D01*
X151952095Y-64004000D01*
X151883974Y-63983998D01*
X151863000Y-63967095D01*
X151003652Y-63107747D01*
X150996112Y-63099461D01*
X150992000Y-63092982D01*
X150976519Y-63078444D01*
X150942349Y-63046357D01*
X150939507Y-63043602D01*
X150919770Y-63023865D01*
X150916573Y-63021385D01*
X150907551Y-63013680D01*
X150881099Y-62988840D01*
X150881100Y-62988840D01*
X150878377Y-62986283D01*
X150875321Y-62983414D01*
X150875689Y-62983022D01*
X150843131Y-62943598D01*
X150842654Y-62943893D01*
X150840498Y-62940408D01*
X150840496Y-62940405D01*
X150838805Y-62937672D01*
X150838803Y-62937669D01*
X150754970Y-62802197D01*
X150751116Y-62795969D01*
X150628003Y-62673071D01*
X150621776Y-62669233D01*
X150621774Y-62669231D01*
X150605884Y-62659436D01*
X150558391Y-62606664D01*
X150546000Y-62552176D01*
X150546000Y-61928767D01*
X150546527Y-61917584D01*
X150548202Y-61910091D01*
X150546062Y-61842000D01*
X150546000Y-61838043D01*
X150546000Y-61810144D01*
X150545496Y-61806153D01*
X150544563Y-61794311D01*
X150544491Y-61792000D01*
X150543174Y-61750111D01*
X150540962Y-61742497D01*
X150540961Y-61742492D01*
X150537523Y-61730659D01*
X150533512Y-61711295D01*
X150532754Y-61705290D01*
X150530974Y-61691203D01*
X150528057Y-61683836D01*
X150528056Y-61683831D01*
X150514698Y-61650092D01*
X150510854Y-61638865D01*
X150503329Y-61612966D01*
X150498518Y-61596407D01*
X150488207Y-61578972D01*
X150479512Y-61561224D01*
X150472052Y-61542383D01*
X150446064Y-61506613D01*
X150439548Y-61496693D01*
X150421080Y-61465465D01*
X150421078Y-61465462D01*
X150417042Y-61458638D01*
X150402721Y-61444317D01*
X150389880Y-61429283D01*
X150382631Y-61419306D01*
X150377972Y-61412893D01*
X150371867Y-61407842D01*
X150371862Y-61407837D01*
X150343896Y-61384701D01*
X150335118Y-61376713D01*
X149845405Y-60887000D01*
X149811379Y-60824688D01*
X149808500Y-60797905D01*
X149808500Y-60286878D01*
X150204000Y-60286878D01*
X150207973Y-60300409D01*
X150215871Y-60301544D01*
X150355790Y-60260893D01*
X150370221Y-60254648D01*
X150499678Y-60178089D01*
X150512104Y-60168449D01*
X150618449Y-60062104D01*
X150628089Y-60049678D01*
X150704648Y-59920221D01*
X150710893Y-59905790D01*
X150753269Y-59759935D01*
X150755570Y-59747333D01*
X150757807Y-59718916D01*
X150758000Y-59713986D01*
X150758000Y-59334615D01*
X150753525Y-59319376D01*
X150752135Y-59318171D01*
X150744452Y-59316500D01*
X150222115Y-59316500D01*
X150206876Y-59320975D01*
X150205671Y-59322365D01*
X150204000Y-59330048D01*
X150204000Y-60286878D01*
X149808500Y-60286878D01*
X149808500Y-60283498D01*
X149806721Y-60260893D01*
X149806067Y-60252579D01*
X149806066Y-60252574D01*
X149805562Y-60246169D01*
X149769827Y-60123167D01*
X149761357Y-60094012D01*
X149761356Y-60094010D01*
X149759145Y-60086399D01*
X149713547Y-60009297D01*
X149696000Y-59945158D01*
X149696000Y-59334615D01*
X149691525Y-59319376D01*
X149690135Y-59318171D01*
X149682452Y-59316500D01*
X149160116Y-59316500D01*
X149144877Y-59320975D01*
X149143672Y-59322365D01*
X149142001Y-59330048D01*
X149142001Y-59565500D01*
X149121999Y-59633621D01*
X149068343Y-59680114D01*
X149016001Y-59691500D01*
X148984500Y-59691500D01*
X148916379Y-59671498D01*
X148869886Y-59617842D01*
X148858500Y-59565500D01*
X148858500Y-58790385D01*
X149142000Y-58790385D01*
X149146475Y-58805624D01*
X149147865Y-58806829D01*
X149155548Y-58808500D01*
X149677885Y-58808500D01*
X149693124Y-58804025D01*
X149694329Y-58802635D01*
X149696000Y-58794952D01*
X149696000Y-58790385D01*
X150204000Y-58790385D01*
X150208475Y-58805624D01*
X150209865Y-58806829D01*
X150217548Y-58808500D01*
X150739884Y-58808500D01*
X150755123Y-58804025D01*
X150756328Y-58802635D01*
X150757999Y-58794952D01*
X150757999Y-58411017D01*
X150757805Y-58406080D01*
X150755570Y-58377664D01*
X150753270Y-58365069D01*
X150710893Y-58219210D01*
X150704648Y-58204779D01*
X150628089Y-58075322D01*
X150618449Y-58062896D01*
X150512104Y-57956551D01*
X150499678Y-57946911D01*
X150370221Y-57870352D01*
X150355790Y-57864107D01*
X150221395Y-57825061D01*
X150207294Y-57825101D01*
X150204000Y-57832370D01*
X150204000Y-58790385D01*
X149696000Y-58790385D01*
X149696000Y-57838122D01*
X149692027Y-57824591D01*
X149684129Y-57823456D01*
X149544210Y-57864107D01*
X149529779Y-57870352D01*
X149400322Y-57946911D01*
X149387896Y-57956551D01*
X149281551Y-58062896D01*
X149271911Y-58075322D01*
X149195352Y-58204779D01*
X149189107Y-58219210D01*
X149146731Y-58365065D01*
X149144430Y-58377667D01*
X149142193Y-58406084D01*
X149142000Y-58411014D01*
X149142000Y-58790385D01*
X148858500Y-58790385D01*
X148858500Y-58408498D01*
X148857963Y-58401671D01*
X148856067Y-58377579D01*
X148856066Y-58377574D01*
X148855562Y-58371169D01*
X148820604Y-58250841D01*
X148811357Y-58219012D01*
X148811356Y-58219010D01*
X148809145Y-58211399D01*
X148776819Y-58156739D01*
X148728491Y-58075020D01*
X148728489Y-58075017D01*
X148724453Y-58068193D01*
X148606807Y-57950547D01*
X148599983Y-57946511D01*
X148599980Y-57946509D01*
X148490547Y-57881791D01*
X148463601Y-57865855D01*
X148455990Y-57863644D01*
X148455988Y-57863643D01*
X148368142Y-57838122D01*
X148303831Y-57819438D01*
X148297426Y-57818934D01*
X148297421Y-57818933D01*
X148268958Y-57816693D01*
X148268950Y-57816693D01*
X148266502Y-57816500D01*
X147833498Y-57816500D01*
X147831050Y-57816693D01*
X147831042Y-57816693D01*
X147802579Y-57818933D01*
X147802574Y-57818934D01*
X147796169Y-57819438D01*
X147731858Y-57838122D01*
X147644012Y-57863643D01*
X147644010Y-57863644D01*
X147636399Y-57865855D01*
X147609453Y-57881791D01*
X147500020Y-57946509D01*
X147500017Y-57946511D01*
X147493193Y-57950547D01*
X147375547Y-58068193D01*
X147371511Y-58075017D01*
X147371509Y-58075020D01*
X147323181Y-58156739D01*
X147290855Y-58211399D01*
X147288644Y-58219010D01*
X147288643Y-58219012D01*
X147279396Y-58250841D01*
X147244438Y-58371169D01*
X147243934Y-58377574D01*
X147243933Y-58377579D01*
X147242037Y-58401671D01*
X147241500Y-58408498D01*
X147241500Y-59716502D01*
X147241693Y-59718950D01*
X147241693Y-59718958D01*
X147243927Y-59747333D01*
X147244438Y-59753831D01*
X147265273Y-59825547D01*
X147288586Y-59905790D01*
X147290855Y-59913601D01*
X147294892Y-59920427D01*
X147371509Y-60049980D01*
X147371511Y-60049983D01*
X147375547Y-60056807D01*
X147381155Y-60062415D01*
X147386011Y-60068675D01*
X147384504Y-60069844D01*
X147413621Y-60123167D01*
X147416500Y-60149950D01*
X147416500Y-60736919D01*
X147396498Y-60805040D01*
X147342842Y-60851533D01*
X147316697Y-60860166D01*
X147217712Y-60881206D01*
X147211682Y-60883891D01*
X147211681Y-60883891D01*
X147049278Y-60956197D01*
X147049276Y-60956198D01*
X147043248Y-60958882D01*
X147037907Y-60962762D01*
X147037906Y-60962763D01*
X146987843Y-60999136D01*
X146888747Y-61071134D01*
X146884326Y-61076044D01*
X146884325Y-61076045D01*
X146767599Y-61205683D01*
X146760960Y-61213056D01*
X146665473Y-61378444D01*
X146606458Y-61560072D01*
X146605768Y-61566633D01*
X146605768Y-61566635D01*
X146591195Y-61705290D01*
X146586496Y-61750000D01*
X146587186Y-61756565D01*
X146603279Y-61909678D01*
X146606458Y-61939928D01*
X146665473Y-62121556D01*
X146668776Y-62127278D01*
X146668777Y-62127279D01*
X146678437Y-62144011D01*
X146760960Y-62286944D01*
X146765378Y-62291851D01*
X146765379Y-62291852D01*
X146820672Y-62353261D01*
X146851390Y-62417268D01*
X146842625Y-62487722D01*
X146801098Y-62539506D01*
X146765479Y-62565385D01*
X146697625Y-62614684D01*
X146688747Y-62621134D01*
X146684326Y-62626044D01*
X146684325Y-62626045D01*
X146570195Y-62752800D01*
X146560960Y-62763056D01*
X146538362Y-62802197D01*
X146490478Y-62885135D01*
X146465473Y-62928444D01*
X146406458Y-63110072D01*
X146405768Y-63116633D01*
X146405768Y-63116635D01*
X146392950Y-63238594D01*
X146386496Y-63300000D01*
X146387186Y-63306565D01*
X146404235Y-63468774D01*
X146406458Y-63489928D01*
X146465473Y-63671556D01*
X146560960Y-63836944D01*
X146565378Y-63841851D01*
X146565379Y-63841852D01*
X146664582Y-63952028D01*
X146688747Y-63978866D01*
X146843248Y-64091118D01*
X146849276Y-64093802D01*
X146849278Y-64093803D01*
X147008173Y-64164547D01*
X147017712Y-64168794D01*
X147111113Y-64188647D01*
X147198056Y-64207128D01*
X147198061Y-64207128D01*
X147204513Y-64208500D01*
X147211115Y-64208500D01*
X147214018Y-64208805D01*
X147279675Y-64235817D01*
X147289863Y-64244938D01*
X147330787Y-64285791D01*
X147364866Y-64348071D01*
X147359863Y-64418892D01*
X147330942Y-64463981D01*
X147253242Y-64541816D01*
X147253238Y-64541821D01*
X147248071Y-64546997D01*
X147244231Y-64553227D01*
X147244230Y-64553228D01*
X147169813Y-64673955D01*
X147156791Y-64695080D01*
X147102026Y-64860191D01*
X147101326Y-64867027D01*
X147101325Y-64867030D01*
X147096049Y-64918526D01*
X147091500Y-64962928D01*
X147091500Y-65537072D01*
X147091837Y-65540318D01*
X147091837Y-65540322D01*
X147100953Y-65628174D01*
X147102293Y-65641093D01*
X147104474Y-65647629D01*
X147104474Y-65647631D01*
X147147466Y-65776492D01*
X147157346Y-65806107D01*
X147248884Y-65954031D01*
X147330787Y-66035791D01*
X147364866Y-66098071D01*
X147359863Y-66168892D01*
X147330942Y-66213981D01*
X147253242Y-66291816D01*
X147253238Y-66291821D01*
X147248071Y-66296997D01*
X147244231Y-66303227D01*
X147244230Y-66303228D01*
X147169169Y-66425000D01*
X147156791Y-66445080D01*
X147102026Y-66610191D01*
X147101326Y-66617027D01*
X147101325Y-66617030D01*
X147099715Y-66632749D01*
X147091500Y-66712928D01*
X147091500Y-67097905D01*
X147071498Y-67166026D01*
X147054595Y-67187000D01*
X146807747Y-67433848D01*
X146799461Y-67441388D01*
X146792982Y-67445500D01*
X146751804Y-67489351D01*
X146746357Y-67495151D01*
X146743602Y-67497993D01*
X146723865Y-67517730D01*
X146721385Y-67520927D01*
X146713682Y-67529947D01*
X146683414Y-67562179D01*
X146679595Y-67569125D01*
X146679593Y-67569128D01*
X146673652Y-67579934D01*
X146662801Y-67596453D01*
X146650386Y-67612459D01*
X146647241Y-67619728D01*
X146647238Y-67619732D01*
X146632826Y-67653037D01*
X146627609Y-67663687D01*
X146606305Y-67702440D01*
X146604334Y-67710115D01*
X146604334Y-67710116D01*
X146601267Y-67722062D01*
X146594863Y-67740766D01*
X146586819Y-67759355D01*
X146585579Y-67767185D01*
X146585578Y-67767188D01*
X146579905Y-67803011D01*
X146577497Y-67814637D01*
X146568472Y-67849786D01*
X146568471Y-67849793D01*
X146566500Y-67857470D01*
X146566500Y-67877724D01*
X146564949Y-67897434D01*
X146561780Y-67917443D01*
X146562526Y-67925335D01*
X146565941Y-67961461D01*
X146566500Y-67973319D01*
X146566500Y-68478207D01*
X146564268Y-68501816D01*
X146562725Y-68509906D01*
X146564996Y-68546000D01*
X146566251Y-68565951D01*
X146566500Y-68573862D01*
X146566500Y-71385406D01*
X146546498Y-71453527D01*
X146529595Y-71474501D01*
X142624500Y-75379595D01*
X142562188Y-75413621D01*
X142535405Y-75416500D01*
X140350533Y-75416500D01*
X140282412Y-75396498D01*
X140235919Y-75342842D01*
X140225815Y-75272568D01*
X140255309Y-75207988D01*
X140282833Y-75184233D01*
X140430592Y-75090100D01*
X140430595Y-75090098D01*
X140432907Y-75088625D01*
X140435075Y-75086961D01*
X140435087Y-75086953D01*
X140784617Y-74818748D01*
X140786809Y-74817066D01*
X140788837Y-74815208D01*
X140788845Y-74815201D01*
X141113676Y-74517547D01*
X141115696Y-74515696D01*
X141127825Y-74502460D01*
X141415201Y-74188845D01*
X141415208Y-74188837D01*
X141417066Y-74186809D01*
X141507320Y-74069188D01*
X141686953Y-73835087D01*
X141686961Y-73835075D01*
X141688625Y-73832907D01*
X141697772Y-73818550D01*
X141822504Y-73622759D01*
X141928306Y-73456683D01*
X142134284Y-73061002D01*
X142145663Y-73033532D01*
X142244660Y-72794531D01*
X142304993Y-72648875D01*
X142310236Y-72632249D01*
X142438304Y-72226067D01*
X142438305Y-72226062D01*
X142439133Y-72223437D01*
X142535683Y-71787927D01*
X142536898Y-71778703D01*
X142564605Y-71568240D01*
X142593909Y-71345659D01*
X142594903Y-71322905D01*
X142613247Y-70902748D01*
X142613367Y-70900000D01*
X142604425Y-70695198D01*
X142594030Y-70457101D01*
X142594029Y-70457090D01*
X142593909Y-70454341D01*
X142551723Y-70133909D01*
X142536042Y-70014798D01*
X142536041Y-70014793D01*
X142535683Y-70012073D01*
X142439133Y-69576563D01*
X142437162Y-69570312D01*
X142305822Y-69153753D01*
X142305819Y-69153745D01*
X142304993Y-69151125D01*
X142137815Y-68747522D01*
X142135337Y-68741540D01*
X142135336Y-68741539D01*
X142134284Y-68738998D01*
X141928306Y-68343317D01*
X141694768Y-67976735D01*
X141690100Y-67969408D01*
X141690098Y-67969405D01*
X141688625Y-67967093D01*
X141686961Y-67964925D01*
X141686953Y-67964913D01*
X141418748Y-67615383D01*
X141417066Y-67613191D01*
X141415208Y-67611163D01*
X141415201Y-67611155D01*
X141233790Y-67413181D01*
X141115696Y-67284304D01*
X141082252Y-67253658D01*
X140788845Y-66984799D01*
X140788837Y-66984792D01*
X140786809Y-66982934D01*
X140763096Y-66964738D01*
X140435087Y-66713047D01*
X140435075Y-66713039D01*
X140432907Y-66711375D01*
X140430324Y-66709729D01*
X140272065Y-66608907D01*
X140056684Y-66471694D01*
X139661002Y-66265716D01*
X139643840Y-66258607D01*
X139536103Y-66213981D01*
X139248875Y-66095007D01*
X139246255Y-66094181D01*
X139246247Y-66094178D01*
X138826067Y-65961696D01*
X138826062Y-65961695D01*
X138823437Y-65960867D01*
X138387927Y-65864317D01*
X138385207Y-65863959D01*
X138385202Y-65863958D01*
X138198885Y-65839429D01*
X137945659Y-65806091D01*
X137942910Y-65805971D01*
X137942899Y-65805970D01*
X137502748Y-65786753D01*
X137500000Y-65786633D01*
X137497252Y-65786753D01*
X137057101Y-65805970D01*
X137057090Y-65805971D01*
X137054341Y-65806091D01*
X136801115Y-65839429D01*
X136614798Y-65863958D01*
X136614793Y-65863959D01*
X136612073Y-65864317D01*
X136176563Y-65960867D01*
X136173938Y-65961695D01*
X136173933Y-65961696D01*
X135753753Y-66094178D01*
X135753745Y-66094181D01*
X135751125Y-66095007D01*
X135560700Y-66173884D01*
X135397052Y-66241669D01*
X135326462Y-66249258D01*
X135262975Y-66217479D01*
X135226748Y-66156421D01*
X135229282Y-66085469D01*
X135259739Y-66036165D01*
X135825499Y-65470405D01*
X135887811Y-65436379D01*
X135914594Y-65433500D01*
X144121233Y-65433500D01*
X144132416Y-65434027D01*
X144139909Y-65435702D01*
X144147835Y-65435453D01*
X144147836Y-65435453D01*
X144207986Y-65433562D01*
X144211945Y-65433500D01*
X144239856Y-65433500D01*
X144243791Y-65433003D01*
X144243856Y-65432995D01*
X144255693Y-65432062D01*
X144287951Y-65431048D01*
X144291970Y-65430922D01*
X144299889Y-65430673D01*
X144319343Y-65425021D01*
X144338700Y-65421013D01*
X144350930Y-65419468D01*
X144350931Y-65419468D01*
X144358797Y-65418474D01*
X144366168Y-65415555D01*
X144366170Y-65415555D01*
X144399912Y-65402196D01*
X144411142Y-65398351D01*
X144445983Y-65388229D01*
X144445984Y-65388229D01*
X144453593Y-65386018D01*
X144460412Y-65381985D01*
X144460417Y-65381983D01*
X144471028Y-65375707D01*
X144488776Y-65367012D01*
X144507617Y-65359552D01*
X144543387Y-65333564D01*
X144553307Y-65327048D01*
X144584535Y-65308580D01*
X144584538Y-65308578D01*
X144591362Y-65304542D01*
X144605683Y-65290221D01*
X144620717Y-65277380D01*
X144629314Y-65271134D01*
X144637107Y-65265472D01*
X144642158Y-65259367D01*
X144642163Y-65259362D01*
X144665294Y-65231402D01*
X144673281Y-65222624D01*
X144809585Y-65086320D01*
X144950499Y-64945405D01*
X145012812Y-64911380D01*
X145039595Y-64908500D01*
X145095487Y-64908500D01*
X145101939Y-64907128D01*
X145101944Y-64907128D01*
X145188887Y-64888647D01*
X145282288Y-64868794D01*
X145301611Y-64860191D01*
X145450722Y-64793803D01*
X145450724Y-64793802D01*
X145456752Y-64791118D01*
X145611253Y-64678866D01*
X145623494Y-64665271D01*
X145734621Y-64541852D01*
X145734622Y-64541851D01*
X145739040Y-64536944D01*
X145799980Y-64431393D01*
X145831223Y-64377279D01*
X145831224Y-64377278D01*
X145834527Y-64371556D01*
X145893542Y-64189928D01*
X145894530Y-64180533D01*
X145912814Y-64006565D01*
X145913504Y-64000000D01*
X145896646Y-63839604D01*
X145894232Y-63816635D01*
X145894232Y-63816633D01*
X145893542Y-63810072D01*
X145834527Y-63628444D01*
X145739040Y-63463056D01*
X145733196Y-63456565D01*
X145615675Y-63326045D01*
X145615674Y-63326044D01*
X145611253Y-63321134D01*
X145497647Y-63238594D01*
X145462094Y-63212763D01*
X145462093Y-63212762D01*
X145456752Y-63208882D01*
X145450724Y-63206198D01*
X145450722Y-63206197D01*
X145288319Y-63133891D01*
X145288318Y-63133891D01*
X145282288Y-63131206D01*
X145164838Y-63106241D01*
X145101944Y-63092872D01*
X145101939Y-63092872D01*
X145095487Y-63091500D01*
X144904513Y-63091500D01*
X144898061Y-63092872D01*
X144898056Y-63092872D01*
X144835162Y-63106241D01*
X144717712Y-63131206D01*
X144711682Y-63133891D01*
X144711681Y-63133891D01*
X144549278Y-63206197D01*
X144549276Y-63206198D01*
X144543248Y-63208882D01*
X144537907Y-63212762D01*
X144537906Y-63212763D01*
X144502353Y-63238594D01*
X144388747Y-63321134D01*
X144384326Y-63326044D01*
X144384325Y-63326045D01*
X144266805Y-63456565D01*
X144260960Y-63463056D01*
X144165473Y-63628444D01*
X144106458Y-63810072D01*
X144105768Y-63816633D01*
X144105768Y-63816635D01*
X144103634Y-63836944D01*
X144089234Y-63973955D01*
X144089093Y-63975292D01*
X144062080Y-64040949D01*
X144052878Y-64051218D01*
X143974499Y-64129596D01*
X143912186Y-64163621D01*
X143885404Y-64166500D01*
X135678767Y-64166500D01*
X135667584Y-64165973D01*
X135660091Y-64164298D01*
X135652165Y-64164547D01*
X135652164Y-64164547D01*
X135592014Y-64166438D01*
X135588055Y-64166500D01*
X135560144Y-64166500D01*
X135556210Y-64166997D01*
X135556209Y-64166997D01*
X135556144Y-64167005D01*
X135544307Y-64167938D01*
X135512490Y-64168938D01*
X135508029Y-64169078D01*
X135500110Y-64169327D01*
X135482454Y-64174456D01*
X135480658Y-64174978D01*
X135461306Y-64178986D01*
X135454235Y-64179880D01*
X135441203Y-64181526D01*
X135433834Y-64184443D01*
X135433832Y-64184444D01*
X135400097Y-64197800D01*
X135388869Y-64201645D01*
X135346407Y-64213982D01*
X135339585Y-64218016D01*
X135339579Y-64218019D01*
X135328968Y-64224294D01*
X135311218Y-64232990D01*
X135299756Y-64237528D01*
X135299751Y-64237531D01*
X135292383Y-64240448D01*
X135280784Y-64248875D01*
X135256625Y-64266427D01*
X135246707Y-64272943D01*
X135233214Y-64280923D01*
X135208637Y-64295458D01*
X135194313Y-64309782D01*
X135179281Y-64322621D01*
X135162893Y-64334528D01*
X135141476Y-64360417D01*
X135134712Y-64368593D01*
X135126722Y-64377373D01*
X127154943Y-72349152D01*
X127092631Y-72383178D01*
X127021816Y-72378113D01*
X126972212Y-72344367D01*
X126962428Y-72333500D01*
X126861253Y-72221134D01*
X126841906Y-72207077D01*
X126785716Y-72166253D01*
X126742362Y-72110031D01*
X126736287Y-72039294D01*
X126770682Y-71975222D01*
X128842247Y-69903657D01*
X128850537Y-69896113D01*
X128857018Y-69892000D01*
X128870956Y-69877158D01*
X128903658Y-69842333D01*
X128906413Y-69839491D01*
X128926135Y-69819769D01*
X128928612Y-69816576D01*
X128936317Y-69807555D01*
X128942254Y-69801233D01*
X128966586Y-69775321D01*
X128972323Y-69764885D01*
X128976346Y-69757568D01*
X128987202Y-69741041D01*
X128994757Y-69731302D01*
X128994758Y-69731300D01*
X128999614Y-69725040D01*
X129017174Y-69684460D01*
X129022391Y-69673812D01*
X129039875Y-69642009D01*
X129039876Y-69642007D01*
X129043695Y-69635060D01*
X129045992Y-69626116D01*
X129048733Y-69615438D01*
X129055137Y-69596734D01*
X129060033Y-69585420D01*
X129060033Y-69585419D01*
X129063181Y-69578145D01*
X129064420Y-69570322D01*
X129064423Y-69570312D01*
X129070099Y-69534476D01*
X129072505Y-69522856D01*
X129081528Y-69487711D01*
X129081528Y-69487710D01*
X129083500Y-69480030D01*
X129083500Y-69459776D01*
X129085051Y-69440065D01*
X129086980Y-69427886D01*
X129088220Y-69420057D01*
X129084059Y-69376038D01*
X129083500Y-69364181D01*
X129083500Y-61052524D01*
X129103502Y-60984403D01*
X129115858Y-60968221D01*
X129189040Y-60886944D01*
X129277866Y-60733093D01*
X129281223Y-60727279D01*
X129281224Y-60727278D01*
X129284527Y-60721556D01*
X129343542Y-60539928D01*
X129345855Y-60517926D01*
X129362814Y-60356565D01*
X129363504Y-60350000D01*
X129356774Y-60285968D01*
X129344232Y-60166635D01*
X129344232Y-60166633D01*
X129343542Y-60160072D01*
X129284527Y-59978444D01*
X129277309Y-59965941D01*
X129218565Y-59864195D01*
X129189040Y-59813056D01*
X129174581Y-59796997D01*
X129065675Y-59676045D01*
X129065674Y-59676044D01*
X129061253Y-59671134D01*
X128932120Y-59577313D01*
X128912094Y-59562763D01*
X128912093Y-59562762D01*
X128906752Y-59558882D01*
X128900724Y-59556198D01*
X128900722Y-59556197D01*
X128738319Y-59483891D01*
X128738318Y-59483891D01*
X128732288Y-59481206D01*
X128638888Y-59461353D01*
X128551944Y-59442872D01*
X128551939Y-59442872D01*
X128545487Y-59441500D01*
X128354513Y-59441500D01*
X128348061Y-59442872D01*
X128348056Y-59442872D01*
X128261112Y-59461353D01*
X128167712Y-59481206D01*
X128161682Y-59483891D01*
X128161681Y-59483891D01*
X127999278Y-59556197D01*
X127999276Y-59556198D01*
X127993248Y-59558882D01*
X127987907Y-59562762D01*
X127987906Y-59562763D01*
X127967880Y-59577313D01*
X127838747Y-59671134D01*
X127834326Y-59676044D01*
X127834325Y-59676045D01*
X127725420Y-59796997D01*
X127710960Y-59813056D01*
X127681435Y-59864195D01*
X127622692Y-59965941D01*
X127615473Y-59978444D01*
X127556458Y-60160072D01*
X127555768Y-60166633D01*
X127555768Y-60166635D01*
X127543226Y-60285968D01*
X127536496Y-60350000D01*
X127537186Y-60356565D01*
X127554146Y-60517926D01*
X127556458Y-60539928D01*
X127615473Y-60721556D01*
X127618776Y-60727278D01*
X127618777Y-60727279D01*
X127622134Y-60733093D01*
X127710960Y-60886944D01*
X127784137Y-60968215D01*
X127814853Y-61032221D01*
X127816500Y-61052524D01*
X127816500Y-69085406D01*
X127796498Y-69153527D01*
X127779595Y-69174501D01*
X124937225Y-72016870D01*
X124874913Y-72050896D01*
X124804097Y-72045831D01*
X124747262Y-72003284D01*
X124722451Y-71936764D01*
X124727571Y-71891150D01*
X124757370Y-71793069D01*
X124786529Y-71571590D01*
X124787875Y-71516500D01*
X124788074Y-71508365D01*
X124788074Y-71508361D01*
X124788156Y-71505000D01*
X124769852Y-71282361D01*
X124715431Y-71065702D01*
X124626354Y-70860840D01*
X124530141Y-70712117D01*
X124507822Y-70677617D01*
X124507820Y-70677614D01*
X124505014Y-70673277D01*
X124354670Y-70508051D01*
X124350619Y-70504852D01*
X124350615Y-70504848D01*
X124183414Y-70372800D01*
X124183410Y-70372798D01*
X124179359Y-70369598D01*
X124138053Y-70346796D01*
X124088084Y-70296364D01*
X124073312Y-70226921D01*
X124098428Y-70160516D01*
X124125780Y-70133909D01*
X124244357Y-70049329D01*
X124304860Y-70006173D01*
X124323602Y-69987497D01*
X124425230Y-69886223D01*
X124463096Y-69848489D01*
X124488531Y-69813093D01*
X124590435Y-69671277D01*
X124593453Y-69667077D01*
X124600265Y-69653295D01*
X124690136Y-69471453D01*
X124690137Y-69471451D01*
X124692430Y-69466811D01*
X124746700Y-69288187D01*
X124755865Y-69258023D01*
X124755865Y-69258021D01*
X124757370Y-69253069D01*
X124786529Y-69031590D01*
X124787674Y-68984729D01*
X124788074Y-68968365D01*
X124788074Y-68968361D01*
X124788156Y-68965000D01*
X124769852Y-68742361D01*
X124715431Y-68525702D01*
X124626354Y-68320840D01*
X124541651Y-68189909D01*
X124507822Y-68137617D01*
X124507820Y-68137614D01*
X124505014Y-68133277D01*
X124354670Y-67968051D01*
X124350619Y-67964852D01*
X124350615Y-67964848D01*
X124183414Y-67832800D01*
X124183410Y-67832798D01*
X124179359Y-67829598D01*
X124138053Y-67806796D01*
X124088084Y-67756364D01*
X124073312Y-67686921D01*
X124098428Y-67620516D01*
X124125780Y-67593909D01*
X124178366Y-67556400D01*
X124304860Y-67466173D01*
X124312966Y-67458096D01*
X124440383Y-67331123D01*
X124463096Y-67308489D01*
X124471713Y-67296498D01*
X124590435Y-67131277D01*
X124593453Y-67127077D01*
X124598697Y-67116468D01*
X124690136Y-66931453D01*
X124690137Y-66931451D01*
X124692430Y-66926811D01*
X124741255Y-66766109D01*
X124755865Y-66718023D01*
X124755865Y-66718021D01*
X124757370Y-66713069D01*
X124786529Y-66491590D01*
X124787588Y-66448266D01*
X124788074Y-66428365D01*
X124788074Y-66428361D01*
X124788156Y-66425000D01*
X124769852Y-66202361D01*
X124715431Y-65985702D01*
X124626354Y-65780840D01*
X124517059Y-65611896D01*
X124507822Y-65597617D01*
X124507820Y-65597614D01*
X124505014Y-65593277D01*
X124354670Y-65428051D01*
X124350619Y-65424852D01*
X124350615Y-65424848D01*
X124183414Y-65292800D01*
X124183410Y-65292798D01*
X124179359Y-65289598D01*
X124138053Y-65266796D01*
X124088084Y-65216364D01*
X124073312Y-65146921D01*
X124098428Y-65080516D01*
X124125780Y-65053909D01*
X124180771Y-65014684D01*
X124304860Y-64926173D01*
X124319011Y-64912072D01*
X124411462Y-64819943D01*
X124463096Y-64768489D01*
X124483547Y-64740029D01*
X124590435Y-64591277D01*
X124593453Y-64587077D01*
X124615129Y-64543220D01*
X124690136Y-64391453D01*
X124690137Y-64391451D01*
X124692430Y-64386811D01*
X124749191Y-64199989D01*
X124755865Y-64178023D01*
X124755865Y-64178021D01*
X124757370Y-64173069D01*
X124758071Y-64167751D01*
X124783408Y-63975292D01*
X124786529Y-63951590D01*
X124787095Y-63928444D01*
X124788074Y-63888365D01*
X124788074Y-63888361D01*
X124788156Y-63885000D01*
X124769852Y-63662361D01*
X124715431Y-63445702D01*
X124626354Y-63240840D01*
X124582737Y-63173419D01*
X124507822Y-63057617D01*
X124507820Y-63057614D01*
X124505014Y-63053277D01*
X124354670Y-62888051D01*
X124350619Y-62884852D01*
X124350615Y-62884848D01*
X124183414Y-62752800D01*
X124183410Y-62752798D01*
X124179359Y-62749598D01*
X124137569Y-62726529D01*
X124087598Y-62676097D01*
X124072826Y-62606654D01*
X124097942Y-62540248D01*
X124125294Y-62513641D01*
X124300328Y-62388792D01*
X124308200Y-62382139D01*
X124459052Y-62231812D01*
X124465730Y-62223965D01*
X124590003Y-62051020D01*
X124595313Y-62042183D01*
X124689670Y-61851267D01*
X124693469Y-61841672D01*
X124755377Y-61637910D01*
X124757555Y-61627837D01*
X124758986Y-61616962D01*
X124756775Y-61602778D01*
X124743617Y-61599000D01*
X122108225Y-61599000D01*
X122094694Y-61602973D01*
X122093257Y-61612966D01*
X122123565Y-61747446D01*
X122126645Y-61757275D01*
X122206770Y-61954603D01*
X122211413Y-61963794D01*
X122322694Y-62145388D01*
X122328777Y-62153699D01*
X122468213Y-62314667D01*
X122475580Y-62321883D01*
X122639434Y-62457916D01*
X122647881Y-62463831D01*
X122716969Y-62504203D01*
X122765693Y-62555842D01*
X122778764Y-62625625D01*
X122752033Y-62691396D01*
X122711584Y-62724752D01*
X122698607Y-62731507D01*
X122694474Y-62734610D01*
X122694471Y-62734612D01*
X122529292Y-62858632D01*
X122519965Y-62865635D01*
X122475909Y-62911737D01*
X122370980Y-63021539D01*
X122365629Y-63027138D01*
X122362715Y-63031410D01*
X122362714Y-63031411D01*
X122328647Y-63081352D01*
X122239743Y-63211680D01*
X122217280Y-63260072D01*
X122149327Y-63406466D01*
X122145688Y-63414305D01*
X122085989Y-63629570D01*
X122085440Y-63634704D01*
X122085440Y-63634706D01*
X122077752Y-63706644D01*
X122065903Y-63817527D01*
X122064707Y-63828715D01*
X122037579Y-63894325D01*
X121979287Y-63934853D01*
X121908337Y-63937432D01*
X121850325Y-63904421D01*
X119025088Y-61079183D01*
X122089389Y-61079183D01*
X122090912Y-61087607D01*
X122103292Y-61091000D01*
X123152885Y-61091000D01*
X123168124Y-61086525D01*
X123169329Y-61085135D01*
X123171000Y-61077452D01*
X123171000Y-61072885D01*
X123679000Y-61072885D01*
X123683475Y-61088124D01*
X123684865Y-61089329D01*
X123692548Y-61091000D01*
X124743344Y-61091000D01*
X124756875Y-61087027D01*
X124758180Y-61077947D01*
X124716214Y-60910875D01*
X124712894Y-60901124D01*
X124627972Y-60705814D01*
X124623105Y-60696739D01*
X124507426Y-60517926D01*
X124501136Y-60509757D01*
X124357806Y-60352240D01*
X124350273Y-60345215D01*
X124183139Y-60213222D01*
X124174552Y-60207517D01*
X124137116Y-60186851D01*
X124087146Y-60136419D01*
X124072374Y-60066976D01*
X124097490Y-60000571D01*
X124124842Y-59973964D01*
X124300327Y-59848792D01*
X124308200Y-59842139D01*
X124459052Y-59691812D01*
X124465730Y-59683965D01*
X124590003Y-59511020D01*
X124595313Y-59502183D01*
X124689670Y-59311267D01*
X124693469Y-59301672D01*
X124755377Y-59097910D01*
X124757555Y-59087837D01*
X124758986Y-59076962D01*
X124756775Y-59062778D01*
X124743617Y-59059000D01*
X123697115Y-59059000D01*
X123681876Y-59063475D01*
X123680671Y-59064865D01*
X123679000Y-59072548D01*
X123679000Y-61072885D01*
X123171000Y-61072885D01*
X123171000Y-59077115D01*
X123166525Y-59061876D01*
X123165135Y-59060671D01*
X123157452Y-59059000D01*
X122108225Y-59059000D01*
X122094694Y-59062973D01*
X122093257Y-59072966D01*
X122123565Y-59207446D01*
X122126645Y-59217275D01*
X122206770Y-59414603D01*
X122211413Y-59423794D01*
X122322694Y-59605388D01*
X122328777Y-59613699D01*
X122468213Y-59774667D01*
X122475580Y-59781883D01*
X122639434Y-59917916D01*
X122647881Y-59923831D01*
X122717479Y-59964501D01*
X122766203Y-60016140D01*
X122779274Y-60085923D01*
X122752543Y-60151694D01*
X122712087Y-60185053D01*
X122703462Y-60189542D01*
X122694738Y-60195036D01*
X122524433Y-60322905D01*
X122516726Y-60329748D01*
X122369590Y-60483717D01*
X122363104Y-60491727D01*
X122243098Y-60667649D01*
X122238000Y-60676623D01*
X122148338Y-60869783D01*
X122144775Y-60879470D01*
X122089389Y-61079183D01*
X119025088Y-61079183D01*
X117429796Y-59483891D01*
X112791152Y-54845247D01*
X112783612Y-54836961D01*
X112779500Y-54830482D01*
X112771025Y-54822523D01*
X112729849Y-54783857D01*
X112727007Y-54781102D01*
X112707270Y-54761365D01*
X112704073Y-54758885D01*
X112695051Y-54751180D01*
X112681648Y-54738594D01*
X112662821Y-54720914D01*
X112655875Y-54717095D01*
X112655872Y-54717093D01*
X112645066Y-54711152D01*
X112628547Y-54700301D01*
X112628083Y-54699941D01*
X112612541Y-54687886D01*
X112605272Y-54684741D01*
X112605268Y-54684738D01*
X112571963Y-54670326D01*
X112561313Y-54665109D01*
X112522560Y-54643805D01*
X112502937Y-54638767D01*
X112484234Y-54632363D01*
X112472920Y-54627467D01*
X112472919Y-54627467D01*
X112465645Y-54624319D01*
X112457822Y-54623080D01*
X112457812Y-54623077D01*
X112421976Y-54617401D01*
X112410356Y-54614995D01*
X112375211Y-54605972D01*
X112375210Y-54605972D01*
X112367530Y-54604000D01*
X112347276Y-54604000D01*
X112327565Y-54602449D01*
X112315386Y-54600520D01*
X112307557Y-54599280D01*
X112299665Y-54600026D01*
X112263539Y-54603441D01*
X112251681Y-54604000D01*
X95378640Y-54604000D01*
X95310519Y-54583998D01*
X95271497Y-54544304D01*
X95226116Y-54470969D01*
X95220934Y-54465796D01*
X95108184Y-54353242D01*
X95108179Y-54353238D01*
X95103003Y-54348071D01*
X95093333Y-54342110D01*
X94961150Y-54260631D01*
X94961148Y-54260630D01*
X94954920Y-54256791D01*
X94789809Y-54202026D01*
X94782973Y-54201326D01*
X94782970Y-54201325D01*
X94731474Y-54196049D01*
X94687072Y-54191500D01*
X94112928Y-54191500D01*
X94109682Y-54191837D01*
X94109678Y-54191837D01*
X94015765Y-54201581D01*
X94015761Y-54201582D01*
X94008907Y-54202293D01*
X94002371Y-54204474D01*
X94002369Y-54204474D01*
X93869605Y-54248768D01*
X93843893Y-54257346D01*
X93695969Y-54348884D01*
X93690796Y-54354066D01*
X93690791Y-54354070D01*
X93595511Y-54449517D01*
X93533229Y-54483597D01*
X93506338Y-54486500D01*
X92737550Y-54486500D01*
X92679842Y-54471736D01*
X92676705Y-54469385D01*
X92540316Y-54418255D01*
X92478134Y-54411500D01*
X90959500Y-54411500D01*
X90891379Y-54391498D01*
X90844886Y-54337842D01*
X90833500Y-54285500D01*
X90833500Y-53502524D01*
X90853502Y-53434403D01*
X90865858Y-53418221D01*
X90939040Y-53336944D01*
X91034527Y-53171556D01*
X91093542Y-52989928D01*
X91097729Y-52950096D01*
X91112814Y-52806565D01*
X91113504Y-52800000D01*
X91108004Y-52747670D01*
X91120776Y-52677832D01*
X91169278Y-52625985D01*
X91233314Y-52608500D01*
X121360406Y-52608500D01*
X121428527Y-52628502D01*
X121449501Y-52645405D01*
X122029595Y-53225499D01*
X122063621Y-53287811D01*
X122066500Y-53314594D01*
X122066500Y-54623134D01*
X122073255Y-54685316D01*
X122124385Y-54821705D01*
X122211739Y-54938261D01*
X122328295Y-55025615D01*
X122336704Y-55028767D01*
X122336705Y-55028768D01*
X122445451Y-55069535D01*
X122502216Y-55112176D01*
X122526916Y-55178738D01*
X122511709Y-55248087D01*
X122492316Y-55274568D01*
X122445123Y-55323953D01*
X122365629Y-55407138D01*
X122362715Y-55411410D01*
X122362714Y-55411411D01*
X122329710Y-55459793D01*
X122239743Y-55591680D01*
X122201011Y-55675121D01*
X122152614Y-55779385D01*
X122145688Y-55794305D01*
X122085989Y-56009570D01*
X122062251Y-56231695D01*
X122062548Y-56236848D01*
X122062548Y-56236851D01*
X122073948Y-56434562D01*
X122075110Y-56454715D01*
X122076247Y-56459761D01*
X122076248Y-56459767D01*
X122097161Y-56552562D01*
X122124222Y-56672639D01*
X122163628Y-56769684D01*
X122187498Y-56828469D01*
X122208266Y-56879616D01*
X122257285Y-56959608D01*
X122318241Y-57059079D01*
X122324987Y-57070088D01*
X122471250Y-57238938D01*
X122643126Y-57381632D01*
X122657987Y-57390316D01*
X122716955Y-57424774D01*
X122765679Y-57476412D01*
X122778750Y-57546195D01*
X122752019Y-57611967D01*
X122711562Y-57645327D01*
X122703457Y-57649546D01*
X122694738Y-57655036D01*
X122524433Y-57782905D01*
X122516726Y-57789748D01*
X122369590Y-57943717D01*
X122363104Y-57951727D01*
X122243098Y-58127649D01*
X122238000Y-58136623D01*
X122148338Y-58329783D01*
X122144775Y-58339470D01*
X122089389Y-58539183D01*
X122090912Y-58547607D01*
X122103292Y-58551000D01*
X124743344Y-58551000D01*
X124756875Y-58547027D01*
X124758180Y-58537947D01*
X124716214Y-58370875D01*
X124712894Y-58361124D01*
X124627972Y-58165814D01*
X124623105Y-58156739D01*
X124507426Y-57977926D01*
X124501136Y-57969757D01*
X124357806Y-57812240D01*
X124350273Y-57805215D01*
X124183139Y-57673222D01*
X124174556Y-57667520D01*
X124137602Y-57647120D01*
X124087631Y-57596687D01*
X124072859Y-57527245D01*
X124097975Y-57460839D01*
X124125327Y-57434232D01*
X124151510Y-57415556D01*
X124304860Y-57306173D01*
X124326492Y-57284617D01*
X124459435Y-57152137D01*
X124463096Y-57148489D01*
X124521047Y-57067842D01*
X124590435Y-56971277D01*
X124593453Y-56967077D01*
X124595746Y-56962437D01*
X124597446Y-56959608D01*
X124649674Y-56911518D01*
X124705451Y-56898500D01*
X127752488Y-56898500D01*
X127820609Y-56918502D01*
X127841583Y-56935405D01*
X130479595Y-59573417D01*
X130513621Y-59635729D01*
X130516500Y-59662512D01*
X130516500Y-63597476D01*
X130496498Y-63665597D01*
X130484142Y-63681779D01*
X130410960Y-63763056D01*
X130315473Y-63928444D01*
X130256458Y-64110072D01*
X130255768Y-64116633D01*
X130255768Y-64116635D01*
X130245537Y-64213982D01*
X130236496Y-64300000D01*
X130237186Y-64306565D01*
X130253205Y-64458974D01*
X130256458Y-64489928D01*
X130315473Y-64671556D01*
X130318776Y-64677278D01*
X130318777Y-64677279D01*
X130330266Y-64697178D01*
X130410960Y-64836944D01*
X130415378Y-64841851D01*
X130415379Y-64841852D01*
X130521516Y-64959729D01*
X130538747Y-64978866D01*
X130598984Y-65022631D01*
X130678656Y-65080516D01*
X130693248Y-65091118D01*
X130699276Y-65093802D01*
X130699278Y-65093803D01*
X130852558Y-65162047D01*
X130867712Y-65168794D01*
X130949365Y-65186150D01*
X131048056Y-65207128D01*
X131048061Y-65207128D01*
X131054513Y-65208500D01*
X131245487Y-65208500D01*
X131251939Y-65207128D01*
X131251944Y-65207128D01*
X131350635Y-65186150D01*
X131432288Y-65168794D01*
X131447442Y-65162047D01*
X131600722Y-65093803D01*
X131600724Y-65093802D01*
X131606752Y-65091118D01*
X131621345Y-65080516D01*
X131701016Y-65022631D01*
X131761253Y-64978866D01*
X131778484Y-64959729D01*
X131884621Y-64841852D01*
X131884622Y-64841851D01*
X131889040Y-64836944D01*
X131969734Y-64697178D01*
X131981223Y-64677279D01*
X131981224Y-64677278D01*
X131984527Y-64671556D01*
X132043542Y-64489928D01*
X132046796Y-64458974D01*
X132062814Y-64306565D01*
X132063504Y-64300000D01*
X132054463Y-64213982D01*
X132044232Y-64116635D01*
X132044232Y-64116633D01*
X132043542Y-64110072D01*
X131984527Y-63928444D01*
X131889040Y-63763056D01*
X131815863Y-63681785D01*
X131785147Y-63617779D01*
X131783500Y-63597476D01*
X131783500Y-59426681D01*
X131784027Y-59415497D01*
X131785701Y-59408009D01*
X131783562Y-59339950D01*
X131783500Y-59335993D01*
X131783500Y-59308062D01*
X131782994Y-59304056D01*
X131782061Y-59292210D01*
X131781369Y-59270166D01*
X131780673Y-59248028D01*
X131775022Y-59228576D01*
X131771014Y-59209224D01*
X131769468Y-59196986D01*
X131769467Y-59196984D01*
X131768474Y-59189121D01*
X131752194Y-59148004D01*
X131748359Y-59136803D01*
X131736018Y-59094324D01*
X131731985Y-59087505D01*
X131731983Y-59087500D01*
X131725707Y-59076889D01*
X131717010Y-59059139D01*
X131709552Y-59040301D01*
X131683571Y-59004541D01*
X131677053Y-58994619D01*
X131658578Y-58963378D01*
X131658574Y-58963373D01*
X131654542Y-58956555D01*
X131640218Y-58942231D01*
X131627376Y-58927196D01*
X131615472Y-58910811D01*
X131581406Y-58882629D01*
X131572627Y-58874640D01*
X128570734Y-55872747D01*
X128563194Y-55864461D01*
X128559082Y-55857982D01*
X128509430Y-55811356D01*
X128506589Y-55808602D01*
X128486852Y-55788865D01*
X128483655Y-55786385D01*
X128474633Y-55778680D01*
X128448182Y-55753841D01*
X128442403Y-55748414D01*
X128435457Y-55744595D01*
X128435454Y-55744593D01*
X128424648Y-55738652D01*
X128408129Y-55727801D01*
X128400005Y-55721500D01*
X128392123Y-55715386D01*
X128384854Y-55712241D01*
X128384850Y-55712238D01*
X128351545Y-55697826D01*
X128340895Y-55692609D01*
X128302142Y-55671305D01*
X128282519Y-55666267D01*
X128263816Y-55659863D01*
X128252502Y-55654967D01*
X128252501Y-55654967D01*
X128245227Y-55651819D01*
X128237404Y-55650580D01*
X128237394Y-55650577D01*
X128201558Y-55644901D01*
X128189938Y-55642495D01*
X128154793Y-55633472D01*
X128154792Y-55633472D01*
X128147112Y-55631500D01*
X128126858Y-55631500D01*
X128107147Y-55629949D01*
X128094968Y-55628020D01*
X128087139Y-55626780D01*
X128079247Y-55627526D01*
X128043121Y-55630941D01*
X128031263Y-55631500D01*
X124701805Y-55631500D01*
X124633684Y-55611498D01*
X124596013Y-55573940D01*
X124507822Y-55437617D01*
X124507820Y-55437614D01*
X124505014Y-55433277D01*
X124486498Y-55412928D01*
X124357798Y-55271488D01*
X124326746Y-55207642D01*
X124335141Y-55137143D01*
X124380317Y-55082375D01*
X124406761Y-55068706D01*
X124513297Y-55028767D01*
X124521705Y-55025615D01*
X124638261Y-54938261D01*
X124725615Y-54821705D01*
X124776745Y-54685316D01*
X124783500Y-54623134D01*
X124783500Y-54000000D01*
X132386633Y-54000000D01*
X132386753Y-54002748D01*
X132405213Y-54425548D01*
X132406091Y-54445659D01*
X132430027Y-54627467D01*
X132463742Y-54883556D01*
X132464317Y-54887927D01*
X132560867Y-55323437D01*
X132561695Y-55326062D01*
X132561696Y-55326067D01*
X132693657Y-55744593D01*
X132695007Y-55748875D01*
X132807710Y-56020963D01*
X132864473Y-56158000D01*
X132865716Y-56161002D01*
X133071694Y-56556683D01*
X133188612Y-56740208D01*
X133286229Y-56893435D01*
X133311375Y-56932907D01*
X133313039Y-56935075D01*
X133313047Y-56935087D01*
X133476797Y-57148489D01*
X133582934Y-57286809D01*
X133584792Y-57288837D01*
X133584799Y-57288845D01*
X133821850Y-57547540D01*
X133884304Y-57615696D01*
X133886324Y-57617547D01*
X134211155Y-57915201D01*
X134211163Y-57915208D01*
X134213191Y-57917066D01*
X134215383Y-57918748D01*
X134564913Y-58186953D01*
X134564925Y-58186961D01*
X134567093Y-58188625D01*
X134569405Y-58190098D01*
X134569408Y-58190100D01*
X134649288Y-58240989D01*
X134943316Y-58428306D01*
X135338998Y-58634284D01*
X135341539Y-58635336D01*
X135341540Y-58635337D01*
X135386930Y-58654138D01*
X135751125Y-58804993D01*
X135753745Y-58805819D01*
X135753753Y-58805822D01*
X136173933Y-58938304D01*
X136173938Y-58938305D01*
X136176563Y-58939133D01*
X136612073Y-59035683D01*
X136614793Y-59036041D01*
X136614798Y-59036042D01*
X136703130Y-59047671D01*
X137054341Y-59093909D01*
X137057090Y-59094029D01*
X137057101Y-59094030D01*
X137497252Y-59113247D01*
X137500000Y-59113367D01*
X137502748Y-59113247D01*
X137942899Y-59094030D01*
X137942910Y-59094029D01*
X137945659Y-59093909D01*
X138296870Y-59047671D01*
X138385202Y-59036042D01*
X138385207Y-59036041D01*
X138387927Y-59035683D01*
X138823437Y-58939133D01*
X138826062Y-58938305D01*
X138826067Y-58938304D01*
X139246247Y-58805822D01*
X139246255Y-58805819D01*
X139248875Y-58804993D01*
X139613070Y-58654138D01*
X139658460Y-58635337D01*
X139658461Y-58635336D01*
X139661002Y-58634284D01*
X140056684Y-58428306D01*
X140350712Y-58240989D01*
X140430592Y-58190100D01*
X140430595Y-58190098D01*
X140432907Y-58188625D01*
X140435075Y-58186961D01*
X140435087Y-58186953D01*
X140784617Y-57918748D01*
X140786809Y-57917066D01*
X140788837Y-57915208D01*
X140788845Y-57915201D01*
X141113676Y-57617547D01*
X141115696Y-57615696D01*
X141178150Y-57547540D01*
X141415201Y-57288845D01*
X141415208Y-57288837D01*
X141417066Y-57286809D01*
X141523203Y-57148489D01*
X141686953Y-56935087D01*
X141686961Y-56935075D01*
X141688625Y-56932907D01*
X141713772Y-56893435D01*
X141811388Y-56740208D01*
X141928306Y-56556683D01*
X142134284Y-56161002D01*
X142135528Y-56158000D01*
X142192290Y-56020963D01*
X142304993Y-55748875D01*
X142306344Y-55744593D01*
X142438304Y-55326067D01*
X142438305Y-55326062D01*
X142439133Y-55323437D01*
X142535683Y-54887927D01*
X142536259Y-54883556D01*
X142569973Y-54627467D01*
X142593909Y-54445659D01*
X142594788Y-54425548D01*
X142613247Y-54002748D01*
X142613367Y-54000000D01*
X142604717Y-53801873D01*
X142594030Y-53557101D01*
X142594029Y-53557090D01*
X142593909Y-53554341D01*
X142546599Y-53194985D01*
X142536042Y-53114798D01*
X142536041Y-53114793D01*
X142535683Y-53112073D01*
X142439133Y-52676563D01*
X142426565Y-52636703D01*
X142305822Y-52253753D01*
X142305819Y-52253745D01*
X142304993Y-52251125D01*
X142134284Y-51838998D01*
X141928306Y-51443317D01*
X141688625Y-51067093D01*
X141686961Y-51064925D01*
X141686953Y-51064913D01*
X141418748Y-50715383D01*
X141417066Y-50713191D01*
X141415208Y-50711163D01*
X141415201Y-50711155D01*
X141117547Y-50386324D01*
X141115696Y-50384304D01*
X141026663Y-50302720D01*
X140788845Y-50084799D01*
X140788837Y-50084792D01*
X140786809Y-50082934D01*
X140776426Y-50074967D01*
X140435087Y-49813047D01*
X140435075Y-49813039D01*
X140432907Y-49811375D01*
X140056684Y-49571694D01*
X139661002Y-49365716D01*
X139248875Y-49195007D01*
X139246255Y-49194181D01*
X139246247Y-49194178D01*
X138826067Y-49061696D01*
X138826062Y-49061695D01*
X138823437Y-49060867D01*
X138387927Y-48964317D01*
X138385207Y-48963959D01*
X138385202Y-48963958D01*
X138219758Y-48942177D01*
X137945659Y-48906091D01*
X137942910Y-48905971D01*
X137942899Y-48905970D01*
X137502748Y-48886753D01*
X137500000Y-48886633D01*
X137497252Y-48886753D01*
X137057101Y-48905970D01*
X137057090Y-48905971D01*
X137054341Y-48906091D01*
X136780242Y-48942177D01*
X136614798Y-48963958D01*
X136614793Y-48963959D01*
X136612073Y-48964317D01*
X136176563Y-49060867D01*
X136173938Y-49061695D01*
X136173933Y-49061696D01*
X135753753Y-49194178D01*
X135753745Y-49194181D01*
X135751125Y-49195007D01*
X135338998Y-49365716D01*
X134943317Y-49571694D01*
X134790282Y-49669188D01*
X134653128Y-49756565D01*
X134567093Y-49811375D01*
X134564925Y-49813039D01*
X134564913Y-49813047D01*
X134223574Y-50074967D01*
X134213191Y-50082934D01*
X134211163Y-50084792D01*
X134211155Y-50084799D01*
X133973337Y-50302720D01*
X133884304Y-50384304D01*
X133882453Y-50386324D01*
X133584799Y-50711155D01*
X133584792Y-50711163D01*
X133582934Y-50713191D01*
X133581252Y-50715383D01*
X133313047Y-51064913D01*
X133313039Y-51064925D01*
X133311375Y-51067093D01*
X133071694Y-51443317D01*
X132865716Y-51838998D01*
X132695007Y-52251125D01*
X132694181Y-52253745D01*
X132694178Y-52253753D01*
X132573435Y-52636703D01*
X132560867Y-52676563D01*
X132464317Y-53112073D01*
X132463959Y-53114793D01*
X132463958Y-53114798D01*
X132453401Y-53194985D01*
X132406091Y-53554341D01*
X132405971Y-53557090D01*
X132405970Y-53557101D01*
X132395283Y-53801873D01*
X132389127Y-53942874D01*
X132386633Y-54000000D01*
X124783500Y-54000000D01*
X124783500Y-52826866D01*
X124776745Y-52764684D01*
X124725615Y-52628295D01*
X124638261Y-52511739D01*
X124521705Y-52424385D01*
X124385316Y-52373255D01*
X124323134Y-52366500D01*
X123014595Y-52366500D01*
X122946474Y-52346498D01*
X122925500Y-52329595D01*
X122178652Y-51582747D01*
X122171112Y-51574461D01*
X122167000Y-51567982D01*
X122117348Y-51521356D01*
X122114507Y-51518602D01*
X122094770Y-51498865D01*
X122091573Y-51496385D01*
X122082551Y-51488680D01*
X122069122Y-51476069D01*
X122050321Y-51458414D01*
X122043375Y-51454595D01*
X122043372Y-51454593D01*
X122032566Y-51448652D01*
X122016047Y-51437801D01*
X122015583Y-51437441D01*
X122000041Y-51425386D01*
X121992772Y-51422241D01*
X121992768Y-51422238D01*
X121959463Y-51407826D01*
X121948813Y-51402609D01*
X121910060Y-51381305D01*
X121890437Y-51376267D01*
X121871734Y-51369863D01*
X121860420Y-51364967D01*
X121860419Y-51364967D01*
X121853145Y-51361819D01*
X121845322Y-51360580D01*
X121845312Y-51360577D01*
X121809476Y-51354901D01*
X121797856Y-51352495D01*
X121762711Y-51343472D01*
X121762710Y-51343472D01*
X121755030Y-51341500D01*
X121734776Y-51341500D01*
X121715065Y-51339949D01*
X121702886Y-51338020D01*
X121695057Y-51336780D01*
X121665786Y-51339547D01*
X121651039Y-51340941D01*
X121639181Y-51341500D01*
X94990450Y-51341500D01*
X94922329Y-51321498D01*
X94875836Y-51267842D01*
X94865732Y-51197568D01*
X94878941Y-51156833D01*
X94967990Y-50987579D01*
X94967993Y-50987573D01*
X94970115Y-50983539D01*
X95006210Y-50881329D01*
X95058402Y-50733533D01*
X95058402Y-50733532D01*
X95059925Y-50729220D01*
X95096487Y-50543717D01*
X95111200Y-50469072D01*
X95111201Y-50469066D01*
X95112081Y-50464600D01*
X95113860Y-50428866D01*
X95125264Y-50199792D01*
X95125264Y-50199786D01*
X95125491Y-50195223D01*
X95099875Y-49926731D01*
X95095439Y-49908600D01*
X95036855Y-49669188D01*
X95035769Y-49664750D01*
X94934515Y-49414767D01*
X94817468Y-49214865D01*
X94800545Y-49185963D01*
X94800544Y-49185962D01*
X94798235Y-49182018D01*
X94680428Y-49034708D01*
X94632636Y-48974947D01*
X94632635Y-48974945D01*
X94629784Y-48971381D01*
X94432691Y-48787266D01*
X94211084Y-48633532D01*
X94207001Y-48631501D01*
X94206998Y-48631499D01*
X94042106Y-48549467D01*
X93969606Y-48513399D01*
X93965272Y-48511978D01*
X93965269Y-48511977D01*
X93717647Y-48430802D01*
X93717641Y-48430801D01*
X93713314Y-48429382D01*
X93708822Y-48428602D01*
X93451360Y-48383899D01*
X93451352Y-48383898D01*
X93447579Y-48383243D01*
X93436317Y-48382682D01*
X93363922Y-48379078D01*
X93363914Y-48379078D01*
X93362351Y-48379000D01*
X93193988Y-48379000D01*
X93191720Y-48379165D01*
X93191708Y-48379165D01*
X93060616Y-48388677D01*
X92993496Y-48393547D01*
X92989041Y-48394531D01*
X92989038Y-48394531D01*
X92734588Y-48450709D01*
X92734584Y-48450710D01*
X92730128Y-48451694D01*
X92611339Y-48496699D01*
X92482182Y-48545632D01*
X92482179Y-48545633D01*
X92477912Y-48547250D01*
X92242132Y-48678214D01*
X92027727Y-48841843D01*
X92024534Y-48845109D01*
X92024532Y-48845111D01*
X91983824Y-48886753D01*
X91839188Y-49034708D01*
X91680466Y-49252770D01*
X91678344Y-49256804D01*
X91557010Y-49487421D01*
X91557007Y-49487427D01*
X91554885Y-49491461D01*
X91553365Y-49495766D01*
X91553363Y-49495770D01*
X91466598Y-49741467D01*
X91465075Y-49745780D01*
X91451817Y-49813047D01*
X91422187Y-49963380D01*
X91412919Y-50010400D01*
X91412692Y-50014953D01*
X91412692Y-50014956D01*
X91402077Y-50228197D01*
X91399509Y-50279777D01*
X91425125Y-50548269D01*
X91426210Y-50552703D01*
X91426211Y-50552709D01*
X91481216Y-50777497D01*
X91489231Y-50810250D01*
X91590485Y-51060233D01*
X91623717Y-51116989D01*
X91644120Y-51151835D01*
X91661280Y-51220727D01*
X91638469Y-51287959D01*
X91582931Y-51332186D01*
X91535388Y-51341500D01*
X89803767Y-51341500D01*
X89792584Y-51340973D01*
X89785091Y-51339298D01*
X89777165Y-51339547D01*
X89777164Y-51339547D01*
X89717014Y-51341438D01*
X89713055Y-51341500D01*
X89685144Y-51341500D01*
X89681210Y-51341997D01*
X89681209Y-51341997D01*
X89681144Y-51342005D01*
X89669307Y-51342938D01*
X89637490Y-51343938D01*
X89633029Y-51344078D01*
X89625110Y-51344327D01*
X89607454Y-51349456D01*
X89605658Y-51349978D01*
X89586306Y-51353986D01*
X89579235Y-51354880D01*
X89566203Y-51356526D01*
X89558834Y-51359443D01*
X89558832Y-51359444D01*
X89525097Y-51372800D01*
X89513869Y-51376645D01*
X89471407Y-51388982D01*
X89464584Y-51393017D01*
X89464582Y-51393018D01*
X89453972Y-51399293D01*
X89436224Y-51407988D01*
X89417383Y-51415448D01*
X89410967Y-51420110D01*
X89410966Y-51420110D01*
X89381613Y-51441436D01*
X89371693Y-51447952D01*
X89340465Y-51466420D01*
X89340462Y-51466422D01*
X89333638Y-51470458D01*
X89319317Y-51484779D01*
X89304284Y-51497619D01*
X89287893Y-51509528D01*
X89279217Y-51520016D01*
X89259702Y-51543605D01*
X89251712Y-51552384D01*
X87636095Y-53168001D01*
X87573783Y-53202027D01*
X87502968Y-53196962D01*
X87446132Y-53154415D01*
X87421321Y-53087895D01*
X87421000Y-53078906D01*
X87421000Y-50847699D01*
X87441002Y-50779578D01*
X87480699Y-50740554D01*
X87504031Y-50726116D01*
X87514745Y-50715383D01*
X87610747Y-50619214D01*
X87673030Y-50585135D01*
X87743850Y-50590138D01*
X87788937Y-50619059D01*
X87891812Y-50721754D01*
X87891817Y-50721758D01*
X87896997Y-50726929D01*
X87903227Y-50730769D01*
X87903228Y-50730770D01*
X88033935Y-50811339D01*
X88045080Y-50818209D01*
X88210191Y-50872974D01*
X88217027Y-50873674D01*
X88217030Y-50873675D01*
X88264370Y-50878525D01*
X88312928Y-50883500D01*
X88912072Y-50883500D01*
X88915318Y-50883163D01*
X88915322Y-50883163D01*
X89009235Y-50873419D01*
X89009239Y-50873418D01*
X89016093Y-50872707D01*
X89022629Y-50870526D01*
X89022631Y-50870526D01*
X89155395Y-50826232D01*
X89181107Y-50817654D01*
X89329031Y-50726116D01*
X89334204Y-50720934D01*
X89334209Y-50720930D01*
X89402081Y-50652939D01*
X89464363Y-50618859D01*
X89517138Y-50621493D01*
X89517712Y-50618794D01*
X89698056Y-50657128D01*
X89698061Y-50657128D01*
X89704513Y-50658500D01*
X89895487Y-50658500D01*
X89901939Y-50657128D01*
X89901944Y-50657128D01*
X89988887Y-50638647D01*
X90082288Y-50618794D01*
X90106548Y-50607993D01*
X90250722Y-50543803D01*
X90250724Y-50543802D01*
X90256752Y-50541118D01*
X90411253Y-50428866D01*
X90415675Y-50423955D01*
X90534621Y-50291852D01*
X90534622Y-50291851D01*
X90539040Y-50286944D01*
X90605337Y-50172115D01*
X90631223Y-50127279D01*
X90631224Y-50127278D01*
X90634527Y-50121556D01*
X90693542Y-49939928D01*
X90694490Y-49930914D01*
X90712814Y-49756565D01*
X90713504Y-49750000D01*
X90712607Y-49741467D01*
X90694232Y-49566635D01*
X90694232Y-49566633D01*
X90693542Y-49560072D01*
X90634527Y-49378444D01*
X90627179Y-49365716D01*
X90542341Y-49218774D01*
X90539040Y-49213056D01*
X90524581Y-49196997D01*
X90415675Y-49076045D01*
X90415674Y-49076044D01*
X90411253Y-49071134D01*
X90294355Y-48986202D01*
X90262094Y-48962763D01*
X90262093Y-48962762D01*
X90256752Y-48958882D01*
X90250724Y-48956198D01*
X90250722Y-48956197D01*
X90088319Y-48883891D01*
X90088318Y-48883891D01*
X90082288Y-48881206D01*
X89988888Y-48861353D01*
X89901944Y-48842872D01*
X89901939Y-48842872D01*
X89895487Y-48841500D01*
X89704513Y-48841500D01*
X89698061Y-48842872D01*
X89698056Y-48842872D01*
X89611112Y-48861353D01*
X89517712Y-48881206D01*
X89511682Y-48883891D01*
X89511681Y-48883891D01*
X89349279Y-48956197D01*
X89343248Y-48958882D01*
X89337912Y-48962759D01*
X89337905Y-48962763D01*
X89319455Y-48976168D01*
X89252588Y-49000026D01*
X89192144Y-48988427D01*
X89186155Y-48985634D01*
X89179920Y-48981791D01*
X89014809Y-48927026D01*
X89007973Y-48926326D01*
X89007970Y-48926325D01*
X88956474Y-48921049D01*
X88912072Y-48916500D01*
X88312928Y-48916500D01*
X88309682Y-48916837D01*
X88309678Y-48916837D01*
X88215765Y-48926581D01*
X88215761Y-48926582D01*
X88208907Y-48927293D01*
X88202371Y-48929474D01*
X88202369Y-48929474D01*
X88096146Y-48964913D01*
X88043893Y-48982346D01*
X87895969Y-49073884D01*
X87890796Y-49079066D01*
X87789253Y-49180786D01*
X87726970Y-49214865D01*
X87656150Y-49209862D01*
X87611063Y-49180941D01*
X87508188Y-49078246D01*
X87508183Y-49078242D01*
X87503003Y-49073071D01*
X87496772Y-49069230D01*
X87361150Y-48985631D01*
X87361148Y-48985630D01*
X87354920Y-48981791D01*
X87189809Y-48927026D01*
X87182973Y-48926326D01*
X87182970Y-48926325D01*
X87131474Y-48921049D01*
X87087072Y-48916500D01*
X86487928Y-48916500D01*
X86484682Y-48916837D01*
X86484678Y-48916837D01*
X86390765Y-48926581D01*
X86390761Y-48926582D01*
X86383907Y-48927293D01*
X86377371Y-48929474D01*
X86377369Y-48929474D01*
X86271146Y-48964913D01*
X86218893Y-48982346D01*
X86070969Y-49073884D01*
X86065796Y-49079066D01*
X85953242Y-49191816D01*
X85953238Y-49191821D01*
X85948071Y-49196997D01*
X85944231Y-49203227D01*
X85944230Y-49203228D01*
X85902264Y-49271310D01*
X85856791Y-49345080D01*
X85802026Y-49510191D01*
X85791500Y-49612928D01*
X85791500Y-50187072D01*
X85791837Y-50190318D01*
X85791837Y-50190322D01*
X85801571Y-50284132D01*
X85802293Y-50291093D01*
X85804474Y-50297629D01*
X85804474Y-50297631D01*
X85846619Y-50423955D01*
X85857346Y-50456107D01*
X85948884Y-50604031D01*
X86071997Y-50726929D01*
X86078224Y-50730767D01*
X86078226Y-50730769D01*
X86094116Y-50740564D01*
X86141609Y-50793336D01*
X86154000Y-50847824D01*
X86154000Y-52897906D01*
X86133998Y-52966027D01*
X86117095Y-52987001D01*
X82550614Y-56553481D01*
X82488302Y-56587507D01*
X82417486Y-56582442D01*
X82377571Y-56552562D01*
X82405313Y-56585703D01*
X82414216Y-56656139D01*
X82378918Y-56725177D01*
X82107747Y-56996348D01*
X82099461Y-57003888D01*
X82092982Y-57008000D01*
X82087557Y-57013777D01*
X82046357Y-57057651D01*
X82043602Y-57060493D01*
X82023865Y-57080230D01*
X82021385Y-57083427D01*
X82013680Y-57092449D01*
X82004943Y-57101753D01*
X81943731Y-57137718D01*
X81913093Y-57141500D01*
X81376866Y-57141500D01*
X81373469Y-57141869D01*
X81351165Y-57144292D01*
X81314684Y-57148255D01*
X81314452Y-57146116D01*
X81285488Y-57146166D01*
X81285207Y-57148748D01*
X81226486Y-57142369D01*
X81219672Y-57142000D01*
X81172115Y-57142000D01*
X81156876Y-57146475D01*
X81155671Y-57147865D01*
X81151121Y-57168783D01*
X81149903Y-57168518D01*
X81133998Y-57222687D01*
X81103565Y-57255392D01*
X81081998Y-57271556D01*
X81061739Y-57286739D01*
X81007034Y-57359732D01*
X81000826Y-57368015D01*
X80943967Y-57410530D01*
X80873148Y-57415556D01*
X80810855Y-57381496D01*
X80799174Y-57368015D01*
X80791294Y-57357500D01*
X80758674Y-57313976D01*
X80733826Y-57247470D01*
X80733500Y-57238411D01*
X80733500Y-56755214D01*
X80753502Y-56687093D01*
X80807158Y-56640600D01*
X80877432Y-56630496D01*
X80899167Y-56635621D01*
X81003766Y-56670315D01*
X81017132Y-56673181D01*
X81109770Y-56682672D01*
X81116185Y-56683000D01*
X81190385Y-56683000D01*
X81205624Y-56678525D01*
X81206829Y-56677135D01*
X81208500Y-56669452D01*
X81208500Y-56664885D01*
X81716500Y-56664885D01*
X81720975Y-56680124D01*
X81722365Y-56681329D01*
X81730048Y-56683000D01*
X81808766Y-56683000D01*
X81815282Y-56682663D01*
X81909132Y-56672925D01*
X81922528Y-56670032D01*
X82073953Y-56619512D01*
X82087115Y-56613347D01*
X82223521Y-56528937D01*
X82291973Y-56510100D01*
X82357126Y-56530445D01*
X82335840Y-56473375D01*
X82354259Y-56398270D01*
X82438912Y-56260937D01*
X82445056Y-56247759D01*
X82495315Y-56096234D01*
X82498181Y-56082868D01*
X82507672Y-55990230D01*
X82508000Y-55983815D01*
X82508000Y-55972115D01*
X82503525Y-55956876D01*
X82502135Y-55955671D01*
X82494452Y-55954000D01*
X81734615Y-55954000D01*
X81719376Y-55958475D01*
X81718171Y-55959865D01*
X81716500Y-55967548D01*
X81716500Y-56664885D01*
X81208500Y-56664885D01*
X81208500Y-55427885D01*
X81716500Y-55427885D01*
X81720975Y-55443124D01*
X81722365Y-55444329D01*
X81730048Y-55446000D01*
X82489885Y-55446000D01*
X82505124Y-55441525D01*
X82506329Y-55440135D01*
X82508000Y-55432452D01*
X82508000Y-55416234D01*
X82507663Y-55409718D01*
X82497925Y-55315868D01*
X82495032Y-55302472D01*
X82444512Y-55151047D01*
X82438347Y-55137885D01*
X82354574Y-55002508D01*
X82345540Y-54991110D01*
X82232871Y-54878637D01*
X82221460Y-54869625D01*
X82085937Y-54786088D01*
X82072759Y-54779944D01*
X81921234Y-54729685D01*
X81907868Y-54726819D01*
X81815230Y-54717328D01*
X81808815Y-54717000D01*
X81734615Y-54717000D01*
X81719376Y-54721475D01*
X81718171Y-54722865D01*
X81716500Y-54730548D01*
X81716500Y-55427885D01*
X81208500Y-55427885D01*
X81208500Y-54735115D01*
X81204025Y-54719876D01*
X81202635Y-54718671D01*
X81194952Y-54717000D01*
X81116234Y-54717000D01*
X81109718Y-54717337D01*
X81015868Y-54727075D01*
X81002472Y-54729968D01*
X80851047Y-54780488D01*
X80837885Y-54786653D01*
X80702508Y-54870426D01*
X80691106Y-54879464D01*
X80689433Y-54881139D01*
X80688007Y-54881919D01*
X80685373Y-54884007D01*
X80685016Y-54883556D01*
X80627151Y-54915219D01*
X80556331Y-54910216D01*
X80511246Y-54881299D01*
X80508185Y-54878244D01*
X80508184Y-54878243D01*
X80503003Y-54873071D01*
X80480883Y-54859436D01*
X80361150Y-54785631D01*
X80361148Y-54785630D01*
X80354920Y-54781791D01*
X80189809Y-54727026D01*
X80182973Y-54726326D01*
X80182970Y-54726325D01*
X80130154Y-54720914D01*
X80087072Y-54716500D01*
X79387928Y-54716500D01*
X79384682Y-54716837D01*
X79384678Y-54716837D01*
X79290765Y-54726581D01*
X79290761Y-54726582D01*
X79283907Y-54727293D01*
X79277371Y-54729474D01*
X79277369Y-54729474D01*
X79189193Y-54758892D01*
X79118893Y-54782346D01*
X78970969Y-54873884D01*
X78889209Y-54955787D01*
X78826929Y-54989866D01*
X78756108Y-54984863D01*
X78711020Y-54955943D01*
X78686329Y-54931295D01*
X78657983Y-54902998D01*
X78623903Y-54840716D01*
X78621000Y-54813825D01*
X78621000Y-53227023D01*
X78631778Y-53176318D01*
X78634527Y-53171556D01*
X78640097Y-53154415D01*
X78691502Y-52996206D01*
X78693542Y-52989928D01*
X78697729Y-52950096D01*
X78712814Y-52806565D01*
X78713504Y-52800000D01*
X78708004Y-52747670D01*
X78694232Y-52616635D01*
X78694232Y-52616633D01*
X78693542Y-52610072D01*
X78634527Y-52428444D01*
X78539040Y-52263056D01*
X78526010Y-52248584D01*
X78415675Y-52126045D01*
X78415674Y-52126044D01*
X78411253Y-52121134D01*
X78256752Y-52008882D01*
X78250724Y-52006198D01*
X78250722Y-52006197D01*
X78088319Y-51933891D01*
X78088318Y-51933891D01*
X78082288Y-51931206D01*
X77988888Y-51911353D01*
X77901944Y-51892872D01*
X77901939Y-51892872D01*
X77895487Y-51891500D01*
X77704513Y-51891500D01*
X77698061Y-51892872D01*
X77698056Y-51892872D01*
X77611112Y-51911353D01*
X77517712Y-51931206D01*
X77511682Y-51933891D01*
X77511681Y-51933891D01*
X77349278Y-52006197D01*
X77349276Y-52006198D01*
X77343248Y-52008882D01*
X77188747Y-52121134D01*
X77184326Y-52126044D01*
X77184325Y-52126045D01*
X77073991Y-52248584D01*
X77060960Y-52263056D01*
X76965473Y-52428444D01*
X76906458Y-52610072D01*
X76905768Y-52616633D01*
X76905768Y-52616635D01*
X76891996Y-52747670D01*
X76886496Y-52800000D01*
X76887186Y-52806565D01*
X76902272Y-52950096D01*
X76906458Y-52989928D01*
X76965473Y-53171556D01*
X77060960Y-53336944D01*
X77071638Y-53348803D01*
X77102354Y-53412809D01*
X77104000Y-53433111D01*
X77104000Y-54773466D01*
X77083998Y-54841587D01*
X77030342Y-54888080D01*
X76960068Y-54898184D01*
X76899909Y-54872349D01*
X76896460Y-54869625D01*
X76760937Y-54786088D01*
X76747759Y-54779944D01*
X76596234Y-54729685D01*
X76582868Y-54726819D01*
X76490230Y-54717328D01*
X76483815Y-54717000D01*
X76409615Y-54717000D01*
X76394376Y-54721475D01*
X76393171Y-54722865D01*
X76391500Y-54730548D01*
X76391500Y-56664885D01*
X76395975Y-56680124D01*
X76397365Y-56681329D01*
X76405048Y-56683000D01*
X76483766Y-56683000D01*
X76490282Y-56682663D01*
X76584132Y-56672925D01*
X76597528Y-56670032D01*
X76748953Y-56619512D01*
X76762115Y-56613347D01*
X76897492Y-56529574D01*
X76908894Y-56520536D01*
X76910567Y-56518861D01*
X76911993Y-56518081D01*
X76914627Y-56515993D01*
X76914984Y-56516444D01*
X76972849Y-56484781D01*
X77043669Y-56489784D01*
X77088754Y-56518701D01*
X77090593Y-56520536D01*
X77096997Y-56526929D01*
X77103227Y-56530769D01*
X77103228Y-56530770D01*
X77214659Y-56599457D01*
X77245080Y-56618209D01*
X77410191Y-56672974D01*
X77417027Y-56673674D01*
X77417030Y-56673675D01*
X77464370Y-56678525D01*
X77512928Y-56683500D01*
X77740500Y-56683500D01*
X77808621Y-56703502D01*
X77855114Y-56757158D01*
X77866500Y-56809500D01*
X77866500Y-57015500D01*
X77846498Y-57083621D01*
X77792842Y-57130114D01*
X77740500Y-57141500D01*
X77376866Y-57141500D01*
X77314684Y-57148255D01*
X77178295Y-57199385D01*
X77061739Y-57286739D01*
X76974385Y-57403295D01*
X76923255Y-57539684D01*
X76916500Y-57601866D01*
X76916500Y-57640500D01*
X76896498Y-57708621D01*
X76842842Y-57755114D01*
X76790500Y-57766500D01*
X75025307Y-57766500D01*
X74957186Y-57746498D01*
X74910693Y-57692842D01*
X74900589Y-57622568D01*
X74931671Y-57556190D01*
X75034621Y-57441852D01*
X75034622Y-57441851D01*
X75039040Y-57436944D01*
X75128868Y-57281358D01*
X75131223Y-57277279D01*
X75131224Y-57277278D01*
X75134527Y-57271556D01*
X75193542Y-57089928D01*
X75196785Y-57059079D01*
X75212814Y-56906565D01*
X75213504Y-56900000D01*
X75202527Y-56795563D01*
X75194232Y-56716635D01*
X75194232Y-56716633D01*
X75193542Y-56710072D01*
X75181633Y-56673419D01*
X75179700Y-56667470D01*
X75177673Y-56596502D01*
X75214335Y-56535704D01*
X75278048Y-56504379D01*
X75348582Y-56512473D01*
X75377627Y-56529654D01*
X75378538Y-56530374D01*
X75514063Y-56613912D01*
X75527241Y-56620056D01*
X75678766Y-56670315D01*
X75692132Y-56673181D01*
X75784770Y-56682672D01*
X75791185Y-56683000D01*
X75865385Y-56683000D01*
X75880624Y-56678525D01*
X75881829Y-56677135D01*
X75883500Y-56669452D01*
X75883500Y-54735115D01*
X75879025Y-54719876D01*
X75877635Y-54718671D01*
X75869952Y-54717000D01*
X75791234Y-54717000D01*
X75784718Y-54717337D01*
X75690868Y-54727075D01*
X75677472Y-54729968D01*
X75526047Y-54780488D01*
X75512885Y-54786653D01*
X75377508Y-54870426D01*
X75366110Y-54879460D01*
X75314520Y-54931140D01*
X75252237Y-54965219D01*
X75181417Y-54960216D01*
X75136330Y-54931295D01*
X75083188Y-54878246D01*
X75083183Y-54878242D01*
X75078003Y-54873071D01*
X75055883Y-54859436D01*
X74936150Y-54785631D01*
X74936148Y-54785630D01*
X74929920Y-54781791D01*
X74764809Y-54727026D01*
X74757973Y-54726326D01*
X74757970Y-54726325D01*
X74705154Y-54720914D01*
X74662072Y-54716500D01*
X74062928Y-54716500D01*
X74059682Y-54716837D01*
X74059678Y-54716837D01*
X73965765Y-54726581D01*
X73965761Y-54726582D01*
X73958907Y-54727293D01*
X73952371Y-54729474D01*
X73952369Y-54729474D01*
X73864193Y-54758892D01*
X73793893Y-54782346D01*
X73645969Y-54873884D01*
X73640796Y-54879066D01*
X73539253Y-54980786D01*
X73476970Y-55014865D01*
X73406150Y-55009862D01*
X73361063Y-54980941D01*
X73258185Y-54878243D01*
X73258180Y-54878239D01*
X73253003Y-54873071D01*
X73246776Y-54869233D01*
X73246774Y-54869231D01*
X73230884Y-54859436D01*
X73183391Y-54806664D01*
X73171000Y-54752176D01*
X73171000Y-50183766D01*
X81692000Y-50183766D01*
X81692337Y-50190282D01*
X81702075Y-50284132D01*
X81704968Y-50297528D01*
X81755488Y-50448953D01*
X81761653Y-50462115D01*
X81845426Y-50597492D01*
X81854460Y-50608890D01*
X81967129Y-50721363D01*
X81978540Y-50730375D01*
X82114063Y-50813912D01*
X82127241Y-50820056D01*
X82278766Y-50870315D01*
X82292132Y-50873181D01*
X82384770Y-50882672D01*
X82391185Y-50883000D01*
X82415385Y-50883000D01*
X82430624Y-50878525D01*
X82431829Y-50877135D01*
X82433500Y-50869452D01*
X82433500Y-50864885D01*
X82941500Y-50864885D01*
X82945975Y-50880124D01*
X82947365Y-50881329D01*
X82955048Y-50883000D01*
X82983766Y-50883000D01*
X82990282Y-50882663D01*
X83084132Y-50872925D01*
X83097528Y-50870032D01*
X83248953Y-50819512D01*
X83262115Y-50813347D01*
X83397492Y-50729574D01*
X83408890Y-50720540D01*
X83510393Y-50618860D01*
X83572676Y-50584781D01*
X83643496Y-50589784D01*
X83688583Y-50618704D01*
X83796997Y-50726929D01*
X83803227Y-50730769D01*
X83803228Y-50730770D01*
X83933935Y-50811339D01*
X83945080Y-50818209D01*
X84110191Y-50872974D01*
X84117027Y-50873674D01*
X84117030Y-50873675D01*
X84164370Y-50878525D01*
X84212928Y-50883500D01*
X84812072Y-50883500D01*
X84815318Y-50883163D01*
X84815322Y-50883163D01*
X84909235Y-50873419D01*
X84909239Y-50873418D01*
X84916093Y-50872707D01*
X84922629Y-50870526D01*
X84922631Y-50870526D01*
X85055395Y-50826232D01*
X85081107Y-50817654D01*
X85229031Y-50726116D01*
X85239745Y-50715383D01*
X85346758Y-50608184D01*
X85346762Y-50608179D01*
X85351929Y-50603003D01*
X85355770Y-50596772D01*
X85439369Y-50461150D01*
X85439370Y-50461148D01*
X85443209Y-50454920D01*
X85497974Y-50289809D01*
X85498854Y-50281226D01*
X85503951Y-50231474D01*
X85508500Y-50187072D01*
X85508500Y-49612928D01*
X85508163Y-49609678D01*
X85498419Y-49515765D01*
X85498418Y-49515761D01*
X85497707Y-49508907D01*
X85466300Y-49414767D01*
X85444972Y-49350841D01*
X85442654Y-49343893D01*
X85397736Y-49271307D01*
X85378899Y-49202858D01*
X85385048Y-49166069D01*
X85391501Y-49146211D01*
X85391502Y-49146207D01*
X85393542Y-49139928D01*
X85399187Y-49086226D01*
X85412814Y-48956565D01*
X85413504Y-48950000D01*
X85410036Y-48917000D01*
X85394232Y-48766635D01*
X85394232Y-48766633D01*
X85393542Y-48760072D01*
X85334527Y-48578444D01*
X85239040Y-48413056D01*
X85208525Y-48379165D01*
X85115675Y-48276045D01*
X85115674Y-48276044D01*
X85111253Y-48271134D01*
X84956752Y-48158882D01*
X84950724Y-48156198D01*
X84950722Y-48156197D01*
X84788319Y-48083891D01*
X84788318Y-48083891D01*
X84782288Y-48081206D01*
X84688888Y-48061353D01*
X84601944Y-48042872D01*
X84601939Y-48042872D01*
X84595487Y-48041500D01*
X84404513Y-48041500D01*
X84398061Y-48042872D01*
X84398056Y-48042872D01*
X84311113Y-48061353D01*
X84217712Y-48081206D01*
X84211682Y-48083891D01*
X84211681Y-48083891D01*
X84049278Y-48156197D01*
X84049276Y-48156198D01*
X84043248Y-48158882D01*
X83888747Y-48271134D01*
X83884326Y-48276044D01*
X83884325Y-48276045D01*
X83791476Y-48379165D01*
X83760960Y-48413056D01*
X83665473Y-48578444D01*
X83606458Y-48760072D01*
X83605768Y-48766633D01*
X83605768Y-48766635D01*
X83589964Y-48917000D01*
X83586496Y-48950000D01*
X83587186Y-48956565D01*
X83587186Y-48961508D01*
X83567184Y-49029629D01*
X83513528Y-49076122D01*
X83443254Y-49086226D01*
X83395071Y-49068768D01*
X83260941Y-48986090D01*
X83247759Y-48979944D01*
X83096234Y-48929685D01*
X83082868Y-48926819D01*
X82990230Y-48917328D01*
X82983815Y-48917000D01*
X82959615Y-48917000D01*
X82944376Y-48921475D01*
X82943171Y-48922865D01*
X82941500Y-48930548D01*
X82941500Y-50864885D01*
X82433500Y-50864885D01*
X82433500Y-50172115D01*
X82429025Y-50156876D01*
X82427635Y-50155671D01*
X82419952Y-50154000D01*
X81710115Y-50154000D01*
X81694876Y-50158475D01*
X81693671Y-50159865D01*
X81692000Y-50167548D01*
X81692000Y-50183766D01*
X73171000Y-50183766D01*
X73171000Y-49627885D01*
X81692000Y-49627885D01*
X81696475Y-49643124D01*
X81697865Y-49644329D01*
X81705548Y-49646000D01*
X82415385Y-49646000D01*
X82430624Y-49641525D01*
X82431829Y-49640135D01*
X82433500Y-49632452D01*
X82433500Y-48935115D01*
X82429025Y-48919876D01*
X82427635Y-48918671D01*
X82419952Y-48917000D01*
X82391234Y-48917000D01*
X82384718Y-48917337D01*
X82290868Y-48927075D01*
X82277472Y-48929968D01*
X82126047Y-48980488D01*
X82112885Y-48986653D01*
X81977508Y-49070426D01*
X81966110Y-49079460D01*
X81853637Y-49192129D01*
X81844625Y-49203540D01*
X81761088Y-49339063D01*
X81754944Y-49352241D01*
X81704685Y-49503766D01*
X81701819Y-49517132D01*
X81692328Y-49609770D01*
X81692000Y-49616185D01*
X81692000Y-49627885D01*
X73171000Y-49627885D01*
X73171000Y-47910877D01*
X73191002Y-47842756D01*
X73203364Y-47826566D01*
X73234621Y-47791852D01*
X73234625Y-47791847D01*
X73239040Y-47786944D01*
X73254027Y-47760987D01*
X73331223Y-47627279D01*
X73331224Y-47627278D01*
X73334527Y-47621556D01*
X73393542Y-47439928D01*
X73413504Y-47250000D01*
X73393542Y-47060072D01*
X73334527Y-46878444D01*
X73239040Y-46713056D01*
X73227484Y-46700221D01*
X73115675Y-46576045D01*
X73115674Y-46576044D01*
X73111253Y-46571134D01*
X72956752Y-46458882D01*
X72950724Y-46456198D01*
X72950722Y-46456197D01*
X72788319Y-46383891D01*
X72788318Y-46383891D01*
X72782288Y-46381206D01*
X72688887Y-46361353D01*
X72601944Y-46342872D01*
X72601939Y-46342872D01*
X72595487Y-46341500D01*
X72404513Y-46341500D01*
X72398061Y-46342872D01*
X72398056Y-46342872D01*
X72311112Y-46361353D01*
X72217712Y-46381206D01*
X72211682Y-46383891D01*
X72211681Y-46383891D01*
X72049278Y-46456197D01*
X72049276Y-46456198D01*
X72043248Y-46458882D01*
X71888747Y-46571134D01*
X71884326Y-46576044D01*
X71884325Y-46576045D01*
X71772517Y-46700221D01*
X71760960Y-46713056D01*
X71665473Y-46878444D01*
X71606458Y-47060072D01*
X71586496Y-47250000D01*
X71606458Y-47439928D01*
X71665473Y-47621556D01*
X71760960Y-47786944D01*
X71871637Y-47909864D01*
X71902353Y-47973869D01*
X71904000Y-47994172D01*
X71904000Y-54752301D01*
X71883998Y-54820422D01*
X71844302Y-54859445D01*
X71820969Y-54873884D01*
X71815796Y-54879066D01*
X71703242Y-54991816D01*
X71703238Y-54991821D01*
X71698071Y-54996997D01*
X71694231Y-55003227D01*
X71694230Y-55003228D01*
X71644750Y-55083500D01*
X71606791Y-55145080D01*
X71552026Y-55310191D01*
X71551326Y-55317027D01*
X71551325Y-55317030D01*
X71550945Y-55320744D01*
X71541500Y-55412928D01*
X71541500Y-55987072D01*
X71541837Y-55990318D01*
X71541837Y-55990322D01*
X71551440Y-56082868D01*
X71552293Y-56091093D01*
X71554474Y-56097629D01*
X71554474Y-56097631D01*
X71589964Y-56204007D01*
X71607346Y-56256107D01*
X71698884Y-56404031D01*
X71704066Y-56409204D01*
X71816816Y-56521758D01*
X71816821Y-56521762D01*
X71821997Y-56526929D01*
X71828227Y-56530769D01*
X71828228Y-56530770D01*
X71939659Y-56599457D01*
X71970080Y-56618209D01*
X72135191Y-56672974D01*
X72142027Y-56673674D01*
X72142030Y-56673675D01*
X72189370Y-56678525D01*
X72237928Y-56683500D01*
X72837072Y-56683500D01*
X72840318Y-56683163D01*
X72840322Y-56683163D01*
X72934235Y-56673419D01*
X72934239Y-56673418D01*
X72941093Y-56672707D01*
X72947629Y-56670526D01*
X72947631Y-56670526D01*
X73092739Y-56622114D01*
X73106107Y-56617654D01*
X73227243Y-56542693D01*
X73295694Y-56523855D01*
X73363463Y-56545016D01*
X73409035Y-56599457D01*
X73417939Y-56669893D01*
X73413379Y-56688771D01*
X73406458Y-56710072D01*
X73405768Y-56716633D01*
X73405768Y-56716635D01*
X73397473Y-56795563D01*
X73386496Y-56900000D01*
X73387186Y-56906565D01*
X73403216Y-57059079D01*
X73406458Y-57089928D01*
X73465473Y-57271556D01*
X73468776Y-57277278D01*
X73468777Y-57277279D01*
X73471132Y-57281358D01*
X73560960Y-57436944D01*
X73565378Y-57441851D01*
X73565379Y-57441852D01*
X73668329Y-57556190D01*
X73699047Y-57620197D01*
X73690282Y-57690651D01*
X73644819Y-57745182D01*
X73574693Y-57766500D01*
X67958200Y-57766500D01*
X67890079Y-57746498D01*
X67870853Y-57730157D01*
X67870580Y-57730460D01*
X67865668Y-57726037D01*
X67861253Y-57721134D01*
X67773952Y-57657706D01*
X67712094Y-57612763D01*
X67712093Y-57612762D01*
X67706752Y-57608882D01*
X67700724Y-57606198D01*
X67700722Y-57606197D01*
X67538319Y-57533891D01*
X67538318Y-57533891D01*
X67532288Y-57531206D01*
X67438888Y-57511353D01*
X67351944Y-57492872D01*
X67351939Y-57492872D01*
X67345487Y-57491500D01*
X67154513Y-57491500D01*
X67148061Y-57492872D01*
X67148056Y-57492872D01*
X67061112Y-57511353D01*
X66967712Y-57531206D01*
X66961682Y-57533891D01*
X66961681Y-57533891D01*
X66799278Y-57606197D01*
X66799276Y-57606198D01*
X66793248Y-57608882D01*
X66787907Y-57612762D01*
X66787906Y-57612763D01*
X66779918Y-57618567D01*
X66638747Y-57721134D01*
X66634326Y-57726044D01*
X66634325Y-57726045D01*
X66518241Y-57854970D01*
X66510960Y-57863056D01*
X66480854Y-57915201D01*
X66429775Y-58003673D01*
X66415473Y-58028444D01*
X66356458Y-58210072D01*
X66355768Y-58216633D01*
X66355768Y-58216635D01*
X66338844Y-58377664D01*
X66336496Y-58400000D01*
X66337186Y-58406565D01*
X66354886Y-58574967D01*
X66356458Y-58589928D01*
X66415473Y-58771556D01*
X66418776Y-58777278D01*
X66418777Y-58777279D01*
X66435838Y-58806829D01*
X66510960Y-58936944D01*
X66515378Y-58941851D01*
X66515379Y-58941852D01*
X66620977Y-59059130D01*
X66638747Y-59078866D01*
X66793248Y-59191118D01*
X66799276Y-59193802D01*
X66799278Y-59193803D01*
X66938875Y-59255955D01*
X66967712Y-59268794D01*
X67051967Y-59286703D01*
X67148056Y-59307128D01*
X67148061Y-59307128D01*
X67154513Y-59308500D01*
X67345487Y-59308500D01*
X67351939Y-59307128D01*
X67351944Y-59307128D01*
X67448033Y-59286703D01*
X67532288Y-59268794D01*
X67561125Y-59255955D01*
X67700722Y-59193803D01*
X67700724Y-59193802D01*
X67706752Y-59191118D01*
X67773683Y-59142490D01*
X67854386Y-59083855D01*
X67861253Y-59078866D01*
X67865668Y-59073963D01*
X67870580Y-59069540D01*
X67871705Y-59070789D01*
X67925014Y-59037949D01*
X67958200Y-59033500D01*
X75030958Y-59033500D01*
X75099079Y-59053502D01*
X75145572Y-59107158D01*
X75155676Y-59177432D01*
X75131784Y-59235065D01*
X75106506Y-59268794D01*
X75099385Y-59278295D01*
X75048255Y-59414684D01*
X75041500Y-59476866D01*
X75041500Y-59840500D01*
X75021498Y-59908621D01*
X74967842Y-59955114D01*
X74915500Y-59966500D01*
X59678763Y-59966500D01*
X59667579Y-59965973D01*
X59660091Y-59964299D01*
X59652168Y-59964548D01*
X59592033Y-59966438D01*
X59588075Y-59966500D01*
X59560144Y-59966500D01*
X59556229Y-59966995D01*
X59556225Y-59966995D01*
X59556167Y-59967003D01*
X59556138Y-59967006D01*
X59544296Y-59967939D01*
X59500110Y-59969327D01*
X59484149Y-59973964D01*
X59480658Y-59974978D01*
X59461306Y-59978986D01*
X59449068Y-59980532D01*
X59449066Y-59980533D01*
X59441203Y-59981526D01*
X59400086Y-59997806D01*
X59388885Y-60001641D01*
X59346406Y-60013982D01*
X59339587Y-60018015D01*
X59339582Y-60018017D01*
X59328971Y-60024293D01*
X59311215Y-60032992D01*
X59297493Y-60038425D01*
X59226793Y-60044903D01*
X59163813Y-60012129D01*
X59128551Y-59950509D01*
X59125150Y-59918192D01*
X59125252Y-59914052D01*
X59125656Y-59897500D01*
X59107352Y-59674861D01*
X59052931Y-59458202D01*
X58963854Y-59253340D01*
X58880704Y-59124810D01*
X58845322Y-59070117D01*
X58845320Y-59070114D01*
X58842514Y-59065777D01*
X58692170Y-58900551D01*
X58688119Y-58897352D01*
X58688115Y-58897348D01*
X58520914Y-58765300D01*
X58520910Y-58765298D01*
X58516859Y-58762098D01*
X58475553Y-58739296D01*
X58425584Y-58688864D01*
X58410812Y-58619421D01*
X58435928Y-58553016D01*
X58463280Y-58526409D01*
X58526980Y-58480972D01*
X58642360Y-58398673D01*
X58647617Y-58393435D01*
X58731444Y-58309900D01*
X58800596Y-58240989D01*
X58821859Y-58211399D01*
X58927935Y-58063777D01*
X58930953Y-58059577D01*
X58945897Y-58029341D01*
X59027636Y-57863953D01*
X59027637Y-57863951D01*
X59029930Y-57859311D01*
X59088201Y-57667520D01*
X59093365Y-57650523D01*
X59093365Y-57650521D01*
X59094870Y-57645569D01*
X59124029Y-57424090D01*
X59124111Y-57420740D01*
X59125574Y-57360865D01*
X59125574Y-57360861D01*
X59125656Y-57357500D01*
X59107352Y-57134861D01*
X59052931Y-56918202D01*
X58963854Y-56713340D01*
X58909902Y-56629943D01*
X58845322Y-56530117D01*
X58845320Y-56530114D01*
X58842514Y-56525777D01*
X58692170Y-56360551D01*
X58688119Y-56357352D01*
X58688115Y-56357348D01*
X58520914Y-56225300D01*
X58520910Y-56225298D01*
X58516859Y-56222098D01*
X58475553Y-56199296D01*
X58425584Y-56148864D01*
X58410812Y-56079421D01*
X58435928Y-56013016D01*
X58463280Y-55986409D01*
X58528649Y-55939782D01*
X58642360Y-55858673D01*
X58646756Y-55854293D01*
X58753005Y-55748414D01*
X58800596Y-55700989D01*
X58827448Y-55663621D01*
X58927935Y-55523777D01*
X58930953Y-55519577D01*
X58960629Y-55459533D01*
X59027636Y-55323953D01*
X59027637Y-55323951D01*
X59029930Y-55319311D01*
X59063858Y-55207642D01*
X59093365Y-55110523D01*
X59093365Y-55110521D01*
X59094870Y-55105569D01*
X59124029Y-54884090D01*
X59124172Y-54878243D01*
X59125574Y-54820865D01*
X59125574Y-54820861D01*
X59125656Y-54817500D01*
X59107352Y-54594861D01*
X59052931Y-54378202D01*
X58963854Y-54173340D01*
X58853493Y-54002748D01*
X58845322Y-53990117D01*
X58845320Y-53990114D01*
X58842514Y-53985777D01*
X58692170Y-53820551D01*
X58688119Y-53817352D01*
X58688115Y-53817348D01*
X58520914Y-53685300D01*
X58520910Y-53685298D01*
X58516859Y-53682098D01*
X58321289Y-53574138D01*
X58316420Y-53572414D01*
X58316416Y-53572412D01*
X58115587Y-53501295D01*
X58115583Y-53501294D01*
X58110712Y-53499569D01*
X58105619Y-53498662D01*
X58105616Y-53498661D01*
X57895873Y-53461300D01*
X57895867Y-53461299D01*
X57890784Y-53460394D01*
X57816952Y-53459492D01*
X57672581Y-53457728D01*
X57672579Y-53457728D01*
X57667411Y-53457665D01*
X57446591Y-53491455D01*
X57234256Y-53560857D01*
X57036107Y-53664007D01*
X57031974Y-53667110D01*
X57031971Y-53667112D01*
X57007747Y-53685300D01*
X56857465Y-53798135D01*
X56703129Y-53959638D01*
X56577243Y-54144180D01*
X56550392Y-54202026D01*
X56511413Y-54286000D01*
X56483188Y-54346805D01*
X56423489Y-54562070D01*
X56399751Y-54784195D01*
X56400048Y-54789348D01*
X56400048Y-54789351D01*
X56408634Y-54938261D01*
X56412610Y-55007215D01*
X56413747Y-55012261D01*
X56413748Y-55012267D01*
X56427880Y-55074974D01*
X56461722Y-55225139D01*
X56518379Y-55364669D01*
X56537975Y-55412928D01*
X56545766Y-55432116D01*
X56591154Y-55506182D01*
X56646424Y-55596375D01*
X56662487Y-55622588D01*
X56808750Y-55791438D01*
X56980626Y-55934132D01*
X57032643Y-55964528D01*
X57053945Y-55976976D01*
X57102669Y-56028614D01*
X57115740Y-56098397D01*
X57089009Y-56164169D01*
X57048555Y-56197527D01*
X57036107Y-56204007D01*
X57031974Y-56207110D01*
X57031971Y-56207112D01*
X56865327Y-56332232D01*
X56857465Y-56338135D01*
X56853893Y-56341873D01*
X56728227Y-56473375D01*
X56703129Y-56499638D01*
X56700215Y-56503910D01*
X56700214Y-56503911D01*
X56662630Y-56559007D01*
X56577243Y-56684180D01*
X56562178Y-56716635D01*
X56507104Y-56835283D01*
X56483188Y-56886805D01*
X56423489Y-57102070D01*
X56399751Y-57324195D01*
X56400048Y-57329348D01*
X56400048Y-57329351D01*
X56409477Y-57492872D01*
X56412610Y-57547215D01*
X56413747Y-57552261D01*
X56413748Y-57552267D01*
X56427382Y-57612763D01*
X56461722Y-57765139D01*
X56545766Y-57972116D01*
X56562041Y-57998675D01*
X56658903Y-58156739D01*
X56662487Y-58162588D01*
X56808750Y-58331438D01*
X56980626Y-58474132D01*
X57011320Y-58492068D01*
X57053945Y-58516976D01*
X57102669Y-58568614D01*
X57115740Y-58638397D01*
X57089009Y-58704169D01*
X57048555Y-58737527D01*
X57036107Y-58744007D01*
X57031974Y-58747110D01*
X57031971Y-58747112D01*
X56861600Y-58875030D01*
X56857465Y-58878135D01*
X56791846Y-58946801D01*
X56708628Y-59033884D01*
X56703129Y-59039638D01*
X56700215Y-59043910D01*
X56700214Y-59043911D01*
X56660636Y-59101930D01*
X56577243Y-59224180D01*
X56557780Y-59266109D01*
X56491913Y-59408009D01*
X56483188Y-59426805D01*
X56423489Y-59642070D01*
X56399751Y-59864195D01*
X56400048Y-59869348D01*
X56400048Y-59869351D01*
X56407581Y-59999989D01*
X56412610Y-60087215D01*
X56413747Y-60092261D01*
X56413748Y-60092267D01*
X56426748Y-60149950D01*
X56461722Y-60305139D01*
X56545766Y-60512116D01*
X56562809Y-60539928D01*
X56658903Y-60696739D01*
X56662487Y-60702588D01*
X56808750Y-60871438D01*
X56980626Y-61014132D01*
X57046326Y-61052524D01*
X57053945Y-61056976D01*
X57102669Y-61108614D01*
X57115740Y-61178397D01*
X57089009Y-61244169D01*
X57048555Y-61277527D01*
X57036107Y-61284007D01*
X57031974Y-61287110D01*
X57031971Y-61287112D01*
X56861600Y-61415030D01*
X56857465Y-61418135D01*
X56853893Y-61421873D01*
X56771554Y-61508036D01*
X56703129Y-61579638D01*
X56700215Y-61583910D01*
X56700214Y-61583911D01*
X56654558Y-61650841D01*
X56577243Y-61764180D01*
X56553800Y-61814684D01*
X56492750Y-61946206D01*
X56483188Y-61966805D01*
X56423489Y-62182070D01*
X56399751Y-62404195D01*
X56400048Y-62409348D01*
X56400048Y-62409351D01*
X56411041Y-62600000D01*
X56412610Y-62627215D01*
X56413747Y-62632261D01*
X56413748Y-62632267D01*
X56435892Y-62730523D01*
X56461722Y-62845139D01*
X56520791Y-62990609D01*
X56543428Y-63046357D01*
X56545766Y-63052116D01*
X56594232Y-63131206D01*
X56646424Y-63216375D01*
X56662487Y-63242588D01*
X56808750Y-63411438D01*
X56980626Y-63554132D01*
X57007981Y-63570117D01*
X57053945Y-63596976D01*
X57102669Y-63648614D01*
X57115740Y-63718397D01*
X57089009Y-63784169D01*
X57048555Y-63817527D01*
X57036107Y-63824007D01*
X57031974Y-63827110D01*
X57031971Y-63827112D01*
X56861600Y-63955030D01*
X56857465Y-63958135D01*
X56825244Y-63991852D01*
X56727818Y-64093803D01*
X56703129Y-64119638D01*
X56700215Y-64123910D01*
X56700214Y-64123911D01*
X56623877Y-64235817D01*
X56577243Y-64304180D01*
X56544372Y-64374995D01*
X56488015Y-64496407D01*
X56483188Y-64506805D01*
X56423489Y-64722070D01*
X56399751Y-64944195D01*
X56400048Y-64949348D01*
X56400048Y-64949351D01*
X56408222Y-65091118D01*
X56412610Y-65167215D01*
X56413747Y-65172261D01*
X56413748Y-65172267D01*
X56433448Y-65259681D01*
X56461722Y-65385139D01*
X56499961Y-65479311D01*
X56537891Y-65572721D01*
X56545766Y-65592116D01*
X56596072Y-65674208D01*
X56659345Y-65777460D01*
X56662487Y-65782588D01*
X56808750Y-65951438D01*
X56980626Y-66094132D01*
X57020696Y-66117547D01*
X57053945Y-66136976D01*
X57102669Y-66188614D01*
X57115740Y-66258397D01*
X57089009Y-66324169D01*
X57048555Y-66357527D01*
X57036107Y-66364007D01*
X57031974Y-66367110D01*
X57031971Y-66367112D01*
X56861600Y-66495030D01*
X56857465Y-66498135D01*
X56853893Y-66501873D01*
X56714530Y-66647708D01*
X56703129Y-66659638D01*
X56700215Y-66663910D01*
X56700214Y-66663911D01*
X56631866Y-66764106D01*
X56577243Y-66844180D01*
X56538887Y-66926811D01*
X56501971Y-67006341D01*
X56483188Y-67046805D01*
X56423489Y-67262070D01*
X56399751Y-67484195D01*
X56400048Y-67489348D01*
X56400048Y-67489351D01*
X56409906Y-67660316D01*
X56412610Y-67707215D01*
X56413747Y-67712261D01*
X56413748Y-67712267D01*
X56429109Y-67780425D01*
X56461722Y-67925139D01*
X56545766Y-68132116D01*
X56594785Y-68212108D01*
X56648836Y-68300311D01*
X56662487Y-68322588D01*
X56808750Y-68491438D01*
X56812725Y-68494738D01*
X56812731Y-68494744D01*
X56817925Y-68499056D01*
X56857559Y-68557960D01*
X56859055Y-68628941D01*
X56821939Y-68689462D01*
X56781668Y-68713980D01*
X56674446Y-68754176D01*
X56658851Y-68762714D01*
X56556776Y-68839215D01*
X56544215Y-68851776D01*
X56467714Y-68953851D01*
X56459176Y-68969446D01*
X56414022Y-69089894D01*
X56410395Y-69105149D01*
X56404869Y-69156014D01*
X56404500Y-69162828D01*
X56404500Y-69785385D01*
X56408975Y-69800624D01*
X56410365Y-69801829D01*
X56418048Y-69803500D01*
X57890500Y-69803500D01*
X57958621Y-69823502D01*
X58005114Y-69877158D01*
X58016500Y-69929500D01*
X58016500Y-71397384D01*
X58020975Y-71412623D01*
X58022365Y-71413828D01*
X58030048Y-71415499D01*
X58657169Y-71415499D01*
X58663990Y-71415129D01*
X58714852Y-71409605D01*
X58730104Y-71405979D01*
X58850554Y-71360824D01*
X58866149Y-71352286D01*
X58968224Y-71275785D01*
X58980785Y-71263224D01*
X59057286Y-71161149D01*
X59065824Y-71145554D01*
X59110978Y-71025106D01*
X59114605Y-71009851D01*
X59120131Y-70958986D01*
X59120500Y-70952172D01*
X59120500Y-70763319D01*
X59140502Y-70695198D01*
X59194158Y-70648705D01*
X59264432Y-70638601D01*
X59329012Y-70668095D01*
X59357661Y-70705981D01*
X59357803Y-70705893D01*
X59358739Y-70707406D01*
X59360601Y-70709868D01*
X59361655Y-70712117D01*
X59445426Y-70847492D01*
X59454460Y-70858890D01*
X59567129Y-70971363D01*
X59578540Y-70980375D01*
X59714063Y-71063912D01*
X59727241Y-71070056D01*
X59878766Y-71120315D01*
X59892132Y-71123181D01*
X59984770Y-71132672D01*
X59991185Y-71133000D01*
X60002885Y-71133000D01*
X60018124Y-71128525D01*
X60019329Y-71127135D01*
X60021000Y-71119452D01*
X60021000Y-69959500D01*
X60041002Y-69891379D01*
X60094658Y-69844886D01*
X60147000Y-69833500D01*
X60403000Y-69833500D01*
X60471121Y-69853502D01*
X60517614Y-69907158D01*
X60529000Y-69959500D01*
X60529000Y-71114885D01*
X60533475Y-71130124D01*
X60534865Y-71131329D01*
X60542548Y-71133000D01*
X60558766Y-71133000D01*
X60565282Y-71132663D01*
X60659132Y-71122925D01*
X60672528Y-71120032D01*
X60823953Y-71069512D01*
X60837115Y-71063347D01*
X60972492Y-70979574D01*
X60983890Y-70970540D01*
X61096363Y-70857871D01*
X61105375Y-70846460D01*
X61188912Y-70710937D01*
X61195056Y-70697759D01*
X61245315Y-70546234D01*
X61248181Y-70532867D01*
X61249165Y-70523261D01*
X61276006Y-70457534D01*
X61334120Y-70416752D01*
X61405058Y-70413862D01*
X61463604Y-70447008D01*
X63179595Y-72162999D01*
X63213621Y-72225311D01*
X63216500Y-72252094D01*
X63216500Y-75472536D01*
X63196498Y-75540657D01*
X63156804Y-75579679D01*
X63145969Y-75586384D01*
X63140796Y-75591566D01*
X63028242Y-75704316D01*
X63028238Y-75704321D01*
X63023071Y-75709497D01*
X63019231Y-75715727D01*
X63019230Y-75715728D01*
X62936364Y-75850162D01*
X62931791Y-75857580D01*
X62877026Y-76022691D01*
X62876326Y-76029527D01*
X62876325Y-76029530D01*
X62873029Y-76061705D01*
X62866500Y-76125428D01*
X62866500Y-76724572D01*
X62866837Y-76727818D01*
X62866837Y-76727822D01*
X62876298Y-76818999D01*
X62877293Y-76828593D01*
X62879474Y-76835129D01*
X62879474Y-76835131D01*
X62923768Y-76967895D01*
X62932346Y-76993607D01*
X63023884Y-77141531D01*
X63029066Y-77146704D01*
X63130786Y-77248247D01*
X63164865Y-77310530D01*
X63159862Y-77381350D01*
X63130941Y-77426437D01*
X63028246Y-77529312D01*
X63028242Y-77529317D01*
X63023071Y-77534497D01*
X63019231Y-77540727D01*
X63019230Y-77540728D01*
X62946650Y-77658475D01*
X62931791Y-77682580D01*
X62877026Y-77847691D01*
X62866500Y-77950428D01*
X62866500Y-78549572D01*
X62866837Y-78552818D01*
X62866837Y-78552822D01*
X62873630Y-78618285D01*
X62877293Y-78653593D01*
X62879474Y-78660129D01*
X62879474Y-78660131D01*
X62894291Y-78704542D01*
X62932346Y-78818607D01*
X63023884Y-78966531D01*
X63029066Y-78971704D01*
X63141816Y-79084258D01*
X63141821Y-79084262D01*
X63146997Y-79089429D01*
X63153227Y-79093269D01*
X63153228Y-79093270D01*
X63279409Y-79171049D01*
X63295080Y-79180709D01*
X63460191Y-79235474D01*
X63467027Y-79236174D01*
X63467030Y-79236175D01*
X63505889Y-79240156D01*
X63571616Y-79266997D01*
X63612399Y-79325112D01*
X63615287Y-79396050D01*
X63579366Y-79457288D01*
X63516039Y-79489385D01*
X63493047Y-79491500D01*
X60882868Y-79491500D01*
X60814747Y-79471498D01*
X60768254Y-79417842D01*
X60758150Y-79347568D01*
X60787644Y-79282988D01*
X60803566Y-79267587D01*
X60912511Y-79179365D01*
X61179365Y-78912511D01*
X61416863Y-78619225D01*
X61620606Y-78305489D01*
X61620607Y-78305487D01*
X61622403Y-78302721D01*
X61623903Y-78299779D01*
X61792236Y-77969405D01*
X61793734Y-77966465D01*
X61900040Y-77689528D01*
X61927792Y-77617233D01*
X61927793Y-77617231D01*
X61928978Y-77614143D01*
X62026653Y-77249613D01*
X62070733Y-76971305D01*
X62085176Y-76880119D01*
X62085177Y-76880111D01*
X62085690Y-76876871D01*
X62105441Y-76500000D01*
X62085690Y-76123129D01*
X62084772Y-76117329D01*
X62041410Y-75843560D01*
X62026653Y-75750387D01*
X61928978Y-75385857D01*
X61903574Y-75319676D01*
X61840483Y-75155320D01*
X61793734Y-75033535D01*
X61787354Y-75021013D01*
X61623902Y-74700221D01*
X61623898Y-74700214D01*
X61622403Y-74697280D01*
X61611037Y-74679777D01*
X61418665Y-74383550D01*
X61416863Y-74380775D01*
X61179365Y-74087489D01*
X60912511Y-73820635D01*
X60619225Y-73583137D01*
X60514193Y-73514928D01*
X60305489Y-73379395D01*
X60305486Y-73379393D01*
X60302720Y-73377597D01*
X60299786Y-73376102D01*
X60299779Y-73376098D01*
X59969405Y-73207764D01*
X59966465Y-73206266D01*
X59614143Y-73071022D01*
X59249613Y-72973347D01*
X59051647Y-72941992D01*
X58880119Y-72914824D01*
X58880111Y-72914823D01*
X58876871Y-72914310D01*
X58594280Y-72899500D01*
X58405720Y-72899500D01*
X58123129Y-72914310D01*
X58119889Y-72914823D01*
X58119881Y-72914824D01*
X57948353Y-72941992D01*
X57750387Y-72973347D01*
X57385857Y-73071022D01*
X57033535Y-73206266D01*
X57030595Y-73207764D01*
X56700221Y-73376098D01*
X56700214Y-73376102D01*
X56697280Y-73377597D01*
X56694514Y-73379393D01*
X56694511Y-73379395D01*
X56485807Y-73514928D01*
X56380775Y-73583137D01*
X56087489Y-73820635D01*
X55820635Y-74087489D01*
X55732418Y-74196428D01*
X55674006Y-74236778D01*
X55603049Y-74239144D01*
X55542077Y-74202771D01*
X55510449Y-74139209D01*
X55508500Y-74117132D01*
X55508500Y-70952169D01*
X56404501Y-70952169D01*
X56404871Y-70958990D01*
X56410395Y-71009852D01*
X56414021Y-71025104D01*
X56459176Y-71145554D01*
X56467714Y-71161149D01*
X56544215Y-71263224D01*
X56556776Y-71275785D01*
X56658851Y-71352286D01*
X56674446Y-71360824D01*
X56794894Y-71405978D01*
X56810149Y-71409605D01*
X56861014Y-71415131D01*
X56867828Y-71415500D01*
X57490385Y-71415500D01*
X57505624Y-71411025D01*
X57506829Y-71409635D01*
X57508500Y-71401952D01*
X57508500Y-70329615D01*
X57504025Y-70314376D01*
X57502635Y-70313171D01*
X57494952Y-70311500D01*
X56422616Y-70311500D01*
X56407377Y-70315975D01*
X56406172Y-70317365D01*
X56404501Y-70325048D01*
X56404501Y-70952169D01*
X55508500Y-70952169D01*
X55508500Y-50882868D01*
X55528502Y-50814747D01*
X55582158Y-50768254D01*
X55652432Y-50758150D01*
X55717012Y-50787644D01*
X55732413Y-50803566D01*
X55820635Y-50912511D01*
X56087489Y-51179365D01*
X56380775Y-51416863D01*
X56383550Y-51418665D01*
X56532870Y-51515634D01*
X56697280Y-51622403D01*
X56700214Y-51623898D01*
X56700221Y-51623902D01*
X57030595Y-51792236D01*
X57033535Y-51793734D01*
X57385857Y-51928978D01*
X57750387Y-52026653D01*
X57948353Y-52058008D01*
X58119881Y-52085176D01*
X58119889Y-52085177D01*
X58123129Y-52085690D01*
X58405720Y-52100500D01*
X58594280Y-52100500D01*
X58876871Y-52085690D01*
X58880111Y-52085177D01*
X58880119Y-52085176D01*
X59051647Y-52058008D01*
X59249613Y-52026653D01*
X59614143Y-51928978D01*
X59966465Y-51793734D01*
X59969405Y-51792236D01*
X60299779Y-51623902D01*
X60299786Y-51623898D01*
X60302720Y-51622403D01*
X60467131Y-51515634D01*
X60616450Y-51418665D01*
X60619225Y-51416863D01*
X60912511Y-51179365D01*
X61179365Y-50912511D01*
X61416863Y-50619225D01*
X61568111Y-50386324D01*
X61620605Y-50305490D01*
X61620607Y-50305487D01*
X61622403Y-50302721D01*
X61623903Y-50299779D01*
X61792236Y-49969405D01*
X61793734Y-49966465D01*
X61928978Y-49614143D01*
X62026653Y-49249613D01*
X62060691Y-49034708D01*
X62085176Y-48880119D01*
X62085177Y-48880111D01*
X62085690Y-48876871D01*
X62105441Y-48500000D01*
X62085690Y-48123129D01*
X62079476Y-48083891D01*
X62056677Y-47939948D01*
X62026653Y-47750387D01*
X61928978Y-47385857D01*
X61793734Y-47033535D01*
X61792236Y-47030595D01*
X61623902Y-46700221D01*
X61623898Y-46700214D01*
X61622403Y-46697280D01*
X61537962Y-46567251D01*
X61465842Y-46456197D01*
X61416863Y-46380775D01*
X61179365Y-46087489D01*
X60912511Y-45820635D01*
X60803572Y-45732418D01*
X60763222Y-45674006D01*
X60760856Y-45603049D01*
X60797229Y-45542077D01*
X60860791Y-45510449D01*
X60882868Y-45508500D01*
X149117132Y-45508500D01*
X149185253Y-45528502D01*
G37*
G04 #@! TD.AperFunction*
G04 #@! TA.AperFunction,Conductor*
G36*
X69683621Y-61253502D02*
G01*
X69730114Y-61307158D01*
X69741500Y-61359500D01*
X69741500Y-62890500D01*
X69721498Y-62958621D01*
X69667842Y-63005114D01*
X69615500Y-63016500D01*
X68541267Y-63016500D01*
X68530084Y-63015973D01*
X68522591Y-63014298D01*
X68514665Y-63014547D01*
X68514664Y-63014547D01*
X68454501Y-63016438D01*
X68450543Y-63016500D01*
X68422644Y-63016500D01*
X68418654Y-63017004D01*
X68406820Y-63017936D01*
X68362611Y-63019326D01*
X68354997Y-63021538D01*
X68354992Y-63021539D01*
X68343159Y-63024977D01*
X68323796Y-63028988D01*
X68303703Y-63031526D01*
X68296336Y-63034443D01*
X68296331Y-63034444D01*
X68262592Y-63047802D01*
X68251365Y-63051646D01*
X68245752Y-63053277D01*
X68208907Y-63063982D01*
X68202080Y-63068020D01*
X68202079Y-63068020D01*
X68192046Y-63073953D01*
X68127907Y-63091500D01*
X66585115Y-63091500D01*
X66569876Y-63095975D01*
X66568671Y-63097365D01*
X66567000Y-63105048D01*
X66567000Y-63183766D01*
X66567337Y-63190282D01*
X66577075Y-63284132D01*
X66579968Y-63297528D01*
X66630488Y-63448953D01*
X66636653Y-63462115D01*
X66720426Y-63597492D01*
X66729464Y-63608894D01*
X66731139Y-63610567D01*
X66731919Y-63611993D01*
X66734007Y-63614627D01*
X66733556Y-63614984D01*
X66765219Y-63672849D01*
X66760216Y-63743669D01*
X66731299Y-63788754D01*
X66728940Y-63791118D01*
X66723071Y-63796997D01*
X66719231Y-63803227D01*
X66719230Y-63803228D01*
X66642046Y-63928444D01*
X66631791Y-63945080D01*
X66577026Y-64110191D01*
X66576326Y-64117027D01*
X66576325Y-64117030D01*
X66573380Y-64145777D01*
X66566500Y-64212928D01*
X66566500Y-64912072D01*
X66566837Y-64915318D01*
X66566837Y-64915322D01*
X66576390Y-65007386D01*
X66577293Y-65016093D01*
X66579474Y-65022629D01*
X66579474Y-65022631D01*
X66610820Y-65116586D01*
X66632346Y-65181107D01*
X66723884Y-65329031D01*
X66729066Y-65334204D01*
X66841816Y-65446758D01*
X66841821Y-65446762D01*
X66846997Y-65451929D01*
X66853227Y-65455769D01*
X66853228Y-65455770D01*
X66979826Y-65533806D01*
X66995080Y-65543209D01*
X67160191Y-65597974D01*
X67167027Y-65598674D01*
X67167030Y-65598675D01*
X67218526Y-65603951D01*
X67262928Y-65608500D01*
X67837072Y-65608500D01*
X67840318Y-65608163D01*
X67840322Y-65608163D01*
X67934235Y-65598419D01*
X67934239Y-65598418D01*
X67941093Y-65597707D01*
X67947629Y-65595526D01*
X67947631Y-65595526D01*
X68096599Y-65545826D01*
X68106107Y-65542654D01*
X68254031Y-65451116D01*
X68271616Y-65433500D01*
X68371758Y-65333184D01*
X68371762Y-65333179D01*
X68376929Y-65328003D01*
X68418576Y-65260439D01*
X68464369Y-65186150D01*
X68464370Y-65186148D01*
X68468209Y-65179920D01*
X68522974Y-65014809D01*
X68523773Y-65007018D01*
X68531748Y-64929171D01*
X68533500Y-64912072D01*
X68533500Y-64527095D01*
X68553502Y-64458974D01*
X68570405Y-64438000D01*
X68688000Y-64320405D01*
X68750312Y-64286379D01*
X68777095Y-64283500D01*
X69615500Y-64283500D01*
X69683621Y-64303502D01*
X69730114Y-64357158D01*
X69741500Y-64409500D01*
X69741500Y-65948134D01*
X69748255Y-66010316D01*
X69799385Y-66146705D01*
X69886739Y-66263261D01*
X70003295Y-66350615D01*
X70139684Y-66401745D01*
X70201866Y-66408500D01*
X72298134Y-66408500D01*
X72360316Y-66401745D01*
X72496705Y-66350615D01*
X72613261Y-66263261D01*
X72634957Y-66234312D01*
X72691816Y-66191797D01*
X72762634Y-66186771D01*
X72824878Y-66220782D01*
X73796343Y-67192247D01*
X73803887Y-67200537D01*
X73808000Y-67207018D01*
X73813777Y-67212443D01*
X73857667Y-67253658D01*
X73860509Y-67256413D01*
X73880230Y-67276134D01*
X73883425Y-67278612D01*
X73892447Y-67286318D01*
X73924679Y-67316586D01*
X73931628Y-67320406D01*
X73942432Y-67326346D01*
X73958956Y-67337199D01*
X73974959Y-67349613D01*
X74015543Y-67367176D01*
X74026173Y-67372383D01*
X74064940Y-67393695D01*
X74072617Y-67395666D01*
X74072622Y-67395668D01*
X74084558Y-67398732D01*
X74103266Y-67405137D01*
X74121855Y-67413181D01*
X74129680Y-67414420D01*
X74129682Y-67414421D01*
X74165519Y-67420097D01*
X74177140Y-67422504D01*
X74212289Y-67431528D01*
X74219970Y-67433500D01*
X74240231Y-67433500D01*
X74259940Y-67435051D01*
X74279943Y-67438219D01*
X74287835Y-67437473D01*
X74293062Y-67436979D01*
X74323954Y-67434059D01*
X74335811Y-67433500D01*
X76790500Y-67433500D01*
X76858621Y-67453502D01*
X76905114Y-67507158D01*
X76916500Y-67559500D01*
X76916500Y-67598134D01*
X76923255Y-67660316D01*
X76974385Y-67796705D01*
X77061739Y-67913261D01*
X77178295Y-68000615D01*
X77314684Y-68051745D01*
X77376866Y-68058500D01*
X77740500Y-68058500D01*
X77808621Y-68078502D01*
X77855114Y-68132158D01*
X77866500Y-68184500D01*
X77866500Y-68185406D01*
X77846498Y-68253527D01*
X77829595Y-68274501D01*
X74624500Y-71479595D01*
X74562188Y-71513621D01*
X74535405Y-71516500D01*
X72884500Y-71516500D01*
X72816379Y-71496498D01*
X72769886Y-71442842D01*
X72758500Y-71390500D01*
X72758500Y-69851866D01*
X72751745Y-69789684D01*
X72700615Y-69653295D01*
X72613261Y-69536739D01*
X72496705Y-69449385D01*
X72360316Y-69398255D01*
X72298134Y-69391500D01*
X70201866Y-69391500D01*
X70139684Y-69398255D01*
X70003295Y-69449385D01*
X69886739Y-69536739D01*
X69799385Y-69653295D01*
X69748255Y-69789684D01*
X69741500Y-69851866D01*
X69741500Y-71390500D01*
X69721498Y-71458621D01*
X69667842Y-71505114D01*
X69615500Y-71516500D01*
X68727095Y-71516500D01*
X68658974Y-71496498D01*
X68638000Y-71479595D01*
X68570405Y-71412000D01*
X68536379Y-71349688D01*
X68533500Y-71322905D01*
X68533500Y-70937928D01*
X68529280Y-70897252D01*
X68523419Y-70840765D01*
X68523418Y-70840761D01*
X68522707Y-70833907D01*
X68467654Y-70668893D01*
X68376116Y-70520969D01*
X68367001Y-70511870D01*
X68258184Y-70403242D01*
X68258179Y-70403238D01*
X68253003Y-70398071D01*
X68212006Y-70372800D01*
X68111150Y-70310631D01*
X68111148Y-70310630D01*
X68104920Y-70306791D01*
X67939809Y-70252026D01*
X67932973Y-70251326D01*
X67932970Y-70251325D01*
X67881474Y-70246049D01*
X67837072Y-70241500D01*
X67262928Y-70241500D01*
X67259682Y-70241837D01*
X67259678Y-70241837D01*
X67165765Y-70251581D01*
X67165761Y-70251582D01*
X67158907Y-70252293D01*
X67152371Y-70254474D01*
X67152369Y-70254474D01*
X67122213Y-70264535D01*
X66993893Y-70307346D01*
X66845969Y-70398884D01*
X66840796Y-70404066D01*
X66728242Y-70516816D01*
X66728238Y-70516821D01*
X66723071Y-70521997D01*
X66719231Y-70528227D01*
X66719230Y-70528228D01*
X66636364Y-70662662D01*
X66631791Y-70670080D01*
X66577026Y-70835191D01*
X66576326Y-70842027D01*
X66576325Y-70842030D01*
X66574702Y-70857871D01*
X66566500Y-70937928D01*
X66566500Y-71637072D01*
X66566837Y-71640318D01*
X66566837Y-71640322D01*
X66575923Y-71727886D01*
X66577293Y-71741093D01*
X66579474Y-71747629D01*
X66579474Y-71747631D01*
X66599103Y-71806466D01*
X66632346Y-71906107D01*
X66723884Y-72054031D01*
X66729065Y-72059203D01*
X66731139Y-72061273D01*
X66732105Y-72063038D01*
X66733613Y-72064941D01*
X66733287Y-72065199D01*
X66765219Y-72123554D01*
X66760218Y-72194375D01*
X66731292Y-72239470D01*
X66728636Y-72242131D01*
X66719625Y-72253540D01*
X66636088Y-72389063D01*
X66629944Y-72402241D01*
X66579685Y-72553766D01*
X66576819Y-72567132D01*
X66567328Y-72659770D01*
X66567000Y-72666185D01*
X66567000Y-72740385D01*
X66571475Y-72755624D01*
X66572865Y-72756829D01*
X66580548Y-72758500D01*
X68203870Y-72758500D01*
X68233176Y-72762671D01*
X68234355Y-72763181D01*
X68242183Y-72764421D01*
X68242190Y-72764423D01*
X68278024Y-72770099D01*
X68289644Y-72772505D01*
X68321459Y-72780673D01*
X68332470Y-72783500D01*
X68352724Y-72783500D01*
X68372434Y-72785051D01*
X68392443Y-72788220D01*
X68400335Y-72787474D01*
X68419080Y-72785702D01*
X68436462Y-72784059D01*
X68448319Y-72783500D01*
X69615500Y-72783500D01*
X69683621Y-72803502D01*
X69730114Y-72857158D01*
X69741500Y-72909500D01*
X69741500Y-74448134D01*
X69748255Y-74510316D01*
X69799385Y-74646705D01*
X69886739Y-74763261D01*
X70003295Y-74850615D01*
X70139684Y-74901745D01*
X70201866Y-74908500D01*
X72298134Y-74908500D01*
X72360316Y-74901745D01*
X72496705Y-74850615D01*
X72613261Y-74763261D01*
X72700615Y-74646705D01*
X72751745Y-74510316D01*
X72758500Y-74448134D01*
X72758500Y-72909500D01*
X72778502Y-72841379D01*
X72832158Y-72794886D01*
X72884500Y-72783500D01*
X74771233Y-72783500D01*
X74782416Y-72784027D01*
X74789909Y-72785702D01*
X74797835Y-72785453D01*
X74797836Y-72785453D01*
X74857986Y-72783562D01*
X74861945Y-72783500D01*
X74889856Y-72783500D01*
X74893791Y-72783003D01*
X74893856Y-72782995D01*
X74905693Y-72782062D01*
X74937951Y-72781048D01*
X74941970Y-72780922D01*
X74949889Y-72780673D01*
X74969343Y-72775021D01*
X74988700Y-72771013D01*
X75000930Y-72769468D01*
X75000931Y-72769468D01*
X75008797Y-72768474D01*
X75016168Y-72765555D01*
X75016170Y-72765555D01*
X75049912Y-72752196D01*
X75061142Y-72748351D01*
X75095983Y-72738229D01*
X75095984Y-72738229D01*
X75103593Y-72736018D01*
X75110412Y-72731985D01*
X75110417Y-72731983D01*
X75121028Y-72725707D01*
X75138776Y-72717012D01*
X75157617Y-72709552D01*
X75193387Y-72683564D01*
X75203307Y-72677048D01*
X75234535Y-72658580D01*
X75234538Y-72658578D01*
X75241362Y-72654542D01*
X75255683Y-72640221D01*
X75270717Y-72627380D01*
X75280694Y-72620131D01*
X75287107Y-72615472D01*
X75315298Y-72581395D01*
X75323288Y-72572616D01*
X77501405Y-70394499D01*
X77563717Y-70360473D01*
X77634532Y-70365538D01*
X77691368Y-70408085D01*
X77716179Y-70474605D01*
X77716500Y-70483594D01*
X77716500Y-76113024D01*
X77696498Y-76181145D01*
X77642842Y-76227638D01*
X77572568Y-76237742D01*
X77529607Y-76223333D01*
X77485535Y-76199004D01*
X77408789Y-76156638D01*
X77403920Y-76154914D01*
X77403916Y-76154912D01*
X77203087Y-76083795D01*
X77203083Y-76083794D01*
X77198212Y-76082069D01*
X77193119Y-76081162D01*
X77193116Y-76081161D01*
X76983373Y-76043800D01*
X76983367Y-76043799D01*
X76978284Y-76042894D01*
X76904452Y-76041992D01*
X76760081Y-76040228D01*
X76760079Y-76040228D01*
X76754911Y-76040165D01*
X76534091Y-76073955D01*
X76321756Y-76143357D01*
X76291443Y-76159137D01*
X76147975Y-76233822D01*
X76123607Y-76246507D01*
X76119474Y-76249610D01*
X76119471Y-76249612D01*
X75968422Y-76363023D01*
X75944965Y-76380635D01*
X75941393Y-76384373D01*
X75803559Y-76528608D01*
X75790629Y-76542138D01*
X75787720Y-76546403D01*
X75787714Y-76546411D01*
X75720383Y-76645115D01*
X75664743Y-76726680D01*
X75635333Y-76790038D01*
X75580534Y-76908094D01*
X75570688Y-76929305D01*
X75510989Y-77144570D01*
X75487251Y-77366695D01*
X75487548Y-77371848D01*
X75487548Y-77371852D01*
X75491088Y-77433248D01*
X75475040Y-77502407D01*
X75424150Y-77551911D01*
X75365297Y-77566500D01*
X74128640Y-77566500D01*
X74060519Y-77546498D01*
X74021497Y-77506804D01*
X73976116Y-77433469D01*
X73969212Y-77426577D01*
X73968411Y-77425113D01*
X73966389Y-77422562D01*
X73966826Y-77422216D01*
X73935134Y-77364296D01*
X73940137Y-77293476D01*
X73969056Y-77248390D01*
X73971757Y-77245684D01*
X73976929Y-77240503D01*
X74011240Y-77184841D01*
X74064369Y-77098650D01*
X74064370Y-77098648D01*
X74068209Y-77092420D01*
X74122974Y-76927309D01*
X74124604Y-76911406D01*
X74128951Y-76868974D01*
X74133500Y-76824572D01*
X74133500Y-76125428D01*
X74133163Y-76122178D01*
X74123419Y-76028265D01*
X74123418Y-76028261D01*
X74122707Y-76021407D01*
X74095905Y-75941070D01*
X74069972Y-75863341D01*
X74067654Y-75856393D01*
X73976116Y-75708469D01*
X73964175Y-75696549D01*
X73858184Y-75590742D01*
X73858179Y-75590738D01*
X73853003Y-75585571D01*
X73846772Y-75581730D01*
X73711150Y-75498131D01*
X73711148Y-75498130D01*
X73704920Y-75494291D01*
X73539809Y-75439526D01*
X73532973Y-75438826D01*
X73532970Y-75438825D01*
X73481474Y-75433549D01*
X73437072Y-75429000D01*
X72862928Y-75429000D01*
X72859682Y-75429337D01*
X72859678Y-75429337D01*
X72765765Y-75439081D01*
X72765761Y-75439082D01*
X72758907Y-75439793D01*
X72752371Y-75441974D01*
X72752369Y-75441974D01*
X72685822Y-75464176D01*
X72593893Y-75494846D01*
X72445969Y-75586384D01*
X72323071Y-75709497D01*
X72320600Y-75713506D01*
X72263559Y-75753948D01*
X72192636Y-75757181D01*
X72131224Y-75721557D01*
X72100010Y-75663939D01*
X72097979Y-75655395D01*
X72052824Y-75534946D01*
X72044286Y-75519351D01*
X71967785Y-75417276D01*
X71955224Y-75404715D01*
X71853149Y-75328214D01*
X71837554Y-75319676D01*
X71717106Y-75274522D01*
X71701851Y-75270895D01*
X71650986Y-75265369D01*
X71644172Y-75265000D01*
X71071615Y-75265000D01*
X71056376Y-75269475D01*
X71055171Y-75270865D01*
X71053500Y-75278548D01*
X71053500Y-76501000D01*
X71033498Y-76569121D01*
X70979842Y-76615614D01*
X70927500Y-76627000D01*
X69509616Y-76627000D01*
X69494377Y-76631475D01*
X69493172Y-76632865D01*
X69491501Y-76640548D01*
X69491501Y-77017669D01*
X69491871Y-77024490D01*
X69497395Y-77075352D01*
X69502849Y-77098293D01*
X69500912Y-77098754D01*
X69505331Y-77159069D01*
X69471413Y-77221440D01*
X69409160Y-77255573D01*
X69382164Y-77258499D01*
X67517836Y-77258499D01*
X67449715Y-77238497D01*
X67403222Y-77184841D01*
X67393118Y-77114567D01*
X67397280Y-77098322D01*
X67397151Y-77098291D01*
X67402605Y-77075351D01*
X67408131Y-77024486D01*
X67408500Y-77017672D01*
X67408500Y-76645115D01*
X67404025Y-76629876D01*
X67402635Y-76628671D01*
X67394952Y-76627000D01*
X65972500Y-76627000D01*
X65904379Y-76606998D01*
X65857886Y-76553342D01*
X65846500Y-76501000D01*
X65846500Y-76100885D01*
X66354500Y-76100885D01*
X66358975Y-76116124D01*
X66360365Y-76117329D01*
X66368048Y-76119000D01*
X67390384Y-76119000D01*
X67429496Y-76107516D01*
X67449066Y-76094940D01*
X67520062Y-76094944D01*
X67579787Y-76133330D01*
X67606034Y-76182379D01*
X67637427Y-76296351D01*
X67647080Y-76331398D01*
X67734075Y-76496398D01*
X67738480Y-76501611D01*
X67738483Y-76501615D01*
X67850064Y-76633653D01*
X67850068Y-76633657D01*
X67854471Y-76638867D01*
X67859895Y-76643014D01*
X67859896Y-76643015D01*
X67997231Y-76748016D01*
X67997235Y-76748019D01*
X68002652Y-76752160D01*
X68171704Y-76830990D01*
X68353740Y-76871680D01*
X68359463Y-76872000D01*
X68496596Y-76872000D01*
X68635437Y-76856917D01*
X68812223Y-76797422D01*
X68972109Y-76701353D01*
X69107636Y-76573192D01*
X69117566Y-76558580D01*
X69208646Y-76424560D01*
X69208647Y-76424558D01*
X69212480Y-76418918D01*
X69218827Y-76403051D01*
X69279215Y-76252070D01*
X69279216Y-76252068D01*
X69281751Y-76245729D01*
X69282866Y-76238996D01*
X69282867Y-76238991D01*
X69290637Y-76192054D01*
X69321497Y-76128114D01*
X69382025Y-76091009D01*
X69453006Y-76092519D01*
X69497283Y-76117311D01*
X69505048Y-76119000D01*
X70527385Y-76119000D01*
X70542624Y-76114525D01*
X70543829Y-76113135D01*
X70545500Y-76105452D01*
X70545500Y-75283116D01*
X70541025Y-75267877D01*
X70539635Y-75266672D01*
X70531952Y-75265001D01*
X69954831Y-75265001D01*
X69948010Y-75265371D01*
X69897148Y-75270895D01*
X69881896Y-75274521D01*
X69761446Y-75319676D01*
X69745851Y-75328214D01*
X69643776Y-75404715D01*
X69631215Y-75417276D01*
X69554714Y-75519351D01*
X69546176Y-75534946D01*
X69501022Y-75655394D01*
X69495568Y-75678331D01*
X69494191Y-75678004D01*
X69470202Y-75735729D01*
X69411838Y-75776154D01*
X69340884Y-75778606D01*
X69279867Y-75742309D01*
X69255032Y-75702938D01*
X69254732Y-75702179D01*
X69252920Y-75695602D01*
X69246734Y-75683868D01*
X69214235Y-75622230D01*
X69165925Y-75530602D01*
X69161520Y-75525389D01*
X69161517Y-75525385D01*
X69049936Y-75393347D01*
X69049932Y-75393343D01*
X69045529Y-75388133D01*
X69040104Y-75383985D01*
X68902769Y-75278984D01*
X68902765Y-75278981D01*
X68897348Y-75274840D01*
X68728296Y-75196010D01*
X68546260Y-75155320D01*
X68540537Y-75155000D01*
X68403404Y-75155000D01*
X68264563Y-75170083D01*
X68087777Y-75229578D01*
X67927891Y-75325647D01*
X67792364Y-75453808D01*
X67788529Y-75459451D01*
X67691379Y-75602404D01*
X67687520Y-75608082D01*
X67684988Y-75614411D01*
X67684987Y-75614414D01*
X67645789Y-75712416D01*
X67601919Y-75768237D01*
X67534835Y-75791478D01*
X67465834Y-75774762D01*
X67416825Y-75723395D01*
X67403537Y-75679228D01*
X67402605Y-75670648D01*
X67398979Y-75655396D01*
X67353824Y-75534946D01*
X67345286Y-75519351D01*
X67268785Y-75417276D01*
X67256224Y-75404715D01*
X67154149Y-75328214D01*
X67138554Y-75319676D01*
X67018106Y-75274522D01*
X67002851Y-75270895D01*
X66951986Y-75265369D01*
X66945172Y-75265000D01*
X66372615Y-75265000D01*
X66357376Y-75269475D01*
X66356171Y-75270865D01*
X66354500Y-75278548D01*
X66354500Y-76100885D01*
X65846500Y-76100885D01*
X65846500Y-75283116D01*
X65842025Y-75267877D01*
X65840635Y-75266672D01*
X65832952Y-75265001D01*
X65255831Y-75265001D01*
X65249010Y-75265371D01*
X65198148Y-75270895D01*
X65182896Y-75274521D01*
X65062446Y-75319676D01*
X65046851Y-75328214D01*
X64944776Y-75404715D01*
X64932215Y-75417276D01*
X64855714Y-75519351D01*
X64847176Y-75534946D01*
X64821887Y-75602404D01*
X64779245Y-75659168D01*
X64712684Y-75683868D01*
X64643335Y-75668661D01*
X64614887Y-75647347D01*
X64589391Y-75621895D01*
X64553003Y-75585571D01*
X64543386Y-75579643D01*
X64541559Y-75577614D01*
X64541027Y-75577193D01*
X64541099Y-75577102D01*
X64495892Y-75526872D01*
X64483500Y-75472382D01*
X64483500Y-73358766D01*
X66567000Y-73358766D01*
X66567337Y-73365282D01*
X66577075Y-73459132D01*
X66579968Y-73472528D01*
X66630488Y-73623953D01*
X66636653Y-73637115D01*
X66720426Y-73772492D01*
X66729460Y-73783890D01*
X66842129Y-73896363D01*
X66853540Y-73905375D01*
X66989063Y-73988912D01*
X67002241Y-73995056D01*
X67153766Y-74045315D01*
X67167132Y-74048181D01*
X67259770Y-74057672D01*
X67266185Y-74058000D01*
X67277885Y-74058000D01*
X67293124Y-74053525D01*
X67294329Y-74052135D01*
X67296000Y-74044452D01*
X67296000Y-74039885D01*
X67804000Y-74039885D01*
X67808475Y-74055124D01*
X67809865Y-74056329D01*
X67817548Y-74058000D01*
X67833766Y-74058000D01*
X67840282Y-74057663D01*
X67934132Y-74047925D01*
X67947528Y-74045032D01*
X68098953Y-73994512D01*
X68112115Y-73988347D01*
X68247492Y-73904574D01*
X68258890Y-73895540D01*
X68371363Y-73782871D01*
X68380375Y-73771460D01*
X68463912Y-73635937D01*
X68470056Y-73622759D01*
X68520315Y-73471234D01*
X68523181Y-73457868D01*
X68532672Y-73365230D01*
X68533000Y-73358815D01*
X68533000Y-73284615D01*
X68528525Y-73269376D01*
X68527135Y-73268171D01*
X68519452Y-73266500D01*
X67822115Y-73266500D01*
X67806876Y-73270975D01*
X67805671Y-73272365D01*
X67804000Y-73280048D01*
X67804000Y-74039885D01*
X67296000Y-74039885D01*
X67296000Y-73284615D01*
X67291525Y-73269376D01*
X67290135Y-73268171D01*
X67282452Y-73266500D01*
X66585115Y-73266500D01*
X66569876Y-73270975D01*
X66568671Y-73272365D01*
X66567000Y-73280048D01*
X66567000Y-73358766D01*
X64483500Y-73358766D01*
X64483500Y-72016263D01*
X64484027Y-72005079D01*
X64485701Y-71997591D01*
X64483562Y-71929532D01*
X64483500Y-71925575D01*
X64483500Y-71897644D01*
X64482994Y-71893638D01*
X64482061Y-71881792D01*
X64481947Y-71878145D01*
X64480673Y-71837610D01*
X64475022Y-71818158D01*
X64471014Y-71798806D01*
X64469468Y-71786568D01*
X64469467Y-71786566D01*
X64468474Y-71778703D01*
X64452194Y-71737586D01*
X64448359Y-71726385D01*
X64436018Y-71683906D01*
X64431985Y-71677087D01*
X64431983Y-71677082D01*
X64425707Y-71666471D01*
X64417010Y-71648721D01*
X64409552Y-71629883D01*
X64383571Y-71594123D01*
X64377053Y-71584201D01*
X64358578Y-71552960D01*
X64358574Y-71552955D01*
X64354542Y-71546137D01*
X64340218Y-71531813D01*
X64327376Y-71516778D01*
X64327174Y-71516500D01*
X64315472Y-71500393D01*
X64281406Y-71472211D01*
X64272627Y-71464222D01*
X61295405Y-68487000D01*
X61261379Y-68424688D01*
X61258500Y-68397905D01*
X61258500Y-68012928D01*
X61258163Y-68009678D01*
X61248419Y-67915765D01*
X61248418Y-67915761D01*
X61247707Y-67908907D01*
X61240613Y-67887642D01*
X61195384Y-67752076D01*
X61192654Y-67743893D01*
X61101116Y-67595969D01*
X61067267Y-67562179D01*
X60983184Y-67478242D01*
X60983179Y-67478238D01*
X60978003Y-67473071D01*
X60971676Y-67469171D01*
X60836150Y-67385631D01*
X60836148Y-67385630D01*
X60829920Y-67381791D01*
X60664809Y-67327026D01*
X60657973Y-67326326D01*
X60657970Y-67326325D01*
X60606474Y-67321049D01*
X60562072Y-67316500D01*
X60177095Y-67316500D01*
X60108974Y-67296498D01*
X60088000Y-67279595D01*
X59933652Y-67125247D01*
X59926112Y-67116961D01*
X59922000Y-67110482D01*
X59872348Y-67063856D01*
X59869507Y-67061102D01*
X59849770Y-67041365D01*
X59846573Y-67038885D01*
X59837551Y-67031180D01*
X59811100Y-67006341D01*
X59805321Y-67000914D01*
X59798375Y-66997095D01*
X59798372Y-66997093D01*
X59787566Y-66991152D01*
X59771047Y-66980301D01*
X59764170Y-66974967D01*
X59755041Y-66967886D01*
X59747772Y-66964741D01*
X59747768Y-66964738D01*
X59714463Y-66950326D01*
X59703813Y-66945109D01*
X59665060Y-66923805D01*
X59645437Y-66918767D01*
X59626734Y-66912363D01*
X59615420Y-66907467D01*
X59615419Y-66907467D01*
X59608145Y-66904319D01*
X59600322Y-66903080D01*
X59600312Y-66903077D01*
X59564476Y-66897401D01*
X59552856Y-66894995D01*
X59517711Y-66885972D01*
X59517710Y-66885972D01*
X59510030Y-66884000D01*
X59489776Y-66884000D01*
X59470065Y-66882449D01*
X59457886Y-66880520D01*
X59450057Y-66879280D01*
X59442165Y-66880026D01*
X59406039Y-66883441D01*
X59394181Y-66884000D01*
X59039305Y-66884000D01*
X58971184Y-66863998D01*
X58933513Y-66826440D01*
X58845322Y-66690117D01*
X58845320Y-66690114D01*
X58842514Y-66685777D01*
X58692170Y-66520551D01*
X58688119Y-66517352D01*
X58688115Y-66517348D01*
X58520914Y-66385300D01*
X58520910Y-66385298D01*
X58516859Y-66382098D01*
X58475553Y-66359296D01*
X58425584Y-66308864D01*
X58410812Y-66239421D01*
X58435928Y-66173016D01*
X58463280Y-66146409D01*
X58531047Y-66098071D01*
X58642360Y-66018673D01*
X58659657Y-66001437D01*
X58796935Y-65864637D01*
X58800596Y-65860989D01*
X58840033Y-65806107D01*
X58927935Y-65683777D01*
X58930953Y-65679577D01*
X58946164Y-65648801D01*
X59027636Y-65483953D01*
X59027637Y-65483951D01*
X59029930Y-65479311D01*
X59074017Y-65334204D01*
X59093365Y-65270523D01*
X59093365Y-65270521D01*
X59094870Y-65265569D01*
X59124029Y-65044090D01*
X59124715Y-65016002D01*
X59125574Y-64980865D01*
X59125574Y-64980861D01*
X59125656Y-64977500D01*
X59107352Y-64754861D01*
X59052931Y-64538202D01*
X58963854Y-64333340D01*
X58906666Y-64244941D01*
X58845322Y-64150117D01*
X58845320Y-64150114D01*
X58842514Y-64145777D01*
X58692170Y-63980551D01*
X58688119Y-63977352D01*
X58688115Y-63977348D01*
X58520914Y-63845300D01*
X58520910Y-63845298D01*
X58516859Y-63842098D01*
X58475553Y-63819296D01*
X58425584Y-63768864D01*
X58410812Y-63699421D01*
X58435928Y-63633016D01*
X58463280Y-63606409D01*
X58524493Y-63562746D01*
X58642360Y-63478673D01*
X58664546Y-63456565D01*
X58793548Y-63328012D01*
X58800596Y-63320989D01*
X58806869Y-63312260D01*
X58927935Y-63143777D01*
X58930953Y-63139577D01*
X58935769Y-63129834D01*
X59027636Y-62943953D01*
X59027637Y-62943951D01*
X59029930Y-62939311D01*
X59071589Y-62802197D01*
X59093365Y-62730523D01*
X59093365Y-62730521D01*
X59094870Y-62725569D01*
X59115959Y-62565385D01*
X66567000Y-62565385D01*
X66571475Y-62580624D01*
X66572865Y-62581829D01*
X66580548Y-62583500D01*
X67277885Y-62583500D01*
X67293124Y-62579025D01*
X67294329Y-62577635D01*
X67296000Y-62569952D01*
X67296000Y-62565385D01*
X67804000Y-62565385D01*
X67808475Y-62580624D01*
X67809865Y-62581829D01*
X67817548Y-62583500D01*
X68514885Y-62583500D01*
X68530124Y-62579025D01*
X68531329Y-62577635D01*
X68533000Y-62569952D01*
X68533000Y-62491234D01*
X68532663Y-62484718D01*
X68522925Y-62390868D01*
X68520032Y-62377472D01*
X68469512Y-62226047D01*
X68463347Y-62212885D01*
X68379574Y-62077508D01*
X68370540Y-62066110D01*
X68257871Y-61953637D01*
X68246460Y-61944625D01*
X68110937Y-61861088D01*
X68097759Y-61854944D01*
X67946234Y-61804685D01*
X67932868Y-61801819D01*
X67840230Y-61792328D01*
X67833815Y-61792000D01*
X67822115Y-61792000D01*
X67806876Y-61796475D01*
X67805671Y-61797865D01*
X67804000Y-61805548D01*
X67804000Y-62565385D01*
X67296000Y-62565385D01*
X67296000Y-61810115D01*
X67291525Y-61794876D01*
X67290135Y-61793671D01*
X67282452Y-61792000D01*
X67266234Y-61792000D01*
X67259718Y-61792337D01*
X67165868Y-61802075D01*
X67152472Y-61804968D01*
X67001047Y-61855488D01*
X66987885Y-61861653D01*
X66852508Y-61945426D01*
X66841110Y-61954460D01*
X66728637Y-62067129D01*
X66719625Y-62078540D01*
X66636088Y-62214063D01*
X66629944Y-62227241D01*
X66579685Y-62378766D01*
X66576819Y-62392132D01*
X66567328Y-62484770D01*
X66567000Y-62491185D01*
X66567000Y-62565385D01*
X59115959Y-62565385D01*
X59124029Y-62504090D01*
X59124502Y-62484718D01*
X59125574Y-62440865D01*
X59125574Y-62440861D01*
X59125656Y-62437500D01*
X59107352Y-62214861D01*
X59079321Y-62103265D01*
X59082125Y-62032323D01*
X59112430Y-61983474D01*
X59825499Y-61270405D01*
X59887811Y-61236379D01*
X59914594Y-61233500D01*
X69615500Y-61233500D01*
X69683621Y-61253502D01*
G37*
G04 #@! TD.AperFunction*
G04 #@! TA.AperFunction,Conductor*
G36*
X87034533Y-71291935D02*
G01*
X87091368Y-71334482D01*
X87116179Y-71401002D01*
X87116500Y-71409991D01*
X87116500Y-75835405D01*
X87096498Y-75903526D01*
X87079595Y-75924500D01*
X85974393Y-77029702D01*
X85912081Y-77063728D01*
X85841266Y-77058663D01*
X85784430Y-77016116D01*
X85763095Y-76971305D01*
X85761694Y-76965727D01*
X85761691Y-76965718D01*
X85760431Y-76960702D01*
X85671354Y-76755840D01*
X85621296Y-76678462D01*
X85552822Y-76572617D01*
X85552820Y-76572614D01*
X85550014Y-76568277D01*
X85399670Y-76403051D01*
X85395619Y-76399852D01*
X85395615Y-76399848D01*
X85228414Y-76267800D01*
X85228410Y-76267798D01*
X85224359Y-76264598D01*
X85219831Y-76262098D01*
X85105535Y-76199004D01*
X85028789Y-76156638D01*
X85023920Y-76154914D01*
X85023916Y-76154912D01*
X84823087Y-76083795D01*
X84823083Y-76083794D01*
X84818212Y-76082069D01*
X84813119Y-76081162D01*
X84813116Y-76081161D01*
X84603373Y-76043800D01*
X84603367Y-76043799D01*
X84598284Y-76042894D01*
X84524452Y-76041992D01*
X84380081Y-76040228D01*
X84380079Y-76040228D01*
X84374911Y-76040165D01*
X84154091Y-76073955D01*
X83941756Y-76143357D01*
X83911443Y-76159137D01*
X83767975Y-76233822D01*
X83743607Y-76246507D01*
X83739474Y-76249610D01*
X83739471Y-76249612D01*
X83588422Y-76363023D01*
X83564965Y-76380635D01*
X83561393Y-76384373D01*
X83423559Y-76528608D01*
X83410629Y-76542138D01*
X83303201Y-76699621D01*
X83248293Y-76744621D01*
X83177768Y-76752792D01*
X83114021Y-76721538D01*
X83093324Y-76697054D01*
X83012822Y-76572617D01*
X83012820Y-76572614D01*
X83010014Y-76568277D01*
X82859670Y-76403051D01*
X82855619Y-76399852D01*
X82855615Y-76399848D01*
X82688414Y-76267800D01*
X82688410Y-76267798D01*
X82684359Y-76264598D01*
X82679835Y-76262101D01*
X82679831Y-76262098D01*
X82628608Y-76233822D01*
X82578636Y-76183390D01*
X82563500Y-76123513D01*
X82563500Y-75710990D01*
X82583502Y-75642869D01*
X82600405Y-75621895D01*
X86901405Y-71320896D01*
X86963717Y-71286870D01*
X87034533Y-71291935D01*
G37*
G04 #@! TD.AperFunction*
G04 #@! TA.AperFunction,Conductor*
G36*
X85231735Y-66684722D02*
G01*
X85232189Y-66683936D01*
X85237848Y-66687204D01*
X85237876Y-66687215D01*
X85243248Y-66691118D01*
X85249276Y-66693802D01*
X85249278Y-66693803D01*
X85411679Y-66766108D01*
X85417712Y-66768794D01*
X85511112Y-66788647D01*
X85598056Y-66807128D01*
X85598061Y-66807128D01*
X85604513Y-66808500D01*
X85795487Y-66808500D01*
X85801939Y-66807128D01*
X85801944Y-66807128D01*
X85888888Y-66788647D01*
X85982288Y-66768794D01*
X85988315Y-66766111D01*
X85988323Y-66766108D01*
X86039252Y-66743433D01*
X86109619Y-66733999D01*
X86173916Y-66764106D01*
X86211729Y-66824195D01*
X86216500Y-66858540D01*
X86216500Y-69525405D01*
X86196498Y-69593526D01*
X86179595Y-69614500D01*
X79762464Y-76031631D01*
X79700152Y-76065657D01*
X79651273Y-76066583D01*
X79523373Y-76043800D01*
X79523367Y-76043799D01*
X79518284Y-76042894D01*
X79444452Y-76041992D01*
X79300081Y-76040228D01*
X79300079Y-76040228D01*
X79294911Y-76040165D01*
X79194382Y-76055548D01*
X79128559Y-76065620D01*
X79058196Y-76056152D01*
X79004122Y-76010146D01*
X78983500Y-75941070D01*
X78983500Y-70402095D01*
X79003502Y-70333974D01*
X79020405Y-70312999D01*
X79513001Y-69820404D01*
X79575313Y-69786379D01*
X79602096Y-69783500D01*
X79987072Y-69783500D01*
X79990318Y-69783163D01*
X79990322Y-69783163D01*
X80084235Y-69773419D01*
X80084239Y-69773418D01*
X80091093Y-69772707D01*
X80097629Y-69770526D01*
X80097631Y-69770526D01*
X80249159Y-69719972D01*
X80256107Y-69717654D01*
X80404031Y-69626116D01*
X80411274Y-69618861D01*
X80413038Y-69617895D01*
X80414941Y-69616387D01*
X80415199Y-69616713D01*
X80473554Y-69584781D01*
X80544375Y-69589782D01*
X80589470Y-69618708D01*
X80592131Y-69621364D01*
X80603540Y-69630375D01*
X80739063Y-69713912D01*
X80752241Y-69720056D01*
X80903766Y-69770315D01*
X80917132Y-69773181D01*
X81009770Y-69782672D01*
X81016185Y-69783000D01*
X81090385Y-69783000D01*
X81105624Y-69778525D01*
X81106829Y-69777135D01*
X81108500Y-69769452D01*
X81108500Y-68672000D01*
X81128502Y-68603879D01*
X81182158Y-68557386D01*
X81234500Y-68546000D01*
X81490500Y-68546000D01*
X81558621Y-68566002D01*
X81605114Y-68619658D01*
X81616500Y-68672000D01*
X81616500Y-69764885D01*
X81620975Y-69780124D01*
X81622365Y-69781329D01*
X81630048Y-69783000D01*
X81708766Y-69783000D01*
X81715282Y-69782663D01*
X81809132Y-69772925D01*
X81822528Y-69770032D01*
X81973953Y-69719512D01*
X81987115Y-69713347D01*
X82122492Y-69629574D01*
X82133890Y-69620540D01*
X82246363Y-69507871D01*
X82255377Y-69496457D01*
X82278186Y-69459454D01*
X82330958Y-69411960D01*
X82401029Y-69400536D01*
X82436694Y-69410462D01*
X82561677Y-69466108D01*
X82561685Y-69466111D01*
X82567712Y-69468794D01*
X82656709Y-69487711D01*
X82748056Y-69507128D01*
X82748061Y-69507128D01*
X82754513Y-69508500D01*
X82945487Y-69508500D01*
X82951939Y-69507128D01*
X82951944Y-69507128D01*
X83043291Y-69487711D01*
X83132288Y-69468794D01*
X83138321Y-69466108D01*
X83300722Y-69393803D01*
X83300724Y-69393802D01*
X83306752Y-69391118D01*
X83327507Y-69376039D01*
X83419089Y-69309500D01*
X83461253Y-69278866D01*
X83489100Y-69247939D01*
X83584621Y-69141852D01*
X83584622Y-69141851D01*
X83589040Y-69136944D01*
X83676922Y-68984729D01*
X83681223Y-68977279D01*
X83681224Y-68977278D01*
X83684527Y-68971556D01*
X83743542Y-68789928D01*
X83748542Y-68742361D01*
X83762814Y-68606565D01*
X83763504Y-68600000D01*
X83759113Y-68558221D01*
X83744232Y-68416635D01*
X83744232Y-68416633D01*
X83743542Y-68410072D01*
X83684527Y-68228444D01*
X83675154Y-68212209D01*
X83658417Y-68143215D01*
X83681638Y-68076123D01*
X83740044Y-68031229D01*
X83813297Y-68003767D01*
X83821705Y-68000615D01*
X83938261Y-67913261D01*
X84025615Y-67796705D01*
X84028767Y-67788296D01*
X84033077Y-67780425D01*
X84034741Y-67781336D01*
X84070663Y-67733510D01*
X84137224Y-67708807D01*
X84146009Y-67708500D01*
X84220487Y-67708500D01*
X84226939Y-67707128D01*
X84226944Y-67707128D01*
X84313887Y-67688647D01*
X84407288Y-67668794D01*
X84531780Y-67613367D01*
X84575722Y-67593803D01*
X84575724Y-67593802D01*
X84581752Y-67591118D01*
X84597146Y-67579934D01*
X84659993Y-67534272D01*
X84736253Y-67478866D01*
X84744929Y-67469230D01*
X84859621Y-67341852D01*
X84859622Y-67341851D01*
X84864040Y-67336944D01*
X84939053Y-67207018D01*
X84956223Y-67177279D01*
X84956224Y-67177278D01*
X84959527Y-67171556D01*
X85018542Y-66989928D01*
X85020115Y-66974967D01*
X85037814Y-66806565D01*
X85038504Y-66800000D01*
X85037814Y-66793435D01*
X85037814Y-66789150D01*
X85057816Y-66721029D01*
X85111472Y-66674536D01*
X85181746Y-66664432D01*
X85231735Y-66684722D01*
G37*
G04 #@! TD.AperFunction*
G04 #@! TA.AperFunction,Conductor*
G36*
X132769292Y-68630778D02*
G01*
X132826128Y-68673325D01*
X132850939Y-68739845D01*
X132841669Y-68797052D01*
X132831074Y-68822631D01*
X132695007Y-69151125D01*
X132694181Y-69153745D01*
X132694178Y-69153753D01*
X132562838Y-69570312D01*
X132560867Y-69576563D01*
X132464317Y-70012073D01*
X132463959Y-70014793D01*
X132463958Y-70014798D01*
X132448277Y-70133909D01*
X132406091Y-70454341D01*
X132405971Y-70457090D01*
X132405970Y-70457101D01*
X132389804Y-70827369D01*
X132389127Y-70842874D01*
X132386633Y-70900000D01*
X132386753Y-70902748D01*
X132405098Y-71322905D01*
X132406091Y-71345659D01*
X132435395Y-71568240D01*
X132463103Y-71778703D01*
X132464317Y-71787927D01*
X132560867Y-72223437D01*
X132561695Y-72226062D01*
X132561696Y-72226067D01*
X132689765Y-72632249D01*
X132695007Y-72648875D01*
X132755340Y-72794531D01*
X132854338Y-73033532D01*
X132865716Y-73061002D01*
X133071694Y-73456683D01*
X133177496Y-73622759D01*
X133302229Y-73818550D01*
X133311375Y-73832907D01*
X133313039Y-73835075D01*
X133313047Y-73835087D01*
X133492680Y-74069188D01*
X133582934Y-74186809D01*
X133584792Y-74188837D01*
X133584799Y-74188845D01*
X133872175Y-74502460D01*
X133884304Y-74515696D01*
X133886324Y-74517547D01*
X134211155Y-74815201D01*
X134211163Y-74815208D01*
X134213191Y-74817066D01*
X134215383Y-74818748D01*
X134564913Y-75086953D01*
X134564925Y-75086961D01*
X134567093Y-75088625D01*
X134569405Y-75090098D01*
X134569408Y-75090100D01*
X134717167Y-75184233D01*
X134763872Y-75237704D01*
X134774255Y-75307937D01*
X134745018Y-75372634D01*
X134685444Y-75411254D01*
X134649467Y-75416500D01*
X118884328Y-75416500D01*
X118816207Y-75396498D01*
X118769714Y-75342842D01*
X118759610Y-75272568D01*
X118789104Y-75207988D01*
X118810267Y-75188564D01*
X118832708Y-75172260D01*
X118961253Y-75078866D01*
X118965668Y-75073963D01*
X118970580Y-75069540D01*
X118971705Y-75070789D01*
X119025014Y-75037949D01*
X119058200Y-75033500D01*
X125921233Y-75033500D01*
X125932416Y-75034027D01*
X125939909Y-75035702D01*
X125947835Y-75035453D01*
X125947836Y-75035453D01*
X126007986Y-75033562D01*
X126011945Y-75033500D01*
X126039856Y-75033500D01*
X126043791Y-75033003D01*
X126043856Y-75032995D01*
X126055693Y-75032062D01*
X126087951Y-75031048D01*
X126091970Y-75030922D01*
X126099889Y-75030673D01*
X126119343Y-75025021D01*
X126138700Y-75021013D01*
X126150930Y-75019468D01*
X126150931Y-75019468D01*
X126158797Y-75018474D01*
X126166168Y-75015555D01*
X126166170Y-75015555D01*
X126199912Y-75002196D01*
X126211142Y-74998351D01*
X126245983Y-74988229D01*
X126245984Y-74988229D01*
X126253593Y-74986018D01*
X126260412Y-74981985D01*
X126260417Y-74981983D01*
X126271028Y-74975707D01*
X126288776Y-74967012D01*
X126307617Y-74959552D01*
X126343387Y-74933564D01*
X126353307Y-74927048D01*
X126384535Y-74908580D01*
X126384538Y-74908578D01*
X126391362Y-74904542D01*
X126405683Y-74890221D01*
X126420717Y-74877380D01*
X126430694Y-74870131D01*
X126437107Y-74865472D01*
X126465298Y-74831395D01*
X126473288Y-74822616D01*
X132636165Y-68659739D01*
X132698477Y-68625713D01*
X132769292Y-68630778D01*
G37*
G04 #@! TD.AperFunction*
G04 #@! TA.AperFunction,Conductor*
G36*
X93151558Y-56609962D02*
G01*
X93379595Y-56837999D01*
X93413621Y-56900311D01*
X93416500Y-56927094D01*
X93416500Y-57312072D01*
X93416837Y-57315318D01*
X93416837Y-57315322D01*
X93425220Y-57396109D01*
X93427293Y-57416093D01*
X93429474Y-57422629D01*
X93429474Y-57422631D01*
X93466688Y-57534174D01*
X93482346Y-57581107D01*
X93573884Y-57729031D01*
X93579066Y-57734204D01*
X93691816Y-57846758D01*
X93691821Y-57846762D01*
X93696997Y-57851929D01*
X93703227Y-57855769D01*
X93703228Y-57855770D01*
X93799643Y-57915201D01*
X93845080Y-57943209D01*
X94010191Y-57997974D01*
X94017027Y-57998674D01*
X94017030Y-57998675D01*
X94065815Y-58003673D01*
X94112928Y-58008500D01*
X94687072Y-58008500D01*
X94690318Y-58008163D01*
X94690322Y-58008163D01*
X94784235Y-57998419D01*
X94784239Y-57998418D01*
X94791093Y-57997707D01*
X94797629Y-57995526D01*
X94797631Y-57995526D01*
X94944552Y-57946509D01*
X94956107Y-57942654D01*
X95104031Y-57851116D01*
X95130001Y-57825101D01*
X95221758Y-57733184D01*
X95221762Y-57733179D01*
X95226929Y-57728003D01*
X95262894Y-57669658D01*
X95271384Y-57655884D01*
X95324156Y-57608391D01*
X95378644Y-57596000D01*
X107756705Y-57596000D01*
X107824826Y-57616002D01*
X107871319Y-57669658D01*
X107881423Y-57739932D01*
X107851929Y-57804512D01*
X107804923Y-57838409D01*
X107738998Y-57865716D01*
X107343317Y-58071694D01*
X106967093Y-58311375D01*
X106964925Y-58313039D01*
X106964913Y-58313047D01*
X106684266Y-58528396D01*
X106613191Y-58582934D01*
X106611163Y-58584792D01*
X106611155Y-58584799D01*
X106370168Y-58805624D01*
X106284304Y-58884304D01*
X106282453Y-58886324D01*
X105984799Y-59211155D01*
X105984792Y-59211163D01*
X105982934Y-59213191D01*
X105981252Y-59215383D01*
X105713047Y-59564913D01*
X105713039Y-59564925D01*
X105711375Y-59567093D01*
X105709902Y-59569405D01*
X105709900Y-59569408D01*
X105653461Y-59658000D01*
X105471694Y-59943317D01*
X105265716Y-60338998D01*
X105095007Y-60751125D01*
X105094181Y-60753745D01*
X105094178Y-60753753D01*
X104966771Y-61157837D01*
X104960867Y-61176563D01*
X104864317Y-61612073D01*
X104863959Y-61614793D01*
X104863958Y-61614798D01*
X104842177Y-61780242D01*
X104806091Y-62054341D01*
X104805971Y-62057090D01*
X104805970Y-62057101D01*
X104791926Y-62378766D01*
X104789127Y-62442874D01*
X104786633Y-62500000D01*
X104786753Y-62502748D01*
X104805862Y-62940408D01*
X104806091Y-62945659D01*
X104835733Y-63170809D01*
X104862162Y-63371556D01*
X104864317Y-63387927D01*
X104960867Y-63823437D01*
X104961695Y-63826062D01*
X104961696Y-63826067D01*
X105093820Y-64245109D01*
X105095007Y-64248875D01*
X105265716Y-64661002D01*
X105471694Y-65056683D01*
X105616006Y-65283207D01*
X105704590Y-65422256D01*
X105711375Y-65432907D01*
X105713039Y-65435075D01*
X105713047Y-65435087D01*
X105924229Y-65710303D01*
X105982934Y-65786809D01*
X105984792Y-65788837D01*
X105984799Y-65788845D01*
X106252609Y-66081107D01*
X106284304Y-66115696D01*
X106286324Y-66117547D01*
X106611155Y-66415201D01*
X106611163Y-66415208D01*
X106613191Y-66417066D01*
X106615383Y-66418748D01*
X106964913Y-66686953D01*
X106964925Y-66686961D01*
X106967093Y-66688625D01*
X106969405Y-66690098D01*
X106969408Y-66690100D01*
X107017957Y-66721029D01*
X107343316Y-66928306D01*
X107738998Y-67134284D01*
X108151125Y-67304993D01*
X108153745Y-67305819D01*
X108153753Y-67305822D01*
X108573933Y-67438304D01*
X108573938Y-67438305D01*
X108576563Y-67439133D01*
X109012073Y-67535683D01*
X109014793Y-67536041D01*
X109014798Y-67536042D01*
X109169433Y-67556400D01*
X109454341Y-67593909D01*
X109457090Y-67594029D01*
X109457101Y-67594030D01*
X109897252Y-67613247D01*
X109900000Y-67613367D01*
X109902748Y-67613247D01*
X110342899Y-67594030D01*
X110342910Y-67594029D01*
X110345659Y-67593909D01*
X110630567Y-67556400D01*
X110785202Y-67536042D01*
X110785207Y-67536041D01*
X110787927Y-67535683D01*
X111223437Y-67439133D01*
X111226062Y-67438305D01*
X111226067Y-67438304D01*
X111646247Y-67305822D01*
X111646255Y-67305819D01*
X111648875Y-67304993D01*
X112061002Y-67134284D01*
X112456684Y-66928306D01*
X112782043Y-66721029D01*
X112830592Y-66690100D01*
X112830595Y-66690098D01*
X112832907Y-66688625D01*
X112835075Y-66686961D01*
X112835087Y-66686953D01*
X113184617Y-66418748D01*
X113186809Y-66417066D01*
X113188837Y-66415208D01*
X113188845Y-66415201D01*
X113513676Y-66117547D01*
X113515696Y-66115696D01*
X113547391Y-66081107D01*
X113815201Y-65788845D01*
X113815208Y-65788837D01*
X113817066Y-65786809D01*
X113875771Y-65710303D01*
X114086953Y-65435087D01*
X114086961Y-65435075D01*
X114088625Y-65432907D01*
X114095411Y-65422256D01*
X114183994Y-65283207D01*
X114328306Y-65056683D01*
X114534284Y-64661002D01*
X114704993Y-64248875D01*
X114706181Y-64245109D01*
X114838304Y-63826067D01*
X114838305Y-63826062D01*
X114839133Y-63823437D01*
X114935683Y-63387927D01*
X114937839Y-63371556D01*
X114964267Y-63170809D01*
X114993909Y-62945659D01*
X114994139Y-62940408D01*
X115013247Y-62502748D01*
X115013367Y-62500000D01*
X115005590Y-62321883D01*
X114994030Y-62057101D01*
X114994029Y-62057090D01*
X114993909Y-62054341D01*
X114957823Y-61780242D01*
X114936042Y-61614798D01*
X114936041Y-61614793D01*
X114935683Y-61612073D01*
X114839133Y-61176563D01*
X114833229Y-61157837D01*
X114705822Y-60753753D01*
X114705819Y-60753745D01*
X114704993Y-60751125D01*
X114534284Y-60338998D01*
X114328306Y-59943317D01*
X114146539Y-59658000D01*
X114090100Y-59569408D01*
X114090098Y-59569405D01*
X114088625Y-59567093D01*
X114086961Y-59564925D01*
X114086953Y-59564913D01*
X113818748Y-59215383D01*
X113817066Y-59213191D01*
X113815208Y-59211163D01*
X113815201Y-59211155D01*
X113517547Y-58886324D01*
X113515696Y-58884304D01*
X113429832Y-58805624D01*
X113188845Y-58584799D01*
X113188837Y-58584792D01*
X113186809Y-58582934D01*
X113115734Y-58528396D01*
X112835087Y-58313047D01*
X112835075Y-58313039D01*
X112832907Y-58311375D01*
X112456684Y-58071694D01*
X112061002Y-57865716D01*
X111995077Y-57838409D01*
X111939796Y-57793861D01*
X111917375Y-57726497D01*
X111934933Y-57657706D01*
X111986895Y-57609328D01*
X112043295Y-57596000D01*
X113061510Y-57596000D01*
X113129631Y-57616002D01*
X113150605Y-57632905D01*
X121129595Y-65611896D01*
X121163621Y-65674208D01*
X121166500Y-65700991D01*
X121166500Y-69801233D01*
X121165973Y-69812416D01*
X121164298Y-69819909D01*
X121164547Y-69827835D01*
X121164547Y-69827836D01*
X121166438Y-69887986D01*
X121166500Y-69891945D01*
X121166500Y-69919856D01*
X121166997Y-69923790D01*
X121166997Y-69923791D01*
X121167005Y-69923856D01*
X121167938Y-69935693D01*
X121169327Y-69979889D01*
X121174978Y-69999339D01*
X121178987Y-70018700D01*
X121181526Y-70038797D01*
X121184445Y-70046168D01*
X121184445Y-70046170D01*
X121197804Y-70079912D01*
X121201649Y-70091142D01*
X121213982Y-70133593D01*
X121218015Y-70140412D01*
X121218017Y-70140417D01*
X121224293Y-70151028D01*
X121232988Y-70168776D01*
X121240448Y-70187617D01*
X121245110Y-70194033D01*
X121245110Y-70194034D01*
X121266436Y-70223387D01*
X121272952Y-70233307D01*
X121284023Y-70252026D01*
X121295458Y-70271362D01*
X121309779Y-70285683D01*
X121322619Y-70300716D01*
X121334528Y-70317107D01*
X121340634Y-70322158D01*
X121368605Y-70345298D01*
X121377384Y-70353288D01*
X122074778Y-71050682D01*
X122108804Y-71112994D01*
X122107100Y-71173448D01*
X122085989Y-71249570D01*
X122085441Y-71254700D01*
X122085440Y-71254704D01*
X122078152Y-71322905D01*
X122062251Y-71471695D01*
X122062548Y-71476848D01*
X122062548Y-71476851D01*
X122072989Y-71657934D01*
X122075110Y-71694715D01*
X122076247Y-71699761D01*
X122076248Y-71699767D01*
X122096119Y-71787939D01*
X122124222Y-71912639D01*
X122172405Y-72031301D01*
X122195185Y-72087400D01*
X122208266Y-72119616D01*
X122299324Y-72268209D01*
X122318600Y-72299665D01*
X122337138Y-72368199D01*
X122315682Y-72435875D01*
X122261042Y-72481208D01*
X122211167Y-72491500D01*
X103714194Y-72491500D01*
X103646073Y-72471498D01*
X103625099Y-72454595D01*
X103353421Y-72182917D01*
X103319395Y-72120605D01*
X103317206Y-72106992D01*
X103300531Y-71948335D01*
X103300531Y-71948333D01*
X103299841Y-71941772D01*
X103240826Y-71760144D01*
X103234888Y-71749858D01*
X103181815Y-71657934D01*
X103145339Y-71594756D01*
X103075128Y-71516778D01*
X103021974Y-71457745D01*
X103021973Y-71457744D01*
X103017552Y-71452834D01*
X102879160Y-71352286D01*
X102868393Y-71344463D01*
X102868392Y-71344462D01*
X102863051Y-71340582D01*
X102857023Y-71337898D01*
X102857021Y-71337897D01*
X102694618Y-71265591D01*
X102694617Y-71265591D01*
X102688587Y-71262906D01*
X102591964Y-71242368D01*
X102508243Y-71224572D01*
X102508238Y-71224572D01*
X102501786Y-71223200D01*
X102310812Y-71223200D01*
X102304360Y-71224572D01*
X102304355Y-71224572D01*
X102220634Y-71242368D01*
X102124011Y-71262906D01*
X102117981Y-71265591D01*
X102117980Y-71265591D01*
X101955577Y-71337897D01*
X101955575Y-71337898D01*
X101949547Y-71340582D01*
X101944206Y-71344462D01*
X101944205Y-71344463D01*
X101808799Y-71442842D01*
X101795046Y-71452834D01*
X101790627Y-71457741D01*
X101785719Y-71462161D01*
X101784839Y-71461184D01*
X101730425Y-71494702D01*
X101659441Y-71493345D01*
X101608149Y-71462244D01*
X99547122Y-69401217D01*
X99513096Y-69338905D01*
X99510907Y-69325292D01*
X99494232Y-69166635D01*
X99494232Y-69166633D01*
X99493542Y-69160072D01*
X99434527Y-68978444D01*
X99339040Y-68813056D01*
X99318216Y-68789928D01*
X99215675Y-68676045D01*
X99215674Y-68676044D01*
X99211253Y-68671134D01*
X99077370Y-68573862D01*
X99062094Y-68562763D01*
X99062093Y-68562762D01*
X99056752Y-68558882D01*
X99050724Y-68556198D01*
X99050722Y-68556197D01*
X98888319Y-68483891D01*
X98888318Y-68483891D01*
X98882288Y-68481206D01*
X98788887Y-68461353D01*
X98701944Y-68442872D01*
X98701939Y-68442872D01*
X98695487Y-68441500D01*
X98504513Y-68441500D01*
X98498061Y-68442872D01*
X98498056Y-68442872D01*
X98411113Y-68461353D01*
X98317712Y-68481206D01*
X98311682Y-68483891D01*
X98311681Y-68483891D01*
X98149278Y-68556197D01*
X98149276Y-68556198D01*
X98143248Y-68558882D01*
X98137907Y-68562762D01*
X98137906Y-68562763D01*
X98122630Y-68573862D01*
X97988747Y-68671134D01*
X97984326Y-68676044D01*
X97984325Y-68676045D01*
X97876132Y-68796206D01*
X97861427Y-68812538D01*
X97861425Y-68812539D01*
X97860960Y-68813056D01*
X97860865Y-68812971D01*
X97806936Y-68854552D01*
X97736199Y-68860623D01*
X97672134Y-68826229D01*
X91989569Y-63143664D01*
X91955543Y-63081352D01*
X91960608Y-63010537D01*
X91989490Y-62965552D01*
X92046757Y-62908184D01*
X92051929Y-62903003D01*
X92094574Y-62833821D01*
X92139369Y-62761150D01*
X92139370Y-62761148D01*
X92143209Y-62754920D01*
X92197974Y-62589809D01*
X92199222Y-62577635D01*
X92206993Y-62501779D01*
X92208500Y-62487072D01*
X92208500Y-61912928D01*
X92205113Y-61880283D01*
X92198419Y-61815765D01*
X92198418Y-61815761D01*
X92197707Y-61808907D01*
X92195343Y-61801819D01*
X92144972Y-61650841D01*
X92142654Y-61643893D01*
X92051116Y-61495969D01*
X91994213Y-61439166D01*
X91960134Y-61376884D01*
X91965137Y-61306064D01*
X91994058Y-61260975D01*
X91998413Y-61256613D01*
X92051929Y-61203003D01*
X92066567Y-61179256D01*
X92139369Y-61061150D01*
X92139370Y-61061148D01*
X92143209Y-61054920D01*
X92197974Y-60889809D01*
X92198854Y-60881226D01*
X92208172Y-60790271D01*
X92208500Y-60787072D01*
X92208500Y-60212928D01*
X92205959Y-60188438D01*
X92198419Y-60115765D01*
X92198418Y-60115761D01*
X92197707Y-60108907D01*
X92192156Y-60092267D01*
X92144972Y-59950841D01*
X92142654Y-59943893D01*
X92051116Y-59795969D01*
X91994213Y-59739166D01*
X91960134Y-59676884D01*
X91965137Y-59606064D01*
X91994058Y-59560975D01*
X91996148Y-59558882D01*
X92051929Y-59503003D01*
X92082472Y-59453454D01*
X92139369Y-59361150D01*
X92139370Y-59361148D01*
X92143209Y-59354920D01*
X92197974Y-59189809D01*
X92202412Y-59146498D01*
X92203951Y-59131474D01*
X92208500Y-59087072D01*
X92208500Y-58512928D01*
X92206336Y-58492068D01*
X92198419Y-58415765D01*
X92198418Y-58415761D01*
X92197707Y-58408907D01*
X92194736Y-58400000D01*
X92144972Y-58250841D01*
X92142654Y-58243893D01*
X92051116Y-58095969D01*
X92025522Y-58070420D01*
X91958659Y-58003673D01*
X91924580Y-57941391D01*
X91929583Y-57870570D01*
X91972080Y-57813698D01*
X92038579Y-57788829D01*
X92047677Y-57788500D01*
X92478134Y-57788500D01*
X92540316Y-57781745D01*
X92676705Y-57730615D01*
X92793261Y-57643261D01*
X92880615Y-57526705D01*
X92931745Y-57390316D01*
X92938500Y-57328134D01*
X92938500Y-56831866D01*
X92931745Y-56769684D01*
X92933884Y-56769452D01*
X92933834Y-56740488D01*
X92931252Y-56740208D01*
X92937200Y-56685450D01*
X92964441Y-56619888D01*
X93022804Y-56579461D01*
X93093758Y-56577005D01*
X93151558Y-56609962D01*
G37*
G04 #@! TD.AperFunction*
G04 #@! TA.AperFunction,Conductor*
G36*
X150108621Y-65016002D02*
G01*
X150155114Y-65069658D01*
X150166500Y-65122000D01*
X150166500Y-66176095D01*
X150146498Y-66244216D01*
X150135725Y-66258607D01*
X150118171Y-66278865D01*
X150116500Y-66286548D01*
X150116500Y-67128000D01*
X150096498Y-67196121D01*
X150042842Y-67242614D01*
X149990500Y-67254000D01*
X149734500Y-67254000D01*
X149666379Y-67233998D01*
X149619886Y-67180342D01*
X149608500Y-67128000D01*
X149608500Y-66073905D01*
X149628502Y-66005784D01*
X149639275Y-65991393D01*
X149656829Y-65971135D01*
X149658500Y-65963452D01*
X149658500Y-65122000D01*
X149678502Y-65053879D01*
X149732158Y-65007386D01*
X149784500Y-64996000D01*
X150040500Y-64996000D01*
X150108621Y-65016002D01*
G37*
G04 #@! TD.AperFunction*
G04 #@! TA.AperFunction,Conductor*
G36*
X151068346Y-65581746D02*
G01*
X151119207Y-65628174D01*
X151151016Y-65679577D01*
X151173884Y-65716531D01*
X151179066Y-65721704D01*
X151280786Y-65823247D01*
X151314865Y-65885530D01*
X151309862Y-65956350D01*
X151280941Y-66001437D01*
X151178246Y-66104312D01*
X151178242Y-66104317D01*
X151173071Y-66109497D01*
X151169231Y-66115727D01*
X151169230Y-66115728D01*
X151086364Y-66250162D01*
X151081791Y-66257580D01*
X151042777Y-66375204D01*
X151002348Y-66433562D01*
X150936784Y-66460799D01*
X150866902Y-66448266D01*
X150816040Y-66401838D01*
X150754571Y-66302504D01*
X150745540Y-66291110D01*
X150668506Y-66214210D01*
X150634427Y-66151927D01*
X150639430Y-66081107D01*
X150668351Y-66036019D01*
X150746363Y-65957871D01*
X150755375Y-65946460D01*
X150838912Y-65810937D01*
X150845056Y-65797760D01*
X150892470Y-65654810D01*
X150932900Y-65596450D01*
X150998464Y-65569213D01*
X151068346Y-65581746D01*
G37*
G04 #@! TD.AperFunction*
G04 #@! TA.AperFunction,Conductor*
G36*
X72935748Y-62144011D02*
G01*
X73040412Y-62190610D01*
X73040418Y-62190612D01*
X73046442Y-62193294D01*
X73052894Y-62194665D01*
X73059181Y-62196708D01*
X73058500Y-62198804D01*
X73111971Y-62227673D01*
X73146291Y-62289824D01*
X73148609Y-62304020D01*
X73149703Y-62314428D01*
X73151743Y-62320705D01*
X73151743Y-62320707D01*
X73174540Y-62390868D01*
X73208718Y-62496056D01*
X73212021Y-62501778D01*
X73212022Y-62501779D01*
X73225524Y-62525165D01*
X73304205Y-62661444D01*
X73308623Y-62666351D01*
X73308624Y-62666352D01*
X73395697Y-62763056D01*
X73431992Y-62803366D01*
X73586493Y-62915618D01*
X73592521Y-62918302D01*
X73592523Y-62918303D01*
X73748482Y-62987740D01*
X73760957Y-62993294D01*
X73841262Y-63010363D01*
X73903734Y-63044091D01*
X73938056Y-63106241D01*
X73934897Y-63172546D01*
X73931004Y-63184528D01*
X73906458Y-63260072D01*
X73905768Y-63266633D01*
X73905768Y-63266635D01*
X73887447Y-63440954D01*
X73886496Y-63450000D01*
X73887186Y-63456565D01*
X73905732Y-63633016D01*
X73906458Y-63639928D01*
X73965473Y-63821556D01*
X73968776Y-63827278D01*
X73968777Y-63827279D01*
X73982874Y-63851695D01*
X74060960Y-63986944D01*
X74065378Y-63991851D01*
X74065379Y-63991852D01*
X74072716Y-64000000D01*
X74134994Y-64069167D01*
X74165710Y-64133172D01*
X74166463Y-64139849D01*
X74166498Y-64139845D01*
X74167005Y-64143856D01*
X74167938Y-64155693D01*
X74169327Y-64199889D01*
X74174978Y-64219339D01*
X74178987Y-64238700D01*
X74181526Y-64258797D01*
X74184445Y-64266168D01*
X74184445Y-64266170D01*
X74197804Y-64299912D01*
X74201649Y-64311142D01*
X74206835Y-64328992D01*
X74213982Y-64353593D01*
X74218015Y-64360412D01*
X74218017Y-64360417D01*
X74224293Y-64371028D01*
X74232988Y-64388776D01*
X74240448Y-64407617D01*
X74245110Y-64414033D01*
X74245110Y-64414034D01*
X74266436Y-64443387D01*
X74272952Y-64453307D01*
X74290729Y-64483365D01*
X74295458Y-64491362D01*
X74309779Y-64505683D01*
X74322619Y-64520716D01*
X74334528Y-64537107D01*
X74354015Y-64553228D01*
X74368593Y-64565288D01*
X74377374Y-64573278D01*
X74796353Y-64992258D01*
X74803887Y-65000537D01*
X74808000Y-65007018D01*
X74843911Y-65040740D01*
X74857651Y-65053643D01*
X74860493Y-65056398D01*
X74880230Y-65076135D01*
X74883427Y-65078615D01*
X74892447Y-65086318D01*
X74924679Y-65116586D01*
X74931625Y-65120405D01*
X74931628Y-65120407D01*
X74942434Y-65126348D01*
X74958953Y-65137199D01*
X74974959Y-65149614D01*
X74980283Y-65151918D01*
X75028091Y-65203119D01*
X75041500Y-65259681D01*
X75041500Y-65723134D01*
X75048255Y-65785316D01*
X75099385Y-65921705D01*
X75104770Y-65928890D01*
X75104771Y-65928892D01*
X75131784Y-65964935D01*
X75156632Y-66031442D01*
X75141579Y-66100824D01*
X75091405Y-66151054D01*
X75030958Y-66166500D01*
X74614595Y-66166500D01*
X74546474Y-66146498D01*
X74525500Y-66129595D01*
X72795405Y-64399500D01*
X72761379Y-64337188D01*
X72758500Y-64310405D01*
X72758500Y-62259118D01*
X72778502Y-62190997D01*
X72832158Y-62144504D01*
X72902432Y-62134400D01*
X72935748Y-62144011D01*
G37*
G04 #@! TD.AperFunction*
G04 #@! TA.AperFunction,Conductor*
G36*
X80989145Y-59418504D02*
G01*
X81000825Y-59431984D01*
X81061739Y-59513261D01*
X81068919Y-59518642D01*
X81068920Y-59518643D01*
X81103565Y-59544608D01*
X81146080Y-59601467D01*
X81151413Y-59631074D01*
X81158475Y-59655123D01*
X81159865Y-59656328D01*
X81167548Y-59657999D01*
X81219669Y-59657999D01*
X81226490Y-59657629D01*
X81285207Y-59651252D01*
X81285505Y-59653998D01*
X81314446Y-59653940D01*
X81314684Y-59651745D01*
X81368867Y-59657631D01*
X81376866Y-59658500D01*
X82023134Y-59658500D01*
X82031134Y-59657631D01*
X82085316Y-59651745D01*
X82085580Y-59654174D01*
X82114420Y-59654174D01*
X82114684Y-59651745D01*
X82168867Y-59657631D01*
X82176866Y-59658500D01*
X82823134Y-59658500D01*
X82831134Y-59657631D01*
X82885316Y-59651745D01*
X82885580Y-59654174D01*
X82914420Y-59654174D01*
X82914684Y-59651745D01*
X82968867Y-59657631D01*
X82976866Y-59658500D01*
X83315500Y-59658500D01*
X83383621Y-59678502D01*
X83430114Y-59732158D01*
X83441500Y-59784500D01*
X83441500Y-60123134D01*
X83441869Y-60126531D01*
X83448255Y-60185316D01*
X83445826Y-60185580D01*
X83445826Y-60214420D01*
X83448255Y-60214684D01*
X83447727Y-60219549D01*
X83441500Y-60276866D01*
X83441500Y-60923134D01*
X83441869Y-60926531D01*
X83448255Y-60985316D01*
X83445826Y-60985580D01*
X83445826Y-61014420D01*
X83448255Y-61014684D01*
X83442545Y-61067251D01*
X83441500Y-61076866D01*
X83441500Y-61723134D01*
X83441869Y-61726531D01*
X83448255Y-61785316D01*
X83445826Y-61785580D01*
X83445826Y-61814420D01*
X83448255Y-61814684D01*
X83441500Y-61876866D01*
X83441500Y-62523134D01*
X83441869Y-62526531D01*
X83448255Y-62585316D01*
X83445826Y-62585580D01*
X83445826Y-62614420D01*
X83448255Y-62614684D01*
X83441500Y-62676866D01*
X83441500Y-63323134D01*
X83441869Y-63326531D01*
X83448255Y-63385316D01*
X83445826Y-63385580D01*
X83445826Y-63414420D01*
X83448255Y-63414684D01*
X83441500Y-63476866D01*
X83441500Y-64123134D01*
X83441869Y-64126531D01*
X83448255Y-64185316D01*
X83445826Y-64185580D01*
X83445826Y-64214420D01*
X83448255Y-64214684D01*
X83441500Y-64276866D01*
X83441500Y-64923134D01*
X83441869Y-64926531D01*
X83448255Y-64985316D01*
X83445826Y-64985580D01*
X83445826Y-65014420D01*
X83448255Y-65014684D01*
X83441500Y-65076866D01*
X83441500Y-65415500D01*
X83421498Y-65483621D01*
X83367842Y-65530114D01*
X83315500Y-65541500D01*
X82976866Y-65541500D01*
X82973469Y-65541869D01*
X82944905Y-65544972D01*
X82914684Y-65548255D01*
X82914420Y-65545826D01*
X82885580Y-65545826D01*
X82885316Y-65548255D01*
X82826531Y-65541869D01*
X82823134Y-65541500D01*
X82176866Y-65541500D01*
X82173469Y-65541869D01*
X82144905Y-65544972D01*
X82114684Y-65548255D01*
X82114452Y-65546116D01*
X82085488Y-65546166D01*
X82085207Y-65548748D01*
X82026486Y-65542369D01*
X82019672Y-65542000D01*
X81972115Y-65542000D01*
X81956876Y-65546475D01*
X81955671Y-65547865D01*
X81951121Y-65568783D01*
X81949903Y-65568518D01*
X81933998Y-65622687D01*
X81903565Y-65655392D01*
X81861739Y-65686739D01*
X81833704Y-65724146D01*
X81800826Y-65768015D01*
X81743967Y-65810530D01*
X81673148Y-65815556D01*
X81610855Y-65781496D01*
X81599174Y-65768015D01*
X81566296Y-65724146D01*
X81538261Y-65686739D01*
X81496435Y-65655392D01*
X81453920Y-65598533D01*
X81448587Y-65568926D01*
X81441525Y-65544877D01*
X81440135Y-65543672D01*
X81432452Y-65542001D01*
X81380331Y-65542001D01*
X81373510Y-65542371D01*
X81314793Y-65548748D01*
X81314495Y-65546002D01*
X81285554Y-65546060D01*
X81285316Y-65548255D01*
X81226531Y-65541869D01*
X81223134Y-65541500D01*
X80576866Y-65541500D01*
X80573469Y-65541869D01*
X80544905Y-65544972D01*
X80514684Y-65548255D01*
X80514452Y-65546116D01*
X80485488Y-65546166D01*
X80485207Y-65548748D01*
X80426486Y-65542369D01*
X80419672Y-65542000D01*
X80372115Y-65542000D01*
X80356876Y-65546475D01*
X80355671Y-65547865D01*
X80351121Y-65568783D01*
X80349903Y-65568518D01*
X80333998Y-65622687D01*
X80303565Y-65655392D01*
X80261739Y-65686739D01*
X80233704Y-65724146D01*
X80200826Y-65768015D01*
X80143967Y-65810530D01*
X80073148Y-65815556D01*
X80010855Y-65781496D01*
X79999174Y-65768015D01*
X79958674Y-65713976D01*
X79933826Y-65647470D01*
X79933500Y-65638411D01*
X79933500Y-61678767D01*
X79934027Y-61667584D01*
X79935702Y-61660091D01*
X79934279Y-61614798D01*
X79933562Y-61592001D01*
X79933500Y-61588043D01*
X79933500Y-61560144D01*
X79932996Y-61556153D01*
X79932063Y-61544311D01*
X79932003Y-61542383D01*
X79930674Y-61500111D01*
X79928462Y-61492497D01*
X79928461Y-61492492D01*
X79925023Y-61480659D01*
X79921012Y-61461295D01*
X79919467Y-61449064D01*
X79918474Y-61441203D01*
X79915557Y-61433836D01*
X79915556Y-61433831D01*
X79902198Y-61400092D01*
X79898354Y-61388865D01*
X79888230Y-61354022D01*
X79886018Y-61346407D01*
X79875707Y-61328972D01*
X79867012Y-61311224D01*
X79859552Y-61292383D01*
X79842620Y-61269077D01*
X79833564Y-61256613D01*
X79827048Y-61246693D01*
X79808580Y-61215465D01*
X79808578Y-61215462D01*
X79804542Y-61208638D01*
X79790221Y-61194317D01*
X79777380Y-61179283D01*
X79770131Y-61169306D01*
X79765472Y-61162893D01*
X79759367Y-61157842D01*
X79759362Y-61157837D01*
X79731396Y-61134701D01*
X79722618Y-61126713D01*
X79170405Y-60574500D01*
X79136379Y-60512188D01*
X79133500Y-60485405D01*
X79133500Y-59784500D01*
X79153502Y-59716379D01*
X79207158Y-59669886D01*
X79259500Y-59658500D01*
X79623134Y-59658500D01*
X79631134Y-59657631D01*
X79685316Y-59651745D01*
X79685580Y-59654174D01*
X79714420Y-59654174D01*
X79714684Y-59651745D01*
X79768867Y-59657631D01*
X79776866Y-59658500D01*
X80423134Y-59658500D01*
X80431134Y-59657631D01*
X80485316Y-59651745D01*
X80485548Y-59653884D01*
X80514512Y-59653834D01*
X80514793Y-59651252D01*
X80573514Y-59657631D01*
X80580328Y-59658000D01*
X80627885Y-59658000D01*
X80643124Y-59653525D01*
X80644329Y-59652135D01*
X80648879Y-59631217D01*
X80650097Y-59631482D01*
X80666002Y-59577313D01*
X80696435Y-59544608D01*
X80731080Y-59518643D01*
X80731081Y-59518642D01*
X80738261Y-59513261D01*
X80799174Y-59431985D01*
X80856033Y-59389470D01*
X80926852Y-59384444D01*
X80989145Y-59418504D01*
G37*
G04 #@! TD.AperFunction*
G04 #@! TA.AperFunction,Conductor*
G36*
X78618388Y-63340962D02*
G01*
X78659570Y-63398795D01*
X78666500Y-63440005D01*
X78666500Y-65415500D01*
X78646498Y-65483621D01*
X78592842Y-65530114D01*
X78540500Y-65541500D01*
X78176866Y-65541500D01*
X78173469Y-65541869D01*
X78144905Y-65544972D01*
X78114684Y-65548255D01*
X78114420Y-65545826D01*
X78085580Y-65545826D01*
X78085316Y-65548255D01*
X78026531Y-65541869D01*
X78023134Y-65541500D01*
X77684500Y-65541500D01*
X77616379Y-65521498D01*
X77569886Y-65467842D01*
X77558500Y-65415500D01*
X77558500Y-65076866D01*
X77551745Y-65014684D01*
X77554174Y-65014420D01*
X77554174Y-64985580D01*
X77551745Y-64985316D01*
X77558131Y-64926531D01*
X77558500Y-64923134D01*
X77558500Y-64276866D01*
X77551745Y-64214684D01*
X77554174Y-64214420D01*
X77554174Y-64185580D01*
X77551745Y-64185316D01*
X77558131Y-64126531D01*
X77558500Y-64123134D01*
X77558500Y-64034500D01*
X77578502Y-63966379D01*
X77632158Y-63919886D01*
X77684500Y-63908500D01*
X77695487Y-63908500D01*
X77701939Y-63907128D01*
X77701944Y-63907128D01*
X77821824Y-63881646D01*
X77882288Y-63868794D01*
X77888319Y-63866109D01*
X78050722Y-63793803D01*
X78050724Y-63793802D01*
X78056752Y-63791118D01*
X78066317Y-63784169D01*
X78143904Y-63727798D01*
X78211253Y-63678866D01*
X78222083Y-63666838D01*
X78334621Y-63541852D01*
X78334622Y-63541851D01*
X78339040Y-63536944D01*
X78431381Y-63377005D01*
X78482764Y-63328012D01*
X78552477Y-63314576D01*
X78618388Y-63340962D01*
G37*
G04 #@! TD.AperFunction*
G04 #@! TA.AperFunction,Conductor*
G36*
X77808621Y-59678502D02*
G01*
X77855114Y-59732158D01*
X77866500Y-59784500D01*
X77866500Y-60721233D01*
X77865973Y-60732416D01*
X77864298Y-60739909D01*
X77864547Y-60747835D01*
X77864547Y-60747836D01*
X77866438Y-60807986D01*
X77866500Y-60811945D01*
X77866500Y-60839856D01*
X77866997Y-60843790D01*
X77866997Y-60843791D01*
X77867005Y-60843856D01*
X77867938Y-60855693D01*
X77869327Y-60899889D01*
X77872519Y-60910875D01*
X77874978Y-60919339D01*
X77878987Y-60938700D01*
X77881526Y-60958797D01*
X77884445Y-60966168D01*
X77884445Y-60966170D01*
X77897804Y-60999912D01*
X77901649Y-61011142D01*
X77913982Y-61053593D01*
X77918015Y-61060412D01*
X77918017Y-61060417D01*
X77924293Y-61071028D01*
X77932988Y-61088776D01*
X77940448Y-61107617D01*
X77945110Y-61114033D01*
X77945110Y-61114034D01*
X77966436Y-61143387D01*
X77972952Y-61153307D01*
X77986706Y-61176563D01*
X77995458Y-61191362D01*
X78009779Y-61205683D01*
X78022619Y-61220716D01*
X78034528Y-61237107D01*
X78040633Y-61242158D01*
X78040638Y-61242163D01*
X78068604Y-61265299D01*
X78077382Y-61273287D01*
X78629595Y-61825500D01*
X78663621Y-61887812D01*
X78666500Y-61914595D01*
X78666500Y-62559995D01*
X78646498Y-62628116D01*
X78592842Y-62674609D01*
X78522568Y-62684713D01*
X78457988Y-62655219D01*
X78431381Y-62622995D01*
X78339040Y-62463056D01*
X78313010Y-62434146D01*
X78215675Y-62326045D01*
X78215674Y-62326044D01*
X78211253Y-62321134D01*
X78088312Y-62231812D01*
X78062094Y-62212763D01*
X78062093Y-62212762D01*
X78056752Y-62208882D01*
X78050724Y-62206198D01*
X78050722Y-62206197D01*
X77888319Y-62133891D01*
X77888318Y-62133891D01*
X77882288Y-62131206D01*
X77788888Y-62111353D01*
X77701944Y-62092872D01*
X77701939Y-62092872D01*
X77695487Y-62091500D01*
X77684500Y-62091500D01*
X77616379Y-62071498D01*
X77569886Y-62017842D01*
X77558500Y-61965500D01*
X77558500Y-61876866D01*
X77551745Y-61814684D01*
X77554174Y-61814420D01*
X77554174Y-61785580D01*
X77551745Y-61785316D01*
X77558131Y-61726531D01*
X77558500Y-61723134D01*
X77558500Y-61076866D01*
X77557456Y-61067251D01*
X77551745Y-61014684D01*
X77554174Y-61014420D01*
X77554174Y-60985580D01*
X77551745Y-60985316D01*
X77558131Y-60926531D01*
X77558500Y-60923134D01*
X77558500Y-60276866D01*
X77552274Y-60219549D01*
X77551745Y-60214684D01*
X77554174Y-60214420D01*
X77554174Y-60185580D01*
X77551745Y-60185316D01*
X77558131Y-60126531D01*
X77558500Y-60123134D01*
X77558500Y-59784500D01*
X77578502Y-59716379D01*
X77632158Y-59669886D01*
X77684500Y-59658500D01*
X77740500Y-59658500D01*
X77808621Y-59678502D01*
G37*
G04 #@! TD.AperFunction*
G04 #@! TA.AperFunction,Conductor*
G36*
X87580033Y-55120037D02*
G01*
X87636869Y-55162584D01*
X87661680Y-55229104D01*
X87662001Y-55238093D01*
X87662001Y-55364669D01*
X87662371Y-55371490D01*
X87668748Y-55430207D01*
X87666353Y-55430467D01*
X87666351Y-55459533D01*
X87668748Y-55459793D01*
X87662369Y-55518514D01*
X87662000Y-55525328D01*
X87662000Y-55551885D01*
X87666475Y-55567124D01*
X87667865Y-55568329D01*
X87675548Y-55570000D01*
X87710712Y-55570000D01*
X87778833Y-55590002D01*
X87825326Y-55643658D01*
X87835430Y-55713932D01*
X87805936Y-55778512D01*
X87757095Y-55813152D01*
X87720088Y-55827804D01*
X87708858Y-55831649D01*
X87674017Y-55841771D01*
X87674016Y-55841771D01*
X87666407Y-55843982D01*
X87659588Y-55848015D01*
X87659583Y-55848017D01*
X87648972Y-55854293D01*
X87631224Y-55862988D01*
X87612383Y-55870448D01*
X87605967Y-55875110D01*
X87605966Y-55875110D01*
X87576613Y-55896436D01*
X87566693Y-55902952D01*
X87535465Y-55921420D01*
X87535462Y-55921422D01*
X87528638Y-55925458D01*
X87514314Y-55939782D01*
X87499287Y-55952617D01*
X87482893Y-55964528D01*
X87466937Y-55983815D01*
X87454708Y-55998597D01*
X87446720Y-56007375D01*
X87307744Y-56146352D01*
X87299462Y-56153888D01*
X87292982Y-56158000D01*
X87287555Y-56163779D01*
X87287554Y-56163780D01*
X87246356Y-56207652D01*
X87243601Y-56210494D01*
X87223865Y-56230230D01*
X87221385Y-56233427D01*
X87213682Y-56242447D01*
X87183414Y-56274679D01*
X87179595Y-56281625D01*
X87179593Y-56281628D01*
X87173652Y-56292434D01*
X87162801Y-56308953D01*
X87150386Y-56324959D01*
X87147241Y-56332228D01*
X87147238Y-56332232D01*
X87132826Y-56365537D01*
X87127609Y-56376187D01*
X87106305Y-56414940D01*
X87104334Y-56422615D01*
X87104334Y-56422616D01*
X87101267Y-56434562D01*
X87094863Y-56453266D01*
X87086819Y-56471855D01*
X87085580Y-56479678D01*
X87085577Y-56479688D01*
X87079901Y-56515524D01*
X87077495Y-56527144D01*
X87073503Y-56542693D01*
X87066500Y-56569970D01*
X87066500Y-56590224D01*
X87064949Y-56609934D01*
X87061780Y-56629943D01*
X87062526Y-56637835D01*
X87065941Y-56673961D01*
X87066500Y-56685819D01*
X87066500Y-58745167D01*
X87046498Y-58813288D01*
X86992842Y-58859781D01*
X86924801Y-58869564D01*
X86924762Y-58869931D01*
X86923310Y-58869778D01*
X86922568Y-58869885D01*
X86920038Y-58869435D01*
X86918194Y-58869241D01*
X86911734Y-58867868D01*
X86720760Y-58867868D01*
X86714308Y-58869240D01*
X86714303Y-58869240D01*
X86643435Y-58884304D01*
X86533959Y-58907574D01*
X86527929Y-58910259D01*
X86527928Y-58910259D01*
X86365525Y-58982565D01*
X86365523Y-58982566D01*
X86359495Y-58985250D01*
X86354154Y-58989130D01*
X86354153Y-58989131D01*
X86316483Y-59016500D01*
X86204994Y-59097502D01*
X86180404Y-59124812D01*
X86119961Y-59162050D01*
X86086770Y-59166500D01*
X85861589Y-59166500D01*
X85793468Y-59146498D01*
X85786024Y-59141326D01*
X85727550Y-59097502D01*
X85696705Y-59074385D01*
X85560316Y-59023255D01*
X85498134Y-59016500D01*
X84209500Y-59016500D01*
X84141379Y-58996498D01*
X84094886Y-58942842D01*
X84083500Y-58890500D01*
X84083500Y-58564594D01*
X84103502Y-58496473D01*
X84120405Y-58475499D01*
X87446906Y-55148998D01*
X87509218Y-55114972D01*
X87580033Y-55120037D01*
G37*
G04 #@! TD.AperFunction*
G04 #@! TA.AperFunction,Conductor*
G36*
X112041027Y-55891002D02*
G01*
X112062001Y-55907905D01*
X112268001Y-56113905D01*
X112302027Y-56176217D01*
X112296962Y-56247032D01*
X112254415Y-56303868D01*
X112187895Y-56328679D01*
X112178906Y-56329000D01*
X95378640Y-56329000D01*
X95310519Y-56308998D01*
X95271497Y-56269304D01*
X95233346Y-56207652D01*
X95229967Y-56202192D01*
X95229967Y-56202191D01*
X95226116Y-56195969D01*
X95219212Y-56189077D01*
X95218411Y-56187613D01*
X95216389Y-56185062D01*
X95216826Y-56184716D01*
X95185134Y-56126796D01*
X95190137Y-56055976D01*
X95219056Y-56010890D01*
X95221757Y-56008184D01*
X95226929Y-56003003D01*
X95234803Y-55990230D01*
X95271384Y-55930884D01*
X95324156Y-55883391D01*
X95378644Y-55871000D01*
X111972906Y-55871000D01*
X112041027Y-55891002D01*
G37*
G04 #@! TD.AperFunction*
G04 #@! TA.AperFunction,Conductor*
G36*
X89405261Y-53294809D02*
G01*
X89460848Y-53337044D01*
X89460960Y-53336943D01*
X89460960Y-53336944D01*
X89534137Y-53418215D01*
X89564853Y-53482221D01*
X89566500Y-53502524D01*
X89566500Y-54286000D01*
X89546498Y-54354121D01*
X89492842Y-54400614D01*
X89440500Y-54412000D01*
X89168115Y-54412000D01*
X89152876Y-54416475D01*
X89151671Y-54417865D01*
X89150000Y-54425548D01*
X89150000Y-55595500D01*
X89129998Y-55663621D01*
X89076342Y-55710114D01*
X89024000Y-55721500D01*
X88870453Y-55721500D01*
X88802332Y-55701498D01*
X88755839Y-55647842D01*
X88745735Y-55577568D01*
X88747332Y-55568718D01*
X88750000Y-55556453D01*
X88750000Y-54430116D01*
X88745525Y-54414877D01*
X88744135Y-54413672D01*
X88736452Y-54412001D01*
X88488093Y-54412001D01*
X88419972Y-54391999D01*
X88373479Y-54338343D01*
X88363375Y-54268069D01*
X88392869Y-54203489D01*
X88398998Y-54196906D01*
X89272134Y-53323770D01*
X89334446Y-53289744D01*
X89405261Y-53294809D01*
G37*
G04 #@! TD.AperFunction*
M02*
