G04 #@! TF.GenerationSoftware,KiCad,Pcbnew,(6.0.10)*
G04 #@! TF.CreationDate,2023-01-12T15:38:19+01:00*
G04 #@! TF.ProjectId,HeaterMCU,48656174-6572-44d4-9355-2e6b69636164,rev?*
G04 #@! TF.SameCoordinates,Original*
G04 #@! TF.FileFunction,Copper,L2,Bot*
G04 #@! TF.FilePolarity,Positive*
%FSLAX46Y46*%
G04 Gerber Fmt 4.6, Leading zero omitted, Abs format (unit mm)*
G04 Created by KiCad (PCBNEW (6.0.10)) date 2023-01-12 15:38:19*
%MOMM*%
%LPD*%
G01*
G04 APERTURE LIST*
G04 Aperture macros list*
%AMRoundRect*
0 Rectangle with rounded corners*
0 $1 Rounding radius*
0 $2 $3 $4 $5 $6 $7 $8 $9 X,Y pos of 4 corners*
0 Add a 4 corners polygon primitive as box body*
4,1,4,$2,$3,$4,$5,$6,$7,$8,$9,$2,$3,0*
0 Add four circle primitives for the rounded corners*
1,1,$1+$1,$2,$3*
1,1,$1+$1,$4,$5*
1,1,$1+$1,$6,$7*
1,1,$1+$1,$8,$9*
0 Add four rect primitives between the rounded corners*
20,1,$1+$1,$2,$3,$4,$5,0*
20,1,$1+$1,$4,$5,$6,$7,0*
20,1,$1+$1,$6,$7,$8,$9,0*
20,1,$1+$1,$8,$9,$2,$3,0*%
G04 Aperture macros list end*
G04 #@! TA.AperFunction,ComponentPad*
%ADD10R,1.700000X1.700000*%
G04 #@! TD*
G04 #@! TA.AperFunction,ComponentPad*
%ADD11C,1.700000*%
G04 #@! TD*
G04 #@! TA.AperFunction,SMDPad,CuDef*
%ADD12RoundRect,0.237500X0.237500X-0.300000X0.237500X0.300000X-0.237500X0.300000X-0.237500X-0.300000X0*%
G04 #@! TD*
G04 #@! TA.AperFunction,SMDPad,CuDef*
%ADD13R,0.550000X1.500000*%
G04 #@! TD*
G04 #@! TA.AperFunction,SMDPad,CuDef*
%ADD14R,1.500000X0.550000*%
G04 #@! TD*
G04 #@! TA.AperFunction,SMDPad,CuDef*
%ADD15RoundRect,0.237500X-0.300000X-0.237500X0.300000X-0.237500X0.300000X0.237500X-0.300000X0.237500X0*%
G04 #@! TD*
G04 #@! TA.AperFunction,SMDPad,CuDef*
%ADD16RoundRect,0.237500X-0.237500X0.300000X-0.237500X-0.300000X0.237500X-0.300000X0.237500X0.300000X0*%
G04 #@! TD*
G04 #@! TA.AperFunction,SMDPad,CuDef*
%ADD17R,1.560000X0.400000*%
G04 #@! TD*
G04 #@! TA.AperFunction,SMDPad,CuDef*
%ADD18RoundRect,0.237500X0.250000X0.237500X-0.250000X0.237500X-0.250000X-0.237500X0.250000X-0.237500X0*%
G04 #@! TD*
G04 #@! TA.AperFunction,SMDPad,CuDef*
%ADD19RoundRect,0.150000X0.587500X0.150000X-0.587500X0.150000X-0.587500X-0.150000X0.587500X-0.150000X0*%
G04 #@! TD*
G04 #@! TA.AperFunction,SMDPad,CuDef*
%ADD20RoundRect,0.237500X0.300000X0.237500X-0.300000X0.237500X-0.300000X-0.237500X0.300000X-0.237500X0*%
G04 #@! TD*
G04 #@! TA.AperFunction,ComponentPad*
%ADD21O,1.700000X1.700000*%
G04 #@! TD*
G04 #@! TA.AperFunction,SMDPad,CuDef*
%ADD22R,4.500000X2.000000*%
G04 #@! TD*
G04 #@! TA.AperFunction,SMDPad,CuDef*
%ADD23RoundRect,0.237500X0.237500X-0.250000X0.237500X0.250000X-0.237500X0.250000X-0.237500X-0.250000X0*%
G04 #@! TD*
G04 #@! TA.AperFunction,SMDPad,CuDef*
%ADD24R,1.600000X1.200000*%
G04 #@! TD*
G04 #@! TA.AperFunction,SMDPad,CuDef*
%ADD25RoundRect,0.237500X-0.250000X-0.237500X0.250000X-0.237500X0.250000X0.237500X-0.250000X0.237500X0*%
G04 #@! TD*
G04 #@! TA.AperFunction,ViaPad*
%ADD26C,0.800000*%
G04 #@! TD*
G04 #@! TA.AperFunction,Conductor*
%ADD27C,0.250000*%
G04 #@! TD*
G04 #@! TA.AperFunction,Conductor*
%ADD28C,0.500000*%
G04 #@! TD*
G04 APERTURE END LIST*
D10*
X57762500Y-70057500D03*
D11*
X57762500Y-67517500D03*
X57762500Y-64977500D03*
X57762500Y-62437500D03*
X57762500Y-59897500D03*
X57762500Y-57357500D03*
X57762500Y-54817500D03*
D12*
X72200000Y-73962500D03*
X72200000Y-72237500D03*
D13*
X83300000Y-66800000D03*
X82500000Y-66800000D03*
X81700000Y-66800000D03*
X80900000Y-66800000D03*
X80100000Y-66800000D03*
X79300000Y-66800000D03*
X78500000Y-66800000D03*
X77700000Y-66800000D03*
D14*
X76300000Y-65400000D03*
X76300000Y-64600000D03*
X76300000Y-63800000D03*
X76300000Y-63000000D03*
X76300000Y-62200000D03*
X76300000Y-61400000D03*
X76300000Y-60600000D03*
X76300000Y-59800000D03*
D13*
X77700000Y-58400000D03*
X78500000Y-58400000D03*
X79300000Y-58400000D03*
X80100000Y-58400000D03*
X80900000Y-58400000D03*
X81700000Y-58400000D03*
X82500000Y-58400000D03*
X83300000Y-58400000D03*
D14*
X84700000Y-59800000D03*
X84700000Y-60600000D03*
X84700000Y-61400000D03*
X84700000Y-62200000D03*
X84700000Y-63000000D03*
X84700000Y-63800000D03*
X84700000Y-64600000D03*
X84700000Y-65400000D03*
D15*
X89437500Y-58800000D03*
X91162500Y-58800000D03*
D16*
X143450000Y-76300000D03*
X143450000Y-78025000D03*
D12*
X89200000Y-73962500D03*
X89200000Y-72237500D03*
D17*
X91650000Y-55120000D03*
X91650000Y-55770000D03*
X91650000Y-56430000D03*
X91650000Y-57080000D03*
X88950000Y-57080000D03*
X88950000Y-56430000D03*
X88950000Y-55770000D03*
X88950000Y-55120000D03*
D18*
X148987500Y-69975000D03*
X147162500Y-69975000D03*
D19*
X145287500Y-72425000D03*
X145287500Y-74325000D03*
X143412500Y-73375000D03*
D20*
X81362500Y-68800000D03*
X79637500Y-68800000D03*
D12*
X60275000Y-70087500D03*
X60275000Y-68362500D03*
D10*
X123250000Y-76600000D03*
D21*
X118170000Y-76600000D03*
X115630000Y-76600000D03*
X113090000Y-76600000D03*
X110550000Y-76600000D03*
D18*
X91212500Y-62200000D03*
X89387500Y-62200000D03*
D22*
X84750000Y-73120000D03*
X76250000Y-73120000D03*
D23*
X145225000Y-78075000D03*
X145225000Y-76250000D03*
D24*
X99950500Y-76335500D03*
X104649500Y-76335500D03*
X99950500Y-78220000D03*
X104649500Y-78220000D03*
D20*
X81462500Y-55700000D03*
X79737500Y-55700000D03*
D18*
X145262500Y-69975000D03*
X143437500Y-69975000D03*
D10*
X123425000Y-53725000D03*
D21*
X123425000Y-56265000D03*
X123425000Y-58805000D03*
X123425000Y-61345000D03*
X123425000Y-63885000D03*
X123425000Y-66425000D03*
X123425000Y-68965000D03*
X123425000Y-71505000D03*
D16*
X107000000Y-76437500D03*
X107000000Y-78162500D03*
D15*
X76137500Y-55700000D03*
X77862500Y-55700000D03*
D12*
X94400000Y-56962500D03*
X94400000Y-55237500D03*
D25*
X89387500Y-60500000D03*
X91212500Y-60500000D03*
D23*
X97700000Y-78212500D03*
X97700000Y-76387500D03*
D26*
X77575000Y-56975000D03*
X77475000Y-64550000D03*
X82500000Y-55700000D03*
X90250000Y-68400000D03*
X134400000Y-65325000D03*
X88424500Y-58800000D03*
X87550000Y-49850000D03*
X82250000Y-62450000D03*
X117100000Y-70900000D03*
X68930000Y-71040000D03*
X131330000Y-57700000D03*
X63975000Y-50525000D03*
X78450000Y-61975000D03*
X93056451Y-56643549D03*
X61925000Y-72225000D03*
X64900000Y-67640000D03*
X99250000Y-73625000D03*
X95875000Y-50175000D03*
X116850000Y-64800000D03*
X80625000Y-47175000D03*
X115300000Y-55600000D03*
X79825000Y-60325000D03*
X89200000Y-71200000D03*
X90350000Y-63050000D03*
X94450000Y-63250000D03*
X118400000Y-74650000D03*
X60600000Y-58850000D03*
X75000000Y-55650000D03*
X97550000Y-47400000D03*
X74300000Y-47250000D03*
X129800000Y-65500000D03*
X120300000Y-59825000D03*
X90825000Y-77875000D03*
X144050000Y-66750000D03*
X91900000Y-65000000D03*
X127150000Y-72400000D03*
X80075000Y-74375000D03*
X110125000Y-56075000D03*
X102500000Y-61050000D03*
X126330000Y-67350000D03*
X86125000Y-69400000D03*
X60775000Y-54525000D03*
X81475000Y-71450000D03*
X87500000Y-55450000D03*
X103250000Y-52625000D03*
X133525000Y-46125000D03*
X97350000Y-53625000D03*
X146300000Y-59970000D03*
X69575000Y-50200000D03*
X126340000Y-63350000D03*
X71950000Y-58250000D03*
X77800000Y-52800000D03*
X90200000Y-52800000D03*
X145825000Y-67525000D03*
X84450000Y-57400000D03*
X86841070Y-59793996D03*
X74800000Y-61400000D03*
X74043245Y-62124500D03*
X76850000Y-58400000D03*
X86250000Y-60600000D03*
X87200000Y-63800000D03*
X87200000Y-64799503D03*
X76300000Y-51950000D03*
X76350000Y-66750000D03*
X78575500Y-64250000D03*
X74800000Y-63000000D03*
X101400000Y-70725000D03*
X147950201Y-63224799D03*
X82762299Y-68212701D03*
X147274502Y-64025000D03*
X98600000Y-69350000D03*
X84125000Y-66800000D03*
X150550000Y-67275000D03*
D27*
X77000000Y-56400000D02*
X77575000Y-56975000D01*
X77000000Y-55925000D02*
X77000000Y-56400000D01*
X77000000Y-55925000D02*
X77000000Y-52650000D01*
X77000000Y-56170495D02*
X77000000Y-55925000D01*
X77425000Y-64600000D02*
X77475000Y-64550000D01*
X76300000Y-64600000D02*
X77425000Y-64600000D01*
X78575500Y-64250000D02*
X78125500Y-63800000D01*
X78125500Y-63800000D02*
X76300000Y-63800000D01*
X74800000Y-63000000D02*
X76300000Y-63000000D01*
X87820000Y-55770000D02*
X88950000Y-55770000D01*
X81200000Y-65200000D02*
X81700000Y-65700000D01*
D28*
X60245000Y-70057500D02*
X60275000Y-70087500D01*
D27*
X87500000Y-55450000D02*
X87830000Y-55120000D01*
X87500000Y-55450000D02*
X87820000Y-55770000D01*
X89200000Y-72237500D02*
X89200000Y-71200000D01*
X80900000Y-65200000D02*
X81200000Y-65200000D01*
X92842902Y-56430000D02*
X91650000Y-56430000D01*
X80900000Y-58400000D02*
X80900000Y-65200000D01*
X81362500Y-68800000D02*
X81700000Y-68462500D01*
X81700000Y-68462500D02*
X81700000Y-66800000D01*
X87830000Y-55120000D02*
X88950000Y-55120000D01*
X80900000Y-56262500D02*
X81462500Y-55700000D01*
D28*
X57762500Y-70057500D02*
X60245000Y-70057500D01*
X76137500Y-55700000D02*
X75050000Y-55700000D01*
D27*
X80100000Y-65800000D02*
X80700000Y-65200000D01*
D28*
X81462500Y-55700000D02*
X82500000Y-55700000D01*
D27*
X80900000Y-58400000D02*
X80900000Y-56262500D01*
X80700000Y-65200000D02*
X80900000Y-65200000D01*
D28*
X75050000Y-55700000D02*
X75000000Y-55650000D01*
D27*
X81700000Y-65700000D02*
X81700000Y-66800000D01*
X93056451Y-56643549D02*
X92842902Y-56430000D01*
X80100000Y-66800000D02*
X80100000Y-65800000D01*
X89437500Y-58800000D02*
X88424500Y-58800000D01*
X57762500Y-67517500D02*
X59430000Y-67517500D01*
X90280000Y-57080000D02*
X90200000Y-57000000D01*
X118170000Y-76600000D02*
X116980500Y-75410500D01*
X118170000Y-76600000D02*
X115465499Y-79304501D01*
D28*
X77862500Y-52862500D02*
X77800000Y-52800000D01*
D27*
X79300000Y-61600000D02*
X78500000Y-60800000D01*
X91650000Y-57080000D02*
X90280000Y-57080000D01*
X145262500Y-68087500D02*
X145825000Y-67525000D01*
X91212500Y-62200000D02*
X91212500Y-58850000D01*
X78500000Y-58400000D02*
X78500000Y-56337500D01*
X80900000Y-67929505D02*
X80029505Y-68800000D01*
X79337500Y-66837500D02*
X79300000Y-66800000D01*
X59430000Y-67517500D02*
X60275000Y-68362500D01*
X90200000Y-57400000D02*
X90200000Y-57000000D01*
X91212500Y-63262500D02*
X91212500Y-62200000D01*
X79300000Y-66800000D02*
X79300000Y-61600000D01*
X80900000Y-66800000D02*
X80900000Y-67929505D01*
X91162500Y-58800000D02*
X91162500Y-58362500D01*
X97700000Y-78212500D02*
X98792001Y-79304501D01*
X79337500Y-68800000D02*
X79337500Y-66837500D01*
X98792001Y-79304501D02*
X113495499Y-79304501D01*
X91162500Y-58362500D02*
X90200000Y-57400000D01*
X78500000Y-56337500D02*
X77862500Y-55700000D01*
X91212500Y-58850000D02*
X91162500Y-58800000D01*
D28*
X77862500Y-55700000D02*
X77862500Y-52862500D01*
D27*
X90200000Y-57000000D02*
X90200000Y-52800000D01*
X78500000Y-60800000D02*
X78500000Y-58400000D01*
X145262500Y-69975000D02*
X145262500Y-68087500D01*
X103360500Y-75410500D02*
X91212500Y-63262500D01*
X80029505Y-68800000D02*
X79637500Y-68800000D01*
X115465499Y-79304501D02*
X113495499Y-79304501D01*
X116980500Y-75410500D02*
X103360500Y-75410500D01*
X84450000Y-57400000D02*
X84300000Y-57400000D01*
X84300000Y-57400000D02*
X83300000Y-58400000D01*
X118212499Y-48512499D02*
X123425000Y-53725000D01*
X82500000Y-58400000D02*
X82500000Y-57400000D01*
X82500000Y-57400000D02*
X91387501Y-48512499D01*
X91387501Y-48512499D02*
X118212499Y-48512499D01*
X86835066Y-59800000D02*
X86841070Y-59793996D01*
X84700000Y-59800000D02*
X86835066Y-59800000D01*
X80100000Y-56062500D02*
X79737500Y-55700000D01*
X80100000Y-58400000D02*
X80100000Y-56062500D01*
X76300000Y-61400000D02*
X74750000Y-61400000D01*
X76300000Y-62200000D02*
X74118745Y-62200000D01*
X74118745Y-62200000D02*
X74043245Y-62124500D01*
X59600000Y-60600000D02*
X57762500Y-62437500D01*
X76300000Y-60600000D02*
X59600000Y-60600000D01*
X77700000Y-58400000D02*
X76850000Y-58400000D01*
X87920000Y-56430000D02*
X87700000Y-56650000D01*
X88950000Y-56430000D02*
X87920000Y-56430000D01*
X87700000Y-56650000D02*
X87700000Y-61400000D01*
X84700000Y-61400000D02*
X87700000Y-61400000D01*
X87700000Y-61400000D02*
X88487500Y-61400000D01*
X88487500Y-61400000D02*
X89387500Y-60500000D01*
X89080000Y-57080000D02*
X88950000Y-57080000D01*
X90300000Y-58300000D02*
X89080000Y-57080000D01*
X84700000Y-62200000D02*
X89387500Y-62200000D01*
X90300000Y-61287500D02*
X90300000Y-58300000D01*
X89387500Y-62200000D02*
X90300000Y-61287500D01*
X91537499Y-72237499D02*
X91537499Y-75387499D01*
X91537499Y-75387499D02*
X95904501Y-79754501D01*
X143450000Y-78025000D02*
X145175000Y-78025000D01*
X95904501Y-79754501D02*
X141720499Y-79754501D01*
X84700000Y-65400000D02*
X91537499Y-72237499D01*
X145175000Y-78025000D02*
X145225000Y-78075000D01*
X141720499Y-79754501D02*
X143450000Y-78025000D01*
X122250000Y-67790000D02*
X122250000Y-65200000D01*
X94282500Y-55120000D02*
X94400000Y-55237500D01*
X91650000Y-55120000D02*
X94282500Y-55120000D01*
X112287500Y-55237500D02*
X94400000Y-55237500D01*
X123425000Y-68965000D02*
X122250000Y-67790000D01*
X122250000Y-65200000D02*
X112287500Y-55237500D01*
X121800000Y-69880000D02*
X121800000Y-65386396D01*
X93207500Y-55770000D02*
X94400000Y-56962500D01*
X123425000Y-71505000D02*
X121800000Y-69880000D01*
X121800000Y-65386396D02*
X113376104Y-56962500D01*
X91650000Y-55770000D02*
X93207500Y-55770000D01*
X113376104Y-56962500D02*
X94400000Y-56962500D01*
X88357500Y-73120000D02*
X84750000Y-73120000D01*
X89200000Y-73962500D02*
X88357500Y-73120000D01*
X78500000Y-70600000D02*
X81020000Y-73120000D01*
X81020000Y-73120000D02*
X84750000Y-73120000D01*
X78500000Y-66800000D02*
X78500000Y-70600000D01*
X73042500Y-73120000D02*
X72200000Y-73962500D01*
X77700000Y-71670000D02*
X76250000Y-73120000D01*
X77700000Y-66800000D02*
X77700000Y-71670000D01*
X76250000Y-73120000D02*
X73042500Y-73120000D01*
X86250000Y-60600000D02*
X84700000Y-60600000D01*
X110550000Y-76600000D02*
X107162500Y-76600000D01*
X107162500Y-76600000D02*
X107000000Y-76437500D01*
X87900000Y-63000000D02*
X84700000Y-63000000D01*
X107000000Y-78162500D02*
X106691999Y-77854499D01*
X100316001Y-77854499D02*
X99950500Y-78220000D01*
X99532500Y-78220000D02*
X97700000Y-76387500D01*
X97700000Y-72800000D02*
X87900000Y-63000000D01*
X97700000Y-76387500D02*
X97700000Y-72800000D01*
X99950500Y-78220000D02*
X99532500Y-78220000D01*
X106691999Y-77854499D02*
X100316001Y-77854499D01*
X84700000Y-63800000D02*
X87200000Y-63800000D01*
X84700000Y-64600000D02*
X87000497Y-64600000D01*
X87000497Y-64600000D02*
X87200000Y-64799503D01*
X77000000Y-52650000D02*
X76300000Y-51950000D01*
X76350000Y-65450000D02*
X76300000Y-65400000D01*
X76350000Y-66750000D02*
X76350000Y-65450000D01*
X104825000Y-73125000D02*
X102425000Y-70725000D01*
X147900000Y-63275000D02*
X137475305Y-63275000D01*
X147950201Y-63224799D02*
X147900000Y-63275000D01*
X82500000Y-67950402D02*
X82762299Y-68212701D01*
X102425000Y-70725000D02*
X101400000Y-70725000D01*
X127625305Y-73125000D02*
X104825000Y-73125000D01*
X82500000Y-66800000D02*
X82500000Y-67950402D01*
X137475305Y-63275000D02*
X127625305Y-73125000D01*
X137400000Y-64025000D02*
X147274502Y-64025000D01*
X83300000Y-66800000D02*
X84125000Y-66800000D01*
X127850000Y-73575000D02*
X137400000Y-64025000D01*
X98600000Y-69350000D02*
X102825000Y-73575000D01*
X102825000Y-73575000D02*
X127850000Y-73575000D01*
X145287500Y-72425000D02*
X146537500Y-72425000D01*
X146537500Y-72425000D02*
X148987500Y-69975000D01*
X150550000Y-68412500D02*
X150550000Y-67275000D01*
X148987500Y-69975000D02*
X150550000Y-68412500D01*
X143412500Y-74437500D02*
X143412500Y-73375000D01*
X143437500Y-69975000D02*
X143437500Y-73350000D01*
X143437500Y-73350000D02*
X143412500Y-73375000D01*
X145225000Y-76250000D02*
X143412500Y-74437500D01*
G04 #@! TA.AperFunction,Conductor*
G36*
X149185253Y-45528502D02*
G01*
X149231746Y-45582158D01*
X149241850Y-45652432D01*
X149212356Y-45717012D01*
X149196434Y-45732413D01*
X149087489Y-45820635D01*
X148820635Y-46087489D01*
X148583137Y-46380775D01*
X148581335Y-46383550D01*
X148379395Y-46694510D01*
X148379393Y-46694513D01*
X148377597Y-46697279D01*
X148376102Y-46700213D01*
X148376098Y-46700220D01*
X148207764Y-47030595D01*
X148206266Y-47033535D01*
X148071022Y-47385857D01*
X147973347Y-47750387D01*
X147948019Y-47910300D01*
X147915756Y-48114001D01*
X147914310Y-48123129D01*
X147894559Y-48500000D01*
X147914310Y-48876871D01*
X147973347Y-49249613D01*
X148071022Y-49614143D01*
X148072207Y-49617231D01*
X148072208Y-49617233D01*
X148073558Y-49620749D01*
X148206266Y-49966465D01*
X148207764Y-49969405D01*
X148373100Y-50293894D01*
X148377597Y-50302720D01*
X148583137Y-50619225D01*
X148820635Y-50912511D01*
X149087489Y-51179365D01*
X149380775Y-51416863D01*
X149697280Y-51622403D01*
X149700214Y-51623898D01*
X149700221Y-51623902D01*
X149967470Y-51760072D01*
X150033535Y-51793734D01*
X150157886Y-51841468D01*
X150281602Y-51888958D01*
X150385857Y-51928978D01*
X150750387Y-52026653D01*
X150948353Y-52058008D01*
X151119881Y-52085176D01*
X151119889Y-52085177D01*
X151123129Y-52085690D01*
X151405720Y-52100500D01*
X151594280Y-52100500D01*
X151876871Y-52085690D01*
X151880111Y-52085177D01*
X151880119Y-52085176D01*
X152051647Y-52058008D01*
X152249613Y-52026653D01*
X152614143Y-51928978D01*
X152718399Y-51888958D01*
X152842114Y-51841468D01*
X152966465Y-51793734D01*
X153032530Y-51760072D01*
X153299779Y-51623902D01*
X153299786Y-51623898D01*
X153302720Y-51622403D01*
X153619225Y-51416863D01*
X153912511Y-51179365D01*
X154179365Y-50912511D01*
X154267582Y-50803572D01*
X154325994Y-50763222D01*
X154396951Y-50760856D01*
X154457923Y-50797229D01*
X154489551Y-50860791D01*
X154491500Y-50882868D01*
X154491500Y-74117132D01*
X154471498Y-74185253D01*
X154417842Y-74231746D01*
X154347568Y-74241850D01*
X154282988Y-74212356D01*
X154267587Y-74196434D01*
X154179365Y-74087489D01*
X153912511Y-73820635D01*
X153619225Y-73583137D01*
X153403960Y-73443343D01*
X153305489Y-73379395D01*
X153305486Y-73379393D01*
X153302720Y-73377597D01*
X153299786Y-73376102D01*
X153299779Y-73376098D01*
X152969405Y-73207764D01*
X152966465Y-73206266D01*
X152727654Y-73114595D01*
X152617233Y-73072208D01*
X152617231Y-73072207D01*
X152614143Y-73071022D01*
X152249613Y-72973347D01*
X152046514Y-72941179D01*
X151880119Y-72914824D01*
X151880111Y-72914823D01*
X151876871Y-72914310D01*
X151594280Y-72899500D01*
X151405720Y-72899500D01*
X151123129Y-72914310D01*
X151119889Y-72914823D01*
X151119881Y-72914824D01*
X150953486Y-72941179D01*
X150750387Y-72973347D01*
X150385857Y-73071022D01*
X150382769Y-73072207D01*
X150382767Y-73072208D01*
X150272346Y-73114595D01*
X150033535Y-73206266D01*
X150030595Y-73207764D01*
X149700221Y-73376098D01*
X149700214Y-73376102D01*
X149697280Y-73377597D01*
X149694514Y-73379393D01*
X149694511Y-73379395D01*
X149596040Y-73443343D01*
X149380775Y-73583137D01*
X149087489Y-73820635D01*
X148820635Y-74087489D01*
X148583137Y-74380775D01*
X148581335Y-74383550D01*
X148379395Y-74694510D01*
X148379393Y-74694513D01*
X148377597Y-74697279D01*
X148376102Y-74700213D01*
X148376098Y-74700220D01*
X148225488Y-74995809D01*
X148206266Y-75033535D01*
X148169536Y-75129220D01*
X148091013Y-75333780D01*
X148071022Y-75385857D01*
X147973347Y-75750387D01*
X147958953Y-75841266D01*
X147914860Y-76119658D01*
X147914310Y-76123129D01*
X147894559Y-76500000D01*
X147914310Y-76876871D01*
X147914823Y-76880111D01*
X147914824Y-76880119D01*
X147931751Y-76986990D01*
X147973347Y-77249613D01*
X148071022Y-77614143D01*
X148206266Y-77966465D01*
X148207764Y-77969405D01*
X148280724Y-78112596D01*
X148377597Y-78302720D01*
X148379393Y-78305486D01*
X148379395Y-78305489D01*
X148486535Y-78470470D01*
X148583137Y-78619225D01*
X148820635Y-78912511D01*
X149087489Y-79179365D01*
X149196428Y-79267582D01*
X149236778Y-79325994D01*
X149239144Y-79396951D01*
X149202771Y-79457923D01*
X149139209Y-79489551D01*
X149117132Y-79491500D01*
X143183596Y-79491500D01*
X143115475Y-79471498D01*
X143068982Y-79417842D01*
X143058878Y-79347568D01*
X143088372Y-79282988D01*
X143094501Y-79276405D01*
X143263001Y-79107905D01*
X143325313Y-79073879D01*
X143352096Y-79071000D01*
X143737072Y-79071000D01*
X143740318Y-79070663D01*
X143740322Y-79070663D01*
X143834235Y-79060919D01*
X143834239Y-79060918D01*
X143841093Y-79060207D01*
X143847629Y-79058026D01*
X143847631Y-79058026D01*
X143980395Y-79013732D01*
X144006107Y-79005154D01*
X144154031Y-78913616D01*
X144159204Y-78908434D01*
X144159209Y-78908430D01*
X144248269Y-78819214D01*
X144310551Y-78785134D01*
X144381371Y-78790137D01*
X144426458Y-78819056D01*
X144521997Y-78914429D01*
X144528227Y-78918269D01*
X144528228Y-78918270D01*
X144656195Y-78997150D01*
X144670080Y-79005709D01*
X144835191Y-79060474D01*
X144842027Y-79061174D01*
X144842030Y-79061175D01*
X144893526Y-79066451D01*
X144937928Y-79071000D01*
X145512072Y-79071000D01*
X145515318Y-79070663D01*
X145515322Y-79070663D01*
X145609235Y-79060919D01*
X145609239Y-79060918D01*
X145616093Y-79060207D01*
X145622629Y-79058026D01*
X145622631Y-79058026D01*
X145755395Y-79013732D01*
X145781107Y-79005154D01*
X145929031Y-78913616D01*
X145936728Y-78905906D01*
X146046758Y-78795684D01*
X146046762Y-78795679D01*
X146051929Y-78790503D01*
X146071872Y-78758150D01*
X146139369Y-78648650D01*
X146139370Y-78648648D01*
X146143209Y-78642420D01*
X146197974Y-78477309D01*
X146208500Y-78374572D01*
X146208500Y-77775428D01*
X146207718Y-77767892D01*
X146198419Y-77678265D01*
X146198418Y-77678261D01*
X146197707Y-77671407D01*
X146188621Y-77644171D01*
X146144972Y-77513341D01*
X146142654Y-77506393D01*
X146051116Y-77358469D01*
X146045934Y-77353296D01*
X145944214Y-77251753D01*
X145910135Y-77189470D01*
X145915138Y-77118650D01*
X145944059Y-77073563D01*
X146046754Y-76970688D01*
X146046758Y-76970683D01*
X146051929Y-76965503D01*
X146085246Y-76911453D01*
X146139369Y-76823650D01*
X146139370Y-76823648D01*
X146143209Y-76817420D01*
X146197974Y-76652309D01*
X146198747Y-76644770D01*
X146208172Y-76552771D01*
X146208500Y-76549572D01*
X146208500Y-75950428D01*
X146199199Y-75860787D01*
X146198419Y-75853265D01*
X146198418Y-75853261D01*
X146197707Y-75846407D01*
X146194436Y-75836601D01*
X146144972Y-75688341D01*
X146142654Y-75681393D01*
X146051116Y-75533469D01*
X146033977Y-75516360D01*
X145933184Y-75415742D01*
X145933179Y-75415738D01*
X145928003Y-75410571D01*
X145906956Y-75397597D01*
X145856116Y-75366259D01*
X145808623Y-75313487D01*
X145797199Y-75243415D01*
X145825473Y-75178291D01*
X145884467Y-75138792D01*
X145922232Y-75132999D01*
X145938984Y-75132999D01*
X145943920Y-75132805D01*
X145972336Y-75130570D01*
X145984931Y-75128270D01*
X146130790Y-75085893D01*
X146145221Y-75079648D01*
X146274678Y-75003089D01*
X146287104Y-74993449D01*
X146393449Y-74887104D01*
X146403089Y-74874678D01*
X146479648Y-74745221D01*
X146485893Y-74730790D01*
X146524939Y-74596395D01*
X146524899Y-74582294D01*
X146517630Y-74579000D01*
X145159500Y-74579000D01*
X145091379Y-74558998D01*
X145044886Y-74505342D01*
X145033500Y-74453000D01*
X145033500Y-74052885D01*
X145541500Y-74052885D01*
X145545975Y-74068124D01*
X145547365Y-74069329D01*
X145555048Y-74071000D01*
X146511878Y-74071000D01*
X146525409Y-74067027D01*
X146526544Y-74059129D01*
X146485893Y-73919210D01*
X146479648Y-73904779D01*
X146403089Y-73775322D01*
X146393449Y-73762896D01*
X146287104Y-73656551D01*
X146274678Y-73646911D01*
X146145221Y-73570352D01*
X146130790Y-73564107D01*
X145984935Y-73521731D01*
X145972333Y-73519430D01*
X145943916Y-73517193D01*
X145938986Y-73517000D01*
X145559615Y-73517000D01*
X145544376Y-73521475D01*
X145543171Y-73522865D01*
X145541500Y-73530548D01*
X145541500Y-74052885D01*
X145033500Y-74052885D01*
X145033500Y-73535116D01*
X145029025Y-73519877D01*
X145027635Y-73518672D01*
X145019952Y-73517001D01*
X144784500Y-73517001D01*
X144716379Y-73496999D01*
X144669886Y-73443343D01*
X144658500Y-73391001D01*
X144658500Y-73359500D01*
X144678502Y-73291379D01*
X144732158Y-73244886D01*
X144784500Y-73233500D01*
X145941502Y-73233500D01*
X145943950Y-73233307D01*
X145943958Y-73233307D01*
X145972421Y-73231067D01*
X145972426Y-73231066D01*
X145978831Y-73230562D01*
X146097902Y-73195969D01*
X146130988Y-73186357D01*
X146130990Y-73186356D01*
X146138601Y-73184145D01*
X146181968Y-73158498D01*
X146274980Y-73103491D01*
X146274983Y-73103489D01*
X146281807Y-73099453D01*
X146287415Y-73093845D01*
X146293675Y-73088989D01*
X146294844Y-73090496D01*
X146348167Y-73061379D01*
X146374950Y-73058500D01*
X146458733Y-73058500D01*
X146469916Y-73059027D01*
X146477409Y-73060702D01*
X146485335Y-73060453D01*
X146485336Y-73060453D01*
X146545486Y-73058562D01*
X146549445Y-73058500D01*
X146577356Y-73058500D01*
X146581291Y-73058003D01*
X146581356Y-73057995D01*
X146593193Y-73057062D01*
X146625451Y-73056048D01*
X146629470Y-73055922D01*
X146637389Y-73055673D01*
X146656843Y-73050021D01*
X146676200Y-73046013D01*
X146688430Y-73044468D01*
X146688431Y-73044468D01*
X146696297Y-73043474D01*
X146703668Y-73040555D01*
X146703670Y-73040555D01*
X146737412Y-73027196D01*
X146748642Y-73023351D01*
X146783483Y-73013229D01*
X146783484Y-73013229D01*
X146791093Y-73011018D01*
X146797912Y-73006985D01*
X146797917Y-73006983D01*
X146808528Y-73000707D01*
X146826276Y-72992012D01*
X146845117Y-72984552D01*
X146871349Y-72965494D01*
X146880887Y-72958564D01*
X146890807Y-72952048D01*
X146922035Y-72933580D01*
X146922038Y-72933578D01*
X146928862Y-72929542D01*
X146943183Y-72915221D01*
X146958217Y-72902380D01*
X146968194Y-72895131D01*
X146974607Y-72890472D01*
X147002798Y-72856395D01*
X147010788Y-72847616D01*
X148862999Y-70995405D01*
X148925311Y-70961379D01*
X148952094Y-70958500D01*
X149287072Y-70958500D01*
X149290318Y-70958163D01*
X149290322Y-70958163D01*
X149384235Y-70948419D01*
X149384239Y-70948418D01*
X149391093Y-70947707D01*
X149397629Y-70945526D01*
X149397631Y-70945526D01*
X149539409Y-70898225D01*
X149556107Y-70892654D01*
X149704031Y-70801116D01*
X149795120Y-70709868D01*
X149821758Y-70683184D01*
X149821762Y-70683179D01*
X149826929Y-70678003D01*
X149832197Y-70669457D01*
X149914369Y-70536150D01*
X149914370Y-70536148D01*
X149918209Y-70529920D01*
X149972974Y-70364809D01*
X149974139Y-70353444D01*
X149981109Y-70285405D01*
X149983500Y-70262072D01*
X149983500Y-69927094D01*
X150003502Y-69858973D01*
X150020405Y-69837999D01*
X150942247Y-68916157D01*
X150950537Y-68908613D01*
X150957018Y-68904500D01*
X150965517Y-68895450D01*
X151003658Y-68854833D01*
X151006413Y-68851991D01*
X151026135Y-68832269D01*
X151028619Y-68829067D01*
X151036317Y-68820055D01*
X151061161Y-68793598D01*
X151066586Y-68787821D01*
X151076347Y-68770066D01*
X151087198Y-68753547D01*
X151099614Y-68737541D01*
X151110300Y-68712848D01*
X151117174Y-68696963D01*
X151122391Y-68686313D01*
X151143695Y-68647560D01*
X151148733Y-68627937D01*
X151155137Y-68609234D01*
X151160033Y-68597920D01*
X151160033Y-68597919D01*
X151163181Y-68590645D01*
X151164420Y-68582822D01*
X151164423Y-68582812D01*
X151170099Y-68546976D01*
X151172505Y-68535356D01*
X151181528Y-68500211D01*
X151181528Y-68500210D01*
X151183500Y-68492530D01*
X151183500Y-68472276D01*
X151185051Y-68452565D01*
X151186980Y-68440386D01*
X151188220Y-68432557D01*
X151184059Y-68388538D01*
X151183500Y-68376681D01*
X151183500Y-67977524D01*
X151203502Y-67909403D01*
X151215858Y-67893221D01*
X151289040Y-67811944D01*
X151371688Y-67668794D01*
X151381223Y-67652279D01*
X151381224Y-67652278D01*
X151384527Y-67646556D01*
X151443542Y-67464928D01*
X151447463Y-67427627D01*
X151462814Y-67281565D01*
X151463504Y-67275000D01*
X151445769Y-67106257D01*
X151444232Y-67091635D01*
X151444232Y-67091633D01*
X151443542Y-67085072D01*
X151384527Y-66903444D01*
X151378578Y-66893139D01*
X151295820Y-66749800D01*
X151289040Y-66738056D01*
X151215068Y-66655901D01*
X151165675Y-66601045D01*
X151165674Y-66601044D01*
X151161253Y-66596134D01*
X151052814Y-66517348D01*
X151012094Y-66487763D01*
X151012093Y-66487762D01*
X151006752Y-66483882D01*
X151000724Y-66481198D01*
X151000722Y-66481197D01*
X150838319Y-66408891D01*
X150838318Y-66408891D01*
X150832288Y-66406206D01*
X150731247Y-66384729D01*
X150651944Y-66367872D01*
X150651939Y-66367872D01*
X150645487Y-66366500D01*
X150454513Y-66366500D01*
X150448061Y-66367872D01*
X150448056Y-66367872D01*
X150368753Y-66384729D01*
X150267712Y-66406206D01*
X150261682Y-66408891D01*
X150261681Y-66408891D01*
X150099278Y-66481197D01*
X150099276Y-66481198D01*
X150093248Y-66483882D01*
X150087907Y-66487762D01*
X150087906Y-66487763D01*
X150047186Y-66517348D01*
X149938747Y-66596134D01*
X149934326Y-66601044D01*
X149934325Y-66601045D01*
X149884933Y-66655901D01*
X149810960Y-66738056D01*
X149804180Y-66749800D01*
X149721423Y-66893139D01*
X149715473Y-66903444D01*
X149656458Y-67085072D01*
X149655768Y-67091633D01*
X149655768Y-67091635D01*
X149654231Y-67106257D01*
X149636496Y-67275000D01*
X149637186Y-67281565D01*
X149652538Y-67427627D01*
X149656458Y-67464928D01*
X149715473Y-67646556D01*
X149718776Y-67652278D01*
X149718777Y-67652279D01*
X149728312Y-67668794D01*
X149810960Y-67811944D01*
X149884137Y-67893215D01*
X149914853Y-67957221D01*
X149916500Y-67977524D01*
X149916500Y-68097905D01*
X149896498Y-68166026D01*
X149879595Y-68187001D01*
X149111999Y-68954596D01*
X149049687Y-68988621D01*
X149022904Y-68991500D01*
X148687928Y-68991500D01*
X148684682Y-68991837D01*
X148684678Y-68991837D01*
X148590765Y-69001581D01*
X148590761Y-69001582D01*
X148583907Y-69002293D01*
X148577371Y-69004474D01*
X148577369Y-69004474D01*
X148508949Y-69027301D01*
X148418893Y-69057346D01*
X148270969Y-69148884D01*
X148163899Y-69256141D01*
X148101618Y-69290220D01*
X148030798Y-69285217D01*
X147985709Y-69256296D01*
X147882871Y-69153637D01*
X147871460Y-69144625D01*
X147735937Y-69061088D01*
X147722759Y-69054944D01*
X147571234Y-69004685D01*
X147557868Y-69001819D01*
X147465230Y-68992328D01*
X147458815Y-68992000D01*
X147434615Y-68992000D01*
X147419376Y-68996475D01*
X147418171Y-68997865D01*
X147416500Y-69005548D01*
X147416500Y-70103000D01*
X147396498Y-70171121D01*
X147342842Y-70217614D01*
X147290500Y-70229000D01*
X147034500Y-70229000D01*
X146966379Y-70208998D01*
X146919886Y-70155342D01*
X146908500Y-70103000D01*
X146908500Y-69010115D01*
X146904025Y-68994876D01*
X146902635Y-68993671D01*
X146894952Y-68992000D01*
X146866234Y-68992000D01*
X146859718Y-68992337D01*
X146765868Y-69002075D01*
X146752472Y-69004968D01*
X146601047Y-69055488D01*
X146587885Y-69061653D01*
X146452508Y-69145426D01*
X146441110Y-69154460D01*
X146328637Y-69267129D01*
X146315088Y-69284285D01*
X146313957Y-69283392D01*
X146267197Y-69325472D01*
X146197125Y-69336893D01*
X146132002Y-69308618D01*
X146109626Y-69282839D01*
X146109513Y-69282929D01*
X146107501Y-69280391D01*
X146105568Y-69278164D01*
X146101116Y-69270969D01*
X145978003Y-69148071D01*
X145971776Y-69144233D01*
X145971774Y-69144231D01*
X145955884Y-69134436D01*
X145908391Y-69081664D01*
X145896000Y-69027176D01*
X145896000Y-68540738D01*
X145916002Y-68472617D01*
X145969658Y-68426124D01*
X145995803Y-68417491D01*
X146107288Y-68393794D01*
X146119091Y-68388539D01*
X146275722Y-68318803D01*
X146275724Y-68318802D01*
X146281752Y-68316118D01*
X146303509Y-68300311D01*
X146408848Y-68223777D01*
X146436253Y-68203866D01*
X146472132Y-68164018D01*
X146559621Y-68066852D01*
X146559622Y-68066851D01*
X146564040Y-68061944D01*
X146648437Y-67915765D01*
X146656223Y-67902279D01*
X146656224Y-67902278D01*
X146659527Y-67896556D01*
X146718542Y-67714928D01*
X146719439Y-67706400D01*
X146737814Y-67531565D01*
X146738504Y-67525000D01*
X146731938Y-67462529D01*
X146719232Y-67341635D01*
X146719232Y-67341633D01*
X146718542Y-67335072D01*
X146659527Y-67153444D01*
X146643248Y-67125247D01*
X146594818Y-67041365D01*
X146564040Y-66988056D01*
X146557058Y-66980301D01*
X146440675Y-66851045D01*
X146440674Y-66851044D01*
X146436253Y-66846134D01*
X146312972Y-66756565D01*
X146287094Y-66737763D01*
X146287093Y-66737762D01*
X146281752Y-66733882D01*
X146275724Y-66731198D01*
X146275722Y-66731197D01*
X146113319Y-66658891D01*
X146113318Y-66658891D01*
X146107288Y-66656206D01*
X146013888Y-66636353D01*
X145926944Y-66617872D01*
X145926939Y-66617872D01*
X145920487Y-66616500D01*
X145729513Y-66616500D01*
X145723061Y-66617872D01*
X145723056Y-66617872D01*
X145636112Y-66636353D01*
X145542712Y-66656206D01*
X145536682Y-66658891D01*
X145536681Y-66658891D01*
X145374278Y-66731197D01*
X145374276Y-66731198D01*
X145368248Y-66733882D01*
X145362907Y-66737762D01*
X145362906Y-66737763D01*
X145337028Y-66756565D01*
X145213747Y-66846134D01*
X145209326Y-66851044D01*
X145209325Y-66851045D01*
X145092943Y-66980301D01*
X145085960Y-66988056D01*
X145055182Y-67041365D01*
X145006753Y-67125247D01*
X144990473Y-67153444D01*
X144931458Y-67335072D01*
X144930768Y-67341633D01*
X144930768Y-67341635D01*
X144914093Y-67500292D01*
X144887080Y-67565949D01*
X144877878Y-67576217D01*
X144870247Y-67583848D01*
X144861961Y-67591388D01*
X144855482Y-67595500D01*
X144850057Y-67601277D01*
X144808857Y-67645151D01*
X144806102Y-67647993D01*
X144786365Y-67667730D01*
X144783885Y-67670927D01*
X144776182Y-67679947D01*
X144745914Y-67712179D01*
X144742095Y-67719125D01*
X144742093Y-67719128D01*
X144736152Y-67729934D01*
X144725301Y-67746453D01*
X144712886Y-67762459D01*
X144709741Y-67769728D01*
X144709738Y-67769732D01*
X144695326Y-67803037D01*
X144690109Y-67813687D01*
X144668805Y-67852440D01*
X144666834Y-67860115D01*
X144666834Y-67860116D01*
X144663767Y-67872062D01*
X144657363Y-67890766D01*
X144654858Y-67896556D01*
X144649319Y-67909355D01*
X144648080Y-67917178D01*
X144648077Y-67917188D01*
X144642401Y-67953024D01*
X144639995Y-67964644D01*
X144635172Y-67983431D01*
X144629000Y-68007470D01*
X144629000Y-68027724D01*
X144627449Y-68047434D01*
X144624280Y-68067443D01*
X144625026Y-68075335D01*
X144628441Y-68111461D01*
X144629000Y-68123319D01*
X144629000Y-69027301D01*
X144608998Y-69095422D01*
X144569302Y-69134445D01*
X144545969Y-69148884D01*
X144540796Y-69154066D01*
X144439253Y-69255786D01*
X144376970Y-69289865D01*
X144306150Y-69284862D01*
X144261063Y-69255941D01*
X144158188Y-69153246D01*
X144158183Y-69153242D01*
X144153003Y-69148071D01*
X144146772Y-69144230D01*
X144011150Y-69060631D01*
X144011148Y-69060630D01*
X144004920Y-69056791D01*
X143839809Y-69002026D01*
X143832973Y-69001326D01*
X143832970Y-69001325D01*
X143781474Y-68996049D01*
X143737072Y-68991500D01*
X143137928Y-68991500D01*
X143134682Y-68991837D01*
X143134678Y-68991837D01*
X143040765Y-69001581D01*
X143040761Y-69001582D01*
X143033907Y-69002293D01*
X143027371Y-69004474D01*
X143027369Y-69004474D01*
X142958949Y-69027301D01*
X142868893Y-69057346D01*
X142720969Y-69148884D01*
X142715796Y-69154066D01*
X142603242Y-69266816D01*
X142603238Y-69266821D01*
X142598071Y-69271997D01*
X142594231Y-69278227D01*
X142594230Y-69278228D01*
X142574416Y-69310373D01*
X142506791Y-69420080D01*
X142452026Y-69585191D01*
X142441500Y-69687928D01*
X142441500Y-70262072D01*
X142441837Y-70265318D01*
X142441837Y-70265322D01*
X142450981Y-70353444D01*
X142452293Y-70366093D01*
X142454474Y-70372629D01*
X142454474Y-70372631D01*
X142474887Y-70433815D01*
X142507346Y-70531107D01*
X142598884Y-70679031D01*
X142721997Y-70801929D01*
X142728224Y-70805767D01*
X142728226Y-70805769D01*
X142744116Y-70815564D01*
X142791609Y-70868336D01*
X142804000Y-70922824D01*
X142804000Y-72450770D01*
X142783998Y-72518891D01*
X142730342Y-72565384D01*
X142713152Y-72571767D01*
X142569014Y-72613642D01*
X142569009Y-72613644D01*
X142561399Y-72615855D01*
X142554572Y-72619892D01*
X142554573Y-72619892D01*
X142425020Y-72696509D01*
X142425017Y-72696511D01*
X142418193Y-72700547D01*
X142300547Y-72818193D01*
X142296511Y-72825017D01*
X142296509Y-72825020D01*
X142261412Y-72884366D01*
X142215855Y-72961399D01*
X142213644Y-72969010D01*
X142213643Y-72969012D01*
X142201439Y-73011018D01*
X142169438Y-73121169D01*
X142166500Y-73158498D01*
X142166500Y-73591502D01*
X142166693Y-73593950D01*
X142166693Y-73593958D01*
X142168440Y-73616146D01*
X142169438Y-73628831D01*
X142190440Y-73701121D01*
X142207029Y-73758220D01*
X142215855Y-73788601D01*
X142219892Y-73795427D01*
X142296509Y-73924980D01*
X142296511Y-73924983D01*
X142300547Y-73931807D01*
X142418193Y-74049453D01*
X142425017Y-74053489D01*
X142425020Y-74053491D01*
X142486862Y-74090064D01*
X142561399Y-74134145D01*
X142569009Y-74136356D01*
X142569014Y-74136358D01*
X142688152Y-74170970D01*
X142747988Y-74209183D01*
X142777666Y-74273679D01*
X142779000Y-74291967D01*
X142779000Y-74358733D01*
X142778473Y-74369916D01*
X142776798Y-74377409D01*
X142777047Y-74385335D01*
X142777047Y-74385336D01*
X142778938Y-74445486D01*
X142779000Y-74449445D01*
X142779000Y-74477356D01*
X142779497Y-74481290D01*
X142779497Y-74481291D01*
X142779505Y-74481356D01*
X142780438Y-74493193D01*
X142781827Y-74537389D01*
X142785883Y-74551349D01*
X142787478Y-74556839D01*
X142791487Y-74576200D01*
X142794026Y-74596297D01*
X142796945Y-74603668D01*
X142796945Y-74603670D01*
X142810304Y-74637412D01*
X142814149Y-74648642D01*
X142826482Y-74691093D01*
X142830515Y-74697912D01*
X142830517Y-74697917D01*
X142836793Y-74708528D01*
X142845488Y-74726276D01*
X142852948Y-74745117D01*
X142857610Y-74751533D01*
X142857610Y-74751534D01*
X142878936Y-74780887D01*
X142885452Y-74790807D01*
X142899662Y-74814834D01*
X142907958Y-74828862D01*
X142922279Y-74843183D01*
X142935119Y-74858216D01*
X142947028Y-74874607D01*
X142970366Y-74893914D01*
X142981105Y-74902798D01*
X142989884Y-74910788D01*
X143130874Y-75051778D01*
X143164900Y-75114090D01*
X143159835Y-75184905D01*
X143117288Y-75241741D01*
X143068375Y-75264034D01*
X143052473Y-75267468D01*
X142901047Y-75317988D01*
X142887885Y-75324153D01*
X142752508Y-75407926D01*
X142741110Y-75416960D01*
X142628637Y-75529629D01*
X142619625Y-75541040D01*
X142536088Y-75676563D01*
X142529944Y-75689741D01*
X142479685Y-75841266D01*
X142476819Y-75854632D01*
X142467328Y-75947270D01*
X142467000Y-75953685D01*
X142467000Y-76027885D01*
X142471475Y-76043124D01*
X142472865Y-76044329D01*
X142480548Y-76046000D01*
X143578000Y-76046000D01*
X143646121Y-76066002D01*
X143692614Y-76119658D01*
X143704000Y-76172000D01*
X143704000Y-76428000D01*
X143683998Y-76496121D01*
X143630342Y-76542614D01*
X143578000Y-76554000D01*
X142485115Y-76554000D01*
X142469876Y-76558475D01*
X142468671Y-76559865D01*
X142467000Y-76567548D01*
X142467000Y-76646266D01*
X142467337Y-76652782D01*
X142477075Y-76746632D01*
X142479968Y-76760028D01*
X142530488Y-76911453D01*
X142536653Y-76924615D01*
X142620426Y-77059992D01*
X142629464Y-77071394D01*
X142631139Y-77073067D01*
X142631919Y-77074493D01*
X142634007Y-77077127D01*
X142633556Y-77077484D01*
X142665219Y-77135349D01*
X142660216Y-77206169D01*
X142631299Y-77251254D01*
X142628476Y-77254083D01*
X142623071Y-77259497D01*
X142619231Y-77265727D01*
X142619230Y-77265728D01*
X142552562Y-77373884D01*
X142531791Y-77407580D01*
X142477026Y-77572691D01*
X142466500Y-77675428D01*
X142466500Y-78060406D01*
X142446498Y-78128527D01*
X142429599Y-78149497D01*
X141494997Y-79084098D01*
X141432687Y-79118122D01*
X141405904Y-79121001D01*
X116849093Y-79121001D01*
X116780972Y-79100999D01*
X116734479Y-79047343D01*
X116724375Y-78977069D01*
X116753869Y-78912489D01*
X116759998Y-78905906D01*
X117714549Y-77951355D01*
X117776861Y-77917329D01*
X117828762Y-77916979D01*
X118008597Y-77953567D01*
X118013772Y-77953757D01*
X118013774Y-77953757D01*
X118226673Y-77961564D01*
X118226677Y-77961564D01*
X118231837Y-77961753D01*
X118236957Y-77961097D01*
X118236959Y-77961097D01*
X118448288Y-77934025D01*
X118448289Y-77934025D01*
X118453416Y-77933368D01*
X118492434Y-77921662D01*
X118662429Y-77870661D01*
X118662434Y-77870659D01*
X118667384Y-77869174D01*
X118867994Y-77770896D01*
X119049860Y-77641173D01*
X119196877Y-77494669D01*
X121892001Y-77494669D01*
X121892371Y-77501490D01*
X121897895Y-77552352D01*
X121901521Y-77567604D01*
X121946676Y-77688054D01*
X121955214Y-77703649D01*
X122031715Y-77805724D01*
X122044276Y-77818285D01*
X122146351Y-77894786D01*
X122161946Y-77903324D01*
X122282394Y-77948478D01*
X122297649Y-77952105D01*
X122348514Y-77957631D01*
X122355328Y-77958000D01*
X122977885Y-77958000D01*
X122993124Y-77953525D01*
X122994329Y-77952135D01*
X122996000Y-77944452D01*
X122996000Y-77939884D01*
X123504000Y-77939884D01*
X123508475Y-77955123D01*
X123509865Y-77956328D01*
X123517548Y-77957999D01*
X124144669Y-77957999D01*
X124151490Y-77957629D01*
X124202352Y-77952105D01*
X124217604Y-77948479D01*
X124338054Y-77903324D01*
X124353649Y-77894786D01*
X124455724Y-77818285D01*
X124468285Y-77805724D01*
X124544786Y-77703649D01*
X124553324Y-77688054D01*
X124598478Y-77567606D01*
X124602105Y-77552351D01*
X124607631Y-77501486D01*
X124608000Y-77494672D01*
X124608000Y-76872115D01*
X124603525Y-76856876D01*
X124602135Y-76855671D01*
X124594452Y-76854000D01*
X123522115Y-76854000D01*
X123506876Y-76858475D01*
X123505671Y-76859865D01*
X123504000Y-76867548D01*
X123504000Y-77939884D01*
X122996000Y-77939884D01*
X122996000Y-76872115D01*
X122991525Y-76856876D01*
X122990135Y-76855671D01*
X122982452Y-76854000D01*
X121910116Y-76854000D01*
X121894877Y-76858475D01*
X121893672Y-76859865D01*
X121892001Y-76867548D01*
X121892001Y-77494669D01*
X119196877Y-77494669D01*
X119208096Y-77483489D01*
X119274197Y-77391500D01*
X119335435Y-77306277D01*
X119338453Y-77302077D01*
X119342611Y-77293665D01*
X119435136Y-77106453D01*
X119435137Y-77106451D01*
X119437430Y-77101811D01*
X119483809Y-76949159D01*
X119500865Y-76893023D01*
X119500865Y-76893021D01*
X119502370Y-76888069D01*
X119531529Y-76666590D01*
X119531611Y-76663240D01*
X119533074Y-76603365D01*
X119533074Y-76603361D01*
X119533156Y-76600000D01*
X119514852Y-76377361D01*
X119502424Y-76327885D01*
X121892000Y-76327885D01*
X121896475Y-76343124D01*
X121897865Y-76344329D01*
X121905548Y-76346000D01*
X122977885Y-76346000D01*
X122993124Y-76341525D01*
X122994329Y-76340135D01*
X122996000Y-76332452D01*
X122996000Y-76327885D01*
X123504000Y-76327885D01*
X123508475Y-76343124D01*
X123509865Y-76344329D01*
X123517548Y-76346000D01*
X124589884Y-76346000D01*
X124605123Y-76341525D01*
X124606328Y-76340135D01*
X124607999Y-76332452D01*
X124607999Y-75705331D01*
X124607629Y-75698510D01*
X124602105Y-75647648D01*
X124598479Y-75632396D01*
X124553324Y-75511946D01*
X124544786Y-75496351D01*
X124468285Y-75394276D01*
X124455724Y-75381715D01*
X124353649Y-75305214D01*
X124338054Y-75296676D01*
X124217606Y-75251522D01*
X124202351Y-75247895D01*
X124151486Y-75242369D01*
X124144672Y-75242000D01*
X123522115Y-75242000D01*
X123506876Y-75246475D01*
X123505671Y-75247865D01*
X123504000Y-75255548D01*
X123504000Y-76327885D01*
X122996000Y-76327885D01*
X122996000Y-75260116D01*
X122991525Y-75244877D01*
X122990135Y-75243672D01*
X122982452Y-75242001D01*
X122355331Y-75242001D01*
X122348510Y-75242371D01*
X122297648Y-75247895D01*
X122282396Y-75251521D01*
X122161946Y-75296676D01*
X122146351Y-75305214D01*
X122044276Y-75381715D01*
X122031715Y-75394276D01*
X121955214Y-75496351D01*
X121946676Y-75511946D01*
X121901522Y-75632394D01*
X121897895Y-75647649D01*
X121892369Y-75698514D01*
X121892000Y-75705328D01*
X121892000Y-76327885D01*
X119502424Y-76327885D01*
X119460431Y-76160702D01*
X119371354Y-75955840D01*
X119331906Y-75894862D01*
X119252822Y-75772617D01*
X119252820Y-75772614D01*
X119250014Y-75768277D01*
X119099670Y-75603051D01*
X119095619Y-75599852D01*
X119095615Y-75599848D01*
X118928414Y-75467800D01*
X118928410Y-75467798D01*
X118924359Y-75464598D01*
X118728789Y-75356638D01*
X118723920Y-75354914D01*
X118723916Y-75354912D01*
X118523087Y-75283795D01*
X118523083Y-75283794D01*
X118518212Y-75282069D01*
X118513119Y-75281162D01*
X118513116Y-75281161D01*
X118303373Y-75243800D01*
X118303367Y-75243799D01*
X118298284Y-75242894D01*
X118224452Y-75241992D01*
X118080081Y-75240228D01*
X118080079Y-75240228D01*
X118074911Y-75240165D01*
X117854091Y-75273955D01*
X117841532Y-75278060D01*
X117770568Y-75280210D01*
X117713294Y-75247389D01*
X117484152Y-75018247D01*
X117476612Y-75009961D01*
X117472500Y-75003482D01*
X117422848Y-74956856D01*
X117420007Y-74954102D01*
X117400270Y-74934365D01*
X117397073Y-74931885D01*
X117388051Y-74924180D01*
X117369306Y-74906577D01*
X117355821Y-74893914D01*
X117348875Y-74890095D01*
X117348872Y-74890093D01*
X117338066Y-74884152D01*
X117321547Y-74873301D01*
X117321083Y-74872941D01*
X117305541Y-74860886D01*
X117298272Y-74857741D01*
X117298268Y-74857738D01*
X117264963Y-74843326D01*
X117254313Y-74838109D01*
X117215560Y-74816805D01*
X117195937Y-74811767D01*
X117177234Y-74805363D01*
X117165920Y-74800467D01*
X117165919Y-74800467D01*
X117158645Y-74797319D01*
X117150822Y-74796080D01*
X117150812Y-74796077D01*
X117114976Y-74790401D01*
X117103356Y-74787995D01*
X117068211Y-74778972D01*
X117068210Y-74778972D01*
X117060530Y-74777000D01*
X117040276Y-74777000D01*
X117020565Y-74775449D01*
X117018842Y-74775176D01*
X117000557Y-74772280D01*
X116992665Y-74773026D01*
X116956539Y-74776441D01*
X116944681Y-74777000D01*
X103675095Y-74777000D01*
X103606974Y-74756998D01*
X103586000Y-74740095D01*
X103269500Y-74423595D01*
X103235474Y-74361283D01*
X103240539Y-74290468D01*
X103283086Y-74233632D01*
X103349606Y-74208821D01*
X103358595Y-74208500D01*
X127771233Y-74208500D01*
X127782416Y-74209027D01*
X127789909Y-74210702D01*
X127797835Y-74210453D01*
X127797836Y-74210453D01*
X127857986Y-74208562D01*
X127861945Y-74208500D01*
X127889856Y-74208500D01*
X127893791Y-74208003D01*
X127893856Y-74207995D01*
X127905693Y-74207062D01*
X127937951Y-74206048D01*
X127941970Y-74205922D01*
X127949889Y-74205673D01*
X127969343Y-74200021D01*
X127988700Y-74196013D01*
X128000930Y-74194468D01*
X128000931Y-74194468D01*
X128008797Y-74193474D01*
X128016168Y-74190555D01*
X128016170Y-74190555D01*
X128049912Y-74177196D01*
X128061142Y-74173351D01*
X128095983Y-74163229D01*
X128095984Y-74163229D01*
X128103593Y-74161018D01*
X128110412Y-74156985D01*
X128110417Y-74156983D01*
X128121028Y-74150707D01*
X128138776Y-74142012D01*
X128157617Y-74134552D01*
X128193387Y-74108564D01*
X128203307Y-74102048D01*
X128234535Y-74083580D01*
X128234538Y-74083578D01*
X128241362Y-74079542D01*
X128255683Y-74065221D01*
X128270717Y-74052380D01*
X128280694Y-74045131D01*
X128287107Y-74040472D01*
X128315298Y-74006395D01*
X128323288Y-73997616D01*
X133027899Y-69293005D01*
X133090211Y-69258979D01*
X133161026Y-69264044D01*
X133217862Y-69306591D01*
X133242673Y-69373111D01*
X133234307Y-69428075D01*
X133227473Y-69445513D01*
X133226681Y-69448240D01*
X133226677Y-69448251D01*
X133118701Y-69819909D01*
X133113233Y-69838729D01*
X133035101Y-70240681D01*
X132993721Y-70648060D01*
X132991083Y-70900000D01*
X132989433Y-71057512D01*
X132989662Y-71060357D01*
X132989662Y-71060360D01*
X133020570Y-71444501D01*
X133022273Y-71465668D01*
X133091969Y-71869168D01*
X133197949Y-72264691D01*
X133210817Y-72299665D01*
X133338152Y-72645750D01*
X133339340Y-72648980D01*
X133340565Y-72651560D01*
X133340568Y-72651567D01*
X133512548Y-73013755D01*
X133514979Y-73018874D01*
X133616413Y-73190390D01*
X133721605Y-73368260D01*
X133723418Y-73371326D01*
X133725080Y-73373630D01*
X133725081Y-73373632D01*
X133952915Y-73689530D01*
X133962944Y-73703436D01*
X134231584Y-74012471D01*
X134527126Y-74295886D01*
X134529344Y-74297656D01*
X134529349Y-74297661D01*
X134667531Y-74407970D01*
X134847139Y-74551349D01*
X134849520Y-74552919D01*
X135183331Y-74773026D01*
X135188989Y-74776757D01*
X135191519Y-74778113D01*
X135191518Y-74778113D01*
X135503717Y-74945513D01*
X135549860Y-74970255D01*
X135926784Y-75130250D01*
X135953389Y-75138792D01*
X136313931Y-75254549D01*
X136313935Y-75254550D01*
X136316657Y-75255424D01*
X136319447Y-75256048D01*
X136319452Y-75256049D01*
X136713477Y-75344125D01*
X136713488Y-75344127D01*
X136716271Y-75344749D01*
X137122335Y-75397487D01*
X137531509Y-75413206D01*
X137534371Y-75413056D01*
X137534372Y-75413056D01*
X137937566Y-75391926D01*
X137937573Y-75391925D01*
X137940422Y-75391776D01*
X137943245Y-75391369D01*
X137943247Y-75391369D01*
X138342889Y-75333780D01*
X138342896Y-75333779D01*
X138345711Y-75333373D01*
X138744038Y-75238478D01*
X138746736Y-75237570D01*
X138746743Y-75237568D01*
X139129414Y-75108785D01*
X139129420Y-75108783D01*
X139132126Y-75107872D01*
X139506779Y-74942630D01*
X139521690Y-74934365D01*
X139783082Y-74789473D01*
X139864914Y-74744113D01*
X139954128Y-74683483D01*
X140201198Y-74515575D01*
X140201200Y-74515573D01*
X140203583Y-74513954D01*
X140205811Y-74512124D01*
X140517779Y-74255870D01*
X140517783Y-74255867D01*
X140519998Y-74254047D01*
X140522036Y-74252038D01*
X140522043Y-74252031D01*
X140723374Y-74053491D01*
X140811555Y-73966533D01*
X140936611Y-73818550D01*
X141074008Y-73655963D01*
X141074013Y-73655957D01*
X141075854Y-73653778D01*
X141097811Y-73622421D01*
X141309084Y-73320691D01*
X141310719Y-73318356D01*
X141514217Y-72963027D01*
X141536286Y-72914824D01*
X141683485Y-72593316D01*
X141683488Y-72593307D01*
X141684674Y-72590718D01*
X141820685Y-72204492D01*
X141825902Y-72183876D01*
X141920430Y-71810307D01*
X141920431Y-71810303D01*
X141921133Y-71807528D01*
X141922639Y-71798023D01*
X141984158Y-71409605D01*
X141985189Y-71403095D01*
X141995716Y-71244595D01*
X142012210Y-70996271D01*
X142012210Y-70996260D01*
X142012326Y-70994520D01*
X142013316Y-70900000D01*
X141994741Y-70490947D01*
X141976526Y-70357970D01*
X141963827Y-70265271D01*
X141939169Y-70085260D01*
X141937935Y-70079912D01*
X141910135Y-69959500D01*
X141847057Y-69686280D01*
X141776426Y-69471453D01*
X141720057Y-69300005D01*
X141720054Y-69299998D01*
X141719164Y-69297290D01*
X141556542Y-68921492D01*
X141430035Y-68689462D01*
X141361899Y-68564492D01*
X141361895Y-68564485D01*
X141360529Y-68561980D01*
X141246141Y-68391109D01*
X141134332Y-68224090D01*
X141134324Y-68224079D01*
X141132740Y-68221713D01*
X140875049Y-67903491D01*
X140862675Y-67890766D01*
X140591567Y-67611980D01*
X140591563Y-67611976D01*
X140589577Y-67609934D01*
X140587419Y-67608084D01*
X140587409Y-67608075D01*
X140280849Y-67345321D01*
X140280844Y-67345317D01*
X140278675Y-67343458D01*
X140276344Y-67341801D01*
X140276337Y-67341796D01*
X140131907Y-67239155D01*
X139944900Y-67106257D01*
X139733750Y-66983365D01*
X139593474Y-66901722D01*
X139593469Y-66901719D01*
X139591001Y-66900283D01*
X139375943Y-66800000D01*
X139222487Y-66728442D01*
X139222477Y-66728438D01*
X139219891Y-66727232D01*
X139180552Y-66713069D01*
X138837314Y-66589495D01*
X138837305Y-66589492D01*
X138834624Y-66588527D01*
X138501954Y-66501873D01*
X138441140Y-66486032D01*
X138441134Y-66486031D01*
X138438371Y-66485311D01*
X138034395Y-66418433D01*
X138031552Y-66418224D01*
X138031550Y-66418224D01*
X137628865Y-66388653D01*
X137626019Y-66388444D01*
X137456043Y-66391411D01*
X137219458Y-66395540D01*
X137219453Y-66395540D01*
X137216607Y-66395590D01*
X137213774Y-66395898D01*
X137213770Y-66395898D01*
X136976757Y-66421646D01*
X136809527Y-66439813D01*
X136408130Y-66520749D01*
X136405397Y-66521564D01*
X136405392Y-66521565D01*
X136276223Y-66560072D01*
X136019122Y-66636717D01*
X135948127Y-66637010D01*
X135888243Y-66598873D01*
X135858484Y-66534414D01*
X135868297Y-66464099D01*
X135894031Y-66426873D01*
X137625499Y-64695405D01*
X137687811Y-64661379D01*
X137714594Y-64658500D01*
X146566302Y-64658500D01*
X146634423Y-64678502D01*
X146653649Y-64694843D01*
X146653922Y-64694540D01*
X146658834Y-64698963D01*
X146663249Y-64703866D01*
X146681447Y-64717088D01*
X146794882Y-64799503D01*
X146817750Y-64816118D01*
X146823778Y-64818802D01*
X146823780Y-64818803D01*
X146986183Y-64891109D01*
X146992214Y-64893794D01*
X147085614Y-64913647D01*
X147172558Y-64932128D01*
X147172563Y-64932128D01*
X147179015Y-64933500D01*
X147369989Y-64933500D01*
X147376441Y-64932128D01*
X147376446Y-64932128D01*
X147463390Y-64913647D01*
X147556790Y-64893794D01*
X147562821Y-64891109D01*
X147725224Y-64818803D01*
X147725226Y-64818802D01*
X147731254Y-64816118D01*
X147754123Y-64799503D01*
X147860699Y-64722070D01*
X147885755Y-64703866D01*
X147908593Y-64678502D01*
X148009123Y-64566852D01*
X148009124Y-64566851D01*
X148013542Y-64561944D01*
X148109029Y-64396556D01*
X148168044Y-64214928D01*
X148170655Y-64190085D01*
X148197668Y-64124429D01*
X148244717Y-64088149D01*
X148400920Y-64018604D01*
X148400927Y-64018600D01*
X148406953Y-64015917D01*
X148561454Y-63903665D01*
X148581280Y-63881646D01*
X148684822Y-63766651D01*
X148684823Y-63766650D01*
X148689241Y-63761743D01*
X148755884Y-63646314D01*
X148781424Y-63602078D01*
X148781425Y-63602077D01*
X148784728Y-63596355D01*
X148843743Y-63414727D01*
X148844500Y-63407531D01*
X148863015Y-63231364D01*
X148863705Y-63224799D01*
X148855189Y-63143777D01*
X148844433Y-63041434D01*
X148844433Y-63041432D01*
X148843743Y-63034871D01*
X148784728Y-62853243D01*
X148779164Y-62843605D01*
X148722191Y-62744926D01*
X148689241Y-62687855D01*
X148679347Y-62676866D01*
X148565876Y-62550844D01*
X148565872Y-62550840D01*
X148561454Y-62545933D01*
X148448451Y-62463831D01*
X148412295Y-62437562D01*
X148412294Y-62437561D01*
X148406953Y-62433681D01*
X148400925Y-62430997D01*
X148400923Y-62430996D01*
X148238520Y-62358690D01*
X148238519Y-62358690D01*
X148232489Y-62356005D01*
X148139089Y-62336152D01*
X148052145Y-62317671D01*
X148052140Y-62317671D01*
X148045688Y-62316299D01*
X147854714Y-62316299D01*
X147848262Y-62317671D01*
X147848257Y-62317671D01*
X147761313Y-62336152D01*
X147667913Y-62356005D01*
X147661883Y-62358690D01*
X147661882Y-62358690D01*
X147499479Y-62430996D01*
X147499477Y-62430997D01*
X147493449Y-62433681D01*
X147488108Y-62437561D01*
X147488107Y-62437562D01*
X147398524Y-62502648D01*
X147338948Y-62545933D01*
X147334537Y-62550832D01*
X147334528Y-62550840D01*
X147290436Y-62599810D01*
X147229990Y-62637050D01*
X147196800Y-62641500D01*
X137554073Y-62641500D01*
X137542890Y-62640973D01*
X137535397Y-62639298D01*
X137527471Y-62639547D01*
X137527470Y-62639547D01*
X137467307Y-62641438D01*
X137463349Y-62641500D01*
X137435449Y-62641500D01*
X137431459Y-62642004D01*
X137419625Y-62642936D01*
X137375416Y-62644326D01*
X137367800Y-62646539D01*
X137367798Y-62646539D01*
X137355957Y-62649979D01*
X137336598Y-62653988D01*
X137335288Y-62654154D01*
X137316508Y-62656526D01*
X137309142Y-62659442D01*
X137309136Y-62659444D01*
X137275403Y-62672800D01*
X137264173Y-62676645D01*
X137229322Y-62686770D01*
X137221712Y-62688981D01*
X137214889Y-62693016D01*
X137204271Y-62699295D01*
X137186518Y-62707992D01*
X137178873Y-62711019D01*
X137167688Y-62715448D01*
X137153758Y-62725569D01*
X137131917Y-62741437D01*
X137122000Y-62747951D01*
X137083943Y-62770458D01*
X137069622Y-62784779D01*
X137054589Y-62797619D01*
X137038198Y-62809528D01*
X137033147Y-62815634D01*
X137010007Y-62843605D01*
X137002017Y-62852384D01*
X127399805Y-72454595D01*
X127337493Y-72488621D01*
X127310710Y-72491500D01*
X124634772Y-72491500D01*
X124566651Y-72471498D01*
X124520158Y-72417842D01*
X124510054Y-72347568D01*
X124532449Y-72291974D01*
X124590435Y-72211277D01*
X124593453Y-72207077D01*
X124596156Y-72201609D01*
X124690136Y-72011453D01*
X124690137Y-72011451D01*
X124692430Y-72006811D01*
X124735179Y-71866109D01*
X124755865Y-71798023D01*
X124755865Y-71798021D01*
X124757370Y-71793069D01*
X124786529Y-71571590D01*
X124786611Y-71568240D01*
X124788074Y-71508365D01*
X124788074Y-71508361D01*
X124788156Y-71505000D01*
X124769852Y-71282361D01*
X124715431Y-71065702D01*
X124626354Y-70860840D01*
X124530141Y-70712117D01*
X124507822Y-70677617D01*
X124507820Y-70677614D01*
X124505014Y-70673277D01*
X124354670Y-70508051D01*
X124350619Y-70504852D01*
X124350615Y-70504848D01*
X124183414Y-70372800D01*
X124183410Y-70372798D01*
X124179359Y-70369598D01*
X124138053Y-70346796D01*
X124088084Y-70296364D01*
X124073312Y-70226921D01*
X124098428Y-70160516D01*
X124125780Y-70133909D01*
X124190114Y-70088020D01*
X124304860Y-70006173D01*
X124323602Y-69987497D01*
X124423461Y-69887986D01*
X124463096Y-69848489D01*
X124485097Y-69817872D01*
X124590435Y-69671277D01*
X124593453Y-69667077D01*
X124617359Y-69618708D01*
X124690136Y-69471453D01*
X124690137Y-69471451D01*
X124692430Y-69466811D01*
X124744733Y-69294663D01*
X124755865Y-69258023D01*
X124755865Y-69258021D01*
X124757370Y-69253069D01*
X124786529Y-69031590D01*
X124787165Y-69005548D01*
X124788074Y-68968365D01*
X124788074Y-68968361D01*
X124788156Y-68965000D01*
X124769852Y-68742361D01*
X124715431Y-68525702D01*
X124626354Y-68320840D01*
X124547503Y-68198955D01*
X124507822Y-68137617D01*
X124507820Y-68137614D01*
X124505014Y-68133277D01*
X124354670Y-67968051D01*
X124350619Y-67964852D01*
X124350615Y-67964848D01*
X124183414Y-67832800D01*
X124183410Y-67832798D01*
X124179359Y-67829598D01*
X124138053Y-67806796D01*
X124088084Y-67756364D01*
X124073312Y-67686921D01*
X124098428Y-67620516D01*
X124125780Y-67593909D01*
X124231591Y-67518435D01*
X124304860Y-67466173D01*
X124312696Y-67458365D01*
X124426135Y-67345321D01*
X124463096Y-67308489D01*
X124471713Y-67296498D01*
X124590435Y-67131277D01*
X124593453Y-67127077D01*
X124598697Y-67116468D01*
X124690136Y-66931453D01*
X124690137Y-66931451D01*
X124692430Y-66926811D01*
X124744155Y-66756565D01*
X124755865Y-66718023D01*
X124755865Y-66718021D01*
X124757370Y-66713069D01*
X124786529Y-66491590D01*
X124786665Y-66486032D01*
X124788074Y-66428365D01*
X124788074Y-66428361D01*
X124788156Y-66425000D01*
X124769852Y-66202361D01*
X124715431Y-65985702D01*
X124626354Y-65780840D01*
X124517059Y-65611896D01*
X124507822Y-65597617D01*
X124507820Y-65597614D01*
X124505014Y-65593277D01*
X124354670Y-65428051D01*
X124350619Y-65424852D01*
X124350615Y-65424848D01*
X124183414Y-65292800D01*
X124183410Y-65292798D01*
X124179359Y-65289598D01*
X124138053Y-65266796D01*
X124088084Y-65216364D01*
X124073312Y-65146921D01*
X124098428Y-65080516D01*
X124125780Y-65053909D01*
X124180771Y-65014684D01*
X124304860Y-64926173D01*
X124337353Y-64893794D01*
X124459435Y-64772137D01*
X124463096Y-64768489D01*
X124516234Y-64694540D01*
X124590435Y-64591277D01*
X124593453Y-64587077D01*
X124605875Y-64561944D01*
X124690136Y-64391453D01*
X124690137Y-64391451D01*
X124692430Y-64386811D01*
X124738023Y-64236747D01*
X124755865Y-64178023D01*
X124755865Y-64178021D01*
X124757370Y-64173069D01*
X124786529Y-63951590D01*
X124787605Y-63907548D01*
X124788074Y-63888365D01*
X124788074Y-63888361D01*
X124788156Y-63885000D01*
X124769852Y-63662361D01*
X124715431Y-63445702D01*
X124626354Y-63240840D01*
X124582737Y-63173419D01*
X124507822Y-63057617D01*
X124507820Y-63057614D01*
X124505014Y-63053277D01*
X124354670Y-62888051D01*
X124350619Y-62884852D01*
X124350615Y-62884848D01*
X124183414Y-62752800D01*
X124183410Y-62752798D01*
X124179359Y-62749598D01*
X124137569Y-62726529D01*
X124087598Y-62676097D01*
X124072826Y-62606654D01*
X124097942Y-62540248D01*
X124125294Y-62513641D01*
X124300328Y-62388792D01*
X124308200Y-62382139D01*
X124459052Y-62231812D01*
X124465730Y-62223965D01*
X124590003Y-62051020D01*
X124595313Y-62042183D01*
X124689670Y-61851267D01*
X124693469Y-61841672D01*
X124755377Y-61637910D01*
X124757555Y-61627837D01*
X124758986Y-61616962D01*
X124756775Y-61602778D01*
X124743617Y-61599000D01*
X122108225Y-61599000D01*
X122094694Y-61602973D01*
X122093257Y-61612966D01*
X122123565Y-61747446D01*
X122126645Y-61757275D01*
X122206770Y-61954603D01*
X122211413Y-61963794D01*
X122322694Y-62145388D01*
X122328777Y-62153699D01*
X122468213Y-62314667D01*
X122475580Y-62321883D01*
X122639434Y-62457916D01*
X122647881Y-62463831D01*
X122716969Y-62504203D01*
X122765693Y-62555842D01*
X122778764Y-62625625D01*
X122752033Y-62691396D01*
X122711584Y-62724752D01*
X122698607Y-62731507D01*
X122694474Y-62734610D01*
X122694471Y-62734612D01*
X122524100Y-62862530D01*
X122519965Y-62865635D01*
X122516393Y-62869373D01*
X122372035Y-63020435D01*
X122365629Y-63027138D01*
X122362715Y-63031410D01*
X122362714Y-63031411D01*
X122351460Y-63047909D01*
X122239743Y-63211680D01*
X122219524Y-63255239D01*
X122148539Y-63408164D01*
X122145688Y-63414305D01*
X122085989Y-63629570D01*
X122085440Y-63634704D01*
X122085440Y-63634706D01*
X122077752Y-63706644D01*
X122065903Y-63817527D01*
X122064707Y-63828715D01*
X122037579Y-63894325D01*
X121979287Y-63934853D01*
X121908337Y-63937432D01*
X121850325Y-63904421D01*
X119025088Y-61079183D01*
X122089389Y-61079183D01*
X122090912Y-61087607D01*
X122103292Y-61091000D01*
X123152885Y-61091000D01*
X123168124Y-61086525D01*
X123169329Y-61085135D01*
X123171000Y-61077452D01*
X123171000Y-61072885D01*
X123679000Y-61072885D01*
X123683475Y-61088124D01*
X123684865Y-61089329D01*
X123692548Y-61091000D01*
X124743344Y-61091000D01*
X124756875Y-61087027D01*
X124758180Y-61077947D01*
X124716214Y-60910875D01*
X124712894Y-60901124D01*
X124627972Y-60705814D01*
X124623105Y-60696739D01*
X124507426Y-60517926D01*
X124501136Y-60509757D01*
X124357806Y-60352240D01*
X124350273Y-60345215D01*
X124183139Y-60213222D01*
X124174552Y-60207517D01*
X124137116Y-60186851D01*
X124087146Y-60136419D01*
X124072374Y-60066976D01*
X124097490Y-60000571D01*
X124124842Y-59973964D01*
X124300327Y-59848792D01*
X124308200Y-59842139D01*
X124459052Y-59691812D01*
X124465730Y-59683965D01*
X124590003Y-59511020D01*
X124595313Y-59502183D01*
X124689670Y-59311267D01*
X124693469Y-59301672D01*
X124755377Y-59097910D01*
X124757555Y-59087837D01*
X124758986Y-59076962D01*
X124756775Y-59062778D01*
X124743617Y-59059000D01*
X123697115Y-59059000D01*
X123681876Y-59063475D01*
X123680671Y-59064865D01*
X123679000Y-59072548D01*
X123679000Y-61072885D01*
X123171000Y-61072885D01*
X123171000Y-59077115D01*
X123166525Y-59061876D01*
X123165135Y-59060671D01*
X123157452Y-59059000D01*
X122108225Y-59059000D01*
X122094694Y-59062973D01*
X122093257Y-59072966D01*
X122123565Y-59207446D01*
X122126645Y-59217275D01*
X122206770Y-59414603D01*
X122211413Y-59423794D01*
X122322694Y-59605388D01*
X122328777Y-59613699D01*
X122468213Y-59774667D01*
X122475580Y-59781883D01*
X122639434Y-59917916D01*
X122647881Y-59923831D01*
X122717479Y-59964501D01*
X122766203Y-60016140D01*
X122779274Y-60085923D01*
X122752543Y-60151694D01*
X122712087Y-60185053D01*
X122703462Y-60189542D01*
X122694738Y-60195036D01*
X122524433Y-60322905D01*
X122516726Y-60329748D01*
X122369590Y-60483717D01*
X122363104Y-60491727D01*
X122243098Y-60667649D01*
X122238000Y-60676623D01*
X122148338Y-60869783D01*
X122144775Y-60879470D01*
X122089389Y-61079183D01*
X119025088Y-61079183D01*
X117426188Y-59480283D01*
X112791152Y-54845247D01*
X112783612Y-54836961D01*
X112779500Y-54830482D01*
X112765676Y-54817500D01*
X112729849Y-54783857D01*
X112727007Y-54781102D01*
X112707270Y-54761365D01*
X112704073Y-54758885D01*
X112695051Y-54751180D01*
X112662821Y-54720914D01*
X112655875Y-54717095D01*
X112655872Y-54717093D01*
X112645066Y-54711152D01*
X112628547Y-54700301D01*
X112628083Y-54699941D01*
X112612541Y-54687886D01*
X112605272Y-54684741D01*
X112605268Y-54684738D01*
X112571963Y-54670326D01*
X112561313Y-54665109D01*
X112522560Y-54643805D01*
X112502937Y-54638767D01*
X112484234Y-54632363D01*
X112472920Y-54627467D01*
X112472919Y-54627467D01*
X112465645Y-54624319D01*
X112457822Y-54623080D01*
X112457812Y-54623077D01*
X112421976Y-54617401D01*
X112410356Y-54614995D01*
X112375211Y-54605972D01*
X112375210Y-54605972D01*
X112367530Y-54604000D01*
X112347276Y-54604000D01*
X112327565Y-54602449D01*
X112315386Y-54600520D01*
X112307557Y-54599280D01*
X112299665Y-54600026D01*
X112263539Y-54603441D01*
X112251681Y-54604000D01*
X95378640Y-54604000D01*
X95310519Y-54583998D01*
X95271497Y-54544304D01*
X95226116Y-54470969D01*
X95220934Y-54465796D01*
X95108184Y-54353242D01*
X95108179Y-54353238D01*
X95103003Y-54348071D01*
X95002306Y-54286000D01*
X94961150Y-54260631D01*
X94961148Y-54260630D01*
X94954920Y-54256791D01*
X94789809Y-54202026D01*
X94782973Y-54201326D01*
X94782970Y-54201325D01*
X94731474Y-54196049D01*
X94687072Y-54191500D01*
X94112928Y-54191500D01*
X94109682Y-54191837D01*
X94109678Y-54191837D01*
X94015765Y-54201581D01*
X94015761Y-54201582D01*
X94008907Y-54202293D01*
X94002371Y-54204474D01*
X94002369Y-54204474D01*
X93869605Y-54248768D01*
X93843893Y-54257346D01*
X93695969Y-54348884D01*
X93690796Y-54354066D01*
X93690791Y-54354070D01*
X93595511Y-54449517D01*
X93533229Y-54483597D01*
X93506338Y-54486500D01*
X92737550Y-54486500D01*
X92679842Y-54471736D01*
X92676705Y-54469385D01*
X92540316Y-54418255D01*
X92478134Y-54411500D01*
X90959500Y-54411500D01*
X90891379Y-54391498D01*
X90844886Y-54337842D01*
X90833500Y-54285500D01*
X90833500Y-53502524D01*
X90853502Y-53434403D01*
X90865858Y-53418221D01*
X90939040Y-53336944D01*
X91034527Y-53171556D01*
X91093542Y-52989928D01*
X91100780Y-52921067D01*
X91112814Y-52806565D01*
X91113504Y-52800000D01*
X91096341Y-52636703D01*
X91094232Y-52616635D01*
X91094232Y-52616633D01*
X91093542Y-52610072D01*
X91034527Y-52428444D01*
X91015024Y-52394663D01*
X90942341Y-52268774D01*
X90939040Y-52263056D01*
X90811253Y-52121134D01*
X90674108Y-52021492D01*
X90662094Y-52012763D01*
X90662093Y-52012762D01*
X90656752Y-52008882D01*
X90650724Y-52006198D01*
X90650722Y-52006197D01*
X90488319Y-51933891D01*
X90488318Y-51933891D01*
X90482288Y-51931206D01*
X90383148Y-51910133D01*
X90301944Y-51892872D01*
X90301939Y-51892872D01*
X90295487Y-51891500D01*
X90104513Y-51891500D01*
X90098061Y-51892872D01*
X90098056Y-51892872D01*
X90016852Y-51910133D01*
X89917712Y-51931206D01*
X89911682Y-51933891D01*
X89911681Y-51933891D01*
X89749278Y-52006197D01*
X89749276Y-52006198D01*
X89743248Y-52008882D01*
X89737907Y-52012762D01*
X89737906Y-52012763D01*
X89725892Y-52021492D01*
X89588747Y-52121134D01*
X89460960Y-52263056D01*
X89457659Y-52268774D01*
X89384977Y-52394663D01*
X89365473Y-52428444D01*
X89306458Y-52610072D01*
X89305768Y-52616633D01*
X89305768Y-52616635D01*
X89303659Y-52636703D01*
X89286496Y-52800000D01*
X89287186Y-52806565D01*
X89299221Y-52921067D01*
X89306458Y-52989928D01*
X89365473Y-53171556D01*
X89460960Y-53336944D01*
X89534137Y-53418215D01*
X89564853Y-53482221D01*
X89566500Y-53502524D01*
X89566500Y-54286000D01*
X89546498Y-54354121D01*
X89492842Y-54400614D01*
X89440500Y-54412000D01*
X89168115Y-54412000D01*
X89152876Y-54416475D01*
X89151671Y-54417865D01*
X89150000Y-54425548D01*
X89150000Y-55595500D01*
X89129998Y-55663621D01*
X89076342Y-55710114D01*
X89024000Y-55721500D01*
X88870453Y-55721500D01*
X88802332Y-55701498D01*
X88755839Y-55647842D01*
X88745735Y-55577568D01*
X88747332Y-55568718D01*
X88750000Y-55556453D01*
X88750000Y-55338115D01*
X88745525Y-55322876D01*
X88744135Y-55321671D01*
X88736452Y-55320000D01*
X87680116Y-55320000D01*
X87664877Y-55324475D01*
X87663672Y-55325865D01*
X87662001Y-55333548D01*
X87662001Y-55364669D01*
X87662371Y-55371490D01*
X87668748Y-55430207D01*
X87666353Y-55430467D01*
X87666351Y-55459533D01*
X87668748Y-55459793D01*
X87662369Y-55518514D01*
X87662000Y-55525328D01*
X87662000Y-55551885D01*
X87666475Y-55567124D01*
X87667865Y-55568329D01*
X87675548Y-55570000D01*
X87710712Y-55570000D01*
X87778833Y-55590002D01*
X87825326Y-55643658D01*
X87835430Y-55713932D01*
X87805936Y-55778512D01*
X87757095Y-55813152D01*
X87720088Y-55827804D01*
X87708858Y-55831649D01*
X87674017Y-55841771D01*
X87674016Y-55841771D01*
X87666407Y-55843982D01*
X87659588Y-55848015D01*
X87659583Y-55848017D01*
X87648972Y-55854293D01*
X87631224Y-55862988D01*
X87612383Y-55870448D01*
X87605967Y-55875110D01*
X87605966Y-55875110D01*
X87576613Y-55896436D01*
X87566693Y-55902952D01*
X87535465Y-55921420D01*
X87535462Y-55921422D01*
X87528638Y-55925458D01*
X87514314Y-55939782D01*
X87499287Y-55952617D01*
X87482893Y-55964528D01*
X87477840Y-55970636D01*
X87454708Y-55998597D01*
X87446720Y-56007375D01*
X87307744Y-56146352D01*
X87299462Y-56153888D01*
X87292982Y-56158000D01*
X87287555Y-56163779D01*
X87287554Y-56163780D01*
X87246356Y-56207652D01*
X87243601Y-56210494D01*
X87223865Y-56230230D01*
X87221385Y-56233427D01*
X87213682Y-56242447D01*
X87183414Y-56274679D01*
X87179595Y-56281625D01*
X87179593Y-56281628D01*
X87173652Y-56292434D01*
X87162801Y-56308953D01*
X87150386Y-56324959D01*
X87147241Y-56332228D01*
X87147238Y-56332232D01*
X87132826Y-56365537D01*
X87127609Y-56376187D01*
X87106305Y-56414940D01*
X87104334Y-56422615D01*
X87104334Y-56422616D01*
X87101267Y-56434562D01*
X87094863Y-56453266D01*
X87086819Y-56471855D01*
X87085580Y-56479678D01*
X87085577Y-56479688D01*
X87079901Y-56515524D01*
X87077495Y-56527144D01*
X87075763Y-56533891D01*
X87066500Y-56569970D01*
X87066500Y-56590224D01*
X87064949Y-56609934D01*
X87061780Y-56629943D01*
X87062526Y-56637835D01*
X87065941Y-56673961D01*
X87066500Y-56685819D01*
X87066500Y-58759910D01*
X87046498Y-58828031D01*
X86992842Y-58874524D01*
X86936557Y-58883716D01*
X86936557Y-58885496D01*
X86745583Y-58885496D01*
X86739131Y-58886868D01*
X86739126Y-58886868D01*
X86674755Y-58900551D01*
X86558782Y-58925202D01*
X86552752Y-58927887D01*
X86552751Y-58927887D01*
X86390348Y-59000193D01*
X86390346Y-59000194D01*
X86384318Y-59002878D01*
X86378977Y-59006758D01*
X86378976Y-59006759D01*
X86282140Y-59077115D01*
X86229817Y-59115130D01*
X86225405Y-59120029D01*
X86225396Y-59120038D01*
X86221099Y-59124811D01*
X86160653Y-59162050D01*
X86127464Y-59166500D01*
X85861589Y-59166500D01*
X85793468Y-59146498D01*
X85786024Y-59141326D01*
X85763988Y-59124811D01*
X85696705Y-59074385D01*
X85560316Y-59023255D01*
X85498134Y-59016500D01*
X84209500Y-59016500D01*
X84141379Y-58996498D01*
X84094886Y-58942842D01*
X84083500Y-58890500D01*
X84083500Y-58564594D01*
X84103502Y-58496473D01*
X84120405Y-58475499D01*
X84251918Y-58343986D01*
X84314230Y-58309960D01*
X84351719Y-58307906D01*
X84354513Y-58308500D01*
X84545487Y-58308500D01*
X84551939Y-58307128D01*
X84551944Y-58307128D01*
X84638887Y-58288647D01*
X84732288Y-58268794D01*
X84766484Y-58253569D01*
X84900722Y-58193803D01*
X84900724Y-58193802D01*
X84906752Y-58191118D01*
X84940650Y-58166490D01*
X85022721Y-58106861D01*
X85061253Y-58078866D01*
X85111806Y-58022721D01*
X85184621Y-57941852D01*
X85184622Y-57941851D01*
X85189040Y-57936944D01*
X85274024Y-57789748D01*
X85281223Y-57777279D01*
X85281224Y-57777278D01*
X85284527Y-57771556D01*
X85343542Y-57589928D01*
X85345200Y-57574159D01*
X85362814Y-57406565D01*
X85363504Y-57400000D01*
X85361848Y-57384242D01*
X85344232Y-57216635D01*
X85344232Y-57216633D01*
X85343542Y-57210072D01*
X85284527Y-57028444D01*
X85189040Y-56863056D01*
X85165676Y-56837107D01*
X85065675Y-56726045D01*
X85065674Y-56726044D01*
X85061253Y-56721134D01*
X84943555Y-56635621D01*
X84912094Y-56612763D01*
X84912093Y-56612762D01*
X84906752Y-56608882D01*
X84900724Y-56606198D01*
X84900722Y-56606197D01*
X84738319Y-56533891D01*
X84738318Y-56533891D01*
X84732288Y-56531206D01*
X84573655Y-56497487D01*
X84511183Y-56463760D01*
X84476861Y-56401610D01*
X84481589Y-56330771D01*
X84510758Y-56285146D01*
X85894019Y-54901885D01*
X87662000Y-54901885D01*
X87666475Y-54917124D01*
X87667865Y-54918329D01*
X87675548Y-54920000D01*
X88731885Y-54920000D01*
X88747124Y-54915525D01*
X88748329Y-54914135D01*
X88750000Y-54906452D01*
X88750000Y-54430116D01*
X88745525Y-54414877D01*
X88744135Y-54413672D01*
X88736452Y-54412001D01*
X88125331Y-54412001D01*
X88118510Y-54412371D01*
X88067648Y-54417895D01*
X88052396Y-54421521D01*
X87931946Y-54466676D01*
X87916351Y-54475214D01*
X87814276Y-54551715D01*
X87801715Y-54564276D01*
X87725214Y-54666351D01*
X87716676Y-54681946D01*
X87671522Y-54802394D01*
X87667895Y-54817649D01*
X87662369Y-54868514D01*
X87662000Y-54875328D01*
X87662000Y-54901885D01*
X85894019Y-54901885D01*
X91298659Y-49497245D01*
X91360971Y-49463219D01*
X91431786Y-49468284D01*
X91488622Y-49510831D01*
X91513433Y-49577351D01*
X91506563Y-49628296D01*
X91485548Y-49687806D01*
X91465075Y-49745780D01*
X91449021Y-49827232D01*
X91422187Y-49963380D01*
X91412919Y-50010400D01*
X91412692Y-50014953D01*
X91412692Y-50014956D01*
X91403241Y-50204818D01*
X91399509Y-50279777D01*
X91425125Y-50548269D01*
X91426210Y-50552703D01*
X91426211Y-50552709D01*
X91476482Y-50758150D01*
X91489231Y-50810250D01*
X91590485Y-51060233D01*
X91726765Y-51292982D01*
X91729618Y-51296549D01*
X91847186Y-51443560D01*
X91895216Y-51503619D01*
X92092309Y-51687734D01*
X92313916Y-51841468D01*
X92317999Y-51843499D01*
X92318002Y-51843501D01*
X92409375Y-51888958D01*
X92555394Y-51961601D01*
X92559728Y-51963022D01*
X92559731Y-51963023D01*
X92807353Y-52044198D01*
X92807359Y-52044199D01*
X92811686Y-52045618D01*
X92816177Y-52046398D01*
X92816178Y-52046398D01*
X93073640Y-52091101D01*
X93073648Y-52091102D01*
X93077421Y-52091757D01*
X93081258Y-52091948D01*
X93161078Y-52095922D01*
X93161086Y-52095922D01*
X93162649Y-52096000D01*
X93331012Y-52096000D01*
X93333280Y-52095835D01*
X93333292Y-52095835D01*
X93464384Y-52086323D01*
X93531504Y-52081453D01*
X93535959Y-52080469D01*
X93535962Y-52080469D01*
X93790412Y-52024291D01*
X93790416Y-52024290D01*
X93794872Y-52023306D01*
X93946327Y-51965925D01*
X94042818Y-51929368D01*
X94042821Y-51929367D01*
X94047088Y-51927750D01*
X94208953Y-51837842D01*
X94278875Y-51799004D01*
X94278876Y-51799003D01*
X94282868Y-51796786D01*
X94497273Y-51633157D01*
X94506321Y-51623902D01*
X94673819Y-51452560D01*
X94685812Y-51440292D01*
X94844534Y-51222230D01*
X94897805Y-51120979D01*
X94967990Y-50987579D01*
X94967993Y-50987573D01*
X94970115Y-50983539D01*
X94972682Y-50976272D01*
X95058402Y-50733533D01*
X95058402Y-50733532D01*
X95059925Y-50729220D01*
X95095590Y-50548269D01*
X95111200Y-50469072D01*
X95111201Y-50469066D01*
X95112081Y-50464600D01*
X95113041Y-50445321D01*
X95125264Y-50199792D01*
X95125264Y-50199786D01*
X95125491Y-50195223D01*
X95099875Y-49926731D01*
X95090838Y-49889797D01*
X95036855Y-49669188D01*
X95035769Y-49664750D01*
X94934515Y-49414767D01*
X94888197Y-49335662D01*
X94871038Y-49266773D01*
X94893849Y-49199540D01*
X94949387Y-49155313D01*
X94996930Y-49145999D01*
X117897905Y-49145999D01*
X117966026Y-49166001D01*
X117987000Y-49182904D01*
X122029595Y-53225499D01*
X122063621Y-53287811D01*
X122066500Y-53314594D01*
X122066500Y-54623134D01*
X122073255Y-54685316D01*
X122124385Y-54821705D01*
X122211739Y-54938261D01*
X122328295Y-55025615D01*
X122336704Y-55028767D01*
X122336705Y-55028768D01*
X122445451Y-55069535D01*
X122502216Y-55112176D01*
X122526916Y-55178738D01*
X122511709Y-55248087D01*
X122492316Y-55274568D01*
X122445123Y-55323953D01*
X122365629Y-55407138D01*
X122362715Y-55411410D01*
X122362714Y-55411411D01*
X122329710Y-55459793D01*
X122239743Y-55591680D01*
X122225396Y-55622588D01*
X122152614Y-55779385D01*
X122145688Y-55794305D01*
X122085989Y-56009570D01*
X122062251Y-56231695D01*
X122062548Y-56236848D01*
X122062548Y-56236851D01*
X122073948Y-56434562D01*
X122075110Y-56454715D01*
X122076247Y-56459761D01*
X122076248Y-56459767D01*
X122086197Y-56503911D01*
X122124222Y-56672639D01*
X122176209Y-56800669D01*
X122203864Y-56868774D01*
X122208266Y-56879616D01*
X122256086Y-56957651D01*
X122321468Y-57064345D01*
X122324987Y-57070088D01*
X122328367Y-57073990D01*
X122336710Y-57083621D01*
X122471250Y-57238938D01*
X122643126Y-57381632D01*
X122701180Y-57415556D01*
X122716955Y-57424774D01*
X122765679Y-57476412D01*
X122778750Y-57546195D01*
X122752019Y-57611967D01*
X122711562Y-57645327D01*
X122703457Y-57649546D01*
X122694738Y-57655036D01*
X122524433Y-57782905D01*
X122516726Y-57789748D01*
X122369590Y-57943717D01*
X122363104Y-57951727D01*
X122243098Y-58127649D01*
X122238000Y-58136623D01*
X122148338Y-58329783D01*
X122144775Y-58339470D01*
X122089389Y-58539183D01*
X122090912Y-58547607D01*
X122103292Y-58551000D01*
X124743344Y-58551000D01*
X124756875Y-58547027D01*
X124758180Y-58537947D01*
X124716214Y-58370875D01*
X124712894Y-58361124D01*
X124627972Y-58165814D01*
X124623105Y-58156739D01*
X124507426Y-57977926D01*
X124501136Y-57969757D01*
X124357806Y-57812240D01*
X124350273Y-57805215D01*
X124183139Y-57673222D01*
X124174556Y-57667520D01*
X124137602Y-57647120D01*
X124087631Y-57596687D01*
X124072859Y-57527245D01*
X124097975Y-57460839D01*
X124125327Y-57434232D01*
X124159610Y-57409778D01*
X124304860Y-57306173D01*
X124363769Y-57247470D01*
X124459435Y-57152137D01*
X124463096Y-57148489D01*
X124477754Y-57128091D01*
X124590435Y-56971277D01*
X124593453Y-56967077D01*
X124597409Y-56959074D01*
X124690136Y-56771453D01*
X124690137Y-56771451D01*
X124692430Y-56766811D01*
X124736227Y-56622660D01*
X124755865Y-56558023D01*
X124755865Y-56558021D01*
X124757370Y-56553069D01*
X124786529Y-56331590D01*
X124787082Y-56308953D01*
X124788074Y-56268365D01*
X124788074Y-56268361D01*
X124788156Y-56265000D01*
X124769852Y-56042361D01*
X124715431Y-55825702D01*
X124626354Y-55620840D01*
X124581745Y-55551885D01*
X124507822Y-55437617D01*
X124507820Y-55437614D01*
X124505014Y-55433277D01*
X124489506Y-55416234D01*
X124357798Y-55271488D01*
X124326746Y-55207642D01*
X124335141Y-55137143D01*
X124380317Y-55082375D01*
X124406761Y-55068706D01*
X124513297Y-55028767D01*
X124521705Y-55025615D01*
X124638261Y-54938261D01*
X124725615Y-54821705D01*
X124776745Y-54685316D01*
X124783500Y-54623134D01*
X124783500Y-54157512D01*
X132989433Y-54157512D01*
X132989662Y-54160357D01*
X132989662Y-54160360D01*
X133021984Y-54562070D01*
X133022273Y-54565668D01*
X133091969Y-54969168D01*
X133197949Y-55364691D01*
X133214516Y-55409718D01*
X133338152Y-55745750D01*
X133339340Y-55748980D01*
X133340565Y-55751560D01*
X133340568Y-55751567D01*
X133512730Y-56114138D01*
X133514979Y-56118874D01*
X133603388Y-56268365D01*
X133707356Y-56444166D01*
X133723418Y-56471326D01*
X133725080Y-56473630D01*
X133725081Y-56473632D01*
X133958283Y-56796973D01*
X133962944Y-56803436D01*
X134231584Y-57112471D01*
X134527126Y-57395886D01*
X134529344Y-57397656D01*
X134529349Y-57397661D01*
X134650455Y-57494338D01*
X134847139Y-57651349D01*
X134849520Y-57652919D01*
X135169571Y-57863953D01*
X135188989Y-57876757D01*
X135191519Y-57878113D01*
X135191518Y-57878113D01*
X135537779Y-58063777D01*
X135549860Y-58070255D01*
X135926784Y-58230250D01*
X136014256Y-58258334D01*
X136313931Y-58354549D01*
X136313935Y-58354550D01*
X136316657Y-58355424D01*
X136319447Y-58356048D01*
X136319452Y-58356049D01*
X136713477Y-58444125D01*
X136713488Y-58444127D01*
X136716271Y-58444749D01*
X137122335Y-58497487D01*
X137531509Y-58513206D01*
X137534371Y-58513056D01*
X137534372Y-58513056D01*
X137937566Y-58491926D01*
X137937573Y-58491925D01*
X137940422Y-58491776D01*
X137943245Y-58491369D01*
X137943247Y-58491369D01*
X138342889Y-58433780D01*
X138342896Y-58433779D01*
X138345711Y-58433373D01*
X138744038Y-58338478D01*
X138746736Y-58337570D01*
X138746743Y-58337568D01*
X139129414Y-58208785D01*
X139129420Y-58208783D01*
X139132126Y-58207872D01*
X139506779Y-58042630D01*
X139565193Y-58010251D01*
X139803576Y-57878113D01*
X139864914Y-57844113D01*
X139963257Y-57777279D01*
X140201198Y-57615575D01*
X140201200Y-57615573D01*
X140203583Y-57613954D01*
X140209758Y-57608882D01*
X140517779Y-57355870D01*
X140517783Y-57355867D01*
X140519998Y-57354047D01*
X140522036Y-57352038D01*
X140522043Y-57352031D01*
X140711776Y-57164928D01*
X140811555Y-57066533D01*
X140854681Y-57015500D01*
X141074008Y-56755963D01*
X141074013Y-56755957D01*
X141075854Y-56753778D01*
X141083129Y-56743389D01*
X141309084Y-56420691D01*
X141310719Y-56418356D01*
X141514217Y-56063027D01*
X141541698Y-56003003D01*
X141683485Y-55693316D01*
X141683488Y-55693307D01*
X141684674Y-55690718D01*
X141820685Y-55304492D01*
X141835578Y-55245635D01*
X141920430Y-54910307D01*
X141920431Y-54910303D01*
X141921133Y-54907528D01*
X141921851Y-54902999D01*
X141984743Y-54505910D01*
X141985189Y-54503095D01*
X141995238Y-54351797D01*
X142012210Y-54096271D01*
X142012210Y-54096260D01*
X142012326Y-54094520D01*
X142013316Y-54000000D01*
X141994741Y-53590947D01*
X141992439Y-53574138D01*
X141939556Y-53188087D01*
X141939169Y-53185260D01*
X141937327Y-53177279D01*
X141892558Y-52983365D01*
X141847057Y-52786280D01*
X141795114Y-52628295D01*
X141720057Y-52400005D01*
X141720054Y-52399998D01*
X141719164Y-52397290D01*
X141556542Y-52021492D01*
X141410588Y-51753794D01*
X141361899Y-51664492D01*
X141361895Y-51664485D01*
X141360529Y-51661980D01*
X141252128Y-51500053D01*
X141134332Y-51324090D01*
X141134324Y-51324079D01*
X141132740Y-51321713D01*
X140875049Y-51003491D01*
X140859576Y-50987579D01*
X140591567Y-50711980D01*
X140591563Y-50711976D01*
X140589577Y-50709934D01*
X140587419Y-50708084D01*
X140587409Y-50708075D01*
X140280849Y-50445321D01*
X140280844Y-50445317D01*
X140278675Y-50443458D01*
X140276344Y-50441801D01*
X140276337Y-50441796D01*
X140131907Y-50339155D01*
X139944900Y-50206257D01*
X139608384Y-50010400D01*
X139593474Y-50001722D01*
X139593469Y-50001719D01*
X139591001Y-50000283D01*
X139356846Y-49891095D01*
X139222487Y-49828442D01*
X139222477Y-49828438D01*
X139219891Y-49827232D01*
X139217194Y-49826261D01*
X138837314Y-49689495D01*
X138837305Y-49689492D01*
X138834624Y-49688527D01*
X138536805Y-49610951D01*
X138441140Y-49586032D01*
X138441134Y-49586031D01*
X138438371Y-49585311D01*
X138034395Y-49518433D01*
X138031552Y-49518224D01*
X138031550Y-49518224D01*
X137628865Y-49488653D01*
X137626019Y-49488444D01*
X137456043Y-49491411D01*
X137219458Y-49495540D01*
X137219453Y-49495540D01*
X137216607Y-49495590D01*
X137213774Y-49495898D01*
X137213770Y-49495898D01*
X136884896Y-49531625D01*
X136809527Y-49539813D01*
X136408130Y-49620749D01*
X136405402Y-49621562D01*
X136405391Y-49621565D01*
X136092867Y-49714733D01*
X136015721Y-49737731D01*
X136013060Y-49738795D01*
X136013058Y-49738796D01*
X135788927Y-49828442D01*
X135635529Y-49889797D01*
X135632982Y-49891095D01*
X135273227Y-50074399D01*
X135273222Y-50074402D01*
X135270684Y-50075695D01*
X134924189Y-50293894D01*
X134598896Y-50542599D01*
X134297483Y-50819763D01*
X134022430Y-51123104D01*
X134020706Y-51125391D01*
X134020705Y-51125393D01*
X133802639Y-51414777D01*
X133776002Y-51450125D01*
X133627064Y-51690338D01*
X133562222Y-51794918D01*
X133560227Y-51798135D01*
X133558947Y-51800691D01*
X133558942Y-51800700D01*
X133408858Y-52100412D01*
X133376881Y-52164269D01*
X133375840Y-52166925D01*
X133375837Y-52166932D01*
X133242818Y-52506358D01*
X133227473Y-52545513D01*
X133226681Y-52548240D01*
X133226677Y-52548251D01*
X133120881Y-52912404D01*
X133113233Y-52938729D01*
X133035101Y-53340681D01*
X132993721Y-53748060D01*
X132991083Y-54000000D01*
X132989433Y-54157512D01*
X124783500Y-54157512D01*
X124783500Y-52826866D01*
X124776745Y-52764684D01*
X124725615Y-52628295D01*
X124638261Y-52511739D01*
X124521705Y-52424385D01*
X124385316Y-52373255D01*
X124323134Y-52366500D01*
X123014594Y-52366500D01*
X122946473Y-52346498D01*
X122925499Y-52329595D01*
X118716151Y-48120246D01*
X118708611Y-48111960D01*
X118704499Y-48105481D01*
X118654847Y-48058855D01*
X118652006Y-48056101D01*
X118632269Y-48036364D01*
X118629072Y-48033884D01*
X118620050Y-48026179D01*
X118606615Y-48013563D01*
X118587820Y-47995913D01*
X118580874Y-47992094D01*
X118580871Y-47992092D01*
X118570065Y-47986151D01*
X118553546Y-47975300D01*
X118553082Y-47974940D01*
X118537540Y-47962885D01*
X118530271Y-47959740D01*
X118530267Y-47959737D01*
X118496962Y-47945325D01*
X118486312Y-47940108D01*
X118447559Y-47918804D01*
X118427936Y-47913766D01*
X118409233Y-47907362D01*
X118397919Y-47902466D01*
X118397918Y-47902466D01*
X118390644Y-47899318D01*
X118382821Y-47898079D01*
X118382811Y-47898076D01*
X118346975Y-47892400D01*
X118335355Y-47889994D01*
X118300210Y-47880971D01*
X118300209Y-47880971D01*
X118292529Y-47878999D01*
X118272275Y-47878999D01*
X118252564Y-47877448D01*
X118250033Y-47877047D01*
X118232556Y-47874279D01*
X118224664Y-47875025D01*
X118188538Y-47878440D01*
X118176680Y-47878999D01*
X91466264Y-47878999D01*
X91455080Y-47878472D01*
X91447592Y-47876798D01*
X91439669Y-47877047D01*
X91379534Y-47878937D01*
X91375576Y-47878999D01*
X91347645Y-47878999D01*
X91343730Y-47879494D01*
X91343726Y-47879494D01*
X91343668Y-47879502D01*
X91343639Y-47879505D01*
X91331797Y-47880438D01*
X91287611Y-47881826D01*
X91270245Y-47886871D01*
X91268159Y-47887477D01*
X91248807Y-47891485D01*
X91236569Y-47893031D01*
X91236567Y-47893032D01*
X91228704Y-47894025D01*
X91187587Y-47910305D01*
X91176386Y-47914140D01*
X91133907Y-47926481D01*
X91127088Y-47930514D01*
X91127083Y-47930516D01*
X91116472Y-47936792D01*
X91098722Y-47945489D01*
X91079884Y-47952947D01*
X91073468Y-47957608D01*
X91073467Y-47957609D01*
X91044126Y-47978927D01*
X91034202Y-47985446D01*
X91002961Y-48003921D01*
X91002956Y-48003925D01*
X90996138Y-48007957D01*
X90981814Y-48022281D01*
X90966782Y-48035120D01*
X90950394Y-48047027D01*
X90922213Y-48081092D01*
X90914223Y-48089872D01*
X82666733Y-56337362D01*
X82604421Y-56371388D01*
X82533606Y-56366323D01*
X82476770Y-56323776D01*
X82451959Y-56257256D01*
X82458045Y-56208600D01*
X82495315Y-56096234D01*
X82498181Y-56082868D01*
X82507672Y-55990230D01*
X82508000Y-55983815D01*
X82508000Y-55972115D01*
X82503525Y-55956876D01*
X82502135Y-55955671D01*
X82494452Y-55954000D01*
X81734615Y-55954000D01*
X81719376Y-55958475D01*
X81718171Y-55959865D01*
X81716500Y-55967548D01*
X81716500Y-56664885D01*
X81720975Y-56680124D01*
X81722365Y-56681329D01*
X81730048Y-56683000D01*
X81808766Y-56683000D01*
X81815282Y-56682663D01*
X81909132Y-56672925D01*
X81922528Y-56670032D01*
X82033495Y-56633010D01*
X82104444Y-56630426D01*
X82165528Y-56666609D01*
X82197353Y-56730073D01*
X82189814Y-56800669D01*
X82162466Y-56841629D01*
X82107747Y-56896348D01*
X82099461Y-56903888D01*
X82092982Y-56908000D01*
X82087557Y-56913777D01*
X82046357Y-56957651D01*
X82043602Y-56960493D01*
X82023865Y-56980230D01*
X82021385Y-56983427D01*
X82013682Y-56992447D01*
X81983414Y-57024679D01*
X81979595Y-57031625D01*
X81979593Y-57031628D01*
X81973652Y-57042434D01*
X81962801Y-57058953D01*
X81950386Y-57074959D01*
X81948082Y-57080283D01*
X81896881Y-57128091D01*
X81840319Y-57141500D01*
X81376866Y-57141500D01*
X81373469Y-57141869D01*
X81351165Y-57144292D01*
X81314684Y-57148255D01*
X81314452Y-57146116D01*
X81285488Y-57146166D01*
X81285207Y-57148748D01*
X81226486Y-57142369D01*
X81219672Y-57142000D01*
X81172115Y-57142000D01*
X81156876Y-57146475D01*
X81155671Y-57147865D01*
X81151121Y-57168783D01*
X81149903Y-57168518D01*
X81133998Y-57222687D01*
X81103565Y-57255392D01*
X81061739Y-57286739D01*
X81006185Y-57360865D01*
X81000826Y-57368015D01*
X80943967Y-57410530D01*
X80873148Y-57415556D01*
X80810855Y-57381496D01*
X80799174Y-57368015D01*
X80791294Y-57357500D01*
X80758674Y-57313976D01*
X80733826Y-57247470D01*
X80733500Y-57238411D01*
X80733500Y-56755214D01*
X80753502Y-56687093D01*
X80807158Y-56640600D01*
X80877432Y-56630496D01*
X80899167Y-56635621D01*
X81003766Y-56670315D01*
X81017132Y-56673181D01*
X81109770Y-56682672D01*
X81116185Y-56683000D01*
X81190385Y-56683000D01*
X81205624Y-56678525D01*
X81206829Y-56677135D01*
X81208500Y-56669452D01*
X81208500Y-55427885D01*
X81716500Y-55427885D01*
X81720975Y-55443124D01*
X81722365Y-55444329D01*
X81730048Y-55446000D01*
X82489885Y-55446000D01*
X82505124Y-55441525D01*
X82506329Y-55440135D01*
X82508000Y-55432452D01*
X82508000Y-55416234D01*
X82507663Y-55409718D01*
X82497925Y-55315868D01*
X82495032Y-55302472D01*
X82444512Y-55151047D01*
X82438347Y-55137885D01*
X82354574Y-55002508D01*
X82345540Y-54991110D01*
X82232871Y-54878637D01*
X82221460Y-54869625D01*
X82085937Y-54786088D01*
X82072759Y-54779944D01*
X81921234Y-54729685D01*
X81907868Y-54726819D01*
X81815230Y-54717328D01*
X81808815Y-54717000D01*
X81734615Y-54717000D01*
X81719376Y-54721475D01*
X81718171Y-54722865D01*
X81716500Y-54730548D01*
X81716500Y-55427885D01*
X81208500Y-55427885D01*
X81208500Y-54735115D01*
X81204025Y-54719876D01*
X81202635Y-54718671D01*
X81194952Y-54717000D01*
X81116234Y-54717000D01*
X81109718Y-54717337D01*
X81015868Y-54727075D01*
X81002472Y-54729968D01*
X80851047Y-54780488D01*
X80837885Y-54786653D01*
X80702508Y-54870426D01*
X80691106Y-54879464D01*
X80689433Y-54881139D01*
X80688007Y-54881919D01*
X80685373Y-54884007D01*
X80685016Y-54883556D01*
X80627151Y-54915219D01*
X80556331Y-54910216D01*
X80511246Y-54881299D01*
X80508185Y-54878244D01*
X80503003Y-54873071D01*
X80495610Y-54868514D01*
X80361150Y-54785631D01*
X80361148Y-54785630D01*
X80354920Y-54781791D01*
X80189809Y-54727026D01*
X80182973Y-54726326D01*
X80182970Y-54726325D01*
X80130154Y-54720914D01*
X80087072Y-54716500D01*
X79387928Y-54716500D01*
X79384682Y-54716837D01*
X79384678Y-54716837D01*
X79290765Y-54726581D01*
X79290761Y-54726582D01*
X79283907Y-54727293D01*
X79277371Y-54729474D01*
X79277369Y-54729474D01*
X79189193Y-54758892D01*
X79118893Y-54782346D01*
X78970969Y-54873884D01*
X78889209Y-54955787D01*
X78826929Y-54989866D01*
X78756108Y-54984863D01*
X78711020Y-54955943D01*
X78670531Y-54915525D01*
X78657983Y-54902998D01*
X78623903Y-54840716D01*
X78621000Y-54813825D01*
X78621000Y-53227023D01*
X78631778Y-53176318D01*
X78634527Y-53171556D01*
X78693542Y-52989928D01*
X78700780Y-52921067D01*
X78712814Y-52806565D01*
X78713504Y-52800000D01*
X78696341Y-52636703D01*
X78694232Y-52616635D01*
X78694232Y-52616633D01*
X78693542Y-52610072D01*
X78634527Y-52428444D01*
X78615024Y-52394663D01*
X78542341Y-52268774D01*
X78539040Y-52263056D01*
X78411253Y-52121134D01*
X78274108Y-52021492D01*
X78262094Y-52012763D01*
X78262093Y-52012762D01*
X78256752Y-52008882D01*
X78250724Y-52006198D01*
X78250722Y-52006197D01*
X78088319Y-51933891D01*
X78088318Y-51933891D01*
X78082288Y-51931206D01*
X77983148Y-51910133D01*
X77901944Y-51892872D01*
X77901939Y-51892872D01*
X77895487Y-51891500D01*
X77704513Y-51891500D01*
X77698061Y-51892872D01*
X77698056Y-51892872D01*
X77616852Y-51910133D01*
X77517712Y-51931206D01*
X77511685Y-51933889D01*
X77511677Y-51933892D01*
X77383646Y-51990895D01*
X77313279Y-52000329D01*
X77248982Y-51970222D01*
X77211169Y-51910133D01*
X77207088Y-51888958D01*
X77194232Y-51766635D01*
X77194232Y-51766633D01*
X77193542Y-51760072D01*
X77134527Y-51578444D01*
X77039040Y-51413056D01*
X77032066Y-51405310D01*
X76915675Y-51276045D01*
X76915674Y-51276044D01*
X76911253Y-51271134D01*
X76756752Y-51158882D01*
X76750724Y-51156198D01*
X76750722Y-51156197D01*
X76588319Y-51083891D01*
X76588318Y-51083891D01*
X76582288Y-51081206D01*
X76483618Y-51060233D01*
X76401944Y-51042872D01*
X76401939Y-51042872D01*
X76395487Y-51041500D01*
X76204513Y-51041500D01*
X76198061Y-51042872D01*
X76198056Y-51042872D01*
X76116382Y-51060233D01*
X76017712Y-51081206D01*
X76011682Y-51083891D01*
X76011681Y-51083891D01*
X75849278Y-51156197D01*
X75849276Y-51156198D01*
X75843248Y-51158882D01*
X75688747Y-51271134D01*
X75684326Y-51276044D01*
X75684325Y-51276045D01*
X75567935Y-51405310D01*
X75560960Y-51413056D01*
X75465473Y-51578444D01*
X75406458Y-51760072D01*
X75405768Y-51766633D01*
X75405768Y-51766635D01*
X75388471Y-51931206D01*
X75386496Y-51950000D01*
X75387186Y-51956565D01*
X75404483Y-52121134D01*
X75406458Y-52139928D01*
X75465473Y-52321556D01*
X75468776Y-52327278D01*
X75468777Y-52327279D01*
X75494829Y-52372402D01*
X75560960Y-52486944D01*
X75565378Y-52491851D01*
X75565379Y-52491852D01*
X75684325Y-52623955D01*
X75688747Y-52628866D01*
X75843248Y-52741118D01*
X75849276Y-52743802D01*
X75849278Y-52743803D01*
X75990245Y-52806565D01*
X76017712Y-52818794D01*
X76111113Y-52838647D01*
X76198056Y-52857128D01*
X76198061Y-52857128D01*
X76204513Y-52858500D01*
X76240500Y-52858500D01*
X76308621Y-52878502D01*
X76355114Y-52932158D01*
X76366500Y-52984500D01*
X76366500Y-56321233D01*
X76365973Y-56332416D01*
X76364298Y-56339909D01*
X76364547Y-56347835D01*
X76364547Y-56347836D01*
X76366438Y-56407986D01*
X76366500Y-56411945D01*
X76366500Y-56439856D01*
X76366997Y-56443790D01*
X76366997Y-56443791D01*
X76367005Y-56443856D01*
X76367938Y-56455693D01*
X76369327Y-56499889D01*
X76374978Y-56519339D01*
X76378987Y-56538700D01*
X76381526Y-56558797D01*
X76384444Y-56566167D01*
X76386416Y-56573848D01*
X76385047Y-56574199D01*
X76391500Y-56608025D01*
X76391500Y-56664885D01*
X76395975Y-56680124D01*
X76416267Y-56697708D01*
X76441234Y-56711339D01*
X76454079Y-56726379D01*
X76456184Y-56729277D01*
X76466437Y-56743389D01*
X76472952Y-56753307D01*
X76483684Y-56771453D01*
X76495458Y-56791362D01*
X76509779Y-56805683D01*
X76522619Y-56820716D01*
X76534528Y-56837107D01*
X76540636Y-56842160D01*
X76568598Y-56865292D01*
X76577378Y-56873282D01*
X76627878Y-56923782D01*
X76661904Y-56986094D01*
X76664092Y-56999703D01*
X76667113Y-57028444D01*
X76680114Y-57152137D01*
X76681458Y-57164928D01*
X76696126Y-57210072D01*
X76740473Y-57346556D01*
X76739066Y-57347013D01*
X76747477Y-57409778D01*
X76717366Y-57474073D01*
X76657275Y-57511883D01*
X76649134Y-57513899D01*
X76633979Y-57517120D01*
X76567712Y-57531206D01*
X76561682Y-57533891D01*
X76561681Y-57533891D01*
X76399278Y-57606197D01*
X76399276Y-57606198D01*
X76393248Y-57608882D01*
X76238747Y-57721134D01*
X76234326Y-57726044D01*
X76234325Y-57726045D01*
X76118241Y-57854970D01*
X76110960Y-57863056D01*
X76071602Y-57931226D01*
X76021871Y-58017363D01*
X76015473Y-58028444D01*
X75956458Y-58210072D01*
X75955768Y-58216633D01*
X75955768Y-58216635D01*
X75946113Y-58308500D01*
X75936496Y-58400000D01*
X75937186Y-58406565D01*
X75952367Y-58551000D01*
X75956458Y-58589928D01*
X76015473Y-58771556D01*
X76018776Y-58777278D01*
X76018777Y-58777279D01*
X76047772Y-58827500D01*
X76064510Y-58896496D01*
X76041289Y-58963588D01*
X75985482Y-59007475D01*
X75938653Y-59016500D01*
X75501866Y-59016500D01*
X75439684Y-59023255D01*
X75303295Y-59074385D01*
X75186739Y-59161739D01*
X75099385Y-59278295D01*
X75048255Y-59414684D01*
X75041500Y-59476866D01*
X75041500Y-59840500D01*
X75021498Y-59908621D01*
X74967842Y-59955114D01*
X74915500Y-59966500D01*
X59678763Y-59966500D01*
X59667579Y-59965973D01*
X59660091Y-59964299D01*
X59652168Y-59964548D01*
X59592033Y-59966438D01*
X59588075Y-59966500D01*
X59560144Y-59966500D01*
X59556229Y-59966995D01*
X59556225Y-59966995D01*
X59556167Y-59967003D01*
X59556138Y-59967006D01*
X59544296Y-59967939D01*
X59500110Y-59969327D01*
X59484149Y-59973964D01*
X59480658Y-59974978D01*
X59461306Y-59978986D01*
X59449068Y-59980532D01*
X59449066Y-59980533D01*
X59441203Y-59981526D01*
X59400086Y-59997806D01*
X59388885Y-60001641D01*
X59346406Y-60013982D01*
X59339587Y-60018015D01*
X59339582Y-60018017D01*
X59328971Y-60024293D01*
X59311215Y-60032992D01*
X59297493Y-60038425D01*
X59226793Y-60044903D01*
X59163813Y-60012129D01*
X59128551Y-59950509D01*
X59125150Y-59918192D01*
X59125574Y-59900863D01*
X59125574Y-59900860D01*
X59125656Y-59897500D01*
X59107352Y-59674861D01*
X59052931Y-59458202D01*
X58963854Y-59253340D01*
X58874442Y-59115130D01*
X58845322Y-59070117D01*
X58845320Y-59070114D01*
X58842514Y-59065777D01*
X58692170Y-58900551D01*
X58688119Y-58897352D01*
X58688115Y-58897348D01*
X58520914Y-58765300D01*
X58520910Y-58765298D01*
X58516859Y-58762098D01*
X58475553Y-58739296D01*
X58425584Y-58688864D01*
X58410812Y-58619421D01*
X58435928Y-58553016D01*
X58463280Y-58526409D01*
X58512404Y-58491369D01*
X58642360Y-58398673D01*
X58647617Y-58393435D01*
X58789747Y-58251800D01*
X58800596Y-58240989D01*
X58834503Y-58193803D01*
X58927935Y-58063777D01*
X58930953Y-58059577D01*
X58949169Y-58022721D01*
X59027636Y-57863953D01*
X59027637Y-57863951D01*
X59029930Y-57859311D01*
X59094870Y-57645569D01*
X59124029Y-57424090D01*
X59124111Y-57420740D01*
X59125574Y-57360865D01*
X59125574Y-57360861D01*
X59125656Y-57357500D01*
X59107352Y-57134861D01*
X59052931Y-56918202D01*
X58963854Y-56713340D01*
X58909902Y-56629943D01*
X58845322Y-56530117D01*
X58845320Y-56530114D01*
X58842514Y-56525777D01*
X58692170Y-56360551D01*
X58688119Y-56357352D01*
X58688115Y-56357348D01*
X58520914Y-56225300D01*
X58520910Y-56225298D01*
X58516859Y-56222098D01*
X58475553Y-56199296D01*
X58425584Y-56148864D01*
X58410812Y-56079421D01*
X58435928Y-56013016D01*
X58463280Y-55986409D01*
X58466985Y-55983766D01*
X75092000Y-55983766D01*
X75092337Y-55990282D01*
X75102075Y-56084132D01*
X75104968Y-56097528D01*
X75155488Y-56248953D01*
X75161653Y-56262115D01*
X75245426Y-56397492D01*
X75254460Y-56408890D01*
X75367129Y-56521363D01*
X75378540Y-56530375D01*
X75514063Y-56613912D01*
X75527241Y-56620056D01*
X75678766Y-56670315D01*
X75692132Y-56673181D01*
X75784770Y-56682672D01*
X75791185Y-56683000D01*
X75865385Y-56683000D01*
X75880624Y-56678525D01*
X75881829Y-56677135D01*
X75883500Y-56669452D01*
X75883500Y-55972115D01*
X75879025Y-55956876D01*
X75877635Y-55955671D01*
X75869952Y-55954000D01*
X75110115Y-55954000D01*
X75094876Y-55958475D01*
X75093671Y-55959865D01*
X75092000Y-55967548D01*
X75092000Y-55983766D01*
X58466985Y-55983766D01*
X58528649Y-55939782D01*
X58642360Y-55858673D01*
X58646756Y-55854293D01*
X58755678Y-55745750D01*
X58800596Y-55700989D01*
X58807977Y-55690718D01*
X58927935Y-55523777D01*
X58930953Y-55519577D01*
X58960629Y-55459533D01*
X58976270Y-55427885D01*
X75092000Y-55427885D01*
X75096475Y-55443124D01*
X75097865Y-55444329D01*
X75105548Y-55446000D01*
X75865385Y-55446000D01*
X75880624Y-55441525D01*
X75881829Y-55440135D01*
X75883500Y-55432452D01*
X75883500Y-54735115D01*
X75879025Y-54719876D01*
X75877635Y-54718671D01*
X75869952Y-54717000D01*
X75791234Y-54717000D01*
X75784718Y-54717337D01*
X75690868Y-54727075D01*
X75677472Y-54729968D01*
X75526047Y-54780488D01*
X75512885Y-54786653D01*
X75377508Y-54870426D01*
X75366110Y-54879460D01*
X75253637Y-54992129D01*
X75244625Y-55003540D01*
X75161088Y-55139063D01*
X75154944Y-55152241D01*
X75104685Y-55303766D01*
X75101819Y-55317132D01*
X75092328Y-55409770D01*
X75092000Y-55416185D01*
X75092000Y-55427885D01*
X58976270Y-55427885D01*
X59027636Y-55323953D01*
X59027637Y-55323951D01*
X59029930Y-55319311D01*
X59063858Y-55207642D01*
X59093365Y-55110523D01*
X59093365Y-55110521D01*
X59094870Y-55105569D01*
X59124029Y-54884090D01*
X59124243Y-54875328D01*
X59125574Y-54820865D01*
X59125574Y-54820861D01*
X59125656Y-54817500D01*
X59107352Y-54594861D01*
X59052931Y-54378202D01*
X58963854Y-54173340D01*
X58911727Y-54092764D01*
X58845322Y-53990117D01*
X58845320Y-53990114D01*
X58842514Y-53985777D01*
X58692170Y-53820551D01*
X58688119Y-53817352D01*
X58688115Y-53817348D01*
X58520914Y-53685300D01*
X58520910Y-53685298D01*
X58516859Y-53682098D01*
X58321289Y-53574138D01*
X58316420Y-53572414D01*
X58316416Y-53572412D01*
X58115587Y-53501295D01*
X58115583Y-53501294D01*
X58110712Y-53499569D01*
X58105619Y-53498662D01*
X58105616Y-53498661D01*
X57895873Y-53461300D01*
X57895867Y-53461299D01*
X57890784Y-53460394D01*
X57816952Y-53459492D01*
X57672581Y-53457728D01*
X57672579Y-53457728D01*
X57667411Y-53457665D01*
X57446591Y-53491455D01*
X57234256Y-53560857D01*
X57036107Y-53664007D01*
X57031974Y-53667110D01*
X57031971Y-53667112D01*
X56861600Y-53795030D01*
X56857465Y-53798135D01*
X56703129Y-53959638D01*
X56577243Y-54144180D01*
X56550392Y-54202026D01*
X56511413Y-54286000D01*
X56483188Y-54346805D01*
X56423489Y-54562070D01*
X56399751Y-54784195D01*
X56400048Y-54789348D01*
X56400048Y-54789351D01*
X56405480Y-54883556D01*
X56412610Y-55007215D01*
X56413747Y-55012261D01*
X56413748Y-55012267D01*
X56429548Y-55082375D01*
X56461722Y-55225139D01*
X56517270Y-55361939D01*
X56537975Y-55412928D01*
X56545766Y-55432116D01*
X56596519Y-55514938D01*
X56646424Y-55596375D01*
X56662487Y-55622588D01*
X56808750Y-55791438D01*
X56980626Y-55934132D01*
X57032643Y-55964528D01*
X57053945Y-55976976D01*
X57102669Y-56028614D01*
X57115740Y-56098397D01*
X57089009Y-56164169D01*
X57048555Y-56197527D01*
X57036107Y-56204007D01*
X57031974Y-56207110D01*
X57031971Y-56207112D01*
X56861600Y-56335030D01*
X56857465Y-56338135D01*
X56853893Y-56341873D01*
X56730185Y-56471326D01*
X56703129Y-56499638D01*
X56700215Y-56503910D01*
X56700214Y-56503911D01*
X56697768Y-56507497D01*
X56577243Y-56684180D01*
X56544937Y-56753778D01*
X56491558Y-56868774D01*
X56483188Y-56886805D01*
X56423489Y-57102070D01*
X56399751Y-57324195D01*
X56400048Y-57329348D01*
X56400048Y-57329351D01*
X56409561Y-57494338D01*
X56412610Y-57547215D01*
X56413747Y-57552261D01*
X56413748Y-57552267D01*
X56427238Y-57612124D01*
X56461722Y-57765139D01*
X56545766Y-57972116D01*
X56562041Y-57998675D01*
X56658903Y-58156739D01*
X56662487Y-58162588D01*
X56808750Y-58331438D01*
X56980626Y-58474132D01*
X57020782Y-58497597D01*
X57053945Y-58516976D01*
X57102669Y-58568614D01*
X57115740Y-58638397D01*
X57089009Y-58704169D01*
X57048555Y-58737527D01*
X57036107Y-58744007D01*
X57031974Y-58747110D01*
X57031971Y-58747112D01*
X56924197Y-58828031D01*
X56857465Y-58878135D01*
X56791846Y-58946801D01*
X56724888Y-59016869D01*
X56703129Y-59039638D01*
X56700215Y-59043910D01*
X56700214Y-59043911D01*
X56654278Y-59111251D01*
X56577243Y-59224180D01*
X56483188Y-59426805D01*
X56423489Y-59642070D01*
X56399751Y-59864195D01*
X56400048Y-59869348D01*
X56400048Y-59869351D01*
X56410379Y-60048518D01*
X56412610Y-60087215D01*
X56413747Y-60092261D01*
X56413748Y-60092267D01*
X56427141Y-60151694D01*
X56461722Y-60305139D01*
X56480848Y-60352240D01*
X56528810Y-60470357D01*
X56545766Y-60512116D01*
X56583995Y-60574500D01*
X56658903Y-60696739D01*
X56662487Y-60702588D01*
X56808750Y-60871438D01*
X56980626Y-61014132D01*
X57046361Y-61052544D01*
X57053945Y-61056976D01*
X57102669Y-61108614D01*
X57115740Y-61178397D01*
X57089009Y-61244169D01*
X57048555Y-61277527D01*
X57036107Y-61284007D01*
X57031974Y-61287110D01*
X57031971Y-61287112D01*
X56912406Y-61376884D01*
X56857465Y-61418135D01*
X56853893Y-61421873D01*
X56771554Y-61508036D01*
X56703129Y-61579638D01*
X56700215Y-61583910D01*
X56700214Y-61583911D01*
X56659297Y-61643893D01*
X56577243Y-61764180D01*
X56553800Y-61814684D01*
X56495104Y-61941135D01*
X56483188Y-61966805D01*
X56423489Y-62182070D01*
X56399751Y-62404195D01*
X56400048Y-62409348D01*
X56400048Y-62409351D01*
X56411030Y-62599810D01*
X56412610Y-62627215D01*
X56413747Y-62632261D01*
X56413748Y-62632267D01*
X56435892Y-62730523D01*
X56461722Y-62845139D01*
X56499961Y-62939311D01*
X56541429Y-63041434D01*
X56545766Y-63052116D01*
X56548465Y-63056520D01*
X56646424Y-63216375D01*
X56662487Y-63242588D01*
X56808750Y-63411438D01*
X56980626Y-63554132D01*
X57007981Y-63570117D01*
X57053945Y-63596976D01*
X57102669Y-63648614D01*
X57115740Y-63718397D01*
X57089009Y-63784169D01*
X57048555Y-63817527D01*
X57036107Y-63824007D01*
X57031974Y-63827110D01*
X57031971Y-63827112D01*
X56861600Y-63955030D01*
X56857465Y-63958135D01*
X56703129Y-64119638D01*
X56700215Y-64123910D01*
X56700214Y-64123911D01*
X56658146Y-64185580D01*
X56577243Y-64304180D01*
X56541187Y-64381857D01*
X56519793Y-64427947D01*
X56483188Y-64506805D01*
X56423489Y-64722070D01*
X56399751Y-64944195D01*
X56400048Y-64949348D01*
X56400048Y-64949351D01*
X56412202Y-65160144D01*
X56412610Y-65167215D01*
X56413747Y-65172261D01*
X56413748Y-65172267D01*
X56415860Y-65181638D01*
X56461722Y-65385139D01*
X56499961Y-65479311D01*
X56536350Y-65568926D01*
X56545766Y-65592116D01*
X56590804Y-65665612D01*
X56659345Y-65777460D01*
X56662487Y-65782588D01*
X56808750Y-65951438D01*
X56980626Y-66094132D01*
X57025286Y-66120229D01*
X57053945Y-66136976D01*
X57102669Y-66188614D01*
X57115740Y-66258397D01*
X57089009Y-66324169D01*
X57048555Y-66357527D01*
X57036107Y-66364007D01*
X57031974Y-66367110D01*
X57031971Y-66367112D01*
X56861600Y-66495030D01*
X56857465Y-66498135D01*
X56836044Y-66520551D01*
X56743042Y-66617872D01*
X56703129Y-66659638D01*
X56700215Y-66663910D01*
X56700214Y-66663911D01*
X56656194Y-66728442D01*
X56577243Y-66844180D01*
X56538887Y-66926811D01*
X56491546Y-67028800D01*
X56483188Y-67046805D01*
X56423489Y-67262070D01*
X56399751Y-67484195D01*
X56400048Y-67489348D01*
X56400048Y-67489351D01*
X56410333Y-67667730D01*
X56412610Y-67707215D01*
X56413747Y-67712261D01*
X56413748Y-67712267D01*
X56423649Y-67756199D01*
X56461722Y-67925139D01*
X56545766Y-68132116D01*
X56586725Y-68198955D01*
X56648836Y-68300311D01*
X56662487Y-68322588D01*
X56808750Y-68491438D01*
X56812725Y-68494738D01*
X56812731Y-68494744D01*
X56817925Y-68499056D01*
X56857559Y-68557960D01*
X56859055Y-68628941D01*
X56821939Y-68689462D01*
X56781668Y-68713980D01*
X56674446Y-68754176D01*
X56658851Y-68762714D01*
X56556776Y-68839215D01*
X56544215Y-68851776D01*
X56467714Y-68953851D01*
X56459176Y-68969446D01*
X56414022Y-69089894D01*
X56410395Y-69105149D01*
X56404869Y-69156014D01*
X56404500Y-69162828D01*
X56404500Y-69785385D01*
X56408975Y-69800624D01*
X56410365Y-69801829D01*
X56418048Y-69803500D01*
X57890500Y-69803500D01*
X57958621Y-69823502D01*
X58005114Y-69877158D01*
X58016500Y-69929500D01*
X58016500Y-71397384D01*
X58020975Y-71412623D01*
X58022365Y-71413828D01*
X58030048Y-71415499D01*
X58657169Y-71415499D01*
X58663990Y-71415129D01*
X58714852Y-71409605D01*
X58730104Y-71405979D01*
X58850554Y-71360824D01*
X58866149Y-71352286D01*
X58968224Y-71275785D01*
X58980785Y-71263224D01*
X59057286Y-71161149D01*
X59065824Y-71145554D01*
X59110978Y-71025106D01*
X59114605Y-71009851D01*
X59120131Y-70958986D01*
X59120500Y-70952172D01*
X59120500Y-70763319D01*
X59140502Y-70695198D01*
X59194158Y-70648705D01*
X59264432Y-70638601D01*
X59329012Y-70668095D01*
X59357661Y-70705981D01*
X59357803Y-70705893D01*
X59358739Y-70707406D01*
X59360601Y-70709868D01*
X59361655Y-70712117D01*
X59445426Y-70847492D01*
X59454460Y-70858890D01*
X59567129Y-70971363D01*
X59578540Y-70980375D01*
X59714063Y-71063912D01*
X59727241Y-71070056D01*
X59878766Y-71120315D01*
X59892132Y-71123181D01*
X59984770Y-71132672D01*
X59991185Y-71133000D01*
X60002885Y-71133000D01*
X60018124Y-71128525D01*
X60019329Y-71127135D01*
X60021000Y-71119452D01*
X60021000Y-71114885D01*
X60529000Y-71114885D01*
X60533475Y-71130124D01*
X60534865Y-71131329D01*
X60542548Y-71133000D01*
X60558766Y-71133000D01*
X60565282Y-71132663D01*
X60659132Y-71122925D01*
X60672528Y-71120032D01*
X60823953Y-71069512D01*
X60837115Y-71063347D01*
X60972492Y-70979574D01*
X60983890Y-70970540D01*
X61096363Y-70857871D01*
X61105375Y-70846460D01*
X61188912Y-70710937D01*
X61195056Y-70697759D01*
X61245315Y-70546234D01*
X61248181Y-70532868D01*
X61257672Y-70440230D01*
X61258000Y-70433815D01*
X61258000Y-70359615D01*
X61253525Y-70344376D01*
X61252135Y-70343171D01*
X61244452Y-70341500D01*
X60547115Y-70341500D01*
X60531876Y-70345975D01*
X60530671Y-70347365D01*
X60529000Y-70355048D01*
X60529000Y-71114885D01*
X60021000Y-71114885D01*
X60021000Y-69959500D01*
X60041002Y-69891379D01*
X60094658Y-69844886D01*
X60147000Y-69833500D01*
X61239885Y-69833500D01*
X61255124Y-69829025D01*
X61256329Y-69827635D01*
X61258000Y-69819952D01*
X61258000Y-69741234D01*
X61257663Y-69734718D01*
X61247925Y-69640868D01*
X61245032Y-69627472D01*
X61194512Y-69476047D01*
X61188347Y-69462885D01*
X61104574Y-69327508D01*
X61095536Y-69316106D01*
X61093861Y-69314433D01*
X61093081Y-69313007D01*
X61090993Y-69310373D01*
X61091444Y-69310016D01*
X61059781Y-69252151D01*
X61064784Y-69181331D01*
X61093701Y-69136246D01*
X61096756Y-69133185D01*
X61101929Y-69128003D01*
X61106968Y-69119829D01*
X61189369Y-68986150D01*
X61189370Y-68986148D01*
X61193209Y-68979920D01*
X61247974Y-68814809D01*
X61251451Y-68780878D01*
X61255397Y-68742361D01*
X61258500Y-68712072D01*
X61258500Y-68012928D01*
X61257934Y-68007470D01*
X61248419Y-67915765D01*
X61248418Y-67915761D01*
X61247707Y-67908907D01*
X61245430Y-67902080D01*
X61194972Y-67750841D01*
X61192654Y-67743893D01*
X61101116Y-67595969D01*
X61095230Y-67590093D01*
X60983184Y-67478242D01*
X60983179Y-67478238D01*
X60978003Y-67473071D01*
X60971676Y-67469171D01*
X60836150Y-67385631D01*
X60836148Y-67385630D01*
X60829920Y-67381791D01*
X60664809Y-67327026D01*
X60657973Y-67326326D01*
X60657970Y-67326325D01*
X60606474Y-67321049D01*
X60562072Y-67316500D01*
X60177095Y-67316500D01*
X60108974Y-67296498D01*
X60088000Y-67279595D01*
X59933652Y-67125247D01*
X59926112Y-67116961D01*
X59922000Y-67110482D01*
X59872348Y-67063856D01*
X59869507Y-67061102D01*
X59849770Y-67041365D01*
X59846573Y-67038885D01*
X59837551Y-67031180D01*
X59835017Y-67028800D01*
X59805321Y-67000914D01*
X59798375Y-66997095D01*
X59798372Y-66997093D01*
X59787566Y-66991152D01*
X59771047Y-66980301D01*
X59765177Y-66975748D01*
X59755041Y-66967886D01*
X59747772Y-66964741D01*
X59747768Y-66964738D01*
X59714463Y-66950326D01*
X59703813Y-66945109D01*
X59665060Y-66923805D01*
X59645437Y-66918767D01*
X59626734Y-66912363D01*
X59615420Y-66907467D01*
X59615419Y-66907467D01*
X59608145Y-66904319D01*
X59600322Y-66903080D01*
X59600312Y-66903077D01*
X59564476Y-66897401D01*
X59552856Y-66894995D01*
X59517711Y-66885972D01*
X59517710Y-66885972D01*
X59510030Y-66884000D01*
X59489776Y-66884000D01*
X59470065Y-66882449D01*
X59457886Y-66880520D01*
X59450057Y-66879280D01*
X59442165Y-66880026D01*
X59406039Y-66883441D01*
X59394181Y-66884000D01*
X59039305Y-66884000D01*
X58971184Y-66863998D01*
X58933513Y-66826440D01*
X58845322Y-66690117D01*
X58845320Y-66690114D01*
X58842514Y-66685777D01*
X58692170Y-66520551D01*
X58688119Y-66517352D01*
X58688115Y-66517348D01*
X58520914Y-66385300D01*
X58520910Y-66385298D01*
X58516859Y-66382098D01*
X58475553Y-66359296D01*
X58425584Y-66308864D01*
X58410812Y-66239421D01*
X58435928Y-66173016D01*
X58463280Y-66146409D01*
X58527600Y-66100530D01*
X58642360Y-66018673D01*
X58675447Y-65985702D01*
X58796935Y-65864637D01*
X58800596Y-65860989D01*
X58860094Y-65778189D01*
X58927935Y-65683777D01*
X58930953Y-65679577D01*
X58946164Y-65648801D01*
X59027636Y-65483953D01*
X59027637Y-65483951D01*
X59029930Y-65479311D01*
X59062400Y-65372440D01*
X59093365Y-65270523D01*
X59093365Y-65270521D01*
X59094870Y-65265569D01*
X59124029Y-65044090D01*
X59124111Y-65040740D01*
X59125574Y-64980865D01*
X59125574Y-64980861D01*
X59125656Y-64977500D01*
X59107352Y-64754861D01*
X59052931Y-64538202D01*
X58963854Y-64333340D01*
X58883005Y-64208366D01*
X58845322Y-64150117D01*
X58845320Y-64150114D01*
X58842514Y-64145777D01*
X58692170Y-63980551D01*
X58688119Y-63977352D01*
X58688115Y-63977348D01*
X58520914Y-63845300D01*
X58520910Y-63845298D01*
X58516859Y-63842098D01*
X58475553Y-63819296D01*
X58425584Y-63768864D01*
X58410812Y-63699421D01*
X58435928Y-63633016D01*
X58463280Y-63606409D01*
X58524493Y-63562746D01*
X58642360Y-63478673D01*
X58675447Y-63445702D01*
X58785248Y-63336283D01*
X58800596Y-63320989D01*
X58806869Y-63312260D01*
X58927935Y-63143777D01*
X58930953Y-63139577D01*
X58940643Y-63119972D01*
X59027636Y-62943953D01*
X59027637Y-62943951D01*
X59029930Y-62939311D01*
X59071233Y-62803366D01*
X59093365Y-62730523D01*
X59093365Y-62730521D01*
X59094870Y-62725569D01*
X59124029Y-62504090D01*
X59124445Y-62487072D01*
X59125574Y-62440863D01*
X59125574Y-62440860D01*
X59125656Y-62437500D01*
X59107352Y-62214861D01*
X59079321Y-62103265D01*
X59082125Y-62032323D01*
X59112430Y-61983474D01*
X59825499Y-61270405D01*
X59887811Y-61236379D01*
X59914594Y-61233500D01*
X73340382Y-61233500D01*
X73408503Y-61253502D01*
X73454996Y-61307158D01*
X73465100Y-61377432D01*
X73435606Y-61442012D01*
X73432204Y-61445480D01*
X73431992Y-61445634D01*
X73391328Y-61490796D01*
X73312852Y-61577953D01*
X73304205Y-61587556D01*
X73262327Y-61660091D01*
X73223968Y-61726531D01*
X73208718Y-61752944D01*
X73149703Y-61934572D01*
X73149013Y-61941133D01*
X73149013Y-61941135D01*
X73138393Y-62042183D01*
X73129741Y-62124500D01*
X73130431Y-62131065D01*
X73142856Y-62249278D01*
X73149703Y-62314428D01*
X73208718Y-62496056D01*
X73212021Y-62501778D01*
X73212022Y-62501779D01*
X73225524Y-62525165D01*
X73304205Y-62661444D01*
X73308623Y-62666351D01*
X73308624Y-62666352D01*
X73407412Y-62776067D01*
X73431992Y-62803366D01*
X73586493Y-62915618D01*
X73592521Y-62918302D01*
X73592523Y-62918303D01*
X73698647Y-62965552D01*
X73760957Y-62993294D01*
X73767412Y-62994666D01*
X73767421Y-62994669D01*
X73799101Y-63001403D01*
X73861574Y-63035131D01*
X73895895Y-63097281D01*
X73898213Y-63111479D01*
X73905307Y-63178973D01*
X73906458Y-63189928D01*
X73965473Y-63371556D01*
X73968776Y-63377278D01*
X73968777Y-63377279D01*
X73994022Y-63421005D01*
X74060960Y-63536944D01*
X74065378Y-63541851D01*
X74065379Y-63541852D01*
X74148985Y-63634706D01*
X74188747Y-63678866D01*
X74256096Y-63727798D01*
X74333684Y-63784169D01*
X74343248Y-63791118D01*
X74349276Y-63793802D01*
X74349278Y-63793803D01*
X74493679Y-63858094D01*
X74517712Y-63868794D01*
X74578176Y-63881646D01*
X74698056Y-63907128D01*
X74698061Y-63907128D01*
X74704513Y-63908500D01*
X74895487Y-63908500D01*
X74901942Y-63907128D01*
X74902332Y-63907087D01*
X74972170Y-63919860D01*
X75024016Y-63968363D01*
X75041500Y-64032397D01*
X75041500Y-64123134D01*
X75041869Y-64126531D01*
X75048255Y-64185316D01*
X75045826Y-64185580D01*
X75045826Y-64214420D01*
X75048255Y-64214684D01*
X75041500Y-64276866D01*
X75041500Y-64923134D01*
X75041869Y-64926531D01*
X75048255Y-64985316D01*
X75045826Y-64985580D01*
X75045826Y-65014420D01*
X75048255Y-65014684D01*
X75041500Y-65076866D01*
X75041500Y-65723134D01*
X75048255Y-65785316D01*
X75099385Y-65921705D01*
X75186739Y-66038261D01*
X75303295Y-66125615D01*
X75439684Y-66176745D01*
X75445494Y-66177376D01*
X75506350Y-66212143D01*
X75539169Y-66275099D01*
X75532742Y-66345804D01*
X75524678Y-66362500D01*
X75515473Y-66378444D01*
X75456458Y-66560072D01*
X75455768Y-66566633D01*
X75455768Y-66566635D01*
X75443246Y-66685777D01*
X75436496Y-66750000D01*
X75437186Y-66756565D01*
X75454707Y-66923264D01*
X75456458Y-66939928D01*
X75515473Y-67121556D01*
X75518776Y-67127278D01*
X75518777Y-67127279D01*
X75534014Y-67153670D01*
X75610960Y-67286944D01*
X75615378Y-67291851D01*
X75615379Y-67291852D01*
X75699012Y-67384736D01*
X75738747Y-67428866D01*
X75819467Y-67487513D01*
X75871064Y-67525000D01*
X75893248Y-67541118D01*
X75899276Y-67543802D01*
X75899278Y-67543803D01*
X76047812Y-67609934D01*
X76067712Y-67618794D01*
X76161113Y-67638647D01*
X76248056Y-67657128D01*
X76248061Y-67657128D01*
X76254513Y-67658500D01*
X76445487Y-67658500D01*
X76451939Y-67657128D01*
X76451944Y-67657128D01*
X76538887Y-67638647D01*
X76632288Y-67618794D01*
X76656364Y-67608075D01*
X76692835Y-67591837D01*
X76748683Y-67566972D01*
X76819049Y-67557538D01*
X76883346Y-67587644D01*
X76922439Y-67652808D01*
X76923255Y-67660316D01*
X76926029Y-67667715D01*
X76926029Y-67667716D01*
X76943728Y-67714928D01*
X76974385Y-67796705D01*
X76997168Y-67827104D01*
X77041326Y-67886024D01*
X77066174Y-67952530D01*
X77066500Y-67961589D01*
X77066500Y-71355406D01*
X77046498Y-71423527D01*
X77029595Y-71444501D01*
X76899501Y-71574595D01*
X76837189Y-71608621D01*
X76810406Y-71611500D01*
X73951866Y-71611500D01*
X73889684Y-71618255D01*
X73753295Y-71669385D01*
X73636739Y-71756739D01*
X73549385Y-71873295D01*
X73498255Y-72009684D01*
X73491500Y-72071866D01*
X73491500Y-72360500D01*
X73471498Y-72428621D01*
X73417842Y-72475114D01*
X73365500Y-72486500D01*
X73121267Y-72486500D01*
X73110084Y-72485973D01*
X73102591Y-72484298D01*
X73094665Y-72484547D01*
X73094664Y-72484547D01*
X73034501Y-72486438D01*
X73030543Y-72486500D01*
X73002644Y-72486500D01*
X72998654Y-72487004D01*
X72986820Y-72487936D01*
X72942611Y-72489326D01*
X72938772Y-72490441D01*
X72925318Y-72491500D01*
X71235115Y-72491500D01*
X71219876Y-72495975D01*
X71218671Y-72497365D01*
X71217000Y-72505048D01*
X71217000Y-72583766D01*
X71217337Y-72590282D01*
X71227075Y-72684132D01*
X71229968Y-72697528D01*
X71280488Y-72848953D01*
X71286653Y-72862115D01*
X71370426Y-72997492D01*
X71379464Y-73008894D01*
X71381139Y-73010567D01*
X71381919Y-73011993D01*
X71384007Y-73014627D01*
X71383556Y-73014984D01*
X71415219Y-73072849D01*
X71410216Y-73143669D01*
X71381299Y-73188754D01*
X71379666Y-73190390D01*
X71373071Y-73196997D01*
X71369231Y-73203227D01*
X71369230Y-73203228D01*
X71286364Y-73337662D01*
X71281791Y-73345080D01*
X71227026Y-73510191D01*
X71226326Y-73517027D01*
X71226325Y-73517030D01*
X71225727Y-73522865D01*
X71216500Y-73612928D01*
X71216500Y-74312072D01*
X71216837Y-74315318D01*
X71216837Y-74315322D01*
X71224102Y-74385336D01*
X71227293Y-74416093D01*
X71229474Y-74422629D01*
X71229474Y-74422631D01*
X71270299Y-74544997D01*
X71282346Y-74581107D01*
X71373884Y-74729031D01*
X71379066Y-74734204D01*
X71491816Y-74846758D01*
X71491821Y-74846762D01*
X71496997Y-74851929D01*
X71503227Y-74855769D01*
X71503228Y-74855770D01*
X71592484Y-74910788D01*
X71645080Y-74943209D01*
X71810191Y-74997974D01*
X71817027Y-74998674D01*
X71817030Y-74998675D01*
X71863951Y-75003482D01*
X71912928Y-75008500D01*
X72487072Y-75008500D01*
X72490318Y-75008163D01*
X72490322Y-75008163D01*
X72584235Y-74998419D01*
X72584239Y-74998418D01*
X72591093Y-74997707D01*
X72597629Y-74995526D01*
X72597631Y-74995526D01*
X72730395Y-74951232D01*
X72756107Y-74942654D01*
X72904031Y-74851116D01*
X72940250Y-74814834D01*
X73021758Y-74733184D01*
X73021762Y-74733179D01*
X73026929Y-74728003D01*
X73044055Y-74700220D01*
X73114369Y-74586150D01*
X73114370Y-74586148D01*
X73118209Y-74579920D01*
X73172974Y-74414809D01*
X73183500Y-74312072D01*
X73183500Y-73927094D01*
X73203502Y-73858974D01*
X73220405Y-73838000D01*
X73268000Y-73790405D01*
X73330312Y-73756379D01*
X73357095Y-73753500D01*
X73365500Y-73753500D01*
X73433621Y-73773502D01*
X73480114Y-73827158D01*
X73491500Y-73879500D01*
X73491500Y-74168134D01*
X73498255Y-74230316D01*
X73549385Y-74366705D01*
X73636739Y-74483261D01*
X73753295Y-74570615D01*
X73889684Y-74621745D01*
X73951866Y-74628500D01*
X78548134Y-74628500D01*
X78610316Y-74621745D01*
X78746705Y-74570615D01*
X78863261Y-74483261D01*
X78950615Y-74366705D01*
X79001745Y-74230316D01*
X79008500Y-74168134D01*
X79008500Y-72308594D01*
X79028502Y-72240473D01*
X79082158Y-72193980D01*
X79152432Y-72183876D01*
X79217012Y-72213370D01*
X79223595Y-72219499D01*
X80516343Y-73512247D01*
X80523887Y-73520537D01*
X80528000Y-73527018D01*
X80533777Y-73532443D01*
X80577667Y-73573658D01*
X80580509Y-73576413D01*
X80600230Y-73596134D01*
X80603425Y-73598612D01*
X80612447Y-73606318D01*
X80644679Y-73636586D01*
X80651628Y-73640406D01*
X80662432Y-73646346D01*
X80678956Y-73657199D01*
X80694959Y-73669613D01*
X80735543Y-73687176D01*
X80746173Y-73692383D01*
X80784940Y-73713695D01*
X80792617Y-73715666D01*
X80792622Y-73715668D01*
X80804558Y-73718732D01*
X80823266Y-73725137D01*
X80841855Y-73733181D01*
X80849683Y-73734421D01*
X80849690Y-73734423D01*
X80885524Y-73740099D01*
X80897144Y-73742505D01*
X80932289Y-73751528D01*
X80939970Y-73753500D01*
X80960224Y-73753500D01*
X80979934Y-73755051D01*
X80999943Y-73758220D01*
X81007835Y-73757474D01*
X81043961Y-73754059D01*
X81055819Y-73753500D01*
X81865500Y-73753500D01*
X81933621Y-73773502D01*
X81980114Y-73827158D01*
X81991500Y-73879500D01*
X81991500Y-74168134D01*
X81998255Y-74230316D01*
X82049385Y-74366705D01*
X82136739Y-74483261D01*
X82253295Y-74570615D01*
X82389684Y-74621745D01*
X82451866Y-74628500D01*
X87048134Y-74628500D01*
X87110316Y-74621745D01*
X87246705Y-74570615D01*
X87363261Y-74483261D01*
X87450615Y-74366705D01*
X87501745Y-74230316D01*
X87508500Y-74168134D01*
X87508500Y-73879500D01*
X87528502Y-73811379D01*
X87582158Y-73764886D01*
X87634500Y-73753500D01*
X88042906Y-73753500D01*
X88111027Y-73773502D01*
X88132001Y-73790405D01*
X88179595Y-73837999D01*
X88213621Y-73900311D01*
X88216500Y-73927094D01*
X88216500Y-74312072D01*
X88216837Y-74315318D01*
X88216837Y-74315322D01*
X88224102Y-74385336D01*
X88227293Y-74416093D01*
X88229474Y-74422629D01*
X88229474Y-74422631D01*
X88270299Y-74544997D01*
X88282346Y-74581107D01*
X88373884Y-74729031D01*
X88379066Y-74734204D01*
X88491816Y-74846758D01*
X88491821Y-74846762D01*
X88496997Y-74851929D01*
X88503227Y-74855769D01*
X88503228Y-74855770D01*
X88592484Y-74910788D01*
X88645080Y-74943209D01*
X88810191Y-74997974D01*
X88817027Y-74998674D01*
X88817030Y-74998675D01*
X88863951Y-75003482D01*
X88912928Y-75008500D01*
X89487072Y-75008500D01*
X89490318Y-75008163D01*
X89490322Y-75008163D01*
X89584235Y-74998419D01*
X89584239Y-74998418D01*
X89591093Y-74997707D01*
X89597629Y-74995526D01*
X89597631Y-74995526D01*
X89730395Y-74951232D01*
X89756107Y-74942654D01*
X89904031Y-74851116D01*
X89940250Y-74814834D01*
X90021758Y-74733184D01*
X90021762Y-74733179D01*
X90026929Y-74728003D01*
X90044055Y-74700220D01*
X90114369Y-74586150D01*
X90114370Y-74586148D01*
X90118209Y-74579920D01*
X90172974Y-74414809D01*
X90183500Y-74312072D01*
X90183500Y-73612928D01*
X90182009Y-73598556D01*
X90173419Y-73515765D01*
X90173418Y-73515761D01*
X90172707Y-73508907D01*
X90133371Y-73391001D01*
X90119972Y-73350841D01*
X90117654Y-73343893D01*
X90026116Y-73195969D01*
X90018861Y-73188726D01*
X90017895Y-73186962D01*
X90016387Y-73185059D01*
X90016713Y-73184801D01*
X89984781Y-73126446D01*
X89989782Y-73055625D01*
X90018708Y-73010530D01*
X90021364Y-73007869D01*
X90030375Y-72996460D01*
X90113912Y-72860937D01*
X90120056Y-72847759D01*
X90170315Y-72696234D01*
X90173181Y-72682868D01*
X90182672Y-72590230D01*
X90183000Y-72583815D01*
X90183000Y-72509615D01*
X90178525Y-72494376D01*
X90177135Y-72493171D01*
X90169452Y-72491500D01*
X88472922Y-72491500D01*
X88453133Y-72489000D01*
X88453074Y-72489465D01*
X88445209Y-72488472D01*
X88437530Y-72486500D01*
X88417276Y-72486500D01*
X88397565Y-72484949D01*
X88385386Y-72483020D01*
X88377557Y-72481780D01*
X88348286Y-72484547D01*
X88333539Y-72485941D01*
X88321681Y-72486500D01*
X87634500Y-72486500D01*
X87566379Y-72466498D01*
X87519886Y-72412842D01*
X87508500Y-72360500D01*
X87508500Y-72071866D01*
X87501745Y-72009684D01*
X87485138Y-71965385D01*
X88217000Y-71965385D01*
X88221475Y-71980624D01*
X88222865Y-71981829D01*
X88230548Y-71983500D01*
X88927885Y-71983500D01*
X88943124Y-71979025D01*
X88944329Y-71977635D01*
X88946000Y-71969952D01*
X88946000Y-71210115D01*
X88941525Y-71194876D01*
X88940135Y-71193671D01*
X88932452Y-71192000D01*
X88916234Y-71192000D01*
X88909718Y-71192337D01*
X88815868Y-71202075D01*
X88802472Y-71204968D01*
X88651047Y-71255488D01*
X88637885Y-71261653D01*
X88502508Y-71345426D01*
X88491110Y-71354460D01*
X88378637Y-71467129D01*
X88369625Y-71478540D01*
X88286088Y-71614063D01*
X88279944Y-71627241D01*
X88229685Y-71778766D01*
X88226819Y-71792132D01*
X88217328Y-71884770D01*
X88217000Y-71891185D01*
X88217000Y-71965385D01*
X87485138Y-71965385D01*
X87450615Y-71873295D01*
X87363261Y-71756739D01*
X87246705Y-71669385D01*
X87110316Y-71618255D01*
X87048134Y-71611500D01*
X82451866Y-71611500D01*
X82389684Y-71618255D01*
X82253295Y-71669385D01*
X82136739Y-71756739D01*
X82049385Y-71873295D01*
X81998255Y-72009684D01*
X81991500Y-72071866D01*
X81991500Y-72360500D01*
X81971498Y-72428621D01*
X81917842Y-72475114D01*
X81865500Y-72486500D01*
X81334595Y-72486500D01*
X81266474Y-72466498D01*
X81245500Y-72449595D01*
X79170405Y-70374500D01*
X79136379Y-70312188D01*
X79133500Y-70285405D01*
X79133500Y-69907247D01*
X79153502Y-69839126D01*
X79207158Y-69792633D01*
X79272342Y-69781903D01*
X79287928Y-69783500D01*
X79987072Y-69783500D01*
X79990318Y-69783163D01*
X79990322Y-69783163D01*
X80084235Y-69773419D01*
X80084239Y-69773418D01*
X80091093Y-69772707D01*
X80097629Y-69770526D01*
X80097631Y-69770526D01*
X80249159Y-69719972D01*
X80256107Y-69717654D01*
X80404031Y-69626116D01*
X80411274Y-69618861D01*
X80413038Y-69617895D01*
X80414941Y-69616387D01*
X80415199Y-69616713D01*
X80473554Y-69584781D01*
X80544375Y-69589782D01*
X80589470Y-69618708D01*
X80592131Y-69621364D01*
X80603540Y-69630375D01*
X80739063Y-69713912D01*
X80752241Y-69720056D01*
X80903766Y-69770315D01*
X80917132Y-69773181D01*
X81009770Y-69782672D01*
X81016185Y-69783000D01*
X81090385Y-69783000D01*
X81105624Y-69778525D01*
X81106829Y-69777135D01*
X81108500Y-69769452D01*
X81108500Y-68672000D01*
X81128502Y-68603879D01*
X81182158Y-68557386D01*
X81234500Y-68546000D01*
X81490500Y-68546000D01*
X81558621Y-68566002D01*
X81605114Y-68619658D01*
X81616500Y-68672000D01*
X81616500Y-69764885D01*
X81620975Y-69780124D01*
X81622365Y-69781329D01*
X81630048Y-69783000D01*
X81708766Y-69783000D01*
X81715282Y-69782663D01*
X81809132Y-69772925D01*
X81822528Y-69770032D01*
X81973953Y-69719512D01*
X81987115Y-69713347D01*
X82122492Y-69629574D01*
X82133890Y-69620540D01*
X82246363Y-69507871D01*
X82255375Y-69496460D01*
X82338912Y-69360937D01*
X82345056Y-69347759D01*
X82395316Y-69196231D01*
X82396168Y-69192258D01*
X82397368Y-69190045D01*
X82397480Y-69189707D01*
X82397540Y-69189727D01*
X82430008Y-69129845D01*
X82492219Y-69095635D01*
X82545564Y-69095429D01*
X82660355Y-69119829D01*
X82660360Y-69119829D01*
X82666812Y-69121201D01*
X82857786Y-69121201D01*
X82864238Y-69119829D01*
X82864243Y-69119829D01*
X82951186Y-69101348D01*
X83044587Y-69081495D01*
X83050618Y-69078810D01*
X83213021Y-69006504D01*
X83213023Y-69006503D01*
X83219051Y-69003819D01*
X83233019Y-68993671D01*
X83332364Y-68921492D01*
X83373552Y-68891567D01*
X83401414Y-68860623D01*
X83496920Y-68754553D01*
X83496921Y-68754552D01*
X83501339Y-68749645D01*
X83577152Y-68618334D01*
X83593522Y-68589980D01*
X83593523Y-68589979D01*
X83596826Y-68584257D01*
X83655841Y-68402629D01*
X83656626Y-68395166D01*
X83675113Y-68219266D01*
X83675803Y-68212701D01*
X83670076Y-68158215D01*
X83682848Y-68088378D01*
X83731349Y-68036531D01*
X83751156Y-68027063D01*
X83813297Y-68003767D01*
X83821705Y-68000615D01*
X83938261Y-67913261D01*
X84025615Y-67796705D01*
X84028767Y-67788296D01*
X84033077Y-67780425D01*
X84034741Y-67781336D01*
X84070663Y-67733510D01*
X84137224Y-67708807D01*
X84146009Y-67708500D01*
X84220487Y-67708500D01*
X84226939Y-67707128D01*
X84226944Y-67707128D01*
X84313887Y-67688647D01*
X84407288Y-67668794D01*
X84430409Y-67658500D01*
X84575722Y-67593803D01*
X84575724Y-67593802D01*
X84581752Y-67591118D01*
X84591759Y-67583848D01*
X84650836Y-67540925D01*
X84736253Y-67478866D01*
X84744929Y-67469230D01*
X84859621Y-67341852D01*
X84859622Y-67341851D01*
X84864040Y-67336944D01*
X84959527Y-67171556D01*
X85018542Y-66989928D01*
X85019554Y-66980301D01*
X85026641Y-66912874D01*
X85053655Y-66847217D01*
X85111876Y-66806588D01*
X85182822Y-66803885D01*
X85241046Y-66836950D01*
X89440633Y-71036538D01*
X89474659Y-71098850D01*
X89469594Y-71169666D01*
X89457297Y-71190392D01*
X89454000Y-71205548D01*
X89454000Y-71965385D01*
X89458475Y-71980624D01*
X89459865Y-71981829D01*
X89467548Y-71983500D01*
X90164885Y-71983500D01*
X90180124Y-71979026D01*
X90185738Y-71972546D01*
X90245464Y-71934162D01*
X90316460Y-71934162D01*
X90370058Y-71965963D01*
X90867094Y-72462999D01*
X90901120Y-72525311D01*
X90903999Y-72552094D01*
X90903999Y-75308732D01*
X90903472Y-75319915D01*
X90901797Y-75327408D01*
X90902046Y-75335334D01*
X90902046Y-75335335D01*
X90903937Y-75395485D01*
X90903999Y-75399444D01*
X90903999Y-75427355D01*
X90904496Y-75431289D01*
X90904496Y-75431290D01*
X90904504Y-75431355D01*
X90905437Y-75443192D01*
X90906826Y-75487388D01*
X90912012Y-75505238D01*
X90912477Y-75506838D01*
X90916486Y-75526199D01*
X90919025Y-75546296D01*
X90921944Y-75553667D01*
X90921944Y-75553669D01*
X90935303Y-75587411D01*
X90939148Y-75598641D01*
X90949173Y-75633148D01*
X90951481Y-75641092D01*
X90955514Y-75647911D01*
X90955516Y-75647916D01*
X90961792Y-75658527D01*
X90970487Y-75676275D01*
X90977947Y-75695116D01*
X90982609Y-75701532D01*
X90982609Y-75701533D01*
X91003935Y-75730886D01*
X91010451Y-75740806D01*
X91026698Y-75768277D01*
X91032957Y-75778861D01*
X91047278Y-75793182D01*
X91060118Y-75808215D01*
X91072027Y-75824606D01*
X91098380Y-75846407D01*
X91106104Y-75852797D01*
X91114883Y-75860787D01*
X94530501Y-79276405D01*
X94564527Y-79338717D01*
X94559462Y-79409532D01*
X94516915Y-79466368D01*
X94450395Y-79491179D01*
X94441406Y-79491500D01*
X60882868Y-79491500D01*
X60814747Y-79471498D01*
X60768254Y-79417842D01*
X60758150Y-79347568D01*
X60787644Y-79282988D01*
X60803566Y-79267587D01*
X60912511Y-79179365D01*
X61179365Y-78912511D01*
X61416863Y-78619225D01*
X61573665Y-78377771D01*
X61620605Y-78305490D01*
X61620607Y-78305487D01*
X61622403Y-78302721D01*
X61623903Y-78299779D01*
X61792236Y-77969405D01*
X61793734Y-77966465D01*
X61928978Y-77614143D01*
X62026653Y-77249613D01*
X62068249Y-76986990D01*
X62085176Y-76880119D01*
X62085177Y-76880111D01*
X62085690Y-76876871D01*
X62105441Y-76500000D01*
X62085690Y-76123129D01*
X62085141Y-76119658D01*
X62041047Y-75841266D01*
X62026653Y-75750387D01*
X61928978Y-75385857D01*
X61908988Y-75333780D01*
X61830464Y-75129220D01*
X61793734Y-75033535D01*
X61775972Y-74998675D01*
X61623902Y-74700221D01*
X61623898Y-74700214D01*
X61622403Y-74697280D01*
X61587109Y-74642931D01*
X61458887Y-74445486D01*
X61416863Y-74380775D01*
X61179365Y-74087489D01*
X60912511Y-73820635D01*
X60619225Y-73583137D01*
X60403960Y-73443343D01*
X60305489Y-73379395D01*
X60305486Y-73379393D01*
X60302720Y-73377597D01*
X60299786Y-73376102D01*
X60299779Y-73376098D01*
X59969405Y-73207764D01*
X59966465Y-73206266D01*
X59727654Y-73114595D01*
X59617233Y-73072208D01*
X59617231Y-73072207D01*
X59614143Y-73071022D01*
X59249613Y-72973347D01*
X59046514Y-72941179D01*
X58880119Y-72914824D01*
X58880111Y-72914823D01*
X58876871Y-72914310D01*
X58594280Y-72899500D01*
X58405720Y-72899500D01*
X58123129Y-72914310D01*
X58119889Y-72914823D01*
X58119881Y-72914824D01*
X57953486Y-72941179D01*
X57750387Y-72973347D01*
X57385857Y-73071022D01*
X57382769Y-73072207D01*
X57382767Y-73072208D01*
X57272346Y-73114595D01*
X57033535Y-73206266D01*
X57030595Y-73207764D01*
X56700221Y-73376098D01*
X56700214Y-73376102D01*
X56697280Y-73377597D01*
X56694514Y-73379393D01*
X56694511Y-73379395D01*
X56596040Y-73443343D01*
X56380775Y-73583137D01*
X56087489Y-73820635D01*
X55820635Y-74087489D01*
X55732418Y-74196428D01*
X55674006Y-74236778D01*
X55603049Y-74239144D01*
X55542077Y-74202771D01*
X55510449Y-74139209D01*
X55508500Y-74117132D01*
X55508500Y-71965385D01*
X71217000Y-71965385D01*
X71221475Y-71980624D01*
X71222865Y-71981829D01*
X71230548Y-71983500D01*
X71927885Y-71983500D01*
X71943124Y-71979025D01*
X71944329Y-71977635D01*
X71946000Y-71969952D01*
X71946000Y-71965385D01*
X72454000Y-71965385D01*
X72458475Y-71980624D01*
X72459865Y-71981829D01*
X72467548Y-71983500D01*
X73164885Y-71983500D01*
X73180124Y-71979025D01*
X73181329Y-71977635D01*
X73183000Y-71969952D01*
X73183000Y-71891234D01*
X73182663Y-71884718D01*
X73172925Y-71790868D01*
X73170032Y-71777472D01*
X73119512Y-71626047D01*
X73113347Y-71612885D01*
X73029574Y-71477508D01*
X73020540Y-71466110D01*
X72907871Y-71353637D01*
X72896460Y-71344625D01*
X72760937Y-71261088D01*
X72747759Y-71254944D01*
X72596234Y-71204685D01*
X72582868Y-71201819D01*
X72490230Y-71192328D01*
X72483815Y-71192000D01*
X72472115Y-71192000D01*
X72456876Y-71196475D01*
X72455671Y-71197865D01*
X72454000Y-71205548D01*
X72454000Y-71965385D01*
X71946000Y-71965385D01*
X71946000Y-71210115D01*
X71941525Y-71194876D01*
X71940135Y-71193671D01*
X71932452Y-71192000D01*
X71916234Y-71192000D01*
X71909718Y-71192337D01*
X71815868Y-71202075D01*
X71802472Y-71204968D01*
X71651047Y-71255488D01*
X71637885Y-71261653D01*
X71502508Y-71345426D01*
X71491110Y-71354460D01*
X71378637Y-71467129D01*
X71369625Y-71478540D01*
X71286088Y-71614063D01*
X71279944Y-71627241D01*
X71229685Y-71778766D01*
X71226819Y-71792132D01*
X71217328Y-71884770D01*
X71217000Y-71891185D01*
X71217000Y-71965385D01*
X55508500Y-71965385D01*
X55508500Y-70952169D01*
X56404501Y-70952169D01*
X56404871Y-70958990D01*
X56410395Y-71009852D01*
X56414021Y-71025104D01*
X56459176Y-71145554D01*
X56467714Y-71161149D01*
X56544215Y-71263224D01*
X56556776Y-71275785D01*
X56658851Y-71352286D01*
X56674446Y-71360824D01*
X56794894Y-71405978D01*
X56810149Y-71409605D01*
X56861014Y-71415131D01*
X56867828Y-71415500D01*
X57490385Y-71415500D01*
X57505624Y-71411025D01*
X57506829Y-71409635D01*
X57508500Y-71401952D01*
X57508500Y-70329615D01*
X57504025Y-70314376D01*
X57502635Y-70313171D01*
X57494952Y-70311500D01*
X56422616Y-70311500D01*
X56407377Y-70315975D01*
X56406172Y-70317365D01*
X56404501Y-70325048D01*
X56404501Y-70952169D01*
X55508500Y-70952169D01*
X55508500Y-50882868D01*
X55528502Y-50814747D01*
X55582158Y-50768254D01*
X55652432Y-50758150D01*
X55717012Y-50787644D01*
X55732413Y-50803566D01*
X55820635Y-50912511D01*
X56087489Y-51179365D01*
X56380775Y-51416863D01*
X56697280Y-51622403D01*
X56700214Y-51623898D01*
X56700221Y-51623902D01*
X56967470Y-51760072D01*
X57033535Y-51793734D01*
X57157886Y-51841468D01*
X57281602Y-51888958D01*
X57385857Y-51928978D01*
X57750387Y-52026653D01*
X57948353Y-52058008D01*
X58119881Y-52085176D01*
X58119889Y-52085177D01*
X58123129Y-52085690D01*
X58405720Y-52100500D01*
X58594280Y-52100500D01*
X58876871Y-52085690D01*
X58880111Y-52085177D01*
X58880119Y-52085176D01*
X59051647Y-52058008D01*
X59249613Y-52026653D01*
X59614143Y-51928978D01*
X59718399Y-51888958D01*
X59842114Y-51841468D01*
X59966465Y-51793734D01*
X60032530Y-51760072D01*
X60299779Y-51623902D01*
X60299786Y-51623898D01*
X60302720Y-51622403D01*
X60619225Y-51416863D01*
X60912511Y-51179365D01*
X61179365Y-50912511D01*
X61416863Y-50619225D01*
X61620606Y-50305489D01*
X61620607Y-50305487D01*
X61622403Y-50302721D01*
X61623903Y-50299779D01*
X61792236Y-49969405D01*
X61793734Y-49966465D01*
X61926442Y-49620749D01*
X61927792Y-49617233D01*
X61927793Y-49617231D01*
X61928978Y-49614143D01*
X62026653Y-49249613D01*
X62085690Y-48876871D01*
X62105441Y-48500000D01*
X62085690Y-48123129D01*
X62084245Y-48114001D01*
X62051981Y-47910300D01*
X62026653Y-47750387D01*
X61928978Y-47385857D01*
X61793734Y-47033535D01*
X61622403Y-46697280D01*
X61416863Y-46380775D01*
X61179365Y-46087489D01*
X60912511Y-45820635D01*
X60803572Y-45732418D01*
X60763222Y-45674006D01*
X60760856Y-45603049D01*
X60797229Y-45542077D01*
X60860791Y-45510449D01*
X60882868Y-45508500D01*
X149117132Y-45508500D01*
X149185253Y-45528502D01*
G37*
G04 #@! TD.AperFunction*
G04 #@! TA.AperFunction,Conductor*
G36*
X88191092Y-64188254D02*
G01*
X88202294Y-64198198D01*
X92622429Y-68618334D01*
X97029595Y-73025500D01*
X97063621Y-73087812D01*
X97066500Y-73114595D01*
X97066500Y-75435036D01*
X97046498Y-75503157D01*
X97006804Y-75542179D01*
X96995969Y-75548884D01*
X96990796Y-75554066D01*
X96878242Y-75666816D01*
X96878238Y-75666821D01*
X96873071Y-75671997D01*
X96869231Y-75678227D01*
X96869230Y-75678228D01*
X96794048Y-75800196D01*
X96781791Y-75820080D01*
X96727026Y-75985191D01*
X96716500Y-76087928D01*
X96716500Y-76687072D01*
X96716837Y-76690318D01*
X96716837Y-76690322D01*
X96724285Y-76762099D01*
X96727293Y-76791093D01*
X96729474Y-76797629D01*
X96729474Y-76797631D01*
X96767448Y-76911453D01*
X96782346Y-76956107D01*
X96873884Y-77104031D01*
X96879066Y-77109204D01*
X96980786Y-77210747D01*
X97014865Y-77273030D01*
X97009862Y-77343850D01*
X96980941Y-77388937D01*
X96878246Y-77491812D01*
X96878242Y-77491817D01*
X96873071Y-77496997D01*
X96869231Y-77503227D01*
X96869230Y-77503228D01*
X96786446Y-77637529D01*
X96781791Y-77645080D01*
X96727026Y-77810191D01*
X96726326Y-77817027D01*
X96726325Y-77817030D01*
X96725331Y-77826731D01*
X96716500Y-77912928D01*
X96716500Y-78512072D01*
X96716837Y-78515318D01*
X96716837Y-78515322D01*
X96725348Y-78597343D01*
X96727293Y-78616093D01*
X96729474Y-78622629D01*
X96729474Y-78622631D01*
X96744651Y-78668122D01*
X96782346Y-78781107D01*
X96863648Y-78912489D01*
X96873678Y-78928698D01*
X96892516Y-78997150D01*
X96871355Y-79064920D01*
X96816914Y-79110491D01*
X96766534Y-79121001D01*
X96219096Y-79121001D01*
X96150975Y-79100999D01*
X96130001Y-79084096D01*
X93690675Y-76644770D01*
X93656649Y-76582458D01*
X93661714Y-76511643D01*
X93704261Y-76454807D01*
X93752604Y-76432638D01*
X93794872Y-76423306D01*
X93998918Y-76346000D01*
X94042818Y-76329368D01*
X94042821Y-76329367D01*
X94047088Y-76327750D01*
X94263579Y-76207500D01*
X94278875Y-76199004D01*
X94278876Y-76199003D01*
X94282868Y-76196786D01*
X94457665Y-76063385D01*
X94493641Y-76035929D01*
X94493642Y-76035928D01*
X94497273Y-76033157D01*
X94506537Y-76023681D01*
X94600272Y-75927795D01*
X94685812Y-75840292D01*
X94844534Y-75622230D01*
X94902557Y-75511946D01*
X94967990Y-75387579D01*
X94967993Y-75387573D01*
X94970115Y-75383539D01*
X94976218Y-75366259D01*
X95058402Y-75133533D01*
X95058402Y-75133532D01*
X95059925Y-75129220D01*
X95091037Y-74971371D01*
X95111200Y-74869072D01*
X95111201Y-74869066D01*
X95112081Y-74864600D01*
X95112521Y-74855770D01*
X95125264Y-74599792D01*
X95125264Y-74599786D01*
X95125491Y-74595223D01*
X95099875Y-74326731D01*
X95097084Y-74315322D01*
X95036855Y-74069188D01*
X95035769Y-74064750D01*
X94934515Y-73814767D01*
X94816334Y-73612928D01*
X94800545Y-73585963D01*
X94800544Y-73585962D01*
X94798235Y-73582018D01*
X94629784Y-73371381D01*
X94432691Y-73187266D01*
X94211084Y-73033532D01*
X94207001Y-73031501D01*
X94206998Y-73031499D01*
X94066090Y-72961399D01*
X93969606Y-72913399D01*
X93965272Y-72911978D01*
X93965269Y-72911977D01*
X93717647Y-72830802D01*
X93717641Y-72830801D01*
X93713314Y-72829382D01*
X93708822Y-72828602D01*
X93451360Y-72783899D01*
X93451352Y-72783898D01*
X93447579Y-72783243D01*
X93436317Y-72782682D01*
X93363922Y-72779078D01*
X93363914Y-72779078D01*
X93362351Y-72779000D01*
X93193988Y-72779000D01*
X93191720Y-72779165D01*
X93191708Y-72779165D01*
X93069354Y-72788043D01*
X92993496Y-72793547D01*
X92989041Y-72794531D01*
X92989038Y-72794531D01*
X92734588Y-72850709D01*
X92734584Y-72850710D01*
X92730128Y-72851694D01*
X92658670Y-72878767D01*
X92482182Y-72945632D01*
X92482179Y-72945633D01*
X92477912Y-72947250D01*
X92358180Y-73013755D01*
X92288918Y-73029347D01*
X92222220Y-73005017D01*
X92179264Y-72948490D01*
X92170999Y-72903606D01*
X92170999Y-72316266D01*
X92171526Y-72305083D01*
X92173201Y-72297590D01*
X92171061Y-72229499D01*
X92170999Y-72225542D01*
X92170999Y-72197643D01*
X92170495Y-72193652D01*
X92169562Y-72181810D01*
X92168422Y-72145535D01*
X92168173Y-72137610D01*
X92165961Y-72129996D01*
X92165960Y-72129991D01*
X92162522Y-72118158D01*
X92158511Y-72098794D01*
X92156966Y-72086563D01*
X92155973Y-72078702D01*
X92153056Y-72071335D01*
X92153055Y-72071330D01*
X92139697Y-72037591D01*
X92135853Y-72026364D01*
X92133289Y-72017540D01*
X92123517Y-71983906D01*
X92116799Y-71972546D01*
X92113206Y-71966471D01*
X92104511Y-71948723D01*
X92097051Y-71929882D01*
X92084524Y-71912639D01*
X92071063Y-71894112D01*
X92064547Y-71884192D01*
X92046079Y-71852964D01*
X92046077Y-71852961D01*
X92042041Y-71846137D01*
X92027720Y-71831816D01*
X92014879Y-71816782D01*
X92002971Y-71800392D01*
X91968894Y-71772201D01*
X91960115Y-71764211D01*
X85995405Y-65799500D01*
X85961379Y-65737188D01*
X85958500Y-65710405D01*
X85958500Y-65359500D01*
X85978502Y-65291379D01*
X86032158Y-65244886D01*
X86084500Y-65233500D01*
X86328777Y-65233500D01*
X86396898Y-65253502D01*
X86437896Y-65296498D01*
X86460960Y-65336447D01*
X86465378Y-65341354D01*
X86465379Y-65341355D01*
X86546879Y-65431870D01*
X86588747Y-65478369D01*
X86684400Y-65547865D01*
X86713388Y-65568926D01*
X86743248Y-65590621D01*
X86749276Y-65593305D01*
X86749278Y-65593306D01*
X86911681Y-65665612D01*
X86917712Y-65668297D01*
X87004474Y-65686739D01*
X87098056Y-65706631D01*
X87098061Y-65706631D01*
X87104513Y-65708003D01*
X87295487Y-65708003D01*
X87301939Y-65706631D01*
X87301944Y-65706631D01*
X87395526Y-65686739D01*
X87482288Y-65668297D01*
X87488319Y-65665612D01*
X87650722Y-65593306D01*
X87650724Y-65593305D01*
X87656752Y-65590621D01*
X87686613Y-65568926D01*
X87715600Y-65547865D01*
X87811253Y-65478369D01*
X87853121Y-65431870D01*
X87934621Y-65341355D01*
X87934622Y-65341354D01*
X87939040Y-65336447D01*
X88034527Y-65171059D01*
X88093542Y-64989431D01*
X88094443Y-64980865D01*
X88112814Y-64806068D01*
X88113504Y-64799503D01*
X88108812Y-64754861D01*
X88094232Y-64616138D01*
X88094232Y-64616136D01*
X88093542Y-64609575D01*
X88034527Y-64427947D01*
X87996885Y-64362750D01*
X87980148Y-64293758D01*
X87996889Y-64236747D01*
X88004083Y-64224288D01*
X88055468Y-64175297D01*
X88125182Y-64161864D01*
X88191092Y-64188254D01*
G37*
G04 #@! TD.AperFunction*
G04 #@! TA.AperFunction,Conductor*
G36*
X90343850Y-62890138D02*
G01*
X90388937Y-62919059D01*
X90491815Y-63021757D01*
X90491820Y-63021761D01*
X90496997Y-63026929D01*
X90503224Y-63030767D01*
X90503226Y-63030769D01*
X90519116Y-63040564D01*
X90566609Y-63093336D01*
X90579000Y-63147824D01*
X90579000Y-63183733D01*
X90578473Y-63194916D01*
X90576798Y-63202409D01*
X90577047Y-63210335D01*
X90577047Y-63210336D01*
X90578938Y-63270486D01*
X90579000Y-63274445D01*
X90579000Y-63302356D01*
X90579497Y-63306290D01*
X90579497Y-63306291D01*
X90579505Y-63306356D01*
X90580438Y-63318193D01*
X90581827Y-63362389D01*
X90586153Y-63377279D01*
X90587478Y-63381839D01*
X90591487Y-63401200D01*
X90592550Y-63409610D01*
X90594026Y-63421297D01*
X90596945Y-63428668D01*
X90596945Y-63428670D01*
X90610304Y-63462412D01*
X90614149Y-63473642D01*
X90626482Y-63516093D01*
X90630515Y-63522912D01*
X90630517Y-63522917D01*
X90636793Y-63533528D01*
X90645488Y-63551276D01*
X90652948Y-63570117D01*
X90657610Y-63576533D01*
X90657610Y-63576534D01*
X90678936Y-63605887D01*
X90685452Y-63615807D01*
X90701943Y-63643691D01*
X90707958Y-63653862D01*
X90722279Y-63668183D01*
X90735119Y-63683216D01*
X90747028Y-63699607D01*
X90755571Y-63706674D01*
X90781105Y-63727798D01*
X90789884Y-63735788D01*
X102024824Y-74970728D01*
X102058850Y-75033040D01*
X102053785Y-75103855D01*
X102011238Y-75160691D01*
X101975918Y-75179242D01*
X101944247Y-75189900D01*
X101944242Y-75189902D01*
X101937777Y-75192078D01*
X101777891Y-75288147D01*
X101642364Y-75416308D01*
X101638529Y-75421951D01*
X101541379Y-75564904D01*
X101537520Y-75570582D01*
X101534988Y-75576911D01*
X101534987Y-75576914D01*
X101495789Y-75674916D01*
X101451919Y-75730737D01*
X101384835Y-75753978D01*
X101315834Y-75737262D01*
X101266825Y-75685895D01*
X101253537Y-75641728D01*
X101252605Y-75633148D01*
X101248979Y-75617896D01*
X101203824Y-75497446D01*
X101195286Y-75481851D01*
X101118785Y-75379776D01*
X101106224Y-75367215D01*
X101004149Y-75290714D01*
X100988554Y-75282176D01*
X100868106Y-75237022D01*
X100852851Y-75233395D01*
X100801986Y-75227869D01*
X100795172Y-75227500D01*
X100222615Y-75227500D01*
X100207376Y-75231975D01*
X100206171Y-75233365D01*
X100204500Y-75241048D01*
X100204500Y-76063385D01*
X100208974Y-76078623D01*
X100210365Y-76079829D01*
X100218048Y-76081500D01*
X101240384Y-76081500D01*
X101279496Y-76070016D01*
X101299066Y-76057440D01*
X101370062Y-76057444D01*
X101429787Y-76095830D01*
X101456034Y-76144879D01*
X101497080Y-76293898D01*
X101584075Y-76458898D01*
X101588480Y-76464111D01*
X101588483Y-76464115D01*
X101700064Y-76596153D01*
X101700068Y-76596157D01*
X101704471Y-76601367D01*
X101709895Y-76605514D01*
X101709896Y-76605515D01*
X101847231Y-76710516D01*
X101847235Y-76710519D01*
X101852652Y-76714660D01*
X102021704Y-76793490D01*
X102203740Y-76834180D01*
X102209463Y-76834500D01*
X102346596Y-76834500D01*
X102485437Y-76819417D01*
X102662223Y-76759922D01*
X102822109Y-76663853D01*
X102957636Y-76535692D01*
X102981892Y-76500000D01*
X103058646Y-76387060D01*
X103058647Y-76387058D01*
X103062480Y-76381418D01*
X103066111Y-76372342D01*
X103129215Y-76214570D01*
X103129216Y-76214568D01*
X103131751Y-76208229D01*
X103132866Y-76201496D01*
X103132867Y-76201491D01*
X103140637Y-76154554D01*
X103171497Y-76090614D01*
X103232025Y-76053509D01*
X103303006Y-76055019D01*
X103347283Y-76079811D01*
X103355048Y-76081500D01*
X104777500Y-76081500D01*
X104845621Y-76101502D01*
X104892114Y-76155158D01*
X104903500Y-76207500D01*
X104903500Y-76463500D01*
X104883498Y-76531621D01*
X104829842Y-76578114D01*
X104777500Y-76589500D01*
X103359616Y-76589500D01*
X103344377Y-76593975D01*
X103343172Y-76595365D01*
X103341501Y-76603048D01*
X103341501Y-76980169D01*
X103341871Y-76986990D01*
X103347395Y-77037852D01*
X103352849Y-77060793D01*
X103350912Y-77061254D01*
X103355331Y-77121569D01*
X103321413Y-77183940D01*
X103259160Y-77218073D01*
X103232164Y-77220999D01*
X101367836Y-77220999D01*
X101299715Y-77200997D01*
X101253222Y-77147341D01*
X101243118Y-77077067D01*
X101247280Y-77060822D01*
X101247151Y-77060791D01*
X101252605Y-77037851D01*
X101258131Y-76986986D01*
X101258500Y-76980172D01*
X101258500Y-76607615D01*
X101254025Y-76592376D01*
X101252635Y-76591171D01*
X101244952Y-76589500D01*
X99822500Y-76589500D01*
X99754379Y-76569498D01*
X99707886Y-76515842D01*
X99696500Y-76463500D01*
X99696500Y-75245616D01*
X99692025Y-75230377D01*
X99690635Y-75229172D01*
X99682952Y-75227501D01*
X99105831Y-75227501D01*
X99099010Y-75227871D01*
X99048148Y-75233395D01*
X99032896Y-75237021D01*
X98912446Y-75282176D01*
X98896851Y-75290714D01*
X98794776Y-75367215D01*
X98782215Y-75379776D01*
X98705714Y-75481851D01*
X98697176Y-75497446D01*
X98671887Y-75564904D01*
X98629245Y-75621668D01*
X98562684Y-75646368D01*
X98493335Y-75631161D01*
X98464887Y-75609847D01*
X98419902Y-75564940D01*
X98403003Y-75548071D01*
X98393386Y-75542143D01*
X98391559Y-75540114D01*
X98391027Y-75539693D01*
X98391099Y-75539602D01*
X98345892Y-75489372D01*
X98333500Y-75434882D01*
X98333500Y-72878767D01*
X98334027Y-72867584D01*
X98335702Y-72860091D01*
X98335315Y-72847759D01*
X98333562Y-72792001D01*
X98333500Y-72788043D01*
X98333500Y-72760144D01*
X98332996Y-72756153D01*
X98332063Y-72744311D01*
X98331501Y-72726405D01*
X98330674Y-72700111D01*
X98328461Y-72692494D01*
X98328460Y-72692488D01*
X98325023Y-72680659D01*
X98321012Y-72661295D01*
X98319467Y-72649064D01*
X98318474Y-72641203D01*
X98315557Y-72633836D01*
X98315556Y-72633831D01*
X98302198Y-72600092D01*
X98298354Y-72588865D01*
X98291856Y-72566500D01*
X98286018Y-72546407D01*
X98275707Y-72528972D01*
X98267012Y-72511224D01*
X98259552Y-72492383D01*
X98252750Y-72483020D01*
X98233564Y-72456613D01*
X98227048Y-72446693D01*
X98208580Y-72415465D01*
X98208578Y-72415462D01*
X98204542Y-72408638D01*
X98190221Y-72394317D01*
X98177380Y-72379283D01*
X98170131Y-72369306D01*
X98165472Y-72362893D01*
X98131395Y-72334702D01*
X98122616Y-72326712D01*
X89194500Y-63398595D01*
X89160474Y-63336283D01*
X89165539Y-63265468D01*
X89208086Y-63208632D01*
X89274606Y-63183821D01*
X89283595Y-63183500D01*
X89687072Y-63183500D01*
X89690318Y-63183163D01*
X89690322Y-63183163D01*
X89784235Y-63173419D01*
X89784239Y-63173418D01*
X89791093Y-63172707D01*
X89797629Y-63170526D01*
X89797631Y-63170526D01*
X89949159Y-63119972D01*
X89956107Y-63117654D01*
X90104031Y-63026116D01*
X90139476Y-62990609D01*
X90210747Y-62919214D01*
X90273030Y-62885135D01*
X90343850Y-62890138D01*
G37*
G04 #@! TD.AperFunction*
G04 #@! TA.AperFunction,Conductor*
G36*
X93151558Y-56609962D02*
G01*
X93379595Y-56837999D01*
X93413621Y-56900311D01*
X93416500Y-56927094D01*
X93416500Y-57312072D01*
X93416837Y-57315318D01*
X93416837Y-57315322D01*
X93425381Y-57397661D01*
X93427293Y-57416093D01*
X93429474Y-57422629D01*
X93429474Y-57422631D01*
X93466688Y-57534174D01*
X93482346Y-57581107D01*
X93573884Y-57729031D01*
X93579066Y-57734204D01*
X93691816Y-57846758D01*
X93691821Y-57846762D01*
X93696997Y-57851929D01*
X93703227Y-57855769D01*
X93703228Y-57855770D01*
X93724325Y-57868774D01*
X93845080Y-57943209D01*
X94010191Y-57997974D01*
X94017027Y-57998674D01*
X94017030Y-57998675D01*
X94065815Y-58003673D01*
X94112928Y-58008500D01*
X94687072Y-58008500D01*
X94690318Y-58008163D01*
X94690322Y-58008163D01*
X94784235Y-57998419D01*
X94784239Y-57998418D01*
X94791093Y-57997707D01*
X94797629Y-57995526D01*
X94797631Y-57995526D01*
X94930395Y-57951232D01*
X94956107Y-57942654D01*
X95104031Y-57851116D01*
X95165292Y-57789748D01*
X95221758Y-57733184D01*
X95221762Y-57733179D01*
X95226929Y-57728003D01*
X95262894Y-57669658D01*
X95271384Y-57655884D01*
X95324156Y-57608391D01*
X95378644Y-57596000D01*
X106913153Y-57596000D01*
X106981274Y-57616002D01*
X107027767Y-57669658D01*
X107037871Y-57739932D01*
X107008377Y-57804512D01*
X106980667Y-57828385D01*
X106755626Y-57971200D01*
X106755620Y-57971204D01*
X106753389Y-57972620D01*
X106385583Y-58251800D01*
X106042429Y-58560778D01*
X106040626Y-58562698D01*
X106040625Y-58562699D01*
X105731472Y-58891913D01*
X105726332Y-58897386D01*
X105724683Y-58899467D01*
X105724680Y-58899470D01*
X105705373Y-58923830D01*
X105439511Y-59259265D01*
X105438048Y-59261467D01*
X105209099Y-59606064D01*
X105183977Y-59643875D01*
X104961522Y-60048518D01*
X104773707Y-60470357D01*
X104621850Y-60906432D01*
X104621195Y-60908983D01*
X104621192Y-60908993D01*
X104564741Y-61128856D01*
X104507015Y-61353686D01*
X104506573Y-61356301D01*
X104506571Y-61356309D01*
X104456754Y-61650841D01*
X104430007Y-61808979D01*
X104391368Y-62269120D01*
X104391368Y-62730880D01*
X104391588Y-62733497D01*
X104391588Y-62733503D01*
X104404297Y-62884848D01*
X104430007Y-63191021D01*
X104430449Y-63193634D01*
X104505052Y-63634706D01*
X104507015Y-63646314D01*
X104556643Y-63839604D01*
X104620459Y-64088149D01*
X104621850Y-64093568D01*
X104773707Y-64529643D01*
X104961522Y-64951482D01*
X105183977Y-65356125D01*
X105185429Y-65358311D01*
X105185433Y-65358317D01*
X105343695Y-65596520D01*
X105439511Y-65740735D01*
X105576282Y-65913297D01*
X105675327Y-66038261D01*
X105726332Y-66102614D01*
X105728145Y-66104544D01*
X105728147Y-66104547D01*
X106022907Y-66418433D01*
X106042429Y-66439222D01*
X106385583Y-66748200D01*
X106440385Y-66789797D01*
X106701582Y-66988056D01*
X106753389Y-67027380D01*
X106755620Y-67028796D01*
X106755626Y-67028800D01*
X106961938Y-67159729D01*
X107143266Y-67274803D01*
X107145593Y-67276019D01*
X107145599Y-67276023D01*
X107550142Y-67487513D01*
X107550147Y-67487515D01*
X107552480Y-67488735D01*
X107978159Y-67667674D01*
X107980667Y-67668489D01*
X107980670Y-67668490D01*
X108414804Y-67809549D01*
X108414808Y-67809550D01*
X108417319Y-67810366D01*
X108680362Y-67872062D01*
X108864303Y-67915205D01*
X108864307Y-67915206D01*
X108866879Y-67915809D01*
X108869496Y-67916196D01*
X108869499Y-67916196D01*
X109321064Y-67982878D01*
X109321068Y-67982878D01*
X109323686Y-67983265D01*
X109784535Y-68012259D01*
X109787167Y-68012204D01*
X109787174Y-68012204D01*
X109963193Y-68008516D01*
X110246194Y-68002588D01*
X110705424Y-67954321D01*
X111159005Y-67867796D01*
X111161534Y-67867090D01*
X111161542Y-67867088D01*
X111601221Y-67744328D01*
X111601232Y-67744324D01*
X111603755Y-67743620D01*
X111881652Y-67640271D01*
X112034082Y-67583583D01*
X112034088Y-67583580D01*
X112036555Y-67582663D01*
X112454368Y-67386055D01*
X112854264Y-67155175D01*
X113233438Y-66891642D01*
X113589230Y-66597305D01*
X113919145Y-66274229D01*
X114003136Y-66176925D01*
X114219134Y-65926688D01*
X114220869Y-65924678D01*
X114492285Y-65551107D01*
X114494013Y-65548255D01*
X114635357Y-65314866D01*
X114731489Y-65156133D01*
X114936804Y-64742529D01*
X115106789Y-64313196D01*
X115240252Y-63871144D01*
X115241323Y-63866109D01*
X115335711Y-63422047D01*
X115336258Y-63419474D01*
X115394131Y-62961355D01*
X115395936Y-62918303D01*
X115412896Y-62513641D01*
X115413468Y-62500000D01*
X115407375Y-62354633D01*
X115394242Y-62041291D01*
X115394242Y-62041289D01*
X115394131Y-62038645D01*
X115336258Y-61580526D01*
X115288113Y-61354022D01*
X115240798Y-61131423D01*
X115240796Y-61131415D01*
X115240252Y-61128856D01*
X115106789Y-60686804D01*
X114936804Y-60257471D01*
X114796070Y-59973964D01*
X114732666Y-59846238D01*
X114731489Y-59843867D01*
X114534527Y-59518643D01*
X114493651Y-59451148D01*
X114493647Y-59451142D01*
X114492285Y-59448893D01*
X114220869Y-59075322D01*
X114186842Y-59035901D01*
X114118348Y-58956550D01*
X114088978Y-58891913D01*
X114099215Y-58821658D01*
X114145810Y-58768091D01*
X114213969Y-58748219D01*
X114282052Y-58768351D01*
X114302823Y-58785123D01*
X117727541Y-62209842D01*
X121129595Y-65611896D01*
X121163621Y-65674208D01*
X121166500Y-65700991D01*
X121166500Y-69801233D01*
X121165973Y-69812416D01*
X121164298Y-69819909D01*
X121164547Y-69827835D01*
X121164547Y-69827836D01*
X121166438Y-69887986D01*
X121166500Y-69891945D01*
X121166500Y-69919856D01*
X121166997Y-69923790D01*
X121166997Y-69923791D01*
X121167005Y-69923856D01*
X121167938Y-69935693D01*
X121169327Y-69979889D01*
X121174978Y-69999339D01*
X121178987Y-70018700D01*
X121181526Y-70038797D01*
X121184445Y-70046168D01*
X121184445Y-70046170D01*
X121197804Y-70079912D01*
X121201649Y-70091142D01*
X121213982Y-70133593D01*
X121218015Y-70140412D01*
X121218017Y-70140417D01*
X121224293Y-70151028D01*
X121232988Y-70168776D01*
X121240448Y-70187617D01*
X121245110Y-70194033D01*
X121245110Y-70194034D01*
X121266436Y-70223387D01*
X121272952Y-70233307D01*
X121289964Y-70262072D01*
X121295458Y-70271362D01*
X121309779Y-70285683D01*
X121322619Y-70300716D01*
X121334528Y-70317107D01*
X121368605Y-70345298D01*
X121377384Y-70353288D01*
X122074778Y-71050682D01*
X122108804Y-71112994D01*
X122107100Y-71173448D01*
X122085989Y-71249570D01*
X122085441Y-71254700D01*
X122085440Y-71254704D01*
X122081933Y-71287522D01*
X122062251Y-71471695D01*
X122062548Y-71476848D01*
X122062548Y-71476851D01*
X122073679Y-71669890D01*
X122075110Y-71694715D01*
X122076247Y-71699761D01*
X122076248Y-71699767D01*
X122090706Y-71763919D01*
X122124222Y-71912639D01*
X122160623Y-72002285D01*
X122192075Y-72079741D01*
X122208266Y-72119616D01*
X122297168Y-72264691D01*
X122318600Y-72299665D01*
X122337138Y-72368199D01*
X122315682Y-72435875D01*
X122261042Y-72481208D01*
X122211167Y-72491500D01*
X105139594Y-72491500D01*
X105071473Y-72471498D01*
X105050499Y-72454595D01*
X104003650Y-71407745D01*
X102928652Y-70332747D01*
X102921112Y-70324461D01*
X102917000Y-70317982D01*
X102898615Y-70300717D01*
X102875759Y-70279254D01*
X102867348Y-70271356D01*
X102864507Y-70268602D01*
X102844770Y-70248865D01*
X102841573Y-70246385D01*
X102832551Y-70238680D01*
X102822243Y-70229000D01*
X102800321Y-70208414D01*
X102793375Y-70204595D01*
X102793372Y-70204593D01*
X102782566Y-70198652D01*
X102766047Y-70187801D01*
X102760048Y-70183148D01*
X102750041Y-70175386D01*
X102742772Y-70172241D01*
X102742768Y-70172238D01*
X102709463Y-70157826D01*
X102698813Y-70152609D01*
X102660060Y-70131305D01*
X102640437Y-70126267D01*
X102621734Y-70119863D01*
X102610420Y-70114967D01*
X102610419Y-70114967D01*
X102603145Y-70111819D01*
X102595322Y-70110580D01*
X102595312Y-70110577D01*
X102559476Y-70104901D01*
X102547856Y-70102495D01*
X102512711Y-70093472D01*
X102512710Y-70093472D01*
X102505030Y-70091500D01*
X102484776Y-70091500D01*
X102465065Y-70089949D01*
X102452886Y-70088020D01*
X102445057Y-70086780D01*
X102437165Y-70087526D01*
X102401039Y-70090941D01*
X102389181Y-70091500D01*
X102108200Y-70091500D01*
X102040079Y-70071498D01*
X102020853Y-70055157D01*
X102020580Y-70055460D01*
X102015668Y-70051037D01*
X102011253Y-70046134D01*
X101989671Y-70030454D01*
X101862094Y-69937763D01*
X101862093Y-69937762D01*
X101856752Y-69933882D01*
X101850724Y-69931198D01*
X101850722Y-69931197D01*
X101688319Y-69858891D01*
X101688318Y-69858891D01*
X101682288Y-69856206D01*
X101587156Y-69835985D01*
X101501944Y-69817872D01*
X101501939Y-69817872D01*
X101495487Y-69816500D01*
X101304513Y-69816500D01*
X101298061Y-69817872D01*
X101298056Y-69817872D01*
X101212844Y-69835985D01*
X101117712Y-69856206D01*
X101111682Y-69858891D01*
X101111681Y-69858891D01*
X100949278Y-69931197D01*
X100949276Y-69931198D01*
X100943248Y-69933882D01*
X100788747Y-70046134D01*
X100784326Y-70051044D01*
X100784325Y-70051045D01*
X100673548Y-70174076D01*
X100660960Y-70188056D01*
X100627252Y-70246441D01*
X100623373Y-70253159D01*
X100571991Y-70302152D01*
X100502277Y-70315588D01*
X100436366Y-70289202D01*
X100425159Y-70279254D01*
X99547122Y-69401217D01*
X99513096Y-69338905D01*
X99510907Y-69325292D01*
X99509302Y-69310016D01*
X99497587Y-69198554D01*
X99494232Y-69166635D01*
X99494232Y-69166633D01*
X99493542Y-69160072D01*
X99434527Y-68978444D01*
X99339040Y-68813056D01*
X99300335Y-68770069D01*
X99215675Y-68676045D01*
X99215674Y-68676044D01*
X99211253Y-68671134D01*
X99066552Y-68566002D01*
X99062094Y-68562763D01*
X99062093Y-68562762D01*
X99056752Y-68558882D01*
X99050724Y-68556198D01*
X99050722Y-68556197D01*
X98888319Y-68483891D01*
X98888318Y-68483891D01*
X98882288Y-68481206D01*
X98788887Y-68461353D01*
X98701944Y-68442872D01*
X98701939Y-68442872D01*
X98695487Y-68441500D01*
X98504513Y-68441500D01*
X98498061Y-68442872D01*
X98498056Y-68442872D01*
X98411113Y-68461353D01*
X98317712Y-68481206D01*
X98311682Y-68483891D01*
X98311681Y-68483891D01*
X98149278Y-68556197D01*
X98149276Y-68556198D01*
X98143248Y-68558882D01*
X98137907Y-68562762D01*
X98137906Y-68562763D01*
X98133448Y-68566002D01*
X97988747Y-68671134D01*
X97984326Y-68676044D01*
X97984325Y-68676045D01*
X97950168Y-68713980D01*
X97861427Y-68812538D01*
X97861425Y-68812539D01*
X97860960Y-68813056D01*
X97860865Y-68812971D01*
X97806936Y-68854552D01*
X97736199Y-68860623D01*
X97672134Y-68826229D01*
X91989569Y-63143664D01*
X91955543Y-63081352D01*
X91960608Y-63010537D01*
X91989490Y-62965552D01*
X92046757Y-62908184D01*
X92051929Y-62903003D01*
X92076877Y-62862530D01*
X92139369Y-62761150D01*
X92139370Y-62761148D01*
X92143209Y-62754920D01*
X92197974Y-62589809D01*
X92208500Y-62487072D01*
X92208500Y-61912928D01*
X92205113Y-61880283D01*
X92198419Y-61815765D01*
X92198418Y-61815761D01*
X92197707Y-61808907D01*
X92194736Y-61800000D01*
X92144972Y-61650841D01*
X92142654Y-61643893D01*
X92051116Y-61495969D01*
X91994213Y-61439166D01*
X91960134Y-61376884D01*
X91965137Y-61306064D01*
X91994058Y-61260975D01*
X91998413Y-61256613D01*
X92051929Y-61203003D01*
X92066550Y-61179283D01*
X92139369Y-61061150D01*
X92139370Y-61061148D01*
X92143209Y-61054920D01*
X92197974Y-60889809D01*
X92199034Y-60879470D01*
X92208172Y-60790271D01*
X92208500Y-60787072D01*
X92208500Y-60212928D01*
X92206074Y-60189542D01*
X92198419Y-60115765D01*
X92198418Y-60115761D01*
X92197707Y-60108907D01*
X92192156Y-60092267D01*
X92144972Y-59950841D01*
X92142654Y-59943893D01*
X92051116Y-59795969D01*
X91994213Y-59739166D01*
X91960134Y-59676884D01*
X91965137Y-59606064D01*
X91994058Y-59560975D01*
X92010397Y-59544608D01*
X92051929Y-59503003D01*
X92101527Y-59422540D01*
X92139369Y-59361150D01*
X92139370Y-59361148D01*
X92143209Y-59354920D01*
X92197974Y-59189809D01*
X92200115Y-59168919D01*
X92206023Y-59111251D01*
X92208500Y-59087072D01*
X92208500Y-58512928D01*
X92208163Y-58509678D01*
X92198419Y-58415765D01*
X92198418Y-58415761D01*
X92197707Y-58408907D01*
X92194736Y-58400000D01*
X92144972Y-58250841D01*
X92142654Y-58243893D01*
X92051116Y-58095969D01*
X92033983Y-58078866D01*
X91958659Y-58003673D01*
X91924580Y-57941391D01*
X91929583Y-57870570D01*
X91972080Y-57813698D01*
X92038579Y-57788829D01*
X92047677Y-57788500D01*
X92478134Y-57788500D01*
X92540316Y-57781745D01*
X92676705Y-57730615D01*
X92793261Y-57643261D01*
X92880615Y-57526705D01*
X92931745Y-57390316D01*
X92938500Y-57328134D01*
X92938500Y-56831866D01*
X92931745Y-56769684D01*
X92933884Y-56769452D01*
X92933834Y-56740488D01*
X92931252Y-56740208D01*
X92937200Y-56685450D01*
X92964441Y-56619888D01*
X93022804Y-56579461D01*
X93093758Y-56577005D01*
X93151558Y-56609962D01*
G37*
G04 #@! TD.AperFunction*
G04 #@! TA.AperFunction,Conductor*
G36*
X80989145Y-59418504D02*
G01*
X81000825Y-59431984D01*
X81061739Y-59513261D01*
X81068919Y-59518642D01*
X81068920Y-59518643D01*
X81103565Y-59544608D01*
X81146080Y-59601467D01*
X81151413Y-59631074D01*
X81158475Y-59655123D01*
X81159865Y-59656328D01*
X81167548Y-59657999D01*
X81219669Y-59657999D01*
X81226490Y-59657629D01*
X81285207Y-59651252D01*
X81285505Y-59653998D01*
X81314446Y-59653940D01*
X81314684Y-59651745D01*
X81368867Y-59657631D01*
X81376866Y-59658500D01*
X82023134Y-59658500D01*
X82031134Y-59657631D01*
X82085316Y-59651745D01*
X82085580Y-59654174D01*
X82114420Y-59654174D01*
X82114684Y-59651745D01*
X82168867Y-59657631D01*
X82176866Y-59658500D01*
X82823134Y-59658500D01*
X82831134Y-59657631D01*
X82885316Y-59651745D01*
X82885580Y-59654174D01*
X82914420Y-59654174D01*
X82914684Y-59651745D01*
X82968867Y-59657631D01*
X82976866Y-59658500D01*
X83315500Y-59658500D01*
X83383621Y-59678502D01*
X83430114Y-59732158D01*
X83441500Y-59784500D01*
X83441500Y-60123134D01*
X83441869Y-60126531D01*
X83448255Y-60185316D01*
X83445826Y-60185580D01*
X83445826Y-60214420D01*
X83448255Y-60214684D01*
X83447727Y-60219549D01*
X83441500Y-60276866D01*
X83441500Y-60923134D01*
X83441869Y-60926531D01*
X83448255Y-60985316D01*
X83445826Y-60985580D01*
X83445826Y-61014420D01*
X83448255Y-61014684D01*
X83441500Y-61076866D01*
X83441500Y-61723134D01*
X83441869Y-61726531D01*
X83448255Y-61785316D01*
X83445826Y-61785580D01*
X83445826Y-61814420D01*
X83448255Y-61814684D01*
X83441500Y-61876866D01*
X83441500Y-62523134D01*
X83441869Y-62526531D01*
X83448255Y-62585316D01*
X83445826Y-62585580D01*
X83445826Y-62614420D01*
X83448255Y-62614684D01*
X83444795Y-62646539D01*
X83441500Y-62676866D01*
X83441500Y-63323134D01*
X83441869Y-63326531D01*
X83448255Y-63385316D01*
X83445826Y-63385580D01*
X83445826Y-63414420D01*
X83448255Y-63414684D01*
X83441500Y-63476866D01*
X83441500Y-64123134D01*
X83441869Y-64126531D01*
X83448255Y-64185316D01*
X83445826Y-64185580D01*
X83445826Y-64214420D01*
X83448255Y-64214684D01*
X83441500Y-64276866D01*
X83441500Y-64923134D01*
X83441869Y-64926531D01*
X83448255Y-64985316D01*
X83445826Y-64985580D01*
X83445826Y-65014420D01*
X83448255Y-65014684D01*
X83441500Y-65076866D01*
X83441500Y-65415500D01*
X83421498Y-65483621D01*
X83367842Y-65530114D01*
X83315500Y-65541500D01*
X82976866Y-65541500D01*
X82973469Y-65541869D01*
X82937044Y-65545826D01*
X82914684Y-65548255D01*
X82914420Y-65545826D01*
X82885580Y-65545826D01*
X82885316Y-65548255D01*
X82826531Y-65541869D01*
X82823134Y-65541500D01*
X82176866Y-65541500D01*
X82173469Y-65541869D01*
X82137044Y-65545826D01*
X82114684Y-65548255D01*
X82114452Y-65546116D01*
X82085488Y-65546166D01*
X82085207Y-65548748D01*
X82026486Y-65542369D01*
X82019672Y-65542000D01*
X81972115Y-65542000D01*
X81956876Y-65546475D01*
X81955671Y-65547865D01*
X81951121Y-65568783D01*
X81949903Y-65568518D01*
X81933998Y-65622687D01*
X81903565Y-65655392D01*
X81889929Y-65665612D01*
X81861739Y-65686739D01*
X81821271Y-65740735D01*
X81800826Y-65768015D01*
X81743967Y-65810530D01*
X81673148Y-65815556D01*
X81610855Y-65781496D01*
X81599174Y-65768015D01*
X81578729Y-65740735D01*
X81538261Y-65686739D01*
X81510072Y-65665612D01*
X81496435Y-65655392D01*
X81453920Y-65598533D01*
X81448587Y-65568926D01*
X81441525Y-65544877D01*
X81440135Y-65543672D01*
X81432452Y-65542001D01*
X81380331Y-65542001D01*
X81373510Y-65542371D01*
X81314793Y-65548748D01*
X81314495Y-65546002D01*
X81285554Y-65546060D01*
X81285316Y-65548255D01*
X81226531Y-65541869D01*
X81223134Y-65541500D01*
X80576866Y-65541500D01*
X80573469Y-65541869D01*
X80537044Y-65545826D01*
X80514684Y-65548255D01*
X80514452Y-65546116D01*
X80485488Y-65546166D01*
X80485207Y-65548748D01*
X80426486Y-65542369D01*
X80419672Y-65542000D01*
X80372115Y-65542000D01*
X80356876Y-65546475D01*
X80355671Y-65547865D01*
X80351121Y-65568783D01*
X80349903Y-65568518D01*
X80333998Y-65622687D01*
X80303565Y-65655392D01*
X80289929Y-65665612D01*
X80261739Y-65686739D01*
X80221271Y-65740735D01*
X80200826Y-65768015D01*
X80143967Y-65810530D01*
X80073148Y-65815556D01*
X80010855Y-65781496D01*
X79999174Y-65768015D01*
X79977079Y-65738533D01*
X79958674Y-65713976D01*
X79933826Y-65647470D01*
X79933500Y-65638411D01*
X79933500Y-61678767D01*
X79934027Y-61667584D01*
X79935702Y-61660091D01*
X79933562Y-61592000D01*
X79933500Y-61588043D01*
X79933500Y-61560144D01*
X79932996Y-61556153D01*
X79932063Y-61544311D01*
X79930923Y-61508036D01*
X79930674Y-61500111D01*
X79928462Y-61492497D01*
X79928461Y-61492492D01*
X79925023Y-61480659D01*
X79921012Y-61461295D01*
X79919467Y-61449064D01*
X79918474Y-61441203D01*
X79915557Y-61433836D01*
X79915556Y-61433831D01*
X79902198Y-61400092D01*
X79898354Y-61388865D01*
X79888230Y-61354022D01*
X79886018Y-61346407D01*
X79875707Y-61328972D01*
X79867012Y-61311224D01*
X79859552Y-61292383D01*
X79842620Y-61269077D01*
X79833564Y-61256613D01*
X79827048Y-61246693D01*
X79808580Y-61215465D01*
X79808578Y-61215462D01*
X79804542Y-61208638D01*
X79790221Y-61194317D01*
X79777380Y-61179283D01*
X79770131Y-61169306D01*
X79765472Y-61162893D01*
X79759367Y-61157842D01*
X79759362Y-61157837D01*
X79731396Y-61134701D01*
X79722618Y-61126713D01*
X79170405Y-60574500D01*
X79136379Y-60512188D01*
X79133500Y-60485405D01*
X79133500Y-59784500D01*
X79153502Y-59716379D01*
X79207158Y-59669886D01*
X79259500Y-59658500D01*
X79623134Y-59658500D01*
X79631134Y-59657631D01*
X79685316Y-59651745D01*
X79685580Y-59654174D01*
X79714420Y-59654174D01*
X79714684Y-59651745D01*
X79768867Y-59657631D01*
X79776866Y-59658500D01*
X80423134Y-59658500D01*
X80431134Y-59657631D01*
X80485316Y-59651745D01*
X80485548Y-59653884D01*
X80514512Y-59653834D01*
X80514793Y-59651252D01*
X80573514Y-59657631D01*
X80580328Y-59658000D01*
X80627885Y-59658000D01*
X80643124Y-59653525D01*
X80644329Y-59652135D01*
X80648879Y-59631217D01*
X80650097Y-59631482D01*
X80666002Y-59577313D01*
X80696435Y-59544608D01*
X80731080Y-59518643D01*
X80731081Y-59518642D01*
X80738261Y-59513261D01*
X80799174Y-59431985D01*
X80856033Y-59389470D01*
X80926852Y-59384444D01*
X80989145Y-59418504D01*
G37*
G04 #@! TD.AperFunction*
G04 #@! TA.AperFunction,Conductor*
G36*
X77808621Y-59678502D02*
G01*
X77855114Y-59732158D01*
X77866500Y-59784500D01*
X77866500Y-60721233D01*
X77865973Y-60732416D01*
X77864298Y-60739909D01*
X77864547Y-60747835D01*
X77864547Y-60747836D01*
X77866438Y-60807986D01*
X77866500Y-60811945D01*
X77866500Y-60839856D01*
X77866997Y-60843790D01*
X77866997Y-60843791D01*
X77867005Y-60843856D01*
X77867938Y-60855693D01*
X77869327Y-60899889D01*
X77872519Y-60910875D01*
X77874978Y-60919339D01*
X77878987Y-60938700D01*
X77881526Y-60958797D01*
X77884445Y-60966168D01*
X77884445Y-60966170D01*
X77897804Y-60999912D01*
X77901649Y-61011142D01*
X77913982Y-61053593D01*
X77918015Y-61060412D01*
X77918017Y-61060417D01*
X77924293Y-61071028D01*
X77932988Y-61088776D01*
X77940448Y-61107617D01*
X77945110Y-61114033D01*
X77945110Y-61114034D01*
X77966436Y-61143387D01*
X77972952Y-61153307D01*
X77980840Y-61166644D01*
X77995458Y-61191362D01*
X78009779Y-61205683D01*
X78022619Y-61220716D01*
X78034528Y-61237107D01*
X78040633Y-61242158D01*
X78040638Y-61242163D01*
X78068604Y-61265299D01*
X78077382Y-61273287D01*
X78629595Y-61825500D01*
X78663621Y-61887812D01*
X78666500Y-61914595D01*
X78666500Y-63160703D01*
X78646498Y-63228824D01*
X78592842Y-63275317D01*
X78522568Y-63285421D01*
X78463278Y-63260265D01*
X78450541Y-63250386D01*
X78443272Y-63247241D01*
X78443268Y-63247238D01*
X78409963Y-63232826D01*
X78399313Y-63227609D01*
X78360560Y-63206305D01*
X78340937Y-63201267D01*
X78322234Y-63194863D01*
X78310920Y-63189967D01*
X78310919Y-63189967D01*
X78303645Y-63186819D01*
X78295822Y-63185580D01*
X78295812Y-63185577D01*
X78259976Y-63179901D01*
X78248356Y-63177495D01*
X78213211Y-63168472D01*
X78213210Y-63168472D01*
X78205530Y-63166500D01*
X78185276Y-63166500D01*
X78165565Y-63164949D01*
X78153386Y-63163020D01*
X78145557Y-63161780D01*
X78137665Y-63162526D01*
X78101539Y-63165941D01*
X78089681Y-63166500D01*
X77684500Y-63166500D01*
X77616379Y-63146498D01*
X77569886Y-63092842D01*
X77558500Y-63040500D01*
X77558500Y-62676866D01*
X77555206Y-62646539D01*
X77551745Y-62614684D01*
X77554174Y-62614420D01*
X77554174Y-62585580D01*
X77551745Y-62585316D01*
X77558131Y-62526531D01*
X77558500Y-62523134D01*
X77558500Y-61876866D01*
X77551745Y-61814684D01*
X77554174Y-61814420D01*
X77554174Y-61785580D01*
X77551745Y-61785316D01*
X77558131Y-61726531D01*
X77558500Y-61723134D01*
X77558500Y-61076866D01*
X77551745Y-61014684D01*
X77554174Y-61014420D01*
X77554174Y-60985580D01*
X77551745Y-60985316D01*
X77558131Y-60926531D01*
X77558500Y-60923134D01*
X77558500Y-60276866D01*
X77552274Y-60219549D01*
X77551745Y-60214684D01*
X77554174Y-60214420D01*
X77554174Y-60185580D01*
X77551745Y-60185316D01*
X77558131Y-60126531D01*
X77558500Y-60123134D01*
X77558500Y-59784500D01*
X77578502Y-59716379D01*
X77632158Y-59669886D01*
X77684500Y-59658500D01*
X77740500Y-59658500D01*
X77808621Y-59678502D01*
G37*
G04 #@! TD.AperFunction*
G04 #@! TA.AperFunction,Conductor*
G36*
X112041027Y-55891002D02*
G01*
X112062001Y-55907905D01*
X112268001Y-56113905D01*
X112302027Y-56176217D01*
X112296962Y-56247032D01*
X112254415Y-56303868D01*
X112187895Y-56328679D01*
X112178906Y-56329000D01*
X95378640Y-56329000D01*
X95310519Y-56308998D01*
X95271497Y-56269304D01*
X95233346Y-56207652D01*
X95229967Y-56202192D01*
X95229967Y-56202191D01*
X95226116Y-56195969D01*
X95219212Y-56189077D01*
X95218411Y-56187613D01*
X95216389Y-56185062D01*
X95216826Y-56184716D01*
X95185134Y-56126796D01*
X95190137Y-56055976D01*
X95219056Y-56010890D01*
X95221757Y-56008184D01*
X95226929Y-56003003D01*
X95234803Y-55990230D01*
X95271384Y-55930884D01*
X95324156Y-55883391D01*
X95378644Y-55871000D01*
X111972906Y-55871000D01*
X112041027Y-55891002D01*
G37*
G04 #@! TD.AperFunction*
M02*
