M48
; DRILL file {KiCad (6.0.10)} date Thu Jan 12 15:38:22 2023
; FORMAT={-:-/ absolute / metric / decimal}
; #@! TF.CreationDate,2023-01-12T15:38:22+01:00
; #@! TF.GenerationSoftware,Kicad,Pcbnew,(6.0.10)
; #@! TF.FileFunction,Plated,1,2,PTH
FMAT,2
METRIC
; #@! TA.AperFunction,Plated,PTH,ViaDrill
T1C0.400
; #@! TA.AperFunction,Plated,PTH,ComponentDrill
T2C1.000
%
G90
G05
T1
X60.6Y-58.85
X60.775Y-54.525
X61.925Y-72.225
X63.975Y-50.525
X64.9Y-67.64
X68.93Y-71.04
X69.575Y-50.2
X71.95Y-58.25
X74.043Y-62.124
X74.3Y-47.25
X74.8Y-61.4
X74.8Y-63.0
X75.0Y-55.65
X76.3Y-51.95
X76.35Y-66.75
X76.85Y-58.4
X77.475Y-64.55
X77.575Y-56.975
X77.8Y-52.8
X78.45Y-61.975
X78.575Y-64.25
X79.825Y-60.325
X80.075Y-74.375
X80.625Y-47.175
X81.475Y-71.45
X82.25Y-62.45
X82.5Y-55.7
X82.762Y-68.213
X84.125Y-66.8
X84.45Y-57.4
X86.125Y-69.4
X86.25Y-60.6
X86.841Y-59.794
X87.2Y-63.8
X87.2Y-64.8
X87.5Y-55.45
X87.55Y-49.85
X88.424Y-58.8
X89.2Y-71.2
X90.2Y-52.8
X90.25Y-68.4
X90.35Y-63.05
X90.825Y-77.875
X91.9Y-65.0
X93.056Y-56.644
X94.45Y-63.25
X95.875Y-50.175
X97.35Y-53.625
X97.55Y-47.4
X98.6Y-69.35
X99.25Y-73.625
X101.4Y-70.725
X102.5Y-61.05
X103.25Y-52.625
X110.125Y-56.075
X115.3Y-55.6
X116.85Y-64.8
X117.1Y-70.9
X118.4Y-74.65
X120.3Y-59.825
X126.33Y-67.35
X126.34Y-63.35
X127.15Y-72.4
X129.8Y-65.5
X131.33Y-57.7
X133.525Y-46.125
X134.4Y-65.325
X144.05Y-66.75
X145.825Y-67.525
X146.3Y-59.97
X147.275Y-64.025
X147.95Y-63.225
X150.55Y-67.275
T2
X57.762Y-54.817
X57.762Y-57.357
X57.762Y-59.897
X57.762Y-62.438
X57.762Y-64.977
X57.762Y-67.517
X57.762Y-70.057
X110.55Y-76.6
X113.09Y-76.6
X115.63Y-76.6
X118.17Y-76.6
X123.25Y-76.6
X123.425Y-53.725
X123.425Y-56.265
X123.425Y-58.805
X123.425Y-61.345
X123.425Y-63.885
X123.425Y-66.425
X123.425Y-68.965
X123.425Y-71.505
T0
M30
