M48
; DRILL file {KiCad (6.0.9)} date Sun Dec  4 16:37:38 2022
; FORMAT={-:-/ absolute / metric / decimal}
; #@! TF.CreationDate,2022-12-04T16:37:38+01:00
; #@! TF.GenerationSoftware,Kicad,Pcbnew,(6.0.9)
; #@! TF.FileFunction,Plated,1,2,PTH
FMAT,2
METRIC
; #@! TA.AperFunction,Plated,PTH,ViaDrill
T1C0.400
; #@! TA.AperFunction,Plated,PTH,ComponentDrill
T2C1.000
%
G90
G05
T1
X60.16Y-53.02
X61.924Y-62.795
X63.4Y-75.4
X64.4Y-60.5
X64.9Y-67.64
X67.5Y-60.11
X68.05Y-63.75
X68.06Y-77.67
X68.925Y-57.975
X68.93Y-71.04
X69.46Y-50.89
X70.3Y-63.56
X70.575Y-58.85
X72.05Y-75.4
X72.485Y-63.767
X73.725Y-66.675
X75.42Y-77.64
X75.55Y-59.7
X75.6Y-61.3
X78.73Y-55.26
X79.825Y-65.95
X80.388Y-59.537
X80.6Y-75.4
X81.7Y-57.023
X82.75Y-52.075
X83.4Y-58.375
X83.45Y-63.69
X84.08Y-77.64
X85.63Y-57.7
X86.525Y-51.975
X88.4Y-75.4
X88.67Y-49.94
X89.01Y-71.01
X91.23Y-65.39
X94.18Y-54.78
X95.05Y-71.54
X95.67Y-67.88
X95.94Y-62.41
X97.55Y-47.4
X98.49Y-71.8
X102.0Y-78.18
X104.29Y-58.3
X108.31Y-68.43
X109.45Y-78.42
X115.3Y-55.6
X127.38Y-65.38
X131.33Y-57.7
X134.12Y-46.78
X140.6Y-73.99
X152.75Y-54.571
T2
X57.762Y-54.817
X57.762Y-57.357
X57.762Y-59.897
X57.762Y-62.438
X57.762Y-64.977
X57.762Y-67.517
X57.762Y-70.057
X74.17Y-47.18
X79.25Y-47.18
X81.79Y-47.18
X84.33Y-47.18
X86.87Y-47.18
X98.0Y-56.175
X98.0Y-58.715
X98.0Y-61.255
X98.0Y-63.795
X98.0Y-66.335
X98.0Y-68.875
X144.35Y-68.59
X144.35Y-71.13
X144.355Y-56.925
X144.355Y-59.465
T0
M30
