G04 #@! TF.GenerationSoftware,KiCad,Pcbnew,(6.0.9)*
G04 #@! TF.CreationDate,2022-12-04T16:37:35+01:00*
G04 #@! TF.ProjectId,HeaterMCU,48656174-6572-44d4-9355-2e6b69636164,rev?*
G04 #@! TF.SameCoordinates,Original*
G04 #@! TF.FileFunction,Legend,Bot*
G04 #@! TF.FilePolarity,Positive*
%FSLAX46Y46*%
G04 Gerber Fmt 4.6, Leading zero omitted, Abs format (unit mm)*
G04 Created by KiCad (PCBNEW (6.0.9)) date 2022-12-04 16:37:35*
%MOMM*%
%LPD*%
G01*
G04 APERTURE LIST*
G04 Aperture macros list*
%AMRoundRect*
0 Rectangle with rounded corners*
0 $1 Rounding radius*
0 $2 $3 $4 $5 $6 $7 $8 $9 X,Y pos of 4 corners*
0 Add a 4 corners polygon primitive as box body*
4,1,4,$2,$3,$4,$5,$6,$7,$8,$9,$2,$3,0*
0 Add four circle primitives for the rounded corners*
1,1,$1+$1,$2,$3*
1,1,$1+$1,$4,$5*
1,1,$1+$1,$6,$7*
1,1,$1+$1,$8,$9*
0 Add four rect primitives between the rounded corners*
20,1,$1+$1,$2,$3,$4,$5,0*
20,1,$1+$1,$4,$5,$6,$7,0*
20,1,$1+$1,$6,$7,$8,$9,0*
20,1,$1+$1,$8,$9,$2,$3,0*%
G04 Aperture macros list end*
%ADD10C,0.100000*%
%ADD11C,0.150000*%
%ADD12C,0.300000*%
%ADD13C,0.120000*%
%ADD14R,1.700000X1.700000*%
%ADD15O,1.700000X1.700000*%
%ADD16RoundRect,0.237500X0.287500X0.237500X-0.287500X0.237500X-0.287500X-0.237500X0.287500X-0.237500X0*%
%ADD17C,0.700000*%
%ADD18R,1.600000X1.200000*%
%ADD19C,2.700000*%
%ADD20C,1.700000*%
%ADD21RoundRect,0.237500X-0.237500X0.300000X-0.237500X-0.300000X0.237500X-0.300000X0.237500X0.300000X0*%
%ADD22RoundRect,0.237500X-0.300000X-0.237500X0.300000X-0.237500X0.300000X0.237500X-0.300000X0.237500X0*%
%ADD23R,1.500000X0.550000*%
%ADD24R,0.550000X1.500000*%
%ADD25C,3.200000*%
%ADD26RoundRect,0.237500X0.237500X-0.250000X0.237500X0.250000X-0.237500X0.250000X-0.237500X-0.250000X0*%
%ADD27RoundRect,0.237500X0.300000X0.237500X-0.300000X0.237500X-0.300000X-0.237500X0.300000X-0.237500X0*%
%ADD28R,1.560000X0.400000*%
%ADD29RoundRect,0.237500X-0.250000X-0.237500X0.250000X-0.237500X0.250000X0.237500X-0.250000X0.237500X0*%
%ADD30RoundRect,0.237500X0.237500X-0.300000X0.237500X0.300000X-0.237500X0.300000X-0.237500X-0.300000X0*%
%ADD31R,4.500000X2.000000*%
%ADD32RoundRect,0.237500X0.250000X0.237500X-0.250000X0.237500X-0.250000X-0.237500X0.250000X-0.237500X0*%
%ADD33RoundRect,0.237500X-0.237500X0.250000X-0.237500X-0.250000X0.237500X-0.250000X0.237500X0.250000X0*%
G04 APERTURE END LIST*
D10*
X68101904Y-51051904D02*
X68368571Y-50670952D01*
X68559047Y-51051904D02*
X68559047Y-50251904D01*
X68254285Y-50251904D01*
X68178095Y-50290000D01*
X68140000Y-50328095D01*
X68101904Y-50404285D01*
X68101904Y-50518571D01*
X68140000Y-50594761D01*
X68178095Y-50632857D01*
X68254285Y-50670952D01*
X68559047Y-50670952D01*
X67759047Y-50632857D02*
X67492380Y-50632857D01*
X67378095Y-51051904D02*
X67759047Y-51051904D01*
X67759047Y-50251904D01*
X67378095Y-50251904D01*
X67073333Y-51013809D02*
X66959047Y-51051904D01*
X66768571Y-51051904D01*
X66692380Y-51013809D01*
X66654285Y-50975714D01*
X66616190Y-50899523D01*
X66616190Y-50823333D01*
X66654285Y-50747142D01*
X66692380Y-50709047D01*
X66768571Y-50670952D01*
X66920952Y-50632857D01*
X66997142Y-50594761D01*
X67035238Y-50556666D01*
X67073333Y-50480476D01*
X67073333Y-50404285D01*
X67035238Y-50328095D01*
X66997142Y-50290000D01*
X66920952Y-50251904D01*
X66730476Y-50251904D01*
X66616190Y-50290000D01*
X66273333Y-50632857D02*
X66006666Y-50632857D01*
X65892380Y-51051904D02*
X66273333Y-51051904D01*
X66273333Y-50251904D01*
X65892380Y-50251904D01*
X65663809Y-50251904D02*
X65206666Y-50251904D01*
X65435238Y-51051904D02*
X65435238Y-50251904D01*
D11*
X141502619Y-71402380D02*
X142502619Y-71402380D01*
X141502619Y-70830952D02*
X142074047Y-71259523D01*
X142502619Y-70830952D02*
X141931190Y-71402380D01*
X141788333Y-68926190D02*
X141788333Y-68450000D01*
X141502619Y-69021428D02*
X142502619Y-68688095D01*
X141502619Y-68354761D01*
X140416428Y-72688095D02*
X140416428Y-73021428D01*
X139892619Y-73021428D02*
X140892619Y-73021428D01*
X140892619Y-72545238D01*
X139892619Y-72164285D02*
X140559285Y-72164285D01*
X140368809Y-72164285D02*
X140464047Y-72116666D01*
X140511666Y-72069047D01*
X140559285Y-71973809D01*
X140559285Y-71878571D01*
X139892619Y-71402380D02*
X139940238Y-71497619D01*
X139987857Y-71545238D01*
X140083095Y-71592857D01*
X140368809Y-71592857D01*
X140464047Y-71545238D01*
X140511666Y-71497619D01*
X140559285Y-71402380D01*
X140559285Y-71259523D01*
X140511666Y-71164285D01*
X140464047Y-71116666D01*
X140368809Y-71069047D01*
X140083095Y-71069047D01*
X139987857Y-71116666D01*
X139940238Y-71164285D01*
X139892619Y-71259523D01*
X139892619Y-71402380D01*
X139892619Y-70640476D02*
X140559285Y-70640476D01*
X140464047Y-70640476D02*
X140511666Y-70592857D01*
X140559285Y-70497619D01*
X140559285Y-70354761D01*
X140511666Y-70259523D01*
X140416428Y-70211904D01*
X139892619Y-70211904D01*
X140416428Y-70211904D02*
X140511666Y-70164285D01*
X140559285Y-70069047D01*
X140559285Y-69926190D01*
X140511666Y-69830952D01*
X140416428Y-69783333D01*
X139892619Y-69783333D01*
X139892619Y-68545238D02*
X140892619Y-68545238D01*
X140178333Y-68211904D01*
X140892619Y-67878571D01*
X139892619Y-67878571D01*
X140416428Y-67069047D02*
X140368809Y-66926190D01*
X140321190Y-66878571D01*
X140225952Y-66830952D01*
X140083095Y-66830952D01*
X139987857Y-66878571D01*
X139940238Y-66926190D01*
X139892619Y-67021428D01*
X139892619Y-67402380D01*
X140892619Y-67402380D01*
X140892619Y-67069047D01*
X140845000Y-66973809D01*
X140797380Y-66926190D01*
X140702142Y-66878571D01*
X140606904Y-66878571D01*
X140511666Y-66926190D01*
X140464047Y-66973809D01*
X140416428Y-67069047D01*
X140416428Y-67402380D01*
X138282619Y-72402380D02*
X139282619Y-72402380D01*
X138806428Y-72402380D02*
X138806428Y-71830952D01*
X138282619Y-71830952D02*
X139282619Y-71830952D01*
X139282619Y-71497619D02*
X138282619Y-71164285D01*
X139282619Y-70830952D01*
X138282619Y-69259523D02*
X138282619Y-69735714D01*
X139282619Y-69735714D01*
X138806428Y-68926190D02*
X138806428Y-68592857D01*
X138282619Y-68450000D02*
X138282619Y-68926190D01*
X139282619Y-68926190D01*
X139282619Y-68450000D01*
X138282619Y-68021428D02*
X139282619Y-68021428D01*
X139282619Y-67783333D01*
X139235000Y-67640476D01*
X139139761Y-67545238D01*
X139044523Y-67497619D01*
X138854047Y-67450000D01*
X138711190Y-67450000D01*
X138520714Y-67497619D01*
X138425476Y-67545238D01*
X138330238Y-67640476D01*
X138282619Y-67783333D01*
X138282619Y-68021428D01*
X141967619Y-58957142D02*
X142443809Y-59290476D01*
X141967619Y-59528571D02*
X142967619Y-59528571D01*
X142967619Y-59147619D01*
X142920000Y-59052380D01*
X142872380Y-59004761D01*
X142777142Y-58957142D01*
X142634285Y-58957142D01*
X142539047Y-59004761D01*
X142491428Y-59052380D01*
X142443809Y-59147619D01*
X142443809Y-59528571D01*
X141967619Y-56528571D02*
X141967619Y-57004761D01*
X142967619Y-57004761D01*
X140881428Y-61219047D02*
X140881428Y-61552380D01*
X140357619Y-61552380D02*
X141357619Y-61552380D01*
X141357619Y-61076190D01*
X140357619Y-60695238D02*
X141024285Y-60695238D01*
X140833809Y-60695238D02*
X140929047Y-60647619D01*
X140976666Y-60600000D01*
X141024285Y-60504761D01*
X141024285Y-60409523D01*
X140357619Y-59933333D02*
X140405238Y-60028571D01*
X140452857Y-60076190D01*
X140548095Y-60123809D01*
X140833809Y-60123809D01*
X140929047Y-60076190D01*
X140976666Y-60028571D01*
X141024285Y-59933333D01*
X141024285Y-59790476D01*
X140976666Y-59695238D01*
X140929047Y-59647619D01*
X140833809Y-59600000D01*
X140548095Y-59600000D01*
X140452857Y-59647619D01*
X140405238Y-59695238D01*
X140357619Y-59790476D01*
X140357619Y-59933333D01*
X140357619Y-59171428D02*
X141024285Y-59171428D01*
X140929047Y-59171428D02*
X140976666Y-59123809D01*
X141024285Y-59028571D01*
X141024285Y-58885714D01*
X140976666Y-58790476D01*
X140881428Y-58742857D01*
X140357619Y-58742857D01*
X140881428Y-58742857D02*
X140976666Y-58695238D01*
X141024285Y-58600000D01*
X141024285Y-58457142D01*
X140976666Y-58361904D01*
X140881428Y-58314285D01*
X140357619Y-58314285D01*
X140357619Y-57076190D02*
X141357619Y-57076190D01*
X140643333Y-56742857D01*
X141357619Y-56409523D01*
X140357619Y-56409523D01*
X140881428Y-55600000D02*
X140833809Y-55457142D01*
X140786190Y-55409523D01*
X140690952Y-55361904D01*
X140548095Y-55361904D01*
X140452857Y-55409523D01*
X140405238Y-55457142D01*
X140357619Y-55552380D01*
X140357619Y-55933333D01*
X141357619Y-55933333D01*
X141357619Y-55600000D01*
X141310000Y-55504761D01*
X141262380Y-55457142D01*
X141167142Y-55409523D01*
X141071904Y-55409523D01*
X140976666Y-55457142D01*
X140929047Y-55504761D01*
X140881428Y-55600000D01*
X140881428Y-55933333D01*
X138747619Y-60219047D02*
X139747619Y-60219047D01*
X138747619Y-59790476D02*
X139271428Y-59790476D01*
X139366666Y-59838095D01*
X139414285Y-59933333D01*
X139414285Y-60076190D01*
X139366666Y-60171428D01*
X139319047Y-60219047D01*
X138795238Y-58933333D02*
X138747619Y-59028571D01*
X138747619Y-59219047D01*
X138795238Y-59314285D01*
X138890476Y-59361904D01*
X139271428Y-59361904D01*
X139366666Y-59314285D01*
X139414285Y-59219047D01*
X139414285Y-59028571D01*
X139366666Y-58933333D01*
X139271428Y-58885714D01*
X139176190Y-58885714D01*
X139080952Y-59361904D01*
X138747619Y-58028571D02*
X139271428Y-58028571D01*
X139366666Y-58076190D01*
X139414285Y-58171428D01*
X139414285Y-58361904D01*
X139366666Y-58457142D01*
X138795238Y-58028571D02*
X138747619Y-58123809D01*
X138747619Y-58361904D01*
X138795238Y-58457142D01*
X138890476Y-58504761D01*
X138985714Y-58504761D01*
X139080952Y-58457142D01*
X139128571Y-58361904D01*
X139128571Y-58123809D01*
X139176190Y-58028571D01*
X139414285Y-57695238D02*
X139414285Y-57314285D01*
X139747619Y-57552380D02*
X138890476Y-57552380D01*
X138795238Y-57504761D01*
X138747619Y-57409523D01*
X138747619Y-57314285D01*
X138795238Y-56600000D02*
X138747619Y-56695238D01*
X138747619Y-56885714D01*
X138795238Y-56980952D01*
X138890476Y-57028571D01*
X139271428Y-57028571D01*
X139366666Y-56980952D01*
X139414285Y-56885714D01*
X139414285Y-56695238D01*
X139366666Y-56600000D01*
X139271428Y-56552380D01*
X139176190Y-56552380D01*
X139080952Y-57028571D01*
X138747619Y-56123809D02*
X139414285Y-56123809D01*
X139223809Y-56123809D02*
X139319047Y-56076190D01*
X139366666Y-56028571D01*
X139414285Y-55933333D01*
X139414285Y-55838095D01*
D12*
X91320000Y-59625714D02*
X91248571Y-59697142D01*
X91320000Y-59768571D01*
X91391428Y-59697142D01*
X91320000Y-59625714D01*
X91320000Y-59768571D01*
D11*
X94610714Y-47003571D02*
X94944047Y-47003571D01*
X94944047Y-47527380D02*
X94944047Y-46527380D01*
X94467857Y-46527380D01*
X94086904Y-47527380D02*
X94086904Y-46860714D01*
X94086904Y-46527380D02*
X94134523Y-46575000D01*
X94086904Y-46622619D01*
X94039285Y-46575000D01*
X94086904Y-46527380D01*
X94086904Y-46622619D01*
X93610714Y-47527380D02*
X93610714Y-46860714D01*
X93610714Y-47051190D02*
X93563095Y-46955952D01*
X93515476Y-46908333D01*
X93420238Y-46860714D01*
X93325000Y-46860714D01*
X92991666Y-47527380D02*
X92991666Y-46860714D01*
X92991666Y-46955952D02*
X92944047Y-46908333D01*
X92848809Y-46860714D01*
X92705952Y-46860714D01*
X92610714Y-46908333D01*
X92563095Y-47003571D01*
X92563095Y-47527380D01*
X92563095Y-47003571D02*
X92515476Y-46908333D01*
X92420238Y-46860714D01*
X92277380Y-46860714D01*
X92182142Y-46908333D01*
X92134523Y-47003571D01*
X92134523Y-47527380D01*
X91753571Y-46860714D02*
X91563095Y-47527380D01*
X91372619Y-47051190D01*
X91182142Y-47527380D01*
X90991666Y-46860714D01*
X90182142Y-47527380D02*
X90182142Y-47003571D01*
X90229761Y-46908333D01*
X90325000Y-46860714D01*
X90515476Y-46860714D01*
X90610714Y-46908333D01*
X90182142Y-47479761D02*
X90277380Y-47527380D01*
X90515476Y-47527380D01*
X90610714Y-47479761D01*
X90658333Y-47384523D01*
X90658333Y-47289285D01*
X90610714Y-47194047D01*
X90515476Y-47146428D01*
X90277380Y-47146428D01*
X90182142Y-47098809D01*
X89705952Y-47527380D02*
X89705952Y-46860714D01*
X89705952Y-47051190D02*
X89658333Y-46955952D01*
X89610714Y-46908333D01*
X89515476Y-46860714D01*
X89420238Y-46860714D01*
X88705952Y-47479761D02*
X88801190Y-47527380D01*
X88991666Y-47527380D01*
X89086904Y-47479761D01*
X89134523Y-47384523D01*
X89134523Y-47003571D01*
X89086904Y-46908333D01*
X88991666Y-46860714D01*
X88801190Y-46860714D01*
X88705952Y-46908333D01*
X88658333Y-47003571D01*
X88658333Y-47098809D01*
X89134523Y-47194047D01*
D10*
X71820000Y-46490476D02*
X71781904Y-46414285D01*
X71781904Y-46300000D01*
X71820000Y-46185714D01*
X71896190Y-46109523D01*
X71972380Y-46071428D01*
X72124761Y-46033333D01*
X72239047Y-46033333D01*
X72391428Y-46071428D01*
X72467619Y-46109523D01*
X72543809Y-46185714D01*
X72581904Y-46300000D01*
X72581904Y-46376190D01*
X72543809Y-46490476D01*
X72505714Y-46528571D01*
X72239047Y-46528571D01*
X72239047Y-46376190D01*
X72581904Y-46871428D02*
X71781904Y-46871428D01*
X72581904Y-47328571D01*
X71781904Y-47328571D01*
X72581904Y-47709523D02*
X71781904Y-47709523D01*
X71781904Y-47900000D01*
X71820000Y-48014285D01*
X71896190Y-48090476D01*
X71972380Y-48128571D01*
X72124761Y-48166666D01*
X72239047Y-48166666D01*
X72391428Y-48128571D01*
X72467619Y-48090476D01*
X72543809Y-48014285D01*
X72581904Y-47900000D01*
X72581904Y-47709523D01*
D11*
X126715238Y-55481904D02*
X126715238Y-56053333D01*
X126753333Y-56167619D01*
X126829523Y-56243809D01*
X126943809Y-56281904D01*
X127020000Y-56281904D01*
X125953333Y-56281904D02*
X126334285Y-56281904D01*
X126334285Y-55481904D01*
X125229523Y-56205714D02*
X125267619Y-56243809D01*
X125381904Y-56281904D01*
X125458095Y-56281904D01*
X125572380Y-56243809D01*
X125648571Y-56167619D01*
X125686666Y-56091428D01*
X125724761Y-55939047D01*
X125724761Y-55824761D01*
X125686666Y-55672380D01*
X125648571Y-55596190D01*
X125572380Y-55520000D01*
X125458095Y-55481904D01*
X125381904Y-55481904D01*
X125267619Y-55520000D01*
X125229523Y-55558095D01*
X124658095Y-55481904D02*
X124658095Y-56053333D01*
X124696190Y-56167619D01*
X124772380Y-56243809D01*
X124886666Y-56281904D01*
X124962857Y-56281904D01*
X123896190Y-56281904D02*
X124277142Y-56281904D01*
X124277142Y-55481904D01*
X123172380Y-56205714D02*
X123210476Y-56243809D01*
X123324761Y-56281904D01*
X123400952Y-56281904D01*
X123515238Y-56243809D01*
X123591428Y-56167619D01*
X123629523Y-56091428D01*
X123667619Y-55939047D01*
X123667619Y-55824761D01*
X123629523Y-55672380D01*
X123591428Y-55596190D01*
X123515238Y-55520000D01*
X123400952Y-55481904D01*
X123324761Y-55481904D01*
X123210476Y-55520000D01*
X123172380Y-55558095D01*
X122600952Y-55481904D02*
X122600952Y-56053333D01*
X122639047Y-56167619D01*
X122715238Y-56243809D01*
X122829523Y-56281904D01*
X122905714Y-56281904D01*
X121839047Y-56281904D02*
X122220000Y-56281904D01*
X122220000Y-55481904D01*
X121115238Y-56205714D02*
X121153333Y-56243809D01*
X121267619Y-56281904D01*
X121343809Y-56281904D01*
X121458095Y-56243809D01*
X121534285Y-56167619D01*
X121572380Y-56091428D01*
X121610476Y-55939047D01*
X121610476Y-55824761D01*
X121572380Y-55672380D01*
X121534285Y-55596190D01*
X121458095Y-55520000D01*
X121343809Y-55481904D01*
X121267619Y-55481904D01*
X121153333Y-55520000D01*
X121115238Y-55558095D01*
X120543809Y-55481904D02*
X120543809Y-56053333D01*
X120581904Y-56167619D01*
X120658095Y-56243809D01*
X120772380Y-56281904D01*
X120848571Y-56281904D01*
X119781904Y-56281904D02*
X120162857Y-56281904D01*
X120162857Y-55481904D01*
X119058095Y-56205714D02*
X119096190Y-56243809D01*
X119210476Y-56281904D01*
X119286666Y-56281904D01*
X119400952Y-56243809D01*
X119477142Y-56167619D01*
X119515238Y-56091428D01*
X119553333Y-55939047D01*
X119553333Y-55824761D01*
X119515238Y-55672380D01*
X119477142Y-55596190D01*
X119400952Y-55520000D01*
X119286666Y-55481904D01*
X119210476Y-55481904D01*
X119096190Y-55520000D01*
X119058095Y-55558095D01*
X130400952Y-50320714D02*
X130400952Y-51320714D01*
X129924761Y-50844523D02*
X129877142Y-50939761D01*
X129781904Y-50987380D01*
X130400952Y-50844523D02*
X130353333Y-50939761D01*
X130258095Y-50987380D01*
X130067619Y-50987380D01*
X129972380Y-50939761D01*
X129924761Y-50844523D01*
X129924761Y-50320714D01*
X129496190Y-49987380D02*
X128924761Y-49987380D01*
X129210476Y-50987380D02*
X129210476Y-49987380D01*
X128591428Y-50987380D02*
X128591428Y-50320714D01*
X128591428Y-50511190D02*
X128543809Y-50415952D01*
X128496190Y-50368333D01*
X128400952Y-50320714D01*
X128305714Y-50320714D01*
X127543809Y-50987380D02*
X127543809Y-50463571D01*
X127591428Y-50368333D01*
X127686666Y-50320714D01*
X127877142Y-50320714D01*
X127972380Y-50368333D01*
X127543809Y-50939761D02*
X127639047Y-50987380D01*
X127877142Y-50987380D01*
X127972380Y-50939761D01*
X128020000Y-50844523D01*
X128020000Y-50749285D01*
X127972380Y-50654047D01*
X127877142Y-50606428D01*
X127639047Y-50606428D01*
X127543809Y-50558809D01*
X126639047Y-50939761D02*
X126734285Y-50987380D01*
X126924761Y-50987380D01*
X127020000Y-50939761D01*
X127067619Y-50892142D01*
X127115238Y-50796904D01*
X127115238Y-50511190D01*
X127067619Y-50415952D01*
X127020000Y-50368333D01*
X126924761Y-50320714D01*
X126734285Y-50320714D01*
X126639047Y-50368333D01*
X125829523Y-50939761D02*
X125924761Y-50987380D01*
X126115238Y-50987380D01*
X126210476Y-50939761D01*
X126258095Y-50844523D01*
X126258095Y-50463571D01*
X126210476Y-50368333D01*
X126115238Y-50320714D01*
X125924761Y-50320714D01*
X125829523Y-50368333D01*
X125781904Y-50463571D01*
X125781904Y-50558809D01*
X126258095Y-50654047D01*
X125353333Y-50987380D02*
X125353333Y-50320714D01*
X125353333Y-50511190D02*
X125305714Y-50415952D01*
X125258095Y-50368333D01*
X125162857Y-50320714D01*
X125067619Y-50320714D01*
X123972380Y-50987380D02*
X123972380Y-49987380D01*
X123972380Y-50463571D02*
X123400952Y-50463571D01*
X123400952Y-50987380D02*
X123400952Y-49987380D01*
X122543809Y-50939761D02*
X122639047Y-50987380D01*
X122829523Y-50987380D01*
X122924761Y-50939761D01*
X122972380Y-50844523D01*
X122972380Y-50463571D01*
X122924761Y-50368333D01*
X122829523Y-50320714D01*
X122639047Y-50320714D01*
X122543809Y-50368333D01*
X122496190Y-50463571D01*
X122496190Y-50558809D01*
X122972380Y-50654047D01*
X121639047Y-50987380D02*
X121639047Y-50463571D01*
X121686666Y-50368333D01*
X121781904Y-50320714D01*
X121972380Y-50320714D01*
X122067619Y-50368333D01*
X121639047Y-50939761D02*
X121734285Y-50987380D01*
X121972380Y-50987380D01*
X122067619Y-50939761D01*
X122115238Y-50844523D01*
X122115238Y-50749285D01*
X122067619Y-50654047D01*
X121972380Y-50606428D01*
X121734285Y-50606428D01*
X121639047Y-50558809D01*
X121305714Y-50320714D02*
X120924761Y-50320714D01*
X121162857Y-49987380D02*
X121162857Y-50844523D01*
X121115238Y-50939761D01*
X121020000Y-50987380D01*
X120924761Y-50987380D01*
X120210476Y-50939761D02*
X120305714Y-50987380D01*
X120496190Y-50987380D01*
X120591428Y-50939761D01*
X120639047Y-50844523D01*
X120639047Y-50463571D01*
X120591428Y-50368333D01*
X120496190Y-50320714D01*
X120305714Y-50320714D01*
X120210476Y-50368333D01*
X120162857Y-50463571D01*
X120162857Y-50558809D01*
X120639047Y-50654047D01*
X119734285Y-50987380D02*
X119734285Y-50320714D01*
X119734285Y-50511190D02*
X119686666Y-50415952D01*
X119639047Y-50368333D01*
X119543809Y-50320714D01*
X119448571Y-50320714D01*
X118353333Y-50987380D02*
X118353333Y-49987380D01*
X118020000Y-50701666D01*
X117686666Y-49987380D01*
X117686666Y-50987380D01*
X116639047Y-50892142D02*
X116686666Y-50939761D01*
X116829523Y-50987380D01*
X116924761Y-50987380D01*
X117067619Y-50939761D01*
X117162857Y-50844523D01*
X117210476Y-50749285D01*
X117258095Y-50558809D01*
X117258095Y-50415952D01*
X117210476Y-50225476D01*
X117162857Y-50130238D01*
X117067619Y-50035000D01*
X116924761Y-49987380D01*
X116829523Y-49987380D01*
X116686666Y-50035000D01*
X116639047Y-50082619D01*
X116210476Y-49987380D02*
X116210476Y-50796904D01*
X116162857Y-50892142D01*
X116115238Y-50939761D01*
X116020000Y-50987380D01*
X115829523Y-50987380D01*
X115734285Y-50939761D01*
X115686666Y-50892142D01*
X115639047Y-50796904D01*
X115639047Y-49987380D01*
X127900952Y-51692619D02*
X127853333Y-51645000D01*
X127758095Y-51597380D01*
X127520000Y-51597380D01*
X127424761Y-51645000D01*
X127377142Y-51692619D01*
X127329523Y-51787857D01*
X127329523Y-51883095D01*
X127377142Y-52025952D01*
X127948571Y-52597380D01*
X127329523Y-52597380D01*
X126948571Y-51692619D02*
X126900952Y-51645000D01*
X126805714Y-51597380D01*
X126567619Y-51597380D01*
X126472380Y-51645000D01*
X126424761Y-51692619D01*
X126377142Y-51787857D01*
X126377142Y-51883095D01*
X126424761Y-52025952D01*
X126996190Y-52597380D01*
X126377142Y-52597380D01*
X126186666Y-52692619D02*
X125424761Y-52692619D01*
X124758095Y-51930714D02*
X124758095Y-52597380D01*
X124996190Y-51549761D02*
X125234285Y-52264047D01*
X124615238Y-52264047D01*
X124329523Y-51597380D02*
X123710476Y-51597380D01*
X124043809Y-51978333D01*
X123900952Y-51978333D01*
X123805714Y-52025952D01*
X123758095Y-52073571D01*
X123710476Y-52168809D01*
X123710476Y-52406904D01*
X123758095Y-52502142D01*
X123805714Y-52549761D01*
X123900952Y-52597380D01*
X124186666Y-52597380D01*
X124281904Y-52549761D01*
X124329523Y-52502142D01*
X123520000Y-52692619D02*
X122758095Y-52692619D01*
X122329523Y-51597380D02*
X122234285Y-51597380D01*
X122139047Y-51645000D01*
X122091428Y-51692619D01*
X122043809Y-51787857D01*
X121996190Y-51978333D01*
X121996190Y-52216428D01*
X122043809Y-52406904D01*
X122091428Y-52502142D01*
X122139047Y-52549761D01*
X122234285Y-52597380D01*
X122329523Y-52597380D01*
X122424761Y-52549761D01*
X122472380Y-52502142D01*
X122520000Y-52406904D01*
X122567619Y-52216428D01*
X122567619Y-51978333D01*
X122520000Y-51787857D01*
X122472380Y-51692619D01*
X122424761Y-51645000D01*
X122329523Y-51597380D01*
X121043809Y-52597380D02*
X121615238Y-52597380D01*
X121329523Y-52597380D02*
X121329523Y-51597380D01*
X121424761Y-51740238D01*
X121520000Y-51835476D01*
X121615238Y-51883095D01*
X120662857Y-51692619D02*
X120615238Y-51645000D01*
X120520000Y-51597380D01*
X120281904Y-51597380D01*
X120186666Y-51645000D01*
X120139047Y-51692619D01*
X120091428Y-51787857D01*
X120091428Y-51883095D01*
X120139047Y-52025952D01*
X120710476Y-52597380D01*
X120091428Y-52597380D01*
X119472380Y-51597380D02*
X119377142Y-51597380D01*
X119281904Y-51645000D01*
X119234285Y-51692619D01*
X119186666Y-51787857D01*
X119139047Y-51978333D01*
X119139047Y-52216428D01*
X119186666Y-52406904D01*
X119234285Y-52502142D01*
X119281904Y-52549761D01*
X119377142Y-52597380D01*
X119472380Y-52597380D01*
X119567619Y-52549761D01*
X119615238Y-52502142D01*
X119662857Y-52406904D01*
X119710476Y-52216428D01*
X119710476Y-51978333D01*
X119662857Y-51787857D01*
X119615238Y-51692619D01*
X119567619Y-51645000D01*
X119472380Y-51597380D01*
X118139047Y-52502142D02*
X118186666Y-52549761D01*
X118329523Y-52597380D01*
X118424761Y-52597380D01*
X118567619Y-52549761D01*
X118662857Y-52454523D01*
X118710476Y-52359285D01*
X118758095Y-52168809D01*
X118758095Y-52025952D01*
X118710476Y-51835476D01*
X118662857Y-51740238D01*
X118567619Y-51645000D01*
X118424761Y-51597380D01*
X118329523Y-51597380D01*
X118186666Y-51645000D01*
X118139047Y-51692619D01*
X128472380Y-53683571D02*
X128329523Y-53731190D01*
X128281904Y-53778809D01*
X128234285Y-53874047D01*
X128234285Y-54016904D01*
X128281904Y-54112142D01*
X128329523Y-54159761D01*
X128424761Y-54207380D01*
X128805714Y-54207380D01*
X128805714Y-53207380D01*
X128472380Y-53207380D01*
X128377142Y-53255000D01*
X128329523Y-53302619D01*
X128281904Y-53397857D01*
X128281904Y-53493095D01*
X128329523Y-53588333D01*
X128377142Y-53635952D01*
X128472380Y-53683571D01*
X128805714Y-53683571D01*
X127805714Y-53540714D02*
X127805714Y-54397857D01*
X127853333Y-54493095D01*
X127948571Y-54540714D01*
X127996190Y-54540714D01*
X127805714Y-53207380D02*
X127853333Y-53255000D01*
X127805714Y-53302619D01*
X127758095Y-53255000D01*
X127805714Y-53207380D01*
X127805714Y-53302619D01*
X126805714Y-53540714D02*
X127424761Y-54207380D01*
X127186666Y-54207380D02*
X127281904Y-54159761D01*
X127329523Y-54112142D01*
X127377142Y-54016904D01*
X127377142Y-53731190D01*
X127329523Y-53635952D01*
X127281904Y-53588333D01*
X127186666Y-53540714D01*
X127043809Y-53540714D01*
X126948571Y-53588333D01*
X126900952Y-53635952D01*
X126853333Y-53731190D01*
X126853333Y-54016904D01*
X126900952Y-54112142D01*
X126948571Y-54159761D01*
X127043809Y-54207380D01*
X127186666Y-54207380D01*
X126424761Y-54207380D02*
X126424761Y-53540714D01*
X126424761Y-53731190D02*
X126377142Y-53635952D01*
X126329523Y-53588333D01*
X126234285Y-53540714D01*
X126139047Y-53540714D01*
X125805714Y-53540714D02*
X125805714Y-54207380D01*
X125805714Y-53635952D02*
X125758095Y-53588333D01*
X125662857Y-53540714D01*
X125520000Y-53540714D01*
X125424761Y-53588333D01*
X125377142Y-53683571D01*
X125377142Y-54207380D01*
X124520000Y-54159761D02*
X124615238Y-54207380D01*
X124805714Y-54207380D01*
X124900952Y-54159761D01*
X124948571Y-54064523D01*
X124948571Y-53683571D01*
X124900952Y-53588333D01*
X124805714Y-53540714D01*
X124615238Y-53540714D01*
X124520000Y-53588333D01*
X124472380Y-53683571D01*
X124472380Y-53778809D01*
X124948571Y-53874047D01*
X124043809Y-54207380D02*
X124043809Y-53540714D01*
X124043809Y-53731190D02*
X123996190Y-53635952D01*
X123948571Y-53588333D01*
X123853333Y-53540714D01*
X123758095Y-53540714D01*
X122710476Y-54159761D02*
X122567619Y-54207380D01*
X122329523Y-54207380D01*
X122234285Y-54159761D01*
X122186666Y-54112142D01*
X122139047Y-54016904D01*
X122139047Y-53921666D01*
X122186666Y-53826428D01*
X122234285Y-53778809D01*
X122329523Y-53731190D01*
X122520000Y-53683571D01*
X122615238Y-53635952D01*
X122662857Y-53588333D01*
X122710476Y-53493095D01*
X122710476Y-53397857D01*
X122662857Y-53302619D01*
X122615238Y-53255000D01*
X122520000Y-53207380D01*
X122281904Y-53207380D01*
X122139047Y-53255000D01*
X121281904Y-54207380D02*
X121281904Y-53683571D01*
X121329523Y-53588333D01*
X121424761Y-53540714D01*
X121615238Y-53540714D01*
X121710476Y-53588333D01*
X121281904Y-54159761D02*
X121377142Y-54207380D01*
X121615238Y-54207380D01*
X121710476Y-54159761D01*
X121758095Y-54064523D01*
X121758095Y-53969285D01*
X121710476Y-53874047D01*
X121615238Y-53826428D01*
X121377142Y-53826428D01*
X121281904Y-53778809D01*
X120805714Y-53540714D02*
X120805714Y-54207380D01*
X120805714Y-53635952D02*
X120758095Y-53588333D01*
X120662857Y-53540714D01*
X120520000Y-53540714D01*
X120424761Y-53588333D01*
X120377142Y-53683571D01*
X120377142Y-54207380D01*
X119472380Y-54207380D02*
X119472380Y-53207380D01*
X119472380Y-54159761D02*
X119567619Y-54207380D01*
X119758095Y-54207380D01*
X119853333Y-54159761D01*
X119900952Y-54112142D01*
X119948571Y-54016904D01*
X119948571Y-53731190D01*
X119900952Y-53635952D01*
X119853333Y-53588333D01*
X119758095Y-53540714D01*
X119567619Y-53540714D01*
X119472380Y-53588333D01*
X118853333Y-54207380D02*
X118948571Y-54159761D01*
X118996190Y-54112142D01*
X119043809Y-54016904D01*
X119043809Y-53731190D01*
X118996190Y-53635952D01*
X118948571Y-53588333D01*
X118853333Y-53540714D01*
X118710476Y-53540714D01*
X118615238Y-53588333D01*
X118567619Y-53635952D01*
X118520000Y-53731190D01*
X118520000Y-54016904D01*
X118567619Y-54112142D01*
X118615238Y-54159761D01*
X118710476Y-54207380D01*
X118853333Y-54207380D01*
X118091428Y-54207380D02*
X118091428Y-53540714D01*
X118091428Y-53635952D02*
X118043809Y-53588333D01*
X117948571Y-53540714D01*
X117805714Y-53540714D01*
X117710476Y-53588333D01*
X117662857Y-53683571D01*
X117662857Y-54207380D01*
X117662857Y-53683571D02*
X117615238Y-53588333D01*
X117520000Y-53540714D01*
X117377142Y-53540714D01*
X117281904Y-53588333D01*
X117234285Y-53683571D01*
X117234285Y-54207380D01*
D12*
X75750000Y-58060714D02*
X75678571Y-58132142D01*
X75750000Y-58203571D01*
X75821428Y-58132142D01*
X75750000Y-58060714D01*
X75750000Y-58203571D01*
D10*
X94528571Y-69092857D02*
X94795238Y-69092857D01*
X94795238Y-69511904D02*
X94795238Y-68711904D01*
X94414285Y-68711904D01*
X93842857Y-69092857D02*
X93728571Y-69130952D01*
X93690476Y-69169047D01*
X93652380Y-69245238D01*
X93652380Y-69359523D01*
X93690476Y-69435714D01*
X93728571Y-69473809D01*
X93804761Y-69511904D01*
X94109523Y-69511904D01*
X94109523Y-68711904D01*
X93842857Y-68711904D01*
X93766666Y-68750000D01*
X93728571Y-68788095D01*
X93690476Y-68864285D01*
X93690476Y-68940476D01*
X93728571Y-69016666D01*
X93766666Y-69054761D01*
X93842857Y-69092857D01*
X94109523Y-69092857D01*
X93385714Y-68711904D02*
X92890476Y-68711904D01*
X93157142Y-69016666D01*
X93042857Y-69016666D01*
X92966666Y-69054761D01*
X92928571Y-69092857D01*
X92890476Y-69169047D01*
X92890476Y-69359523D01*
X92928571Y-69435714D01*
X92966666Y-69473809D01*
X93042857Y-69511904D01*
X93271428Y-69511904D01*
X93347619Y-69473809D01*
X93385714Y-69435714D01*
X92395238Y-68711904D02*
X92319047Y-68711904D01*
X92242857Y-68750000D01*
X92204761Y-68788095D01*
X92166666Y-68864285D01*
X92128571Y-69016666D01*
X92128571Y-69207142D01*
X92166666Y-69359523D01*
X92204761Y-69435714D01*
X92242857Y-69473809D01*
X92319047Y-69511904D01*
X92395238Y-69511904D01*
X92471428Y-69473809D01*
X92509523Y-69435714D01*
X92547619Y-69359523D01*
X92585714Y-69207142D01*
X92585714Y-69016666D01*
X92547619Y-68864285D01*
X92509523Y-68788095D01*
X92471428Y-68750000D01*
X92395238Y-68711904D01*
X91366666Y-69511904D02*
X91823809Y-69511904D01*
X91595238Y-69511904D02*
X91595238Y-68711904D01*
X91671428Y-68826190D01*
X91747619Y-68902380D01*
X91823809Y-68940476D01*
X68708571Y-49933809D02*
X68594285Y-49971904D01*
X68403809Y-49971904D01*
X68327619Y-49933809D01*
X68289523Y-49895714D01*
X68251428Y-49819523D01*
X68251428Y-49743333D01*
X68289523Y-49667142D01*
X68327619Y-49629047D01*
X68403809Y-49590952D01*
X68556190Y-49552857D01*
X68632380Y-49514761D01*
X68670476Y-49476666D01*
X68708571Y-49400476D01*
X68708571Y-49324285D01*
X68670476Y-49248095D01*
X68632380Y-49210000D01*
X68556190Y-49171904D01*
X68365714Y-49171904D01*
X68251428Y-49210000D01*
X67984761Y-49171904D02*
X67794285Y-49971904D01*
X67641904Y-49400476D01*
X67489523Y-49971904D01*
X67299047Y-49171904D01*
X67070476Y-49171904D02*
X66575238Y-49171904D01*
X66841904Y-49476666D01*
X66727619Y-49476666D01*
X66651428Y-49514761D01*
X66613333Y-49552857D01*
X66575238Y-49629047D01*
X66575238Y-49819523D01*
X66613333Y-49895714D01*
X66651428Y-49933809D01*
X66727619Y-49971904D01*
X66956190Y-49971904D01*
X67032380Y-49933809D01*
X67070476Y-49895714D01*
X66080000Y-49171904D02*
X66003809Y-49171904D01*
X65927619Y-49210000D01*
X65889523Y-49248095D01*
X65851428Y-49324285D01*
X65813333Y-49476666D01*
X65813333Y-49667142D01*
X65851428Y-49819523D01*
X65889523Y-49895714D01*
X65927619Y-49933809D01*
X66003809Y-49971904D01*
X66080000Y-49971904D01*
X66156190Y-49933809D01*
X66194285Y-49895714D01*
X66232380Y-49819523D01*
X66270476Y-49667142D01*
X66270476Y-49476666D01*
X66232380Y-49324285D01*
X66194285Y-49248095D01*
X66156190Y-49210000D01*
X66080000Y-49171904D01*
X65051428Y-49971904D02*
X65508571Y-49971904D01*
X65280000Y-49971904D02*
X65280000Y-49171904D01*
X65356190Y-49286190D01*
X65432380Y-49362380D01*
X65508571Y-49400476D01*
X80935714Y-50179761D02*
X80973809Y-50141666D01*
X81011904Y-50027380D01*
X81011904Y-49951190D01*
X80973809Y-49836904D01*
X80897619Y-49760714D01*
X80821428Y-49722619D01*
X80669047Y-49684523D01*
X80554761Y-49684523D01*
X80402380Y-49722619D01*
X80326190Y-49760714D01*
X80250000Y-49836904D01*
X80211904Y-49951190D01*
X80211904Y-50027380D01*
X80250000Y-50141666D01*
X80288095Y-50179761D01*
X80211904Y-50446428D02*
X80211904Y-50941666D01*
X80516666Y-50675000D01*
X80516666Y-50789285D01*
X80554761Y-50865476D01*
X80592857Y-50903571D01*
X80669047Y-50941666D01*
X80859523Y-50941666D01*
X80935714Y-50903571D01*
X80973809Y-50865476D01*
X81011904Y-50789285D01*
X81011904Y-50560714D01*
X80973809Y-50484523D01*
X80935714Y-50446428D01*
X81011904Y-51703571D02*
X81011904Y-51246428D01*
X81011904Y-51475000D02*
X80211904Y-51475000D01*
X80326190Y-51398809D01*
X80402380Y-51322619D01*
X80440476Y-51246428D01*
X81011904Y-52465476D02*
X81011904Y-52008333D01*
X81011904Y-52236904D02*
X80211904Y-52236904D01*
X80326190Y-52160714D01*
X80402380Y-52084523D01*
X80440476Y-52008333D01*
X85935714Y-50329761D02*
X85973809Y-50291666D01*
X86011904Y-50177380D01*
X86011904Y-50101190D01*
X85973809Y-49986904D01*
X85897619Y-49910714D01*
X85821428Y-49872619D01*
X85669047Y-49834523D01*
X85554761Y-49834523D01*
X85402380Y-49872619D01*
X85326190Y-49910714D01*
X85250000Y-49986904D01*
X85211904Y-50101190D01*
X85211904Y-50177380D01*
X85250000Y-50291666D01*
X85288095Y-50329761D01*
X85211904Y-50596428D02*
X85211904Y-51091666D01*
X85516666Y-50825000D01*
X85516666Y-50939285D01*
X85554761Y-51015476D01*
X85592857Y-51053571D01*
X85669047Y-51091666D01*
X85859523Y-51091666D01*
X85935714Y-51053571D01*
X85973809Y-51015476D01*
X86011904Y-50939285D01*
X86011904Y-50710714D01*
X85973809Y-50634523D01*
X85935714Y-50596428D01*
X85211904Y-51586904D02*
X85211904Y-51663095D01*
X85250000Y-51739285D01*
X85288095Y-51777380D01*
X85364285Y-51815476D01*
X85516666Y-51853571D01*
X85707142Y-51853571D01*
X85859523Y-51815476D01*
X85935714Y-51777380D01*
X85973809Y-51739285D01*
X86011904Y-51663095D01*
X86011904Y-51586904D01*
X85973809Y-51510714D01*
X85935714Y-51472619D01*
X85859523Y-51434523D01*
X85707142Y-51396428D01*
X85516666Y-51396428D01*
X85364285Y-51434523D01*
X85288095Y-51472619D01*
X85250000Y-51510714D01*
X85211904Y-51586904D01*
X85554761Y-52310714D02*
X85516666Y-52234523D01*
X85478571Y-52196428D01*
X85402380Y-52158333D01*
X85364285Y-52158333D01*
X85288095Y-52196428D01*
X85250000Y-52234523D01*
X85211904Y-52310714D01*
X85211904Y-52463095D01*
X85250000Y-52539285D01*
X85288095Y-52577380D01*
X85364285Y-52615476D01*
X85402380Y-52615476D01*
X85478571Y-52577380D01*
X85516666Y-52539285D01*
X85554761Y-52463095D01*
X85554761Y-52310714D01*
X85592857Y-52234523D01*
X85630952Y-52196428D01*
X85707142Y-52158333D01*
X85859523Y-52158333D01*
X85935714Y-52196428D01*
X85973809Y-52234523D01*
X86011904Y-52310714D01*
X86011904Y-52463095D01*
X85973809Y-52539285D01*
X85935714Y-52577380D01*
X85859523Y-52615476D01*
X85707142Y-52615476D01*
X85630952Y-52577380D01*
X85592857Y-52539285D01*
X85554761Y-52463095D01*
X145528571Y-65776904D02*
X145528571Y-66348333D01*
X145566666Y-66462619D01*
X145642857Y-66538809D01*
X145757142Y-66576904D01*
X145833333Y-66576904D01*
X145223809Y-65776904D02*
X144728571Y-65776904D01*
X144995238Y-66081666D01*
X144880952Y-66081666D01*
X144804761Y-66119761D01*
X144766666Y-66157857D01*
X144728571Y-66234047D01*
X144728571Y-66424523D01*
X144766666Y-66500714D01*
X144804761Y-66538809D01*
X144880952Y-66576904D01*
X145109523Y-66576904D01*
X145185714Y-66538809D01*
X145223809Y-66500714D01*
X144233333Y-65776904D02*
X144157142Y-65776904D01*
X144080952Y-65815000D01*
X144042857Y-65853095D01*
X144004761Y-65929285D01*
X143966666Y-66081666D01*
X143966666Y-66272142D01*
X144004761Y-66424523D01*
X144042857Y-66500714D01*
X144080952Y-66538809D01*
X144157142Y-66576904D01*
X144233333Y-66576904D01*
X144309523Y-66538809D01*
X144347619Y-66500714D01*
X144385714Y-66424523D01*
X144423809Y-66272142D01*
X144423809Y-66081666D01*
X144385714Y-65929285D01*
X144347619Y-65853095D01*
X144309523Y-65815000D01*
X144233333Y-65776904D01*
X143700000Y-65776904D02*
X143204761Y-65776904D01*
X143471428Y-66081666D01*
X143357142Y-66081666D01*
X143280952Y-66119761D01*
X143242857Y-66157857D01*
X143204761Y-66234047D01*
X143204761Y-66424523D01*
X143242857Y-66500714D01*
X143280952Y-66538809D01*
X143357142Y-66576904D01*
X143585714Y-66576904D01*
X143661904Y-66538809D01*
X143700000Y-66500714D01*
X145348571Y-54126904D02*
X145348571Y-54698333D01*
X145386666Y-54812619D01*
X145462857Y-54888809D01*
X145577142Y-54926904D01*
X145653333Y-54926904D01*
X145043809Y-54126904D02*
X144548571Y-54126904D01*
X144815238Y-54431666D01*
X144700952Y-54431666D01*
X144624761Y-54469761D01*
X144586666Y-54507857D01*
X144548571Y-54584047D01*
X144548571Y-54774523D01*
X144586666Y-54850714D01*
X144624761Y-54888809D01*
X144700952Y-54926904D01*
X144929523Y-54926904D01*
X145005714Y-54888809D01*
X145043809Y-54850714D01*
X144053333Y-54126904D02*
X143977142Y-54126904D01*
X143900952Y-54165000D01*
X143862857Y-54203095D01*
X143824761Y-54279285D01*
X143786666Y-54431666D01*
X143786666Y-54622142D01*
X143824761Y-54774523D01*
X143862857Y-54850714D01*
X143900952Y-54888809D01*
X143977142Y-54926904D01*
X144053333Y-54926904D01*
X144129523Y-54888809D01*
X144167619Y-54850714D01*
X144205714Y-54774523D01*
X144243809Y-54622142D01*
X144243809Y-54431666D01*
X144205714Y-54279285D01*
X144167619Y-54203095D01*
X144129523Y-54165000D01*
X144053333Y-54126904D01*
X143481904Y-54203095D02*
X143443809Y-54165000D01*
X143367619Y-54126904D01*
X143177142Y-54126904D01*
X143100952Y-54165000D01*
X143062857Y-54203095D01*
X143024761Y-54279285D01*
X143024761Y-54355476D01*
X143062857Y-54469761D01*
X143520000Y-54926904D01*
X143024761Y-54926904D01*
X78345238Y-65085714D02*
X78383333Y-65123809D01*
X78497619Y-65161904D01*
X78573809Y-65161904D01*
X78688095Y-65123809D01*
X78764285Y-65047619D01*
X78802380Y-64971428D01*
X78840476Y-64819047D01*
X78840476Y-64704761D01*
X78802380Y-64552380D01*
X78764285Y-64476190D01*
X78688095Y-64400000D01*
X78573809Y-64361904D01*
X78497619Y-64361904D01*
X78383333Y-64400000D01*
X78345238Y-64438095D01*
X78078571Y-64361904D02*
X77583333Y-64361904D01*
X77850000Y-64666666D01*
X77735714Y-64666666D01*
X77659523Y-64704761D01*
X77621428Y-64742857D01*
X77583333Y-64819047D01*
X77583333Y-65009523D01*
X77621428Y-65085714D01*
X77659523Y-65123809D01*
X77735714Y-65161904D01*
X77964285Y-65161904D01*
X78040476Y-65123809D01*
X78078571Y-65085714D01*
X77088095Y-64361904D02*
X77011904Y-64361904D01*
X76935714Y-64400000D01*
X76897619Y-64438095D01*
X76859523Y-64514285D01*
X76821428Y-64666666D01*
X76821428Y-64857142D01*
X76859523Y-65009523D01*
X76897619Y-65085714D01*
X76935714Y-65123809D01*
X77011904Y-65161904D01*
X77088095Y-65161904D01*
X77164285Y-65123809D01*
X77202380Y-65085714D01*
X77240476Y-65009523D01*
X77278571Y-64857142D01*
X77278571Y-64666666D01*
X77240476Y-64514285D01*
X77202380Y-64438095D01*
X77164285Y-64400000D01*
X77088095Y-64361904D01*
X76097619Y-64361904D02*
X76478571Y-64361904D01*
X76516666Y-64742857D01*
X76478571Y-64704761D01*
X76402380Y-64666666D01*
X76211904Y-64666666D01*
X76135714Y-64704761D01*
X76097619Y-64742857D01*
X76059523Y-64819047D01*
X76059523Y-65009523D01*
X76097619Y-65085714D01*
X76135714Y-65123809D01*
X76211904Y-65161904D01*
X76402380Y-65161904D01*
X76478571Y-65123809D01*
X76516666Y-65085714D01*
X71446428Y-54761904D02*
X71446428Y-55409523D01*
X71408333Y-55485714D01*
X71370238Y-55523809D01*
X71294047Y-55561904D01*
X71141666Y-55561904D01*
X71065476Y-55523809D01*
X71027380Y-55485714D01*
X70989285Y-55409523D01*
X70989285Y-54761904D01*
X70684523Y-54761904D02*
X70189285Y-54761904D01*
X70455952Y-55066666D01*
X70341666Y-55066666D01*
X70265476Y-55104761D01*
X70227380Y-55142857D01*
X70189285Y-55219047D01*
X70189285Y-55409523D01*
X70227380Y-55485714D01*
X70265476Y-55523809D01*
X70341666Y-55561904D01*
X70570238Y-55561904D01*
X70646428Y-55523809D01*
X70684523Y-55485714D01*
X69694047Y-54761904D02*
X69617857Y-54761904D01*
X69541666Y-54800000D01*
X69503571Y-54838095D01*
X69465476Y-54914285D01*
X69427380Y-55066666D01*
X69427380Y-55257142D01*
X69465476Y-55409523D01*
X69503571Y-55485714D01*
X69541666Y-55523809D01*
X69617857Y-55561904D01*
X69694047Y-55561904D01*
X69770238Y-55523809D01*
X69808333Y-55485714D01*
X69846428Y-55409523D01*
X69884523Y-55257142D01*
X69884523Y-55066666D01*
X69846428Y-54914285D01*
X69808333Y-54838095D01*
X69770238Y-54800000D01*
X69694047Y-54761904D01*
X69122619Y-54838095D02*
X69084523Y-54800000D01*
X69008333Y-54761904D01*
X68817857Y-54761904D01*
X68741666Y-54800000D01*
X68703571Y-54838095D01*
X68665476Y-54914285D01*
X68665476Y-54990476D01*
X68703571Y-55104761D01*
X69160714Y-55561904D01*
X68665476Y-55561904D01*
X89695238Y-64941474D02*
X89733333Y-64979569D01*
X89847619Y-65017664D01*
X89923809Y-65017664D01*
X90038095Y-64979569D01*
X90114285Y-64903379D01*
X90152380Y-64827188D01*
X90190476Y-64674807D01*
X90190476Y-64560521D01*
X90152380Y-64408140D01*
X90114285Y-64331950D01*
X90038095Y-64255760D01*
X89923809Y-64217664D01*
X89847619Y-64217664D01*
X89733333Y-64255760D01*
X89695238Y-64293855D01*
X89428571Y-64217664D02*
X88933333Y-64217664D01*
X89200000Y-64522426D01*
X89085714Y-64522426D01*
X89009523Y-64560521D01*
X88971428Y-64598617D01*
X88933333Y-64674807D01*
X88933333Y-64865283D01*
X88971428Y-64941474D01*
X89009523Y-64979569D01*
X89085714Y-65017664D01*
X89314285Y-65017664D01*
X89390476Y-64979569D01*
X89428571Y-64941474D01*
X88438095Y-64217664D02*
X88361904Y-64217664D01*
X88285714Y-64255760D01*
X88247619Y-64293855D01*
X88209523Y-64370045D01*
X88171428Y-64522426D01*
X88171428Y-64712902D01*
X88209523Y-64865283D01*
X88247619Y-64941474D01*
X88285714Y-64979569D01*
X88361904Y-65017664D01*
X88438095Y-65017664D01*
X88514285Y-64979569D01*
X88552380Y-64941474D01*
X88590476Y-64865283D01*
X88628571Y-64712902D01*
X88628571Y-64522426D01*
X88590476Y-64370045D01*
X88552380Y-64293855D01*
X88514285Y-64255760D01*
X88438095Y-64217664D01*
X87485714Y-64217664D02*
X87638095Y-64217664D01*
X87714285Y-64255760D01*
X87752380Y-64293855D01*
X87828571Y-64408140D01*
X87866666Y-64560521D01*
X87866666Y-64865283D01*
X87828571Y-64941474D01*
X87790476Y-64979569D01*
X87714285Y-65017664D01*
X87561904Y-65017664D01*
X87485714Y-64979569D01*
X87447619Y-64941474D01*
X87409523Y-64865283D01*
X87409523Y-64674807D01*
X87447619Y-64598617D01*
X87485714Y-64560521D01*
X87561904Y-64522426D01*
X87714285Y-64522426D01*
X87790476Y-64560521D01*
X87828571Y-64598617D01*
X87866666Y-64674807D01*
X85961904Y-53829761D02*
X85580952Y-53563095D01*
X85961904Y-53372619D02*
X85161904Y-53372619D01*
X85161904Y-53677380D01*
X85200000Y-53753571D01*
X85238095Y-53791666D01*
X85314285Y-53829761D01*
X85428571Y-53829761D01*
X85504761Y-53791666D01*
X85542857Y-53753571D01*
X85580952Y-53677380D01*
X85580952Y-53372619D01*
X85161904Y-54096428D02*
X85161904Y-54591666D01*
X85466666Y-54325000D01*
X85466666Y-54439285D01*
X85504761Y-54515476D01*
X85542857Y-54553571D01*
X85619047Y-54591666D01*
X85809523Y-54591666D01*
X85885714Y-54553571D01*
X85923809Y-54515476D01*
X85961904Y-54439285D01*
X85961904Y-54210714D01*
X85923809Y-54134523D01*
X85885714Y-54096428D01*
X85161904Y-55086904D02*
X85161904Y-55163095D01*
X85200000Y-55239285D01*
X85238095Y-55277380D01*
X85314285Y-55315476D01*
X85466666Y-55353571D01*
X85657142Y-55353571D01*
X85809523Y-55315476D01*
X85885714Y-55277380D01*
X85923809Y-55239285D01*
X85961904Y-55163095D01*
X85961904Y-55086904D01*
X85923809Y-55010714D01*
X85885714Y-54972619D01*
X85809523Y-54934523D01*
X85657142Y-54896428D01*
X85466666Y-54896428D01*
X85314285Y-54934523D01*
X85238095Y-54972619D01*
X85200000Y-55010714D01*
X85161904Y-55086904D01*
X85428571Y-56039285D02*
X85961904Y-56039285D01*
X85123809Y-55848809D02*
X85695238Y-55658333D01*
X85695238Y-56153571D01*
X84145238Y-65135714D02*
X84183333Y-65173809D01*
X84297619Y-65211904D01*
X84373809Y-65211904D01*
X84488095Y-65173809D01*
X84564285Y-65097619D01*
X84602380Y-65021428D01*
X84640476Y-64869047D01*
X84640476Y-64754761D01*
X84602380Y-64602380D01*
X84564285Y-64526190D01*
X84488095Y-64450000D01*
X84373809Y-64411904D01*
X84297619Y-64411904D01*
X84183333Y-64450000D01*
X84145238Y-64488095D01*
X83878571Y-64411904D02*
X83383333Y-64411904D01*
X83650000Y-64716666D01*
X83535714Y-64716666D01*
X83459523Y-64754761D01*
X83421428Y-64792857D01*
X83383333Y-64869047D01*
X83383333Y-65059523D01*
X83421428Y-65135714D01*
X83459523Y-65173809D01*
X83535714Y-65211904D01*
X83764285Y-65211904D01*
X83840476Y-65173809D01*
X83878571Y-65135714D01*
X82888095Y-64411904D02*
X82811904Y-64411904D01*
X82735714Y-64450000D01*
X82697619Y-64488095D01*
X82659523Y-64564285D01*
X82621428Y-64716666D01*
X82621428Y-64907142D01*
X82659523Y-65059523D01*
X82697619Y-65135714D01*
X82735714Y-65173809D01*
X82811904Y-65211904D01*
X82888095Y-65211904D01*
X82964285Y-65173809D01*
X83002380Y-65135714D01*
X83040476Y-65059523D01*
X83078571Y-64907142D01*
X83078571Y-64716666D01*
X83040476Y-64564285D01*
X83002380Y-64488095D01*
X82964285Y-64450000D01*
X82888095Y-64411904D01*
X81935714Y-64678571D02*
X81935714Y-65211904D01*
X82126190Y-64373809D02*
X82316666Y-64945238D01*
X81821428Y-64945238D01*
X90071428Y-58011904D02*
X90071428Y-58659523D01*
X90033333Y-58735714D01*
X89995238Y-58773809D01*
X89919047Y-58811904D01*
X89766666Y-58811904D01*
X89690476Y-58773809D01*
X89652380Y-58735714D01*
X89614285Y-58659523D01*
X89614285Y-58011904D01*
X89309523Y-58011904D02*
X88814285Y-58011904D01*
X89080952Y-58316666D01*
X88966666Y-58316666D01*
X88890476Y-58354761D01*
X88852380Y-58392857D01*
X88814285Y-58469047D01*
X88814285Y-58659523D01*
X88852380Y-58735714D01*
X88890476Y-58773809D01*
X88966666Y-58811904D01*
X89195238Y-58811904D01*
X89271428Y-58773809D01*
X89309523Y-58735714D01*
X88319047Y-58011904D02*
X88242857Y-58011904D01*
X88166666Y-58050000D01*
X88128571Y-58088095D01*
X88090476Y-58164285D01*
X88052380Y-58316666D01*
X88052380Y-58507142D01*
X88090476Y-58659523D01*
X88128571Y-58735714D01*
X88166666Y-58773809D01*
X88242857Y-58811904D01*
X88319047Y-58811904D01*
X88395238Y-58773809D01*
X88433333Y-58735714D01*
X88471428Y-58659523D01*
X88509523Y-58507142D01*
X88509523Y-58316666D01*
X88471428Y-58164285D01*
X88433333Y-58088095D01*
X88395238Y-58050000D01*
X88319047Y-58011904D01*
X87366666Y-58278571D02*
X87366666Y-58811904D01*
X87557142Y-57973809D02*
X87747619Y-58545238D01*
X87252380Y-58545238D01*
X94395238Y-59511904D02*
X94661904Y-59130952D01*
X94852380Y-59511904D02*
X94852380Y-58711904D01*
X94547619Y-58711904D01*
X94471428Y-58750000D01*
X94433333Y-58788095D01*
X94395238Y-58864285D01*
X94395238Y-58978571D01*
X94433333Y-59054761D01*
X94471428Y-59092857D01*
X94547619Y-59130952D01*
X94852380Y-59130952D01*
X94128571Y-58711904D02*
X93633333Y-58711904D01*
X93900000Y-59016666D01*
X93785714Y-59016666D01*
X93709523Y-59054761D01*
X93671428Y-59092857D01*
X93633333Y-59169047D01*
X93633333Y-59359523D01*
X93671428Y-59435714D01*
X93709523Y-59473809D01*
X93785714Y-59511904D01*
X94014285Y-59511904D01*
X94090476Y-59473809D01*
X94128571Y-59435714D01*
X92871428Y-59511904D02*
X93328571Y-59511904D01*
X93100000Y-59511904D02*
X93100000Y-58711904D01*
X93176190Y-58826190D01*
X93252380Y-58902380D01*
X93328571Y-58940476D01*
X92109523Y-59511904D02*
X92566666Y-59511904D01*
X92338095Y-59511904D02*
X92338095Y-58711904D01*
X92414285Y-58826190D01*
X92490476Y-58902380D01*
X92566666Y-58940476D01*
X98998571Y-53411904D02*
X98998571Y-53983333D01*
X99036666Y-54097619D01*
X99112857Y-54173809D01*
X99227142Y-54211904D01*
X99303333Y-54211904D01*
X98693809Y-53411904D02*
X98198571Y-53411904D01*
X98465238Y-53716666D01*
X98350952Y-53716666D01*
X98274761Y-53754761D01*
X98236666Y-53792857D01*
X98198571Y-53869047D01*
X98198571Y-54059523D01*
X98236666Y-54135714D01*
X98274761Y-54173809D01*
X98350952Y-54211904D01*
X98579523Y-54211904D01*
X98655714Y-54173809D01*
X98693809Y-54135714D01*
X97703333Y-53411904D02*
X97627142Y-53411904D01*
X97550952Y-53450000D01*
X97512857Y-53488095D01*
X97474761Y-53564285D01*
X97436666Y-53716666D01*
X97436666Y-53907142D01*
X97474761Y-54059523D01*
X97512857Y-54135714D01*
X97550952Y-54173809D01*
X97627142Y-54211904D01*
X97703333Y-54211904D01*
X97779523Y-54173809D01*
X97817619Y-54135714D01*
X97855714Y-54059523D01*
X97893809Y-53907142D01*
X97893809Y-53716666D01*
X97855714Y-53564285D01*
X97817619Y-53488095D01*
X97779523Y-53450000D01*
X97703333Y-53411904D01*
X96674761Y-54211904D02*
X97131904Y-54211904D01*
X96903333Y-54211904D02*
X96903333Y-53411904D01*
X96979523Y-53526190D01*
X97055714Y-53602380D01*
X97131904Y-53640476D01*
X94370238Y-57111904D02*
X94636904Y-56730952D01*
X94827380Y-57111904D02*
X94827380Y-56311904D01*
X94522619Y-56311904D01*
X94446428Y-56350000D01*
X94408333Y-56388095D01*
X94370238Y-56464285D01*
X94370238Y-56578571D01*
X94408333Y-56654761D01*
X94446428Y-56692857D01*
X94522619Y-56730952D01*
X94827380Y-56730952D01*
X94103571Y-56311904D02*
X93608333Y-56311904D01*
X93875000Y-56616666D01*
X93760714Y-56616666D01*
X93684523Y-56654761D01*
X93646428Y-56692857D01*
X93608333Y-56769047D01*
X93608333Y-56959523D01*
X93646428Y-57035714D01*
X93684523Y-57073809D01*
X93760714Y-57111904D01*
X93989285Y-57111904D01*
X94065476Y-57073809D01*
X94103571Y-57035714D01*
X92846428Y-57111904D02*
X93303571Y-57111904D01*
X93075000Y-57111904D02*
X93075000Y-56311904D01*
X93151190Y-56426190D01*
X93227380Y-56502380D01*
X93303571Y-56540476D01*
X92579761Y-56311904D02*
X92084523Y-56311904D01*
X92351190Y-56616666D01*
X92236904Y-56616666D01*
X92160714Y-56654761D01*
X92122619Y-56692857D01*
X92084523Y-56769047D01*
X92084523Y-56959523D01*
X92122619Y-57035714D01*
X92160714Y-57073809D01*
X92236904Y-57111904D01*
X92465476Y-57111904D01*
X92541666Y-57073809D01*
X92579761Y-57035714D01*
X73032738Y-73661904D02*
X73299404Y-73280952D01*
X73489880Y-73661904D02*
X73489880Y-72861904D01*
X73185119Y-72861904D01*
X73108928Y-72900000D01*
X73070833Y-72938095D01*
X73032738Y-73014285D01*
X73032738Y-73128571D01*
X73070833Y-73204761D01*
X73108928Y-73242857D01*
X73185119Y-73280952D01*
X73489880Y-73280952D01*
X72766071Y-72861904D02*
X72270833Y-72861904D01*
X72537500Y-73166666D01*
X72423214Y-73166666D01*
X72347023Y-73204761D01*
X72308928Y-73242857D01*
X72270833Y-73319047D01*
X72270833Y-73509523D01*
X72308928Y-73585714D01*
X72347023Y-73623809D01*
X72423214Y-73661904D01*
X72651785Y-73661904D01*
X72727976Y-73623809D01*
X72766071Y-73585714D01*
X71775595Y-72861904D02*
X71699404Y-72861904D01*
X71623214Y-72900000D01*
X71585119Y-72938095D01*
X71547023Y-73014285D01*
X71508928Y-73166666D01*
X71508928Y-73357142D01*
X71547023Y-73509523D01*
X71585119Y-73585714D01*
X71623214Y-73623809D01*
X71699404Y-73661904D01*
X71775595Y-73661904D01*
X71851785Y-73623809D01*
X71889880Y-73585714D01*
X71927976Y-73509523D01*
X71966071Y-73357142D01*
X71966071Y-73166666D01*
X71927976Y-73014285D01*
X71889880Y-72938095D01*
X71851785Y-72900000D01*
X71775595Y-72861904D01*
X70747023Y-73661904D02*
X71204166Y-73661904D01*
X70975595Y-73661904D02*
X70975595Y-72861904D01*
X71051785Y-72976190D01*
X71127976Y-73052380D01*
X71204166Y-73090476D01*
X78560714Y-59479761D02*
X78598809Y-59441666D01*
X78636904Y-59327380D01*
X78636904Y-59251190D01*
X78598809Y-59136904D01*
X78522619Y-59060714D01*
X78446428Y-59022619D01*
X78294047Y-58984523D01*
X78179761Y-58984523D01*
X78027380Y-59022619D01*
X77951190Y-59060714D01*
X77875000Y-59136904D01*
X77836904Y-59251190D01*
X77836904Y-59327380D01*
X77875000Y-59441666D01*
X77913095Y-59479761D01*
X77836904Y-59746428D02*
X77836904Y-60241666D01*
X78141666Y-59975000D01*
X78141666Y-60089285D01*
X78179761Y-60165476D01*
X78217857Y-60203571D01*
X78294047Y-60241666D01*
X78484523Y-60241666D01*
X78560714Y-60203571D01*
X78598809Y-60165476D01*
X78636904Y-60089285D01*
X78636904Y-59860714D01*
X78598809Y-59784523D01*
X78560714Y-59746428D01*
X77836904Y-60736904D02*
X77836904Y-60813095D01*
X77875000Y-60889285D01*
X77913095Y-60927380D01*
X77989285Y-60965476D01*
X78141666Y-61003571D01*
X78332142Y-61003571D01*
X78484523Y-60965476D01*
X78560714Y-60927380D01*
X78598809Y-60889285D01*
X78636904Y-60813095D01*
X78636904Y-60736904D01*
X78598809Y-60660714D01*
X78560714Y-60622619D01*
X78484523Y-60584523D01*
X78332142Y-60546428D01*
X78141666Y-60546428D01*
X77989285Y-60584523D01*
X77913095Y-60622619D01*
X77875000Y-60660714D01*
X77836904Y-60736904D01*
X77913095Y-61308333D02*
X77875000Y-61346428D01*
X77836904Y-61422619D01*
X77836904Y-61613095D01*
X77875000Y-61689285D01*
X77913095Y-61727380D01*
X77989285Y-61765476D01*
X78065476Y-61765476D01*
X78179761Y-61727380D01*
X78636904Y-61270238D01*
X78636904Y-61765476D01*
X61885714Y-68344761D02*
X61923809Y-68306666D01*
X61961904Y-68192380D01*
X61961904Y-68116190D01*
X61923809Y-68001904D01*
X61847619Y-67925714D01*
X61771428Y-67887619D01*
X61619047Y-67849523D01*
X61504761Y-67849523D01*
X61352380Y-67887619D01*
X61276190Y-67925714D01*
X61200000Y-68001904D01*
X61161904Y-68116190D01*
X61161904Y-68192380D01*
X61200000Y-68306666D01*
X61238095Y-68344761D01*
X61161904Y-68611428D02*
X61161904Y-69106666D01*
X61466666Y-68840000D01*
X61466666Y-68954285D01*
X61504761Y-69030476D01*
X61542857Y-69068571D01*
X61619047Y-69106666D01*
X61809523Y-69106666D01*
X61885714Y-69068571D01*
X61923809Y-69030476D01*
X61961904Y-68954285D01*
X61961904Y-68725714D01*
X61923809Y-68649523D01*
X61885714Y-68611428D01*
X61161904Y-69601904D02*
X61161904Y-69678095D01*
X61200000Y-69754285D01*
X61238095Y-69792380D01*
X61314285Y-69830476D01*
X61466666Y-69868571D01*
X61657142Y-69868571D01*
X61809523Y-69830476D01*
X61885714Y-69792380D01*
X61923809Y-69754285D01*
X61961904Y-69678095D01*
X61961904Y-69601904D01*
X61923809Y-69525714D01*
X61885714Y-69487619D01*
X61809523Y-69449523D01*
X61657142Y-69411428D01*
X61466666Y-69411428D01*
X61314285Y-69449523D01*
X61238095Y-69487619D01*
X61200000Y-69525714D01*
X61161904Y-69601904D01*
X61961904Y-70630476D02*
X61961904Y-70173333D01*
X61961904Y-70401904D02*
X61161904Y-70401904D01*
X61276190Y-70325714D01*
X61352380Y-70249523D01*
X61390476Y-70173333D01*
X83386904Y-59629761D02*
X83005952Y-59363095D01*
X83386904Y-59172619D02*
X82586904Y-59172619D01*
X82586904Y-59477380D01*
X82625000Y-59553571D01*
X82663095Y-59591666D01*
X82739285Y-59629761D01*
X82853571Y-59629761D01*
X82929761Y-59591666D01*
X82967857Y-59553571D01*
X83005952Y-59477380D01*
X83005952Y-59172619D01*
X82586904Y-59896428D02*
X82586904Y-60391666D01*
X82891666Y-60125000D01*
X82891666Y-60239285D01*
X82929761Y-60315476D01*
X82967857Y-60353571D01*
X83044047Y-60391666D01*
X83234523Y-60391666D01*
X83310714Y-60353571D01*
X83348809Y-60315476D01*
X83386904Y-60239285D01*
X83386904Y-60010714D01*
X83348809Y-59934523D01*
X83310714Y-59896428D01*
X83386904Y-61153571D02*
X83386904Y-60696428D01*
X83386904Y-60925000D02*
X82586904Y-60925000D01*
X82701190Y-60848809D01*
X82777380Y-60772619D01*
X82815476Y-60696428D01*
X82586904Y-61648809D02*
X82586904Y-61725000D01*
X82625000Y-61801190D01*
X82663095Y-61839285D01*
X82739285Y-61877380D01*
X82891666Y-61915476D01*
X83082142Y-61915476D01*
X83234523Y-61877380D01*
X83310714Y-61839285D01*
X83348809Y-61801190D01*
X83386904Y-61725000D01*
X83386904Y-61648809D01*
X83348809Y-61572619D01*
X83310714Y-61534523D01*
X83234523Y-61496428D01*
X83082142Y-61458333D01*
X82891666Y-61458333D01*
X82739285Y-61496428D01*
X82663095Y-61534523D01*
X82625000Y-61572619D01*
X82586904Y-61648809D01*
X87260952Y-68797142D02*
X87641904Y-68797142D01*
X86841904Y-68530476D02*
X87260952Y-68797142D01*
X86841904Y-69063809D01*
X86841904Y-69254285D02*
X86841904Y-69749523D01*
X87146666Y-69482857D01*
X87146666Y-69597142D01*
X87184761Y-69673333D01*
X87222857Y-69711428D01*
X87299047Y-69749523D01*
X87489523Y-69749523D01*
X87565714Y-69711428D01*
X87603809Y-69673333D01*
X87641904Y-69597142D01*
X87641904Y-69368571D01*
X87603809Y-69292380D01*
X87565714Y-69254285D01*
X86841904Y-70244761D02*
X86841904Y-70320952D01*
X86880000Y-70397142D01*
X86918095Y-70435238D01*
X86994285Y-70473333D01*
X87146666Y-70511428D01*
X87337142Y-70511428D01*
X87489523Y-70473333D01*
X87565714Y-70435238D01*
X87603809Y-70397142D01*
X87641904Y-70320952D01*
X87641904Y-70244761D01*
X87603809Y-70168571D01*
X87565714Y-70130476D01*
X87489523Y-70092380D01*
X87337142Y-70054285D01*
X87146666Y-70054285D01*
X86994285Y-70092380D01*
X86918095Y-70130476D01*
X86880000Y-70168571D01*
X86841904Y-70244761D01*
X87641904Y-71273333D02*
X87641904Y-70816190D01*
X87641904Y-71044761D02*
X86841904Y-71044761D01*
X86956190Y-70968571D01*
X87032380Y-70892380D01*
X87070476Y-70816190D01*
X88395238Y-73661904D02*
X88661904Y-73280952D01*
X88852380Y-73661904D02*
X88852380Y-72861904D01*
X88547619Y-72861904D01*
X88471428Y-72900000D01*
X88433333Y-72938095D01*
X88395238Y-73014285D01*
X88395238Y-73128571D01*
X88433333Y-73204761D01*
X88471428Y-73242857D01*
X88547619Y-73280952D01*
X88852380Y-73280952D01*
X88128571Y-72861904D02*
X87633333Y-72861904D01*
X87900000Y-73166666D01*
X87785714Y-73166666D01*
X87709523Y-73204761D01*
X87671428Y-73242857D01*
X87633333Y-73319047D01*
X87633333Y-73509523D01*
X87671428Y-73585714D01*
X87709523Y-73623809D01*
X87785714Y-73661904D01*
X88014285Y-73661904D01*
X88090476Y-73623809D01*
X88128571Y-73585714D01*
X87138095Y-72861904D02*
X87061904Y-72861904D01*
X86985714Y-72900000D01*
X86947619Y-72938095D01*
X86909523Y-73014285D01*
X86871428Y-73166666D01*
X86871428Y-73357142D01*
X86909523Y-73509523D01*
X86947619Y-73585714D01*
X86985714Y-73623809D01*
X87061904Y-73661904D01*
X87138095Y-73661904D01*
X87214285Y-73623809D01*
X87252380Y-73585714D01*
X87290476Y-73509523D01*
X87328571Y-73357142D01*
X87328571Y-73166666D01*
X87290476Y-73014285D01*
X87252380Y-72938095D01*
X87214285Y-72900000D01*
X87138095Y-72861904D01*
X86566666Y-72938095D02*
X86528571Y-72900000D01*
X86452380Y-72861904D01*
X86261904Y-72861904D01*
X86185714Y-72900000D01*
X86147619Y-72938095D01*
X86109523Y-73014285D01*
X86109523Y-73090476D01*
X86147619Y-73204761D01*
X86604761Y-73661904D01*
X86109523Y-73661904D01*
X65195238Y-73661904D02*
X65461904Y-73280952D01*
X65652380Y-73661904D02*
X65652380Y-72861904D01*
X65347619Y-72861904D01*
X65271428Y-72900000D01*
X65233333Y-72938095D01*
X65195238Y-73014285D01*
X65195238Y-73128571D01*
X65233333Y-73204761D01*
X65271428Y-73242857D01*
X65347619Y-73280952D01*
X65652380Y-73280952D01*
X64928571Y-72861904D02*
X64433333Y-72861904D01*
X64700000Y-73166666D01*
X64585714Y-73166666D01*
X64509523Y-73204761D01*
X64471428Y-73242857D01*
X64433333Y-73319047D01*
X64433333Y-73509523D01*
X64471428Y-73585714D01*
X64509523Y-73623809D01*
X64585714Y-73661904D01*
X64814285Y-73661904D01*
X64890476Y-73623809D01*
X64928571Y-73585714D01*
X63671428Y-73661904D02*
X64128571Y-73661904D01*
X63900000Y-73661904D02*
X63900000Y-72861904D01*
X63976190Y-72976190D01*
X64052380Y-73052380D01*
X64128571Y-73090476D01*
X63214285Y-73204761D02*
X63290476Y-73166666D01*
X63328571Y-73128571D01*
X63366666Y-73052380D01*
X63366666Y-73014285D01*
X63328571Y-72938095D01*
X63290476Y-72900000D01*
X63214285Y-72861904D01*
X63061904Y-72861904D01*
X62985714Y-72900000D01*
X62947619Y-72938095D01*
X62909523Y-73014285D01*
X62909523Y-73052380D01*
X62947619Y-73128571D01*
X62985714Y-73166666D01*
X63061904Y-73204761D01*
X63214285Y-73204761D01*
X63290476Y-73242857D01*
X63328571Y-73280952D01*
X63366666Y-73357142D01*
X63366666Y-73509523D01*
X63328571Y-73585714D01*
X63290476Y-73623809D01*
X63214285Y-73661904D01*
X63061904Y-73661904D01*
X62985714Y-73623809D01*
X62947619Y-73585714D01*
X62909523Y-73509523D01*
X62909523Y-73357142D01*
X62947619Y-73280952D01*
X62985714Y-73242857D01*
X63061904Y-73204761D01*
X80695238Y-73661904D02*
X80961904Y-73280952D01*
X81152380Y-73661904D02*
X81152380Y-72861904D01*
X80847619Y-72861904D01*
X80771428Y-72900000D01*
X80733333Y-72938095D01*
X80695238Y-73014285D01*
X80695238Y-73128571D01*
X80733333Y-73204761D01*
X80771428Y-73242857D01*
X80847619Y-73280952D01*
X81152380Y-73280952D01*
X80428571Y-72861904D02*
X79933333Y-72861904D01*
X80200000Y-73166666D01*
X80085714Y-73166666D01*
X80009523Y-73204761D01*
X79971428Y-73242857D01*
X79933333Y-73319047D01*
X79933333Y-73509523D01*
X79971428Y-73585714D01*
X80009523Y-73623809D01*
X80085714Y-73661904D01*
X80314285Y-73661904D01*
X80390476Y-73623809D01*
X80428571Y-73585714D01*
X79438095Y-72861904D02*
X79361904Y-72861904D01*
X79285714Y-72900000D01*
X79247619Y-72938095D01*
X79209523Y-73014285D01*
X79171428Y-73166666D01*
X79171428Y-73357142D01*
X79209523Y-73509523D01*
X79247619Y-73585714D01*
X79285714Y-73623809D01*
X79361904Y-73661904D01*
X79438095Y-73661904D01*
X79514285Y-73623809D01*
X79552380Y-73585714D01*
X79590476Y-73509523D01*
X79628571Y-73357142D01*
X79628571Y-73166666D01*
X79590476Y-73014285D01*
X79552380Y-72938095D01*
X79514285Y-72900000D01*
X79438095Y-72861904D01*
X78904761Y-72861904D02*
X78409523Y-72861904D01*
X78676190Y-73166666D01*
X78561904Y-73166666D01*
X78485714Y-73204761D01*
X78447619Y-73242857D01*
X78409523Y-73319047D01*
X78409523Y-73509523D01*
X78447619Y-73585714D01*
X78485714Y-73623809D01*
X78561904Y-73661904D01*
X78790476Y-73661904D01*
X78866666Y-73623809D01*
X78904761Y-73585714D01*
X59885714Y-62624761D02*
X59923809Y-62586666D01*
X59961904Y-62472380D01*
X59961904Y-62396190D01*
X59923809Y-62281904D01*
X59847619Y-62205714D01*
X59771428Y-62167619D01*
X59619047Y-62129523D01*
X59504761Y-62129523D01*
X59352380Y-62167619D01*
X59276190Y-62205714D01*
X59200000Y-62281904D01*
X59161904Y-62396190D01*
X59161904Y-62472380D01*
X59200000Y-62586666D01*
X59238095Y-62624761D01*
X59161904Y-62891428D02*
X59161904Y-63386666D01*
X59466666Y-63120000D01*
X59466666Y-63234285D01*
X59504761Y-63310476D01*
X59542857Y-63348571D01*
X59619047Y-63386666D01*
X59809523Y-63386666D01*
X59885714Y-63348571D01*
X59923809Y-63310476D01*
X59961904Y-63234285D01*
X59961904Y-63005714D01*
X59923809Y-62929523D01*
X59885714Y-62891428D01*
X59161904Y-63881904D02*
X59161904Y-63958095D01*
X59200000Y-64034285D01*
X59238095Y-64072380D01*
X59314285Y-64110476D01*
X59466666Y-64148571D01*
X59657142Y-64148571D01*
X59809523Y-64110476D01*
X59885714Y-64072380D01*
X59923809Y-64034285D01*
X59961904Y-63958095D01*
X59961904Y-63881904D01*
X59923809Y-63805714D01*
X59885714Y-63767619D01*
X59809523Y-63729523D01*
X59657142Y-63691428D01*
X59466666Y-63691428D01*
X59314285Y-63729523D01*
X59238095Y-63767619D01*
X59200000Y-63805714D01*
X59161904Y-63881904D01*
X59161904Y-64415238D02*
X59161904Y-64948571D01*
X59961904Y-64605714D01*
X76345238Y-52285714D02*
X76383333Y-52323809D01*
X76497619Y-52361904D01*
X76573809Y-52361904D01*
X76688095Y-52323809D01*
X76764285Y-52247619D01*
X76802380Y-52171428D01*
X76840476Y-52019047D01*
X76840476Y-51904761D01*
X76802380Y-51752380D01*
X76764285Y-51676190D01*
X76688095Y-51600000D01*
X76573809Y-51561904D01*
X76497619Y-51561904D01*
X76383333Y-51600000D01*
X76345238Y-51638095D01*
X76078571Y-51561904D02*
X75583333Y-51561904D01*
X75850000Y-51866666D01*
X75735714Y-51866666D01*
X75659523Y-51904761D01*
X75621428Y-51942857D01*
X75583333Y-52019047D01*
X75583333Y-52209523D01*
X75621428Y-52285714D01*
X75659523Y-52323809D01*
X75735714Y-52361904D01*
X75964285Y-52361904D01*
X76040476Y-52323809D01*
X76078571Y-52285714D01*
X74821428Y-52361904D02*
X75278571Y-52361904D01*
X75050000Y-52361904D02*
X75050000Y-51561904D01*
X75126190Y-51676190D01*
X75202380Y-51752380D01*
X75278571Y-51790476D01*
X74326190Y-51561904D02*
X74250000Y-51561904D01*
X74173809Y-51600000D01*
X74135714Y-51638095D01*
X74097619Y-51714285D01*
X74059523Y-51866666D01*
X74059523Y-52057142D01*
X74097619Y-52209523D01*
X74135714Y-52285714D01*
X74173809Y-52323809D01*
X74250000Y-52361904D01*
X74326190Y-52361904D01*
X74402380Y-52323809D01*
X74440476Y-52285714D01*
X74478571Y-52209523D01*
X74516666Y-52057142D01*
X74516666Y-51866666D01*
X74478571Y-51714285D01*
X74440476Y-51638095D01*
X74402380Y-51600000D01*
X74326190Y-51561904D01*
X89595238Y-56335714D02*
X89633333Y-56373809D01*
X89747619Y-56411904D01*
X89823809Y-56411904D01*
X89938095Y-56373809D01*
X90014285Y-56297619D01*
X90052380Y-56221428D01*
X90090476Y-56069047D01*
X90090476Y-55954761D01*
X90052380Y-55802380D01*
X90014285Y-55726190D01*
X89938095Y-55650000D01*
X89823809Y-55611904D01*
X89747619Y-55611904D01*
X89633333Y-55650000D01*
X89595238Y-55688095D01*
X89328571Y-55611904D02*
X88833333Y-55611904D01*
X89100000Y-55916666D01*
X88985714Y-55916666D01*
X88909523Y-55954761D01*
X88871428Y-55992857D01*
X88833333Y-56069047D01*
X88833333Y-56259523D01*
X88871428Y-56335714D01*
X88909523Y-56373809D01*
X88985714Y-56411904D01*
X89214285Y-56411904D01*
X89290476Y-56373809D01*
X89328571Y-56335714D01*
X88338095Y-55611904D02*
X88261904Y-55611904D01*
X88185714Y-55650000D01*
X88147619Y-55688095D01*
X88109523Y-55764285D01*
X88071428Y-55916666D01*
X88071428Y-56107142D01*
X88109523Y-56259523D01*
X88147619Y-56335714D01*
X88185714Y-56373809D01*
X88261904Y-56411904D01*
X88338095Y-56411904D01*
X88414285Y-56373809D01*
X88452380Y-56335714D01*
X88490476Y-56259523D01*
X88528571Y-56107142D01*
X88528571Y-55916666D01*
X88490476Y-55764285D01*
X88452380Y-55688095D01*
X88414285Y-55650000D01*
X88338095Y-55611904D01*
X87690476Y-56411904D02*
X87538095Y-56411904D01*
X87461904Y-56373809D01*
X87423809Y-56335714D01*
X87347619Y-56221428D01*
X87309523Y-56069047D01*
X87309523Y-55764285D01*
X87347619Y-55688095D01*
X87385714Y-55650000D01*
X87461904Y-55611904D01*
X87614285Y-55611904D01*
X87690476Y-55650000D01*
X87728571Y-55688095D01*
X87766666Y-55764285D01*
X87766666Y-55954761D01*
X87728571Y-56030952D01*
X87690476Y-56069047D01*
X87614285Y-56107142D01*
X87461904Y-56107142D01*
X87385714Y-56069047D01*
X87347619Y-56030952D01*
X87309523Y-55954761D01*
X83386904Y-53854761D02*
X83005952Y-53588095D01*
X83386904Y-53397619D02*
X82586904Y-53397619D01*
X82586904Y-53702380D01*
X82625000Y-53778571D01*
X82663095Y-53816666D01*
X82739285Y-53854761D01*
X82853571Y-53854761D01*
X82929761Y-53816666D01*
X82967857Y-53778571D01*
X83005952Y-53702380D01*
X83005952Y-53397619D01*
X82586904Y-54121428D02*
X82586904Y-54616666D01*
X82891666Y-54350000D01*
X82891666Y-54464285D01*
X82929761Y-54540476D01*
X82967857Y-54578571D01*
X83044047Y-54616666D01*
X83234523Y-54616666D01*
X83310714Y-54578571D01*
X83348809Y-54540476D01*
X83386904Y-54464285D01*
X83386904Y-54235714D01*
X83348809Y-54159523D01*
X83310714Y-54121428D01*
X83386904Y-55378571D02*
X83386904Y-54921428D01*
X83386904Y-55150000D02*
X82586904Y-55150000D01*
X82701190Y-55073809D01*
X82777380Y-54997619D01*
X82815476Y-54921428D01*
X82663095Y-55683333D02*
X82625000Y-55721428D01*
X82586904Y-55797619D01*
X82586904Y-55988095D01*
X82625000Y-56064285D01*
X82663095Y-56102380D01*
X82739285Y-56140476D01*
X82815476Y-56140476D01*
X82929761Y-56102380D01*
X83386904Y-55645238D01*
X83386904Y-56140476D01*
X64485714Y-62624761D02*
X64523809Y-62586666D01*
X64561904Y-62472380D01*
X64561904Y-62396190D01*
X64523809Y-62281904D01*
X64447619Y-62205714D01*
X64371428Y-62167619D01*
X64219047Y-62129523D01*
X64104761Y-62129523D01*
X63952380Y-62167619D01*
X63876190Y-62205714D01*
X63800000Y-62281904D01*
X63761904Y-62396190D01*
X63761904Y-62472380D01*
X63800000Y-62586666D01*
X63838095Y-62624761D01*
X63761904Y-62891428D02*
X63761904Y-63386666D01*
X64066666Y-63120000D01*
X64066666Y-63234285D01*
X64104761Y-63310476D01*
X64142857Y-63348571D01*
X64219047Y-63386666D01*
X64409523Y-63386666D01*
X64485714Y-63348571D01*
X64523809Y-63310476D01*
X64561904Y-63234285D01*
X64561904Y-63005714D01*
X64523809Y-62929523D01*
X64485714Y-62891428D01*
X63761904Y-63881904D02*
X63761904Y-63958095D01*
X63800000Y-64034285D01*
X63838095Y-64072380D01*
X63914285Y-64110476D01*
X64066666Y-64148571D01*
X64257142Y-64148571D01*
X64409523Y-64110476D01*
X64485714Y-64072380D01*
X64523809Y-64034285D01*
X64561904Y-63958095D01*
X64561904Y-63881904D01*
X64523809Y-63805714D01*
X64485714Y-63767619D01*
X64409523Y-63729523D01*
X64257142Y-63691428D01*
X64066666Y-63691428D01*
X63914285Y-63729523D01*
X63838095Y-63767619D01*
X63800000Y-63805714D01*
X63761904Y-63881904D01*
X63761904Y-64415238D02*
X63761904Y-64910476D01*
X64066666Y-64643809D01*
X64066666Y-64758095D01*
X64104761Y-64834285D01*
X64142857Y-64872380D01*
X64219047Y-64910476D01*
X64409523Y-64910476D01*
X64485714Y-64872380D01*
X64523809Y-64834285D01*
X64561904Y-64758095D01*
X64561904Y-64529523D01*
X64523809Y-64453333D01*
X64485714Y-64415238D01*
X85986904Y-59504761D02*
X85605952Y-59238095D01*
X85986904Y-59047619D02*
X85186904Y-59047619D01*
X85186904Y-59352380D01*
X85225000Y-59428571D01*
X85263095Y-59466666D01*
X85339285Y-59504761D01*
X85453571Y-59504761D01*
X85529761Y-59466666D01*
X85567857Y-59428571D01*
X85605952Y-59352380D01*
X85605952Y-59047619D01*
X85186904Y-59771428D02*
X85186904Y-60266666D01*
X85491666Y-60000000D01*
X85491666Y-60114285D01*
X85529761Y-60190476D01*
X85567857Y-60228571D01*
X85644047Y-60266666D01*
X85834523Y-60266666D01*
X85910714Y-60228571D01*
X85948809Y-60190476D01*
X85986904Y-60114285D01*
X85986904Y-59885714D01*
X85948809Y-59809523D01*
X85910714Y-59771428D01*
X85186904Y-60761904D02*
X85186904Y-60838095D01*
X85225000Y-60914285D01*
X85263095Y-60952380D01*
X85339285Y-60990476D01*
X85491666Y-61028571D01*
X85682142Y-61028571D01*
X85834523Y-60990476D01*
X85910714Y-60952380D01*
X85948809Y-60914285D01*
X85986904Y-60838095D01*
X85986904Y-60761904D01*
X85948809Y-60685714D01*
X85910714Y-60647619D01*
X85834523Y-60609523D01*
X85682142Y-60571428D01*
X85491666Y-60571428D01*
X85339285Y-60609523D01*
X85263095Y-60647619D01*
X85225000Y-60685714D01*
X85186904Y-60761904D01*
X85986904Y-61409523D02*
X85986904Y-61561904D01*
X85948809Y-61638095D01*
X85910714Y-61676190D01*
X85796428Y-61752380D01*
X85644047Y-61790476D01*
X85339285Y-61790476D01*
X85263095Y-61752380D01*
X85225000Y-61714285D01*
X85186904Y-61638095D01*
X85186904Y-61485714D01*
X85225000Y-61409523D01*
X85263095Y-61371428D01*
X85339285Y-61333333D01*
X85529761Y-61333333D01*
X85605952Y-61371428D01*
X85644047Y-61409523D01*
X85682142Y-61485714D01*
X85682142Y-61638095D01*
X85644047Y-61714285D01*
X85605952Y-61752380D01*
X85529761Y-61790476D01*
X76295238Y-50561904D02*
X76561904Y-50180952D01*
X76752380Y-50561904D02*
X76752380Y-49761904D01*
X76447619Y-49761904D01*
X76371428Y-49800000D01*
X76333333Y-49838095D01*
X76295238Y-49914285D01*
X76295238Y-50028571D01*
X76333333Y-50104761D01*
X76371428Y-50142857D01*
X76447619Y-50180952D01*
X76752380Y-50180952D01*
X76028571Y-49761904D02*
X75533333Y-49761904D01*
X75800000Y-50066666D01*
X75685714Y-50066666D01*
X75609523Y-50104761D01*
X75571428Y-50142857D01*
X75533333Y-50219047D01*
X75533333Y-50409523D01*
X75571428Y-50485714D01*
X75609523Y-50523809D01*
X75685714Y-50561904D01*
X75914285Y-50561904D01*
X75990476Y-50523809D01*
X76028571Y-50485714D01*
X75038095Y-49761904D02*
X74961904Y-49761904D01*
X74885714Y-49800000D01*
X74847619Y-49838095D01*
X74809523Y-49914285D01*
X74771428Y-50066666D01*
X74771428Y-50257142D01*
X74809523Y-50409523D01*
X74847619Y-50485714D01*
X74885714Y-50523809D01*
X74961904Y-50561904D01*
X75038095Y-50561904D01*
X75114285Y-50523809D01*
X75152380Y-50485714D01*
X75190476Y-50409523D01*
X75228571Y-50257142D01*
X75228571Y-50066666D01*
X75190476Y-49914285D01*
X75152380Y-49838095D01*
X75114285Y-49800000D01*
X75038095Y-49761904D01*
X74314285Y-50104761D02*
X74390476Y-50066666D01*
X74428571Y-50028571D01*
X74466666Y-49952380D01*
X74466666Y-49914285D01*
X74428571Y-49838095D01*
X74390476Y-49800000D01*
X74314285Y-49761904D01*
X74161904Y-49761904D01*
X74085714Y-49800000D01*
X74047619Y-49838095D01*
X74009523Y-49914285D01*
X74009523Y-49952380D01*
X74047619Y-50028571D01*
X74085714Y-50066666D01*
X74161904Y-50104761D01*
X74314285Y-50104761D01*
X74390476Y-50142857D01*
X74428571Y-50180952D01*
X74466666Y-50257142D01*
X74466666Y-50409523D01*
X74428571Y-50485714D01*
X74390476Y-50523809D01*
X74314285Y-50561904D01*
X74161904Y-50561904D01*
X74085714Y-50523809D01*
X74047619Y-50485714D01*
X74009523Y-50409523D01*
X74009523Y-50257142D01*
X74047619Y-50180952D01*
X74085714Y-50142857D01*
X74161904Y-50104761D01*
D13*
X75440000Y-45850000D02*
X75440000Y-48510000D01*
X74170000Y-45850000D02*
X72840000Y-45850000D01*
X88200000Y-45850000D02*
X88200000Y-48510000D01*
X75440000Y-48510000D02*
X88200000Y-48510000D01*
X75440000Y-45850000D02*
X88200000Y-45850000D01*
X72840000Y-45850000D02*
X72840000Y-47180000D01*
X93271267Y-69915000D02*
X92928733Y-69915000D01*
X93271267Y-70935000D02*
X92928733Y-70935000D01*
X68979000Y-45480000D02*
X64661000Y-45480000D01*
X64661000Y-49062000D02*
X68979000Y-49062000D01*
X65550000Y-44337600D02*
X65550000Y-45480000D01*
X68090000Y-44337600D02*
X65550000Y-44337600D01*
X68090000Y-45480000D02*
X68090000Y-44337600D01*
X81215000Y-50978733D02*
X81215000Y-51271267D01*
X82235000Y-50978733D02*
X82235000Y-51271267D01*
X83790000Y-50978733D02*
X83790000Y-51271267D01*
X84810000Y-50978733D02*
X84810000Y-51271267D01*
X154440000Y-67380000D02*
X145810000Y-67380000D01*
X154440000Y-69623805D02*
X145810000Y-69623805D01*
X154440000Y-67616190D02*
X145810000Y-67616190D01*
X154440000Y-68088570D02*
X145810000Y-68088570D01*
X145810000Y-68230000D02*
X145460000Y-68230000D01*
X145810000Y-68950000D02*
X145460000Y-68950000D01*
X154440000Y-68442855D02*
X145810000Y-68442855D01*
X154440000Y-68324760D02*
X145810000Y-68324760D01*
X154440000Y-67970475D02*
X145810000Y-67970475D01*
X154440000Y-69387615D02*
X145810000Y-69387615D01*
X154440000Y-69269520D02*
X145810000Y-69269520D01*
X143240000Y-67260000D02*
X143240000Y-68590000D01*
X154440000Y-69151425D02*
X145810000Y-69151425D01*
X145810000Y-70770000D02*
X145400000Y-70770000D01*
X154440000Y-69860000D02*
X145810000Y-69860000D01*
X154440000Y-68206665D02*
X145810000Y-68206665D01*
X144350000Y-67260000D02*
X143240000Y-67260000D01*
X154440000Y-68915235D02*
X145810000Y-68915235D01*
X154440000Y-67852380D02*
X145810000Y-67852380D01*
X154440000Y-67260000D02*
X154440000Y-72460000D01*
X154440000Y-69505710D02*
X145810000Y-69505710D01*
X154440000Y-68560950D02*
X145810000Y-68560950D01*
X154440000Y-72460000D02*
X145810000Y-72460000D01*
X154440000Y-67734285D02*
X145810000Y-67734285D01*
X154440000Y-68797140D02*
X145810000Y-68797140D01*
X154440000Y-69033330D02*
X145810000Y-69033330D01*
X154440000Y-68679045D02*
X145810000Y-68679045D01*
X145810000Y-71490000D02*
X145400000Y-71490000D01*
X145810000Y-67260000D02*
X145810000Y-72460000D01*
X154440000Y-67498095D02*
X145810000Y-67498095D01*
X154440000Y-69741900D02*
X145810000Y-69741900D01*
X154440000Y-67260000D02*
X145810000Y-67260000D01*
X154445000Y-55595000D02*
X145815000Y-55595000D01*
X154445000Y-58076900D02*
X145815000Y-58076900D01*
X154445000Y-55833095D02*
X145815000Y-55833095D01*
X145815000Y-55595000D02*
X145815000Y-60795000D01*
X145815000Y-59825000D02*
X145405000Y-59825000D01*
X154445000Y-57014045D02*
X145815000Y-57014045D01*
X154445000Y-57368330D02*
X145815000Y-57368330D01*
X154445000Y-57132140D02*
X145815000Y-57132140D01*
X154445000Y-56069285D02*
X145815000Y-56069285D01*
X154445000Y-60795000D02*
X145815000Y-60795000D01*
X154445000Y-56895950D02*
X145815000Y-56895950D01*
X154445000Y-57840710D02*
X145815000Y-57840710D01*
X154445000Y-55595000D02*
X154445000Y-60795000D01*
X154445000Y-56187380D02*
X145815000Y-56187380D01*
X154445000Y-57250235D02*
X145815000Y-57250235D01*
X144355000Y-55595000D02*
X143245000Y-55595000D01*
X154445000Y-56541665D02*
X145815000Y-56541665D01*
X154445000Y-58195000D02*
X145815000Y-58195000D01*
X145815000Y-59105000D02*
X145405000Y-59105000D01*
X154445000Y-57486425D02*
X145815000Y-57486425D01*
X143245000Y-55595000D02*
X143245000Y-56925000D01*
X154445000Y-57604520D02*
X145815000Y-57604520D01*
X154445000Y-57722615D02*
X145815000Y-57722615D01*
X154445000Y-56305475D02*
X145815000Y-56305475D01*
X154445000Y-56659760D02*
X145815000Y-56659760D01*
X154445000Y-56777855D02*
X145815000Y-56777855D01*
X145815000Y-57285000D02*
X145465000Y-57285000D01*
X145815000Y-56565000D02*
X145465000Y-56565000D01*
X154445000Y-56423570D02*
X145815000Y-56423570D01*
X154445000Y-55951190D02*
X145815000Y-55951190D01*
X154445000Y-57958805D02*
X145815000Y-57958805D01*
X154445000Y-55715000D02*
X145815000Y-55715000D01*
X77266233Y-65440000D02*
X77558767Y-65440000D01*
X77266233Y-66460000D02*
X77558767Y-66460000D01*
D10*
X66500000Y-57300000D02*
X66950000Y-57300000D01*
X66500000Y-57300000D02*
X66500000Y-57750000D01*
X73700000Y-57750000D02*
X75000000Y-57750000D01*
X73700000Y-57650000D02*
X73700000Y-57750000D01*
X73250000Y-57300000D02*
X73350000Y-57300000D01*
X73350000Y-57300000D02*
X73700000Y-57650000D01*
X66500000Y-64500000D02*
X66500000Y-64050000D01*
X73700000Y-64500000D02*
X73700000Y-64050000D01*
X73700000Y-64500000D02*
X73250000Y-64500000D01*
X66500000Y-64500000D02*
X66950000Y-64500000D01*
D13*
X88553733Y-62940000D02*
X88846267Y-62940000D01*
X88553733Y-63960000D02*
X88846267Y-63960000D01*
X84822500Y-55029724D02*
X84822500Y-54520276D01*
X83777500Y-55029724D02*
X83777500Y-54520276D01*
X83396267Y-65440000D02*
X83103733Y-65440000D01*
X83396267Y-66460000D02*
X83103733Y-66460000D01*
X87800000Y-59090000D02*
X90750000Y-59090000D01*
X89600000Y-62310000D02*
X87800000Y-62310000D01*
X93245276Y-59827500D02*
X93754724Y-59827500D01*
X93245276Y-60872500D02*
X93754724Y-60872500D01*
X99330000Y-57445000D02*
X99330000Y-70205000D01*
X99330000Y-70205000D02*
X96670000Y-70205000D01*
X98000000Y-54845000D02*
X96670000Y-54845000D01*
X99330000Y-57445000D02*
X96670000Y-57445000D01*
X96670000Y-57445000D02*
X96670000Y-70205000D01*
X96670000Y-54845000D02*
X96670000Y-56175000D01*
X93220276Y-58272500D02*
X93729724Y-58272500D01*
X93220276Y-57227500D02*
X93729724Y-57227500D01*
X71882776Y-73977500D02*
X72392224Y-73977500D01*
X71882776Y-75022500D02*
X72392224Y-75022500D01*
X76490000Y-60303733D02*
X76490000Y-60596267D01*
X77510000Y-60303733D02*
X77510000Y-60596267D01*
X60785000Y-69371267D02*
X60785000Y-69078733D01*
X59765000Y-69371267D02*
X59765000Y-69078733D01*
X82247500Y-60729724D02*
X82247500Y-60220276D01*
X81202500Y-60729724D02*
X81202500Y-60220276D01*
X73950000Y-67400000D02*
X86550000Y-67400000D01*
X86550000Y-72500000D02*
X73950000Y-72500000D01*
X86550000Y-67400000D02*
X86550000Y-72500000D01*
X87754724Y-75022500D02*
X87245276Y-75022500D01*
X87754724Y-73977500D02*
X87245276Y-73977500D01*
X64045276Y-73977500D02*
X64554724Y-73977500D01*
X64045276Y-75022500D02*
X64554724Y-75022500D01*
X80054724Y-73977500D02*
X79545276Y-73977500D01*
X80054724Y-75022500D02*
X79545276Y-75022500D01*
X60340000Y-63666267D02*
X60340000Y-63373733D01*
X61360000Y-63666267D02*
X61360000Y-63373733D01*
X72308767Y-52610000D02*
X72016233Y-52610000D01*
X72308767Y-51590000D02*
X72016233Y-51590000D01*
X88553733Y-57660000D02*
X88846267Y-57660000D01*
X88553733Y-56640000D02*
X88846267Y-56640000D01*
X82222500Y-55054724D02*
X82222500Y-54545276D01*
X81177500Y-55054724D02*
X81177500Y-54545276D01*
X63510000Y-63666267D02*
X63510000Y-63373733D01*
X62490000Y-63666267D02*
X62490000Y-63373733D01*
X84797500Y-60195276D02*
X84797500Y-60704724D01*
X83752500Y-60195276D02*
X83752500Y-60704724D01*
X72417224Y-49627500D02*
X71907776Y-49627500D01*
X72417224Y-50672500D02*
X71907776Y-50672500D01*
G36*
X128864257Y-47743877D02*
G01*
X128154974Y-47743877D01*
X128154974Y-49219953D01*
X127407351Y-49219953D01*
X127407351Y-47743877D01*
X126698068Y-47743877D01*
X126698068Y-47187953D01*
X128864257Y-47187953D01*
X128864257Y-47743877D01*
G37*
G36*
X116397682Y-47182372D02*
G01*
X116485547Y-47186595D01*
X116559233Y-47194243D01*
X116627976Y-47206095D01*
X116701012Y-47222934D01*
X116800109Y-47250957D01*
X116999368Y-47330219D01*
X117171280Y-47432413D01*
X117314306Y-47556063D01*
X117426908Y-47699696D01*
X117507546Y-47861836D01*
X117554682Y-48041009D01*
X117566290Y-48167845D01*
X117555504Y-48351385D01*
X117513896Y-48525581D01*
X117491705Y-48583566D01*
X117403820Y-48743434D01*
X117284592Y-48883172D01*
X117135651Y-49001632D01*
X116958632Y-49097672D01*
X116755165Y-49170144D01*
X116526883Y-49217906D01*
X116432047Y-49228659D01*
X116255479Y-49236083D01*
X116069869Y-49230551D01*
X115886768Y-49212947D01*
X115717728Y-49184153D01*
X115574300Y-49145054D01*
X115436943Y-49089576D01*
X115264884Y-48993010D01*
X115120162Y-48877162D01*
X115005238Y-48744518D01*
X114922576Y-48597563D01*
X114874636Y-48438783D01*
X114856359Y-48338141D01*
X115632436Y-48338141D01*
X115655215Y-48393134D01*
X115661762Y-48407370D01*
X115715984Y-48482483D01*
X115797117Y-48552928D01*
X115895880Y-48610329D01*
X115941520Y-48629252D01*
X115988272Y-48642229D01*
X116044328Y-48649884D01*
X116119359Y-48653521D01*
X116223035Y-48654443D01*
X116288776Y-48654269D01*
X116369543Y-48652532D01*
X116427943Y-48647554D01*
X116473827Y-48637682D01*
X116517046Y-48621262D01*
X116567453Y-48596640D01*
X116633464Y-48556888D01*
X116721536Y-48472748D01*
X116777680Y-48367668D01*
X116802889Y-48240147D01*
X116802810Y-48162105D01*
X116775316Y-48037778D01*
X116714686Y-47930844D01*
X116622819Y-47844203D01*
X116501617Y-47780753D01*
X116474516Y-47771782D01*
X116366987Y-47751147D01*
X116241833Y-47743893D01*
X116112580Y-47749625D01*
X115992753Y-47767946D01*
X115895880Y-47798462D01*
X115876087Y-47807855D01*
X115780164Y-47867673D01*
X115703396Y-47939471D01*
X115655215Y-48014771D01*
X115632436Y-48069764D01*
X114853535Y-48069764D01*
X114864621Y-47997877D01*
X114875850Y-47939490D01*
X114932159Y-47778704D01*
X115022395Y-47633160D01*
X115145074Y-47504235D01*
X115298707Y-47393305D01*
X115481808Y-47301746D01*
X115692891Y-47230935D01*
X115764042Y-47212942D01*
X115831014Y-47199296D01*
X115899036Y-47190175D01*
X115977426Y-47184662D01*
X116075507Y-47181840D01*
X116202597Y-47180793D01*
X116286403Y-47180791D01*
X116397682Y-47182372D01*
G37*
G36*
X118474219Y-49219953D02*
G01*
X117726597Y-49219953D01*
X117726597Y-47187953D01*
X118474219Y-47187953D01*
X118474219Y-49219953D01*
G37*
G36*
X132909087Y-49219953D02*
G01*
X132909087Y-48587349D01*
X132849907Y-48587349D01*
X132849404Y-48587350D01*
X132826751Y-48590869D01*
X132799426Y-48603189D01*
X132763686Y-48627359D01*
X132715788Y-48666427D01*
X132651989Y-48723442D01*
X132568547Y-48801452D01*
X132461718Y-48903505D01*
X132132710Y-49219662D01*
X131676443Y-49219807D01*
X131220177Y-49219953D01*
X131571009Y-48921142D01*
X131639352Y-48862637D01*
X131730019Y-48784012D01*
X131807186Y-48715893D01*
X131866897Y-48661828D01*
X131905193Y-48625362D01*
X131918118Y-48610042D01*
X131900907Y-48600227D01*
X131855937Y-48584820D01*
X131793514Y-48567674D01*
X131735755Y-48552138D01*
X131618343Y-48509464D01*
X131522635Y-48454566D01*
X131436990Y-48381363D01*
X131427752Y-48371995D01*
X131356795Y-48285304D01*
X131308516Y-48190935D01*
X131279150Y-48079243D01*
X131265342Y-47944574D01*
X132027276Y-47944574D01*
X132039786Y-48035468D01*
X132079448Y-48103601D01*
X132146420Y-48145009D01*
X132171044Y-48150127D01*
X132233860Y-48156402D01*
X132323614Y-48161297D01*
X132433649Y-48164478D01*
X132557306Y-48165613D01*
X132909087Y-48165613D01*
X132909087Y-47724707D01*
X132553830Y-47724707D01*
X132536030Y-47724719D01*
X132383160Y-47726340D01*
X132264034Y-47731912D01*
X132174533Y-47743153D01*
X132110539Y-47761782D01*
X132067935Y-47789519D01*
X132042601Y-47828084D01*
X132030421Y-47879196D01*
X132027276Y-47944574D01*
X131265342Y-47944574D01*
X131264933Y-47940584D01*
X131265801Y-47813103D01*
X131292921Y-47655555D01*
X131350832Y-47520535D01*
X131440211Y-47406989D01*
X131561738Y-47313864D01*
X131716091Y-47240103D01*
X131729912Y-47234993D01*
X131756337Y-47226244D01*
X131785052Y-47218972D01*
X131819663Y-47213010D01*
X131863773Y-47208189D01*
X131920988Y-47204343D01*
X131994912Y-47201302D01*
X132089151Y-47198898D01*
X132207310Y-47196964D01*
X132352993Y-47195332D01*
X132529805Y-47193832D01*
X132741351Y-47192298D01*
X133656710Y-47185902D01*
X133656710Y-49219953D01*
X132909087Y-49219953D01*
G37*
G36*
X119490219Y-47715123D02*
G01*
X119490431Y-47841620D01*
X119491442Y-47978093D01*
X119493428Y-48082151D01*
X119496541Y-48157169D01*
X119500936Y-48206519D01*
X119506765Y-48233575D01*
X119514182Y-48241711D01*
X119522733Y-48234666D01*
X119551445Y-48199884D01*
X119596858Y-48139360D01*
X119656295Y-48056830D01*
X119727080Y-47956028D01*
X119806537Y-47840687D01*
X119891990Y-47714541D01*
X120245835Y-47187953D01*
X121119653Y-47187953D01*
X121119653Y-49219953D01*
X120372031Y-49219953D01*
X120372031Y-48711953D01*
X120371512Y-48579325D01*
X120370013Y-48457486D01*
X120367678Y-48354043D01*
X120364655Y-48273983D01*
X120361089Y-48222291D01*
X120357127Y-48203953D01*
X120350620Y-48209871D01*
X120323836Y-48242516D01*
X120279310Y-48300471D01*
X120219779Y-48380064D01*
X120147979Y-48477622D01*
X120066648Y-48589474D01*
X119978523Y-48711947D01*
X119614823Y-49219942D01*
X119188295Y-49219947D01*
X118761766Y-49219953D01*
X118761766Y-47187953D01*
X119490219Y-47187953D01*
X119490219Y-47715123D01*
G37*
G36*
X131049616Y-49219953D02*
G01*
X128998446Y-49219953D01*
X128998446Y-48664028D01*
X130301993Y-48664028D01*
X130301993Y-48453160D01*
X128998446Y-48453160D01*
X128998446Y-47973915D01*
X130301993Y-47973915D01*
X130301993Y-47743877D01*
X128998446Y-47743877D01*
X128998446Y-47187953D01*
X131049616Y-47187953D01*
X131049616Y-49219953D01*
G37*
G36*
X122675479Y-46835677D02*
G01*
X122776353Y-46837228D01*
X122853190Y-46841782D01*
X122916664Y-46850659D01*
X122977449Y-46865185D01*
X123046219Y-46886681D01*
X123241699Y-46967187D01*
X123419574Y-47075947D01*
X123583350Y-47216707D01*
X123666356Y-47306194D01*
X123798818Y-47489037D01*
X123897526Y-47685579D01*
X123961838Y-47892292D01*
X123991112Y-48105649D01*
X123984706Y-48322119D01*
X123941979Y-48538177D01*
X123862288Y-48750292D01*
X123854017Y-48767581D01*
X123752235Y-48946007D01*
X123632309Y-49102788D01*
X123500369Y-49229804D01*
X123473076Y-49250741D01*
X123375511Y-49315089D01*
X123261976Y-49378451D01*
X123143995Y-49435144D01*
X123033090Y-49479484D01*
X122940785Y-49505790D01*
X122898308Y-49514057D01*
X122837077Y-49525998D01*
X122797012Y-49533842D01*
X122780191Y-49536798D01*
X122667929Y-49544402D01*
X122534785Y-49537701D01*
X122392575Y-49518229D01*
X122253114Y-49487517D01*
X122128218Y-49447099D01*
X122015523Y-49394753D01*
X121852143Y-49292199D01*
X121698687Y-49165919D01*
X121564624Y-49024017D01*
X121459427Y-48874602D01*
X121454542Y-48866143D01*
X121358908Y-48661763D01*
X121299193Y-48447683D01*
X121275508Y-48227753D01*
X121287965Y-48005821D01*
X121336675Y-47785736D01*
X121421749Y-47571349D01*
X121422574Y-47569671D01*
X121473483Y-47472845D01*
X121524153Y-47394202D01*
X121584711Y-47319784D01*
X121665284Y-47235630D01*
X121733491Y-47170730D01*
X121884164Y-47050942D01*
X122043264Y-46958584D01*
X122221917Y-46886681D01*
X122246716Y-46878554D01*
X122311594Y-46859562D01*
X122372093Y-46847093D01*
X122438889Y-46839825D01*
X122522656Y-46836434D01*
X122634068Y-46835598D01*
X122675479Y-46835677D01*
G37*
G36*
X113739276Y-47175652D02*
G01*
X113973754Y-47199274D01*
X114179831Y-47242675D01*
X114355596Y-47305381D01*
X114500114Y-47386970D01*
X114612450Y-47487020D01*
X114691669Y-47605110D01*
X114714791Y-47655682D01*
X114734123Y-47715425D01*
X114743213Y-47780963D01*
X114745359Y-47868481D01*
X114741851Y-47950494D01*
X114721145Y-48057202D01*
X114678247Y-48146710D01*
X114609035Y-48229946D01*
X114578262Y-48259029D01*
X114527905Y-48298167D01*
X114471554Y-48329636D01*
X114404588Y-48354415D01*
X114322388Y-48373482D01*
X114220334Y-48387817D01*
X114093808Y-48398398D01*
X113938190Y-48406204D01*
X113748861Y-48412214D01*
X113653577Y-48414817D01*
X113509570Y-48419573D01*
X113397324Y-48425023D01*
X113312615Y-48431877D01*
X113251214Y-48440844D01*
X113208895Y-48452634D01*
X113181432Y-48467955D01*
X113164597Y-48487519D01*
X113154164Y-48512033D01*
X113145977Y-48566762D01*
X113166594Y-48626031D01*
X113222322Y-48671135D01*
X113312751Y-48701776D01*
X113437473Y-48717660D01*
X113482512Y-48719403D01*
X113616412Y-48714032D01*
X113741851Y-48694237D01*
X113851500Y-48661988D01*
X113938029Y-48619257D01*
X113994111Y-48568012D01*
X113996989Y-48564024D01*
X114008855Y-48551603D01*
X114026622Y-48542666D01*
X114055695Y-48536754D01*
X114101479Y-48533411D01*
X114169379Y-48532177D01*
X114264801Y-48532596D01*
X114393151Y-48534209D01*
X114764861Y-48539424D01*
X114758622Y-48596934D01*
X114744720Y-48660245D01*
X114704734Y-48757079D01*
X114647439Y-48852570D01*
X114580414Y-48932448D01*
X114524596Y-48980401D01*
X114394427Y-49062679D01*
X114237787Y-49131784D01*
X114061769Y-49184840D01*
X113873465Y-49218974D01*
X113859089Y-49220641D01*
X113749706Y-49228638D01*
X113618904Y-49232045D01*
X113476628Y-49231175D01*
X113332821Y-49226341D01*
X113197428Y-49217857D01*
X113080390Y-49206036D01*
X112991653Y-49191191D01*
X112909065Y-49169699D01*
X112742382Y-49106296D01*
X112605591Y-49023742D01*
X112499988Y-48923446D01*
X112426872Y-48806819D01*
X112387540Y-48675270D01*
X112383290Y-48530210D01*
X112396946Y-48440208D01*
X112443963Y-48305122D01*
X112520520Y-48194346D01*
X112626257Y-48108338D01*
X112760814Y-48047560D01*
X112780258Y-48041516D01*
X112824050Y-48030013D01*
X112872790Y-48020920D01*
X112932043Y-48013771D01*
X113007373Y-48008101D01*
X113104346Y-48003443D01*
X113228526Y-47999333D01*
X113385479Y-47995305D01*
X113467495Y-47993301D01*
X113604785Y-47989438D01*
X113710804Y-47985429D01*
X113790260Y-47980884D01*
X113847861Y-47975410D01*
X113888315Y-47968618D01*
X113916329Y-47960115D01*
X113936611Y-47949511D01*
X113963324Y-47926599D01*
X113988483Y-47873722D01*
X113980086Y-47816538D01*
X113938056Y-47764503D01*
X113909066Y-47744512D01*
X113821593Y-47708251D01*
X113709026Y-47690878D01*
X113566748Y-47691485D01*
X113495377Y-47697514D01*
X113364471Y-47722254D01*
X113264912Y-47763667D01*
X113194103Y-47822666D01*
X113147487Y-47878066D01*
X112392489Y-47878066D01*
X112405032Y-47799628D01*
X112435847Y-47687709D01*
X112504231Y-47564948D01*
X112604458Y-47456715D01*
X112734111Y-47364140D01*
X112890777Y-47288352D01*
X113072041Y-47230480D01*
X113275489Y-47191653D01*
X113498705Y-47173001D01*
X113739276Y-47175652D01*
G37*
G36*
X125777917Y-49219953D02*
G01*
X125777917Y-48587349D01*
X125718737Y-48587349D01*
X125718234Y-48587350D01*
X125695581Y-48590869D01*
X125668256Y-48603189D01*
X125632516Y-48627359D01*
X125584618Y-48666427D01*
X125520819Y-48723442D01*
X125437377Y-48801452D01*
X125330548Y-48903505D01*
X125001540Y-49219662D01*
X124545274Y-49219807D01*
X124089007Y-49219953D01*
X124439840Y-48921142D01*
X124508182Y-48862637D01*
X124598849Y-48784012D01*
X124676016Y-48715893D01*
X124735727Y-48661828D01*
X124774023Y-48625362D01*
X124786948Y-48610042D01*
X124769737Y-48600227D01*
X124724767Y-48584820D01*
X124662344Y-48567674D01*
X124604585Y-48552138D01*
X124487173Y-48509464D01*
X124391465Y-48454566D01*
X124305821Y-48381363D01*
X124296582Y-48371995D01*
X124225626Y-48285304D01*
X124177346Y-48190935D01*
X124147980Y-48079243D01*
X124134172Y-47944574D01*
X124896106Y-47944574D01*
X124908617Y-48035468D01*
X124948279Y-48103601D01*
X125015250Y-48145009D01*
X125039874Y-48150127D01*
X125102690Y-48156402D01*
X125192444Y-48161297D01*
X125302479Y-48164478D01*
X125426137Y-48165613D01*
X125777917Y-48165613D01*
X125777917Y-47724707D01*
X125422660Y-47724707D01*
X125404860Y-47724719D01*
X125251991Y-47726340D01*
X125132864Y-47731912D01*
X125043363Y-47743153D01*
X124979370Y-47761782D01*
X124936765Y-47789519D01*
X124911431Y-47828084D01*
X124899251Y-47879196D01*
X124896106Y-47944574D01*
X124134172Y-47944574D01*
X124133763Y-47940584D01*
X124134631Y-47813103D01*
X124161751Y-47655555D01*
X124219662Y-47520535D01*
X124309041Y-47406989D01*
X124430568Y-47313864D01*
X124584921Y-47240103D01*
X124598742Y-47234993D01*
X124625167Y-47226244D01*
X124653883Y-47218972D01*
X124688493Y-47213010D01*
X124732603Y-47208189D01*
X124789818Y-47204343D01*
X124863742Y-47201302D01*
X124957981Y-47198898D01*
X125076140Y-47196964D01*
X125221823Y-47195332D01*
X125398635Y-47193832D01*
X125610182Y-47192298D01*
X126525540Y-47185902D01*
X126525540Y-49219953D01*
X125777917Y-49219953D01*
G37*
%LPC*%
D14*
X74170000Y-47180000D03*
D15*
X79250000Y-47180000D03*
X81790000Y-47180000D03*
X84330000Y-47180000D03*
X86870000Y-47180000D03*
D16*
X92225000Y-70425000D03*
X93975000Y-70425000D03*
D17*
X66820000Y-45950500D03*
X66820000Y-48554000D03*
D18*
X64470500Y-46310000D03*
X69169500Y-46310000D03*
X64470500Y-48194500D03*
X69169500Y-48194500D03*
D19*
X93262500Y-50237500D03*
X93262500Y-74637500D03*
D14*
X57762500Y-70057500D03*
D20*
X57762500Y-67517500D03*
X57762500Y-64977500D03*
X57762500Y-62437500D03*
X57762500Y-59897500D03*
X57762500Y-57357500D03*
X57762500Y-54817500D03*
D21*
X81725000Y-50262500D03*
X81725000Y-51987500D03*
X84300000Y-50262500D03*
X84300000Y-51987500D03*
D15*
X144350000Y-71130000D03*
D14*
X144350000Y-68590000D03*
X144355000Y-56925000D03*
D15*
X144355000Y-59465000D03*
D22*
X76550000Y-65950000D03*
X78275000Y-65950000D03*
D23*
X74300000Y-58100000D03*
X74300000Y-58900000D03*
X74300000Y-59700000D03*
X74300000Y-60500000D03*
X74300000Y-61300000D03*
X74300000Y-62100000D03*
X74300000Y-62900000D03*
X74300000Y-63700000D03*
D24*
X72900000Y-65100000D03*
X72100000Y-65100000D03*
X71300000Y-65100000D03*
X70500000Y-65100000D03*
X69700000Y-65100000D03*
X68900000Y-65100000D03*
X68100000Y-65100000D03*
X67300000Y-65100000D03*
D23*
X65900000Y-63700000D03*
X65900000Y-62900000D03*
X65900000Y-62100000D03*
X65900000Y-61300000D03*
X65900000Y-60500000D03*
X65900000Y-59700000D03*
X65900000Y-58900000D03*
X65900000Y-58100000D03*
D24*
X67300000Y-56700000D03*
X68100000Y-56700000D03*
X68900000Y-56700000D03*
X69700000Y-56700000D03*
X70500000Y-56700000D03*
X71300000Y-56700000D03*
X72100000Y-56700000D03*
X72900000Y-56700000D03*
D22*
X87837500Y-63450000D03*
X89562500Y-63450000D03*
D25*
X151500000Y-48500000D03*
D26*
X84300000Y-55687500D03*
X84300000Y-53862500D03*
D27*
X84112500Y-65950000D03*
X82387500Y-65950000D03*
D28*
X90050000Y-59720000D03*
X90050000Y-60370000D03*
X90050000Y-61030000D03*
X90050000Y-61680000D03*
X87350000Y-61680000D03*
X87350000Y-61030000D03*
X87350000Y-60370000D03*
X87350000Y-59720000D03*
D29*
X92587500Y-60350000D03*
X94412500Y-60350000D03*
D14*
X98000000Y-56175000D03*
D15*
X98000000Y-58715000D03*
X98000000Y-61255000D03*
X98000000Y-63795000D03*
X98000000Y-66335000D03*
X98000000Y-68875000D03*
D29*
X92562500Y-57750000D03*
X94387500Y-57750000D03*
X73050000Y-74500000D03*
X71225000Y-74500000D03*
D21*
X77000000Y-61312500D03*
X77000000Y-59587500D03*
D25*
X151500000Y-76500000D03*
D30*
X60275000Y-70087500D03*
X60275000Y-68362500D03*
D25*
X58500000Y-76500000D03*
D26*
X81725000Y-61387500D03*
X81725000Y-59562500D03*
D31*
X75600000Y-69950000D03*
X84100000Y-69950000D03*
D32*
X86587500Y-74500000D03*
X88412500Y-74500000D03*
D29*
X65212500Y-74500000D03*
X63387500Y-74500000D03*
D32*
X78887500Y-74500000D03*
X80712500Y-74500000D03*
D30*
X60850000Y-64382500D03*
X60850000Y-62657500D03*
D27*
X71300000Y-52100000D03*
X73025000Y-52100000D03*
D22*
X87837500Y-57150000D03*
X89562500Y-57150000D03*
D25*
X58500000Y-48500000D03*
D26*
X81700000Y-55712500D03*
X81700000Y-53887500D03*
D30*
X63000000Y-62657500D03*
X63000000Y-64382500D03*
D33*
X84275000Y-59537500D03*
X84275000Y-61362500D03*
D32*
X73075000Y-50150000D03*
X71250000Y-50150000D03*
M02*
