G04 #@! TF.GenerationSoftware,KiCad,Pcbnew,(6.0.10)*
G04 #@! TF.CreationDate,2023-01-05T11:17:19+01:00*
G04 #@! TF.ProjectId,PIC_Interface,5049435f-496e-4746-9572-666163652e6b,rev?*
G04 #@! TF.SameCoordinates,Original*
G04 #@! TF.FileFunction,Legend,Top*
G04 #@! TF.FilePolarity,Positive*
%FSLAX46Y46*%
G04 Gerber Fmt 4.6, Leading zero omitted, Abs format (unit mm)*
G04 Created by KiCad (PCBNEW (6.0.10)) date 2023-01-05 11:17:19*
%MOMM*%
%LPD*%
G01*
G04 APERTURE LIST*
G04 Aperture macros list*
%AMRoundRect*
0 Rectangle with rounded corners*
0 $1 Rounding radius*
0 $2 $3 $4 $5 $6 $7 $8 $9 X,Y pos of 4 corners*
0 Add a 4 corners polygon primitive as box body*
4,1,4,$2,$3,$4,$5,$6,$7,$8,$9,$2,$3,0*
0 Add four circle primitives for the rounded corners*
1,1,$1+$1,$2,$3*
1,1,$1+$1,$4,$5*
1,1,$1+$1,$6,$7*
1,1,$1+$1,$8,$9*
0 Add four rect primitives between the rounded corners*
20,1,$1+$1,$2,$3,$4,$5,0*
20,1,$1+$1,$4,$5,$6,$7,0*
20,1,$1+$1,$6,$7,$8,$9,0*
20,1,$1+$1,$8,$9,$2,$3,0*%
G04 Aperture macros list end*
%ADD10C,0.100000*%
%ADD11C,0.300000*%
%ADD12C,0.150000*%
%ADD13C,0.120000*%
%ADD14R,1.000000X1.000000*%
%ADD15RoundRect,0.237500X-0.250000X-0.237500X0.250000X-0.237500X0.250000X0.237500X-0.250000X0.237500X0*%
%ADD16RoundRect,0.237500X0.250000X0.237500X-0.250000X0.237500X-0.250000X-0.237500X0.250000X-0.237500X0*%
%ADD17RoundRect,0.237500X-0.287500X-0.237500X0.287500X-0.237500X0.287500X0.237500X-0.287500X0.237500X0*%
%ADD18R,0.300000X0.800000*%
%ADD19R,2.400000X3.050000*%
%ADD20O,1.700000X2.200000*%
%ADD21R,1.700000X2.200000*%
%ADD22RoundRect,0.237500X-0.237500X0.287500X-0.237500X-0.287500X0.237500X-0.287500X0.237500X0.287500X0*%
%ADD23RoundRect,0.070000X0.300000X-0.650000X0.300000X0.650000X-0.300000X0.650000X-0.300000X-0.650000X0*%
%ADD24RoundRect,0.237500X-0.237500X0.300000X-0.237500X-0.300000X0.237500X-0.300000X0.237500X0.300000X0*%
%ADD25RoundRect,0.450000X-0.900000X-0.450000X0.900000X-0.450000X0.900000X0.450000X-0.900000X0.450000X0*%
%ADD26R,1.750000X0.450000*%
%ADD27RoundRect,0.137500X0.137500X-0.662500X0.137500X0.662500X-0.137500X0.662500X-0.137500X-0.662500X0*%
%ADD28RoundRect,0.250001X0.624999X-0.462499X0.624999X0.462499X-0.624999X0.462499X-0.624999X-0.462499X0*%
G04 APERTURE END LIST*
D10*
X138047619Y-121557142D02*
X138657142Y-121557142D01*
X138352380Y-121861904D02*
X138352380Y-121252380D01*
X139419047Y-121061904D02*
X139038095Y-121061904D01*
X139000000Y-121442857D01*
X139038095Y-121404761D01*
X139114285Y-121366666D01*
X139304761Y-121366666D01*
X139380952Y-121404761D01*
X139419047Y-121442857D01*
X139457142Y-121519047D01*
X139457142Y-121709523D01*
X139419047Y-121785714D01*
X139380952Y-121823809D01*
X139304761Y-121861904D01*
X139114285Y-121861904D01*
X139038095Y-121823809D01*
X139000000Y-121785714D01*
X139685714Y-121061904D02*
X139952380Y-121861904D01*
X140219047Y-121061904D01*
X141095238Y-121861904D02*
X141095238Y-121061904D01*
X141285714Y-121061904D01*
X141400000Y-121100000D01*
X141476190Y-121176190D01*
X141514285Y-121252380D01*
X141552380Y-121404761D01*
X141552380Y-121519047D01*
X141514285Y-121671428D01*
X141476190Y-121747619D01*
X141400000Y-121823809D01*
X141285714Y-121861904D01*
X141095238Y-121861904D01*
X141895238Y-121557142D02*
X142504761Y-121557142D01*
X143495238Y-121861904D02*
X143495238Y-121061904D01*
X143685714Y-121061904D01*
X143800000Y-121100000D01*
X143876190Y-121176190D01*
X143914285Y-121252380D01*
X143952380Y-121404761D01*
X143952380Y-121519047D01*
X143914285Y-121671428D01*
X143876190Y-121747619D01*
X143800000Y-121823809D01*
X143685714Y-121861904D01*
X143495238Y-121861904D01*
X144295238Y-121557142D02*
X144904761Y-121557142D01*
X144600000Y-121861904D02*
X144600000Y-121252380D01*
X146314285Y-121100000D02*
X146238095Y-121061904D01*
X146123809Y-121061904D01*
X146009523Y-121100000D01*
X145933333Y-121176190D01*
X145895238Y-121252380D01*
X145857142Y-121404761D01*
X145857142Y-121519047D01*
X145895238Y-121671428D01*
X145933333Y-121747619D01*
X146009523Y-121823809D01*
X146123809Y-121861904D01*
X146200000Y-121861904D01*
X146314285Y-121823809D01*
X146352380Y-121785714D01*
X146352380Y-121519047D01*
X146200000Y-121519047D01*
X146695238Y-121861904D02*
X146695238Y-121061904D01*
X147152380Y-121861904D01*
X147152380Y-121061904D01*
X147533333Y-121861904D02*
X147533333Y-121061904D01*
X147723809Y-121061904D01*
X147838095Y-121100000D01*
X147914285Y-121176190D01*
X147952380Y-121252380D01*
X147990476Y-121404761D01*
X147990476Y-121519047D01*
X147952380Y-121671428D01*
X147914285Y-121747619D01*
X147838095Y-121823809D01*
X147723809Y-121861904D01*
X147533333Y-121861904D01*
D11*
X139000000Y-81735714D02*
X139071428Y-81807142D01*
X139000000Y-81878571D01*
X138928571Y-81807142D01*
X139000000Y-81735714D01*
X139000000Y-81878571D01*
D12*
X138638095Y-118052380D02*
X139209523Y-118052380D01*
X138923809Y-119052380D02*
X138923809Y-118052380D01*
X139447619Y-118052380D02*
X140114285Y-119052380D01*
X140114285Y-118052380D02*
X139447619Y-119052380D01*
X146433333Y-119052380D02*
X146100000Y-118576190D01*
X145861904Y-119052380D02*
X145861904Y-118052380D01*
X146242857Y-118052380D01*
X146338095Y-118100000D01*
X146385714Y-118147619D01*
X146433333Y-118242857D01*
X146433333Y-118385714D01*
X146385714Y-118480952D01*
X146338095Y-118528571D01*
X146242857Y-118576190D01*
X145861904Y-118576190D01*
X146766666Y-118052380D02*
X147433333Y-119052380D01*
X147433333Y-118052380D02*
X146766666Y-119052380D01*
D11*
X144400000Y-81735714D02*
X144471428Y-81807142D01*
X144400000Y-81878571D01*
X144328571Y-81807142D01*
X144400000Y-81735714D01*
X144400000Y-81878571D01*
X138000000Y-101735714D02*
X138071428Y-101807142D01*
X138000000Y-101878571D01*
X137928571Y-101807142D01*
X138000000Y-101735714D01*
X138000000Y-101878571D01*
D10*
X151861904Y-120852380D02*
X151061904Y-120852380D01*
X151061904Y-120661904D01*
X151100000Y-120547619D01*
X151176190Y-120471428D01*
X151252380Y-120433333D01*
X151404761Y-120395238D01*
X151519047Y-120395238D01*
X151671428Y-120433333D01*
X151747619Y-120471428D01*
X151823809Y-120547619D01*
X151861904Y-120661904D01*
X151861904Y-120852380D01*
X151328571Y-119709523D02*
X151861904Y-119709523D01*
X151023809Y-119900000D02*
X151595238Y-120090476D01*
X151595238Y-119595238D01*
X151061904Y-119138095D02*
X151061904Y-119061904D01*
X151100000Y-118985714D01*
X151138095Y-118947619D01*
X151214285Y-118909523D01*
X151366666Y-118871428D01*
X151557142Y-118871428D01*
X151709523Y-118909523D01*
X151785714Y-118947619D01*
X151823809Y-118985714D01*
X151861904Y-119061904D01*
X151861904Y-119138095D01*
X151823809Y-119214285D01*
X151785714Y-119252380D01*
X151709523Y-119290476D01*
X151557142Y-119328571D01*
X151366666Y-119328571D01*
X151214285Y-119290476D01*
X151138095Y-119252380D01*
X151100000Y-119214285D01*
X151061904Y-119138095D01*
X151861904Y-118109523D02*
X151861904Y-118566666D01*
X151861904Y-118338095D02*
X151061904Y-118338095D01*
X151176190Y-118414285D01*
X151252380Y-118490476D01*
X151290476Y-118566666D01*
X145104761Y-90161904D02*
X144838095Y-89780952D01*
X144647619Y-90161904D02*
X144647619Y-89361904D01*
X144952380Y-89361904D01*
X145028571Y-89400000D01*
X145066666Y-89438095D01*
X145104761Y-89514285D01*
X145104761Y-89628571D01*
X145066666Y-89704761D01*
X145028571Y-89742857D01*
X144952380Y-89780952D01*
X144647619Y-89780952D01*
X145790476Y-89628571D02*
X145790476Y-90161904D01*
X145600000Y-89323809D02*
X145409523Y-89895238D01*
X145904761Y-89895238D01*
X146628571Y-90161904D02*
X146171428Y-90161904D01*
X146400000Y-90161904D02*
X146400000Y-89361904D01*
X146323809Y-89476190D01*
X146247619Y-89552380D01*
X146171428Y-89590476D01*
X146933333Y-89438095D02*
X146971428Y-89400000D01*
X147047619Y-89361904D01*
X147238095Y-89361904D01*
X147314285Y-89400000D01*
X147352380Y-89438095D01*
X147390476Y-89514285D01*
X147390476Y-89590476D01*
X147352380Y-89704761D01*
X146895238Y-90161904D01*
X147390476Y-90161904D01*
X145104761Y-72961904D02*
X144838095Y-72580952D01*
X144647619Y-72961904D02*
X144647619Y-72161904D01*
X144952380Y-72161904D01*
X145028571Y-72200000D01*
X145066666Y-72238095D01*
X145104761Y-72314285D01*
X145104761Y-72428571D01*
X145066666Y-72504761D01*
X145028571Y-72542857D01*
X144952380Y-72580952D01*
X144647619Y-72580952D01*
X145790476Y-72428571D02*
X145790476Y-72961904D01*
X145600000Y-72123809D02*
X145409523Y-72695238D01*
X145904761Y-72695238D01*
X146361904Y-72161904D02*
X146438095Y-72161904D01*
X146514285Y-72200000D01*
X146552380Y-72238095D01*
X146590476Y-72314285D01*
X146628571Y-72466666D01*
X146628571Y-72657142D01*
X146590476Y-72809523D01*
X146552380Y-72885714D01*
X146514285Y-72923809D01*
X146438095Y-72961904D01*
X146361904Y-72961904D01*
X146285714Y-72923809D01*
X146247619Y-72885714D01*
X146209523Y-72809523D01*
X146171428Y-72657142D01*
X146171428Y-72466666D01*
X146209523Y-72314285D01*
X146247619Y-72238095D01*
X146285714Y-72200000D01*
X146361904Y-72161904D01*
X147085714Y-72504761D02*
X147009523Y-72466666D01*
X146971428Y-72428571D01*
X146933333Y-72352380D01*
X146933333Y-72314285D01*
X146971428Y-72238095D01*
X147009523Y-72200000D01*
X147085714Y-72161904D01*
X147238095Y-72161904D01*
X147314285Y-72200000D01*
X147352380Y-72238095D01*
X147390476Y-72314285D01*
X147390476Y-72352380D01*
X147352380Y-72428571D01*
X147314285Y-72466666D01*
X147238095Y-72504761D01*
X147085714Y-72504761D01*
X147009523Y-72542857D01*
X146971428Y-72580952D01*
X146933333Y-72657142D01*
X146933333Y-72809523D01*
X146971428Y-72885714D01*
X147009523Y-72923809D01*
X147085714Y-72961904D01*
X147238095Y-72961904D01*
X147314285Y-72923809D01*
X147352380Y-72885714D01*
X147390476Y-72809523D01*
X147390476Y-72657142D01*
X147352380Y-72580952D01*
X147314285Y-72542857D01*
X147238095Y-72504761D01*
X139904761Y-100011904D02*
X139638095Y-99630952D01*
X139447619Y-100011904D02*
X139447619Y-99211904D01*
X139752380Y-99211904D01*
X139828571Y-99250000D01*
X139866666Y-99288095D01*
X139904761Y-99364285D01*
X139904761Y-99478571D01*
X139866666Y-99554761D01*
X139828571Y-99592857D01*
X139752380Y-99630952D01*
X139447619Y-99630952D01*
X140590476Y-99478571D02*
X140590476Y-100011904D01*
X140400000Y-99173809D02*
X140209523Y-99745238D01*
X140704761Y-99745238D01*
X141161904Y-99211904D02*
X141238095Y-99211904D01*
X141314285Y-99250000D01*
X141352380Y-99288095D01*
X141390476Y-99364285D01*
X141428571Y-99516666D01*
X141428571Y-99707142D01*
X141390476Y-99859523D01*
X141352380Y-99935714D01*
X141314285Y-99973809D01*
X141238095Y-100011904D01*
X141161904Y-100011904D01*
X141085714Y-99973809D01*
X141047619Y-99935714D01*
X141009523Y-99859523D01*
X140971428Y-99707142D01*
X140971428Y-99516666D01*
X141009523Y-99364285D01*
X141047619Y-99288095D01*
X141085714Y-99250000D01*
X141161904Y-99211904D01*
X141695238Y-99211904D02*
X142190476Y-99211904D01*
X141923809Y-99516666D01*
X142038095Y-99516666D01*
X142114285Y-99554761D01*
X142152380Y-99592857D01*
X142190476Y-99669047D01*
X142190476Y-99859523D01*
X142152380Y-99935714D01*
X142114285Y-99973809D01*
X142038095Y-100011904D01*
X141809523Y-100011904D01*
X141733333Y-99973809D01*
X141695238Y-99935714D01*
X134847619Y-120361904D02*
X134847619Y-119561904D01*
X135038095Y-119561904D01*
X135152380Y-119600000D01*
X135228571Y-119676190D01*
X135266666Y-119752380D01*
X135304761Y-119904761D01*
X135304761Y-120019047D01*
X135266666Y-120171428D01*
X135228571Y-120247619D01*
X135152380Y-120323809D01*
X135038095Y-120361904D01*
X134847619Y-120361904D01*
X135990476Y-119828571D02*
X135990476Y-120361904D01*
X135800000Y-119523809D02*
X135609523Y-120095238D01*
X136104761Y-120095238D01*
X136561904Y-119561904D02*
X136638095Y-119561904D01*
X136714285Y-119600000D01*
X136752380Y-119638095D01*
X136790476Y-119714285D01*
X136828571Y-119866666D01*
X136828571Y-120057142D01*
X136790476Y-120209523D01*
X136752380Y-120285714D01*
X136714285Y-120323809D01*
X136638095Y-120361904D01*
X136561904Y-120361904D01*
X136485714Y-120323809D01*
X136447619Y-120285714D01*
X136409523Y-120209523D01*
X136371428Y-120057142D01*
X136371428Y-119866666D01*
X136409523Y-119714285D01*
X136447619Y-119638095D01*
X136485714Y-119600000D01*
X136561904Y-119561904D01*
X137095238Y-119561904D02*
X137590476Y-119561904D01*
X137323809Y-119866666D01*
X137438095Y-119866666D01*
X137514285Y-119904761D01*
X137552380Y-119942857D01*
X137590476Y-120019047D01*
X137590476Y-120209523D01*
X137552380Y-120285714D01*
X137514285Y-120323809D01*
X137438095Y-120361904D01*
X137209523Y-120361904D01*
X137133333Y-120323809D01*
X137095238Y-120285714D01*
X139854761Y-92791904D02*
X139588095Y-92410952D01*
X139397619Y-92791904D02*
X139397619Y-91991904D01*
X139702380Y-91991904D01*
X139778571Y-92030000D01*
X139816666Y-92068095D01*
X139854761Y-92144285D01*
X139854761Y-92258571D01*
X139816666Y-92334761D01*
X139778571Y-92372857D01*
X139702380Y-92410952D01*
X139397619Y-92410952D01*
X140540476Y-92258571D02*
X140540476Y-92791904D01*
X140350000Y-91953809D02*
X140159523Y-92525238D01*
X140654761Y-92525238D01*
X141378571Y-92791904D02*
X140921428Y-92791904D01*
X141150000Y-92791904D02*
X141150000Y-91991904D01*
X141073809Y-92106190D01*
X140997619Y-92182380D01*
X140921428Y-92220476D01*
X142140476Y-92791904D02*
X141683333Y-92791904D01*
X141911904Y-92791904D02*
X141911904Y-91991904D01*
X141835714Y-92106190D01*
X141759523Y-92182380D01*
X141683333Y-92220476D01*
X139854761Y-95161904D02*
X139588095Y-94780952D01*
X139397619Y-95161904D02*
X139397619Y-94361904D01*
X139702380Y-94361904D01*
X139778571Y-94400000D01*
X139816666Y-94438095D01*
X139854761Y-94514285D01*
X139854761Y-94628571D01*
X139816666Y-94704761D01*
X139778571Y-94742857D01*
X139702380Y-94780952D01*
X139397619Y-94780952D01*
X140540476Y-94628571D02*
X140540476Y-95161904D01*
X140350000Y-94323809D02*
X140159523Y-94895238D01*
X140654761Y-94895238D01*
X141111904Y-94361904D02*
X141188095Y-94361904D01*
X141264285Y-94400000D01*
X141302380Y-94438095D01*
X141340476Y-94514285D01*
X141378571Y-94666666D01*
X141378571Y-94857142D01*
X141340476Y-95009523D01*
X141302380Y-95085714D01*
X141264285Y-95123809D01*
X141188095Y-95161904D01*
X141111904Y-95161904D01*
X141035714Y-95123809D01*
X140997619Y-95085714D01*
X140959523Y-95009523D01*
X140921428Y-94857142D01*
X140921428Y-94666666D01*
X140959523Y-94514285D01*
X140997619Y-94438095D01*
X141035714Y-94400000D01*
X141111904Y-94361904D01*
X141645238Y-94361904D02*
X142178571Y-94361904D01*
X141835714Y-95161904D01*
X145104761Y-92791904D02*
X144838095Y-92410952D01*
X144647619Y-92791904D02*
X144647619Y-91991904D01*
X144952380Y-91991904D01*
X145028571Y-92030000D01*
X145066666Y-92068095D01*
X145104761Y-92144285D01*
X145104761Y-92258571D01*
X145066666Y-92334761D01*
X145028571Y-92372857D01*
X144952380Y-92410952D01*
X144647619Y-92410952D01*
X145790476Y-92258571D02*
X145790476Y-92791904D01*
X145600000Y-91953809D02*
X145409523Y-92525238D01*
X145904761Y-92525238D01*
X146361904Y-91991904D02*
X146438095Y-91991904D01*
X146514285Y-92030000D01*
X146552380Y-92068095D01*
X146590476Y-92144285D01*
X146628571Y-92296666D01*
X146628571Y-92487142D01*
X146590476Y-92639523D01*
X146552380Y-92715714D01*
X146514285Y-92753809D01*
X146438095Y-92791904D01*
X146361904Y-92791904D01*
X146285714Y-92753809D01*
X146247619Y-92715714D01*
X146209523Y-92639523D01*
X146171428Y-92487142D01*
X146171428Y-92296666D01*
X146209523Y-92144285D01*
X146247619Y-92068095D01*
X146285714Y-92030000D01*
X146361904Y-91991904D01*
X147314285Y-91991904D02*
X147161904Y-91991904D01*
X147085714Y-92030000D01*
X147047619Y-92068095D01*
X146971428Y-92182380D01*
X146933333Y-92334761D01*
X146933333Y-92639523D01*
X146971428Y-92715714D01*
X147009523Y-92753809D01*
X147085714Y-92791904D01*
X147238095Y-92791904D01*
X147314285Y-92753809D01*
X147352380Y-92715714D01*
X147390476Y-92639523D01*
X147390476Y-92449047D01*
X147352380Y-92372857D01*
X147314285Y-92334761D01*
X147238095Y-92296666D01*
X147085714Y-92296666D01*
X147009523Y-92334761D01*
X146971428Y-92372857D01*
X146933333Y-92449047D01*
X139904761Y-97561904D02*
X139638095Y-97180952D01*
X139447619Y-97561904D02*
X139447619Y-96761904D01*
X139752380Y-96761904D01*
X139828571Y-96800000D01*
X139866666Y-96838095D01*
X139904761Y-96914285D01*
X139904761Y-97028571D01*
X139866666Y-97104761D01*
X139828571Y-97142857D01*
X139752380Y-97180952D01*
X139447619Y-97180952D01*
X140590476Y-97028571D02*
X140590476Y-97561904D01*
X140400000Y-96723809D02*
X140209523Y-97295238D01*
X140704761Y-97295238D01*
X141428571Y-97561904D02*
X140971428Y-97561904D01*
X141200000Y-97561904D02*
X141200000Y-96761904D01*
X141123809Y-96876190D01*
X141047619Y-96952380D01*
X140971428Y-96990476D01*
X141923809Y-96761904D02*
X142000000Y-96761904D01*
X142076190Y-96800000D01*
X142114285Y-96838095D01*
X142152380Y-96914285D01*
X142190476Y-97066666D01*
X142190476Y-97257142D01*
X142152380Y-97409523D01*
X142114285Y-97485714D01*
X142076190Y-97523809D01*
X142000000Y-97561904D01*
X141923809Y-97561904D01*
X141847619Y-97523809D01*
X141809523Y-97485714D01*
X141771428Y-97409523D01*
X141733333Y-97257142D01*
X141733333Y-97066666D01*
X141771428Y-96914285D01*
X141809523Y-96838095D01*
X141847619Y-96800000D01*
X141923809Y-96761904D01*
X141771428Y-66961904D02*
X141771428Y-67533333D01*
X141733333Y-67647619D01*
X141657142Y-67723809D01*
X141542857Y-67761904D01*
X141466666Y-67761904D01*
X142495238Y-67228571D02*
X142495238Y-67761904D01*
X142304761Y-66923809D02*
X142114285Y-67495238D01*
X142609523Y-67495238D01*
X143066666Y-66961904D02*
X143142857Y-66961904D01*
X143219047Y-67000000D01*
X143257142Y-67038095D01*
X143295238Y-67114285D01*
X143333333Y-67266666D01*
X143333333Y-67457142D01*
X143295238Y-67609523D01*
X143257142Y-67685714D01*
X143219047Y-67723809D01*
X143142857Y-67761904D01*
X143066666Y-67761904D01*
X142990476Y-67723809D01*
X142952380Y-67685714D01*
X142914285Y-67609523D01*
X142876190Y-67457142D01*
X142876190Y-67266666D01*
X142914285Y-67114285D01*
X142952380Y-67038095D01*
X142990476Y-67000000D01*
X143066666Y-66961904D01*
X143638095Y-67038095D02*
X143676190Y-67000000D01*
X143752380Y-66961904D01*
X143942857Y-66961904D01*
X144019047Y-67000000D01*
X144057142Y-67038095D01*
X144095238Y-67114285D01*
X144095238Y-67190476D01*
X144057142Y-67304761D01*
X143600000Y-67761904D01*
X144095238Y-67761904D01*
X135304761Y-117661904D02*
X135038095Y-117280952D01*
X134847619Y-117661904D02*
X134847619Y-116861904D01*
X135152380Y-116861904D01*
X135228571Y-116900000D01*
X135266666Y-116938095D01*
X135304761Y-117014285D01*
X135304761Y-117128571D01*
X135266666Y-117204761D01*
X135228571Y-117242857D01*
X135152380Y-117280952D01*
X134847619Y-117280952D01*
X135990476Y-117128571D02*
X135990476Y-117661904D01*
X135800000Y-116823809D02*
X135609523Y-117395238D01*
X136104761Y-117395238D01*
X136561904Y-116861904D02*
X136638095Y-116861904D01*
X136714285Y-116900000D01*
X136752380Y-116938095D01*
X136790476Y-117014285D01*
X136828571Y-117166666D01*
X136828571Y-117357142D01*
X136790476Y-117509523D01*
X136752380Y-117585714D01*
X136714285Y-117623809D01*
X136638095Y-117661904D01*
X136561904Y-117661904D01*
X136485714Y-117623809D01*
X136447619Y-117585714D01*
X136409523Y-117509523D01*
X136371428Y-117357142D01*
X136371428Y-117166666D01*
X136409523Y-117014285D01*
X136447619Y-116938095D01*
X136485714Y-116900000D01*
X136561904Y-116861904D01*
X137552380Y-116861904D02*
X137171428Y-116861904D01*
X137133333Y-117242857D01*
X137171428Y-117204761D01*
X137247619Y-117166666D01*
X137438095Y-117166666D01*
X137514285Y-117204761D01*
X137552380Y-117242857D01*
X137590476Y-117319047D01*
X137590476Y-117509523D01*
X137552380Y-117585714D01*
X137514285Y-117623809D01*
X137438095Y-117661904D01*
X137247619Y-117661904D01*
X137171428Y-117623809D01*
X137133333Y-117585714D01*
X145104761Y-100011904D02*
X144838095Y-99630952D01*
X144647619Y-100011904D02*
X144647619Y-99211904D01*
X144952380Y-99211904D01*
X145028571Y-99250000D01*
X145066666Y-99288095D01*
X145104761Y-99364285D01*
X145104761Y-99478571D01*
X145066666Y-99554761D01*
X145028571Y-99592857D01*
X144952380Y-99630952D01*
X144647619Y-99630952D01*
X145790476Y-99478571D02*
X145790476Y-100011904D01*
X145600000Y-99173809D02*
X145409523Y-99745238D01*
X145904761Y-99745238D01*
X146361904Y-99211904D02*
X146438095Y-99211904D01*
X146514285Y-99250000D01*
X146552380Y-99288095D01*
X146590476Y-99364285D01*
X146628571Y-99516666D01*
X146628571Y-99707142D01*
X146590476Y-99859523D01*
X146552380Y-99935714D01*
X146514285Y-99973809D01*
X146438095Y-100011904D01*
X146361904Y-100011904D01*
X146285714Y-99973809D01*
X146247619Y-99935714D01*
X146209523Y-99859523D01*
X146171428Y-99707142D01*
X146171428Y-99516666D01*
X146209523Y-99364285D01*
X146247619Y-99288095D01*
X146285714Y-99250000D01*
X146361904Y-99211904D01*
X146933333Y-99288095D02*
X146971428Y-99250000D01*
X147047619Y-99211904D01*
X147238095Y-99211904D01*
X147314285Y-99250000D01*
X147352380Y-99288095D01*
X147390476Y-99364285D01*
X147390476Y-99440476D01*
X147352380Y-99554761D01*
X146895238Y-100011904D01*
X147390476Y-100011904D01*
X139792857Y-115678571D02*
X139792857Y-115945238D01*
X140211904Y-115945238D02*
X139411904Y-115945238D01*
X139411904Y-115564285D01*
X139792857Y-114992857D02*
X139830952Y-114878571D01*
X139869047Y-114840476D01*
X139945238Y-114802380D01*
X140059523Y-114802380D01*
X140135714Y-114840476D01*
X140173809Y-114878571D01*
X140211904Y-114954761D01*
X140211904Y-115259523D01*
X139411904Y-115259523D01*
X139411904Y-114992857D01*
X139450000Y-114916666D01*
X139488095Y-114878571D01*
X139564285Y-114840476D01*
X139640476Y-114840476D01*
X139716666Y-114878571D01*
X139754761Y-114916666D01*
X139792857Y-114992857D01*
X139792857Y-115259523D01*
X139678571Y-114116666D02*
X140211904Y-114116666D01*
X139373809Y-114307142D02*
X139945238Y-114497619D01*
X139945238Y-114002380D01*
X139411904Y-113545238D02*
X139411904Y-113469047D01*
X139450000Y-113392857D01*
X139488095Y-113354761D01*
X139564285Y-113316666D01*
X139716666Y-113278571D01*
X139907142Y-113278571D01*
X140059523Y-113316666D01*
X140135714Y-113354761D01*
X140173809Y-113392857D01*
X140211904Y-113469047D01*
X140211904Y-113545238D01*
X140173809Y-113621428D01*
X140135714Y-113659523D01*
X140059523Y-113697619D01*
X139907142Y-113735714D01*
X139716666Y-113735714D01*
X139564285Y-113697619D01*
X139488095Y-113659523D01*
X139450000Y-113621428D01*
X139411904Y-113545238D01*
X140211904Y-112516666D02*
X140211904Y-112973809D01*
X140211904Y-112745238D02*
X139411904Y-112745238D01*
X139526190Y-112821428D01*
X139602380Y-112897619D01*
X139640476Y-112973809D01*
X145161904Y-87838095D02*
X145085714Y-87800000D01*
X145009523Y-87723809D01*
X144895238Y-87609523D01*
X144819047Y-87571428D01*
X144742857Y-87571428D01*
X144780952Y-87761904D02*
X144704761Y-87723809D01*
X144628571Y-87647619D01*
X144590476Y-87495238D01*
X144590476Y-87228571D01*
X144628571Y-87076190D01*
X144704761Y-87000000D01*
X144780952Y-86961904D01*
X144933333Y-86961904D01*
X145009523Y-87000000D01*
X145085714Y-87076190D01*
X145123809Y-87228571D01*
X145123809Y-87495238D01*
X145085714Y-87647619D01*
X145009523Y-87723809D01*
X144933333Y-87761904D01*
X144780952Y-87761904D01*
X145809523Y-87228571D02*
X145809523Y-87761904D01*
X145619047Y-86923809D02*
X145428571Y-87495238D01*
X145923809Y-87495238D01*
X146380952Y-86961904D02*
X146457142Y-86961904D01*
X146533333Y-87000000D01*
X146571428Y-87038095D01*
X146609523Y-87114285D01*
X146647619Y-87266666D01*
X146647619Y-87457142D01*
X146609523Y-87609523D01*
X146571428Y-87685714D01*
X146533333Y-87723809D01*
X146457142Y-87761904D01*
X146380952Y-87761904D01*
X146304761Y-87723809D01*
X146266666Y-87685714D01*
X146228571Y-87609523D01*
X146190476Y-87457142D01*
X146190476Y-87266666D01*
X146228571Y-87114285D01*
X146266666Y-87038095D01*
X146304761Y-87000000D01*
X146380952Y-86961904D01*
X147409523Y-87761904D02*
X146952380Y-87761904D01*
X147180952Y-87761904D02*
X147180952Y-86961904D01*
X147104761Y-87076190D01*
X147028571Y-87152380D01*
X146952380Y-87190476D01*
X139854761Y-72961904D02*
X139588095Y-72580952D01*
X139397619Y-72961904D02*
X139397619Y-72161904D01*
X139702380Y-72161904D01*
X139778571Y-72200000D01*
X139816666Y-72238095D01*
X139854761Y-72314285D01*
X139854761Y-72428571D01*
X139816666Y-72504761D01*
X139778571Y-72542857D01*
X139702380Y-72580952D01*
X139397619Y-72580952D01*
X140540476Y-72428571D02*
X140540476Y-72961904D01*
X140350000Y-72123809D02*
X140159523Y-72695238D01*
X140654761Y-72695238D01*
X141111904Y-72161904D02*
X141188095Y-72161904D01*
X141264285Y-72200000D01*
X141302380Y-72238095D01*
X141340476Y-72314285D01*
X141378571Y-72466666D01*
X141378571Y-72657142D01*
X141340476Y-72809523D01*
X141302380Y-72885714D01*
X141264285Y-72923809D01*
X141188095Y-72961904D01*
X141111904Y-72961904D01*
X141035714Y-72923809D01*
X140997619Y-72885714D01*
X140959523Y-72809523D01*
X140921428Y-72657142D01*
X140921428Y-72466666D01*
X140959523Y-72314285D01*
X140997619Y-72238095D01*
X141035714Y-72200000D01*
X141111904Y-72161904D01*
X141759523Y-72961904D02*
X141911904Y-72961904D01*
X141988095Y-72923809D01*
X142026190Y-72885714D01*
X142102380Y-72771428D01*
X142140476Y-72619047D01*
X142140476Y-72314285D01*
X142102380Y-72238095D01*
X142064285Y-72200000D01*
X141988095Y-72161904D01*
X141835714Y-72161904D01*
X141759523Y-72200000D01*
X141721428Y-72238095D01*
X141683333Y-72314285D01*
X141683333Y-72504761D01*
X141721428Y-72580952D01*
X141759523Y-72619047D01*
X141835714Y-72657142D01*
X141988095Y-72657142D01*
X142064285Y-72619047D01*
X142102380Y-72580952D01*
X142140476Y-72504761D01*
X144135714Y-115145238D02*
X144173809Y-115183333D01*
X144211904Y-115297619D01*
X144211904Y-115373809D01*
X144173809Y-115488095D01*
X144097619Y-115564285D01*
X144021428Y-115602380D01*
X143869047Y-115640476D01*
X143754761Y-115640476D01*
X143602380Y-115602380D01*
X143526190Y-115564285D01*
X143450000Y-115488095D01*
X143411904Y-115373809D01*
X143411904Y-115297619D01*
X143450000Y-115183333D01*
X143488095Y-115145238D01*
X143678571Y-114459523D02*
X144211904Y-114459523D01*
X143373809Y-114650000D02*
X143945238Y-114840476D01*
X143945238Y-114345238D01*
X143411904Y-113888095D02*
X143411904Y-113811904D01*
X143450000Y-113735714D01*
X143488095Y-113697619D01*
X143564285Y-113659523D01*
X143716666Y-113621428D01*
X143907142Y-113621428D01*
X144059523Y-113659523D01*
X144135714Y-113697619D01*
X144173809Y-113735714D01*
X144211904Y-113811904D01*
X144211904Y-113888095D01*
X144173809Y-113964285D01*
X144135714Y-114002380D01*
X144059523Y-114040476D01*
X143907142Y-114078571D01*
X143716666Y-114078571D01*
X143564285Y-114040476D01*
X143488095Y-114002380D01*
X143450000Y-113964285D01*
X143411904Y-113888095D01*
X143488095Y-113316666D02*
X143450000Y-113278571D01*
X143411904Y-113202380D01*
X143411904Y-113011904D01*
X143450000Y-112935714D01*
X143488095Y-112897619D01*
X143564285Y-112859523D01*
X143640476Y-112859523D01*
X143754761Y-112897619D01*
X144211904Y-113354761D01*
X144211904Y-112859523D01*
X148185714Y-115145238D02*
X148223809Y-115183333D01*
X148261904Y-115297619D01*
X148261904Y-115373809D01*
X148223809Y-115488095D01*
X148147619Y-115564285D01*
X148071428Y-115602380D01*
X147919047Y-115640476D01*
X147804761Y-115640476D01*
X147652380Y-115602380D01*
X147576190Y-115564285D01*
X147500000Y-115488095D01*
X147461904Y-115373809D01*
X147461904Y-115297619D01*
X147500000Y-115183333D01*
X147538095Y-115145238D01*
X147728571Y-114459523D02*
X148261904Y-114459523D01*
X147423809Y-114650000D02*
X147995238Y-114840476D01*
X147995238Y-114345238D01*
X147461904Y-113888095D02*
X147461904Y-113811904D01*
X147500000Y-113735714D01*
X147538095Y-113697619D01*
X147614285Y-113659523D01*
X147766666Y-113621428D01*
X147957142Y-113621428D01*
X148109523Y-113659523D01*
X148185714Y-113697619D01*
X148223809Y-113735714D01*
X148261904Y-113811904D01*
X148261904Y-113888095D01*
X148223809Y-113964285D01*
X148185714Y-114002380D01*
X148109523Y-114040476D01*
X147957142Y-114078571D01*
X147766666Y-114078571D01*
X147614285Y-114040476D01*
X147538095Y-114002380D01*
X147500000Y-113964285D01*
X147461904Y-113888095D01*
X148261904Y-112859523D02*
X148261904Y-113316666D01*
X148261904Y-113088095D02*
X147461904Y-113088095D01*
X147576190Y-113164285D01*
X147652380Y-113240476D01*
X147690476Y-113316666D01*
X139854761Y-90161904D02*
X139588095Y-89780952D01*
X139397619Y-90161904D02*
X139397619Y-89361904D01*
X139702380Y-89361904D01*
X139778571Y-89400000D01*
X139816666Y-89438095D01*
X139854761Y-89514285D01*
X139854761Y-89628571D01*
X139816666Y-89704761D01*
X139778571Y-89742857D01*
X139702380Y-89780952D01*
X139397619Y-89780952D01*
X140540476Y-89628571D02*
X140540476Y-90161904D01*
X140350000Y-89323809D02*
X140159523Y-89895238D01*
X140654761Y-89895238D01*
X141378571Y-90161904D02*
X140921428Y-90161904D01*
X141150000Y-90161904D02*
X141150000Y-89361904D01*
X141073809Y-89476190D01*
X140997619Y-89552380D01*
X140921428Y-89590476D01*
X141645238Y-89361904D02*
X142140476Y-89361904D01*
X141873809Y-89666666D01*
X141988095Y-89666666D01*
X142064285Y-89704761D01*
X142102380Y-89742857D01*
X142140476Y-89819047D01*
X142140476Y-90009523D01*
X142102380Y-90085714D01*
X142064285Y-90123809D01*
X141988095Y-90161904D01*
X141759523Y-90161904D01*
X141683333Y-90123809D01*
X141645238Y-90085714D01*
X145104761Y-95161904D02*
X144838095Y-94780952D01*
X144647619Y-95161904D02*
X144647619Y-94361904D01*
X144952380Y-94361904D01*
X145028571Y-94400000D01*
X145066666Y-94438095D01*
X145104761Y-94514285D01*
X145104761Y-94628571D01*
X145066666Y-94704761D01*
X145028571Y-94742857D01*
X144952380Y-94780952D01*
X144647619Y-94780952D01*
X145790476Y-94628571D02*
X145790476Y-95161904D01*
X145600000Y-94323809D02*
X145409523Y-94895238D01*
X145904761Y-94895238D01*
X146361904Y-94361904D02*
X146438095Y-94361904D01*
X146514285Y-94400000D01*
X146552380Y-94438095D01*
X146590476Y-94514285D01*
X146628571Y-94666666D01*
X146628571Y-94857142D01*
X146590476Y-95009523D01*
X146552380Y-95085714D01*
X146514285Y-95123809D01*
X146438095Y-95161904D01*
X146361904Y-95161904D01*
X146285714Y-95123809D01*
X146247619Y-95085714D01*
X146209523Y-95009523D01*
X146171428Y-94857142D01*
X146171428Y-94666666D01*
X146209523Y-94514285D01*
X146247619Y-94438095D01*
X146285714Y-94400000D01*
X146361904Y-94361904D01*
X147390476Y-95161904D02*
X146933333Y-95161904D01*
X147161904Y-95161904D02*
X147161904Y-94361904D01*
X147085714Y-94476190D01*
X147009523Y-94552380D01*
X146933333Y-94590476D01*
X142047619Y-120361904D02*
X142047619Y-119561904D01*
X142238095Y-119561904D01*
X142352380Y-119600000D01*
X142428571Y-119676190D01*
X142466666Y-119752380D01*
X142504761Y-119904761D01*
X142504761Y-120019047D01*
X142466666Y-120171428D01*
X142428571Y-120247619D01*
X142352380Y-120323809D01*
X142238095Y-120361904D01*
X142047619Y-120361904D01*
X143190476Y-119828571D02*
X143190476Y-120361904D01*
X143000000Y-119523809D02*
X142809523Y-120095238D01*
X143304761Y-120095238D01*
X143761904Y-119561904D02*
X143838095Y-119561904D01*
X143914285Y-119600000D01*
X143952380Y-119638095D01*
X143990476Y-119714285D01*
X144028571Y-119866666D01*
X144028571Y-120057142D01*
X143990476Y-120209523D01*
X143952380Y-120285714D01*
X143914285Y-120323809D01*
X143838095Y-120361904D01*
X143761904Y-120361904D01*
X143685714Y-120323809D01*
X143647619Y-120285714D01*
X143609523Y-120209523D01*
X143571428Y-120057142D01*
X143571428Y-119866666D01*
X143609523Y-119714285D01*
X143647619Y-119638095D01*
X143685714Y-119600000D01*
X143761904Y-119561904D01*
X144333333Y-119638095D02*
X144371428Y-119600000D01*
X144447619Y-119561904D01*
X144638095Y-119561904D01*
X144714285Y-119600000D01*
X144752380Y-119638095D01*
X144790476Y-119714285D01*
X144790476Y-119790476D01*
X144752380Y-119904761D01*
X144295238Y-120361904D01*
X144790476Y-120361904D01*
X142504761Y-117661904D02*
X142238095Y-117280952D01*
X142047619Y-117661904D02*
X142047619Y-116861904D01*
X142352380Y-116861904D01*
X142428571Y-116900000D01*
X142466666Y-116938095D01*
X142504761Y-117014285D01*
X142504761Y-117128571D01*
X142466666Y-117204761D01*
X142428571Y-117242857D01*
X142352380Y-117280952D01*
X142047619Y-117280952D01*
X143190476Y-117128571D02*
X143190476Y-117661904D01*
X143000000Y-116823809D02*
X142809523Y-117395238D01*
X143304761Y-117395238D01*
X143761904Y-116861904D02*
X143838095Y-116861904D01*
X143914285Y-116900000D01*
X143952380Y-116938095D01*
X143990476Y-117014285D01*
X144028571Y-117166666D01*
X144028571Y-117357142D01*
X143990476Y-117509523D01*
X143952380Y-117585714D01*
X143914285Y-117623809D01*
X143838095Y-117661904D01*
X143761904Y-117661904D01*
X143685714Y-117623809D01*
X143647619Y-117585714D01*
X143609523Y-117509523D01*
X143571428Y-117357142D01*
X143571428Y-117166666D01*
X143609523Y-117014285D01*
X143647619Y-116938095D01*
X143685714Y-116900000D01*
X143761904Y-116861904D01*
X144714285Y-117128571D02*
X144714285Y-117661904D01*
X144523809Y-116823809D02*
X144333333Y-117395238D01*
X144828571Y-117395238D01*
X141628571Y-111511904D02*
X141628571Y-112159523D01*
X141666666Y-112235714D01*
X141704761Y-112273809D01*
X141780952Y-112311904D01*
X141933333Y-112311904D01*
X142009523Y-112273809D01*
X142047619Y-112235714D01*
X142085714Y-112159523D01*
X142085714Y-111511904D01*
X142809523Y-111778571D02*
X142809523Y-112311904D01*
X142619047Y-111473809D02*
X142428571Y-112045238D01*
X142923809Y-112045238D01*
X143380952Y-111511904D02*
X143457142Y-111511904D01*
X143533333Y-111550000D01*
X143571428Y-111588095D01*
X143609523Y-111664285D01*
X143647619Y-111816666D01*
X143647619Y-112007142D01*
X143609523Y-112159523D01*
X143571428Y-112235714D01*
X143533333Y-112273809D01*
X143457142Y-112311904D01*
X143380952Y-112311904D01*
X143304761Y-112273809D01*
X143266666Y-112235714D01*
X143228571Y-112159523D01*
X143190476Y-112007142D01*
X143190476Y-111816666D01*
X143228571Y-111664285D01*
X143266666Y-111588095D01*
X143304761Y-111550000D01*
X143380952Y-111511904D01*
X143952380Y-111588095D02*
X143990476Y-111550000D01*
X144066666Y-111511904D01*
X144257142Y-111511904D01*
X144333333Y-111550000D01*
X144371428Y-111588095D01*
X144409523Y-111664285D01*
X144409523Y-111740476D01*
X144371428Y-111854761D01*
X143914285Y-112311904D01*
X144409523Y-112311904D01*
X139378571Y-82011904D02*
X139378571Y-82659523D01*
X139416666Y-82735714D01*
X139454761Y-82773809D01*
X139530952Y-82811904D01*
X139683333Y-82811904D01*
X139759523Y-82773809D01*
X139797619Y-82735714D01*
X139835714Y-82659523D01*
X139835714Y-82011904D01*
X140559523Y-82278571D02*
X140559523Y-82811904D01*
X140369047Y-81973809D02*
X140178571Y-82545238D01*
X140673809Y-82545238D01*
X141130952Y-82011904D02*
X141207142Y-82011904D01*
X141283333Y-82050000D01*
X141321428Y-82088095D01*
X141359523Y-82164285D01*
X141397619Y-82316666D01*
X141397619Y-82507142D01*
X141359523Y-82659523D01*
X141321428Y-82735714D01*
X141283333Y-82773809D01*
X141207142Y-82811904D01*
X141130952Y-82811904D01*
X141054761Y-82773809D01*
X141016666Y-82735714D01*
X140978571Y-82659523D01*
X140940476Y-82507142D01*
X140940476Y-82316666D01*
X140978571Y-82164285D01*
X141016666Y-82088095D01*
X141054761Y-82050000D01*
X141130952Y-82011904D01*
X142083333Y-82278571D02*
X142083333Y-82811904D01*
X141892857Y-81973809D02*
X141702380Y-82545238D01*
X142197619Y-82545238D01*
X139911904Y-87838095D02*
X139835714Y-87800000D01*
X139759523Y-87723809D01*
X139645238Y-87609523D01*
X139569047Y-87571428D01*
X139492857Y-87571428D01*
X139530952Y-87761904D02*
X139454761Y-87723809D01*
X139378571Y-87647619D01*
X139340476Y-87495238D01*
X139340476Y-87228571D01*
X139378571Y-87076190D01*
X139454761Y-87000000D01*
X139530952Y-86961904D01*
X139683333Y-86961904D01*
X139759523Y-87000000D01*
X139835714Y-87076190D01*
X139873809Y-87228571D01*
X139873809Y-87495238D01*
X139835714Y-87647619D01*
X139759523Y-87723809D01*
X139683333Y-87761904D01*
X139530952Y-87761904D01*
X140559523Y-87228571D02*
X140559523Y-87761904D01*
X140369047Y-86923809D02*
X140178571Y-87495238D01*
X140673809Y-87495238D01*
X141130952Y-86961904D02*
X141207142Y-86961904D01*
X141283333Y-87000000D01*
X141321428Y-87038095D01*
X141359523Y-87114285D01*
X141397619Y-87266666D01*
X141397619Y-87457142D01*
X141359523Y-87609523D01*
X141321428Y-87685714D01*
X141283333Y-87723809D01*
X141207142Y-87761904D01*
X141130952Y-87761904D01*
X141054761Y-87723809D01*
X141016666Y-87685714D01*
X140978571Y-87609523D01*
X140940476Y-87457142D01*
X140940476Y-87266666D01*
X140978571Y-87114285D01*
X141016666Y-87038095D01*
X141054761Y-87000000D01*
X141130952Y-86961904D01*
X141702380Y-87038095D02*
X141740476Y-87000000D01*
X141816666Y-86961904D01*
X142007142Y-86961904D01*
X142083333Y-87000000D01*
X142121428Y-87038095D01*
X142159523Y-87114285D01*
X142159523Y-87190476D01*
X142121428Y-87304761D01*
X141664285Y-87761904D01*
X142159523Y-87761904D01*
X144628571Y-82011904D02*
X144628571Y-82659523D01*
X144666666Y-82735714D01*
X144704761Y-82773809D01*
X144780952Y-82811904D01*
X144933333Y-82811904D01*
X145009523Y-82773809D01*
X145047619Y-82735714D01*
X145085714Y-82659523D01*
X145085714Y-82011904D01*
X145809523Y-82278571D02*
X145809523Y-82811904D01*
X145619047Y-81973809D02*
X145428571Y-82545238D01*
X145923809Y-82545238D01*
X146380952Y-82011904D02*
X146457142Y-82011904D01*
X146533333Y-82050000D01*
X146571428Y-82088095D01*
X146609523Y-82164285D01*
X146647619Y-82316666D01*
X146647619Y-82507142D01*
X146609523Y-82659523D01*
X146571428Y-82735714D01*
X146533333Y-82773809D01*
X146457142Y-82811904D01*
X146380952Y-82811904D01*
X146304761Y-82773809D01*
X146266666Y-82735714D01*
X146228571Y-82659523D01*
X146190476Y-82507142D01*
X146190476Y-82316666D01*
X146228571Y-82164285D01*
X146266666Y-82088095D01*
X146304761Y-82050000D01*
X146380952Y-82011904D01*
X146914285Y-82011904D02*
X147409523Y-82011904D01*
X147142857Y-82316666D01*
X147257142Y-82316666D01*
X147333333Y-82354761D01*
X147371428Y-82392857D01*
X147409523Y-82469047D01*
X147409523Y-82659523D01*
X147371428Y-82735714D01*
X147333333Y-82773809D01*
X147257142Y-82811904D01*
X147028571Y-82811904D01*
X146952380Y-82773809D01*
X146914285Y-82735714D01*
X134771428Y-127442857D02*
X134504761Y-127442857D01*
X134504761Y-127861904D02*
X134504761Y-127061904D01*
X134885714Y-127061904D01*
X135533333Y-127328571D02*
X135533333Y-127861904D01*
X135342857Y-127023809D02*
X135152380Y-127595238D01*
X135647619Y-127595238D01*
X136104761Y-127061904D02*
X136180952Y-127061904D01*
X136257142Y-127100000D01*
X136295238Y-127138095D01*
X136333333Y-127214285D01*
X136371428Y-127366666D01*
X136371428Y-127557142D01*
X136333333Y-127709523D01*
X136295238Y-127785714D01*
X136257142Y-127823809D01*
X136180952Y-127861904D01*
X136104761Y-127861904D01*
X136028571Y-127823809D01*
X135990476Y-127785714D01*
X135952380Y-127709523D01*
X135914285Y-127557142D01*
X135914285Y-127366666D01*
X135952380Y-127214285D01*
X135990476Y-127138095D01*
X136028571Y-127100000D01*
X136104761Y-127061904D01*
X137133333Y-127861904D02*
X136676190Y-127861904D01*
X136904761Y-127861904D02*
X136904761Y-127061904D01*
X136828571Y-127176190D01*
X136752380Y-127252380D01*
X136676190Y-127290476D01*
D13*
X149150000Y-117600000D02*
X149150000Y-120750000D01*
X150850000Y-117600000D02*
X150850000Y-120750000D01*
X150850000Y-117600000D02*
X149150000Y-117600000D01*
X145745276Y-89122500D02*
X146254724Y-89122500D01*
X145745276Y-88077500D02*
X146254724Y-88077500D01*
X146254724Y-71972500D02*
X145745276Y-71972500D01*
X146254724Y-70927500D02*
X145745276Y-70927500D01*
X141054724Y-97877500D02*
X140545276Y-97877500D01*
X141054724Y-98922500D02*
X140545276Y-98922500D01*
X137740000Y-119265000D02*
X137740000Y-120735000D01*
X137740000Y-120735000D02*
X140200000Y-120735000D01*
X140200000Y-119265000D02*
X137740000Y-119265000D01*
X141004724Y-91522500D02*
X140495276Y-91522500D01*
X141004724Y-90477500D02*
X140495276Y-90477500D01*
X141004724Y-93077500D02*
X140495276Y-93077500D01*
X141004724Y-94122500D02*
X140495276Y-94122500D01*
X146254724Y-90477500D02*
X145745276Y-90477500D01*
X146254724Y-91522500D02*
X145745276Y-91522500D01*
X140545276Y-95477500D02*
X141054724Y-95477500D01*
X140545276Y-96522500D02*
X141054724Y-96522500D01*
D10*
X145500000Y-69375000D02*
X140500000Y-69375000D01*
D13*
X139145276Y-116777500D02*
X139654724Y-116777500D01*
X139145276Y-117822500D02*
X139654724Y-117822500D01*
X145745276Y-98922500D02*
X146254724Y-98922500D01*
X145745276Y-97877500D02*
X146254724Y-97877500D01*
D12*
X148080000Y-127950000D02*
X137920000Y-127950000D01*
X137920000Y-122150000D02*
X148080000Y-122150000D01*
X137920000Y-127950000D02*
X137920000Y-122150000D01*
X148080000Y-122150000D02*
X148080000Y-127950000D01*
X137920000Y-122750000D02*
X148080000Y-122750000D01*
D13*
X138090000Y-114078733D02*
X138090000Y-114421267D01*
X139110000Y-114078733D02*
X139110000Y-114421267D01*
D10*
X144350000Y-84550000D02*
X144350000Y-84175000D01*
X147425000Y-84175000D02*
X147300000Y-84175000D01*
X147650000Y-84175000D02*
X147650000Y-84625000D01*
X147650000Y-85350000D02*
X147650000Y-85825000D01*
X147650000Y-85825000D02*
X147300000Y-85825000D01*
X144625000Y-85825000D02*
X144675000Y-85825000D01*
X144350000Y-85175000D02*
X144350000Y-85450000D01*
X144675000Y-85825000D02*
X144675000Y-86600000D01*
X147350000Y-84175000D02*
X147650000Y-84175000D01*
X144350000Y-85450000D02*
X144625000Y-85825000D01*
X144350000Y-84175000D02*
X144650000Y-84175000D01*
D13*
X141004724Y-71972500D02*
X140495276Y-71972500D01*
X141004724Y-70927500D02*
X140495276Y-70927500D01*
X142115000Y-114103733D02*
X142115000Y-114396267D01*
X143135000Y-114103733D02*
X143135000Y-114396267D01*
X147160000Y-114103733D02*
X147160000Y-114396267D01*
X146140000Y-114103733D02*
X146140000Y-114396267D01*
X140495276Y-88077500D02*
X141004724Y-88077500D01*
X140495276Y-89122500D02*
X141004724Y-89122500D01*
X141995000Y-65670000D02*
G75*
G03*
X143995000Y-65670000I1000000J0D01*
G01*
X136935000Y-116590000D02*
X149055000Y-116590000D01*
X141995000Y-65670000D02*
X136935000Y-65670000D01*
X133935000Y-116650000D02*
X152055000Y-116650000D01*
X152055000Y-65610000D02*
X133935000Y-65610000D01*
X149055000Y-116590000D02*
X149055000Y-65670000D01*
X133935000Y-65610000D02*
X133935000Y-116650000D01*
X149055000Y-65670000D02*
X143995000Y-65670000D01*
X136935000Y-65670000D02*
X136935000Y-116590000D01*
X152055000Y-116650000D02*
X152055000Y-65610000D01*
X146254724Y-93077500D02*
X145745276Y-93077500D01*
X146254724Y-94122500D02*
X145745276Y-94122500D01*
X144940000Y-119265000D02*
X144940000Y-120735000D01*
X147400000Y-119265000D02*
X144940000Y-119265000D01*
X144940000Y-120735000D02*
X147400000Y-120735000D01*
X146854724Y-117822500D02*
X146345276Y-117822500D01*
X146854724Y-116777500D02*
X146345276Y-116777500D01*
D12*
X145875000Y-100675000D02*
X145875000Y-101325000D01*
X145875000Y-111325000D02*
X145875000Y-110675000D01*
X140125000Y-100675000D02*
X145875000Y-100675000D01*
X140125000Y-101250000D02*
X138525000Y-101250000D01*
X140125000Y-111325000D02*
X140125000Y-110675000D01*
X140125000Y-100675000D02*
X140125000Y-101250000D01*
X140125000Y-111325000D02*
X145875000Y-111325000D01*
D13*
X142710000Y-77450000D02*
X142710000Y-79725000D01*
X138790000Y-77450000D02*
X138790000Y-75175000D01*
X138790000Y-77450000D02*
X138790000Y-81500000D01*
X142710000Y-77450000D02*
X142710000Y-75175000D01*
D10*
X142100000Y-84175000D02*
X142400000Y-84175000D01*
X139100000Y-85175000D02*
X139100000Y-85450000D01*
X142400000Y-85350000D02*
X142400000Y-85825000D01*
X139375000Y-85825000D02*
X139425000Y-85825000D01*
X139100000Y-84175000D02*
X139400000Y-84175000D01*
X139100000Y-84550000D02*
X139100000Y-84175000D01*
X142400000Y-85825000D02*
X142050000Y-85825000D01*
X142175000Y-84175000D02*
X142050000Y-84175000D01*
X139100000Y-85450000D02*
X139375000Y-85825000D01*
X139425000Y-85825000D02*
X139425000Y-86600000D01*
X142400000Y-84175000D02*
X142400000Y-84625000D01*
D13*
X147960000Y-77450000D02*
X147960000Y-79725000D01*
X144040000Y-77450000D02*
X144040000Y-75175000D01*
X144040000Y-77450000D02*
X144040000Y-81500000D01*
X147960000Y-77450000D02*
X147960000Y-75175000D01*
X134840000Y-125102064D02*
X134840000Y-123897936D01*
X136660000Y-125102064D02*
X136660000Y-123897936D01*
%LPC*%
D14*
X150000000Y-118250000D03*
X150000000Y-120750000D03*
D15*
X145087500Y-88600000D03*
X146912500Y-88600000D03*
D16*
X146912500Y-71450000D03*
X145087500Y-71450000D03*
X141712500Y-98400000D03*
X139887500Y-98400000D03*
D17*
X138525000Y-120000000D03*
X140275000Y-120000000D03*
D16*
X141662500Y-91000000D03*
X139837500Y-91000000D03*
X141662500Y-93600000D03*
X139837500Y-93600000D03*
X146912500Y-91000000D03*
X145087500Y-91000000D03*
D15*
X139887500Y-96000000D03*
X141712500Y-96000000D03*
D18*
X144750000Y-69925000D03*
X144250000Y-69925000D03*
X143750000Y-69925000D03*
X143250000Y-69925000D03*
X142750000Y-69925000D03*
X142250000Y-69925000D03*
X141750000Y-69925000D03*
X141250000Y-69925000D03*
D19*
X147200000Y-68000000D03*
X138800000Y-68000000D03*
D15*
X140312500Y-117300000D03*
X138487500Y-117300000D03*
X145087500Y-98400000D03*
X146912500Y-98400000D03*
D20*
X146810000Y-124750000D03*
X144270000Y-124750000D03*
X141730000Y-124750000D03*
D21*
X139190000Y-124750000D03*
D22*
X138600000Y-113375000D03*
X138600000Y-115125000D03*
D23*
X145050000Y-86050000D03*
X146950000Y-86050000D03*
X146000000Y-83950000D03*
D16*
X141662500Y-71450000D03*
X139837500Y-71450000D03*
D24*
X142625000Y-113387500D03*
X142625000Y-115112500D03*
X146650000Y-113387500D03*
X146650000Y-115112500D03*
D15*
X139837500Y-88600000D03*
X141662500Y-88600000D03*
D25*
X150615000Y-67000000D03*
X150615000Y-69540000D03*
X150615000Y-72080000D03*
X150615000Y-74620000D03*
X150615000Y-77160000D03*
X150615000Y-79700000D03*
X150615000Y-82240000D03*
X150615000Y-84780000D03*
X150615000Y-87320000D03*
X150615000Y-89860000D03*
X150615000Y-92400000D03*
X150615000Y-94940000D03*
X150615000Y-97480000D03*
X150615000Y-100020000D03*
X150615000Y-102560000D03*
X150615000Y-105100000D03*
X150615000Y-107640000D03*
X150615000Y-110180000D03*
X150615000Y-112720000D03*
X150615000Y-115260000D03*
X135375000Y-115260000D03*
X135375000Y-112720000D03*
X135375000Y-110180000D03*
X135375000Y-107640000D03*
X135375000Y-105100000D03*
X135375000Y-102560000D03*
X135375000Y-100020000D03*
X135375000Y-97480000D03*
X135375000Y-94940000D03*
X135375000Y-92400000D03*
X135375000Y-89860000D03*
X135375000Y-87320000D03*
X135375000Y-84780000D03*
X135375000Y-82240000D03*
X135375000Y-79700000D03*
X135375000Y-77160000D03*
X135375000Y-74620000D03*
X135375000Y-72080000D03*
X135375000Y-69540000D03*
X135375000Y-67000000D03*
D16*
X146912500Y-93600000D03*
X145087500Y-93600000D03*
D17*
X145725000Y-120000000D03*
X147475000Y-120000000D03*
D16*
X145687500Y-117300000D03*
X147512500Y-117300000D03*
D26*
X139400000Y-101775000D03*
X139400000Y-102425000D03*
X139400000Y-103075000D03*
X139400000Y-103725000D03*
X139400000Y-104375000D03*
X139400000Y-105025000D03*
X139400000Y-105675000D03*
X139400000Y-106325000D03*
X139400000Y-106975000D03*
X139400000Y-107625000D03*
X139400000Y-108275000D03*
X139400000Y-108925000D03*
X139400000Y-109575000D03*
X139400000Y-110225000D03*
X146600000Y-110225000D03*
X146600000Y-109575000D03*
X146600000Y-108925000D03*
X146600000Y-108275000D03*
X146600000Y-107625000D03*
X146600000Y-106975000D03*
X146600000Y-106325000D03*
X146600000Y-105675000D03*
X146600000Y-105025000D03*
X146600000Y-104375000D03*
X146600000Y-103725000D03*
X146600000Y-103075000D03*
X146600000Y-102425000D03*
X146600000Y-101775000D03*
D27*
X139480000Y-80700000D03*
X142020000Y-80700000D03*
X142020000Y-74200000D03*
X139480000Y-74200000D03*
D23*
X139800000Y-86050000D03*
X141700000Y-86050000D03*
X140750000Y-83950000D03*
D27*
X144730000Y-80700000D03*
X147270000Y-80700000D03*
X147270000Y-74200000D03*
X144730000Y-74200000D03*
D28*
X135750000Y-123012500D03*
X135750000Y-125987500D03*
M02*
