G04 #@! TF.GenerationSoftware,KiCad,Pcbnew,(6.0.10)*
G04 #@! TF.CreationDate,2023-01-05T11:17:19+01:00*
G04 #@! TF.ProjectId,PIC_Interface,5049435f-496e-4746-9572-666163652e6b,rev?*
G04 #@! TF.SameCoordinates,Original*
G04 #@! TF.FileFunction,Copper,L1,Top*
G04 #@! TF.FilePolarity,Positive*
%FSLAX46Y46*%
G04 Gerber Fmt 4.6, Leading zero omitted, Abs format (unit mm)*
G04 Created by KiCad (PCBNEW (6.0.10)) date 2023-01-05 11:17:19*
%MOMM*%
%LPD*%
G01*
G04 APERTURE LIST*
G04 Aperture macros list*
%AMRoundRect*
0 Rectangle with rounded corners*
0 $1 Rounding radius*
0 $2 $3 $4 $5 $6 $7 $8 $9 X,Y pos of 4 corners*
0 Add a 4 corners polygon primitive as box body*
4,1,4,$2,$3,$4,$5,$6,$7,$8,$9,$2,$3,0*
0 Add four circle primitives for the rounded corners*
1,1,$1+$1,$2,$3*
1,1,$1+$1,$4,$5*
1,1,$1+$1,$6,$7*
1,1,$1+$1,$8,$9*
0 Add four rect primitives between the rounded corners*
20,1,$1+$1,$2,$3,$4,$5,0*
20,1,$1+$1,$4,$5,$6,$7,0*
20,1,$1+$1,$6,$7,$8,$9,0*
20,1,$1+$1,$8,$9,$2,$3,0*%
G04 Aperture macros list end*
G04 #@! TA.AperFunction,SMDPad,CuDef*
%ADD10R,1.000000X1.000000*%
G04 #@! TD*
G04 #@! TA.AperFunction,SMDPad,CuDef*
%ADD11RoundRect,0.237500X-0.250000X-0.237500X0.250000X-0.237500X0.250000X0.237500X-0.250000X0.237500X0*%
G04 #@! TD*
G04 #@! TA.AperFunction,SMDPad,CuDef*
%ADD12RoundRect,0.237500X0.250000X0.237500X-0.250000X0.237500X-0.250000X-0.237500X0.250000X-0.237500X0*%
G04 #@! TD*
G04 #@! TA.AperFunction,SMDPad,CuDef*
%ADD13RoundRect,0.237500X-0.287500X-0.237500X0.287500X-0.237500X0.287500X0.237500X-0.287500X0.237500X0*%
G04 #@! TD*
G04 #@! TA.AperFunction,SMDPad,CuDef*
%ADD14R,0.300000X0.800000*%
G04 #@! TD*
G04 #@! TA.AperFunction,SMDPad,CuDef*
%ADD15R,2.400000X3.050000*%
G04 #@! TD*
G04 #@! TA.AperFunction,ComponentPad*
%ADD16O,1.700000X2.200000*%
G04 #@! TD*
G04 #@! TA.AperFunction,ComponentPad*
%ADD17R,1.700000X2.200000*%
G04 #@! TD*
G04 #@! TA.AperFunction,SMDPad,CuDef*
%ADD18RoundRect,0.237500X-0.237500X0.287500X-0.237500X-0.287500X0.237500X-0.287500X0.237500X0.287500X0*%
G04 #@! TD*
G04 #@! TA.AperFunction,SMDPad,CuDef*
%ADD19R,0.600000X1.300000*%
G04 #@! TD*
G04 #@! TA.AperFunction,SMDPad,CuDef*
%ADD20RoundRect,0.237500X-0.237500X0.300000X-0.237500X-0.300000X0.237500X-0.300000X0.237500X0.300000X0*%
G04 #@! TD*
G04 #@! TA.AperFunction,ComponentPad*
%ADD21RoundRect,0.450000X-0.900000X-0.450000X0.900000X-0.450000X0.900000X0.450000X-0.900000X0.450000X0*%
G04 #@! TD*
G04 #@! TA.AperFunction,SMDPad,CuDef*
%ADD22R,1.750000X0.450000*%
G04 #@! TD*
G04 #@! TA.AperFunction,SMDPad,CuDef*
%ADD23RoundRect,0.137500X0.137500X-0.662500X0.137500X0.662500X-0.137500X0.662500X-0.137500X-0.662500X0*%
G04 #@! TD*
G04 #@! TA.AperFunction,SMDPad,CuDef*
%ADD24RoundRect,0.250001X0.624999X-0.462499X0.624999X0.462499X-0.624999X0.462499X-0.624999X-0.462499X0*%
G04 #@! TD*
G04 #@! TA.AperFunction,ViaPad*
%ADD25C,0.800000*%
G04 #@! TD*
G04 #@! TA.AperFunction,Conductor*
%ADD26C,0.250000*%
G04 #@! TD*
G04 APERTURE END LIST*
D10*
X150000000Y-118250000D03*
X150000000Y-120750000D03*
D11*
X145087500Y-88600000D03*
X146912500Y-88600000D03*
D12*
X146912500Y-71450000D03*
X145087500Y-71450000D03*
X141712500Y-98400000D03*
X139887500Y-98400000D03*
D13*
X138525000Y-120000000D03*
X140275000Y-120000000D03*
D12*
X141662500Y-91000000D03*
X139837500Y-91000000D03*
X141662500Y-93600000D03*
X139837500Y-93600000D03*
X146912500Y-91000000D03*
X145087500Y-91000000D03*
D11*
X139887500Y-96000000D03*
X141712500Y-96000000D03*
D14*
X144750000Y-69925000D03*
X144250000Y-69925000D03*
X143750000Y-69925000D03*
X143250000Y-69925000D03*
X142750000Y-69925000D03*
X142250000Y-69925000D03*
X141750000Y-69925000D03*
X141250000Y-69925000D03*
D15*
X147200000Y-68000000D03*
X138800000Y-68000000D03*
D11*
X140312500Y-117300000D03*
X138487500Y-117300000D03*
X145087500Y-98400000D03*
X146912500Y-98400000D03*
D16*
X146810000Y-124750000D03*
X144270000Y-124750000D03*
X141730000Y-124750000D03*
D17*
X139190000Y-124750000D03*
D18*
X138600000Y-113375000D03*
X138600000Y-115125000D03*
D19*
X145050000Y-86050000D03*
X146950000Y-86050000D03*
X146000000Y-83950000D03*
D12*
X141662500Y-71450000D03*
X139837500Y-71450000D03*
D20*
X142625000Y-113387500D03*
X142625000Y-115112500D03*
X146650000Y-113387500D03*
X146650000Y-115112500D03*
D11*
X139837500Y-88600000D03*
X141662500Y-88600000D03*
D21*
X150615000Y-67000000D03*
X150615000Y-69540000D03*
X150615000Y-72080000D03*
X150615000Y-74620000D03*
X150615000Y-77160000D03*
X150615000Y-79700000D03*
X150615000Y-82240000D03*
X150615000Y-84780000D03*
X150615000Y-87320000D03*
X150615000Y-89860000D03*
X150615000Y-92400000D03*
X150615000Y-94940000D03*
X150615000Y-97480000D03*
X150615000Y-100020000D03*
X150615000Y-102560000D03*
X150615000Y-105100000D03*
X150615000Y-107640000D03*
X150615000Y-110180000D03*
X150615000Y-112720000D03*
X150615000Y-115260000D03*
X135375000Y-115260000D03*
X135375000Y-112720000D03*
X135375000Y-110180000D03*
X135375000Y-107640000D03*
X135375000Y-105100000D03*
X135375000Y-102560000D03*
X135375000Y-100020000D03*
X135375000Y-97480000D03*
X135375000Y-94940000D03*
X135375000Y-92400000D03*
X135375000Y-89860000D03*
X135375000Y-87320000D03*
X135375000Y-84780000D03*
X135375000Y-82240000D03*
X135375000Y-79700000D03*
X135375000Y-77160000D03*
X135375000Y-74620000D03*
X135375000Y-72080000D03*
X135375000Y-69540000D03*
X135375000Y-67000000D03*
D12*
X146912500Y-93600000D03*
X145087500Y-93600000D03*
D13*
X145725000Y-120000000D03*
X147475000Y-120000000D03*
D12*
X145687500Y-117300000D03*
X147512500Y-117300000D03*
D22*
X139400000Y-101775000D03*
X139400000Y-102425000D03*
X139400000Y-103075000D03*
X139400000Y-103725000D03*
X139400000Y-104375000D03*
X139400000Y-105025000D03*
X139400000Y-105675000D03*
X139400000Y-106325000D03*
X139400000Y-106975000D03*
X139400000Y-107625000D03*
X139400000Y-108275000D03*
X139400000Y-108925000D03*
X139400000Y-109575000D03*
X139400000Y-110225000D03*
X146600000Y-110225000D03*
X146600000Y-109575000D03*
X146600000Y-108925000D03*
X146600000Y-108275000D03*
X146600000Y-107625000D03*
X146600000Y-106975000D03*
X146600000Y-106325000D03*
X146600000Y-105675000D03*
X146600000Y-105025000D03*
X146600000Y-104375000D03*
X146600000Y-103725000D03*
X146600000Y-103075000D03*
X146600000Y-102425000D03*
X146600000Y-101775000D03*
D23*
X139480000Y-80700000D03*
X142020000Y-80700000D03*
X142020000Y-74200000D03*
X139480000Y-74200000D03*
D19*
X139800000Y-86050000D03*
X141700000Y-86050000D03*
X140750000Y-83950000D03*
D23*
X144730000Y-80700000D03*
X147270000Y-80700000D03*
X147270000Y-74200000D03*
X144730000Y-74200000D03*
D24*
X135750000Y-123012500D03*
X135750000Y-125987500D03*
D25*
X137300000Y-121300000D03*
X143200000Y-118500000D03*
X145300000Y-114300000D03*
X140800000Y-118500000D03*
X137000000Y-118700000D03*
X138500000Y-126900000D03*
X144500966Y-105480237D03*
X141000000Y-115800000D03*
X146900000Y-111300000D03*
X148200000Y-78000000D03*
X141000000Y-105600000D03*
X145000000Y-103800000D03*
X142800000Y-91050000D03*
X138000000Y-111800000D03*
X141200000Y-110600000D03*
X141400000Y-102800000D03*
X148200000Y-87000000D03*
X143200000Y-99000000D03*
X137800000Y-94800000D03*
X148600000Y-96200000D03*
X140800000Y-86200000D03*
X144600000Y-107800000D03*
X141025000Y-77325000D03*
X145137911Y-106250500D03*
X143300000Y-96200000D03*
X141200000Y-114112000D03*
X140643750Y-70643750D03*
X145587701Y-70612299D03*
D26*
X149225000Y-118250000D02*
X150000000Y-118250000D01*
X147475000Y-120000000D02*
X149225000Y-118250000D01*
X135750000Y-125987500D02*
X136987500Y-124750000D01*
X136987500Y-124750000D02*
X139190000Y-124750000D01*
X140275000Y-120000000D02*
X139500000Y-119225000D01*
X139500000Y-113475000D02*
X139587500Y-113387500D01*
X139500000Y-119225000D02*
X139500000Y-113475000D01*
X142625000Y-113387500D02*
X139587500Y-113387500D01*
X139587500Y-113387500D02*
X138612500Y-113387500D01*
X146600000Y-106975000D02*
X144975000Y-106975000D01*
X146600000Y-107625000D02*
X146600000Y-106975000D01*
X142625000Y-107875000D02*
X143500000Y-107000000D01*
X142625000Y-110175000D02*
X142625000Y-107875000D01*
X141725000Y-103725000D02*
X139400000Y-103725000D01*
X144975000Y-106975000D02*
X143525000Y-106975000D01*
X142625000Y-111175000D02*
X142625000Y-110175000D01*
X143525000Y-106975000D02*
X143500000Y-107000000D01*
X138612500Y-113387500D02*
X138600000Y-113375000D01*
X143500000Y-105500000D02*
X141725000Y-103725000D01*
X142625000Y-113387500D02*
X142625000Y-111175000D01*
X143500000Y-107000000D02*
X143500000Y-105500000D01*
X140275000Y-120000000D02*
X140555000Y-120280000D01*
X140555000Y-120280000D02*
X140555000Y-125486701D01*
X145200000Y-126200000D02*
X145635000Y-125765000D01*
X145635000Y-123265000D02*
X147475000Y-121425000D01*
X145635000Y-125765000D02*
X145635000Y-123265000D01*
X140555000Y-125486701D02*
X141268299Y-126200000D01*
X141268299Y-126200000D02*
X145200000Y-126200000D01*
X147475000Y-121425000D02*
X147475000Y-120000000D01*
X135750000Y-117975000D02*
X138600000Y-115125000D01*
X135750000Y-123012500D02*
X135750000Y-117975000D01*
X141730000Y-124750000D02*
X141730000Y-117890000D01*
X141730000Y-117890000D02*
X143820000Y-115800000D01*
X143820000Y-111380000D02*
X145625000Y-109575000D01*
X145625000Y-109575000D02*
X146600000Y-109575000D01*
X143820000Y-115800000D02*
X143820000Y-111380000D01*
X146025000Y-110225000D02*
X144270000Y-111980000D01*
X146600000Y-110225000D02*
X146025000Y-110225000D01*
X144270000Y-124750000D02*
X144270000Y-111980000D01*
X145392953Y-105480237D02*
X144500966Y-105480237D01*
X145587716Y-105675000D02*
X145392953Y-105480237D01*
X146600000Y-105675000D02*
X145587716Y-105675000D01*
X145212411Y-106325000D02*
X146600000Y-106325000D01*
X145137911Y-106250500D02*
X145212411Y-106325000D01*
X140312500Y-116487500D02*
X141000000Y-115800000D01*
X140312500Y-117200000D02*
X140312500Y-116487500D01*
X147621016Y-117200000D02*
X148790000Y-116031016D01*
X147512500Y-117200000D02*
X147621016Y-117200000D01*
X145725000Y-120000000D02*
X145725000Y-117237500D01*
X138525000Y-120000000D02*
X138525000Y-117237500D01*
X147515000Y-108925000D02*
X146600000Y-108925000D01*
X147890000Y-112147500D02*
X147890000Y-109300000D01*
X146650000Y-113387500D02*
X147890000Y-112147500D01*
X147890000Y-109300000D02*
X147515000Y-108925000D01*
X146950000Y-86050000D02*
X147250000Y-86050000D01*
X145075000Y-103725000D02*
X145000000Y-103800000D01*
X147250000Y-86050000D02*
X148200000Y-87000000D01*
X146600000Y-103725000D02*
X145075000Y-103725000D01*
X146600000Y-108275000D02*
X145075000Y-108275000D01*
X145075000Y-108275000D02*
X144600000Y-107800000D01*
X140950000Y-86050000D02*
X140800000Y-86200000D01*
X139400000Y-105675000D02*
X140925000Y-105675000D01*
X140925000Y-105675000D02*
X141000000Y-105600000D01*
X141700000Y-86050000D02*
X140950000Y-86050000D01*
X144750000Y-69925000D02*
X144250000Y-69925000D01*
X143605000Y-75325000D02*
X144730000Y-74200000D01*
X139480000Y-74200000D02*
X140605000Y-75325000D01*
X144250000Y-73720000D02*
X144730000Y-74200000D01*
X140605000Y-75325000D02*
X143605000Y-75325000D01*
X144250000Y-69925000D02*
X144250000Y-73720000D01*
X146912500Y-70912500D02*
X145000000Y-69000000D01*
X142975000Y-69000000D02*
X142750000Y-69225000D01*
X145000000Y-69000000D02*
X142975000Y-69000000D01*
X146912500Y-71450000D02*
X146912500Y-70912500D01*
X142750000Y-69225000D02*
X142750000Y-69925000D01*
X147270000Y-71807500D02*
X146912500Y-71450000D01*
X147270000Y-74200000D02*
X147270000Y-71807500D01*
X142250000Y-70862500D02*
X141662500Y-71450000D01*
X142020000Y-71807500D02*
X141662500Y-71450000D01*
X142250000Y-69925000D02*
X142250000Y-70862500D01*
X142020000Y-74250000D02*
X142020000Y-71807500D01*
X141750000Y-69925000D02*
X141250000Y-69925000D01*
X140643750Y-70643750D02*
X139837500Y-71450000D01*
X145087500Y-71450000D02*
X145087500Y-71112500D01*
X145087500Y-71112500D02*
X145587701Y-70612299D01*
X141250000Y-70037500D02*
X140643750Y-70643750D01*
X141250000Y-69925000D02*
X141250000Y-70037500D01*
X146000000Y-81970000D02*
X147270000Y-80700000D01*
X146000000Y-83950000D02*
X146000000Y-81970000D01*
X145087500Y-88600000D02*
X145050000Y-88562500D01*
X146000000Y-91400000D02*
X146000000Y-89512500D01*
X141400000Y-92200000D02*
X145200000Y-92200000D01*
X141712500Y-96000000D02*
X140650000Y-94937500D01*
X140650000Y-92950000D02*
X141400000Y-92200000D01*
X145050000Y-88562500D02*
X145050000Y-86050000D01*
X146000000Y-89512500D02*
X145087500Y-88600000D01*
X140650000Y-94937500D02*
X140650000Y-92950000D01*
X145200000Y-92200000D02*
X146000000Y-91400000D01*
X140800000Y-81920000D02*
X142020000Y-80700000D01*
X140800000Y-83950000D02*
X140800000Y-81920000D01*
X139850000Y-90962500D02*
X139850000Y-86050000D01*
X150222500Y-102560000D02*
X146912500Y-99250000D01*
X146912500Y-93600000D02*
X146912500Y-99250000D01*
X150615000Y-102560000D02*
X150222500Y-102560000D01*
X148400000Y-91000000D02*
X148400000Y-88400000D01*
X146912500Y-91000000D02*
X148400000Y-91000000D01*
X141662500Y-93600000D02*
X145087500Y-93600000D01*
X149480000Y-87320000D02*
X150615000Y-87320000D01*
X146912500Y-91775000D02*
X145087500Y-93600000D01*
X148400000Y-88400000D02*
X149480000Y-87320000D01*
X146912500Y-91000000D02*
X146912500Y-91775000D01*
X141712500Y-101775000D02*
X145087500Y-98400000D01*
X139400000Y-101775000D02*
X141712500Y-101775000D01*
X148500000Y-102100000D02*
X148500000Y-104250000D01*
X146100000Y-99700000D02*
X148500000Y-102100000D01*
X150615000Y-105100000D02*
X149350000Y-105100000D01*
X145700000Y-97400000D02*
X145950000Y-97650000D01*
X145950000Y-97650000D02*
X146100000Y-97800000D01*
X142450000Y-98400000D02*
X143300000Y-97550000D01*
X145300000Y-97400000D02*
X145700000Y-97400000D01*
X146100000Y-97800000D02*
X146100000Y-99650000D01*
X146100000Y-99650000D02*
X146100000Y-99700000D01*
X143450000Y-97400000D02*
X145300000Y-97400000D01*
X149350000Y-105100000D02*
X148500000Y-104250000D01*
X143300000Y-97550000D02*
X143450000Y-97400000D01*
X141712500Y-98400000D02*
X142450000Y-98400000D01*
X138000000Y-100150000D02*
X139550000Y-98600000D01*
X138275000Y-104375000D02*
X138000000Y-104100000D01*
X138000000Y-104100000D02*
X138000000Y-100150000D01*
X139400000Y-104375000D02*
X138275000Y-104375000D01*
X148790000Y-105903604D02*
X147911396Y-105025000D01*
X148790000Y-116031016D02*
X148790000Y-105903604D01*
X147911396Y-105025000D02*
X146600000Y-105025000D01*
X145087500Y-91000000D02*
X144275000Y-90187500D01*
X144275000Y-81155000D02*
X144730000Y-80700000D01*
X144275000Y-90187500D02*
X144275000Y-81155000D01*
X138600000Y-92362500D02*
X138600000Y-81580000D01*
X139837500Y-93600000D02*
X138600000Y-92362500D01*
X138600000Y-81580000D02*
X139480000Y-80700000D01*
X137400000Y-98687500D02*
X139887500Y-96200000D01*
X137400000Y-105671016D02*
X137400000Y-98687500D01*
X135431016Y-107640000D02*
X137400000Y-105671016D01*
X135375000Y-107640000D02*
X135431016Y-107640000D01*
X141712500Y-91000000D02*
X143400000Y-89312500D01*
X143400000Y-89312500D02*
X143400000Y-78400000D01*
X145000000Y-76800000D02*
X147200000Y-76800000D01*
X147200000Y-76800000D02*
X148600000Y-75400000D01*
X143400000Y-78400000D02*
X145000000Y-76800000D01*
X148600000Y-73800000D02*
X150320000Y-72080000D01*
X150320000Y-72080000D02*
X150615000Y-72080000D01*
X148600000Y-75400000D02*
X148600000Y-73800000D01*
G04 #@! TA.AperFunction,Conductor*
G36*
X147452621Y-110724501D02*
G01*
X147499114Y-110778157D01*
X147510500Y-110830499D01*
X147510500Y-111938114D01*
X147490498Y-112006235D01*
X147473596Y-112027209D01*
X146942211Y-112558595D01*
X146879898Y-112592620D01*
X146853115Y-112595500D01*
X146365930Y-112595500D01*
X146305764Y-112602036D01*
X146270500Y-112615256D01*
X146182205Y-112648356D01*
X146182202Y-112648357D01*
X146173801Y-112651507D01*
X146061026Y-112736026D01*
X145976507Y-112848801D01*
X145927036Y-112980764D01*
X145920500Y-113040930D01*
X145920500Y-113734070D01*
X145927036Y-113794236D01*
X145929810Y-113801635D01*
X145963262Y-113890867D01*
X145976507Y-113926199D01*
X145981889Y-113933381D01*
X145981890Y-113933382D01*
X146036939Y-114006835D01*
X146061786Y-114073342D01*
X146046732Y-114142724D01*
X146002414Y-114189544D01*
X145952508Y-114220427D01*
X145941110Y-114229460D01*
X145828637Y-114342129D01*
X145819625Y-114353540D01*
X145736088Y-114489063D01*
X145729944Y-114502241D01*
X145679685Y-114653766D01*
X145676819Y-114667132D01*
X145667328Y-114759770D01*
X145667000Y-114766185D01*
X145667000Y-114840385D01*
X145671475Y-114855624D01*
X145672865Y-114856829D01*
X145680548Y-114858500D01*
X147614885Y-114858500D01*
X147630124Y-114854025D01*
X147631329Y-114852635D01*
X147633000Y-114844952D01*
X147633000Y-114766234D01*
X147632663Y-114759718D01*
X147622925Y-114665868D01*
X147620032Y-114652472D01*
X147569512Y-114501047D01*
X147563347Y-114487885D01*
X147479574Y-114352508D01*
X147470540Y-114341110D01*
X147357871Y-114228637D01*
X147346457Y-114219623D01*
X147297796Y-114189628D01*
X147250302Y-114136856D01*
X147238878Y-114066785D01*
X147263084Y-114006804D01*
X147318110Y-113933382D01*
X147318111Y-113933381D01*
X147323493Y-113926199D01*
X147336739Y-113890867D01*
X147370190Y-113801635D01*
X147372964Y-113794236D01*
X147379500Y-113734070D01*
X147379500Y-113246884D01*
X147399502Y-113178763D01*
X147416405Y-113157789D01*
X148120216Y-112453978D01*
X148138964Y-112438836D01*
X148140189Y-112437721D01*
X148148940Y-112432071D01*
X148155387Y-112423893D01*
X148155389Y-112423891D01*
X148169729Y-112405700D01*
X148173675Y-112401259D01*
X148173602Y-112401197D01*
X148176960Y-112397234D01*
X148180638Y-112393556D01*
X148183662Y-112389324D01*
X148187021Y-112385360D01*
X148188468Y-112386586D01*
X148237876Y-112347872D01*
X148308562Y-112341247D01*
X148371610Y-112373890D01*
X148407000Y-112435437D01*
X148410500Y-112464928D01*
X148410500Y-115821632D01*
X148390498Y-115889753D01*
X148373595Y-115910727D01*
X147750727Y-116533595D01*
X147688415Y-116567621D01*
X147661632Y-116570500D01*
X147215930Y-116570500D01*
X147155764Y-116577036D01*
X147133000Y-116585570D01*
X147032205Y-116623356D01*
X147032202Y-116623357D01*
X147023801Y-116626507D01*
X146911026Y-116711026D01*
X146826507Y-116823801D01*
X146777036Y-116955764D01*
X146770500Y-117015930D01*
X146770500Y-117584070D01*
X146777036Y-117644236D01*
X146789696Y-117678006D01*
X146815586Y-117747067D01*
X146826507Y-117776199D01*
X146911026Y-117888974D01*
X147023801Y-117973493D01*
X147032202Y-117976643D01*
X147032205Y-117976644D01*
X147088730Y-117997834D01*
X147155764Y-118022964D01*
X147215930Y-118029500D01*
X147809070Y-118029500D01*
X147869236Y-118022964D01*
X147936270Y-117997834D01*
X147992795Y-117976644D01*
X147992798Y-117976643D01*
X148001199Y-117973493D01*
X148113974Y-117888974D01*
X148198493Y-117776199D01*
X148209415Y-117747067D01*
X148235304Y-117678006D01*
X148247964Y-117644236D01*
X148254500Y-117584070D01*
X148254500Y-117155400D01*
X148274502Y-117087279D01*
X148291405Y-117066305D01*
X149020216Y-116337494D01*
X149038964Y-116322352D01*
X149040189Y-116321237D01*
X149048940Y-116315587D01*
X149055387Y-116307409D01*
X149055389Y-116307407D01*
X149069729Y-116289216D01*
X149073678Y-116284772D01*
X149073604Y-116284710D01*
X149076957Y-116280753D01*
X149080638Y-116277072D01*
X149083662Y-116272841D01*
X149085935Y-116270158D01*
X149145234Y-116231118D01*
X149216227Y-116230335D01*
X149265253Y-116259059D01*
X149265761Y-116258411D01*
X149270534Y-116262154D01*
X149271159Y-116262520D01*
X149277106Y-116268467D01*
X149350032Y-116312633D01*
X149415965Y-116352563D01*
X149422959Y-116356799D01*
X149430206Y-116359070D01*
X149430208Y-116359071D01*
X149579286Y-116405789D01*
X149579288Y-116405789D01*
X149585672Y-116407790D01*
X149658694Y-116414500D01*
X151571306Y-116414500D01*
X151644328Y-116407790D01*
X151650712Y-116405789D01*
X151650714Y-116405789D01*
X151799789Y-116359072D01*
X151799792Y-116359071D01*
X151807041Y-116356799D01*
X151813539Y-116352864D01*
X151817651Y-116351007D01*
X151887968Y-116341206D01*
X151952422Y-116370977D01*
X151990548Y-116430867D01*
X151995500Y-116465845D01*
X151995500Y-121236424D01*
X151975498Y-121304545D01*
X151921842Y-121351038D01*
X151892214Y-121360360D01*
X151649540Y-121404831D01*
X151645908Y-121405963D01*
X151645907Y-121405963D01*
X151602898Y-121419365D01*
X151360271Y-121494970D01*
X151356801Y-121496532D01*
X151356795Y-121496534D01*
X151143508Y-121592527D01*
X151073180Y-121602245D01*
X151008762Y-121572398D01*
X150970707Y-121512462D01*
X150971097Y-121441466D01*
X150973814Y-121433399D01*
X150998478Y-121367609D01*
X151002105Y-121352351D01*
X151007631Y-121301486D01*
X151008000Y-121294672D01*
X151008000Y-121022115D01*
X151003525Y-121006876D01*
X151002135Y-121005671D01*
X150994452Y-121004000D01*
X150272115Y-121004000D01*
X150256876Y-121008475D01*
X150255671Y-121009865D01*
X150254000Y-121017548D01*
X150254000Y-121739884D01*
X150258475Y-121755123D01*
X150259865Y-121756328D01*
X150267548Y-121757999D01*
X150486912Y-121757999D01*
X150555033Y-121778001D01*
X150601526Y-121831657D01*
X150611630Y-121901931D01*
X150582136Y-121966511D01*
X150576008Y-121973094D01*
X150371932Y-122177169D01*
X150369590Y-122180159D01*
X150369585Y-122180164D01*
X150265014Y-122313639D01*
X150185073Y-122415676D01*
X150028325Y-122674966D01*
X149903974Y-122951261D01*
X149813834Y-123240529D01*
X149813150Y-123244263D01*
X149813148Y-123244270D01*
X149762112Y-123522755D01*
X149759217Y-123538554D01*
X149758988Y-123542342D01*
X149758987Y-123542349D01*
X149747342Y-123734851D01*
X149741100Y-123838041D01*
X149740514Y-123840989D01*
X149742934Y-123853155D01*
X149742934Y-123853156D01*
X149743079Y-123853883D01*
X149745500Y-123878465D01*
X149745500Y-127869500D01*
X149725498Y-127937621D01*
X149671842Y-127984114D01*
X149619500Y-127995500D01*
X134130500Y-127995500D01*
X134062379Y-127975498D01*
X134015886Y-127921842D01*
X134004500Y-127869500D01*
X134004500Y-116470360D01*
X134024502Y-116402239D01*
X134078158Y-116355746D01*
X134148432Y-116345642D01*
X134179462Y-116354681D01*
X134182959Y-116356799D01*
X134190206Y-116359070D01*
X134190208Y-116359071D01*
X134339286Y-116405789D01*
X134339288Y-116405789D01*
X134345672Y-116407790D01*
X134418694Y-116414500D01*
X136331306Y-116414500D01*
X136404328Y-116407790D01*
X136410712Y-116405789D01*
X136410714Y-116405789D01*
X136462708Y-116389495D01*
X136533693Y-116388211D01*
X136594104Y-116425508D01*
X136624760Y-116489545D01*
X136615928Y-116559990D01*
X136589482Y-116598824D01*
X135519784Y-117668522D01*
X135501036Y-117683664D01*
X135499811Y-117684779D01*
X135491060Y-117690429D01*
X135484613Y-117698607D01*
X135484611Y-117698609D01*
X135470271Y-117716800D01*
X135466325Y-117721241D01*
X135466398Y-117721303D01*
X135463039Y-117725267D01*
X135459362Y-117728944D01*
X135448108Y-117744692D01*
X135444602Y-117749362D01*
X135412844Y-117789647D01*
X135409812Y-117798281D01*
X135404486Y-117805734D01*
X135393707Y-117841778D01*
X135389799Y-117854844D01*
X135387964Y-117860492D01*
X135375623Y-117895635D01*
X135370982Y-117908851D01*
X135370500Y-117914416D01*
X135370500Y-117917124D01*
X135370386Y-117919758D01*
X135370357Y-117919856D01*
X135370193Y-117919849D01*
X135370149Y-117920553D01*
X135368287Y-117926778D01*
X135369342Y-117953635D01*
X135370403Y-117980635D01*
X135370500Y-117985582D01*
X135370500Y-121919501D01*
X135350498Y-121987622D01*
X135296842Y-122034115D01*
X135244500Y-122045501D01*
X135077246Y-122045501D01*
X135073852Y-122045870D01*
X135073846Y-122045870D01*
X135023411Y-122051348D01*
X135023407Y-122051349D01*
X135015553Y-122052202D01*
X134880236Y-122102929D01*
X134873057Y-122108309D01*
X134873054Y-122108311D01*
X134785023Y-122174287D01*
X134764596Y-122189596D01*
X134759215Y-122196776D01*
X134683311Y-122298054D01*
X134683309Y-122298057D01*
X134677929Y-122305236D01*
X134627202Y-122440553D01*
X134620500Y-122502245D01*
X134620501Y-123522754D01*
X134620870Y-123526148D01*
X134620870Y-123526154D01*
X134625527Y-123569025D01*
X134627202Y-123584447D01*
X134677929Y-123719764D01*
X134683309Y-123726943D01*
X134683311Y-123726946D01*
X134744065Y-123808010D01*
X134764596Y-123835404D01*
X134771776Y-123840785D01*
X134873054Y-123916689D01*
X134873057Y-123916691D01*
X134880236Y-123922071D01*
X134888639Y-123925221D01*
X135008158Y-123970026D01*
X135008159Y-123970026D01*
X135015553Y-123972798D01*
X135023403Y-123973651D01*
X135023404Y-123973651D01*
X135073839Y-123979130D01*
X135077245Y-123979500D01*
X135749901Y-123979500D01*
X136422754Y-123979499D01*
X136426148Y-123979130D01*
X136426154Y-123979130D01*
X136476589Y-123973652D01*
X136476593Y-123973651D01*
X136484447Y-123972798D01*
X136619764Y-123922071D01*
X136626943Y-123916691D01*
X136626946Y-123916689D01*
X136728224Y-123840785D01*
X136735404Y-123835404D01*
X136755935Y-123808010D01*
X136816689Y-123726946D01*
X136816691Y-123726943D01*
X136822071Y-123719764D01*
X136845738Y-123656630D01*
X136870026Y-123591842D01*
X136870026Y-123591841D01*
X136872798Y-123584447D01*
X136879500Y-123522755D01*
X136879499Y-122502246D01*
X136872798Y-122440553D01*
X136822071Y-122305236D01*
X136816691Y-122298057D01*
X136816689Y-122298054D01*
X136740785Y-122196776D01*
X136735404Y-122189596D01*
X136714977Y-122174287D01*
X136626946Y-122108311D01*
X136626943Y-122108309D01*
X136619764Y-122102929D01*
X136578442Y-122087438D01*
X136491842Y-122054974D01*
X136491841Y-122054974D01*
X136484447Y-122052202D01*
X136476597Y-122051349D01*
X136476596Y-122051349D01*
X136426152Y-122045869D01*
X136426151Y-122045869D01*
X136422755Y-122045500D01*
X136255500Y-122045500D01*
X136187379Y-122025498D01*
X136140886Y-121971842D01*
X136129500Y-121919500D01*
X136129500Y-118184384D01*
X136149502Y-118116263D01*
X136166405Y-118095289D01*
X137638604Y-116623090D01*
X137700916Y-116589064D01*
X137771731Y-116594129D01*
X137772630Y-116594802D01*
X137761501Y-116543779D01*
X137786275Y-116477245D01*
X137798090Y-116463604D01*
X138320289Y-115941405D01*
X138382601Y-115907379D01*
X138409384Y-115904500D01*
X138884070Y-115904500D01*
X138944236Y-115897964D01*
X138951636Y-115895190D01*
X138959320Y-115893363D01*
X138959712Y-115895011D01*
X139021078Y-115890519D01*
X139083447Y-115924441D01*
X139117576Y-115986696D01*
X139120500Y-116013684D01*
X139120500Y-116498805D01*
X139100498Y-116566926D01*
X139046842Y-116613419D01*
X138976568Y-116623523D01*
X138950273Y-116616788D01*
X138844236Y-116577036D01*
X138784070Y-116570500D01*
X138190930Y-116570500D01*
X138130764Y-116577036D01*
X138108000Y-116585570D01*
X138007205Y-116623356D01*
X138007202Y-116623357D01*
X137998801Y-116626507D01*
X137991619Y-116631889D01*
X137991618Y-116631890D01*
X137962749Y-116653526D01*
X137896243Y-116678373D01*
X137839530Y-116666069D01*
X137853378Y-116703196D01*
X137838287Y-116772570D01*
X137828526Y-116787749D01*
X137806890Y-116816618D01*
X137806889Y-116816619D01*
X137801507Y-116823801D01*
X137752036Y-116955764D01*
X137745500Y-117015930D01*
X137745500Y-117584070D01*
X137752036Y-117644236D01*
X137764696Y-117678006D01*
X137790586Y-117747067D01*
X137801507Y-117776199D01*
X137886026Y-117888974D01*
X137998801Y-117973493D01*
X138007202Y-117976643D01*
X138007205Y-117976644D01*
X138063730Y-117997834D01*
X138120494Y-118040476D01*
X138145194Y-118107037D01*
X138145500Y-118115816D01*
X138145500Y-119184184D01*
X138125498Y-119252305D01*
X138071842Y-119298798D01*
X138063730Y-119302166D01*
X138007205Y-119323356D01*
X138007202Y-119323357D01*
X137998801Y-119326507D01*
X137886026Y-119411026D01*
X137801507Y-119523801D01*
X137752036Y-119655764D01*
X137745500Y-119715930D01*
X137745500Y-120284070D01*
X137752036Y-120344236D01*
X137801507Y-120476199D01*
X137886026Y-120588974D01*
X137998801Y-120673493D01*
X138007202Y-120676643D01*
X138007205Y-120676644D01*
X138063730Y-120697834D01*
X138130764Y-120722964D01*
X138190930Y-120729500D01*
X138859070Y-120729500D01*
X138919236Y-120722964D01*
X138986270Y-120697834D01*
X139042795Y-120676644D01*
X139042798Y-120676643D01*
X139051199Y-120673493D01*
X139163974Y-120588974D01*
X139248493Y-120476199D01*
X139282018Y-120386772D01*
X139324660Y-120330008D01*
X139391221Y-120305308D01*
X139460570Y-120320516D01*
X139510688Y-120370802D01*
X139517982Y-120386772D01*
X139551507Y-120476199D01*
X139636026Y-120588974D01*
X139748801Y-120673493D01*
X139757202Y-120676643D01*
X139757205Y-120676644D01*
X139813730Y-120697834D01*
X139880764Y-120722964D01*
X139940930Y-120729500D01*
X140049500Y-120729500D01*
X140117621Y-120749502D01*
X140164114Y-120803158D01*
X140175500Y-120855500D01*
X140175500Y-123269500D01*
X140155498Y-123337621D01*
X140101842Y-123384114D01*
X140049500Y-123395500D01*
X138812800Y-123395501D01*
X138314934Y-123395501D01*
X138279182Y-123402612D01*
X138252874Y-123407844D01*
X138252872Y-123407845D01*
X138240699Y-123410266D01*
X138230379Y-123417161D01*
X138230378Y-123417162D01*
X138194372Y-123441221D01*
X138156516Y-123466516D01*
X138149623Y-123476832D01*
X138110304Y-123535677D01*
X138100266Y-123550699D01*
X138085500Y-123624933D01*
X138085500Y-124244500D01*
X138065498Y-124312621D01*
X138011842Y-124359114D01*
X137959500Y-124370500D01*
X137041420Y-124370500D01*
X137017473Y-124367951D01*
X137015807Y-124367872D01*
X137005624Y-124365680D01*
X136995282Y-124366904D01*
X136995279Y-124366904D01*
X136972287Y-124369626D01*
X136966346Y-124369977D01*
X136966354Y-124370072D01*
X136961174Y-124370500D01*
X136955976Y-124370500D01*
X136950854Y-124371353D01*
X136950849Y-124371353D01*
X136936927Y-124373671D01*
X136931050Y-124374508D01*
X136924549Y-124375277D01*
X136890497Y-124379307D01*
X136890495Y-124379308D01*
X136880159Y-124380531D01*
X136871910Y-124384492D01*
X136862874Y-124385996D01*
X136853705Y-124390943D01*
X136853703Y-124390944D01*
X136817740Y-124410348D01*
X136812451Y-124413043D01*
X136773415Y-124431788D01*
X136766268Y-124435220D01*
X136761992Y-124438814D01*
X136760052Y-124440754D01*
X136758141Y-124442507D01*
X136758051Y-124442556D01*
X136757939Y-124442433D01*
X136757404Y-124442905D01*
X136751686Y-124445990D01*
X136744619Y-124453635D01*
X136715084Y-124485586D01*
X136711654Y-124489152D01*
X136217211Y-124983595D01*
X136154899Y-125017621D01*
X136128116Y-125020500D01*
X135145047Y-125020501D01*
X135077246Y-125020501D01*
X135073852Y-125020870D01*
X135073846Y-125020870D01*
X135023411Y-125026348D01*
X135023407Y-125026349D01*
X135015553Y-125027202D01*
X134880236Y-125077929D01*
X134873057Y-125083309D01*
X134873054Y-125083311D01*
X134807583Y-125132379D01*
X134764596Y-125164596D01*
X134759215Y-125171776D01*
X134683311Y-125273054D01*
X134683309Y-125273057D01*
X134677929Y-125280236D01*
X134627202Y-125415553D01*
X134620500Y-125477245D01*
X134620501Y-126497754D01*
X134620870Y-126501148D01*
X134620870Y-126501154D01*
X134626013Y-126548499D01*
X134627202Y-126559447D01*
X134677929Y-126694764D01*
X134683309Y-126701943D01*
X134683311Y-126701946D01*
X134749287Y-126789977D01*
X134764596Y-126810404D01*
X134771776Y-126815785D01*
X134873054Y-126891689D01*
X134873057Y-126891691D01*
X134880236Y-126897071D01*
X134888639Y-126900221D01*
X135008158Y-126945026D01*
X135008159Y-126945026D01*
X135015553Y-126947798D01*
X135023403Y-126948651D01*
X135023404Y-126948651D01*
X135073839Y-126954130D01*
X135077245Y-126954500D01*
X135749901Y-126954500D01*
X136422754Y-126954499D01*
X136426148Y-126954130D01*
X136426154Y-126954130D01*
X136476589Y-126948652D01*
X136476593Y-126948651D01*
X136484447Y-126947798D01*
X136619764Y-126897071D01*
X136626943Y-126891691D01*
X136626946Y-126891689D01*
X136728224Y-126815785D01*
X136735404Y-126810404D01*
X136750713Y-126789977D01*
X136816689Y-126701946D01*
X136816691Y-126701943D01*
X136822071Y-126694764D01*
X136864451Y-126581713D01*
X136870026Y-126566842D01*
X136870026Y-126566841D01*
X136872798Y-126559447D01*
X136875051Y-126538713D01*
X136879131Y-126501152D01*
X136879131Y-126501151D01*
X136879500Y-126497755D01*
X136879499Y-125477246D01*
X136877929Y-125462793D01*
X136890461Y-125392911D01*
X136914098Y-125360096D01*
X137107789Y-125166405D01*
X137170101Y-125132379D01*
X137196884Y-125129500D01*
X137959501Y-125129500D01*
X138027622Y-125149502D01*
X138074115Y-125203158D01*
X138085501Y-125255500D01*
X138085501Y-125875066D01*
X138086940Y-125882301D01*
X138097276Y-125934266D01*
X138100266Y-125949301D01*
X138156516Y-126033484D01*
X138240699Y-126089734D01*
X138314933Y-126104500D01*
X139189858Y-126104500D01*
X140065066Y-126104499D01*
X140100818Y-126097388D01*
X140127126Y-126092156D01*
X140127128Y-126092155D01*
X140139301Y-126089734D01*
X140149621Y-126082839D01*
X140149622Y-126082838D01*
X140213168Y-126040377D01*
X140223484Y-126033484D01*
X140275016Y-125956363D01*
X140329492Y-125910835D01*
X140399935Y-125901988D01*
X140468875Y-125937270D01*
X140961821Y-126430216D01*
X140976963Y-126448964D01*
X140978078Y-126450189D01*
X140983728Y-126458940D01*
X140991906Y-126465387D01*
X140991908Y-126465389D01*
X141010099Y-126479729D01*
X141014540Y-126483675D01*
X141014602Y-126483602D01*
X141018566Y-126486961D01*
X141022243Y-126490638D01*
X141037991Y-126501892D01*
X141042661Y-126505398D01*
X141082946Y-126537156D01*
X141091580Y-126540188D01*
X141099033Y-126545514D01*
X141148149Y-126560203D01*
X141153791Y-126562036D01*
X141194498Y-126576331D01*
X141202150Y-126579018D01*
X141207715Y-126579500D01*
X141210423Y-126579500D01*
X141213057Y-126579614D01*
X141213155Y-126579643D01*
X141213148Y-126579807D01*
X141213852Y-126579851D01*
X141220077Y-126581713D01*
X141273934Y-126579597D01*
X141278881Y-126579500D01*
X145146080Y-126579500D01*
X145170028Y-126582049D01*
X145171693Y-126582128D01*
X145181876Y-126584320D01*
X145192217Y-126583096D01*
X145215223Y-126580373D01*
X145221154Y-126580023D01*
X145221146Y-126579928D01*
X145226324Y-126579500D01*
X145231524Y-126579500D01*
X145236653Y-126578646D01*
X145236656Y-126578646D01*
X145250565Y-126576331D01*
X145256443Y-126575494D01*
X145297001Y-126570694D01*
X145297002Y-126570694D01*
X145307341Y-126569470D01*
X145315593Y-126565507D01*
X145324626Y-126564004D01*
X145333795Y-126559057D01*
X145333797Y-126559056D01*
X145369732Y-126539666D01*
X145375025Y-126536969D01*
X145414082Y-126518215D01*
X145414086Y-126518212D01*
X145421232Y-126514781D01*
X145425508Y-126511186D01*
X145427431Y-126509263D01*
X145429363Y-126507491D01*
X145429442Y-126507448D01*
X145429555Y-126507572D01*
X145430095Y-126507096D01*
X145435814Y-126504010D01*
X145472417Y-126464413D01*
X145475846Y-126460848D01*
X145835111Y-126101583D01*
X145897423Y-126067557D01*
X145968238Y-126072622D01*
X145999418Y-126089588D01*
X146087527Y-126155142D01*
X146096562Y-126160745D01*
X146292484Y-126260357D01*
X146302335Y-126264357D01*
X146512240Y-126329534D01*
X146522624Y-126331817D01*
X146538043Y-126333861D01*
X146552207Y-126331665D01*
X146556000Y-126318478D01*
X146556000Y-126316192D01*
X147064000Y-126316192D01*
X147067973Y-126329723D01*
X147078580Y-126331248D01*
X147196421Y-126306523D01*
X147206617Y-126303463D01*
X147411029Y-126222737D01*
X147420561Y-126218006D01*
X147608462Y-126103984D01*
X147617052Y-126097720D01*
X147783052Y-125953673D01*
X147790472Y-125946042D01*
X147929826Y-125776089D01*
X147935850Y-125767322D01*
X148044576Y-125576318D01*
X148049041Y-125566654D01*
X148124031Y-125360059D01*
X148126802Y-125349792D01*
X148166123Y-125132345D01*
X148167056Y-125124116D01*
X148167930Y-125105598D01*
X148168000Y-125102623D01*
X148168000Y-125022115D01*
X148163525Y-125006876D01*
X148162135Y-125005671D01*
X148154452Y-125004000D01*
X147082115Y-125004000D01*
X147066876Y-125008475D01*
X147065671Y-125009865D01*
X147064000Y-125017548D01*
X147064000Y-126316192D01*
X146556000Y-126316192D01*
X146556000Y-124477885D01*
X147064000Y-124477885D01*
X147068475Y-124493124D01*
X147069865Y-124494329D01*
X147077548Y-124496000D01*
X148149885Y-124496000D01*
X148165124Y-124491525D01*
X148166329Y-124490135D01*
X148168000Y-124482452D01*
X148168000Y-124444794D01*
X148167775Y-124439485D01*
X148153876Y-124275675D01*
X148152086Y-124265203D01*
X148096870Y-124052465D01*
X148093335Y-124042425D01*
X148003063Y-123842030D01*
X147997894Y-123832744D01*
X147875150Y-123650425D01*
X147868481Y-123642130D01*
X147716772Y-123483100D01*
X147708814Y-123476059D01*
X147532475Y-123344859D01*
X147523438Y-123339255D01*
X147327516Y-123239643D01*
X147317665Y-123235643D01*
X147107760Y-123170466D01*
X147097376Y-123168183D01*
X147081957Y-123166139D01*
X147067793Y-123168335D01*
X147064000Y-123181522D01*
X147064000Y-124477885D01*
X146556000Y-124477885D01*
X146556000Y-123183808D01*
X146552027Y-123170277D01*
X146551471Y-123170197D01*
X146486890Y-123140703D01*
X146448507Y-123080977D01*
X146448508Y-123009980D01*
X146480309Y-122956385D01*
X147705216Y-121731478D01*
X147723964Y-121716336D01*
X147725189Y-121715221D01*
X147733940Y-121709571D01*
X147740387Y-121701393D01*
X147740389Y-121701391D01*
X147754729Y-121683200D01*
X147758675Y-121678759D01*
X147758602Y-121678697D01*
X147761961Y-121674733D01*
X147765638Y-121671056D01*
X147776892Y-121655308D01*
X147780398Y-121650638D01*
X147812156Y-121610353D01*
X147815188Y-121601719D01*
X147820514Y-121594266D01*
X147835203Y-121545150D01*
X147837036Y-121539508D01*
X147851390Y-121498633D01*
X147851390Y-121498632D01*
X147854018Y-121491149D01*
X147854500Y-121485584D01*
X147854500Y-121482876D01*
X147854614Y-121480242D01*
X147854643Y-121480144D01*
X147854807Y-121480151D01*
X147854851Y-121479447D01*
X147856713Y-121473222D01*
X147854597Y-121419365D01*
X147854500Y-121414418D01*
X147854500Y-121294669D01*
X148992001Y-121294669D01*
X148992371Y-121301490D01*
X148997895Y-121352352D01*
X149001521Y-121367604D01*
X149046676Y-121488054D01*
X149055214Y-121503649D01*
X149131715Y-121605724D01*
X149144276Y-121618285D01*
X149246351Y-121694786D01*
X149261946Y-121703324D01*
X149382394Y-121748478D01*
X149397649Y-121752105D01*
X149448514Y-121757631D01*
X149455328Y-121758000D01*
X149727885Y-121758000D01*
X149743124Y-121753525D01*
X149744329Y-121752135D01*
X149746000Y-121744452D01*
X149746000Y-121022115D01*
X149741525Y-121006876D01*
X149740135Y-121005671D01*
X149732452Y-121004000D01*
X149010116Y-121004000D01*
X148994877Y-121008475D01*
X148993672Y-121009865D01*
X148992001Y-121017548D01*
X148992001Y-121294669D01*
X147854500Y-121294669D01*
X147854500Y-120815816D01*
X147874502Y-120747695D01*
X147928158Y-120701202D01*
X147936270Y-120697834D01*
X147992795Y-120676644D01*
X147992798Y-120676643D01*
X148001199Y-120673493D01*
X148113974Y-120588974D01*
X148197229Y-120477885D01*
X148992000Y-120477885D01*
X148996475Y-120493124D01*
X148997865Y-120494329D01*
X149005548Y-120496000D01*
X149727885Y-120496000D01*
X149743124Y-120491525D01*
X149744329Y-120490135D01*
X149746000Y-120482452D01*
X149746000Y-120477885D01*
X150254000Y-120477885D01*
X150258475Y-120493124D01*
X150259865Y-120494329D01*
X150267548Y-120496000D01*
X150989884Y-120496000D01*
X151005123Y-120491525D01*
X151006328Y-120490135D01*
X151007999Y-120482452D01*
X151007999Y-120205331D01*
X151007629Y-120198510D01*
X151002105Y-120147648D01*
X150998479Y-120132396D01*
X150953324Y-120011946D01*
X150944786Y-119996351D01*
X150868285Y-119894276D01*
X150855724Y-119881715D01*
X150753649Y-119805214D01*
X150738054Y-119796676D01*
X150617606Y-119751522D01*
X150602351Y-119747895D01*
X150551486Y-119742369D01*
X150544672Y-119742000D01*
X150272115Y-119742000D01*
X150256876Y-119746475D01*
X150255671Y-119747865D01*
X150254000Y-119755548D01*
X150254000Y-120477885D01*
X149746000Y-120477885D01*
X149746000Y-119760116D01*
X149741525Y-119744877D01*
X149740135Y-119743672D01*
X149732452Y-119742001D01*
X149455331Y-119742001D01*
X149448510Y-119742371D01*
X149397648Y-119747895D01*
X149382396Y-119751521D01*
X149261946Y-119796676D01*
X149246351Y-119805214D01*
X149144276Y-119881715D01*
X149131715Y-119894276D01*
X149055214Y-119996351D01*
X149046676Y-120011946D01*
X149001522Y-120132394D01*
X148997895Y-120147649D01*
X148992369Y-120198514D01*
X148992000Y-120205328D01*
X148992000Y-120477885D01*
X148197229Y-120477885D01*
X148198493Y-120476199D01*
X148247964Y-120344236D01*
X148254500Y-120284070D01*
X148254500Y-119809384D01*
X148274502Y-119741263D01*
X148291405Y-119720289D01*
X149112501Y-118899193D01*
X149174813Y-118865167D01*
X149245628Y-118870232D01*
X149306361Y-118918286D01*
X149316516Y-118933484D01*
X149400699Y-118989734D01*
X149474933Y-119004500D01*
X149999915Y-119004500D01*
X150525066Y-119004499D01*
X150560818Y-118997388D01*
X150587126Y-118992156D01*
X150587128Y-118992155D01*
X150599301Y-118989734D01*
X150609621Y-118982839D01*
X150609622Y-118982838D01*
X150673168Y-118940377D01*
X150683484Y-118933484D01*
X150739734Y-118849301D01*
X150754500Y-118775067D01*
X150754499Y-117724934D01*
X150739734Y-117650699D01*
X150730167Y-117636380D01*
X150690377Y-117576832D01*
X150683484Y-117566516D01*
X150599301Y-117510266D01*
X150525067Y-117495500D01*
X150000085Y-117495500D01*
X149474934Y-117495501D01*
X149439182Y-117502612D01*
X149412874Y-117507844D01*
X149412872Y-117507845D01*
X149400699Y-117510266D01*
X149390379Y-117517161D01*
X149390378Y-117517162D01*
X149329985Y-117557516D01*
X149316516Y-117566516D01*
X149260266Y-117650699D01*
X149245500Y-117724933D01*
X149245500Y-117753433D01*
X149225498Y-117821554D01*
X149171842Y-117868047D01*
X149134316Y-117878558D01*
X149117659Y-117880530D01*
X149109407Y-117884493D01*
X149100374Y-117885996D01*
X149091205Y-117890943D01*
X149091203Y-117890944D01*
X149055268Y-117910334D01*
X149049975Y-117913031D01*
X149021347Y-117926778D01*
X149003768Y-117935219D01*
X148999493Y-117938813D01*
X148997568Y-117940738D01*
X148995638Y-117942509D01*
X148995553Y-117942555D01*
X148995441Y-117942432D01*
X148994906Y-117942904D01*
X148989186Y-117945990D01*
X148982119Y-117953635D01*
X148952584Y-117985586D01*
X148949154Y-117989152D01*
X147704711Y-119233595D01*
X147642399Y-119267621D01*
X147615616Y-119270500D01*
X147140930Y-119270500D01*
X147080764Y-119277036D01*
X147035613Y-119293963D01*
X146957205Y-119323356D01*
X146957202Y-119323357D01*
X146948801Y-119326507D01*
X146836026Y-119411026D01*
X146751507Y-119523801D01*
X146748357Y-119532202D01*
X146748356Y-119532205D01*
X146717982Y-119613228D01*
X146675340Y-119669992D01*
X146608779Y-119694692D01*
X146539430Y-119679484D01*
X146489312Y-119629198D01*
X146482018Y-119613228D01*
X146451644Y-119532205D01*
X146451643Y-119532202D01*
X146448493Y-119523801D01*
X146363974Y-119411026D01*
X146251199Y-119326507D01*
X146242798Y-119323357D01*
X146242795Y-119323356D01*
X146186270Y-119302166D01*
X146129506Y-119259524D01*
X146104806Y-119192963D01*
X146104500Y-119184184D01*
X146104500Y-118085961D01*
X146124502Y-118017840D01*
X146169310Y-117976076D01*
X146176199Y-117973493D01*
X146288974Y-117888974D01*
X146373493Y-117776199D01*
X146384415Y-117747067D01*
X146410304Y-117678006D01*
X146422964Y-117644236D01*
X146429500Y-117584070D01*
X146429500Y-117015930D01*
X146422964Y-116955764D01*
X146373493Y-116823801D01*
X146288974Y-116711026D01*
X146176199Y-116626507D01*
X146167798Y-116623357D01*
X146167795Y-116623356D01*
X146067000Y-116585570D01*
X146044236Y-116577036D01*
X145984070Y-116570500D01*
X145390930Y-116570500D01*
X145330764Y-116577036D01*
X145308000Y-116585570D01*
X145207205Y-116623356D01*
X145207202Y-116623357D01*
X145198801Y-116626507D01*
X145086026Y-116711026D01*
X145001507Y-116823801D01*
X144952036Y-116955764D01*
X144945500Y-117015930D01*
X144945500Y-117584070D01*
X144952036Y-117644236D01*
X144964696Y-117678006D01*
X144990586Y-117747067D01*
X145001507Y-117776199D01*
X145086026Y-117888974D01*
X145198801Y-117973493D01*
X145207202Y-117976643D01*
X145207205Y-117976644D01*
X145263730Y-117997834D01*
X145320494Y-118040476D01*
X145345194Y-118107037D01*
X145345500Y-118115816D01*
X145345500Y-119184184D01*
X145325498Y-119252305D01*
X145271842Y-119298798D01*
X145263730Y-119302166D01*
X145207205Y-119323356D01*
X145207202Y-119323357D01*
X145198801Y-119326507D01*
X145086026Y-119411026D01*
X145001507Y-119523801D01*
X144952036Y-119655764D01*
X144945500Y-119715930D01*
X144945500Y-120284070D01*
X144952036Y-120344236D01*
X145001507Y-120476199D01*
X145086026Y-120588974D01*
X145198801Y-120673493D01*
X145207202Y-120676643D01*
X145207205Y-120676644D01*
X145263730Y-120697834D01*
X145330764Y-120722964D01*
X145390930Y-120729500D01*
X146059070Y-120729500D01*
X146119236Y-120722964D01*
X146186270Y-120697834D01*
X146242795Y-120676644D01*
X146242798Y-120676643D01*
X146251199Y-120673493D01*
X146363974Y-120588974D01*
X146448493Y-120476199D01*
X146482018Y-120386772D01*
X146524660Y-120330008D01*
X146591221Y-120305308D01*
X146660570Y-120320516D01*
X146710688Y-120370802D01*
X146717982Y-120386772D01*
X146751507Y-120476199D01*
X146836026Y-120588974D01*
X146948801Y-120673493D01*
X146957202Y-120676643D01*
X146957205Y-120676644D01*
X147013730Y-120697834D01*
X147070494Y-120740476D01*
X147095194Y-120807037D01*
X147095500Y-120815816D01*
X147095500Y-121215616D01*
X147075498Y-121283737D01*
X147058595Y-121304711D01*
X145404784Y-122958522D01*
X145386036Y-122973664D01*
X145384811Y-122974779D01*
X145376060Y-122980429D01*
X145369613Y-122988607D01*
X145369611Y-122988609D01*
X145355271Y-123006800D01*
X145351325Y-123011241D01*
X145351398Y-123011303D01*
X145348039Y-123015267D01*
X145344362Y-123018944D01*
X145333108Y-123034692D01*
X145329602Y-123039362D01*
X145297844Y-123079647D01*
X145294812Y-123088281D01*
X145289486Y-123095734D01*
X145286501Y-123105715D01*
X145274799Y-123144844D01*
X145272964Y-123150492D01*
X145258610Y-123191367D01*
X145255982Y-123198851D01*
X145255500Y-123204416D01*
X145255500Y-123207124D01*
X145255386Y-123209758D01*
X145255357Y-123209856D01*
X145255193Y-123209849D01*
X145255149Y-123210553D01*
X145253287Y-123216778D01*
X145253696Y-123227183D01*
X145255403Y-123270635D01*
X145255500Y-123275582D01*
X145255500Y-123616632D01*
X145235498Y-123684753D01*
X145181842Y-123731246D01*
X145111568Y-123741350D01*
X145046919Y-123711797D01*
X144918835Y-123600650D01*
X144918830Y-123600646D01*
X144914304Y-123596719D01*
X144731874Y-123491181D01*
X144726209Y-123489214D01*
X144723047Y-123487766D01*
X144669436Y-123441221D01*
X144649500Y-123373203D01*
X144649500Y-115458766D01*
X145667000Y-115458766D01*
X145667337Y-115465282D01*
X145677075Y-115559132D01*
X145679968Y-115572528D01*
X145730488Y-115723953D01*
X145736653Y-115737115D01*
X145820426Y-115872492D01*
X145829460Y-115883890D01*
X145942129Y-115996363D01*
X145953540Y-116005375D01*
X146089063Y-116088912D01*
X146102241Y-116095056D01*
X146253766Y-116145315D01*
X146267132Y-116148181D01*
X146359770Y-116157672D01*
X146366185Y-116158000D01*
X146377885Y-116158000D01*
X146393124Y-116153525D01*
X146394329Y-116152135D01*
X146396000Y-116144452D01*
X146396000Y-116139885D01*
X146904000Y-116139885D01*
X146908475Y-116155124D01*
X146909865Y-116156329D01*
X146917548Y-116158000D01*
X146933766Y-116158000D01*
X146940282Y-116157663D01*
X147034132Y-116147925D01*
X147047528Y-116145032D01*
X147198953Y-116094512D01*
X147212115Y-116088347D01*
X147347492Y-116004574D01*
X147358890Y-115995540D01*
X147471363Y-115882871D01*
X147480375Y-115871460D01*
X147563912Y-115735937D01*
X147570056Y-115722759D01*
X147620315Y-115571234D01*
X147623181Y-115557868D01*
X147632672Y-115465230D01*
X147633000Y-115458815D01*
X147633000Y-115384615D01*
X147628525Y-115369376D01*
X147627135Y-115368171D01*
X147619452Y-115366500D01*
X146922115Y-115366500D01*
X146906876Y-115370975D01*
X146905671Y-115372365D01*
X146904000Y-115380048D01*
X146904000Y-116139885D01*
X146396000Y-116139885D01*
X146396000Y-115384615D01*
X146391525Y-115369376D01*
X146390135Y-115368171D01*
X146382452Y-115366500D01*
X145685115Y-115366500D01*
X145669876Y-115370975D01*
X145668671Y-115372365D01*
X145667000Y-115380048D01*
X145667000Y-115458766D01*
X144649500Y-115458766D01*
X144649500Y-112189384D01*
X144669502Y-112121263D01*
X144686405Y-112100289D01*
X146045289Y-110741405D01*
X146107601Y-110707379D01*
X146134384Y-110704500D01*
X146523303Y-110704500D01*
X147384500Y-110704499D01*
X147452621Y-110724501D01*
G37*
G04 #@! TD.AperFunction*
G04 #@! TA.AperFunction,Conductor*
G36*
X143808532Y-116452328D02*
G01*
X143865368Y-116494875D01*
X143890179Y-116561395D01*
X143890500Y-116570384D01*
X143890500Y-123378109D01*
X143870498Y-123446230D01*
X143816651Y-123492810D01*
X143716916Y-123538157D01*
X143641234Y-123591842D01*
X143558648Y-123650425D01*
X143545014Y-123660096D01*
X143399272Y-123812340D01*
X143396021Y-123817375D01*
X143291577Y-123979131D01*
X143284948Y-123989397D01*
X143206166Y-124184878D01*
X143205017Y-124190764D01*
X143166868Y-124386114D01*
X143165771Y-124391729D01*
X143165500Y-124397270D01*
X143165500Y-125052659D01*
X143180493Y-125209806D01*
X143239823Y-125412042D01*
X143242573Y-125417381D01*
X143319454Y-125566654D01*
X143336324Y-125599410D01*
X143349880Y-125616668D01*
X143376230Y-125682591D01*
X143362756Y-125752297D01*
X143313735Y-125803653D01*
X143250794Y-125820500D01*
X142746295Y-125820500D01*
X142678174Y-125800498D01*
X142631681Y-125746842D01*
X142621577Y-125676568D01*
X142640443Y-125626152D01*
X142711800Y-125515640D01*
X142711801Y-125515637D01*
X142715052Y-125510603D01*
X142793834Y-125315122D01*
X142834229Y-125108271D01*
X142834500Y-125102730D01*
X142834500Y-124447341D01*
X142819507Y-124290194D01*
X142760177Y-124087958D01*
X142709415Y-123989397D01*
X142666422Y-123905921D01*
X142666420Y-123905918D01*
X142663676Y-123900590D01*
X142616859Y-123840989D01*
X142537192Y-123739568D01*
X142537188Y-123739564D01*
X142533486Y-123734851D01*
X142528955Y-123730919D01*
X142378835Y-123600650D01*
X142378830Y-123600646D01*
X142374304Y-123596719D01*
X142191874Y-123491181D01*
X142186209Y-123489214D01*
X142183047Y-123487766D01*
X142129436Y-123441221D01*
X142109500Y-123373203D01*
X142109500Y-118099384D01*
X142129502Y-118031263D01*
X142146405Y-118010289D01*
X143675405Y-116481289D01*
X143737717Y-116447263D01*
X143808532Y-116452328D01*
G37*
G04 #@! TD.AperFunction*
G04 #@! TA.AperFunction,Conductor*
G36*
X141872619Y-113787002D02*
G01*
X141919112Y-113840658D01*
X141922480Y-113848770D01*
X141938262Y-113890867D01*
X141951507Y-113926199D01*
X141956889Y-113933381D01*
X141956890Y-113933382D01*
X142011939Y-114006835D01*
X142036786Y-114073342D01*
X142021732Y-114142724D01*
X141977414Y-114189544D01*
X141927508Y-114220427D01*
X141916110Y-114229460D01*
X141803637Y-114342129D01*
X141794625Y-114353540D01*
X141711088Y-114489063D01*
X141704944Y-114502241D01*
X141654685Y-114653766D01*
X141651819Y-114667132D01*
X141642328Y-114759770D01*
X141642000Y-114766185D01*
X141642000Y-114840385D01*
X141646475Y-114855624D01*
X141647865Y-114856829D01*
X141655548Y-114858500D01*
X142753000Y-114858500D01*
X142821121Y-114878502D01*
X142867614Y-114932158D01*
X142879000Y-114984500D01*
X142879000Y-116152116D01*
X142858998Y-116220237D01*
X142842095Y-116241211D01*
X141499784Y-117583522D01*
X141481036Y-117598664D01*
X141479811Y-117599779D01*
X141471060Y-117605429D01*
X141464613Y-117613607D01*
X141464611Y-117613609D01*
X141450271Y-117631800D01*
X141446325Y-117636241D01*
X141446398Y-117636303D01*
X141443039Y-117640267D01*
X141439362Y-117643944D01*
X141428108Y-117659692D01*
X141424602Y-117664362D01*
X141392844Y-117704647D01*
X141389812Y-117713281D01*
X141384486Y-117720734D01*
X141381501Y-117730715D01*
X141369799Y-117769844D01*
X141367964Y-117775492D01*
X141358355Y-117802854D01*
X141350982Y-117823851D01*
X141350500Y-117829416D01*
X141350500Y-117832124D01*
X141350386Y-117834758D01*
X141350357Y-117834856D01*
X141350193Y-117834849D01*
X141350149Y-117835553D01*
X141348287Y-117841778D01*
X141349810Y-117880530D01*
X141350403Y-117895635D01*
X141350500Y-117900582D01*
X141350500Y-123378109D01*
X141330498Y-123446230D01*
X141276651Y-123492810D01*
X141176916Y-123538157D01*
X141159235Y-123550699D01*
X141133400Y-123569025D01*
X141066265Y-123592123D01*
X140997301Y-123575259D01*
X140948401Y-123523787D01*
X140934500Y-123466255D01*
X140934500Y-120603561D01*
X140954502Y-120535440D01*
X140959673Y-120527997D01*
X140983653Y-120496000D01*
X140998493Y-120476199D01*
X141047964Y-120344236D01*
X141054500Y-120284070D01*
X141054500Y-119715930D01*
X141047964Y-119655764D01*
X140998493Y-119523801D01*
X140913974Y-119411026D01*
X140801199Y-119326507D01*
X140792798Y-119323357D01*
X140792795Y-119323356D01*
X140714387Y-119293963D01*
X140669236Y-119277036D01*
X140609070Y-119270500D01*
X140134384Y-119270500D01*
X140066263Y-119250498D01*
X140045289Y-119233595D01*
X139916405Y-119104711D01*
X139882379Y-119042399D01*
X139879500Y-119015616D01*
X139879500Y-118154935D01*
X139899502Y-118086814D01*
X139953158Y-118040321D01*
X140012316Y-118029119D01*
X140012529Y-118029131D01*
X140015930Y-118029500D01*
X140609070Y-118029500D01*
X140669236Y-118022964D01*
X140736270Y-117997834D01*
X140792795Y-117976644D01*
X140792798Y-117976643D01*
X140801199Y-117973493D01*
X140913974Y-117888974D01*
X140998493Y-117776199D01*
X141009415Y-117747067D01*
X141035304Y-117678006D01*
X141047964Y-117644236D01*
X141054500Y-117584070D01*
X141054500Y-117015930D01*
X141047964Y-116955764D01*
X140998493Y-116823801D01*
X140913974Y-116711026D01*
X140873448Y-116680654D01*
X140830932Y-116623795D01*
X140825906Y-116552976D01*
X140859965Y-116490683D01*
X140922296Y-116456692D01*
X140950991Y-116453843D01*
X141061318Y-116455576D01*
X141061321Y-116455576D01*
X141068916Y-116455695D01*
X141223332Y-116420329D01*
X141293742Y-116384917D01*
X141358072Y-116352563D01*
X141358075Y-116352561D01*
X141364855Y-116349151D01*
X141370626Y-116344222D01*
X141370629Y-116344220D01*
X141479536Y-116251204D01*
X141479536Y-116251203D01*
X141485314Y-116246269D01*
X141577755Y-116117624D01*
X141636842Y-115970641D01*
X141638659Y-115971372D01*
X141670329Y-115919409D01*
X141734189Y-115888385D01*
X141804683Y-115896811D01*
X141844106Y-115923467D01*
X141917129Y-115996363D01*
X141928540Y-116005375D01*
X142064063Y-116088912D01*
X142077241Y-116095056D01*
X142228766Y-116145315D01*
X142242132Y-116148181D01*
X142334770Y-116157672D01*
X142341185Y-116158000D01*
X142352885Y-116158000D01*
X142368124Y-116153525D01*
X142369329Y-116152135D01*
X142371000Y-116144452D01*
X142371000Y-115384615D01*
X142366525Y-115369376D01*
X142365135Y-115368171D01*
X142357452Y-115366500D01*
X141660115Y-115366500D01*
X141613262Y-115380257D01*
X141606742Y-115384448D01*
X141535746Y-115384454D01*
X141487416Y-115357632D01*
X141381951Y-115263667D01*
X141381945Y-115263663D01*
X141376275Y-115258611D01*
X141368889Y-115254700D01*
X141242988Y-115188039D01*
X141242989Y-115188039D01*
X141236274Y-115184484D01*
X141082633Y-115145892D01*
X141075034Y-115145852D01*
X141075033Y-115145852D01*
X141009181Y-115145507D01*
X140924221Y-115145062D01*
X140916841Y-115146834D01*
X140916839Y-115146834D01*
X140777563Y-115180271D01*
X140777560Y-115180272D01*
X140770184Y-115182043D01*
X140629414Y-115254700D01*
X140510039Y-115358838D01*
X140418950Y-115488444D01*
X140361406Y-115636037D01*
X140360414Y-115643570D01*
X140360414Y-115643571D01*
X140349832Y-115723953D01*
X140340729Y-115793096D01*
X140341563Y-115800647D01*
X140346963Y-115849566D01*
X140334557Y-115919470D01*
X140310819Y-115952487D01*
X140094595Y-116168711D01*
X140032283Y-116202737D01*
X139961468Y-116197672D01*
X139904632Y-116155125D01*
X139879821Y-116088605D01*
X139879500Y-116079616D01*
X139879500Y-113893000D01*
X139899502Y-113824879D01*
X139953158Y-113778386D01*
X140005500Y-113767000D01*
X141804498Y-113767000D01*
X141872619Y-113787002D01*
G37*
G04 #@! TD.AperFunction*
G04 #@! TA.AperFunction,Conductor*
G36*
X141583737Y-104124502D02*
G01*
X141604711Y-104141405D01*
X143083595Y-105620289D01*
X143117621Y-105682601D01*
X143120500Y-105709384D01*
X143120500Y-106790616D01*
X143100498Y-106858737D01*
X143083595Y-106879711D01*
X142394784Y-107568522D01*
X142376036Y-107583664D01*
X142374811Y-107584779D01*
X142366060Y-107590429D01*
X142359613Y-107598607D01*
X142359611Y-107598609D01*
X142345271Y-107616800D01*
X142341325Y-107621241D01*
X142341398Y-107621303D01*
X142338039Y-107625267D01*
X142334362Y-107628944D01*
X142323108Y-107644692D01*
X142319602Y-107649362D01*
X142287844Y-107689647D01*
X142284812Y-107698281D01*
X142279486Y-107705734D01*
X142276501Y-107715715D01*
X142264799Y-107754844D01*
X142262964Y-107760492D01*
X142248610Y-107801367D01*
X142245982Y-107808851D01*
X142245500Y-107814416D01*
X142245500Y-107817124D01*
X142245386Y-107819758D01*
X142245357Y-107819856D01*
X142245193Y-107819849D01*
X142245149Y-107820553D01*
X142243287Y-107826778D01*
X142243696Y-107837183D01*
X142245403Y-107880635D01*
X142245500Y-107885582D01*
X142245500Y-112527928D01*
X142225498Y-112596049D01*
X142171842Y-112642542D01*
X142163732Y-112645909D01*
X142157208Y-112648355D01*
X142157206Y-112648356D01*
X142148801Y-112651507D01*
X142036026Y-112736026D01*
X141951507Y-112848801D01*
X141948357Y-112857202D01*
X141948356Y-112857205D01*
X141922480Y-112926230D01*
X141879838Y-112982994D01*
X141813277Y-113007694D01*
X141804498Y-113008000D01*
X139641425Y-113008000D01*
X139617467Y-113005450D01*
X139615808Y-113005372D01*
X139605624Y-113003179D01*
X139595282Y-113004403D01*
X139595279Y-113004403D01*
X139572279Y-113007126D01*
X139557468Y-113008000D01*
X139420502Y-113008000D01*
X139352381Y-112987998D01*
X139305888Y-112934342D01*
X139302520Y-112926230D01*
X139276644Y-112857205D01*
X139276643Y-112857202D01*
X139273493Y-112848801D01*
X139188974Y-112736026D01*
X139076199Y-112651507D01*
X139067798Y-112648357D01*
X139067795Y-112648356D01*
X138979500Y-112615256D01*
X138944236Y-112602036D01*
X138884070Y-112595500D01*
X138315930Y-112595500D01*
X138255764Y-112602036D01*
X138220500Y-112615256D01*
X138132205Y-112648356D01*
X138132202Y-112648357D01*
X138123801Y-112651507D01*
X138011026Y-112736026D01*
X137926507Y-112848801D01*
X137877036Y-112980764D01*
X137870500Y-113040930D01*
X137870500Y-113709070D01*
X137877036Y-113769236D01*
X137879810Y-113776635D01*
X137922634Y-113890867D01*
X137926507Y-113901199D01*
X138011026Y-114013974D01*
X138123801Y-114098493D01*
X138132202Y-114101643D01*
X138132205Y-114101644D01*
X138213228Y-114132018D01*
X138269992Y-114174660D01*
X138294692Y-114241221D01*
X138279484Y-114310570D01*
X138229198Y-114360688D01*
X138213228Y-114367982D01*
X138132205Y-114398356D01*
X138132202Y-114398357D01*
X138123801Y-114401507D01*
X138011026Y-114486026D01*
X137926507Y-114598801D01*
X137923357Y-114607202D01*
X137923356Y-114607205D01*
X137900891Y-114667132D01*
X137877036Y-114730764D01*
X137870500Y-114790930D01*
X137870500Y-115265616D01*
X137850498Y-115333737D01*
X137833595Y-115354711D01*
X137163824Y-116024482D01*
X137101512Y-116058508D01*
X137030697Y-116053443D01*
X136973861Y-116010896D01*
X136949050Y-115944376D01*
X136954495Y-115897708D01*
X136970789Y-115845714D01*
X136970789Y-115845712D01*
X136972790Y-115839328D01*
X136979500Y-115766306D01*
X136979500Y-114753694D01*
X136972790Y-114680672D01*
X136949767Y-114607205D01*
X136924071Y-114525208D01*
X136924070Y-114525206D01*
X136921799Y-114517959D01*
X136903586Y-114487885D01*
X136837401Y-114378602D01*
X136833467Y-114372106D01*
X136712894Y-114251533D01*
X136593954Y-114179500D01*
X136573537Y-114167135D01*
X136573536Y-114167135D01*
X136567041Y-114163201D01*
X136559794Y-114160930D01*
X136559792Y-114160929D01*
X136479238Y-114135685D01*
X136404328Y-114112210D01*
X136404402Y-114111974D01*
X136344530Y-114080556D01*
X136309480Y-114018815D01*
X136313374Y-113947925D01*
X136354975Y-113890394D01*
X136404346Y-113867847D01*
X136404328Y-113867790D01*
X136404785Y-113867647D01*
X136404786Y-113867646D01*
X136541258Y-113824879D01*
X136559792Y-113819071D01*
X136559794Y-113819070D01*
X136567041Y-113816799D01*
X136585464Y-113805642D01*
X136706398Y-113732401D01*
X136712894Y-113728467D01*
X136833467Y-113607894D01*
X136921799Y-113462041D01*
X136972790Y-113299328D01*
X136979500Y-113226306D01*
X136979500Y-112213694D01*
X136972790Y-112140672D01*
X136921799Y-111977959D01*
X136833467Y-111832106D01*
X136712894Y-111711533D01*
X136623233Y-111657232D01*
X136573537Y-111627135D01*
X136573536Y-111627135D01*
X136567041Y-111623201D01*
X136559794Y-111620930D01*
X136559792Y-111620929D01*
X136479238Y-111595685D01*
X136404328Y-111572210D01*
X136404402Y-111571974D01*
X136344530Y-111540556D01*
X136309480Y-111478815D01*
X136313374Y-111407925D01*
X136354975Y-111350394D01*
X136404346Y-111327847D01*
X136404328Y-111327790D01*
X136404785Y-111327647D01*
X136404786Y-111327646D01*
X136521799Y-111290977D01*
X136559792Y-111279071D01*
X136559794Y-111279070D01*
X136567041Y-111276799D01*
X136585464Y-111265642D01*
X136680882Y-111207854D01*
X136712894Y-111188467D01*
X136833467Y-111067894D01*
X136921799Y-110922041D01*
X136950487Y-110830499D01*
X136970789Y-110765714D01*
X136970789Y-110765712D01*
X136972790Y-110759328D01*
X136979500Y-110686306D01*
X136979500Y-109673694D01*
X136972790Y-109600672D01*
X136921799Y-109437959D01*
X136833467Y-109292106D01*
X136712894Y-109171533D01*
X136623233Y-109117232D01*
X136573537Y-109087135D01*
X136573536Y-109087135D01*
X136567041Y-109083201D01*
X136559794Y-109080930D01*
X136559792Y-109080929D01*
X136448900Y-109046178D01*
X136404328Y-109032210D01*
X136404402Y-109031974D01*
X136344530Y-109000556D01*
X136309480Y-108938815D01*
X136313374Y-108867925D01*
X136354975Y-108810394D01*
X136404346Y-108787847D01*
X136404328Y-108787790D01*
X136404785Y-108787647D01*
X136404786Y-108787646D01*
X136479238Y-108764315D01*
X136559792Y-108739071D01*
X136559794Y-108739070D01*
X136567041Y-108736799D01*
X136585464Y-108725642D01*
X136669192Y-108674934D01*
X136712894Y-108648467D01*
X136833467Y-108527894D01*
X136921799Y-108382041D01*
X136972790Y-108219328D01*
X136979500Y-108146306D01*
X136979500Y-107133694D01*
X136972790Y-107060672D01*
X136970789Y-107054286D01*
X136924071Y-106905208D01*
X136924070Y-106905206D01*
X136921799Y-106897959D01*
X136910748Y-106879711D01*
X136892996Y-106850399D01*
X136874817Y-106781769D01*
X136896628Y-106714206D01*
X136911677Y-106696033D01*
X137630216Y-105977494D01*
X137648964Y-105962352D01*
X137650189Y-105961237D01*
X137658940Y-105955587D01*
X137665387Y-105947409D01*
X137665389Y-105947407D01*
X137679729Y-105929216D01*
X137683675Y-105924775D01*
X137683602Y-105924713D01*
X137686961Y-105920749D01*
X137690638Y-105917072D01*
X137701892Y-105901324D01*
X137705398Y-105896654D01*
X137737156Y-105856369D01*
X137740188Y-105847735D01*
X137745514Y-105840282D01*
X137760203Y-105791166D01*
X137762036Y-105785523D01*
X137772119Y-105756812D01*
X137813563Y-105699167D01*
X137879593Y-105673080D01*
X137949245Y-105686832D01*
X138000405Y-105736057D01*
X138017001Y-105798562D01*
X138017001Y-105944669D01*
X138017371Y-105951490D01*
X138022895Y-106002352D01*
X138026521Y-106017604D01*
X138071676Y-106138054D01*
X138080214Y-106153649D01*
X138156715Y-106255724D01*
X138169273Y-106268282D01*
X138220066Y-106306349D01*
X138262581Y-106363209D01*
X138270501Y-106407174D01*
X138270501Y-106575066D01*
X138275270Y-106599042D01*
X138280516Y-106625419D01*
X138280516Y-106674578D01*
X138270500Y-106724933D01*
X138270501Y-107225066D01*
X138280516Y-107275418D01*
X138280516Y-107324578D01*
X138270500Y-107374933D01*
X138270501Y-107875066D01*
X138272100Y-107883104D01*
X138280516Y-107925419D01*
X138280516Y-107974578D01*
X138270500Y-108024933D01*
X138270501Y-108525066D01*
X138273643Y-108540861D01*
X138280516Y-108575419D01*
X138280516Y-108624578D01*
X138270500Y-108674933D01*
X138270501Y-109175066D01*
X138279002Y-109217809D01*
X138280516Y-109225419D01*
X138280516Y-109274578D01*
X138270500Y-109324933D01*
X138270501Y-109825066D01*
X138280516Y-109875418D01*
X138280516Y-109924578D01*
X138270500Y-109974933D01*
X138270501Y-110475066D01*
X138285266Y-110549301D01*
X138341516Y-110633484D01*
X138425699Y-110689734D01*
X138499933Y-110704500D01*
X139399854Y-110704500D01*
X140300066Y-110704499D01*
X140335818Y-110697388D01*
X140362126Y-110692156D01*
X140362128Y-110692155D01*
X140374301Y-110689734D01*
X140384621Y-110682839D01*
X140384622Y-110682838D01*
X140448168Y-110640377D01*
X140458484Y-110633484D01*
X140514734Y-110549301D01*
X140529500Y-110475067D01*
X140529499Y-109974934D01*
X140519483Y-109924576D01*
X140519484Y-109875419D01*
X140529500Y-109825067D01*
X140529499Y-109324934D01*
X140519483Y-109274576D01*
X140519484Y-109225419D01*
X140529500Y-109175067D01*
X140529499Y-108674934D01*
X140519483Y-108624576D01*
X140519484Y-108575419D01*
X140529500Y-108525067D01*
X140529499Y-108024934D01*
X140519483Y-107974576D01*
X140519484Y-107925419D01*
X140529500Y-107875067D01*
X140529499Y-107374934D01*
X140519483Y-107324576D01*
X140519484Y-107275419D01*
X140529500Y-107225067D01*
X140529499Y-106724934D01*
X140519483Y-106674576D01*
X140519484Y-106625419D01*
X140529500Y-106575067D01*
X140529500Y-106407175D01*
X140549502Y-106339054D01*
X140579935Y-106306348D01*
X140630728Y-106268281D01*
X140643285Y-106255724D01*
X140719786Y-106153649D01*
X140728324Y-106138054D01*
X140773478Y-106017606D01*
X140777105Y-106002351D01*
X140782631Y-105951486D01*
X140783000Y-105944672D01*
X140783000Y-105918115D01*
X140778525Y-105902876D01*
X140777135Y-105901671D01*
X140769452Y-105900000D01*
X140471989Y-105900000D01*
X140401986Y-105878764D01*
X140384621Y-105867161D01*
X140384618Y-105867160D01*
X140374301Y-105860266D01*
X140362132Y-105857845D01*
X140362131Y-105857845D01*
X140306135Y-105846707D01*
X140300067Y-105845500D01*
X140286270Y-105845500D01*
X139300998Y-105845501D01*
X139232879Y-105825499D01*
X139186386Y-105771843D01*
X139175000Y-105719501D01*
X139175000Y-105630500D01*
X139195002Y-105562379D01*
X139248658Y-105515886D01*
X139301000Y-105504500D01*
X140286265Y-105504499D01*
X140300066Y-105504499D01*
X140374301Y-105489734D01*
X140384621Y-105482839D01*
X140384622Y-105482838D01*
X140401986Y-105471236D01*
X140471989Y-105450000D01*
X140764884Y-105450000D01*
X140780123Y-105445525D01*
X140781328Y-105444135D01*
X140782999Y-105436452D01*
X140782999Y-105405331D01*
X140782629Y-105398510D01*
X140777105Y-105347648D01*
X140773479Y-105332396D01*
X140728324Y-105211946D01*
X140719786Y-105196351D01*
X140643285Y-105094276D01*
X140630727Y-105081718D01*
X140579934Y-105043651D01*
X140537419Y-104986791D01*
X140529499Y-104942824D01*
X140529499Y-104774934D01*
X140519483Y-104724576D01*
X140519484Y-104675419D01*
X140529500Y-104625067D01*
X140529499Y-104230499D01*
X140549501Y-104162380D01*
X140603156Y-104115887D01*
X140655499Y-104104500D01*
X141515616Y-104104500D01*
X141583737Y-104124502D01*
G37*
G04 #@! TD.AperFunction*
G04 #@! TA.AperFunction,Conductor*
G36*
X148124371Y-105790895D02*
G01*
X148169631Y-105819929D01*
X148373595Y-106023893D01*
X148407621Y-106086205D01*
X148410500Y-106112988D01*
X148410500Y-108978057D01*
X148390498Y-109046178D01*
X148336842Y-109092671D01*
X148266568Y-109102775D01*
X148201988Y-109073281D01*
X148194852Y-109065747D01*
X148194010Y-109064186D01*
X148188901Y-109059464D01*
X148188896Y-109059458D01*
X148154414Y-109027584D01*
X148150848Y-109024154D01*
X147968353Y-108841659D01*
X147934327Y-108779347D01*
X147939466Y-108708335D01*
X147973478Y-108617609D01*
X147977105Y-108602351D01*
X147982631Y-108551486D01*
X147983000Y-108544672D01*
X147983000Y-108518115D01*
X147978525Y-108502876D01*
X147977135Y-108501671D01*
X147969452Y-108500000D01*
X147671989Y-108500000D01*
X147601986Y-108478764D01*
X147584621Y-108467161D01*
X147584618Y-108467160D01*
X147574301Y-108460266D01*
X147562132Y-108457845D01*
X147562131Y-108457845D01*
X147506135Y-108446707D01*
X147500067Y-108445500D01*
X146600146Y-108445500D01*
X145699934Y-108445501D01*
X145625699Y-108460266D01*
X145615379Y-108467161D01*
X145615378Y-108467162D01*
X145598014Y-108478764D01*
X145528011Y-108500000D01*
X145235116Y-108500000D01*
X145219877Y-108504475D01*
X145218672Y-108505865D01*
X145217001Y-108513548D01*
X145217001Y-108544669D01*
X145217371Y-108551490D01*
X145222895Y-108602352D01*
X145226521Y-108617604D01*
X145271676Y-108738054D01*
X145280214Y-108753649D01*
X145356715Y-108855724D01*
X145369273Y-108868282D01*
X145420066Y-108906349D01*
X145462581Y-108963209D01*
X145470501Y-109007176D01*
X145470501Y-109149688D01*
X145450499Y-109217809D01*
X145412843Y-109255543D01*
X145410913Y-109256789D01*
X145403768Y-109260220D01*
X145399492Y-109263814D01*
X145397553Y-109265753D01*
X145395641Y-109267507D01*
X145395551Y-109267556D01*
X145395439Y-109267433D01*
X145394904Y-109267905D01*
X145389186Y-109270990D01*
X145382119Y-109278635D01*
X145352584Y-109310586D01*
X145349154Y-109314152D01*
X143589784Y-111073522D01*
X143571036Y-111088664D01*
X143569811Y-111089779D01*
X143561060Y-111095429D01*
X143554613Y-111103607D01*
X143554611Y-111103609D01*
X143540271Y-111121800D01*
X143536325Y-111126241D01*
X143536398Y-111126303D01*
X143533039Y-111130267D01*
X143529362Y-111133944D01*
X143518108Y-111149692D01*
X143514602Y-111154362D01*
X143482844Y-111194647D01*
X143479812Y-111203281D01*
X143474486Y-111210734D01*
X143471501Y-111220715D01*
X143459799Y-111259844D01*
X143457964Y-111265492D01*
X143443610Y-111306367D01*
X143440982Y-111313851D01*
X143440500Y-111319416D01*
X143440500Y-111322124D01*
X143440386Y-111324758D01*
X143440357Y-111324856D01*
X143440193Y-111324849D01*
X143440149Y-111325553D01*
X143438287Y-111331778D01*
X143439037Y-111350867D01*
X143440403Y-111385635D01*
X143440500Y-111390582D01*
X143440500Y-112660161D01*
X143420498Y-112728282D01*
X143366842Y-112774775D01*
X143296568Y-112784879D01*
X143231988Y-112755385D01*
X143225405Y-112749256D01*
X143219355Y-112743206D01*
X143213974Y-112736026D01*
X143101199Y-112651507D01*
X143092794Y-112648356D01*
X143092792Y-112648355D01*
X143086268Y-112645909D01*
X143029504Y-112603266D01*
X143004806Y-112536704D01*
X143004500Y-112527928D01*
X143004500Y-108084384D01*
X143024502Y-108016263D01*
X143041405Y-107995289D01*
X143645289Y-107391405D01*
X143707601Y-107357379D01*
X143734384Y-107354500D01*
X145344500Y-107354500D01*
X145412621Y-107374502D01*
X145459114Y-107428158D01*
X145470500Y-107480500D01*
X145470500Y-107542825D01*
X145450498Y-107610946D01*
X145420065Y-107643652D01*
X145369272Y-107681719D01*
X145356715Y-107694276D01*
X145280214Y-107796351D01*
X145271676Y-107811946D01*
X145226522Y-107932394D01*
X145222895Y-107947649D01*
X145217369Y-107998514D01*
X145217000Y-108005328D01*
X145217000Y-108031885D01*
X145221475Y-108047124D01*
X145222865Y-108048329D01*
X145230548Y-108050000D01*
X145528011Y-108050000D01*
X145598014Y-108071236D01*
X145615379Y-108082839D01*
X145615382Y-108082840D01*
X145625699Y-108089734D01*
X145637868Y-108092155D01*
X145637869Y-108092155D01*
X145692814Y-108103084D01*
X145699933Y-108104500D01*
X146599854Y-108104500D01*
X147500066Y-108104499D01*
X147574301Y-108089734D01*
X147584621Y-108082839D01*
X147584622Y-108082838D01*
X147601986Y-108071236D01*
X147671989Y-108050000D01*
X147964884Y-108050000D01*
X147980123Y-108045525D01*
X147981328Y-108044135D01*
X147982999Y-108036452D01*
X147982999Y-108005331D01*
X147982629Y-107998510D01*
X147977105Y-107947648D01*
X147973479Y-107932396D01*
X147928324Y-107811946D01*
X147919786Y-107796351D01*
X147843285Y-107694276D01*
X147830727Y-107681718D01*
X147779934Y-107643651D01*
X147737419Y-107586791D01*
X147729499Y-107542824D01*
X147729499Y-107374934D01*
X147719483Y-107324576D01*
X147719484Y-107275419D01*
X147729500Y-107225067D01*
X147729500Y-107057175D01*
X147749502Y-106989054D01*
X147779935Y-106956348D01*
X147830728Y-106918281D01*
X147843285Y-106905724D01*
X147919786Y-106803649D01*
X147928324Y-106788054D01*
X147973478Y-106667606D01*
X147977105Y-106652351D01*
X147982631Y-106601486D01*
X147983000Y-106594672D01*
X147983000Y-106568115D01*
X147978525Y-106552876D01*
X147977135Y-106551671D01*
X147969452Y-106550000D01*
X147671989Y-106550000D01*
X147601986Y-106528764D01*
X147584621Y-106517161D01*
X147584618Y-106517160D01*
X147574301Y-106510266D01*
X147562132Y-106507845D01*
X147562131Y-106507845D01*
X147506135Y-106496707D01*
X147500067Y-106495500D01*
X146600146Y-106495500D01*
X145699934Y-106495501D01*
X145625699Y-106510266D01*
X145615379Y-106517161D01*
X145615378Y-106517162D01*
X145598014Y-106528764D01*
X145528011Y-106550000D01*
X145235116Y-106550000D01*
X145216751Y-106555393D01*
X145162285Y-106590396D01*
X145126786Y-106595500D01*
X144005500Y-106595500D01*
X143937379Y-106575498D01*
X143890886Y-106521842D01*
X143879500Y-106469500D01*
X143879500Y-106084696D01*
X143899502Y-106016575D01*
X143953158Y-105970082D01*
X144023432Y-105959978D01*
X144090299Y-105991502D01*
X144112998Y-106012156D01*
X144119042Y-106017656D01*
X144258259Y-106093245D01*
X144411488Y-106133444D01*
X144495443Y-106134763D01*
X144562285Y-106135813D01*
X144562288Y-106135813D01*
X144569882Y-106135932D01*
X144724298Y-106100566D01*
X144816802Y-106054042D01*
X144859038Y-106032800D01*
X144859041Y-106032798D01*
X144865821Y-106029388D01*
X144871592Y-106024459D01*
X144871595Y-106024457D01*
X144980508Y-105931436D01*
X144980509Y-105931435D01*
X144986280Y-105926506D01*
X144990711Y-105920340D01*
X144994871Y-105914551D01*
X145050866Y-105870904D01*
X145121570Y-105864459D01*
X145184534Y-105897262D01*
X145219768Y-105958898D01*
X145222456Y-106001685D01*
X145217369Y-106048512D01*
X145217000Y-106055328D01*
X145217000Y-106081885D01*
X145221475Y-106097124D01*
X145222865Y-106098329D01*
X145230548Y-106100000D01*
X145528011Y-106100000D01*
X145598014Y-106121236D01*
X145615379Y-106132839D01*
X145615382Y-106132840D01*
X145625699Y-106139734D01*
X145637868Y-106142155D01*
X145637869Y-106142155D01*
X145688868Y-106152299D01*
X145699933Y-106154500D01*
X146599854Y-106154500D01*
X147500066Y-106154499D01*
X147574301Y-106139734D01*
X147584621Y-106132839D01*
X147584622Y-106132838D01*
X147601986Y-106121236D01*
X147671989Y-106100000D01*
X147964884Y-106100000D01*
X147980123Y-106095525D01*
X147981328Y-106094135D01*
X147982999Y-106086452D01*
X147982999Y-106055331D01*
X147982629Y-106048510D01*
X147977105Y-105997648D01*
X147973479Y-105982397D01*
X147962554Y-105953254D01*
X147957371Y-105882447D01*
X147991292Y-105820078D01*
X148053547Y-105785948D01*
X148124371Y-105790895D01*
G37*
G04 #@! TD.AperFunction*
G04 #@! TA.AperFunction,Conductor*
G36*
X145683446Y-99111950D02*
G01*
X145717575Y-99174206D01*
X145720500Y-99201195D01*
X145720500Y-99646080D01*
X145717951Y-99670028D01*
X145717872Y-99671693D01*
X145715680Y-99681876D01*
X145716904Y-99692217D01*
X145719627Y-99715223D01*
X145719977Y-99721154D01*
X145720072Y-99721146D01*
X145720500Y-99726324D01*
X145720500Y-99731524D01*
X145721354Y-99736653D01*
X145721354Y-99736656D01*
X145723669Y-99750565D01*
X145724506Y-99756443D01*
X145730530Y-99807341D01*
X145734493Y-99815593D01*
X145735996Y-99824626D01*
X145740943Y-99833795D01*
X145740944Y-99833797D01*
X145760334Y-99869732D01*
X145763031Y-99875025D01*
X145781785Y-99914082D01*
X145781788Y-99914086D01*
X145785219Y-99921232D01*
X145788814Y-99925508D01*
X145790737Y-99927431D01*
X145792509Y-99929363D01*
X145792552Y-99929442D01*
X145792428Y-99929555D01*
X145792904Y-99930095D01*
X145795990Y-99935814D01*
X145803635Y-99942881D01*
X145835586Y-99972416D01*
X145839152Y-99975846D01*
X146943711Y-101080405D01*
X146977737Y-101142717D01*
X146972672Y-101213532D01*
X146930125Y-101270368D01*
X146863605Y-101295179D01*
X146854616Y-101295500D01*
X145729024Y-101295501D01*
X145699934Y-101295501D01*
X145664182Y-101302612D01*
X145637874Y-101307844D01*
X145637872Y-101307845D01*
X145625699Y-101310266D01*
X145615379Y-101317161D01*
X145615378Y-101317162D01*
X145593060Y-101332075D01*
X145541516Y-101366516D01*
X145485266Y-101450699D01*
X145470500Y-101524933D01*
X145470501Y-102025066D01*
X145479135Y-102068476D01*
X145480516Y-102075419D01*
X145480516Y-102124579D01*
X145470500Y-102174933D01*
X145470500Y-102342825D01*
X145450498Y-102410946D01*
X145420065Y-102443652D01*
X145369272Y-102481719D01*
X145356715Y-102494276D01*
X145280214Y-102596351D01*
X145271676Y-102611946D01*
X145226522Y-102732394D01*
X145222895Y-102747649D01*
X145217369Y-102798514D01*
X145217000Y-102805328D01*
X145217000Y-102831885D01*
X145221475Y-102847124D01*
X145222865Y-102848329D01*
X145230548Y-102850000D01*
X145528011Y-102850000D01*
X145598014Y-102871236D01*
X145615379Y-102882839D01*
X145615382Y-102882840D01*
X145625699Y-102889734D01*
X145637868Y-102892155D01*
X145637869Y-102892155D01*
X145692814Y-102903084D01*
X145699933Y-102904500D01*
X145713730Y-102904500D01*
X146699002Y-102904499D01*
X146767121Y-102924501D01*
X146813614Y-102978157D01*
X146825000Y-103030499D01*
X146825000Y-103769500D01*
X146804998Y-103837621D01*
X146751342Y-103884114D01*
X146699000Y-103895500D01*
X145713735Y-103895501D01*
X145699934Y-103895501D01*
X145625699Y-103910266D01*
X145615379Y-103917161D01*
X145615378Y-103917162D01*
X145598014Y-103928764D01*
X145528011Y-103950000D01*
X145235116Y-103950000D01*
X145219877Y-103954475D01*
X145218672Y-103955865D01*
X145217001Y-103963548D01*
X145217001Y-103994669D01*
X145217371Y-104001490D01*
X145222895Y-104052352D01*
X145226521Y-104067604D01*
X145271676Y-104188054D01*
X145280214Y-104203649D01*
X145356715Y-104305724D01*
X145369273Y-104318282D01*
X145420066Y-104356349D01*
X145462581Y-104413209D01*
X145470501Y-104457174D01*
X145470501Y-104625066D01*
X145477171Y-104658602D01*
X145480516Y-104675419D01*
X145480516Y-104724578D01*
X145470500Y-104774933D01*
X145470501Y-104939926D01*
X145470501Y-104974736D01*
X145450499Y-105042857D01*
X145396844Y-105089350D01*
X145344501Y-105100737D01*
X145100648Y-105100737D01*
X145032527Y-105080735D01*
X145006080Y-105055097D01*
X145004844Y-105056186D01*
X144999821Y-105050488D01*
X144995519Y-105044229D01*
X144877241Y-104938848D01*
X144869855Y-104934937D01*
X144743954Y-104868276D01*
X144743955Y-104868276D01*
X144737240Y-104864721D01*
X144583599Y-104826129D01*
X144576000Y-104826089D01*
X144575999Y-104826089D01*
X144510147Y-104825744D01*
X144425187Y-104825299D01*
X144417807Y-104827071D01*
X144417805Y-104827071D01*
X144278529Y-104860508D01*
X144278526Y-104860509D01*
X144271150Y-104862280D01*
X144130380Y-104934937D01*
X144011005Y-105039075D01*
X143919916Y-105168681D01*
X143918093Y-105167400D01*
X143876052Y-105210079D01*
X143806793Y-105225693D01*
X143740088Y-105201385D01*
X143725739Y-105189045D01*
X142031478Y-103494784D01*
X142021060Y-103481885D01*
X145217000Y-103481885D01*
X145221475Y-103497124D01*
X145222865Y-103498329D01*
X145230548Y-103500000D01*
X146356885Y-103500000D01*
X146372124Y-103495525D01*
X146373329Y-103494135D01*
X146375000Y-103486452D01*
X146375000Y-103318115D01*
X146370525Y-103302876D01*
X146369135Y-103301671D01*
X146361452Y-103300000D01*
X145235116Y-103300000D01*
X145219877Y-103304475D01*
X145218672Y-103305865D01*
X145217001Y-103313548D01*
X145217001Y-103344669D01*
X145217371Y-103351493D01*
X145221161Y-103386393D01*
X145221161Y-103413603D01*
X145217369Y-103448510D01*
X145217000Y-103455329D01*
X145217000Y-103481885D01*
X142021060Y-103481885D01*
X142016336Y-103476036D01*
X142015221Y-103474811D01*
X142009571Y-103466060D01*
X142001393Y-103459613D01*
X142001391Y-103459611D01*
X141983200Y-103445271D01*
X141978759Y-103441325D01*
X141978697Y-103441398D01*
X141974733Y-103438039D01*
X141971056Y-103434362D01*
X141955308Y-103423108D01*
X141950638Y-103419602D01*
X141910353Y-103387844D01*
X141901719Y-103384812D01*
X141894266Y-103379486D01*
X141845150Y-103364797D01*
X141839508Y-103362964D01*
X141798633Y-103348610D01*
X141798632Y-103348610D01*
X141791149Y-103345982D01*
X141785584Y-103345500D01*
X141782876Y-103345500D01*
X141780242Y-103345386D01*
X141780144Y-103345357D01*
X141780151Y-103345193D01*
X141779447Y-103345149D01*
X141773222Y-103343287D01*
X141719365Y-103345403D01*
X141714418Y-103345500D01*
X140655500Y-103345500D01*
X140587379Y-103325498D01*
X140540886Y-103271842D01*
X140529500Y-103219500D01*
X140529499Y-102831123D01*
X140529499Y-102824934D01*
X140519483Y-102774576D01*
X140519484Y-102725421D01*
X140529500Y-102675067D01*
X140529499Y-102280499D01*
X140549501Y-102212380D01*
X140603156Y-102165887D01*
X140655499Y-102154500D01*
X141658580Y-102154500D01*
X141682528Y-102157049D01*
X141684193Y-102157128D01*
X141694376Y-102159320D01*
X141704717Y-102158096D01*
X141727723Y-102155373D01*
X141733654Y-102155023D01*
X141733646Y-102154928D01*
X141738824Y-102154500D01*
X141744024Y-102154500D01*
X141749153Y-102153646D01*
X141749156Y-102153646D01*
X141763065Y-102151331D01*
X141768943Y-102150494D01*
X141809501Y-102145694D01*
X141809502Y-102145694D01*
X141819841Y-102144470D01*
X141828093Y-102140507D01*
X141837126Y-102139004D01*
X141846295Y-102134057D01*
X141846297Y-102134056D01*
X141882232Y-102114666D01*
X141887525Y-102111969D01*
X141926582Y-102093215D01*
X141926586Y-102093212D01*
X141933732Y-102089781D01*
X141938008Y-102086186D01*
X141939931Y-102084263D01*
X141941863Y-102082491D01*
X141941942Y-102082448D01*
X141942055Y-102082572D01*
X141942595Y-102082096D01*
X141948314Y-102079010D01*
X141958052Y-102068476D01*
X141984916Y-102039414D01*
X141988346Y-102035848D01*
X144857789Y-99166405D01*
X144920101Y-99132379D01*
X144946884Y-99129500D01*
X145384070Y-99129500D01*
X145444236Y-99122964D01*
X145550271Y-99083213D01*
X145621077Y-99078030D01*
X145683446Y-99111950D01*
G37*
G04 #@! TD.AperFunction*
G04 #@! TA.AperFunction,Conductor*
G36*
X146088532Y-93239828D02*
G01*
X146145368Y-93282375D01*
X146170179Y-93348895D01*
X146170500Y-93357884D01*
X146170500Y-93884070D01*
X146177036Y-93944236D01*
X146179810Y-93951635D01*
X146220910Y-94061268D01*
X146226507Y-94076199D01*
X146311026Y-94188974D01*
X146423801Y-94273493D01*
X146432202Y-94276642D01*
X146432203Y-94276643D01*
X146451231Y-94283776D01*
X146507995Y-94326419D01*
X146532694Y-94392980D01*
X146533000Y-94401758D01*
X146533000Y-97392116D01*
X146512998Y-97460237D01*
X146459342Y-97506730D01*
X146389068Y-97516834D01*
X146324488Y-97487340D01*
X146317905Y-97481211D01*
X146006478Y-97169784D01*
X145991336Y-97151036D01*
X145990221Y-97149811D01*
X145984571Y-97141060D01*
X145976393Y-97134613D01*
X145976391Y-97134611D01*
X145958200Y-97120271D01*
X145953759Y-97116325D01*
X145953697Y-97116398D01*
X145949733Y-97113039D01*
X145946056Y-97109362D01*
X145930308Y-97098108D01*
X145925638Y-97094602D01*
X145885353Y-97062844D01*
X145876719Y-97059812D01*
X145869266Y-97054486D01*
X145820150Y-97039797D01*
X145814508Y-97037964D01*
X145773633Y-97023610D01*
X145773632Y-97023610D01*
X145766149Y-97020982D01*
X145760584Y-97020500D01*
X145757876Y-97020500D01*
X145755242Y-97020386D01*
X145755144Y-97020357D01*
X145755151Y-97020193D01*
X145754447Y-97020149D01*
X145748222Y-97018287D01*
X145694365Y-97020403D01*
X145689418Y-97020500D01*
X143503920Y-97020500D01*
X143479972Y-97017951D01*
X143478307Y-97017872D01*
X143468124Y-97015680D01*
X143457783Y-97016904D01*
X143434777Y-97019627D01*
X143428846Y-97019977D01*
X143428854Y-97020072D01*
X143423676Y-97020500D01*
X143418476Y-97020500D01*
X143413347Y-97021354D01*
X143413344Y-97021354D01*
X143399435Y-97023669D01*
X143393557Y-97024506D01*
X143352999Y-97029306D01*
X143352998Y-97029306D01*
X143342659Y-97030530D01*
X143334407Y-97034493D01*
X143325374Y-97035996D01*
X143316205Y-97040943D01*
X143316203Y-97040944D01*
X143280268Y-97060334D01*
X143274975Y-97063031D01*
X143235918Y-97081785D01*
X143235914Y-97081788D01*
X143228768Y-97085219D01*
X143224492Y-97088814D01*
X143222569Y-97090737D01*
X143220637Y-97092509D01*
X143220558Y-97092552D01*
X143220445Y-97092428D01*
X143219905Y-97092904D01*
X143214186Y-97095990D01*
X143207119Y-97103635D01*
X143177584Y-97135586D01*
X143174180Y-97139126D01*
X142496320Y-97816986D01*
X142434011Y-97851009D01*
X142363196Y-97845945D01*
X142318724Y-97817364D01*
X142313974Y-97811026D01*
X142201199Y-97726507D01*
X142192798Y-97723357D01*
X142192795Y-97723356D01*
X142088898Y-97684407D01*
X142069236Y-97677036D01*
X142009070Y-97670500D01*
X141415930Y-97670500D01*
X141355764Y-97677036D01*
X141336102Y-97684407D01*
X141232205Y-97723356D01*
X141232202Y-97723357D01*
X141223801Y-97726507D01*
X141111026Y-97811026D01*
X141026507Y-97923801D01*
X141023357Y-97932202D01*
X141023356Y-97932205D01*
X141004161Y-97983408D01*
X140977036Y-98055764D01*
X140970500Y-98115930D01*
X140970500Y-98684070D01*
X140977036Y-98744236D01*
X140986496Y-98769470D01*
X141016538Y-98849606D01*
X141026507Y-98876199D01*
X141111026Y-98988974D01*
X141223801Y-99073493D01*
X141232202Y-99076643D01*
X141232205Y-99076644D01*
X141305295Y-99104044D01*
X141355764Y-99122964D01*
X141415930Y-99129500D01*
X142009070Y-99129500D01*
X142069236Y-99122964D01*
X142119705Y-99104044D01*
X142192795Y-99076644D01*
X142192798Y-99076643D01*
X142201199Y-99073493D01*
X142313974Y-98988974D01*
X142360319Y-98927135D01*
X142393110Y-98883382D01*
X142393111Y-98883381D01*
X142398493Y-98876199D01*
X142406042Y-98856063D01*
X142448681Y-98799300D01*
X142509214Y-98775166D01*
X142547000Y-98770694D01*
X142547001Y-98770694D01*
X142557341Y-98769470D01*
X142565593Y-98765507D01*
X142574626Y-98764004D01*
X142583795Y-98759057D01*
X142583797Y-98759056D01*
X142619732Y-98739666D01*
X142625025Y-98736969D01*
X142664082Y-98718215D01*
X142664086Y-98718212D01*
X142671232Y-98714781D01*
X142675508Y-98711186D01*
X142677431Y-98709263D01*
X142679363Y-98707491D01*
X142679442Y-98707448D01*
X142679555Y-98707572D01*
X142680095Y-98707096D01*
X142685814Y-98704010D01*
X142702606Y-98685845D01*
X142722416Y-98664414D01*
X142725846Y-98660848D01*
X143570289Y-97816405D01*
X143632601Y-97782379D01*
X143659384Y-97779500D01*
X144273805Y-97779500D01*
X144341926Y-97799502D01*
X144388419Y-97853158D01*
X144398523Y-97923432D01*
X144391788Y-97949727D01*
X144352036Y-98055764D01*
X144345500Y-98115930D01*
X144345500Y-98553115D01*
X144325498Y-98621236D01*
X144308595Y-98642210D01*
X141592211Y-101358595D01*
X141529899Y-101392621D01*
X141503116Y-101395500D01*
X140536235Y-101395500D01*
X140468114Y-101375498D01*
X140460252Y-101369162D01*
X140458484Y-101366516D01*
X140374301Y-101310266D01*
X140300067Y-101295500D01*
X140293880Y-101295500D01*
X139352443Y-101295501D01*
X138505500Y-101295501D01*
X138437379Y-101275499D01*
X138390886Y-101221843D01*
X138379500Y-101169501D01*
X138379500Y-100359384D01*
X138399502Y-100291263D01*
X138416405Y-100270289D01*
X139520289Y-99166405D01*
X139582601Y-99132379D01*
X139609384Y-99129500D01*
X140184070Y-99129500D01*
X140244236Y-99122964D01*
X140294705Y-99104044D01*
X140367795Y-99076644D01*
X140367798Y-99076643D01*
X140376199Y-99073493D01*
X140488974Y-98988974D01*
X140573493Y-98876199D01*
X140583463Y-98849606D01*
X140613504Y-98769470D01*
X140622964Y-98744236D01*
X140629500Y-98684070D01*
X140629500Y-98115930D01*
X140622964Y-98055764D01*
X140595839Y-97983408D01*
X140576644Y-97932205D01*
X140576643Y-97932202D01*
X140573493Y-97923801D01*
X140488974Y-97811026D01*
X140376199Y-97726507D01*
X140367798Y-97723357D01*
X140367795Y-97723356D01*
X140263898Y-97684407D01*
X140244236Y-97677036D01*
X140184070Y-97670500D01*
X139590930Y-97670500D01*
X139530764Y-97677036D01*
X139511102Y-97684407D01*
X139407205Y-97723356D01*
X139407202Y-97723357D01*
X139398801Y-97726507D01*
X139286026Y-97811026D01*
X139201507Y-97923801D01*
X139198357Y-97932202D01*
X139198356Y-97932205D01*
X139179161Y-97983408D01*
X139152036Y-98055764D01*
X139145500Y-98115930D01*
X139145500Y-98415616D01*
X139125498Y-98483737D01*
X139108595Y-98504711D01*
X137994595Y-99618711D01*
X137932283Y-99652737D01*
X137861468Y-99647672D01*
X137804632Y-99605125D01*
X137779821Y-99538605D01*
X137779500Y-99529616D01*
X137779500Y-98896884D01*
X137799502Y-98828763D01*
X137816405Y-98807789D01*
X139857789Y-96766405D01*
X139920101Y-96732379D01*
X139946884Y-96729500D01*
X140184070Y-96729500D01*
X140244236Y-96722964D01*
X140289387Y-96706037D01*
X140367795Y-96676644D01*
X140367798Y-96676643D01*
X140376199Y-96673493D01*
X140488974Y-96588974D01*
X140573493Y-96476199D01*
X140588521Y-96436114D01*
X140620190Y-96351635D01*
X140622964Y-96344236D01*
X140629500Y-96284070D01*
X140629500Y-95757884D01*
X140649502Y-95689763D01*
X140703158Y-95643270D01*
X140773432Y-95633166D01*
X140838012Y-95662660D01*
X140844595Y-95668789D01*
X140933595Y-95757789D01*
X140967621Y-95820101D01*
X140970500Y-95846884D01*
X140970500Y-96284070D01*
X140977036Y-96344236D01*
X140979810Y-96351635D01*
X141011480Y-96436114D01*
X141026507Y-96476199D01*
X141111026Y-96588974D01*
X141223801Y-96673493D01*
X141232202Y-96676643D01*
X141232205Y-96676644D01*
X141310613Y-96706037D01*
X141355764Y-96722964D01*
X141415930Y-96729500D01*
X142009070Y-96729500D01*
X142069236Y-96722964D01*
X142114387Y-96706037D01*
X142192795Y-96676644D01*
X142192798Y-96676643D01*
X142201199Y-96673493D01*
X142313974Y-96588974D01*
X142398493Y-96476199D01*
X142413521Y-96436114D01*
X142445190Y-96351635D01*
X142447964Y-96344236D01*
X142454500Y-96284070D01*
X142454500Y-95715930D01*
X142447964Y-95655764D01*
X142398493Y-95523801D01*
X142313974Y-95411026D01*
X142201199Y-95326507D01*
X142192798Y-95323357D01*
X142192795Y-95323356D01*
X142114387Y-95293963D01*
X142069236Y-95277036D01*
X142009070Y-95270500D01*
X141571884Y-95270500D01*
X141503763Y-95250498D01*
X141482789Y-95233595D01*
X141066405Y-94817211D01*
X141032379Y-94754899D01*
X141029500Y-94728116D01*
X141029500Y-94401195D01*
X141049502Y-94333074D01*
X141103158Y-94286581D01*
X141173432Y-94276477D01*
X141199727Y-94283212D01*
X141305764Y-94322964D01*
X141365930Y-94329500D01*
X141959070Y-94329500D01*
X142019236Y-94322964D01*
X142064387Y-94306037D01*
X142142795Y-94276644D01*
X142142798Y-94276643D01*
X142151199Y-94273493D01*
X142263974Y-94188974D01*
X142348493Y-94076199D01*
X142351645Y-94067792D01*
X142354091Y-94061268D01*
X142396734Y-94004504D01*
X142463296Y-93979806D01*
X142472072Y-93979500D01*
X144277928Y-93979500D01*
X144346049Y-93999502D01*
X144392542Y-94053158D01*
X144395909Y-94061268D01*
X144398355Y-94067792D01*
X144401507Y-94076199D01*
X144486026Y-94188974D01*
X144598801Y-94273493D01*
X144607202Y-94276643D01*
X144607205Y-94276644D01*
X144685613Y-94306037D01*
X144730764Y-94322964D01*
X144790930Y-94329500D01*
X145384070Y-94329500D01*
X145444236Y-94322964D01*
X145489387Y-94306037D01*
X145567795Y-94276644D01*
X145567798Y-94276643D01*
X145576199Y-94273493D01*
X145688974Y-94188974D01*
X145773493Y-94076199D01*
X145779091Y-94061268D01*
X145820190Y-93951635D01*
X145822964Y-93944236D01*
X145829500Y-93884070D01*
X145829500Y-93446884D01*
X145849502Y-93378763D01*
X145866405Y-93357789D01*
X145955405Y-93268789D01*
X146017717Y-93234763D01*
X146088532Y-93239828D01*
G37*
G04 #@! TD.AperFunction*
G04 #@! TA.AperFunction,Conductor*
G36*
X148988012Y-90937359D02*
G01*
X149003143Y-90952948D01*
X149030065Y-90985958D01*
X149039038Y-90994931D01*
X149179976Y-91109877D01*
X149190577Y-91116867D01*
X149282260Y-91164798D01*
X149333361Y-91214084D01*
X149349705Y-91283174D01*
X149326101Y-91350132D01*
X149289157Y-91384234D01*
X149283605Y-91387597D01*
X149277106Y-91391533D01*
X149156533Y-91512106D01*
X149068201Y-91657959D01*
X149065930Y-91665206D01*
X149065929Y-91665208D01*
X149023532Y-91800498D01*
X149017210Y-91820672D01*
X149010500Y-91893694D01*
X149010500Y-92906306D01*
X149017210Y-92979328D01*
X149019211Y-92985712D01*
X149019211Y-92985714D01*
X149065120Y-93132208D01*
X149068201Y-93142041D01*
X149156533Y-93287894D01*
X149277106Y-93408467D01*
X149283602Y-93412401D01*
X149404537Y-93485642D01*
X149422959Y-93496799D01*
X149430206Y-93499070D01*
X149430208Y-93499071D01*
X149468201Y-93510977D01*
X149584373Y-93547383D01*
X149585672Y-93547790D01*
X149585598Y-93548026D01*
X149645470Y-93579444D01*
X149680520Y-93641185D01*
X149676626Y-93712075D01*
X149635025Y-93769606D01*
X149585654Y-93792153D01*
X149585672Y-93792210D01*
X149585215Y-93792353D01*
X149585214Y-93792354D01*
X149510762Y-93815685D01*
X149430208Y-93840929D01*
X149430206Y-93840930D01*
X149422959Y-93843201D01*
X149416464Y-93847135D01*
X149416463Y-93847135D01*
X149361119Y-93880653D01*
X149277106Y-93931533D01*
X149156533Y-94052106D01*
X149152599Y-94058602D01*
X149073643Y-94188974D01*
X149068201Y-94197959D01*
X149065930Y-94205206D01*
X149065929Y-94205208D01*
X149019211Y-94354286D01*
X149017210Y-94360672D01*
X149010500Y-94433694D01*
X149010500Y-95446306D01*
X149017210Y-95519328D01*
X149019211Y-95525712D01*
X149019211Y-95525714D01*
X149057648Y-95648365D01*
X149068201Y-95682041D01*
X149072135Y-95688536D01*
X149072135Y-95688537D01*
X149086668Y-95712533D01*
X149156533Y-95827894D01*
X149277106Y-95948467D01*
X149283602Y-95952401D01*
X149404537Y-96025642D01*
X149422959Y-96036799D01*
X149430206Y-96039070D01*
X149430208Y-96039071D01*
X149468201Y-96050977D01*
X149584373Y-96087383D01*
X149585672Y-96087790D01*
X149585598Y-96088026D01*
X149645470Y-96119444D01*
X149680520Y-96181185D01*
X149676626Y-96252075D01*
X149635025Y-96309606D01*
X149585654Y-96332153D01*
X149585672Y-96332210D01*
X149585215Y-96332353D01*
X149585214Y-96332354D01*
X149547297Y-96344236D01*
X149430208Y-96380929D01*
X149430206Y-96380930D01*
X149422959Y-96383201D01*
X149416464Y-96387135D01*
X149416463Y-96387135D01*
X149350032Y-96427367D01*
X149277106Y-96471533D01*
X149156533Y-96592106D01*
X149068201Y-96737959D01*
X149065930Y-96745206D01*
X149065929Y-96745208D01*
X149019211Y-96894286D01*
X149017210Y-96900672D01*
X149010500Y-96973694D01*
X149010500Y-97986306D01*
X149017210Y-98059328D01*
X149019211Y-98065712D01*
X149019211Y-98065714D01*
X149036019Y-98119347D01*
X149068201Y-98222041D01*
X149156533Y-98367894D01*
X149277106Y-98488467D01*
X149283602Y-98492401D01*
X149404537Y-98565642D01*
X149422959Y-98576799D01*
X149430206Y-98579070D01*
X149430208Y-98579071D01*
X149468201Y-98590977D01*
X149584373Y-98627383D01*
X149585672Y-98627790D01*
X149585598Y-98628026D01*
X149645470Y-98659444D01*
X149680520Y-98721185D01*
X149676626Y-98792075D01*
X149635025Y-98849606D01*
X149585654Y-98872153D01*
X149585672Y-98872210D01*
X149585215Y-98872353D01*
X149585214Y-98872354D01*
X149550022Y-98883382D01*
X149430208Y-98920929D01*
X149430206Y-98920930D01*
X149422959Y-98923201D01*
X149416464Y-98927135D01*
X149416463Y-98927135D01*
X149383814Y-98946908D01*
X149277106Y-99011533D01*
X149156533Y-99132106D01*
X149068201Y-99277959D01*
X149017210Y-99440672D01*
X149010500Y-99513694D01*
X149010500Y-100507116D01*
X148990498Y-100575237D01*
X148936842Y-100621730D01*
X148866568Y-100631834D01*
X148801988Y-100602340D01*
X148795405Y-100596211D01*
X147430505Y-99231311D01*
X147396479Y-99168999D01*
X147401544Y-99098184D01*
X147444036Y-99041389D01*
X147506794Y-98994355D01*
X147513974Y-98988974D01*
X147598493Y-98876199D01*
X147608463Y-98849606D01*
X147638504Y-98769470D01*
X147647964Y-98744236D01*
X147654500Y-98684070D01*
X147654500Y-98115930D01*
X147647964Y-98055764D01*
X147620839Y-97983408D01*
X147601644Y-97932205D01*
X147601643Y-97932202D01*
X147598493Y-97923801D01*
X147513974Y-97811026D01*
X147401199Y-97726507D01*
X147392798Y-97723358D01*
X147392797Y-97723357D01*
X147373769Y-97716224D01*
X147317005Y-97673581D01*
X147292306Y-97607020D01*
X147292000Y-97598242D01*
X147292000Y-94401758D01*
X147312002Y-94333637D01*
X147365658Y-94287144D01*
X147373769Y-94283776D01*
X147392797Y-94276643D01*
X147392798Y-94276642D01*
X147401199Y-94273493D01*
X147513974Y-94188974D01*
X147598493Y-94076199D01*
X147604091Y-94061268D01*
X147645190Y-93951635D01*
X147647964Y-93944236D01*
X147654500Y-93884070D01*
X147654500Y-93315930D01*
X147647964Y-93255764D01*
X147625370Y-93195496D01*
X147601644Y-93132205D01*
X147601643Y-93132202D01*
X147598493Y-93123801D01*
X147513974Y-93011026D01*
X147401199Y-92926507D01*
X147392798Y-92923357D01*
X147392795Y-92923356D01*
X147302259Y-92889416D01*
X147269236Y-92877036D01*
X147209070Y-92870500D01*
X146657884Y-92870500D01*
X146589763Y-92850498D01*
X146543270Y-92796842D01*
X146533166Y-92726568D01*
X146562660Y-92661988D01*
X146568789Y-92655405D01*
X147142716Y-92081478D01*
X147161464Y-92066336D01*
X147162689Y-92065221D01*
X147171440Y-92059571D01*
X147177887Y-92051393D01*
X147177889Y-92051391D01*
X147192229Y-92033200D01*
X147196175Y-92028759D01*
X147196102Y-92028697D01*
X147199461Y-92024733D01*
X147203138Y-92021056D01*
X147214392Y-92005308D01*
X147217898Y-92000638D01*
X147249656Y-91960353D01*
X147252688Y-91951719D01*
X147258014Y-91944266D01*
X147272703Y-91895150D01*
X147274536Y-91889508D01*
X147288890Y-91848633D01*
X147288890Y-91848632D01*
X147291518Y-91841149D01*
X147292000Y-91835584D01*
X147292000Y-91832876D01*
X147292114Y-91830242D01*
X147292143Y-91830144D01*
X147292307Y-91830151D01*
X147292351Y-91829447D01*
X147294213Y-91823222D01*
X147293543Y-91806161D01*
X147310856Y-91737308D01*
X147362646Y-91688745D01*
X147375215Y-91683235D01*
X147392791Y-91676646D01*
X147392797Y-91676643D01*
X147401199Y-91673493D01*
X147513974Y-91588974D01*
X147598493Y-91476199D01*
X147601645Y-91467792D01*
X147604091Y-91461268D01*
X147646734Y-91404504D01*
X147713296Y-91379806D01*
X147722072Y-91379500D01*
X148377854Y-91379500D01*
X148388727Y-91379970D01*
X148430187Y-91383561D01*
X148472221Y-91373120D01*
X148481906Y-91371114D01*
X148524626Y-91364004D01*
X148533793Y-91359058D01*
X148538300Y-91357515D01*
X148542693Y-91355614D01*
X148552801Y-91353103D01*
X148589193Y-91329605D01*
X148597681Y-91324585D01*
X148635814Y-91304010D01*
X148642886Y-91296359D01*
X148646657Y-91293434D01*
X148650187Y-91290222D01*
X148658940Y-91284571D01*
X148685767Y-91250541D01*
X148692167Y-91243047D01*
X148721574Y-91211235D01*
X148725787Y-91201705D01*
X148728412Y-91197708D01*
X148730708Y-91193531D01*
X148737156Y-91185353D01*
X148751508Y-91144485D01*
X148755150Y-91135287D01*
X148768448Y-91105209D01*
X148768449Y-91105207D01*
X148772659Y-91095683D01*
X148773558Y-91085308D01*
X148775536Y-91077604D01*
X148776393Y-91073625D01*
X148779018Y-91066149D01*
X148779500Y-91060584D01*
X148779500Y-91032583D01*
X148799502Y-90964462D01*
X148853158Y-90917969D01*
X148923432Y-90907865D01*
X148988012Y-90937359D01*
G37*
G04 #@! TD.AperFunction*
G04 #@! TA.AperFunction,Conductor*
G36*
X147227237Y-76020002D02*
G01*
X147273730Y-76073658D01*
X147283834Y-76143932D01*
X147254340Y-76208512D01*
X147248211Y-76215095D01*
X147079711Y-76383595D01*
X147017399Y-76417621D01*
X146990616Y-76420500D01*
X145053925Y-76420500D01*
X145029967Y-76417950D01*
X145028308Y-76417872D01*
X145018124Y-76415679D01*
X145007782Y-76416903D01*
X145007779Y-76416903D01*
X144984779Y-76419626D01*
X144978848Y-76419976D01*
X144978856Y-76420072D01*
X144973680Y-76420500D01*
X144968476Y-76420500D01*
X144949412Y-76423673D01*
X144943566Y-76424504D01*
X144937619Y-76425208D01*
X144892659Y-76430530D01*
X144884407Y-76434493D01*
X144875374Y-76435996D01*
X144866205Y-76440943D01*
X144866203Y-76440944D01*
X144830268Y-76460334D01*
X144824976Y-76463031D01*
X144778768Y-76485219D01*
X144774493Y-76488813D01*
X144772568Y-76490738D01*
X144770638Y-76492509D01*
X144770553Y-76492555D01*
X144770441Y-76492432D01*
X144769906Y-76492904D01*
X144764186Y-76495990D01*
X144757119Y-76503635D01*
X144727584Y-76535586D01*
X144724154Y-76539152D01*
X143169784Y-78093522D01*
X143151036Y-78108664D01*
X143149811Y-78109779D01*
X143141060Y-78115429D01*
X143134613Y-78123607D01*
X143134611Y-78123609D01*
X143120271Y-78141800D01*
X143116325Y-78146241D01*
X143116398Y-78146303D01*
X143113039Y-78150267D01*
X143109362Y-78153944D01*
X143098108Y-78169692D01*
X143094602Y-78174362D01*
X143062844Y-78214647D01*
X143059812Y-78223281D01*
X143054486Y-78230734D01*
X143051501Y-78240715D01*
X143039799Y-78279844D01*
X143037964Y-78285492D01*
X143020982Y-78333851D01*
X143020500Y-78339416D01*
X143020500Y-78342124D01*
X143020386Y-78344758D01*
X143020357Y-78344856D01*
X143020193Y-78344849D01*
X143020149Y-78345553D01*
X143018287Y-78351778D01*
X143018696Y-78362183D01*
X143020403Y-78405635D01*
X143020500Y-78410582D01*
X143020500Y-89103116D01*
X143000498Y-89171237D01*
X142983595Y-89192211D01*
X141942211Y-90233595D01*
X141879899Y-90267621D01*
X141853116Y-90270500D01*
X141365930Y-90270500D01*
X141305764Y-90277036D01*
X141281762Y-90286034D01*
X141182205Y-90323356D01*
X141182202Y-90323357D01*
X141173801Y-90326507D01*
X141061026Y-90411026D01*
X140976507Y-90523801D01*
X140973357Y-90532202D01*
X140973356Y-90532205D01*
X140947754Y-90600498D01*
X140927036Y-90655764D01*
X140920500Y-90715930D01*
X140920500Y-91284070D01*
X140927036Y-91344236D01*
X140929810Y-91351635D01*
X140970910Y-91461268D01*
X140976507Y-91476199D01*
X141061026Y-91588974D01*
X141173701Y-91673418D01*
X141173702Y-91673419D01*
X141173801Y-91673493D01*
X141173790Y-91673507D01*
X141220704Y-91720522D01*
X141235721Y-91789912D01*
X141210839Y-91856406D01*
X141181148Y-91884077D01*
X141178768Y-91885220D01*
X141174492Y-91888814D01*
X141172553Y-91890753D01*
X141170641Y-91892507D01*
X141170551Y-91892556D01*
X141170439Y-91892433D01*
X141169904Y-91892905D01*
X141164186Y-91895990D01*
X141157119Y-91903635D01*
X141127584Y-91935586D01*
X141124154Y-91939152D01*
X140419784Y-92643522D01*
X140401036Y-92658664D01*
X140399811Y-92659779D01*
X140391060Y-92665429D01*
X140384613Y-92673607D01*
X140384611Y-92673609D01*
X140370271Y-92691800D01*
X140366325Y-92696241D01*
X140366398Y-92696303D01*
X140363039Y-92700267D01*
X140359362Y-92703944D01*
X140348108Y-92719692D01*
X140344602Y-92724362D01*
X140312844Y-92764647D01*
X140309812Y-92773281D01*
X140304486Y-92780734D01*
X140301501Y-92790714D01*
X140296922Y-92800062D01*
X140294300Y-92798778D01*
X140264489Y-92844654D01*
X140199761Y-92873821D01*
X140168851Y-92874278D01*
X140137469Y-92870869D01*
X140137465Y-92870869D01*
X140134070Y-92870500D01*
X139696884Y-92870500D01*
X139628763Y-92850498D01*
X139607789Y-92833595D01*
X139016405Y-92242211D01*
X138982379Y-92179899D01*
X138979500Y-92153116D01*
X138979500Y-91624910D01*
X138999502Y-91556789D01*
X139053158Y-91510296D01*
X139123432Y-91500192D01*
X139188012Y-91529686D01*
X139206326Y-91549345D01*
X139236026Y-91588974D01*
X139348801Y-91673493D01*
X139357202Y-91676643D01*
X139357205Y-91676644D01*
X139389485Y-91688745D01*
X139480764Y-91722964D01*
X139540930Y-91729500D01*
X140134070Y-91729500D01*
X140194236Y-91722964D01*
X140285515Y-91688745D01*
X140317795Y-91676644D01*
X140317798Y-91676643D01*
X140326199Y-91673493D01*
X140438974Y-91588974D01*
X140523493Y-91476199D01*
X140529091Y-91461268D01*
X140570190Y-91351635D01*
X140572964Y-91344236D01*
X140579500Y-91284070D01*
X140579500Y-90715930D01*
X140572964Y-90655764D01*
X140552246Y-90600498D01*
X140526644Y-90532205D01*
X140526643Y-90532202D01*
X140523493Y-90523801D01*
X140438974Y-90411026D01*
X140326199Y-90326507D01*
X140317794Y-90323356D01*
X140317792Y-90323355D01*
X140311268Y-90320909D01*
X140254504Y-90278266D01*
X140229806Y-90211704D01*
X140229500Y-90202928D01*
X140229500Y-89397072D01*
X140249502Y-89328951D01*
X140303158Y-89282458D01*
X140311268Y-89279091D01*
X140317792Y-89276645D01*
X140317794Y-89276644D01*
X140326199Y-89273493D01*
X140438974Y-89188974D01*
X140452267Y-89171237D01*
X140505695Y-89099948D01*
X140562554Y-89057433D01*
X140633372Y-89052407D01*
X140695666Y-89086467D01*
X140726044Y-89135636D01*
X140730485Y-89148948D01*
X140736653Y-89162115D01*
X140820426Y-89297492D01*
X140829460Y-89308890D01*
X140942129Y-89421363D01*
X140953540Y-89430375D01*
X141089063Y-89513912D01*
X141102241Y-89520056D01*
X141253766Y-89570315D01*
X141267132Y-89573181D01*
X141359770Y-89582672D01*
X141366185Y-89583000D01*
X141390385Y-89583000D01*
X141405624Y-89578525D01*
X141406829Y-89577135D01*
X141408500Y-89569452D01*
X141408500Y-89564885D01*
X141916500Y-89564885D01*
X141920975Y-89580124D01*
X141922365Y-89581329D01*
X141930048Y-89583000D01*
X141958766Y-89583000D01*
X141965282Y-89582663D01*
X142059132Y-89572925D01*
X142072528Y-89570032D01*
X142223953Y-89519512D01*
X142237115Y-89513347D01*
X142372492Y-89429574D01*
X142383890Y-89420540D01*
X142496363Y-89307871D01*
X142505375Y-89296460D01*
X142588912Y-89160937D01*
X142595056Y-89147759D01*
X142645315Y-88996234D01*
X142648181Y-88982868D01*
X142657672Y-88890230D01*
X142658000Y-88883815D01*
X142658000Y-88872115D01*
X142653525Y-88856876D01*
X142652135Y-88855671D01*
X142644452Y-88854000D01*
X141934615Y-88854000D01*
X141919376Y-88858475D01*
X141918171Y-88859865D01*
X141916500Y-88867548D01*
X141916500Y-89564885D01*
X141408500Y-89564885D01*
X141408500Y-88327885D01*
X141916500Y-88327885D01*
X141920975Y-88343124D01*
X141922365Y-88344329D01*
X141930048Y-88346000D01*
X142639885Y-88346000D01*
X142655124Y-88341525D01*
X142656329Y-88340135D01*
X142658000Y-88332452D01*
X142658000Y-88316234D01*
X142657663Y-88309718D01*
X142647925Y-88215868D01*
X142645032Y-88202472D01*
X142594512Y-88051047D01*
X142588347Y-88037885D01*
X142504574Y-87902508D01*
X142495540Y-87891110D01*
X142382871Y-87778637D01*
X142371460Y-87769625D01*
X142235937Y-87686088D01*
X142222759Y-87679944D01*
X142071234Y-87629685D01*
X142057868Y-87626819D01*
X141965230Y-87617328D01*
X141958815Y-87617000D01*
X141934615Y-87617000D01*
X141919376Y-87621475D01*
X141918171Y-87622865D01*
X141916500Y-87630548D01*
X141916500Y-88327885D01*
X141408500Y-88327885D01*
X141408500Y-87635115D01*
X141404025Y-87619876D01*
X141402635Y-87618671D01*
X141394952Y-87617000D01*
X141366234Y-87617000D01*
X141359718Y-87617337D01*
X141265868Y-87627075D01*
X141252472Y-87629968D01*
X141101047Y-87680488D01*
X141087885Y-87686653D01*
X140952508Y-87770426D01*
X140941110Y-87779460D01*
X140828637Y-87892129D01*
X140819625Y-87903540D01*
X140736088Y-88039063D01*
X140729946Y-88052236D01*
X140726029Y-88064044D01*
X140685597Y-88122403D01*
X140620033Y-88149639D01*
X140550151Y-88137105D01*
X140505611Y-88099940D01*
X140438974Y-88011026D01*
X140326199Y-87926507D01*
X140317794Y-87923356D01*
X140317792Y-87923355D01*
X140311268Y-87920909D01*
X140254504Y-87878266D01*
X140229806Y-87811704D01*
X140229500Y-87802928D01*
X140229500Y-86986235D01*
X140249502Y-86918114D01*
X140266405Y-86897140D01*
X140273168Y-86890377D01*
X140283484Y-86883484D01*
X140339734Y-86799301D01*
X140350601Y-86744669D01*
X140892001Y-86744669D01*
X140892371Y-86751490D01*
X140897895Y-86802352D01*
X140901521Y-86817604D01*
X140946676Y-86938054D01*
X140955214Y-86953649D01*
X141031715Y-87055724D01*
X141044276Y-87068285D01*
X141146351Y-87144786D01*
X141161946Y-87153324D01*
X141282394Y-87198478D01*
X141297649Y-87202105D01*
X141348514Y-87207631D01*
X141355328Y-87208000D01*
X141427885Y-87208000D01*
X141443124Y-87203525D01*
X141444329Y-87202135D01*
X141446000Y-87194452D01*
X141446000Y-87189884D01*
X141954000Y-87189884D01*
X141958475Y-87205123D01*
X141959865Y-87206328D01*
X141967548Y-87207999D01*
X142044669Y-87207999D01*
X142051490Y-87207629D01*
X142102352Y-87202105D01*
X142117604Y-87198479D01*
X142238054Y-87153324D01*
X142253649Y-87144786D01*
X142355724Y-87068285D01*
X142368285Y-87055724D01*
X142444786Y-86953649D01*
X142453324Y-86938054D01*
X142498478Y-86817606D01*
X142502105Y-86802351D01*
X142507631Y-86751486D01*
X142508000Y-86744672D01*
X142508000Y-86322115D01*
X142503525Y-86306876D01*
X142502135Y-86305671D01*
X142494452Y-86304000D01*
X141972115Y-86304000D01*
X141956876Y-86308475D01*
X141955671Y-86309865D01*
X141954000Y-86317548D01*
X141954000Y-87189884D01*
X141446000Y-87189884D01*
X141446000Y-86322115D01*
X141441525Y-86306876D01*
X141440135Y-86305671D01*
X141432452Y-86304000D01*
X140910116Y-86304000D01*
X140894877Y-86308475D01*
X140893672Y-86309865D01*
X140892001Y-86317548D01*
X140892001Y-86744669D01*
X140350601Y-86744669D01*
X140354500Y-86725067D01*
X140354499Y-85374934D01*
X140339734Y-85300699D01*
X140328181Y-85283408D01*
X140290377Y-85226832D01*
X140283484Y-85216516D01*
X140199301Y-85160266D01*
X140125067Y-85145500D01*
X139800053Y-85145500D01*
X139474934Y-85145501D01*
X139439182Y-85152612D01*
X139412874Y-85157844D01*
X139412872Y-85157845D01*
X139400699Y-85160266D01*
X139390379Y-85167161D01*
X139390378Y-85167162D01*
X139329985Y-85207516D01*
X139316516Y-85216516D01*
X139260266Y-85300699D01*
X139245500Y-85374933D01*
X139245501Y-86725066D01*
X139260266Y-86799301D01*
X139267161Y-86809620D01*
X139267162Y-86809622D01*
X139272496Y-86817604D01*
X139316516Y-86883484D01*
X139397026Y-86937279D01*
X139397025Y-86937279D01*
X139400699Y-86939734D01*
X139400479Y-86940063D01*
X139447997Y-86978353D01*
X139470500Y-87050216D01*
X139470500Y-87793556D01*
X139450498Y-87861677D01*
X139396842Y-87908170D01*
X139388730Y-87911538D01*
X139357205Y-87923356D01*
X139357202Y-87923358D01*
X139348801Y-87926507D01*
X139236026Y-88011026D01*
X139230645Y-88018206D01*
X139206327Y-88050654D01*
X139149468Y-88093170D01*
X139078649Y-88098196D01*
X139016356Y-88064137D01*
X138982365Y-88001806D01*
X138979500Y-87975090D01*
X138979500Y-83274933D01*
X140195500Y-83274933D01*
X140195501Y-84625066D01*
X140210266Y-84699301D01*
X140266516Y-84783484D01*
X140350699Y-84839734D01*
X140424933Y-84854500D01*
X140450199Y-84854500D01*
X140922055Y-84854499D01*
X140990175Y-84874501D01*
X141036668Y-84928156D01*
X141046772Y-84998430D01*
X141022881Y-85056064D01*
X140955211Y-85146356D01*
X140946676Y-85161946D01*
X140901522Y-85282394D01*
X140897895Y-85297649D01*
X140892369Y-85348514D01*
X140892000Y-85355328D01*
X140892000Y-85777885D01*
X140896475Y-85793124D01*
X140897865Y-85794329D01*
X140905548Y-85796000D01*
X141427885Y-85796000D01*
X141443124Y-85791525D01*
X141444329Y-85790135D01*
X141446000Y-85782452D01*
X141446000Y-85777885D01*
X141954000Y-85777885D01*
X141958475Y-85793124D01*
X141959865Y-85794329D01*
X141967548Y-85796000D01*
X142489884Y-85796000D01*
X142505123Y-85791525D01*
X142506328Y-85790135D01*
X142507999Y-85782452D01*
X142507999Y-85355331D01*
X142507629Y-85348510D01*
X142502105Y-85297648D01*
X142498479Y-85282396D01*
X142453324Y-85161946D01*
X142444786Y-85146351D01*
X142368285Y-85044276D01*
X142355724Y-85031715D01*
X142253649Y-84955214D01*
X142238054Y-84946676D01*
X142117606Y-84901522D01*
X142102351Y-84897895D01*
X142051486Y-84892369D01*
X142044672Y-84892000D01*
X141972115Y-84892000D01*
X141956876Y-84896475D01*
X141955671Y-84897865D01*
X141954000Y-84905548D01*
X141954000Y-85777885D01*
X141446000Y-85777885D01*
X141446000Y-84910116D01*
X141441525Y-84894877D01*
X141440135Y-84893672D01*
X141432452Y-84892001D01*
X141395867Y-84892001D01*
X141327746Y-84871999D01*
X141281253Y-84818343D01*
X141271149Y-84748069D01*
X141279458Y-84717784D01*
X141282841Y-84709617D01*
X141289734Y-84699301D01*
X141304500Y-84625067D01*
X141304499Y-83274934D01*
X141289734Y-83200699D01*
X141233484Y-83116516D01*
X141223168Y-83109623D01*
X141216405Y-83102860D01*
X141182379Y-83040548D01*
X141179500Y-83013765D01*
X141179500Y-82129384D01*
X141199502Y-82061263D01*
X141216405Y-82040289D01*
X141534065Y-81722629D01*
X141596377Y-81688603D01*
X141667192Y-81693668D01*
X141680348Y-81699450D01*
X141759855Y-81739961D01*
X141851651Y-81754500D01*
X142019966Y-81754500D01*
X142188348Y-81754499D01*
X142280145Y-81739961D01*
X142289232Y-81735331D01*
X142381943Y-81688093D01*
X142381944Y-81688092D01*
X142390784Y-81683588D01*
X142478588Y-81595784D01*
X142511201Y-81531778D01*
X142530459Y-81493981D01*
X142530459Y-81493980D01*
X142534961Y-81485145D01*
X142549500Y-81393349D01*
X142549499Y-80006652D01*
X142534961Y-79914855D01*
X142478588Y-79804216D01*
X142390784Y-79716412D01*
X142381944Y-79711908D01*
X142381943Y-79711907D01*
X142288981Y-79664541D01*
X142288980Y-79664541D01*
X142280145Y-79660039D01*
X142188349Y-79645500D01*
X142020034Y-79645500D01*
X141851652Y-79645501D01*
X141759855Y-79660039D01*
X141751020Y-79664541D01*
X141751019Y-79664541D01*
X141658057Y-79711907D01*
X141658056Y-79711908D01*
X141649216Y-79716412D01*
X141561412Y-79804216D01*
X141505039Y-79914855D01*
X141490500Y-80006651D01*
X141490500Y-80640616D01*
X141470498Y-80708737D01*
X141453595Y-80729711D01*
X140569784Y-81613522D01*
X140551036Y-81628664D01*
X140549811Y-81629779D01*
X140541060Y-81635429D01*
X140534613Y-81643607D01*
X140534611Y-81643609D01*
X140520271Y-81661800D01*
X140516325Y-81666241D01*
X140516398Y-81666303D01*
X140513039Y-81670267D01*
X140509362Y-81673944D01*
X140498108Y-81689692D01*
X140494602Y-81694362D01*
X140462844Y-81734647D01*
X140459812Y-81743281D01*
X140454486Y-81750734D01*
X140442523Y-81790737D01*
X140439799Y-81799844D01*
X140437964Y-81805492D01*
X140420982Y-81853851D01*
X140420500Y-81859416D01*
X140420500Y-81862124D01*
X140420386Y-81864758D01*
X140420357Y-81864856D01*
X140420193Y-81864849D01*
X140420149Y-81865553D01*
X140418287Y-81871778D01*
X140418696Y-81882183D01*
X140420403Y-81925635D01*
X140420500Y-81930582D01*
X140420500Y-82949784D01*
X140400498Y-83017905D01*
X140350380Y-83059788D01*
X140350699Y-83060266D01*
X140266516Y-83116516D01*
X140210266Y-83200699D01*
X140195500Y-83274933D01*
X138979500Y-83274933D01*
X138979500Y-81823107D01*
X138999502Y-81754986D01*
X139053158Y-81708493D01*
X139123432Y-81698389D01*
X139162699Y-81710839D01*
X139219855Y-81739961D01*
X139311651Y-81754500D01*
X139479966Y-81754500D01*
X139648348Y-81754499D01*
X139740145Y-81739961D01*
X139749232Y-81735331D01*
X139841943Y-81688093D01*
X139841944Y-81688092D01*
X139850784Y-81683588D01*
X139938588Y-81595784D01*
X139971201Y-81531778D01*
X139990459Y-81493981D01*
X139990459Y-81493980D01*
X139994961Y-81485145D01*
X140009500Y-81393349D01*
X140009499Y-80006652D01*
X139994961Y-79914855D01*
X139938588Y-79804216D01*
X139850784Y-79716412D01*
X139841944Y-79711908D01*
X139841943Y-79711907D01*
X139748981Y-79664541D01*
X139748980Y-79664541D01*
X139740145Y-79660039D01*
X139648349Y-79645500D01*
X139480034Y-79645500D01*
X139311652Y-79645501D01*
X139219855Y-79660039D01*
X139211020Y-79664541D01*
X139211019Y-79664541D01*
X139118057Y-79711907D01*
X139118056Y-79711908D01*
X139109216Y-79716412D01*
X139021412Y-79804216D01*
X138965039Y-79914855D01*
X138950500Y-80006651D01*
X138950500Y-80640616D01*
X138930498Y-80708737D01*
X138913595Y-80729711D01*
X138369784Y-81273522D01*
X138351036Y-81288664D01*
X138349811Y-81289779D01*
X138341060Y-81295429D01*
X138334613Y-81303607D01*
X138334611Y-81303609D01*
X138320271Y-81321800D01*
X138316325Y-81326241D01*
X138316398Y-81326303D01*
X138313039Y-81330267D01*
X138309362Y-81333944D01*
X138298108Y-81349692D01*
X138294602Y-81354362D01*
X138262844Y-81394647D01*
X138259812Y-81403281D01*
X138254486Y-81410734D01*
X138251501Y-81420715D01*
X138239799Y-81459844D01*
X138237964Y-81465492D01*
X138228844Y-81491463D01*
X138220982Y-81513851D01*
X138220500Y-81519416D01*
X138220500Y-81522124D01*
X138220386Y-81524758D01*
X138220357Y-81524856D01*
X138220193Y-81524849D01*
X138220149Y-81525553D01*
X138218287Y-81531778D01*
X138218696Y-81542183D01*
X138220403Y-81585635D01*
X138220500Y-81590582D01*
X138220500Y-92308580D01*
X138217951Y-92332528D01*
X138217872Y-92334193D01*
X138215680Y-92344376D01*
X138216904Y-92354717D01*
X138219627Y-92377723D01*
X138219977Y-92383654D01*
X138220072Y-92383646D01*
X138220500Y-92388824D01*
X138220500Y-92394024D01*
X138221354Y-92399153D01*
X138221354Y-92399156D01*
X138223669Y-92413065D01*
X138224506Y-92418943D01*
X138230530Y-92469841D01*
X138234493Y-92478093D01*
X138235996Y-92487126D01*
X138240943Y-92496295D01*
X138240944Y-92496297D01*
X138260334Y-92532232D01*
X138263031Y-92537525D01*
X138281785Y-92576582D01*
X138281788Y-92576586D01*
X138285219Y-92583732D01*
X138288814Y-92588008D01*
X138290737Y-92589931D01*
X138292509Y-92591863D01*
X138292552Y-92591942D01*
X138292428Y-92592055D01*
X138292904Y-92592595D01*
X138295990Y-92598314D01*
X138303635Y-92605381D01*
X138335586Y-92634916D01*
X138339152Y-92638346D01*
X139058595Y-93357789D01*
X139092621Y-93420101D01*
X139095500Y-93446884D01*
X139095500Y-93884070D01*
X139102036Y-93944236D01*
X139104810Y-93951635D01*
X139145910Y-94061268D01*
X139151507Y-94076199D01*
X139236026Y-94188974D01*
X139348801Y-94273493D01*
X139357202Y-94276643D01*
X139357205Y-94276644D01*
X139435613Y-94306037D01*
X139480764Y-94322964D01*
X139540930Y-94329500D01*
X140134070Y-94329500D01*
X140137471Y-94329131D01*
X140137684Y-94329119D01*
X140206787Y-94345407D01*
X140256115Y-94396470D01*
X140270500Y-94454935D01*
X140270500Y-94883580D01*
X140267951Y-94907528D01*
X140267872Y-94909193D01*
X140265680Y-94919376D01*
X140266904Y-94929717D01*
X140269627Y-94952723D01*
X140269977Y-94958654D01*
X140270072Y-94958646D01*
X140270500Y-94963824D01*
X140270500Y-94969024D01*
X140271354Y-94974153D01*
X140271354Y-94974156D01*
X140273669Y-94988065D01*
X140274506Y-94993943D01*
X140280530Y-95044841D01*
X140284493Y-95053093D01*
X140285996Y-95062126D01*
X140290943Y-95071295D01*
X140290944Y-95071297D01*
X140298256Y-95084849D01*
X140312999Y-95154298D01*
X140287855Y-95220693D01*
X140230807Y-95262954D01*
X140184070Y-95269964D01*
X140184070Y-95270500D01*
X139590930Y-95270500D01*
X139530764Y-95277036D01*
X139485613Y-95293963D01*
X139407205Y-95323356D01*
X139407202Y-95323357D01*
X139398801Y-95326507D01*
X139286026Y-95411026D01*
X139201507Y-95523801D01*
X139152036Y-95655764D01*
X139145500Y-95715930D01*
X139145500Y-96284070D01*
X139145869Y-96287467D01*
X139150860Y-96333411D01*
X139138332Y-96403294D01*
X139114692Y-96436114D01*
X137169784Y-98381022D01*
X137151036Y-98396164D01*
X137149811Y-98397279D01*
X137141060Y-98402929D01*
X137134613Y-98411107D01*
X137134611Y-98411109D01*
X137120271Y-98429300D01*
X137116325Y-98433741D01*
X137116398Y-98433803D01*
X137113039Y-98437767D01*
X137109362Y-98441444D01*
X137098108Y-98457192D01*
X137094602Y-98461862D01*
X137062844Y-98502147D01*
X137059812Y-98510781D01*
X137054486Y-98518234D01*
X137051501Y-98528215D01*
X137039799Y-98567344D01*
X137037964Y-98572992D01*
X137020982Y-98621351D01*
X137020500Y-98626916D01*
X137020500Y-98629624D01*
X137020386Y-98632258D01*
X137020357Y-98632356D01*
X137020193Y-98632349D01*
X137020149Y-98633053D01*
X137018287Y-98639278D01*
X137019204Y-98662615D01*
X137020403Y-98693135D01*
X137020500Y-98698082D01*
X137020500Y-99014949D01*
X137000498Y-99083070D01*
X136946842Y-99129563D01*
X136876568Y-99139667D01*
X136811988Y-99110173D01*
X136805405Y-99104044D01*
X136712894Y-99011533D01*
X136606186Y-98946908D01*
X136573537Y-98927135D01*
X136573536Y-98927135D01*
X136567041Y-98923201D01*
X136559794Y-98920930D01*
X136559792Y-98920929D01*
X136439978Y-98883382D01*
X136404328Y-98872210D01*
X136404402Y-98871974D01*
X136344530Y-98840556D01*
X136309480Y-98778815D01*
X136313374Y-98707925D01*
X136354975Y-98650394D01*
X136404346Y-98627847D01*
X136404328Y-98627790D01*
X136404785Y-98627647D01*
X136404786Y-98627646D01*
X136521799Y-98590977D01*
X136559792Y-98579071D01*
X136559794Y-98579070D01*
X136567041Y-98576799D01*
X136585464Y-98565642D01*
X136706398Y-98492401D01*
X136712894Y-98488467D01*
X136833467Y-98367894D01*
X136921799Y-98222041D01*
X136953982Y-98119347D01*
X136970789Y-98065714D01*
X136970789Y-98065712D01*
X136972790Y-98059328D01*
X136979500Y-97986306D01*
X136979500Y-96973694D01*
X136972790Y-96900672D01*
X136970789Y-96894286D01*
X136924071Y-96745208D01*
X136924070Y-96745206D01*
X136921799Y-96737959D01*
X136833467Y-96592106D01*
X136712894Y-96471533D01*
X136639968Y-96427367D01*
X136573537Y-96387135D01*
X136573536Y-96387135D01*
X136567041Y-96383201D01*
X136559794Y-96380930D01*
X136559792Y-96380929D01*
X136442703Y-96344236D01*
X136404328Y-96332210D01*
X136404402Y-96331974D01*
X136344530Y-96300556D01*
X136309480Y-96238815D01*
X136313374Y-96167925D01*
X136354975Y-96110394D01*
X136404346Y-96087847D01*
X136404328Y-96087790D01*
X136404785Y-96087647D01*
X136404786Y-96087646D01*
X136521799Y-96050977D01*
X136559792Y-96039071D01*
X136559794Y-96039070D01*
X136567041Y-96036799D01*
X136585464Y-96025642D01*
X136706398Y-95952401D01*
X136712894Y-95948467D01*
X136833467Y-95827894D01*
X136903332Y-95712533D01*
X136917865Y-95688537D01*
X136917865Y-95688536D01*
X136921799Y-95682041D01*
X136932353Y-95648365D01*
X136970789Y-95525714D01*
X136970789Y-95525712D01*
X136972790Y-95519328D01*
X136979500Y-95446306D01*
X136979500Y-94433694D01*
X136972790Y-94360672D01*
X136970789Y-94354286D01*
X136924071Y-94205208D01*
X136924070Y-94205206D01*
X136921799Y-94197959D01*
X136916358Y-94188974D01*
X136837401Y-94058602D01*
X136833467Y-94052106D01*
X136712894Y-93931533D01*
X136628881Y-93880653D01*
X136573537Y-93847135D01*
X136573536Y-93847135D01*
X136567041Y-93843201D01*
X136559794Y-93840930D01*
X136559792Y-93840929D01*
X136479238Y-93815685D01*
X136404328Y-93792210D01*
X136404402Y-93791974D01*
X136344530Y-93760556D01*
X136309480Y-93698815D01*
X136313374Y-93627925D01*
X136354975Y-93570394D01*
X136404346Y-93547847D01*
X136404328Y-93547790D01*
X136404785Y-93547647D01*
X136404786Y-93547646D01*
X136521799Y-93510977D01*
X136559792Y-93499071D01*
X136559794Y-93499070D01*
X136567041Y-93496799D01*
X136585464Y-93485642D01*
X136706398Y-93412401D01*
X136712894Y-93408467D01*
X136833467Y-93287894D01*
X136921799Y-93142041D01*
X136924881Y-93132208D01*
X136970789Y-92985714D01*
X136970789Y-92985712D01*
X136972790Y-92979328D01*
X136979500Y-92906306D01*
X136979500Y-91893694D01*
X136972790Y-91820672D01*
X136966468Y-91800498D01*
X136924071Y-91665208D01*
X136924070Y-91665206D01*
X136921799Y-91657959D01*
X136833467Y-91512106D01*
X136712894Y-91391533D01*
X136567041Y-91303201D01*
X136559794Y-91300930D01*
X136559792Y-91300929D01*
X136479238Y-91275685D01*
X136404328Y-91252210D01*
X136404402Y-91251974D01*
X136344530Y-91220556D01*
X136309480Y-91158815D01*
X136313374Y-91087925D01*
X136354975Y-91030394D01*
X136404346Y-91007847D01*
X136404328Y-91007790D01*
X136404785Y-91007647D01*
X136404786Y-91007646D01*
X136479238Y-90984315D01*
X136559792Y-90959071D01*
X136559794Y-90959070D01*
X136567041Y-90956799D01*
X136585464Y-90945642D01*
X136706398Y-90872401D01*
X136712894Y-90868467D01*
X136833467Y-90747894D01*
X136910620Y-90620500D01*
X136917865Y-90608537D01*
X136917865Y-90608536D01*
X136921799Y-90602041D01*
X136934153Y-90562621D01*
X136970789Y-90445714D01*
X136970789Y-90445712D01*
X136972790Y-90439328D01*
X136979500Y-90366306D01*
X136979500Y-89353694D01*
X136972790Y-89280672D01*
X136970422Y-89273116D01*
X136924071Y-89125208D01*
X136924070Y-89125206D01*
X136921799Y-89117959D01*
X136833467Y-88972106D01*
X136712894Y-88851533D01*
X136567041Y-88763201D01*
X136559794Y-88760930D01*
X136559792Y-88760929D01*
X136445361Y-88725069D01*
X136404328Y-88712210D01*
X136404402Y-88711974D01*
X136344530Y-88680556D01*
X136309480Y-88618815D01*
X136313374Y-88547925D01*
X136354975Y-88490394D01*
X136404346Y-88467847D01*
X136404328Y-88467790D01*
X136404785Y-88467647D01*
X136404786Y-88467646D01*
X136479238Y-88444315D01*
X136559792Y-88419071D01*
X136559794Y-88419070D01*
X136567041Y-88416799D01*
X136585464Y-88405642D01*
X136706398Y-88332401D01*
X136712894Y-88328467D01*
X136833467Y-88207894D01*
X136921799Y-88062041D01*
X136925245Y-88051047D01*
X136970789Y-87905714D01*
X136970789Y-87905712D01*
X136972790Y-87899328D01*
X136979500Y-87826306D01*
X136979500Y-86813694D01*
X136972790Y-86740672D01*
X136969802Y-86731137D01*
X136924071Y-86585208D01*
X136924070Y-86585206D01*
X136921799Y-86577959D01*
X136833467Y-86432106D01*
X136712894Y-86311533D01*
X136639967Y-86267367D01*
X136573537Y-86227135D01*
X136573536Y-86227135D01*
X136567041Y-86223201D01*
X136559794Y-86220930D01*
X136559792Y-86220929D01*
X136479238Y-86195685D01*
X136404328Y-86172210D01*
X136404402Y-86171974D01*
X136344530Y-86140556D01*
X136309480Y-86078815D01*
X136313374Y-86007925D01*
X136354975Y-85950394D01*
X136404346Y-85927847D01*
X136404328Y-85927790D01*
X136404785Y-85927647D01*
X136404786Y-85927646D01*
X136521799Y-85890977D01*
X136559792Y-85879071D01*
X136559794Y-85879070D01*
X136567041Y-85876799D01*
X136585464Y-85865642D01*
X136639967Y-85832633D01*
X136712894Y-85788467D01*
X136833467Y-85667894D01*
X136921799Y-85522041D01*
X136967900Y-85374934D01*
X136970789Y-85365714D01*
X136970789Y-85365712D01*
X136972790Y-85359328D01*
X136979500Y-85286306D01*
X136979500Y-84273694D01*
X136972790Y-84200672D01*
X136921799Y-84037959D01*
X136833467Y-83892106D01*
X136712894Y-83771533D01*
X136639967Y-83727367D01*
X136573537Y-83687135D01*
X136573536Y-83687135D01*
X136567041Y-83683201D01*
X136559794Y-83680930D01*
X136559792Y-83680929D01*
X136479238Y-83655685D01*
X136404328Y-83632210D01*
X136404402Y-83631974D01*
X136344530Y-83600556D01*
X136309480Y-83538815D01*
X136313374Y-83467925D01*
X136354975Y-83410394D01*
X136404346Y-83387847D01*
X136404328Y-83387790D01*
X136404785Y-83387647D01*
X136404786Y-83387646D01*
X136521799Y-83350977D01*
X136559792Y-83339071D01*
X136559794Y-83339070D01*
X136567041Y-83336799D01*
X136585464Y-83325642D01*
X136669192Y-83274934D01*
X136712894Y-83248467D01*
X136833467Y-83127894D01*
X136921799Y-82982041D01*
X136972790Y-82819328D01*
X136979500Y-82746306D01*
X136979500Y-81733694D01*
X136972790Y-81660672D01*
X136967443Y-81643609D01*
X136924071Y-81505208D01*
X136924070Y-81505206D01*
X136921799Y-81497959D01*
X136833467Y-81352106D01*
X136712894Y-81231533D01*
X136599905Y-81163104D01*
X136573537Y-81147135D01*
X136573536Y-81147135D01*
X136567041Y-81143201D01*
X136559794Y-81140930D01*
X136559792Y-81140929D01*
X136479238Y-81115685D01*
X136404328Y-81092210D01*
X136404402Y-81091974D01*
X136344530Y-81060556D01*
X136309480Y-80998815D01*
X136313374Y-80927925D01*
X136354975Y-80870394D01*
X136404346Y-80847847D01*
X136404328Y-80847790D01*
X136404785Y-80847647D01*
X136404786Y-80847646D01*
X136534008Y-80807151D01*
X136559792Y-80799071D01*
X136559794Y-80799070D01*
X136567041Y-80796799D01*
X136585464Y-80785642D01*
X136706398Y-80712401D01*
X136712894Y-80708467D01*
X136833467Y-80587894D01*
X136921799Y-80442041D01*
X136972790Y-80279328D01*
X136979500Y-80206306D01*
X136979500Y-79193694D01*
X136972790Y-79120672D01*
X136921799Y-78957959D01*
X136833467Y-78812106D01*
X136712894Y-78691533D01*
X136639968Y-78647367D01*
X136573537Y-78607135D01*
X136573536Y-78607135D01*
X136567041Y-78603201D01*
X136559794Y-78600930D01*
X136559792Y-78600929D01*
X136479238Y-78575685D01*
X136404328Y-78552210D01*
X136404402Y-78551974D01*
X136344530Y-78520556D01*
X136309480Y-78458815D01*
X136313374Y-78387925D01*
X136354975Y-78330394D01*
X136404346Y-78307847D01*
X136404328Y-78307790D01*
X136404785Y-78307647D01*
X136404786Y-78307646D01*
X136521799Y-78270977D01*
X136559792Y-78259071D01*
X136559794Y-78259070D01*
X136567041Y-78256799D01*
X136585464Y-78245642D01*
X136706398Y-78172401D01*
X136712894Y-78168467D01*
X136833467Y-78047894D01*
X136921799Y-77902041D01*
X136972790Y-77739328D01*
X136979500Y-77666306D01*
X136979500Y-76653694D01*
X136972790Y-76580672D01*
X136970789Y-76574286D01*
X136924071Y-76425208D01*
X136924070Y-76425206D01*
X136921799Y-76417959D01*
X136833467Y-76272106D01*
X136776456Y-76215095D01*
X136742430Y-76152783D01*
X136747495Y-76081968D01*
X136790042Y-76025132D01*
X136856562Y-76000321D01*
X136865551Y-76000000D01*
X147159116Y-76000000D01*
X147227237Y-76020002D01*
G37*
G04 #@! TD.AperFunction*
G04 #@! TA.AperFunction,Conductor*
G36*
X143860795Y-89573508D02*
G01*
X143893251Y-89636651D01*
X143895500Y-89660349D01*
X143895500Y-90133580D01*
X143892951Y-90157528D01*
X143892872Y-90159193D01*
X143890680Y-90169376D01*
X143891904Y-90179717D01*
X143894627Y-90202723D01*
X143894977Y-90208654D01*
X143895072Y-90208646D01*
X143895500Y-90213824D01*
X143895500Y-90219024D01*
X143896354Y-90224153D01*
X143896354Y-90224156D01*
X143898669Y-90238065D01*
X143899506Y-90243943D01*
X143905530Y-90294841D01*
X143909493Y-90303093D01*
X143910996Y-90312126D01*
X143915943Y-90321295D01*
X143915944Y-90321297D01*
X143935334Y-90357232D01*
X143938031Y-90362525D01*
X143956785Y-90401582D01*
X143956788Y-90401586D01*
X143960219Y-90408732D01*
X143963814Y-90413008D01*
X143965737Y-90414931D01*
X143967509Y-90416863D01*
X143967552Y-90416942D01*
X143967428Y-90417055D01*
X143967904Y-90417595D01*
X143970990Y-90423314D01*
X143978635Y-90430381D01*
X144010586Y-90459916D01*
X144014152Y-90463346D01*
X144308595Y-90757789D01*
X144342621Y-90820101D01*
X144345500Y-90846884D01*
X144345500Y-91284070D01*
X144352036Y-91344236D01*
X144354810Y-91351635D01*
X144395910Y-91461268D01*
X144401507Y-91476199D01*
X144486026Y-91588974D01*
X144493206Y-91594355D01*
X144499557Y-91600706D01*
X144498411Y-91601852D01*
X144534812Y-91650532D01*
X144539838Y-91721350D01*
X144505779Y-91783644D01*
X144443448Y-91817635D01*
X144416732Y-91820500D01*
X142333268Y-91820500D01*
X142265147Y-91800498D01*
X142218654Y-91746842D01*
X142208550Y-91676568D01*
X142238044Y-91611988D01*
X142254371Y-91596778D01*
X142256794Y-91594355D01*
X142263974Y-91588974D01*
X142348493Y-91476199D01*
X142354091Y-91461268D01*
X142395190Y-91351635D01*
X142397964Y-91344236D01*
X142404500Y-91284070D01*
X142404500Y-90896884D01*
X142424502Y-90828763D01*
X142441405Y-90807789D01*
X143630216Y-89618978D01*
X143648964Y-89603836D01*
X143650189Y-89602722D01*
X143658940Y-89597071D01*
X143670552Y-89582342D01*
X143728432Y-89541230D01*
X143799352Y-89537936D01*
X143860795Y-89573508D01*
G37*
G04 #@! TD.AperFunction*
G04 #@! TA.AperFunction,Conductor*
G36*
X149192570Y-76020002D02*
G01*
X149239063Y-76073658D01*
X149249167Y-76143932D01*
X149219673Y-76208512D01*
X149213544Y-76215095D01*
X149156533Y-76272106D01*
X149068201Y-76417959D01*
X149065930Y-76425206D01*
X149065929Y-76425208D01*
X149019211Y-76574286D01*
X149017210Y-76580672D01*
X149010500Y-76653694D01*
X149010500Y-77666306D01*
X149017210Y-77739328D01*
X149068201Y-77902041D01*
X149156533Y-78047894D01*
X149277106Y-78168467D01*
X149283602Y-78172401D01*
X149404537Y-78245642D01*
X149422959Y-78256799D01*
X149430206Y-78259070D01*
X149430208Y-78259071D01*
X149468201Y-78270977D01*
X149584373Y-78307383D01*
X149585672Y-78307790D01*
X149585598Y-78308026D01*
X149645470Y-78339444D01*
X149680520Y-78401185D01*
X149676626Y-78472075D01*
X149635025Y-78529606D01*
X149585654Y-78552153D01*
X149585672Y-78552210D01*
X149585215Y-78552353D01*
X149585214Y-78552354D01*
X149510762Y-78575685D01*
X149430208Y-78600929D01*
X149430206Y-78600930D01*
X149422959Y-78603201D01*
X149416464Y-78607135D01*
X149416463Y-78607135D01*
X149350033Y-78647367D01*
X149277106Y-78691533D01*
X149156533Y-78812106D01*
X149068201Y-78957959D01*
X149017210Y-79120672D01*
X149010500Y-79193694D01*
X149010500Y-80206306D01*
X149017210Y-80279328D01*
X149068201Y-80442041D01*
X149156533Y-80587894D01*
X149277106Y-80708467D01*
X149283602Y-80712401D01*
X149404537Y-80785642D01*
X149422959Y-80796799D01*
X149430206Y-80799070D01*
X149430208Y-80799071D01*
X149455992Y-80807151D01*
X149584373Y-80847383D01*
X149585672Y-80847790D01*
X149585598Y-80848026D01*
X149645470Y-80879444D01*
X149680520Y-80941185D01*
X149676626Y-81012075D01*
X149635025Y-81069606D01*
X149585654Y-81092153D01*
X149585672Y-81092210D01*
X149585215Y-81092353D01*
X149585214Y-81092354D01*
X149510762Y-81115685D01*
X149430208Y-81140929D01*
X149430206Y-81140930D01*
X149422959Y-81143201D01*
X149416464Y-81147135D01*
X149416463Y-81147135D01*
X149390095Y-81163104D01*
X149277106Y-81231533D01*
X149156533Y-81352106D01*
X149068201Y-81497959D01*
X149065930Y-81505206D01*
X149065929Y-81505208D01*
X149022557Y-81643609D01*
X149017210Y-81660672D01*
X149010500Y-81733694D01*
X149010500Y-82746306D01*
X149017210Y-82819328D01*
X149068201Y-82982041D01*
X149156533Y-83127894D01*
X149277106Y-83248467D01*
X149320808Y-83274934D01*
X149404537Y-83325642D01*
X149422959Y-83336799D01*
X149430206Y-83339070D01*
X149430208Y-83339071D01*
X149468201Y-83350977D01*
X149584373Y-83387383D01*
X149585672Y-83387790D01*
X149585598Y-83388026D01*
X149645470Y-83419444D01*
X149680520Y-83481185D01*
X149676626Y-83552075D01*
X149635025Y-83609606D01*
X149585654Y-83632153D01*
X149585672Y-83632210D01*
X149585215Y-83632353D01*
X149585214Y-83632354D01*
X149510762Y-83655685D01*
X149430208Y-83680929D01*
X149430206Y-83680930D01*
X149422959Y-83683201D01*
X149416464Y-83687135D01*
X149416463Y-83687135D01*
X149350033Y-83727367D01*
X149277106Y-83771533D01*
X149156533Y-83892106D01*
X149068201Y-84037959D01*
X149017210Y-84200672D01*
X149010500Y-84273694D01*
X149010500Y-85286306D01*
X149017210Y-85359328D01*
X149019211Y-85365712D01*
X149019211Y-85365714D01*
X149022101Y-85374934D01*
X149068201Y-85522041D01*
X149156533Y-85667894D01*
X149277106Y-85788467D01*
X149350032Y-85832633D01*
X149404537Y-85865642D01*
X149422959Y-85876799D01*
X149430206Y-85879070D01*
X149430208Y-85879071D01*
X149468201Y-85890977D01*
X149584373Y-85927383D01*
X149585672Y-85927790D01*
X149585598Y-85928026D01*
X149645470Y-85959444D01*
X149680520Y-86021185D01*
X149676626Y-86092075D01*
X149635025Y-86149606D01*
X149585654Y-86172153D01*
X149585672Y-86172210D01*
X149585215Y-86172353D01*
X149585214Y-86172354D01*
X149510762Y-86195685D01*
X149430208Y-86220929D01*
X149430206Y-86220930D01*
X149422959Y-86223201D01*
X149416464Y-86227135D01*
X149416463Y-86227135D01*
X149350032Y-86267367D01*
X149277106Y-86311533D01*
X149156533Y-86432106D01*
X149068201Y-86577959D01*
X149065930Y-86585206D01*
X149065929Y-86585208D01*
X149020198Y-86731137D01*
X149017210Y-86740672D01*
X149010500Y-86813694D01*
X149010500Y-87200616D01*
X148990498Y-87268737D01*
X148973595Y-87289711D01*
X148169784Y-88093522D01*
X148151036Y-88108664D01*
X148149811Y-88109779D01*
X148141060Y-88115429D01*
X148134613Y-88123607D01*
X148134611Y-88123609D01*
X148120271Y-88141800D01*
X148116325Y-88146241D01*
X148116398Y-88146303D01*
X148113039Y-88150267D01*
X148109362Y-88153944D01*
X148098108Y-88169692D01*
X148094602Y-88174362D01*
X148092347Y-88177222D01*
X148034465Y-88218328D01*
X147963545Y-88221615D01*
X147902105Y-88186038D01*
X147873883Y-88139081D01*
X147844512Y-88051047D01*
X147838347Y-88037885D01*
X147754574Y-87902508D01*
X147745540Y-87891110D01*
X147632871Y-87778637D01*
X147621460Y-87769625D01*
X147485937Y-87686088D01*
X147472759Y-87679944D01*
X147321234Y-87629685D01*
X147307868Y-87626819D01*
X147215230Y-87617328D01*
X147208815Y-87617000D01*
X147184615Y-87617000D01*
X147169376Y-87621475D01*
X147168171Y-87622865D01*
X147166500Y-87630548D01*
X147166500Y-89564885D01*
X147170975Y-89580124D01*
X147172365Y-89581329D01*
X147180048Y-89583000D01*
X147208766Y-89583000D01*
X147215282Y-89582663D01*
X147309132Y-89572925D01*
X147322528Y-89570032D01*
X147473953Y-89519512D01*
X147487115Y-89513347D01*
X147622492Y-89429574D01*
X147633890Y-89420540D01*
X147746363Y-89307871D01*
X147755375Y-89296460D01*
X147787240Y-89244765D01*
X147840012Y-89197272D01*
X147910084Y-89185848D01*
X147975208Y-89214122D01*
X148014707Y-89273116D01*
X148020500Y-89310881D01*
X148020500Y-90494500D01*
X148000498Y-90562621D01*
X147946842Y-90609114D01*
X147894500Y-90620500D01*
X147722072Y-90620500D01*
X147653951Y-90600498D01*
X147607458Y-90546842D01*
X147604091Y-90538732D01*
X147601645Y-90532208D01*
X147601644Y-90532206D01*
X147598493Y-90523801D01*
X147513974Y-90411026D01*
X147401199Y-90326507D01*
X147392798Y-90323357D01*
X147392795Y-90323356D01*
X147293238Y-90286034D01*
X147269236Y-90277036D01*
X147209070Y-90270500D01*
X146615930Y-90270500D01*
X146555764Y-90277036D01*
X146548364Y-90279810D01*
X146540680Y-90281637D01*
X146540288Y-90279989D01*
X146478922Y-90284481D01*
X146416553Y-90250559D01*
X146382424Y-90188304D01*
X146379500Y-90161316D01*
X146379500Y-89698649D01*
X146399502Y-89630528D01*
X146453158Y-89584035D01*
X146518342Y-89573305D01*
X146609768Y-89582672D01*
X146616185Y-89583000D01*
X146640385Y-89583000D01*
X146655624Y-89578525D01*
X146656829Y-89577135D01*
X146658500Y-89569452D01*
X146658500Y-87635115D01*
X146654025Y-87619876D01*
X146652635Y-87618671D01*
X146644952Y-87617000D01*
X146616234Y-87617000D01*
X146609718Y-87617337D01*
X146515868Y-87627075D01*
X146502472Y-87629968D01*
X146351047Y-87680488D01*
X146337885Y-87686653D01*
X146202508Y-87770426D01*
X146191110Y-87779460D01*
X146078637Y-87892129D01*
X146069625Y-87903540D01*
X145986088Y-88039063D01*
X145979946Y-88052236D01*
X145976029Y-88064044D01*
X145935597Y-88122403D01*
X145870033Y-88149639D01*
X145800151Y-88137105D01*
X145755611Y-88099940D01*
X145688974Y-88011026D01*
X145576199Y-87926507D01*
X145567798Y-87923357D01*
X145567795Y-87923356D01*
X145511270Y-87902166D01*
X145454506Y-87859524D01*
X145429806Y-87792963D01*
X145429500Y-87784184D01*
X145429500Y-87020313D01*
X145449502Y-86952192D01*
X145485497Y-86915549D01*
X145523167Y-86890378D01*
X145523168Y-86890377D01*
X145533484Y-86883484D01*
X145589734Y-86799301D01*
X145600601Y-86744669D01*
X146142001Y-86744669D01*
X146142371Y-86751490D01*
X146147895Y-86802352D01*
X146151521Y-86817604D01*
X146196676Y-86938054D01*
X146205214Y-86953649D01*
X146281715Y-87055724D01*
X146294276Y-87068285D01*
X146396351Y-87144786D01*
X146411946Y-87153324D01*
X146532394Y-87198478D01*
X146547649Y-87202105D01*
X146598514Y-87207631D01*
X146605328Y-87208000D01*
X146677885Y-87208000D01*
X146693124Y-87203525D01*
X146694329Y-87202135D01*
X146696000Y-87194452D01*
X146696000Y-87189884D01*
X147204000Y-87189884D01*
X147208475Y-87205123D01*
X147209865Y-87206328D01*
X147217548Y-87207999D01*
X147294669Y-87207999D01*
X147301490Y-87207629D01*
X147352352Y-87202105D01*
X147367604Y-87198479D01*
X147488054Y-87153324D01*
X147503649Y-87144786D01*
X147605724Y-87068285D01*
X147618285Y-87055724D01*
X147694786Y-86953649D01*
X147703324Y-86938054D01*
X147748478Y-86817606D01*
X147752105Y-86802351D01*
X147757631Y-86751486D01*
X147758000Y-86744672D01*
X147758000Y-86322115D01*
X147753525Y-86306876D01*
X147752135Y-86305671D01*
X147744452Y-86304000D01*
X147222115Y-86304000D01*
X147206876Y-86308475D01*
X147205671Y-86309865D01*
X147204000Y-86317548D01*
X147204000Y-87189884D01*
X146696000Y-87189884D01*
X146696000Y-86322115D01*
X146691525Y-86306876D01*
X146690135Y-86305671D01*
X146682452Y-86304000D01*
X146160116Y-86304000D01*
X146144877Y-86308475D01*
X146143672Y-86309865D01*
X146142001Y-86317548D01*
X146142001Y-86744669D01*
X145600601Y-86744669D01*
X145604500Y-86725067D01*
X145604499Y-85374934D01*
X145589734Y-85300699D01*
X145578181Y-85283408D01*
X145540377Y-85226832D01*
X145533484Y-85216516D01*
X145449301Y-85160266D01*
X145375067Y-85145500D01*
X145309931Y-85145500D01*
X144780500Y-85145501D01*
X144712379Y-85125499D01*
X144665886Y-85071843D01*
X144654500Y-85019501D01*
X144654500Y-83274933D01*
X145445500Y-83274933D01*
X145445501Y-84625066D01*
X145460266Y-84699301D01*
X145516516Y-84783484D01*
X145600699Y-84839734D01*
X145674933Y-84854500D01*
X145700199Y-84854500D01*
X146172055Y-84854499D01*
X146240175Y-84874501D01*
X146286668Y-84928156D01*
X146296772Y-84998430D01*
X146272881Y-85056064D01*
X146205211Y-85146356D01*
X146196676Y-85161946D01*
X146151522Y-85282394D01*
X146147895Y-85297649D01*
X146142369Y-85348514D01*
X146142000Y-85355328D01*
X146142000Y-85777885D01*
X146146475Y-85793124D01*
X146147865Y-85794329D01*
X146155548Y-85796000D01*
X146677885Y-85796000D01*
X146693124Y-85791525D01*
X146694329Y-85790135D01*
X146696000Y-85782452D01*
X146696000Y-85777885D01*
X147204000Y-85777885D01*
X147208475Y-85793124D01*
X147209865Y-85794329D01*
X147217548Y-85796000D01*
X147739884Y-85796000D01*
X147755123Y-85791525D01*
X147756328Y-85790135D01*
X147757999Y-85782452D01*
X147757999Y-85355331D01*
X147757629Y-85348510D01*
X147752105Y-85297648D01*
X147748479Y-85282396D01*
X147703324Y-85161946D01*
X147694786Y-85146351D01*
X147618285Y-85044276D01*
X147605724Y-85031715D01*
X147503649Y-84955214D01*
X147488054Y-84946676D01*
X147367606Y-84901522D01*
X147352351Y-84897895D01*
X147301486Y-84892369D01*
X147294672Y-84892000D01*
X147222115Y-84892000D01*
X147206876Y-84896475D01*
X147205671Y-84897865D01*
X147204000Y-84905548D01*
X147204000Y-85777885D01*
X146696000Y-85777885D01*
X146696000Y-84910116D01*
X146691525Y-84894877D01*
X146690135Y-84893672D01*
X146682452Y-84892001D01*
X146645867Y-84892001D01*
X146577746Y-84871999D01*
X146531253Y-84818343D01*
X146521149Y-84748069D01*
X146529458Y-84717784D01*
X146532841Y-84709617D01*
X146539734Y-84699301D01*
X146554500Y-84625067D01*
X146554499Y-83274934D01*
X146539734Y-83200699D01*
X146483484Y-83116516D01*
X146463047Y-83102860D01*
X146435497Y-83084451D01*
X146389970Y-83029974D01*
X146379500Y-82979687D01*
X146379500Y-82179384D01*
X146399502Y-82111263D01*
X146416405Y-82090289D01*
X146784065Y-81722629D01*
X146846377Y-81688603D01*
X146917192Y-81693668D01*
X146930348Y-81699450D01*
X147009855Y-81739961D01*
X147101651Y-81754500D01*
X147269966Y-81754500D01*
X147438348Y-81754499D01*
X147530145Y-81739961D01*
X147539232Y-81735331D01*
X147631943Y-81688093D01*
X147631944Y-81688092D01*
X147640784Y-81683588D01*
X147728588Y-81595784D01*
X147761201Y-81531778D01*
X147780459Y-81493981D01*
X147780459Y-81493980D01*
X147784961Y-81485145D01*
X147799500Y-81393349D01*
X147799499Y-80006652D01*
X147784961Y-79914855D01*
X147728588Y-79804216D01*
X147640784Y-79716412D01*
X147631944Y-79711908D01*
X147631943Y-79711907D01*
X147538981Y-79664541D01*
X147538980Y-79664541D01*
X147530145Y-79660039D01*
X147438349Y-79645500D01*
X147270034Y-79645500D01*
X147101652Y-79645501D01*
X147009855Y-79660039D01*
X147001020Y-79664541D01*
X147001019Y-79664541D01*
X146908057Y-79711907D01*
X146908056Y-79711908D01*
X146899216Y-79716412D01*
X146811412Y-79804216D01*
X146755039Y-79914855D01*
X146740500Y-80006651D01*
X146740500Y-80640616D01*
X146720498Y-80708737D01*
X146703595Y-80729711D01*
X145769784Y-81663522D01*
X145751036Y-81678664D01*
X145749811Y-81679779D01*
X145741060Y-81685429D01*
X145734613Y-81693607D01*
X145734611Y-81693609D01*
X145720271Y-81711800D01*
X145716325Y-81716241D01*
X145716398Y-81716303D01*
X145713039Y-81720267D01*
X145709362Y-81723944D01*
X145698108Y-81739692D01*
X145694602Y-81744362D01*
X145662844Y-81784647D01*
X145659812Y-81793281D01*
X145654486Y-81800734D01*
X145651501Y-81810715D01*
X145639799Y-81849844D01*
X145637964Y-81855492D01*
X145628591Y-81882183D01*
X145620982Y-81903851D01*
X145620500Y-81909416D01*
X145620500Y-81912124D01*
X145620386Y-81914758D01*
X145620357Y-81914856D01*
X145620193Y-81914849D01*
X145620149Y-81915553D01*
X145618287Y-81921778D01*
X145618696Y-81932183D01*
X145620403Y-81975635D01*
X145620500Y-81980582D01*
X145620500Y-82979687D01*
X145600498Y-83047808D01*
X145564503Y-83084451D01*
X145536953Y-83102860D01*
X145516516Y-83116516D01*
X145460266Y-83200699D01*
X145445500Y-83274933D01*
X144654500Y-83274933D01*
X144654500Y-81880499D01*
X144674502Y-81812378D01*
X144728158Y-81765885D01*
X144780498Y-81754499D01*
X144898348Y-81754499D01*
X144990145Y-81739961D01*
X144999232Y-81735331D01*
X145091943Y-81688093D01*
X145091944Y-81688092D01*
X145100784Y-81683588D01*
X145188588Y-81595784D01*
X145221201Y-81531778D01*
X145240459Y-81493981D01*
X145240459Y-81493980D01*
X145244961Y-81485145D01*
X145259500Y-81393349D01*
X145259499Y-80006652D01*
X145244961Y-79914855D01*
X145188588Y-79804216D01*
X145100784Y-79716412D01*
X145091944Y-79711908D01*
X145091943Y-79711907D01*
X144998981Y-79664541D01*
X144998980Y-79664541D01*
X144990145Y-79660039D01*
X144898349Y-79645500D01*
X144730034Y-79645500D01*
X144561652Y-79645501D01*
X144469855Y-79660039D01*
X144461020Y-79664541D01*
X144461019Y-79664541D01*
X144368057Y-79711907D01*
X144368056Y-79711908D01*
X144359216Y-79716412D01*
X144271412Y-79804216D01*
X144215039Y-79914855D01*
X144200500Y-80006651D01*
X144200500Y-80640616D01*
X144180498Y-80708737D01*
X144163595Y-80729711D01*
X144044784Y-80848522D01*
X144026036Y-80863664D01*
X144024811Y-80864778D01*
X144016060Y-80870429D01*
X144004449Y-80885158D01*
X143946568Y-80926270D01*
X143875648Y-80929564D01*
X143814205Y-80893992D01*
X143781749Y-80830849D01*
X143779500Y-80807151D01*
X143779500Y-78609384D01*
X143799502Y-78541263D01*
X143816405Y-78520289D01*
X145120289Y-77216405D01*
X145182601Y-77182379D01*
X145209384Y-77179500D01*
X147146080Y-77179500D01*
X147170028Y-77182049D01*
X147171693Y-77182128D01*
X147181876Y-77184320D01*
X147192217Y-77183096D01*
X147215223Y-77180373D01*
X147221154Y-77180023D01*
X147221146Y-77179928D01*
X147226324Y-77179500D01*
X147231524Y-77179500D01*
X147236653Y-77178646D01*
X147236656Y-77178646D01*
X147250565Y-77176331D01*
X147256443Y-77175494D01*
X147297001Y-77170694D01*
X147297002Y-77170694D01*
X147307341Y-77169470D01*
X147315593Y-77165507D01*
X147324626Y-77164004D01*
X147333795Y-77159057D01*
X147333797Y-77159056D01*
X147369732Y-77139666D01*
X147375025Y-77136969D01*
X147414082Y-77118215D01*
X147414086Y-77118212D01*
X147421232Y-77114781D01*
X147425508Y-77111186D01*
X147427431Y-77109263D01*
X147429363Y-77107491D01*
X147429442Y-77107448D01*
X147429555Y-77107572D01*
X147430095Y-77107096D01*
X147435814Y-77104010D01*
X147472417Y-77064413D01*
X147475846Y-77060848D01*
X148499789Y-76036905D01*
X148562101Y-76002879D01*
X148588884Y-76000000D01*
X149124449Y-76000000D01*
X149192570Y-76020002D01*
G37*
G04 #@! TD.AperFunction*
M02*
