G04 #@! TF.GenerationSoftware,KiCad,Pcbnew,(6.0.10)*
G04 #@! TF.CreationDate,2023-01-05T11:17:19+01:00*
G04 #@! TF.ProjectId,PIC_Interface,5049435f-496e-4746-9572-666163652e6b,rev?*
G04 #@! TF.SameCoordinates,Original*
G04 #@! TF.FileFunction,Copper,L2,Bot*
G04 #@! TF.FilePolarity,Positive*
%FSLAX46Y46*%
G04 Gerber Fmt 4.6, Leading zero omitted, Abs format (unit mm)*
G04 Created by KiCad (PCBNEW (6.0.10)) date 2023-01-05 11:17:19*
%MOMM*%
%LPD*%
G01*
G04 APERTURE LIST*
G04 Aperture macros list*
%AMRoundRect*
0 Rectangle with rounded corners*
0 $1 Rounding radius*
0 $2 $3 $4 $5 $6 $7 $8 $9 X,Y pos of 4 corners*
0 Add a 4 corners polygon primitive as box body*
4,1,4,$2,$3,$4,$5,$6,$7,$8,$9,$2,$3,0*
0 Add four circle primitives for the rounded corners*
1,1,$1+$1,$2,$3*
1,1,$1+$1,$4,$5*
1,1,$1+$1,$6,$7*
1,1,$1+$1,$8,$9*
0 Add four rect primitives between the rounded corners*
20,1,$1+$1,$2,$3,$4,$5,0*
20,1,$1+$1,$4,$5,$6,$7,0*
20,1,$1+$1,$6,$7,$8,$9,0*
20,1,$1+$1,$8,$9,$2,$3,0*%
G04 Aperture macros list end*
G04 #@! TA.AperFunction,ComponentPad*
%ADD10O,1.700000X2.200000*%
G04 #@! TD*
G04 #@! TA.AperFunction,ComponentPad*
%ADD11R,1.700000X2.200000*%
G04 #@! TD*
G04 #@! TA.AperFunction,ComponentPad*
%ADD12RoundRect,0.450000X-0.900000X-0.450000X0.900000X-0.450000X0.900000X0.450000X-0.900000X0.450000X0*%
G04 #@! TD*
G04 #@! TA.AperFunction,ViaPad*
%ADD13C,0.800000*%
G04 #@! TD*
G04 #@! TA.AperFunction,Conductor*
%ADD14C,0.250000*%
G04 #@! TD*
G04 APERTURE END LIST*
D10*
X146810000Y-124750000D03*
X144270000Y-124750000D03*
X141730000Y-124750000D03*
D11*
X139190000Y-124750000D03*
D12*
X150615000Y-67000000D03*
X150615000Y-69540000D03*
X150615000Y-72080000D03*
X150615000Y-74620000D03*
X150615000Y-77160000D03*
X150615000Y-79700000D03*
X150615000Y-82240000D03*
X150615000Y-84780000D03*
X150615000Y-87320000D03*
X150615000Y-89860000D03*
X150615000Y-92400000D03*
X150615000Y-94940000D03*
X150615000Y-97480000D03*
X150615000Y-100020000D03*
X150615000Y-102560000D03*
X150615000Y-105100000D03*
X150615000Y-107640000D03*
X150615000Y-110180000D03*
X150615000Y-112720000D03*
X150615000Y-115260000D03*
X135375000Y-115260000D03*
X135375000Y-112720000D03*
X135375000Y-110180000D03*
X135375000Y-107640000D03*
X135375000Y-105100000D03*
X135375000Y-102560000D03*
X135375000Y-100020000D03*
X135375000Y-97480000D03*
X135375000Y-94940000D03*
X135375000Y-92400000D03*
X135375000Y-89860000D03*
X135375000Y-87320000D03*
X135375000Y-84780000D03*
X135375000Y-82240000D03*
X135375000Y-79700000D03*
X135375000Y-77160000D03*
X135375000Y-74620000D03*
X135375000Y-72080000D03*
X135375000Y-69540000D03*
X135375000Y-67000000D03*
D13*
X137300000Y-121300000D03*
X143200000Y-118500000D03*
X145300000Y-114300000D03*
X140800000Y-118500000D03*
X137000000Y-118700000D03*
X138500000Y-126900000D03*
X144500966Y-105480237D03*
X141000000Y-115800000D03*
X146900000Y-111300000D03*
X148200000Y-78000000D03*
X141000000Y-105600000D03*
X145000000Y-103800000D03*
X142800000Y-91050000D03*
X138000000Y-111800000D03*
X141200000Y-110600000D03*
X141400000Y-102800000D03*
X148200000Y-87000000D03*
X143200000Y-99000000D03*
X137800000Y-94800000D03*
X148600000Y-96200000D03*
X140800000Y-86200000D03*
X144600000Y-107800000D03*
X141025000Y-77325000D03*
X145137911Y-106250500D03*
X143300000Y-96200000D03*
X141200000Y-114112000D03*
X140643750Y-70643750D03*
X145587701Y-70612299D03*
D14*
X143350000Y-106631203D02*
X143350000Y-113450000D01*
X143350000Y-113450000D02*
X141000000Y-115800000D01*
X144500966Y-105480237D02*
X143350000Y-106631203D01*
X140675201Y-70612299D02*
X140643750Y-70643750D01*
X145587701Y-70612299D02*
X140675201Y-70612299D01*
G04 #@! TA.AperFunction,Conductor*
G36*
X149192570Y-76020002D02*
G01*
X149239063Y-76073658D01*
X149249167Y-76143932D01*
X149219673Y-76208512D01*
X149213544Y-76215095D01*
X149156533Y-76272106D01*
X149068201Y-76417959D01*
X149017210Y-76580672D01*
X149010500Y-76653694D01*
X149010500Y-77666306D01*
X149017210Y-77739328D01*
X149068201Y-77902041D01*
X149156533Y-78047894D01*
X149277106Y-78168467D01*
X149283602Y-78172401D01*
X149404537Y-78245642D01*
X149422959Y-78256799D01*
X149430206Y-78259070D01*
X149430208Y-78259071D01*
X149468201Y-78270977D01*
X149584373Y-78307383D01*
X149585672Y-78307790D01*
X149585598Y-78308026D01*
X149645470Y-78339444D01*
X149680520Y-78401185D01*
X149676626Y-78472075D01*
X149635025Y-78529606D01*
X149585654Y-78552153D01*
X149585672Y-78552210D01*
X149585215Y-78552353D01*
X149585214Y-78552354D01*
X149510762Y-78575685D01*
X149430208Y-78600929D01*
X149430206Y-78600930D01*
X149422959Y-78603201D01*
X149416464Y-78607135D01*
X149416463Y-78607135D01*
X149350033Y-78647367D01*
X149277106Y-78691533D01*
X149156533Y-78812106D01*
X149068201Y-78957959D01*
X149017210Y-79120672D01*
X149010500Y-79193694D01*
X149010500Y-80206306D01*
X149017210Y-80279328D01*
X149068201Y-80442041D01*
X149156533Y-80587894D01*
X149277106Y-80708467D01*
X149283602Y-80712401D01*
X149404537Y-80785642D01*
X149422959Y-80796799D01*
X149430206Y-80799070D01*
X149430208Y-80799071D01*
X149468201Y-80810977D01*
X149584373Y-80847383D01*
X149585672Y-80847790D01*
X149585598Y-80848026D01*
X149645470Y-80879444D01*
X149680520Y-80941185D01*
X149676626Y-81012075D01*
X149635025Y-81069606D01*
X149585654Y-81092153D01*
X149585672Y-81092210D01*
X149585215Y-81092353D01*
X149585214Y-81092354D01*
X149510762Y-81115685D01*
X149430208Y-81140929D01*
X149430206Y-81140930D01*
X149422959Y-81143201D01*
X149416464Y-81147135D01*
X149416463Y-81147135D01*
X149350033Y-81187367D01*
X149277106Y-81231533D01*
X149156533Y-81352106D01*
X149068201Y-81497959D01*
X149017210Y-81660672D01*
X149010500Y-81733694D01*
X149010500Y-82746306D01*
X149017210Y-82819328D01*
X149068201Y-82982041D01*
X149156533Y-83127894D01*
X149277106Y-83248467D01*
X149283602Y-83252401D01*
X149404537Y-83325642D01*
X149422959Y-83336799D01*
X149430206Y-83339070D01*
X149430208Y-83339071D01*
X149468201Y-83350977D01*
X149584373Y-83387383D01*
X149585672Y-83387790D01*
X149585598Y-83388026D01*
X149645470Y-83419444D01*
X149680520Y-83481185D01*
X149676626Y-83552075D01*
X149635025Y-83609606D01*
X149585654Y-83632153D01*
X149585672Y-83632210D01*
X149585215Y-83632353D01*
X149585214Y-83632354D01*
X149510762Y-83655685D01*
X149430208Y-83680929D01*
X149430206Y-83680930D01*
X149422959Y-83683201D01*
X149416464Y-83687135D01*
X149416463Y-83687135D01*
X149350033Y-83727367D01*
X149277106Y-83771533D01*
X149156533Y-83892106D01*
X149068201Y-84037959D01*
X149017210Y-84200672D01*
X149010500Y-84273694D01*
X149010500Y-85286306D01*
X149017210Y-85359328D01*
X149068201Y-85522041D01*
X149156533Y-85667894D01*
X149277106Y-85788467D01*
X149283602Y-85792401D01*
X149404537Y-85865642D01*
X149422959Y-85876799D01*
X149430206Y-85879070D01*
X149430208Y-85879071D01*
X149468201Y-85890977D01*
X149584373Y-85927383D01*
X149585672Y-85927790D01*
X149585598Y-85928026D01*
X149645470Y-85959444D01*
X149680520Y-86021185D01*
X149676626Y-86092075D01*
X149635025Y-86149606D01*
X149585654Y-86172153D01*
X149585672Y-86172210D01*
X149585215Y-86172353D01*
X149585214Y-86172354D01*
X149510762Y-86195685D01*
X149430208Y-86220929D01*
X149430206Y-86220930D01*
X149422959Y-86223201D01*
X149416464Y-86227135D01*
X149416463Y-86227135D01*
X149350032Y-86267367D01*
X149277106Y-86311533D01*
X149156533Y-86432106D01*
X149068201Y-86577959D01*
X149017210Y-86740672D01*
X149010500Y-86813694D01*
X149010500Y-87826306D01*
X149017210Y-87899328D01*
X149068201Y-88062041D01*
X149156533Y-88207894D01*
X149277106Y-88328467D01*
X149283602Y-88332401D01*
X149283605Y-88332403D01*
X149289157Y-88335766D01*
X149337063Y-88388164D01*
X149349035Y-88458144D01*
X149321273Y-88523488D01*
X149282260Y-88555202D01*
X149190577Y-88603133D01*
X149179976Y-88610123D01*
X149039038Y-88725069D01*
X149030069Y-88734038D01*
X148915123Y-88874976D01*
X148908135Y-88885574D01*
X148823881Y-89046738D01*
X148819163Y-89058533D01*
X148768931Y-89233714D01*
X148766745Y-89245451D01*
X148757249Y-89351845D01*
X148757000Y-89357440D01*
X148757000Y-89587885D01*
X148761475Y-89603124D01*
X148762865Y-89604329D01*
X148770548Y-89606000D01*
X150743000Y-89606000D01*
X150811121Y-89626002D01*
X150857614Y-89679658D01*
X150869000Y-89732000D01*
X150869000Y-89988000D01*
X150848998Y-90056121D01*
X150795342Y-90102614D01*
X150743000Y-90114000D01*
X148775115Y-90114000D01*
X148759876Y-90118475D01*
X148758671Y-90119865D01*
X148757000Y-90127548D01*
X148757000Y-90362560D01*
X148757249Y-90368155D01*
X148766745Y-90474549D01*
X148768931Y-90486286D01*
X148819163Y-90661467D01*
X148823881Y-90673262D01*
X148908135Y-90834426D01*
X148915123Y-90845024D01*
X149030069Y-90985962D01*
X149039038Y-90994931D01*
X149179976Y-91109877D01*
X149190577Y-91116867D01*
X149282260Y-91164798D01*
X149333361Y-91214084D01*
X149349705Y-91283174D01*
X149326101Y-91350132D01*
X149289157Y-91384234D01*
X149283605Y-91387597D01*
X149277106Y-91391533D01*
X149156533Y-91512106D01*
X149068201Y-91657959D01*
X149017210Y-91820672D01*
X149010500Y-91893694D01*
X149010500Y-92906306D01*
X149017210Y-92979328D01*
X149068201Y-93142041D01*
X149156533Y-93287894D01*
X149277106Y-93408467D01*
X149283602Y-93412401D01*
X149404537Y-93485642D01*
X149422959Y-93496799D01*
X149430206Y-93499070D01*
X149430208Y-93499071D01*
X149468201Y-93510977D01*
X149584373Y-93547383D01*
X149585672Y-93547790D01*
X149585598Y-93548026D01*
X149645470Y-93579444D01*
X149680520Y-93641185D01*
X149676626Y-93712075D01*
X149635025Y-93769606D01*
X149585654Y-93792153D01*
X149585672Y-93792210D01*
X149585215Y-93792353D01*
X149585214Y-93792354D01*
X149510762Y-93815685D01*
X149430208Y-93840929D01*
X149430206Y-93840930D01*
X149422959Y-93843201D01*
X149416464Y-93847135D01*
X149416463Y-93847135D01*
X149350033Y-93887367D01*
X149277106Y-93931533D01*
X149156533Y-94052106D01*
X149068201Y-94197959D01*
X149017210Y-94360672D01*
X149010500Y-94433694D01*
X149010500Y-95446306D01*
X149017210Y-95519328D01*
X149068201Y-95682041D01*
X149156533Y-95827894D01*
X149277106Y-95948467D01*
X149283602Y-95952401D01*
X149404537Y-96025642D01*
X149422959Y-96036799D01*
X149430206Y-96039070D01*
X149430208Y-96039071D01*
X149468201Y-96050977D01*
X149584373Y-96087383D01*
X149585672Y-96087790D01*
X149585598Y-96088026D01*
X149645470Y-96119444D01*
X149680520Y-96181185D01*
X149676626Y-96252075D01*
X149635025Y-96309606D01*
X149585654Y-96332153D01*
X149585672Y-96332210D01*
X149585215Y-96332353D01*
X149585214Y-96332354D01*
X149510762Y-96355685D01*
X149430208Y-96380929D01*
X149430206Y-96380930D01*
X149422959Y-96383201D01*
X149416464Y-96387135D01*
X149416463Y-96387135D01*
X149350032Y-96427367D01*
X149277106Y-96471533D01*
X149156533Y-96592106D01*
X149068201Y-96737959D01*
X149017210Y-96900672D01*
X149010500Y-96973694D01*
X149010500Y-97986306D01*
X149017210Y-98059328D01*
X149068201Y-98222041D01*
X149156533Y-98367894D01*
X149277106Y-98488467D01*
X149283602Y-98492401D01*
X149404537Y-98565642D01*
X149422959Y-98576799D01*
X149430206Y-98579070D01*
X149430208Y-98579071D01*
X149468201Y-98590977D01*
X149584373Y-98627383D01*
X149585672Y-98627790D01*
X149585598Y-98628026D01*
X149645470Y-98659444D01*
X149680520Y-98721185D01*
X149676626Y-98792075D01*
X149635025Y-98849606D01*
X149585654Y-98872153D01*
X149585672Y-98872210D01*
X149585215Y-98872353D01*
X149585214Y-98872354D01*
X149510762Y-98895685D01*
X149430208Y-98920929D01*
X149430206Y-98920930D01*
X149422959Y-98923201D01*
X149416464Y-98927135D01*
X149416463Y-98927135D01*
X149350032Y-98967367D01*
X149277106Y-99011533D01*
X149156533Y-99132106D01*
X149068201Y-99277959D01*
X149017210Y-99440672D01*
X149010500Y-99513694D01*
X149010500Y-100526306D01*
X149017210Y-100599328D01*
X149068201Y-100762041D01*
X149156533Y-100907894D01*
X149277106Y-101028467D01*
X149283602Y-101032401D01*
X149404537Y-101105642D01*
X149422959Y-101116799D01*
X149430206Y-101119070D01*
X149430208Y-101119071D01*
X149468201Y-101130977D01*
X149584373Y-101167383D01*
X149585672Y-101167790D01*
X149585598Y-101168026D01*
X149645470Y-101199444D01*
X149680520Y-101261185D01*
X149676626Y-101332075D01*
X149635025Y-101389606D01*
X149585654Y-101412153D01*
X149585672Y-101412210D01*
X149585215Y-101412353D01*
X149585214Y-101412354D01*
X149510762Y-101435685D01*
X149430208Y-101460929D01*
X149430206Y-101460930D01*
X149422959Y-101463201D01*
X149416464Y-101467135D01*
X149416463Y-101467135D01*
X149350032Y-101507367D01*
X149277106Y-101551533D01*
X149156533Y-101672106D01*
X149068201Y-101817959D01*
X149017210Y-101980672D01*
X149010500Y-102053694D01*
X149010500Y-103066306D01*
X149017210Y-103139328D01*
X149068201Y-103302041D01*
X149156533Y-103447894D01*
X149277106Y-103568467D01*
X149283602Y-103572401D01*
X149404537Y-103645642D01*
X149422959Y-103656799D01*
X149430206Y-103659070D01*
X149430208Y-103659071D01*
X149468201Y-103670977D01*
X149584373Y-103707383D01*
X149585672Y-103707790D01*
X149585598Y-103708026D01*
X149645470Y-103739444D01*
X149680520Y-103801185D01*
X149676626Y-103872075D01*
X149635025Y-103929606D01*
X149585654Y-103952153D01*
X149585672Y-103952210D01*
X149585215Y-103952353D01*
X149585214Y-103952354D01*
X149510762Y-103975685D01*
X149430208Y-104000929D01*
X149430206Y-104000930D01*
X149422959Y-104003201D01*
X149416464Y-104007135D01*
X149416463Y-104007135D01*
X149350032Y-104047367D01*
X149277106Y-104091533D01*
X149156533Y-104212106D01*
X149068201Y-104357959D01*
X149017210Y-104520672D01*
X149010500Y-104593694D01*
X149010500Y-105606306D01*
X149017210Y-105679328D01*
X149019211Y-105685712D01*
X149019211Y-105685714D01*
X149056291Y-105804035D01*
X149068201Y-105842041D01*
X149156533Y-105987894D01*
X149277106Y-106108467D01*
X149322456Y-106135932D01*
X149404537Y-106185642D01*
X149422959Y-106196799D01*
X149430206Y-106199070D01*
X149430208Y-106199071D01*
X149468201Y-106210977D01*
X149584373Y-106247383D01*
X149585672Y-106247790D01*
X149585598Y-106248026D01*
X149645470Y-106279444D01*
X149680520Y-106341185D01*
X149676626Y-106412075D01*
X149635025Y-106469606D01*
X149585654Y-106492153D01*
X149585672Y-106492210D01*
X149585215Y-106492353D01*
X149585214Y-106492354D01*
X149525563Y-106511047D01*
X149430208Y-106540929D01*
X149430206Y-106540930D01*
X149422959Y-106543201D01*
X149416464Y-106547135D01*
X149416463Y-106547135D01*
X149357275Y-106582981D01*
X149277106Y-106631533D01*
X149156533Y-106752106D01*
X149068201Y-106897959D01*
X149017210Y-107060672D01*
X149010500Y-107133694D01*
X149010500Y-108146306D01*
X149017210Y-108219328D01*
X149068201Y-108382041D01*
X149156533Y-108527894D01*
X149277106Y-108648467D01*
X149283602Y-108652401D01*
X149404537Y-108725642D01*
X149422959Y-108736799D01*
X149430206Y-108739070D01*
X149430208Y-108739071D01*
X149468201Y-108750977D01*
X149584373Y-108787383D01*
X149585672Y-108787790D01*
X149585598Y-108788026D01*
X149645470Y-108819444D01*
X149680520Y-108881185D01*
X149676626Y-108952075D01*
X149635025Y-109009606D01*
X149585654Y-109032153D01*
X149585672Y-109032210D01*
X149585215Y-109032353D01*
X149585214Y-109032354D01*
X149510762Y-109055685D01*
X149430208Y-109080929D01*
X149430206Y-109080930D01*
X149422959Y-109083201D01*
X149416464Y-109087135D01*
X149416463Y-109087135D01*
X149350033Y-109127367D01*
X149277106Y-109171533D01*
X149156533Y-109292106D01*
X149068201Y-109437959D01*
X149017210Y-109600672D01*
X149010500Y-109673694D01*
X149010500Y-110686306D01*
X149017210Y-110759328D01*
X149068201Y-110922041D01*
X149156533Y-111067894D01*
X149277106Y-111188467D01*
X149283602Y-111192401D01*
X149404537Y-111265642D01*
X149422959Y-111276799D01*
X149430206Y-111279070D01*
X149430208Y-111279071D01*
X149468201Y-111290977D01*
X149584373Y-111327383D01*
X149585672Y-111327790D01*
X149585598Y-111328026D01*
X149645470Y-111359444D01*
X149680520Y-111421185D01*
X149676626Y-111492075D01*
X149635025Y-111549606D01*
X149585654Y-111572153D01*
X149585672Y-111572210D01*
X149585215Y-111572353D01*
X149585214Y-111572354D01*
X149510762Y-111595685D01*
X149430208Y-111620929D01*
X149430206Y-111620930D01*
X149422959Y-111623201D01*
X149416464Y-111627135D01*
X149416463Y-111627135D01*
X149350033Y-111667367D01*
X149277106Y-111711533D01*
X149156533Y-111832106D01*
X149068201Y-111977959D01*
X149017210Y-112140672D01*
X149010500Y-112213694D01*
X149010500Y-113226306D01*
X149017210Y-113299328D01*
X149019211Y-113305712D01*
X149019211Y-113305714D01*
X149062662Y-113444365D01*
X149068201Y-113462041D01*
X149072135Y-113468536D01*
X149072135Y-113468537D01*
X149087695Y-113494229D01*
X149156533Y-113607894D01*
X149277106Y-113728467D01*
X149283602Y-113732401D01*
X149404537Y-113805642D01*
X149422959Y-113816799D01*
X149430206Y-113819070D01*
X149430208Y-113819071D01*
X149468201Y-113830977D01*
X149584373Y-113867383D01*
X149585672Y-113867790D01*
X149585598Y-113868026D01*
X149645470Y-113899444D01*
X149680520Y-113961185D01*
X149676626Y-114032075D01*
X149635025Y-114089606D01*
X149585654Y-114112153D01*
X149585672Y-114112210D01*
X149585215Y-114112353D01*
X149585214Y-114112354D01*
X149510762Y-114135685D01*
X149430208Y-114160929D01*
X149430206Y-114160930D01*
X149422959Y-114163201D01*
X149416464Y-114167135D01*
X149416463Y-114167135D01*
X149350032Y-114207367D01*
X149277106Y-114251533D01*
X149156533Y-114372106D01*
X149068201Y-114517959D01*
X149017210Y-114680672D01*
X149010500Y-114753694D01*
X149010500Y-115766306D01*
X149017210Y-115839328D01*
X149019211Y-115845712D01*
X149019211Y-115845714D01*
X149052066Y-115950553D01*
X149068201Y-116002041D01*
X149156533Y-116147894D01*
X149277106Y-116268467D01*
X149283602Y-116272401D01*
X149415965Y-116352563D01*
X149422959Y-116356799D01*
X149430206Y-116359070D01*
X149430208Y-116359071D01*
X149579286Y-116405789D01*
X149579288Y-116405789D01*
X149585672Y-116407790D01*
X149658694Y-116414500D01*
X151571306Y-116414500D01*
X151644328Y-116407790D01*
X151650712Y-116405789D01*
X151650714Y-116405789D01*
X151799789Y-116359072D01*
X151799792Y-116359071D01*
X151807041Y-116356799D01*
X151813539Y-116352864D01*
X151817651Y-116351007D01*
X151887968Y-116341206D01*
X151952422Y-116370977D01*
X151990548Y-116430867D01*
X151995500Y-116465845D01*
X151995500Y-121236424D01*
X151975498Y-121304545D01*
X151921842Y-121351038D01*
X151892214Y-121360360D01*
X151649540Y-121404831D01*
X151360271Y-121494970D01*
X151356801Y-121496532D01*
X151356795Y-121496534D01*
X151222123Y-121557145D01*
X151083976Y-121619320D01*
X151080719Y-121621289D01*
X151080715Y-121621291D01*
X151002034Y-121668856D01*
X150824685Y-121776067D01*
X150586177Y-121962925D01*
X150371932Y-122177169D01*
X150369590Y-122180159D01*
X150369585Y-122180164D01*
X150187416Y-122412685D01*
X150185073Y-122415676D01*
X150028325Y-122674966D01*
X149903974Y-122951261D01*
X149813834Y-123240529D01*
X149813150Y-123244263D01*
X149813148Y-123244270D01*
X149767348Y-123494187D01*
X149759217Y-123538554D01*
X149758988Y-123542342D01*
X149758987Y-123542349D01*
X149751603Y-123664423D01*
X149741100Y-123838041D01*
X149740514Y-123840989D01*
X149742934Y-123853155D01*
X149742934Y-123853156D01*
X149743079Y-123853883D01*
X149745500Y-123878465D01*
X149745500Y-127869500D01*
X149725498Y-127937621D01*
X149671842Y-127984114D01*
X149619500Y-127995500D01*
X134130500Y-127995500D01*
X134062379Y-127975498D01*
X134015886Y-127921842D01*
X134004500Y-127869500D01*
X134004500Y-123624933D01*
X138085500Y-123624933D01*
X138085501Y-125875066D01*
X138100266Y-125949301D01*
X138107161Y-125959620D01*
X138107162Y-125959622D01*
X138138027Y-126005813D01*
X138156516Y-126033484D01*
X138240699Y-126089734D01*
X138314933Y-126104500D01*
X139189858Y-126104500D01*
X140065066Y-126104499D01*
X140102513Y-126097051D01*
X140127126Y-126092156D01*
X140127128Y-126092155D01*
X140139301Y-126089734D01*
X140149621Y-126082839D01*
X140149622Y-126082838D01*
X140213168Y-126040377D01*
X140223484Y-126033484D01*
X140249309Y-125994835D01*
X140272839Y-125959620D01*
X140279734Y-125949301D01*
X140294500Y-125875067D01*
X140294500Y-125052659D01*
X140625500Y-125052659D01*
X140640493Y-125209806D01*
X140699823Y-125412042D01*
X140702573Y-125417381D01*
X140779454Y-125566654D01*
X140796324Y-125599410D01*
X140800028Y-125604125D01*
X140922808Y-125760432D01*
X140922812Y-125760436D01*
X140926514Y-125765149D01*
X140931044Y-125769080D01*
X140931045Y-125769081D01*
X141081165Y-125899350D01*
X141081170Y-125899354D01*
X141085696Y-125903281D01*
X141268126Y-126008819D01*
X141467222Y-126077957D01*
X141473155Y-126078817D01*
X141473158Y-126078818D01*
X141669860Y-126107338D01*
X141669863Y-126107338D01*
X141675800Y-126108199D01*
X141886333Y-126098455D01*
X141892157Y-126097051D01*
X141892160Y-126097051D01*
X142085393Y-126050482D01*
X142085395Y-126050481D01*
X142091226Y-126049076D01*
X142096684Y-126046594D01*
X142096688Y-126046593D01*
X142211294Y-125994484D01*
X142283084Y-125961843D01*
X142429659Y-125857870D01*
X142450100Y-125843370D01*
X142450101Y-125843369D01*
X142454986Y-125839904D01*
X142600728Y-125687660D01*
X142657710Y-125599410D01*
X142711800Y-125515640D01*
X142711801Y-125515637D01*
X142715052Y-125510603D01*
X142793834Y-125315122D01*
X142834229Y-125108271D01*
X142834500Y-125102730D01*
X142834500Y-125052659D01*
X143165500Y-125052659D01*
X143180493Y-125209806D01*
X143239823Y-125412042D01*
X143242573Y-125417381D01*
X143319454Y-125566654D01*
X143336324Y-125599410D01*
X143340028Y-125604125D01*
X143462808Y-125760432D01*
X143462812Y-125760436D01*
X143466514Y-125765149D01*
X143471044Y-125769080D01*
X143471045Y-125769081D01*
X143621165Y-125899350D01*
X143621170Y-125899354D01*
X143625696Y-125903281D01*
X143808126Y-126008819D01*
X144007222Y-126077957D01*
X144013155Y-126078817D01*
X144013158Y-126078818D01*
X144209860Y-126107338D01*
X144209863Y-126107338D01*
X144215800Y-126108199D01*
X144426333Y-126098455D01*
X144432157Y-126097051D01*
X144432160Y-126097051D01*
X144625393Y-126050482D01*
X144625395Y-126050481D01*
X144631226Y-126049076D01*
X144636684Y-126046594D01*
X144636688Y-126046593D01*
X144751294Y-125994484D01*
X144823084Y-125961843D01*
X144969659Y-125857870D01*
X144990100Y-125843370D01*
X144990101Y-125843369D01*
X144994986Y-125839904D01*
X145140728Y-125687660D01*
X145197710Y-125599410D01*
X145251800Y-125515640D01*
X145251801Y-125515637D01*
X145255052Y-125510603D01*
X145285241Y-125435696D01*
X145329257Y-125379990D01*
X145396402Y-125356924D01*
X145465359Y-125373821D01*
X145514233Y-125425317D01*
X145520847Y-125442690D01*
X145521360Y-125442509D01*
X145526665Y-125457575D01*
X145616937Y-125657970D01*
X145622106Y-125667256D01*
X145744850Y-125849575D01*
X145751519Y-125857870D01*
X145903228Y-126016900D01*
X145911186Y-126023941D01*
X146087525Y-126155141D01*
X146096562Y-126160745D01*
X146292484Y-126260357D01*
X146302335Y-126264357D01*
X146512240Y-126329534D01*
X146522624Y-126331817D01*
X146538043Y-126333861D01*
X146552207Y-126331665D01*
X146556000Y-126318478D01*
X146556000Y-126316192D01*
X147064000Y-126316192D01*
X147067973Y-126329723D01*
X147078580Y-126331248D01*
X147196421Y-126306523D01*
X147206617Y-126303463D01*
X147411029Y-126222737D01*
X147420561Y-126218006D01*
X147608462Y-126103984D01*
X147617052Y-126097720D01*
X147783052Y-125953673D01*
X147790472Y-125946042D01*
X147929826Y-125776089D01*
X147935850Y-125767322D01*
X148044576Y-125576318D01*
X148049041Y-125566654D01*
X148124031Y-125360059D01*
X148126802Y-125349792D01*
X148166123Y-125132345D01*
X148167056Y-125124116D01*
X148167930Y-125105598D01*
X148168000Y-125102623D01*
X148168000Y-125022115D01*
X148163525Y-125006876D01*
X148162135Y-125005671D01*
X148154452Y-125004000D01*
X147082115Y-125004000D01*
X147066876Y-125008475D01*
X147065671Y-125009865D01*
X147064000Y-125017548D01*
X147064000Y-126316192D01*
X146556000Y-126316192D01*
X146556000Y-124477885D01*
X147064000Y-124477885D01*
X147068475Y-124493124D01*
X147069865Y-124494329D01*
X147077548Y-124496000D01*
X148149885Y-124496000D01*
X148165124Y-124491525D01*
X148166329Y-124490135D01*
X148168000Y-124482452D01*
X148168000Y-124444794D01*
X148167775Y-124439485D01*
X148153876Y-124275675D01*
X148152086Y-124265203D01*
X148096870Y-124052465D01*
X148093335Y-124042425D01*
X148003063Y-123842030D01*
X147997894Y-123832744D01*
X147875150Y-123650425D01*
X147868481Y-123642130D01*
X147716772Y-123483100D01*
X147708814Y-123476059D01*
X147532475Y-123344859D01*
X147523438Y-123339255D01*
X147327516Y-123239643D01*
X147317665Y-123235643D01*
X147107760Y-123170466D01*
X147097376Y-123168183D01*
X147081957Y-123166139D01*
X147067793Y-123168335D01*
X147064000Y-123181522D01*
X147064000Y-124477885D01*
X146556000Y-124477885D01*
X146556000Y-123183808D01*
X146552027Y-123170277D01*
X146541420Y-123168752D01*
X146423579Y-123193477D01*
X146413383Y-123196537D01*
X146208971Y-123277263D01*
X146199439Y-123281994D01*
X146011538Y-123396016D01*
X146002948Y-123402280D01*
X145836948Y-123546327D01*
X145829528Y-123553958D01*
X145690174Y-123723911D01*
X145684150Y-123732678D01*
X145575424Y-123923682D01*
X145570959Y-123933346D01*
X145524497Y-124061345D01*
X145482452Y-124118553D01*
X145416153Y-124143949D01*
X145346649Y-124129469D01*
X145294042Y-124076046D01*
X145206422Y-123905921D01*
X145206420Y-123905918D01*
X145203676Y-123900590D01*
X145134355Y-123812340D01*
X145077192Y-123739568D01*
X145077188Y-123739564D01*
X145073486Y-123734851D01*
X145060879Y-123723911D01*
X144918835Y-123600650D01*
X144918830Y-123600646D01*
X144914304Y-123596719D01*
X144731874Y-123491181D01*
X144532778Y-123422043D01*
X144526845Y-123421183D01*
X144526842Y-123421182D01*
X144330140Y-123392662D01*
X144330137Y-123392662D01*
X144324200Y-123391801D01*
X144113667Y-123401545D01*
X144107843Y-123402949D01*
X144107840Y-123402949D01*
X143914607Y-123449518D01*
X143914605Y-123449519D01*
X143908774Y-123450924D01*
X143903316Y-123453406D01*
X143903312Y-123453407D01*
X143838007Y-123483100D01*
X143716916Y-123538157D01*
X143638594Y-123593715D01*
X143558648Y-123650425D01*
X143545014Y-123660096D01*
X143399272Y-123812340D01*
X143396021Y-123817375D01*
X143321140Y-123933346D01*
X143284948Y-123989397D01*
X143206166Y-124184878D01*
X143165771Y-124391729D01*
X143165500Y-124397270D01*
X143165500Y-125052659D01*
X142834500Y-125052659D01*
X142834500Y-124447341D01*
X142819507Y-124290194D01*
X142760177Y-124087958D01*
X142709415Y-123989397D01*
X142666422Y-123905921D01*
X142666420Y-123905918D01*
X142663676Y-123900590D01*
X142594355Y-123812340D01*
X142537192Y-123739568D01*
X142537188Y-123739564D01*
X142533486Y-123734851D01*
X142520879Y-123723911D01*
X142378835Y-123600650D01*
X142378830Y-123600646D01*
X142374304Y-123596719D01*
X142191874Y-123491181D01*
X141992778Y-123422043D01*
X141986845Y-123421183D01*
X141986842Y-123421182D01*
X141790140Y-123392662D01*
X141790137Y-123392662D01*
X141784200Y-123391801D01*
X141573667Y-123401545D01*
X141567843Y-123402949D01*
X141567840Y-123402949D01*
X141374607Y-123449518D01*
X141374605Y-123449519D01*
X141368774Y-123450924D01*
X141363316Y-123453406D01*
X141363312Y-123453407D01*
X141298007Y-123483100D01*
X141176916Y-123538157D01*
X141098594Y-123593715D01*
X141018648Y-123650425D01*
X141005014Y-123660096D01*
X140859272Y-123812340D01*
X140856021Y-123817375D01*
X140781140Y-123933346D01*
X140744948Y-123989397D01*
X140666166Y-124184878D01*
X140625771Y-124391729D01*
X140625500Y-124397270D01*
X140625500Y-125052659D01*
X140294500Y-125052659D01*
X140294499Y-123624934D01*
X140279734Y-123550699D01*
X140269697Y-123535677D01*
X140230377Y-123476832D01*
X140223484Y-123466516D01*
X140139301Y-123410266D01*
X140065067Y-123395500D01*
X139190142Y-123395500D01*
X138314934Y-123395501D01*
X138280851Y-123402280D01*
X138252874Y-123407844D01*
X138252872Y-123407845D01*
X138240699Y-123410266D01*
X138230379Y-123417161D01*
X138230378Y-123417162D01*
X138181955Y-123449518D01*
X138156516Y-123466516D01*
X138149623Y-123476832D01*
X138110304Y-123535677D01*
X138100266Y-123550699D01*
X138085500Y-123624933D01*
X134004500Y-123624933D01*
X134004500Y-116470360D01*
X134024502Y-116402239D01*
X134078158Y-116355746D01*
X134148432Y-116345642D01*
X134179462Y-116354681D01*
X134182959Y-116356799D01*
X134190206Y-116359070D01*
X134190208Y-116359071D01*
X134339286Y-116405789D01*
X134339288Y-116405789D01*
X134345672Y-116407790D01*
X134418694Y-116414500D01*
X136331306Y-116414500D01*
X136404328Y-116407790D01*
X136410712Y-116405789D01*
X136410714Y-116405789D01*
X136559792Y-116359071D01*
X136559794Y-116359070D01*
X136567041Y-116356799D01*
X136574036Y-116352563D01*
X136706398Y-116272401D01*
X136712894Y-116268467D01*
X136833467Y-116147894D01*
X136921799Y-116002041D01*
X136937935Y-115950553D01*
X136970789Y-115845714D01*
X136970789Y-115845712D01*
X136972790Y-115839328D01*
X136977038Y-115793096D01*
X140340729Y-115793096D01*
X140358113Y-115950553D01*
X140360723Y-115957684D01*
X140360723Y-115957686D01*
X140376955Y-116002041D01*
X140412553Y-116099319D01*
X140416789Y-116105622D01*
X140416789Y-116105623D01*
X140448805Y-116153267D01*
X140500908Y-116230805D01*
X140506527Y-116235918D01*
X140506528Y-116235919D01*
X140612460Y-116332309D01*
X140618076Y-116337419D01*
X140757293Y-116413008D01*
X140910522Y-116453207D01*
X140994477Y-116454526D01*
X141061319Y-116455576D01*
X141061322Y-116455576D01*
X141068916Y-116455695D01*
X141223332Y-116420329D01*
X141293742Y-116384917D01*
X141358072Y-116352563D01*
X141358075Y-116352561D01*
X141364855Y-116349151D01*
X141370626Y-116344222D01*
X141370629Y-116344220D01*
X141479536Y-116251204D01*
X141479536Y-116251203D01*
X141485314Y-116246269D01*
X141577755Y-116117624D01*
X141636842Y-115970641D01*
X141655530Y-115839328D01*
X141658581Y-115817891D01*
X141658581Y-115817888D01*
X141659162Y-115813807D01*
X141659307Y-115800000D01*
X141653437Y-115751496D01*
X141665109Y-115681468D01*
X141689429Y-115647265D01*
X143580216Y-113756478D01*
X143598964Y-113741336D01*
X143600189Y-113740221D01*
X143608940Y-113734571D01*
X143615387Y-113726393D01*
X143615389Y-113726391D01*
X143629729Y-113708200D01*
X143633675Y-113703759D01*
X143633602Y-113703697D01*
X143636961Y-113699733D01*
X143640638Y-113696056D01*
X143651892Y-113680308D01*
X143655398Y-113675638D01*
X143687156Y-113635353D01*
X143690188Y-113626719D01*
X143695514Y-113619266D01*
X143710203Y-113570150D01*
X143712036Y-113564508D01*
X143726390Y-113523633D01*
X143726390Y-113523632D01*
X143729018Y-113516149D01*
X143729500Y-113510584D01*
X143729500Y-113507876D01*
X143729614Y-113505242D01*
X143729643Y-113505144D01*
X143729807Y-113505151D01*
X143729851Y-113504447D01*
X143731713Y-113498222D01*
X143729597Y-113444365D01*
X143729500Y-113439418D01*
X143729500Y-106840587D01*
X143749502Y-106772466D01*
X143766405Y-106751492D01*
X144347144Y-106170753D01*
X144409456Y-106136727D01*
X144438218Y-106133864D01*
X144562284Y-106135813D01*
X144562287Y-106135813D01*
X144569882Y-106135932D01*
X144724298Y-106100566D01*
X144794708Y-106065154D01*
X144859038Y-106032800D01*
X144859041Y-106032798D01*
X144865821Y-106029388D01*
X144871592Y-106024459D01*
X144871595Y-106024457D01*
X144980502Y-105931441D01*
X144980502Y-105931440D01*
X144986280Y-105926506D01*
X145078721Y-105797861D01*
X145137808Y-105650878D01*
X145160128Y-105494044D01*
X145160273Y-105480237D01*
X145141242Y-105322970D01*
X145085246Y-105174783D01*
X144995519Y-105044229D01*
X144877241Y-104938848D01*
X144869855Y-104934937D01*
X144743954Y-104868276D01*
X144743955Y-104868276D01*
X144737240Y-104864721D01*
X144583599Y-104826129D01*
X144576000Y-104826089D01*
X144575999Y-104826089D01*
X144510147Y-104825744D01*
X144425187Y-104825299D01*
X144417807Y-104827071D01*
X144417805Y-104827071D01*
X144278529Y-104860508D01*
X144278526Y-104860509D01*
X144271150Y-104862280D01*
X144130380Y-104934937D01*
X144011005Y-105039075D01*
X143919916Y-105168681D01*
X143862372Y-105316274D01*
X143841695Y-105473333D01*
X143844510Y-105498828D01*
X143847929Y-105529803D01*
X143835523Y-105599707D01*
X143811785Y-105632724D01*
X143119784Y-106324725D01*
X143101036Y-106339867D01*
X143099811Y-106340982D01*
X143091060Y-106346632D01*
X143084613Y-106354810D01*
X143084611Y-106354812D01*
X143070271Y-106373003D01*
X143066325Y-106377444D01*
X143066398Y-106377506D01*
X143063039Y-106381470D01*
X143059362Y-106385147D01*
X143048108Y-106400895D01*
X143044602Y-106405565D01*
X143012844Y-106445850D01*
X143009812Y-106454484D01*
X143004486Y-106461937D01*
X143001501Y-106471918D01*
X142989799Y-106511047D01*
X142987964Y-106516695D01*
X142976701Y-106548769D01*
X142970982Y-106565054D01*
X142970500Y-106570619D01*
X142970500Y-106573327D01*
X142970386Y-106575961D01*
X142970357Y-106576059D01*
X142970193Y-106576052D01*
X142970149Y-106576756D01*
X142968287Y-106582981D01*
X142968696Y-106593386D01*
X142970403Y-106636838D01*
X142970500Y-106641785D01*
X142970500Y-113240616D01*
X142950498Y-113308737D01*
X142933595Y-113329711D01*
X141154411Y-115108895D01*
X141092099Y-115142921D01*
X141064658Y-115145798D01*
X140924221Y-115145062D01*
X140916841Y-115146834D01*
X140916839Y-115146834D01*
X140777563Y-115180271D01*
X140777560Y-115180272D01*
X140770184Y-115182043D01*
X140629414Y-115254700D01*
X140510039Y-115358838D01*
X140418950Y-115488444D01*
X140361406Y-115636037D01*
X140360414Y-115643570D01*
X140360414Y-115643571D01*
X140354220Y-115690623D01*
X140340729Y-115793096D01*
X136977038Y-115793096D01*
X136979500Y-115766306D01*
X136979500Y-114753694D01*
X136972790Y-114680672D01*
X136921799Y-114517959D01*
X136833467Y-114372106D01*
X136712894Y-114251533D01*
X136639967Y-114207367D01*
X136573537Y-114167135D01*
X136573536Y-114167135D01*
X136567041Y-114163201D01*
X136559794Y-114160930D01*
X136559792Y-114160929D01*
X136479238Y-114135685D01*
X136404328Y-114112210D01*
X136404402Y-114111974D01*
X136344530Y-114080556D01*
X136309480Y-114018815D01*
X136313374Y-113947925D01*
X136354975Y-113890394D01*
X136404346Y-113867847D01*
X136404328Y-113867790D01*
X136404785Y-113867647D01*
X136404786Y-113867646D01*
X136521799Y-113830977D01*
X136559792Y-113819071D01*
X136559794Y-113819070D01*
X136567041Y-113816799D01*
X136585464Y-113805642D01*
X136706398Y-113732401D01*
X136712894Y-113728467D01*
X136833467Y-113607894D01*
X136902305Y-113494229D01*
X136917865Y-113468537D01*
X136917865Y-113468536D01*
X136921799Y-113462041D01*
X136927339Y-113444365D01*
X136970789Y-113305714D01*
X136970789Y-113305712D01*
X136972790Y-113299328D01*
X136979500Y-113226306D01*
X136979500Y-112213694D01*
X136972790Y-112140672D01*
X136921799Y-111977959D01*
X136833467Y-111832106D01*
X136712894Y-111711533D01*
X136639967Y-111667367D01*
X136573537Y-111627135D01*
X136573536Y-111627135D01*
X136567041Y-111623201D01*
X136559794Y-111620930D01*
X136559792Y-111620929D01*
X136479238Y-111595685D01*
X136404328Y-111572210D01*
X136404402Y-111571974D01*
X136344530Y-111540556D01*
X136309480Y-111478815D01*
X136313374Y-111407925D01*
X136354975Y-111350394D01*
X136404346Y-111327847D01*
X136404328Y-111327790D01*
X136404785Y-111327647D01*
X136404786Y-111327646D01*
X136521799Y-111290977D01*
X136559792Y-111279071D01*
X136559794Y-111279070D01*
X136567041Y-111276799D01*
X136585464Y-111265642D01*
X136706398Y-111192401D01*
X136712894Y-111188467D01*
X136833467Y-111067894D01*
X136921799Y-110922041D01*
X136972790Y-110759328D01*
X136979500Y-110686306D01*
X136979500Y-109673694D01*
X136972790Y-109600672D01*
X136921799Y-109437959D01*
X136833467Y-109292106D01*
X136712894Y-109171533D01*
X136639968Y-109127367D01*
X136573537Y-109087135D01*
X136573536Y-109087135D01*
X136567041Y-109083201D01*
X136559794Y-109080930D01*
X136559792Y-109080929D01*
X136479238Y-109055685D01*
X136404328Y-109032210D01*
X136404402Y-109031974D01*
X136344530Y-109000556D01*
X136309480Y-108938815D01*
X136313374Y-108867925D01*
X136354975Y-108810394D01*
X136404346Y-108787847D01*
X136404328Y-108787790D01*
X136404785Y-108787647D01*
X136404786Y-108787646D01*
X136521799Y-108750977D01*
X136559792Y-108739071D01*
X136559794Y-108739070D01*
X136567041Y-108736799D01*
X136585464Y-108725642D01*
X136706398Y-108652401D01*
X136712894Y-108648467D01*
X136833467Y-108527894D01*
X136921799Y-108382041D01*
X136972790Y-108219328D01*
X136979500Y-108146306D01*
X136979500Y-107133694D01*
X136972790Y-107060672D01*
X136921799Y-106897959D01*
X136833467Y-106752106D01*
X136712894Y-106631533D01*
X136632725Y-106582981D01*
X136573537Y-106547135D01*
X136573536Y-106547135D01*
X136567041Y-106543201D01*
X136559794Y-106540930D01*
X136559792Y-106540929D01*
X136464437Y-106511047D01*
X136404328Y-106492210D01*
X136404402Y-106491974D01*
X136344530Y-106460556D01*
X136309480Y-106398815D01*
X136313374Y-106327925D01*
X136354975Y-106270394D01*
X136404346Y-106247847D01*
X136404328Y-106247790D01*
X136404785Y-106247647D01*
X136404786Y-106247646D01*
X136521799Y-106210977D01*
X136559792Y-106199071D01*
X136559794Y-106199070D01*
X136567041Y-106196799D01*
X136585464Y-106185642D01*
X136667544Y-106135932D01*
X136712894Y-106108467D01*
X136833467Y-105987894D01*
X136921799Y-105842041D01*
X136933710Y-105804035D01*
X136970789Y-105685714D01*
X136970789Y-105685712D01*
X136972790Y-105679328D01*
X136979500Y-105606306D01*
X136979500Y-104593694D01*
X136972790Y-104520672D01*
X136921799Y-104357959D01*
X136833467Y-104212106D01*
X136712894Y-104091533D01*
X136639968Y-104047367D01*
X136573537Y-104007135D01*
X136573536Y-104007135D01*
X136567041Y-104003201D01*
X136559794Y-104000930D01*
X136559792Y-104000929D01*
X136479238Y-103975685D01*
X136404328Y-103952210D01*
X136404402Y-103951974D01*
X136344530Y-103920556D01*
X136309480Y-103858815D01*
X136313374Y-103787925D01*
X136354975Y-103730394D01*
X136404346Y-103707847D01*
X136404328Y-103707790D01*
X136404785Y-103707647D01*
X136404786Y-103707646D01*
X136521799Y-103670977D01*
X136559792Y-103659071D01*
X136559794Y-103659070D01*
X136567041Y-103656799D01*
X136585464Y-103645642D01*
X136706398Y-103572401D01*
X136712894Y-103568467D01*
X136833467Y-103447894D01*
X136921799Y-103302041D01*
X136972790Y-103139328D01*
X136979500Y-103066306D01*
X136979500Y-102053694D01*
X136972790Y-101980672D01*
X136921799Y-101817959D01*
X136833467Y-101672106D01*
X136712894Y-101551533D01*
X136639967Y-101507367D01*
X136573537Y-101467135D01*
X136573536Y-101467135D01*
X136567041Y-101463201D01*
X136559794Y-101460930D01*
X136559792Y-101460929D01*
X136479238Y-101435685D01*
X136404328Y-101412210D01*
X136404402Y-101411974D01*
X136344530Y-101380556D01*
X136309480Y-101318815D01*
X136313374Y-101247925D01*
X136354975Y-101190394D01*
X136404346Y-101167847D01*
X136404328Y-101167790D01*
X136404785Y-101167647D01*
X136404786Y-101167646D01*
X136521799Y-101130977D01*
X136559792Y-101119071D01*
X136559794Y-101119070D01*
X136567041Y-101116799D01*
X136585464Y-101105642D01*
X136706398Y-101032401D01*
X136712894Y-101028467D01*
X136833467Y-100907894D01*
X136921799Y-100762041D01*
X136972790Y-100599328D01*
X136979500Y-100526306D01*
X136979500Y-99513694D01*
X136972790Y-99440672D01*
X136921799Y-99277959D01*
X136833467Y-99132106D01*
X136712894Y-99011533D01*
X136639967Y-98967367D01*
X136573537Y-98927135D01*
X136573536Y-98927135D01*
X136567041Y-98923201D01*
X136559794Y-98920930D01*
X136559792Y-98920929D01*
X136479238Y-98895685D01*
X136404328Y-98872210D01*
X136404402Y-98871974D01*
X136344530Y-98840556D01*
X136309480Y-98778815D01*
X136313374Y-98707925D01*
X136354975Y-98650394D01*
X136404346Y-98627847D01*
X136404328Y-98627790D01*
X136404785Y-98627647D01*
X136404786Y-98627646D01*
X136521799Y-98590977D01*
X136559792Y-98579071D01*
X136559794Y-98579070D01*
X136567041Y-98576799D01*
X136585464Y-98565642D01*
X136706398Y-98492401D01*
X136712894Y-98488467D01*
X136833467Y-98367894D01*
X136921799Y-98222041D01*
X136972790Y-98059328D01*
X136979500Y-97986306D01*
X136979500Y-96973694D01*
X136972790Y-96900672D01*
X136921799Y-96737959D01*
X136833467Y-96592106D01*
X136712894Y-96471533D01*
X136639968Y-96427367D01*
X136573537Y-96387135D01*
X136573536Y-96387135D01*
X136567041Y-96383201D01*
X136559794Y-96380930D01*
X136559792Y-96380929D01*
X136479238Y-96355685D01*
X136404328Y-96332210D01*
X136404402Y-96331974D01*
X136344530Y-96300556D01*
X136309480Y-96238815D01*
X136313374Y-96167925D01*
X136354975Y-96110394D01*
X136404346Y-96087847D01*
X136404328Y-96087790D01*
X136404785Y-96087647D01*
X136404786Y-96087646D01*
X136521799Y-96050977D01*
X136559792Y-96039071D01*
X136559794Y-96039070D01*
X136567041Y-96036799D01*
X136585464Y-96025642D01*
X136706398Y-95952401D01*
X136712894Y-95948467D01*
X136833467Y-95827894D01*
X136921799Y-95682041D01*
X136972790Y-95519328D01*
X136979500Y-95446306D01*
X136979500Y-94433694D01*
X136972790Y-94360672D01*
X136921799Y-94197959D01*
X136833467Y-94052106D01*
X136712894Y-93931533D01*
X136639967Y-93887367D01*
X136573537Y-93847135D01*
X136573536Y-93847135D01*
X136567041Y-93843201D01*
X136559794Y-93840930D01*
X136559792Y-93840929D01*
X136479238Y-93815685D01*
X136404328Y-93792210D01*
X136404402Y-93791974D01*
X136344530Y-93760556D01*
X136309480Y-93698815D01*
X136313374Y-93627925D01*
X136354975Y-93570394D01*
X136404346Y-93547847D01*
X136404328Y-93547790D01*
X136404785Y-93547647D01*
X136404786Y-93547646D01*
X136521799Y-93510977D01*
X136559792Y-93499071D01*
X136559794Y-93499070D01*
X136567041Y-93496799D01*
X136585464Y-93485642D01*
X136706398Y-93412401D01*
X136712894Y-93408467D01*
X136833467Y-93287894D01*
X136921799Y-93142041D01*
X136972790Y-92979328D01*
X136979500Y-92906306D01*
X136979500Y-91893694D01*
X136972790Y-91820672D01*
X136921799Y-91657959D01*
X136833467Y-91512106D01*
X136712894Y-91391533D01*
X136567041Y-91303201D01*
X136559794Y-91300930D01*
X136559792Y-91300929D01*
X136479238Y-91275685D01*
X136404328Y-91252210D01*
X136404402Y-91251974D01*
X136344530Y-91220556D01*
X136309480Y-91158815D01*
X136313374Y-91087925D01*
X136354975Y-91030394D01*
X136404346Y-91007847D01*
X136404328Y-91007790D01*
X136404785Y-91007647D01*
X136404786Y-91007646D01*
X136479238Y-90984315D01*
X136559792Y-90959071D01*
X136559794Y-90959070D01*
X136567041Y-90956799D01*
X136585464Y-90945642D01*
X136706398Y-90872401D01*
X136712894Y-90868467D01*
X136833467Y-90747894D01*
X136921799Y-90602041D01*
X136958075Y-90486286D01*
X136970789Y-90445714D01*
X136970789Y-90445712D01*
X136972790Y-90439328D01*
X136979500Y-90366306D01*
X136979500Y-89353694D01*
X136972790Y-89280672D01*
X136970789Y-89274286D01*
X136924071Y-89125208D01*
X136924070Y-89125206D01*
X136921799Y-89117959D01*
X136833467Y-88972106D01*
X136712894Y-88851533D01*
X136567041Y-88763201D01*
X136559794Y-88760930D01*
X136559792Y-88760929D01*
X136445361Y-88725069D01*
X136404328Y-88712210D01*
X136404402Y-88711974D01*
X136344530Y-88680556D01*
X136309480Y-88618815D01*
X136313374Y-88547925D01*
X136354975Y-88490394D01*
X136404346Y-88467847D01*
X136404328Y-88467790D01*
X136404785Y-88467647D01*
X136404786Y-88467646D01*
X136479238Y-88444315D01*
X136559792Y-88419071D01*
X136559794Y-88419070D01*
X136567041Y-88416799D01*
X136585464Y-88405642D01*
X136706398Y-88332401D01*
X136712894Y-88328467D01*
X136833467Y-88207894D01*
X136921799Y-88062041D01*
X136972790Y-87899328D01*
X136979500Y-87826306D01*
X136979500Y-86813694D01*
X136972790Y-86740672D01*
X136921799Y-86577959D01*
X136833467Y-86432106D01*
X136712894Y-86311533D01*
X136639967Y-86267367D01*
X136573537Y-86227135D01*
X136573536Y-86227135D01*
X136567041Y-86223201D01*
X136559794Y-86220930D01*
X136559792Y-86220929D01*
X136479238Y-86195685D01*
X136404328Y-86172210D01*
X136404402Y-86171974D01*
X136344530Y-86140556D01*
X136309480Y-86078815D01*
X136313374Y-86007925D01*
X136354975Y-85950394D01*
X136404346Y-85927847D01*
X136404328Y-85927790D01*
X136404785Y-85927647D01*
X136404786Y-85927646D01*
X136521799Y-85890977D01*
X136559792Y-85879071D01*
X136559794Y-85879070D01*
X136567041Y-85876799D01*
X136585464Y-85865642D01*
X136706398Y-85792401D01*
X136712894Y-85788467D01*
X136833467Y-85667894D01*
X136921799Y-85522041D01*
X136972790Y-85359328D01*
X136979500Y-85286306D01*
X136979500Y-84273694D01*
X136972790Y-84200672D01*
X136921799Y-84037959D01*
X136833467Y-83892106D01*
X136712894Y-83771533D01*
X136639967Y-83727367D01*
X136573537Y-83687135D01*
X136573536Y-83687135D01*
X136567041Y-83683201D01*
X136559794Y-83680930D01*
X136559792Y-83680929D01*
X136479238Y-83655685D01*
X136404328Y-83632210D01*
X136404402Y-83631974D01*
X136344530Y-83600556D01*
X136309480Y-83538815D01*
X136313374Y-83467925D01*
X136354975Y-83410394D01*
X136404346Y-83387847D01*
X136404328Y-83387790D01*
X136404785Y-83387647D01*
X136404786Y-83387646D01*
X136521799Y-83350977D01*
X136559792Y-83339071D01*
X136559794Y-83339070D01*
X136567041Y-83336799D01*
X136585464Y-83325642D01*
X136706398Y-83252401D01*
X136712894Y-83248467D01*
X136833467Y-83127894D01*
X136921799Y-82982041D01*
X136972790Y-82819328D01*
X136979500Y-82746306D01*
X136979500Y-81733694D01*
X136972790Y-81660672D01*
X136921799Y-81497959D01*
X136833467Y-81352106D01*
X136712894Y-81231533D01*
X136639967Y-81187367D01*
X136573537Y-81147135D01*
X136573536Y-81147135D01*
X136567041Y-81143201D01*
X136559794Y-81140930D01*
X136559792Y-81140929D01*
X136479238Y-81115685D01*
X136404328Y-81092210D01*
X136404402Y-81091974D01*
X136344530Y-81060556D01*
X136309480Y-80998815D01*
X136313374Y-80927925D01*
X136354975Y-80870394D01*
X136404346Y-80847847D01*
X136404328Y-80847790D01*
X136404785Y-80847647D01*
X136404786Y-80847646D01*
X136521799Y-80810977D01*
X136559792Y-80799071D01*
X136559794Y-80799070D01*
X136567041Y-80796799D01*
X136585464Y-80785642D01*
X136706398Y-80712401D01*
X136712894Y-80708467D01*
X136833467Y-80587894D01*
X136921799Y-80442041D01*
X136972790Y-80279328D01*
X136979500Y-80206306D01*
X136979500Y-79193694D01*
X136972790Y-79120672D01*
X136921799Y-78957959D01*
X136833467Y-78812106D01*
X136712894Y-78691533D01*
X136639968Y-78647367D01*
X136573537Y-78607135D01*
X136573536Y-78607135D01*
X136567041Y-78603201D01*
X136559794Y-78600930D01*
X136559792Y-78600929D01*
X136479238Y-78575685D01*
X136404328Y-78552210D01*
X136404402Y-78551974D01*
X136344530Y-78520556D01*
X136309480Y-78458815D01*
X136313374Y-78387925D01*
X136354975Y-78330394D01*
X136404346Y-78307847D01*
X136404328Y-78307790D01*
X136404785Y-78307647D01*
X136404786Y-78307646D01*
X136521799Y-78270977D01*
X136559792Y-78259071D01*
X136559794Y-78259070D01*
X136567041Y-78256799D01*
X136585464Y-78245642D01*
X136706398Y-78172401D01*
X136712894Y-78168467D01*
X136833467Y-78047894D01*
X136921799Y-77902041D01*
X136972790Y-77739328D01*
X136979500Y-77666306D01*
X136979500Y-76653694D01*
X136972790Y-76580672D01*
X136921799Y-76417959D01*
X136833467Y-76272106D01*
X136776456Y-76215095D01*
X136742430Y-76152783D01*
X136747495Y-76081968D01*
X136790042Y-76025132D01*
X136856562Y-76000321D01*
X136865551Y-76000000D01*
X149124449Y-76000000D01*
X149192570Y-76020002D01*
G37*
G04 #@! TD.AperFunction*
M02*
