G04 #@! TF.GenerationSoftware,KiCad,Pcbnew,(6.0.10)*
G04 #@! TF.CreationDate,2023-01-05T11:17:19+01:00*
G04 #@! TF.ProjectId,PIC_Interface,5049435f-496e-4746-9572-666163652e6b,rev?*
G04 #@! TF.SameCoordinates,Original*
G04 #@! TF.FileFunction,Legend,Bot*
G04 #@! TF.FilePolarity,Positive*
%FSLAX46Y46*%
G04 Gerber Fmt 4.6, Leading zero omitted, Abs format (unit mm)*
G04 Created by KiCad (PCBNEW (6.0.10)) date 2023-01-05 11:17:19*
%MOMM*%
%LPD*%
G01*
G04 APERTURE LIST*
G04 Aperture macros list*
%AMRoundRect*
0 Rectangle with rounded corners*
0 $1 Rounding radius*
0 $2 $3 $4 $5 $6 $7 $8 $9 X,Y pos of 4 corners*
0 Add a 4 corners polygon primitive as box body*
4,1,4,$2,$3,$4,$5,$6,$7,$8,$9,$2,$3,0*
0 Add four circle primitives for the rounded corners*
1,1,$1+$1,$2,$3*
1,1,$1+$1,$4,$5*
1,1,$1+$1,$6,$7*
1,1,$1+$1,$8,$9*
0 Add four rect primitives between the rounded corners*
20,1,$1+$1,$2,$3,$4,$5,0*
20,1,$1+$1,$4,$5,$6,$7,0*
20,1,$1+$1,$6,$7,$8,$9,0*
20,1,$1+$1,$8,$9,$2,$3,0*%
G04 Aperture macros list end*
%ADD10C,0.150000*%
%ADD11O,1.700000X2.200000*%
%ADD12R,1.700000X2.200000*%
%ADD13RoundRect,0.450000X-0.900000X-0.450000X0.900000X-0.450000X0.900000X0.450000X-0.900000X0.450000X0*%
G04 APERTURE END LIST*
D10*
X138438095Y-89695238D02*
X137866666Y-89695238D01*
X137752380Y-89733333D01*
X137676190Y-89809523D01*
X137638095Y-89923809D01*
X137638095Y-90000000D01*
X137638095Y-88933333D02*
X137638095Y-89314285D01*
X138438095Y-89314285D01*
X137714285Y-88209523D02*
X137676190Y-88247619D01*
X137638095Y-88361904D01*
X137638095Y-88438095D01*
X137676190Y-88552380D01*
X137752380Y-88628571D01*
X137828571Y-88666666D01*
X137980952Y-88704761D01*
X138095238Y-88704761D01*
X138247619Y-88666666D01*
X138323809Y-88628571D01*
X138400000Y-88552380D01*
X138438095Y-88438095D01*
X138438095Y-88361904D01*
X138400000Y-88247619D01*
X138361904Y-88209523D01*
X138438095Y-87638095D02*
X137866666Y-87638095D01*
X137752380Y-87676190D01*
X137676190Y-87752380D01*
X137638095Y-87866666D01*
X137638095Y-87942857D01*
X137638095Y-86876190D02*
X137638095Y-87257142D01*
X138438095Y-87257142D01*
X137714285Y-86152380D02*
X137676190Y-86190476D01*
X137638095Y-86304761D01*
X137638095Y-86380952D01*
X137676190Y-86495238D01*
X137752380Y-86571428D01*
X137828571Y-86609523D01*
X137980952Y-86647619D01*
X138095238Y-86647619D01*
X138247619Y-86609523D01*
X138323809Y-86571428D01*
X138400000Y-86495238D01*
X138438095Y-86380952D01*
X138438095Y-86304761D01*
X138400000Y-86190476D01*
X138361904Y-86152380D01*
X138438095Y-85580952D02*
X137866666Y-85580952D01*
X137752380Y-85619047D01*
X137676190Y-85695238D01*
X137638095Y-85809523D01*
X137638095Y-85885714D01*
X137638095Y-84819047D02*
X137638095Y-85200000D01*
X138438095Y-85200000D01*
X137714285Y-84095238D02*
X137676190Y-84133333D01*
X137638095Y-84247619D01*
X137638095Y-84323809D01*
X137676190Y-84438095D01*
X137752380Y-84514285D01*
X137828571Y-84552380D01*
X137980952Y-84590476D01*
X138095238Y-84590476D01*
X138247619Y-84552380D01*
X138323809Y-84514285D01*
X138400000Y-84438095D01*
X138438095Y-84323809D01*
X138438095Y-84247619D01*
X138400000Y-84133333D01*
X138361904Y-84095238D01*
X138438095Y-83523809D02*
X137866666Y-83523809D01*
X137752380Y-83561904D01*
X137676190Y-83638095D01*
X137638095Y-83752380D01*
X137638095Y-83828571D01*
X137638095Y-82761904D02*
X137638095Y-83142857D01*
X138438095Y-83142857D01*
X137714285Y-82038095D02*
X137676190Y-82076190D01*
X137638095Y-82190476D01*
X137638095Y-82266666D01*
X137676190Y-82380952D01*
X137752380Y-82457142D01*
X137828571Y-82495238D01*
X137980952Y-82533333D01*
X138095238Y-82533333D01*
X138247619Y-82495238D01*
X138323809Y-82457142D01*
X138400000Y-82380952D01*
X138438095Y-82266666D01*
X138438095Y-82190476D01*
X138400000Y-82076190D01*
X138361904Y-82038095D01*
X144024285Y-93904761D02*
X143024285Y-93904761D01*
X143500476Y-93428571D02*
X143405238Y-93380952D01*
X143357619Y-93285714D01*
X143500476Y-93904761D02*
X143405238Y-93857142D01*
X143357619Y-93761904D01*
X143357619Y-93571428D01*
X143405238Y-93476190D01*
X143500476Y-93428571D01*
X144024285Y-93428571D01*
X144357619Y-93000000D02*
X144357619Y-92428571D01*
X143357619Y-92714285D02*
X144357619Y-92714285D01*
X143357619Y-92095238D02*
X144024285Y-92095238D01*
X143833809Y-92095238D02*
X143929047Y-92047619D01*
X143976666Y-92000000D01*
X144024285Y-91904761D01*
X144024285Y-91809523D01*
X143357619Y-91047619D02*
X143881428Y-91047619D01*
X143976666Y-91095238D01*
X144024285Y-91190476D01*
X144024285Y-91380952D01*
X143976666Y-91476190D01*
X143405238Y-91047619D02*
X143357619Y-91142857D01*
X143357619Y-91380952D01*
X143405238Y-91476190D01*
X143500476Y-91523809D01*
X143595714Y-91523809D01*
X143690952Y-91476190D01*
X143738571Y-91380952D01*
X143738571Y-91142857D01*
X143786190Y-91047619D01*
X143405238Y-90142857D02*
X143357619Y-90238095D01*
X143357619Y-90428571D01*
X143405238Y-90523809D01*
X143452857Y-90571428D01*
X143548095Y-90619047D01*
X143833809Y-90619047D01*
X143929047Y-90571428D01*
X143976666Y-90523809D01*
X144024285Y-90428571D01*
X144024285Y-90238095D01*
X143976666Y-90142857D01*
X143405238Y-89333333D02*
X143357619Y-89428571D01*
X143357619Y-89619047D01*
X143405238Y-89714285D01*
X143500476Y-89761904D01*
X143881428Y-89761904D01*
X143976666Y-89714285D01*
X144024285Y-89619047D01*
X144024285Y-89428571D01*
X143976666Y-89333333D01*
X143881428Y-89285714D01*
X143786190Y-89285714D01*
X143690952Y-89761904D01*
X143357619Y-88857142D02*
X144024285Y-88857142D01*
X143833809Y-88857142D02*
X143929047Y-88809523D01*
X143976666Y-88761904D01*
X144024285Y-88666666D01*
X144024285Y-88571428D01*
X143357619Y-87476190D02*
X144357619Y-87476190D01*
X144357619Y-87095238D01*
X144310000Y-87000000D01*
X144262380Y-86952380D01*
X144167142Y-86904761D01*
X144024285Y-86904761D01*
X143929047Y-86952380D01*
X143881428Y-87000000D01*
X143833809Y-87095238D01*
X143833809Y-87476190D01*
X143357619Y-86476190D02*
X144357619Y-86476190D01*
X143452857Y-85428571D02*
X143405238Y-85476190D01*
X143357619Y-85619047D01*
X143357619Y-85714285D01*
X143405238Y-85857142D01*
X143500476Y-85952380D01*
X143595714Y-86000000D01*
X143786190Y-86047619D01*
X143929047Y-86047619D01*
X144119523Y-86000000D01*
X144214761Y-85952380D01*
X144310000Y-85857142D01*
X144357619Y-85714285D01*
X144357619Y-85619047D01*
X144310000Y-85476190D01*
X144262380Y-85428571D01*
X143357619Y-84238095D02*
X144357619Y-84238095D01*
X144024285Y-83761904D02*
X143357619Y-83761904D01*
X143929047Y-83761904D02*
X143976666Y-83714285D01*
X144024285Y-83619047D01*
X144024285Y-83476190D01*
X143976666Y-83380952D01*
X143881428Y-83333333D01*
X143357619Y-83333333D01*
X144024285Y-83000000D02*
X144024285Y-82619047D01*
X144357619Y-82857142D02*
X143500476Y-82857142D01*
X143405238Y-82809523D01*
X143357619Y-82714285D01*
X143357619Y-82619047D01*
X143405238Y-81904761D02*
X143357619Y-82000000D01*
X143357619Y-82190476D01*
X143405238Y-82285714D01*
X143500476Y-82333333D01*
X143881428Y-82333333D01*
X143976666Y-82285714D01*
X144024285Y-82190476D01*
X144024285Y-82000000D01*
X143976666Y-81904761D01*
X143881428Y-81857142D01*
X143786190Y-81857142D01*
X143690952Y-82333333D01*
X143357619Y-81428571D02*
X144024285Y-81428571D01*
X143833809Y-81428571D02*
X143929047Y-81380952D01*
X143976666Y-81333333D01*
X144024285Y-81238095D01*
X144024285Y-81142857D01*
X144024285Y-80952380D02*
X144024285Y-80571428D01*
X143357619Y-80809523D02*
X144214761Y-80809523D01*
X144310000Y-80761904D01*
X144357619Y-80666666D01*
X144357619Y-80571428D01*
X143357619Y-79809523D02*
X143881428Y-79809523D01*
X143976666Y-79857142D01*
X144024285Y-79952380D01*
X144024285Y-80142857D01*
X143976666Y-80238095D01*
X143405238Y-79809523D02*
X143357619Y-79904761D01*
X143357619Y-80142857D01*
X143405238Y-80238095D01*
X143500476Y-80285714D01*
X143595714Y-80285714D01*
X143690952Y-80238095D01*
X143738571Y-80142857D01*
X143738571Y-79904761D01*
X143786190Y-79809523D01*
X143405238Y-78904761D02*
X143357619Y-79000000D01*
X143357619Y-79190476D01*
X143405238Y-79285714D01*
X143452857Y-79333333D01*
X143548095Y-79380952D01*
X143833809Y-79380952D01*
X143929047Y-79333333D01*
X143976666Y-79285714D01*
X144024285Y-79190476D01*
X144024285Y-79000000D01*
X143976666Y-78904761D01*
X143405238Y-78095238D02*
X143357619Y-78190476D01*
X143357619Y-78380952D01*
X143405238Y-78476190D01*
X143500476Y-78523809D01*
X143881428Y-78523809D01*
X143976666Y-78476190D01*
X144024285Y-78380952D01*
X144024285Y-78190476D01*
X143976666Y-78095238D01*
X143881428Y-78047619D01*
X143786190Y-78047619D01*
X143690952Y-78523809D01*
X142652380Y-90380952D02*
X142700000Y-90333333D01*
X142747619Y-90238095D01*
X142747619Y-90000000D01*
X142700000Y-89904761D01*
X142652380Y-89857142D01*
X142557142Y-89809523D01*
X142461904Y-89809523D01*
X142319047Y-89857142D01*
X141747619Y-90428571D01*
X141747619Y-89809523D01*
X142747619Y-89476190D02*
X142747619Y-88857142D01*
X142366666Y-89190476D01*
X142366666Y-89047619D01*
X142319047Y-88952380D01*
X142271428Y-88904761D01*
X142176190Y-88857142D01*
X141938095Y-88857142D01*
X141842857Y-88904761D01*
X141795238Y-88952380D01*
X141747619Y-89047619D01*
X141747619Y-89333333D01*
X141795238Y-89428571D01*
X141842857Y-89476190D01*
X141652380Y-88666666D02*
X141652380Y-87904761D01*
X142747619Y-87476190D02*
X142747619Y-87380952D01*
X142700000Y-87285714D01*
X142652380Y-87238095D01*
X142557142Y-87190476D01*
X142366666Y-87142857D01*
X142128571Y-87142857D01*
X141938095Y-87190476D01*
X141842857Y-87238095D01*
X141795238Y-87285714D01*
X141747619Y-87380952D01*
X141747619Y-87476190D01*
X141795238Y-87571428D01*
X141842857Y-87619047D01*
X141938095Y-87666666D01*
X142128571Y-87714285D01*
X142366666Y-87714285D01*
X142557142Y-87666666D01*
X142652380Y-87619047D01*
X142700000Y-87571428D01*
X142747619Y-87476190D01*
X141747619Y-86190476D02*
X141747619Y-86761904D01*
X141747619Y-86476190D02*
X142747619Y-86476190D01*
X142604761Y-86571428D01*
X142509523Y-86666666D01*
X142461904Y-86761904D01*
X141652380Y-86000000D02*
X141652380Y-85238095D01*
X142747619Y-84809523D02*
X142747619Y-84714285D01*
X142700000Y-84619047D01*
X142652380Y-84571428D01*
X142557142Y-84523809D01*
X142366666Y-84476190D01*
X142128571Y-84476190D01*
X141938095Y-84523809D01*
X141842857Y-84571428D01*
X141795238Y-84619047D01*
X141747619Y-84714285D01*
X141747619Y-84809523D01*
X141795238Y-84904761D01*
X141842857Y-84952380D01*
X141938095Y-85000000D01*
X142128571Y-85047619D01*
X142366666Y-85047619D01*
X142557142Y-85000000D01*
X142652380Y-84952380D01*
X142700000Y-84904761D01*
X142747619Y-84809523D01*
X141747619Y-83523809D02*
X141747619Y-84095238D01*
X141747619Y-83809523D02*
X142747619Y-83809523D01*
X142604761Y-83904761D01*
X142509523Y-84000000D01*
X142461904Y-84095238D01*
X142652380Y-83142857D02*
X142700000Y-83095238D01*
X142747619Y-83000000D01*
X142747619Y-82761904D01*
X142700000Y-82666666D01*
X142652380Y-82619047D01*
X142557142Y-82571428D01*
X142461904Y-82571428D01*
X142319047Y-82619047D01*
X141747619Y-83190476D01*
X141747619Y-82571428D01*
X142747619Y-82238095D02*
X142747619Y-81571428D01*
X141747619Y-82000000D01*
X140661428Y-91452380D02*
X140613809Y-91309523D01*
X140566190Y-91261904D01*
X140470952Y-91214285D01*
X140328095Y-91214285D01*
X140232857Y-91261904D01*
X140185238Y-91309523D01*
X140137619Y-91404761D01*
X140137619Y-91785714D01*
X141137619Y-91785714D01*
X141137619Y-91452380D01*
X141090000Y-91357142D01*
X141042380Y-91309523D01*
X140947142Y-91261904D01*
X140851904Y-91261904D01*
X140756666Y-91309523D01*
X140709047Y-91357142D01*
X140661428Y-91452380D01*
X140661428Y-91785714D01*
X140804285Y-90785714D02*
X139947142Y-90785714D01*
X139851904Y-90833333D01*
X139804285Y-90928571D01*
X139804285Y-90976190D01*
X141137619Y-90785714D02*
X141090000Y-90833333D01*
X141042380Y-90785714D01*
X141090000Y-90738095D01*
X141137619Y-90785714D01*
X141042380Y-90785714D01*
X140804285Y-89785714D02*
X140137619Y-90404761D01*
X140137619Y-90166666D02*
X140185238Y-90261904D01*
X140232857Y-90309523D01*
X140328095Y-90357142D01*
X140613809Y-90357142D01*
X140709047Y-90309523D01*
X140756666Y-90261904D01*
X140804285Y-90166666D01*
X140804285Y-90023809D01*
X140756666Y-89928571D01*
X140709047Y-89880952D01*
X140613809Y-89833333D01*
X140328095Y-89833333D01*
X140232857Y-89880952D01*
X140185238Y-89928571D01*
X140137619Y-90023809D01*
X140137619Y-90166666D01*
X140137619Y-89404761D02*
X140804285Y-89404761D01*
X140613809Y-89404761D02*
X140709047Y-89357142D01*
X140756666Y-89309523D01*
X140804285Y-89214285D01*
X140804285Y-89119047D01*
X140804285Y-88785714D02*
X140137619Y-88785714D01*
X140709047Y-88785714D02*
X140756666Y-88738095D01*
X140804285Y-88642857D01*
X140804285Y-88500000D01*
X140756666Y-88404761D01*
X140661428Y-88357142D01*
X140137619Y-88357142D01*
X140185238Y-87500000D02*
X140137619Y-87595238D01*
X140137619Y-87785714D01*
X140185238Y-87880952D01*
X140280476Y-87928571D01*
X140661428Y-87928571D01*
X140756666Y-87880952D01*
X140804285Y-87785714D01*
X140804285Y-87595238D01*
X140756666Y-87500000D01*
X140661428Y-87452380D01*
X140566190Y-87452380D01*
X140470952Y-87928571D01*
X140137619Y-87023809D02*
X140804285Y-87023809D01*
X140613809Y-87023809D02*
X140709047Y-86976190D01*
X140756666Y-86928571D01*
X140804285Y-86833333D01*
X140804285Y-86738095D01*
X140185238Y-85690476D02*
X140137619Y-85547619D01*
X140137619Y-85309523D01*
X140185238Y-85214285D01*
X140232857Y-85166666D01*
X140328095Y-85119047D01*
X140423333Y-85119047D01*
X140518571Y-85166666D01*
X140566190Y-85214285D01*
X140613809Y-85309523D01*
X140661428Y-85500000D01*
X140709047Y-85595238D01*
X140756666Y-85642857D01*
X140851904Y-85690476D01*
X140947142Y-85690476D01*
X141042380Y-85642857D01*
X141090000Y-85595238D01*
X141137619Y-85500000D01*
X141137619Y-85261904D01*
X141090000Y-85119047D01*
X140137619Y-84261904D02*
X140661428Y-84261904D01*
X140756666Y-84309523D01*
X140804285Y-84404761D01*
X140804285Y-84595238D01*
X140756666Y-84690476D01*
X140185238Y-84261904D02*
X140137619Y-84357142D01*
X140137619Y-84595238D01*
X140185238Y-84690476D01*
X140280476Y-84738095D01*
X140375714Y-84738095D01*
X140470952Y-84690476D01*
X140518571Y-84595238D01*
X140518571Y-84357142D01*
X140566190Y-84261904D01*
X140804285Y-83785714D02*
X140137619Y-83785714D01*
X140709047Y-83785714D02*
X140756666Y-83738095D01*
X140804285Y-83642857D01*
X140804285Y-83500000D01*
X140756666Y-83404761D01*
X140661428Y-83357142D01*
X140137619Y-83357142D01*
X140137619Y-82452380D02*
X141137619Y-82452380D01*
X140185238Y-82452380D02*
X140137619Y-82547619D01*
X140137619Y-82738095D01*
X140185238Y-82833333D01*
X140232857Y-82880952D01*
X140328095Y-82928571D01*
X140613809Y-82928571D01*
X140709047Y-82880952D01*
X140756666Y-82833333D01*
X140804285Y-82738095D01*
X140804285Y-82547619D01*
X140756666Y-82452380D01*
X140137619Y-81833333D02*
X140185238Y-81928571D01*
X140232857Y-81976190D01*
X140328095Y-82023809D01*
X140613809Y-82023809D01*
X140709047Y-81976190D01*
X140756666Y-81928571D01*
X140804285Y-81833333D01*
X140804285Y-81690476D01*
X140756666Y-81595238D01*
X140709047Y-81547619D01*
X140613809Y-81500000D01*
X140328095Y-81500000D01*
X140232857Y-81547619D01*
X140185238Y-81595238D01*
X140137619Y-81690476D01*
X140137619Y-81833333D01*
X140137619Y-81071428D02*
X140804285Y-81071428D01*
X140709047Y-81071428D02*
X140756666Y-81023809D01*
X140804285Y-80928571D01*
X140804285Y-80785714D01*
X140756666Y-80690476D01*
X140661428Y-80642857D01*
X140137619Y-80642857D01*
X140661428Y-80642857D02*
X140756666Y-80595238D01*
X140804285Y-80500000D01*
X140804285Y-80357142D01*
X140756666Y-80261904D01*
X140661428Y-80214285D01*
X140137619Y-80214285D01*
G36*
X145726490Y-95889087D02*
G01*
X146359094Y-95889087D01*
X146780830Y-95889087D01*
X147221736Y-95889087D01*
X147221736Y-95533830D01*
X147221724Y-95516030D01*
X147220103Y-95363160D01*
X147214531Y-95244034D01*
X147203290Y-95154533D01*
X147184661Y-95090539D01*
X147156924Y-95047935D01*
X147118359Y-95022601D01*
X147067247Y-95010421D01*
X147001869Y-95007276D01*
X146910975Y-95019786D01*
X146842842Y-95059448D01*
X146801434Y-95126420D01*
X146796316Y-95151044D01*
X146790041Y-95213860D01*
X146785146Y-95303614D01*
X146781965Y-95413649D01*
X146780830Y-95537306D01*
X146780830Y-95889087D01*
X146359094Y-95889087D01*
X146359094Y-95829907D01*
X146359093Y-95829404D01*
X146355574Y-95806751D01*
X146343254Y-95779426D01*
X146319084Y-95743686D01*
X146280016Y-95695788D01*
X146223001Y-95631989D01*
X146144991Y-95548547D01*
X146042938Y-95441718D01*
X145726781Y-95112710D01*
X145726636Y-94656443D01*
X145726490Y-94200177D01*
X146025301Y-94551009D01*
X146083806Y-94619352D01*
X146162431Y-94710019D01*
X146230550Y-94787186D01*
X146284615Y-94846897D01*
X146321081Y-94885193D01*
X146336401Y-94898118D01*
X146346216Y-94880907D01*
X146361623Y-94835937D01*
X146378769Y-94773514D01*
X146394305Y-94715755D01*
X146436979Y-94598343D01*
X146491877Y-94502635D01*
X146565080Y-94416990D01*
X146574448Y-94407752D01*
X146661139Y-94336795D01*
X146755508Y-94288516D01*
X146867200Y-94259150D01*
X147005859Y-94244933D01*
X147133340Y-94245801D01*
X147290888Y-94272921D01*
X147425908Y-94330832D01*
X147539454Y-94420211D01*
X147632579Y-94541738D01*
X147706340Y-94696091D01*
X147711450Y-94709912D01*
X147720199Y-94736337D01*
X147727471Y-94765052D01*
X147733433Y-94799663D01*
X147738254Y-94843773D01*
X147742100Y-94900988D01*
X147745141Y-94974912D01*
X147747545Y-95069151D01*
X147749479Y-95187310D01*
X147751111Y-95332993D01*
X147752611Y-95509805D01*
X147754145Y-95721351D01*
X147760541Y-96636710D01*
X145726490Y-96636710D01*
X145726490Y-95889087D01*
G37*
G36*
X145726490Y-88757917D02*
G01*
X146359094Y-88757917D01*
X146780830Y-88757917D01*
X147221736Y-88757917D01*
X147221736Y-88402660D01*
X147221724Y-88384860D01*
X147220103Y-88231991D01*
X147214531Y-88112864D01*
X147203290Y-88023363D01*
X147184661Y-87959370D01*
X147156924Y-87916765D01*
X147118359Y-87891431D01*
X147067247Y-87879251D01*
X147001869Y-87876106D01*
X146910975Y-87888617D01*
X146842842Y-87928279D01*
X146801434Y-87995250D01*
X146796316Y-88019874D01*
X146790041Y-88082690D01*
X146785146Y-88172444D01*
X146781965Y-88282479D01*
X146780830Y-88406137D01*
X146780830Y-88757917D01*
X146359094Y-88757917D01*
X146359094Y-88698737D01*
X146359093Y-88698234D01*
X146355574Y-88675581D01*
X146343254Y-88648256D01*
X146319084Y-88612516D01*
X146280016Y-88564618D01*
X146223001Y-88500819D01*
X146144991Y-88417377D01*
X146042938Y-88310548D01*
X145726781Y-87981540D01*
X145726636Y-87525274D01*
X145726490Y-87069007D01*
X146025301Y-87419840D01*
X146083806Y-87488182D01*
X146162431Y-87578849D01*
X146230550Y-87656016D01*
X146284615Y-87715727D01*
X146321081Y-87754023D01*
X146336401Y-87766948D01*
X146346216Y-87749737D01*
X146361623Y-87704767D01*
X146378769Y-87642344D01*
X146394305Y-87584585D01*
X146436979Y-87467173D01*
X146491877Y-87371465D01*
X146565080Y-87285821D01*
X146574448Y-87276582D01*
X146661139Y-87205626D01*
X146755508Y-87157346D01*
X146867200Y-87127980D01*
X147005859Y-87113763D01*
X147133340Y-87114631D01*
X147290888Y-87141751D01*
X147425908Y-87199662D01*
X147539454Y-87289041D01*
X147632579Y-87410568D01*
X147706340Y-87564921D01*
X147711450Y-87578742D01*
X147720199Y-87605167D01*
X147727471Y-87633883D01*
X147733433Y-87668493D01*
X147738254Y-87712603D01*
X147742100Y-87769818D01*
X147745141Y-87843742D01*
X147747545Y-87937981D01*
X147749479Y-88056140D01*
X147751111Y-88201823D01*
X147752611Y-88378635D01*
X147754145Y-88590182D01*
X147760541Y-89505540D01*
X145726490Y-89505540D01*
X145726490Y-88757917D01*
G37*
G36*
X147758490Y-81454219D02*
G01*
X145726490Y-81454219D01*
X145726490Y-80706597D01*
X147758490Y-80706597D01*
X147758490Y-81454219D01*
G37*
G36*
X147758490Y-82470219D02*
G01*
X147231320Y-82470219D01*
X147104823Y-82470431D01*
X146968350Y-82471442D01*
X146864292Y-82473428D01*
X146789274Y-82476541D01*
X146739924Y-82480936D01*
X146712868Y-82486765D01*
X146704732Y-82494182D01*
X146711777Y-82502733D01*
X146746559Y-82531445D01*
X146807083Y-82576858D01*
X146889613Y-82636295D01*
X146990415Y-82707080D01*
X147105756Y-82786537D01*
X147231902Y-82871990D01*
X147758490Y-83225835D01*
X147758490Y-84099653D01*
X145726490Y-84099653D01*
X145726490Y-83352031D01*
X146234490Y-83352031D01*
X146367118Y-83351512D01*
X146488957Y-83350013D01*
X146592400Y-83347678D01*
X146672460Y-83344655D01*
X146724152Y-83341089D01*
X146742490Y-83337127D01*
X146736572Y-83330620D01*
X146703927Y-83303836D01*
X146645972Y-83259310D01*
X146566379Y-83199779D01*
X146468821Y-83127979D01*
X146356969Y-83046648D01*
X146234496Y-82958523D01*
X145726501Y-82594823D01*
X145726496Y-82168295D01*
X145726490Y-81741766D01*
X147758490Y-81741766D01*
X147758490Y-82470219D01*
G37*
G36*
X146948566Y-77844621D02*
G01*
X147006953Y-77855850D01*
X147167739Y-77912159D01*
X147313283Y-78002395D01*
X147442208Y-78125074D01*
X147553138Y-78278707D01*
X147644697Y-78461808D01*
X147715508Y-78672891D01*
X147733501Y-78744042D01*
X147747147Y-78811014D01*
X147756268Y-78879036D01*
X147761781Y-78957426D01*
X147764603Y-79055507D01*
X147765650Y-79182597D01*
X147765652Y-79266403D01*
X147764071Y-79377682D01*
X147759848Y-79465547D01*
X147752200Y-79539233D01*
X147740348Y-79607976D01*
X147723509Y-79681012D01*
X147695486Y-79780109D01*
X147616224Y-79979368D01*
X147514030Y-80151280D01*
X147390380Y-80294306D01*
X147246747Y-80406908D01*
X147084607Y-80487546D01*
X146905434Y-80534682D01*
X146778598Y-80546290D01*
X146595058Y-80535504D01*
X146420862Y-80493896D01*
X146362877Y-80471705D01*
X146203009Y-80383820D01*
X146063271Y-80264592D01*
X145944811Y-80115651D01*
X145848771Y-79938632D01*
X145776299Y-79735165D01*
X145728537Y-79506883D01*
X145717784Y-79412047D01*
X145710360Y-79235479D01*
X145715892Y-79049869D01*
X145733496Y-78866768D01*
X145762290Y-78697728D01*
X145801389Y-78554300D01*
X145856867Y-78416943D01*
X145953433Y-78244884D01*
X146069281Y-78100162D01*
X146201925Y-77985238D01*
X146348880Y-77902576D01*
X146507660Y-77854636D01*
X146608302Y-77836359D01*
X146608302Y-78612436D01*
X146553309Y-78635215D01*
X146539073Y-78641762D01*
X146463960Y-78695984D01*
X146393515Y-78777117D01*
X146336114Y-78875880D01*
X146317191Y-78921520D01*
X146304214Y-78968272D01*
X146296559Y-79024328D01*
X146292922Y-79099359D01*
X146292000Y-79203035D01*
X146292174Y-79268776D01*
X146293911Y-79349543D01*
X146298889Y-79407943D01*
X146308761Y-79453827D01*
X146325181Y-79497046D01*
X146349803Y-79547453D01*
X146389555Y-79613464D01*
X146473695Y-79701536D01*
X146578775Y-79757680D01*
X146706296Y-79782889D01*
X146784338Y-79782810D01*
X146908665Y-79755316D01*
X147015599Y-79694686D01*
X147102240Y-79602819D01*
X147165690Y-79481617D01*
X147174661Y-79454516D01*
X147195296Y-79346987D01*
X147202550Y-79221833D01*
X147196818Y-79092580D01*
X147178497Y-78972753D01*
X147147981Y-78875880D01*
X147138588Y-78856087D01*
X147078770Y-78760164D01*
X147006972Y-78683396D01*
X146931672Y-78635215D01*
X146876679Y-78612436D01*
X146876679Y-77833535D01*
X146948566Y-77844621D01*
G37*
G36*
X146940622Y-84267965D02*
G01*
X147160707Y-84316675D01*
X147375094Y-84401749D01*
X147376772Y-84402574D01*
X147473598Y-84453483D01*
X147552241Y-84504153D01*
X147626659Y-84564711D01*
X147710813Y-84645284D01*
X147775713Y-84713491D01*
X147895501Y-84864164D01*
X147987859Y-85023264D01*
X148059762Y-85201917D01*
X148067889Y-85226716D01*
X148086881Y-85291594D01*
X148099350Y-85352093D01*
X148106618Y-85418889D01*
X148110009Y-85502656D01*
X148110845Y-85614068D01*
X148110766Y-85655479D01*
X148109215Y-85756353D01*
X148104661Y-85833190D01*
X148095784Y-85896664D01*
X148081258Y-85957449D01*
X148059762Y-86026219D01*
X147979256Y-86221699D01*
X147870496Y-86399574D01*
X147729736Y-86563350D01*
X147640249Y-86646356D01*
X147457406Y-86778818D01*
X147260864Y-86877526D01*
X147054151Y-86941838D01*
X146840794Y-86971112D01*
X146624324Y-86964706D01*
X146408266Y-86921979D01*
X146196151Y-86842288D01*
X146178862Y-86834017D01*
X146000436Y-86732235D01*
X145843655Y-86612309D01*
X145716639Y-86480369D01*
X145695702Y-86453076D01*
X145631354Y-86355511D01*
X145567992Y-86241976D01*
X145511299Y-86123995D01*
X145466959Y-86013090D01*
X145440653Y-85920785D01*
X145432386Y-85878308D01*
X145420445Y-85817077D01*
X145412601Y-85777012D01*
X145409645Y-85760191D01*
X145402041Y-85647929D01*
X145408742Y-85514785D01*
X145428214Y-85372575D01*
X145458926Y-85233114D01*
X145499344Y-85108218D01*
X145551690Y-84995523D01*
X145654244Y-84832143D01*
X145780524Y-84678687D01*
X145922426Y-84544624D01*
X146071841Y-84439427D01*
X146080300Y-84434542D01*
X146284680Y-84338908D01*
X146498760Y-84279193D01*
X146718690Y-84255508D01*
X146940622Y-84267965D01*
G37*
G36*
X147758490Y-91844257D02*
G01*
X147202566Y-91844257D01*
X147202566Y-91134974D01*
X145726490Y-91134974D01*
X145726490Y-90387351D01*
X147202566Y-90387351D01*
X147202566Y-89678068D01*
X147758490Y-89678068D01*
X147758490Y-91844257D01*
G37*
G36*
X146282415Y-93281993D02*
G01*
X146493283Y-93281993D01*
X146493283Y-91978446D01*
X146972528Y-91978446D01*
X146972528Y-93281993D01*
X147202566Y-93281993D01*
X147202566Y-91978446D01*
X147758490Y-91978446D01*
X147758490Y-94029616D01*
X145726490Y-94029616D01*
X145726490Y-91978446D01*
X146282415Y-91978446D01*
X146282415Y-93281993D01*
G37*
G36*
X146506235Y-75376946D02*
G01*
X146641321Y-75423963D01*
X146752097Y-75500520D01*
X146838105Y-75606257D01*
X146898883Y-75740814D01*
X146904927Y-75760258D01*
X146916430Y-75804050D01*
X146925523Y-75852790D01*
X146932672Y-75912043D01*
X146938342Y-75987373D01*
X146943000Y-76084346D01*
X146947110Y-76208526D01*
X146951138Y-76365479D01*
X146953142Y-76447495D01*
X146957005Y-76584785D01*
X146961014Y-76690804D01*
X146965559Y-76770260D01*
X146971033Y-76827861D01*
X146977825Y-76868315D01*
X146986328Y-76896329D01*
X146996932Y-76916611D01*
X147019844Y-76943324D01*
X147072721Y-76968483D01*
X147129905Y-76960086D01*
X147181940Y-76918056D01*
X147201931Y-76889066D01*
X147238192Y-76801593D01*
X147255565Y-76689026D01*
X147254958Y-76546748D01*
X147248929Y-76475377D01*
X147224189Y-76344471D01*
X147182776Y-76244912D01*
X147123777Y-76174103D01*
X147068377Y-76127487D01*
X147068377Y-75372489D01*
X147146815Y-75385032D01*
X147258734Y-75415847D01*
X147381495Y-75484231D01*
X147489728Y-75584458D01*
X147582303Y-75714111D01*
X147658091Y-75870777D01*
X147715963Y-76052041D01*
X147754790Y-76255489D01*
X147773442Y-76478705D01*
X147770791Y-76719276D01*
X147747169Y-76953754D01*
X147703768Y-77159831D01*
X147641062Y-77335596D01*
X147559473Y-77480114D01*
X147459423Y-77592450D01*
X147341333Y-77671669D01*
X147290761Y-77694791D01*
X147231018Y-77714123D01*
X147165480Y-77723213D01*
X147077962Y-77725359D01*
X146995949Y-77721851D01*
X146889241Y-77701145D01*
X146799733Y-77658247D01*
X146716497Y-77589035D01*
X146687414Y-77558262D01*
X146648276Y-77507905D01*
X146616807Y-77451554D01*
X146592028Y-77384588D01*
X146572961Y-77302388D01*
X146558626Y-77200334D01*
X146548045Y-77073808D01*
X146540239Y-76918190D01*
X146534229Y-76728861D01*
X146531626Y-76633577D01*
X146526870Y-76489570D01*
X146521420Y-76377324D01*
X146514566Y-76292615D01*
X146505599Y-76231214D01*
X146493809Y-76188895D01*
X146478488Y-76161432D01*
X146458924Y-76144597D01*
X146434410Y-76134164D01*
X146379681Y-76125977D01*
X146320412Y-76146594D01*
X146275308Y-76202322D01*
X146244667Y-76292751D01*
X146228783Y-76417473D01*
X146227040Y-76462512D01*
X146232411Y-76596412D01*
X146252206Y-76721851D01*
X146284455Y-76831500D01*
X146327186Y-76918029D01*
X146378431Y-76974111D01*
X146382419Y-76976989D01*
X146394840Y-76988855D01*
X146403777Y-77006622D01*
X146409689Y-77035695D01*
X146413032Y-77081479D01*
X146414266Y-77149379D01*
X146413847Y-77244801D01*
X146412234Y-77373151D01*
X146407019Y-77744861D01*
X146349509Y-77738622D01*
X146286198Y-77724720D01*
X146189364Y-77684734D01*
X146093873Y-77627439D01*
X146013995Y-77560414D01*
X145966042Y-77504596D01*
X145883764Y-77374427D01*
X145814659Y-77217787D01*
X145761603Y-77041769D01*
X145727469Y-76853465D01*
X145725802Y-76839089D01*
X145717805Y-76729706D01*
X145714398Y-76598904D01*
X145715268Y-76456628D01*
X145720102Y-76312821D01*
X145728586Y-76177428D01*
X145740407Y-76060390D01*
X145755252Y-75971653D01*
X145776744Y-75889065D01*
X145840147Y-75722382D01*
X145922701Y-75585591D01*
X146022997Y-75479988D01*
X146139624Y-75406872D01*
X146271173Y-75367540D01*
X146416233Y-75363290D01*
X146506235Y-75376946D01*
G37*
%LPC*%
D11*
X146810000Y-124750000D03*
X144270000Y-124750000D03*
X141730000Y-124750000D03*
D12*
X139190000Y-124750000D03*
D13*
X150615000Y-67000000D03*
X150615000Y-69540000D03*
X150615000Y-72080000D03*
X150615000Y-74620000D03*
X150615000Y-77160000D03*
X150615000Y-79700000D03*
X150615000Y-82240000D03*
X150615000Y-84780000D03*
X150615000Y-87320000D03*
X150615000Y-89860000D03*
X150615000Y-92400000D03*
X150615000Y-94940000D03*
X150615000Y-97480000D03*
X150615000Y-100020000D03*
X150615000Y-102560000D03*
X150615000Y-105100000D03*
X150615000Y-107640000D03*
X150615000Y-110180000D03*
X150615000Y-112720000D03*
X150615000Y-115260000D03*
X135375000Y-115260000D03*
X135375000Y-112720000D03*
X135375000Y-110180000D03*
X135375000Y-107640000D03*
X135375000Y-105100000D03*
X135375000Y-102560000D03*
X135375000Y-100020000D03*
X135375000Y-97480000D03*
X135375000Y-94940000D03*
X135375000Y-92400000D03*
X135375000Y-89860000D03*
X135375000Y-87320000D03*
X135375000Y-84780000D03*
X135375000Y-82240000D03*
X135375000Y-79700000D03*
X135375000Y-77160000D03*
X135375000Y-74620000D03*
X135375000Y-72080000D03*
X135375000Y-69540000D03*
X135375000Y-67000000D03*
M02*
