G04 #@! TF.GenerationSoftware,KiCad,Pcbnew,(6.0.10)*
G04 #@! TF.CreationDate,2023-01-05T11:17:19+01:00*
G04 #@! TF.ProjectId,PIC_Interface,5049435f-496e-4746-9572-666163652e6b,rev?*
G04 #@! TF.SameCoordinates,Original*
G04 #@! TF.FileFunction,Soldermask,Bot*
G04 #@! TF.FilePolarity,Negative*
%FSLAX46Y46*%
G04 Gerber Fmt 4.6, Leading zero omitted, Abs format (unit mm)*
G04 Created by KiCad (PCBNEW (6.0.10)) date 2023-01-05 11:17:19*
%MOMM*%
%LPD*%
G01*
G04 APERTURE LIST*
G04 Aperture macros list*
%AMRoundRect*
0 Rectangle with rounded corners*
0 $1 Rounding radius*
0 $2 $3 $4 $5 $6 $7 $8 $9 X,Y pos of 4 corners*
0 Add a 4 corners polygon primitive as box body*
4,1,4,$2,$3,$4,$5,$6,$7,$8,$9,$2,$3,0*
0 Add four circle primitives for the rounded corners*
1,1,$1+$1,$2,$3*
1,1,$1+$1,$4,$5*
1,1,$1+$1,$6,$7*
1,1,$1+$1,$8,$9*
0 Add four rect primitives between the rounded corners*
20,1,$1+$1,$2,$3,$4,$5,0*
20,1,$1+$1,$4,$5,$6,$7,0*
20,1,$1+$1,$6,$7,$8,$9,0*
20,1,$1+$1,$8,$9,$2,$3,0*%
G04 Aperture macros list end*
%ADD10O,1.700000X2.200000*%
%ADD11R,1.700000X2.200000*%
%ADD12RoundRect,0.450000X-0.900000X-0.450000X0.900000X-0.450000X0.900000X0.450000X-0.900000X0.450000X0*%
G04 APERTURE END LIST*
D10*
X146810000Y-124750000D03*
X144270000Y-124750000D03*
X141730000Y-124750000D03*
D11*
X139190000Y-124750000D03*
D12*
X150615000Y-67000000D03*
X150615000Y-69540000D03*
X150615000Y-72080000D03*
X150615000Y-74620000D03*
X150615000Y-77160000D03*
X150615000Y-79700000D03*
X150615000Y-82240000D03*
X150615000Y-84780000D03*
X150615000Y-87320000D03*
X150615000Y-89860000D03*
X150615000Y-92400000D03*
X150615000Y-94940000D03*
X150615000Y-97480000D03*
X150615000Y-100020000D03*
X150615000Y-102560000D03*
X150615000Y-105100000D03*
X150615000Y-107640000D03*
X150615000Y-110180000D03*
X150615000Y-112720000D03*
X150615000Y-115260000D03*
X135375000Y-115260000D03*
X135375000Y-112720000D03*
X135375000Y-110180000D03*
X135375000Y-107640000D03*
X135375000Y-105100000D03*
X135375000Y-102560000D03*
X135375000Y-100020000D03*
X135375000Y-97480000D03*
X135375000Y-94940000D03*
X135375000Y-92400000D03*
X135375000Y-89860000D03*
X135375000Y-87320000D03*
X135375000Y-84780000D03*
X135375000Y-82240000D03*
X135375000Y-79700000D03*
X135375000Y-77160000D03*
X135375000Y-74620000D03*
X135375000Y-72080000D03*
X135375000Y-69540000D03*
X135375000Y-67000000D03*
M02*
