M48
; DRILL file {KiCad (6.0.10)} date Thu Jan  5 11:17:30 2023
; FORMAT={-:-/ absolute / metric / decimal}
; #@! TF.CreationDate,2023-01-05T11:17:30+01:00
; #@! TF.GenerationSoftware,Kicad,Pcbnew,(6.0.10)
; #@! TF.FileFunction,Plated,1,2,PTH
FMAT,2
METRIC
; #@! TA.AperFunction,Plated,PTH,ViaDrill
T1C0.400
; #@! TA.AperFunction,Plated,PTH,ComponentDrill
T2C1.000
; #@! TA.AperFunction,Plated,PTH,ComponentDrill
T3C1.500
%
G90
G05
T1
X137.0Y-118.7
X137.3Y-121.3
X137.8Y-94.8
X138.0Y-111.8
X138.5Y-126.9
X140.644Y-70.644
X140.8Y-86.2
X140.8Y-118.5
X141.0Y-105.6
X141.0Y-115.8
X141.025Y-77.325
X141.2Y-110.6
X141.2Y-114.112
X141.4Y-102.8
X142.8Y-91.05
X143.2Y-99.0
X143.2Y-118.5
X143.3Y-96.2
X144.501Y-105.48
X144.6Y-107.8
X145.0Y-103.8
X145.138Y-106.25
X145.3Y-114.3
X145.588Y-70.612
X146.9Y-111.3
X148.2Y-78.0
X148.2Y-87.0
X148.6Y-96.2
T2
X139.19Y-124.75
X141.73Y-124.75
X144.27Y-124.75
X146.81Y-124.75
T3
X135.375Y-67.0
X135.375Y-69.54
X135.375Y-72.08
X135.375Y-74.62
X135.375Y-77.16
X135.375Y-79.7
X135.375Y-82.24
X135.375Y-84.78
X135.375Y-87.32
X135.375Y-89.86
X135.375Y-92.4
X135.375Y-94.94
X135.375Y-97.48
X135.375Y-100.02
X135.375Y-102.56
X135.375Y-105.1
X135.375Y-107.64
X135.375Y-110.18
X135.375Y-112.72
X135.375Y-115.26
X150.615Y-67.0
X150.615Y-69.54
X150.615Y-72.08
X150.615Y-74.62
X150.615Y-77.16
X150.615Y-79.7
X150.615Y-82.24
X150.615Y-84.78
X150.615Y-87.32
X150.615Y-89.86
X150.615Y-92.4
X150.615Y-94.94
X150.615Y-97.48
X150.615Y-100.02
X150.615Y-102.56
X150.615Y-105.1
X150.615Y-107.64
X150.615Y-110.18
X150.615Y-112.72
X150.615Y-115.26
T0
M30
