G04 #@! TF.GenerationSoftware,KiCad,Pcbnew,(6.0.8)*
G04 #@! TF.CreationDate,2022-10-31T16:03:17+01:00*
G04 #@! TF.ProjectId,PowerInput,506f7765-7249-46e7-9075-742e6b696361,rev?*
G04 #@! TF.SameCoordinates,Original*
G04 #@! TF.FileFunction,Copper,L1,Top*
G04 #@! TF.FilePolarity,Positive*
%FSLAX46Y46*%
G04 Gerber Fmt 4.6, Leading zero omitted, Abs format (unit mm)*
G04 Created by KiCad (PCBNEW (6.0.8)) date 2022-10-31 16:03:17*
%MOMM*%
%LPD*%
G01*
G04 APERTURE LIST*
G04 Aperture macros list*
%AMRoundRect*
0 Rectangle with rounded corners*
0 $1 Rounding radius*
0 $2 $3 $4 $5 $6 $7 $8 $9 X,Y pos of 4 corners*
0 Add a 4 corners polygon primitive as box body*
4,1,4,$2,$3,$4,$5,$6,$7,$8,$9,$2,$3,0*
0 Add four circle primitives for the rounded corners*
1,1,$1+$1,$2,$3*
1,1,$1+$1,$4,$5*
1,1,$1+$1,$6,$7*
1,1,$1+$1,$8,$9*
0 Add four rect primitives between the rounded corners*
20,1,$1+$1,$2,$3,$4,$5,0*
20,1,$1+$1,$4,$5,$6,$7,0*
20,1,$1+$1,$6,$7,$8,$9,0*
20,1,$1+$1,$8,$9,$2,$3,0*%
G04 Aperture macros list end*
G04 #@! TA.AperFunction,ComponentPad*
%ADD10C,4.200000*%
G04 #@! TD*
G04 #@! TA.AperFunction,SMDPad,CuDef*
%ADD11RoundRect,0.250000X-0.400000X-1.450000X0.400000X-1.450000X0.400000X1.450000X-0.400000X1.450000X0*%
G04 #@! TD*
G04 #@! TA.AperFunction,ComponentPad*
%ADD12R,2.000000X2.000000*%
G04 #@! TD*
G04 #@! TA.AperFunction,ComponentPad*
%ADD13C,2.000000*%
G04 #@! TD*
G04 #@! TA.AperFunction,ComponentPad*
%ADD14C,3.000000*%
G04 #@! TD*
G04 #@! TA.AperFunction,ComponentPad*
%ADD15R,3.000000X3.000000*%
G04 #@! TD*
G04 #@! TA.AperFunction,SMDPad,CuDef*
%ADD16RoundRect,0.250000X-0.325000X-0.450000X0.325000X-0.450000X0.325000X0.450000X-0.325000X0.450000X0*%
G04 #@! TD*
G04 #@! TA.AperFunction,ComponentPad*
%ADD17C,0.800000*%
G04 #@! TD*
G04 #@! TA.AperFunction,ComponentPad*
%ADD18C,6.400000*%
G04 #@! TD*
G04 #@! TA.AperFunction,SMDPad,CuDef*
%ADD19RoundRect,0.250000X-0.400000X-1.075000X0.400000X-1.075000X0.400000X1.075000X-0.400000X1.075000X0*%
G04 #@! TD*
G04 #@! TA.AperFunction,ComponentPad*
%ADD20O,1.700000X1.700000*%
G04 #@! TD*
G04 #@! TA.AperFunction,ComponentPad*
%ADD21R,1.700000X1.700000*%
G04 #@! TD*
G04 #@! TA.AperFunction,ViaPad*
%ADD22C,0.800000*%
G04 #@! TD*
G04 #@! TA.AperFunction,Conductor*
%ADD23C,0.250000*%
G04 #@! TD*
G04 #@! TA.AperFunction,Conductor*
%ADD24C,1.000000*%
G04 #@! TD*
G04 APERTURE END LIST*
D10*
X124650000Y-65000000D03*
X148350000Y-65000000D03*
D11*
X126175000Y-80600000D03*
X130625000Y-80600000D03*
X141975000Y-80600000D03*
X146425000Y-80600000D03*
D12*
X153132323Y-65000000D03*
D13*
X160632323Y-65000000D03*
X81960000Y-51500000D03*
X87040000Y-51500000D03*
D14*
X107580000Y-78000000D03*
D15*
X102500000Y-78000000D03*
D13*
X107580000Y-65000000D03*
X102500000Y-65000000D03*
D15*
X84500000Y-59941500D03*
D14*
X84500000Y-65021500D03*
X84500000Y-70101500D03*
D16*
X163975000Y-76800000D03*
X166025000Y-76800000D03*
D15*
X159290000Y-52000000D03*
D14*
X154210000Y-52000000D03*
D15*
X84500000Y-76460000D03*
D14*
X84500000Y-81540000D03*
X114460000Y-52000000D03*
D15*
X119540000Y-52000000D03*
D13*
X114460000Y-65000000D03*
X119540000Y-65000000D03*
D17*
X73500000Y-50900000D03*
D18*
X73500000Y-48500000D03*
D17*
X71802944Y-50197056D03*
X73500000Y-46100000D03*
X75197056Y-50197056D03*
X75197056Y-46802944D03*
X75900000Y-48500000D03*
X71802944Y-46802944D03*
X71100000Y-48500000D03*
D14*
X159290000Y-78250000D03*
D15*
X154210000Y-78250000D03*
D19*
X163850000Y-73000000D03*
X166950000Y-73000000D03*
D13*
X95000000Y-72000000D03*
X95000000Y-82000000D03*
D16*
X163975000Y-53400000D03*
X166025000Y-53400000D03*
D13*
X96000000Y-52000000D03*
X93600000Y-62000000D03*
D19*
X163850000Y-57400000D03*
X166950000Y-57400000D03*
X163850000Y-61400000D03*
X166950000Y-61400000D03*
D20*
X166200000Y-65735000D03*
D21*
X166200000Y-68275000D03*
D15*
X114460000Y-78000000D03*
D14*
X119540000Y-78000000D03*
D15*
X107580000Y-52000000D03*
D14*
X102500000Y-52000000D03*
D22*
X162200000Y-61400000D03*
D23*
X163850000Y-61400000D02*
X162200000Y-61400000D01*
X162575000Y-52000000D02*
X159290000Y-52000000D01*
X163975000Y-53400000D02*
X162575000Y-52000000D01*
X166950000Y-54325000D02*
X166025000Y-53400000D01*
X166950000Y-57400000D02*
X166950000Y-54325000D01*
X163850000Y-61400000D02*
X163850000Y-57400000D01*
X166200000Y-62150000D02*
X166950000Y-61400000D01*
X166200000Y-65735000D02*
X166200000Y-62150000D01*
X163907323Y-68275000D02*
X160632323Y-65000000D01*
X166200000Y-68275000D02*
X163907323Y-68275000D01*
D24*
X159290000Y-63657677D02*
X160632323Y-65000000D01*
X159290000Y-52000000D02*
X159290000Y-63657677D01*
D23*
X166950000Y-75875000D02*
X166025000Y-76800000D01*
X166950000Y-73000000D02*
X166950000Y-75875000D01*
X159800000Y-73000000D02*
X163850000Y-73000000D01*
X154550000Y-78250000D02*
X159800000Y-73000000D01*
X154210000Y-78250000D02*
X154550000Y-78250000D01*
X162525000Y-78250000D02*
X163975000Y-76800000D01*
X159290000Y-78250000D02*
X162525000Y-78250000D01*
D24*
X135575000Y-74200000D02*
X141975000Y-80600000D01*
X116600000Y-74200000D02*
X135575000Y-74200000D01*
X114600000Y-72200000D02*
X116600000Y-74200000D01*
X114600000Y-72020000D02*
X114600000Y-72200000D01*
X107580000Y-65000000D02*
X114600000Y-72020000D01*
X154240000Y-83300000D02*
X159290000Y-78250000D01*
X130625000Y-80600000D02*
X133325000Y-83300000D01*
X133325000Y-83300000D02*
X154240000Y-83300000D01*
X122140000Y-80600000D02*
X119540000Y-78000000D01*
X126175000Y-80600000D02*
X122140000Y-80600000D01*
X146425000Y-80600000D02*
X151860000Y-80600000D01*
X151860000Y-80600000D02*
X154210000Y-78250000D01*
X111400000Y-55800000D02*
X109600000Y-57600000D01*
X109600000Y-57600000D02*
X103600000Y-57600000D01*
X96178500Y-65021500D02*
X84500000Y-65021500D01*
X111400000Y-49600000D02*
X111400000Y-55800000D01*
X114200000Y-46800000D02*
X111400000Y-49600000D01*
X119600000Y-46800000D02*
X114200000Y-46800000D01*
X103600000Y-57600000D02*
X96178500Y-65021500D01*
X114460000Y-65000000D02*
X114460000Y-52000000D01*
X119540000Y-46860000D02*
X119600000Y-46800000D01*
X119540000Y-52000000D02*
X119540000Y-46860000D01*
X119600000Y-46800000D02*
X154090000Y-46800000D01*
X154090000Y-46800000D02*
X159290000Y-52000000D01*
X154210000Y-63922323D02*
X153132323Y-65000000D01*
X154210000Y-52000000D02*
X154210000Y-63922323D01*
X148350000Y-65000000D02*
X153132323Y-65000000D01*
X119540000Y-65000000D02*
X124650000Y-65000000D01*
X80500000Y-55500000D02*
X73500000Y-48500000D01*
X84500000Y-65021500D02*
X82378680Y-65021500D01*
X82378680Y-65021500D02*
X80500000Y-63142820D01*
X80500000Y-63142820D02*
X80500000Y-55500000D01*
X114460000Y-78000000D02*
X114460000Y-76960000D01*
X114460000Y-76960000D02*
X102500000Y-65000000D01*
X93600000Y-60900000D02*
X93600000Y-62000000D01*
X102500000Y-52000000D02*
X93600000Y-60900000D01*
M02*
