G04 #@! TF.GenerationSoftware,KiCad,Pcbnew,(6.0.8)*
G04 #@! TF.CreationDate,2022-10-31T16:03:17+01:00*
G04 #@! TF.ProjectId,PowerInput,506f7765-7249-46e7-9075-742e6b696361,rev?*
G04 #@! TF.SameCoordinates,Original*
G04 #@! TF.FileFunction,Legend,Top*
G04 #@! TF.FilePolarity,Positive*
%FSLAX46Y46*%
G04 Gerber Fmt 4.6, Leading zero omitted, Abs format (unit mm)*
G04 Created by KiCad (PCBNEW (6.0.8)) date 2022-10-31 16:03:17*
%MOMM*%
%LPD*%
G01*
G04 APERTURE LIST*
G04 Aperture macros list*
%AMRoundRect*
0 Rectangle with rounded corners*
0 $1 Rounding radius*
0 $2 $3 $4 $5 $6 $7 $8 $9 X,Y pos of 4 corners*
0 Add a 4 corners polygon primitive as box body*
4,1,4,$2,$3,$4,$5,$6,$7,$8,$9,$2,$3,0*
0 Add four circle primitives for the rounded corners*
1,1,$1+$1,$2,$3*
1,1,$1+$1,$4,$5*
1,1,$1+$1,$6,$7*
1,1,$1+$1,$8,$9*
0 Add four rect primitives between the rounded corners*
20,1,$1+$1,$2,$3,$4,$5,0*
20,1,$1+$1,$4,$5,$6,$7,0*
20,1,$1+$1,$6,$7,$8,$9,0*
20,1,$1+$1,$8,$9,$2,$3,0*%
G04 Aperture macros list end*
%ADD10C,0.150000*%
%ADD11C,0.120000*%
%ADD12C,4.200000*%
%ADD13RoundRect,0.250000X-0.400000X-1.450000X0.400000X-1.450000X0.400000X1.450000X-0.400000X1.450000X0*%
%ADD14R,2.000000X2.000000*%
%ADD15C,2.000000*%
%ADD16C,3.200000*%
%ADD17C,3.000000*%
%ADD18R,3.000000X3.000000*%
%ADD19RoundRect,0.250000X-0.325000X-0.450000X0.325000X-0.450000X0.325000X0.450000X-0.325000X0.450000X0*%
%ADD20C,0.800000*%
%ADD21C,6.400000*%
%ADD22RoundRect,0.250000X-0.400000X-1.075000X0.400000X-1.075000X0.400000X1.075000X-0.400000X1.075000X0*%
%ADD23O,1.700000X1.700000*%
%ADD24R,1.700000X1.700000*%
G04 APERTURE END LIST*
D10*
X163671428Y-68761904D02*
X163671428Y-68000000D01*
X163671428Y-66000000D02*
X163671428Y-65238095D01*
X164052380Y-65619047D02*
X163290476Y-65619047D01*
X76242619Y-67559523D02*
X76195000Y-67511904D01*
X76147380Y-67416666D01*
X76147380Y-67178571D01*
X76195000Y-67083333D01*
X76242619Y-67035714D01*
X76337857Y-66988095D01*
X76433095Y-66988095D01*
X76575952Y-67035714D01*
X77147380Y-67607142D01*
X77147380Y-66988095D01*
X76147380Y-66654761D02*
X76147380Y-66035714D01*
X76528333Y-66369047D01*
X76528333Y-66226190D01*
X76575952Y-66130952D01*
X76623571Y-66083333D01*
X76718809Y-66035714D01*
X76956904Y-66035714D01*
X77052142Y-66083333D01*
X77099761Y-66130952D01*
X77147380Y-66226190D01*
X77147380Y-66511904D01*
X77099761Y-66607142D01*
X77052142Y-66654761D01*
X76147380Y-65416666D02*
X76147380Y-65321428D01*
X76195000Y-65226190D01*
X76242619Y-65178571D01*
X76337857Y-65130952D01*
X76528333Y-65083333D01*
X76766428Y-65083333D01*
X76956904Y-65130952D01*
X77052142Y-65178571D01*
X77099761Y-65226190D01*
X77147380Y-65321428D01*
X77147380Y-65416666D01*
X77099761Y-65511904D01*
X77052142Y-65559523D01*
X76956904Y-65607142D01*
X76766428Y-65654761D01*
X76528333Y-65654761D01*
X76337857Y-65607142D01*
X76242619Y-65559523D01*
X76195000Y-65511904D01*
X76147380Y-65416666D01*
X77147380Y-63892857D02*
X76147380Y-63892857D01*
X76480714Y-63416666D02*
X77147380Y-63416666D01*
X76575952Y-63416666D02*
X76528333Y-63369047D01*
X76480714Y-63273809D01*
X76480714Y-63130952D01*
X76528333Y-63035714D01*
X76623571Y-62988095D01*
X77147380Y-62988095D01*
X78471666Y-69202380D02*
X78471666Y-68726190D01*
X78757380Y-69297619D02*
X77757380Y-68964285D01*
X78757380Y-68630952D01*
X78662142Y-67726190D02*
X78709761Y-67773809D01*
X78757380Y-67916666D01*
X78757380Y-68011904D01*
X78709761Y-68154761D01*
X78614523Y-68249999D01*
X78519285Y-68297619D01*
X78328809Y-68345238D01*
X78185952Y-68345238D01*
X77995476Y-68297619D01*
X77900238Y-68249999D01*
X77805000Y-68154761D01*
X77757380Y-68011904D01*
X77757380Y-67916666D01*
X77805000Y-67773809D01*
X77852619Y-67726190D01*
X77805000Y-66011904D02*
X77757380Y-66107142D01*
X77757380Y-66249999D01*
X77805000Y-66392857D01*
X77900238Y-66488095D01*
X77995476Y-66535714D01*
X78185952Y-66583333D01*
X78328809Y-66583333D01*
X78519285Y-66535714D01*
X78614523Y-66488095D01*
X78709761Y-66392857D01*
X78757380Y-66249999D01*
X78757380Y-66154761D01*
X78709761Y-66011904D01*
X78662142Y-65964285D01*
X78328809Y-65964285D01*
X78328809Y-66154761D01*
X78757380Y-65535714D02*
X77757380Y-65535714D01*
X78757380Y-64964285D01*
X77757380Y-64964285D01*
X78757380Y-64488095D02*
X77757380Y-64488095D01*
X77757380Y-64250000D01*
X77805000Y-64107142D01*
X77900238Y-64011904D01*
X77995476Y-63964285D01*
X78185952Y-63916666D01*
X78328809Y-63916666D01*
X78519285Y-63964285D01*
X78614523Y-64011904D01*
X78709761Y-64107142D01*
X78757380Y-64250000D01*
X78757380Y-64488095D01*
X78471666Y-62773809D02*
X78471666Y-62297619D01*
X78757380Y-62869047D02*
X77757380Y-62535714D01*
X78757380Y-62202380D01*
X78662142Y-61297619D02*
X78709761Y-61345238D01*
X78757380Y-61488095D01*
X78757380Y-61583333D01*
X78709761Y-61726190D01*
X78614523Y-61821428D01*
X78519285Y-61869047D01*
X78328809Y-61916666D01*
X78185952Y-61916666D01*
X77995476Y-61869047D01*
X77900238Y-61821428D01*
X77805000Y-61726190D01*
X77757380Y-61583333D01*
X77757380Y-61488095D01*
X77805000Y-61345238D01*
X77852619Y-61297619D01*
X104819047Y-59252380D02*
X105390476Y-59252380D01*
X105104761Y-60252380D02*
X105104761Y-59252380D01*
X105628571Y-59252380D02*
X106247619Y-59252380D01*
X105914285Y-59633333D01*
X106057142Y-59633333D01*
X106152380Y-59680952D01*
X106200000Y-59728571D01*
X106247619Y-59823809D01*
X106247619Y-60061904D01*
X106200000Y-60157142D01*
X106152380Y-60204761D01*
X106057142Y-60252380D01*
X105771428Y-60252380D01*
X105676190Y-60204761D01*
X105628571Y-60157142D01*
X106676190Y-60157142D02*
X106723809Y-60204761D01*
X106676190Y-60252380D01*
X106628571Y-60204761D01*
X106676190Y-60157142D01*
X106676190Y-60252380D01*
X107676190Y-60252380D02*
X107104761Y-60252380D01*
X107390476Y-60252380D02*
X107390476Y-59252380D01*
X107295238Y-59395238D01*
X107200000Y-59490476D01*
X107104761Y-59538095D01*
X108580952Y-59252380D02*
X108104761Y-59252380D01*
X108057142Y-59728571D01*
X108104761Y-59680952D01*
X108200000Y-59633333D01*
X108438095Y-59633333D01*
X108533333Y-59680952D01*
X108580952Y-59728571D01*
X108628571Y-59823809D01*
X108628571Y-60061904D01*
X108580952Y-60157142D01*
X108533333Y-60204761D01*
X108438095Y-60252380D01*
X108200000Y-60252380D01*
X108104761Y-60204761D01*
X108057142Y-60157142D01*
X109009523Y-59966666D02*
X109485714Y-59966666D01*
X108914285Y-60252380D02*
X109247619Y-59252380D01*
X109580952Y-60252380D01*
X112309523Y-46071428D02*
X113071428Y-46071428D01*
X112690476Y-46452380D02*
X112690476Y-45690476D01*
X113547619Y-46452380D02*
X113547619Y-45452380D01*
X113928571Y-45452380D01*
X114023809Y-45500000D01*
X114071428Y-45547619D01*
X114119047Y-45642857D01*
X114119047Y-45785714D01*
X114071428Y-45880952D01*
X114023809Y-45928571D01*
X113928571Y-45976190D01*
X113547619Y-45976190D01*
X114500000Y-46404761D02*
X114642857Y-46452380D01*
X114880952Y-46452380D01*
X114976190Y-46404761D01*
X115023809Y-46357142D01*
X115071428Y-46261904D01*
X115071428Y-46166666D01*
X115023809Y-46071428D01*
X114976190Y-46023809D01*
X114880952Y-45976190D01*
X114690476Y-45928571D01*
X114595238Y-45880952D01*
X114547619Y-45833333D01*
X114500000Y-45738095D01*
X114500000Y-45642857D01*
X114547619Y-45547619D01*
X114595238Y-45500000D01*
X114690476Y-45452380D01*
X114928571Y-45452380D01*
X115071428Y-45500000D01*
X115500000Y-45452380D02*
X115500000Y-46261904D01*
X115547619Y-46357142D01*
X115595238Y-46404761D01*
X115690476Y-46452380D01*
X115880952Y-46452380D01*
X115976190Y-46404761D01*
X116023809Y-46357142D01*
X116071428Y-46261904D01*
X116071428Y-45452380D01*
X117071428Y-46452380D02*
X116500000Y-46452380D01*
X116785714Y-46452380D02*
X116785714Y-45452380D01*
X116690476Y-45595238D01*
X116595238Y-45690476D01*
X116500000Y-45738095D01*
X118214285Y-46404761D02*
X118357142Y-46452380D01*
X118595238Y-46452380D01*
X118690476Y-46404761D01*
X118738095Y-46357142D01*
X118785714Y-46261904D01*
X118785714Y-46166666D01*
X118738095Y-46071428D01*
X118690476Y-46023809D01*
X118595238Y-45976190D01*
X118404761Y-45928571D01*
X118309523Y-45880952D01*
X118261904Y-45833333D01*
X118214285Y-45738095D01*
X118214285Y-45642857D01*
X118261904Y-45547619D01*
X118309523Y-45500000D01*
X118404761Y-45452380D01*
X118642857Y-45452380D01*
X118785714Y-45500000D01*
X119595238Y-46404761D02*
X119500000Y-46452380D01*
X119309523Y-46452380D01*
X119214285Y-46404761D01*
X119166666Y-46309523D01*
X119166666Y-45928571D01*
X119214285Y-45833333D01*
X119309523Y-45785714D01*
X119500000Y-45785714D01*
X119595238Y-45833333D01*
X119642857Y-45928571D01*
X119642857Y-46023809D01*
X119166666Y-46119047D01*
X120500000Y-46404761D02*
X120404761Y-46452380D01*
X120214285Y-46452380D01*
X120119047Y-46404761D01*
X120071428Y-46357142D01*
X120023809Y-46261904D01*
X120023809Y-45976190D01*
X120071428Y-45880952D01*
X120119047Y-45833333D01*
X120214285Y-45785714D01*
X120404761Y-45785714D01*
X120500000Y-45833333D01*
X120928571Y-46071428D02*
X121690476Y-46071428D01*
X112309523Y-84071428D02*
X113071428Y-84071428D01*
X112690476Y-84452380D02*
X112690476Y-83690476D01*
X113547619Y-84452380D02*
X113547619Y-83452380D01*
X113928571Y-83452380D01*
X114023809Y-83500000D01*
X114071428Y-83547619D01*
X114119047Y-83642857D01*
X114119047Y-83785714D01*
X114071428Y-83880952D01*
X114023809Y-83928571D01*
X113928571Y-83976190D01*
X113547619Y-83976190D01*
X114500000Y-84404761D02*
X114642857Y-84452380D01*
X114880952Y-84452380D01*
X114976190Y-84404761D01*
X115023809Y-84357142D01*
X115071428Y-84261904D01*
X115071428Y-84166666D01*
X115023809Y-84071428D01*
X114976190Y-84023809D01*
X114880952Y-83976190D01*
X114690476Y-83928571D01*
X114595238Y-83880952D01*
X114547619Y-83833333D01*
X114500000Y-83738095D01*
X114500000Y-83642857D01*
X114547619Y-83547619D01*
X114595238Y-83500000D01*
X114690476Y-83452380D01*
X114928571Y-83452380D01*
X115071428Y-83500000D01*
X115500000Y-83452380D02*
X115500000Y-84261904D01*
X115547619Y-84357142D01*
X115595238Y-84404761D01*
X115690476Y-84452380D01*
X115880952Y-84452380D01*
X115976190Y-84404761D01*
X116023809Y-84357142D01*
X116071428Y-84261904D01*
X116071428Y-83452380D01*
X116500000Y-83547619D02*
X116547619Y-83500000D01*
X116642857Y-83452380D01*
X116880952Y-83452380D01*
X116976190Y-83500000D01*
X117023809Y-83547619D01*
X117071428Y-83642857D01*
X117071428Y-83738095D01*
X117023809Y-83880952D01*
X116452380Y-84452380D01*
X117071428Y-84452380D01*
X118214285Y-84404761D02*
X118357142Y-84452380D01*
X118595238Y-84452380D01*
X118690476Y-84404761D01*
X118738095Y-84357142D01*
X118785714Y-84261904D01*
X118785714Y-84166666D01*
X118738095Y-84071428D01*
X118690476Y-84023809D01*
X118595238Y-83976190D01*
X118404761Y-83928571D01*
X118309523Y-83880952D01*
X118261904Y-83833333D01*
X118214285Y-83738095D01*
X118214285Y-83642857D01*
X118261904Y-83547619D01*
X118309523Y-83500000D01*
X118404761Y-83452380D01*
X118642857Y-83452380D01*
X118785714Y-83500000D01*
X119595238Y-84404761D02*
X119500000Y-84452380D01*
X119309523Y-84452380D01*
X119214285Y-84404761D01*
X119166666Y-84309523D01*
X119166666Y-83928571D01*
X119214285Y-83833333D01*
X119309523Y-83785714D01*
X119500000Y-83785714D01*
X119595238Y-83833333D01*
X119642857Y-83928571D01*
X119642857Y-84023809D01*
X119166666Y-84119047D01*
X120500000Y-84404761D02*
X120404761Y-84452380D01*
X120214285Y-84452380D01*
X120119047Y-84404761D01*
X120071428Y-84357142D01*
X120023809Y-84261904D01*
X120023809Y-83976190D01*
X120071428Y-83880952D01*
X120119047Y-83833333D01*
X120214285Y-83785714D01*
X120404761Y-83785714D01*
X120500000Y-83833333D01*
X120928571Y-84071428D02*
X121690476Y-84071428D01*
X101833333Y-84452380D02*
X101833333Y-83452380D01*
X102214285Y-83452380D01*
X102309523Y-83500000D01*
X102357142Y-83547619D01*
X102404761Y-83642857D01*
X102404761Y-83785714D01*
X102357142Y-83880952D01*
X102309523Y-83928571D01*
X102214285Y-83976190D01*
X101833333Y-83976190D01*
X102785714Y-84404761D02*
X102928571Y-84452380D01*
X103166666Y-84452380D01*
X103261904Y-84404761D01*
X103309523Y-84357142D01*
X103357142Y-84261904D01*
X103357142Y-84166666D01*
X103309523Y-84071428D01*
X103261904Y-84023809D01*
X103166666Y-83976190D01*
X102976190Y-83928571D01*
X102880952Y-83880952D01*
X102833333Y-83833333D01*
X102785714Y-83738095D01*
X102785714Y-83642857D01*
X102833333Y-83547619D01*
X102880952Y-83500000D01*
X102976190Y-83452380D01*
X103214285Y-83452380D01*
X103357142Y-83500000D01*
X103785714Y-83452380D02*
X103785714Y-84261904D01*
X103833333Y-84357142D01*
X103880952Y-84404761D01*
X103976190Y-84452380D01*
X104166666Y-84452380D01*
X104261904Y-84404761D01*
X104309523Y-84357142D01*
X104357142Y-84261904D01*
X104357142Y-83452380D01*
X104785714Y-83547619D02*
X104833333Y-83500000D01*
X104928571Y-83452380D01*
X105166666Y-83452380D01*
X105261904Y-83500000D01*
X105309523Y-83547619D01*
X105357142Y-83642857D01*
X105357142Y-83738095D01*
X105309523Y-83880952D01*
X104738095Y-84452380D01*
X105357142Y-84452380D01*
X106547619Y-84452380D02*
X106547619Y-83452380D01*
X106928571Y-83452380D01*
X107023809Y-83500000D01*
X107071428Y-83547619D01*
X107119047Y-83642857D01*
X107119047Y-83785714D01*
X107071428Y-83880952D01*
X107023809Y-83928571D01*
X106928571Y-83976190D01*
X106547619Y-83976190D01*
X107547619Y-84452380D02*
X107547619Y-83785714D01*
X107547619Y-83976190D02*
X107595238Y-83880952D01*
X107642857Y-83833333D01*
X107738095Y-83785714D01*
X107833333Y-83785714D01*
X108166666Y-84452380D02*
X108166666Y-83785714D01*
X108166666Y-83452380D02*
X108119047Y-83500000D01*
X108166666Y-83547619D01*
X108214285Y-83500000D01*
X108166666Y-83452380D01*
X108166666Y-83547619D01*
X78702380Y-83119047D02*
X77702380Y-83119047D01*
X77702380Y-82738095D01*
X77750000Y-82642857D01*
X77797619Y-82595238D01*
X77892857Y-82547619D01*
X78035714Y-82547619D01*
X78130952Y-82595238D01*
X78178571Y-82642857D01*
X78226190Y-82738095D01*
X78226190Y-83119047D01*
X77702380Y-82214285D02*
X78702380Y-81976190D01*
X77988095Y-81785714D01*
X78702380Y-81595238D01*
X77702380Y-81357142D01*
X78702380Y-80404761D02*
X78226190Y-80738095D01*
X78702380Y-80976190D02*
X77702380Y-80976190D01*
X77702380Y-80595238D01*
X77750000Y-80500000D01*
X77797619Y-80452380D01*
X77892857Y-80404761D01*
X78035714Y-80404761D01*
X78130952Y-80452380D01*
X78178571Y-80500000D01*
X78226190Y-80595238D01*
X78226190Y-80976190D01*
X78654761Y-79261904D02*
X78702380Y-79119047D01*
X78702380Y-78880952D01*
X78654761Y-78785714D01*
X78607142Y-78738095D01*
X78511904Y-78690476D01*
X78416666Y-78690476D01*
X78321428Y-78738095D01*
X78273809Y-78785714D01*
X78226190Y-78880952D01*
X78178571Y-79071428D01*
X78130952Y-79166666D01*
X78083333Y-79214285D01*
X77988095Y-79261904D01*
X77892857Y-79261904D01*
X77797619Y-79214285D01*
X77750000Y-79166666D01*
X77702380Y-79071428D01*
X77702380Y-78833333D01*
X77750000Y-78690476D01*
X78035714Y-78357142D02*
X78702380Y-78166666D01*
X78226190Y-77976190D01*
X78702380Y-77785714D01*
X78035714Y-77595238D01*
X78702380Y-77214285D02*
X78035714Y-77214285D01*
X77702380Y-77214285D02*
X77750000Y-77261904D01*
X77797619Y-77214285D01*
X77750000Y-77166666D01*
X77702380Y-77214285D01*
X77797619Y-77214285D01*
X78035714Y-76880952D02*
X78035714Y-76500000D01*
X77702380Y-76738095D02*
X78559523Y-76738095D01*
X78654761Y-76690476D01*
X78702380Y-76595238D01*
X78702380Y-76500000D01*
X78654761Y-75738095D02*
X78702380Y-75833333D01*
X78702380Y-76023809D01*
X78654761Y-76119047D01*
X78607142Y-76166666D01*
X78511904Y-76214285D01*
X78226190Y-76214285D01*
X78130952Y-76166666D01*
X78083333Y-76119047D01*
X78035714Y-76023809D01*
X78035714Y-75833333D01*
X78083333Y-75738095D01*
X78702380Y-75309523D02*
X77702380Y-75309523D01*
X78702380Y-74880952D02*
X78178571Y-74880952D01*
X78083333Y-74928571D01*
X78035714Y-75023809D01*
X78035714Y-75166666D01*
X78083333Y-75261904D01*
X78130952Y-75309523D01*
X152447619Y-46321428D02*
X153209523Y-46321428D01*
X152828571Y-46702380D02*
X152828571Y-45940476D01*
X153685714Y-46702380D02*
X153685714Y-45702380D01*
X154019047Y-46416666D01*
X154352380Y-45702380D01*
X154352380Y-46702380D01*
X155161904Y-46178571D02*
X155304761Y-46226190D01*
X155352380Y-46273809D01*
X155400000Y-46369047D01*
X155400000Y-46511904D01*
X155352380Y-46607142D01*
X155304761Y-46654761D01*
X155209523Y-46702380D01*
X154828571Y-46702380D01*
X154828571Y-45702380D01*
X155161904Y-45702380D01*
X155257142Y-45750000D01*
X155304761Y-45797619D01*
X155352380Y-45892857D01*
X155352380Y-45988095D01*
X155304761Y-46083333D01*
X155257142Y-46130952D01*
X155161904Y-46178571D01*
X154828571Y-46178571D01*
X155590476Y-46797619D02*
X156352380Y-46797619D01*
X156590476Y-46702380D02*
X156590476Y-45702380D01*
X156971428Y-45702380D01*
X157066666Y-45750000D01*
X157114285Y-45797619D01*
X157161904Y-45892857D01*
X157161904Y-46035714D01*
X157114285Y-46130952D01*
X157066666Y-46178571D01*
X156971428Y-46226190D01*
X156590476Y-46226190D01*
X157542857Y-46654761D02*
X157685714Y-46702380D01*
X157923809Y-46702380D01*
X158019047Y-46654761D01*
X158066666Y-46607142D01*
X158114285Y-46511904D01*
X158114285Y-46416666D01*
X158066666Y-46321428D01*
X158019047Y-46273809D01*
X157923809Y-46226190D01*
X157733333Y-46178571D01*
X157638095Y-46130952D01*
X157590476Y-46083333D01*
X157542857Y-45988095D01*
X157542857Y-45892857D01*
X157590476Y-45797619D01*
X157638095Y-45750000D01*
X157733333Y-45702380D01*
X157971428Y-45702380D01*
X158114285Y-45750000D01*
X158542857Y-45702380D02*
X158542857Y-46511904D01*
X158590476Y-46607142D01*
X158638095Y-46654761D01*
X158733333Y-46702380D01*
X158923809Y-46702380D01*
X159019047Y-46654761D01*
X159066666Y-46607142D01*
X159114285Y-46511904D01*
X159114285Y-45702380D01*
X159590476Y-46321428D02*
X160352380Y-46321428D01*
X84619047Y-45702380D02*
X85190476Y-45702380D01*
X84904761Y-46702380D02*
X84904761Y-45702380D01*
X85428571Y-45702380D02*
X86047619Y-45702380D01*
X85714285Y-46083333D01*
X85857142Y-46083333D01*
X85952380Y-46130952D01*
X86000000Y-46178571D01*
X86047619Y-46273809D01*
X86047619Y-46511904D01*
X86000000Y-46607142D01*
X85952380Y-46654761D01*
X85857142Y-46702380D01*
X85571428Y-46702380D01*
X85476190Y-46654761D01*
X85428571Y-46607142D01*
X86476190Y-46607142D02*
X86523809Y-46654761D01*
X86476190Y-46702380D01*
X86428571Y-46654761D01*
X86476190Y-46607142D01*
X86476190Y-46702380D01*
X87476190Y-46702380D02*
X86904761Y-46702380D01*
X87190476Y-46702380D02*
X87190476Y-45702380D01*
X87095238Y-45845238D01*
X87000000Y-45940476D01*
X86904761Y-45988095D01*
X88380952Y-45702380D02*
X87904761Y-45702380D01*
X87857142Y-46178571D01*
X87904761Y-46130952D01*
X88000000Y-46083333D01*
X88238095Y-46083333D01*
X88333333Y-46130952D01*
X88380952Y-46178571D01*
X88428571Y-46273809D01*
X88428571Y-46511904D01*
X88380952Y-46607142D01*
X88333333Y-46654761D01*
X88238095Y-46702380D01*
X88000000Y-46702380D01*
X87904761Y-46654761D01*
X87857142Y-46607142D01*
X88809523Y-46416666D02*
X89285714Y-46416666D01*
X88714285Y-46702380D02*
X89047619Y-45702380D01*
X89380952Y-46702380D01*
X101833333Y-46452380D02*
X101833333Y-45452380D01*
X102214285Y-45452380D01*
X102309523Y-45500000D01*
X102357142Y-45547619D01*
X102404761Y-45642857D01*
X102404761Y-45785714D01*
X102357142Y-45880952D01*
X102309523Y-45928571D01*
X102214285Y-45976190D01*
X101833333Y-45976190D01*
X102785714Y-46404761D02*
X102928571Y-46452380D01*
X103166666Y-46452380D01*
X103261904Y-46404761D01*
X103309523Y-46357142D01*
X103357142Y-46261904D01*
X103357142Y-46166666D01*
X103309523Y-46071428D01*
X103261904Y-46023809D01*
X103166666Y-45976190D01*
X102976190Y-45928571D01*
X102880952Y-45880952D01*
X102833333Y-45833333D01*
X102785714Y-45738095D01*
X102785714Y-45642857D01*
X102833333Y-45547619D01*
X102880952Y-45500000D01*
X102976190Y-45452380D01*
X103214285Y-45452380D01*
X103357142Y-45500000D01*
X103785714Y-45452380D02*
X103785714Y-46261904D01*
X103833333Y-46357142D01*
X103880952Y-46404761D01*
X103976190Y-46452380D01*
X104166666Y-46452380D01*
X104261904Y-46404761D01*
X104309523Y-46357142D01*
X104357142Y-46261904D01*
X104357142Y-45452380D01*
X105357142Y-46452380D02*
X104785714Y-46452380D01*
X105071428Y-46452380D02*
X105071428Y-45452380D01*
X104976190Y-45595238D01*
X104880952Y-45690476D01*
X104785714Y-45738095D01*
X106547619Y-46452380D02*
X106547619Y-45452380D01*
X106928571Y-45452380D01*
X107023809Y-45500000D01*
X107071428Y-45547619D01*
X107119047Y-45642857D01*
X107119047Y-45785714D01*
X107071428Y-45880952D01*
X107023809Y-45928571D01*
X106928571Y-45976190D01*
X106547619Y-45976190D01*
X107547619Y-46452380D02*
X107547619Y-45785714D01*
X107547619Y-45976190D02*
X107595238Y-45880952D01*
X107642857Y-45833333D01*
X107738095Y-45785714D01*
X107833333Y-45785714D01*
X108166666Y-46452380D02*
X108166666Y-45785714D01*
X108166666Y-45452380D02*
X108119047Y-45500000D01*
X108166666Y-45547619D01*
X108214285Y-45500000D01*
X108166666Y-45452380D01*
X108166666Y-45547619D01*
X169252380Y-70271428D02*
X168252380Y-70271428D01*
X168252380Y-69890476D01*
X168300000Y-69795238D01*
X168347619Y-69747619D01*
X168442857Y-69700000D01*
X168585714Y-69700000D01*
X168680952Y-69747619D01*
X168728571Y-69795238D01*
X168776190Y-69890476D01*
X168776190Y-70271428D01*
X168252380Y-69366666D02*
X169252380Y-69128571D01*
X168538095Y-68938095D01*
X169252380Y-68747619D01*
X168252380Y-68509523D01*
X169252380Y-67557142D02*
X168776190Y-67890476D01*
X169252380Y-68128571D02*
X168252380Y-68128571D01*
X168252380Y-67747619D01*
X168300000Y-67652380D01*
X168347619Y-67604761D01*
X168442857Y-67557142D01*
X168585714Y-67557142D01*
X168680952Y-67604761D01*
X168728571Y-67652380D01*
X168776190Y-67747619D01*
X168776190Y-68128571D01*
X169252380Y-65890476D02*
X169252380Y-66366666D01*
X168252380Y-66366666D01*
X168728571Y-65557142D02*
X168728571Y-65223809D01*
X169252380Y-65080952D02*
X169252380Y-65557142D01*
X168252380Y-65557142D01*
X168252380Y-65080952D01*
X169252380Y-64652380D02*
X168252380Y-64652380D01*
X168252380Y-64414285D01*
X168300000Y-64271428D01*
X168395238Y-64176190D01*
X168490476Y-64128571D01*
X168680952Y-64080952D01*
X168823809Y-64080952D01*
X169014285Y-64128571D01*
X169109523Y-64176190D01*
X169204761Y-64271428D01*
X169252380Y-64414285D01*
X169252380Y-64652380D01*
X117609523Y-59252380D02*
X118180952Y-59252380D01*
X117895238Y-60252380D02*
X117895238Y-59252380D01*
X119038095Y-60252380D02*
X118466666Y-60252380D01*
X118752380Y-60252380D02*
X118752380Y-59252380D01*
X118657142Y-59395238D01*
X118561904Y-59490476D01*
X118466666Y-59538095D01*
X119419047Y-59966666D02*
X119895238Y-59966666D01*
X119323809Y-60252380D02*
X119657142Y-59252380D01*
X119990476Y-60252380D01*
X151690476Y-84071428D02*
X152452380Y-84071428D01*
X152071428Y-84452380D02*
X152071428Y-83690476D01*
X152928571Y-84452380D02*
X152928571Y-83452380D01*
X152928571Y-83928571D02*
X153500000Y-83928571D01*
X153500000Y-84452380D02*
X153500000Y-83452380D01*
X154357142Y-84404761D02*
X154261904Y-84452380D01*
X154071428Y-84452380D01*
X153976190Y-84404761D01*
X153928571Y-84309523D01*
X153928571Y-83928571D01*
X153976190Y-83833333D01*
X154071428Y-83785714D01*
X154261904Y-83785714D01*
X154357142Y-83833333D01*
X154404761Y-83928571D01*
X154404761Y-84023809D01*
X153928571Y-84119047D01*
X155261904Y-84452380D02*
X155261904Y-83928571D01*
X155214285Y-83833333D01*
X155119047Y-83785714D01*
X154928571Y-83785714D01*
X154833333Y-83833333D01*
X155261904Y-84404761D02*
X155166666Y-84452380D01*
X154928571Y-84452380D01*
X154833333Y-84404761D01*
X154785714Y-84309523D01*
X154785714Y-84214285D01*
X154833333Y-84119047D01*
X154928571Y-84071428D01*
X155166666Y-84071428D01*
X155261904Y-84023809D01*
X155595238Y-83785714D02*
X155976190Y-83785714D01*
X155738095Y-83452380D02*
X155738095Y-84309523D01*
X155785714Y-84404761D01*
X155880952Y-84452380D01*
X155976190Y-84452380D01*
X156690476Y-84404761D02*
X156595238Y-84452380D01*
X156404761Y-84452380D01*
X156309523Y-84404761D01*
X156261904Y-84309523D01*
X156261904Y-83928571D01*
X156309523Y-83833333D01*
X156404761Y-83785714D01*
X156595238Y-83785714D01*
X156690476Y-83833333D01*
X156738095Y-83928571D01*
X156738095Y-84023809D01*
X156261904Y-84119047D01*
X157166666Y-84452380D02*
X157166666Y-83785714D01*
X157166666Y-83976190D02*
X157214285Y-83880952D01*
X157261904Y-83833333D01*
X157357142Y-83785714D01*
X157452380Y-83785714D01*
X157547619Y-84547619D02*
X158309523Y-84547619D01*
X158547619Y-84452380D02*
X158547619Y-83452380D01*
X158928571Y-83452380D01*
X159023809Y-83500000D01*
X159071428Y-83547619D01*
X159119047Y-83642857D01*
X159119047Y-83785714D01*
X159071428Y-83880952D01*
X159023809Y-83928571D01*
X158928571Y-83976190D01*
X158547619Y-83976190D01*
X159500000Y-84404761D02*
X159642857Y-84452380D01*
X159880952Y-84452380D01*
X159976190Y-84404761D01*
X160023809Y-84357142D01*
X160071428Y-84261904D01*
X160071428Y-84166666D01*
X160023809Y-84071428D01*
X159976190Y-84023809D01*
X159880952Y-83976190D01*
X159690476Y-83928571D01*
X159595238Y-83880952D01*
X159547619Y-83833333D01*
X159500000Y-83738095D01*
X159500000Y-83642857D01*
X159547619Y-83547619D01*
X159595238Y-83500000D01*
X159690476Y-83452380D01*
X159928571Y-83452380D01*
X160071428Y-83500000D01*
X160500000Y-83452380D02*
X160500000Y-84261904D01*
X160547619Y-84357142D01*
X160595238Y-84404761D01*
X160690476Y-84452380D01*
X160880952Y-84452380D01*
X160976190Y-84404761D01*
X161023809Y-84357142D01*
X161071428Y-84261904D01*
X161071428Y-83452380D01*
X161547619Y-84071428D02*
X162309523Y-84071428D01*
X135480952Y-79052380D02*
X135004761Y-79052380D01*
X135004761Y-78052380D01*
X136338095Y-79052380D02*
X135766666Y-79052380D01*
X136052380Y-79052380D02*
X136052380Y-78052380D01*
X135957142Y-78195238D01*
X135861904Y-78290476D01*
X135766666Y-78338095D01*
X136957142Y-78052380D02*
X137052380Y-78052380D01*
X137147619Y-78100000D01*
X137195238Y-78147619D01*
X137242857Y-78242857D01*
X137290476Y-78433333D01*
X137290476Y-78671428D01*
X137242857Y-78861904D01*
X137195238Y-78957142D01*
X137147619Y-79004761D01*
X137052380Y-79052380D01*
X136957142Y-79052380D01*
X136861904Y-79004761D01*
X136814285Y-78957142D01*
X136766666Y-78861904D01*
X136719047Y-78671428D01*
X136719047Y-78433333D01*
X136766666Y-78242857D01*
X136814285Y-78147619D01*
X136861904Y-78100000D01*
X136957142Y-78052380D01*
X138242857Y-79052380D02*
X137671428Y-79052380D01*
X137957142Y-79052380D02*
X137957142Y-78052380D01*
X137861904Y-78195238D01*
X137766666Y-78290476D01*
X137671428Y-78338095D01*
X126614285Y-83528571D02*
X126280952Y-83528571D01*
X126280952Y-84052380D02*
X126280952Y-83052380D01*
X126757142Y-83052380D01*
X127471428Y-83528571D02*
X127614285Y-83576190D01*
X127661904Y-83623809D01*
X127709523Y-83719047D01*
X127709523Y-83861904D01*
X127661904Y-83957142D01*
X127614285Y-84004761D01*
X127519047Y-84052380D01*
X127138095Y-84052380D01*
X127138095Y-83052380D01*
X127471428Y-83052380D01*
X127566666Y-83100000D01*
X127614285Y-83147619D01*
X127661904Y-83242857D01*
X127661904Y-83338095D01*
X127614285Y-83433333D01*
X127566666Y-83480952D01*
X127471428Y-83528571D01*
X127138095Y-83528571D01*
X128661904Y-84052380D02*
X128090476Y-84052380D01*
X128376190Y-84052380D02*
X128376190Y-83052380D01*
X128280952Y-83195238D01*
X128185714Y-83290476D01*
X128090476Y-83338095D01*
X129280952Y-83052380D02*
X129376190Y-83052380D01*
X129471428Y-83100000D01*
X129519047Y-83147619D01*
X129566666Y-83242857D01*
X129614285Y-83433333D01*
X129614285Y-83671428D01*
X129566666Y-83861904D01*
X129519047Y-83957142D01*
X129471428Y-84004761D01*
X129376190Y-84052380D01*
X129280952Y-84052380D01*
X129185714Y-84004761D01*
X129138095Y-83957142D01*
X129090476Y-83861904D01*
X129042857Y-83671428D01*
X129042857Y-83433333D01*
X129090476Y-83242857D01*
X129138095Y-83147619D01*
X129185714Y-83100000D01*
X129280952Y-83052380D01*
X129995238Y-83147619D02*
X130042857Y-83100000D01*
X130138095Y-83052380D01*
X130376190Y-83052380D01*
X130471428Y-83100000D01*
X130519047Y-83147619D01*
X130566666Y-83242857D01*
X130566666Y-83338095D01*
X130519047Y-83480952D01*
X129947619Y-84052380D01*
X130566666Y-84052380D01*
X142414285Y-83728571D02*
X142080952Y-83728571D01*
X142080952Y-84252380D02*
X142080952Y-83252380D01*
X142557142Y-83252380D01*
X143271428Y-83728571D02*
X143414285Y-83776190D01*
X143461904Y-83823809D01*
X143509523Y-83919047D01*
X143509523Y-84061904D01*
X143461904Y-84157142D01*
X143414285Y-84204761D01*
X143319047Y-84252380D01*
X142938095Y-84252380D01*
X142938095Y-83252380D01*
X143271428Y-83252380D01*
X143366666Y-83300000D01*
X143414285Y-83347619D01*
X143461904Y-83442857D01*
X143461904Y-83538095D01*
X143414285Y-83633333D01*
X143366666Y-83680952D01*
X143271428Y-83728571D01*
X142938095Y-83728571D01*
X144461904Y-84252380D02*
X143890476Y-84252380D01*
X144176190Y-84252380D02*
X144176190Y-83252380D01*
X144080952Y-83395238D01*
X143985714Y-83490476D01*
X143890476Y-83538095D01*
X145080952Y-83252380D02*
X145176190Y-83252380D01*
X145271428Y-83300000D01*
X145319047Y-83347619D01*
X145366666Y-83442857D01*
X145414285Y-83633333D01*
X145414285Y-83871428D01*
X145366666Y-84061904D01*
X145319047Y-84157142D01*
X145271428Y-84204761D01*
X145176190Y-84252380D01*
X145080952Y-84252380D01*
X144985714Y-84204761D01*
X144938095Y-84157142D01*
X144890476Y-84061904D01*
X144842857Y-83871428D01*
X144842857Y-83633333D01*
X144890476Y-83442857D01*
X144938095Y-83347619D01*
X144985714Y-83300000D01*
X145080952Y-83252380D01*
X146366666Y-84252380D02*
X145795238Y-84252380D01*
X146080952Y-84252380D02*
X146080952Y-83252380D01*
X145985714Y-83395238D01*
X145890476Y-83490476D01*
X145795238Y-83538095D01*
X155680952Y-71357142D02*
X155633333Y-71404761D01*
X155490476Y-71452380D01*
X155395238Y-71452380D01*
X155252380Y-71404761D01*
X155157142Y-71309523D01*
X155109523Y-71214285D01*
X155061904Y-71023809D01*
X155061904Y-70880952D01*
X155109523Y-70690476D01*
X155157142Y-70595238D01*
X155252380Y-70500000D01*
X155395238Y-70452380D01*
X155490476Y-70452380D01*
X155633333Y-70500000D01*
X155680952Y-70547619D01*
X156633333Y-71452380D02*
X156061904Y-71452380D01*
X156347619Y-71452380D02*
X156347619Y-70452380D01*
X156252380Y-70595238D01*
X156157142Y-70690476D01*
X156061904Y-70738095D01*
X157252380Y-70452380D02*
X157347619Y-70452380D01*
X157442857Y-70500000D01*
X157490476Y-70547619D01*
X157538095Y-70642857D01*
X157585714Y-70833333D01*
X157585714Y-71071428D01*
X157538095Y-71261904D01*
X157490476Y-71357142D01*
X157442857Y-71404761D01*
X157347619Y-71452380D01*
X157252380Y-71452380D01*
X157157142Y-71404761D01*
X157109523Y-71357142D01*
X157061904Y-71261904D01*
X157014285Y-71071428D01*
X157014285Y-70833333D01*
X157061904Y-70642857D01*
X157109523Y-70547619D01*
X157157142Y-70500000D01*
X157252380Y-70452380D01*
X157966666Y-70547619D02*
X158014285Y-70500000D01*
X158109523Y-70452380D01*
X158347619Y-70452380D01*
X158442857Y-70500000D01*
X158490476Y-70547619D01*
X158538095Y-70642857D01*
X158538095Y-70738095D01*
X158490476Y-70880952D01*
X157919047Y-71452380D01*
X158538095Y-71452380D01*
X80714285Y-46178571D02*
X80380952Y-46178571D01*
X80380952Y-46702380D02*
X80380952Y-45702380D01*
X80857142Y-45702380D01*
X81761904Y-46702380D02*
X81190476Y-46702380D01*
X81476190Y-46702380D02*
X81476190Y-45702380D01*
X81380952Y-45845238D01*
X81285714Y-45940476D01*
X81190476Y-45988095D01*
X82380952Y-45702380D02*
X82476190Y-45702380D01*
X82571428Y-45750000D01*
X82619047Y-45797619D01*
X82666666Y-45892857D01*
X82714285Y-46083333D01*
X82714285Y-46321428D01*
X82666666Y-46511904D01*
X82619047Y-46607142D01*
X82571428Y-46654761D01*
X82476190Y-46702380D01*
X82380952Y-46702380D01*
X82285714Y-46654761D01*
X82238095Y-46607142D01*
X82190476Y-46511904D01*
X82142857Y-46321428D01*
X82142857Y-46083333D01*
X82190476Y-45892857D01*
X82238095Y-45797619D01*
X82285714Y-45750000D01*
X82380952Y-45702380D01*
X83095238Y-45797619D02*
X83142857Y-45750000D01*
X83238095Y-45702380D01*
X83476190Y-45702380D01*
X83571428Y-45750000D01*
X83619047Y-45797619D01*
X83666666Y-45892857D01*
X83666666Y-45988095D01*
X83619047Y-46130952D01*
X83047619Y-46702380D01*
X83666666Y-46702380D01*
X103714285Y-71452380D02*
X103714285Y-72166666D01*
X103666666Y-72309523D01*
X103571428Y-72404761D01*
X103428571Y-72452380D01*
X103333333Y-72452380D01*
X104714285Y-72452380D02*
X104142857Y-72452380D01*
X104428571Y-72452380D02*
X104428571Y-71452380D01*
X104333333Y-71595238D01*
X104238095Y-71690476D01*
X104142857Y-71738095D01*
X105333333Y-71452380D02*
X105428571Y-71452380D01*
X105523809Y-71500000D01*
X105571428Y-71547619D01*
X105619047Y-71642857D01*
X105666666Y-71833333D01*
X105666666Y-72071428D01*
X105619047Y-72261904D01*
X105571428Y-72357142D01*
X105523809Y-72404761D01*
X105428571Y-72452380D01*
X105333333Y-72452380D01*
X105238095Y-72404761D01*
X105190476Y-72357142D01*
X105142857Y-72261904D01*
X105095238Y-72071428D01*
X105095238Y-71833333D01*
X105142857Y-71642857D01*
X105190476Y-71547619D01*
X105238095Y-71500000D01*
X105333333Y-71452380D01*
X106047619Y-71547619D02*
X106095238Y-71500000D01*
X106190476Y-71452380D01*
X106428571Y-71452380D01*
X106523809Y-71500000D01*
X106571428Y-71547619D01*
X106619047Y-71642857D01*
X106619047Y-71738095D01*
X106571428Y-71880952D01*
X106000000Y-72452380D01*
X106619047Y-72452380D01*
X100754285Y-59678571D02*
X100420952Y-59678571D01*
X100420952Y-60202380D02*
X100420952Y-59202380D01*
X100897142Y-59202380D01*
X101801904Y-60202380D02*
X101230476Y-60202380D01*
X101516190Y-60202380D02*
X101516190Y-59202380D01*
X101420952Y-59345238D01*
X101325714Y-59440476D01*
X101230476Y-59488095D01*
X102420952Y-59202380D02*
X102516190Y-59202380D01*
X102611428Y-59250000D01*
X102659047Y-59297619D01*
X102706666Y-59392857D01*
X102754285Y-59583333D01*
X102754285Y-59821428D01*
X102706666Y-60011904D01*
X102659047Y-60107142D01*
X102611428Y-60154761D01*
X102516190Y-60202380D01*
X102420952Y-60202380D01*
X102325714Y-60154761D01*
X102278095Y-60107142D01*
X102230476Y-60011904D01*
X102182857Y-59821428D01*
X102182857Y-59583333D01*
X102230476Y-59392857D01*
X102278095Y-59297619D01*
X102325714Y-59250000D01*
X102420952Y-59202380D01*
X103087619Y-59202380D02*
X103706666Y-59202380D01*
X103373333Y-59583333D01*
X103516190Y-59583333D01*
X103611428Y-59630952D01*
X103659047Y-59678571D01*
X103706666Y-59773809D01*
X103706666Y-60011904D01*
X103659047Y-60107142D01*
X103611428Y-60154761D01*
X103516190Y-60202380D01*
X103230476Y-60202380D01*
X103135238Y-60154761D01*
X103087619Y-60107142D01*
X89952380Y-66285714D02*
X90666666Y-66285714D01*
X90809523Y-66333333D01*
X90904761Y-66428571D01*
X90952380Y-66571428D01*
X90952380Y-66666666D01*
X90952380Y-65285714D02*
X90952380Y-65857142D01*
X90952380Y-65571428D02*
X89952380Y-65571428D01*
X90095238Y-65666666D01*
X90190476Y-65761904D01*
X90238095Y-65857142D01*
X89952380Y-64666666D02*
X89952380Y-64571428D01*
X90000000Y-64476190D01*
X90047619Y-64428571D01*
X90142857Y-64380952D01*
X90333333Y-64333333D01*
X90571428Y-64333333D01*
X90761904Y-64380952D01*
X90857142Y-64428571D01*
X90904761Y-64476190D01*
X90952380Y-64571428D01*
X90952380Y-64666666D01*
X90904761Y-64761904D01*
X90857142Y-64809523D01*
X90761904Y-64857142D01*
X90571428Y-64904761D01*
X90333333Y-64904761D01*
X90142857Y-64857142D01*
X90047619Y-64809523D01*
X90000000Y-64761904D01*
X89952380Y-64666666D01*
X89952380Y-63428571D02*
X89952380Y-63904761D01*
X90428571Y-63952380D01*
X90380952Y-63904761D01*
X90333333Y-63809523D01*
X90333333Y-63571428D01*
X90380952Y-63476190D01*
X90428571Y-63428571D01*
X90523809Y-63380952D01*
X90761904Y-63380952D01*
X90857142Y-63428571D01*
X90904761Y-63476190D01*
X90952380Y-63571428D01*
X90952380Y-63809523D01*
X90904761Y-63904761D01*
X90857142Y-63952380D01*
X168052380Y-78490476D02*
X167052380Y-78490476D01*
X167052380Y-78252380D01*
X167100000Y-78109523D01*
X167195238Y-78014285D01*
X167290476Y-77966666D01*
X167480952Y-77919047D01*
X167623809Y-77919047D01*
X167814285Y-77966666D01*
X167909523Y-78014285D01*
X168004761Y-78109523D01*
X168052380Y-78252380D01*
X168052380Y-78490476D01*
X168052380Y-76966666D02*
X168052380Y-77538095D01*
X168052380Y-77252380D02*
X167052380Y-77252380D01*
X167195238Y-77347619D01*
X167290476Y-77442857D01*
X167338095Y-77538095D01*
X167052380Y-76347619D02*
X167052380Y-76252380D01*
X167100000Y-76157142D01*
X167147619Y-76109523D01*
X167242857Y-76061904D01*
X167433333Y-76014285D01*
X167671428Y-76014285D01*
X167861904Y-76061904D01*
X167957142Y-76109523D01*
X168004761Y-76157142D01*
X168052380Y-76252380D01*
X168052380Y-76347619D01*
X168004761Y-76442857D01*
X167957142Y-76490476D01*
X167861904Y-76538095D01*
X167671428Y-76585714D01*
X167433333Y-76585714D01*
X167242857Y-76538095D01*
X167147619Y-76490476D01*
X167100000Y-76442857D01*
X167052380Y-76347619D01*
X167147619Y-75633333D02*
X167100000Y-75585714D01*
X167052380Y-75490476D01*
X167052380Y-75252380D01*
X167100000Y-75157142D01*
X167147619Y-75109523D01*
X167242857Y-75061904D01*
X167338095Y-75061904D01*
X167480952Y-75109523D01*
X168052380Y-75680952D01*
X168052380Y-75061904D01*
X155504285Y-57452380D02*
X155504285Y-58166666D01*
X155456666Y-58309523D01*
X155361428Y-58404761D01*
X155218571Y-58452380D01*
X155123333Y-58452380D01*
X156504285Y-58452380D02*
X155932857Y-58452380D01*
X156218571Y-58452380D02*
X156218571Y-57452380D01*
X156123333Y-57595238D01*
X156028095Y-57690476D01*
X155932857Y-57738095D01*
X157123333Y-57452380D02*
X157218571Y-57452380D01*
X157313809Y-57500000D01*
X157361428Y-57547619D01*
X157409047Y-57642857D01*
X157456666Y-57833333D01*
X157456666Y-58071428D01*
X157409047Y-58261904D01*
X157361428Y-58357142D01*
X157313809Y-58404761D01*
X157218571Y-58452380D01*
X157123333Y-58452380D01*
X157028095Y-58404761D01*
X156980476Y-58357142D01*
X156932857Y-58261904D01*
X156885238Y-58071428D01*
X156885238Y-57833333D01*
X156932857Y-57642857D01*
X156980476Y-57547619D01*
X157028095Y-57500000D01*
X157123333Y-57452380D01*
X158313809Y-57785714D02*
X158313809Y-58452380D01*
X158075714Y-57404761D02*
X157837619Y-58119047D01*
X158456666Y-58119047D01*
X89952380Y-80285714D02*
X90666666Y-80285714D01*
X90809523Y-80333333D01*
X90904761Y-80428571D01*
X90952380Y-80571428D01*
X90952380Y-80666666D01*
X90952380Y-79285714D02*
X90952380Y-79857142D01*
X90952380Y-79571428D02*
X89952380Y-79571428D01*
X90095238Y-79666666D01*
X90190476Y-79761904D01*
X90238095Y-79857142D01*
X89952380Y-78666666D02*
X89952380Y-78571428D01*
X90000000Y-78476190D01*
X90047619Y-78428571D01*
X90142857Y-78380952D01*
X90333333Y-78333333D01*
X90571428Y-78333333D01*
X90761904Y-78380952D01*
X90857142Y-78428571D01*
X90904761Y-78476190D01*
X90952380Y-78571428D01*
X90952380Y-78666666D01*
X90904761Y-78761904D01*
X90857142Y-78809523D01*
X90761904Y-78857142D01*
X90571428Y-78904761D01*
X90333333Y-78904761D01*
X90142857Y-78857142D01*
X90047619Y-78809523D01*
X90000000Y-78761904D01*
X89952380Y-78666666D01*
X89952380Y-78000000D02*
X89952380Y-77333333D01*
X90952380Y-77761904D01*
X115714285Y-57452380D02*
X115714285Y-58166666D01*
X115666666Y-58309523D01*
X115571428Y-58404761D01*
X115428571Y-58452380D01*
X115333333Y-58452380D01*
X116714285Y-58452380D02*
X116142857Y-58452380D01*
X116428571Y-58452380D02*
X116428571Y-57452380D01*
X116333333Y-57595238D01*
X116238095Y-57690476D01*
X116142857Y-57738095D01*
X117333333Y-57452380D02*
X117428571Y-57452380D01*
X117523809Y-57500000D01*
X117571428Y-57547619D01*
X117619047Y-57642857D01*
X117666666Y-57833333D01*
X117666666Y-58071428D01*
X117619047Y-58261904D01*
X117571428Y-58357142D01*
X117523809Y-58404761D01*
X117428571Y-58452380D01*
X117333333Y-58452380D01*
X117238095Y-58404761D01*
X117190476Y-58357142D01*
X117142857Y-58261904D01*
X117095238Y-58071428D01*
X117095238Y-57833333D01*
X117142857Y-57642857D01*
X117190476Y-57547619D01*
X117238095Y-57500000D01*
X117333333Y-57452380D01*
X118000000Y-57452380D02*
X118619047Y-57452380D01*
X118285714Y-57833333D01*
X118428571Y-57833333D01*
X118523809Y-57880952D01*
X118571428Y-57928571D01*
X118619047Y-58023809D01*
X118619047Y-58261904D01*
X118571428Y-58357142D01*
X118523809Y-58404761D01*
X118428571Y-58452380D01*
X118142857Y-58452380D01*
X118047619Y-58404761D01*
X118000000Y-58357142D01*
X113754285Y-59678571D02*
X113420952Y-59678571D01*
X113420952Y-60202380D02*
X113420952Y-59202380D01*
X113897142Y-59202380D01*
X114801904Y-60202380D02*
X114230476Y-60202380D01*
X114516190Y-60202380D02*
X114516190Y-59202380D01*
X114420952Y-59345238D01*
X114325714Y-59440476D01*
X114230476Y-59488095D01*
X115420952Y-59202380D02*
X115516190Y-59202380D01*
X115611428Y-59250000D01*
X115659047Y-59297619D01*
X115706666Y-59392857D01*
X115754285Y-59583333D01*
X115754285Y-59821428D01*
X115706666Y-60011904D01*
X115659047Y-60107142D01*
X115611428Y-60154761D01*
X115516190Y-60202380D01*
X115420952Y-60202380D01*
X115325714Y-60154761D01*
X115278095Y-60107142D01*
X115230476Y-60011904D01*
X115182857Y-59821428D01*
X115182857Y-59583333D01*
X115230476Y-59392857D01*
X115278095Y-59297619D01*
X115325714Y-59250000D01*
X115420952Y-59202380D01*
X116706666Y-60202380D02*
X116135238Y-60202380D01*
X116420952Y-60202380D02*
X116420952Y-59202380D01*
X116325714Y-59345238D01*
X116230476Y-59440476D01*
X116135238Y-59488095D01*
X155464285Y-72052380D02*
X155464285Y-72766666D01*
X155416666Y-72909523D01*
X155321428Y-73004761D01*
X155178571Y-73052380D01*
X155083333Y-73052380D01*
X156464285Y-73052380D02*
X155892857Y-73052380D01*
X156178571Y-73052380D02*
X156178571Y-72052380D01*
X156083333Y-72195238D01*
X155988095Y-72290476D01*
X155892857Y-72338095D01*
X157083333Y-72052380D02*
X157178571Y-72052380D01*
X157273809Y-72100000D01*
X157321428Y-72147619D01*
X157369047Y-72242857D01*
X157416666Y-72433333D01*
X157416666Y-72671428D01*
X157369047Y-72861904D01*
X157321428Y-72957142D01*
X157273809Y-73004761D01*
X157178571Y-73052380D01*
X157083333Y-73052380D01*
X156988095Y-73004761D01*
X156940476Y-72957142D01*
X156892857Y-72861904D01*
X156845238Y-72671428D01*
X156845238Y-72433333D01*
X156892857Y-72242857D01*
X156940476Y-72147619D01*
X156988095Y-72100000D01*
X157083333Y-72052380D01*
X157892857Y-73052380D02*
X158083333Y-73052380D01*
X158178571Y-73004761D01*
X158226190Y-72957142D01*
X158321428Y-72814285D01*
X158369047Y-72623809D01*
X158369047Y-72242857D01*
X158321428Y-72147619D01*
X158273809Y-72100000D01*
X158178571Y-72052380D01*
X157988095Y-72052380D01*
X157892857Y-72100000D01*
X157845238Y-72147619D01*
X157797619Y-72242857D01*
X157797619Y-72480952D01*
X157845238Y-72576190D01*
X157892857Y-72623809D01*
X157988095Y-72671428D01*
X158178571Y-72671428D01*
X158273809Y-72623809D01*
X158321428Y-72576190D01*
X158369047Y-72480952D01*
X169252380Y-74119047D02*
X168776190Y-74452380D01*
X169252380Y-74690476D02*
X168252380Y-74690476D01*
X168252380Y-74309523D01*
X168300000Y-74214285D01*
X168347619Y-74166666D01*
X168442857Y-74119047D01*
X168585714Y-74119047D01*
X168680952Y-74166666D01*
X168728571Y-74214285D01*
X168776190Y-74309523D01*
X168776190Y-74690476D01*
X169252380Y-73166666D02*
X169252380Y-73738095D01*
X169252380Y-73452380D02*
X168252380Y-73452380D01*
X168395238Y-73547619D01*
X168490476Y-73642857D01*
X168538095Y-73738095D01*
X168252380Y-72547619D02*
X168252380Y-72452380D01*
X168300000Y-72357142D01*
X168347619Y-72309523D01*
X168442857Y-72261904D01*
X168633333Y-72214285D01*
X168871428Y-72214285D01*
X169061904Y-72261904D01*
X169157142Y-72309523D01*
X169204761Y-72357142D01*
X169252380Y-72452380D01*
X169252380Y-72547619D01*
X169204761Y-72642857D01*
X169157142Y-72690476D01*
X169061904Y-72738095D01*
X168871428Y-72785714D01*
X168633333Y-72785714D01*
X168442857Y-72738095D01*
X168347619Y-72690476D01*
X168300000Y-72642857D01*
X168252380Y-72547619D01*
X168252380Y-71880952D02*
X168252380Y-71261904D01*
X168633333Y-71595238D01*
X168633333Y-71452380D01*
X168680952Y-71357142D01*
X168728571Y-71309523D01*
X168823809Y-71261904D01*
X169061904Y-71261904D01*
X169157142Y-71309523D01*
X169204761Y-71357142D01*
X169252380Y-71452380D01*
X169252380Y-71738095D01*
X169204761Y-71833333D01*
X169157142Y-71880952D01*
X98857142Y-78119047D02*
X98904761Y-78166666D01*
X98952380Y-78309523D01*
X98952380Y-78404761D01*
X98904761Y-78547619D01*
X98809523Y-78642857D01*
X98714285Y-78690476D01*
X98523809Y-78738095D01*
X98380952Y-78738095D01*
X98190476Y-78690476D01*
X98095238Y-78642857D01*
X98000000Y-78547619D01*
X97952380Y-78404761D01*
X97952380Y-78309523D01*
X98000000Y-78166666D01*
X98047619Y-78119047D01*
X98952380Y-77166666D02*
X98952380Y-77738095D01*
X98952380Y-77452380D02*
X97952380Y-77452380D01*
X98095238Y-77547619D01*
X98190476Y-77642857D01*
X98238095Y-77738095D01*
X97952380Y-76547619D02*
X97952380Y-76452380D01*
X98000000Y-76357142D01*
X98047619Y-76309523D01*
X98142857Y-76261904D01*
X98333333Y-76214285D01*
X98571428Y-76214285D01*
X98761904Y-76261904D01*
X98857142Y-76309523D01*
X98904761Y-76357142D01*
X98952380Y-76452380D01*
X98952380Y-76547619D01*
X98904761Y-76642857D01*
X98857142Y-76690476D01*
X98761904Y-76738095D01*
X98571428Y-76785714D01*
X98333333Y-76785714D01*
X98142857Y-76738095D01*
X98047619Y-76690476D01*
X98000000Y-76642857D01*
X97952380Y-76547619D01*
X98952380Y-75261904D02*
X98952380Y-75833333D01*
X98952380Y-75547619D02*
X97952380Y-75547619D01*
X98095238Y-75642857D01*
X98190476Y-75738095D01*
X98238095Y-75833333D01*
X168052380Y-55090476D02*
X167052380Y-55090476D01*
X167052380Y-54852380D01*
X167100000Y-54709523D01*
X167195238Y-54614285D01*
X167290476Y-54566666D01*
X167480952Y-54519047D01*
X167623809Y-54519047D01*
X167814285Y-54566666D01*
X167909523Y-54614285D01*
X168004761Y-54709523D01*
X168052380Y-54852380D01*
X168052380Y-55090476D01*
X168052380Y-53566666D02*
X168052380Y-54138095D01*
X168052380Y-53852380D02*
X167052380Y-53852380D01*
X167195238Y-53947619D01*
X167290476Y-54042857D01*
X167338095Y-54138095D01*
X167052380Y-52947619D02*
X167052380Y-52852380D01*
X167100000Y-52757142D01*
X167147619Y-52709523D01*
X167242857Y-52661904D01*
X167433333Y-52614285D01*
X167671428Y-52614285D01*
X167861904Y-52661904D01*
X167957142Y-52709523D01*
X168004761Y-52757142D01*
X168052380Y-52852380D01*
X168052380Y-52947619D01*
X168004761Y-53042857D01*
X167957142Y-53090476D01*
X167861904Y-53138095D01*
X167671428Y-53185714D01*
X167433333Y-53185714D01*
X167242857Y-53138095D01*
X167147619Y-53090476D01*
X167100000Y-53042857D01*
X167052380Y-52947619D01*
X168052380Y-51661904D02*
X168052380Y-52233333D01*
X168052380Y-51947619D02*
X167052380Y-51947619D01*
X167195238Y-52042857D01*
X167290476Y-52138095D01*
X167338095Y-52233333D01*
X98952380Y-58547619D02*
X98476190Y-58880952D01*
X98952380Y-59119047D02*
X97952380Y-59119047D01*
X97952380Y-58738095D01*
X98000000Y-58642857D01*
X98047619Y-58595238D01*
X98142857Y-58547619D01*
X98285714Y-58547619D01*
X98380952Y-58595238D01*
X98428571Y-58642857D01*
X98476190Y-58738095D01*
X98476190Y-59119047D01*
X97952380Y-58261904D02*
X98952380Y-57928571D01*
X97952380Y-57595238D01*
X98952380Y-56738095D02*
X98952380Y-57309523D01*
X98952380Y-57023809D02*
X97952380Y-57023809D01*
X98095238Y-57119047D01*
X98190476Y-57214285D01*
X98238095Y-57309523D01*
X97952380Y-56119047D02*
X97952380Y-56023809D01*
X98000000Y-55928571D01*
X98047619Y-55880952D01*
X98142857Y-55833333D01*
X98333333Y-55785714D01*
X98571428Y-55785714D01*
X98761904Y-55833333D01*
X98857142Y-55880952D01*
X98904761Y-55928571D01*
X98952380Y-56023809D01*
X98952380Y-56119047D01*
X98904761Y-56214285D01*
X98857142Y-56261904D01*
X98761904Y-56309523D01*
X98571428Y-56357142D01*
X98333333Y-56357142D01*
X98142857Y-56309523D01*
X98047619Y-56261904D01*
X98000000Y-56214285D01*
X97952380Y-56119047D01*
X98952380Y-54833333D02*
X98952380Y-55404761D01*
X98952380Y-55119047D02*
X97952380Y-55119047D01*
X98095238Y-55214285D01*
X98190476Y-55309523D01*
X98238095Y-55404761D01*
X169252380Y-58519047D02*
X168776190Y-58852380D01*
X169252380Y-59090476D02*
X168252380Y-59090476D01*
X168252380Y-58709523D01*
X168300000Y-58614285D01*
X168347619Y-58566666D01*
X168442857Y-58519047D01*
X168585714Y-58519047D01*
X168680952Y-58566666D01*
X168728571Y-58614285D01*
X168776190Y-58709523D01*
X168776190Y-59090476D01*
X169252380Y-57566666D02*
X169252380Y-58138095D01*
X169252380Y-57852380D02*
X168252380Y-57852380D01*
X168395238Y-57947619D01*
X168490476Y-58042857D01*
X168538095Y-58138095D01*
X168252380Y-56947619D02*
X168252380Y-56852380D01*
X168300000Y-56757142D01*
X168347619Y-56709523D01*
X168442857Y-56661904D01*
X168633333Y-56614285D01*
X168871428Y-56614285D01*
X169061904Y-56661904D01*
X169157142Y-56709523D01*
X169204761Y-56757142D01*
X169252380Y-56852380D01*
X169252380Y-56947619D01*
X169204761Y-57042857D01*
X169157142Y-57090476D01*
X169061904Y-57138095D01*
X168871428Y-57185714D01*
X168633333Y-57185714D01*
X168442857Y-57138095D01*
X168347619Y-57090476D01*
X168300000Y-57042857D01*
X168252380Y-56947619D01*
X169252380Y-55661904D02*
X169252380Y-56233333D01*
X169252380Y-55947619D02*
X168252380Y-55947619D01*
X168395238Y-56042857D01*
X168490476Y-56138095D01*
X168538095Y-56233333D01*
X169252380Y-62519047D02*
X168776190Y-62852380D01*
X169252380Y-63090476D02*
X168252380Y-63090476D01*
X168252380Y-62709523D01*
X168300000Y-62614285D01*
X168347619Y-62566666D01*
X168442857Y-62519047D01*
X168585714Y-62519047D01*
X168680952Y-62566666D01*
X168728571Y-62614285D01*
X168776190Y-62709523D01*
X168776190Y-63090476D01*
X169252380Y-61566666D02*
X169252380Y-62138095D01*
X169252380Y-61852380D02*
X168252380Y-61852380D01*
X168395238Y-61947619D01*
X168490476Y-62042857D01*
X168538095Y-62138095D01*
X168252380Y-60947619D02*
X168252380Y-60852380D01*
X168300000Y-60757142D01*
X168347619Y-60709523D01*
X168442857Y-60661904D01*
X168633333Y-60614285D01*
X168871428Y-60614285D01*
X169061904Y-60661904D01*
X169157142Y-60709523D01*
X169204761Y-60757142D01*
X169252380Y-60852380D01*
X169252380Y-60947619D01*
X169204761Y-61042857D01*
X169157142Y-61090476D01*
X169061904Y-61138095D01*
X168871428Y-61185714D01*
X168633333Y-61185714D01*
X168442857Y-61138095D01*
X168347619Y-61090476D01*
X168300000Y-61042857D01*
X168252380Y-60947619D01*
X168347619Y-60233333D02*
X168300000Y-60185714D01*
X168252380Y-60090476D01*
X168252380Y-59852380D01*
X168300000Y-59757142D01*
X168347619Y-59709523D01*
X168442857Y-59661904D01*
X168538095Y-59661904D01*
X168680952Y-59709523D01*
X169252380Y-60280952D01*
X169252380Y-59661904D01*
X116214285Y-71452380D02*
X116214285Y-72166666D01*
X116166666Y-72309523D01*
X116071428Y-72404761D01*
X115928571Y-72452380D01*
X115833333Y-72452380D01*
X117214285Y-72452380D02*
X116642857Y-72452380D01*
X116928571Y-72452380D02*
X116928571Y-71452380D01*
X116833333Y-71595238D01*
X116738095Y-71690476D01*
X116642857Y-71738095D01*
X117833333Y-71452380D02*
X117928571Y-71452380D01*
X118023809Y-71500000D01*
X118071428Y-71547619D01*
X118119047Y-71642857D01*
X118166666Y-71833333D01*
X118166666Y-72071428D01*
X118119047Y-72261904D01*
X118071428Y-72357142D01*
X118023809Y-72404761D01*
X117928571Y-72452380D01*
X117833333Y-72452380D01*
X117738095Y-72404761D01*
X117690476Y-72357142D01*
X117642857Y-72261904D01*
X117595238Y-72071428D01*
X117595238Y-71833333D01*
X117642857Y-71642857D01*
X117690476Y-71547619D01*
X117738095Y-71500000D01*
X117833333Y-71452380D01*
X118738095Y-71880952D02*
X118642857Y-71833333D01*
X118595238Y-71785714D01*
X118547619Y-71690476D01*
X118547619Y-71642857D01*
X118595238Y-71547619D01*
X118642857Y-71500000D01*
X118738095Y-71452380D01*
X118928571Y-71452380D01*
X119023809Y-71500000D01*
X119071428Y-71547619D01*
X119119047Y-71642857D01*
X119119047Y-71690476D01*
X119071428Y-71785714D01*
X119023809Y-71833333D01*
X118928571Y-71880952D01*
X118738095Y-71880952D01*
X118642857Y-71928571D01*
X118595238Y-71976190D01*
X118547619Y-72071428D01*
X118547619Y-72261904D01*
X118595238Y-72357142D01*
X118642857Y-72404761D01*
X118738095Y-72452380D01*
X118928571Y-72452380D01*
X119023809Y-72404761D01*
X119071428Y-72357142D01*
X119119047Y-72261904D01*
X119119047Y-72071428D01*
X119071428Y-71976190D01*
X119023809Y-71928571D01*
X118928571Y-71880952D01*
X103754285Y-57452380D02*
X103754285Y-58166666D01*
X103706666Y-58309523D01*
X103611428Y-58404761D01*
X103468571Y-58452380D01*
X103373333Y-58452380D01*
X104754285Y-58452380D02*
X104182857Y-58452380D01*
X104468571Y-58452380D02*
X104468571Y-57452380D01*
X104373333Y-57595238D01*
X104278095Y-57690476D01*
X104182857Y-57738095D01*
X105373333Y-57452380D02*
X105468571Y-57452380D01*
X105563809Y-57500000D01*
X105611428Y-57547619D01*
X105659047Y-57642857D01*
X105706666Y-57833333D01*
X105706666Y-58071428D01*
X105659047Y-58261904D01*
X105611428Y-58357142D01*
X105563809Y-58404761D01*
X105468571Y-58452380D01*
X105373333Y-58452380D01*
X105278095Y-58404761D01*
X105230476Y-58357142D01*
X105182857Y-58261904D01*
X105135238Y-58071428D01*
X105135238Y-57833333D01*
X105182857Y-57642857D01*
X105230476Y-57547619D01*
X105278095Y-57500000D01*
X105373333Y-57452380D01*
X106659047Y-58452380D02*
X106087619Y-58452380D01*
X106373333Y-58452380D02*
X106373333Y-57452380D01*
X106278095Y-57595238D01*
X106182857Y-57690476D01*
X106087619Y-57738095D01*
D11*
X139130000Y-65000000D02*
G75*
G03*
X139130000Y-65000000I-2630000J0D01*
G01*
X148591848Y-62640000D02*
G75*
G03*
X124408152Y-62640000I-12091848J-2359999D01*
G01*
X124408152Y-67360000D02*
G75*
G03*
X148591848Y-67360000I12091848J2359999D01*
G01*
X127013748Y-78890000D02*
X129786252Y-78890000D01*
X127013748Y-82310000D02*
X129786252Y-82310000D01*
X142813748Y-78890000D02*
X145586252Y-78890000D01*
X142813748Y-82310000D02*
X145586252Y-82310000D01*
X160083323Y-61043000D02*
X160083323Y-63759000D01*
X161603323Y-66241000D02*
X161603323Y-66944000D01*
X161483323Y-62791000D02*
X161483323Y-63759000D01*
X160163323Y-66241000D02*
X160163323Y-68892000D01*
X159043323Y-60397000D02*
X159043323Y-69603000D01*
X161523323Y-62875000D02*
X161523323Y-63759000D01*
X158923323Y-60343000D02*
X158923323Y-69657000D01*
X161083323Y-62111000D02*
X161083323Y-63759000D01*
X161243323Y-62355000D02*
X161243323Y-63759000D01*
X159643323Y-66241000D02*
X159643323Y-69273000D01*
X158003323Y-60044000D02*
X158003323Y-69956000D01*
X159843323Y-60862000D02*
X159843323Y-63759000D01*
X161043323Y-66241000D02*
X161043323Y-67945000D01*
X161123323Y-66241000D02*
X161123323Y-67830000D01*
X159163323Y-60455000D02*
X159163323Y-69545000D01*
X160323323Y-61247000D02*
X160323323Y-63759000D01*
X160003323Y-66241000D02*
X160003323Y-69020000D01*
X161043323Y-62055000D02*
X161043323Y-63759000D01*
X160523323Y-66241000D02*
X160523323Y-68561000D01*
X160403323Y-66241000D02*
X160403323Y-68679000D01*
X158163323Y-60082000D02*
X158163323Y-69918000D01*
X157923323Y-60026000D02*
X157923323Y-69974000D01*
X161323323Y-66241000D02*
X161323323Y-67510000D01*
X157482323Y-59955000D02*
X157482323Y-70045000D01*
X159803323Y-66241000D02*
X159803323Y-69166000D01*
X159563323Y-66241000D02*
X159563323Y-69323000D01*
X160043323Y-66241000D02*
X160043323Y-68989000D01*
X157282323Y-59935000D02*
X157282323Y-70065000D01*
X160683323Y-61608000D02*
X160683323Y-63759000D01*
X157843323Y-60010000D02*
X157843323Y-69990000D01*
X158083323Y-60062000D02*
X158083323Y-69938000D01*
X160563323Y-61480000D02*
X160563323Y-63759000D01*
X160763323Y-61699000D02*
X160763323Y-63759000D01*
X161643323Y-66241000D02*
X161643323Y-66846000D01*
X158723323Y-60262000D02*
X158723323Y-69738000D01*
X157603323Y-59970000D02*
X157603323Y-70030000D01*
X160123323Y-61075000D02*
X160123323Y-63759000D01*
X160803323Y-61746000D02*
X160803323Y-63759000D01*
X157683323Y-59982000D02*
X157683323Y-70018000D01*
X161483323Y-66241000D02*
X161483323Y-67209000D01*
X161523323Y-66241000D02*
X161523323Y-67125000D01*
X160563323Y-66241000D02*
X160563323Y-68520000D01*
X157522323Y-59960000D02*
X157522323Y-70040000D01*
X159443323Y-66241000D02*
X159443323Y-69395000D01*
X161443323Y-62711000D02*
X161443323Y-63759000D01*
X161363323Y-62561000D02*
X161363323Y-63759000D01*
X160083323Y-66241000D02*
X160083323Y-68957000D01*
X158243323Y-60103000D02*
X158243323Y-69897000D01*
X159443323Y-60605000D02*
X159443323Y-63759000D01*
X158683323Y-60246000D02*
X158683323Y-69754000D01*
X161003323Y-62000000D02*
X161003323Y-63759000D01*
X157963323Y-60035000D02*
X157963323Y-69965000D01*
X160203323Y-66241000D02*
X160203323Y-68858000D01*
X159923323Y-60920000D02*
X159923323Y-63759000D01*
X161323323Y-62490000D02*
X161323323Y-63759000D01*
X161763323Y-63490000D02*
X161763323Y-63759000D01*
X160403323Y-61321000D02*
X160403323Y-63759000D01*
X160243323Y-61176000D02*
X160243323Y-63759000D01*
X158483323Y-60176000D02*
X158483323Y-69824000D01*
X160643323Y-66241000D02*
X160643323Y-68436000D01*
X159683323Y-66241000D02*
X159683323Y-69247000D01*
X159283323Y-60517000D02*
X159283323Y-69483000D01*
X159643323Y-60727000D02*
X159643323Y-63759000D01*
X159323323Y-60538000D02*
X159323323Y-69462000D01*
X161563323Y-62963000D02*
X161563323Y-63759000D01*
X157322323Y-59938000D02*
X157322323Y-70062000D01*
X160043323Y-61011000D02*
X160043323Y-63759000D01*
X159963323Y-60950000D02*
X159963323Y-63759000D01*
X159403323Y-66241000D02*
X159403323Y-69417000D01*
X160203323Y-61142000D02*
X160203323Y-63759000D01*
X160363323Y-66241000D02*
X160363323Y-68716000D01*
X157562323Y-59965000D02*
X157562323Y-70035000D01*
X161083323Y-66241000D02*
X161083323Y-67889000D01*
X158523323Y-60189000D02*
X158523323Y-69811000D01*
X159763323Y-60806000D02*
X159763323Y-63759000D01*
X160843323Y-61794000D02*
X160843323Y-63759000D01*
X160963323Y-66241000D02*
X160963323Y-68054000D01*
X161803323Y-63622000D02*
X161803323Y-63759000D01*
X157803323Y-60003000D02*
X157803323Y-69997000D01*
X156962323Y-59920000D02*
X156962323Y-70080000D01*
X158283323Y-60115000D02*
X158283323Y-69885000D01*
X159483323Y-66241000D02*
X159483323Y-69371000D01*
X158363323Y-60138000D02*
X158363323Y-69862000D01*
X160523323Y-61439000D02*
X160523323Y-63759000D01*
X157643323Y-59976000D02*
X157643323Y-70024000D01*
X160603323Y-61522000D02*
X160603323Y-63759000D01*
X161403323Y-66241000D02*
X161403323Y-67365000D01*
X159843323Y-66241000D02*
X159843323Y-69138000D01*
X161283323Y-66241000D02*
X161283323Y-67579000D01*
X158323323Y-60126000D02*
X158323323Y-69874000D01*
X160443323Y-61360000D02*
X160443323Y-63759000D01*
X158443323Y-60163000D02*
X158443323Y-69837000D01*
X159603323Y-66241000D02*
X159603323Y-69298000D01*
X157082323Y-59923000D02*
X157082323Y-70077000D01*
X161563323Y-66241000D02*
X161563323Y-67037000D01*
X161723323Y-66241000D02*
X161723323Y-66630000D01*
X159483323Y-60629000D02*
X159483323Y-63759000D01*
X158563323Y-60203000D02*
X158563323Y-69797000D01*
X156882323Y-59920000D02*
X156882323Y-70080000D01*
X161363323Y-66241000D02*
X161363323Y-67439000D01*
X159563323Y-60677000D02*
X159563323Y-63759000D01*
X158203323Y-60093000D02*
X158203323Y-69907000D01*
X159683323Y-60753000D02*
X159683323Y-63759000D01*
X160723323Y-61653000D02*
X160723323Y-63759000D01*
X160443323Y-66241000D02*
X160443323Y-68640000D01*
X157002323Y-59921000D02*
X157002323Y-70079000D01*
X157122323Y-59925000D02*
X157122323Y-70075000D01*
X158763323Y-60277000D02*
X158763323Y-69723000D01*
X157442323Y-59950000D02*
X157442323Y-70050000D01*
X159763323Y-66241000D02*
X159763323Y-69194000D01*
X161683323Y-66241000D02*
X161683323Y-66742000D01*
X159723323Y-60779000D02*
X159723323Y-63759000D01*
X161163323Y-62230000D02*
X161163323Y-63759000D01*
X160283323Y-66241000D02*
X160283323Y-68789000D01*
X160363323Y-61284000D02*
X160363323Y-63759000D01*
X161243323Y-66241000D02*
X161243323Y-67645000D01*
X159803323Y-60834000D02*
X159803323Y-63759000D01*
X159083323Y-60416000D02*
X159083323Y-69584000D01*
X156922323Y-59920000D02*
X156922323Y-70080000D01*
X159963323Y-66241000D02*
X159963323Y-69050000D01*
X159523323Y-60653000D02*
X159523323Y-63759000D01*
X157883323Y-60018000D02*
X157883323Y-69982000D01*
X157723323Y-59989000D02*
X157723323Y-70011000D01*
X160163323Y-61108000D02*
X160163323Y-63759000D01*
X160323323Y-66241000D02*
X160323323Y-68753000D01*
X158403323Y-60150000D02*
X158403323Y-69850000D01*
X160483323Y-66241000D02*
X160483323Y-68601000D01*
X160883323Y-61844000D02*
X160883323Y-63759000D01*
X161203323Y-66241000D02*
X161203323Y-67709000D01*
X159923323Y-66241000D02*
X159923323Y-69080000D01*
X161643323Y-63154000D02*
X161643323Y-63759000D01*
X160003323Y-60980000D02*
X160003323Y-63759000D01*
X157242323Y-59932000D02*
X157242323Y-70068000D01*
X161803323Y-66241000D02*
X161803323Y-66378000D01*
X158643323Y-60232000D02*
X158643323Y-69768000D01*
X159243323Y-60496000D02*
X159243323Y-69504000D01*
X161963323Y-64401000D02*
X161963323Y-65599000D01*
X158603323Y-60217000D02*
X158603323Y-69783000D01*
X161123323Y-62170000D02*
X161123323Y-63759000D01*
X160923323Y-66241000D02*
X160923323Y-68106000D01*
X159203323Y-60475000D02*
X159203323Y-69525000D01*
X161723323Y-63370000D02*
X161723323Y-63759000D01*
X157402323Y-59946000D02*
X157402323Y-70054000D01*
X158043323Y-60053000D02*
X158043323Y-69947000D01*
X157362323Y-59942000D02*
X157362323Y-70058000D01*
X161883323Y-63938000D02*
X161883323Y-66062000D01*
X160843323Y-66241000D02*
X160843323Y-68206000D01*
X157763323Y-59996000D02*
X157763323Y-70004000D01*
X157042323Y-59922000D02*
X157042323Y-70078000D01*
X160243323Y-66241000D02*
X160243323Y-68824000D01*
X160723323Y-66241000D02*
X160723323Y-68347000D01*
X160883323Y-66241000D02*
X160883323Y-68156000D01*
X160803323Y-66241000D02*
X160803323Y-68254000D01*
X161203323Y-62291000D02*
X161203323Y-63759000D01*
X159523323Y-66241000D02*
X159523323Y-69347000D01*
X160123323Y-66241000D02*
X160123323Y-68925000D01*
X161683323Y-63258000D02*
X161683323Y-63759000D01*
X159603323Y-60702000D02*
X159603323Y-63759000D01*
X161283323Y-62421000D02*
X161283323Y-63759000D01*
X159123323Y-60436000D02*
X159123323Y-69564000D01*
X159003323Y-60379000D02*
X159003323Y-69621000D01*
X159363323Y-60560000D02*
X159363323Y-69440000D01*
X160603323Y-66241000D02*
X160603323Y-68478000D01*
X158963323Y-60361000D02*
X158963323Y-69639000D01*
X157202323Y-59930000D02*
X157202323Y-70070000D01*
X161163323Y-66241000D02*
X161163323Y-67770000D01*
X157162323Y-59927000D02*
X157162323Y-70073000D01*
X161003323Y-66241000D02*
X161003323Y-68000000D01*
X160483323Y-61399000D02*
X160483323Y-63759000D01*
X161403323Y-62635000D02*
X161403323Y-63759000D01*
X151402677Y-62125000D02*
X152402677Y-62125000D01*
X158843323Y-60310000D02*
X158843323Y-69690000D01*
X160963323Y-61946000D02*
X160963323Y-63759000D01*
X161603323Y-63056000D02*
X161603323Y-63759000D01*
X159883323Y-66241000D02*
X159883323Y-69110000D01*
X159723323Y-66241000D02*
X159723323Y-69221000D01*
X158803323Y-60293000D02*
X158803323Y-69707000D01*
X160283323Y-61211000D02*
X160283323Y-63759000D01*
X158883323Y-60326000D02*
X158883323Y-69674000D01*
X159883323Y-60890000D02*
X159883323Y-63759000D01*
X160763323Y-66241000D02*
X160763323Y-68301000D01*
X161443323Y-66241000D02*
X161443323Y-67289000D01*
X161763323Y-66241000D02*
X161763323Y-66510000D01*
X160683323Y-66241000D02*
X160683323Y-68392000D01*
X159403323Y-60583000D02*
X159403323Y-63759000D01*
X151902677Y-61625000D02*
X151902677Y-62625000D01*
X160923323Y-61894000D02*
X160923323Y-63759000D01*
X160643323Y-61564000D02*
X160643323Y-63759000D01*
X158123323Y-60072000D02*
X158123323Y-69928000D01*
X161923323Y-64138000D02*
X161923323Y-65862000D01*
X151919783Y-66260000D02*
G75*
G03*
X151919783Y-63740000I4962540J1260000D01*
G01*
X88860000Y-51500000D02*
G75*
G03*
X88860000Y-51500000I-4360000J0D01*
G01*
X110120000Y-83000000D02*
X110120000Y-73000000D01*
X99960000Y-73000000D02*
X99960000Y-83000000D01*
X110120000Y-73000000D02*
X99960000Y-73000000D01*
X110120000Y-82000000D02*
X99960000Y-82000000D01*
X99960000Y-83000000D02*
X110120000Y-83000000D01*
X109400000Y-65000000D02*
G75*
G03*
X109400000Y-65000000I-4360000J0D01*
G01*
X80499500Y-72641500D02*
X80500000Y-57401500D01*
X79500000Y-57401500D02*
X79500000Y-72641500D01*
X89500000Y-57401500D02*
X79500000Y-57401500D01*
X79500000Y-72641500D02*
X89500000Y-72641500D01*
X89500000Y-72641500D02*
X89500000Y-57401500D01*
X166000000Y-75840000D02*
X163140000Y-75840000D01*
X163140000Y-75840000D02*
X163140000Y-77760000D01*
X163140000Y-77760000D02*
X166000000Y-77760000D01*
X161830000Y-47000000D02*
X151670000Y-47000000D01*
X151670000Y-48000000D02*
X161830000Y-48000000D01*
X151670000Y-47000000D02*
X151670000Y-57000000D01*
X151670000Y-57000000D02*
X161830000Y-57000000D01*
X161830000Y-57000000D02*
X161830000Y-47000000D01*
X89500000Y-73920000D02*
X79500000Y-73920000D01*
X79500000Y-73920000D02*
X79500000Y-84080000D01*
X79500000Y-84080000D02*
X89500000Y-84080000D01*
X80500000Y-84080000D02*
X80500000Y-73920000D01*
X89500000Y-84080000D02*
X89500000Y-73920000D01*
X111920000Y-47000000D02*
X111920000Y-57000000D01*
X111920000Y-57000000D02*
X122080000Y-57000000D01*
X122080000Y-47000000D02*
X111920000Y-47000000D01*
X122080000Y-57000000D02*
X122080000Y-47000000D01*
X111920000Y-48000000D02*
X122080000Y-48000000D01*
X121360000Y-65000000D02*
G75*
G03*
X121360000Y-65000000I-4360000J0D01*
G01*
X161830000Y-83250000D02*
X161830000Y-73250000D01*
X151670000Y-73250000D02*
X151670000Y-83250000D01*
X161830000Y-73250000D02*
X151670000Y-73250000D01*
X151670000Y-83250000D02*
X161830000Y-83250000D01*
X161830000Y-82250000D02*
X151670000Y-82250000D01*
X164676263Y-74355000D02*
X166123737Y-74355000D01*
X164676263Y-71645000D02*
X166123737Y-71645000D01*
X97620000Y-83620000D02*
X92380000Y-83620000D01*
X97620000Y-70380000D02*
X97620000Y-83620000D01*
X92380000Y-70380000D02*
X92380000Y-83620000D01*
X97620000Y-70380000D02*
X92380000Y-70380000D01*
X163140000Y-54360000D02*
X166000000Y-54360000D01*
X166000000Y-52440000D02*
X163140000Y-52440000D01*
X163140000Y-52440000D02*
X163140000Y-54360000D01*
D10*
X97600000Y-46250000D02*
X97600000Y-67750000D01*
X97600000Y-46250000D02*
X92000000Y-46250000D01*
X92000000Y-46250000D02*
X92000000Y-67750000D01*
X97600000Y-67750000D02*
X92000000Y-67750000D01*
D11*
X164676263Y-56045000D02*
X166123737Y-56045000D01*
X164676263Y-58755000D02*
X166123737Y-58755000D01*
X164676263Y-60045000D02*
X166123737Y-60045000D01*
X164676263Y-62755000D02*
X166123737Y-62755000D01*
X167530000Y-69605000D02*
X166200000Y-69605000D01*
X167530000Y-64405000D02*
X164870000Y-64405000D01*
X167530000Y-68275000D02*
X167530000Y-69605000D01*
X167530000Y-67005000D02*
X167530000Y-64405000D01*
X164870000Y-67005000D02*
X164870000Y-64405000D01*
X167530000Y-67005000D02*
X164870000Y-67005000D01*
X122080000Y-83000000D02*
X122080000Y-73000000D01*
X122080000Y-82000000D02*
X111920000Y-82000000D01*
X122080000Y-73000000D02*
X111920000Y-73000000D01*
X111920000Y-73000000D02*
X111920000Y-83000000D01*
X111920000Y-83000000D02*
X122080000Y-83000000D01*
X110120000Y-47000000D02*
X99960000Y-47000000D01*
X99960000Y-47000000D02*
X99960000Y-57000000D01*
X110120000Y-57000000D02*
X110120000Y-47000000D01*
X99960000Y-48000000D02*
X110120000Y-48000000D01*
X99960000Y-57000000D02*
X110120000Y-57000000D01*
G36*
X143414868Y-47834350D02*
G01*
X143541958Y-47835397D01*
X143640039Y-47838219D01*
X143718429Y-47843732D01*
X143786451Y-47852853D01*
X143853423Y-47866499D01*
X143924574Y-47884492D01*
X144135657Y-47955303D01*
X144318758Y-48046862D01*
X144472391Y-48157792D01*
X144595070Y-48286717D01*
X144685306Y-48432261D01*
X144741615Y-48593047D01*
X144752844Y-48651434D01*
X144763930Y-48723321D01*
X143985029Y-48723321D01*
X143962250Y-48668328D01*
X143914069Y-48593028D01*
X143837301Y-48521230D01*
X143741378Y-48461412D01*
X143721585Y-48452019D01*
X143624712Y-48421503D01*
X143504885Y-48403182D01*
X143375632Y-48397450D01*
X143250478Y-48404704D01*
X143142949Y-48425339D01*
X143115848Y-48434310D01*
X142994646Y-48497760D01*
X142902779Y-48584401D01*
X142842149Y-48691335D01*
X142814655Y-48815662D01*
X142814576Y-48893704D01*
X142839785Y-49021225D01*
X142895929Y-49126305D01*
X142984001Y-49210445D01*
X143050012Y-49250197D01*
X143100419Y-49274819D01*
X143143638Y-49291239D01*
X143189522Y-49301111D01*
X143247922Y-49306089D01*
X143328689Y-49307826D01*
X143394430Y-49308000D01*
X143498106Y-49307078D01*
X143573137Y-49303441D01*
X143629193Y-49295786D01*
X143675945Y-49282809D01*
X143721585Y-49263886D01*
X143820348Y-49206485D01*
X143901481Y-49136040D01*
X143955703Y-49060927D01*
X143962250Y-49046691D01*
X143985029Y-48991698D01*
X144761106Y-48991698D01*
X144742829Y-49092340D01*
X144694889Y-49251120D01*
X144612227Y-49398075D01*
X144497303Y-49530719D01*
X144352581Y-49646567D01*
X144180522Y-49743133D01*
X144043165Y-49798611D01*
X143899737Y-49837710D01*
X143730697Y-49866504D01*
X143547596Y-49884108D01*
X143361986Y-49889640D01*
X143185418Y-49882216D01*
X143090582Y-49871463D01*
X142862300Y-49823701D01*
X142658833Y-49751229D01*
X142481814Y-49655189D01*
X142332873Y-49536729D01*
X142213645Y-49396991D01*
X142125760Y-49237123D01*
X142103569Y-49179138D01*
X142061961Y-49004942D01*
X142051175Y-48821402D01*
X142062783Y-48694566D01*
X142109919Y-48515393D01*
X142190557Y-48353253D01*
X142303159Y-48209620D01*
X142446185Y-48085970D01*
X142618097Y-47983776D01*
X142817356Y-47904514D01*
X142916453Y-47876491D01*
X142989489Y-47859652D01*
X143058232Y-47847800D01*
X143131918Y-47840152D01*
X143219783Y-47835929D01*
X143331062Y-47834348D01*
X143414868Y-47834350D01*
G37*
G36*
X134007283Y-47845855D02*
G01*
X134218830Y-47847389D01*
X134395642Y-47848889D01*
X134541325Y-47850521D01*
X134659484Y-47852455D01*
X134753723Y-47854859D01*
X134827647Y-47857900D01*
X134884862Y-47861746D01*
X134928972Y-47866567D01*
X134963582Y-47872529D01*
X134992298Y-47879801D01*
X135018723Y-47888550D01*
X135032544Y-47893660D01*
X135186897Y-47967421D01*
X135308424Y-48060546D01*
X135397803Y-48174092D01*
X135455714Y-48309112D01*
X135482834Y-48466660D01*
X135483702Y-48594141D01*
X135469485Y-48732800D01*
X135440119Y-48844492D01*
X135391839Y-48938861D01*
X135320883Y-49025552D01*
X135311644Y-49034920D01*
X135226000Y-49108123D01*
X135130292Y-49163021D01*
X135012880Y-49205695D01*
X134955121Y-49221231D01*
X134892698Y-49238377D01*
X134847728Y-49253784D01*
X134830517Y-49263599D01*
X134843442Y-49278919D01*
X134881738Y-49315385D01*
X134941449Y-49369450D01*
X135018616Y-49437569D01*
X135109283Y-49516194D01*
X135177625Y-49574699D01*
X135528458Y-49873510D01*
X135072191Y-49873364D01*
X134615925Y-49873219D01*
X134286917Y-49557062D01*
X134180088Y-49455009D01*
X134096646Y-49376999D01*
X134032847Y-49319984D01*
X133984949Y-49280916D01*
X133949209Y-49256746D01*
X133921884Y-49244426D01*
X133899231Y-49240907D01*
X133898728Y-49240906D01*
X133839548Y-49240906D01*
X133839548Y-49873510D01*
X133091925Y-49873510D01*
X133091925Y-48819170D01*
X133839548Y-48819170D01*
X134191328Y-48819170D01*
X134314986Y-48818035D01*
X134425021Y-48814854D01*
X134514775Y-48809959D01*
X134577591Y-48803684D01*
X134602215Y-48798566D01*
X134669186Y-48757158D01*
X134708848Y-48689025D01*
X134721359Y-48598131D01*
X134718214Y-48532753D01*
X134706034Y-48481641D01*
X134680700Y-48443076D01*
X134638095Y-48415339D01*
X134574102Y-48396710D01*
X134484601Y-48385469D01*
X134365474Y-48379897D01*
X134212605Y-48378276D01*
X134194805Y-48378264D01*
X133839548Y-48378264D01*
X133839548Y-48819170D01*
X133091925Y-48819170D01*
X133091925Y-47839459D01*
X134007283Y-47845855D01*
G37*
G36*
X132919397Y-48397434D02*
G01*
X132210114Y-48397434D01*
X132210114Y-49873510D01*
X131462491Y-49873510D01*
X131462491Y-48397434D01*
X130753208Y-48397434D01*
X130753208Y-47841510D01*
X132919397Y-47841510D01*
X132919397Y-48397434D01*
G37*
G36*
X141890868Y-49873510D02*
G01*
X141143246Y-49873510D01*
X141143246Y-47841510D01*
X141890868Y-47841510D01*
X141890868Y-49873510D01*
G37*
G36*
X146341976Y-47845210D02*
G01*
X146545424Y-47884037D01*
X146726688Y-47941909D01*
X146883354Y-48017697D01*
X147013007Y-48110272D01*
X147113234Y-48218505D01*
X147181618Y-48341266D01*
X147212433Y-48453185D01*
X147224976Y-48531623D01*
X146469978Y-48531623D01*
X146423362Y-48476223D01*
X146352553Y-48417224D01*
X146252994Y-48375811D01*
X146122088Y-48351071D01*
X146050717Y-48345042D01*
X145908439Y-48344435D01*
X145795872Y-48361808D01*
X145708399Y-48398069D01*
X145679409Y-48418060D01*
X145637379Y-48470095D01*
X145628982Y-48527279D01*
X145654141Y-48580156D01*
X145680854Y-48603068D01*
X145701136Y-48613672D01*
X145729150Y-48622175D01*
X145769604Y-48628967D01*
X145827205Y-48634441D01*
X145906661Y-48638986D01*
X146012680Y-48642995D01*
X146149970Y-48646858D01*
X146231986Y-48648862D01*
X146388939Y-48652890D01*
X146513119Y-48657000D01*
X146610092Y-48661658D01*
X146685422Y-48667328D01*
X146744675Y-48674477D01*
X146793415Y-48683570D01*
X146837207Y-48695073D01*
X146856651Y-48701117D01*
X146991208Y-48761895D01*
X147096945Y-48847903D01*
X147173502Y-48958679D01*
X147220519Y-49093765D01*
X147234175Y-49183767D01*
X147229925Y-49328827D01*
X147190593Y-49460376D01*
X147117477Y-49577003D01*
X147011874Y-49677299D01*
X146875083Y-49759853D01*
X146708400Y-49823256D01*
X146625812Y-49844748D01*
X146537075Y-49859593D01*
X146420037Y-49871414D01*
X146284644Y-49879898D01*
X146140837Y-49884732D01*
X145998561Y-49885602D01*
X145867759Y-49882195D01*
X145758376Y-49874198D01*
X145744000Y-49872531D01*
X145555696Y-49838397D01*
X145379678Y-49785341D01*
X145223038Y-49716236D01*
X145092869Y-49633958D01*
X145037051Y-49586005D01*
X144970026Y-49506127D01*
X144912731Y-49410636D01*
X144872745Y-49313802D01*
X144858843Y-49250491D01*
X144852604Y-49192981D01*
X145224314Y-49187766D01*
X145352664Y-49186153D01*
X145448086Y-49185734D01*
X145515986Y-49186968D01*
X145561770Y-49190311D01*
X145590843Y-49196223D01*
X145608610Y-49205160D01*
X145620476Y-49217581D01*
X145623354Y-49221569D01*
X145679436Y-49272814D01*
X145765965Y-49315545D01*
X145875614Y-49347794D01*
X146001053Y-49367589D01*
X146134953Y-49372960D01*
X146179992Y-49371217D01*
X146304714Y-49355333D01*
X146395143Y-49324692D01*
X146450871Y-49279588D01*
X146471488Y-49220319D01*
X146463301Y-49165590D01*
X146452868Y-49141076D01*
X146436033Y-49121512D01*
X146408570Y-49106191D01*
X146366251Y-49094401D01*
X146304850Y-49085434D01*
X146220141Y-49078580D01*
X146107895Y-49073130D01*
X145963888Y-49068374D01*
X145868604Y-49065771D01*
X145679275Y-49059761D01*
X145523657Y-49051955D01*
X145397131Y-49041374D01*
X145295077Y-49027039D01*
X145212877Y-49007972D01*
X145145911Y-48983193D01*
X145089560Y-48951724D01*
X145039203Y-48912586D01*
X145008430Y-48883503D01*
X144939218Y-48800267D01*
X144896320Y-48710759D01*
X144875614Y-48604051D01*
X144872106Y-48522038D01*
X144874252Y-48434520D01*
X144883342Y-48368982D01*
X144902674Y-48309239D01*
X144925796Y-48258667D01*
X145005015Y-48140577D01*
X145117351Y-48040527D01*
X145261869Y-47958938D01*
X145437634Y-47896232D01*
X145643711Y-47852831D01*
X145878189Y-47829209D01*
X146118760Y-47826558D01*
X146341976Y-47845210D01*
G37*
G36*
X130619019Y-48397434D02*
G01*
X129315472Y-48397434D01*
X129315472Y-48627472D01*
X130619019Y-48627472D01*
X130619019Y-49106717D01*
X129315472Y-49106717D01*
X129315472Y-49317585D01*
X130619019Y-49317585D01*
X130619019Y-49873510D01*
X128567849Y-49873510D01*
X128567849Y-47841510D01*
X130619019Y-47841510D01*
X130619019Y-48397434D01*
G37*
G36*
X137094809Y-47489991D02*
G01*
X137178576Y-47493382D01*
X137245372Y-47500650D01*
X137305871Y-47513119D01*
X137370749Y-47532111D01*
X137395548Y-47540238D01*
X137574201Y-47612141D01*
X137733301Y-47704499D01*
X137883974Y-47824287D01*
X137952181Y-47889187D01*
X138032754Y-47973341D01*
X138093312Y-48047759D01*
X138143982Y-48126402D01*
X138194891Y-48223228D01*
X138195716Y-48224906D01*
X138280790Y-48439293D01*
X138329500Y-48659378D01*
X138341957Y-48881310D01*
X138318272Y-49101240D01*
X138258557Y-49315320D01*
X138162923Y-49519700D01*
X138158038Y-49528159D01*
X138052841Y-49677574D01*
X137918778Y-49819476D01*
X137765322Y-49945756D01*
X137601942Y-50048310D01*
X137489247Y-50100656D01*
X137364351Y-50141074D01*
X137224890Y-50171786D01*
X137082680Y-50191258D01*
X136949536Y-50197959D01*
X136837274Y-50190355D01*
X136820453Y-50187399D01*
X136780388Y-50179555D01*
X136719157Y-50167614D01*
X136676680Y-50159347D01*
X136584375Y-50133041D01*
X136473470Y-50088701D01*
X136355489Y-50032008D01*
X136241954Y-49968646D01*
X136144389Y-49904298D01*
X136117096Y-49883361D01*
X135985156Y-49756345D01*
X135865230Y-49599564D01*
X135763448Y-49421138D01*
X135755177Y-49403849D01*
X135675486Y-49191734D01*
X135632759Y-48975676D01*
X135626353Y-48759206D01*
X135655627Y-48545849D01*
X135719939Y-48339136D01*
X135818647Y-48142594D01*
X135951109Y-47959751D01*
X136034115Y-47870264D01*
X136197891Y-47729504D01*
X136375766Y-47620744D01*
X136571246Y-47540238D01*
X136640016Y-47518742D01*
X136700801Y-47504216D01*
X136764275Y-47495339D01*
X136841112Y-47490785D01*
X136941986Y-47489234D01*
X136983397Y-47489155D01*
X137094809Y-47489991D01*
G37*
G36*
X126876114Y-47845855D02*
G01*
X127087660Y-47847389D01*
X127264472Y-47848889D01*
X127410155Y-47850521D01*
X127528314Y-47852455D01*
X127622553Y-47854859D01*
X127696477Y-47857900D01*
X127753692Y-47861746D01*
X127797802Y-47866567D01*
X127832413Y-47872529D01*
X127861128Y-47879801D01*
X127887553Y-47888550D01*
X127901374Y-47893660D01*
X128055727Y-47967421D01*
X128177254Y-48060546D01*
X128266633Y-48174092D01*
X128324544Y-48309112D01*
X128351664Y-48466660D01*
X128352532Y-48594141D01*
X128338315Y-48732800D01*
X128308949Y-48844492D01*
X128260670Y-48938861D01*
X128189713Y-49025552D01*
X128180475Y-49034920D01*
X128094830Y-49108123D01*
X127999122Y-49163021D01*
X127881710Y-49205695D01*
X127823951Y-49221231D01*
X127761528Y-49238377D01*
X127716558Y-49253784D01*
X127699347Y-49263599D01*
X127712272Y-49278919D01*
X127750568Y-49315385D01*
X127810279Y-49369450D01*
X127887446Y-49437569D01*
X127978113Y-49516194D01*
X128046456Y-49574699D01*
X128397288Y-49873510D01*
X127941022Y-49873364D01*
X127484755Y-49873219D01*
X127155747Y-49557062D01*
X127048918Y-49455009D01*
X126965476Y-49376999D01*
X126901677Y-49319984D01*
X126853779Y-49280916D01*
X126818039Y-49256746D01*
X126790714Y-49244426D01*
X126768061Y-49240907D01*
X126767558Y-49240906D01*
X126708378Y-49240906D01*
X126708378Y-49873510D01*
X125960755Y-49873510D01*
X125960755Y-48819170D01*
X126708378Y-48819170D01*
X127060159Y-48819170D01*
X127183816Y-48818035D01*
X127293851Y-48814854D01*
X127383605Y-48809959D01*
X127446421Y-48803684D01*
X127471045Y-48798566D01*
X127538017Y-48757158D01*
X127577679Y-48689025D01*
X127590189Y-48598131D01*
X127587044Y-48532753D01*
X127574864Y-48481641D01*
X127549530Y-48443076D01*
X127506926Y-48415339D01*
X127442932Y-48396710D01*
X127353431Y-48385469D01*
X127234305Y-48379897D01*
X127081435Y-48378276D01*
X127063635Y-48378264D01*
X126708378Y-48378264D01*
X126708378Y-48819170D01*
X125960755Y-48819170D01*
X125960755Y-47839459D01*
X126876114Y-47845855D01*
G37*
G36*
X139725475Y-48368098D02*
G01*
X139810928Y-48494244D01*
X139890385Y-48609585D01*
X139961170Y-48710387D01*
X140020607Y-48792917D01*
X140066020Y-48853441D01*
X140094732Y-48888223D01*
X140103283Y-48895268D01*
X140110700Y-48887132D01*
X140116529Y-48860076D01*
X140120924Y-48810726D01*
X140124037Y-48735708D01*
X140126023Y-48631650D01*
X140127034Y-48495177D01*
X140127246Y-48368680D01*
X140127246Y-47841510D01*
X140855699Y-47841510D01*
X140855699Y-49873510D01*
X140429170Y-49873504D01*
X140002642Y-49873499D01*
X139638942Y-49365504D01*
X139550817Y-49243031D01*
X139469486Y-49131179D01*
X139397686Y-49033621D01*
X139338155Y-48954028D01*
X139293629Y-48896073D01*
X139266845Y-48863428D01*
X139260338Y-48857510D01*
X139256376Y-48875848D01*
X139252810Y-48927540D01*
X139249787Y-49007600D01*
X139247452Y-49111043D01*
X139245953Y-49232882D01*
X139245434Y-49365510D01*
X139245434Y-49873510D01*
X138497812Y-49873510D01*
X138497812Y-47841510D01*
X139371630Y-47841510D01*
X139725475Y-48368098D01*
G37*
%LPC*%
D12*
X124650000Y-65000000D03*
X148350000Y-65000000D03*
D13*
X126175000Y-80600000D03*
X130625000Y-80600000D03*
X141975000Y-80600000D03*
X146425000Y-80600000D03*
D14*
X153132323Y-65000000D03*
D15*
X160632323Y-65000000D03*
D16*
X73500000Y-57500000D03*
D15*
X81960000Y-51500000D03*
X87040000Y-51500000D03*
D17*
X107580000Y-78000000D03*
D18*
X102500000Y-78000000D03*
D15*
X107580000Y-65000000D03*
X102500000Y-65000000D03*
D18*
X84500000Y-59941500D03*
D17*
X84500000Y-65021500D03*
X84500000Y-70101500D03*
D19*
X163975000Y-76800000D03*
X166025000Y-76800000D03*
D18*
X159290000Y-52000000D03*
D17*
X154210000Y-52000000D03*
D18*
X84500000Y-76460000D03*
D17*
X84500000Y-81540000D03*
X114460000Y-52000000D03*
D18*
X119540000Y-52000000D03*
D15*
X114460000Y-65000000D03*
X119540000Y-65000000D03*
D20*
X73500000Y-50900000D03*
D21*
X73500000Y-48500000D03*
D20*
X71802944Y-50197056D03*
X73500000Y-46100000D03*
X75197056Y-50197056D03*
X75197056Y-46802944D03*
X75900000Y-48500000D03*
X71802944Y-46802944D03*
X71100000Y-48500000D03*
D17*
X159290000Y-78250000D03*
D18*
X154210000Y-78250000D03*
D22*
X163850000Y-73000000D03*
X166950000Y-73000000D03*
D16*
X73500000Y-81500000D03*
D15*
X95000000Y-72000000D03*
X95000000Y-82000000D03*
D16*
X166600000Y-81500000D03*
D19*
X163975000Y-53400000D03*
X166025000Y-53400000D03*
D15*
X96000000Y-52000000D03*
X93600000Y-62000000D03*
D22*
X163850000Y-57400000D03*
X166950000Y-57400000D03*
D16*
X166600000Y-48500000D03*
X73500000Y-72500000D03*
D22*
X163850000Y-61400000D03*
X166950000Y-61400000D03*
D23*
X166200000Y-65735000D03*
D24*
X166200000Y-68275000D03*
D18*
X114460000Y-78000000D03*
D17*
X119540000Y-78000000D03*
D18*
X107580000Y-52000000D03*
D17*
X102500000Y-52000000D03*
M02*
