G04 #@! TF.GenerationSoftware,KiCad,Pcbnew,(6.0.8)*
G04 #@! TF.CreationDate,2022-10-31T16:03:17+01:00*
G04 #@! TF.ProjectId,PowerInput,506f7765-7249-46e7-9075-742e6b696361,rev?*
G04 #@! TF.SameCoordinates,Original*
G04 #@! TF.FileFunction,Legend,Bot*
G04 #@! TF.FilePolarity,Positive*
%FSLAX46Y46*%
G04 Gerber Fmt 4.6, Leading zero omitted, Abs format (unit mm)*
G04 Created by KiCad (PCBNEW (6.0.8)) date 2022-10-31 16:03:17*
%MOMM*%
%LPD*%
G01*
G04 APERTURE LIST*
%ADD10C,0.150000*%
%ADD11C,4.200000*%
%ADD12R,2.000000X2.000000*%
%ADD13C,2.000000*%
%ADD14C,3.200000*%
%ADD15C,3.000000*%
%ADD16R,3.000000X3.000000*%
%ADD17C,0.800000*%
%ADD18C,6.400000*%
%ADD19O,1.700000X1.700000*%
%ADD20R,1.700000X1.700000*%
G04 APERTURE END LIST*
D10*
X144052380Y-63375714D02*
X144052380Y-64375714D01*
X143576190Y-63899523D02*
X143528571Y-63994761D01*
X143433333Y-64042380D01*
X144052380Y-63899523D02*
X144004761Y-63994761D01*
X143909523Y-64042380D01*
X143719047Y-64042380D01*
X143623809Y-63994761D01*
X143576190Y-63899523D01*
X143576190Y-63375714D01*
X143147619Y-63042380D02*
X142576190Y-63042380D01*
X142861904Y-64042380D02*
X142861904Y-63042380D01*
X142242857Y-64042380D02*
X142242857Y-63375714D01*
X142242857Y-63566190D02*
X142195238Y-63470952D01*
X142147619Y-63423333D01*
X142052380Y-63375714D01*
X141957142Y-63375714D01*
X141195238Y-64042380D02*
X141195238Y-63518571D01*
X141242857Y-63423333D01*
X141338095Y-63375714D01*
X141528571Y-63375714D01*
X141623809Y-63423333D01*
X141195238Y-63994761D02*
X141290476Y-64042380D01*
X141528571Y-64042380D01*
X141623809Y-63994761D01*
X141671428Y-63899523D01*
X141671428Y-63804285D01*
X141623809Y-63709047D01*
X141528571Y-63661428D01*
X141290476Y-63661428D01*
X141195238Y-63613809D01*
X140290476Y-63994761D02*
X140385714Y-64042380D01*
X140576190Y-64042380D01*
X140671428Y-63994761D01*
X140719047Y-63947142D01*
X140766666Y-63851904D01*
X140766666Y-63566190D01*
X140719047Y-63470952D01*
X140671428Y-63423333D01*
X140576190Y-63375714D01*
X140385714Y-63375714D01*
X140290476Y-63423333D01*
X139480952Y-63994761D02*
X139576190Y-64042380D01*
X139766666Y-64042380D01*
X139861904Y-63994761D01*
X139909523Y-63899523D01*
X139909523Y-63518571D01*
X139861904Y-63423333D01*
X139766666Y-63375714D01*
X139576190Y-63375714D01*
X139480952Y-63423333D01*
X139433333Y-63518571D01*
X139433333Y-63613809D01*
X139909523Y-63709047D01*
X139004761Y-64042380D02*
X139004761Y-63375714D01*
X139004761Y-63566190D02*
X138957142Y-63470952D01*
X138909523Y-63423333D01*
X138814285Y-63375714D01*
X138719047Y-63375714D01*
X137623809Y-64042380D02*
X137623809Y-63042380D01*
X137242857Y-63042380D01*
X137147619Y-63090000D01*
X137100000Y-63137619D01*
X137052380Y-63232857D01*
X137052380Y-63375714D01*
X137100000Y-63470952D01*
X137147619Y-63518571D01*
X137242857Y-63566190D01*
X137623809Y-63566190D01*
X136480952Y-64042380D02*
X136576190Y-63994761D01*
X136623809Y-63947142D01*
X136671428Y-63851904D01*
X136671428Y-63566190D01*
X136623809Y-63470952D01*
X136576190Y-63423333D01*
X136480952Y-63375714D01*
X136338095Y-63375714D01*
X136242857Y-63423333D01*
X136195238Y-63470952D01*
X136147619Y-63566190D01*
X136147619Y-63851904D01*
X136195238Y-63947142D01*
X136242857Y-63994761D01*
X136338095Y-64042380D01*
X136480952Y-64042380D01*
X135814285Y-63375714D02*
X135623809Y-64042380D01*
X135433333Y-63566190D01*
X135242857Y-64042380D01*
X135052380Y-63375714D01*
X134290476Y-63994761D02*
X134385714Y-64042380D01*
X134576190Y-64042380D01*
X134671428Y-63994761D01*
X134719047Y-63899523D01*
X134719047Y-63518571D01*
X134671428Y-63423333D01*
X134576190Y-63375714D01*
X134385714Y-63375714D01*
X134290476Y-63423333D01*
X134242857Y-63518571D01*
X134242857Y-63613809D01*
X134719047Y-63709047D01*
X133814285Y-64042380D02*
X133814285Y-63375714D01*
X133814285Y-63566190D02*
X133766666Y-63470952D01*
X133719047Y-63423333D01*
X133623809Y-63375714D01*
X133528571Y-63375714D01*
X132433333Y-64042380D02*
X132433333Y-63042380D01*
X131957142Y-63375714D02*
X131957142Y-64042380D01*
X131957142Y-63470952D02*
X131909523Y-63423333D01*
X131814285Y-63375714D01*
X131671428Y-63375714D01*
X131576190Y-63423333D01*
X131528571Y-63518571D01*
X131528571Y-64042380D01*
X131052380Y-63375714D02*
X131052380Y-64375714D01*
X131052380Y-63423333D02*
X130957142Y-63375714D01*
X130766666Y-63375714D01*
X130671428Y-63423333D01*
X130623809Y-63470952D01*
X130576190Y-63566190D01*
X130576190Y-63851904D01*
X130623809Y-63947142D01*
X130671428Y-63994761D01*
X130766666Y-64042380D01*
X130957142Y-64042380D01*
X131052380Y-63994761D01*
X129719047Y-63375714D02*
X129719047Y-64042380D01*
X130147619Y-63375714D02*
X130147619Y-63899523D01*
X130100000Y-63994761D01*
X130004761Y-64042380D01*
X129861904Y-64042380D01*
X129766666Y-63994761D01*
X129719047Y-63947142D01*
X129385714Y-63375714D02*
X129004761Y-63375714D01*
X129242857Y-63042380D02*
X129242857Y-63899523D01*
X129195238Y-63994761D01*
X129100000Y-64042380D01*
X129004761Y-64042380D01*
X141480952Y-64747619D02*
X141433333Y-64700000D01*
X141338095Y-64652380D01*
X141100000Y-64652380D01*
X141004761Y-64700000D01*
X140957142Y-64747619D01*
X140909523Y-64842857D01*
X140909523Y-64938095D01*
X140957142Y-65080952D01*
X141528571Y-65652380D01*
X140909523Y-65652380D01*
X140528571Y-64747619D02*
X140480952Y-64700000D01*
X140385714Y-64652380D01*
X140147619Y-64652380D01*
X140052380Y-64700000D01*
X140004761Y-64747619D01*
X139957142Y-64842857D01*
X139957142Y-64938095D01*
X140004761Y-65080952D01*
X140576190Y-65652380D01*
X139957142Y-65652380D01*
X139766666Y-65747619D02*
X139004761Y-65747619D01*
X138338095Y-64985714D02*
X138338095Y-65652380D01*
X138576190Y-64604761D02*
X138814285Y-65319047D01*
X138195238Y-65319047D01*
X137909523Y-64652380D02*
X137290476Y-64652380D01*
X137623809Y-65033333D01*
X137480952Y-65033333D01*
X137385714Y-65080952D01*
X137338095Y-65128571D01*
X137290476Y-65223809D01*
X137290476Y-65461904D01*
X137338095Y-65557142D01*
X137385714Y-65604761D01*
X137480952Y-65652380D01*
X137766666Y-65652380D01*
X137861904Y-65604761D01*
X137909523Y-65557142D01*
X137100000Y-65747619D02*
X136338095Y-65747619D01*
X135909523Y-64652380D02*
X135814285Y-64652380D01*
X135719047Y-64700000D01*
X135671428Y-64747619D01*
X135623809Y-64842857D01*
X135576190Y-65033333D01*
X135576190Y-65271428D01*
X135623809Y-65461904D01*
X135671428Y-65557142D01*
X135719047Y-65604761D01*
X135814285Y-65652380D01*
X135909523Y-65652380D01*
X136004761Y-65604761D01*
X136052380Y-65557142D01*
X136100000Y-65461904D01*
X136147619Y-65271428D01*
X136147619Y-65033333D01*
X136100000Y-64842857D01*
X136052380Y-64747619D01*
X136004761Y-64700000D01*
X135909523Y-64652380D01*
X134623809Y-65652380D02*
X135195238Y-65652380D01*
X134909523Y-65652380D02*
X134909523Y-64652380D01*
X135004761Y-64795238D01*
X135100000Y-64890476D01*
X135195238Y-64938095D01*
X134242857Y-64747619D02*
X134195238Y-64700000D01*
X134100000Y-64652380D01*
X133861904Y-64652380D01*
X133766666Y-64700000D01*
X133719047Y-64747619D01*
X133671428Y-64842857D01*
X133671428Y-64938095D01*
X133719047Y-65080952D01*
X134290476Y-65652380D01*
X133671428Y-65652380D01*
X132719047Y-65652380D02*
X133290476Y-65652380D01*
X133004761Y-65652380D02*
X133004761Y-64652380D01*
X133100000Y-64795238D01*
X133195238Y-64890476D01*
X133290476Y-64938095D01*
X131957142Y-65128571D02*
X131814285Y-65176190D01*
X131766666Y-65223809D01*
X131719047Y-65319047D01*
X131719047Y-65461904D01*
X131766666Y-65557142D01*
X131814285Y-65604761D01*
X131909523Y-65652380D01*
X132290476Y-65652380D01*
X132290476Y-64652380D01*
X131957142Y-64652380D01*
X131861904Y-64700000D01*
X131814285Y-64747619D01*
X131766666Y-64842857D01*
X131766666Y-64938095D01*
X131814285Y-65033333D01*
X131861904Y-65080952D01*
X131957142Y-65128571D01*
X132290476Y-65128571D01*
X142052380Y-66738571D02*
X141909523Y-66786190D01*
X141861904Y-66833809D01*
X141814285Y-66929047D01*
X141814285Y-67071904D01*
X141861904Y-67167142D01*
X141909523Y-67214761D01*
X142004761Y-67262380D01*
X142385714Y-67262380D01*
X142385714Y-66262380D01*
X142052380Y-66262380D01*
X141957142Y-66310000D01*
X141909523Y-66357619D01*
X141861904Y-66452857D01*
X141861904Y-66548095D01*
X141909523Y-66643333D01*
X141957142Y-66690952D01*
X142052380Y-66738571D01*
X142385714Y-66738571D01*
X141385714Y-66595714D02*
X141385714Y-67452857D01*
X141433333Y-67548095D01*
X141528571Y-67595714D01*
X141576190Y-67595714D01*
X141385714Y-66262380D02*
X141433333Y-66310000D01*
X141385714Y-66357619D01*
X141338095Y-66310000D01*
X141385714Y-66262380D01*
X141385714Y-66357619D01*
X140385714Y-66595714D02*
X141004761Y-67262380D01*
X140766666Y-67262380D02*
X140861904Y-67214761D01*
X140909523Y-67167142D01*
X140957142Y-67071904D01*
X140957142Y-66786190D01*
X140909523Y-66690952D01*
X140861904Y-66643333D01*
X140766666Y-66595714D01*
X140623809Y-66595714D01*
X140528571Y-66643333D01*
X140480952Y-66690952D01*
X140433333Y-66786190D01*
X140433333Y-67071904D01*
X140480952Y-67167142D01*
X140528571Y-67214761D01*
X140623809Y-67262380D01*
X140766666Y-67262380D01*
X140004761Y-67262380D02*
X140004761Y-66595714D01*
X140004761Y-66786190D02*
X139957142Y-66690952D01*
X139909523Y-66643333D01*
X139814285Y-66595714D01*
X139719047Y-66595714D01*
X139385714Y-66595714D02*
X139385714Y-67262380D01*
X139385714Y-66690952D02*
X139338095Y-66643333D01*
X139242857Y-66595714D01*
X139100000Y-66595714D01*
X139004761Y-66643333D01*
X138957142Y-66738571D01*
X138957142Y-67262380D01*
X138100000Y-67214761D02*
X138195238Y-67262380D01*
X138385714Y-67262380D01*
X138480952Y-67214761D01*
X138528571Y-67119523D01*
X138528571Y-66738571D01*
X138480952Y-66643333D01*
X138385714Y-66595714D01*
X138195238Y-66595714D01*
X138100000Y-66643333D01*
X138052380Y-66738571D01*
X138052380Y-66833809D01*
X138528571Y-66929047D01*
X137623809Y-67262380D02*
X137623809Y-66595714D01*
X137623809Y-66786190D02*
X137576190Y-66690952D01*
X137528571Y-66643333D01*
X137433333Y-66595714D01*
X137338095Y-66595714D01*
X136290476Y-67214761D02*
X136147619Y-67262380D01*
X135909523Y-67262380D01*
X135814285Y-67214761D01*
X135766666Y-67167142D01*
X135719047Y-67071904D01*
X135719047Y-66976666D01*
X135766666Y-66881428D01*
X135814285Y-66833809D01*
X135909523Y-66786190D01*
X136100000Y-66738571D01*
X136195238Y-66690952D01*
X136242857Y-66643333D01*
X136290476Y-66548095D01*
X136290476Y-66452857D01*
X136242857Y-66357619D01*
X136195238Y-66310000D01*
X136100000Y-66262380D01*
X135861904Y-66262380D01*
X135719047Y-66310000D01*
X134861904Y-67262380D02*
X134861904Y-66738571D01*
X134909523Y-66643333D01*
X135004761Y-66595714D01*
X135195238Y-66595714D01*
X135290476Y-66643333D01*
X134861904Y-67214761D02*
X134957142Y-67262380D01*
X135195238Y-67262380D01*
X135290476Y-67214761D01*
X135338095Y-67119523D01*
X135338095Y-67024285D01*
X135290476Y-66929047D01*
X135195238Y-66881428D01*
X134957142Y-66881428D01*
X134861904Y-66833809D01*
X134385714Y-66595714D02*
X134385714Y-67262380D01*
X134385714Y-66690952D02*
X134338095Y-66643333D01*
X134242857Y-66595714D01*
X134100000Y-66595714D01*
X134004761Y-66643333D01*
X133957142Y-66738571D01*
X133957142Y-67262380D01*
X133052380Y-67262380D02*
X133052380Y-66262380D01*
X133052380Y-67214761D02*
X133147619Y-67262380D01*
X133338095Y-67262380D01*
X133433333Y-67214761D01*
X133480952Y-67167142D01*
X133528571Y-67071904D01*
X133528571Y-66786190D01*
X133480952Y-66690952D01*
X133433333Y-66643333D01*
X133338095Y-66595714D01*
X133147619Y-66595714D01*
X133052380Y-66643333D01*
X132433333Y-67262380D02*
X132528571Y-67214761D01*
X132576190Y-67167142D01*
X132623809Y-67071904D01*
X132623809Y-66786190D01*
X132576190Y-66690952D01*
X132528571Y-66643333D01*
X132433333Y-66595714D01*
X132290476Y-66595714D01*
X132195238Y-66643333D01*
X132147619Y-66690952D01*
X132100000Y-66786190D01*
X132100000Y-67071904D01*
X132147619Y-67167142D01*
X132195238Y-67214761D01*
X132290476Y-67262380D01*
X132433333Y-67262380D01*
X131671428Y-67262380D02*
X131671428Y-66595714D01*
X131671428Y-66690952D02*
X131623809Y-66643333D01*
X131528571Y-66595714D01*
X131385714Y-66595714D01*
X131290476Y-66643333D01*
X131242857Y-66738571D01*
X131242857Y-67262380D01*
X131242857Y-66738571D02*
X131195238Y-66643333D01*
X131100000Y-66595714D01*
X130957142Y-66595714D01*
X130861904Y-66643333D01*
X130814285Y-66738571D01*
X130814285Y-67262380D01*
X140495238Y-68161904D02*
X140495238Y-68733333D01*
X140533333Y-68847619D01*
X140609523Y-68923809D01*
X140723809Y-68961904D01*
X140800000Y-68961904D01*
X139733333Y-68961904D02*
X140114285Y-68961904D01*
X140114285Y-68161904D01*
X139009523Y-68885714D02*
X139047619Y-68923809D01*
X139161904Y-68961904D01*
X139238095Y-68961904D01*
X139352380Y-68923809D01*
X139428571Y-68847619D01*
X139466666Y-68771428D01*
X139504761Y-68619047D01*
X139504761Y-68504761D01*
X139466666Y-68352380D01*
X139428571Y-68276190D01*
X139352380Y-68200000D01*
X139238095Y-68161904D01*
X139161904Y-68161904D01*
X139047619Y-68200000D01*
X139009523Y-68238095D01*
X138438095Y-68161904D02*
X138438095Y-68733333D01*
X138476190Y-68847619D01*
X138552380Y-68923809D01*
X138666666Y-68961904D01*
X138742857Y-68961904D01*
X137676190Y-68961904D02*
X138057142Y-68961904D01*
X138057142Y-68161904D01*
X136952380Y-68885714D02*
X136990476Y-68923809D01*
X137104761Y-68961904D01*
X137180952Y-68961904D01*
X137295238Y-68923809D01*
X137371428Y-68847619D01*
X137409523Y-68771428D01*
X137447619Y-68619047D01*
X137447619Y-68504761D01*
X137409523Y-68352380D01*
X137371428Y-68276190D01*
X137295238Y-68200000D01*
X137180952Y-68161904D01*
X137104761Y-68161904D01*
X136990476Y-68200000D01*
X136952380Y-68238095D01*
X136380952Y-68161904D02*
X136380952Y-68733333D01*
X136419047Y-68847619D01*
X136495238Y-68923809D01*
X136609523Y-68961904D01*
X136685714Y-68961904D01*
X135619047Y-68961904D02*
X136000000Y-68961904D01*
X136000000Y-68161904D01*
X134895238Y-68885714D02*
X134933333Y-68923809D01*
X135047619Y-68961904D01*
X135123809Y-68961904D01*
X135238095Y-68923809D01*
X135314285Y-68847619D01*
X135352380Y-68771428D01*
X135390476Y-68619047D01*
X135390476Y-68504761D01*
X135352380Y-68352380D01*
X135314285Y-68276190D01*
X135238095Y-68200000D01*
X135123809Y-68161904D01*
X135047619Y-68161904D01*
X134933333Y-68200000D01*
X134895238Y-68238095D01*
X134323809Y-68161904D02*
X134323809Y-68733333D01*
X134361904Y-68847619D01*
X134438095Y-68923809D01*
X134552380Y-68961904D01*
X134628571Y-68961904D01*
X133561904Y-68961904D02*
X133942857Y-68961904D01*
X133942857Y-68161904D01*
X132838095Y-68885714D02*
X132876190Y-68923809D01*
X132990476Y-68961904D01*
X133066666Y-68961904D01*
X133180952Y-68923809D01*
X133257142Y-68847619D01*
X133295238Y-68771428D01*
X133333333Y-68619047D01*
X133333333Y-68504761D01*
X133295238Y-68352380D01*
X133257142Y-68276190D01*
X133180952Y-68200000D01*
X133066666Y-68161904D01*
X132990476Y-68161904D01*
X132876190Y-68200000D01*
X132838095Y-68238095D01*
%LPC*%
D11*
X124650000Y-65000000D03*
X148350000Y-65000000D03*
D12*
X153132323Y-65000000D03*
D13*
X160632323Y-65000000D03*
D14*
X73500000Y-57500000D03*
D13*
X81960000Y-51500000D03*
X87040000Y-51500000D03*
D15*
X107580000Y-78000000D03*
D16*
X102500000Y-78000000D03*
D13*
X107580000Y-65000000D03*
X102500000Y-65000000D03*
D16*
X84500000Y-59941500D03*
D15*
X84500000Y-65021500D03*
X84500000Y-70101500D03*
D16*
X159290000Y-52000000D03*
D15*
X154210000Y-52000000D03*
D16*
X84500000Y-76460000D03*
D15*
X84500000Y-81540000D03*
X114460000Y-52000000D03*
D16*
X119540000Y-52000000D03*
D13*
X114460000Y-65000000D03*
X119540000Y-65000000D03*
D17*
X73500000Y-50900000D03*
D18*
X73500000Y-48500000D03*
D17*
X71802944Y-50197056D03*
X73500000Y-46100000D03*
X75197056Y-50197056D03*
X75197056Y-46802944D03*
X75900000Y-48500000D03*
X71802944Y-46802944D03*
X71100000Y-48500000D03*
D15*
X159290000Y-78250000D03*
D16*
X154210000Y-78250000D03*
D14*
X73500000Y-81500000D03*
D13*
X95000000Y-72000000D03*
X95000000Y-82000000D03*
D14*
X166600000Y-81500000D03*
D13*
X96000000Y-52000000D03*
X93600000Y-62000000D03*
D14*
X166600000Y-48500000D03*
X73500000Y-72500000D03*
D19*
X166200000Y-65735000D03*
D20*
X166200000Y-68275000D03*
D16*
X114460000Y-78000000D03*
D15*
X119540000Y-78000000D03*
D16*
X107580000Y-52000000D03*
D15*
X102500000Y-52000000D03*
M02*
