G04 #@! TF.GenerationSoftware,KiCad,Pcbnew,(6.0.8)*
G04 #@! TF.CreationDate,2022-10-30T15:33:41+01:00*
G04 #@! TF.ProjectId,PowerInput,506f7765-7249-46e7-9075-742e6b696361,rev?*
G04 #@! TF.SameCoordinates,Original*
G04 #@! TF.FileFunction,Copper,L2,Bot*
G04 #@! TF.FilePolarity,Positive*
%FSLAX46Y46*%
G04 Gerber Fmt 4.6, Leading zero omitted, Abs format (unit mm)*
G04 Created by KiCad (PCBNEW (6.0.8)) date 2022-10-30 15:33:41*
%MOMM*%
%LPD*%
G01*
G04 APERTURE LIST*
G04 #@! TA.AperFunction,ComponentPad*
%ADD10R,1.700000X1.700000*%
G04 #@! TD*
G04 #@! TA.AperFunction,ComponentPad*
%ADD11O,1.700000X1.700000*%
G04 #@! TD*
G04 #@! TA.AperFunction,ComponentPad*
%ADD12C,2.000000*%
G04 #@! TD*
G04 #@! TA.AperFunction,ComponentPad*
%ADD13R,3.000000X3.000000*%
G04 #@! TD*
G04 #@! TA.AperFunction,ComponentPad*
%ADD14C,3.000000*%
G04 #@! TD*
G04 #@! TA.AperFunction,ComponentPad*
%ADD15C,0.800000*%
G04 #@! TD*
G04 #@! TA.AperFunction,ComponentPad*
%ADD16C,6.400000*%
G04 #@! TD*
G04 #@! TA.AperFunction,Conductor*
%ADD17C,1.000000*%
G04 #@! TD*
G04 APERTURE END LIST*
D10*
X104750000Y-63750000D03*
D11*
X104750000Y-66290000D03*
D12*
X96000000Y-52000000D03*
X93600000Y-62000000D03*
D13*
X125210000Y-78000000D03*
D14*
X130290000Y-78000000D03*
D13*
X130290000Y-52000000D03*
D14*
X125210000Y-52000000D03*
D13*
X84500000Y-59941500D03*
D14*
X84500000Y-65021500D03*
X84500000Y-70101500D03*
X119540000Y-78000000D03*
D13*
X114460000Y-78000000D03*
X119540000Y-52000000D03*
D14*
X114460000Y-52000000D03*
D13*
X102500000Y-78000000D03*
D14*
X107580000Y-78000000D03*
X102500000Y-52000000D03*
D13*
X107580000Y-52000000D03*
X84500000Y-76460000D03*
D14*
X84500000Y-81540000D03*
D15*
X73500000Y-46100000D03*
X75197056Y-50197056D03*
X75197056Y-46802944D03*
X75900000Y-48500000D03*
D16*
X73500000Y-48500000D03*
D15*
X73500000Y-50900000D03*
X71802944Y-46802944D03*
X71802944Y-50197056D03*
X71100000Y-48500000D03*
D12*
X119540000Y-65000000D03*
X114460000Y-65000000D03*
X130500000Y-65000000D03*
X125420000Y-65000000D03*
X81960000Y-51500000D03*
X87040000Y-51500000D03*
X95000000Y-72000000D03*
X95000000Y-82000000D03*
D17*
X107580000Y-80920000D02*
X107580000Y-78000000D01*
X106500000Y-82000000D02*
X107580000Y-80920000D01*
X95000000Y-82000000D02*
X106500000Y-82000000D01*
X99500000Y-48500000D02*
X96000000Y-52000000D01*
X104080000Y-48500000D02*
X99500000Y-48500000D01*
X107580000Y-52000000D02*
X104080000Y-48500000D01*
X79000000Y-60500000D02*
X79000000Y-54000000D01*
X83521500Y-65021500D02*
X79000000Y-60500000D01*
X79000000Y-54000000D02*
X73500000Y-48500000D01*
X84500000Y-65021500D02*
X83521500Y-65021500D01*
X95500000Y-51500000D02*
X96000000Y-52000000D01*
X87040000Y-51500000D02*
X95500000Y-51500000D01*
X100000000Y-77000000D02*
X95000000Y-72000000D01*
X102500000Y-77000000D02*
X100000000Y-77000000D01*
X97000000Y-53000000D02*
X96000000Y-52000000D01*
X97000000Y-70000000D02*
X97000000Y-53000000D01*
X95000000Y-72000000D02*
X97000000Y-70000000D01*
X93600000Y-62000000D02*
X90540000Y-65060000D01*
X90540000Y-81540000D02*
X94540000Y-81540000D01*
X84500000Y-81540000D02*
X90540000Y-81540000D01*
X90540000Y-65060000D02*
X90540000Y-81540000D01*
X81960000Y-57401500D02*
X84500000Y-59941500D01*
X81960000Y-51000000D02*
X81960000Y-57401500D01*
X84500000Y-76460000D02*
X84500000Y-70101500D01*
X94540000Y-81540000D02*
X95000000Y-82000000D01*
M02*
