G04 #@! TF.GenerationSoftware,KiCad,Pcbnew,(6.0.8)*
G04 #@! TF.CreationDate,2022-10-31T16:03:17+01:00*
G04 #@! TF.ProjectId,PowerInput,506f7765-7249-46e7-9075-742e6b696361,rev?*
G04 #@! TF.SameCoordinates,Original*
G04 #@! TF.FileFunction,Soldermask,Bot*
G04 #@! TF.FilePolarity,Negative*
%FSLAX46Y46*%
G04 Gerber Fmt 4.6, Leading zero omitted, Abs format (unit mm)*
G04 Created by KiCad (PCBNEW (6.0.8)) date 2022-10-31 16:03:17*
%MOMM*%
%LPD*%
G01*
G04 APERTURE LIST*
%ADD10C,4.200000*%
%ADD11R,2.000000X2.000000*%
%ADD12C,2.000000*%
%ADD13C,3.200000*%
%ADD14C,3.000000*%
%ADD15R,3.000000X3.000000*%
%ADD16C,0.800000*%
%ADD17C,6.400000*%
%ADD18O,1.700000X1.700000*%
%ADD19R,1.700000X1.700000*%
G04 APERTURE END LIST*
D10*
X124650000Y-65000000D03*
X148350000Y-65000000D03*
D11*
X153132323Y-65000000D03*
D12*
X160632323Y-65000000D03*
D13*
X73500000Y-57500000D03*
D12*
X81960000Y-51500000D03*
X87040000Y-51500000D03*
D14*
X107580000Y-78000000D03*
D15*
X102500000Y-78000000D03*
D12*
X107580000Y-65000000D03*
X102500000Y-65000000D03*
D15*
X84500000Y-59941500D03*
D14*
X84500000Y-65021500D03*
X84500000Y-70101500D03*
D15*
X159290000Y-52000000D03*
D14*
X154210000Y-52000000D03*
D15*
X84500000Y-76460000D03*
D14*
X84500000Y-81540000D03*
X114460000Y-52000000D03*
D15*
X119540000Y-52000000D03*
D12*
X114460000Y-65000000D03*
X119540000Y-65000000D03*
D16*
X73500000Y-50900000D03*
D17*
X73500000Y-48500000D03*
D16*
X71802944Y-50197056D03*
X73500000Y-46100000D03*
X75197056Y-50197056D03*
X75197056Y-46802944D03*
X75900000Y-48500000D03*
X71802944Y-46802944D03*
X71100000Y-48500000D03*
D14*
X159290000Y-78250000D03*
D15*
X154210000Y-78250000D03*
D13*
X73500000Y-81500000D03*
D12*
X95000000Y-72000000D03*
X95000000Y-82000000D03*
D13*
X166600000Y-81500000D03*
D12*
X96000000Y-52000000D03*
X93600000Y-62000000D03*
D13*
X166600000Y-48500000D03*
X73500000Y-72500000D03*
D18*
X166200000Y-65735000D03*
D19*
X166200000Y-68275000D03*
D15*
X114460000Y-78000000D03*
D14*
X119540000Y-78000000D03*
D15*
X107580000Y-52000000D03*
D14*
X102500000Y-52000000D03*
M02*
